<?xml version="1.0" standalone="no"?>
<!DOCTYPE svg PUBLIC "-//W3C//DTD SVG 20010904//EN"
 "http://www.w3.org/TR/2001/REC-SVG-20010904/DTD/svg10.dtd">
<svg version="1.0" xmlns="http://www.w3.org/2000/svg"
 width="1413.000000pt" height="1085.000000pt" viewBox="0 0 1413.000000 1085.000000"
 preserveAspectRatio="xMidYMid meet">
<metadata>
Created by potrace 1.16, written by Peter Selinger 2001-2019
</metadata>
<g transform="translate(0.000000,1085.000000) scale(0.100000,-0.100000)"
fill="#000000" stroke="none">
<path d="M659 10386 c-20 -14 -42 -40 -50 -58 -12 -28 -14 -756 -14 -4913 0
-4603 1 -4882 17 -4912 10 -17 32 -40 50 -51 32 -20 58 -20 1401 -27 l1367 -7
0 731 0 731 3080 0 3080 0 0 335 0 335 -2907 0 -2908 1 30 24 30 25 3603 0
3602 0 0 340 0 340 -2540 0 -2540 0 0 715 0 715 3883 2 3882 3 0 335 0 335
-797 3 -798 2 0 315 0 315 70 0 70 0 0 340 0 340 -3395 0 -3395 0 0 230 0 230
2808 2 2807 3 0 665 0 665 -3272 3 -3273 2 0 230 0 230 -350 0 -350 0 0 245 0
245 -455 0 -455 0 0 230 0 230 250 0 250 0 0 250 0 250 -1166 0 -1166 0 -48
-35 c-26 -19 -56 -35 -66 -35 -11 0 -43 16 -71 35 -50 33 -56 35 -140 35 -77
0 -93 -3 -124 -24z m248 -21 c34 -22 64 -35 85 -35 21 0 52 13 85 35 l52 35
1146 0 1145 0 0 -235 0 -235 -1153 0 -1152 0 -52 -35 c-29 -19 -60 -35 -70
-35 -10 0 -42 16 -70 35 l-52 35 -131 0 -131 0 3 194 c3 192 3 195 28 221 36
40 76 54 150 55 58 0 71 -4 117 -35z m7 -490 c27 -19 61 -35 75 -35 15 0 50
16 78 35 50 33 57 35 138 35 l85 0 0 -44 c0 -74 -5 -78 -56 -53 -42 20 -45 20
-62 4 -25 -26 -25 -198 1 -224 17 -17 19 -17 59 5 32 17 43 19 50 10 4 -7 8
-2073 8 -4590 l0 -4578 -280 0 c-304 0 -322 3 -370 55 l-25 27 -3 4694 -2
4694 128 0 127 0 49 -35z m1213 -21 c-3 -31 -8 -58 -10 -60 -2 -2 -23 6 -46
18 l-42 23 -20 -24 c-28 -34 -28 -178 0 -212 l20 -24 42 23 c23 12 45 19 48
16 3 -3 7 -2069 9 -4590 l2 -4584 -410 0 -410 0 0 4583 c0 3992 -2 4586 -15
4603 -14 19 -15 19 -56 -5 -41 -23 -43 -23 -56 -5 -8 11 -13 46 -13 89 0 43 5
78 13 89 13 18 15 18 56 -5 41 -24 42 -24 56 -5 9 12 15 42 15 73 l0 53 411 0
412 0 -6 -56z m801 -239 c-3 -162 -7 -298 -11 -301 -3 -3 -23 4 -46 15 l-41
21 -20 -20 c-17 -17 -20 -33 -20 -100 0 -126 22 -152 94 -109 l36 21 0 -3691
c0 -2946 -3 -3691 -12 -3691 -7 0 -22 7 -32 15 -28 21 -63 19 -76 -4 -13 -25
-13 -161 0 -195 11 -30 45 -35 76 -11 41 31 44 23 44 -140 l0 -155 -46 23 -46
22 -19 -24 c-27 -33 -28 -178 -1 -211 l18 -22 42 21 c23 11 44 21 47 21 3 0 5
-70 5 -155 0 -85 -2 -155 -5 -155 -3 0 -24 10 -47 21 l-42 21 -18 -22 c-14
-17 -18 -40 -18 -101 0 -125 22 -151 94 -108 l36 21 0 -91 0 -91 -387 2 -388
3 -3 4593 c-2 4006 -4 4593 -17 4598 -8 3 -33 -5 -55 -17 -53 -30 -60 -20 -60
86 0 106 7 116 60 86 59 -33 70 -25 70 54 l0 65 396 0 397 0 -5 -295z m912
-383 c0 -110 -3 -247 -7 -306 l-6 -106 -34 20 c-73 43 -93 19 -93 -110 0 -60
4 -83 18 -100 l18 -22 42 21 c23 11 44 21 47 21 3 0 5 -36 5 -80 l0 -79 -44
-31 c-58 -39 -84 -38 -151 6 -54 36 -56 36 -138 32 -66 -3 -90 -9 -115 -27
-68 -48 -62 213 -62 -2957 l0 -2877 21 -34 c38 -61 61 -67 287 -71 l202 -4 0
-60 0 -60 -36 21 c-74 44 -94 21 -94 -109 0 -60 4 -83 18 -100 l18 -22 42 21
c23 11 44 21 47 21 3 0 5 -76 5 -170 l0 -170 -445 0 -445 0 0 3620 c0 3372 -1
3621 -17 3627 -9 4 -29 -1 -45 -10 -59 -34 -68 -22 -68 92 0 96 9 108 61 79
56 -31 69 -21 69 57 l0 65 450 0 450 0 0 -198z m690 -517 l0 -225 -337 2 -338
3 -3 83 c-3 97 -13 107 -74 72 -52 -29 -58 -21 -58 93 0 101 7 109 66 78 51
-28 64 -15 64 60 l0 59 340 0 340 0 0 -225z m-897 -270 c31 -21 64 -35 82 -35
18 0 51 14 82 35 l52 35 356 0 355 0 0 -60 c0 -64 -8 -72 -44 -45 -28 21 -63
19 -76 -4 -13 -25 -13 -177 0 -202 13 -22 47 -24 74 -4 44 33 46 25 46 -155
l0 -170 -360 0 -361 0 -52 -35 c-28 -19 -61 -35 -72 -35 -11 0 -44 16 -72 35
l-52 35 -131 0 -131 0 3 268 c3 295 6 308 67 349 28 19 47 23 108 23 68 0 78
-3 126 -35z m7447 -285 l0 -320 -3250 0 -3250 0 0 175 c0 197 -3 204 -66 170
-60 -32 -71 -10 -64 125 3 66 14 75 60 49 57 -32 70 -22 70 56 l0 65 3250 0
3250 0 0 -320z m-7443 -375 c29 -19 64 -35 78 -35 14 0 49 16 78 35 l52 35
357 0 358 0 0 -61 c0 -33 -3 -59 -7 -57 -5 2 -25 12 -47 23 l-38 20 -19 -24
c-28 -34 -28 -178 0 -212 l19 -24 38 20 c22 11 42 21 47 23 4 2 7 -75 7 -172
l0 -176 -362 0 -363 -1 -55 -34 c-30 -19 -59 -35 -65 -35 -6 0 -33 15 -61 33
-48 31 -52 32 -184 37 l-135 5 -3 318 -2 317 127 0 128 0 52 -35z m7443 -285
l0 -320 -3247 2 -3248 3 -3 171 c-3 201 -7 210 -71 173 -23 -12 -44 -19 -48
-15 -19 18 -19 184 0 202 4 4 27 -4 52 -17 56 -29 65 -21 65 64 l0 57 3250 0
3250 0 0 -320z m-7453 -365 c36 -24 64 -35 88 -35 24 0 52 11 88 35 l52 35
352 0 353 0 0 -66 0 -66 -36 21 c-74 44 -94 23 -94 -102 0 -67 4 -90 18 -107
l18 -22 42 21 c23 11 44 21 47 21 3 0 5 -808 5 -1795 l0 -1795 -360 0 -361 0
-52 -35 c-28 -19 -61 -35 -72 -35 -11 0 -44 16 -72 35 l-52 35 -131 0 -130 0
0 1945 0 1945 123 0 122 0 52 -35z m1833 -268 c0 -162 -3 -296 -6 -300 -3 -3
-26 4 -50 16 -42 20 -45 20 -62 4 -25 -26 -25 -198 0 -224 17 -16 20 -16 62 4
24 12 47 19 50 16 8 -8 8 -447 0 -467 -5 -13 -11 -13 -43 6 -64 37 -91 6 -91
-103 0 -58 20 -129 37 -129 5 0 25 9 46 20 21 11 42 18 47 15 13 -8 13 -462 0
-470 -5 -3 -23 1 -39 10 -66 34 -91 6 -91 -105 0 -111 25 -139 91 -105 16 9
34 13 39 10 11 -7 14 -457 4 -468 -3 -3 -26 4 -50 16 -42 20 -45 20 -62 4 -25
-26 -25 -198 0 -224 17 -16 20 -16 62 4 24 12 47 19 50 16 10 -11 7 -291 -4
-298 -5 -3 -23 1 -39 10 -66 34 -91 6 -91 -105 0 -111 25 -139 91 -105 16 9
34 13 39 10 11 -7 14 -287 4 -298 -3 -3 -26 4 -50 16 -40 19 -46 20 -60 5 -31
-30 -31 -181 0 -223 13 -18 15 -18 55 3 23 13 47 20 52 17 5 -4 9 -42 9 -86
l0 -79 -440 0 -440 0 0 1800 c0 2012 7 1835 -72 1790 -33 -18 -42 -20 -49 -9
-16 25 -14 177 2 193 5 6 25 2 51 -12 56 -28 68 -17 68 59 l0 59 440 0 440 0
0 -293z m6798 -504 l-3 -318 -3387 -3 -3387 -2 -3 175 c-2 115 -7 178 -15 186
-8 8 -21 6 -53 -12 -41 -23 -42 -23 -56 -4 -18 25 -19 154 -1 179 13 18 15 18
55 -5 52 -30 64 -20 70 61 l4 60 3389 0 3389 0 -2 -317z m-148 -658 l0 -315
-3314 0 -3315 0 -3 170 c-4 199 -6 205 -73 172 -44 -21 -45 -21 -55 -2 -11 20
-13 131 -4 168 8 28 23 28 69 1 47 -28 57 -18 63 61 l4 60 3314 0 3314 0 0
-315z m1600 -655 l0 -320 -4115 0 -4115 0 0 158 c0 86 -3 167 -6 180 -7 26
-39 29 -68 7 -26 -20 -52 -19 -60 1 -3 9 -6 46 -6 84 0 106 8 115 76 83 35
-17 36 -17 50 2 8 10 14 42 14 72 l0 53 4115 0 4115 0 0 -320z m-7760 -570 l0
-230 -234 0 -234 0 -3 85 c-5 105 -13 115 -69 84 -41 -23 -42 -23 -56 -4 -18
25 -19 154 -1 179 13 18 15 18 55 -5 52 -30 64 -20 70 61 l4 60 234 0 234 0 0
-230z m-2 -487 l2 -233 -235 0 -235 0 0 73 c0 39 -3 82 -6 95 -7 26 -39 29
-68 7 -26 -20 -52 -19 -60 1 -3 9 -6 46 -6 84 0 38 3 75 6 84 8 20 34 21 60 1
47 -35 74 -8 74 75 l0 50 233 -2 232 -3 3 -232z m2 -483 l0 -230 -234 0 -234
0 -3 85 c-5 107 -15 119 -71 86 -40 -23 -42 -23 -55 -5 -18 25 -17 154 1 179
14 19 15 19 56 -4 53 -29 62 -21 68 59 l4 60 234 0 234 0 0 -230z m-2313 -285
c29 -19 64 -35 78 -35 14 0 49 16 78 35 l52 35 357 0 358 0 0 -60 c0 -33 -2
-60 -5 -60 -3 0 -24 10 -47 21 l-42 21 -18 -22 c-14 -17 -18 -40 -18 -100 0
-130 20 -153 94 -109 l36 21 0 -176 0 -176 -360 0 -361 0 -52 -35 c-28 -19
-61 -35 -72 -35 -11 0 -44 16 -72 35 -49 33 -58 35 -130 35 -87 0 -128 17
-160 67 -16 24 -18 57 -21 300 l-3 273 128 0 128 0 52 -35z m7383 -285 l0
-320 -3220 0 -3220 0 0 174 c0 201 -2 207 -68 174 -51 -26 -59 -20 -62 47 -6
139 2 157 58 125 59 -33 72 -24 72 55 l0 65 3220 0 3220 0 0 -320z m-7604
-326 c18 -8 66 -14 106 -14 63 0 77 -4 103 -25 l30 -24 -103 -1 c-65 0 -115 5
-136 14 -37 16 -76 60 -76 87 0 18 1 18 21 -2 11 -11 36 -27 55 -35z m6154
-399 l0 -315 -2860 0 -2860 0 0 175 c0 153 -2 176 -16 182 -9 3 -24 2 -33 -4
-64 -40 -61 -39 -71 -23 -12 19 -13 170 0 190 8 12 15 11 52 -7 56 -29 68 -18
68 58 l0 59 2860 0 2860 0 0 -315z m-6160 -570 l0 -235 -235 0 -235 0 0 90 c0
102 -10 117 -62 87 -59 -34 -68 -22 -68 94 0 91 10 103 64 74 52 -28 66 -16
66 53 0 32 3 62 7 65 3 4 109 7 235 7 l228 0 0 -235z m0 -485 l0 -230 -235 0
-235 0 0 90 c0 106 -7 114 -70 79 -53 -30 -60 -20 -60 86 0 107 6 116 63 88
56 -27 67 -18 67 59 l0 58 235 0 235 0 0 -230z m0 -485 l0 -235 -232 2 -233 3
-3 87 c-3 105 -12 115 -70 85 -55 -28 -62 -19 -62 89 0 99 9 111 61 82 56 -31
69 -21 69 57 l0 65 235 0 235 0 0 -235z"/>
<path d="M1220 10165 c0 -57 4 -95 10 -95 6 0 10 38 10 95 0 57 -4 95 -10 95
-6 0 -10 -38 -10 -95z"/>
<path d="M1540 10165 c0 -52 4 -95 9 -95 5 0 11 12 13 27 4 37 20 38 43 3 11
-16 26 -30 33 -30 8 0 2 15 -14 40 l-27 41 23 24 c13 14 20 28 16 32 -4 5 -21
-7 -37 -25 -16 -17 -31 -32 -34 -32 -3 0 -5 25 -5 55 0 30 -4 55 -10 55 -6 0
-10 -38 -10 -95z"/>
<path d="M2740 10165 c0 -57 4 -95 10 -95 6 0 10 38 10 95 0 57 -4 95 -10 95
-6 0 -10 -38 -10 -95z"/>
<path d="M2790 10165 c0 -78 3 -95 15 -95 12 0 15 17 15 95 0 78 -3 95 -15 95
-12 0 -15 -17 -15 -95z"/>
<path d="M2850 10250 c0 -5 5 -10 10 -10 6 0 10 5 10 10 0 6 -4 10 -10 10 -5
0 -10 -4 -10 -10z"/>
<path d="M2990 10230 c0 -27 -2 -29 -29 -24 -35 7 -61 -24 -61 -71 0 -47 14
-59 65 -61 l45 -2 0 94 c0 56 -4 94 -10 94 -5 0 -10 -13 -10 -30z m-5 -90 c0
-39 -3 -45 -22 -48 -16 -2 -26 4 -35 22 -16 37 3 79 35 74 19 -3 22 -9 22 -48z"/>
<path d="M786 10228 c-8 -33 -8 -38 8 -38 8 0 13 11 12 30 -1 35 -11 39 -20 8z"/>
<path d="M830 10220 c0 -16 4 -30 9 -30 4 0 8 13 7 30 -1 39 -16 39 -16 0z"/>
<path d="M1050 10160 l0 -90 53 0 c67 0 97 25 79 65 -6 14 -16 25 -22 25 -7 0
-4 7 4 16 38 37 5 74 -65 74 l-49 0 0 -90z m95 40 c0 -21 -5 -26 -32 -28 -31
-3 -33 -1 -33 28 0 29 2 31 33 28 27 -2 32 -7 32 -28z m10 -80 c0 -22 -5 -25
-37 -28 -36 -3 -38 -2 -38 28 0 30 2 31 38 28 32 -3 37 -6 37 -28z"/>
<path d="M1756 10231 c-27 -30 -12 -58 37 -72 57 -16 74 -33 57 -53 -16 -20
-64 -21 -84 -1 -18 19 -26 19 -26 0 0 -19 31 -35 67 -35 56 0 94 50 60 78 -7
6 -31 17 -53 24 -28 9 -39 19 -39 33 0 24 48 33 71 14 8 -6 18 -9 22 -5 12 12
-30 36 -63 36 -19 0 -39 -8 -49 -19z"/>
<path d="M2443 10235 c-43 -30 -38 -131 8 -155 31 -17 78 -11 101 12 14 14 17
23 10 26 -7 2 -19 -4 -28 -12 -31 -32 -79 -13 -97 37 -7 20 9 68 26 79 20 13
55 9 71 -7 18 -19 26 -19 26 0 0 33 -79 47 -117 20z"/>
<path d="M1287 10192 c-23 -25 -22 -85 1 -105 57 -52 131 31 88 98 -20 30 -65
34 -89 7z m71 -50 c2 -32 -1 -44 -14 -49 -36 -14 -62 24 -50 73 5 20 12 25 34
22 24 -3 27 -8 30 -46z"/>
<path d="M1427 10192 c-10 -10 -17 -34 -17 -54 0 -61 57 -90 95 -48 16 18 16
20 2 20 -10 0 -17 -4 -17 -10 0 -14 -33 -13 -48 2 -13 13 -16 47 -6 72 7 18
39 22 49 6 3 -5 13 -10 22 -10 14 0 14 3 -2 20 -23 25 -57 26 -78 2z"/>
<path d="M1910 10145 c0 -60 2 -65 24 -71 14 -3 31 -2 38 2 9 6 6 10 -12 14
-23 5 -25 11 -28 63 -4 78 -22 72 -22 -8z"/>
<path d="M1988 10153 c-4 -62 -1 -83 13 -83 5 0 9 32 9 70 0 84 -17 94 -22 13z"/>
<path d="M2050 10114 c0 -56 4 -94 10 -94 10 0 15 51 11 99 -4 46 8 71 33 71
27 0 41 -33 30 -75 -4 -18 -13 -25 -31 -25 -13 0 -21 -4 -18 -10 9 -15 42 -12
59 6 18 17 21 80 6 104 -5 9 -27 15 -55 16 l-45 2 0 -94z"/>
<path d="M2208 10200 c-40 -24 -29 -114 16 -126 33 -8 66 4 66 23 0 12 -3 13
-14 3 -23 -18 -61 -8 -64 18 -3 20 1 22 42 22 39 0 46 3 46 19 0 41 -51 64
-92 41z m66 -25 c4 -12 -3 -15 -29 -15 -33 0 -43 8 -28 23 12 13 51 7 57 -8z"/>
<path d="M2330 10140 c0 -40 4 -70 10 -70 6 0 10 20 10 45 0 32 6 51 21 66 23
23 18 39 -6 19 -10 -8 -15 -9 -15 -1 0 6 -4 11 -10 11 -6 0 -10 -30 -10 -70z"/>
<path d="M2606 10188 c-34 -49 -8 -118 44 -118 35 0 60 31 60 76 0 59 -72 88
-104 42z m76 -23 c15 -33 -3 -75 -32 -75 -29 0 -47 42 -32 75 7 15 20 25 32
25 12 0 25 -10 32 -25z"/>
<path d="M2850 10140 c0 -40 4 -70 10 -70 6 0 10 30 10 70 0 40 -4 70 -10 70
-6 0 -10 -30 -10 -70z"/>
<path d="M3056 10188 c-34 -48 -8 -118 43 -118 29 0 60 25 47 37 -4 4 -11 2
-15 -6 -12 -19 -53 -9 -62 17 -8 21 -6 22 41 22 54 0 61 10 34 48 -10 14 -26
22 -44 22 -18 0 -34 -8 -44 -22z m74 -13 c11 -13 7 -15 -24 -15 -34 0 -44 8
-29 23 11 12 40 8 53 -8z"/>
<path d="M3190 10140 c0 -40 4 -70 10 -70 6 0 10 20 10 45 0 32 6 51 21 66 23
23 18 39 -6 19 -10 -8 -15 -9 -15 -1 0 6 -4 11 -10 11 -6 0 -10 -30 -10 -70z"/>
<path d="M800 5170 c0 -38 4 -70 8 -70 24 0 147 58 147 69 0 11 -123 71 -146
71 -5 0 -9 -31 -9 -70z m83 19 c20 -7 37 -16 37 -20 0 -6 -78 -39 -93 -39 -4
0 -7 18 -7 41 0 29 4 40 13 36 6 -2 29 -10 50 -18z"/>
<path d="M1490 5257 c0 -7 13 -26 30 -42 l29 -28 -34 -42 c-19 -23 -35 -45
-35 -49 0 -3 32 -6 70 -6 40 0 70 4 70 10 0 6 -26 10 -57 10 l-57 0 32 33 c18
18 32 37 32 42 0 5 -12 22 -27 37 l-27 28 47 0 c26 0 47 5 47 10 0 6 -27 10
-60 10 -43 0 -60 -4 -60 -13z"/>
<path d="M2362 9644 c-23 -20 -40 -40 -36 -45 3 -5 24 6 47 26 22 19 46 35 52
35 23 0 25 -14 3 -37 -29 -31 -14 -43 17 -13 23 22 26 22 43 7 26 -23 39 -21
18 2 -19 21 -14 41 9 41 7 0 27 -17 44 -37 18 -22 31 -31 31 -23 0 23 -56 80
-77 80 -11 0 -24 -5 -30 -11 -8 -8 -17 -8 -31 0 -32 17 -45 14 -90 -25z"/>
<path d="M2368 5724 c-7 -8 -21 -24 -30 -34 -9 -10 -13 -20 -8 -22 5 -2 2 -34
-6 -71 -14 -61 -18 -67 -36 -61 -14 4 -18 2 -14 -5 22 -34 54 6 76 96 6 25 17
43 28 46 16 4 16 5 0 6 -22 1 -23 11 -3 37 13 16 16 17 25 4 8 -13 10 -13 10
3 0 21 -25 22 -42 1z"/>
<path d="M2384 1741 c-22 -10 -64 -57 -64 -73 0 -5 15 7 34 26 29 31 40 36 78
36 48 0 98 -29 98 -56 0 -8 5 -14 10 -14 19 0 10 26 -19 54 -32 31 -98 43
-137 27z"/>
<path d="M2438 1213 c10 -4 1 -19 -29 -49 -23 -24 -46 -41 -51 -38 -4 3 -8 -6
-8 -20 0 -23 4 -26 33 -25 17 1 24 3 15 6 -26 7 -23 14 26 62 30 30 45 39 49
29 3 -7 6 -1 6 15 1 23 -3 27 -26 26 -16 0 -22 -3 -15 -6z"/>
<path d="M2354 745 c-4 -16 -14 -25 -28 -26 -16 -1 -17 -2 -3 -6 11 -3 17 -14
17 -34 0 -21 -5 -29 -17 -29 -14 0 -15 -2 -4 -9 8 -5 12 -18 8 -30 -3 -12 -1
-21 3 -21 5 0 10 10 12 23 2 14 11 23 27 25 21 3 23 1 17 -22 -4 -15 -2 -26 4
-26 5 0 10 9 10 20 0 12 10 24 23 30 17 7 18 9 5 9 -30 1 -20 51 12 64 12 4
11 6 -3 6 -14 1 -16 6 -11 27 5 19 4 25 -5 20 -6 -4 -11 -16 -11 -27 0 -13 -7
-19 -24 -19 -19 0 -22 4 -18 25 2 14 2 25 -2 25 -3 0 -8 -11 -12 -25z m46 -65
c0 -25 -4 -30 -25 -30 -27 0 -28 3 -19 38 4 13 14 22 25 22 14 0 19 -7 19 -30z"/>
<path d="M3130 9295 c0 -4 7 -13 15 -21 19 -20 19 -47 0 -84 -27 -52 -35 -80
-24 -80 5 0 20 21 31 47 23 51 22 52 48 -19 10 -30 35 -40 26 -10 -33 100 -64
167 -79 170 -9 2 -17 1 -17 -3z"/>
<path d="M3129 8721 c-9 -30 -9 -44 2 -67 17 -34 57 -44 75 -20 10 15 12 15
18 1 8 -22 53 -19 66 4 20 38 8 121 -17 121 -9 0 -12 -6 -9 -17 15 -52 16 -69
3 -87 -17 -24 -37 -13 -37 20 0 15 -6 24 -15 24 -9 0 -15 -9 -15 -25 0 -29
-28 -45 -41 -24 -12 19 -11 66 1 90 8 15 7 19 -4 19 -9 0 -20 -16 -27 -39z"/>
<path d="M3120 8340 c0 -5 5 -10 10 -10 6 0 10 5 10 10 0 6 -4 10 -10 10 -5 0
-10 -4 -10 -10z"/>
<path d="M3120 8290 c0 -5 5 -10 10 -10 6 0 10 5 10 10 0 6 -4 10 -10 10 -5 0
-10 -4 -10 -10z"/>
<path d="M3120 8230 c0 -5 5 -10 10 -10 6 0 10 5 10 10 0 6 -4 10 -10 10 -5 0
-10 -4 -10 -10z"/>
<path d="M3120 8170 c0 -5 5 -10 10 -10 6 0 10 5 10 10 0 6 -4 10 -10 10 -5 0
-10 -4 -10 -10z"/>
<path d="M3172 2178 c-8 -8 -9 -15 -1 -25 13 -15 33 -18 24 -3 -3 5 21 11 57
13 l63 3 -63 2 c-39 1 -61 6 -57 12 9 14 -8 13 -23 -2z"/>
<path d="M4040 8776 c0 -8 -6 -17 -12 -20 -10 -5 -10 -7 0 -12 7 -3 12 -26 12
-60 0 -57 18 -80 43 -55 8 8 7 11 -6 11 -14 0 -17 10 -17 49 0 30 5 52 13 55
10 5 10 7 0 12 -7 3 -13 12 -13 20 0 8 -4 14 -10 14 -5 0 -10 -6 -10 -14z"/>
<path d="M4100 8689 c0 -55 3 -69 15 -69 12 0 15 13 15 56 0 47 3 57 20 61 32
8 23 21 -15 21 l-35 0 0 -69z"/>
<path d="M3526 8188 c-34 -48 -8 -118 43 -118 29 0 60 25 47 37 -4 4 -11 2
-15 -6 -12 -19 -53 -9 -62 17 -8 21 -6 22 41 22 54 0 61 10 34 48 -10 14 -26
22 -44 22 -18 0 -34 -8 -44 -22z m74 -13 c11 -13 7 -15 -24 -15 -34 0 -44 8
-29 23 11 12 40 8 53 -8z"/>
<path d="M4037 8183 c-12 -11 -8 -23 8 -23 8 0 15 7 15 15 0 16 -12 20 -23 8z"/>
<path d="M4080 8170 c0 -6 33 -10 80 -10 47 0 80 4 80 10 0 6 -33 10 -80 10
-47 0 -80 -4 -80 -10z"/>
<path d="M4037 8133 c-12 -11 -8 -23 8 -23 8 0 15 7 15 15 0 16 -12 20 -23 8z"/>
<path d="M4080 8120 c0 -6 33 -10 80 -10 47 0 80 4 80 10 0 6 -33 10 -80 10
-47 0 -80 -4 -80 -10z"/>
<path d="M5720 8353 c0 -81 -7 -88 -58 -61 -40 22 -42 22 -59 5 -15 -14 -18
-35 -18 -112 0 -77 3 -98 18 -112 17 -17 19 -17 59 5 53 29 58 22 58 -85 l0
-83 250 0 250 0 0 250 0 250 -250 0 -250 0 0 -57z m490 -193 l0 -230 -234 0
-234 0 -3 85 c-5 107 -14 118 -74 85 -24 -13 -48 -21 -52 -16 -4 4 -8 50 -8
101 0 51 4 97 8 101 4 5 28 -3 52 -16 56 -31 67 -22 73 60 l4 60 234 0 234 0
0 -230z"/>
<path d="M5934 8236 c-15 -12 -19 -27 -19 -76 0 -49 4 -64 19 -76 49 -35 96 1
96 74 0 79 -45 115 -96 78z m66 -25 c24 -46 5 -121 -31 -121 -20 0 -39 34 -39
70 0 60 47 94 70 51z"/>
<path d="M6750 8340 c0 -38 -3 -70 -7 -70 -5 0 -21 9 -38 20 -65 43 -89 15
-89 -105 0 -120 24 -148 89 -105 17 11 33 20 38 20 4 0 7 -43 7 -95 l0 -95
325 0 325 0 0 250 0 250 -325 0 -325 0 0 -70z m630 -180 l0 -230 -305 0 -305
0 0 83 c0 110 -6 118 -66 89 -34 -17 -50 -20 -58 -12 -15 15 -14 176 0 190 9
9 22 6 54 -10 56 -29 70 -17 70 61 l0 59 305 0 305 0 0 -230z"/>
<path d="M6977 8232 c-19 -21 -23 -42 -5 -24 22 22 28 12 28 -53 0 -63 -1 -65
-25 -65 -14 0 -25 -4 -25 -10 0 -5 25 -10 55 -10 30 0 55 5 55 10 0 6 -9 10
-20 10 -18 0 -20 7 -20 80 0 85 -10 99 -43 62z"/>
<path d="M7106 8234 c-18 -17 -21 -34 -7 -34 5 0 14 7 21 15 28 33 71 5 51
-33 -5 -9 -25 -33 -45 -51 -51 -49 -47 -61 19 -61 30 0 55 5 55 10 0 6 -18 10
-40 10 -22 0 -40 3 -40 7 0 4 18 24 40 44 27 25 40 45 40 62 0 43 -62 63 -94
31z"/>
<path d="M8040 8340 c0 -38 -3 -70 -6 -70 -4 0 -23 10 -44 21 -48 27 -66 21
-79 -28 -21 -74 -6 -188 25 -200 9 -3 33 4 54 16 21 11 40 21 44 21 3 0 6 -43
6 -95 l0 -95 360 0 360 0 0 250 0 250 -360 0 -360 0 0 -70z m700 -180 l0 -230
-340 0 -340 0 0 84 c0 106 -12 120 -71 86 -56 -31 -64 -19 -64 85 0 105 8 116
65 84 41 -23 42 -23 56 -4 8 10 14 42 14 72 l0 53 340 0 340 0 0 -230z"/>
<path d="M8244 8223 c-6 -11 -8 -45 -5 -83 5 -58 8 -65 29 -68 25 -4 30 13 7
22 -10 4 -15 20 -15 51 0 33 4 45 15 45 8 0 15 5 15 10 0 6 -6 10 -14 10 -8 0
-16 7 -18 15 -2 13 -5 13 -14 -2z"/>
<path d="M8310 8140 c0 -40 4 -70 10 -70 6 0 10 15 10 34 0 46 16 86 35 86 8
0 15 5 15 10 0 14 -23 13 -38 -2 -9 -9 -12 -9 -12 0 0 7 -4 12 -10 12 -6 0
-10 -30 -10 -70z"/>
<path d="M9337 8344 c-2 -36 -7 -67 -9 -70 -3 -2 -24 6 -47 18 l-42 23 -20
-24 c-15 -19 -19 -39 -19 -106 0 -67 4 -87 19 -106 l20 -24 42 23 c23 12 45
20 48 17 2 -3 7 -46 9 -95 l4 -90 249 0 249 0 0 250 0 250 -249 0 -248 0 -6
-66z m483 -184 l0 -230 -235 0 -235 0 0 89 c0 57 -4 92 -11 97 -7 4 -32 -4
-56 -17 -56 -31 -63 -22 -63 86 0 106 7 116 60 86 59 -33 70 -25 70 54 l0 65
235 0 235 0 0 -230z"/>
<path d="M9562 8234 c-12 -8 -22 -20 -22 -27 0 -8 3 -8 12 1 22 22 28 12 28
-53 0 -58 -2 -65 -20 -65 -11 0 -20 -4 -20 -10 0 -5 25 -10 55 -10 30 0 55 5
55 10 0 6 -11 10 -25 10 -25 0 -25 1 -25 80 0 44 -3 80 -8 80 -4 0 -18 -7 -30
-16z"/>
<path d="M10420 8346 c0 -36 -4 -67 -8 -70 -5 -3 -23 4 -40 15 -46 27 -61 24
-78 -16 -29 -69 -9 -215 30 -215 9 0 30 9 48 19 17 11 35 18 40 15 4 -3 8 -45
8 -95 l0 -89 255 0 255 0 0 250 0 250 -255 0 -255 0 0 -64z m490 -186 l0 -230
-235 0 -235 0 0 78 c0 51 -5 85 -14 97 -14 19 -15 19 -57 -4 -40 -23 -43 -23
-56 -6 -8 12 -13 46 -13 90 0 44 5 78 13 90 13 17 16 17 56 -6 42 -23 43 -23
57 -4 8 10 14 42 14 72 l0 53 235 0 235 0 0 -230z"/>
<path d="M10637 8235 c-20 -20 -30 -68 -22 -105 8 -39 30 -60 60 -60 33 0 55
36 55 90 0 25 -7 56 -16 68 -17 25 -56 29 -77 7z m61 -17 c7 -7 12 -33 12 -58
0 -49 -13 -70 -41 -70 -25 0 -31 15 -31 70 0 26 3 53 6 59 9 15 39 14 54 -1z"/>
<path d="M5370 8150 l0 -110 33 0 c29 1 30 2 15 14 -15 11 -18 30 -18 110 0
79 -3 96 -15 96 -12 0 -15 -19 -15 -110z"/>
<path d="M6422 8246 c14 -10 18 -32 20 -112 4 -137 22 -128 26 14 l3 112 -33
0 c-29 -1 -31 -2 -16 -14z"/>
<path d="M4980 8160 l0 -90 90 0 90 0 0 90 0 90 -90 0 -90 0 0 -90z m160 0 l0
-70 -70 0 -70 0 0 70 0 70 70 0 70 0 0 -70z"/>
<path d="M5095 8210 c-11 -17 5 -32 21 -19 7 6 11 15 8 20 -7 12 -21 11 -29
-1z"/>
<path d="M5020 8126 c0 -9 7 -16 16 -16 17 0 14 22 -4 28 -7 2 -12 -3 -12 -12z"/>
<path d="M4855 8200 c-17 -18 -17 -20 -2 -14 14 5 17 0 17 -23 0 -36 -16 -53
-52 -53 -15 0 -28 -4 -28 -10 0 -18 59 -11 80 10 11 11 20 33 20 51 0 21 4 28
13 23 6 -4 3 2 -7 14 -23 26 -19 26 -41 2z"/>
<path d="M7664 8198 c-17 -19 -17 -21 -1 -15 14 5 17 1 17 -27 0 -36 -13 -46
-56 -46 -13 0 -24 -4 -24 -10 0 -16 67 -12 84 6 9 8 16 31 16 51 0 29 3 34 17
29 15 -6 15 -4 -2 14 -23 25 -27 25 -51 -2z"/>
<path d="M10070 8190 c0 -25 -4 -30 -25 -30 -14 0 -25 -4 -25 -10 0 -5 11 -10
25 -10 20 0 25 -5 25 -25 0 -14 5 -25 10 -25 6 0 10 11 10 25 0 20 5 25 25 25
14 0 25 5 25 10 0 6 -11 10 -25 10 -21 0 -25 5 -25 30 0 17 -4 30 -10 30 -5 0
-10 -13 -10 -30z"/>
<path d="M8960 8185 l23 -25 -21 -23 c-29 -30 -16 -44 14 -16 l23 22 20 -24
c11 -13 23 -21 27 -16 4 4 -2 17 -14 30 l-22 23 22 22 c29 29 15 42 -15 14
l-24 -22 -18 20 c-10 11 -23 20 -28 20 -6 0 0 -11 13 -25z"/>
<path d="M3600 7570 c0 -27 -2 -29 -29 -24 -35 7 -61 -24 -61 -71 0 -47 14
-59 65 -61 l45 -2 0 94 c0 56 -4 94 -10 94 -5 0 -10 -13 -10 -30z m-5 -90 c0
-39 -3 -45 -22 -48 -32 -5 -51 37 -35 74 9 18 19 24 35 22 19 -3 22 -9 22 -48z"/>
<path d="M4037 7523 c-12 -11 -8 -23 8 -23 8 0 15 7 15 15 0 16 -12 20 -23 8z"/>
<path d="M4080 7510 c0 -6 33 -10 80 -10 47 0 80 4 80 10 0 6 -33 10 -80 10
-47 0 -80 -4 -80 -10z"/>
<path d="M4037 7473 c-12 -11 -8 -23 8 -23 8 0 15 7 15 15 0 16 -12 20 -23 8z"/>
<path d="M4080 7460 c0 -6 33 -10 80 -10 47 0 80 4 80 10 0 6 -33 10 -80 10
-47 0 -80 -4 -80 -10z"/>
<path d="M5720 7696 c0 -84 -5 -90 -49 -64 -68 39 -95 2 -89 -124 2 -56 8 -82
20 -94 15 -16 19 -15 58 5 23 12 46 19 51 16 5 -4 9 -46 9 -96 l0 -89 250 0
250 0 0 250 0 250 -250 0 -250 0 0 -54z m490 -196 l0 -230 -234 0 -234 0 -3
85 c-5 106 -13 117 -74 87 -44 -21 -45 -21 -55 -2 -11 20 -14 148 -4 174 8 20
33 20 58 1 11 -8 30 -15 42 -15 23 0 34 30 34 96 l0 34 235 0 235 0 0 -230z"/>
<path d="M5939 7569 l-24 -21 23 5 c21 5 22 2 22 -59 0 -57 -2 -64 -20 -64
-11 0 -20 -4 -20 -10 0 -5 25 -10 55 -10 30 0 55 5 55 10 0 6 -9 10 -20 10
-18 0 -20 7 -20 80 0 88 -8 97 -51 59z"/>
<path d="M6750 7687 c0 -35 -3 -66 -6 -70 -3 -3 -20 3 -37 14 -61 37 -82 21
-93 -72 -7 -59 8 -130 31 -149 12 -10 22 -8 50 9 20 12 40 21 46 21 5 0 9 -42
9 -95 l0 -95 325 0 325 0 0 250 0 250 -325 0 -325 0 0 -63z m630 -187 l0 -230
-305 0 -305 0 0 79 c0 119 -10 131 -77 90 -49 -30 -58 -17 -58 86 0 104 8 116
64 90 59 -26 71 -17 71 55 l0 60 305 0 305 0 0 -230z"/>
<path d="M6977 7572 c-19 -21 -23 -42 -5 -24 22 22 28 12 28 -53 0 -63 -1 -65
-25 -65 -14 0 -25 -4 -25 -10 0 -5 25 -10 55 -10 30 0 55 5 55 10 0 6 -9 10
-20 10 -18 0 -20 7 -20 80 0 85 -10 99 -43 62z"/>
<path d="M7106 7574 c-18 -17 -21 -34 -7 -34 5 0 14 7 21 15 28 33 71 5 51
-33 -5 -9 -25 -33 -45 -51 -51 -49 -47 -61 19 -61 30 0 55 5 55 10 0 6 -18 10
-40 10 -22 0 -40 3 -40 7 0 4 18 24 40 44 27 25 40 45 40 62 0 43 -62 63 -94
31z"/>
<path d="M8040 7687 c0 -35 -2 -66 -6 -69 -3 -3 -22 4 -43 15 -20 11 -45 18
-54 14 -47 -18 -48 -223 0 -241 8 -4 31 3 50 14 19 11 38 20 44 20 5 0 9 -42
9 -95 l0 -95 360 0 360 0 0 250 0 250 -360 0 -360 0 0 -63z m700 -187 l0 -230
-340 0 -340 0 0 79 c0 119 -10 131 -77 90 -24 -15 -38 -18 -45 -11 -15 15 -22
142 -9 176 12 30 15 30 79 4 42 -16 52 -4 52 70 l0 52 340 0 340 0 0 -230z"/>
<path d="M8244 7563 c-6 -11 -8 -45 -5 -83 5 -58 8 -65 29 -68 25 -4 30 13 7
22 -10 4 -15 20 -15 51 0 33 4 45 15 45 8 0 15 5 15 10 0 6 -6 10 -14 10 -8 0
-16 7 -18 15 -2 13 -5 13 -14 -2z"/>
<path d="M8310 7480 c0 -40 4 -70 10 -70 6 0 10 15 10 34 0 46 16 86 35 86 8
0 15 5 15 10 0 14 -23 13 -38 -2 -9 -9 -12 -9 -12 0 0 7 -4 12 -10 12 -6 0
-10 -30 -10 -70z"/>
<path d="M9340 7711 c0 -21 -3 -53 -6 -70 l-7 -31 -34 20 c-47 28 -68 25 -83
-10 -18 -43 -10 -185 12 -206 15 -16 19 -15 58 5 24 12 45 19 48 16 3 -3 8
-46 10 -95 l4 -90 249 0 249 0 0 250 0 250 -250 0 -250 0 0 -39z m480 -211 l0
-230 -235 0 -235 0 0 90 c0 105 -9 116 -69 82 -52 -29 -61 -17 -61 83 0 105 6
114 59 91 59 -27 71 -18 71 54 l0 60 235 0 235 0 0 -230z"/>
<path d="M9562 7574 c-12 -8 -22 -20 -22 -27 0 -8 3 -8 12 1 22 22 28 12 28
-53 0 -58 -2 -65 -20 -65 -11 0 -20 -4 -20 -10 0 -5 25 -10 55 -10 30 0 55 5
55 10 0 6 -11 10 -25 10 -25 0 -25 1 -25 80 0 44 -3 80 -8 80 -4 0 -18 -7 -30
-16z"/>
<path d="M10420 7687 c0 -35 -3 -66 -6 -70 -4 -3 -24 4 -45 16 -62 35 -86 8
-88 -98 -1 -55 14 -121 30 -130 5 -4 28 2 51 14 23 11 45 18 50 15 4 -3 8 -45
8 -95 l0 -89 255 0 255 0 0 250 0 250 -255 0 -255 0 0 -63z m490 -187 l0 -230
-235 0 -235 0 0 73 c0 124 -9 133 -81 97 l-39 -21 -10 26 c-11 29 -13 127 -4
163 7 25 32 29 60 7 25 -19 60 -19 68 1 3 9 6 38 6 65 l0 49 235 0 235 0 0
-230z"/>
<path d="M10637 7575 c-20 -20 -30 -68 -22 -105 8 -39 30 -60 60 -60 33 0 55
36 55 90 0 25 -7 56 -16 68 -17 25 -56 29 -77 7z m61 -17 c7 -7 12 -33 12 -58
0 -49 -13 -70 -41 -70 -25 0 -31 15 -31 70 0 26 3 53 6 59 9 15 39 14 54 -1z"/>
<path d="M5370 7490 l0 -110 33 0 c29 1 30 2 15 14 -15 11 -18 30 -18 110 0
79 -3 96 -15 96 -12 0 -15 -19 -15 -110z"/>
<path d="M6422 7586 c14 -10 18 -32 20 -112 4 -137 22 -128 26 14 l3 112 -33
0 c-29 -1 -31 -2 -16 -14z"/>
<path d="M4980 7500 l0 -90 90 0 90 0 0 90 0 90 -90 0 -90 0 0 -90z m160 0 l0
-70 -70 0 -70 0 0 70 0 70 70 0 70 0 0 -70z"/>
<path d="M5095 7550 c-11 -17 5 -32 21 -19 7 6 11 15 8 20 -7 12 -21 11 -29
-1z"/>
<path d="M5020 7466 c0 -9 7 -16 16 -16 17 0 14 22 -4 28 -7 2 -12 -3 -12 -12z"/>
<path d="M4855 7540 c-17 -18 -17 -20 -2 -14 14 5 17 0 17 -23 0 -36 -16 -53
-52 -53 -15 0 -28 -4 -28 -10 0 -18 59 -11 80 10 11 11 20 33 20 51 0 21 4 28
13 23 6 -4 3 2 -7 14 -23 26 -19 26 -41 2z"/>
<path d="M7664 7538 c-17 -19 -17 -21 -1 -15 14 5 17 1 17 -27 0 -36 -13 -46
-56 -46 -13 0 -24 -4 -24 -10 0 -16 67 -12 84 6 9 8 16 31 16 51 0 29 3 34 17
29 15 -6 15 -4 -2 14 -23 25 -27 25 -51 -2z"/>
<path d="M10070 7530 c0 -25 -4 -30 -25 -30 -14 0 -25 -4 -25 -10 0 -5 11 -10
25 -10 20 0 25 -5 25 -25 0 -14 5 -25 10 -25 6 0 10 11 10 25 0 20 5 25 25 25
14 0 25 5 25 10 0 6 -11 10 -25 10 -21 0 -25 5 -25 30 0 17 -4 30 -10 30 -5 0
-10 -13 -10 -30z"/>
<path d="M8960 7525 l23 -25 -21 -23 c-29 -30 -16 -44 14 -16 l23 22 20 -24
c11 -13 23 -21 27 -16 4 4 -2 17 -14 30 l-22 23 22 22 c29 29 15 42 -15 14
l-24 -22 -18 20 c-10 11 -23 20 -28 20 -6 0 0 -11 13 -25z"/>
<path d="M3526 5248 c-34 -49 -8 -118 44 -118 35 0 60 31 60 76 0 59 -72 88
-104 42z m76 -23 c15 -33 -3 -75 -32 -75 -29 0 -47 42 -32 75 7 15 20 25 32
25 12 0 25 -10 32 -25z"/>
<path d="M4037 5243 c-12 -11 -8 -23 8 -23 8 0 15 7 15 15 0 16 -12 20 -23 8z"/>
<path d="M4080 5230 c0 -6 33 -10 80 -10 47 0 80 4 80 10 0 6 -33 10 -80 10
-47 0 -80 -4 -80 -10z"/>
<path d="M4037 5193 c-12 -11 -8 -23 8 -23 8 0 15 7 15 15 0 16 -12 20 -23 8z"/>
<path d="M4080 5180 c0 -6 33 -10 80 -10 47 0 80 4 80 10 0 6 -33 10 -80 10
-47 0 -80 -4 -80 -10z"/>
<path d="M4810 7009 c0 -12 -11 -30 -25 -41 -19 -15 -25 -29 -25 -58 0 -31 5
-43 25 -56 15 -10 25 -26 25 -40 0 -13 5 -24 10 -24 6 0 10 10 10 21 0 12 11
32 25 45 16 15 25 34 25 54 0 20 -9 40 -25 56 -14 14 -25 34 -25 44 0 11 -4
20 -10 20 -5 0 -10 -9 -10 -21z m0 -100 c0 -45 -2 -50 -15 -39 -15 13 -20 47
-9 74 12 32 24 15 24 -35z m50 1 c0 -9 -7 -25 -15 -36 -13 -17 -14 -15 -14 36
0 51 1 53 14 36 8 -11 15 -27 15 -36z"/>
<path d="M4942 6978 c-17 -20 -26 -68 -13 -68 6 0 11 6 11 13 0 7 6 22 14 32
12 17 15 14 30 -33 9 -28 24 -56 33 -63 13 -11 18 -10 34 10 20 24 26 61 10
61 -5 0 -11 -13 -14 -30 -9 -45 -23 -37 -43 28 -19 58 -41 75 -62 50z"/>
<path d="M4752 6399 c3 -8 14 -40 24 -72 21 -66 37 -71 65 -17 20 37 26 100 9
100 -5 0 -10 -13 -10 -30 0 -31 -18 -80 -30 -80 -4 0 -13 23 -21 52 -8 28 -20
54 -28 56 -9 3 -12 0 -9 -9z"/>
<path d="M4901 6354 c-34 -43 -22 -85 24 -83 16 1 17 2 3 6 -10 2 -19 10 -19
16 -3 28 4 53 18 70 9 9 11 17 5 17 -6 0 -20 -12 -31 -26z"/>
<path d="M4960 6371 c0 -6 5 -13 10 -16 6 -3 10 1 10 9 0 9 -4 16 -10 16 -5 0
-10 -4 -10 -9z"/>
<path d="M4752 5749 c3 -8 14 -40 24 -72 21 -66 37 -71 65 -17 20 37 26 100 9
100 -5 0 -10 -13 -10 -30 0 -31 -18 -80 -30 -80 -4 0 -13 23 -21 52 -8 28 -20
54 -28 56 -9 3 -12 0 -9 -9z"/>
<path d="M4894 5703 c0 -16 -4 -40 -8 -55 -12 -40 8 -35 22 6 7 18 22 42 34
52 l21 19 -7 -38 c-4 -21 -10 -45 -13 -53 -3 -8 -1 -14 5 -14 6 0 15 15 22 34
6 18 20 42 32 52 l20 19 -7 -52 c-7 -55 1 -67 26 -36 11 13 11 15 1 9 -11 -7
-12 1 -7 38 8 51 -3 60 -37 29 -17 -15 -18 -15 -18 0 0 22 -18 22 -43 0 -19
-17 -20 -17 -14 0 4 12 1 17 -11 17 -12 0 -17 -8 -18 -27z"/>
<path d="M4994 5043 c0 -16 -4 -40 -8 -55 -12 -40 8 -35 22 6 7 18 22 42 34
52 l21 19 -7 -38 c-4 -21 -10 -45 -13 -53 -3 -8 -1 -14 5 -14 6 0 15 15 22 34
6 18 20 42 32 52 l20 19 -7 -52 c-7 -55 1 -67 26 -36 11 13 11 15 1 9 -11 -7
-12 1 -7 38 8 51 -3 60 -37 29 -17 -15 -18 -15 -18 0 0 22 -18 22 -43 0 -19
-17 -20 -17 -14 0 4 12 1 17 -11 17 -12 0 -17 -8 -18 -27z"/>
<path d="M4771 5044 c0 -11 3 -14 6 -6 3 7 2 16 -1 19 -3 4 -6 -2 -5 -13z"/>
<path d="M4810 4559 c0 -12 -11 -30 -25 -41 -19 -15 -25 -29 -25 -58 0 -31 5
-43 25 -56 15 -10 25 -26 25 -40 0 -13 5 -24 10 -24 6 0 10 10 10 21 0 12 11
32 25 45 16 15 25 34 25 54 0 20 -9 40 -25 56 -14 14 -25 34 -25 44 0 11 -4
20 -10 20 -5 0 -10 -9 -10 -21z m0 -100 c0 -45 -2 -50 -15 -39 -15 13 -20 47
-9 74 12 32 24 15 24 -35z m50 1 c0 -9 -7 -25 -15 -36 -13 -17 -14 -15 -14 36
0 51 1 53 14 36 8 -11 15 -27 15 -36z"/>
<path d="M4914 4491 c3 -5 -1 -29 -8 -55 -15 -49 -3 -64 15 -18 20 51 22 82 4
82 -9 0 -14 -4 -11 -9z"/>
<path d="M4974 4478 c-1 -13 -5 -38 -9 -55 -5 -22 -4 -33 4 -33 6 0 11 8 11
18 0 10 6 27 14 37 15 20 10 55 -8 55 -6 0 -11 -10 -12 -22z"/>
<path d="M5034 4478 c0 -13 -4 -38 -8 -55 -6 -26 -4 -33 8 -33 8 0 18 5 22 12
5 7 3 8 -6 3 -10 -6 -12 -2 -6 16 17 62 18 79 5 79 -8 0 -14 -10 -15 -22z"/>
<path d="M4770 4032 c0 -5 9 -17 20 -27 l20 -18 -20 -22 c-29 -31 -25 -43 5
-15 l25 23 25 -23 c28 -27 36 -8 8 22 -15 17 -15 19 0 36 26 28 20 39 -6 14
l-24 -22 -18 20 c-19 21 -35 26 -35 12z"/>
<path d="M4810 3540 c0 -25 -4 -30 -25 -30 -14 0 -25 -4 -25 -10 0 -5 11 -10
25 -10 20 0 25 -5 25 -25 0 -14 5 -25 10 -25 6 0 10 11 10 25 0 20 5 25 25 25
14 0 25 5 25 10 0 6 -11 10 -25 10 -21 0 -25 5 -25 30 0 17 -4 30 -10 30 -5 0
-10 -13 -10 -30z"/>
<path d="M6610 6547 c0 -35 -2 -66 -6 -69 -3 -3 -22 4 -43 15 -20 11 -45 18
-54 14 -41 -16 -47 -191 -8 -231 19 -19 20 -19 56 3 20 11 40 21 46 21 5 0 9
-42 9 -95 l0 -95 255 0 255 0 0 250 0 250 -255 0 -255 0 0 -63z m490 -187 l0
-230 -235 0 -235 0 0 79 c0 119 -10 131 -77 90 -49 -30 -58 -17 -58 86 0 106
9 118 66 85 41 -22 43 -22 56 -5 7 11 13 43 13 72 l0 53 235 0 235 0 0 -230z"/>
<path d="M6827 6432 c-24 -27 -23 -123 1 -145 46 -42 96 -4 96 73 0 78 -55
118 -97 72z m69 -25 c17 -70 -14 -137 -50 -108 -19 16 -22 101 -4 119 20 20
47 14 54 -11z"/>
<path d="M7650 6571 c0 -21 -3 -53 -6 -70 l-7 -31 -34 20 c-74 44 -97 15 -91
-117 2 -60 7 -87 20 -99 15 -16 19 -15 58 5 24 12 45 19 48 16 3 -3 8 -46 10
-95 l4 -90 464 0 464 0 0 250 0 250 -465 0 -465 0 0 -39z m910 -211 l0 -230
-450 0 -450 0 0 90 c0 105 -9 116 -69 82 -52 -29 -61 -17 -61 83 0 107 6 116
63 88 56 -27 67 -18 67 59 l0 58 450 0 450 0 0 -230z"/>
<path d="M7855 6430 c-23 -26 -11 -39 14 -16 24 22 55 17 59 -9 2 -13 -13 -36
-43 -65 -61 -60 -59 -70 15 -70 33 0 60 4 60 10 0 6 -20 10 -45 10 -25 0 -45
3 -45 7 0 3 18 23 40 43 41 38 52 74 28 98 -19 19 -63 14 -83 -8z"/>
<path d="M8004 6436 c-15 -12 -19 -27 -19 -76 0 -49 4 -64 19 -76 49 -35 96 1
96 74 0 79 -45 115 -96 78z m66 -25 c24 -46 5 -121 -31 -121 -20 0 -39 34 -39
70 0 60 47 94 70 51z"/>
<path d="M8144 6436 c-15 -12 -19 -27 -19 -76 0 -49 4 -64 19 -76 49 -35 96 1
96 74 0 79 -45 115 -96 78z m66 -25 c24 -46 5 -121 -31 -121 -20 0 -39 34 -39
70 0 60 47 94 70 51z"/>
<path d="M8284 6436 c-15 -12 -19 -27 -19 -76 0 -49 4 -64 19 -76 49 -35 96 1
96 74 0 79 -45 115 -96 78z m66 -25 c24 -46 5 -121 -31 -121 -20 0 -39 34 -39
70 0 60 47 94 70 51z"/>
<path d="M9220 6563 c0 -27 -3 -58 -6 -71 l-6 -23 -35 21 c-45 26 -59 25 -79
-5 -22 -34 -17 -186 8 -211 15 -16 19 -15 58 5 24 12 45 19 49 16 3 -4 8 -47
9 -96 l4 -89 354 0 354 0 0 250 0 250 -355 0 -355 0 0 -47z m700 -203 l0 -230
-340 0 -340 0 0 44 c0 74 -12 137 -27 143 -8 3 -32 -4 -52 -15 -52 -29 -61
-17 -61 83 0 107 6 116 64 88 54 -27 63 -20 72 60 l7 57 338 0 339 0 0 -230z"/>
<path d="M9418 6421 c-9 -10 -12 -23 -8 -27 5 -5 10 -34 12 -64 3 -48 6 -55
26 -58 12 -2 22 1 22 7 0 6 -7 11 -15 11 -23 0 -21 88 3 106 16 12 16 13 0 14
-9 0 -18 7 -20 15 -2 13 -6 13 -20 -4z"/>
<path d="M9490 6340 c0 -40 4 -70 10 -70 6 0 10 22 10 50 0 39 4 53 20 62 11
7 20 16 20 20 0 13 -28 9 -33 -4 -4 -10 -6 -10 -6 0 -1 6 -5 12 -11 12 -6 0
-10 -30 -10 -70z"/>
<path d="M10510 6547 c0 -35 -2 -66 -6 -69 -3 -3 -22 4 -43 15 -20 11 -45 18
-54 14 -41 -16 -47 -191 -8 -231 19 -19 20 -19 56 3 20 11 40 21 46 21 5 0 9
-42 9 -95 l0 -95 255 0 255 0 0 250 0 250 -255 0 -255 0 0 -63z m490 -187 l0
-230 -235 0 -235 0 0 79 c0 119 -10 131 -77 90 -49 -30 -58 -17 -58 86 0 106
9 118 66 85 41 -22 43 -22 56 -5 7 11 13 43 13 72 l0 53 235 0 235 0 0 -230z"/>
<path d="M10737 6432 c-19 -21 -23 -42 -5 -24 22 22 28 12 28 -53 0 -63 -1
-65 -25 -65 -14 0 -25 -4 -25 -10 0 -5 25 -10 55 -10 30 0 55 5 55 10 0 6 -9
10 -20 10 -18 0 -20 7 -20 80 0 85 -10 99 -43 62z"/>
<path d="M11590 6539 l0 -71 -36 21 c-74 44 -94 21 -94 -109 0 -60 4 -83 18
-100 l18 -22 42 21 c23 11 44 21 47 21 3 0 5 -43 5 -95 l0 -95 255 0 255 0 0
250 0 250 -255 0 -255 0 0 -71z m490 -179 l0 -230 -235 0 -235 0 0 90 c0 106
-9 116 -72 80 -52 -29 -58 -21 -58 93 0 101 7 109 66 78 51 -28 64 -15 64 60
l0 59 235 0 235 0 0 -230z"/>
<path d="M11806 6428 c-9 -12 -16 -43 -16 -68 0 -53 22 -90 53 -90 41 0 67 36
67 90 0 77 -67 121 -104 68z m76 -35 c18 -69 -25 -133 -59 -87 -16 22 -17 78
-2 105 16 31 51 21 61 -18z"/>
<path d="M6270 6350 l0 -110 25 0 c14 0 25 5 25 10 0 6 -7 10 -15 10 -12 0
-15 18 -15 100 0 60 -4 100 -10 100 -6 0 -10 -43 -10 -110z"/>
<path d="M7310 6450 c0 -5 7 -10 15 -10 12 0 15 -18 15 -105 0 -63 4 -105 10
-105 6 0 10 45 10 115 l0 115 -25 0 c-14 0 -25 -4 -25 -10z"/>
<path d="M5870 6360 l0 -90 90 0 90 0 0 90 0 90 -90 0 -90 0 0 -90z m160 0 l0
-70 -70 0 -70 0 0 70 0 70 70 0 70 0 0 -70z"/>
<path d="M5992 6406 c1 -10 8 -17 13 -17 15 1 12 24 -3 29 -9 3 -13 -2 -10
-12z"/>
<path d="M5910 6325 c0 -8 7 -15 15 -15 8 0 15 7 15 15 0 8 -7 15 -15 15 -8 0
-15 -7 -15 -15z"/>
<path d="M5745 6400 c-17 -18 -17 -20 -2 -14 14 5 17 0 17 -23 0 -36 -16 -53
-52 -53 -15 0 -28 -4 -28 -10 0 -5 15 -10 33 -10 42 0 67 26 67 68 0 26 3 30
18 25 15 -6 15 -4 -2 15 -24 27 -28 27 -51 2z"/>
<path d="M8845 6400 c-17 -18 -17 -20 -2 -14 14 5 17 0 17 -23 0 -36 -16 -53
-52 -53 -15 0 -28 -4 -28 -10 0 -18 59 -11 80 10 11 11 20 33 20 51 0 21 4 28
13 23 6 -4 3 2 -7 14 -23 26 -19 26 -41 2z"/>
<path d="M11248 6414 c-5 -4 -8 -18 -8 -31 0 -18 -5 -23 -25 -23 -14 0 -25 -4
-25 -10 0 -5 11 -10 25 -10 20 0 25 -5 25 -25 0 -14 5 -25 10 -25 6 0 10 11
10 25 0 20 5 25 24 25 14 0 28 5 31 10 4 6 -6 10 -24 10 -26 0 -30 4 -33 31
-2 17 -6 27 -10 23z"/>
<path d="M10120 6402 c0 -5 9 -17 20 -27 l20 -18 -20 -22 c-29 -31 -25 -43 5
-15 l25 23 25 -23 c28 -27 36 -8 8 22 -15 17 -15 19 0 36 26 28 20 39 -6 14
l-24 -22 -18 20 c-19 21 -35 26 -35 12z"/>
<path d="M6610 5890 c0 -75 -8 -84 -46 -55 -24 18 -58 19 -73 1 -6 -7 -14 -42
-17 -77 -10 -117 29 -176 88 -135 43 31 48 23 48 -79 l0 -95 255 0 255 0 0
255 0 255 -255 0 -255 0 0 -70z m490 -185 l0 -235 -235 0 -235 0 0 83 c0 103
-7 116 -52 99 -64 -26 -67 -26 -79 4 -13 34 -6 161 9 176 7 7 21 4 45 -11 63
-39 77 -27 77 65 l0 54 235 0 235 0 0 -235z"/>
<path d="M6827 5782 c-24 -27 -23 -123 1 -145 46 -42 96 -4 96 73 0 78 -55
118 -97 72z m69 -25 c17 -70 -14 -137 -50 -108 -19 16 -22 101 -4 119 20 20
47 14 54 -11z"/>
<path d="M7648 5895 c-2 -35 -7 -68 -11 -72 -4 -4 -21 1 -36 10 -68 40 -91 13
-91 -103 0 -116 23 -143 91 -103 15 9 32 13 36 9 4 -4 10 -48 11 -97 l4 -89
389 0 389 0 0 255 0 255 -389 0 -389 0 -4 -65z m767 -190 l0 -230 -375 0 -375
0 -5 90 c-6 99 -17 113 -65 81 -31 -20 -51 -20 -59 0 -10 26 -7 154 5 175 10
19 11 19 49 -2 56 -32 70 -22 70 49 0 32 3 62 7 65 4 4 173 6 377 5 l371 -3 0
-230z"/>
<path d="M7856 5784 c-19 -19 -20 -36 -4 -52 9 -9 9 -15 0 -24 -17 -17 -15
-54 4 -72 23 -24 70 -20 88 6 20 28 20 43 1 62 -9 9 -11 17 -5 21 14 9 13 48
-2 63 -17 17 -64 15 -82 -4z m69 -29 c0 -14 -8 -21 -27 -23 -24 -3 -28 0 -28
23 0 23 4 26 28 23 19 -2 27 -9 27 -23z m0 -80 c0 -25 -4 -31 -27 -33 -19 -2
-28 2 -33 18 -8 27 12 52 39 48 16 -2 21 -10 21 -33z"/>
<path d="M8004 5786 c-15 -12 -19 -27 -19 -76 0 -49 4 -64 19 -76 49 -35 96 1
96 74 0 79 -45 115 -96 78z m66 -25 c24 -46 5 -121 -31 -121 -20 0 -39 34 -39
70 0 60 47 94 70 51z"/>
<path d="M8144 5786 c-15 -12 -19 -27 -19 -76 0 -49 4 -64 19 -76 49 -35 96 1
96 74 0 79 -45 115 -96 78z m66 -25 c24 -46 5 -121 -31 -121 -20 0 -39 34 -39
70 0 60 47 94 70 51z"/>
<path d="M9077 5953 c-4 -3 -7 -35 -7 -70 0 -67 -8 -75 -44 -48 -11 8 -30 15
-43 15 -31 0 -43 -33 -43 -120 0 -87 12 -120 43 -120 13 0 32 7 43 15 38 29
43 20 46 -77 l3 -93 358 -3 357 -2 0 255 0 255 -353 0 c-195 0 -357 -3 -360
-7z m693 -248 l0 -235 -337 2 -338 3 -5 90 c-6 99 -17 113 -65 81 -54 -35 -65
-19 -65 93 0 96 9 108 61 79 55 -31 69 -21 69 50 0 32 3 62 7 65 3 4 156 7
340 7 l333 0 0 -235z"/>
<path d="M9280 5776 c0 -8 -6 -17 -12 -20 -10 -5 -10 -7 0 -12 7 -3 12 -26 12
-60 0 -57 18 -80 43 -55 8 8 7 11 -6 11 -14 0 -17 10 -17 49 0 30 5 52 13 55
10 5 10 7 0 12 -7 3 -13 12 -13 20 0 8 -4 14 -10 14 -5 0 -10 -6 -10 -14z"/>
<path d="M9340 5689 c0 -55 3 -69 15 -69 12 0 15 13 15 56 0 47 3 57 20 61 32
8 23 21 -15 21 l-35 0 0 -69z"/>
<path d="M10370 5890 c0 -75 -8 -84 -46 -55 -10 8 -29 15 -40 15 -38 0 -49
-26 -49 -120 0 -94 11 -120 49 -120 11 0 30 7 40 15 40 31 46 21 46 -80 l0
-95 253 2 252 3 0 250 0 250 -252 3 -253 2 0 -70z m490 -185 l0 -235 -235 0
-235 0 0 79 c0 44 -3 86 -6 95 -8 21 -35 20 -73 -1 -46 -27 -56 -10 -56 92 0
103 9 116 58 86 63 -39 77 -27 77 65 l0 54 235 0 235 0 0 -235z"/>
<path d="M10598 5786 c-10 -7 -18 -19 -18 -27 0 -10 3 -10 12 -1 22 22 28 12
28 -53 0 -63 -1 -65 -25 -65 -14 0 -25 -4 -25 -10 0 -5 25 -10 55 -10 30 0 55
5 55 10 0 6 -9 10 -20 10 -18 0 -20 7 -20 80 0 84 -6 94 -42 66z"/>
<path d="M11457 5953 c-4 -3 -7 -35 -7 -70 0 -67 -8 -75 -44 -48 -28 21 -63
19 -76 -4 -5 -11 -10 -56 -10 -101 0 -45 5 -90 10 -101 13 -23 48 -25 76 -4
38 29 43 20 46 -77 l3 -93 253 -3 252 -2 0 255 0 255 -248 0 c-137 0 -252 -3
-255 -7z m483 -248 l0 -235 -235 0 -235 0 0 90 c0 104 -9 116 -66 85 -60 -32
-72 -10 -65 120 4 71 15 80 61 54 57 -32 70 -22 70 56 l0 65 235 0 235 0 0
-235z"/>
<path d="M11666 5778 c-9 -12 -16 -43 -16 -68 0 -53 22 -90 53 -90 41 0 67 36
67 90 0 77 -67 121 -104 68z m76 -35 c18 -69 -25 -133 -59 -87 -16 22 -17 78
-2 105 16 31 51 21 61 -18z"/>
<path d="M6270 5700 l0 -110 25 0 c14 0 25 5 25 10 0 6 -7 10 -15 10 -12 0
-15 18 -15 100 0 60 -4 100 -10 100 -6 0 -10 -43 -10 -110z"/>
<path d="M7310 5800 c0 -5 7 -10 15 -10 12 0 15 -18 15 -105 0 -63 4 -105 10
-105 6 0 10 45 10 115 l0 115 -25 0 c-14 0 -25 -4 -25 -10z"/>
<path d="M5870 5710 l0 -90 90 0 90 0 0 90 0 90 -90 0 -90 0 0 -90z m160 0 l0
-70 -70 0 -70 0 0 70 0 70 70 0 70 0 0 -70z"/>
<path d="M5992 5756 c1 -10 8 -17 13 -17 15 1 12 24 -3 29 -9 3 -13 -2 -10
-12z"/>
<path d="M5910 5675 c0 -8 7 -15 15 -15 8 0 15 7 15 15 0 8 -7 15 -15 15 -8 0
-15 -7 -15 -15z"/>
<path d="M5745 5750 c-17 -18 -17 -20 -2 -14 14 5 17 0 17 -23 0 -36 -16 -53
-52 -53 -15 0 -28 -4 -28 -10 0 -5 15 -10 33 -10 42 0 67 26 67 68 0 26 3 30
18 25 15 -6 15 -4 -2 15 -24 27 -28 27 -51 2z"/>
<path d="M8705 5750 c-17 -18 -17 -20 -2 -14 14 5 17 0 17 -23 0 -36 -16 -53
-52 -53 -15 0 -28 -4 -28 -10 0 -18 59 -11 80 10 11 11 20 33 20 51 0 21 4 28
13 23 6 -4 3 2 -7 14 -23 26 -19 26 -41 2z"/>
<path d="M11108 5764 c-5 -4 -8 -18 -8 -31 0 -18 -5 -23 -25 -23 -14 0 -25 -4
-25 -10 0 -5 11 -10 25 -10 20 0 25 -5 25 -25 0 -14 5 -25 10 -25 6 0 10 11
10 25 0 20 5 25 24 25 14 0 28 5 31 10 4 6 -6 10 -24 10 -26 0 -30 4 -33 31
-2 17 -6 27 -10 23z"/>
<path d="M9980 5756 c0 -5 7 -18 16 -27 15 -17 15 -20 0 -43 -23 -36 -20 -43
9 -16 l25 23 25 -23 c14 -13 25 -19 25 -13 0 5 -9 18 -20 28 l-20 18 22 24
c28 30 15 43 -15 15 l-23 -22 -22 22 c-12 13 -22 18 -22 14z"/>
<path d="M6790 5237 c0 -35 -3 -67 -6 -70 -4 -4 -24 3 -45 15 -47 26 -65 19
-78 -29 -21 -74 -6 -188 25 -200 9 -3 33 4 53 15 21 12 41 19 45 15 3 -3 6
-46 6 -95 l0 -88 255 0 255 0 0 250 0 250 -255 0 -255 0 0 -63z m490 -187 l0
-230 -235 0 -235 0 0 78 c0 52 -5 85 -14 98 -15 20 -14 20 -73 -17 -37 -22
-48 0 -48 96 0 105 8 116 65 84 41 -23 42 -23 56 -4 8 10 14 42 14 72 l0 53
235 0 235 0 0 -230z"/>
<path d="M7007 5125 c-20 -20 -30 -68 -22 -105 8 -39 30 -60 60 -60 33 0 55
36 55 90 0 25 -7 56 -16 68 -17 25 -56 29 -77 7z m61 -17 c7 -7 12 -33 12 -58
0 -49 -13 -70 -41 -70 -25 0 -31 15 -31 70 0 26 3 53 6 59 9 15 39 14 54 -1z"/>
<path d="M7940 5237 c0 -35 -3 -66 -6 -70 -3 -3 -26 4 -50 16 -42 20 -45 20
-62 4 -14 -14 -17 -36 -17 -112 0 -76 3 -98 17 -112 17 -16 20 -16 62 4 24 12
47 19 50 16 3 -4 6 -46 6 -95 l0 -88 350 0 350 0 0 250 0 250 -350 0 -350 0 0
-63z m680 -187 l0 -230 -329 0 -329 0 -3 85 c-4 91 -17 117 -47 99 -66 -41
-62 -40 -78 -20 -18 26 -19 155 -1 180 13 18 15 18 55 -5 52 -30 64 -20 70 61
l4 60 329 0 329 0 0 -230z"/>
<path d="M8146 5078 c-34 -48 -8 -118 43 -118 29 0 60 25 47 37 -4 4 -11 2
-15 -6 -12 -19 -53 -9 -62 17 -8 21 -6 22 41 22 54 0 61 10 34 48 -10 14 -26
22 -44 22 -18 0 -34 -8 -44 -22z m74 -13 c11 -13 7 -15 -24 -15 -34 0 -44 8
-29 23 11 12 40 8 53 -8z"/>
<path d="M9320 5229 c0 -39 -3 -69 -7 -67 -5 2 -25 12 -47 23 l-38 20 -19 -24
c-15 -19 -19 -40 -19 -106 0 -66 4 -87 19 -106 l19 -24 38 20 c22 11 42 21 47
23 4 2 7 -39 7 -92 l0 -96 355 0 355 0 0 250 0 250 -355 0 -355 0 0 -71z m690
-179 l0 -230 -335 0 -335 0 0 84 c0 105 -10 118 -70 84 -52 -30 -60 -20 -60
87 0 108 6 115 64 84 57 -30 66 -21 66 64 l0 57 335 0 335 0 0 -230z"/>
<path d="M9609 5113 c-1 -21 -1 -53 0 -71 4 -58 -52 -90 -65 -37 -11 43 3 75
32 75 14 0 23 4 19 10 -9 15 -42 12 -59 -6 -18 -18 -21 -76 -6 -105 12 -21 50
-25 68 -7 9 9 12 9 12 0 0 -7 5 -12 10 -12 6 0 10 38 10 95 0 57 -4 95 -10 95
-5 0 -11 -17 -11 -37z"/>
<path d="M10670 5237 c0 -35 -3 -67 -6 -70 -4 -4 -24 3 -45 15 -47 26 -65 19
-78 -29 -21 -74 -6 -188 25 -200 9 -3 33 4 53 15 21 12 41 19 45 15 3 -3 6
-46 6 -95 l0 -88 360 0 360 0 0 250 0 250 -360 0 -360 0 0 -63z m700 -187 l0
-230 -340 0 -340 0 0 78 c0 52 -5 85 -14 98 -15 20 -14 20 -73 -17 -37 -22
-48 0 -48 96 0 105 8 116 65 84 41 -23 42 -23 56 -4 8 10 14 42 14 72 l0 53
340 0 340 0 0 -230z"/>
<path d="M10874 5113 c-6 -11 -8 -45 -5 -83 5 -58 8 -65 29 -68 25 -4 30 13 7
22 -10 4 -15 20 -15 51 0 33 4 45 15 45 8 0 15 5 15 10 0 6 -6 10 -14 10 -8 0
-16 7 -18 15 -2 13 -5 13 -14 -2z"/>
<path d="M10940 5030 c0 -40 4 -70 10 -70 6 0 10 20 10 45 0 32 6 51 21 66 23
23 18 39 -6 19 -10 -8 -15 -9 -15 -1 0 6 -4 11 -10 11 -6 0 -10 -30 -10 -70z"/>
<path d="M11960 5229 c0 -39 -3 -69 -7 -67 -5 2 -25 12 -47 23 l-38 20 -19
-24 c-15 -19 -19 -40 -19 -106 0 -66 4 -87 19 -106 l19 -24 38 20 c22 11 42
21 47 23 4 2 7 -39 7 -92 l0 -96 255 0 255 0 0 250 0 250 -255 0 -255 0 0 -71z
m490 -179 l0 -230 -235 0 -235 0 0 84 c0 105 -10 118 -70 84 -52 -30 -60 -20
-60 87 0 108 6 115 64 84 57 -30 66 -21 66 64 l0 57 235 0 235 0 0 -230z"/>
<path d="M12192 5124 c-12 -8 -22 -20 -22 -27 0 -8 3 -8 12 1 22 22 28 12 28
-53 0 -58 -2 -65 -20 -65 -11 0 -20 -4 -20 -10 0 -5 25 -10 55 -10 30 0 55 5
55 10 0 6 -11 10 -25 10 -25 0 -25 1 -25 80 0 44 -3 80 -8 80 -4 0 -18 -7 -30
-16z"/>
<path d="M13050 5237 c0 -35 -3 -66 -6 -70 -3 -3 -26 4 -50 16 -42 20 -45 20
-62 4 -14 -14 -17 -36 -17 -112 0 -76 3 -98 17 -112 17 -16 20 -16 62 4 24 12
47 19 50 16 3 -4 6 -46 6 -95 l0 -88 255 0 255 0 0 250 0 250 -255 0 -255 0 0
-63z m490 -187 l0 -230 -234 0 -234 0 -3 85 c-4 91 -17 117 -47 99 -66 -41
-62 -40 -78 -20 -18 26 -19 155 -1 180 13 18 15 18 55 -5 52 -30 64 -20 70 61
l4 60 234 0 234 0 0 -230z"/>
<path d="M13267 5125 c-20 -20 -30 -68 -22 -105 8 -39 30 -60 60 -60 33 0 55
36 55 90 0 25 -7 56 -16 68 -17 25 -56 29 -77 7z m61 -17 c7 -7 12 -33 12 -58
0 -49 -13 -70 -41 -70 -25 0 -31 15 -31 70 0 26 3 53 6 59 9 15 39 14 54 -1z"/>
<path d="M8872 5107 c-47 -50 -10 -137 58 -137 41 0 80 39 80 80 0 69 -91 107
-138 57z m88 2 c0 -5 4 -8 9 -4 13 8 30 -26 28 -56 -2 -33 -36 -69 -64 -69
-31 0 -65 18 -58 31 4 5 2 9 -3 9 -12 0 -12 50 0 73 5 10 13 15 19 12 5 -4 9
-1 9 4 0 6 14 11 30 11 17 0 30 -5 30 -11z"/>
<path d="M8906 5055 c10 -8 24 -14 29 -14 6 0 1 6 -9 14 -11 8 -24 15 -30 15
-5 0 -1 -7 10 -15z"/>
<path d="M5745 5090 c-17 -18 -17 -20 -2 -14 14 5 17 0 17 -23 0 -36 -16 -53
-52 -53 -15 0 -28 -4 -28 -10 0 -5 15 -10 33 -10 42 0 67 26 67 68 0 26 3 30
18 25 15 -6 15 -4 -2 15 -24 27 -28 27 -51 2z"/>
<path d="M10294 5088 c-17 -19 -17 -21 -1 -15 14 5 17 1 17 -27 0 -36 -13 -46
-56 -46 -13 0 -24 -4 -24 -10 0 -16 67 -12 84 6 9 8 16 31 16 51 0 29 3 34 17
29 15 -6 15 -4 -2 14 -23 25 -27 25 -51 -2z"/>
<path d="M12700 5080 c0 -25 -4 -30 -25 -30 -14 0 -25 -4 -25 -10 0 -5 11 -10
25 -10 20 0 25 -5 25 -25 0 -14 5 -25 10 -25 6 0 10 11 10 25 0 20 5 25 25 25
14 0 25 5 25 10 0 6 -11 10 -25 10 -21 0 -25 5 -25 30 0 17 -4 30 -10 30 -5 0
-10 -13 -10 -30z"/>
<path d="M11570 5092 c0 -5 9 -17 20 -27 l20 -18 -22 -24 c-28 -30 -15 -43 15
-15 24 22 24 22 42 2 10 -11 22 -17 27 -14 5 3 -1 17 -13 30 l-22 24 23 25
c13 14 19 25 13 25 -5 0 -18 -9 -28 -20 l-18 -20 -22 20 c-23 21 -35 25 -35
12z"/>
<path d="M7604 5065 c-11 -9 -42 -14 -76 -15 -32 0 -58 -4 -58 -10 0 -5 25
-10 55 -10 35 0 65 -6 80 -16 20 -13 28 -14 40 -4 18 15 19 42 3 58 -15 15
-20 15 -44 -3z m36 -25 c0 -21 -15 -27 -25 -10 -7 12 2 30 16 30 5 0 9 -9 9
-20z"/>
<path d="M6318 5059 c-24 -14 -23 -56 2 -69 21 -11 60 2 60 20 0 6 30 11 68
12 l67 2 -63 3 c-46 3 -68 9 -82 23 -23 23 -28 23 -52 9z m47 -34 c0 -22 -31
-33 -47 -17 -17 17 -1 44 24 40 15 -2 23 -10 23 -23z"/>
<path d="M5850 5030 c0 -6 50 -10 131 -10 84 0 128 4 124 10 -4 6 -58 10 -131
10 -76 0 -124 -4 -124 -10z"/>
<path d="M5674 4556 c-15 -12 -19 -27 -19 -76 0 -49 4 -64 19 -76 49 -35 96 1
96 74 0 79 -45 115 -96 78z m66 -25 c24 -46 5 -121 -31 -121 -20 0 -39 34 -39
70 0 60 47 94 70 51z"/>
<path d="M5679 4059 l-24 -21 23 5 c21 5 22 2 22 -59 0 -57 -2 -64 -20 -64
-11 0 -20 -4 -20 -10 0 -5 25 -10 55 -10 30 0 55 5 55 10 0 6 -9 10 -20 10
-18 0 -20 7 -20 80 0 88 -8 97 -51 59z"/>
<path d="M5674 3586 c-15 -12 -19 -27 -19 -76 0 -49 4 -64 19 -76 49 -35 96 1
96 74 0 79 -45 115 -96 78z m66 -25 c24 -46 5 -121 -31 -121 -20 0 -39 34 -39
70 0 60 47 94 70 51z"/>
<path d="M3520 2894 c0 -56 4 -94 10 -94 10 0 15 51 11 99 -4 46 8 71 33 71
27 0 41 -33 30 -75 -4 -18 -13 -25 -31 -25 -13 0 -21 -4 -18 -10 9 -15 42 -12
59 6 18 17 21 80 6 104 -5 9 -27 15 -55 16 l-45 2 0 -94z"/>
<path d="M4037 2963 c-12 -11 -8 -23 8 -23 8 0 15 7 15 15 0 16 -12 20 -23 8z"/>
<path d="M4080 2950 c0 -6 33 -10 80 -10 47 0 80 4 80 10 0 6 -33 10 -80 10
-47 0 -80 -4 -80 -10z"/>
<path d="M4037 2913 c-12 -11 -8 -23 8 -23 8 0 15 7 15 15 0 16 -12 20 -23 8z"/>
<path d="M4080 2900 c0 -6 33 -10 80 -10 47 0 80 4 80 10 0 6 -33 10 -80 10
-47 0 -80 -4 -80 -10z"/>
<path d="M5720 3136 c0 -85 -4 -89 -56 -63 -42 20 -45 20 -62 4 -25 -25 -25
-198 0 -223 15 -16 19 -15 59 5 54 28 59 21 59 -86 l0 -83 295 0 295 0 0 250
0 250 -295 0 -295 0 0 -54z m570 -196 l0 -230 -274 0 -274 0 -3 85 c-5 107
-15 119 -71 86 -40 -23 -42 -23 -55 -5 -15 20 -15 175 0 190 4 4 28 -2 54 -15
57 -28 65 -21 71 59 l4 60 274 0 274 0 0 -230z"/>
<path d="M6027 3012 c-19 -21 -23 -42 -5 -24 22 22 28 12 28 -53 0 -63 -1 -65
-25 -65 -14 0 -25 -4 -25 -10 0 -5 25 -10 55 -10 30 0 55 5 55 10 0 6 -9 10
-20 10 -18 0 -20 7 -20 80 0 85 -10 99 -43 62z"/>
<path d="M5910 2920 c0 -5 14 -10 30 -10 17 0 30 5 30 10 0 6 -13 10 -30 10
-16 0 -30 -4 -30 -10z"/>
<path d="M6838 3125 c-2 -35 -6 -67 -9 -70 -3 -3 -24 5 -47 17 -40 22 -42 22
-59 5 -14 -14 -19 -38 -21 -105 -3 -75 -1 -91 16 -112 l19 -24 43 23 c23 12
45 19 49 16 3 -4 8 -47 9 -96 l4 -89 249 0 249 0 0 250 0 250 -249 0 -249 0
-4 -65z m482 -185 l0 -230 -229 0 -228 0 -6 86 c-6 106 -14 117 -68 86 -58
-34 -69 -21 -69 82 0 109 6 117 66 88 26 -13 51 -19 55 -15 5 5 12 37 15 71
l7 62 228 0 229 0 0 -230z"/>
<path d="M7059 3009 l-24 -21 23 5 c21 5 22 2 22 -59 0 -57 -2 -64 -20 -64
-11 0 -20 -4 -20 -10 0 -5 25 -10 55 -10 30 0 55 5 55 10 0 6 -9 10 -20 10
-18 0 -20 7 -20 80 0 88 -8 97 -51 59z"/>
<path d="M7980 3120 c0 -38 -2 -70 -6 -70 -3 0 -23 10 -45 23 l-40 22 -20 -24
c-27 -33 -28 -178 -1 -211 l18 -22 42 21 c23 11 44 21 47 21 3 0 5 -43 5 -95
l0 -95 360 0 360 0 0 250 0 250 -360 0 -360 0 0 -70z m700 -180 l0 -230 -340
0 -340 0 0 90 c0 106 -7 114 -69 79 -23 -12 -44 -19 -48 -15 -19 19 -19 184 0
203 4 4 26 -3 49 -15 56 -28 68 -17 68 59 l0 59 340 0 340 0 0 -230z"/>
<path d="M8190 3006 c0 -8 -6 -17 -12 -20 -10 -5 -10 -7 0 -12 7 -3 12 -26 12
-60 0 -57 18 -80 43 -55 8 8 7 11 -6 11 -14 0 -17 10 -17 49 0 30 5 52 13 55
10 5 10 7 0 12 -7 3 -13 12 -13 20 0 8 -4 14 -10 14 -5 0 -10 -6 -10 -14z"/>
<path d="M8250 2919 c0 -55 3 -69 15 -69 12 0 15 13 15 56 0 47 3 57 20 61 32
8 23 21 -15 21 l-35 0 0 -69z"/>
<path d="M9280 3127 c0 -35 -3 -66 -6 -70 -3 -3 -26 4 -50 16 -40 19 -46 20
-60 5 -31 -30 -31 -181 -1 -222 13 -18 15 -18 60 2 25 11 48 18 51 14 3 -3 6
-45 6 -94 l0 -88 255 0 255 0 0 250 0 250 -255 0 -255 0 0 -63z m490 -187 l0
-230 -235 0 -235 0 0 78 c0 51 -5 85 -14 97 -14 19 -15 19 -57 -4 -40 -23 -43
-23 -56 -6 -18 26 -18 155 1 180 14 19 15 19 57 -4 40 -23 43 -23 56 -6 7 11
13 43 13 72 l0 53 235 0 235 0 0 -230z"/>
<path d="M9508 3016 c-10 -7 -18 -19 -18 -27 0 -10 3 -10 12 -1 22 22 28 12
28 -53 0 -63 -1 -65 -25 -65 -14 0 -25 -4 -25 -10 0 -5 25 -10 55 -10 30 0 55
5 55 10 0 6 -9 10 -20 10 -18 0 -20 7 -20 80 0 84 -6 94 -42 66z"/>
<path d="M10360 3120 c0 -38 -3 -70 -7 -70 -5 0 -21 9 -38 20 -65 43 -88 16
-88 -108 0 -70 3 -87 20 -104 l20 -20 41 21 c23 12 44 21 47 21 3 0 5 -43 5
-95 l0 -95 255 0 255 0 0 250 0 250 -255 0 -255 0 0 -70z m490 -180 l0 -230
-235 0 -235 0 0 83 c0 110 -6 118 -66 89 -34 -17 -50 -20 -58 -12 -16 16 -14
176 2 192 11 11 20 9 53 -10 55 -32 69 -19 69 59 l0 59 235 0 235 0 0 -230z"/>
<path d="M10577 3012 c-24 -27 -23 -123 1 -145 46 -42 96 -4 96 73 0 78 -55
118 -97 72z m69 -25 c17 -70 -14 -137 -50 -108 -19 16 -22 101 -4 119 20 20
47 14 54 -11z"/>
<path d="M5370 2930 l0 -110 33 0 c29 1 30 2 15 14 -15 11 -18 30 -18 110 0
79 -3 96 -15 96 -12 0 -15 -19 -15 -110z"/>
<path d="M6500 3030 c0 -5 7 -10 15 -10 12 0 15 -18 15 -105 0 -63 4 -105 10
-105 6 0 10 45 10 115 l0 115 -25 0 c-14 0 -25 -4 -25 -10z"/>
<path d="M4980 2940 l0 -90 90 0 90 0 0 90 0 90 -90 0 -90 0 0 -90z m160 0 l0
-70 -70 0 -70 0 0 70 0 70 70 0 70 0 0 -70z"/>
<path d="M5095 2990 c-11 -17 5 -32 21 -19 7 6 11 15 8 20 -7 12 -21 11 -29
-1z"/>
<path d="M5020 2906 c0 -9 7 -16 16 -16 17 0 14 22 -4 28 -7 2 -12 -3 -12 -12z"/>
<path d="M4855 2980 c-17 -18 -17 -20 -2 -14 14 5 17 0 17 -23 0 -36 -16 -53
-52 -53 -15 0 -28 -4 -28 -10 0 -18 59 -11 80 10 11 11 20 33 20 51 0 21 4 28
13 23 6 -4 3 2 -7 14 -23 26 -19 26 -41 2z"/>
<path d="M7614 2978 c-10 -12 -13 -18 -6 -14 10 6 13 -1 10 -30 -3 -37 -5 -39
-41 -42 -41 -4 -42 -22 -1 -22 46 0 64 17 64 61 0 35 3 40 17 35 15 -6 15 -4
-2 14 -22 24 -18 24 -41 -2z"/>
<path d="M10010 2970 c0 -25 -4 -30 -25 -30 -14 0 -25 -4 -25 -10 0 -5 11 -10
25 -10 20 0 25 -5 25 -25 0 -14 5 -25 10 -25 6 0 10 11 10 25 0 20 5 25 25 25
14 0 25 5 25 10 0 6 -11 10 -25 10 -21 0 -25 5 -25 30 0 17 -4 30 -10 30 -5 0
-10 -13 -10 -30z"/>
<path d="M8890 2986 c0 -5 7 -18 16 -27 15 -17 15 -20 0 -43 -23 -36 -20 -43
9 -16 l25 23 25 -23 c14 -13 25 -19 25 -13 0 5 -9 18 -20 28 l-20 18 22 24
c28 30 15 43 -15 15 l-23 -22 -22 22 c-12 13 -22 18 -22 14z"/>
<path d="M4917 2404 c-2 -36 -8 -68 -11 -72 -4 -3 -20 2 -35 11 -68 40 -91 13
-91 -103 0 -116 23 -143 91 -103 15 9 32 14 36 10 4 -4 9 -48 11 -97 l4 -90
349 0 349 0 0 255 0 255 -349 0 -348 0 -6 -66z m683 -189 l0 -235 -332 2 -333
3 -5 90 c-6 99 -17 113 -65 81 -54 -36 -65 -19 -65 95 0 91 10 103 64 74 52
-28 66 -16 66 53 0 32 3 62 7 65 3 4 154 7 335 7 l328 0 0 -235z"/>
<path d="M5127 2242 c-23 -25 -22 -85 1 -105 57 -52 131 31 88 98 -20 30 -65
34 -89 7z m71 -50 c2 -32 -1 -44 -14 -49 -36 -14 -62 24 -50 73 5 20 12 25 34
22 24 -3 27 -8 30 -46z"/>
<path d="M6190 2400 c0 -75 -7 -83 -48 -54 -53 37 -91 -7 -91 -106 0 -99 38
-143 91 -106 43 31 48 23 48 -79 l0 -95 353 2 352 3 0 250 0 250 -352 3 -353
2 0 -70z m690 -185 l0 -235 -335 0 -335 0 0 79 c0 118 -7 127 -75 94 -23 -11
-39 -13 -45 -7 -15 15 -23 97 -15 149 7 52 11 53 83 24 43 -18 52 -5 52 74 l0
57 335 0 335 0 0 -235z"/>
<path d="M6390 2165 c0 -57 4 -95 10 -95 6 0 10 13 10 30 0 27 2 29 30 24 43
-9 60 9 60 65 0 51 -13 71 -45 71 -12 0 -26 -5 -33 -12 -9 -9 -12 -9 -12 0 0
7 -4 12 -10 12 -6 0 -10 -38 -10 -95z m85 25 c0 -39 -3 -45 -22 -48 -17 -3
-26 3 -33 22 -14 38 3 78 33 74 19 -3 22 -9 22 -48z"/>
<path d="M7470 2400 c0 -75 -8 -84 -46 -55 -28 21 -61 18 -75 -7 -7 -13 -13
-57 -13 -98 0 -41 6 -85 13 -97 14 -26 47 -29 75 -8 40 31 46 21 46 -80 l0
-95 430 0 430 0 0 255 0 255 -430 0 -430 0 0 -70z m840 -185 l0 -235 -410 0
-410 0 0 90 c0 105 -7 113 -71 85 -27 -13 -43 -15 -50 -8 -15 15 -23 113 -12
153 11 39 24 42 81 19 43 -18 52 -5 52 74 l0 57 410 0 410 0 0 -235z"/>
<path d="M7687 2282 c-24 -27 -23 -123 1 -145 46 -42 96 -4 96 73 0 78 -55
118 -97 72z m69 -25 c17 -70 -14 -137 -50 -108 -19 16 -22 101 -4 119 20 20
47 14 54 -11z"/>
<path d="M7896 2278 c-9 -12 -16 -43 -16 -68 0 -53 22 -90 53 -90 41 0 67 36
67 90 0 77 -67 121 -104 68z m76 -35 c18 -69 -25 -133 -59 -87 -16 22 -17 78
-2 105 16 31 51 21 61 -18z"/>
<path d="M8030 2278 c0 -13 -3 -33 -6 -46 -6 -21 -4 -22 37 -20 l44 3 0 -35
c0 -30 -4 -36 -24 -38 -15 -2 -30 3 -37 13 -9 12 -14 13 -20 4 -9 -15 22 -39
53 -39 28 0 63 33 63 60 0 30 -38 63 -66 57 -20 -3 -24 0 -24 19 0 21 5 24 40
24 22 0 40 5 40 10 0 6 -22 10 -50 10 -45 0 -50 -2 -50 -22z"/>
<path d="M7820 2135 c0 -8 5 -15 10 -15 6 0 10 7 10 15 0 8 -4 15 -10 15 -5 0
-10 -7 -10 -15z"/>
<path d="M8910 2406 c0 -36 -4 -68 -10 -71 -5 -3 -23 1 -39 10 -66 34 -91 6
-91 -105 0 -111 25 -139 91 -105 16 9 34 13 39 10 6 -3 10 -46 10 -96 l0 -89
253 2 252 3 0 250 0 250 -252 3 -253 2 0 -64z m485 -191 l0 -230 -232 -3 -233
-2 0 72 c0 40 -3 83 -6 96 -7 26 -39 29 -68 7 -28 -22 -53 -18 -60 8 -8 29 -8
141 0 161 8 20 34 21 60 1 47 -35 74 -8 74 75 l0 50 233 -2 232 -3 0 -230z"/>
<path d="M9124 2286 c-15 -12 -19 -27 -19 -76 0 -49 4 -64 19 -76 49 -35 96 1
96 74 0 79 -45 115 -96 78z m66 -25 c24 -46 5 -121 -31 -121 -20 0 -39 34 -39
70 0 60 47 94 70 51z"/>
<path d="M4205 2235 l-30 -30 31 -30 30 -31 30 31 29 30 -30 30 -30 30 -30
-30z m21 -22 c-10 -10 -19 5 -10 18 6 11 8 11 12 0 2 -7 1 -15 -2 -18z m34 12
c10 -12 10 -15 -4 -15 -9 0 -16 7 -16 15 0 8 2 15 4 15 2 0 9 -7 16 -15z m-30
-41 c0 -8 -4 -12 -10 -9 -5 3 -10 10 -10 16 0 5 5 9 10 9 6 0 10 -7 10 -16z
m40 12 c0 -2 -7 -9 -15 -16 -12 -10 -15 -10 -15 4 0 9 7 16 15 16 8 0 15 -2
15 -4z"/>
<path d="M5823 2235 l-30 -30 31 -30 31 -30 30 30 30 30 -31 30 -31 31 -30
-31z m27 -10 c0 -8 -7 -15 -16 -15 -14 0 -14 3 -4 15 7 8 14 15 16 15 2 0 4
-7 4 -15z m30 -6 c0 -5 -4 -9 -10 -9 -5 0 -10 7 -10 16 0 8 5 12 10 9 6 -3 10
-10 10 -16z m-30 -35 c0 -14 -3 -14 -15 -4 -8 7 -15 14 -15 16 0 2 7 4 15 4 8
0 15 -7 15 -16z m30 7 c0 -6 -4 -13 -10 -16 -5 -3 -10 1 -10 9 0 9 5 16 10 16
6 0 10 -4 10 -9z"/>
<path d="M8560 2240 c0 -25 -4 -30 -25 -30 -14 0 -25 -4 -25 -10 0 -5 11 -10
25 -10 20 0 25 -5 25 -25 0 -14 5 -25 10 -25 6 0 10 11 10 25 0 20 5 25 25 25
14 0 25 5 25 10 0 6 -11 10 -25 10 -21 0 -25 5 -25 30 0 17 -4 30 -10 30 -5 0
-10 -13 -10 -30z"/>
<path d="M7080 2252 c0 -5 9 -17 20 -27 l20 -18 -20 -22 c-29 -31 -25 -43 5
-15 l25 23 25 -23 c28 -27 36 -8 8 22 -15 17 -15 19 0 36 26 28 20 39 -6 14
l-24 -22 -18 20 c-19 21 -35 26 -35 12z"/>
<path d="M4030 2230 c0 -6 27 -10 60 -10 33 0 60 4 60 10 0 6 -27 10 -60 10
-33 0 -60 -4 -60 -10z"/>
<path d="M4329 2183 c-13 -15 -12 -15 8 -2 18 11 25 11 35 1 11 -11 7 -18 -20
-40 -18 -15 -32 -30 -32 -34 0 -5 17 -7 38 -7 31 2 33 3 8 6 l-28 5 27 28 c30
31 28 60 -3 60 -11 0 -26 -7 -33 -17z"/>
<path d="M4610 2185 c0 -8 5 -15 10 -15 6 0 10 7 10 15 0 8 -4 15 -10 15 -5 0
-10 -7 -10 -15z"/>
<path d="M4030 2170 c0 -6 27 -10 60 -10 33 0 60 4 60 10 0 6 -27 10 -60 10
-33 0 -60 -4 -60 -10z"/>
<path d="M3152 1714 c-12 -8 -22 -20 -22 -27 0 -8 3 -8 12 1 22 22 28 12 28
-53 0 -58 -2 -65 -20 -65 -11 0 -20 -4 -20 -10 0 -5 25 -10 55 -10 30 0 55 5
55 10 0 6 -11 10 -25 10 -25 0 -25 1 -25 80 0 44 -3 80 -8 80 -4 0 -18 -7 -30
-16z"/>
<path d="M3135 1230 c-23 -26 -11 -39 14 -16 24 22 55 17 59 -9 2 -13 -13 -36
-43 -65 -61 -60 -59 -70 15 -70 33 0 60 4 60 10 0 6 -20 10 -45 10 -25 0 -45
3 -45 7 0 3 18 23 40 43 41 38 52 74 28 98 -19 19 -63 14 -83 -8z"/>
<path d="M3120 760 c0 -5 20 -10 45 -10 l45 0 -24 -47 c-33 -67 -42 -113 -22
-113 11 0 16 9 16 29 0 16 14 55 30 86 17 31 30 59 30 61 0 2 -27 4 -60 4 -33
0 -60 -4 -60 -10z"/>
</g>
</svg>
