<?xml version="1.0" standalone="no"?>
<!DOCTYPE svg PUBLIC "-//W3C//DTD SVG 20010904//EN"
 "http://www.w3.org/TR/2001/REC-SVG-20010904/DTD/svg10.dtd">
<svg version="1.0" xmlns="http://www.w3.org/2000/svg"
 width="1579.000000pt" height="1143.000000pt" viewBox="0 0 1579.000000 1143.000000"
 preserveAspectRatio="xMidYMid meet">
<metadata>
Created by potrace 1.16, written by Peter Selinger 2001-2019
</metadata>
<g transform="translate(0.000000,1143.000000) scale(0.100000,-0.100000)"
fill="#000000" stroke="none">
<path d="M355 11199 c-50 -12 -112 -71 -125 -119 -14 -48 -14 -10712 0 -10759
16 -56 75 -108 134 -121 35 -7 556 -9 1621 -8 l1570 3 3 793 2 792 3615 0
3615 0 0 375 0 375 -3417 0 -3418 0 45 30 45 30 4228 0 4227 0 0 380 0 380
-2985 0 -2985 0 3 778 2 777 4563 3 4562 2 0 375 0 375 -940 0 -940 0 0 355 0
355 85 0 85 0 0 375 0 375 -3995 0 -3995 0 0 255 0 255 3305 0 3305 0 0 740 0
740 -3847 2 -3848 3 -3 253 -2 252 -410 0 -410 0 0 265 0 265 -535 0 -535 0 0
250 0 250 295 0 295 0 0 280 0 280 -1363 0 -1363 0 -64 -45 c-36 -26 -75 -45
-90 -45 -15 0 -54 19 -90 45 -62 43 -66 45 -134 44 -39 -1 -89 -5 -111 -10z
m245 -59 c37 -25 70 -40 90 -40 20 0 53 15 90 40 l59 40 1355 0 1356 0 0 -253
0 -254 -1353 5 -1354 5 -61 -42 c-79 -53 -108 -53 -187 -1 l-60 40 -148 0
-149 0 4 198 c3 188 4 199 27 236 33 52 68 65 179 66 92 0 94 0 152 -40z m-12
-520 c85 -54 123 -54 202 0 59 40 59 40 154 40 l96 0 0 -62 c0 -84 -9 -97 -46
-71 -42 30 -67 35 -90 19 -16 -12 -19 -29 -22 -118 -4 -150 24 -187 104 -137
30 18 38 19 45 8 5 -8 9 -2154 9 -5046 l0 -5033 -340 0 c-382 0 -391 1 -431
66 l-24 39 -3 5168 -2 5167 142 0 143 0 63 -40z m1432 -28 c0 -38 -3 -71 -6
-74 -3 -4 -28 5 -55 19 -40 21 -51 23 -64 13 -33 -28 -46 -168 -22 -240 15
-43 44 -50 93 -21 19 12 39 21 45 21 5 0 9 -1892 9 -5045 l0 -5045 -480 0
-480 0 0 5036 c0 3452 -3 5041 -10 5055 -14 24 -26 24 -77 -3 -61 -32 -68 -21
-68 107 0 64 4 108 11 115 9 9 25 4 63 -17 51 -27 52 -28 66 -9 10 13 15 44
15 88 l0 68 480 0 480 0 0 -68z m940 -270 c0 -181 -3 -331 -6 -335 -3 -3 -28
6 -55 21 l-48 27 -22 -22 c-19 -18 -23 -36 -27 -105 -7 -146 25 -194 99 -149
19 12 40 21 47 21 9 0 12 -821 12 -4070 0 -2542 -4 -4070 -9 -4070 -6 0 -26 9
-45 21 -73 43 -104 6 -105 -124 -1 -72 18 -133 43 -143 9 -3 35 6 60 20 24 14
46 22 50 19 10 -10 7 -323 -3 -323 -6 0 -26 9 -45 21 -49 29 -78 22 -93 -21
-26 -76 -10 -222 27 -245 6 -4 33 4 60 18 27 14 51 23 54 19 8 -7 8 -322 1
-322 -3 0 -27 11 -52 25 -56 29 -77 22 -93 -33 -13 -49 -12 -148 3 -192 15
-43 49 -51 98 -21 19 12 37 21 42 21 4 0 7 -36 7 -80 l0 -80 -455 0 -455 0 -1
5013 c0 2756 -3 5030 -7 5052 -9 48 -37 57 -81 26 -42 -30 -59 -27 -70 17 -20
69 -9 189 17 199 8 4 34 -5 58 -18 39 -21 45 -22 59 -8 9 9 18 43 22 82 l6 67
453 0 454 0 0 -328z m1070 -527 c0 -225 -3 -335 -10 -335 -6 0 -28 9 -50 20
-54 28 -69 25 -86 -15 -18 -45 -18 -175 0 -220 17 -40 32 -43 86 -15 22 11 44
20 50 20 6 0 10 -29 10 -72 l0 -73 -61 -37 c-33 -21 -69 -38 -80 -38 -11 0
-47 18 -79 40 l-59 40 -101 0 c-67 0 -110 -5 -128 -14 -42 -22 -79 -67 -92
-111 -8 -30 -10 -862 -8 -3196 l3 -3155 27 -41 c16 -24 44 -49 70 -62 41 -20
60 -21 276 -21 l232 0 0 -70 c0 -78 -6 -83 -55 -50 -76 50 -110 3 -103 -143 3
-73 8 -91 26 -109 l21 -21 50 25 c27 15 52 24 55 20 3 -3 6 -86 6 -184 l0
-178 -525 0 -525 0 0 3994 c0 3481 -2 3995 -15 4006 -11 9 -24 6 -65 -17 -43
-24 -52 -26 -60 -13 -24 39 -23 197 2 227 8 10 21 7 60 -13 66 -34 78 -24 78
66 0 36 3 70 7 73 3 4 240 7 525 7 l518 0 0 -335z m820 -440 l0 -245 -397 2
-398 3 -3 72 c-4 94 -14 102 -82 68 -33 -17 -56 -23 -62 -17 -28 28 -16 242
13 242 6 0 30 -12 55 -26 62 -36 74 -24 74 72 l0 74 400 0 400 0 0 -245z
m-1055 -305 c41 -28 71 -40 95 -40 24 0 54 12 95 40 l60 40 423 0 422 0 0 -64
c0 -36 -5 -68 -10 -71 -6 -4 -26 3 -45 15 -43 26 -76 23 -92 -10 -16 -31 -17
-190 -2 -224 17 -37 37 -39 90 -12 40 22 48 23 53 10 3 -9 6 -92 6 -185 l0
-169 -427 0 -428 0 -60 -40 c-33 -22 -71 -40 -85 -40 -14 0 -52 18 -85 40
l-60 40 -152 0 -153 0 0 273 c0 276 7 346 38 381 40 45 73 56 167 56 88 0 91
-1 150 -40z m8755 -315 l0 -355 -3820 0 -3820 0 0 178 c0 218 -4 230 -72 194
-24 -12 -48 -22 -55 -22 -25 0 -35 42 -31 131 4 110 13 123 68 91 46 -26 75
-28 84 -6 3 9 6 45 6 80 l0 64 3820 0 3820 0 0 -355z m-8752 -415 c81 -52 109
-52 187 0 l60 40 423 0 422 0 0 -64 c0 -36 -4 -67 -9 -71 -5 -3 -30 4 -54 16
-77 37 -97 11 -97 -126 0 -138 25 -167 104 -121 38 22 45 23 50 10 3 -9 6 -92
6 -185 l0 -169 -427 0 -428 0 -60 -40 c-33 -22 -71 -40 -85 -40 -14 0 -52 18
-85 40 l-60 40 -152 0 -153 0 0 355 0 355 148 0 147 0 63 -40z m8752 -315 l0
-355 -3820 0 -3820 0 0 178 c0 140 -3 182 -14 198 -15 19 -16 18 -64 -8 -28
-16 -52 -28 -55 -28 -28 0 -37 214 -9 242 11 11 20 9 52 -10 46 -26 75 -28 84
-6 3 9 6 45 6 80 l0 64 3820 0 3820 0 0 -355z m-8755 -415 c80 -54 116 -54
195 0 l59 40 420 0 421 0 0 -64 c0 -36 -4 -67 -9 -71 -5 -3 -30 4 -54 16 -77
37 -97 11 -97 -126 0 -137 22 -165 96 -126 23 13 47 20 53 16 8 -4 11 -585 11
-1966 l0 -1959 -423 0 -422 0 -67 -45 c-37 -25 -77 -45 -89 -45 -12 0 -50 20
-85 45 l-63 45 -150 0 -151 0 0 2140 0 2140 148 0 147 0 60 -40z m2145 -289
c0 -213 -4 -332 -10 -336 -6 -4 -26 3 -45 15 -73 45 -105 10 -105 -116 0 -88
13 -139 37 -148 9 -4 37 5 63 18 26 14 50 22 54 19 10 -10 7 -511 -3 -518 -5
-3 -30 4 -54 16 -76 37 -97 11 -97 -122 0 -83 19 -149 42 -149 7 0 34 11 59
25 26 13 49 21 53 18 3 -4 6 -123 6 -265 0 -285 2 -277 -62 -238 -18 11 -41
20 -50 20 -31 0 -48 -52 -48 -145 0 -93 17 -145 48 -145 9 0 32 9 50 20 64 39
62 47 62 -240 0 -205 -3 -260 -13 -260 -7 0 -30 9 -52 20 -22 11 -45 20 -52
20 -26 0 -43 -57 -43 -145 0 -93 17 -145 48 -145 9 0 32 9 50 20 62 38 62 37
62 -140 0 -121 -3 -160 -12 -160 -7 0 -31 10 -54 22 -72 38 -94 9 -94 -128 0
-86 17 -144 43 -144 7 0 33 11 58 25 26 13 49 21 53 18 11 -11 7 -311 -4 -318
-6 -4 -26 3 -45 15 -73 45 -105 10 -105 -116 0 -88 13 -139 37 -148 9 -4 37 5
63 18 26 14 50 22 54 19 3 -4 6 -39 6 -80 l0 -73 -515 0 -515 0 0 1963 c0
1643 -2 1966 -14 1982 -13 18 -15 18 -66 -9 -39 -20 -55 -25 -64 -16 -16 16
-15 215 2 232 10 10 22 7 64 -16 49 -28 52 -28 65 -11 8 12 13 46 13 87 l0 68
515 0 515 0 0 -329z m7990 -556 l0 -355 -3985 0 -3985 0 0 178 c0 219 -4 230
-74 193 -25 -13 -52 -21 -60 -18 -20 8 -29 63 -24 147 5 90 16 102 68 72 46
-26 75 -28 84 -6 3 9 6 45 6 80 l0 64 3985 0 3985 0 0 -355z m-170 -730 l0
-355 -3900 0 -3900 0 0 178 c0 140 -3 182 -14 198 -15 19 -16 18 -64 -8 -68
-38 -77 -27 -77 103 0 125 7 134 75 96 44 -25 50 -26 64 -11 12 11 16 35 16
85 l0 69 3900 0 3900 0 0 -355z m1880 -730 l0 -355 -4840 0 -4840 0 0 178 c0
222 -3 228 -80 188 -39 -20 -55 -25 -64 -16 -7 7 -11 51 -11 115 0 117 9 140
48 115 12 -7 35 -20 51 -28 27 -14 30 -13 43 3 8 12 13 46 13 87 l0 68 4840 0
4840 0 0 -355z m-9130 -630 l0 -255 -275 0 -275 0 0 78 c0 50 -5 85 -13 97
-13 17 -16 17 -65 -11 -42 -23 -54 -26 -64 -16 -17 17 -18 216 -2 232 9 9 25
4 64 -16 51 -27 53 -27 66 -9 8 11 14 44 14 80 0 34 3 65 7 68 3 4 127 7 275
7 l268 0 0 -255z m0 -530 l0 -255 -272 2 -273 3 -5 82 c-7 108 -15 116 -81 79
-68 -38 -74 -31 -74 99 0 132 6 141 77 101 49 -28 52 -28 65 -11 8 12 13 46
13 87 l0 68 275 0 275 0 0 -255z m0 -525 l0 -250 -275 0 -275 0 0 73 c0 48 -5
80 -14 93 -15 19 -16 19 -60 -5 -25 -13 -52 -21 -60 -18 -20 8 -29 63 -24 147
5 91 16 102 71 72 76 -40 87 -31 87 74 l0 64 275 0 275 0 0 -250z m-2718 -315
c43 -29 78 -45 98 -45 20 0 55 16 98 45 l67 45 417 0 418 0 0 -69 c0 -39 -4
-72 -9 -76 -5 -3 -25 4 -45 16 -75 44 -106 10 -106 -121 0 -131 31 -165 106
-121 20 12 40 19 45 16 5 -4 9 -87 9 -186 l0 -179 -427 0 -428 0 -60 -40 c-33
-22 -71 -40 -85 -40 -14 0 -50 17 -80 37 -52 36 -60 38 -155 44 -116 7 -153
22 -187 76 -23 37 -23 43 -26 341 l-3 302 143 0 143 0 67 -45z m8688 -320 l0
-355 -3785 0 -3785 0 -2 186 c-3 219 -6 224 -83 183 -45 -24 -46 -24 -61 -5
-9 13 -14 46 -14 97 0 124 22 154 80 109 55 -43 80 -20 80 72 l0 68 3785 0
3785 0 0 -355z m-8930 -365 c19 -6 70 -10 113 -10 68 0 83 -3 119 -27 l42 -28
-123 -3 c-103 -2 -128 0 -166 17 -44 20 -85 69 -85 103 0 13 7 10 32 -13 18
-16 49 -34 68 -39z m7220 -445 l0 -355 -3360 0 -3360 0 0 184 c0 217 -3 225
-74 186 -24 -13 -50 -20 -59 -17 -20 8 -31 81 -24 159 7 80 17 89 67 60 46
-26 75 -28 84 -6 3 9 6 45 6 80 l0 64 3360 0 3360 0 0 -355z m-7232 -627 l-3
-253 -275 0 -275 0 -3 82 c-4 106 -14 116 -81 79 -41 -22 -50 -24 -60 -12 -30
36 -21 236 11 236 6 0 31 -12 55 -26 61 -36 73 -24 73 72 l0 74 280 0 280 0
-2 -252z m2 -528 l0 -250 -280 0 -280 0 0 79 c0 102 -12 115 -74 81 -24 -13
-50 -21 -58 -17 -39 14 -34 237 5 237 7 0 30 -10 53 -22 63 -33 74 -23 74 67
l0 75 280 0 280 0 0 -250z m0 -530 l0 -250 -280 0 -280 0 0 74 c0 114 -10 124
-80 85 -21 -12 -45 -19 -53 -16 -20 7 -32 99 -22 173 8 66 22 75 75 45 69 -39
80 -28 80 75 l0 64 280 0 280 0 0 -250z"/>
<path d="M950 10930 c0 -91 3 -110 15 -110 12 0 15 19 15 110 0 91 -3 110 -15
110 -12 0 -15 -19 -15 -110z"/>
<path d="M1340 10930 c0 -62 4 -110 9 -110 6 0 11 14 13 32 4 44 21 45 49 3
13 -19 30 -35 37 -35 18 0 15 8 -19 52 l-32 39 34 35 c45 47 15 44 -33 -3
l-38 -37 0 67 c0 38 -4 67 -10 67 -6 0 -10 -43 -10 -110z"/>
<path d="M2740 10930 c0 -91 3 -110 15 -110 12 0 15 19 15 110 0 91 -3 110
-15 110 -12 0 -15 -19 -15 -110z"/>
<path d="M2810 10930 c0 -67 4 -110 10 -110 6 0 10 43 10 110 0 67 -4 110 -10
110 -6 0 -10 -43 -10 -110z"/>
<path d="M2872 11028 c6 -18 28 -21 28 -4 0 9 -7 16 -16 16 -9 0 -14 -5 -12
-12z"/>
<path d="M3040 11000 c0 -37 -1 -39 -20 -28 -51 32 -104 -33 -84 -104 12 -40
54 -59 84 -40 12 7 20 8 20 2 0 -5 7 -10 15 -10 12 0 15 19 15 110 0 91 -3
110 -15 110 -11 0 -15 -11 -15 -40z m-6 -72 c19 -55 -22 -109 -59 -78 -18 15
-20 81 -3 98 20 20 52 10 62 -20z"/>
<path d="M450 10985 c0 -19 4 -35 9 -35 5 0 9 16 8 35 -1 19 -5 35 -9 35 -4 0
-8 -16 -8 -35z"/>
<path d="M496 10995 c-7 -27 -1 -45 14 -45 4 0 8 16 7 35 -1 41 -12 46 -21 10z"/>
<path d="M760 10920 l0 -100 58 0 c67 0 102 19 102 55 0 13 -10 33 -22 45 -12
11 -17 20 -11 20 21 0 26 40 7 61 -13 15 -31 19 -76 19 l-58 0 0 -100z m104
74 c21 -8 21 -40 0 -48 -9 -3 -29 -6 -45 -6 -26 0 -29 4 -29 30 0 26 3 30 29
30 16 0 36 -3 45 -6z m20 -96 c18 -29 -4 -53 -53 -56 l-41 -3 0 41 0 41 41 -3
c27 -2 46 -9 53 -20z"/>
<path d="M1592 11004 c-26 -18 -28 -45 -4 -66 17 -15 29 -20 85 -32 20 -5 27
-12 27 -30 0 -37 -58 -50 -96 -21 -24 18 -45 19 -38 1 13 -34 103 -48 142 -20
25 17 29 56 7 74 -8 6 -36 17 -62 24 -37 9 -49 17 -51 34 -4 28 39 40 76 21
15 -7 30 -15 35 -17 4 -2 7 3 7 12 0 35 -87 49 -128 20z"/>
<path d="M2390 10992 c-24 -24 -30 -39 -30 -72 0 -53 42 -100 90 -100 39 0 90
26 90 45 0 20 -7 19 -37 -5 -33 -25 -54 -25 -87 1 -28 22 -36 73 -16 109 15
28 64 35 99 14 17 -10 34 -15 38 -11 14 14 -26 39 -70 44 -41 5 -49 2 -77 -25z"/>
<path d="M1042 10964 c-18 -12 -22 -25 -22 -64 0 -39 4 -52 22 -64 53 -37 111
-5 111 62 0 72 -56 105 -111 66z m82 -36 c14 -40 -3 -82 -34 -86 -42 -6 -65
51 -39 99 16 30 61 22 73 -13z"/>
<path d="M1200 10960 c-45 -45 -14 -140 45 -140 29 0 77 41 55 48 -7 3 -17 -3
-22 -12 -11 -19 -39 -21 -56 -4 -7 7 -12 28 -12 48 0 20 5 41 12 48 17 17 47
15 54 -3 8 -19 24 -19 24 0 0 35 -69 46 -100 15z"/>
<path d="M1772 10909 c4 -84 18 -101 68 -82 16 6 30 7 30 2 0 -5 5 -9 10 -9 6
0 10 33 10 80 0 47 -4 80 -10 80 -5 0 -10 -19 -10 -42 0 -60 -9 -86 -32 -93
-33 -11 -48 12 -48 76 0 34 -4 59 -10 59 -7 0 -10 -27 -8 -71z"/>
<path d="M1930 10870 c0 -91 3 -110 15 -110 11 0 15 11 15 40 0 37 2 39 18 29
11 -7 31 -9 45 -5 55 13 55 139 0 152 -14 4 -34 2 -45 -5 -11 -7 -18 -7 -18
-1 0 5 -7 10 -15 10 -12 0 -15 -19 -15 -110z m104 58 c19 -55 -22 -109 -59
-78 -18 15 -20 81 -3 98 20 20 52 10 62 -20z"/>
<path d="M2116 10964 c-50 -49 -21 -144 43 -144 28 0 70 24 60 34 -3 3 -19 0
-36 -6 -36 -14 -63 1 -63 33 0 16 8 19 55 19 48 0 55 2 55 20 0 49 -79 79
-114 44z m72 -16 c21 -21 13 -28 -28 -28 -22 0 -40 4 -40 8 0 14 23 32 40 32
9 0 21 -5 28 -12z"/>
<path d="M2260 10900 c0 -64 3 -80 15 -80 12 0 15 13 15 60 0 55 2 62 25 72
14 6 25 15 25 20 0 12 -24 10 -38 -4 -9 -9 -12 -9 -12 0 0 7 -7 12 -15 12 -12
0 -15 -16 -15 -80z"/>
<path d="M2590 10960 c-13 -13 -20 -33 -20 -60 0 -49 27 -80 70 -80 43 0 70
31 70 80 0 49 -27 80 -70 80 -17 0 -39 -9 -50 -20z m79 -14 c17 -21 10 -87
-11 -100 -28 -17 -52 5 -56 48 -4 41 11 66 38 66 10 0 23 -6 29 -14z"/>
<path d="M2870 10900 c0 -64 3 -80 15 -80 12 0 15 16 15 80 0 64 -3 80 -15 80
-12 0 -15 -16 -15 -80z"/>
<path d="M3126 10964 c-33 -32 -33 -96 0 -128 19 -20 64 -21 90 -2 27 20 14
28 -23 14 -36 -14 -63 1 -63 33 0 16 8 19 55 19 48 0 55 2 55 20 0 49 -79 79
-114 44z m72 -16 c21 -21 13 -28 -28 -28 -22 0 -40 4 -40 8 0 14 23 32 40 32
9 0 21 -5 28 -12z"/>
<path d="M3270 10900 c0 -64 3 -80 15 -80 12 0 15 13 15 60 0 55 2 62 25 72
14 6 25 15 25 20 0 12 -24 10 -38 -4 -9 -9 -12 -9 -12 0 0 7 -7 12 -15 12 -12
0 -15 -16 -15 -80z"/>
<path d="M470 5424 c0 -97 -10 -93 105 -45 39 16 71 36 73 44 2 8 -13 20 -35
29 -21 8 -62 25 -90 37 l-53 21 0 -86z m105 16 c40 -18 40 -18 15 -28 -14 -5
-42 -17 -62 -25 l-38 -16 0 50 c0 56 -1 56 85 19z"/>
<path d="M1193 5600 c-39 -16 -53 -60 -53 -165 0 -111 13 -147 61 -164 20 -7
121 -11 266 -11 316 0 313 -2 313 180 0 110 0 112 -29 141 l-29 29 -254 -1
c-139 0 -263 -4 -275 -9z m541 -31 c25 -20 26 -24 26 -129 0 -91 -3 -111 -19
-131 l-19 -24 -262 0 -262 0 -19 24 c-16 19 -19 40 -19 128 0 97 2 106 25 128
l24 25 249 0 c237 0 251 -1 276 -21z"/>
<path d="M1270 5515 c0 -8 16 -27 35 -42 19 -15 35 -33 35 -39 0 -5 -16 -25
-35 -44 -53 -51 -47 -60 40 -60 43 0 75 4 75 10 0 6 -27 10 -62 10 l-62 0 37
38 c20 21 37 43 37 49 0 6 -13 23 -30 36 -16 14 -30 28 -30 31 0 3 25 6 55 6
30 0 55 5 55 10 0 6 -32 10 -75 10 -59 0 -75 -3 -75 -15z"/>
<path d="M2335 10391 c-39 -24 -92 -81 -76 -81 7 0 32 16 55 35 44 36 86 46
86 21 0 -7 -10 -20 -22 -28 -12 -8 -18 -19 -14 -26 5 -8 15 -6 36 10 28 20 31
20 48 5 30 -27 49 -21 23 7 -13 14 -20 29 -16 35 13 22 44 10 79 -31 20 -23
36 -35 36 -27 0 23 -69 99 -89 99 -9 0 -26 -6 -36 -14 -17 -12 -22 -12 -39 0
-26 18 -35 18 -71 -5z"/>
<path d="M2301 6034 c-12 -15 -21 -31 -21 -35 0 -5 -8 -9 -17 -9 -14 0 -15 -2
-4 -9 11 -7 12 -19 0 -76 -15 -75 -33 -109 -48 -86 -5 8 -11 9 -15 3 -9 -15
10 -25 33 -17 21 6 47 64 57 126 5 28 13 43 28 49 18 7 18 9 3 9 -14 1 -17 6
-12 24 11 33 24 44 35 27 5 -8 12 -11 15 -8 10 9 -4 28 -20 28 -7 0 -23 -12
-34 -26z"/>
<path d="M2315 1632 c-40 -25 -57 -47 -53 -69 4 -15 7 -13 18 10 30 61 134 78
189 31 17 -14 31 -32 31 -40 0 -8 5 -14 10 -14 6 0 10 8 10 18 0 20 -31 52
-67 71 -33 17 -104 13 -138 -7z"/>
<path d="M2383 1063 c25 -7 22 -14 -31 -66 -53 -52 -59 -55 -65 -29 -3 9 -5 0
-6 -20 -1 -36 0 -38 32 -38 24 0 28 3 17 10 -12 8 -6 18 35 60 54 55 61 58 68
33 3 -10 5 -1 6 20 1 37 1 37 -36 36 -21 -1 -30 -3 -20 -6z"/>
<path d="M2294 545 c-4 -16 -13 -25 -25 -25 -10 0 -19 -4 -19 -10 0 -5 7 -10
15 -10 23 0 19 -41 -5 -47 -22 -6 -27 -23 -7 -23 9 0 12 -10 10 -32 -3 -25 -2
-30 6 -18 6 8 11 23 11 33 0 12 8 17 28 17 26 0 28 -3 25 -32 -3 -25 -2 -30 6
-18 6 8 11 23 11 33 0 10 8 17 20 17 11 0 20 5 20 10 0 6 -7 10 -15 10 -23 0
-19 41 5 47 23 6 27 23 6 23 -9 0 -12 8 -8 26 3 19 1 25 -7 20 -6 -4 -11 -16
-11 -27 0 -14 -7 -19 -29 -19 -25 0 -28 3 -23 25 2 14 2 25 -2 25 -3 0 -8 -11
-12 -25z m56 -54 c0 -25 -14 -41 -36 -41 -25 0 -28 7 -18 34 6 17 54 23 54 7z"/>
<path d="M3200 9985 c0 -3 9 -14 21 -26 25 -25 22 -51 -14 -131 -20 -43 -23
-58 -13 -58 7 0 25 26 38 58 l25 57 18 -57 c10 -32 25 -58 32 -58 7 0 13 2 13
4 0 17 -66 184 -78 199 -14 16 -42 24 -42 12z"/>
<path d="M3210 9381 c-16 -30 -12 -107 6 -125 18 -19 70 -21 77 -3 4 10 7 10
18 0 7 -7 25 -13 40 -13 30 0 43 13 53 53 9 38 -11 107 -30 107 -10 0 -14 -6
-11 -17 15 -53 16 -74 7 -98 -14 -38 -42 -29 -53 18 -10 40 -27 50 -27 16 0
-47 -40 -79 -54 -43 -9 25 -7 83 4 105 8 15 7 19 -4 19 -9 0 -20 -9 -26 -19z"/>
<path d="M3192 8951 c4 -13 18 -16 19 -4 0 4 -5 9 -11 12 -7 2 -11 -2 -8 -8z"/>
<path d="M3195 8889 c-10 -15 3 -25 16 -12 7 7 7 13 1 17 -6 3 -14 1 -17 -5z"/>
<path d="M3195 8819 c-10 -15 3 -25 16 -12 7 7 7 13 1 17 -6 3 -14 1 -17 -5z"/>
<path d="M3192 8751 c4 -13 18 -16 19 -4 0 4 -5 9 -11 12 -7 2 -11 -2 -8 -8z"/>
<path d="M3257 2112 c-18 -20 -18 -21 3 -32 15 -8 20 -8 16 -1 -5 8 16 12 66
13 l73 2 -67 3 c-51 3 -67 8 -70 20 -2 13 -6 12 -21 -5z"/>
<path d="M4168 9491 l-33 -29 0 -116 c0 -113 1 -116 28 -143 l27 -28 266 0
266 0 24 28 c22 26 24 36 24 142 0 106 -2 116 -24 142 l-24 28 -260 3 -261 3
-33 -30z m556 -12 c25 -20 26 -23 26 -134 0 -163 15 -155 -292 -155 -235 0
-270 4 -290 34 -4 6 -8 61 -8 121 0 61 4 115 8 121 20 30 52 33 288 34 229 0
243 -1 268 -21z"/>
<path d="M4275 9425 c-5 -11 -13 -24 -19 -28 -8 -6 -7 -10 2 -14 8 -3 12 -27
12 -69 0 -68 11 -84 48 -69 15 6 14 8 -5 16 -20 7 -23 16 -23 64 0 42 3 55 15
55 8 0 15 5 15 10 0 6 -6 10 -14 10 -8 0 -16 10 -19 23 -3 21 -4 21 -12 2z"/>
<path d="M4350 9318 c0 -63 3 -78 15 -78 12 0 15 13 15 60 0 49 4 62 20 72 29
18 25 24 -15 24 l-35 0 0 -78z"/>
<path d="M3561 8884 l-31 -26 0 -122 c0 -119 1 -123 26 -147 l26 -24 254 0
254 0 27 28 c26 25 28 35 32 119 2 51 -2 108 -8 130 -20 64 -36 68 -310 68
l-239 0 -31 -26z m540 -13 c22 -17 24 -29 27 -116 4 -108 -6 -146 -44 -164
-16 -7 -105 -11 -253 -11 -294 0 -281 -7 -281 156 0 165 -19 154 284 154 225
0 246 -1 267 -19z"/>
<path d="M3676 8774 c-33 -32 -33 -96 0 -128 19 -20 64 -21 90 -2 27 20 14 28
-23 14 -36 -14 -63 1 -63 33 0 16 8 19 55 19 48 0 55 2 55 20 0 49 -79 79
-114 44z m72 -16 c21 -21 13 -28 -28 -28 -22 0 -40 4 -40 8 0 14 23 32 40 32
9 0 21 -5 28 -12z"/>
<path d="M4270 8749 c0 -24 23 -21 28 4 2 10 -3 17 -12 17 -10 0 -16 -9 -16
-21z"/>
<path d="M4320 8750 c0 -6 37 -10 90 -10 53 0 90 4 90 10 0 6 -37 10 -90 10
-53 0 -90 -4 -90 -10z"/>
<path d="M4270 8689 c0 -24 23 -21 28 4 2 10 -3 17 -12 17 -10 0 -16 -9 -16
-21z"/>
<path d="M4320 8695 c0 -12 17 -15 90 -15 73 0 90 3 90 15 0 12 -17 15 -90 15
-73 0 -90 -3 -90 -15z"/>
<path d="M6240 8930 c0 -44 -4 -80 -9 -80 -6 0 -26 9 -45 21 -51 30 -78 23
-92 -26 -25 -80 -13 -207 22 -236 13 -10 23 -8 62 12 26 13 50 25 54 27 4 2 9
-39 10 -90 l3 -93 298 -3 297 -2 0 275 0 275 -300 0 -300 0 0 -80z m580 -195
l0 -255 -275 0 -275 0 0 58 c0 73 -16 132 -36 132 -9 0 -28 -8 -42 -18 -61
-42 -74 -35 -85 48 -6 47 5 155 17 167 4 4 30 -5 59 -20 68 -34 80 -24 85 73
l4 70 274 0 274 0 0 -255z"/>
<path d="M6499 8811 c-21 -16 -24 -28 -24 -81 0 -53 3 -65 24 -81 31 -25 65
-24 91 3 28 31 29 129 0 158 -25 25 -61 26 -91 1z m79 -31 c14 -28 10 -93 -8
-115 -32 -38 -70 -2 -70 65 0 76 48 107 78 50z"/>
<path d="M7460 8930 c0 -49 -4 -80 -10 -80 -6 0 -28 9 -50 20 -53 27 -67 25
-85 -10 -20 -38 -20 -178 -1 -225 18 -42 35 -44 91 -10 23 13 45 21 49 18 3
-3 6 -46 6 -95 l0 -88 380 0 380 0 0 275 0 275 -380 0 -380 0 0 -80z m740
-195 l0 -255 -360 0 -360 0 0 84 c0 110 -11 121 -80 83 -66 -37 -75 -25 -75
104 0 125 7 134 75 96 44 -25 50 -26 64 -11 12 11 16 35 16 85 l0 69 360 0
360 0 0 -255z"/>
<path d="M7720 8810 c-14 -10 -21 -22 -17 -26 4 -4 13 -2 19 4 23 23 28 11 28
-63 0 -73 -1 -75 -25 -75 -14 0 -25 -4 -25 -10 0 -6 28 -10 65 -10 37 0 65 4
65 10 0 6 -11 10 -25 10 -25 0 -25 1 -25 90 0 79 -2 90 -17 90 -10 0 -29 -9
-43 -20z"/>
<path d="M7877 8812 c-21 -23 -21 -32 -2 -32 8 0 15 4 15 9 0 16 40 23 55 11
26 -22 16 -47 -34 -89 -27 -22 -51 -50 -54 -61 -5 -19 0 -20 64 -20 39 0 69 4
69 10 0 6 -22 10 -50 10 -27 0 -50 3 -50 7 0 4 23 28 50 53 55 50 60 70 30
100 -25 25 -72 26 -93 2z"/>
<path d="M8970 8930 c0 -45 -4 -80 -10 -80 -5 0 -24 9 -42 20 -43 26 -64 25
-82 -2 -34 -53 -32 -207 4 -250 l18 -23 49 25 c26 13 51 26 55 28 4 2 9 -39
10 -90 l3 -93 423 -3 422 -2 0 275 0 275 -425 0 -425 0 0 -80z m830 -195 l0
-255 -400 0 -400 0 -1 68 c-2 124 -19 142 -89 96 -41 -27 -43 -28 -56 -9 -22
29 -21 201 0 223 11 12 22 10 62 -12 64 -34 77 -22 82 74 l4 70 399 0 399 0 0
-255z"/>
<path d="M9109 8881 c-29 -29 -29 -31 -29 -143 0 -182 -3 -180 333 -176 l247
3 27 28 c26 25 28 35 32 119 2 51 -2 108 -8 130 -20 65 -35 68 -321 68 l-252
0 -29 -29z m561 -11 c27 -27 33 -56 29 -156 -4 -80 -6 -87 -33 -110 l-28 -25
-250 3 c-307 4 -288 -7 -288 158 0 157 -15 150 301 150 235 0 250 -1 269 -20z"/>
<path d="M9208 8800 c-10 -11 -13 -22 -8 -25 6 -4 10 -32 10 -64 0 -31 5 -62
12 -69 15 -15 48 -16 48 -2 0 6 -7 10 -15 10 -12 0 -15 13 -15 60 0 47 3 60
15 60 8 0 15 5 15 10 0 6 -7 10 -15 10 -8 0 -15 7 -15 15 0 20 -11 18 -32 -5z"/>
<path d="M9290 8710 c0 -64 3 -80 15 -80 12 0 15 13 15 60 0 55 2 62 25 72 14
6 25 15 25 20 0 12 -24 10 -38 -4 -9 -9 -12 -9 -12 0 0 7 -7 12 -15 12 -12 0
-15 -16 -15 -80z"/>
<path d="M10500 8943 c0 -92 -7 -100 -58 -74 -53 27 -68 26 -87 -3 -19 -29
-23 -184 -6 -229 15 -39 32 -42 89 -13 61 31 62 29 62 -85 l0 -79 295 0 295 0
0 275 0 275 -295 0 -295 0 0 -67z m570 -208 l0 -255 -275 0 -275 0 0 78 c0 52
-5 85 -14 98 -15 19 -16 18 -66 -10 -39 -21 -55 -25 -63 -17 -19 19 -22 202
-4 226 15 19 16 19 65 -8 l51 -27 15 22 c11 15 16 44 16 85 l0 63 275 0 275 0
0 -255z"/>
<path d="M10760 8810 c-14 -10 -21 -22 -17 -26 4 -4 13 -2 19 4 23 23 28 11
28 -63 0 -73 -1 -75 -25 -75 -14 0 -25 -4 -25 -10 0 -6 27 -10 60 -10 33 0 60
4 60 10 0 6 -11 10 -25 10 -25 0 -25 1 -25 90 0 98 -5 105 -50 70z"/>
<path d="M11770 8930 c0 -47 -4 -80 -10 -80 -6 0 -27 9 -47 20 -21 11 -46 20
-56 20 -28 0 -47 -59 -47 -145 0 -84 19 -145 46 -145 10 0 36 11 59 25 23 13
45 21 49 18 3 -3 6 -46 6 -95 l0 -88 300 0 300 0 0 275 0 275 -300 0 -300 0 0
-80z m570 -195 l0 -255 -275 0 -275 0 0 84 c0 110 -11 121 -80 83 -66 -37 -75
-25 -75 104 0 125 7 134 75 96 44 -25 50 -26 64 -11 12 11 16 35 16 85 l0 69
275 0 275 0 0 -255z"/>
<path d="M12020 8810 c-16 -16 -20 -33 -20 -80 0 -47 4 -64 20 -80 25 -25 61
-26 91 -1 20 16 24 28 24 79 0 45 -5 65 -19 81 -24 27 -70 27 -96 1z m80 -19
c5 -11 10 -40 10 -65 0 -72 -49 -101 -78 -46 -14 28 -10 93 8 115 17 21 47 19
60 -4z"/>
<path d="M5840 8726 l0 -136 30 0 c17 0 30 5 30 10 0 6 -7 10 -15 10 -12 0
-15 23 -17 122 -2 86 -7 123 -15 126 -10 3 -13 -28 -13 -132z"/>
<path d="M7060 8851 c0 -5 9 -11 20 -14 19 -5 20 -14 20 -126 0 -74 4 -121 10
-121 6 0 10 52 10 135 l0 135 -30 0 c-16 0 -30 -4 -30 -9z"/>
<path d="M5370 8735 l0 -105 110 0 110 0 0 105 0 105 -110 0 -110 0 0 -105z
m190 0 l0 -85 -80 0 -80 0 0 85 0 85 80 0 80 0 0 -85z"/>
<path d="M5510 8780 c0 -11 7 -20 15 -20 8 0 15 9 15 20 0 11 -7 20 -15 20 -8
0 -15 -9 -15 -20z"/>
<path d="M5420 8690 c0 -23 25 -27 33 -6 7 16 -1 26 -20 26 -7 0 -13 -9 -13
-20z"/>
<path d="M5229 8784 c-17 -18 -19 -23 -6 -18 14 5 17 0 17 -28 0 -43 -15 -58
-57 -58 -18 0 -33 -4 -33 -10 0 -5 20 -10 44 -10 53 0 76 24 76 78 0 28 3 33
17 28 13 -5 11 0 -6 18 -14 15 -25 26 -26 26 -1 0 -12 -11 -26 -26z"/>
<path d="M8529 8784 l-24 -26 23 6 c20 7 22 4 22 -26 0 -43 -15 -58 -57 -58
-18 0 -33 -4 -33 -10 0 -16 77 -12 94 6 9 9 16 32 16 56 0 36 2 40 21 35 21
-6 21 -5 -2 19 -28 30 -30 30 -60 -2z"/>
<path d="M11368 8804 c-5 -4 -8 -20 -8 -36 0 -24 -4 -28 -30 -28 -16 0 -30 -4
-30 -10 0 -5 14 -10 30 -10 27 0 30 -3 30 -30 0 -16 5 -30 10 -30 6 0 10 14
10 30 0 27 3 30 30 30 17 0 30 5 30 10 0 6 -13 10 -29 10 -27 0 -30 4 -33 36
-2 20 -6 32 -10 28z"/>
<path d="M10040 8783 c0 -4 10 -17 22 -30 l22 -23 -29 -30 c-33 -35 -14 -42
22 -8 l23 21 25 -23 c14 -13 28 -20 32 -17 3 4 -4 18 -17 32 l-23 25 23 25
c13 14 20 28 17 32 -4 3 -18 -4 -32 -17 l-25 -23 -23 21 c-24 22 -37 28 -37
15z"/>
<path d="M3561 8154 l-31 -26 0 -122 c0 -119 1 -123 26 -147 25 -24 27 -24
266 -27 267 -3 287 0 312 53 19 39 22 185 5 234 -20 57 -41 61 -308 61 l-239
0 -31 -26z m517 0 c37 -10 52 -53 52 -148 0 -95 -11 -129 -47 -145 -15 -7
-106 -11 -252 -11 -294 0 -281 -7 -281 153 0 117 3 127 35 145 21 12 450 17
493 6z"/>
<path d="M3760 8080 c0 -37 -2 -40 -19 -30 -50 26 -91 -5 -91 -70 0 -65 41
-96 91 -70 13 7 19 7 19 0 0 -5 5 -10 10 -10 6 0 10 43 10 110 0 67 -4 110
-10 110 -5 0 -10 -18 -10 -40z m-9 -67 c21 -56 -19 -114 -56 -83 -15 13 -20
65 -9 94 10 27 53 20 65 -11z"/>
<path d="M4270 8019 c0 -24 23 -21 28 4 2 10 -3 17 -12 17 -10 0 -16 -9 -16
-21z"/>
<path d="M4320 8020 c0 -6 37 -10 90 -10 53 0 90 4 90 10 0 6 -37 10 -90 10
-53 0 -90 -4 -90 -10z"/>
<path d="M4270 7959 c0 -24 23 -21 28 4 2 10 -3 17 -12 17 -10 0 -16 -9 -16
-21z"/>
<path d="M4320 7965 c0 -12 17 -15 90 -15 73 0 90 3 90 15 0 12 -17 15 -90 15
-73 0 -90 -3 -90 -15z"/>
<path d="M6240 8200 c0 -49 -4 -80 -11 -80 -5 0 -28 10 -49 23 -31 17 -43 20
-57 11 -56 -34 -56 -244 0 -278 14 -9 26 -6 57 12 21 12 44 22 49 22 7 0 11
-34 11 -90 l0 -90 300 0 300 0 0 275 0 275 -300 0 -300 0 0 -80z m580 -195 l0
-255 -274 0 -274 0 -4 80 c-2 56 -8 84 -19 96 -15 15 -20 14 -65 -10 -68 -36
-77 -25 -77 99 -1 126 10 139 78 100 43 -26 48 -27 63 -11 11 11 18 39 20 86
l4 70 274 0 274 0 0 -255z"/>
<path d="M6509 8081 c-13 -11 -21 -23 -17 -27 4 -4 14 -1 23 6 13 11 15 3 15
-64 0 -74 -1 -76 -25 -76 -14 0 -25 -4 -25 -10 0 -6 28 -10 65 -10 37 0 65 4
65 10 0 6 -11 10 -25 10 -25 0 -25 1 -25 90 0 98 -7 107 -51 71z"/>
<path d="M7460 8200 c0 -49 -4 -80 -10 -80 -6 0 -28 9 -50 20 -54 28 -69 25
-86 -15 -31 -75 -10 -255 31 -255 9 0 33 9 55 20 22 11 44 20 50 20 6 0 10
-34 10 -90 l0 -90 380 0 380 0 0 275 0 275 -380 0 -380 0 0 -80z m740 -195 l0
-255 -360 0 -360 0 0 78 c0 49 -5 85 -13 96 -13 17 -16 17 -66 -9 -40 -20 -56
-24 -65 -15 -16 16 -15 215 1 231 10 10 23 7 63 -15 69 -38 80 -28 80 70 l0
74 360 0 360 0 0 -255z"/>
<path d="M7720 8080 c-14 -10 -21 -22 -17 -26 4 -4 13 -2 19 4 23 23 28 11 28
-63 0 -73 -1 -75 -25 -75 -14 0 -25 -4 -25 -10 0 -6 28 -10 65 -10 37 0 65 4
65 10 0 6 -11 10 -25 10 -25 0 -25 1 -25 90 0 79 -2 90 -17 90 -10 0 -29 -9
-43 -20z"/>
<path d="M7877 8082 c-21 -23 -21 -32 -2 -32 8 0 15 4 15 9 0 16 40 23 55 11
26 -22 16 -47 -34 -89 -27 -22 -51 -50 -54 -61 -5 -19 0 -20 64 -20 39 0 69 4
69 10 0 6 -22 10 -50 10 -27 0 -50 3 -50 7 0 4 23 28 50 53 55 50 60 70 30
100 -25 25 -72 26 -93 2z"/>
<path d="M8970 8200 c0 -88 -5 -93 -55 -60 -70 46 -100 8 -100 -125 0 -133 30
-171 100 -125 51 34 55 29 55 -70 l0 -90 425 0 425 0 0 275 0 275 -425 0 -425
0 0 -80z m830 -195 l0 -255 -400 0 -400 0 0 74 c0 57 -4 79 -19 97 l-18 23
-48 -28 c-34 -20 -50 -25 -58 -17 -25 25 -25 207 0 232 8 8 24 4 56 -15 24
-15 51 -24 60 -21 17 7 27 48 27 116 l0 49 400 0 400 0 0 -255z"/>
<path d="M9134 8170 c-45 -18 -54 -47 -54 -167 0 -104 2 -114 24 -140 l24 -28
260 -3 261 -3 33 30 33 29 0 117 0 117 -33 29 -32 29 -248 -1 c-136 0 -257 -4
-268 -9z m519 -21 c36 -16 47 -50 47 -144 0 -94 -11 -128 -47 -144 -15 -7
-109 -11 -264 -11 l-240 0 -24 25 c-24 23 -25 31 -25 134 0 158 -14 151 291
151 153 0 247 -4 262 -11z"/>
<path d="M9208 8070 c-10 -11 -13 -22 -8 -25 6 -4 10 -32 10 -64 0 -31 5 -62
12 -69 15 -15 48 -16 48 -2 0 6 -7 10 -15 10 -12 0 -15 13 -15 60 0 47 3 60
15 60 8 0 15 5 15 10 0 6 -7 10 -15 10 -8 0 -15 7 -15 15 0 20 -11 18 -32 -5z"/>
<path d="M9290 7980 c0 -64 3 -80 15 -80 12 0 15 13 15 60 0 55 2 62 25 72 14
6 25 15 25 20 0 12 -24 10 -38 -4 -9 -9 -12 -9 -12 0 0 7 -7 12 -15 12 -12 0
-15 -16 -15 -80z"/>
<path d="M10500 8206 c0 -42 -5 -78 -11 -81 -6 -4 -30 3 -53 16 -74 39 -98 8
-98 -126 0 -135 24 -165 99 -125 57 30 63 22 63 -82 l0 -78 295 0 295 0 0 275
0 275 -295 0 -295 0 0 -74z m570 -201 l0 -255 -275 0 -275 0 0 68 c0 121 -12
134 -86 95 -45 -24 -48 -25 -61 -7 -19 26 -18 194 1 220 13 17 17 18 38 5 93
-58 108 -48 108 72 l0 57 275 0 275 0 0 -255z"/>
<path d="M10760 8080 c-14 -10 -21 -22 -17 -26 4 -4 13 -2 19 4 23 23 28 11
28 -63 0 -73 -1 -75 -25 -75 -14 0 -25 -4 -25 -10 0 -6 27 -10 60 -10 33 0 60
4 60 10 0 6 -11 10 -25 10 -25 0 -25 1 -25 90 0 98 -5 105 -50 70z"/>
<path d="M11770 8200 c0 -49 -4 -80 -10 -80 -6 0 -28 9 -50 20 -54 28 -69 25
-86 -15 -31 -75 -10 -255 31 -255 9 0 33 9 55 20 22 11 44 20 50 20 6 0 10
-34 10 -90 l0 -90 300 0 300 0 0 275 0 275 -300 0 -300 0 0 -80z m570 -195 l0
-255 -275 0 -275 0 0 84 c0 108 -9 117 -80 81 -36 -18 -56 -23 -63 -16 -27 27
-16 241 13 241 4 0 28 -12 54 -26 64 -36 76 -25 76 72 l0 74 275 0 275 0 0
-255z"/>
<path d="M12020 8080 c-16 -16 -20 -33 -20 -80 0 -47 4 -64 20 -80 25 -25 61
-26 91 -1 20 16 24 28 24 79 0 45 -5 65 -19 81 -24 27 -70 27 -96 1z m80 -19
c5 -11 10 -40 10 -65 0 -72 -49 -101 -78 -46 -14 28 -10 93 8 115 17 21 47 19
60 -4z"/>
<path d="M5840 7996 l0 -136 30 0 c17 0 30 5 30 10 0 6 -7 10 -15 10 -12 0
-15 23 -17 122 -2 86 -7 123 -15 126 -10 3 -13 -28 -13 -132z"/>
<path d="M7060 8121 c0 -5 9 -11 20 -14 19 -5 20 -14 20 -126 0 -74 4 -121 10
-121 6 0 10 52 10 135 l0 135 -30 0 c-16 0 -30 -4 -30 -9z"/>
<path d="M5370 8005 l0 -105 110 0 110 0 0 105 0 105 -110 0 -110 0 0 -105z
m190 0 l0 -85 -80 0 -80 0 0 85 0 85 80 0 80 0 0 -85z"/>
<path d="M5510 8050 c0 -11 7 -20 15 -20 8 0 15 9 15 20 0 11 -7 20 -15 20 -8
0 -15 -9 -15 -20z"/>
<path d="M5420 7960 c0 -23 25 -27 33 -6 7 16 -1 26 -20 26 -7 0 -13 -9 -13
-20z"/>
<path d="M5229 8054 c-17 -18 -19 -23 -6 -18 14 5 17 0 17 -28 0 -43 -15 -58
-57 -58 -18 0 -33 -4 -33 -10 0 -5 20 -10 44 -10 53 0 76 24 76 78 0 28 3 33
17 28 13 -5 11 0 -6 18 -14 15 -25 26 -26 26 -1 0 -12 -11 -26 -26z"/>
<path d="M8529 8054 l-24 -26 23 6 c20 7 22 4 22 -26 0 -43 -15 -58 -57 -58
-18 0 -33 -4 -33 -10 0 -16 77 -12 94 6 9 9 16 32 16 56 0 36 2 40 21 35 21
-6 21 -5 -2 19 -28 30 -30 30 -60 -2z"/>
<path d="M11368 8074 c-5 -4 -8 -20 -8 -36 0 -24 -4 -28 -30 -28 -16 0 -30 -4
-30 -10 0 -5 14 -10 30 -10 27 0 30 -3 30 -30 0 -16 5 -30 10 -30 6 0 10 14
10 30 0 27 3 30 30 30 17 0 30 5 30 10 0 6 -13 10 -29 10 -27 0 -30 4 -33 36
-2 20 -6 32 -10 28z"/>
<path d="M10040 8053 c0 -4 10 -17 22 -30 l22 -23 -29 -30 c-33 -35 -14 -42
22 -8 l23 21 25 -23 c14 -13 28 -20 32 -17 3 4 -4 18 -17 32 l-23 25 23 25
c13 14 20 28 17 32 -4 3 -18 -4 -32 -17 l-25 -23 -23 21 c-24 22 -37 28 -37
15z"/>
<path d="M3575 5648 c-40 -23 -44 -39 -45 -164 0 -117 1 -121 26 -145 l26 -24
254 0 254 0 27 28 c26 25 28 35 32 119 2 51 -2 108 -8 130 -20 64 -36 68 -308
68 -160 -1 -245 -4 -258 -12z m526 -27 c22 -17 24 -29 27 -116 5 -119 -6 -151
-57 -166 -22 -6 -119 -9 -257 -7 -280 4 -264 -5 -264 155 0 163 -19 153 284
153 225 0 246 -1 267 -19z"/>
<path d="M3670 5520 c-13 -13 -20 -33 -20 -60 0 -49 27 -80 70 -80 43 0 70 31
70 80 0 49 -27 80 -70 80 -17 0 -39 -9 -50 -20z m79 -14 c17 -21 10 -87 -11
-100 -28 -17 -52 5 -56 48 -4 41 11 66 38 66 10 0 23 -6 29 -14z"/>
<path d="M4270 5499 c0 -24 23 -21 28 4 2 10 -3 17 -12 17 -10 0 -16 -9 -16
-21z"/>
<path d="M4320 5500 c0 -6 37 -10 90 -10 53 0 90 4 90 10 0 6 -37 10 -90 10
-53 0 -90 -4 -90 -10z"/>
<path d="M4270 5439 c0 -24 23 -21 28 4 2 10 -3 17 -12 17 -10 0 -16 -9 -16
-21z"/>
<path d="M4320 5445 c0 -12 17 -15 90 -15 73 0 90 3 90 15 0 12 -17 15 -90 15
-73 0 -90 -3 -90 -15z"/>
<path d="M5180 7460 c0 -18 -5 -30 -13 -30 -46 0 -65 -102 -27 -140 11 -11 25
-20 30 -20 6 0 10 -13 10 -30 0 -16 5 -30 10 -30 6 0 10 12 10 26 0 16 12 37
30 54 23 21 30 37 30 64 0 35 -27 76 -50 76 -5 0 -10 14 -10 30 0 17 -4 30
-10 30 -5 0 -10 -13 -10 -30z m0 -106 c0 -40 -3 -55 -12 -52 -21 7 -31 50 -19
81 17 44 31 31 31 -29z m44 40 c11 -29 6 -81 -9 -94 -13 -11 -15 -5 -15 49 0
58 11 79 24 45z"/>
<path d="M5326 7418 c-23 -37 -29 -68 -14 -68 8 0 18 15 23 33 14 46 28 40 48
-23 30 -94 66 -105 93 -27 11 31 11 37 -1 37 -7 0 -16 -13 -20 -30 -10 -44
-32 -37 -45 13 -17 68 -28 87 -50 87 -11 0 -26 -10 -34 -22z"/>
<path d="M5110 6793 c0 -4 12 -41 26 -81 31 -85 46 -89 81 -23 25 49 31 111
10 111 -8 0 -13 -13 -13 -33 0 -35 -21 -97 -33 -97 -4 0 -16 28 -27 62 -11 34
-25 63 -32 66 -7 2 -12 0 -12 -5z"/>
<path d="M5347 6774 c7 -3 9 -12 6 -20 -3 -8 1 -14 11 -14 9 0 16 4 16 8 0 12
-22 32 -34 31 -6 0 -6 -3 1 -5z"/>
<path d="M5286 6739 c-28 -33 -32 -50 -16 -80 11 -19 54 -27 64 -11 3 5 -5 8
-17 8 -35 -1 -36 64 -1 98 8 9 11 16 6 16 -6 0 -22 -14 -36 -31z"/>
<path d="M5110 6063 c0 -4 12 -41 26 -81 31 -85 46 -89 81 -23 25 49 31 111
10 111 -8 0 -13 -13 -13 -33 0 -35 -21 -97 -33 -97 -4 0 -16 28 -27 62 -11 34
-25 63 -32 66 -7 2 -12 0 -12 -5z"/>
<path d="M5275 6008 c0 -18 -4 -48 -9 -65 -5 -21 -4 -33 2 -33 12 0 32 51 38
98 3 26 1 32 -13 32 -14 0 -18 -8 -18 -32z"/>
<path d="M5324 6018 l-19 -23 23 19 c12 11 24 17 27 15 2 -3 -2 -29 -10 -59
-8 -30 -12 -56 -10 -58 9 -9 23 9 28 37 6 29 51 90 60 81 3 -3 0 -29 -5 -58
-12 -58 -9 -66 16 -56 13 5 14 9 5 14 -9 6 -9 15 0 40 22 66 2 92 -41 53 -17
-15 -18 -15 -18 0 0 24 -34 21 -56 -5z"/>
<path d="M5132 5308 l1 -43 4 38 c4 39 5 39 43 35 21 -2 36 0 34 4 -3 5 -23 8
-45 8 l-39 0 2 -42z"/>
<path d="M5396 5293 c3 -10 -2 -39 -10 -65 -11 -37 -11 -48 -2 -48 7 0 18 17
24 38 7 21 24 49 38 63 l27 24 -7 -40 c-3 -22 -9 -50 -12 -62 -4 -13 -2 -23 4
-23 12 0 32 52 38 98 5 39 -17 44 -54 10 l-24 -23 6 23 c6 18 3 22 -12 22 -14
0 -19 -5 -16 -17z"/>
<path d="M5514 5288 c-19 -23 -19 -23 2 -5 11 9 23 17 26 17 4 0 0 -25 -7 -55
-14 -60 -5 -80 23 -50 11 11 12 15 3 10 -11 -6 -13 -2 -9 16 3 13 9 39 13 57
7 28 5 32 -12 32 -11 0 -28 -10 -39 -22z"/>
<path d="M5233 5273 c9 -2 23 -2 30 0 6 3 -1 5 -18 5 -16 0 -22 -2 -12 -5z"/>
<path d="M5253 5235 c-3 -9 -3 -18 -1 -21 3 -3 8 4 11 16 6 23 -1 27 -10 5z"/>
<path d="M5180 4740 c0 -18 -5 -30 -13 -30 -46 0 -65 -102 -27 -140 11 -11 25
-20 30 -20 6 0 10 -13 10 -30 0 -16 5 -30 10 -30 6 0 10 12 10 26 0 16 12 37
30 54 23 21 30 37 30 64 0 35 -27 76 -50 76 -5 0 -10 14 -10 30 0 17 -4 30
-10 30 -5 0 -10 -13 -10 -30z m0 -106 c0 -40 -3 -55 -12 -52 -21 7 -31 50 -19
81 17 44 31 31 31 -29z m44 40 c11 -29 6 -81 -9 -94 -13 -11 -15 -5 -15 49 0
58 11 79 24 45z"/>
<path d="M5296 4663 c3 -10 -2 -39 -10 -65 -11 -37 -11 -48 -2 -48 7 0 18 17
24 38 7 21 24 49 38 63 l27 24 -7 -40 c-3 -22 -9 -50 -12 -62 -4 -13 -2 -23 4
-23 12 0 32 52 38 98 5 39 -17 44 -54 10 l-24 -23 6 23 c6 18 3 22 -12 22 -14
0 -19 -5 -16 -17z"/>
<path d="M5414 4658 c-19 -23 -19 -23 2 -5 11 9 23 17 26 17 4 0 0 -25 -7 -55
-14 -60 -5 -80 23 -50 11 11 12 15 3 10 -11 -6 -13 -2 -9 16 3 13 9 39 13 57
7 28 5 32 -12 32 -11 0 -28 -10 -39 -22z"/>
<path d="M5130 4173 c0 -4 10 -17 22 -30 l21 -23 -23 -25 c-31 -32 -17 -46 15
-15 l25 23 25 -23 c14 -13 28 -20 32 -17 3 4 -4 18 -17 32 l-23 25 23 25 c13
14 20 28 17 32 -4 3 -18 -4 -32 -17 l-25 -23 -23 21 c-24 22 -37 28 -37 15z"/>
<path d="M5188 3664 c-5 -4 -8 -20 -8 -36 0 -24 -4 -28 -30 -28 -16 0 -30 -4
-30 -10 0 -5 14 -10 30 -10 27 0 30 -3 30 -30 0 -16 5 -30 10 -30 6 0 10 14
10 30 0 27 3 30 30 30 17 0 30 5 30 10 0 6 -13 10 -29 10 -27 0 -30 4 -33 36
-2 20 -6 32 -10 28z"/>
<path d="M7290 6940 c0 -49 -4 -80 -11 -80 -5 0 -28 10 -49 23 -48 27 -69 18
-88 -39 -18 -50 -10 -176 13 -210 20 -31 41 -30 88 1 45 31 46 29 49 -80 l3
-80 298 -3 297 -2 0 275 0 275 -300 0 -300 0 0 -80z m580 -195 l0 -255 -274 0
-274 0 -4 80 c-2 59 -8 84 -21 97 -15 16 -20 16 -40 4 -50 -32 -72 -40 -81
-31 -26 26 -25 205 1 231 7 7 26 3 59 -15 64 -34 77 -22 82 74 l4 70 274 0
274 0 0 -255z"/>
<path d="M7549 6821 c-21 -16 -24 -28 -24 -81 0 -53 3 -65 24 -81 31 -25 65
-24 91 3 28 31 29 129 0 158 -25 25 -61 26 -91 1z m79 -31 c14 -28 10 -93 -8
-115 -32 -38 -70 -2 -70 65 0 76 48 107 78 50z"/>
<path d="M8510 6940 c0 -49 -4 -80 -10 -80 -6 0 -28 9 -50 20 -22 11 -46 20
-55 20 -26 0 -45 -62 -45 -145 0 -84 19 -145 46 -145 10 0 36 11 59 25 23 13
45 21 49 18 3 -3 6 -46 6 -95 l0 -88 545 0 545 0 0 275 0 275 -545 0 -545 0 0
-80z m1070 -195 l0 -255 -525 0 -525 0 0 84 c0 110 -11 122 -82 82 -35 -20
-53 -25 -61 -17 -28 28 -16 241 14 241 6 0 30 -12 55 -26 62 -36 74 -24 74 72
l0 74 525 0 525 0 0 -255z"/>
<path d="M8758 6818 c-26 -26 -7 -39 21 -14 24 22 48 20 61 -4 10 -18 3 -28
-45 -79 -30 -32 -55 -63 -55 -69 0 -8 24 -12 70 -12 40 0 70 4 70 10 0 6 -26
10 -57 10 l-57 0 52 53 c30 30 52 62 52 74 0 52 -72 71 -112 31z"/>
<path d="M8931 6821 c-44 -44 -31 -157 21 -175 64 -23 111 48 88 134 -16 59
-70 80 -109 41z m73 -17 c33 -33 10 -144 -29 -144 -27 0 -48 47 -42 96 6 61
38 82 71 48z"/>
<path d="M9091 6814 c-47 -60 -15 -174 49 -174 42 0 70 40 70 100 0 60 -28
100 -70 100 -19 0 -36 -9 -49 -26z m78 -8 c19 -22 10 -126 -11 -140 -33 -20
-53 4 -56 68 -3 61 8 86 38 86 10 0 23 -6 29 -14z"/>
<path d="M9261 6821 c-44 -44 -31 -157 21 -175 64 -23 111 48 88 134 -16 59
-70 80 -109 41z m73 -17 c33 -33 10 -144 -29 -144 -27 0 -48 47 -42 96 6 61
38 82 71 48z"/>
<path d="M10360 6953 c0 -93 -8 -103 -58 -75 -51 28 -68 28 -88 -3 -13 -19
-17 -49 -17 -120 0 -71 4 -101 17 -120 21 -31 38 -31 92 0 l42 25 6 -23 c3
-12 6 -55 6 -94 l0 -73 420 0 420 0 0 275 0 275 -420 0 -420 0 0 -67z m820
-208 l0 -255 -400 0 -400 0 0 68 c0 121 -16 138 -88 96 -43 -26 -46 -26 -59
-8 -18 25 -18 193 1 219 14 19 15 19 63 -7 66 -37 77 -28 81 66 l4 76 399 0
399 0 0 -255z"/>
<path d="M10514 6910 c-44 -17 -54 -48 -54 -157 0 -184 -2 -183 313 -183 255
0 289 5 312 51 19 35 20 206 3 244 -23 51 -46 55 -310 54 -134 0 -253 -4 -264
-9z m537 -29 c21 -17 24 -29 28 -105 7 -191 13 -188 -315 -184 -301 4 -284 -6
-284 155 0 97 2 106 25 128 l24 25 249 0 c231 0 252 -1 273 -19z"/>
<path d="M10605 6825 c-5 -11 -13 -23 -19 -27 -8 -6 -7 -10 1 -16 7 -4 13 -36
15 -72 3 -59 5 -65 26 -68 25 -4 30 13 7 22 -11 4 -15 21 -15 61 0 42 3 55 15
55 8 0 15 5 15 10 0 6 -6 10 -14 10 -8 0 -16 10 -19 23 -3 21 -4 21 -12 2z"/>
<path d="M10678 6720 c4 -89 22 -111 22 -26 0 53 12 78 42 89 7 2 9 8 5 13 -4
4 -17 3 -27 -4 -12 -7 -20 -8 -20 -2 0 5 -6 10 -12 10 -10 0 -12 -21 -10 -80z"/>
<path d="M11880 6946 c0 -42 -5 -78 -11 -81 -6 -4 -30 3 -53 16 -75 39 -96 11
-96 -129 0 -136 25 -164 104 -118 54 31 56 28 56 -85 l0 -79 295 0 295 0 0
275 0 275 -295 0 -295 0 0 -74z m570 -201 l0 -255 -275 0 -275 0 0 78 c0 52
-5 85 -14 98 -15 19 -16 18 -66 -10 -70 -38 -75 -31 -75 99 0 131 6 139 76
100 50 -27 53 -27 66 -10 8 12 13 46 13 87 l0 68 275 0 275 0 0 -255z"/>
<path d="M12140 6820 c-14 -10 -21 -22 -17 -26 4 -4 13 -2 19 4 23 23 28 11
28 -63 0 -73 -1 -75 -25 -75 -14 0 -25 -4 -25 -10 0 -6 27 -10 60 -10 33 0 60
4 60 10 0 6 -11 10 -25 10 -25 0 -25 1 -25 90 0 98 -5 105 -50 70z"/>
<path d="M13150 6940 c0 -89 -4 -93 -59 -59 -69 42 -99 5 -100 -121 -1 -137
31 -175 107 -126 22 14 43 22 46 19 3 -4 6 -46 6 -95 l0 -88 300 0 300 0 0
275 0 275 -300 0 -300 0 0 -80z m578 -192 l-3 -253 -275 0 -275 0 -3 82 c-4
106 -14 116 -83 78 -60 -32 -65 -29 -75 53 -8 66 1 142 20 160 12 12 21 10 60
-13 64 -37 76 -26 76 71 l0 74 280 0 280 0 -2 -252z"/>
<path d="M13401 6814 c-47 -60 -15 -174 49 -174 42 0 70 40 70 100 0 60 -28
100 -70 100 -19 0 -36 -9 -49 -26z m78 -8 c19 -22 10 -126 -11 -140 -33 -20
-53 4 -56 68 -3 61 8 86 38 86 10 0 23 -6 29 -14z"/>
<path d="M6890 6736 l0 -136 30 0 c17 0 30 5 30 10 0 6 -7 10 -15 10 -12 0
-15 23 -17 122 -2 86 -7 123 -15 126 -10 3 -13 -28 -13 -132z"/>
<path d="M8110 6861 c0 -5 9 -11 20 -14 19 -5 20 -14 20 -126 0 -74 4 -121 10
-121 6 0 10 52 10 135 l0 135 -30 0 c-16 0 -30 -4 -30 -9z"/>
<path d="M6430 6745 l0 -105 105 0 105 0 0 105 0 105 -105 0 -105 0 0 -105z
m188 3 l-3 -83 -82 -3 -83 -3 0 86 0 85 85 0 86 0 -3 -82z"/>
<path d="M6562 6793 c2 -10 10 -18 18 -18 22 0 18 29 -3 33 -14 3 -18 -1 -15
-15z"/>
<path d="M6472 6703 c4 -21 33 -25 33 -3 0 8 -8 16 -18 18 -14 3 -18 -1 -15
-15z"/>
<path d="M6279 6794 c-17 -18 -19 -23 -6 -18 14 5 17 0 17 -28 0 -43 -15 -58
-57 -58 -18 0 -33 -4 -33 -10 0 -5 20 -10 44 -10 53 0 76 24 76 78 0 28 3 33
17 28 13 -5 11 0 -6 18 -14 15 -25 26 -26 26 -1 0 -12 -11 -26 -26z"/>
<path d="M9919 6794 c-17 -18 -19 -23 -6 -18 14 5 17 0 17 -28 0 -43 -15 -58
-57 -58 -18 0 -33 -4 -33 -10 0 -5 20 -10 44 -10 53 0 76 24 76 78 0 28 3 33
17 28 13 -5 11 0 -6 18 -14 15 -25 26 -26 26 -1 0 -12 -11 -26 -26z"/>
<path d="M12748 6814 c-5 -4 -8 -20 -8 -36 0 -24 -4 -28 -30 -28 -16 0 -30 -4
-30 -10 0 -5 14 -10 30 -10 27 0 30 -3 30 -30 0 -16 5 -30 10 -30 6 0 10 14
10 30 0 27 3 30 30 30 17 0 30 5 30 10 0 6 -13 10 -29 10 -27 0 -30 4 -33 36
-2 20 -6 32 -10 28z"/>
<path d="M11420 6793 c0 -4 10 -17 22 -30 l21 -23 -23 -25 c-31 -32 -17 -46
15 -15 l25 23 25 -23 c32 -31 46 -17 15 15 l-23 25 23 25 c31 32 17 46 -15 15
l-25 -23 -23 21 c-24 22 -37 28 -37 15z"/>
<path d="M7290 6210 c0 -45 -4 -80 -10 -80 -5 0 -30 10 -56 22 l-46 23 -18
-23 c-36 -43 -38 -197 -4 -249 18 -28 40 -29 79 -3 51 34 55 29 55 -70 l0 -90
300 0 300 0 0 275 0 275 -300 0 -300 0 0 -80z m580 -195 l0 -255 -274 0 -274
0 -4 80 c-2 57 -8 84 -20 96 -15 16 -20 15 -63 -11 -33 -19 -50 -24 -58 -16
-26 26 -27 205 -1 231 6 6 28 0 58 -16 44 -24 50 -24 64 -10 11 11 18 40 20
86 l4 70 274 0 274 0 0 -255z"/>
<path d="M7549 6091 c-21 -16 -24 -28 -24 -81 0 -53 3 -65 24 -81 31 -25 65
-24 91 3 28 31 29 129 0 158 -25 25 -61 26 -91 1z m79 -31 c14 -28 10 -93 -8
-115 -32 -38 -70 -2 -70 65 0 76 48 107 78 50z"/>
<path d="M8510 6210 c0 -49 -4 -80 -10 -80 -6 0 -28 9 -50 20 -54 28 -69 25
-86 -15 -31 -75 -10 -255 31 -255 9 0 33 9 55 20 22 11 44 20 50 20 6 0 10
-34 10 -90 l0 -90 465 0 465 0 0 275 0 275 -465 0 -465 0 0 -80z m908 -197 l2
-253 -445 0 -445 0 0 84 c0 108 -9 117 -80 81 -35 -18 -56 -23 -62 -17 -13 13
-23 139 -14 184 11 60 18 63 75 33 71 -35 81 -26 81 71 l0 74 443 -2 442 -3 3
-252z"/>
<path d="M8762 6094 c-26 -18 -28 -37 -5 -59 16 -16 16 -18 0 -27 -10 -5 -17
-21 -17 -38 0 -54 79 -81 120 -40 24 24 25 47 3 72 -13 14 -14 21 -5 30 7 7
12 22 12 35 0 40 -65 57 -108 27z m76 -28 c5 -26 -12 -40 -42 -32 -25 6 -35
33 -19 50 14 14 58 1 61 -18z m6 -78 c16 -26 -4 -53 -40 -53 -23 0 -30 5 -32
23 -2 13 -1 30 2 38 8 20 56 14 70 -8z"/>
<path d="M8931 6091 c-44 -44 -31 -157 21 -175 64 -23 111 48 88 134 -16 59
-70 80 -109 41z m73 -17 c33 -33 10 -144 -29 -144 -27 0 -48 47 -42 96 6 61
38 82 71 48z"/>
<path d="M9091 6084 c-47 -60 -15 -174 49 -174 42 0 70 40 70 100 0 60 -28
100 -70 100 -19 0 -36 -9 -49 -26z m78 -8 c19 -22 10 -126 -11 -140 -33 -20
-53 4 -56 68 -3 61 8 86 38 86 10 0 23 -6 29 -14z"/>
<path d="M10190 6210 c0 -49 -4 -80 -10 -80 -6 0 -28 9 -50 20 -54 28 -69 25
-86 -15 -31 -75 -10 -255 31 -255 9 0 33 9 55 20 22 11 44 20 50 20 6 0 10
-34 10 -90 l0 -90 425 0 425 0 0 275 0 275 -425 0 -425 0 0 -80z m820 -195 l0
-255 -400 0 -400 0 0 84 c0 108 -9 117 -80 81 -32 -16 -56 -23 -62 -17 -12 12
-22 141 -14 183 11 61 17 64 75 34 71 -35 81 -26 81 71 l0 74 400 0 400 0 0
-255z"/>
<path d="M10355 6181 c-11 -5 -29 -19 -40 -31 -18 -19 -20 -36 -20 -137 l0
-115 33 -29 33 -30 261 3 260 3 24 28 c22 26 24 36 24 142 0 106 -2 116 -24
142 l-24 28 -254 2 c-139 1 -262 -2 -273 -6z m529 -32 c25 -20 26 -23 26 -134
0 -163 15 -155 -291 -155 -157 0 -247 4 -263 11 -33 15 -46 56 -46 144 0 85
13 129 43 143 14 7 115 11 263 11 230 1 243 0 268 -20z"/>
<path d="M10435 6095 c-5 -11 -13 -24 -19 -28 -8 -6 -7 -10 2 -14 8 -3 12 -27
12 -69 0 -68 11 -84 48 -69 15 6 14 8 -5 16 -20 7 -23 16 -23 64 0 42 3 55 15
55 8 0 15 5 15 10 0 6 -6 10 -14 10 -8 0 -16 10 -19 23 -3 21 -4 21 -12 2z"/>
<path d="M10510 5988 c0 -63 3 -78 15 -78 12 0 15 13 15 60 0 49 4 62 20 72
29 18 25 24 -15 24 l-35 0 0 -78z"/>
<path d="M11710 6210 c0 -45 -4 -80 -10 -80 -5 0 -30 10 -55 22 l-45 22 -21
-21 c-27 -27 -38 -158 -17 -217 19 -57 40 -66 88 -38 21 12 44 22 49 22 7 0
11 -34 11 -90 l0 -90 300 0 300 0 0 275 0 275 -300 0 -300 0 0 -80z m580 -195
l0 -255 -274 0 -273 0 -6 81 c-7 110 -18 121 -86 83 -43 -24 -53 -27 -61 -14
-25 41 -23 207 4 229 9 7 26 3 60 -15 63 -33 75 -23 83 74 l6 72 273 0 274 0
0 -255z"/>
<path d="M11982 6094 c-28 -19 -30 -39 -2 -24 19 10 20 8 20 -65 0 -73 -1 -75
-25 -75 -14 0 -25 -4 -25 -10 0 -6 28 -10 65 -10 37 0 65 4 65 10 0 6 -11 10
-25 10 -25 0 -25 1 -25 90 0 96 -5 104 -48 74z"/>
<path d="M12990 6223 c0 -94 -7 -101 -62 -74 -56 27 -64 26 -84 -4 -13 -19
-17 -49 -17 -120 0 -71 4 -101 17 -120 20 -31 37 -31 88 -3 51 29 58 19 58
-84 l0 -78 295 0 295 0 0 275 0 275 -295 0 -295 0 0 -67z m570 -208 l0 -255
-275 0 -275 0 0 68 c0 121 -12 134 -86 95 -45 -24 -48 -25 -61 -7 -18 24 -18
194 0 218 13 18 16 17 61 -7 72 -38 86 -25 86 86 l0 57 275 0 275 0 0 -255z"/>
<path d="M13241 6091 c-44 -44 -31 -157 21 -175 64 -23 111 48 88 134 -16 59
-70 80 -109 41z m73 -17 c33 -33 10 -144 -29 -144 -27 0 -48 47 -42 96 6 61
38 82 71 48z"/>
<path d="M6890 6006 l0 -136 30 0 c17 0 30 5 30 10 0 6 -7 10 -15 10 -12 0
-15 23 -17 122 -2 86 -7 123 -15 126 -10 3 -13 -28 -13 -132z"/>
<path d="M8110 6131 c0 -5 9 -11 20 -14 19 -5 20 -14 20 -126 0 -74 4 -121 10
-121 6 0 10 52 10 135 l0 135 -30 0 c-16 0 -30 -4 -30 -9z"/>
<path d="M6430 6015 l0 -105 105 0 105 0 0 105 0 105 -105 0 -105 0 0 -105z
m188 3 l-3 -83 -82 -3 -83 -3 0 86 0 85 85 0 86 0 -3 -82z"/>
<path d="M6562 6063 c2 -10 10 -18 18 -18 22 0 18 29 -3 33 -14 3 -18 -1 -15
-15z"/>
<path d="M6472 5973 c4 -21 33 -25 33 -3 0 8 -8 16 -18 18 -14 3 -18 -1 -15
-15z"/>
<path d="M6279 6064 c-17 -18 -19 -23 -6 -18 14 5 17 0 17 -28 0 -43 -15 -58
-57 -58 -18 0 -33 -4 -33 -10 0 -5 20 -10 44 -10 53 0 76 24 76 78 0 28 3 33
17 28 13 -5 11 0 -6 18 -14 15 -25 26 -26 26 -1 0 -12 -11 -26 -26z"/>
<path d="M9749 6064 l-24 -26 23 6 c20 7 22 4 22 -26 0 -44 -15 -58 -62 -58
-21 0 -38 -4 -38 -10 0 -5 20 -10 43 -10 54 0 77 22 77 74 0 34 2 37 23 30
l22 -6 -24 26 c-14 14 -27 26 -31 26 -4 0 -17 -12 -31 -26z"/>
<path d="M12580 6056 c0 -34 -2 -36 -35 -36 -19 0 -35 -4 -35 -10 0 -5 16 -10
35 -10 32 0 35 -2 35 -30 0 -16 5 -30 10 -30 6 0 10 14 10 30 0 27 3 30 30 30
17 0 30 5 30 10 0 6 -13 10 -30 10 -27 0 -30 3 -30 29 0 17 -4 33 -10 36 -6 4
-10 -8 -10 -29z"/>
<path d="M11250 6062 c0 -5 11 -19 25 -32 l25 -24 -27 -28 c-19 -20 -22 -28
-11 -28 8 0 23 9 33 20 l18 20 22 -20 c33 -31 54 -25 22 7 l-27 27 27 28 c32
33 23 51 -10 20 -29 -27 -39 -27 -62 -2 -19 21 -35 26 -35 12z"/>
<path d="M7507 5479 c-3 -44 -7 -82 -9 -85 -3 -2 -28 9 -57 24 l-52 27 -19
-23 c-35 -43 -38 -197 -4 -249 18 -29 35 -29 84 -1 21 13 42 19 46 15 4 -4 10
-45 12 -92 l5 -85 293 0 294 0 0 275 0 275 -294 0 -293 0 -6 -81z m573 -194
l0 -255 -275 0 -275 0 0 74 c0 57 -4 79 -18 96 l-19 23 -47 -28 c-36 -21 -50
-25 -59 -16 -25 25 -25 207 0 232 7 7 25 2 61 -18 65 -36 75 -27 80 72 l4 75
274 0 274 0 0 -255z"/>
<path d="M7759 5361 c-21 -16 -24 -28 -24 -81 0 -53 3 -65 24 -81 31 -25 65
-24 91 3 28 31 29 129 0 158 -25 25 -61 26 -91 1z m79 -31 c14 -28 10 -93 -8
-115 -32 -38 -70 -2 -70 65 0 76 48 107 78 50z"/>
<path d="M8857 5553 c-4 -3 -7 -42 -7 -85 0 -44 -3 -78 -7 -76 -5 2 -29 14
-55 27 -39 20 -49 22 -62 12 -51 -42 -45 -243 7 -275 14 -9 26 -6 57 12 21 12
44 22 49 22 7 0 11 -34 11 -90 l0 -90 415 0 415 0 0 275 0 275 -408 0 c-225 0
-412 -3 -415 -7z m803 -268 l0 -255 -389 0 -389 0 -4 80 c-2 56 -8 84 -19 96
-16 15 -20 14 -64 -11 -67 -40 -78 -27 -78 100 -1 124 8 136 75 100 26 -14 53
-22 61 -19 17 6 27 48 27 115 l0 49 390 0 390 0 0 -255z"/>
<path d="M9008 5444 c-42 -22 -48 -43 -48 -164 0 -110 0 -112 30 -141 l29 -30
255 3 c316 4 299 -5 304 154 4 125 -6 160 -54 180 -49 21 -478 19 -516 -2z
m533 -33 c16 -19 19 -40 19 -128 0 -97 -2 -106 -25 -128 l-24 -25 -239 0
c-307 0 -292 -8 -292 154 0 117 5 132 50 149 8 3 122 5 253 4 238 -2 239 -2
258 -26z"/>
<path d="M9104 5319 c-11 -13 -19 -35 -19 -59 0 -47 27 -80 65 -80 31 0 88 39
58 40 -9 0 -20 -4 -23 -10 -11 -17 -54 -11 -65 9 -18 35 -12 41 45 41 48 0 55
2 55 20 0 52 -79 79 -116 39z m84 -21 c3 -15 -4 -18 -37 -18 -43 0 -50 7 -29
28 18 18 62 11 66 -10z"/>
<path d="M10480 5474 c0 -47 -3 -84 -7 -82 -5 2 -29 14 -55 27 -39 20 -49 22
-62 12 -51 -42 -45 -243 7 -275 14 -9 26 -6 57 12 21 12 44 22 49 22 7 0 11
-34 11 -90 l0 -90 415 0 415 0 0 275 0 275 -415 0 -415 0 0 -86z m810 -189 l0
-255 -389 0 -389 0 -4 80 c-2 56 -8 84 -19 96 -16 15 -20 14 -64 -11 -67 -40
-78 -26 -79 99 -1 124 9 137 76 101 26 -14 53 -22 61 -19 17 6 27 48 27 115
l0 49 390 0 390 0 0 -255z"/>
<path d="M10644 5450 c-45 -18 -54 -47 -54 -168 0 -113 0 -114 30 -143 l29
-30 255 3 c316 4 299 -5 304 154 3 70 0 116 -9 136 -22 52 -52 58 -306 57
-125 0 -238 -4 -249 -9z m527 -39 c16 -19 19 -40 19 -128 0 -97 -2 -106 -25
-128 l-24 -25 -239 0 c-307 0 -292 -8 -292 154 0 117 5 132 50 149 8 3 122 5
253 4 238 -2 239 -2 258 -26z"/>
<path d="M10820 5360 c0 -37 -1 -39 -20 -28 -30 19 -72 0 -84 -40 -20 -71 33
-136 84 -104 12 7 20 8 20 2 0 -5 7 -10 15 -10 12 0 15 19 15 110 0 91 -3 110
-15 110 -11 0 -15 -11 -15 -40z m-6 -72 c19 -55 -22 -109 -59 -78 -18 15 -20
81 -3 98 20 20 52 10 62 -20z"/>
<path d="M12067 5479 c-3 -44 -7 -82 -9 -85 -3 -2 -28 9 -57 24 l-52 27 -19
-23 c-35 -43 -38 -197 -4 -249 18 -29 35 -29 84 -1 21 13 42 19 46 15 4 -4 10
-45 12 -92 l5 -85 418 0 419 0 0 275 0 275 -419 0 -418 0 -6 -81z m823 -194
l0 -255 -400 0 -400 0 0 74 c0 57 -4 79 -18 96 l-19 23 -48 -28 c-46 -27 -48
-28 -61 -10 -19 25 -19 194 -1 219 13 17 16 17 65 -10 66 -37 75 -28 80 71 l4
75 399 0 399 0 0 -255z"/>
<path d="M12218 5445 c-42 -23 -48 -44 -48 -165 0 -110 0 -112 29 -141 l29
-29 252 0 c286 0 301 3 321 68 6 22 10 79 8 130 -4 84 -6 94 -32 119 l-27 28
-253 2 c-209 2 -257 0 -279 -12z m526 -16 c38 -18 48 -56 44 -164 -5 -142 10
-135 -298 -135 -314 0 -300 -7 -300 146 0 112 8 140 43 154 33 13 481 12 511
-1z"/>
<path d="M12298 5350 c-10 -11 -13 -22 -8 -25 6 -4 10 -32 10 -64 0 -31 5 -62
12 -69 15 -15 48 -16 48 -2 0 6 -7 10 -15 10 -12 0 -15 13 -15 60 0 47 3 60
15 60 8 0 15 5 15 10 0 6 -7 10 -15 10 -8 0 -15 7 -15 15 0 20 -11 18 -32 -5z"/>
<path d="M12380 5260 c0 -64 3 -80 15 -80 12 0 15 13 15 60 0 55 2 62 25 72
14 6 25 15 25 20 0 12 -24 10 -38 -4 -9 -9 -12 -9 -12 0 0 7 -7 12 -15 12 -12
0 -15 -16 -15 -80z"/>
<path d="M13590 5491 c0 -103 -2 -105 -61 -75 -27 15 -56 24 -64 20 -25 -9
-36 -54 -36 -141 0 -135 23 -165 97 -126 23 13 47 20 53 16 7 -3 11 -41 11
-91 l0 -84 295 0 295 0 0 275 0 275 -295 0 -295 0 0 -69z m570 -206 l0 -255
-274 0 -274 0 -3 85 c-2 46 -9 89 -16 96 -12 12 -34 4 -91 -32 -21 -13 -25
-12 -38 5 -19 27 -20 194 -1 221 13 17 16 17 66 -11 51 -28 52 -29 67 -10 9
13 14 44 14 88 l0 68 275 0 275 0 0 -255z"/>
<path d="M13850 5360 c-14 -10 -21 -22 -17 -26 4 -4 13 -2 19 4 23 23 28 11
28 -63 0 -73 -1 -75 -25 -75 -14 0 -25 -4 -25 -10 0 -6 27 -10 60 -10 33 0 60
4 60 10 0 6 -11 10 -25 10 -25 0 -25 1 -25 90 0 98 -5 105 -50 70z"/>
<path d="M14860 5482 c0 -43 -3 -82 -6 -85 -4 -3 -26 5 -49 18 -56 34 -73 32
-91 -10 -31 -75 -10 -255 31 -255 9 0 33 9 55 20 22 11 44 20 50 20 6 0 10
-34 10 -90 l0 -90 300 0 300 0 0 275 0 275 -300 0 -300 0 0 -78z m570 -197 l0
-255 -275 0 -275 0 0 84 c0 109 -10 119 -79 79 -36 -20 -53 -25 -61 -17 -14
14 -25 141 -16 185 11 61 17 64 75 34 71 -35 81 -26 81 71 l0 74 275 0 275 0
0 -255z"/>
<path d="M15110 5360 c-16 -16 -20 -33 -20 -80 0 -47 4 -64 20 -80 25 -25 61
-26 91 -1 20 16 24 28 24 79 0 45 -5 65 -19 81 -24 27 -70 27 -96 1z m80 -19
c5 -11 10 -40 10 -65 0 -72 -49 -101 -78 -46 -14 28 -10 93 8 115 17 21 47 19
60 -4z"/>
<path d="M9961 5353 c-67 -62 -29 -163 61 -163 96 0 132 132 47 175 -42 22
-75 18 -108 -12z m100 1 c17 -8 28 -18 25 -21 -3 -3 2 -12 10 -21 12 -11 12
-17 4 -22 -9 -6 -9 -9 0 -12 9 -3 8 -9 -4 -21 -10 -9 -14 -17 -9 -17 4 -1 -3
-10 -16 -20 -25 -22 -81 -27 -81 -8 0 6 -3 8 -7 5 -9 -9 -34 13 -27 24 3 5 1
9 -4 9 -6 0 -10 16 -10 35 0 19 4 35 10 35 5 0 7 4 3 10 -6 9 40 39 63 40 7 0
27 -7 43 -16z"/>
<path d="M9986 5295 c10 -8 26 -14 34 -14 11 0 10 3 -4 14 -11 8 -27 15 -35
15 -11 0 -10 -4 5 -15z"/>
<path d="M6279 5334 c-17 -18 -19 -23 -6 -18 14 5 17 0 17 -28 0 -43 -15 -58
-57 -58 -18 0 -33 -4 -33 -10 0 -5 20 -10 44 -10 53 0 76 24 76 78 0 28 3 33
17 28 13 -5 11 0 -6 18 -14 15 -25 26 -26 26 -1 0 -12 -11 -26 -26z"/>
<path d="M11619 5334 l-24 -26 23 6 c20 7 22 4 22 -26 0 -43 -15 -58 -57 -58
-18 0 -33 -4 -33 -10 0 -16 77 -12 94 6 9 9 16 32 16 56 0 36 2 40 21 35 21
-6 21 -5 -2 19 -28 30 -30 30 -60 -2z"/>
<path d="M14458 5354 c-5 -4 -8 -20 -8 -36 0 -24 -4 -28 -30 -28 -16 0 -30 -4
-30 -10 0 -5 14 -10 30 -10 27 0 30 -3 30 -30 0 -16 5 -30 10 -30 6 0 10 14
10 30 0 27 3 30 30 30 17 0 30 5 30 10 0 6 -13 10 -29 10 -27 0 -30 4 -33 36
-2 20 -6 32 -10 28z"/>
<path d="M13130 5333 c0 -4 10 -17 22 -30 l22 -23 -29 -30 c-33 -35 -14 -42
22 -8 l23 21 25 -23 c32 -31 46 -17 15 15 l-23 25 23 25 c31 32 17 46 -15 15
l-25 -23 -23 21 c-24 22 -37 28 -37 15z"/>
<path d="M6954 5300 c-28 -11 -36 -43 -17 -69 18 -27 59 -27 75 -1 11 17 25
20 88 22 l75 2 -70 3 c-49 3 -76 9 -90 22 -30 27 -38 29 -61 21z m47 -26 c9
-11 10 -20 2 -32 -13 -22 -43 -22 -56 -1 -24 38 25 68 54 33z"/>
<path d="M8450 5295 c-9 -11 -32 -15 -81 -15 -39 0 -69 -4 -69 -10 0 -6 32
-10 75 -10 41 0 75 -4 75 -9 0 -13 34 -23 53 -16 19 8 27 37 15 59 -11 20 -51
21 -68 1z m50 -18 c0 -8 -3 -17 -7 -20 -9 -9 -34 13 -27 24 8 14 34 11 34 -4z"/>
<path d="M6405 5260 c-4 -6 47 -10 144 -10 94 0 151 4 151 10 0 6 -55 10 -144
10 -86 0 -147 -4 -151 -10z"/>
<path d="M6190 4730 c-16 -16 -20 -33 -20 -80 0 -47 4 -64 20 -80 25 -25 61
-26 91 -1 20 16 24 28 24 79 0 45 -5 65 -19 81 -24 27 -70 27 -96 1z m80 -19
c5 -11 10 -40 10 -65 0 -72 -49 -101 -78 -46 -14 28 -10 93 8 115 17 21 47 19
60 -4z"/>
<path d="M6200 4200 c-14 -10 -21 -22 -17 -26 4 -4 13 -2 19 4 23 23 28 11 28
-63 0 -73 -1 -75 -25 -75 -14 0 -25 -4 -25 -10 0 -6 28 -10 65 -10 37 0 65 4
65 10 0 6 -11 10 -25 10 -25 0 -25 1 -25 90 0 79 -2 90 -17 90 -10 0 -29 -9
-43 -20z"/>
<path d="M6190 3670 c-16 -16 -20 -33 -20 -80 0 -47 4 -64 20 -80 25 -25 61
-26 91 -1 20 16 24 28 24 79 0 45 -5 65 -19 81 -24 27 -70 27 -96 1z m80 -19
c5 -11 10 -40 10 -65 0 -72 -49 -101 -78 -46 -14 28 -10 93 8 115 17 21 47 19
60 -4z"/>
<path d="M3556 3115 c-25 -23 -26 -27 -26 -145 0 -115 1 -122 25 -145 l24 -25
259 0 259 0 24 26 c21 23 24 36 27 125 3 64 -1 111 -8 130 -24 58 -31 59 -306
59 l-251 0 -27 -25z m545 -14 c22 -18 24 -28 27 -123 3 -93 2 -106 -18 -131
l-21 -27 -205 0 -204 0 0 30 c0 27 2 30 19 20 50 -26 91 5 91 70 0 65 -41 96
-91 70 -13 -7 -19 -7 -19 0 0 5 -4 10 -10 10 -6 0 -10 -40 -10 -100 l0 -100
-37 0 c-64 0 -73 17 -73 147 0 163 -19 153 284 153 225 0 246 -1 267 -19z
m-353 -113 c13 -13 16 -66 6 -92 -10 -27 -53 -20 -65 11 -22 59 21 119 59 81z"/>
<path d="M4270 2979 c0 -24 23 -21 28 4 2 10 -3 17 -12 17 -10 0 -16 -9 -16
-21z"/>
<path d="M4320 2980 c0 -6 37 -10 90 -10 53 0 90 4 90 10 0 6 -37 10 -90 10
-53 0 -90 -4 -90 -10z"/>
<path d="M4270 2919 c0 -24 23 -21 28 4 2 10 -3 17 -12 17 -10 0 -16 -9 -16
-21z"/>
<path d="M4320 2925 c0 -12 17 -15 90 -15 73 0 90 3 90 15 0 12 -17 15 -90 15
-73 0 -90 -3 -90 -15z"/>
<path d="M6240 3160 c0 -45 -4 -80 -10 -80 -5 0 -24 9 -42 20 -68 42 -94 22
-104 -78 -8 -75 2 -145 25 -173 l17 -22 50 24 c27 13 52 25 56 27 4 2 9 -39
10 -90 l3 -93 348 -3 347 -2 0 275 0 275 -350 0 -350 0 0 -80z m680 -190 l0
-250 -325 0 -325 0 0 53 c0 72 -17 127 -38 127 -9 0 -30 -9 -47 -20 -63 -42
-78 -22 -78 100 1 123 12 139 75 100 65 -39 88 -17 88 86 l0 54 325 0 325 0 0
-250z"/>
<path d="M6612 3044 c-28 -19 -30 -39 -2 -24 19 10 20 8 20 -65 0 -73 -1 -75
-25 -75 -14 0 -25 -4 -25 -10 0 -6 28 -10 65 -10 37 0 65 4 65 10 0 6 -11 10
-25 10 -25 0 -25 1 -25 90 0 96 -5 104 -48 74z"/>
<path d="M6470 2940 c0 -5 18 -10 40 -10 22 0 40 5 40 10 0 6 -18 10 -40 10
-22 0 -40 -4 -40 -10z"/>
<path d="M7560 3166 c0 -41 -5 -78 -10 -81 -6 -4 -26 3 -45 15 -73 45 -105 10
-105 -116 0 -88 13 -139 37 -148 9 -4 37 5 63 18 26 14 50 22 54 19 3 -4 6
-46 6 -95 l0 -88 298 2 297 3 3 273 2 272 -300 0 -300 0 0 -74z m570 -196 l0
-250 -275 0 -275 0 0 71 c0 106 -24 133 -80 89 -59 -46 -83 -10 -78 117 4 104
13 116 71 85 76 -40 87 -31 87 74 l0 64 275 0 275 0 0 -250z"/>
<path d="M7820 3040 c-14 -10 -21 -22 -17 -26 4 -4 13 -2 19 4 23 23 28 11 28
-63 0 -73 -1 -75 -25 -75 -14 0 -25 -4 -25 -10 0 -6 28 -10 65 -10 37 0 65 4
65 10 0 6 -11 10 -25 10 -25 0 -25 1 -25 90 0 79 -2 90 -17 90 -10 0 -29 -9
-43 -20z"/>
<path d="M8910 3166 c0 -41 -5 -78 -10 -81 -6 -3 -27 4 -49 15 -75 43 -101 11
-101 -122 0 -90 11 -133 38 -143 8 -3 36 6 62 19 26 14 50 22 54 19 3 -4 6
-46 6 -95 l0 -88 420 0 420 0 0 275 0 275 -420 0 -420 0 0 -74z m820 -196 l0
-250 -400 0 -400 0 0 71 c0 106 -24 133 -80 89 -60 -47 -83 -14 -78 111 4 111
13 122 71 91 76 -40 87 -31 87 74 l0 64 400 0 400 0 0 -250z"/>
<path d="M9043 3116 c-27 -24 -28 -28 -31 -138 -4 -112 -3 -115 23 -146 l27
-32 266 0 c194 1 271 4 283 13 31 24 39 56 39 162 0 104 -1 107 -29 136 l-29
29 -261 0 -260 0 -28 -24z m566 -22 c18 -23 21 -41 21 -130 0 -153 20 -144
-299 -144 l-260 0 -20 26 c-18 23 -21 41 -21 126 0 92 2 101 25 123 l24 25
255 0 255 0 20 -26z"/>
<path d="M9155 3045 c-5 -11 -13 -23 -19 -27 -8 -6 -7 -10 1 -16 7 -4 13 -36
15 -72 3 -59 5 -65 26 -68 25 -4 30 13 7 22 -11 4 -15 21 -15 61 0 42 3 55 15
55 8 0 15 5 15 10 0 6 -6 10 -14 10 -8 0 -16 10 -19 23 -3 21 -4 21 -12 2z"/>
<path d="M9230 2940 c0 -92 15 -108 22 -23 4 43 10 61 28 75 27 22 18 38 -10
20 -12 -7 -20 -8 -20 -2 0 5 -4 10 -10 10 -6 0 -10 -33 -10 -80z"/>
<path d="M10430 3160 c0 -88 -5 -93 -55 -60 -36 24 -68 26 -86 4 -18 -22 -25
-181 -10 -227 16 -47 36 -52 92 -23 26 13 50 22 53 18 3 -3 6 -45 6 -94 l0
-88 298 2 297 3 3 273 2 272 -300 0 -300 0 0 -80z m570 -190 l0 -250 -275 0
-275 0 0 79 c0 102 -12 115 -76 82 -24 -13 -50 -21 -58 -18 -19 8 -30 83 -23
159 7 80 17 88 70 60 76 -40 87 -31 87 74 l0 64 275 0 275 0 0 -250z"/>
<path d="M10690 3040 c-14 -10 -21 -22 -17 -26 4 -4 13 -2 19 4 23 23 28 11
28 -63 0 -73 -1 -75 -25 -75 -14 0 -25 -4 -25 -10 0 -6 28 -10 65 -10 37 0 65
4 65 10 0 6 -11 10 -25 10 -25 0 -25 1 -25 90 0 79 -2 90 -17 90 -10 0 -29 -9
-43 -20z"/>
<path d="M11700 3160 c0 -45 -4 -80 -10 -80 -5 0 -24 9 -42 20 -68 42 -94 22
-104 -78 -8 -75 2 -145 25 -173 l17 -22 50 24 c27 13 52 25 56 27 4 2 9 -39
10 -90 l3 -93 298 -3 297 -2 0 275 0 275 -300 0 -300 0 0 -80z m580 -190 l0
-250 -275 0 -275 0 0 53 c0 72 -17 127 -38 127 -9 0 -30 -9 -47 -20 -62 -41
-79 -20 -79 100 0 80 10 120 29 120 7 0 30 -9 49 -21 63 -37 83 -17 85 89 l1
52 275 0 275 0 0 -250z"/>
<path d="M11959 3041 c-21 -16 -24 -28 -24 -81 0 -53 3 -65 24 -81 31 -25 65
-24 91 3 28 31 29 129 0 158 -25 25 -61 26 -91 1z m79 -31 c14 -28 10 -93 -8
-115 -32 -38 -70 -2 -70 65 0 76 48 107 78 50z"/>
<path d="M5840 2956 l0 -136 30 0 c17 0 30 5 30 10 0 6 -7 10 -15 10 -12 0
-15 23 -17 122 -2 86 -7 123 -15 126 -10 3 -13 -28 -13 -132z"/>
<path d="M7160 3080 c0 -5 7 -10 15 -10 12 0 15 -23 17 -122 2 -86 7 -123 16
-126 9 -3 12 28 12 132 l0 136 -30 0 c-16 0 -30 -4 -30 -10z"/>
<path d="M5370 2965 l0 -105 110 0 110 0 0 105 0 105 -110 0 -110 0 0 -105z
m190 0 l0 -85 -80 0 -80 0 0 85 0 85 80 0 80 0 0 -85z"/>
<path d="M5510 3010 c0 -11 7 -20 15 -20 8 0 15 9 15 20 0 11 -7 20 -15 20 -8
0 -15 -9 -15 -20z"/>
<path d="M5420 2920 c0 -23 25 -27 33 -6 7 16 -1 26 -20 26 -7 0 -13 -9 -13
-20z"/>
<path d="M5229 3014 c-17 -18 -19 -23 -6 -18 14 5 17 0 17 -28 0 -43 -15 -58
-57 -58 -18 0 -33 -4 -33 -10 0 -5 20 -10 44 -10 53 0 76 24 76 78 0 28 3 33
17 28 13 -5 11 0 -6 18 -14 15 -25 26 -26 26 -1 0 -12 -11 -26 -26z"/>
<path d="M8469 3014 c-17 -18 -19 -23 -6 -18 14 5 17 0 17 -34 0 -43 -10 -52
-61 -52 -16 0 -29 -4 -29 -10 0 -5 20 -10 44 -10 53 0 76 24 76 78 0 28 3 33
17 28 13 -5 11 0 -6 18 -14 15 -25 26 -26 26 -1 0 -12 -11 -26 -26z"/>
<path d="M11296 3033 c-3 -3 -6 -19 -6 -35 0 -24 -4 -28 -30 -28 -16 0 -30 -4
-30 -10 0 -5 14 -10 30 -10 27 0 30 -3 30 -30 0 -20 5 -30 15 -30 10 0 15 10
15 30 0 27 3 30 30 30 17 0 30 5 30 10 0 6 -13 10 -30 10 -27 0 -30 3 -30 29
0 30 -12 46 -24 34z"/>
<path d="M9970 3013 c0 -4 10 -17 22 -30 l21 -23 -23 -25 c-31 -32 -17 -46 15
-15 l25 23 25 -23 c14 -13 28 -20 32 -17 3 4 -4 18 -17 32 l-23 25 23 25 c13
14 20 28 17 32 -4 3 -18 -4 -32 -17 l-25 -23 -23 21 c-24 22 -37 28 -37 15z"/>
<path d="M5300 2350 c0 -89 -4 -93 -58 -60 -48 30 -71 26 -88 -15 -16 -40 -19
-153 -4 -207 14 -50 39 -56 94 -24 24 14 46 22 50 19 3 -3 6 -46 6 -95 l0 -88
415 0 415 0 0 275 0 275 -415 0 -415 0 0 -80z m810 -195 l0 -255 -392 2 -393
3 -3 82 c-4 106 -14 116 -81 79 -27 -14 -51 -26 -54 -26 -11 0 -27 75 -27 125
0 59 17 125 31 125 6 0 30 -12 55 -26 62 -36 74 -24 74 72 l0 74 395 0 395 0
0 -255z"/>
<path d="M5441 2304 l-31 -26 0 -122 c0 -119 1 -123 26 -147 l26 -24 254 0
254 0 27 28 c26 25 28 35 32 119 2 51 -2 108 -8 130 -20 64 -36 68 -310 68
l-239 0 -31 -26z m540 -13 c22 -17 24 -29 27 -116 4 -108 -6 -146 -44 -164
-16 -7 -105 -11 -253 -11 -294 0 -281 -7 -281 153 0 62 4 117 8 123 20 30 52
33 283 34 218 0 239 -1 260 -19z"/>
<path d="M5550 2190 c-13 -13 -20 -33 -20 -60 0 -49 27 -80 70 -80 43 0 70 31
70 80 0 49 -27 80 -70 80 -17 0 -39 -9 -50 -20z m79 -14 c7 -8 11 -31 9 -52
-6 -72 -70 -72 -76 0 -4 41 11 66 38 66 10 0 23 -6 29 -14z"/>
<path d="M6800 2350 c0 -89 -4 -93 -58 -60 -48 30 -71 26 -88 -15 -16 -40 -19
-153 -4 -207 14 -50 39 -56 94 -24 24 14 46 22 50 19 3 -3 6 -46 6 -95 l0 -88
415 0 415 0 0 275 0 275 -415 0 -415 0 0 -80z m810 -195 l0 -255 -392 2 -393
3 -3 82 c-4 106 -15 118 -82 80 -26 -15 -50 -27 -54 -27 -10 0 -26 75 -26 125
0 59 17 125 31 125 6 0 30 -12 55 -26 62 -36 74 -24 74 72 l0 74 395 0 395 0
0 -255z"/>
<path d="M6941 2304 l-31 -26 0 -122 c0 -119 1 -123 26 -147 l26 -24 254 0
254 0 27 28 c26 25 28 35 32 119 2 51 -2 108 -8 130 -20 64 -36 68 -310 68
l-239 0 -31 -26z m524 0 c30 -12 45 -60 45 -148 0 -97 -11 -130 -49 -146 -17
-6 -94 -9 -211 -8 l-185 3 -3 33 c-3 31 -2 33 17 23 50 -27 91 4 91 69 0 65
-41 96 -91 70 -13 -7 -19 -7 -19 0 0 5 -4 10 -10 10 -5 0 -11 -45 -12 -102 -3
-102 -3 -103 -29 -106 -14 -2 -37 6 -52 18 -26 21 -27 24 -27 133 0 117 3 127
35 145 21 12 469 17 500 6z m-337 -126 c13 -13 16 -66 6 -92 -10 -27 -53 -20
-65 11 -22 59 21 119 59 81z"/>
<path d="M8310 2355 c0 -87 -9 -97 -61 -66 -74 45 -100 14 -100 -116 0 -146
22 -175 102 -130 57 32 59 29 59 -84 l0 -79 505 0 505 0 0 275 0 275 -505 0
-505 0 0 -75z m980 -200 l0 -255 -480 0 -480 0 0 68 c0 121 -15 137 -87 95
-44 -26 -46 -26 -59 -8 -19 26 -19 194 0 220 14 19 15 19 63 -7 66 -37 77 -28
81 66 l4 76 479 0 479 0 0 -255z"/>
<path d="M8561 2231 c-44 -44 -31 -157 21 -175 64 -23 111 48 88 134 -16 59
-70 80 -109 41z m73 -17 c33 -33 10 -144 -29 -144 -27 0 -48 47 -42 96 6 61
38 82 71 48z"/>
<path d="M8809 2231 c-21 -16 -24 -28 -24 -81 0 -53 3 -65 24 -81 31 -25 65
-24 91 3 28 31 29 129 0 158 -25 25 -61 26 -91 1z m79 -31 c14 -28 10 -93 -8
-115 -32 -38 -70 -2 -70 65 0 76 48 107 78 50z"/>
<path d="M8960 2223 c0 -16 -3 -39 -7 -52 -6 -22 -4 -23 36 -16 48 8 71 -5 71
-40 0 -12 -7 -28 -15 -35 -16 -13 -65 -6 -65 10 0 6 -7 10 -15 10 -20 0 -19
-13 3 -33 29 -26 77 -22 101 9 27 34 27 58 0 85 -15 15 -30 20 -55 17 -32 -4
-34 -2 -34 24 0 27 2 28 50 28 28 0 50 5 50 10 0 6 -27 10 -60 10 -59 0 -60
-1 -60 -27z"/>
<path d="M8710 2065 c0 -8 7 -15 15 -15 8 0 15 7 15 15 0 8 -7 15 -15 15 -8 0
-15 -7 -15 -15z"/>
<path d="M9990 2350 c0 -88 -3 -92 -57 -59 -21 13 -42 19 -57 15 -67 -17 -55
-286 12 -286 10 0 34 11 55 25 45 31 46 29 49 -80 l3 -80 298 -3 297 -2 0 275
0 275 -300 0 -300 0 0 -80z m580 -195 l0 -255 -274 0 -274 0 -4 80 c-2 59 -8
84 -21 97 -15 16 -20 16 -40 4 -50 -32 -72 -40 -81 -31 -26 26 -25 205 1 231
7 7 26 3 59 -15 64 -34 77 -22 82 74 l4 70 274 0 274 0 0 -255z"/>
<path d="M10249 2231 c-21 -16 -24 -28 -24 -81 0 -53 3 -65 24 -81 31 -25 65
-24 91 3 28 31 29 129 0 158 -25 25 -61 26 -91 1z m79 -31 c14 -28 10 -93 -8
-115 -32 -38 -70 -2 -70 65 0 76 48 107 78 50z"/>
<path d="M4501 2223 c-1 -7 -16 -27 -34 -46 l-34 -33 33 -24 c19 -14 34 -32
35 -40 0 -11 2 -12 6 -2 7 17 48 58 65 65 8 4 7 6 -4 6 -10 1 -18 8 -18 16 0
9 -7 18 -16 22 -9 3 -20 15 -24 27 -5 12 -9 16 -9 9z m-1 -58 c0 -8 -7 -15
-15 -15 -16 0 -20 12 -8 23 11 12 23 8 23 -8z m38 -3 c2 -7 -3 -12 -12 -12 -9
0 -16 7 -16 16 0 17 22 14 28 -4z m-38 -32 c0 -5 -4 -10 -9 -10 -6 0 -13 5
-16 10 -3 6 1 10 9 10 9 0 16 -4 16 -10z m35 0 c-3 -5 -10 -10 -16 -10 -5 0
-9 5 -9 10 0 6 7 10 16 10 8 0 12 -4 9 -10z"/>
<path d="M6401 2223 c-1 -7 -16 -27 -34 -46 l-34 -33 33 -24 c19 -14 34 -32
35 -40 0 -11 2 -12 6 -2 7 17 48 58 65 65 8 4 7 6 -4 6 -10 1 -18 8 -18 16 0
9 -7 18 -16 22 -9 3 -20 15 -24 27 -5 12 -9 16 -9 9z m-1 -58 c0 -8 -7 -15
-15 -15 -16 0 -20 12 -8 23 11 12 23 8 23 -8z m38 -3 c2 -7 -3 -12 -12 -12 -9
0 -16 7 -16 16 0 17 22 14 28 -4z m-38 -32 c0 -5 -4 -10 -9 -10 -6 0 -13 5
-16 10 -3 6 1 10 9 10 9 0 16 -4 16 -10z m35 0 c-3 -5 -10 -10 -16 -10 -5 0
-9 5 -9 10 0 6 7 10 16 10 8 0 12 -4 9 -10z"/>
<path d="M9586 2223 c-3 -3 -6 -19 -6 -35 0 -24 -4 -28 -30 -28 -16 0 -30 -4
-30 -10 0 -5 14 -10 30 -10 27 0 30 -3 30 -30 0 -20 5 -30 15 -30 10 0 15 10
15 30 0 27 3 30 30 30 17 0 30 5 30 10 0 6 -13 10 -30 10 -27 0 -30 3 -30 29
0 30 -12 46 -24 34z"/>
<path d="M7850 2203 c0 -4 10 -17 22 -30 l22 -23 -29 -30 c-33 -35 -14 -42 22
-8 l23 21 25 -23 c32 -31 46 -17 15 15 l-23 25 23 25 c31 32 17 46 -15 15
l-25 -23 -23 21 c-24 22 -37 28 -37 15z"/>
<path d="M4260 2190 c0 -6 32 -10 75 -10 43 0 75 4 75 10 0 6 -32 10 -75 10
-43 0 -75 -4 -75 -10z"/>
<path d="M4940 2136 c0 -9 7 -16 16 -16 17 0 14 22 -4 28 -7 2 -12 -3 -12 -12z"/>
<path d="M4617 2133 c-15 -14 -6 -22 13 -11 15 10 22 10 32 0 10 -10 5 -19
-25 -47 -20 -19 -37 -36 -37 -39 0 -4 21 -5 48 -4 46 1 46 1 7 5 l-39 4 39 33
c34 29 38 36 26 50 -14 16 -52 22 -64 9z"/>
<path d="M4260 2110 c0 -6 32 -10 75 -10 43 0 75 4 75 10 0 6 -32 10 -75 10
-43 0 -75 -4 -75 -10z"/>
<path d="M3232 1604 c-28 -19 -30 -39 -2 -24 19 10 20 8 20 -65 0 -73 -1 -75
-25 -75 -14 0 -25 -4 -25 -10 0 -6 28 -10 65 -10 37 0 65 4 65 10 0 6 -11 10
-25 10 -25 0 -25 1 -25 90 0 96 -5 104 -48 74z"/>
<path d="M3218 1079 c-18 -10 -25 -39 -9 -39 5 0 14 7 21 15 15 18 42 19 58 3
21 -21 14 -35 -43 -91 -30 -30 -55 -59 -55 -65 0 -8 24 -12 70 -12 40 0 70 4
70 10 0 6 -26 10 -57 10 l-58 0 53 49 c41 39 52 56 52 80 0 45 -56 67 -102 40z"/>
<path d="M3190 560 c0 -5 24 -10 54 -10 l55 0 -30 -57 c-37 -73 -48 -123 -27
-123 10 0 17 14 21 41 3 23 19 64 36 91 17 27 31 54 31 59 0 5 -31 9 -70 9
-40 0 -70 -4 -70 -10z"/>
</g>
</svg>
