<?xml version="1.0" standalone="no"?>
<!DOCTYPE svg PUBLIC "-//W3C//DTD SVG 20010904//EN"
 "http://www.w3.org/TR/2001/REC-SVG-20010904/DTD/svg10.dtd">
<svg version="1.0" xmlns="http://www.w3.org/2000/svg"
 width="1836.000000pt" height="1111.000000pt" viewBox="0 0 1836.000000 1111.000000"
 preserveAspectRatio="xMidYMid meet">
<metadata>
Created by potrace 1.16, written by Peter Selinger 2001-2019
</metadata>
<g transform="translate(0.000000,1111.000000) scale(0.100000,-0.100000)"
fill="#000000" stroke="none">
<path d="M195 10961 c-30 -13 -74 -61 -83 -90 -4 -14 -7 -2360 -7 -5213 l0
-5187 21 -28 c11 -15 36 -38 54 -50 l33 -23 2478 0 2479 0 0 395 0 395 -1455
0 -1455 0 0 215 0 215 -367 0 -368 0 37 25 37 25 7890 0 7891 0 0 560 0 560
-7885 0 -7885 0 0 210 0 210 -140 0 -140 0 2 208 3 207 933 3 932 2 0 215 0
215 760 0 760 0 0 435 0 435 70 0 70 0 0 215 0 215 4130 0 4130 0 0 395 0 395
-4098 2 -4097 3 -3 208 -2 207 3105 0 3105 0 0 310 0 310 -3440 0 -3440 0 0
215 0 215 -400 0 -400 0 0 220 0 220 -360 0 -360 0 0 205 0 205 303 2 302 3 3
218 2 217 7435 0 7435 0 0 395 0 395 -7380 0 -7380 0 0 215 0 215 -360 0 -360
0 0 210 0 210 480 0 480 0 0 225 0 225 -1540 0 -1541 0 -52 -35 c-28 -19 -59
-35 -67 -35 -8 0 -39 16 -67 35 -49 33 -57 35 -130 34 -43 0 -87 -4 -98 -8z
m220 -41 c26 -18 56 -30 75 -30 19 0 49 12 75 30 l44 30 1530 0 1531 0 0 -210
0 -209 -1525 6 -1524 6 -56 -36 c-30 -21 -64 -37 -75 -37 -12 0 -44 16 -73 35
l-52 35 -122 0 -123 0 0 139 c0 170 4 194 45 237 32 34 33 34 119 34 81 0 91
-2 131 -30z m-2 -435 c28 -19 63 -35 77 -35 14 0 49 16 77 35 l52 35 341 0
340 0 0 -53 c0 -30 -3 -56 -6 -60 -3 -3 -23 3 -42 14 -46 24 -59 24 -72 0 -16
-30 -13 -183 4 -207 13 -17 18 -18 48 -6 18 8 40 14 48 15 13 2 15 -103 18
-880 l2 -883 -347 0 -348 0 -45 -30 c-25 -16 -56 -30 -70 -30 -14 0 -45 14
-70 30 -44 29 -48 30 -172 30 l-128 0 0 1030 0 1030 120 0 121 0 52 -35z
m1697 -18 c0 -30 -3 -56 -6 -60 -3 -3 -23 3 -42 14 -48 25 -61 24 -72 -7 -15
-40 -12 -177 4 -200 13 -17 18 -18 48 -6 18 8 40 14 48 15 13 2 15 -103 18
-880 l2 -883 -395 0 -395 0 0 873 c0 479 -3 882 -6 895 -8 26 -22 28 -69 5
-50 -24 -60 -10 -60 87 0 99 8 109 66 80 41 -21 43 -21 56 -4 7 10 13 42 13
71 l0 53 395 0 395 0 0 -53z m608 -217 c-3 -149 -8 -274 -12 -277 -4 -4 -20 1
-35 10 -69 40 -97 0 -89 -125 7 -93 21 -107 76 -79 23 12 44 21 47 21 3 0 5
-234 5 -521 0 -286 -3 -519 -7 -517 -5 2 -25 12 -46 23 -35 18 -38 18 -55 2
-25 -26 -25 -188 0 -214 17 -16 20 -16 63 5 l45 22 0 -70 0 -70 -290 0 -290 0
0 873 c0 479 -3 882 -6 895 -8 26 -22 28 -69 5 -50 -24 -60 -10 -60 87 0 99 8
109 66 80 41 -21 43 -21 56 -4 7 10 13 42 13 71 l0 53 296 0 297 0 -5 -270z
m712 -432 c0 -145 -4 -269 -9 -276 -6 -10 -16 -9 -45 8 -20 12 -43 20 -50 17
-31 -12 -45 -119 -25 -190 13 -47 32 -55 74 -32 19 9 38 14 44 11 7 -5 11 -81
11 -232 l0 -224 -350 0 -350 0 0 448 c0 271 -4 453 -10 462 -8 13 -15 12 -52
-8 -40 -21 -43 -22 -55 -6 -13 18 -18 139 -7 168 8 20 33 20 58 1 26 -20 52
-19 60 1 3 9 6 38 6 65 l0 49 350 0 350 0 0 -262z m14770 -543 l0 -375 -7375
0 -7375 0 0 198 c0 283 -6 303 -75 266 -50 -26 -60 -12 -60 86 0 98 8 109 63
81 50 -26 61 -16 69 63 l6 56 7373 0 7374 0 0 -375z m-14880 -605 l0 -210
-292 2 -293 3 -3 68 c-3 80 -14 88 -73 61 -52 -23 -59 -14 -59 86 0 102 7 110
63 83 56 -27 67 -18 67 59 l0 58 295 0 295 0 0 -210z m-2913 -255 c32 -21 64
-35 83 -35 19 0 51 14 83 35 l52 35 337 0 338 0 0 -54 c0 -62 -10 -74 -42 -52
-27 19 -59 21 -76 4 -16 -16 -16 -190 0 -206 17 -17 49 -15 76 4 12 8 27 12
32 9 7 -4 10 -776 10 -2276 l0 -2269 -346 0 -345 1 -48 -30 c-60 -39 -84 -39
-141 -1 -44 29 -48 30 -172 30 l-128 0 0 2420 0 2420 118 0 117 0 52 -35z
m1703 -19 c0 -62 -10 -74 -42 -52 -31 22 -65 20 -78 -3 -13 -25 -13 -167 0
-192 13 -23 47 -25 78 -3 12 8 27 12 32 9 7 -4 10 -776 10 -2276 l0 -2269
-395 0 -395 0 0 2268 c0 2531 6 2327 -69 2285 -22 -13 -42 -23 -45 -23 -9 0
-26 65 -26 105 0 40 17 105 26 105 3 0 23 -10 45 -22 39 -23 40 -23 54 -4 9
12 15 42 15 73 l0 53 395 0 395 0 0 -54z m608 -222 c-3 -151 -8 -278 -11 -281
-3 -3 -20 5 -36 17 -60 42 -91 7 -91 -100 0 -106 31 -142 89 -101 16 12 32 21
35 21 3 0 6 -860 6 -1911 l0 -1910 -39 22 c-46 25 -67 21 -82 -18 -16 -43 -7
-169 14 -190 16 -16 19 -16 62 5 l45 22 0 -70 0 -70 -290 0 -290 0 0 2268 c0
2531 6 2327 -69 2285 -22 -13 -42 -23 -45 -23 -9 0 -26 65 -26 105 0 40 17
105 26 105 3 0 23 -10 45 -22 39 -23 40 -23 54 -4 9 12 15 42 15 73 l0 53 296
0 297 0 -5 -276z m712 -426 c0 -145 -4 -269 -9 -277 -8 -12 -13 -12 -35 2 -64
43 -91 13 -91 -99 0 -66 4 -87 18 -101 15 -15 21 -16 50 -4 17 7 39 13 47 14
13 2 15 -185 18 -1615 l2 -1618 -350 0 -350 0 0 1838 c0 1368 -3 1841 -11
1849 -9 9 -22 7 -52 -9 -39 -19 -41 -20 -54 -2 -17 23 -17 144 0 168 12 17 15
17 49 0 55 -26 68 -15 68 56 l0 60 350 0 350 0 0 -262z m800 -446 c0 -148 -3
-271 -6 -275 -3 -3 -20 3 -37 14 -67 40 -87 16 -87 -106 0 -57 4 -78 19 -96
l20 -24 39 22 c22 12 42 19 46 16 8 -8 8 -418 0 -426 -4 -3 -24 4 -46 16 l-39
22 -20 -24 c-15 -18 -19 -39 -19 -97 0 -113 21 -143 80 -109 48 28 50 24 50
-115 0 -138 -4 -147 -46 -115 -27 20 -61 18 -74 -4 -5 -11 -10 -55 -10 -99 0
-63 4 -85 19 -103 l18 -23 37 22 c20 12 41 22 47 22 5 0 9 -119 9 -300 0 -316
0 -318 -44 -285 -28 21 -63 19 -76 -4 -5 -11 -10 -54 -10 -96 0 -42 5 -85 10
-96 13 -23 48 -25 76 -4 41 31 44 22 44 -113 0 -71 -2 -131 -6 -134 -3 -3 -23
4 -45 16 l-40 21 -20 -24 c-28 -34 -28 -168 0 -202 l20 -24 40 21 c22 12 42
19 45 16 10 -10 6 -262 -3 -262 -6 0 -27 10 -47 22 l-37 22 -18 -23 c-15 -18
-19 -40 -19 -103 0 -44 5 -88 10 -99 13 -22 47 -24 74 -4 38 29 46 19 46 -50
l0 -65 -390 0 -390 0 -2 1620 c-2 1279 -6 1622 -15 1631 -10 10 -22 9 -58 -9
l-46 -22 -10 28 c-11 28 -7 150 5 171 5 8 19 5 48 -10 22 -11 46 -18 53 -15 8
3 17 29 21 65 l7 61 388 0 389 0 0 -268z m6890 -452 l0 -290 -3435 0 -3435 0
0 143 c0 105 -4 148 -14 162 -13 18 -14 18 -50 -4 -58 -36 -66 -26 -66 79 0
100 10 116 55 86 31 -20 61 -21 69 0 3 9 6 38 6 65 l0 49 3435 0 3435 0 0
-290z m-6212 -517 l-3 -208 -327 -3 -328 -2 0 62 c0 84 -9 97 -52 79 -70 -28
-73 -26 -76 69 -3 111 4 122 59 91 40 -23 43 -23 56 -6 7 11 13 43 13 72 l0
53 330 0 330 0 -2 -207z m8192 -608 l0 -375 -4425 0 -4425 0 0 228 c0 271 -2
277 -70 242 -55 -28 -60 -21 -60 88 0 95 9 106 65 76 48 -25 65 -9 65 62 l0
54 4425 0 4425 0 0 -375z m-8260 -600 l0 -205 -295 0 -295 0 0 58 c0 35 -6 66
-15 78 -14 19 -15 19 -53 -3 -53 -30 -62 -18 -62 82 0 100 9 112 60 82 52 -29
70 -14 70 59 l0 54 295 0 295 0 0 -205z m-140 -435 l0 -210 -225 0 -225 0 0
63 c0 37 -6 71 -14 82 -13 18 -14 18 -50 -4 -57 -35 -66 -25 -66 71 0 110 7
120 62 89 40 -23 42 -23 55 -5 7 10 13 42 13 71 l0 53 225 0 225 0 0 -210z m0
-435 l0 -205 -225 0 -225 0 0 59 c0 96 -15 110 -75 71 -44 -29 -55 -13 -55 84
0 106 6 115 58 85 54 -31 72 -17 72 57 l0 54 225 0 225 0 0 -205z m-1512 -432
l-3 -208 -227 -3 -228 -2 0 69 c0 87 -11 98 -68 68 -55 -27 -62 -18 -62 83 0
100 7 109 59 86 59 -27 71 -18 71 54 l0 60 230 0 230 0 -2 -207z m-2781 -258
c32 -21 64 -35 83 -35 19 0 51 14 83 35 39 26 62 35 94 35 l43 0 0 -54 c0 -30
-4 -57 -9 -61 -5 -3 -26 5 -47 17 l-37 22 -18 -23 c-15 -18 -19 -40 -19 -103
0 -44 5 -88 10 -99 13 -23 42 -24 75 -3 13 9 29 13 35 9 6 -4 10 -55 10 -132
0 -139 5 -131 -68 -101 -30 12 -35 11 -48 -6 -9 -13 -14 -46 -14 -97 0 -125
20 -152 84 -110 17 11 33 18 38 15 4 -3 8 -390 8 -860 l0 -854 -48 0 c-38 0
-58 -7 -99 -35 -29 -19 -62 -35 -73 -35 -11 0 -44 16 -73 35 l-52 35 -122 0
-123 0 0 1220 0 1220 118 0 117 0 52 -35z m913 -175 l0 -210 -295 0 -295 0 0
58 c0 35 -6 66 -15 78 -13 18 -15 18 -45 2 -53 -30 -67 -24 -75 28 -7 52 2
141 16 150 5 3 27 -5 49 -17 51 -29 62 -19 68 61 l4 60 294 0 294 0 0 -210z
m270 -430 l0 -199 -44 -31 c-56 -38 -89 -38 -146 0 -40 27 -53 30 -123 30 -93
0 -138 -17 -167 -65 -19 -31 -20 -48 -20 -526 0 -560 -3 -536 82 -578 40 -19
61 -21 231 -21 l187 0 0 -49 c0 -58 -11 -69 -45 -47 -52 34 -82 14 -85 -59 -4
-86 1 -123 18 -145 l18 -22 41 20 c22 12 43 18 47 15 3 -4 6 -33 6 -65 l0 -58
-430 0 -430 0 0 853 c0 691 -3 857 -13 871 -13 17 -15 17 -56 -4 -58 -29 -66
-19 -66 80 0 96 11 113 56 87 61 -34 79 -18 79 71 l0 42 430 0 430 0 0 -200z
m-195 -250 c56 -39 97 -39 155 0 l45 30 343 0 342 0 0 -55 c0 -59 -9 -67 -44
-40 -28 21 -63 19 -76 -4 -5 -11 -10 -55 -10 -99 0 -62 4 -85 18 -102 l18 -22
42 21 c23 11 44 21 47 21 3 0 5 -180 5 -400 l0 -400 -340 0 -341 0 -52 -35
c-28 -19 -61 -35 -72 -35 -12 0 -45 16 -75 35 -50 31 -62 35 -128 35 -79 0
-120 15 -146 52 -14 20 -16 83 -16 491 l0 469 34 34 c33 33 35 34 121 34 80 0
90 -2 130 -30z m15965 -510 l0 -540 -7530 0 -7530 0 0 399 c0 452 2 440 -70
400 -53 -30 -60 -21 -60 89 0 93 11 108 60 78 55 -32 70 -19 70 65 l0 49 7530
0 7530 0 0 -540z m-16177 -549 c16 -6 58 -11 94 -11 51 0 74 -5 102 -22 l36
-23 -90 -3 c-108 -4 -155 8 -189 49 -34 40 -36 72 -3 41 12 -11 35 -25 50 -31z
m1057 -286 l0 -205 -314 0 -314 0 -4 65 c-5 85 -16 95 -69 66 -55 -31 -63 -20
-64 79 0 96 11 113 56 87 17 -9 37 -17 44 -17 21 0 35 33 35 84 l0 46 315 0
315 0 0 -205z m-1827 -260 c28 -19 63 -35 77 -35 14 0 49 16 77 35 49 33 57
35 133 35 l80 0 0 -54 c0 -30 -4 -57 -8 -60 -5 -3 -23 4 -40 15 -42 25 -58 24
-74 -3 -16 -30 -16 -166 0 -195 15 -27 32 -29 73 -8 16 9 34 13 39 10 6 -4 10
-96 10 -231 l0 -224 -289 0 c-400 0 -371 -34 -371 430 l0 320 120 0 121 0 52
-35z m4747 -340 l0 -375 -2180 0 -2180 0 0 209 c0 115 -3 223 -6 240 -8 36
-27 40 -73 14 -45 -26 -56 -9 -56 87 0 99 9 110 64 79 52 -29 63 -19 69 61 l4
60 2179 0 2179 0 0 -375z"/>
<path d="M780 10750 c0 -97 16 -124 22 -38 4 68 -2 128 -13 128 -5 0 -9 -40
-9 -90z"/>
<path d="M2070 10750 c0 -73 3 -90 15 -90 12 0 15 17 15 90 0 73 -3 90 -15 90
-12 0 -15 -17 -15 -90z"/>
<path d="M2130 10750 c0 -53 4 -90 10 -90 6 0 10 37 10 90 0 53 -4 90 -10 90
-6 0 -10 -37 -10 -90z"/>
<path d="M2180 10830 c0 -5 5 -10 10 -10 6 0 10 5 10 10 0 6 -4 10 -10 10 -5
0 -10 -4 -10 -10z"/>
<path d="M2319 10805 c-1 -19 -1 -55 -1 -80 0 -61 1 -65 12 -65 6 0 10 37 10
90 0 53 -4 90 -10 90 -5 0 -10 -16 -11 -35z"/>
<path d="M2810 10798 c-11 -24 -20 -56 -20 -73 0 -35 34 -115 50 -115 14 0 13
7 -6 36 -11 15 -17 46 -17 79 0 33 6 64 17 79 19 29 20 36 6 36 -6 0 -20 -19
-30 -42z"/>
<path d="M3457 10808 c9 -19 17 -55 17 -83 0 -28 -8 -64 -17 -82 -11 -20 -13
-33 -7 -33 16 0 50 79 50 115 0 36 -34 115 -50 115 -6 0 -4 -13 7 -32z"/>
<path d="M297 10823 c-10 -9 -8 -43 2 -43 5 0 9 11 9 25 0 27 -1 28 -11 18z"/>
<path d="M337 10823 c-10 -9 -8 -43 2 -43 5 0 9 11 9 25 0 27 -1 28 -11 18z"/>
<path d="M535 10818 c2 -7 13 -46 25 -85 13 -44 26 -73 34 -73 8 0 21 26 32
66 19 71 24 69 44 -14 18 -76 37 -66 66 33 13 44 21 81 19 83 -10 11 -24 -13
-35 -60 -19 -82 -25 -83 -44 -8 -10 38 -24 70 -30 70 -7 0 -21 -33 -31 -72
l-19 -73 -18 60 c-10 33 -18 66 -18 73 0 6 -7 12 -15 12 -8 0 -13 -6 -10 -12z"/>
<path d="M1126 10817 c-11 -8 -17 -23 -14 -38 2 -19 13 -27 53 -40 37 -12 50
-21 50 -35 0 -14 -8 -20 -34 -22 -18 -2 -38 1 -44 7 -6 6 -18 11 -26 11 -12
-1 -10 -6 8 -20 43 -36 121 -20 121 24 0 29 -17 44 -58 52 -35 7 -57 28 -47
44 8 13 62 13 70 0 3 -5 13 -10 22 -10 14 0 14 3 -2 20 -21 23 -72 27 -99 7z"/>
<path d="M1795 10818 c-29 -17 -35 -28 -35 -75 0 -33 5 -46 26 -62 33 -26 75
-27 105 -2 30 24 19 39 -13 17 -30 -21 -61 -20 -81 2 -22 25 -21 75 1 95 23
21 65 22 82 2 7 -8 17 -12 23 -8 16 10 -31 43 -62 43 -14 0 -35 -6 -46 -12z"/>
<path d="M2608 10819 c-10 -5 -18 -17 -18 -24 0 -20 16 -19 24 1 4 10 15 14
33 12 38 -4 43 -39 9 -62 -22 -14 -36 -46 -21 -46 14 0 64 68 65 87 0 36 -53
55 -92 32z"/>
<path d="M2910 10820 c0 -5 7 -10 15 -10 23 0 21 -118 -1 -127 -10 -4 -22 1
-30 12 -8 10 -17 15 -21 11 -12 -11 12 -41 36 -44 40 -6 51 14 51 94 0 72 -1
74 -25 74 -14 0 -25 -4 -25 -10z"/>
<path d="M815 10781 c-4 -7 4 -11 19 -11 25 0 26 -3 26 -55 0 -32 4 -55 10
-55 7 0 10 24 8 63 -3 59 -4 62 -30 65 -14 2 -29 -2 -33 -7z"/>
<path d="M900 10788 c0 -3 12 -33 26 -68 l26 -64 -21 -17 c-25 -20 -27 -29 -6
-29 19 0 38 31 69 113 16 44 21 67 13 65 -6 -3 -19 -23 -27 -46 -8 -23 -17
-42 -20 -42 -3 0 -13 19 -21 42 -9 23 -21 44 -27 46 -7 2 -12 2 -12 0z"/>
<path d="M1270 10736 c0 -62 11 -75 63 -73 l37 1 0 63 c0 35 -4 63 -10 63 -5
0 -10 -22 -10 -50 0 -37 -4 -52 -17 -58 -32 -17 -43 -3 -43 54 0 30 -4 54 -10
54 -5 0 -10 -24 -10 -54z"/>
<path d="M1400 10698 c0 -72 3 -88 15 -88 10 0 15 10 15 29 0 25 3 28 25 23
37 -7 55 14 55 63 0 52 -14 65 -68 62 l-42 -1 0 -88z m79 68 c7 -8 11 -30 9
-48 -2 -28 -7 -33 -28 -33 -21 0 -26 5 -28 33 -3 31 11 62 28 62 4 0 13 -6 19
-14z"/>
<path d="M1558 10779 c-13 -7 -18 -23 -18 -55 0 -37 4 -46 24 -55 25 -12 76
-5 76 10 0 4 -17 8 -37 7 -28 -1 -38 3 -41 17 -3 14 4 17 42 17 38 0 46 3 46
18 0 40 -53 64 -92 41z m66 -24 c4 -12 -3 -15 -29 -15 -33 0 -43 8 -28 23 12
13 51 7 57 -8z"/>
<path d="M1680 10725 c0 -78 16 -87 22 -12 5 56 1 77 -13 77 -5 0 -9 -29 -9
-65z"/>
<path d="M1710 10780 c0 -5 7 -10 15 -10 8 0 15 5 15 10 0 6 -7 10 -15 10 -8
0 -15 -4 -15 -10z"/>
<path d="M1947 10772 c-52 -57 17 -143 78 -98 22 16 26 76 6 100 -18 22 -64
20 -84 -2z m68 -47 c0 -36 -3 -40 -27 -43 -30 -4 -44 23 -34 64 5 20 12 25 34
22 24 -3 27 -7 27 -43z"/>
<path d="M2180 10725 c0 -37 4 -65 10 -65 6 0 10 28 10 65 0 37 -4 65 -10 65
-6 0 -10 -28 -10 -65z"/>
<path d="M2246 10774 c-35 -34 -11 -114 34 -114 10 0 22 5 25 10 3 6 -5 10
-19 10 -28 0 -41 27 -32 66 5 17 13 24 32 24 14 0 23 4 19 10 -9 15 -42 12
-59 -6z"/>
<path d="M2388 10779 c-13 -7 -18 -23 -18 -55 0 -37 4 -46 24 -55 25 -12 76
-5 76 10 0 4 -17 8 -37 7 -28 -1 -38 3 -41 17 -3 14 4 17 42 17 38 0 46 3 46
18 0 40 -53 64 -92 41z m66 -24 c4 -12 -3 -15 -29 -15 -33 0 -43 8 -28 23 12
13 51 7 57 -8z"/>
<path d="M2510 10725 c0 -78 16 -87 22 -12 5 56 1 77 -13 77 -5 0 -9 -29 -9
-65z"/>
<path d="M2540 10780 c0 -5 7 -10 15 -10 8 0 15 5 15 10 0 6 -7 10 -15 10 -8
0 -15 -4 -15 -10z"/>
<path d="M3000 10725 c0 -37 4 -65 10 -65 6 0 10 22 10 49 0 49 18 79 40 66 5
-3 10 -31 10 -61 0 -41 4 -54 15 -54 11 0 15 13 15 54 0 53 10 68 38 59 7 -3
12 -24 12 -59 0 -31 4 -54 10 -54 7 0 10 22 8 56 -3 64 -23 88 -56 68 -12 -8
-22 -8 -35 0 -12 8 -22 8 -37 -2 -12 -7 -20 -8 -20 -2 0 5 -4 10 -10 10 -6 0
-10 -28 -10 -65z"/>
<path d="M3216 10774 c-9 -8 -16 -31 -16 -49 0 -18 7 -41 16 -49 20 -20 58
-21 74 -1 16 19 5 34 -12 17 -17 -17 -45 -15 -52 4 -20 52 7 89 46 65 25 -15
35 -7 18 14 -16 20 -54 19 -74 -1z"/>
<path d="M3337 10772 c-36 -40 -10 -112 40 -112 23 0 50 27 38 38 -4 4 -10 1
-12 -5 -8 -21 -51 -15 -58 8 -12 36 3 69 29 69 14 0 26 -6 29 -12 2 -7 8 -10
12 -6 12 12 -15 38 -40 38 -12 0 -29 -8 -38 -18z"/>
<path d="M2630 10670 c0 -5 5 -10 10 -10 6 0 10 5 10 10 0 6 -4 10 -10 10 -5
0 -10 -4 -10 -10z"/>
<path d="M212 9607 c-19 -20 -22 -35 -22 -114 0 -76 3 -94 21 -117 l20 -26
204 0 c256 0 248 -4 253 134 4 91 3 96 -22 121 l-25 25 -204 0 c-200 0 -204 0
-225 -23z m444 -11 c21 -29 20 -189 -2 -210 -13 -14 -47 -16 -218 -16 -144 0
-205 3 -214 12 -8 8 -12 47 -12 109 0 135 -9 131 238 127 178 -3 195 -5 208
-22z"/>
<path d="M306 9525 c-21 -22 -10 -42 30 -55 19 -7 34 -18 34 -27 0 -13 -8 -14
-42 -9 -36 6 -40 5 -28 -9 16 -20 64 -19 84 1 22 21 5 50 -34 59 -18 4 -30 13
-30 22 0 12 8 14 35 10 35 -6 48 6 19 17 -26 10 -52 7 -68 -9z"/>
<path d="M790 9515 c0 -8 5 -15 10 -15 6 0 10 7 10 15 0 8 -4 15 -10 15 -5 0
-10 -7 -10 -15z"/>
<path d="M830 9510 c0 -6 32 -10 75 -10 43 0 75 4 75 10 0 6 -32 10 -75 10
-43 0 -75 -4 -75 -10z"/>
<path d="M790 9465 c0 -8 5 -15 10 -15 6 0 10 7 10 15 0 8 -4 15 -10 15 -5 0
-10 -7 -10 -15z"/>
<path d="M830 9460 c0 -6 32 -10 75 -10 43 0 75 4 75 10 0 6 -32 10 -75 10
-43 0 -75 -4 -75 -10z"/>
<path d="M1409 9611 c-22 -18 -24 -26 -24 -121 0 -146 -11 -140 265 -140 l219
0 20 26 c18 22 21 41 21 114 0 73 -3 92 -21 114 l-20 26 -219 0 c-200 0 -220
-2 -241 -19z m451 -4 c24 -12 25 -17 28 -111 2 -64 -1 -103 -9 -112 -18 -22
-441 -20 -463 2 -12 12 -16 37 -16 103 0 87 8 113 40 124 33 12 395 7 420 -6z"/>
<path d="M1490 9573 c0 -4 14 -22 32 -40 l32 -33 -32 -33 c-47 -49 -42 -57 33
-57 37 0 65 4 65 10 0 6 -23 10 -51 10 l-50 0 27 35 27 36 -28 29 -29 30 47 0
c26 0 47 5 47 10 0 6 -27 10 -60 10 -33 0 -60 -3 -60 -7z"/>
<path d="M2310 10330 c0 -33 4 -60 10 -60 6 0 10 27 10 60 0 33 -4 60 -10 60
-6 0 -10 -27 -10 -60z"/>
<path d="M2310 10230 c0 -5 5 -10 10 -10 6 0 10 5 10 10 0 6 -4 10 -10 10 -5
0 -10 -4 -10 -10z"/>
<path d="M2328 9540 c-14 -16 -22 -30 -17 -32 5 -2 0 -37 -10 -78 -14 -56 -15
-69 -5 -55 15 21 34 80 34 108 0 10 7 20 16 24 11 4 12 8 4 13 -9 6 -9 13 -1
29 16 29 10 26 -21 -9z"/>
<path d="M2375 9560 c3 -5 8 -10 11 -10 2 0 4 5 4 10 0 6 -5 10 -11 10 -5 0
-7 -4 -4 -10z"/>
<path d="M2255 9370 c3 -5 8 -10 11 -10 2 0 4 5 4 10 0 6 -5 10 -11 10 -5 0
-7 -4 -4 -10z"/>
<path d="M2337 8753 c-4 -3 -7 -15 -7 -25 0 -12 -8 -18 -22 -19 -17 -1 -19 -2
-5 -6 10 -3 17 -14 17 -29 0 -16 -6 -24 -17 -24 -14 0 -15 -2 -4 -9 8 -5 12
-18 8 -30 -3 -12 -1 -21 3 -21 5 0 10 10 12 23 2 14 11 23 26 25 20 3 22 0 16
-24 -5 -19 -4 -25 5 -20 6 4 11 16 11 27 0 13 7 19 23 20 16 1 18 2 5 6 -10 2
-18 13 -18 23 0 11 8 24 18 29 11 7 13 10 3 11 -9 0 -12 8 -9 25 3 14 2 25 -3
25 -4 0 -9 -10 -11 -22 -2 -15 -11 -24 -26 -26 -20 -3 -22 0 -16 22 6 26 3 32
-9 19z m43 -62 c0 -23 -14 -41 -31 -41 -20 0 -23 8 -13 34 6 17 44 23 44 7z"/>
<path d="M2910 9961 c0 -5 7 -11 15 -15 22 -8 18 -50 -10 -106 -19 -37 -22
-50 -12 -50 8 0 22 21 32 47 l18 47 17 -44 c30 -76 42 -56 14 22 -15 40 -31
81 -36 91 -9 18 -38 24 -38 8z"/>
<path d="M2956 9247 c-16 -12 -16 -14 5 -32 19 -17 21 -17 16 -3 -5 15 2 18
51 21 l57 3 -58 2 c-36 1 -56 6 -52 12 8 13 2 13 -19 -3z"/>
<path d="M4280 9528 c0 -72 -10 -87 -44 -65 -64 42 -91 13 -91 -98 0 -111 27
-140 91 -98 39 25 44 7 44 -160 l0 -147 2053 2 2052 3 3 308 2 307 -2055 0
-2055 0 0 -52z m4090 -258 l0 -290 -2040 0 -2040 0 0 155 c0 176 -2 180 -69
145 l-41 -21 -10 26 c-6 15 -10 50 -10 80 0 30 4 65 10 80 l10 26 41 -21 c58
-30 69 -22 69 50 l0 60 2040 0 2040 0 0 -290z"/>
<path d="M5290 9435 c0 -55 -3 -65 -17 -65 -10 0 -27 7 -37 15 -27 21 -53 19
-66 -4 -14 -27 -13 -164 2 -196 14 -30 18 -31 67 -5 21 10 41 16 45 13 3 -4 6
-37 6 -75 l0 -68 345 0 345 0 0 225 0 225 -345 0 -345 0 0 -65z m680 -160 l0
-205 -329 0 -329 0 -4 65 c-5 85 -15 94 -67 64 -56 -31 -66 -20 -66 81 0 96
11 113 56 87 61 -34 79 -18 79 71 l0 42 330 0 330 0 0 -205z"/>
<path d="M5497 9342 c-24 -26 -23 -113 1 -135 24 -22 55 -21 75 1 24 26 23
113 -1 135 -24 22 -55 21 -75 -1z m67 -18 c3 -9 6 -31 6 -49 0 -48 -9 -65 -35
-65 -26 0 -35 17 -35 65 0 48 9 65 35 65 13 0 26 -7 29 -16z"/>
<path d="M5700 9345 c-17 -21 -7 -29 18 -14 23 15 52 6 52 -16 0 -9 -20 -35
-45 -59 -25 -25 -45 -49 -45 -55 0 -7 22 -11 55 -11 30 0 55 5 55 10 0 6 -19
10 -42 10 l-42 0 42 43 c42 43 52 73 30 95 -17 17 -63 15 -78 -3z"/>
<path d="M5626 9213 c-11 -11 -6 -23 9 -23 8 0 15 4 15 9 0 13 -16 22 -24 14z"/>
<path d="M6540 9435 c0 -69 -8 -79 -46 -50 -55 41 -84 4 -84 -109 0 -57 4 -79
19 -97 l18 -23 42 22 c23 12 44 22 46 22 3 0 5 -34 5 -75 l0 -75 315 0 315 0
0 225 0 225 -315 0 -315 0 0 -65z m610 -160 l0 -205 -295 0 -295 0 0 64 c0 84
-13 96 -70 64 -52 -30 -60 -19 -60 82 0 98 7 110 55 87 64 -31 75 -21 75 64
l0 49 295 0 295 0 0 -205z"/>
<path d="M6740 9315 l0 -44 38 2 c35 2 37 0 37 -28 0 -24 -5 -31 -23 -33 -13
-2 -30 2 -38 9 -21 17 -28 5 -9 -15 9 -9 27 -16 41 -16 27 0 64 32 64 55 0 26
-40 57 -66 52 -20 -3 -24 0 -24 19 0 21 5 24 34 24 19 0 38 5 41 10 4 6 -13
10 -44 10 l-51 0 0 -45z"/>
<path d="M6892 9352 c-36 -23 -33 -142 4 -156 50 -19 84 13 84 79 0 67 -44
105 -88 77z m57 -26 c17 -20 10 -97 -10 -109 -32 -20 -49 -1 -49 56 0 30 3 57
7 60 11 12 40 8 52 -7z"/>
<path d="M7730 9441 c0 -33 -5 -63 -11 -67 -6 -3 -25 2 -44 11 -42 23 -61 15
-74 -32 -20 -70 -6 -178 24 -189 7 -3 31 4 53 15 48 25 52 19 52 -70 l0 -59
245 0 245 0 0 225 0 225 -245 0 -245 0 0 -59z m470 -166 l0 -205 -224 0 -223
0 -6 67 c-4 37 -11 71 -16 76 -6 6 -25 0 -50 -14 -56 -31 -66 -19 -66 81 0 98
10 112 60 86 50 -27 63 -17 71 53 l7 61 223 0 224 0 0 -205z"/>
<path d="M7942 9352 c-36 -23 -33 -142 4 -156 50 -19 84 13 84 79 0 67 -44
105 -88 77z m57 -26 c17 -20 10 -97 -10 -109 -32 -20 -49 -1 -49 56 0 30 3 57
7 60 11 12 40 8 52 -7z"/>
<path d="M4490 9360 c0 -11 7 -20 15 -20 8 0 15 9 15 20 0 11 -7 20 -15 20 -8
0 -15 -9 -15 -20z"/>
<path d="M4820 9255 l0 -95 95 0 95 0 0 95 0 95 -95 0 -95 0 0 -95z m30 75 c0
-5 -5 -10 -11 -10 -5 0 -7 5 -4 10 3 6 8 10 11 10 2 0 4 -4 4 -10z m50 0 c0
-5 -4 -10 -10 -10 -5 0 -10 5 -10 10 0 6 5 10 10 10 6 0 10 -4 10 -10z m50 0
c0 -5 -4 -10 -10 -10 -5 0 -10 5 -10 10 0 6 5 10 10 10 6 0 10 -4 10 -10z m45
0 c3 -5 1 -10 -4 -10 -6 0 -11 5 -11 10 0 6 2 10 4 10 3 0 8 -4 11 -10z m-121
-31 c-3 -5 -10 -7 -15 -3 -5 3 -7 10 -3 15 3 5 10 7 15 3 5 -3 7 -10 3 -15z
m50 0 c-3 -5 -10 -7 -15 -3 -5 3 -7 10 -3 15 3 5 10 7 15 3 5 -3 7 -10 3 -15z
m50 0 c-3 -5 -10 -7 -15 -3 -5 3 -7 10 -3 15 3 5 10 7 15 3 5 -3 7 -10 3 -15z
m-124 -19 c0 -5 -4 -10 -10 -10 -5 0 -10 5 -10 10 0 6 5 10 10 10 6 0 10 -4
10 -10z m50 0 c0 -5 -4 -10 -10 -10 -5 0 -10 5 -10 10 0 6 5 10 10 10 6 0 10
-4 10 -10z m50 0 c0 -5 -4 -10 -10 -10 -5 0 -10 5 -10 10 0 6 5 10 10 10 6 0
10 -4 10 -10z m50 0 c0 -5 -4 -10 -10 -10 -5 0 -10 5 -10 10 0 6 5 10 10 10 6
0 10 -4 10 -10z m-126 -31 c-3 -5 -10 -7 -15 -3 -5 3 -7 10 -3 15 3 5 10 7 15
3 5 -3 7 -10 3 -15z m50 0 c-3 -5 -10 -7 -15 -3 -5 3 -7 10 -3 15 3 5 10 7 15
3 5 -3 7 -10 3 -15z m50 0 c-3 -5 -10 -7 -15 -3 -5 3 -7 10 -3 15 3 5 10 7 15
3 5 -3 7 -10 3 -15z m-124 -19 c0 -5 -4 -10 -10 -10 -5 0 -10 5 -10 10 0 6 5
10 10 10 6 0 10 -4 10 -10z m50 0 c0 -5 -4 -10 -10 -10 -5 0 -10 5 -10 10 0 6
5 10 10 10 6 0 10 -4 10 -10z m50 0 c0 -5 -4 -10 -10 -10 -5 0 -10 5 -10 10 0
6 5 10 10 10 6 0 10 -4 10 -10z m50 0 c0 -5 -4 -10 -10 -10 -5 0 -10 5 -10 10
0 6 5 10 10 10 6 0 10 -4 10 -10z m-126 -31 c-3 -5 -10 -7 -15 -3 -5 3 -7 10
-3 15 3 5 10 7 15 3 5 -3 7 -10 3 -15z m50 0 c-3 -5 -10 -7 -15 -3 -5 3 -7 10
-3 15 3 5 10 7 15 3 5 -3 7 -10 3 -15z m50 0 c-3 -5 -10 -7 -15 -3 -5 3 -7 10
-3 15 3 5 10 7 15 3 5 -3 7 -10 3 -15z m-124 -19 c0 -5 -2 -10 -4 -10 -3 0 -8
5 -11 10 -3 6 -1 10 4 10 6 0 11 -4 11 -10z m50 0 c0 -5 -4 -10 -10 -10 -5 0
-10 5 -10 10 0 6 5 10 10 10 6 0 10 -4 10 -10z m50 0 c0 -5 -4 -10 -10 -10 -5
0 -10 5 -10 10 0 6 5 10 10 10 6 0 10 -4 10 -10z m50 6 c0 -3 -4 -8 -10 -11
-5 -3 -10 -1 -10 4 0 6 5 11 10 11 6 0 10 -2 10 -4z"/>
<path d="M7390 9306 c0 -21 -5 -26 -25 -26 -14 0 -25 -4 -25 -10 0 -5 11 -10
25 -10 20 0 25 -5 25 -25 0 -14 5 -25 10 -25 6 0 10 11 10 25 0 20 5 25 26 25
14 0 23 4 19 10 -3 6 -15 10 -26 10 -12 0 -19 7 -19 19 0 11 -4 23 -10 26 -6
4 -10 -5 -10 -19z"/>
<path d="M6180 9295 l23 -25 -23 -25 c-13 -14 -19 -25 -13 -25 5 0 18 9 28 20
l18 20 24 -22 c26 -25 32 -14 6 14 -15 17 -15 19 2 38 10 11 16 22 13 25 -3 3
-11 -1 -18 -10 -16 -19 -34 -19 -50 0 -7 8 -17 15 -23 15 -6 0 0 -11 13 -25z"/>
<path d="M4490 9230 c0 -11 7 -20 15 -20 8 0 15 9 15 20 0 11 -7 20 -15 20 -8
0 -15 -9 -15 -20z"/>
<path d="M4560 9160 c0 -11 7 -20 15 -20 8 0 15 9 15 20 0 11 -7 20 -15 20 -8
0 -15 -9 -15 -20z"/>
<path d="M8920 9515 c0 -36 -3 -65 -7 -65 -5 1 -19 7 -33 15 -65 37 -90 9 -90
-100 0 -109 25 -137 90 -100 14 8 28 14 33 15 4 0 7 -72 7 -160 l0 -160 2675
0 2675 0 0 310 0 310 -2675 0 -2675 0 0 -65z m5330 -245 l0 -290 -2655 0
-2655 0 0 144 c0 79 -3 151 -6 160 -8 21 -27 20 -66 -4 -48 -29 -58 -14 -58
85 0 99 10 114 58 85 59 -36 72 -24 72 61 l0 49 2655 0 2655 0 0 -290z"/>
<path d="M9830 9435 c0 -69 -8 -79 -46 -50 -32 24 -60 18 -74 -15 -18 -42 -10
-175 12 -196 15 -16 19 -15 58 5 22 11 43 21 45 21 3 0 5 -34 5 -75 l0 -75
385 0 385 0 0 225 0 225 -385 0 -385 0 0 -65z m750 -160 l0 -205 -365 0 -365
0 0 64 c0 84 -13 96 -70 64 -52 -30 -60 -19 -60 82 0 98 7 110 55 87 64 -31
75 -21 75 64 l0 49 365 0 365 0 0 -205z"/>
<path d="M10040 9345 c-17 -21 -7 -29 18 -14 23 15 52 6 52 -16 0 -9 -20 -35
-45 -59 -25 -25 -45 -49 -45 -55 0 -7 22 -11 55 -11 30 0 55 5 55 10 0 6 -19
10 -42 10 l-42 0 42 43 c42 43 52 73 30 95 -17 17 -63 15 -78 -3z"/>
<path d="M10182 9352 c-36 -23 -33 -142 4 -156 50 -19 84 13 84 79 0 67 -44
105 -88 77z m57 -26 c17 -20 10 -97 -10 -109 -32 -20 -49 -1 -49 56 0 30 3 57
7 60 11 12 40 8 52 -7z"/>
<path d="M10315 9346 c-29 -21 -29 -121 -1 -142 45 -32 86 -7 92 57 8 78 -40
123 -91 85z m67 -31 c8 -17 8 -37 2 -63 -7 -30 -13 -37 -34 -37 -20 0 -27 7
-33 35 -18 71 37 126 65 65z"/>
<path d="M11110 9448 c0 -76 -10 -87 -54 -63 -58 32 -83 4 -85 -95 -1 -57 16
-119 35 -127 7 -3 30 5 50 16 20 12 39 19 42 16 4 -3 8 -37 10 -76 l4 -69 449
0 449 0 0 225 0 225 -450 0 -450 0 0 -52z m880 -173 l0 -205 -435 0 -435 0 0
69 c0 39 -5 73 -10 76 -6 3 -28 -4 -50 -16 -30 -17 -43 -20 -52 -11 -14 14
-23 109 -14 157 8 39 20 43 64 18 47 -27 62 -13 62 57 l0 60 435 0 435 0 0
-205z"/>
<path d="M11310 9345 c-17 -21 -7 -29 18 -14 11 7 27 9 36 6 24 -9 16 -41 -12
-45 -29 -4 -29 -20 1 -24 16 -2 22 -10 22 -28 0 -30 -29 -39 -54 -16 -23 21
-36 8 -14 -16 21 -23 65 -23 86 0 22 24 21 36 0 58 -13 13 -14 19 -5 22 15 5
16 44 0 60 -17 17 -63 15 -78 -3z"/>
<path d="M11450 9345 c-17 -21 -7 -29 18 -14 23 15 52 6 52 -16 0 -9 -20 -35
-45 -59 -25 -25 -45 -49 -45 -55 0 -7 22 -11 55 -11 30 0 55 5 55 10 0 6 -19
10 -42 10 l-42 0 42 43 c42 43 52 73 30 95 -17 17 -63 15 -78 -3z"/>
<path d="M11592 9352 c-36 -23 -33 -142 4 -156 50 -19 84 13 84 79 0 67 -44
105 -88 77z m57 -26 c17 -20 10 -97 -10 -109 -32 -20 -49 -1 -49 56 0 30 3 57
7 60 11 12 40 8 52 -7z"/>
<path d="M11725 9346 c-29 -21 -29 -121 -1 -142 45 -32 86 -7 92 57 8 78 -40
123 -91 85z m67 -31 c8 -17 8 -37 2 -63 -7 -30 -13 -37 -34 -37 -20 0 -27 7
-33 35 -18 71 37 126 65 65z"/>
<path d="M12560 9435 c0 -70 -5 -75 -50 -49 -57 34 -84 -9 -78 -123 2 -52 8
-78 20 -90 17 -16 20 -16 55 2 21 11 41 21 46 23 4 2 7 -30 7 -72 l0 -76 245
0 245 0 0 225 0 225 -245 0 -245 0 0 -65z m480 -160 l0 -205 -230 0 -230 0 0
64 c0 82 -11 92 -68 63 -55 -27 -62 -18 -62 83 0 100 7 109 59 86 59 -27 71
-18 71 54 l0 60 230 0 230 0 0 -205z"/>
<path d="M12779 9339 l-24 -20 23 6 c21 6 22 4 22 -54 0 -54 -2 -61 -20 -61
-11 0 -20 -4 -20 -10 0 -5 23 -10 50 -10 28 0 50 5 50 10 0 6 -9 10 -20 10
-18 0 -20 7 -20 75 0 41 -4 75 -9 75 -5 0 -19 -9 -32 -21z"/>
<path d="M13610 9435 c0 -69 -8 -79 -46 -50 -10 8 -29 15 -42 15 -31 0 -42
-34 -42 -125 0 -56 4 -78 19 -96 l18 -23 42 22 c23 12 44 22 46 22 3 0 5 -34
5 -75 l0 -75 245 0 245 0 0 225 0 225 -245 0 -245 0 0 -65z m470 -160 l0 -205
-225 0 -225 0 0 64 c0 84 -13 96 -70 64 -52 -30 -60 -19 -60 82 0 98 7 110 55
87 64 -31 75 -21 75 64 l0 49 225 0 225 0 0 -205z"/>
<path d="M13816 9338 c-35 -50 -10 -148 37 -148 31 0 44 11 57 45 13 35 6 88
-16 110 -22 22 -60 19 -78 -7z m69 -63 c0 -51 -3 -60 -19 -63 -25 -5 -46 23
-46 61 0 42 18 69 43 65 20 -3 22 -9 22 -63z"/>
<path d="M9500 9270 l0 -110 25 0 c14 0 25 5 25 10 0 6 -7 10 -15 10 -12 0
-15 18 -15 100 0 60 -4 100 -10 100 -6 0 -10 -43 -10 -110z"/>
<path d="M10775 9371 c-3 -6 1 -11 9 -11 13 0 16 -16 16 -100 0 -83 3 -100 15
-100 13 0 15 16 13 108 -3 101 -4 107 -25 110 -11 2 -24 -2 -28 -7z"/>
<path d="M9120 9280 l0 -90 90 0 90 0 0 90 0 90 -90 0 -90 0 0 -90z m160 0 l0
-70 -70 0 -70 0 0 70 0 70 70 0 70 0 0 -70z"/>
<path d="M9230 9315 c0 -8 7 -15 15 -15 8 0 15 7 15 15 0 8 -7 15 -15 15 -8 0
-15 -7 -15 -15z"/>
<path d="M9160 9246 c0 -9 7 -16 16 -16 9 0 14 5 12 12 -6 18 -28 21 -28 4z"/>
<path d="M13270 9305 c0 -20 -5 -25 -25 -25 -14 0 -25 -4 -25 -10 0 -5 11 -10
25 -10 20 0 25 -5 25 -25 0 -14 5 -25 10 -25 6 0 10 11 10 25 0 20 5 25 25 25
14 0 25 5 25 10 0 6 -11 10 -25 10 -20 0 -25 5 -25 25 0 14 -4 25 -10 25 -5 0
-10 -11 -10 -25z"/>
<path d="M12200 9295 l23 -25 -23 -25 c-13 -14 -19 -25 -13 -25 5 0 18 9 28
20 l18 20 24 -22 c26 -25 32 -14 6 14 -15 17 -15 19 2 38 10 11 16 22 13 25
-3 3 -11 -1 -18 -10 -16 -19 -34 -19 -50 0 -7 8 -17 15 -23 15 -6 0 0 -11 13
-25z"/>
<path d="M14980 9435 c0 -70 -5 -75 -50 -49 -57 34 -84 -10 -77 -124 3 -50 9
-79 20 -90 15 -15 19 -14 54 3 21 11 41 21 46 23 4 2 7 -30 7 -72 l0 -76 485
0 485 0 0 225 0 225 -485 0 -485 0 0 -65z m950 -160 l0 -205 -465 0 -465 0 0
63 c0 82 -10 92 -66 64 -24 -11 -47 -17 -51 -13 -12 12 -15 169 -4 185 8 13
15 12 50 -3 59 -27 71 -18 71 54 l0 60 465 0 465 0 0 -205z"/>
<path d="M15186 9338 c-35 -50 -10 -148 37 -148 31 0 44 11 57 45 13 35 6 88
-16 110 -22 22 -60 19 -78 -7z m69 -63 c0 -51 -3 -60 -19 -63 -25 -5 -46 23
-46 61 0 42 18 69 43 65 20 -3 22 -9 22 -63z"/>
<path d="M15402 9352 c-36 -23 -33 -142 4 -156 50 -19 84 13 84 79 0 67 -44
105 -88 77z m57 -26 c17 -20 10 -97 -10 -109 -32 -20 -49 -1 -49 56 0 30 3 57
7 60 11 12 40 8 52 -7z"/>
<path d="M15535 9346 c-29 -21 -29 -121 -1 -142 45 -32 86 -7 92 57 8 78 -40
123 -91 85z m67 -31 c8 -17 8 -37 2 -63 -7 -30 -13 -37 -34 -37 -20 0 -27 7
-33 35 -18 71 37 126 65 65z"/>
<path d="M15665 9344 c-9 -9 -13 -19 -10 -22 3 -3 11 0 17 6 16 16 55 15 61
-2 6 -16 -11 -36 -30 -36 -23 0 -14 -18 13 -24 19 -5 25 -12 22 -29 -4 -29
-47 -36 -65 -11 -15 20 -28 13 -20 -10 8 -21 54 -31 83 -17 26 12 33 48 12 69
-9 9 -9 15 0 24 16 16 15 33 -4 52 -20 21 -58 20 -79 0z"/>
<path d="M15320 9205 c0 -8 5 -15 10 -15 6 0 10 7 10 15 0 8 -4 15 -10 15 -5
0 -10 -7 -10 -15z"/>
<path d="M16510 9434 c0 -73 3 -71 -68 -42 -30 12 -35 11 -48 -6 -28 -39 -13
-226 18 -226 5 0 26 9 47 20 21 10 41 16 45 13 3 -4 6 -37 6 -75 l0 -68 245 0
245 0 0 225 0 225 -245 0 -245 0 0 -66z m470 -159 l0 -205 -224 0 -224 0 -4
65 c-5 85 -15 94 -67 64 -56 -31 -66 -20 -66 81 0 96 11 113 56 87 61 -34 79
-18 79 71 l0 42 225 0 225 0 0 -205z"/>
<path d="M16725 9340 c-19 -21 -7 -28 13 -8 9 9 12 -3 12 -55 0 -60 -2 -67
-20 -67 -11 0 -20 -4 -20 -10 0 -5 23 -10 50 -10 28 0 50 5 50 10 0 6 -9 10
-20 10 -18 0 -20 7 -20 75 0 81 -10 93 -45 55z"/>
<path d="M17560 9440 c0 -68 -14 -83 -52 -56 -29 21 -55 20 -66 -1 -17 -31
-24 -117 -13 -162 14 -63 23 -69 75 -44 24 12 47 19 50 16 3 -4 6 -37 6 -75
l0 -68 245 0 245 0 0 225 0 225 -245 0 -245 0 0 -60z m470 -165 l0 -205 -224
0 -223 0 -6 66 c-6 85 -14 92 -66 63 -56 -31 -66 -19 -66 81 0 96 11 113 56
87 17 -9 37 -17 45 -17 19 0 34 41 34 91 l0 39 225 0 225 0 0 -205z"/>
<path d="M17772 9352 c-36 -23 -33 -142 4 -156 50 -19 84 13 84 79 0 67 -44
105 -88 77z m57 -26 c17 -20 10 -97 -10 -109 -32 -20 -49 -1 -49 56 0 30 3 57
7 60 11 12 40 8 52 -7z"/>
<path d="M14453 9353 c-7 -2 -13 -9 -13 -14 0 -6 5 -7 10 -4 6 4 10 -8 10 -29
0 -19 -6 -37 -12 -39 -7 -3 2 -6 20 -6 l34 -1 -22 -35 c-12 -19 -18 -35 -13
-35 4 0 26 28 47 63 21 34 46 72 54 85 8 12 10 22 4 22 -6 0 -22 -20 -36 -45
-15 -25 -33 -45 -41 -45 -11 0 -15 12 -15 45 0 44 -3 48 -27 38z"/>
<path d="M14604 9316 c-39 -39 -46 -87 -17 -118 15 -17 15 -19 -3 -33 -18 -14
-17 -14 11 -15 17 0 39 -3 50 -6 11 -3 29 2 40 11 11 9 14 13 7 10 -7 -4 -30
-4 -50 0 -20 4 -31 10 -24 12 8 3 5 10 -9 22 -18 14 -21 24 -15 53 13 69 71
113 94 71 13 -22 -4 -82 -31 -110 -22 -24 -13 -31 13 -10 49 38 64 101 32 130
-29 26 -61 20 -98 -17z"/>
<path d="M3676 9296 c-4 -19 -18 -51 -31 -71 -21 -30 -23 -36 -8 -33 9 2 26
21 37 43 l21 40 21 -40 c11 -22 28 -41 38 -43 13 -3 12 3 -9 33 -13 20 -27 52
-31 71 -3 19 -12 34 -19 34 -7 0 -16 -15 -19 -34z"/>
<path d="M17220 9305 c0 -20 -5 -25 -25 -25 -14 0 -25 -4 -25 -10 0 -5 11 -10
25 -10 20 0 25 -5 25 -25 0 -14 5 -25 10 -25 6 0 10 11 10 25 0 20 5 25 25 25
14 0 25 5 25 10 0 6 -11 10 -25 10 -20 0 -25 5 -25 25 0 14 -4 25 -10 25 -5 0
-10 -11 -10 -25z"/>
<path d="M8565 9258 c13 -35 29 -63 36 -63 19 0 61 87 53 108 -10 28 -24 19
-24 -15 -1 -18 -7 -44 -14 -57 -13 -24 -14 -24 -32 32 -10 31 -23 57 -30 57
-8 0 -4 -20 11 -62z"/>
<path d="M16130 9313 c0 -3 7 -15 17 -25 15 -17 15 -19 -2 -38 -24 -26 -11
-39 15 -15 19 17 21 17 40 0 26 -24 39 -11 15 15 -17 19 -17 21 0 40 24 26 11
39 -15 15 -19 -17 -21 -17 -38 -2 -19 18 -32 22 -32 10z"/>
<path d="M3970 9255 c0 -8 5 -15 10 -15 6 0 10 7 10 15 0 8 -4 15 -10 15 -5 0
-10 -7 -10 -15z"/>
<path d="M2929 8739 l-24 -20 23 6 c21 6 22 4 22 -54 0 -54 -2 -61 -20 -61
-11 0 -20 -4 -20 -10 0 -5 23 -10 50 -10 28 0 50 5 50 10 0 6 -9 10 -20 10
-18 0 -20 7 -20 75 0 41 -4 75 -9 75 -5 0 -19 -9 -32 -21z"/>
<path d="M3057 8742 c-24 -26 -23 -113 1 -135 24 -22 55 -21 75 1 24 26 23
113 -1 135 -24 22 -55 21 -75 -1z m67 -18 c3 -9 6 -31 6 -49 0 -48 -9 -65 -35
-65 -26 0 -35 17 -35 65 0 48 9 65 35 65 13 0 26 -7 29 -16z"/>
<path d="M211 6144 c-18 -23 -21 -41 -21 -119 0 -83 2 -94 23 -113 22 -21 32
-22 226 -22 l202 0 25 25 c25 25 26 30 22 121 -5 138 3 134 -253 134 l-204 0
-20 -26z m443 -10 c12 -12 16 -37 16 -103 0 -131 10 -125 -220 -129 -248 -4
-240 -8 -240 126 0 63 4 102 12 110 9 9 70 12 214 12 171 0 205 -2 218 -16z"/>
<path d="M296 6058 c4 -7 14 -21 22 -30 13 -15 12 -21 -8 -53 -25 -40 -11 -49
15 -9 l17 27 23 -29 c13 -16 26 -26 29 -23 4 3 -3 17 -14 32 -25 31 -25 32 1
68 15 22 17 29 6 29 -7 0 -20 -12 -27 -26 l-14 -25 -19 25 c-19 26 -44 37 -31
14z"/>
<path d="M790 6045 c0 -8 5 -15 10 -15 6 0 10 7 10 15 0 8 -4 15 -10 15 -5 0
-10 -7 -10 -15z"/>
<path d="M830 6040 c0 -6 32 -10 75 -10 43 0 75 4 75 10 0 6 -32 10 -75 10
-43 0 -75 -4 -75 -10z"/>
<path d="M790 5995 c0 -8 5 -15 10 -15 6 0 10 7 10 15 0 8 -4 15 -10 15 -5 0
-10 -7 -10 -15z"/>
<path d="M830 5990 c0 -6 32 -10 75 -10 43 0 75 4 75 10 0 6 -32 10 -75 10
-43 0 -75 -4 -75 -10z"/>
<path d="M1409 6151 c-22 -18 -24 -26 -24 -121 0 -146 -11 -140 265 -140 l219
0 20 26 c18 22 21 41 21 114 0 73 -3 92 -21 114 l-20 26 -219 0 c-200 0 -220
-2 -241 -19z m469 -13 c8 -8 12 -47 12 -110 0 -135 10 -130 -255 -126 -247 4
-235 -3 -235 129 0 66 4 91 16 103 13 14 49 16 233 16 155 0 220 -3 229 -12z"/>
<path d="M1490 6103 c0 -4 14 -22 32 -40 l32 -33 -32 -33 c-47 -49 -42 -57 33
-57 37 0 65 4 65 10 0 6 -23 10 -51 10 l-50 0 27 35 27 36 -28 29 -29 30 47 0
c26 0 47 5 47 10 0 6 -27 10 -60 10 -33 0 -60 -3 -60 -7z"/>
<path d="M2310 8260 c0 -33 4 -60 10 -60 6 0 10 27 10 60 0 33 -4 60 -10 60
-6 0 -10 -27 -10 -60z"/>
<path d="M2310 8160 c0 -5 5 -10 10 -10 6 0 10 5 10 10 0 6 -4 10 -10 10 -5 0
-10 -4 -10 -10z"/>
<path d="M2328 6070 c-14 -16 -22 -30 -17 -32 5 -2 0 -37 -10 -78 -14 -56 -15
-69 -5 -55 15 21 34 80 34 108 0 10 7 20 16 24 11 4 12 8 4 13 -9 6 -9 13 -1
29 16 29 10 26 -21 -9z"/>
<path d="M2375 6090 c3 -5 8 -10 11 -10 2 0 4 5 4 10 0 6 -5 10 -11 10 -5 0
-7 -4 -4 -10z"/>
<path d="M2255 5900 c3 -5 8 -10 11 -10 2 0 4 5 4 10 0 6 -5 10 -11 10 -5 0
-7 -4 -4 -10z"/>
<path d="M2337 3903 c-4 -3 -7 -15 -7 -25 0 -12 -8 -18 -22 -19 -17 -1 -19 -2
-5 -6 10 -3 17 -14 17 -29 0 -16 -6 -24 -17 -24 -14 0 -15 -2 -4 -9 8 -5 12
-18 8 -30 -3 -12 -1 -21 3 -21 5 0 10 10 12 23 2 14 11 23 26 25 20 3 22 0 16
-24 -5 -19 -4 -25 5 -20 6 4 11 16 11 27 0 13 7 19 23 20 16 1 18 2 5 6 -10 2
-18 13 -18 23 0 11 8 24 18 29 11 7 13 10 3 11 -9 0 -12 8 -9 25 3 14 2 25 -3
25 -4 0 -9 -10 -11 -22 -2 -15 -11 -24 -26 -26 -20 -3 -22 0 -16 22 6 26 3 32
-9 19z m43 -62 c0 -23 -14 -41 -31 -41 -20 0 -23 8 -13 34 6 17 44 23 44 7z"/>
<path d="M2910 7891 c0 -5 7 -11 15 -15 22 -8 18 -50 -10 -106 -19 -37 -22
-50 -12 -50 8 0 22 21 32 47 l18 47 17 -44 c30 -76 42 -56 14 22 -15 40 -31
81 -36 91 -9 18 -38 24 -38 8z"/>
<path d="M2956 5787 c-16 -12 -16 -14 5 -32 19 -17 21 -17 16 -3 -5 15 2 18
51 21 l57 3 -58 2 c-36 1 -56 6 -52 12 8 13 2 13 -19 -3z"/>
<path d="M3650 7405 c0 -41 -2 -45 -25 -45 -14 0 -25 -4 -25 -10 0 -6 63 -10
170 -10 107 0 170 4 170 10 0 6 -11 10 -25 10 -23 0 -25 4 -25 45 0 25 -4 45
-10 45 -5 0 -10 -20 -10 -45 0 -33 -4 -45 -15 -45 -11 0 -15 12 -15 45 0 33
-4 45 -15 45 -11 0 -15 -12 -15 -45 0 -25 -4 -45 -10 -45 -5 0 -10 20 -10 45
0 33 -4 45 -15 45 -11 0 -15 -12 -15 -45 0 -33 -4 -45 -15 -45 -11 0 -15 12
-15 45 0 25 -4 45 -10 45 -5 0 -10 -20 -10 -45 0 -33 -4 -45 -15 -45 -11 0
-15 12 -15 45 0 33 -4 45 -15 45 -11 0 -15 -12 -15 -45z"/>
<path d="M3630 6825 c0 -8 5 -15 10 -15 6 0 10 7 10 15 0 8 -4 15 -10 15 -5 0
-10 -7 -10 -15z"/>
<path d="M3630 6330 c0 -67 4 -110 10 -110 6 0 10 40 10 100 0 84 3 100 16
100 8 0 12 5 9 10 -3 6 -15 10 -26 10 -18 0 -19 -8 -19 -110z"/>
<path d="M3701 6273 c-1 -22 3 -23 74 -23 71 0 75 1 74 23 -1 16 -2 18 -6 5
-4 -15 -16 -18 -68 -18 -52 0 -64 3 -68 18 -4 13 -5 11 -6 -5z"/>
<path d="M3740 5665 c0 -20 -116 -22 -123 -2 -3 7 -6 5 -6 -5 -1 -16 9 -18 69
-18 63 0 70 2 70 20 0 11 -2 20 -5 20 -3 0 -5 -7 -5 -15z"/>
<path d="M3686 5128 c39 -42 45 -53 32 -56 -34 -7 -18 -23 20 -20 34 3 37 6
40 36 2 18 -1 32 -7 32 -6 0 -11 -7 -11 -15 0 -24 -13 -18 -60 30 -62 63 -74
57 -14 -7z"/>
<path d="M3630 4735 c0 -5 7 -17 17 -27 15 -17 15 -19 -2 -38 -10 -11 -16 -22
-13 -25 3 -3 13 4 23 15 l18 20 24 -22 c30 -28 43 -15 15 15 l-22 23 22 22
c13 12 17 22 11 22 -6 0 -16 -7 -23 -15 -16 -19 -29 -19 -52 2 -10 9 -18 12
-18 8z"/>
<path d="M3670 4286 c0 -21 -5 -26 -25 -26 -14 0 -25 -4 -25 -10 0 -5 11 -10
25 -10 20 0 25 -5 25 -25 0 -14 5 -25 10 -25 6 0 10 11 10 25 0 20 5 25 26 25
14 0 23 4 19 10 -3 6 -15 10 -26 10 -12 0 -19 7 -19 19 0 11 -4 23 -10 26 -6
4 -10 -5 -10 -19z"/>
<path d="M5050 7016 c0 -36 -4 -67 -9 -71 -5 -3 -25 4 -44 15 -57 34 -74 18
-83 -79 -11 -109 29 -166 90 -126 14 9 30 14 36 10 5 -3 10 -37 10 -76 l0 -69
335 0 335 0 -2 228 -3 227 -332 3 -333 2 0 -64z m650 -166 l0 -210 -314 0
-313 0 -6 66 c-6 84 -15 93 -67 69 -56 -25 -65 -14 -65 85 0 99 9 110 63 78
52 -29 62 -20 69 61 l6 61 313 0 314 0 0 -210z"/>
<path d="M5159 6971 c-22 -17 -24 -29 -27 -113 -3 -83 -1 -96 18 -121 l21 -27
208 0 c204 0 208 0 229 23 19 20 22 35 22 116 0 84 -2 94 -25 116 -24 25 -25
25 -223 25 -182 0 -202 -2 -223 -19z m439 -13 c8 -8 12 -47 12 -109 0 -134 8
-129 -232 -129 -234 0 -228 -3 -228 129 0 68 4 93 16 105 13 14 47 16 218 16
144 0 205 -3 214 -12z"/>
<path d="M5252 6881 c-18 -11 -12 -42 11 -52 9 -5 24 -12 33 -16 28 -14 14
-28 -27 -26 -34 2 -39 0 -29 -13 16 -19 74 -18 91 2 18 21 1 46 -40 58 -45 13
-42 40 4 33 35 -6 48 6 19 17 -22 8 -47 7 -62 -3z"/>
<path d="M6377 7073 c-4 -3 -7 -35 -7 -70 0 -34 -2 -63 -5 -63 -3 0 -24 9 -47
21 -37 19 -42 19 -57 5 -21 -21 -28 -154 -11 -196 14 -34 44 -40 76 -15 37 28
44 19 44 -60 l0 -75 485 0 485 0 0 230 0 230 -478 0 c-263 0 -482 -3 -485 -7z
m943 -223 l0 -210 -465 0 -465 0 0 59 c0 33 -3 66 -6 75 -8 20 -34 21 -60 1
-25 -19 -50 -19 -58 1 -11 29 -6 150 7 168 12 17 15 17 50 -4 52 -31 67 -17
67 61 l0 59 465 0 465 0 0 -210z"/>
<path d="M6576 6908 c-35 -50 -10 -148 37 -148 31 0 44 11 57 45 13 35 6 88
-16 110 -22 22 -60 19 -78 -7z m69 -63 c0 -51 -3 -60 -19 -63 -25 -5 -46 23
-46 61 0 42 18 69 43 65 20 -3 22 -9 22 -63z"/>
<path d="M6792 6922 c-36 -23 -33 -142 4 -156 50 -19 84 13 84 79 0 67 -44
105 -88 77z m57 -26 c17 -20 10 -97 -10 -109 -32 -20 -49 -1 -49 56 0 30 3 57
7 60 11 12 40 8 52 -7z"/>
<path d="M6936 6875 c-20 -30 -36 -59 -36 -65 0 -5 18 -10 40 -10 33 0 40 -3
40 -20 0 -11 5 -20 10 -20 6 0 10 9 10 19 0 11 6 22 13 25 10 5 10 7 0 12 -8
3 -13 26 -13 60 0 71 -16 71 -64 -1z m44 -20 c0 -32 -2 -35 -30 -35 l-30 0 22
35 c29 44 38 44 38 0z"/>
<path d="M7056 6914 c-19 -19 -20 -36 -4 -52 9 -9 9 -15 0 -24 -21 -21 -14
-57 13 -70 54 -24 109 26 74 68 -9 11 -9 18 -1 26 26 26 -1 68 -43 68 -13 0
-31 -7 -39 -16z m67 -16 c7 -22 -4 -38 -28 -38 -13 0 -25 6 -28 13 -7 21 4 37
28 37 13 0 25 -6 28 -12z m2 -88 c0 -21 -5 -25 -30 -25 -33 0 -48 30 -23 46
25 17 53 6 53 -21z"/>
<path d="M6710 6775 c0 -8 5 -15 10 -15 6 0 10 7 10 15 0 8 -4 15 -10 15 -5 0
-10 -7 -10 -15z"/>
<path d="M7900 7010 c0 -38 -2 -70 -5 -70 -3 0 -24 9 -47 21 -37 19 -42 19
-57 5 -19 -20 -28 -157 -12 -198 12 -32 45 -37 77 -13 37 28 44 19 44 -60 l0
-75 485 0 485 0 0 230 0 230 -485 0 -485 0 0 -70z m950 -160 l0 -210 -465 0
-465 0 0 59 c0 33 -3 66 -6 75 -8 20 -34 21 -60 1 -25 -19 -50 -19 -58 1 -3 9
-6 48 -6 89 0 91 12 105 64 74 51 -30 66 -15 66 62 l0 59 465 0 465 0 0 -210z"/>
<path d="M8106 6908 c-35 -50 -10 -148 37 -148 31 0 44 11 57 45 13 35 6 88
-16 110 -22 22 -60 19 -78 -7z m69 -63 c0 -51 -3 -60 -19 -63 -25 -5 -46 23
-46 61 0 42 18 69 43 65 20 -3 22 -9 22 -63z"/>
<path d="M8322 6922 c-36 -23 -33 -142 4 -156 50 -19 84 13 84 79 0 67 -44
105 -88 77z m57 -26 c17 -20 10 -97 -10 -109 -32 -20 -49 -1 -49 56 0 30 3 57
7 60 11 12 40 8 52 -7z"/>
<path d="M8466 6875 c-20 -30 -36 -59 -36 -65 0 -5 18 -10 40 -10 33 0 40 -3
40 -20 0 -11 5 -20 10 -20 6 0 10 9 10 19 0 11 6 22 13 25 10 5 10 7 0 12 -8
3 -13 26 -13 60 0 71 -16 71 -64 -1z m44 -20 c0 -32 -2 -35 -30 -35 l-30 0 22
35 c29 44 38 44 38 0z"/>
<path d="M8586 6914 c-19 -19 -20 -36 -4 -52 9 -9 9 -15 0 -24 -21 -21 -14
-57 13 -70 54 -24 109 26 74 68 -9 11 -9 18 -1 26 26 26 -1 68 -43 68 -13 0
-31 -7 -39 -16z m67 -16 c7 -22 -4 -38 -28 -38 -13 0 -25 6 -28 13 -7 21 4 37
28 37 13 0 25 -6 28 -12z m2 -88 c0 -21 -5 -25 -30 -25 -33 0 -48 30 -23 46
25 17 53 6 53 -21z"/>
<path d="M8240 6775 c0 -8 5 -15 10 -15 6 0 10 7 10 15 0 8 -4 15 -10 15 -5 0
-10 -7 -10 -15z"/>
<path d="M9430 7016 c0 -36 -4 -67 -9 -71 -5 -3 -25 4 -44 15 -61 36 -83 8
-81 -110 1 -102 30 -133 89 -94 13 9 29 13 35 9 5 -3 10 -37 10 -76 l0 -69
245 0 245 0 0 230 0 230 -245 0 -245 0 0 -64z m470 -166 l0 -210 -224 0 -224
0 -4 65 c-5 84 -15 94 -68 70 -56 -25 -65 -14 -65 85 0 99 9 110 64 79 52 -29
61 -21 68 60 l6 61 223 0 224 0 0 -210z"/>
<path d="M9648 6916 c-24 -18 -23 -29 2 -21 18 6 20 2 20 -54 0 -58 -1 -61
-25 -61 -14 0 -25 -4 -25 -10 0 -5 25 -10 55 -10 30 0 55 5 55 10 0 6 -9 10
-20 10 -18 0 -20 7 -20 75 0 78 -7 88 -42 61z"/>
<path d="M10480 7023 c0 -81 -8 -90 -55 -64 -20 11 -43 17 -51 14 -18 -7 -34
-67 -33 -123 2 -98 26 -125 85 -97 47 23 54 14 54 -70 l0 -63 245 0 245 0 -2
228 -3 227 -242 3 -243 2 0 -57z m470 -173 l0 -210 -230 0 -230 0 0 70 c0 80
-13 94 -60 66 -43 -25 -58 -21 -66 19 -8 47 0 143 14 157 8 8 21 4 47 -12 52
-32 65 -22 65 48 0 32 3 62 7 65 3 4 107 7 230 7 l223 0 0 -210z"/>
<path d="M10685 6916 c-29 -21 -29 -121 -1 -142 45 -32 86 -7 92 57 8 78 -40
123 -91 85z m67 -31 c8 -17 8 -37 2 -63 -7 -30 -13 -37 -34 -37 -20 0 -27 7
-33 35 -18 71 37 126 65 65z"/>
<path d="M5897 6943 c-4 -3 -7 -53 -7 -110 0 -85 3 -103 15 -103 12 0 15 18
15 100 0 60 4 100 10 100 6 0 10 5 10 10 0 11 -33 14 -43 3z"/>
<path d="M10140 6876 c0 -21 -5 -26 -25 -26 -14 0 -25 -4 -25 -10 0 -5 11 -10
25 -10 20 0 25 -5 25 -25 0 -14 5 -25 10 -25 6 0 10 11 10 25 0 20 5 25 26 25
14 0 23 4 19 10 -3 6 -15 10 -26 10 -12 0 -19 7 -19 19 0 11 -4 23 -10 26 -6
4 -10 -5 -10 -19z"/>
<path d="M9050 6883 c0 -3 7 -15 17 -25 15 -17 15 -19 -2 -38 -10 -11 -15 -23
-12 -27 4 -3 16 2 27 12 19 17 21 17 40 0 11 -10 23 -15 27 -12 3 4 -2 16 -12
27 -17 19 -17 21 0 40 10 11 15 23 12 27 -4 3 -16 -2 -27 -12 -19 -17 -21 -17
-38 -2 -19 18 -32 22 -32 10z"/>
<path d="M4742 6829 c2 -6 8 -10 13 -10 5 0 11 4 13 10 2 6 -4 11 -13 11 -9 0
-15 -5 -13 -11z"/>
<path d="M4411 6783 c-1 -22 3 -23 69 -23 66 0 70 1 69 23 -1 16 -2 18 -6 5
-4 -15 -16 -18 -63 -18 -47 0 -59 3 -63 18 -4 13 -5 11 -6 -5z"/>
<path d="M5971 6783 c-1 -22 3 -23 69 -23 66 0 70 1 69 23 -1 16 -2 18 -6 5
-4 -15 -16 -18 -63 -18 -47 0 -59 3 -63 18 -4 13 -5 11 -6 -5z"/>
<path d="M7501 6783 c-1 -22 3 -23 69 -23 66 0 70 1 69 23 -1 16 -2 18 -6 5
-4 -15 -16 -18 -63 -18 -47 0 -59 3 -63 18 -4 13 -5 11 -6 -5z"/>
<path d="M4437 6402 c-24 -26 -23 -113 1 -135 24 -22 55 -21 75 1 24 26 23
113 -1 135 -24 22 -55 21 -75 -1z m67 -18 c3 -9 6 -31 6 -49 0 -48 -9 -65 -35
-65 -26 0 -35 17 -35 65 0 48 9 65 35 65 13 0 26 -7 29 -16z"/>
<path d="M4658 6409 c-22 -12 -24 -31 -3 -23 12 5 15 -5 15 -55 0 -54 -2 -61
-20 -61 -11 0 -20 -4 -20 -10 0 -5 25 -10 55 -10 30 0 55 5 55 10 0 6 -9 10
-20 10 -18 0 -20 7 -20 75 0 78 -5 86 -42 64z"/>
<path d="M4570 6265 c0 -8 5 -15 10 -15 6 0 10 7 10 15 0 8 -4 15 -10 15 -5 0
-10 -7 -10 -15z"/>
<path d="M5310 5983 c0 -77 -8 -87 -45 -63 -54 35 -74 24 -90 -49 -9 -43 2
-133 20 -157 13 -18 15 -18 58 3 39 19 46 20 51 7 3 -9 6 -81 6 -160 l0 -144
2435 0 2435 0 0 310 0 310 -2435 0 -2435 0 0 -57z m4850 -253 l0 -290 -2414 0
-2414 0 -3 150 c-3 95 -8 153 -16 161 -8 8 -21 6 -52 -12 -56 -31 -66 -19 -66
81 0 95 11 113 54 87 48 -28 67 -23 75 21 3 20 6 49 6 65 l0 27 2415 0 2415 0
0 -290z"/>
<path d="M6220 5896 c0 -36 -4 -67 -9 -71 -5 -3 -25 4 -44 15 -61 36 -83 8
-81 -110 1 -70 15 -110 40 -110 8 0 28 7 45 15 16 9 34 13 39 10 6 -3 10 -37
10 -76 l0 -69 245 0 245 0 0 230 0 230 -245 0 -245 0 0 -64z m470 -166 l0
-210 -224 0 -224 0 -4 65 c-5 84 -15 94 -68 70 -56 -25 -65 -14 -65 85 0 99 9
110 64 79 52 -29 61 -21 68 60 l6 61 223 0 224 0 0 -210z"/>
<path d="M6432 5802 c-36 -23 -33 -142 4 -156 50 -19 84 13 84 79 0 67 -44
105 -88 77z m57 -26 c17 -20 10 -97 -10 -109 -32 -20 -49 -1 -49 56 0 30 3 57
7 60 11 12 40 8 52 -7z"/>
<path d="M7220 5896 c0 -36 -4 -67 -9 -71 -5 -3 -26 4 -46 16 -33 20 -38 20
-52 6 -21 -21 -33 -100 -23 -160 10 -64 21 -75 63 -58 71 28 67 31 67 -53 l0
-76 345 0 345 0 0 230 0 230 -345 0 -345 0 0 -64z m678 -168 l2 -208 -330 0
-330 0 0 58 c0 34 -6 66 -14 77 -13 19 -15 19 -55 0 -57 -25 -66 -14 -66 85 0
99 9 110 64 79 52 -29 63 -19 69 61 l4 60 327 -2 326 -3 3 -207z"/>
<path d="M7432 5802 c-36 -23 -33 -142 4 -156 50 -19 84 13 84 79 0 67 -44
105 -88 77z m57 -26 c17 -20 10 -97 -10 -109 -32 -20 -49 -1 -49 56 0 30 3 57
7 60 11 12 40 8 52 -7z"/>
<path d="M7639 5789 l-24 -20 23 6 c21 6 22 4 22 -54 0 -54 -2 -61 -20 -61
-11 0 -20 -4 -20 -10 0 -5 23 -10 50 -10 28 0 50 5 50 10 0 6 -9 10 -20 10
-18 0 -20 7 -20 75 0 41 -4 75 -9 75 -5 0 -19 -9 -32 -21z"/>
<path d="M7556 5663 c-11 -11 -6 -23 9 -23 8 0 15 4 15 9 0 13 -16 22 -24 14z"/>
<path d="M8470 5890 c0 -38 -2 -70 -5 -70 -3 0 -24 9 -47 21 -37 19 -42 19
-57 5 -19 -20 -28 -157 -12 -198 12 -32 44 -37 75 -13 39 29 46 20 46 -60 l0
-75 245 0 245 0 0 230 0 230 -245 0 -245 0 0 -70z m470 -160 l0 -210 -225 0
-225 0 0 59 c0 33 -3 66 -6 75 -8 20 -34 21 -60 1 -25 -19 -50 -19 -58 1 -9
25 -7 157 4 174 7 12 15 11 50 -9 55 -31 70 -18 70 60 l0 59 225 0 225 0 0
-210z"/>
<path d="M8685 5790 c-19 -21 -7 -28 13 -8 9 9 12 -3 12 -55 0 -60 -2 -67 -20
-67 -11 0 -20 -4 -20 -10 0 -5 23 -10 50 -10 28 0 50 5 50 10 0 6 -9 10 -20
10 -18 0 -20 7 -20 75 0 81 -10 93 -45 55z"/>
<path d="M9520 5890 c0 -38 -4 -70 -9 -70 -6 0 -27 10 -47 22 l-37 22 -18 -23
c-15 -18 -19 -40 -19 -105 0 -105 13 -127 62 -108 72 29 68 32 68 -52 l0 -76
245 0 245 0 0 230 0 230 -245 0 -245 0 0 -70z m470 -160 l0 -210 -224 0 -224
0 -4 69 c-2 39 -7 73 -11 78 -4 4 -22 1 -40 -6 -60 -25 -71 -21 -78 29 -6 44
2 135 14 146 3 3 24 -4 47 -17 41 -23 42 -23 56 -4 8 10 14 42 14 72 l0 53
225 0 225 0 0 -210z"/>
<path d="M9727 5792 c-24 -26 -23 -113 1 -135 24 -22 55 -21 75 1 24 26 23
113 -1 135 -24 22 -55 21 -75 -1z m67 -18 c3 -9 6 -31 6 -49 0 -48 -9 -65 -35
-65 -26 0 -35 17 -35 65 0 48 9 65 35 65 13 0 26 -7 29 -16z"/>
<path d="M5890 5720 l0 -110 28 0 c24 1 25 2 10 14 -15 11 -18 30 -18 110 0
57 -4 96 -10 96 -6 0 -10 -43 -10 -110z"/>
<path d="M6890 5820 c0 -5 7 -10 15 -10 12 0 15 -18 15 -100 0 -60 4 -100 10
-100 6 0 10 43 10 110 l0 110 -25 0 c-14 0 -25 -4 -25 -10z"/>
<path d="M5500 5730 l0 -90 90 0 90 0 0 90 0 90 -90 0 -90 0 0 -90z m160 0 l0
-70 -70 0 -70 0 0 70 0 70 70 0 70 0 0 -70z"/>
<path d="M5615 5771 c-7 -12 12 -24 25 -16 11 7 4 25 -10 25 -5 0 -11 -4 -15
-9z"/>
<path d="M5546 5703 c-11 -11 -6 -23 9 -23 8 0 15 4 15 9 0 13 -16 22 -24 14z"/>
<path d="M9180 5755 c0 -20 -5 -25 -25 -25 -14 0 -25 -4 -25 -10 0 -5 11 -10
25 -10 20 0 25 -5 25 -25 0 -14 5 -25 10 -25 6 0 10 11 10 25 0 20 5 25 25 25
14 0 25 5 25 10 0 6 -11 10 -25 10 -20 0 -25 5 -25 25 0 14 -4 25 -10 25 -5 0
-10 -11 -10 -25z"/>
<path d="M8090 5760 c0 -5 9 -15 20 -22 19 -12 19 -13 -2 -35 -25 -27 -16 -44
10 -20 23 21 36 21 52 2 7 -9 15 -13 18 -10 3 3 -3 14 -13 25 -17 19 -17 21 0
40 10 11 15 23 12 27 -4 3 -16 -2 -27 -12 -19 -17 -21 -17 -38 -2 -21 19 -32
22 -32 7z"/>
<path d="M10738 5895 c-2 -35 -7 -67 -10 -70 -3 -3 -23 3 -43 14 -20 11 -43
17 -51 14 -36 -14 -44 -187 -10 -221 16 -17 20 -16 87 12 20 9 29 -18 29 -91
l0 -53 415 0 415 0 -2 228 -3 227 -411 3 -412 2 -4 -65z m812 -165 l0 -210
-400 0 -400 0 0 70 c0 80 -13 94 -60 66 -43 -25 -58 -21 -66 19 -8 47 0 143
14 157 8 8 21 4 47 -12 52 -32 65 -22 65 48 0 32 3 62 7 65 3 4 183 7 400 7
l393 0 0 -210z"/>
<path d="M10945 5796 c-29 -21 -29 -121 -1 -142 45 -32 86 -7 92 57 8 78 -40
123 -91 85z m67 -31 c8 -17 8 -37 2 -63 -7 -30 -13 -37 -34 -37 -20 0 -27 7
-33 35 -18 71 37 126 65 65z"/>
<path d="M11147 5792 c-24 -26 -23 -113 1 -135 24 -22 55 -21 75 1 24 26 23
113 -1 135 -24 22 -55 21 -75 -1z m67 -18 c3 -9 6 -31 6 -49 0 -48 -9 -65 -35
-65 -26 0 -35 17 -35 65 0 48 9 65 35 65 13 0 26 -7 29 -16z"/>
<path d="M11298 5756 c-21 -30 -38 -59 -38 -65 0 -6 18 -11 40 -11 33 0 40 -3
40 -20 0 -11 5 -20 10 -20 6 0 10 9 10 19 0 11 6 22 13 25 10 5 10 7 0 12 -8
3 -13 26 -13 60 0 70 -14 70 -62 0z m42 -16 c0 -38 -2 -40 -31 -40 l-30 0 28
40 c15 22 29 40 31 40 1 0 2 -18 2 -40z"/>
<path d="M11076 5663 c-11 -11 -6 -23 9 -23 8 0 15 4 15 9 0 13 -16 22 -24 14z"/>
<path d="M12127 5953 c-4 -3 -7 -35 -7 -70 0 -34 -2 -63 -5 -63 -3 0 -21 9
-41 19 -20 11 -42 17 -49 14 -32 -12 -45 -121 -24 -195 11 -42 39 -50 75 -23
36 27 43 19 46 -57 l3 -73 418 -3 417 -2 -2 227 -3 228 -411 3 c-226 1 -413
-1 -417 -5z m813 -223 l0 -210 -400 0 -400 0 0 70 c0 81 -13 95 -62 67 -40
-23 -55 -21 -62 6 -11 41 -6 143 7 161 13 18 15 18 55 -5 52 -30 62 -20 62 64
l0 57 400 0 400 0 0 -210z"/>
<path d="M12335 5796 c-29 -21 -29 -121 -1 -142 45 -32 86 -7 92 57 8 78 -40
123 -91 85z m67 -31 c8 -17 8 -37 2 -63 -7 -30 -13 -37 -34 -37 -20 0 -27 7
-33 35 -18 71 37 126 65 65z"/>
<path d="M12537 5792 c-24 -26 -23 -113 1 -135 24 -22 55 -21 75 1 24 26 23
113 -1 135 -24 22 -55 21 -75 -1z m67 -18 c3 -9 6 -31 6 -49 0 -48 -9 -65 -35
-65 -26 0 -35 17 -35 65 0 48 9 65 35 65 13 0 26 -7 29 -16z"/>
<path d="M12660 5765 l0 -46 34 6 c27 6 36 3 44 -12 7 -12 7 -25 1 -36 -11
-19 -44 -23 -54 -7 -3 6 -13 10 -22 10 -14 0 -14 -3 2 -20 36 -39 105 -14 105
38 0 27 -42 56 -70 47 -17 -5 -20 -2 -20 19 0 24 4 26 40 26 22 0 40 5 40 10
0 6 -22 10 -50 10 l-50 0 0 -45z"/>
<path d="M12460 5655 c0 -8 5 -15 10 -15 6 0 10 7 10 15 0 8 -4 15 -10 15 -5
0 -10 -7 -10 -15z"/>
<path d="M4440 5790 c0 -16 4 -30 8 -30 5 0 7 14 4 30 -2 17 -6 30 -8 30 -2 0
-4 -13 -4 -30z"/>
<path d="M4530 5715 l0 -95 75 0 75 0 0 95 0 95 -75 0 -75 0 0 -95z m140 0 l0
-85 -65 0 -65 0 0 85 0 85 65 0 65 0 0 -85z"/>
<path d="M4573 5774 c-7 -3 -13 -10 -13 -16 0 -6 6 -6 15 2 18 15 65 5 65 -15
0 -8 -9 -19 -20 -25 -11 -6 -20 -15 -20 -21 0 -5 12 2 27 16 23 20 26 28 17
43 -11 17 -48 25 -71 16z"/>
<path d="M4590 5650 c0 -5 7 -10 15 -10 8 0 15 5 15 10 0 6 -7 10 -15 10 -8 0
-15 -4 -15 -10z"/>
<path d="M11790 5756 c0 -21 -5 -26 -25 -26 -14 0 -25 -4 -25 -10 0 -5 11 -10
25 -10 20 0 25 -5 25 -25 0 -14 5 -25 10 -25 6 0 10 11 10 25 0 20 5 25 26 25
14 0 23 4 19 10 -3 6 -15 10 -26 10 -12 0 -19 7 -19 19 0 11 -4 23 -10 26 -6
4 -10 -5 -10 -19z"/>
<path d="M4932 5759 c3 -8 13 -38 23 -66 11 -29 25 -53 32 -53 16 0 53 72 53
105 0 15 -6 25 -14 25 -9 0 -12 -7 -9 -20 6 -21 -14 -80 -26 -80 -4 0 -14 21
-22 47 -8 25 -21 49 -28 51 -9 3 -12 -1 -9 -9z"/>
<path d="M10360 5765 c0 -5 7 -17 17 -27 15 -17 15 -19 -2 -38 -10 -11 -16
-22 -13 -25 3 -3 13 4 23 15 l18 20 24 -22 c30 -28 43 -15 15 15 l-22 23 22
22 c13 12 17 22 11 22 -6 0 -16 -7 -23 -15 -16 -19 -29 -19 -52 2 -10 9 -18
12 -18 8z"/>
<path d="M4470 5728 c0 -37 7 -34 14 5 2 15 0 27 -5 27 -5 0 -9 -14 -9 -32z"/>
<path d="M4700 5710 c-10 -6 -11 -10 -2 -10 7 0 12 -14 12 -34 0 -19 -6 -37
-12 -39 -7 -3 3 -5 22 -5 19 0 29 2 23 5 -8 3 -13 23 -13 49 0 45 -4 51 -30
34z"/>
<path d="M4445 5190 c-19 -21 -7 -28 13 -8 9 9 12 -3 12 -55 0 -60 -2 -67 -20
-67 -11 0 -20 -4 -20 -10 0 -5 23 -10 50 -10 28 0 50 5 50 10 0 6 -9 10 -20
10 -18 0 -20 7 -20 75 0 81 -10 93 -45 55z"/>
<path d="M4560 5165 l0 -46 33 6 c39 8 62 -12 52 -45 -7 -22 -44 -27 -63 -8
-17 17 -28 2 -12 -17 29 -36 100 -5 100 43 0 27 -42 56 -70 47 -17 -5 -20 -2
-20 19 0 24 4 26 40 26 22 0 40 5 40 10 0 6 -22 10 -50 10 l-50 0 0 -45z"/>
<path d="M4445 4760 c-19 -21 -7 -28 13 -8 9 9 12 -3 12 -55 0 -60 -2 -67 -20
-67 -11 0 -20 -4 -20 -10 0 -5 23 -10 50 -10 28 0 50 5 50 10 0 6 -9 10 -20
10 -18 0 -20 7 -20 75 0 81 -10 93 -45 55z"/>
<path d="M4437 4322 c-24 -26 -23 -113 1 -135 24 -22 55 -21 75 1 24 26 23
113 -1 135 -24 22 -55 21 -75 -1z m67 -18 c3 -9 6 -31 6 -49 0 -48 -9 -65 -35
-65 -26 0 -35 17 -35 65 0 48 9 65 35 65 13 0 26 -7 29 -16z"/>
<path d="M2900 3900 c0 -5 20 -10 45 -10 l44 0 -24 -47 c-32 -66 -40 -103 -20
-103 9 0 15 9 15 25 0 14 11 48 25 75 14 27 25 54 25 60 0 6 -24 10 -55 10
-30 0 -55 -4 -55 -10z"/>
<path d="M330 3450 c0 -12 -10 -24 -22 -30 -18 -7 -19 -9 -5 -9 28 -1 19 -42
-13 -54 -13 -5 -12 -6 1 -6 12 -1 15 -9 13 -28 l-4 -28 12 28 c16 36 52 38 46
2 -3 -14 -1 -25 3 -25 5 0 9 9 9 20 0 12 10 24 23 30 18 7 19 9 3 9 -12 1 -16
6 -12 17 3 9 6 19 6 24 0 5 8 11 18 13 14 4 14 5 1 6 -12 1 -15 9 -13 29 l4
27 -12 -27 c-16 -37 -52 -39 -46 -3 3 14 1 25 -3 25 -5 0 -9 -9 -9 -20z m40
-65 c0 -20 -5 -25 -24 -25 -19 0 -22 4 -18 25 3 16 11 25 23 25 14 0 19 -7 19
-25z"/>
<path d="M328 2205 c-6 -14 -18 -25 -27 -25 -13 0 -13 -2 -2 -9 21 -13 -8
-137 -32 -135 -9 1 -17 -2 -17 -7 0 -5 7 -9 15 -9 21 0 43 38 55 98 8 37 16
52 28 52 13 0 14 2 3 9 -8 5 -11 16 -6 30 9 29 -3 26 -17 -4z"/>
<path d="M928 3456 c-24 -18 -23 -29 2 -21 18 6 20 2 20 -54 0 -58 -1 -61 -25
-61 -14 0 -25 -4 -25 -10 0 -5 25 -10 55 -10 30 0 55 5 55 10 0 6 -9 10 -20
10 -18 0 -20 7 -20 75 0 78 -7 88 -42 61z"/>
<path d="M1055 3456 c-29 -21 -29 -121 -1 -142 45 -32 86 -7 92 57 8 78 -40
123 -91 85z m67 -31 c8 -17 8 -37 2 -63 -7 -30 -13 -37 -34 -37 -20 0 -27 7
-33 35 -18 71 37 126 65 65z"/>
<path d="M921 3021 l21 -29 -26 -57 c-30 -65 -30 -65 -16 -65 6 0 17 18 26 40
9 22 19 40 24 40 4 0 12 -18 19 -40 6 -22 16 -40 21 -40 15 0 13 11 -16 86
-29 77 -40 94 -61 94 -10 0 -8 -8 8 -29z"/>
<path d="M900 2630 c0 -5 5 -10 11 -10 5 0 7 5 4 10 -3 6 -8 10 -11 10 -2 0
-4 -4 -4 -10z"/>
<path d="M900 2580 c0 -5 5 -10 11 -10 5 0 7 5 4 10 -3 6 -8 10 -11 10 -2 0
-4 -4 -4 -10z"/>
<path d="M900 2520 c0 -5 5 -10 11 -10 5 0 7 5 4 10 -3 6 -8 10 -11 10 -2 0
-4 -4 -4 -10z"/>
<path d="M900 2460 c0 -5 5 -10 10 -10 6 0 10 5 10 10 0 6 -4 10 -10 10 -5 0
-10 -4 -10 -10z"/>
<path d="M950 1335 c-12 -14 -12 -18 0 -25 8 -5 17 -5 20 0 3 5 30 10 60 13
l55 3 -57 2 c-31 1 -58 7 -60 13 -2 7 -9 5 -18 -6z"/>
<path d="M1191 2314 c-18 -23 -21 -41 -21 -116 0 -81 2 -91 25 -113 24 -25 25
-25 229 -25 l205 0 20 26 c18 22 21 41 21 114 0 73 -3 92 -21 114 l-20 26
-209 0 -209 0 -20 -26z m437 0 c20 -14 22 -23 22 -113 0 -62 -4 -101 -12 -109
-9 -9 -70 -12 -214 -12 -171 0 -205 2 -218 16 -20 20 -23 182 -3 206 19 25 32
26 222 27 148 1 185 -2 203 -15z"/>
<path d="M1289 2221 c12 -16 21 -32 21 -36 0 -4 -9 -20 -21 -36 -11 -16 -16
-29 -10 -29 6 0 18 12 28 26 l17 26 19 -26 c28 -39 42 -31 17 9 l-22 35 22 30
c16 22 18 30 7 30 -7 0 -19 -12 -26 -27 l-13 -27 -16 27 c-9 15 -23 27 -30 27
-9 0 -7 -8 7 -29z"/>
<path d="M1770 2226 c0 -9 7 -16 16 -16 17 0 14 22 -4 28 -7 2 -12 -3 -12 -12z"/>
<path d="M1810 2220 c0 -6 33 -10 80 -10 47 0 80 4 80 10 0 6 -33 10 -80 10
-47 0 -80 -4 -80 -10z"/>
<path d="M1770 2176 c0 -9 7 -16 16 -16 17 0 14 22 -4 28 -7 2 -12 -3 -12 -12z"/>
<path d="M1810 2170 c0 -6 33 -10 80 -10 47 0 80 4 80 10 0 6 -33 10 -80 10
-47 0 -80 -4 -80 -10z"/>
<path d="M5917 2673 c-4 -3 -7 -35 -7 -70 l0 -63 -45 22 c-43 21 -46 21 -63 5
-14 -14 -17 -35 -17 -107 0 -72 3 -93 17 -107 17 -16 20 -16 63 5 l45 22 2
-328 3 -327 4045 0 4045 0 0 475 0 475 -4041 3 c-2222 1 -4044 -1 -4047 -5z
m8073 -473 l0 -460 -4030 0 -4030 0 0 318 c0 226 -3 321 -11 329 -9 9 -22 7
-52 -9 -39 -19 -41 -20 -54 -2 -8 10 -13 45 -13 84 0 39 5 74 13 84 13 18 15
17 54 -2 52 -27 63 -16 63 60 l0 58 4030 0 4030 0 0 -460z"/>
<path d="M6650 2525 c0 -36 -2 -65 -5 -65 -3 0 -24 9 -47 21 -58 30 -72 13
-76 -89 -6 -123 20 -156 88 -117 14 8 28 14 33 15 4 0 7 -108 7 -240 l0 -240
3075 0 3075 0 0 390 0 390 -3075 0 -3075 0 0 -65z m6130 -325 l0 -380 -3055 0
-3055 0 0 229 c0 126 -3 236 -6 245 -8 20 -33 20 -58 1 -26 -20 -52 -19 -60 1
-11 29 -6 150 7 168 12 17 15 17 50 -4 52 -31 67 -17 67 61 l0 59 3055 0 3055
0 0 -380z"/>
<path d="M7620 2445 c0 -69 -8 -78 -44 -50 -32 25 -62 19 -76 -15 -18 -42 -10
-175 12 -196 15 -16 19 -15 58 5 22 11 43 21 45 21 3 0 5 -72 5 -160 l0 -160
2505 0 2505 0 0 310 0 310 -2505 0 -2505 0 0 -65z m4990 -245 l0 -290 -2485 0
-2485 0 0 148 c0 81 -5 154 -10 162 -8 13 -16 12 -56 -9 -38 -21 -47 -22 -55
-10 -10 16 -12 149 -3 173 8 20 33 20 58 1 26 -20 52 -19 60 1 3 9 6 38 6 65
l0 49 2485 0 2485 0 0 -290z"/>
<path d="M8530 2360 c0 -38 -2 -70 -6 -70 -3 0 -23 10 -44 23 -38 21 -40 21
-57 4 -26 -26 -26 -188 -1 -214 17 -16 20 -16 62 5 l45 21 3 -77 3 -77 243 -3
242 -2 0 230 0 230 -245 0 -245 0 0 -70z m470 -160 l0 -210 -225 0 -225 0 0
70 c0 81 -13 95 -62 67 -59 -34 -68 -22 -68 86 0 98 7 107 62 80 56 -29 68
-18 68 58 l0 59 225 0 225 0 0 -210z"/>
<path d="M8736 2268 c-35 -50 -10 -148 37 -148 31 0 44 11 57 45 13 35 6 88
-16 110 -22 22 -60 19 -78 -7z m69 -63 c0 -51 -3 -60 -19 -63 -25 -5 -46 23
-46 61 0 42 18 69 43 65 20 -3 22 -9 22 -63z"/>
<path d="M9530 2359 c0 -39 -3 -69 -7 -67 -5 2 -25 12 -46 23 -35 18 -38 18
-55 2 -25 -26 -25 -188 0 -214 17 -16 20 -16 62 5 l45 21 3 -77 3 -77 415 0
415 0 0 225 0 225 -417 3 -418 2 0 -71z m818 -156 l-3 -208 -397 -3 -398 -2 0
70 c0 81 -13 95 -62 67 -41 -23 -57 -21 -64 8 -8 32 -1 161 9 171 4 4 27 -2
51 -13 55 -27 66 -18 66 59 l0 58 400 0 400 0 -2 -207z"/>
<path d="M9736 2268 c-35 -50 -10 -148 37 -148 31 0 44 11 57 45 13 35 6 88
-16 110 -22 22 -60 19 -78 -7z m69 -63 c0 -51 -3 -60 -19 -63 -25 -5 -46 23
-46 61 0 42 18 69 43 65 20 -3 22 -9 22 -63z"/>
<path d="M9952 2282 c-36 -23 -33 -142 4 -156 50 -19 84 13 84 79 0 67 -44
105 -88 77z m57 -26 c17 -20 10 -97 -10 -109 -32 -20 -49 -1 -49 56 0 30 3 57
7 60 11 12 40 8 52 -7z"/>
<path d="M10070 2245 l0 -46 34 6 c27 6 36 3 44 -12 7 -12 7 -25 1 -36 -11
-19 -44 -23 -54 -7 -3 6 -13 10 -22 10 -14 0 -14 -3 2 -20 36 -39 105 -14 105
38 0 27 -42 56 -70 47 -17 -5 -20 -2 -20 19 0 24 4 26 40 26 22 0 40 5 40 10
0 6 -22 10 -50 10 l-50 0 0 -45z"/>
<path d="M9870 2135 c0 -8 5 -15 10 -15 6 0 10 7 10 15 0 8 -4 15 -10 15 -5 0
-10 -7 -10 -15z"/>
<path d="M10920 2360 c0 -38 -2 -70 -6 -70 -3 0 -23 10 -44 23 -38 21 -40 21
-57 4 -26 -26 -26 -188 -1 -214 17 -16 20 -16 62 5 l45 21 3 -77 3 -77 243 -3
242 -2 0 230 0 230 -245 0 -245 0 0 -70z m478 -157 l-3 -208 -227 -3 -228 -2
0 70 c0 81 -13 95 -62 67 -59 -34 -68 -22 -68 86 0 98 7 107 62 80 56 -29 68
-18 68 58 l0 59 230 0 230 0 -2 -207z"/>
<path d="M11139 2269 l-24 -20 23 6 c21 6 22 4 22 -54 0 -54 -2 -61 -20 -61
-11 0 -20 -4 -20 -10 0 -5 23 -10 50 -10 28 0 50 5 50 10 0 6 -9 10 -20 10
-18 0 -20 7 -20 75 0 41 -4 75 -9 75 -5 0 -19 -9 -32 -21z"/>
<path d="M11970 2360 c0 -38 -2 -70 -6 -70 -3 0 -23 10 -45 23 l-40 22 -20
-24 c-15 -18 -19 -39 -19 -97 0 -79 14 -124 39 -124 9 0 31 9 49 20 18 11 35
20 37 20 3 0 5 -36 5 -80 l0 -80 245 0 245 0 0 230 0 230 -245 0 -245 0 0 -70z
m470 -160 l0 -210 -225 0 -225 0 0 59 c0 96 -9 105 -75 74 -48 -23 -55 -11
-55 87 0 102 8 112 62 81 40 -23 42 -23 55 -5 7 10 13 42 13 71 l0 53 225 0
225 0 0 -210z"/>
<path d="M12177 2272 c-24 -26 -23 -113 1 -135 24 -22 55 -21 75 1 24 26 23
113 -1 135 -24 22 -55 21 -75 -1z m67 -18 c3 -9 6 -31 6 -49 0 -48 -9 -65 -35
-65 -26 0 -35 17 -35 65 0 18 3 40 6 49 8 21 50 21 58 0z"/>
<path d="M8200 2200 l0 -110 25 0 c14 0 25 5 25 10 0 6 -7 10 -15 10 -12 0
-15 18 -15 100 0 60 -4 100 -10 100 -6 0 -10 -43 -10 -110z"/>
<path d="M9200 2300 c0 -5 7 -10 15 -10 12 0 15 -18 15 -100 0 -60 4 -100 10
-100 6 0 10 43 10 110 l0 110 -25 0 c-14 0 -25 -4 -25 -10z"/>
<path d="M7820 2210 l0 -90 90 0 90 0 0 90 0 90 -90 0 -90 0 0 -90z m160 0 l0
-70 -70 0 -70 0 0 70 0 70 70 0 70 0 0 -70z"/>
<path d="M7930 2245 c0 -8 7 -15 15 -15 8 0 15 7 15 15 0 8 -7 15 -15 15 -8 0
-15 -7 -15 -15z"/>
<path d="M7860 2176 c0 -9 7 -16 16 -16 17 0 14 22 -4 28 -7 2 -12 -3 -12 -12z"/>
<path d="M11630 2235 c0 -20 -5 -25 -25 -25 -14 0 -25 -4 -25 -10 0 -5 11 -10
25 -10 20 0 25 -5 25 -25 0 -14 5 -25 10 -25 6 0 10 11 10 25 0 20 5 25 25 25
14 0 25 5 25 10 0 6 -11 10 -25 10 -20 0 -25 5 -25 25 0 14 -4 25 -10 25 -5 0
-10 -11 -10 -25z"/>
<path d="M10560 2225 l23 -25 -23 -25 c-13 -14 -19 -25 -13 -25 5 0 18 9 28
20 l18 20 24 -22 c26 -25 32 -14 6 14 -15 17 -15 19 2 38 10 11 16 22 13 25
-3 3 -11 -1 -18 -10 -16 -19 -34 -19 -50 0 -7 8 -17 15 -23 15 -6 0 0 -11 13
-25z"/>
<path d="M6850 2291 c0 -5 7 -11 15 -15 22 -8 18 -50 -10 -106 -19 -37 -22
-50 -12 -50 8 0 22 21 32 47 l18 47 17 -44 c30 -76 42 -56 14 22 -15 40 -31
81 -36 91 -9 18 -38 24 -38 8z"/>
<path d="M7186 2177 c-16 -12 -16 -14 5 -32 19 -17 21 -17 16 -3 -5 15 2 18
51 21 l57 3 -58 2 c-36 1 -56 6 -52 12 8 13 2 13 -19 -3z"/>
<path d="M13350 2376 c0 -83 -5 -91 -47 -66 -19 11 -40 20 -48 20 -25 0 -39
-43 -39 -120 0 -114 25 -142 89 -100 38 25 45 15 45 -72 l0 -68 245 0 245 0 0
230 0 230 -245 0 -245 0 0 -54z m470 -176 l0 -210 -225 0 -225 0 0 38 c0 109
-17 130 -79 95 -45 -26 -56 -9 -56 87 0 99 8 109 65 80 24 -12 46 -18 51 -13
5 5 12 37 15 71 l7 62 223 0 224 0 0 -210z"/>
<path d="M13555 2277 c-10 -8 -15 -19 -11 -26 6 -9 11 -8 20 4 16 22 50 15 54
-10 2 -13 -12 -35 -38 -60 -55 -54 -52 -65 15 -65 30 0 55 5 55 10 0 6 -18 10
-40 10 -22 0 -40 3 -40 7 0 3 18 23 40 43 43 40 49 60 24 84 -19 20 -54 21
-79 3z"/>
<path d="M6118 2230 c5 -78 22 -78 22 0 0 41 -4 60 -12 60 -9 0 -12 -17 -10
-60z"/>
<path d="M13000 2270 c0 -12 -10 -24 -22 -30 -18 -7 -19 -9 -5 -9 28 -1 19
-42 -13 -54 -13 -5 -12 -6 1 -6 12 -1 15 -9 13 -28 l-4 -28 12 28 c16 36 52
38 46 2 -3 -14 -1 -25 3 -25 5 0 9 9 9 20 0 12 10 24 23 30 18 7 19 9 3 9 -12
1 -16 6 -12 17 3 9 6 19 6 24 0 5 8 11 18 13 14 4 14 5 1 6 -12 1 -15 9 -13
29 l4 27 -12 -27 c-16 -37 -52 -39 -46 -3 3 14 1 25 -3 25 -5 0 -9 -9 -9 -20z
m40 -65 c0 -20 -5 -25 -24 -25 -19 0 -22 4 -18 25 3 16 11 25 23 25 14 0 19
-7 19 -25z"/>
<path d="M6368 2250 c-14 -16 -22 -30 -17 -32 5 -2 0 -37 -10 -78 -14 -56 -15
-69 -5 -55 15 21 34 80 34 108 0 10 7 20 16 24 11 4 12 8 4 13 -9 6 -9 13 -1
29 16 29 10 26 -21 -9z"/>
<path d="M6415 2270 c3 -5 8 -10 11 -10 2 0 4 5 4 10 0 6 -5 10 -11 10 -5 0
-7 -4 -4 -10z"/>
<path d="M6110 2130 c0 -5 7 -10 15 -10 8 0 15 5 15 10 0 6 -7 10 -15 10 -8 0
-15 -4 -15 -10z"/>
<path d="M6295 2080 c3 -5 8 -10 11 -10 2 0 4 5 4 10 0 6 -5 10 -11 10 -5 0
-7 -4 -4 -10z"/>
<path d="M3198 2365 c-2 -35 -7 -67 -10 -70 -3 -3 -22 4 -42 16 -45 26 -62 20
-75 -28 -20 -72 -6 -178 25 -190 9 -3 33 4 54 16 l38 21 6 -23 c3 -12 6 -48 6
-79 l0 -58 330 0 330 0 0 230 0 230 -329 0 -329 0 -4 -65z m650 -162 l-3 -208
-315 0 -315 0 -3 68 c-3 79 -15 89 -67 61 -50 -26 -60 -12 -60 86 0 98 9 109
62 81 52 -26 63 -15 63 61 l0 58 320 0 320 0 -2 -207z"/>
<path d="M3301 2314 c-18 -23 -21 -41 -21 -116 0 -81 2 -91 25 -113 24 -25 25
-25 225 -25 200 0 201 0 225 25 23 22 25 32 25 113 0 75 -3 93 -21 116 l-20
26 -209 0 -209 0 -20 -26z m429 3 c24 -12 25 -18 28 -105 4 -141 19 -132 -228
-132 -247 0 -232 -9 -228 132 4 121 -2 118 228 118 121 0 183 -4 200 -13z"/>
<path d="M3386 2238 c4 -7 14 -21 22 -30 13 -15 12 -21 -8 -53 -25 -40 -11
-49 15 -9 l17 27 23 -29 c13 -16 26 -26 29 -23 4 3 -3 17 -14 32 -25 31 -25
32 1 68 15 22 17 29 6 29 -7 0 -20 -12 -27 -26 l-14 -25 -19 25 c-19 26 -44
37 -31 14z"/>
<path d="M4520 2360 c0 -38 -2 -70 -6 -70 -3 0 -23 10 -45 23 l-40 22 -20 -24
c-15 -18 -19 -39 -19 -97 0 -79 14 -124 39 -124 9 0 31 9 49 20 18 11 35 20
37 20 3 0 5 -36 5 -80 l0 -80 415 0 415 0 0 230 0 230 -415 0 -415 0 0 -70z
m810 -160 l0 -210 -395 0 -395 0 0 59 c0 96 -9 105 -75 74 -48 -23 -55 -11
-55 87 0 102 8 112 62 81 40 -23 42 -23 55 -5 7 10 13 42 13 71 l0 53 395 0
395 0 0 -210z"/>
<path d="M4727 2272 c-24 -26 -23 -113 1 -135 24 -22 55 -21 75 1 24 26 23
113 -1 135 -24 22 -55 21 -75 -1z m67 -18 c3 -9 6 -31 6 -49 0 -48 -9 -65 -35
-65 -26 0 -35 17 -35 65 0 48 9 65 35 65 13 0 26 -7 29 -16z"/>
<path d="M4935 2276 c-29 -21 -29 -121 -1 -142 45 -32 86 -7 92 57 8 78 -40
123 -91 85z m67 -31 c8 -17 8 -37 2 -63 -7 -30 -13 -37 -34 -37 -20 0 -27 7
-33 35 -18 71 37 126 65 65z"/>
<path d="M5060 2245 l0 -44 38 2 c35 2 37 0 37 -28 0 -24 -5 -31 -23 -33 -13
-2 -30 2 -38 9 -21 17 -28 5 -9 -15 9 -9 27 -16 41 -16 27 0 64 32 64 55 0 26
-40 57 -66 52 -20 -3 -24 0 -24 19 0 21 5 24 34 24 19 0 38 5 41 10 4 6 -13
10 -44 10 l-51 0 0 -45z"/>
<path d="M4860 2135 c0 -8 5 -15 10 -15 6 0 10 7 10 15 0 8 -4 15 -10 15 -5 0
-10 -7 -10 -15z"/>
<path d="M14627 2423 c-4 -3 -7 -35 -7 -70 0 -36 -3 -63 -7 -61 -5 2 -25 12
-46 23 -35 18 -38 18 -55 2 -25 -26 -25 -188 0 -214 17 -16 20 -16 62 5 l45
21 3 -77 3 -77 245 0 245 0 3 228 2 227 -243 0 c-134 0 -247 -3 -250 -7z m473
-223 l0 -210 -227 2 -228 3 -5 70 c-6 78 -20 91 -65 61 -52 -34 -65 -16 -65
90 0 34 6 68 13 78 13 18 15 17 54 -2 52 -27 63 -16 63 60 l0 58 230 0 230 0
0 -210z"/>
<path d="M14848 2279 c-22 -12 -24 -31 -3 -23 12 5 15 -5 15 -55 0 -54 -2 -61
-20 -61 -11 0 -20 -4 -20 -10 0 -5 25 -10 55 -10 30 0 55 5 55 10 0 6 -9 10
-20 10 -18 0 -20 7 -20 75 0 78 -5 86 -42 64z"/>
<path d="M15670 2359 c0 -39 -3 -69 -7 -67 -5 2 -25 12 -46 23 -35 18 -38 18
-55 2 -25 -26 -25 -188 0 -214 17 -16 20 -16 62 5 l45 21 3 -77 3 -77 243 -3
242 -2 0 230 0 230 -245 0 -245 0 0 -71z m478 -156 l-3 -208 -227 -3 -228 -2
0 70 c0 81 -13 95 -62 67 -41 -23 -57 -21 -64 8 -8 32 -1 161 9 171 4 4 27 -2
51 -13 55 -27 66 -18 66 59 l0 58 230 0 230 0 -2 -207z"/>
<path d="M15889 2269 l-24 -20 23 6 c21 6 22 4 22 -54 0 -54 -2 -61 -20 -61
-11 0 -20 -4 -20 -10 0 -5 23 -10 50 -10 28 0 50 5 50 10 0 6 -9 10 -20 10
-18 0 -20 7 -20 75 0 41 -4 75 -9 75 -5 0 -19 -9 -32 -21z"/>
<path d="M16720 2360 c0 -38 -2 -70 -6 -70 -3 0 -23 10 -44 23 -38 21 -40 21
-57 4 -14 -13 -19 -38 -21 -100 -3 -71 -1 -86 16 -107 l20 -25 46 22 46 23 0
-80 0 -80 245 0 245 0 0 230 0 230 -245 0 -245 0 0 -70z m470 -160 l0 -210
-225 0 -225 0 0 59 c0 33 -3 66 -6 75 -8 20 -34 21 -60 1 -25 -19 -50 -19 -58
1 -10 25 -7 158 4 174 8 13 15 12 50 -8 56 -31 70 -19 70 59 l0 59 225 0 225
0 0 -210z"/>
<path d="M16926 2268 c-35 -50 -10 -148 37 -148 31 0 44 11 57 45 13 35 6 88
-16 110 -22 22 -60 19 -78 -7z m69 -63 c0 -51 -3 -60 -19 -63 -25 -5 -46 23
-46 61 0 42 18 69 43 65 20 -3 22 -9 22 -63z"/>
<path d="M4047 2303 c-4 -3 -7 -53 -7 -110 0 -85 3 -103 15 -103 12 0 15 18
15 100 0 60 4 100 10 100 6 0 10 5 10 10 0 11 -33 14 -43 3z"/>
<path d="M2490 2210 l0 -90 90 0 90 0 0 90 0 90 -90 0 -90 0 0 -90z m165 0 l0
-75 -77 -3 -78 -3 0 81 0 81 78 -3 77 -3 0 -75z"/>
<path d="M14200 2253 c0 -4 21 -29 47 -55 33 -34 42 -48 30 -48 -9 0 -17 -4
-17 -10 0 -5 16 -10 35 -10 33 0 35 2 35 35 0 19 -4 35 -10 35 -5 0 -10 -8
-10 -17 0 -12 -14 -3 -48 30 -46 45 -62 55 -62 40z"/>
<path d="M16391 2238 c-1 -23 -6 -28 -25 -28 -14 0 -28 -4 -31 -10 -4 -6 6
-10 24 -10 25 0 30 -5 34 -27 l4 -28 2 28 c1 22 6 27 26 27 14 0 25 5 25 10 0
6 -11 10 -24 10 -19 0 -26 6 -29 28 l-4 27 -2 -27z"/>
<path d="M15310 2225 l23 -25 -23 -25 c-13 -14 -19 -25 -13 -25 5 0 18 9 28
20 l18 20 24 -22 c26 -25 32 -14 6 14 -15 17 -15 19 2 38 10 11 16 22 13 25
-3 3 -11 -1 -18 -10 -16 -19 -34 -19 -50 0 -7 8 -17 15 -23 15 -6 0 0 -11 13
-25z"/>
<path d="M2890 2185 c0 -8 5 -15 10 -15 6 0 10 7 10 15 0 8 -4 15 -10 15 -5 0
-10 -7 -10 -15z"/>
<path d="M4121 2143 c-1 -22 3 -23 69 -23 66 0 70 1 69 23 -1 16 -2 18 -6 5
-4 -15 -16 -18 -63 -18 -47 0 -59 3 -63 18 -4 13 -5 11 -6 -5z"/>
<path d="M5511 2143 c-1 -22 3 -23 74 -23 71 0 75 1 74 23 -1 16 -2 18 -6 5
-4 -15 -16 -18 -68 -18 -52 0 -64 3 -68 18 -4 13 -5 11 -6 -5z"/>
<path d="M1704 1486 c-28 -24 -29 -27 -29 -121 0 -94 1 -98 28 -121 28 -24 31
-24 223 -24 194 0 195 0 219 25 23 22 25 32 25 118 0 146 8 141 -238 145
l-200 3 -28 -25z m430 -12 c12 -12 16 -37 16 -109 0 -72 -4 -97 -16 -109 -13
-14 -47 -16 -214 -16 -239 0 -230 -5 -230 127 0 126 -5 123 234 123 164 0 197
-3 210 -16z"/>
<path d="M1789 1381 c12 -16 21 -32 21 -36 0 -4 -9 -20 -21 -36 -11 -16 -16
-29 -10 -29 6 0 18 12 28 26 l17 26 19 -26 c28 -39 42 -31 17 9 l-22 35 22 30
c16 22 18 30 7 30 -7 0 -19 -12 -26 -27 l-13 -27 -16 27 c-9 15 -23 27 -30 27
-9 0 -7 -8 7 -29z"/>
<path d="M310 760 c0 -39 3 -70 7 -70 22 0 143 55 143 65 0 12 -21 23 -102 56
l-48 19 0 -70z m106 2 c12 -7 6 -12 -28 -25 -24 -10 -47 -17 -51 -17 -4 0 -7
18 -7 40 l0 40 35 -14 c19 -8 42 -19 51 -24z"/>
<path d="M2460 1005 c0 -36 -3 -65 -7 -65 -5 1 -19 7 -33 15 -65 37 -90 9 -90
-100 0 -109 25 -137 90 -100 14 8 28 14 33 15 4 0 7 -72 7 -160 l0 -160 1275
0 1275 0 0 310 0 310 -1275 0 -1275 0 0 -65z m2530 -245 l0 -290 -1255 0
-1255 0 0 144 c0 79 -3 151 -6 160 -8 21 -27 20 -66 -4 -47 -28 -58 -14 -58
77 0 41 5 83 11 94 10 20 10 20 45 0 61 -37 74 -26 74 60 l0 49 1255 0 1255 0
0 -290z"/>
<path d="M2730 927 c0 -35 -3 -66 -6 -70 -3 -3 -20 3 -37 14 -68 41 -87 18
-87 -99 0 -62 4 -85 18 -102 l18 -22 41 20 c22 12 43 18 47 15 3 -4 6 -37 6
-75 l0 -68 335 0 335 0 0 225 0 225 -335 0 -335 0 0 -63z m650 -162 l0 -205
-315 0 -315 0 0 58 c0 33 -6 66 -13 76 -13 18 -15 18 -55 -5 -56 -32 -64 -21
-65 80 -1 99 8 112 58 88 20 -9 42 -17 49 -17 17 0 26 31 26 88 l0 42 315 0
315 0 0 -205z"/>
<path d="M2837 882 c-14 -15 -17 -39 -17 -118 0 -54 4 -104 8 -110 19 -29 56
-34 240 -34 176 0 191 1 216 21 25 20 26 24 26 120 0 145 11 139 -248 139
-190 0 -210 -2 -225 -18z m443 -19 c19 -25 21 -38 18 -109 -2 -49 -8 -87 -17
-97 -12 -15 -40 -17 -217 -17 -243 0 -234 -5 -234 127 0 126 -5 123 234 123
l195 0 21 -27z"/>
<path d="M2922 803 c2 -5 10 -20 17 -35 12 -24 11 -30 -8 -57 -17 -23 -19 -31
-8 -31 7 0 20 12 28 26 l13 26 23 -28 c29 -36 42 -24 15 13 l-21 29 21 32 c23
36 8 44 -17 10 l-16 -23 -16 23 c-14 20 -40 32 -31 15z"/>
<path d="M4150 936 c0 -84 -5 -90 -49 -64 -47 27 -67 20 -80 -29 -20 -70 -6
-178 24 -189 7 -3 31 4 53 15 48 25 52 19 52 -70 l0 -59 345 0 345 0 0 225 0
225 -345 0 -345 0 0 -54z m670 -171 l0 -205 -324 0 -323 0 -7 70 c-4 38 -11
72 -17 75 -5 4 -27 -4 -49 -16 -55 -31 -65 -19 -65 81 0 98 10 112 60 86 50
-27 63 -17 71 53 l7 61 323 0 324 0 0 -205z"/>
<path d="M4362 842 c-36 -23 -33 -142 4 -156 50 -19 84 13 84 79 0 67 -44 105
-88 77z m57 -26 c17 -20 10 -97 -10 -109 -32 -20 -49 -1 -49 56 0 30 3 57 7
60 11 12 40 8 52 -7z"/>
<path d="M4556 834 c-9 -8 -13 -20 -10 -26 5 -7 11 -5 19 5 16 22 51 22 59 1
4 -11 -9 -33 -39 -65 -25 -26 -45 -53 -45 -59 0 -6 23 -10 55 -10 30 0 55 5
55 10 0 6 -19 10 -41 10 l-42 0 42 45 c22 24 41 51 41 59 0 40 -64 61 -94 30z"/>
<path d="M4486 703 c-11 -11 -6 -23 9 -23 8 0 15 4 15 9 0 13 -16 22 -24 14z"/>
<path d="M3481 874 c-17 -22 -21 -41 -21 -106 0 -82 15 -130 45 -142 9 -3 109
-6 221 -6 204 0 205 0 229 25 23 22 25 32 25 120 0 141 12 135 -259 135 l-220
0 -20 -26z m457 0 c20 -14 22 -23 22 -114 0 -88 -2 -100 -19 -110 -12 -6 -102
-10 -222 -10 -249 0 -239 -5 -239 122 0 132 -7 128 238 128 163 0 201 -3 220
-16z"/>
<path d="M3580 805 c0 -5 7 -17 17 -27 15 -17 15 -19 -2 -38 -10 -11 -16 -22
-13 -25 3 -3 13 4 23 15 l18 20 24 -22 c30 -28 43 -15 15 15 l-22 23 22 22
c13 12 17 22 11 22 -6 0 -16 -7 -23 -15 -16 -19 -29 -19 -52 2 -10 9 -18 12
-18 8z"/>
<path d="M1047 983 c-4 -3 -7 -35 -7 -70 l0 -64 -40 23 c-48 28 -70 19 -83
-33 -13 -49 -3 -158 17 -177 14 -15 20 -14 61 6 l45 22 0 -75 0 -75 335 0 335
0 0 225 0 225 -328 0 c-181 0 -332 -3 -335 -7z m643 -218 l0 -205 -315 0 -315
0 0 63 c0 87 -8 95 -60 66 -41 -23 -42 -23 -56 -4 -14 19 -19 120 -8 163 7 26
22 28 62 5 47 -27 62 -13 62 57 l0 60 315 0 315 0 0 -205z"/>
<path d="M1164 892 c-24 -16 -34 -55 -34 -137 0 -78 2 -88 25 -110 24 -25 25
-25 225 -25 200 0 201 0 225 25 23 22 25 32 25 113 0 75 -3 93 -21 116 l-20
26 -207 0 c-114 0 -212 -4 -218 -8z m424 -18 c20 -14 22 -23 22 -106 0 -134
10 -128 -231 -128 -166 0 -200 2 -213 16 -12 12 -16 37 -16 109 0 129 -7 125
230 125 152 0 190 -3 208 -16z"/>
<path d="M1246 795 c-21 -22 -10 -42 30 -55 19 -7 34 -18 34 -27 0 -13 -8 -14
-42 -9 -36 6 -40 5 -28 -9 16 -20 64 -19 84 1 22 21 5 50 -34 59 -18 4 -30 13
-30 22 0 12 8 14 35 10 35 -6 48 6 19 17 -26 10 -52 7 -68 -9z"/>
<path d="M1800 880 c-17 -17 -20 -33 -20 -115 0 -88 2 -98 25 -120 24 -25 25
-25 229 -25 112 0 212 3 221 6 30 12 45 60 45 142 0 65 -4 84 -21 106 l-20 26
-220 0 c-206 0 -220 -1 -239 -20z m460 -10 c17 -17 20 -33 20 -107 0 -129 11
-123 -245 -123 -151 0 -214 3 -223 12 -8 8 -12 46 -12 107 0 138 -12 131 237
131 190 0 204 -1 223 -20z"/>
<path d="M1930 795 c0 -20 -5 -25 -25 -25 -14 0 -25 -4 -25 -10 0 -5 11 -10
25 -10 20 0 25 -5 25 -25 0 -14 5 -25 10 -25 6 0 10 11 10 25 0 20 5 25 25 25
14 0 25 5 25 10 0 6 -11 10 -25 10 -20 0 -25 5 -25 25 0 14 -4 25 -10 25 -5 0
-10 -11 -10 -25z"/>
</g>
</svg>
