<?xml version="1.0" standalone="no"?>
<!DOCTYPE svg PUBLIC "-//W3C//DTD SVG 20010904//EN"
 "http://www.w3.org/TR/2001/REC-SVG-20010904/DTD/svg10.dtd">
<svg version="1.0" xmlns="http://www.w3.org/2000/svg"
 width="1543.000000pt" height="927.000000pt" viewBox="0 0 1543.000000 927.000000"
 preserveAspectRatio="xMidYMid meet">
<metadata>
Created by potrace 1.16, written by Peter Selinger 2001-2019
</metadata>
<g transform="translate(0.000000,927.000000) scale(0.100000,-0.100000)"
fill="#000000" stroke="none">
<path d="M273 9023 c-43 -8 -81 -58 -88 -116 -3 -28 -5 -1980 -3 -4337 3
-4119 4 -4286 21 -4318 36 -66 -120 -62 2147 -62 l2060 0 0 330 0 330 -1215 0
-1215 0 0 180 0 180 -307 0 -308 0 33 20 c32 20 54 20 6607 20 l6575 0 -2 467
-3 468 -6567 3 -6568 2 0 175 0 175 -115 0 -115 0 0 170 0 170 778 2 777 3 3
178 2 177 630 0 630 0 0 365 0 365 55 0 55 0 0 180 0 180 3445 0 3445 0 0 330
0 330 -3415 0 -3415 0 0 170 0 170 2585 0 2585 0 0 260 0 260 -2865 0 -2865 0
0 180 0 180 -335 0 -335 0 0 185 0 185 -300 0 -300 0 0 170 0 170 255 0 255 0
0 180 0 180 6198 2 6197 3 3 328 2 327 -6155 0 -6155 0 0 180 0 180 -300 0
-300 0 0 175 0 175 400 0 400 0 0 190 0 190 -1281 0 -1280 0 -44 -30 c-24 -16
-51 -30 -60 -30 -9 0 -36 14 -60 30 -36 25 -53 30 -97 29 -29 -1 -63 -4 -75
-6z m169 -38 c20 -14 49 -25 63 -25 14 0 43 11 63 25 l37 25 1277 0 1278 0 0
-175 0 -174 -1274 6 -1274 6 -43 -31 c-53 -40 -69 -40 -124 -2 -41 28 -49 30
-144 30 l-101 0 0 133 c0 109 3 137 17 157 29 43 45 49 118 50 59 0 76 -4 107
-25z m-4 -360 c20 -14 50 -25 67 -25 17 0 47 11 67 25 l37 25 285 0 286 0 0
-43 c0 -53 -6 -61 -34 -42 -49 35 -76 8 -76 -77 0 -81 8 -98 41 -98 15 0 31 5
34 10 3 6 13 10 21 10 12 0 14 -102 14 -735 l0 -735 -288 0 -288 0 -40 -30
c-21 -16 -48 -29 -59 -29 -11 0 -38 13 -59 29 -38 29 -44 30 -143 30 l-103 0
0 855 0 855 101 0 c90 0 104 -2 137 -25z m1412 -26 l0 -51 -26 16 c-44 29 -68
18 -78 -37 -5 -28 -5 -66 0 -90 9 -38 12 -42 39 -41 17 0 38 4 48 8 16 8 17
-31 17 -728 l0 -736 -330 0 -330 0 0 739 c0 468 -4 742 -10 746 -5 3 -24 -1
-41 -10 -21 -12 -35 -13 -42 -6 -15 15 -20 102 -8 134 11 27 11 27 42 12 46
-24 59 -14 59 45 l0 50 330 0 330 0 0 -51z m510 -172 c0 -123 -3 -226 -6 -230
-3 -3 -22 2 -41 11 -33 16 -36 16 -49 -3 -19 -26 -19 -145 1 -171 13 -18 15
-18 45 -1 18 9 36 15 41 11 13 -7 12 -841 -1 -849 -5 -3 -24 2 -41 12 -30 17
-31 17 -45 -1 -9 -13 -14 -45 -14 -92 0 -89 13 -106 64 -81 19 9 37 13 40 10
3 -4 6 -28 6 -55 l0 -48 -245 0 -245 0 0 733 c0 443 -4 738 -10 747 -8 13 -14
13 -44 -4 -19 -10 -39 -15 -45 -12 -13 9 -15 152 -2 161 5 3 26 -2 46 -12 44
-21 55 -11 55 55 l0 42 245 0 245 0 0 -223z m590 -367 c0 -126 -2 -230 -5
-230 -2 0 -20 8 -40 17 -47 22 -58 10 -63 -70 -6 -102 22 -141 74 -102 10 8
22 15 27 15 4 0 7 -88 7 -195 l0 -195 -290 0 -290 0 0 379 c0 224 -4 382 -9
386 -5 3 -26 -2 -45 -12 -20 -9 -38 -14 -42 -11 -10 11 -17 86 -10 122 5 26
12 36 26 36 10 0 22 -4 25 -10 3 -5 17 -10 31 -10 23 0 24 3 24 55 l0 55 290
0 290 0 0 -230z m12310 -450 l0 -310 -6145 0 -6145 0 0 188 c0 103 -4 194 -10
202 -7 12 -14 12 -44 2 -20 -7 -40 -10 -46 -7 -5 3 -10 38 -10 76 0 78 11 92
54 64 36 -24 56 -6 56 51 l0 44 6145 0 6145 0 0 -310z m-12390 -500 l0 -170
-250 0 -250 0 0 60 c0 67 -7 72 -61 45 -29 -15 -29 -15 -40 12 -11 29 -8 127
4 140 4 4 23 -1 43 -10 19 -10 40 -15 45 -12 5 4 9 28 9 56 l0 49 250 0 250 0
0 -170z m-2428 -215 c20 -14 49 -25 63 -25 14 0 43 11 63 25 l37 25 287 0 288
0 0 -46 c0 -43 -1 -46 -22 -39 -61 19 -75 18 -81 -7 -12 -42 -7 -134 7 -153
13 -18 18 -18 48 -7 19 6 37 12 41 12 4 0 7 -850 7 -1890 l0 -1890 -286 0
-285 0 -44 -30 c-24 -16 -51 -30 -60 -30 -9 0 -36 14 -60 30 -41 28 -49 30
-144 30 l-101 0 0 2010 0 2010 103 0 c93 0 106 -2 139 -25z m1408 -26 l0 -51
-26 16 c-42 28 -67 18 -77 -33 -5 -24 -5 -64 0 -90 9 -53 34 -64 77 -35 l26
16 0 -1901 0 -1901 -314 0 c-173 0 -321 3 -330 6 -15 6 -16 182 -16 1900 0
2073 4 1929 -56 1889 -37 -24 -49 -7 -49 70 0 79 11 93 54 70 17 -9 36 -13 41
-10 6 3 10 28 10 56 l0 49 330 0 330 0 0 -51z m510 -172 c0 -123 -3 -227 -6
-230 -4 -3 -16 0 -28 8 -51 37 -76 8 -76 -87 0 -92 7 -98 88 -73 l22 7 0
-1580 c0 -1011 -3 -1583 -10 -1587 -5 -3 -24 2 -41 11 -31 15 -33 15 -46 -2
-8 -11 -13 -46 -13 -90 0 -89 13 -106 66 -81 41 20 47 13 42 -54 l-3 -44 -242
-3 -243 -2 0 1892 c0 1143 -4 1899 -10 1908 -8 12 -14 12 -45 -3 -20 -10 -41
-15 -46 -12 -5 4 -9 39 -9 80 0 41 4 76 9 80 5 3 26 -2 46 -12 44 -21 55 -11
55 55 l0 42 245 0 245 0 0 -223z m590 -367 c0 -126 -3 -230 -7 -230 -5 0 -17
7 -27 15 -52 39 -80 0 -74 -102 5 -80 16 -92 63 -70 20 9 38 17 40 17 3 0 5
-607 5 -1350 l0 -1350 -290 0 -290 0 0 1535 c0 1674 4 1568 -55 1529 -26 -17
-28 -17 -41 1 -16 22 -18 92 -4 130 10 25 10 25 41 10 46 -24 59 -14 59 45 l0
50 290 0 290 0 0 -230z m670 -360 c0 -126 -2 -230 -5 -230 -2 0 -20 8 -40 17
-47 22 -58 10 -63 -70 -6 -102 22 -141 74 -102 10 8 22 15 27 15 4 0 7 -81 7
-180 0 -99 -2 -180 -4 -180 -2 0 -20 7 -41 16 -49 20 -58 10 -63 -69 -6 -102
22 -141 74 -102 10 8 22 15 27 15 4 0 7 -49 7 -110 0 -60 -3 -110 -7 -110 -4
0 -22 6 -41 12 -30 11 -35 11 -48 -7 -16 -22 -19 -111 -4 -150 11 -28 16 -29
78 -10 l22 7 0 -251 0 -252 -30 16 c-42 22 -59 19 -71 -12 -14 -37 -6 -140 12
-158 12 -13 18 -13 43 0 15 8 32 15 37 15 5 0 9 -49 9 -110 0 -60 -3 -110 -7
-110 -5 0 -17 7 -27 15 -48 36 -76 5 -76 -85 0 -53 16 -100 34 -100 6 1 22 7
36 15 14 8 28 14 33 15 4 0 7 -49 7 -110 0 -60 -2 -110 -5 -110 -2 0 -20 8
-40 17 -50 24 -60 10 -60 -87 0 -97 10 -111 60 -87 20 9 38 17 40 17 3 0 5
-25 5 -55 l0 -55 -325 0 -325 0 0 1343 c0 1059 -3 1347 -12 1360 -12 15 -16
16 -42 2 -47 -25 -56 -14 -56 64 0 38 5 73 10 76 6 3 26 0 46 -7 43 -15 54 -4
54 60 l0 42 325 0 325 0 0 -230z m5740 -380 l0 -240 -2860 0 -2860 0 0 118 c0
140 -5 151 -54 134 -20 -7 -40 -10 -46 -7 -5 3 -10 38 -10 76 0 79 11 92 55
63 26 -17 28 -17 41 1 8 10 14 36 14 57 l0 38 2860 0 2860 0 0 -240z m-5170
-430 l0 -170 -275 0 -275 0 0 44 c0 77 -16 92 -65 60 -13 -9 -29 -13 -35 -9
-5 3 -10 40 -10 81 0 84 11 97 55 68 26 -17 28 -17 41 1 8 10 14 36 14 57 l0
38 275 0 275 0 0 -170z m6830 -500 l0 -310 -3690 0 -3690 0 0 188 c0 103 -4
194 -10 202 -8 12 -14 12 -45 -3 -20 -10 -41 -15 -46 -12 -12 8 -12 152 0 160
5 3 26 -2 46 -12 44 -21 55 -11 55 55 l0 42 3690 0 3690 0 0 -310z m-6890
-505 l0 -175 -244 0 -244 0 -4 60 c-2 33 -7 63 -11 67 -4 3 -23 -1 -43 -10
-19 -10 -40 -15 -45 -12 -13 8 -11 152 1 160 6 4 22 0 35 -9 48 -31 65 -17 65
55 l0 39 245 0 245 0 0 -175z m-110 -360 l0 -175 -190 0 -190 0 0 48 c0 27 -6
57 -14 67 -13 18 -15 18 -41 1 -46 -30 -56 -16 -53 71 2 45 7 77 13 76 6 -1
25 -8 43 -15 41 -16 52 -3 52 60 l0 42 190 0 190 0 0 -175z m-2 -362 l2 -173
-190 0 -190 0 0 46 c0 25 -5 54 -10 65 -10 18 -13 18 -41 3 -49 -25 -59 -14
-59 66 0 80 11 93 55 64 26 -17 28 -17 41 1 8 10 14 38 14 62 l0 43 188 -2
187 -3 3 -172z m-1268 -363 l0 -170 -190 0 -190 0 0 60 c0 67 -7 72 -61 45
-29 -15 -29 -15 -40 12 -11 29 -8 127 4 140 4 4 23 -1 43 -10 19 -10 40 -15
45 -12 5 4 9 28 9 56 l0 49 190 0 190 0 0 -170z m-2310 -215 c22 -14 52 -25
67 -25 16 0 45 11 65 25 24 17 51 25 77 25 l41 0 0 -46 c0 -43 -1 -46 -22 -39
-82 25 -88 20 -88 -80 0 -100 6 -105 87 -80 22 7 22 6 22 -96 -1 -57 -3 -107
-6 -111 -2 -5 -18 0 -34 9 -49 29 -63 11 -67 -84 -2 -64 1 -83 13 -93 14 -11
21 -11 46 4 16 9 34 14 39 11 7 -4 10 -254 10 -716 l0 -709 -41 0 c-29 0 -53
-9 -84 -30 -24 -16 -50 -30 -58 -30 -8 0 -34 13 -58 30 -42 28 -49 30 -146 30
l-103 0 0 1015 0 1015 100 0 c90 0 105 -3 140 -25z m750 -145 l0 -170 -245 0
-245 0 0 54 c0 30 -5 58 -11 62 -6 3 -26 -2 -44 -12 -19 -10 -38 -15 -42 -10
-10 10 -10 152 0 162 4 4 21 0 38 -10 45 -26 59 -16 59 44 l0 50 245 0 245 0
0 -170z m230 -359 l0 -168 -40 -27 c-51 -33 -67 -33 -119 5 -40 30 -46 31
-111 27 -81 -6 -116 -25 -136 -75 -21 -49 -16 -813 4 -854 27 -52 55 -59 236
-59 l166 0 0 -50 c0 -27 -2 -50 -5 -50 -2 0 -20 8 -40 17 -48 23 -58 10 -63
-76 -6 -100 22 -136 74 -96 30 23 34 19 34 -40 l0 -55 -360 0 -360 0 0 719 c0
507 -3 722 -11 727 -6 3 -26 -2 -44 -12 -19 -10 -37 -15 -41 -11 -13 12 -16
111 -5 140 11 27 11 27 40 12 53 -27 61 -21 61 40 l0 55 360 0 360 0 0 -169z
m-153 -211 c26 -16 52 -30 58 -30 6 0 32 14 58 30 l48 30 284 0 285 0 0 -34
c0 -19 -3 -41 -6 -50 -5 -14 -8 -14 -27 -1 -28 20 -63 19 -71 -1 -11 -30 -6
-150 7 -168 13 -17 15 -17 45 -2 17 9 36 16 42 16 7 0 10 -106 10 -330 l0
-330 -281 0 -282 0 -49 -30 c-26 -16 -56 -30 -66 -30 -9 0 -37 14 -62 30 -39
26 -54 30 -112 30 -61 0 -69 3 -97 31 l-31 31 0 383 0 384 31 36 c30 34 34 35
100 35 59 0 75 -4 116 -30z m13293 -420 l0 -450 -6275 0 -6275 0 0 334 c0 230
-3 337 -11 342 -6 3 -26 -2 -44 -12 -19 -10 -37 -15 -41 -11 -13 13 -17 123
-5 146 11 20 13 20 42 5 46 -23 59 -13 59 46 l0 50 6275 0 6275 0 0 -450z
m-13406 -468 c51 -3 79 -9 97 -23 l24 -19 -81 0 c-99 0 -140 13 -159 51 -21
40 -19 43 16 17 23 -17 47 -24 103 -26z m806 -227 l0 -175 -260 0 -260 0 0 39
c0 22 -4 51 -10 66 -9 25 -11 25 -39 10 -48 -24 -58 -20 -64 29 -8 57 2 116
20 116 7 0 25 -7 39 -16 33 -22 45 -9 52 55 l5 51 258 0 259 0 0 -175z m-1518
-220 c20 -14 49 -25 63 -25 14 0 43 11 63 25 30 21 49 25 104 25 l68 0 0 -45
c0 -25 -2 -45 -5 -45 -4 0 -20 7 -37 16 -26 14 -32 14 -44 2 -35 -34 -24 -188
12 -188 8 0 28 7 44 15 l30 16 0 -196 0 -195 -237 0 c-210 0 -240 2 -259 18
-42 33 -44 50 -44 331 l0 271 103 0 c93 0 106 -2 139 -25z m3948 -285 l0 -310
-1815 0 -1815 0 0 195 c0 217 -3 225 -62 190 -39 -23 -48 -10 -48 70 0 83 9
94 55 69 43 -23 55 -12 55 54 l0 42 1815 0 1815 0 0 -310z"/>
<path d="M753 8845 c0 -65 1 -72 7 -37 6 42 25 66 42 56 4 -3 8 -25 8 -50 0
-24 5 -44 11 -44 6 0 9 21 7 53 -3 52 -3 52 -35 51 -27 -2 -32 2 -36 25 -2 14
-4 -10 -4 -54z"/>
<path d="M1820 8845 c0 -43 4 -75 10 -75 6 0 10 32 10 75 0 43 -4 75 -10 75
-6 0 -10 -32 -10 -75z"/>
<path d="M1870 8845 c0 -43 4 -75 10 -75 6 0 10 32 10 75 0 43 -4 75 -10 75
-6 0 -10 -32 -10 -75z"/>
<path d="M1915 8910 c3 -5 8 -10 11 -10 2 0 4 5 4 10 0 6 -5 10 -11 10 -5 0
-7 -4 -4 -10z"/>
<path d="M2031 8898 c-1 -25 -4 -27 -31 -22 -26 6 -31 3 -40 -21 -7 -17 -7
-38 -2 -54 7 -22 15 -26 48 -27 l39 -1 -3 51 c-1 28 -4 62 -6 76 -3 24 -3 24
-5 -2z m-11 -47 c13 -26 13 -33 -4 -56 -12 -16 -16 -17 -30 -6 -19 16 -21 52
-4 69 17 17 26 15 38 -7z"/>
<path d="M2446 8898 c-30 -43 -13 -168 23 -168 5 0 0 17 -10 37 -10 21 -19 47
-19 58 0 11 9 37 19 58 21 40 12 50 -13 15z"/>
<path d="M2975 8890 c8 -16 15 -45 15 -65 0 -20 -7 -49 -15 -65 -10 -19 -11
-30 -5 -30 14 0 40 62 40 95 0 33 -26 95 -40 95 -6 0 -5 -11 5 -30z"/>
<path d="M347 8903 c-10 -10 -8 -43 2 -43 5 0 8 11 7 25 0 14 -1 25 -2 25 0 0
-4 -3 -7 -7z"/>
<path d="M376 8894 c-8 -22 -7 -34 3 -34 5 0 9 11 9 25 0 29 -3 31 -12 9z"/>
<path d="M540 8906 c0 -24 44 -136 52 -134 6 2 18 28 27 58 l17 55 13 -58 c8
-32 20 -57 27 -57 7 0 20 25 28 55 9 30 19 61 22 70 3 8 1 15 -5 15 -6 0 -18
-26 -27 -57 l-17 -58 -16 54 c-9 30 -21 56 -27 58 -5 2 -17 -23 -26 -54 -16
-60 -19 -59 -38 15 -6 23 -15 42 -20 42 -6 0 -10 -2 -10 -4z"/>
<path d="M1032 8898 c-24 -24 -13 -46 31 -60 23 -8 42 -21 42 -29 0 -18 -52
-24 -71 -8 -11 9 -14 8 -14 -5 0 -20 45 -32 79 -20 19 7 26 17 26 34 0 21 -8
27 -42 38 -24 8 -43 20 -43 27 0 17 33 25 54 13 22 -12 36 0 16 12 -21 14 -64
12 -78 -2z"/>
<path d="M1582 8894 c-45 -31 -16 -124 39 -124 27 0 59 18 59 32 0 9 -3 9 -12
0 -7 -7 -24 -12 -38 -12 -33 0 -50 17 -50 50 0 14 5 31 12 38 16 16 65 15 71
0 2 -7 8 -9 13 -5 12 11 -24 37 -51 37 -11 0 -31 -7 -43 -16z"/>
<path d="M2260 8895 c-7 -9 -9 -19 -5 -23 4 -4 10 -1 12 6 6 15 49 16 58 1 4
-6 -2 -21 -14 -33 -12 -12 -21 -26 -21 -31 0 -11 39 25 51 47 20 37 -53 66
-81 33z"/>
<path d="M2533 8896 c22 -17 24 -94 2 -102 -8 -4 -22 0 -31 7 -14 12 -16 11
-13 -6 5 -27 49 -33 66 -9 7 10 13 42 13 71 0 51 -1 53 -27 53 -25 -1 -26 -2
-10 -14z"/>
<path d="M850 8875 c0 -2 9 -27 20 -54 l20 -51 -22 -20 c-17 -16 -18 -20 -6
-20 9 0 20 6 26 13 16 19 53 119 49 131 -3 6 -10 -2 -16 -19 -6 -16 -14 -37
-17 -45 -4 -10 -12 0 -22 28 -9 23 -20 42 -24 42 -4 0 -8 -2 -8 -5z"/>
<path d="M1150 8836 c0 -51 13 -65 58 -64 32 1 32 1 32 55 0 66 -18 71 -22 6
-3 -40 -6 -48 -23 -48 -17 0 -20 8 -23 48 -4 59 -22 62 -22 3z"/>
<path d="M1271 8800 c1 -41 4 -63 6 -48 4 24 8 27 33 21 25 -4 31 -1 41 21 9
19 10 35 3 54 -8 23 -15 27 -47 27 l-37 1 1 -76z m57 58 c17 -17 15 -53 -4
-69 -14 -11 -18 -10 -30 6 -17 23 -17 30 -4 56 12 22 21 24 38 7z"/>
<path d="M1392 8868 c-7 -7 -12 -26 -12 -43 0 -17 5 -36 12 -43 17 -17 53 -15
68 3 14 17 0 21 -16 5 -15 -15 -44 -1 -44 21 0 15 7 19 35 19 22 0 35 5 35 13
0 19 -21 37 -45 37 -12 0 -26 -5 -33 -12z m42 -4 c25 -9 19 -24 -9 -24 -24 0
-32 10 -18 23 8 8 8 8 27 1z"/>
<path d="M1490 8824 c0 -30 5 -54 10 -54 6 0 10 17 10 37 0 20 7 44 15 53 15
16 14 18 -10 18 -24 0 -25 -3 -25 -54z"/>
<path d="M1713 8854 c-15 -24 -15 -29 -2 -53 21 -37 70 -37 83 1 23 65 -44
108 -81 52z m51 10 c21 -8 21 -58 0 -75 -14 -11 -18 -10 -30 6 -17 23 -18 47
-2 63 14 14 12 14 32 6z"/>
<path d="M1910 8825 c0 -30 5 -55 10 -55 6 0 10 25 10 55 0 30 -4 55 -10 55
-5 0 -10 -25 -10 -55z"/>
<path d="M2082 8868 c-7 -7 -12 -26 -12 -43 0 -17 5 -36 12 -43 17 -17 53 -15
68 3 15 18 -1 20 -18 3 -8 -8 -15 -8 -27 2 -27 22 -18 40 20 40 22 0 35 5 35
13 0 19 -21 37 -45 37 -12 0 -26 -5 -33 -12z m56 -16 c2 -7 -7 -12 -22 -12
-27 0 -35 15 -13 23 17 7 30 3 35 -11z"/>
<path d="M2191 8820 l1 -55 9 44 c4 24 16 49 26 57 16 12 16 13 -9 12 -27 -2
-28 -4 -27 -58z"/>
<path d="M2601 8820 l2 -55 6 43 c13 78 51 83 51 6 0 -59 18 -57 22 4 2 34 7
47 18 47 11 0 16 -13 18 -47 2 -27 8 -48 13 -48 6 0 9 22 7 53 l-3 52 -67 0
-68 0 1 -55z"/>
<path d="M2776 8864 c-9 -8 -16 -26 -16 -39 0 -46 53 -72 80 -40 14 17 3 20
-20 5 -19 -12 -40 6 -40 35 0 29 21 47 40 35 23 -15 34 -12 20 5 -16 19 -44
19 -64 -1z"/>
<path d="M2876 8864 c-9 -8 -16 -26 -16 -39 0 -46 53 -72 80 -40 14 17 3 20
-20 5 -19 -12 -40 6 -40 35 0 29 21 47 40 35 23 -15 34 -12 20 5 -16 19 -44
19 -64 -1z"/>
<path d="M2280 8780 c0 -5 5 -10 10 -10 6 0 10 5 10 10 0 6 -4 10 -10 10 -5 0
-10 -4 -10 -10z"/>
<path d="M351 7821 c-21 -13 -6 -40 29 -52 16 -6 30 -15 30 -19 0 -15 -31 -20
-52 -9 -16 9 -19 8 -16 -3 3 -7 19 -13 39 -13 28 0 35 4 37 23 3 18 -3 25 -27
33 -17 6 -31 15 -31 19 0 16 20 21 41 9 17 -9 20 -8 17 3 -5 16 -47 22 -67 9z"/>
<path d="M756 7811 c-4 -7 -5 -15 -2 -18 9 -9 19 4 14 18 -4 11 -6 11 -12 0z"/>
<path d="M790 7800 c0 -6 27 -10 60 -10 33 0 60 4 60 10 0 6 -27 10 -60 10
-33 0 -60 -4 -60 -10z"/>
<path d="M750 7760 c0 -5 5 -10 10 -10 6 0 10 5 10 10 0 6 -4 10 -10 10 -5 0
-10 -4 -10 -10z"/>
<path d="M790 7760 c0 -6 27 -10 60 -10 33 0 60 4 60 10 0 6 -27 10 -60 10
-33 0 -60 -4 -60 -10z"/>
<path d="M1340 7853 c0 -4 11 -19 25 -33 l25 -26 -25 -24 c-39 -37 -33 -50 25
-50 28 0 50 5 50 10 0 6 -19 10 -42 10 l-41 0 21 23 c26 28 27 35 5 59 -15 17
-14 18 15 18 17 0 34 5 37 10 4 6 -13 10 -44 10 -28 0 -51 -3 -51 -7z"/>
<path d="M2020 8500 c0 -27 5 -50 10 -50 6 0 10 23 10 50 0 28 -4 50 -10 50
-5 0 -10 -22 -10 -50z"/>
<path d="M2020 8420 c0 -5 5 -10 10 -10 6 0 10 5 10 10 0 6 -4 10 -10 10 -5 0
-10 -4 -10 -10z"/>
<path d="M2038 7830 c-14 -16 -23 -30 -18 -30 7 0 1 -37 -16 -105 -4 -15 -1
-14 10 5 8 14 18 42 21 63 4 20 10 37 14 37 4 0 7 10 7 23 -1 16 4 21 18 19
11 -2 15 1 11 7 -10 17 -18 13 -47 -19z"/>
<path d="M2041 7163 c0 -14 -8 -23 -18 -24 -11 0 -13 -3 -5 -6 19 -7 15 -43
-5 -43 -12 0 -14 -3 -7 -8 7 -4 14 -16 17 -27 4 -18 5 -18 6 3 1 15 7 22 22
22 16 0 20 -5 16 -20 -3 -11 -1 -18 4 -14 5 3 9 12 9 20 0 8 8 14 18 15 10 0
12 3 5 6 -14 5 -18 43 -4 43 4 0 6 12 3 27 -5 26 -5 26 -13 5 -11 -29 -36 -28
-42 1 l-4 22 -2 -22z m37 -50 c-5 -26 -38 -29 -38 -4 0 15 6 21 21 21 14 0 19
-5 17 -17z"/>
<path d="M2536 8164 c16 -24 16 -28 -4 -70 -25 -50 -26 -54 -13 -54 5 0 15 16
21 35 13 40 25 38 35 -5 6 -28 25 -43 25 -20 0 26 -54 140 -66 140 -12 0 -11
-5 2 -26z"/>
<path d="M2561 7586 c-9 -10 -7 -17 6 -27 10 -8 14 -9 10 -2 -5 9 8 13 45 16
l53 3 -53 2 c-33 1 -51 6 -47 12 9 15 -1 12 -14 -4z"/>
<path d="M3660 7815 c0 -30 -2 -55 -5 -55 -2 0 -21 8 -41 17 -35 17 -36 17
-50 -2 -17 -22 -19 -137 -4 -166 13 -23 37 -24 64 -4 11 8 23 15 28 15 4 0 8
-61 8 -135 l0 -135 1710 0 1710 0 0 260 0 260 -1710 0 -1710 0 0 -55z m3410
-200 l0 -245 -1694 0 -1694 0 -4 123 c-2 67 -7 128 -11 134 -6 10 -14 10 -37
-2 -16 -8 -35 -15 -43 -15 -18 0 -30 66 -21 120 7 44 20 49 60 24 33 -22 43
-11 51 54 l6 52 1693 0 1694 0 0 -245z"/>
<path d="M4500 7745 c0 -30 -2 -55 -5 -55 -4 0 -20 7 -37 16 -27 14 -32 14
-46 1 -20 -21 -27 -106 -12 -151 13 -39 32 -45 64 -21 31 24 35 19 38 -47 l3
-63 288 -3 287 -2 0 190 0 190 -290 0 -290 0 0 -55z m570 -130 l0 -175 -275 0
-275 0 0 53 c0 67 -13 81 -52 61 -48 -25 -58 -14 -58 66 0 80 12 94 56 65 36
-24 54 -6 54 56 l0 49 275 0 275 0 0 -175z"/>
<path d="M4676 7664 c-34 -33 -9 -124 34 -124 10 0 26 10 34 22 44 63 -17 154
-68 102z m59 -54 c0 -41 -2 -45 -25 -45 -21 0 -26 5 -28 33 -5 47 4 64 30 60
20 -3 23 -9 23 -48z"/>
<path d="M4853 7673 c-7 -2 -13 -12 -13 -21 0 -12 3 -13 12 -4 7 7 20 12 30
12 29 0 21 -33 -17 -70 -19 -19 -35 -38 -35 -42 0 -4 23 -8 51 -8 31 0 48 4
44 10 -3 6 -20 10 -38 10 l-31 0 32 33 c18 18 32 42 32 54 0 28 -33 40 -67 26z"/>
<path d="M4780 7550 c0 -5 5 -10 10 -10 6 0 10 5 10 10 0 6 -4 10 -10 10 -5 0
-10 -4 -10 -10z"/>
<path d="M5550 7752 c0 -27 -3 -51 -6 -55 -3 -3 -22 2 -41 11 -33 16 -36 16
-49 -3 -9 -12 -14 -44 -14 -85 0 -41 5 -73 14 -85 13 -19 16 -19 49 -3 19 9
38 14 41 11 3 -4 6 -33 6 -65 l0 -58 260 0 260 0 0 190 0 190 -260 0 -260 0 0
-48z m508 -139 l2 -173 -250 0 -250 0 0 59 c0 67 -10 80 -45 57 -38 -25 -53
-20 -61 20 -7 36 0 111 10 122 4 3 22 -2 42 -11 19 -10 40 -15 45 -12 5 4 9
28 9 54 0 26 3 51 7 55 4 3 115 5 247 4 l241 -3 3 -172z"/>
<path d="M5710 7644 c0 -33 2 -36 23 -31 29 8 50 -6 45 -29 -3 -14 -12 -19
-36 -18 -37 2 -43 -13 -8 -22 33 -8 66 12 66 39 0 29 -18 47 -47 47 -14 0 -23
6 -23 15 0 10 10 15 30 15 17 0 30 5 30 10 0 6 -18 10 -40 10 -39 0 -40 -1
-40 -36z"/>
<path d="M5830 7661 c-15 -29 -12 -87 6 -105 37 -37 77 -9 77 54 0 22 -6 46
-13 55 -18 21 -57 19 -70 -4z m54 -7 c34 -33 5 -122 -30 -93 -17 14 -18 81 -2
97 15 15 13 15 32 -4z"/>
<path d="M6530 7744 c0 -31 -3 -54 -7 -52 -5 2 -21 10 -36 18 -24 12 -30 12
-44 -3 -24 -24 -25 -150 -1 -173 15 -16 20 -16 45 -4 15 8 31 16 35 18 4 2 8
-25 10 -60 l3 -63 205 0 205 0 3 188 2 187 -210 0 -210 0 0 -56z m400 -129 l0
-175 -190 0 -190 0 0 53 c0 71 -10 86 -44 64 -51 -34 -66 -19 -66 66 0 75 10
86 56 64 45 -22 54 -13 54 56 l0 47 190 0 190 0 0 -175z"/>
<path d="M6706 7664 c-34 -33 -9 -124 34 -124 10 0 26 10 34 22 44 63 -17 154
-68 102z m59 -54 c0 -41 -2 -45 -25 -45 -21 0 -26 5 -28 33 -5 47 4 64 30 60
20 -3 23 -9 23 -48z"/>
<path d="M3840 7685 c0 -8 7 -15 15 -15 8 0 15 7 15 15 0 8 -7 15 -15 15 -8 0
-15 -7 -15 -15z"/>
<path d="M4120 7595 l0 -75 75 0 75 0 0 75 0 75 -75 0 -75 0 0 -75z m117 -1
c14 -14 23 -27 21 -30 -3 -2 -17 10 -33 26 -35 36 -24 40 12 4z m-51 -29 c19
-19 31 -35 26 -35 -4 0 -23 16 -42 35 -19 19 -31 35 -27 35 4 0 23 -16 43 -35z
m40 0 c19 -19 31 -35 26 -35 -4 0 -23 16 -42 35 -19 19 -31 35 -27 35 4 0 23
-16 43 -35z m-52 -34 c-5 -6 -44 30 -44 41 0 5 11 -2 24 -14 13 -13 22 -25 20
-27z"/>
<path d="M6250 7641 c0 -12 -8 -21 -22 -24 l-23 -4 23 -2 c16 -1 22 -7 22 -26
0 -14 5 -25 10 -25 6 0 10 11 10 24 0 18 7 26 23 29 l22 4 -22 2 c-16 1 -23 7
-23 21 0 11 -4 20 -10 20 -5 0 -10 -9 -10 -19z"/>
<path d="M5245 7630 c17 -19 17 -21 0 -40 -10 -11 -13 -20 -8 -20 6 0 16 7 23
15 12 14 15 14 30 0 24 -22 36 -18 15 5 -17 19 -17 21 0 40 10 11 13 20 8 20
-6 0 -16 -7 -23 -15 -12 -14 -15 -14 -30 0 -24 22 -36 18 -15 -5z"/>
<path d="M3840 7575 c0 -8 7 -15 15 -15 8 0 15 7 15 15 0 8 -7 15 -15 15 -8 0
-15 -7 -15 -15z"/>
<path d="M3900 7515 c0 -8 7 -15 15 -15 8 0 15 7 15 15 0 8 -7 15 -15 15 -8 0
-15 -7 -15 -15z"/>
<path d="M7530 7815 c0 -30 -2 -55 -5 -55 -2 0 -20 8 -40 17 -47 22 -58 10
-63 -70 -6 -102 22 -141 74 -102 10 8 22 15 27 15 4 0 7 -61 7 -135 l0 -135
2230 0 2230 0 0 260 0 260 -2230 0 -2230 0 0 -55z m4440 -200 l0 -245 -2210 0
-2210 0 0 116 c0 63 -5 124 -10 135 -10 18 -13 18 -41 3 -49 -25 -59 -14 -59
66 0 80 11 93 55 64 26 -17 28 -17 41 1 8 10 14 38 14 62 l0 43 2210 0 2210 0
0 -245z"/>
<path d="M8290 7745 c0 -30 -2 -55 -5 -55 -2 0 -21 8 -41 17 -35 17 -36 17
-50 -2 -9 -12 -14 -44 -14 -85 0 -41 5 -73 14 -85 14 -19 15 -19 50 -2 20 9
39 17 41 17 3 0 5 -29 5 -65 l0 -65 318 2 317 3 3 188 2 187 -320 0 -320 0 0
-55z m620 -130 l0 -175 -299 0 -298 0 -6 55 c-7 72 -12 78 -47 60 -16 -8 -35
-15 -43 -15 -18 0 -30 66 -21 120 7 44 20 49 60 24 33 -22 43 -11 51 54 l6 52
298 0 299 0 0 -175z"/>
<path d="M8460 7665 c-7 -9 -9 -19 -5 -23 4 -4 10 -1 12 6 3 6 16 12 29 12 35
0 30 -26 -11 -63 -48 -42 -46 -57 10 -57 25 0 45 5 45 10 0 6 -17 10 -37 10
l-37 0 37 34 c20 18 37 40 37 48 0 36 -56 52 -80 23z"/>
<path d="M8576 7664 c-34 -33 -9 -124 34 -124 10 0 26 10 34 22 44 63 -17 154
-68 102z m59 -54 c0 -41 -2 -45 -25 -45 -21 0 -26 5 -28 33 -5 47 4 64 30 60
20 -3 23 -9 23 -48z"/>
<path d="M8684 7655 c-27 -42 -4 -115 37 -115 29 0 49 28 49 70 0 66 -54 94
-86 45z m64 -49 c-2 -31 -8 -42 -22 -44 -36 -7 -51 62 -20 93 25 25 46 1 42
-49z"/>
<path d="M9350 7745 c0 -30 -2 -55 -5 -55 -2 0 -20 8 -40 17 -50 24 -60 10
-60 -87 0 -97 10 -111 60 -87 20 9 38 17 40 17 3 0 5 -29 5 -65 l0 -65 375 0
375 0 0 190 0 190 -375 0 -375 0 0 -55z m738 -132 l2 -173 -360 0 -360 0 0 46
c0 25 -5 54 -10 65 -10 18 -13 18 -41 3 -49 -25 -59 -14 -59 66 0 80 11 93 55
64 26 -17 28 -17 41 1 8 10 14 38 14 62 l0 43 358 -2 357 -3 3 -172z"/>
<path d="M9520 7665 c-7 -9 -9 -19 -5 -23 4 -4 10 -1 12 6 3 6 16 12 29 12 31
0 32 -27 2 -40 l-23 -9 23 -7 c31 -9 30 -44 -2 -44 -13 0 -26 6 -29 13 -2 6
-8 9 -12 5 -11 -11 14 -38 35 -38 33 0 50 12 50 35 0 13 -4 27 -10 30 -6 4 -5
13 2 25 24 38 -43 71 -72 35z"/>
<path d="M9643 7673 c-7 -2 -13 -12 -13 -21 0 -12 3 -13 12 -4 7 7 20 12 30
12 29 0 21 -33 -17 -70 -19 -19 -35 -38 -35 -42 0 -4 23 -8 51 -8 31 0 48 4
44 10 -3 6 -20 10 -38 10 l-31 0 32 33 c18 18 32 42 32 54 0 28 -33 40 -67 26z"/>
<path d="M9752 7668 c-7 -7 -12 -33 -12 -58 0 -51 13 -70 47 -70 28 0 43 27
43 77 0 44 -14 63 -45 63 -12 0 -26 -5 -33 -12z m58 -53 c0 -46 -17 -69 -40
-55 -19 12 -19 88 -1 100 26 16 41 -1 41 -45z"/>
<path d="M9860 7661 c-15 -29 -12 -87 6 -105 37 -37 77 -9 77 54 0 22 -6 46
-13 55 -18 21 -57 19 -70 -4z m54 -7 c34 -33 5 -122 -30 -93 -17 14 -18 81 -2
97 15 15 13 15 32 -4z"/>
<path d="M10568 7750 c-3 -28 -7 -53 -10 -56 -3 -2 -19 3 -36 13 -29 17 -32
17 -48 1 -25 -24 -25 -151 -1 -176 17 -16 19 -16 49 1 17 10 33 15 36 12 3 -3
8 -32 10 -65 l4 -60 202 2 201 3 3 188 2 187 -204 0 -203 0 -5 -50z m392 -135
l0 -175 -190 0 -190 0 0 53 c0 71 -10 86 -44 64 -51 -34 -66 -19 -66 66 0 75
10 86 56 64 45 -22 54 -13 54 56 l0 47 190 0 190 0 0 -175z"/>
<path d="M10748 7669 c-10 -5 -18 -15 -18 -21 0 -7 5 -6 15 2 13 11 15 6 15
-39 0 -39 -4 -51 -15 -51 -8 0 -15 -4 -15 -10 0 -5 21 -10 46 -10 27 0 43 4
39 10 -3 6 -13 10 -21 10 -11 0 -14 14 -14 60 0 62 -3 66 -32 49z"/>
<path d="M11440 7745 c0 -30 -2 -55 -5 -55 -2 0 -21 8 -41 17 -35 17 -36 17
-50 -2 -9 -12 -14 -44 -14 -85 0 -41 5 -73 14 -85 14 -19 15 -19 50 -2 20 9
39 17 41 17 3 0 5 -29 5 -65 l0 -65 205 0 205 0 0 190 0 190 -205 0 -205 0 0
-55z m390 -130 l0 -175 -184 0 -183 0 -7 59 c-4 32 -9 61 -13 64 -3 4 -18 0
-34 -8 -46 -24 -56 -19 -63 30 -9 56 2 115 20 115 8 0 26 -7 40 -16 33 -22 43
-11 51 54 l6 52 183 0 184 0 0 -175z"/>
<path d="M11612 7668 c-7 -7 -12 -33 -12 -58 0 -51 13 -70 47 -70 28 0 43 27
43 77 0 44 -14 63 -45 63 -12 0 -26 -5 -33 -12z m58 -53 c0 -46 -17 -69 -40
-55 -19 12 -19 88 -1 100 26 16 41 -1 41 -45z"/>
<path d="M8018 7694 c-5 -4 -8 -45 -8 -91 l0 -83 28 1 c16 1 20 3 10 6 -14 4
-18 19 -20 90 -2 46 -6 81 -10 77z"/>
<path d="M7697 7683 c-4 -3 -7 -37 -7 -75 l0 -68 75 0 75 0 0 75 0 75 -68 0
c-38 0 -72 -3 -75 -7z m123 -68 l0 -55 -55 0 -55 0 0 55 0 55 55 0 55 0 0 -55z"/>
<path d="M7790 7645 c0 -8 5 -15 10 -15 6 0 10 7 10 15 0 8 -4 15 -10 15 -5 0
-10 -7 -10 -15z"/>
<path d="M7726 7592 c-3 -6 -1 -14 5 -17 15 -10 25 3 12 16 -7 7 -13 7 -17 1z"/>
<path d="M9088 7683 c8 -3 12 -31 12 -89 0 -49 4 -84 10 -84 6 0 10 37 10 90
0 87 -1 90 -22 89 -13 0 -17 -3 -10 -6z"/>
<path d="M11161 7643 c-1 -18 -7 -23 -28 -24 -28 -1 -28 -1 -3 -8 14 -4 27
-17 31 -31 l7 -25 1 27 c1 19 7 28 24 31 22 4 22 4 0 6 -14 1 -23 9 -26 24
l-4 22 -2 -22z"/>
<path d="M10265 7630 c17 -19 17 -21 0 -40 -19 -21 -7 -28 13 -8 10 10 17 10
32 0 22 -13 27 -3 8 16 -9 9 -9 15 0 24 20 20 14 33 -7 14 -16 -15 -19 -15
-31 -1 -7 8 -17 15 -23 15 -5 0 -2 -9 8 -20z"/>
<path d="M12580 7745 c0 -30 -2 -55 -5 -55 -4 0 -20 7 -37 16 -27 14 -32 14
-46 1 -32 -32 -23 -188 11 -187 7 1 23 7 37 15 14 8 28 14 32 15 4 0 8 -28 10
-62 l3 -63 403 -3 402 -2 0 190 0 190 -405 0 -405 0 0 -55z m790 -130 l0 -175
-385 0 -385 0 0 53 c0 67 -13 81 -52 61 -48 -25 -58 -14 -58 66 0 79 11 93 54
65 38 -25 56 -6 56 56 l0 49 385 0 385 0 0 -175z"/>
<path d="M12750 7661 c-15 -29 -12 -87 6 -105 37 -37 77 -9 77 54 0 22 -6 46
-13 55 -18 21 -57 19 -70 -4z m54 -7 c34 -33 5 -122 -30 -93 -17 14 -18 81 -2
97 15 15 13 15 32 -4z"/>
<path d="M12920 7661 c-15 -29 -12 -87 6 -105 37 -37 77 -9 77 54 0 22 -6 46
-13 55 -18 21 -57 19 -70 -4z m54 -7 c34 -33 5 -122 -30 -93 -17 14 -18 81 -2
97 15 15 13 15 32 -4z"/>
<path d="M13034 7655 c-27 -42 -4 -115 37 -115 29 0 49 28 49 70 0 66 -54 94
-86 45z m64 -49 c-2 -31 -8 -42 -22 -44 -36 -7 -51 62 -20 93 25 25 46 1 42
-49z"/>
<path d="M13152 7668 c-7 -7 -12 -16 -12 -22 0 -6 5 -5 12 2 7 7 22 12 35 12
29 0 31 -30 3 -37 -11 -3 -20 -9 -20 -14 0 -5 9 -9 20 -9 13 0 20 -7 20 -20 0
-23 -38 -28 -58 -8 -9 9 -12 8 -12 -5 0 -18 41 -33 65 -23 21 8 30 35 18 55
-7 11 -7 21 0 33 22 34 -41 66 -71 36z"/>
<path d="M12860 7550 c0 -5 5 -10 10 -10 6 0 10 5 10 10 0 6 -4 10 -10 10 -5
0 -10 -4 -10 -10z"/>
<path d="M13850 7745 c0 -30 -2 -55 -5 -55 -4 0 -20 7 -37 16 -26 14 -32 14
-44 2 -21 -20 -29 -108 -14 -152 13 -39 32 -45 64 -21 31 24 35 19 38 -47 l3
-63 203 -3 202 -2 0 190 0 190 -205 0 -205 0 0 -55z m400 -130 l0 -175 -190 0
-190 0 0 53 c0 67 -13 81 -52 61 -48 -25 -58 -14 -58 66 0 80 12 94 56 65 36
-24 54 -6 54 56 l0 49 190 0 190 0 0 -175z"/>
<path d="M14038 7669 c-10 -5 -18 -15 -18 -21 0 -7 5 -6 15 2 13 11 15 6 15
-39 0 -39 -4 -51 -15 -51 -8 0 -15 -4 -15 -10 0 -5 21 -10 46 -10 27 0 43 4
39 10 -3 6 -13 10 -21 10 -11 0 -14 14 -14 60 0 62 -3 66 -32 49z"/>
<path d="M14730 7752 c0 -27 -3 -51 -6 -55 -3 -3 -22 2 -41 11 -33 16 -36 16
-49 -3 -9 -12 -14 -44 -14 -85 0 -41 5 -73 14 -85 13 -19 16 -19 49 -3 19 9
38 14 41 11 3 -4 6 -33 6 -65 l0 -58 203 2 202 3 3 188 2 187 -205 0 -205 0 0
-48z m390 -137 l0 -175 -190 0 -190 0 0 59 c0 67 -10 80 -45 57 -38 -25 -53
-20 -61 20 -7 36 0 111 10 122 4 3 22 -2 42 -11 19 -10 40 -15 45 -12 5 4 9
28 9 54 0 26 3 51 7 54 3 4 89 7 190 7 l183 0 0 -175z"/>
<path d="M14894 7655 c-27 -42 -4 -115 37 -115 29 0 49 28 49 70 0 66 -54 94
-86 45z m64 -49 c-2 -31 -8 -42 -22 -44 -36 -7 -51 62 -20 93 25 25 46 1 42
-49z"/>
<path d="M12134 7668 c-4 -7 -3 -8 4 -4 8 5 12 -3 12 -23 0 -16 -6 -32 -12
-34 -7 -3 -1 -6 15 -6 l28 -1 -17 -31 c-26 -52 1 -23 44 46 23 36 37 65 33 65
-5 0 -18 -16 -30 -35 -11 -19 -27 -35 -36 -35 -11 0 -15 10 -15 35 0 35 -12
46 -26 23z"/>
<path d="M12266 7653 c-35 -35 -42 -67 -21 -99 13 -20 14 -28 5 -34 -8 -5 4
-11 30 -15 25 -4 46 -3 52 3 7 7 6 10 -3 9 -33 -1 -59 4 -57 11 1 4 -3 17 -10
28 -12 23 -3 74 19 100 14 17 45 18 54 3 11 -17 -5 -79 -26 -100 -21 -21 -13
-25 12 -6 36 28 51 91 27 115 -20 20 -54 14 -82 -15z"/>
<path d="M3164 7643 c-4 -15 -17 -43 -42 -95 -2 -5 0 -8 6 -8 5 0 17 16 28 35
l18 34 20 -34 c27 -47 41 -45 16 2 -11 21 -20 45 -20 55 0 24 -19 33 -26 11z"/>
<path d="M14451 7643 c-1 -18 -7 -23 -28 -24 -28 -1 -28 -1 -3 -8 14 -4 27
-17 31 -31 l7 -25 1 27 c1 19 7 28 24 31 22 4 22 4 0 6 -14 1 -23 9 -26 24
l-4 22 -2 -22z"/>
<path d="M7220 7643 c0 -18 35 -103 42 -103 5 0 17 15 28 33 21 34 27 77 10
77 -5 0 -10 -13 -10 -28 0 -16 -6 -36 -13 -46 -12 -17 -15 -14 -27 28 -7 25
-17 46 -21 46 -5 0 -9 -3 -9 -7z"/>
<path d="M13540 7643 c0 -6 7 -16 15 -23 14 -12 14 -15 -1 -31 -19 -21 -6 -27
14 -7 9 9 15 9 24 0 20 -20 33 -14 14 7 -15 16 -15 19 -1 31 8 7 15 17 15 23
0 5 -9 2 -20 -8 -19 -17 -21 -17 -40 0 -11 10 -20 13 -20 8z"/>
<path d="M3410 7600 c0 -5 5 -10 10 -10 6 0 10 5 10 10 0 6 -4 10 -10 10 -5 0
-10 -4 -10 -10z"/>
<path d="M2539 7163 c-12 -15 -12 -16 4 -10 15 5 17 0 17 -42 0 -42 -3 -50
-22 -56 l-23 -8 22 -4 c13 -2 35 -2 50 0 27 4 27 4 6 12 -20 6 -23 14 -23 66
0 61 -8 71 -31 42z"/>
<path d="M2640 7161 c-15 -29 -12 -87 6 -105 37 -37 77 -9 77 54 0 22 -6 46
-13 55 -18 21 -57 19 -70 -4z m54 -7 c34 -33 5 -122 -30 -93 -17 14 -18 81 -2
97 15 15 13 15 32 -4z"/>
<path d="M340 4943 c0 -5 7 -17 15 -27 13 -17 13 -22 0 -42 -22 -33 -18 -43 6
-15 l20 24 15 -21 c8 -12 20 -22 25 -22 6 0 1 13 -10 29 -18 25 -19 30 -6 47
17 22 19 34 6 34 -5 0 -13 -10 -17 -22 l-7 -22 -17 22 c-18 22 -30 28 -30 15z"/>
<path d="M756 4931 c-4 -7 -5 -15 -2 -18 9 -9 19 4 14 18 -4 11 -6 11 -12 0z"/>
<path d="M790 4920 c0 -6 27 -10 60 -10 33 0 60 4 60 10 0 6 -27 10 -60 10
-33 0 -60 -4 -60 -10z"/>
<path d="M750 4880 c0 -5 5 -10 10 -10 6 0 10 5 10 10 0 6 -4 10 -10 10 -5 0
-10 -4 -10 -10z"/>
<path d="M790 4880 c0 -6 27 -10 60 -10 33 0 60 4 60 10 0 6 -27 10 -60 10
-33 0 -60 -4 -60 -10z"/>
<path d="M1340 4973 c0 -4 11 -19 25 -33 l25 -26 -25 -24 c-39 -37 -33 -50 25
-50 28 0 50 5 50 10 0 6 -19 10 -42 10 l-41 0 21 23 c26 28 27 35 5 59 -15 17
-14 18 15 18 17 0 34 5 37 10 4 6 -13 10 -44 10 -28 0 -51 -3 -51 -7z"/>
<path d="M2020 6770 c0 -27 5 -50 10 -50 6 0 10 23 10 50 0 28 -4 50 -10 50
-5 0 -10 -22 -10 -50z"/>
<path d="M2020 6690 c0 -5 5 -10 10 -10 6 0 10 5 10 10 0 6 -4 10 -10 10 -5 0
-10 -4 -10 -10z"/>
<path d="M2038 4950 c-14 -16 -23 -30 -18 -30 7 0 1 -37 -16 -105 -4 -15 -1
-14 10 5 8 14 18 42 21 63 4 20 10 37 14 37 4 0 7 10 7 23 -1 16 4 21 18 19
11 -2 15 1 11 7 -10 17 -18 13 -47 -19z"/>
<path d="M2041 3123 c0 -14 -8 -23 -18 -24 -11 0 -13 -3 -5 -6 19 -7 15 -43
-5 -43 -12 0 -14 -3 -7 -8 7 -4 14 -16 17 -27 4 -18 5 -18 6 3 1 15 7 22 22
22 16 0 20 -5 16 -20 -3 -11 -1 -18 4 -14 5 3 9 12 9 20 0 8 8 14 18 15 10 0
12 3 5 6 -14 5 -18 43 -4 43 4 0 6 12 3 27 -5 26 -5 26 -13 5 -11 -29 -36 -28
-42 1 l-4 22 -2 -22z m37 -50 c-5 -26 -38 -29 -38 -4 0 15 6 21 21 21 14 0 19
-5 17 -17z"/>
<path d="M2536 6444 c16 -24 16 -28 -4 -70 -25 -50 -26 -54 -13 -54 5 0 15 16
21 35 13 40 25 38 35 -5 6 -28 25 -43 25 -20 0 26 -54 140 -66 140 -12 0 -11
-5 2 -26z"/>
<path d="M2561 4706 c-9 -10 -7 -17 6 -27 10 -8 14 -9 10 -2 -5 9 8 13 45 16
l53 3 -53 2 c-33 1 -51 6 -47 12 9 15 -1 12 -14 -4z"/>
<path d="M3140 6055 c0 -28 -4 -35 -20 -35 -11 0 -20 -4 -20 -10 0 -6 53 -10
140 -10 87 0 140 4 140 10 0 6 -9 10 -20 10 -16 0 -20 7 -20 35 0 19 -4 35
-10 35 -5 0 -10 -16 -10 -35 0 -24 -5 -35 -15 -35 -10 0 -15 11 -15 35 0 19
-4 35 -10 35 -5 0 -10 -16 -10 -35 0 -19 -4 -35 -10 -35 -5 0 -10 16 -10 35 0
19 -4 35 -10 35 -5 0 -10 -16 -10 -35 0 -19 -4 -35 -10 -35 -5 0 -10 16 -10
35 0 24 -5 35 -15 35 -10 0 -15 -11 -15 -35 0 -19 -4 -35 -10 -35 -5 0 -10 16
-10 35 0 19 -4 35 -10 35 -5 0 -10 -16 -10 -35z"/>
<path d="M3120 5580 c0 -5 5 -10 10 -10 6 0 10 5 10 10 0 6 -4 10 -10 10 -5 0
-10 -4 -10 -10z"/>
<path d="M3120 5150 c0 -53 4 -90 10 -90 6 0 10 35 10 84 0 58 4 86 13 89 6 3
2 6 -10 6 -22 1 -23 -2 -23 -89z"/>
<path d="M3181 5108 c-1 -15 8 -18 59 -18 51 0 60 3 59 18 0 10 -3 12 -6 5 -3
-8 -24 -13 -53 -13 -29 0 -50 5 -53 13 -3 7 -6 5 -6 -5z"/>
<path d="M3101 4608 c-1 -15 8 -18 59 -18 51 0 60 3 59 18 0 10 -3 12 -6 5 -3
-8 -24 -13 -53 -13 -29 0 -50 5 -53 13 -3 7 -6 5 -6 -5z"/>
<path d="M3137 4203 c-4 -4 12 -26 35 -50 34 -34 38 -43 23 -43 -14 0 -16 -3
-8 -11 6 -6 21 -9 34 -7 26 3 39 42 20 61 -8 8 -11 6 -11 -8 0 -15 -9 -11 -43
23 -24 23 -46 39 -50 35z"/>
<path d="M3120 3823 c0 -6 7 -16 15 -23 14 -12 14 -15 -1 -31 -19 -21 -6 -27
14 -7 9 9 15 9 24 0 20 -20 33 -14 14 7 -15 16 -15 19 -1 31 8 7 15 17 15 23
0 5 -9 2 -20 -8 -19 -17 -21 -17 -40 0 -11 10 -20 13 -20 8z"/>
<path d="M3150 3461 c0 -12 -8 -21 -22 -24 l-23 -4 23 -2 c16 -1 22 -7 22 -26
0 -14 5 -25 10 -25 6 0 10 11 10 24 0 18 7 26 23 29 l22 4 -22 2 c-16 1 -23 7
-23 21 0 11 -4 20 -10 20 -5 0 -10 -9 -10 -19z"/>
<path d="M4300 5725 c0 -30 -2 -55 -5 -55 -4 0 -20 7 -37 16 -27 14 -32 14
-46 0 -20 -20 -28 -118 -12 -156 14 -33 36 -38 66 -15 10 8 22 15 26 15 4 0 8
-28 10 -62 l3 -63 278 -3 277 -2 0 190 0 190 -280 0 -280 0 0 -55z m540 -130
l0 -175 -260 0 -260 0 0 46 c0 25 -5 54 -10 65 -10 18 -13 18 -41 3 -49 -25
-59 -14 -59 65 0 39 5 73 11 77 6 3 26 -2 45 -12 43 -23 54 -12 54 59 l0 47
260 0 260 0 0 -175z"/>
<path d="M4471 5621 c-21 -13 -6 -40 29 -52 16 -6 30 -15 30 -19 0 -15 -31
-20 -52 -9 -16 9 -19 8 -16 -3 3 -7 19 -13 39 -13 28 0 35 4 37 23 3 18 -3 25
-27 33 -17 6 -31 15 -31 19 0 16 20 21 41 9 17 -9 20 -8 17 3 -5 16 -47 22
-67 9z"/>
<path d="M5410 5731 c0 -28 -4 -52 -9 -55 -5 -4 -23 2 -41 11 -30 17 -32 17
-45 -1 -21 -28 -20 -159 0 -176 13 -11 22 -10 49 3 19 9 37 13 40 10 3 -4 6
-33 6 -65 l0 -58 400 0 400 0 0 190 0 190 -400 0 -400 0 0 -49z m790 -136 l0
-175 -390 0 -390 0 0 54 c0 63 -16 84 -46 61 -33 -25 -52 -18 -60 21 -7 36 0
111 10 122 4 3 22 -2 42 -11 19 -10 40 -15 45 -12 5 4 9 31 9 61 l0 54 390 0
390 0 0 -175z"/>
<path d="M5574 5635 c-27 -42 -4 -115 37 -115 29 0 49 28 49 70 0 66 -54 94
-86 45z m64 -49 c-2 -31 -8 -42 -22 -44 -36 -7 -51 62 -20 93 25 25 46 1 42
-49z"/>
<path d="M5744 5635 c-27 -42 -4 -115 37 -115 29 0 49 28 49 70 0 66 -54 94
-86 45z m64 -49 c-2 -31 -8 -42 -22 -44 -36 -7 -51 62 -20 93 25 25 46 1 42
-49z"/>
<path d="M5875 5608 l-35 -53 35 -3 c22 -2 35 -8 35 -18 0 -8 5 -14 10 -14 6
0 10 6 10 14 0 8 6 17 13 19 10 4 10 6 0 6 -9 1 -13 18 -13 51 0 28 -4 50 -10
50 -5 0 -25 -24 -45 -52z m35 -13 c0 -28 -4 -35 -20 -35 -11 0 -20 3 -20 6 0
7 33 64 37 64 2 0 3 -16 3 -35z"/>
<path d="M5982 5651 c-8 -4 -13 -19 -11 -32 1 -13 -1 -34 -5 -47 -10 -30 9
-52 45 -52 30 0 56 31 43 52 -5 7 -7 26 -6 42 3 40 -31 59 -66 37z m46 -29 c3
-16 -2 -22 -17 -22 -26 0 -36 17 -20 36 16 19 33 13 37 -14z m2 -48 c11 -12
11 -18 -2 -30 -18 -18 -48 -8 -48 16 0 16 11 27 31 29 4 1 12 -6 19 -15z"/>
<path d="M5690 5530 c0 -5 5 -10 10 -10 6 0 10 5 10 10 0 6 -4 10 -10 10 -5 0
-10 -4 -10 -10z"/>
<path d="M6680 5725 c0 -30 -2 -55 -5 -55 -2 0 -20 8 -40 17 -47 22 -58 10
-63 -70 -6 -102 22 -141 74 -102 31 23 34 19 34 -50 l0 -65 405 0 405 0 0 190
0 190 -405 0 -405 0 0 -55z m790 -130 l0 -175 -385 0 -385 0 0 46 c0 25 -5 54
-10 65 -10 18 -13 18 -41 3 -49 -25 -59 -14 -59 66 0 80 11 93 55 64 26 -17
28 -17 41 1 8 10 14 38 14 62 l0 43 385 0 385 0 0 -175z"/>
<path d="M6850 5641 c-15 -29 -12 -87 6 -105 37 -37 77 -9 77 54 0 22 -6 46
-13 55 -18 21 -57 19 -70 -4z m54 -7 c34 -33 5 -122 -30 -93 -17 14 -18 81 -2
97 15 15 13 15 32 -4z"/>
<path d="M7020 5641 c-15 -29 -12 -87 6 -105 37 -37 77 -9 77 54 0 22 -6 46
-13 55 -18 21 -57 19 -70 -4z m54 -7 c34 -33 5 -122 -30 -93 -17 14 -18 81 -2
97 15 15 13 15 32 -4z"/>
<path d="M7151 5612 c-17 -27 -31 -52 -31 -55 0 -4 14 -7 30 -7 20 0 30 -5 30
-15 0 -8 5 -15 10 -15 6 0 10 6 10 14 0 8 6 17 13 19 10 4 10 6 0 6 -9 1 -13
18 -13 51 0 28 -4 50 -9 50 -5 0 -23 -22 -40 -48z m29 -22 c0 -23 -4 -30 -20
-30 -24 0 -25 4 -4 35 21 32 24 31 24 -5z"/>
<path d="M7249 5644 c-10 -12 -10 -20 -1 -34 7 -12 8 -21 2 -25 -6 -3 -10 -17
-10 -30 0 -18 7 -26 25 -31 46 -11 80 20 58 55 -7 11 -7 21 0 33 14 22 -7 48
-38 48 -12 0 -28 -7 -36 -16z m50 -3 c17 -11 7 -41 -13 -41 -19 0 -29 17 -22
35 6 17 15 18 35 6z m6 -81 c0 -29 -32 -41 -41 -16 -9 24 4 48 23 44 12 -2 18
-12 18 -28z"/>
<path d="M6960 5530 c0 -5 5 -10 10 -10 6 0 10 5 10 10 0 6 -4 10 -10 10 -5 0
-10 -4 -10 -10z"/>
<path d="M7950 5725 c0 -30 -2 -55 -5 -55 -4 0 -20 7 -37 16 -27 14 -32 14
-46 1 -20 -21 -27 -106 -12 -151 13 -39 33 -46 66 -21 10 8 22 15 26 15 4 0 8
-28 10 -62 l3 -63 203 -3 202 -2 0 190 0 190 -205 0 -205 0 0 -55z m398 -132
l2 -173 -190 0 -190 0 0 46 c0 25 -5 54 -10 65 -10 18 -13 18 -41 3 -49 -25
-59 -14 -59 65 0 39 5 73 11 77 6 3 26 -2 45 -12 43 -23 54 -12 54 59 l0 47
188 -2 187 -3 3 -172z"/>
<path d="M8138 5649 c-10 -5 -18 -15 -18 -21 0 -7 5 -6 15 2 13 11 15 6 15
-39 0 -39 -4 -51 -15 -51 -8 0 -15 -4 -15 -10 0 -5 18 -10 40 -10 22 0 40 5
40 10 0 6 -7 10 -15 10 -12 0 -15 13 -15 60 0 62 -3 66 -32 49z"/>
<path d="M8830 5731 c0 -28 -4 -52 -9 -55 -5 -4 -23 2 -40 11 -47 28 -63 6
-63 -87 0 -93 14 -112 66 -88 41 20 46 14 46 -63 l0 -49 203 2 202 3 3 188 2
187 -205 0 -205 0 0 -49z m390 -136 l0 -175 -190 0 -190 0 0 54 c0 63 -16 84
-46 61 -25 -19 -50 -19 -58 1 -9 24 -7 117 4 134 8 12 14 12 45 -3 20 -10 41
-15 46 -12 5 4 9 31 9 61 l0 54 190 0 190 0 0 -175z"/>
<path d="M8994 5635 c-27 -42 -4 -115 37 -115 29 0 49 28 49 70 0 66 -54 94
-86 45z m64 -49 c-2 -31 -8 -42 -22 -44 -36 -7 -51 62 -20 93 25 25 46 1 42
-49z"/>
<path d="M5010 5580 c0 -53 4 -90 10 -90 6 0 10 35 10 84 0 58 4 86 13 89 6 3
2 6 -10 6 -22 1 -23 -2 -23 -89z"/>
<path d="M8540 5621 c0 -12 -8 -21 -22 -24 l-23 -4 23 -2 c16 -1 22 -7 22 -26
0 -14 5 -25 10 -25 6 0 10 11 10 24 0 18 7 26 23 29 l22 4 -22 2 c-16 1 -23 7
-23 21 0 11 -4 20 -10 20 -5 0 -10 -9 -10 -19z"/>
<path d="M7640 5623 c0 -6 7 -16 15 -23 14 -12 14 -15 -1 -31 -19 -21 -6 -27
14 -7 9 9 15 9 24 0 20 -20 33 -14 14 7 -15 16 -15 19 -1 31 8 7 15 17 15 23
0 5 -9 2 -20 -8 -19 -17 -21 -17 -40 0 -11 10 -20 13 -20 8z"/>
<path d="M4050 5580 c0 -5 5 -10 10 -10 6 0 10 5 10 10 0 6 -4 10 -10 10 -5 0
-10 -4 -10 -10z"/>
<path d="M3771 5538 c-1 -15 8 -18 59 -18 51 0 60 3 59 18 0 10 -3 12 -6 5 -3
-8 -24 -13 -53 -13 -29 0 -50 5 -53 13 -3 7 -6 5 -6 -5z"/>
<path d="M5071 5538 c-1 -15 8 -18 59 -18 51 0 60 3 59 18 0 10 -3 12 -6 5 -3
-8 -24 -13 -53 -13 -29 0 -50 5 -53 13 -3 7 -6 5 -6 -5z"/>
<path d="M6460 5540 c0 -5 -26 -11 -57 -13 l-58 -3 63 -2 c49 -2 62 1 62 13 0
8 -2 15 -5 15 -3 0 -5 -4 -5 -10z"/>
<path d="M3790 5211 c-15 -29 -12 -87 6 -105 37 -37 77 -9 77 54 0 22 -6 46
-13 55 -18 21 -57 19 -70 -4z m54 -7 c34 -33 5 -122 -30 -93 -17 14 -18 81 -2
97 15 15 13 15 32 -4z"/>
<path d="M3978 5219 c-10 -5 -18 -15 -18 -21 0 -7 5 -6 15 2 13 11 15 6 15
-39 0 -39 -4 -51 -15 -51 -8 0 -15 -4 -15 -10 0 -5 18 -10 40 -10 22 0 40 5
40 10 0 6 -7 10 -15 10 -12 0 -15 13 -15 60 0 62 -3 66 -32 49z"/>
<path d="M3900 5100 c0 -5 5 -10 10 -10 6 0 10 5 10 10 0 6 -4 10 -10 10 -5 0
-10 -4 -10 -10z"/>
<path d="M4520 4865 c0 -59 -5 -63 -50 -40 -26 13 -30 13 -44 -1 -21 -20 -22
-142 -2 -169 13 -18 18 -18 48 -7 19 6 37 12 41 12 4 0 7 -58 7 -130 l0 -130
2030 0 2030 0 0 260 0 260 -2030 0 -2030 0 0 -55z m4040 -205 l0 -240 -2015 0
-2015 0 0 125 c0 139 -7 153 -56 120 -37 -24 -49 -7 -49 70 0 78 13 95 50 71
40 -26 55 -15 55 44 l0 50 2015 0 2015 0 0 -240z"/>
<path d="M5280 4795 c0 -59 -5 -63 -50 -40 -44 23 -60 1 -60 -85 0 -38 3 -75
6 -84 8 -20 43 -21 70 -1 29 20 34 11 34 -57 l0 -58 205 0 205 0 0 190 0 190
-205 0 -205 0 0 -55z m390 -135 l0 -170 -190 0 -190 0 0 55 c0 64 -15 77 -57
50 -25 -17 -27 -17 -40 1 -15 20 -15 136 0 151 4 4 23 -1 42 -11 18 -10 38
-15 44 -12 6 4 11 29 11 57 l0 49 190 0 190 0 0 -170z"/>
<path d="M5444 4705 c-27 -42 -4 -115 37 -115 29 0 49 28 49 70 0 66 -54 94
-86 45z m64 -49 c-2 -31 -8 -42 -22 -44 -36 -7 -51 62 -20 93 25 25 46 1 42
-49z"/>
<path d="M6110 4795 c0 -30 -2 -55 -4 -55 -2 0 -19 7 -39 15 -31 13 -36 13
-48 -1 -17 -21 -24 -122 -10 -156 12 -31 37 -36 67 -13 31 23 34 19 34 -50 l0
-65 290 0 290 0 0 190 0 190 -290 0 -290 0 0 -55z m570 -135 l0 -170 -275 0
-275 0 0 48 c0 70 -10 80 -55 59 -20 -10 -41 -15 -46 -12 -5 4 -9 39 -9 80 0
41 4 76 9 80 5 3 26 -2 46 -12 44 -21 55 -11 55 55 l0 42 275 0 275 0 0 -170z"/>
<path d="M6280 4711 c-15 -29 -12 -87 6 -105 37 -37 77 -9 77 54 0 22 -6 46
-13 55 -18 21 -57 19 -70 -4z m54 -7 c34 -33 5 -122 -30 -93 -17 14 -18 81 -2
97 15 15 13 15 32 -4z"/>
<path d="M6468 4719 c-10 -5 -18 -15 -18 -21 0 -7 5 -6 15 2 13 11 15 6 15
-39 0 -39 -4 -51 -15 -51 -8 0 -15 -4 -15 -10 0 -5 18 -10 40 -10 22 0 40 5
40 10 0 6 -7 10 -15 10 -12 0 -15 13 -15 60 0 62 -3 66 -32 49z"/>
<path d="M6390 4600 c0 -5 5 -10 10 -10 6 0 10 5 10 10 0 6 -4 10 -10 10 -5 0
-10 -4 -10 -10z"/>
<path d="M7160 4808 c0 -63 -10 -74 -49 -54 -39 21 -48 16 -62 -36 -10 -37 -7
-81 7 -130 6 -22 42 -23 68 -3 27 20 36 4 36 -62 l0 -53 205 0 205 0 -2 188
-3 187 -202 3 -203 2 0 -42z m390 -148 l0 -170 -190 0 -190 0 0 55 c0 65 -12
75 -60 50 -18 -9 -35 -14 -38 -10 -11 10 -14 139 -4 153 8 12 15 11 42 -3 47
-24 60 -14 60 45 l0 50 190 0 190 0 0 -170z"/>
<path d="M7339 4713 c-12 -15 -12 -16 4 -10 15 5 17 0 17 -42 0 -42 -3 -50
-22 -56 l-23 -8 22 -4 c13 -2 35 -2 50 0 27 4 27 4 6 12 -20 6 -23 14 -23 66
0 61 -8 71 -31 42z"/>
<path d="M8030 4795 c0 -59 -3 -62 -45 -41 -50 26 -65 4 -65 -92 0 -85 27
-112 76 -77 29 20 34 11 34 -57 l0 -58 205 0 205 0 0 190 0 190 -205 0 -205 0
0 -55z m390 -135 l0 -170 -184 0 -183 0 -7 60 c-8 66 -21 75 -65 44 -34 -24
-46 -5 -46 71 0 77 13 95 49 71 43 -28 54 -21 61 39 l7 55 184 0 184 0 0 -170z"/>
<path d="M8202 4718 c-7 -7 -12 -33 -12 -58 0 -51 13 -70 47 -70 28 0 43 27
43 77 0 44 -14 63 -45 63 -12 0 -26 -5 -33 -12z m58 -53 c0 -46 -17 -69 -40
-55 -19 12 -19 88 -1 100 26 16 41 -1 41 -45z"/>
<path d="M5008 4744 c-5 -4 -8 -45 -8 -91 l0 -83 28 1 c16 1 20 3 10 6 -14 4
-18 19 -20 90 -2 46 -6 81 -10 77z"/>
<path d="M4680 4665 l0 -75 75 0 75 0 0 75 0 75 -75 0 -75 0 0 -75z m130 0 l0
-55 -55 0 -55 0 0 55 0 55 55 0 55 0 0 -55z"/>
<path d="M4776 4701 c-4 -5 -2 -12 3 -15 5 -4 12 -2 15 3 4 5 2 12 -3 15 -5 4
-12 2 -15 -3z"/>
<path d="M4716 4643 c-11 -11 -6 -23 9 -23 8 0 15 4 15 9 0 13 -16 22 -24 14z"/>
<path d="M5848 4733 c8 -3 12 -31 12 -89 0 -49 4 -84 10 -84 6 0 10 37 10 90
0 87 -1 90 -22 89 -13 0 -17 -3 -10 -6z"/>
<path d="M7751 4693 c-1 -18 -7 -23 -28 -24 -28 -1 -28 -1 -3 -8 14 -4 27 -17
31 -31 l7 -25 1 27 c1 19 7 28 24 31 22 4 22 4 0 6 -14 1 -23 9 -26 24 l-4 22
-2 -22z"/>
<path d="M6855 4680 c17 -19 17 -21 0 -40 -19 -21 -7 -28 13 -8 10 10 17 10
32 0 22 -13 27 -3 8 16 -9 9 -9 15 0 24 20 20 14 33 -7 14 -16 -15 -19 -15
-31 -1 -7 8 -17 15 -23 15 -5 0 -2 -9 8 -20z"/>
<path d="M9040 4795 c0 -30 -2 -55 -4 -55 -2 0 -19 7 -39 15 -31 13 -36 13
-48 -1 -17 -21 -24 -122 -10 -156 12 -32 29 -35 71 -13 l30 16 0 -66 0 -65
350 0 350 0 0 190 0 190 -350 0 -350 0 0 -55z m680 -135 l0 -170 -330 0 -330
0 0 48 c0 70 -10 80 -55 59 -20 -10 -41 -15 -46 -12 -5 4 -9 39 -9 80 0 41 4
76 9 80 5 3 26 -2 46 -12 44 -21 55 -11 55 55 l0 42 330 0 330 0 0 -170z"/>
<path d="M9210 4711 c-15 -29 -12 -87 6 -105 37 -37 77 -9 77 54 0 22 -6 46
-13 55 -18 21 -57 19 -70 -4z m54 -7 c34 -33 5 -122 -30 -93 -17 14 -18 81 -2
97 15 15 13 15 32 -4z"/>
<path d="M9380 4711 c-15 -29 -12 -87 6 -105 37 -37 77 -9 77 54 0 22 -6 46
-13 55 -18 21 -57 19 -70 -4z m54 -7 c34 -33 5 -122 -30 -93 -17 14 -18 81 -2
97 15 15 13 15 32 -4z"/>
<path d="M9511 4680 c-17 -28 -31 -52 -31 -55 0 -3 13 -5 30 -5 17 0 33 -7 39
-17 9 -16 10 -16 11 -1 0 9 6 19 13 21 10 4 10 6 0 6 -9 1 -13 18 -13 51 0 28
-4 50 -9 50 -5 0 -23 -23 -40 -50z m36 -47 c-3 -2 -15 -3 -26 -1 -20 3 -20 3
2 38 l22 35 3 -33 c2 -19 1 -36 -1 -39z"/>
<path d="M9320 4600 c0 -5 5 -10 10 -10 6 0 10 5 10 10 0 6 -4 10 -10 10 -5 0
-10 -4 -10 -10z"/>
<path d="M10200 4795 c0 -30 -4 -55 -9 -55 -5 0 -22 7 -37 15 -27 14 -30 14
-46 -6 -20 -24 -25 -127 -8 -160 13 -23 39 -25 66 -4 31 23 34 19 34 -50 l0
-65 345 0 345 0 0 190 0 190 -345 0 -345 0 0 -55z m680 -135 l0 -170 -330 0
-330 0 0 38 c0 80 -20 100 -69 66 -33 -24 -43 -7 -43 71 0 79 10 95 46 71 48
-31 66 -15 66 62 l0 32 330 0 330 0 0 -170z"/>
<path d="M10372 4718 c-7 -7 -12 -33 -12 -58 0 -51 13 -70 47 -70 28 0 43 27
43 77 0 44 -14 63 -45 63 -12 0 -26 -5 -33 -12z m58 -53 c0 -46 -17 -69 -40
-55 -19 12 -19 88 -1 100 26 16 41 -1 41 -45z"/>
<path d="M10542 4718 c-7 -7 -12 -33 -12 -58 0 -51 13 -70 47 -70 28 0 43 27
43 77 0 44 -14 63 -45 63 -12 0 -26 -5 -33 -12z m58 -53 c0 -46 -17 -69 -40
-55 -19 12 -19 88 -1 100 26 16 41 -1 41 -45z"/>
<path d="M10650 4694 c0 -33 2 -36 24 -30 28 7 51 -15 42 -40 -5 -13 -15 -15
-42 -11 -30 5 -34 4 -24 -8 16 -20 55 -19 74 1 31 30 10 74 -35 74 -37 0 -35
23 2 28 44 6 45 22 1 22 -42 0 -42 0 -42 -36z"/>
<path d="M10480 4600 c0 -5 5 -10 10 -10 6 0 10 5 10 10 0 6 -4 10 -10 10 -5
0 -10 -4 -10 -10z"/>
<path d="M3791 4714 c0 -11 3 -14 6 -6 3 7 2 16 -1 19 -3 4 -6 -2 -5 -13z"/>
<path d="M3870 4650 l0 -80 63 2 62 2 -57 3 -58 4 0 69 0 69 58 4 57 3 -62 2
-63 2 0 -80z"/>
<path d="M3905 4700 c-4 -6 -4 -14 -1 -17 3 -4 6 -1 6 5 0 7 9 12 20 12 27 0
38 -30 17 -42 -10 -5 -17 -13 -17 -19 0 -5 9 -1 21 10 28 25 21 55 -13 59 -14
2 -29 -2 -33 -8z"/>
<path d="M9921 4693 c-1 -14 -9 -23 -23 -26 l-23 -4 23 -2 c17 -1 22 -7 23
-28 1 -28 1 -28 8 -3 4 14 17 27 31 31 24 7 24 7 2 8 -14 1 -26 10 -32 24 l-9
22 0 -22z"/>
<path d="M4221 4648 c25 -64 25 -64 43 -49 23 19 41 80 27 94 -8 8 -11 4 -11
-13 -1 -14 -7 -36 -14 -49 -13 -24 -13 -24 -28 19 -8 24 -20 46 -26 48 -8 2
-5 -15 9 -50z"/>
<path d="M8730 4693 c0 -6 7 -16 15 -23 14 -12 14 -15 -1 -31 -19 -21 -6 -27
14 -7 9 9 15 9 24 0 20 -20 33 -14 14 7 -15 16 -15 19 -1 31 8 7 15 17 15 23
0 5 -9 2 -20 -8 -19 -17 -21 -17 -40 0 -11 10 -20 13 -20 8z"/>
<path d="M3822 4670 c0 -14 2 -19 5 -12 2 6 2 18 0 25 -3 6 -5 1 -5 -13z"/>
<path d="M4015 4650 c-3 -5 -1 -10 4 -10 19 0 13 -58 -6 -63 -10 -3 -2 -5 17
-5 19 0 29 2 23 5 -8 2 -13 22 -13 44 0 37 -12 51 -25 29z"/>
<path d="M3920 4600 c0 -5 7 -10 15 -10 8 0 15 5 15 10 0 6 -7 10 -15 10 -8 0
-15 -4 -15 -10z"/>
<path d="M3808 4219 c-10 -5 -18 -15 -18 -21 0 -7 5 -6 15 2 13 11 15 6 15
-39 0 -39 -4 -51 -15 -51 -8 0 -15 -4 -15 -10 0 -5 18 -10 40 -10 22 0 40 5
40 10 0 6 -7 10 -15 10 -12 0 -15 13 -15 60 0 62 -3 66 -32 49z"/>
<path d="M3900 4194 c0 -33 2 -36 24 -30 28 7 51 -15 42 -40 -5 -13 -15 -15
-42 -11 -30 5 -34 4 -24 -8 16 -20 55 -19 74 1 31 30 10 74 -35 74 -37 0 -35
23 2 28 44 6 45 22 1 22 -42 0 -42 0 -42 -36z"/>
<path d="M3808 3849 c-10 -5 -18 -15 -18 -21 0 -7 5 -6 15 2 13 11 15 6 15
-39 0 -39 -4 -51 -15 -51 -8 0 -15 -4 -15 -10 0 -5 18 -10 40 -10 22 0 40 5
40 10 0 6 -7 10 -15 10 -12 0 -15 13 -15 60 0 62 -3 66 -32 49z"/>
<path d="M3790 3481 c-15 -29 -12 -87 6 -105 37 -37 77 -9 77 54 0 22 -6 46
-13 55 -18 21 -57 19 -70 -4z m54 -7 c34 -33 5 -122 -30 -93 -17 14 -18 81 -2
97 15 15 13 15 32 -4z"/>
<path d="M2520 3130 c0 -5 14 -10 30 -10 17 0 30 -2 30 -4 0 -2 -9 -23 -20
-47 -22 -49 -25 -69 -10 -69 6 0 10 8 10 19 0 10 11 39 25 65 14 26 25 49 25
52 0 2 -20 4 -45 4 -25 0 -45 -4 -45 -10z"/>
<path d="M371 2763 c0 -14 -8 -23 -18 -24 -11 0 -13 -3 -5 -6 19 -7 15 -43 -5
-43 -12 0 -14 -3 -7 -8 7 -4 14 -16 17 -27 4 -18 5 -18 6 3 1 15 7 22 22 22
16 0 20 -5 16 -20 -3 -11 -1 -18 4 -14 5 3 9 12 9 20 0 8 8 14 18 15 10 0 12
3 5 6 -14 5 -18 43 -4 43 4 0 6 12 3 27 -5 26 -5 26 -13 5 -11 -29 -36 -28
-42 1 l-4 22 -2 -22z m37 -50 c-5 -26 -38 -29 -38 -4 0 15 6 21 21 21 14 0 19
-5 17 -17z"/>
<path d="M368 1720 c-14 -16 -23 -30 -18 -30 7 0 1 -37 -16 -105 -4 -15 -1
-14 10 5 8 14 18 42 21 63 4 20 10 37 14 37 4 0 7 10 7 23 -1 16 4 21 18 19
11 -2 15 1 11 7 -10 17 -18 13 -47 -19z"/>
<path d="M869 2763 c-12 -15 -12 -16 4 -10 15 5 17 0 17 -42 0 -42 -3 -50 -22
-56 l-23 -8 22 -4 c13 -2 35 -2 50 0 27 4 27 4 6 12 -20 6 -23 14 -23 66 0 61
-8 71 -31 42z"/>
<path d="M972 2768 c-16 -16 -16 -100 0 -116 18 -18 56 -14 68 7 14 27 13 94
-2 109 -7 7 -21 12 -33 12 -12 0 -26 -5 -33 -12z m58 -53 c0 -46 -17 -69 -40
-55 -19 12 -19 88 -1 100 26 16 41 -1 41 -45z"/>
<path d="M866 2404 c16 -24 16 -28 -4 -70 -25 -50 -26 -54 -13 -54 5 0 15 16
21 35 13 40 25 38 35 -5 6 -28 25 -43 25 -20 0 26 -54 140 -66 140 -12 0 -11
-5 2 -26z"/>
<path d="M891 996 c-9 -10 -7 -17 6 -27 10 -8 14 -9 10 -2 -5 9 8 13 45 16
l53 3 -53 2 c-33 1 -51 6 -47 12 9 15 -1 12 -14 -4z"/>
<path d="M1160 1753 c0 -5 7 -17 15 -27 13 -17 13 -22 0 -42 -22 -33 -18 -43
6 -15 l20 24 15 -21 c8 -12 20 -22 25 -22 6 0 1 13 -10 29 -18 25 -19 30 -6
47 17 22 19 34 6 34 -5 0 -13 -10 -17 -22 l-7 -22 -17 22 c-18 22 -30 28 -30
15z"/>
<path d="M1576 1741 c-4 -7 -5 -15 -2 -18 9 -9 19 4 14 18 -4 11 -6 11 -12 0z"/>
<path d="M1605 1730 c3 -5 33 -10 66 -10 33 0 59 4 59 10 0 6 -29 10 -66 10
-41 0 -63 -4 -59 -10z"/>
<path d="M1570 1690 c0 -5 5 -10 10 -10 6 0 10 5 10 10 0 6 -4 10 -10 10 -5 0
-10 -4 -10 -10z"/>
<path d="M1605 1690 c3 -5 33 -10 66 -10 33 0 59 4 59 10 0 6 -29 10 -66 10
-41 0 -63 -4 -59 -10z"/>
<path d="M5027 2113 c-4 -3 -7 -28 -7 -55 0 -35 -4 -48 -14 -48 -8 0 -18 5
-21 10 -8 13 -52 13 -59 1 -14 -22 -17 -99 -7 -139 10 -35 16 -42 36 -42 13 0
27 5 30 10 3 6 13 10 20 10 12 0 15 -44 17 -267 l3 -268 3373 -3 3372 -2 0
400 0 400 -3368 0 c-1853 0 -3372 -3 -3375 -7z m6723 -393 l0 -380 -3355 0
-3355 0 0 265 c0 293 0 294 -60 258 -40 -23 -50 -10 -50 72 0 81 8 92 50 70
47 -24 60 -14 60 45 l0 50 3355 0 3355 0 0 -380z"/>
<path d="M5640 1995 c0 -30 -3 -55 -7 -55 -4 0 -22 6 -41 12 -30 11 -35 11
-48 -7 -8 -11 -14 -43 -14 -80 0 -37 6 -69 14 -80 13 -18 18 -18 48 -7 19 6
37 12 41 12 4 0 7 -90 7 -200 l0 -200 2560 0 2560 0 0 330 0 330 -2560 0
-2560 0 0 -55z m5110 -280 l0 -315 -2550 0 -2550 0 0 205 c0 224 0 225 -56
189 -36 -24 -45 -9 -45 71 0 80 9 95 45 71 46 -29 56 -22 56 39 l0 55 2550 0
2550 0 0 -315z"/>
<path d="M6450 1925 c0 -59 -5 -63 -50 -40 -45 23 -60 1 -60 -89 0 -89 13
-106 64 -88 18 7 35 12 39 12 4 0 7 -58 7 -130 l0 -130 2085 0 2085 0 0 260 0
260 -2085 0 -2085 0 0 -55z m4160 -205 l0 -240 -2075 0 -2075 0 0 125 c0 139
-7 153 -56 120 -20 -13 -29 -14 -38 -5 -12 12 -15 144 -3 156 4 5 23 0 42 -10
18 -10 38 -15 44 -12 6 4 11 29 11 57 l0 49 2075 0 2075 0 0 -240z"/>
<path d="M7210 1861 c0 -28 -4 -53 -10 -56 -5 -3 -24 2 -41 11 -31 15 -33 15
-46 -2 -13 -18 -18 -138 -7 -168 8 -20 43 -21 71 -1 19 13 22 13 27 -1 3 -9 6
-38 6 -65 l0 -49 205 0 205 0 0 190 0 190 -205 0 -205 0 0 -49z m390 -141 l0
-170 -190 0 -190 0 0 55 c0 64 -12 75 -59 51 -29 -15 -31 -15 -42 5 -11 21 -9
133 3 145 3 3 20 -2 38 -11 47 -24 60 -14 60 45 l0 50 190 0 190 0 0 -170z"/>
<path d="M7374 1765 c-27 -42 -4 -115 37 -115 29 0 49 28 49 70 0 66 -54 94
-86 45z m64 -49 c-2 -31 -8 -42 -22 -44 -36 -7 -51 62 -20 93 25 25 46 1 42
-49z"/>
<path d="M8040 1855 c0 -30 -4 -55 -9 -55 -5 0 -22 7 -37 15 -27 14 -30 14
-46 -6 -20 -24 -25 -127 -8 -160 13 -23 39 -25 66 -4 31 23 34 19 34 -50 l0
-65 345 0 345 0 0 190 0 190 -345 0 -345 0 0 -55z m680 -135 l0 -170 -330 0
-330 0 0 38 c0 80 -17 97 -65 66 -13 -9 -29 -13 -35 -9 -12 8 -14 152 -1 160
5 3 26 -2 45 -12 20 -9 39 -14 42 -10 4 4 9 29 12 57 l5 50 328 0 329 0 0
-170z"/>
<path d="M8210 1771 c-15 -29 -12 -87 6 -105 37 -37 77 -9 77 54 0 22 -6 46
-13 55 -18 21 -57 19 -70 -4z m54 -7 c34 -33 5 -122 -30 -93 -17 14 -18 81 -2
97 15 15 13 15 32 -4z"/>
<path d="M8380 1771 c-15 -29 -12 -87 6 -105 37 -37 77 -9 77 54 0 22 -6 46
-13 55 -18 21 -57 19 -70 -4z m54 -7 c34 -33 5 -122 -30 -93 -17 14 -18 81 -2
97 15 15 13 15 32 -4z"/>
<path d="M8490 1754 c0 -33 2 -36 24 -30 28 7 51 -15 42 -40 -5 -13 -15 -15
-42 -11 -30 5 -34 4 -24 -8 16 -20 55 -19 74 1 31 30 10 74 -35 74 -37 0 -35
23 2 28 44 6 45 22 1 22 -42 0 -42 0 -42 -36z"/>
<path d="M8320 1660 c0 -5 5 -10 10 -10 6 0 10 5 10 10 0 6 -4 10 -10 10 -5 0
-10 -4 -10 -10z"/>
<path d="M9200 1855 c0 -59 -5 -63 -50 -40 -26 13 -30 13 -45 -1 -12 -13 -15
-33 -13 -92 4 -89 19 -108 67 -80 16 9 32 14 35 10 3 -3 6 -32 6 -64 l0 -58
205 0 205 0 0 190 0 190 -205 0 -205 0 0 -55z m390 -135 l0 -170 -190 0 -190
0 0 55 c0 64 -15 77 -56 50 -37 -24 -49 -7 -49 70 0 78 13 95 50 71 40 -26 55
-15 55 44 l0 50 190 0 190 0 0 -170z"/>
<path d="M9379 1773 c-12 -15 -12 -16 4 -10 15 6 17 0 17 -43 0 -37 -4 -50
-14 -50 -8 0 -18 -4 -21 -10 -4 -6 12 -10 39 -10 25 0 46 5 46 10 0 6 -7 10
-15 10 -12 0 -15 13 -15 60 0 63 -13 77 -41 43z"/>
<path d="M10070 1855 c0 -30 -2 -55 -4 -55 -2 0 -19 7 -39 15 -31 13 -36 13
-48 -1 -17 -21 -24 -122 -10 -156 12 -32 29 -35 71 -13 l30 16 0 -66 0 -65
205 0 205 0 0 190 0 190 -205 0 -205 0 0 -55z m400 -135 l0 -170 -190 0 -190
0 0 48 c0 70 -10 80 -55 59 -20 -10 -41 -15 -46 -12 -5 4 -9 39 -9 80 0 41 4
76 9 80 5 3 26 -2 46 -12 44 -21 55 -11 55 55 l0 42 190 0 190 0 0 -170z"/>
<path d="M10240 1771 c-15 -29 -12 -87 6 -105 37 -37 77 -9 77 54 0 22 -6 46
-13 55 -18 21 -57 19 -70 -4z m54 -7 c34 -33 5 -122 -30 -93 -17 14 -18 81 -2
97 15 15 13 15 32 -4z"/>
<path d="M6930 1720 c0 -87 1 -90 23 -89 12 0 16 3 10 6 -9 3 -13 31 -13 89 0
49 -4 84 -10 84 -6 0 -10 -37 -10 -90z"/>
<path d="M6610 1725 l0 -75 75 0 76 0 -3 73 -3 72 -72 3 -73 3 0 -76z m130 0
l0 -55 -55 0 -55 0 0 55 0 55 55 0 55 0 0 -55z"/>
<path d="M6702 1761 c2 -7 7 -12 11 -12 12 1 9 15 -3 20 -7 2 -11 -2 -8 -8z"/>
<path d="M6645 1699 c-10 -15 3 -25 16 -12 7 7 7 13 1 17 -6 3 -14 1 -17 -5z"/>
<path d="M7778 1793 c8 -3 12 -31 12 -89 0 -49 4 -84 10 -84 6 0 10 37 10 90
0 87 -1 90 -22 89 -13 0 -17 -3 -10 -6z"/>
<path d="M9790 1751 c0 -12 -8 -21 -22 -24 l-23 -4 23 -2 c16 -1 22 -7 22 -26
0 -14 5 -25 10 -25 6 0 10 11 10 24 0 18 7 26 23 29 l22 4 -22 2 c-16 1 -23 7
-23 21 0 11 -4 20 -10 20 -5 0 -10 -9 -10 -19z"/>
<path d="M8895 1740 c17 -19 17 -21 0 -40 -10 -11 -13 -20 -8 -20 6 0 16 7 23
15 12 14 15 14 30 0 24 -22 36 -18 15 5 -17 19 -17 21 0 40 10 11 13 20 8 20
-6 0 -16 -7 -23 -15 -12 -14 -15 -14 -30 0 -24 22 -36 18 -15 -5z"/>
<path d="M5814 1781 c19 -21 19 -32 -8 -93 -9 -21 -13 -38 -8 -38 5 0 16 17
26 38 l19 37 12 -34 c6 -19 16 -36 22 -38 6 -2 -1 29 -16 69 -19 52 -32 74
-46 77 -20 3 -20 3 -1 -18z"/>
<path d="M6081 1697 c-9 -11 -8 -17 4 -27 10 -9 15 -9 15 -1 0 6 20 12 48 13
l47 1 -45 4 c-24 3 -47 9 -51 14 -3 6 -11 4 -18 -4z"/>
<path d="M11220 1855 c0 -59 -5 -63 -50 -40 -44 23 -60 1 -60 -81 0 -97 24
-126 76 -89 29 20 34 11 34 -57 l0 -58 205 0 205 0 0 190 0 190 -205 0 -205 0
0 -55z m390 -135 l0 -170 -190 0 -190 0 0 55 c0 64 -15 77 -56 50 -37 -24 -49
-7 -49 70 0 78 13 95 50 71 40 -26 55 -15 55 44 l0 50 190 0 190 0 0 -170z"/>
<path d="M11390 1775 c-7 -9 -9 -19 -5 -23 4 -4 10 -1 12 6 3 6 16 12 29 12
35 0 30 -26 -11 -63 -48 -42 -46 -57 10 -57 25 0 45 5 45 10 0 6 -17 10 -37
10 l-37 0 37 34 c20 18 37 40 37 48 0 36 -56 52 -80 23z"/>
<path d="M5190 1740 c0 -27 5 -50 10 -50 6 0 10 23 10 50 0 28 -4 50 -10 50
-5 0 -10 -22 -10 -50z"/>
<path d="M5408 1765 c-6 -14 -15 -25 -19 -25 -4 0 -5 -8 -2 -18 2 -9 0 -36 -5
-60 -13 -57 3 -44 18 15 6 26 17 51 23 55 9 6 9 8 0 8 -6 0 -9 9 -6 20 4 15
11 19 25 14 14 -4 18 -2 14 5 -12 19 -36 12 -48 -14z"/>
<path d="M10931 1773 c0 -14 -8 -23 -18 -24 -11 0 -13 -3 -5 -6 19 -7 15 -43
-5 -43 -12 0 -14 -3 -7 -8 7 -4 14 -16 17 -27 4 -18 5 -18 6 3 1 15 7 22 22
22 16 0 20 -5 16 -20 -3 -11 -1 -18 4 -14 5 3 9 12 9 20 0 8 8 14 18 15 10 0
12 3 5 6 -14 5 -18 43 -4 43 4 0 6 12 3 27 -5 26 -5 26 -13 5 -11 -29 -36 -28
-42 1 l-4 22 -2 -22z m37 -50 c-5 -26 -38 -29 -38 -4 0 15 6 21 21 21 14 0 19
-5 17 -17z"/>
<path d="M5190 1660 c0 -5 5 -10 10 -10 6 0 10 5 10 10 0 6 -4 10 -10 10 -5 0
-10 -4 -10 -10z"/>
<path d="M2760 1855 c0 -59 -3 -62 -45 -41 -50 26 -65 4 -65 -92 0 -85 27
-112 76 -77 29 20 34 11 34 -57 l0 -58 280 0 280 0 0 190 0 190 -280 0 -280 0
0 -55z m540 -135 l0 -170 -260 0 -260 0 0 29 c0 86 -21 108 -69 75 -34 -24
-46 -5 -46 71 0 77 13 95 49 71 14 -9 32 -16 39 -16 14 0 27 41 27 86 l0 24
260 0 260 0 0 -170z"/>
<path d="M2929 1734 l21 -26 -21 -29 c-11 -16 -16 -29 -10 -29 5 0 16 9 24 21
l15 20 16 -22 c21 -31 32 -17 11 14 -15 24 -15 27 0 51 10 14 13 26 9 26 -5 0
-15 -10 -22 -21 l-14 -21 -14 21 c-8 11 -20 21 -25 21 -6 0 -1 -12 10 -26z"/>
<path d="M3860 1855 c0 -30 -2 -55 -5 -55 -4 0 -20 7 -37 16 -40 21 -56 5 -64
-62 -12 -102 22 -147 80 -108 l26 16 0 -66 0 -66 350 0 350 0 0 190 0 190
-350 0 -350 0 0 -55z m680 -135 l0 -170 -330 0 -330 0 0 55 c0 65 -12 75 -60
50 -42 -22 -50 -11 -50 70 0 81 8 92 50 70 47 -24 60 -14 60 45 l0 50 330 0
330 0 0 -170z"/>
<path d="M4036 1774 c-34 -33 -9 -124 34 -124 10 0 26 10 34 22 44 63 -17 154
-68 102z m59 -54 c0 -41 -2 -45 -25 -45 -21 0 -26 5 -28 33 -5 47 4 64 30 60
20 -3 23 -9 23 -48z"/>
<path d="M4206 1774 c-34 -33 -9 -124 34 -124 10 0 26 10 34 22 44 63 -17 154
-68 102z m59 -54 c0 -41 -2 -45 -25 -45 -21 0 -26 5 -28 33 -5 47 4 64 30 60
20 -3 23 -9 23 -48z"/>
<path d="M4310 1754 c0 -33 2 -36 23 -31 29 8 50 -6 45 -29 -3 -14 -12 -19
-36 -18 -37 2 -43 -13 -8 -22 33 -8 66 12 66 39 0 29 -18 47 -47 47 -14 0 -23
6 -23 15 0 10 10 15 30 15 17 0 30 5 30 10 0 6 -18 10 -40 10 -39 0 -40 -1
-40 -36z"/>
<path d="M4140 1660 c0 -5 5 -10 10 -10 6 0 10 5 10 10 0 6 -4 10 -10 10 -5 0
-10 -4 -10 -10z"/>
<path d="M12280 1855 c0 -30 -2 -55 -5 -55 -4 0 -20 7 -37 16 -40 21 -56 5
-64 -62 -12 -102 22 -147 80 -108 l26 16 0 -66 0 -66 205 0 205 0 0 190 0 190
-205 0 -205 0 0 -55z m400 -135 l0 -170 -190 0 -190 0 0 55 c0 65 -12 75 -60
50 -42 -22 -50 -11 -50 70 0 81 8 92 50 70 47 -24 60 -14 60 45 l0 50 190 0
190 0 0 -170z"/>
<path d="M12468 1779 c-10 -5 -18 -15 -18 -21 0 -7 5 -6 15 2 13 11 15 6 15
-39 0 -39 -4 -51 -15 -51 -8 0 -15 -4 -15 -10 0 -5 21 -10 46 -10 27 0 43 4
39 10 -3 6 -13 10 -21 10 -11 0 -14 14 -14 60 0 62 -3 66 -32 49z"/>
<path d="M13160 1855 c0 -59 -5 -63 -50 -40 -44 23 -60 1 -60 -85 0 -38 3 -75
6 -84 8 -20 43 -21 70 -1 29 20 34 11 34 -57 l0 -58 205 0 205 0 0 190 0 190
-205 0 -205 0 0 -55z m390 -135 l0 -170 -190 0 -190 0 0 55 c0 64 -15 77 -57
50 -25 -17 -27 -17 -40 1 -15 20 -15 136 0 151 4 4 23 -1 42 -11 18 -10 38
-15 44 -12 6 4 11 29 11 57 l0 49 190 0 190 0 0 -170z"/>
<path d="M13339 1773 c-12 -15 -12 -16 4 -10 15 5 17 0 17 -42 0 -42 -3 -50
-22 -56 l-23 -8 22 -4 c13 -2 35 -2 50 0 27 4 27 4 6 12 -20 6 -23 14 -23 66
0 61 -8 71 -31 42z"/>
<path d="M14030 1855 c0 -30 -4 -55 -9 -55 -5 0 -22 7 -37 15 -27 14 -30 14
-46 -6 -20 -24 -25 -127 -8 -160 13 -23 39 -25 66 -4 31 23 34 19 34 -50 l0
-65 205 0 205 0 0 190 0 190 -205 0 -205 0 0 -55z m400 -135 l0 -170 -190 0
-190 0 0 44 c0 77 -16 92 -65 60 -13 -9 -29 -13 -35 -9 -12 8 -14 152 -1 160
5 3 26 -2 45 -12 20 -9 39 -14 42 -10 4 4 9 29 12 57 l5 50 188 0 189 0 0
-170z"/>
<path d="M14200 1771 c-15 -29 -12 -87 6 -105 37 -37 77 -9 77 54 0 22 -6 46
-13 55 -18 21 -57 19 -70 -4z m54 -7 c34 -33 5 -122 -30 -93 -17 14 -18 81 -2
97 15 15 13 15 32 -4z"/>
<path d="M2170 1725 l0 -75 75 0 75 0 0 75 0 75 -75 0 -75 0 0 -75z m140 0 l0
-65 -65 0 -65 0 0 65 0 65 65 0 65 0 0 -65z"/>
<path d="M3470 1709 c0 -57 4 -88 10 -84 6 3 10 42 10 85 0 53 4 80 13 83 6 3
2 6 -10 6 -22 1 -23 -2 -23 -90z"/>
<path d="M13751 1753 c-1 -14 -9 -23 -23 -26 l-23 -4 23 -2 c17 -1 22 -7 23
-28 1 -28 1 -28 8 -3 4 14 17 27 31 31 24 7 24 7 2 8 -14 1 -26 10 -32 24 l-9
22 0 -22z"/>
<path d="M11970 1715 c31 -32 39 -45 27 -45 -9 0 -17 -4 -17 -10 0 -5 14 -10
30 -10 28 0 30 2 29 38 -1 20 -3 29 -6 20 -6 -25 -15 -23 -53 17 -19 19 -38
35 -44 35 -6 0 10 -20 34 -45z"/>
<path d="M12855 1740 c17 -19 17 -21 0 -40 -10 -11 -13 -20 -8 -20 6 0 16 7
23 15 12 14 15 14 30 0 24 -22 36 -18 15 5 -17 19 -17 21 0 40 10 11 13 20 8
20 -6 0 -16 -7 -23 -15 -12 -14 -15 -14 -30 0 -24 22 -36 18 -15 -5z"/>
<path d="M2510 1710 c0 -5 5 -10 10 -10 6 0 10 5 10 10 0 6 -4 10 -10 10 -5 0
-10 -4 -10 -10z"/>
<path d="M3531 1668 c-1 -15 8 -18 59 -18 51 0 60 3 59 18 0 10 -3 12 -6 5 -3
-8 -24 -13 -53 -13 -29 0 -50 5 -53 13 -3 7 -6 5 -6 -5z"/>
<path d="M4691 1668 c-1 -15 8 -18 59 -18 51 0 60 3 59 18 0 10 -3 12 -6 5 -3
-8 -24 -13 -53 -13 -29 0 -50 5 -53 13 -3 7 -6 5 -6 -5z"/>
<path d="M1589 1034 l21 -26 -21 -29 c-11 -16 -16 -29 -10 -29 5 0 16 9 24 21
l15 20 16 -22 c21 -31 32 -17 11 14 -15 24 -15 27 0 51 10 14 13 26 9 26 -5 0
-15 -10 -22 -21 l-14 -21 -14 21 c-8 11 -20 21 -25 21 -6 0 -1 -12 10 -26z"/>
<path d="M350 515 c0 -30 4 -55 9 -55 23 0 121 44 121 54 0 9 -102 56 -123 56
-4 0 -7 -25 -7 -55z m98 0 c4 -3 -63 -35 -74 -35 -2 0 -4 16 -4 35 l0 35 37
-15 c20 -9 39 -17 41 -20z"/>
<path d="M2150 725 c0 -59 -5 -63 -50 -40 -45 23 -60 1 -60 -89 0 -91 13 -108
64 -83 19 9 37 13 40 10 3 -4 6 -64 6 -135 l0 -128 1060 0 1060 0 0 260 0 260
-1060 0 -1060 0 0 -55z m2110 -205 l0 -240 -1050 0 -1050 0 0 130 c0 118 -2
130 -18 130 -10 0 -28 -7 -41 -16 -17 -12 -25 -14 -34 -5 -13 13 -17 145 -4
157 4 4 23 0 43 -9 19 -10 40 -15 45 -12 5 4 9 28 9 56 l0 49 1050 0 1050 0 0
-240z"/>
<path d="M2370 655 c0 -30 -4 -55 -8 -55 -5 0 -23 7 -41 16 -44 22 -54 9 -59
-75 -6 -100 22 -136 74 -96 31 23 34 19 34 -50 l0 -65 280 0 280 0 0 190 0
190 -280 0 -280 0 0 -55z m540 -135 l0 -170 -260 0 -260 0 0 44 c0 77 -16 92
-65 60 -13 -9 -29 -13 -35 -9 -13 8 -13 152 0 160 5 3 24 -2 41 -11 31 -15 33
-15 46 2 7 10 13 35 13 56 l0 38 260 0 260 0 0 -170z"/>
<path d="M2530 553 c0 -5 7 -17 15 -27 13 -17 13 -22 0 -42 -22 -33 -18 -43 6
-15 l20 24 15 -21 c8 -12 20 -22 25 -22 6 0 1 13 -10 29 -18 25 -19 30 -6 47
17 22 19 34 6 34 -5 0 -13 -10 -17 -22 l-7 -22 -17 22 c-18 22 -30 28 -30 15z"/>
<path d="M3550 655 c0 -30 -2 -55 -4 -55 -2 0 -20 7 -41 16 -49 20 -58 10 -63
-69 -6 -102 22 -141 74 -102 31 23 34 19 34 -50 l0 -65 290 0 290 0 0 190 0
190 -290 0 -290 0 0 -55z m570 -135 l0 -170 -275 0 -275 0 0 44 c0 77 -16 92
-65 60 -13 -9 -29 -13 -35 -9 -14 8 -13 152 1 161 6 3 26 -2 44 -12 19 -10 37
-15 41 -11 4 3 9 29 12 57 l5 50 273 0 274 0 0 -170z"/>
<path d="M3720 571 c-15 -29 -12 -87 6 -105 37 -37 77 -9 77 54 0 22 -6 46
-13 55 -18 21 -57 19 -70 -4z m54 -7 c34 -33 5 -122 -30 -93 -17 14 -18 81 -2
97 15 15 13 15 32 -4z"/>
<path d="M3890 575 c-7 -9 -9 -19 -5 -23 4 -4 10 -1 12 6 3 6 16 12 29 12 35
0 31 -29 -11 -69 -19 -18 -35 -37 -35 -42 0 -5 20 -9 45 -9 25 0 45 5 45 10 0
6 -14 10 -32 10 l-32 0 32 33 c18 18 32 40 32 48 0 37 -56 53 -80 24z"/>
<path d="M3830 460 c0 -5 5 -10 10 -10 6 0 10 5 10 10 0 6 -4 10 -10 10 -5 0
-10 -4 -10 -10z"/>
<path d="M3080 553 c0 -6 7 -16 15 -23 14 -12 14 -15 -1 -31 -19 -21 -6 -27
14 -7 9 9 15 9 24 0 20 -20 33 -14 14 7 -15 16 -15 19 -1 31 8 7 15 17 15 23
0 5 -9 2 -20 -8 -19 -17 -21 -17 -40 0 -11 10 -20 13 -20 8z"/>
<path d="M970 661 c0 -28 -4 -53 -10 -56 -5 -3 -24 2 -41 11 -31 15 -33 15
-46 -2 -8 -11 -13 -46 -13 -90 0 -89 13 -106 64 -81 19 9 37 13 40 10 3 -4 6
-33 6 -65 l0 -58 278 2 277 3 0 185 0 185 -277 3 -278 2 0 -49z m540 -141 l0
-170 -265 0 -265 0 0 60 c0 67 -7 72 -60 45 -28 -14 -30 -14 -41 6 -12 22 -9
133 4 146 4 3 23 -1 43 -10 19 -10 40 -15 45 -12 5 4 9 28 9 56 l0 49 265 0
265 0 0 -170z"/>
<path d="M1137 554 c-17 -17 -5 -43 23 -53 17 -5 30 -15 30 -21 0 -16 -30 -24
-43 -11 -17 17 -31 13 -17 -4 23 -28 80 -13 80 22 0 7 -17 20 -37 28 -28 12
-34 18 -25 27 10 10 17 10 33 -1 18 -10 20 -10 17 1 -5 14 -50 23 -61 12z"/>
<path d="M1711 553 c-1 -18 -7 -23 -28 -24 -28 -1 -28 -1 -3 -8 14 -4 27 -17
31 -31 l7 -25 1 27 c1 19 7 28 24 31 22 4 22 4 0 6 -14 1 -23 9 -26 24 l-4 22
-2 -22z"/>
</g>
</svg>
