<?xml version="1.0" standalone="no"?>
<!DOCTYPE svg PUBLIC "-//W3C//DTD SVG 20010904//EN"
 "http://www.w3.org/TR/2001/REC-SVG-20010904/DTD/svg10.dtd">
<svg version="1.0" xmlns="http://www.w3.org/2000/svg"
 width="1154.000000pt" height="831.000000pt" viewBox="0 0 1154.000000 831.000000"
 preserveAspectRatio="xMidYMid meet">
<metadata>
Created by potrace 1.16, written by Peter Selinger 2001-2019
</metadata>
<g transform="translate(0.000000,831.000000) scale(0.100000,-0.100000)"
fill="#000000" stroke="none">
<path d="M168 8195 c-14 -8 -35 -30 -47 -48 l-20 -33 2 -3953 2 -3953 40 -34
40 -34 1183 0 1182 0 0 580 0 580 2650 0 2650 0 0 278 0 277 -2500 0 c-1375
-1 -2500 0 -2500 1 0 1 12 10 28 20 26 18 136 19 3122 20 1702 1 3097 2 3100
3 7 2 6 538 -1 545 -3 3 -988 6 -2187 6 l-2182 0 2 572 3 572 53 0 c28 1 52
-3 52 -7 0 -5 5 -5 12 -1 16 10 1588 11 1588 1 0 -5 5 -5 12 -1 16 10 1908 11
1908 1 0 -5 5 -5 12 -1 14 9 1908 11 1908 2 0 -4 12 -4 28 0 15 4 271 7 569 6
l542 -1 0 273 c1 229 -2 274 -14 284 -8 7 -15 8 -15 4 0 -5 -44 -8 -97 -6 -54
1 -102 2 -108 2 -86 -2 -1106 -4 -1120 -2 -19 3 -20 11 -20 260 l1 257 51 0
c28 0 55 4 60 9 4 4 8 129 9 277 l1 269 -2929 0 -2928 0 0 185 0 185 2148 0
c1181 0 2272 0 2424 0 l277 0 -4 22 c-3 12 1 28 8 37 6 8 7 12 1 8 -7 -4 -11
20 -11 74 0 51 4 79 11 79 7 0 8 3 1 8 -15 10 -16 145 -1 154 6 5 7 8 1 8 -13
0 -14 329 -1 349 6 9 5 12 -1 8 -6 -4 -9 58 -9 166 l0 172 -412 0 c-268 0
-412 3 -412 10 0 7 -3 7 -8 0 -4 -6 -122 -10 -317 -10 -195 0 -313 4 -317 10
-5 7 -8 7 -8 0 0 -7 -538 -10 -1595 -10 -1057 0 -1595 3 -1595 10 0 7 -3 7 -8
0 -4 -6 -122 -10 -317 -10 -195 0 -313 4 -317 10 -5 7 -8 7 -8 0 0 -8 -183
-12 -305 -6 -19 1 -20 8 -20 170 0 93 3 167 8 164 5 -3 3 4 -5 16 -7 12 -17
21 -23 21 -5 1 -139 1 -297 0 l-288 0 0 193 0 193 -387 0 -388 0 -3 185 -2
185 212 -1 213 0 0 202 0 203 -1000 0 -1000 0 -50 -30 c-27 -16 -56 -30 -63
-30 -7 0 -33 14 -57 30 -39 27 -51 30 -117 30 -44 -1 -84 -7 -100 -15z m212
-35 c26 -16 55 -30 65 -30 10 0 40 14 68 32 l49 31 976 -1 c538 0 982 -1 989
-1 9 -1 12 -48 11 -184 l0 -182 -992 1 -991 1 -49 -33 c-55 -37 -67 -37 -127
3 -39 26 -51 28 -143 29 -56 1 -104 2 -108 3 -5 1 -8 66 -8 146 l0 144 31 35
c25 29 38 35 77 38 77 5 103 0 152 -32z m-6 -383 c48 -37 85 -37 138 -1 37 25
54 29 116 31 l72 1 0 -49 c0 -54 -5 -57 -52 -33 -28 14 -32 14 -47 0 -23 -24
-23 -168 1 -192 15 -15 19 -15 49 0 17 9 36 16 41 16 4 0 7 -1664 6 -3697 l-3
-3697 -235 -1 c-129 0 -247 3 -262 8 -15 5 -39 22 -53 39 l-25 30 0 3787 0
3788 108 -1 c103 -1 111 -2 146 -29z m1046 -24 l0 -53 -41 21 c-38 19 -43 19
-58 5 -24 -25 -23 -168 2 -193 17 -17 19 -17 48 0 17 9 35 17 40 17 11 0 13
-7390 2 -7391 -27 -3 -670 -4 -680 -1 -10 3 -13 751 -13 3696 0 2285 -4 3697
-10 3706 -8 13 -14 13 -42 2 -62 -25 -63 -24 -66 58 -3 98 3 108 56 81 41 -21
41 -21 52 -2 5 11 10 39 10 64 l0 44 350 0 350 0 0 -54z m690 -189 c0 -142 -4
-244 -9 -244 -5 0 -23 8 -40 17 -29 17 -31 17 -48 0 -24 -24 -26 -168 -3 -192
14 -13 19 -13 52 4 21 10 40 16 43 13 6 -7 7 -5962 0 -5962 -2 0 -20 8 -40 17
-33 16 -37 16 -52 0 -20 -19 -29 -108 -16 -157 11 -41 40 -51 75 -26 12 9 26
16 30 16 5 0 8 -54 8 -120 0 -66 -3 -120 -8 -120 -4 0 -18 7 -30 16 -31 22
-65 14 -73 -16 -11 -40 -10 -114 2 -149 12 -34 30 -38 69 -16 14 8 28 14 33
15 4 0 7 -54 7 -120 l0 -120 -41 21 c-38 19 -43 19 -58 5 -24 -25 -23 -168 2
-193 17 -17 19 -17 48 0 17 9 35 17 40 17 14 0 11 -107 -3 -112 -7 -2 -157 -3
-333 -3 l-320 1 -3 3702 c-2 3337 -4 3703 -18 3709 -8 3 -30 -3 -49 -13 -19
-10 -38 -15 -42 -10 -10 9 -11 161 -1 171 3 3 24 -3 46 -14 50 -25 62 -15 62
54 l0 52 335 0 335 0 0 -243z m784 -387 c-1 -131 -5 -241 -8 -244 -3 -3 -17 2
-30 11 -55 36 -79 7 -79 -96 0 -91 27 -121 77 -83 31 24 36 18 36 -40 0 -53
-1 -56 -40 -80 -51 -33 -72 -32 -127 6 -42 29 -49 31 -118 27 -80 -4 -118 -23
-142 -69 -10 -19 -12 -519 -10 -2362 l2 -2339 37 -34 c26 -23 48 -34 70 -35
18 -1 99 -1 181 -2 l147 -1 0 -54 0 -54 -35 21 c-56 33 -75 14 -77 -75 -2 -67
2 -90 16 -109 14 -19 15 -19 50 -2 20 9 39 17 41 17 3 0 5 -58 5 -130 l0 -130
-380 0 -380 0 0 2916 c0 1992 -3 2921 -10 2935 -11 19 -11 19 -50 -1 l-39 -20
-12 21 c-12 23 -9 143 4 156 4 4 21 -1 36 -10 55 -32 71 -17 71 66 l0 37 383
-2 382 -3 -1 -238z m563 -146 l41 -1 0 -174 c0 -154 -2 -175 -16 -178 -10 -2
-141 -3 -292 -3 l-275 0 -3 57 c-3 63 -19 78 -55 53 -30 -21 -54 -19 -60 5 -6
24 -1 140 7 148 3 3 24 -3 47 -13 49 -23 59 -14 59 57 0 25 5 48 10 50 8 2
321 2 537 -1z m-736 -401 c55 -37 83 -37 139 0 l45 30 308 0 307 0 0 -50 c0
-27 -2 -50 -5 -50 -2 0 -20 8 -40 17 -32 15 -37 15 -51 1 -32 -32 -24 -188 10
-201 7 -3 28 3 45 14 17 10 34 19 36 19 3 0 5 -61 5 -135 l0 -135 -312 0 -313
0 -45 -30 c-25 -16 -51 -30 -59 -30 -7 0 -33 14 -58 30 -42 29 -48 30 -154 30
-106 0 -109 1 -110 23 -1 12 -1 111 -1 221 0 181 1 200 19 225 29 38 60 51
129 51 51 0 68 -5 105 -30z m6416 -230 l0 -260 -2799 0 -2798 0 0 133 c0 155
-4 165 -62 136 l-38 -20 -10 26 c-14 37 -12 118 3 139 12 17 15 17 51 0 46
-22 56 -12 56 59 l0 47 2798 0 2798 0 1 -260z m-6410 -308 c56 -36 77 -35 137
5 l41 27 307 1 308 0 0 -53 0 -53 -30 16 c-48 25 -68 20 -79 -21 -13 -46 -7
-139 9 -159 16 -19 39 -19 64 0 11 8 23 15 28 15 4 0 8 -58 8 -130 l0 -130
-307 0 -308 0 -45 -30 c-56 -38 -80 -38 -134 0 -41 27 -51 29 -152 32 l-108 3
0 255 -1 255 107 -1 c101 -1 108 -2 155 -32z m6384 29 l26 -1 0 -254 c0 -223
-2 -255 -16 -258 -14 -3 -3978 -2 -5193 1 l-388 1 0 128 c0 153 -4 163 -56
139 -23 -11 -40 -15 -46 -9 -14 14 -22 85 -14 126 8 40 27 46 64 20 33 -23 52
-3 52 56 0 25 2 49 4 51 4 3 5475 3 5567 0z m-6391 -561 c57 -38 90 -38 145 0
l44 30 305 0 306 0 0 -50 c0 -27 -2 -50 -4 -50 -2 0 -20 7 -41 16 -32 13 -40
13 -51 2 -29 -29 -25 -184 6 -203 5 -3 27 4 50 15 l40 20 0 -1445 0 -1445
-311 0 -310 0 -44 -30 c-54 -37 -70 -37 -120 -2 -36 25 -50 27 -154 32 l-115
5 0 1563 c-1 860 1 1566 3 1568 2 2 50 4 105 4 95 0 103 -2 146 -30z m1573
-214 c-1 -131 -4 -240 -7 -243 -3 -3 -17 2 -30 11 -53 34 -77 13 -81 -71 -3
-81 10 -123 38 -123 13 0 32 7 43 15 10 8 22 15 27 15 4 0 7 -88 7 -195 l0
-196 -30 16 c-48 25 -68 20 -79 -21 -13 -47 -4 -145 15 -164 13 -13 18 -13 45
3 17 9 35 17 40 17 5 0 9 -81 9 -190 0 -104 -2 -190 -5 -190 -2 0 -20 7 -39
17 -28 13 -38 14 -50 4 -33 -28 -28 -192 7 -204 6 -2 29 4 50 15 l37 18 0
-195 0 -196 -30 16 c-47 24 -68 20 -78 -17 -10 -36 -8 -122 3 -156 8 -26 40
-29 69 -7 11 8 23 15 28 15 4 0 8 -54 8 -120 l0 -120 -40 20 c-23 11 -45 18
-50 15 -18 -11 -32 -89 -25 -141 8 -68 26 -84 67 -61 16 9 34 17 39 17 5 0 9
-52 9 -115 0 -63 -4 -115 -9 -115 -5 0 -23 8 -40 17 -28 17 -32 17 -47 2 -30
-30 -25 -185 7 -204 4 -3 26 4 49 15 l40 20 0 -60 0 -60 -375 0 -375 0 0 1443
c0 1071 -3 1446 -11 1454 -9 9 -22 7 -51 -8 l-38 -20 -11 27 c-13 35 -9 120 6
141 11 15 15 14 42 -2 47 -28 63 -15 63 50 l0 55 378 -2 377 -3 -2 -239z
m5857 -406 l0 -260 -2920 0 -2920 0 0 133 c0 72 -4 139 -10 147 -7 12 -15 11
-49 -9 -39 -21 -42 -21 -49 -4 -9 23 -9 149 0 159 4 4 26 -1 49 -11 49 -23 59
-14 59 58 l0 47 2920 0 2920 0 0 -260z m-142 -276 l22 -4 0 -255 0 -255 -2860
0 -2860 0 0 124 c0 68 -3 131 -6 140 -8 21 -25 20 -63 -1 -16 -10 -33 -14 -37
-10 -12 12 -14 138 -3 159 9 17 11 17 48 -1 49 -25 61 -14 61 54 l0 52 2838 1
c1560 0 2847 -1 2860 -4z m1392 -579 c1 -25 1 -92 1 -150 0 -58 0 -154 -1
-215 l0 -110 -3545 0 -3545 0 0 133 c0 155 -4 165 -62 136 l-38 -20 -11 28
c-11 28 -7 139 6 151 3 3 21 -2 40 -12 51 -28 65 -17 65 49 l0 55 3545 0 3545
0 0 -45z m-6690 -494 c8 -1 6 -355 -2 -361 -4 -3 -94 -5 -200 -5 l-193 0 -5
62 c-3 34 -8 65 -12 69 -4 4 -26 -1 -49 -11 -52 -24 -59 -14 -56 75 4 88 10
96 54 70 46 -27 63 -14 63 50 0 27 4 50 10 52 8 2 373 2 390 -1z m1 -390 c1
-9 1 -291 0 -328 l-1 -33 -200 0 -200 0 0 60 c0 70 -11 80 -61 55 -31 -17 -33
-16 -46 1 -15 21 -16 117 -1 147 8 16 11 16 47 -2 49 -25 61 -14 61 54 l0 52
200 0 c110 0 200 -3 201 -6z m2 -558 c-1 -98 -2 -181 -2 -185 -1 -5 -91 -8
-201 -8 l-200 0 0 58 c0 76 -11 87 -62 61 l-38 -20 -11 28 c-12 32 -7 129 8
144 7 7 20 4 40 -7 47 -27 63 -14 63 51 l0 55 203 0 202 0 -2 -177z m-1988
-243 c24 -16 54 -30 68 -30 13 0 43 14 65 30 l42 30 310 0 310 0 0 -51 c0 -28
-3 -49 -7 -47 -5 2 -21 10 -36 18 -35 17 -57 6 -69 -36 -9 -29 -4 -117 8 -148
8 -20 44 -21 70 -1 10 8 22 15 27 15 4 0 7 -60 7 -133 l0 -133 -307 0 -308 1
-48 -32 c-55 -37 -71 -37 -128 0 -33 22 -55 28 -115 31 -77 3 -114 19 -135 57
-10 20 -20 445 -10 455 2 2 51 4 108 4 100 0 106 -1 148 -30z m6363 -227 l-3
-258 -2772 0 -2773 -1 0 132 c0 148 -6 164 -54 139 -45 -23 -54 -19 -61 29 -7
44 -2 112 9 123 3 3 24 -2 47 -12 49 -23 59 -14 59 58 l0 47 2775 0 2775 0 -2
-257z m-6539 -274 c14 -1 49 -2 78 -3 36 -1 60 -8 80 -22 l28 -22 -104 3
c-104 2 -105 3 -133 34 -37 41 -38 69 -2 36 15 -14 39 -26 53 -26z m5282 -68
c1 -3 2 -120 3 -258 l1 -253 -2462 0 -2463 0 0 135 c0 151 -4 159 -60 130 -45
-23 -55 -9 -54 75 0 86 10 98 55 71 44 -27 59 -14 59 53 l0 52 2460 0 c1353 0
2461 -2 2461 -5z m-5301 -716 l0 -185 -200 0 -200 0 0 53 c0 29 -6 62 -14 72
-13 18 -14 18 -49 -3 -30 -17 -37 -18 -48 -6 -12 15 -9 147 4 161 5 4 22 0 38
-10 56 -31 69 -20 69 59 l0 44 200 0 200 0 0 -185z m-12 -204 c10 -1 12 -41
10 -183 l-3 -182 -185 -1 c-102 -1 -191 1 -197 3 -8 3 -13 22 -13 51 0 26 -6
55 -13 65 -12 17 -15 17 -51 0 -32 -16 -38 -16 -46 -4 -13 20 -13 127 0 150
10 19 11 19 46 -2 36 -21 37 -21 50 -3 8 10 14 39 14 64 l0 46 187 -2 c104 -1
194 -2 201 -2z m12 -570 l0 -186 -197 0 -198 1 -3 34 c-7 105 -17 116 -73 83
-15 -9 -32 -14 -36 -10 -13 13 -16 133 -4 156 l12 21 40 -20 39 -21 10 26 c6
15 10 43 10 64 l0 37 200 1 200 0 0 -186z"/>
<path d="M640 8010 c0 -47 4 -80 10 -80 6 0 10 33 10 80 0 47 -4 80 -10 80 -6
0 -10 -33 -10 -80z"/>
<path d="M920 8010 c0 -47 4 -80 10 -80 6 0 10 11 10 25 0 32 9 32 36 -2 30
-38 42 -23 13 16 l-23 31 24 25 c13 14 18 25 11 25 -6 0 -23 -12 -36 -27 l-24
-28 -1 48 c0 26 -4 47 -10 47 -6 0 -10 -33 -10 -80z"/>
<path d="M1950 8010 c0 -47 4 -80 10 -80 6 0 10 33 10 80 0 47 -4 80 -10 80
-6 0 -10 -33 -10 -80z"/>
<path d="M2000 8010 c0 -47 4 -80 10 -80 6 0 10 33 10 80 0 47 -4 80 -10 80
-6 0 -10 -33 -10 -80z"/>
<path d="M2050 8080 c0 -5 5 -10 10 -10 6 0 10 5 10 10 0 6 -4 10 -10 10 -5 0
-10 -4 -10 -10z"/>
<path d="M2170 8067 c0 -18 -5 -22 -32 -22 -26 0 -34 -5 -42 -27 -6 -18 -6
-38 0 -55 8 -24 15 -28 52 -29 l42 -1 0 79 c0 45 -4 78 -10 78 -5 0 -10 -10
-10 -23z m0 -67 c0 -31 -11 -50 -30 -50 -31 0 -40 48 -14 75 19 19 44 4 44
-25z"/>
<path d="M270 8075 c-1 -5 -3 -18 -5 -27 -2 -10 3 -18 11 -18 16 0 16 6 4 35
-5 11 -9 16 -10 10z"/>
<path d="M307 8073 c-10 -9 -8 -43 2 -43 5 0 9 11 9 25 0 27 -1 28 -11 18z"/>
<path d="M499 8078 c-1 -4 -1 -110 0 -130 1 -14 10 -18 44 -18 23 0 47 4 53 8
19 13 23 40 9 58 -9 13 -10 24 -3 37 15 29 -8 47 -58 47 -24 0 -44 -1 -45 -2z
m81 -38 c0 -16 -7 -20 -30 -20 -23 0 -30 4 -30 20 0 16 7 20 30 20 23 0 30 -4
30 -20z m5 -65 c0 -15 -8 -21 -32 -23 -30 -3 -33 -1 -33 23 0 24 3 26 33 23
24 -2 32 -8 32 -23z"/>
<path d="M1100 8065 c-20 -24 -2 -52 43 -67 25 -8 42 -19 42 -28 0 -19 -51
-26 -71 -9 -19 16 -30 4 -14 -16 9 -11 26 -15 53 -13 75 6 77 63 3 83 -21 6
-37 14 -37 18 1 4 1 12 1 17 0 14 54 12 68 -2 9 -9 12 -8 12 4 0 29 -78 40
-100 13z"/>
<path d="M1690 8060 c-43 -43 -13 -130 46 -130 34 0 64 17 64 37 0 15 -2 15
-18 0 -52 -47 -115 11 -82 74 12 21 59 26 78 7 6 -6 15 -8 19 -4 12 12 -28 36
-59 36 -15 0 -37 -9 -48 -20z"/>
<path d="M696 8028 c-9 -12 -16 -29 -16 -38 0 -27 30 -60 54 -60 48 0 75 70
40 104 -22 23 -60 20 -78 -6z m68 -14 c8 -21 -3 -61 -18 -67 -27 -10 -41 15
-37 66 1 22 46 23 55 1z"/>
<path d="M816 8028 c-9 -12 -16 -29 -16 -38 0 -50 68 -80 90 -40 11 20 -3 30
-15 10 -3 -5 -14 -10 -24 -10 -19 0 -30 30 -23 63 4 18 37 23 47 7 4 -6 11 -8
16 -4 16 9 -11 34 -37 34 -12 0 -30 -10 -38 -22z"/>
<path d="M1233 8002 c4 -64 11 -72 58 -70 l39 1 0 59 c0 32 -4 58 -10 58 -5 0
-10 -3 -11 -7 0 -5 -1 -25 -3 -46 -6 -79 -48 -73 -50 7 -1 29 -6 46 -13 46 -8
0 -11 -16 -10 -48z"/>
<path d="M1359 8031 c-1 -23 -1 -123 0 -138 2 -26 21 -12 21 16 0 24 3 28 24
24 38 -8 62 35 46 82 -11 32 -14 35 -51 33 -28 -1 -39 -6 -40 -17z m71 -43 c0
-35 -2 -39 -22 -36 -26 3 -37 50 -18 73 20 24 40 6 40 -37z"/>
<path d="M1486 8034 c-9 -8 -16 -28 -16 -44 0 -47 38 -72 84 -54 29 11 17 23
-18 17 -25 -4 -35 -1 -39 11 -7 17 -1 19 45 18 34 -1 43 23 18 48 -24 24 -53
26 -74 4z m62 -21 c2 -8 -6 -13 -22 -13 -26 0 -40 12 -29 24 11 11 46 2 51
-11z"/>
<path d="M1600 7988 c0 -32 4 -58 10 -58 6 0 10 20 10 44 0 34 5 47 23 59 22
15 22 15 -10 15 l-33 -1 0 -59z"/>
<path d="M1836 8028 c-9 -12 -16 -29 -16 -38 0 -43 52 -74 88 -52 22 14 26 76
7 95 -23 24 -61 21 -79 -5z m67 -19 c9 -34 -9 -68 -32 -62 -21 5 -32 33 -24
63 7 28 49 27 56 -1z"/>
<path d="M2049 8038 c-4 -72 -2 -102 9 -106 9 -3 12 13 12 57 0 34 -4 61 -10
61 -5 0 -10 -6 -11 -12z"/>
<path d="M2226 8035 c-48 -49 16 -132 74 -95 21 13 5 23 -18 11 -16 -9 -24 -7
-37 5 -20 20 -18 22 28 27 47 5 49 7 34 37 -15 30 -58 38 -81 15z m62 -22 c2
-9 -7 -13 -27 -13 -23 0 -29 4 -24 16 6 17 44 15 51 -3z"/>
<path d="M2340 7989 c0 -33 4 -59 10 -59 6 0 10 20 10 45 0 31 5 47 15 51 23
9 18 22 -10 22 -24 0 -25 -3 -25 -59z"/>
<path d="M280 3976 l0 -64 67 28 c37 16 69 33 71 38 2 8 -114 62 -133 62 -3 0
-5 -29 -5 -64z m68 18 l37 -15 -34 -15 c-46 -20 -51 -18 -51 16 0 35 -1 35 48
14z"/>
<path d="M814 4100 c-29 -12 -41 -52 -39 -137 3 -108 0 -107 219 -110 106 -1
192 2 207 8 37 14 46 42 45 131 -2 115 3 113 -224 115 -103 1 -197 -2 -208 -7z
m368 -9 c36 -2 48 -29 48 -108 0 -116 6 -113 -220 -113 -229 0 -224 -3 -218
119 2 44 7 83 11 87 14 14 75 19 215 17 81 -1 155 -2 164 -2z"/>
<path d="M870 4052 c0 -5 11 -19 25 -32 14 -13 25 -26 25 -29 0 -4 -11 -18
-25 -33 -37 -41 -32 -48 36 -48 37 0 58 4 54 10 -3 6 -25 10 -47 10 l-41 0 21
23 c28 29 28 45 0 68 l-21 19 41 0 c23 0 42 5 42 10 0 6 -25 10 -55 10 -30 0
-55 -4 -55 -8z"/>
<path d="M1627 7599 c-20 -17 -35 -35 -31 -40 3 -5 21 4 40 21 48 42 86 41 47
-2 -22 -25 -8 -36 17 -13 19 17 21 17 40 0 21 -19 28 -7 8 13 -9 9 -9 15 0 24
9 9 20 4 48 -23 38 -35 33 -13 -6 29 -23 25 -33 27 -60 12 -13 -7 -21 -7 -25
0 -11 18 -40 10 -78 -21z"/>
<path d="M1609 4426 l22 -24 -21 -48 c-13 -27 -24 -52 -27 -56 -2 -5 0 -8 6
-8 6 0 19 17 30 38 l19 37 11 -28 c6 -16 11 -33 11 -38 0 -5 7 -9 15 -9 11 0
9 13 -11 68 -29 76 -40 92 -62 92 -12 0 -11 -5 7 -24z"/>
<path d="M1618 1180 c-17 -17 -28 -33 -25 -37 3 -3 16 6 29 21 14 16 38 28 61
32 32 5 41 1 68 -25 17 -17 32 -31 35 -31 12 0 1 22 -23 45 -41 37 -104 35
-145 -5z"/>
<path d="M1688 773 c10 -4 3 -17 -24 -44 -27 -28 -40 -35 -46 -26 -5 7 -8 2
-8 -15 0 -24 4 -28 28 -27 15 0 21 3 14 6 -10 4 -3 17 24 44 27 28 40 35 46
26 5 -7 8 -2 8 16 0 23 -4 27 -27 26 -16 0 -22 -3 -15 -6z"/>
<path d="M1620 405 c0 -7 -8 -19 -17 -24 -10 -6 -12 -11 -5 -11 18 0 15 -27
-5 -39 -12 -7 -14 -10 -4 -11 9 0 12 -8 9 -25 -3 -14 -2 -25 3 -25 4 0 9 10
11 22 2 13 11 24 22 26 15 3 18 0 13 -17 -3 -12 -1 -24 4 -27 5 -3 9 4 9 16 0
12 9 24 23 30 16 6 17 9 5 9 -21 1 -20 41 2 41 12 0 13 2 1 9 -8 5 -11 16 -8
25 4 9 2 16 -3 16 -6 0 -10 -9 -10 -20 0 -14 -7 -20 -21 -20 -16 0 -20 5 -16
20 3 11 1 20 -4 20 -5 0 -9 -7 -9 -15z m40 -50 c0 -16 -27 -32 -37 -22 -3 4
-3 13 0 22 8 20 37 20 37 0z"/>
<path d="M2291 7307 c26 -20 27 -40 3 -94 -16 -37 -19 -53 -10 -53 6 0 18 16
25 35 14 40 26 38 36 -5 4 -17 13 -30 20 -30 11 0 8 16 -11 68 -29 77 -40 92
-63 92 -15 -1 -15 -2 0 -13z"/>
<path d="M2290 6866 c-9 -25 -9 -37 4 -73 8 -25 44 -31 64 -11 9 9 12 9 12 0
0 -23 50 -13 61 12 15 31 3 96 -16 96 -11 0 -12 -6 -7 -22 4 -13 7 -30 6 -38
-1 -8 -2 -21 -3 -27 -2 -23 -30 -14 -37 12 -8 31 -22 32 -26 3 -2 -13 -10 -23
-18 -23 -11 0 -15 12 -14 48 0 51 -11 61 -26 23z"/>
<path d="M2280 6560 c0 -5 5 -10 10 -10 6 0 10 5 10 10 0 6 -4 10 -10 10 -5 0
-10 -4 -10 -10z"/>
<path d="M2280 6510 c0 -5 5 -10 10 -10 6 0 10 5 10 10 0 6 -4 10 -10 10 -5 0
-10 -4 -10 -10z"/>
<path d="M2280 6460 c0 -5 5 -10 10 -10 6 0 10 5 10 10 0 6 -4 10 -10 10 -5 0
-10 -4 -10 -10z"/>
<path d="M2280 6410 c0 -5 5 -10 10 -10 6 0 10 5 10 10 0 6 -4 10 -10 10 -5 0
-10 -4 -10 -10z"/>
<path d="M2321 1546 c-10 -12 -8 -17 10 -26 13 -7 19 -8 15 -2 -4 7 13 12 46
15 l53 3 -53 2 c-33 1 -51 6 -47 12 10 15 -11 12 -24 -4z"/>
<path d="M2993 6953 c-20 -19 -23 -32 -23 -107 0 -128 -4 -126 235 -126 187 0
192 1 213 23 18 19 22 35 22 94 0 85 -11 119 -42 129 -13 4 -104 8 -203 9
-173 0 -181 0 -202 -22z m394 1 c28 -8 33 -24 34 -114 1 -107 7 -104 -217
-103 -153 1 -189 4 -202 16 -11 12 -15 37 -15 98 0 68 3 84 18 96 14 10 62 13
189 13 94 0 181 -3 193 -6z"/>
<path d="M3068 6898 c-3 -7 -2 -38 1 -68 5 -41 10 -56 24 -58 9 -2 17 1 17 7
0 6 -4 11 -10 11 -15 0 -12 78 2 82 9 3 8 9 -4 21 -20 20 -24 21 -30 5z"/>
<path d="M3129 6879 c-1 -5 -1 -20 -1 -34 0 -59 3 -75 12 -75 6 0 10 20 10 45
0 31 5 47 15 51 8 4 15 10 15 14 0 11 -50 9 -51 -1z"/>
<path d="M2544 6505 c-20 -20 -23 -32 -22 -105 1 -127 -4 -125 223 -127 185
-2 188 -1 211 22 22 22 24 33 24 109 0 124 1 124 -231 124 -177 0 -182 -1
-205 -23z m407 -11 c8 -9 12 -45 12 -96 -1 -67 -4 -84 -19 -95 -13 -10 -65
-13 -195 -13 -215 0 -209 -3 -209 109 0 120 -5 118 247 113 119 -2 154 -6 164
-18z"/>
<path d="M2624 6425 c-30 -46 7 -104 59 -91 40 10 33 26 -8 19 -28 -4 -35 -2
-35 11 0 17 0 17 45 20 34 1 40 20 17 49 -22 25 -59 21 -78 -8z m66 -10 c0 -9
-9 -15 -25 -15 -16 0 -25 6 -25 15 0 9 9 15 25 15 16 0 25 -6 25 -15z"/>
<path d="M3066 6425 c-3 -9 0 -15 9 -15 16 0 20 16 6 24 -5 3 -11 -1 -15 -9z"/>
<path d="M3105 6420 c3 -5 35 -10 71 -10 36 0 64 4 64 10 0 6 -30 10 -71 10
-44 0 -68 -4 -64 -10z"/>
<path d="M3067 6386 c-6 -15 1 -26 15 -26 11 0 10 27 -1 34 -5 3 -11 0 -14 -8z"/>
<path d="M3105 6380 c-4 -6 20 -10 64 -10 41 0 71 4 71 10 0 6 -28 10 -64 10
-36 0 -68 -4 -71 -10z"/>
<path d="M4519 6593 c0 -7 -2 -31 -3 -53 -4 -64 -4 -64 -20 -51 -8 7 -27 16
-43 20 -24 7 -32 5 -41 -10 -17 -27 -15 -161 2 -184 14 -19 15 -19 51 -2 21
10 40 16 43 13 4 -5 8 -45 11 -108 1 -17 18 -18 219 -18 l217 0 0 200 c1 173
-1 200 -15 201 -8 1 -106 2 -217 3 -156 1 -203 -2 -204 -11z m417 -188 c1 -99
-2 -182 -6 -185 -12 -7 -379 -4 -386 3 -4 4 -9 30 -11 59 -5 68 -14 76 -59 54
-44 -20 -54 -13 -56 40 -3 118 5 133 58 105 21 -11 42 -17 47 -12 4 4 9 32 11
62 2 30 5 54 5 55 1 1 90 1 199 0 l197 -1 1 -180z"/>
<path d="M4696 6459 c-17 -25 -15 -91 4 -114 32 -39 90 -1 90 60 0 65 -61 100
-94 54z m68 -25 c12 -45 -2 -84 -29 -84 -18 0 -24 7 -27 31 -8 52 2 79 27 79
16 0 25 -8 29 -26z"/>
<path d="M5408 6550 c-3 -59 -2 -58 -62 -44 -41 10 -56 -15 -56 -92 0 -62 15
-114 32 -114 5 0 22 7 39 15 16 9 34 13 39 10 6 -3 10 -33 10 -66 l0 -59 280
0 280 0 -2 202 -3 203 -277 0 -277 0 -3 -55z m540 -148 l-3 -186 -252 1 c-139
0 -256 2 -259 5 -5 5 -7 26 -13 111 -1 21 -23 22 -63 1 -41 -21 -50 -9 -49 65
0 80 8 105 29 95 84 -34 84 -34 87 33 2 26 4 51 4 54 1 3 118 6 261 6 l260 0
-2 -185z"/>
<path d="M5602 6468 c-17 -17 -15 -33 3 -18 13 11 15 5 15 -44 0 -49 -2 -56
-20 -56 -11 0 -20 -4 -20 -10 0 -5 23 -10 51 -10 31 0 48 4 44 10 -3 6 -13 10
-21 10 -11 0 -14 15 -14 65 0 66 -10 81 -38 53z"/>
<path d="M5710 6465 c-16 -19 -5 -34 12 -17 7 7 20 12 30 12 30 0 21 -37 -17
-71 -49 -45 -46 -59 15 -59 28 0 50 5 50 10 0 6 -16 10 -35 10 -19 0 -35 2
-35 4 0 2 16 20 35 39 35 35 38 60 11 79 -18 13 -53 9 -66 -7z"/>
<path d="M6524 6601 c-2 -2 -4 -29 -4 -59 0 -52 -1 -54 -22 -47 -59 18 -71 18
-85 0 -13 -19 -18 -121 -7 -162 8 -30 38 -38 68 -18 36 24 46 12 46 -56 l0
-59 310 0 310 0 0 203 0 202 -306 0 c-168 0 -307 -2 -310 -4z m596 -198 c0
-100 -3 -183 -7 -184 -25 -3 -542 -4 -558 -1 -18 3 -21 10 -19 52 2 28 -3 56
-11 66 -13 18 -15 18 -50 1 -20 -9 -41 -15 -46 -12 -11 8 -12 145 0 163 7 11
16 10 50 -7 l41 -22 10 26 c5 14 9 29 9 33 -1 4 -1 21 0 38 l1 31 290 0 290 0
0 -184z"/>
<path d="M6629 6516 c-29 -14 -38 -51 -35 -137 4 -106 0 -104 227 -105 251 -2
247 -5 240 188 -1 15 -10 36 -22 47 -20 18 -36 19 -205 19 -113 0 -191 -5
-205 -12z m407 -28 c4 -6 8 -45 9 -86 3 -114 6 -112 -219 -112 -223 0 -216 -3
-216 108 0 42 5 84 10 92 7 12 44 16 192 20 179 5 209 2 224 -22z"/>
<path d="M6692 6459 c-7 -11 -9 -25 -5 -32 4 -7 6 -20 4 -31 -6 -36 8 -66 32
-66 19 1 20 2 6 13 -17 13 -21 77 -5 88 5 4 2 16 -6 27 -14 21 -14 21 -26 1z"/>
<path d="M6750 6390 c0 -71 16 -80 22 -12 5 51 1 72 -13 72 -5 0 -9 -27 -9
-60z"/>
<path d="M6780 6440 c0 -5 4 -10 9 -10 6 0 13 5 16 10 3 6 -1 10 -9 10 -9 0
-16 -4 -16 -10z"/>
<path d="M7640 6596 c-6 -6 -10 -34 -10 -63 l0 -53 -39 20 c-36 18 -41 18 -55
4 -16 -15 -19 -31 -19 -94 0 -60 3 -77 17 -96 14 -19 15 -19 50 0 20 11 39 17
42 14 3 -3 5 -33 5 -67 l1 -61 219 0 219 0 -2 202 -3 203 -208 0 c-121 0 -212
-4 -217 -9z m411 -25 c5 -67 3 -335 -3 -343 -4 -7 -77 -11 -202 -12 l-196 -1
0 63 c0 73 -14 86 -62 57 -23 -13 -33 -14 -41 -6 -14 14 -18 117 -6 149 l9 23
38 -20 c49 -25 62 -14 62 49 0 26 2 49 5 52 3 3 93 5 200 5 171 0 195 -2 196
-16z"/>
<path d="M7828 6466 c-23 -17 -23 -29 0 -17 16 8 18 4 19 -45 1 -47 -2 -54
-18 -54 -10 0 -19 -4 -19 -10 0 -5 20 -10 45 -10 25 0 45 5 45 10 0 6 -7 10
-15 10 -12 0 -15 14 -15 65 0 68 -8 77 -42 51z"/>
<path d="M8568 6550 c-3 -59 -2 -58 -62 -44 -41 10 -56 -15 -56 -92 0 -68 15
-114 37 -114 8 0 25 7 38 16 35 23 45 10 45 -57 l0 -59 218 0 218 0 1 200 c0
110 -3 201 -6 201 -3 1 -101 2 -218 3 l-212 1 -3 -55z m422 -147 l0 -183 -32
-1 c-41 -1 -349 -1 -364 0 -6 1 -11 20 -11 44 0 97 -5 102 -65 71 -41 -21 -49
-10 -49 70 0 84 11 102 52 81 42 -22 59 -19 61 13 2 41 5 76 6 83 1 3 92 6
202 6 l200 0 0 -184z"/>
<path d="M8746 6459 c-17 -25 -15 -91 4 -114 32 -39 90 -1 90 60 0 65 -61 100
-94 54z m65 -11 c7 -62 6 -78 -10 -93 -15 -13 -20 -13 -29 -2 -16 18 -21 58
-11 85 9 23 48 31 50 10z"/>
<path d="M4228 6494 c-5 -4 -8 -49 -8 -101 l0 -93 28 0 c24 1 25 2 10 14 -13
10 -18 32 -20 100 -2 48 -6 84 -10 80z"/>
<path d="M5125 6490 c-3 -5 -1 -10 4 -10 7 0 11 -34 11 -91 0 -67 3 -90 12
-87 12 4 20 154 10 186 -5 14 -28 16 -37 2z"/>
<path d="M3880 6410 l0 -80 79 0 79 0 0 80 0 80 -79 0 -79 0 0 -80z m139 0
l-2 -60 -58 0 -59 0 0 60 0 60 60 0 60 0 -1 -60z"/>
<path d="M3980 6446 c0 -9 7 -16 16 -16 9 0 14 5 12 12 -6 18 -28 21 -28 4z"/>
<path d="M3910 6374 c0 -9 5 -14 12 -12 18 6 21 28 4 28 -9 0 -16 -7 -16 -16z"/>
<path d="M3765 6440 c-18 -19 -18 -20 -1 -14 15 6 17 2 14 -22 -2 -25 -8 -29
-35 -32 -44 -4 -42 -22 2 -22 36 0 55 20 55 59 0 12 5 21 11 21 8 0 8 5 -1 15
-16 20 -23 19 -45 -5z"/>
<path d="M6195 6440 c-18 -19 -18 -20 -1 -14 15 6 17 2 14 -22 -2 -25 -8 -29
-35 -32 -18 -2 -33 -7 -33 -13 0 -12 50 -12 69 0 12 8 16 19 20 65 1 4 9 5 18
2 15 -6 15 -4 -2 14 -10 11 -21 20 -25 20 -4 0 -15 -9 -25 -20z"/>
<path d="M8270 6435 c0 -20 -5 -25 -26 -25 -14 0 -23 -4 -19 -10 3 -5 15 -10
26 -10 12 0 19 -7 19 -20 0 -11 4 -20 10 -20 5 0 7 6 4 14 -6 15 29 40 40 29
3 -3 6 -1 6 5 0 6 -10 12 -22 14 -17 2 -23 9 -22 26 1 12 -3 22 -7 22 -5 0 -9
-11 -9 -25z"/>
<path d="M7308 6428 l22 -22 -22 -23 c-24 -26 -9 -32 17 -7 15 15 17 15 34 0
25 -23 38 -20 16 4 -17 18 -17 21 -1 45 19 29 11 33 -16 8 -17 -15 -19 -15
-36 0 -28 25 -40 20 -14 -5z"/>
<path d="M2554 5982 c-23 -15 -33 -50 -33 -116 0 -73 13 -113 38 -121 15 -4
180 -7 324 -6 87 1 100 19 95 133 -2 75 -6 92 -22 104 -16 11 -61 14 -205 14
-102 0 -191 -4 -197 -8z m384 -16 c23 -8 23 -7 25 -118 1 -51 -10 -87 -26 -89
-7 -1 -90 -3 -185 -4 -217 -2 -212 -5 -212 110 0 71 3 86 19 97 20 14 338 18
379 4z"/>
<path d="M2690 5926 c0 -19 -4 -22 -22 -19 -37 6 -53 -12 -52 -58 1 -23 7 -45
15 -50 19 -12 79 -8 80 5 1 15 1 107 0 129 -1 26 -21 20 -21 -7z m-2 -72 c3
-32 -16 -58 -35 -46 -11 7 -16 31 -14 65 1 13 8 17 24 15 16 -2 23 -11 25 -34z"/>
<path d="M3067 5893 c-3 -5 -2 -15 2 -22 7 -10 10 -10 16 -1 4 6 3 16 -3 22
-5 5 -12 6 -15 1z"/>
<path d="M3105 5880 c3 -5 35 -10 71 -10 36 0 64 4 64 10 0 6 -30 10 -71 10
-44 0 -68 -4 -64 -10z"/>
<path d="M3066 5835 c4 -8 10 -12 15 -9 14 8 10 24 -6 24 -9 0 -12 -6 -9 -15z"/>
<path d="M3105 5840 c-4 -6 20 -10 64 -10 41 0 71 4 71 10 0 6 -28 10 -64 10
-36 0 -68 -4 -71 -10z"/>
<path d="M4519 6058 c0 -7 -2 -32 -2 -55 -1 -23 -5 -44 -8 -48 -4 -3 -23 2
-44 12 -36 17 -37 17 -51 -2 -21 -29 -19 -157 4 -184 l17 -21 38 20 c20 11 38
19 38 18 1 -2 2 -32 3 -68 l2 -65 220 0 219 0 1 190 c0 105 -1 196 -4 203 -3
9 -56 12 -218 12 -164 0 -214 -3 -215 -12z m418 -193 l1 -185 -202 0 -201 0
-1 61 c-1 33 -6 64 -10 69 -5 5 -27 0 -49 -10 -50 -23 -57 -14 -58 76 -1 80 8
91 57 68 46 -23 57 -12 59 55 l2 51 201 0 200 0 1 -185z"/>
<path d="M4712 5928 c-17 -17 -15 -33 3 -18 13 11 15 5 15 -44 0 -49 -2 -56
-20 -56 -11 0 -20 -4 -20 -10 0 -5 23 -10 51 -10 31 0 48 4 44 10 -3 6 -13 10
-21 10 -11 0 -14 15 -14 65 0 66 -10 81 -38 53z"/>
<path d="M5410 6016 c0 -62 -11 -74 -45 -52 -13 9 -30 16 -38 16 -38 0 -53
-158 -19 -199 17 -22 17 -22 54 -3 21 11 40 17 43 14 3 -3 5 -34 5 -69 l0 -63
278 2 277 3 3 203 2 202 -280 0 -280 0 0 -54z m540 -151 l0 -185 -263 0 -263
0 2 38 c5 88 -17 112 -70 77 -38 -25 -50 2 -47 100 2 62 11 69 55 48 36 -17
38 -17 51 0 7 10 12 35 10 55 -1 20 -1 40 2 45 2 4 121 7 264 7 l259 0 0 -185z"/>
<path d="M5602 5928 c-17 -17 -15 -33 3 -18 13 11 15 5 15 -44 0 -49 -2 -56
-20 -56 -11 0 -20 -4 -20 -10 0 -5 23 -10 51 -10 31 0 48 4 44 10 -3 6 -13 10
-21 10 -11 0 -14 15 -14 65 0 66 -10 81 -38 53z"/>
<path d="M5710 5925 c-16 -19 -5 -34 12 -17 7 7 20 12 30 12 30 0 21 -38 -17
-71 -50 -44 -46 -59 16 -59 31 0 48 4 44 10 -3 6 -22 10 -41 10 l-34 0 40 39
c44 43 47 52 24 75 -20 20 -58 21 -74 1z"/>
<path d="M6520 6010 c0 -64 -9 -73 -46 -45 -28 21 -49 18 -62 -10 -15 -32 -16
-140 -2 -166 13 -23 47 -25 76 -4 12 8 24 11 28 8 3 -3 6 -35 6 -70 l0 -63
310 0 310 0 0 205 0 205 -310 0 -310 0 0 -60z m600 -145 l0 -185 -290 0 -290
0 -1 28 c-3 107 -14 123 -64 92 -43 -27 -55 -12 -55 70 0 87 7 96 54 73 37
-17 38 -17 52 2 9 11 13 36 11 62 l-3 43 293 0 293 0 0 -185z"/>
<path d="M6614 5969 c-15 -17 -19 -36 -19 -104 0 -128 -5 -125 230 -125 233 0
237 1 237 95 -1 107 -2 115 -22 135 -19 19 -33 20 -213 20 -184 0 -195 -1
-213 -21z m404 -3 c12 -4 23 -15 23 -24 10 -114 2 -175 -24 -185 -7 -2 -94 -4
-195 -3 -219 1 -212 -3 -212 117 0 107 -4 105 211 104 96 -1 184 -5 197 -9z"/>
<path d="M6690 5916 c-7 -11 -9 -21 -4 -23 5 -2 9 -20 7 -41 -2 -47 9 -67 33
-58 15 6 15 8 1 19 -17 13 -18 74 -1 85 6 5 4 13 -6 23 -16 15 -18 14 -30 -5z"/>
<path d="M6750 5848 c0 -32 4 -58 10 -58 6 0 10 3 11 8 0 4 1 24 3 45 2 23 10
43 22 52 18 13 17 14 -13 13 l-33 -1 0 -59z"/>
<path d="M7637 6063 c-3 -5 -5 -30 -5 -57 -1 -27 -3 -51 -5 -53 -3 -2 -21 4
-42 14 -36 17 -37 17 -51 -2 -14 -19 -17 -39 -17 -107 1 -66 10 -88 41 -88 15
0 36 7 47 16 19 15 20 13 25 -53 l5 -68 218 -3 217 -2 0 205 0 205 -214 0
c-118 0 -217 -3 -219 -7z m415 -25 c3 -11 2 -304 -1 -345 -1 -10 -48 -13 -201
-13 l-200 0 0 58 c0 76 -11 87 -62 61 l-38 -20 -9 23 c-12 31 -7 136 6 149 8
8 20 6 43 -6 48 -25 60 -15 60 50 l0 55 199 0 c150 0 200 -3 203 -12z"/>
<path d="M7828 5926 c-10 -7 -18 -16 -18 -18 0 -3 8 -5 18 -4 14 1 17 -8 18
-46 1 -40 -2 -48 -18 -48 -10 0 -18 -4 -18 -10 0 -5 20 -10 45 -10 25 0 45 5
45 10 0 6 -7 10 -15 10 -12 0 -15 14 -15 65 0 68 -8 77 -42 51z"/>
<path d="M8570 6016 c0 -30 -4 -57 -9 -61 -5 -3 -26 2 -45 12 -50 23 -60 10
-64 -85 -3 -64 -1 -81 15 -100 l18 -23 37 19 c44 23 48 18 48 -64 l0 -54 214
0 c196 0 215 2 219 18 3 9 5 100 4 202 l-2 185 -217 3 -218 2 0 -54z m420
-151 l0 -185 -204 0 -203 0 2 48 c4 85 -11 98 -71 67 -25 -13 -29 -13 -37 1
-11 20 -10 145 1 156 5 5 24 2 46 -8 46 -23 60 -11 62 54 1 26 2 48 3 50 0 1
91 2 201 2 l200 0 0 -185z"/>
<path d="M8749 5923 c-8 -9 -14 -35 -14 -58 0 -48 18 -75 50 -75 29 0 46 21
52 65 9 67 -51 113 -88 68z m62 -27 c14 -30 4 -75 -18 -83 -20 -8 -41 19 -38
50 1 12 3 30 4 40 2 26 40 21 52 -7z"/>
<path d="M4228 5954 c-5 -4 -8 -49 -8 -101 l0 -93 28 0 c24 1 25 2 10 14 -13
10 -18 32 -20 100 -2 48 -6 84 -10 80z"/>
<path d="M5125 5951 c-3 -6 -1 -11 4 -11 7 0 11 -33 11 -90 0 -65 3 -90 13
-90 9 0 12 26 12 97 -1 82 -4 98 -17 101 -9 2 -19 -2 -23 -7z"/>
<path d="M3880 5870 l0 -80 78 0 78 0 0 78 -1 77 -77 3 -78 3 0 -81z m139 0
l-1 -60 -59 0 -59 0 0 60 0 60 60 0 60 0 -1 -60z"/>
<path d="M3980 5906 c0 -9 7 -16 16 -16 17 0 14 22 -4 28 -7 2 -12 -3 -12 -12z"/>
<path d="M3910 5835 c0 -9 5 -15 11 -13 6 2 11 8 11 13 0 5 -5 11 -11 13 -6 2
-11 -4 -11 -13z"/>
<path d="M3765 5900 c-18 -19 -18 -20 -1 -14 15 6 17 2 14 -22 -2 -25 -8 -29
-35 -32 -41 -4 -44 -22 -4 -22 36 0 61 23 61 56 0 13 5 24 11 24 8 0 8 5 -1
15 -16 20 -23 19 -45 -5z"/>
<path d="M6200 5910 c-13 -8 -13 -11 -1 -19 9 -6 11 -18 7 -35 -5 -21 -12 -26
-36 -26 -17 0 -30 -4 -30 -10 0 -12 50 -13 68 -2 7 5 15 22 18 38 3 16 10 31
15 32 6 3 5 9 -2 18 -14 16 -19 17 -39 4z"/>
<path d="M8270 5897 c0 -22 -5 -27 -26 -27 -14 0 -23 -4 -19 -10 3 -5 15 -10
26 -10 13 0 19 -7 19 -21 0 -12 4 -17 11 -14 6 4 8 13 5 21 -4 10 2 14 19 14
31 0 33 17 3 22 -14 2 -23 10 -23 20 0 9 -4 20 -8 24 -4 4 -7 -5 -7 -19z"/>
<path d="M7308 5887 l22 -24 -20 -18 c-27 -24 -18 -31 13 -11 22 15 26 15 37
1 7 -8 17 -15 23 -15 5 0 2 9 -8 20 -17 18 -17 21 -1 45 19 29 11 33 -16 8
-17 -15 -19 -15 -36 0 -28 26 -39 20 -14 -6z"/>
<path d="M2549 4129 c-22 -17 -24 -25 -24 -108 0 -130 -7 -125 218 -129 174
-3 184 -2 210 18 25 20 27 26 27 105 0 67 -4 87 -19 106 -19 24 -23 24 -204
25 -163 1 -187 -1 -208 -17z m395 -12 c25 -18 27 -170 4 -194 -13 -12 -48 -15
-199 -15 -216 0 -209 -4 -209 111 0 113 -4 111 210 111 130 0 181 -3 194 -13z"/>
<path d="M2625 4037 c-37 -57 19 -122 75 -87 9 5 15 25 15 50 0 25 -6 45 -15
50 -26 17 -59 11 -75 -13z m69 -23 c9 -34 -9 -64 -34 -57 -20 5 -24 19 -20 58
4 41 44 41 54 -1z"/>
<path d="M3066 4042 c-3 -6 -1 -14 5 -17 15 -10 25 3 12 16 -7 7 -13 7 -17 1z"/>
<path d="M3100 4030 c0 -6 30 -10 70 -10 40 0 70 4 70 10 0 6 -30 10 -70 10
-40 0 -70 -4 -70 -10z"/>
<path d="M3067 4003 c-3 -5 -2 -15 2 -22 7 -10 10 -10 16 -1 4 6 3 16 -3 22
-5 5 -12 6 -15 1z"/>
<path d="M3105 3990 c-4 -6 20 -10 64 -10 41 0 71 4 71 10 0 6 -28 10 -64 10
-36 0 -68 -4 -71 -10z"/>
<path d="M3730 5472 c0 -10 -9 -25 -20 -35 -13 -11 -20 -29 -20 -52 0 -24 6
-39 20 -47 11 -7 20 -23 20 -35 0 -13 5 -23 10 -23 6 0 10 11 10 25 0 15 6 25
14 25 37 0 38 99 2 113 -9 4 -16 16 -16 27 0 11 -4 20 -10 20 -5 0 -10 -8 -10
-18z m-3 -104 c-3 -20 -4 -21 -11 -5 -5 9 -5 29 0 45 7 25 8 26 11 5 3 -13 3
-33 0 -45z m43 16 c0 -19 -4 -34 -10 -34 -5 0 -10 18 -10 41 0 24 4 38 10 34
6 -3 10 -22 10 -41z"/>
<path d="M3840 5441 c-13 -24 -13 -51 -1 -51 5 0 11 10 13 23 4 32 21 22 33
-20 11 -40 38 -64 54 -48 15 15 25 65 13 65 -6 0 -12 -10 -14 -22 -5 -35 -22
-27 -36 17 -18 56 -43 70 -62 36z"/>
<path d="M3680 4987 c0 -20 45 -117 55 -117 15 0 45 63 45 95 0 14 -4 25 -10
25 -5 0 -10 -12 -10 -27 -1 -16 -7 -39 -14 -52 -14 -25 -14 -24 -27 24 -8 27
-20 50 -27 53 -6 2 -12 1 -12 -1z"/>
<path d="M3827 4959 c-24 -14 -37 -50 -25 -71 9 -19 43 -24 52 -9 4 5 -3 7
-14 4 -16 -4 -20 0 -20 23 0 15 7 36 17 46 18 20 16 22 -10 7z"/>
<path d="M3866 4955 c4 -8 8 -15 10 -15 2 0 4 7 4 15 0 8 -4 15 -10 15 -5 0
-7 -7 -4 -15z"/>
<path d="M3680 4447 c0 -17 44 -117 52 -117 4 0 17 15 28 33 21 34 27 87 10
87 -5 0 -10 -12 -10 -27 -1 -16 -7 -38 -14 -51 -12 -23 -13 -22 -28 24 -8 27
-20 50 -27 52 -6 2 -11 1 -11 -1z"/>
<path d="M3812 4423 c-6 -3 -10 -9 -7 -14 4 -5 2 -25 -4 -44 -12 -46 2 -45 26
2 23 48 47 58 32 14 -16 -46 -4 -61 14 -18 23 53 7 88 -24 51 -11 -14 -14 -14
-19 -1 -3 7 -11 12 -18 10z"/>
<path d="M3904 4419 c-4 -8 -3 -9 5 -5 11 7 10 -9 -6 -66 -2 -11 1 -18 9 -18
7 0 14 12 15 28 1 15 3 36 5 46 3 22 -17 33 -28 15z"/>
<path d="M3804 3882 c3 -6 2 -13 -4 -17 -6 -4 -8 -11 -5 -16 4 -5 2 -9 -3 -9
-5 0 -9 -7 -9 -15 0 -18 17 -4 20 16 2 8 6 19 10 26 4 6 2 15 -4 19 -7 4 -9 3
-5 -4z"/>
<path d="M3905 3882 c-5 -4 -11 -15 -11 -24 -1 -10 -5 -29 -8 -43 -10 -40 9
-29 27 15 8 22 20 40 26 40 13 0 14 -6 2 -48 -12 -40 5 -44 21 -4 11 27 13 60
4 69 -2 3 -13 0 -24 -6 -13 -7 -22 -7 -24 -1 -2 5 -7 6 -13 2z"/>
<path d="M4000 3888 c-6 -32 -6 -98 0 -98 4 0 14 8 21 17 10 12 10 15 1 9 -10
-6 -11 2 -6 33 4 28 3 41 -5 41 -6 0 -11 -1 -11 -2z"/>
<path d="M3730 3472 c0 -10 -9 -25 -20 -35 -13 -11 -20 -29 -20 -52 0 -24 6
-39 20 -47 11 -7 20 -23 20 -35 0 -13 5 -23 10 -23 6 0 10 11 10 24 0 16 7 27
20 31 16 5 20 15 20 50 0 34 -5 47 -20 55 -11 6 -20 20 -20 30 0 11 -4 20 -10
20 -5 0 -10 -8 -10 -18z m-3 -104 c-3 -20 -4 -21 -11 -5 -5 9 -5 29 0 45 7 25
8 26 11 5 3 -13 3 -33 0 -45z m43 16 c0 -19 -4 -34 -10 -34 -5 0 -10 18 -10
41 0 24 4 38 10 34 6 -3 10 -22 10 -41z"/>
<path d="M3826 3418 c-21 -75 -23 -88 -15 -88 12 0 33 50 30 70 -2 8 0 12 5 8
4 -4 14 -2 22 5 16 13 16 12 -4 -60 -4 -14 -2 -23 5 -23 6 0 11 6 11 13 0 16
40 81 46 74 3 -2 1 -23 -5 -46 -7 -32 -6 -41 4 -41 8 0 17 5 21 12 5 7 3 8 -6
3 -10 -6 -12 -4 -6 11 18 46 19 74 3 74 -9 0 -19 -5 -22 -10 -5 -8 -11 -7 -21
1 -11 9 -17 9 -29 -1 -10 -9 -15 -9 -15 -1 0 15 -20 14 -24 -1z"/>
<path d="M3700 3061 c0 -5 7 -14 15 -21 14 -12 14 -15 -1 -31 -10 -11 -14 -22
-11 -26 4 -3 15 1 26 11 16 15 19 15 31 1 20 -25 34 -17 16 9 -14 23 -14 26 0
41 22 22 9 32 -15 11 -16 -15 -19 -15 -31 -1 -14 17 -30 20 -30 6z"/>
<path d="M3734 2668 c1 -17 -5 -24 -21 -26 -13 -2 -23 -8 -23 -13 0 -5 6 -9
13 -8 30 4 38 -2 32 -21 -4 -11 -2 -20 4 -20 6 0 11 9 11 20 0 11 5 21 10 21
6 1 14 2 19 3 23 3 21 16 -2 16 -22 0 -27 5 -27 25 0 14 -4 25 -9 25 -4 0 -8
-10 -7 -22z"/>
<path d="M5289 5140 c-1 -3 -2 -27 -4 -55 -1 -27 -3 -54 -4 -58 0 -5 -17 2
-37 14 l-37 22 -18 -22 c-15 -18 -19 -40 -19 -93 0 -103 20 -128 75 -92 13 9
28 13 33 10 5 -3 9 -33 8 -66 l-1 -60 220 2 220 3 0 200 0 200 -218 0 c-119 1
-217 -2 -218 -5z m416 -199 l0 -185 -193 0 c-107 -1 -197 1 -201 4 -3 3 -7 29
-7 58 -1 69 -13 81 -60 58 -24 -11 -40 -14 -47 -7 -13 13 -12 150 1 163 7 7
21 4 44 -10 45 -28 59 -17 63 49 1 30 3 54 4 55 1 0 90 0 199 0 l197 -1 0
-184z"/>
<path d="M5469 5003 c-8 -9 -14 -35 -14 -58 0 -49 18 -75 51 -75 29 0 54 35
54 75 0 62 -58 99 -91 58z m64 -24 c5 -9 7 -32 3 -52 -5 -27 -12 -37 -26 -37
-20 0 -37 25 -35 50 1 8 3 25 3 38 2 18 7 23 23 20 12 -2 26 -10 32 -19z"/>
<path d="M6184 5141 c-2 -2 -4 -23 -4 -47 0 -70 -6 -76 -47 -51 l-36 21 -18
-23 c-27 -33 -27 -149 0 -182 19 -24 20 -24 50 -6 17 10 36 15 41 12 6 -3 10
-33 10 -66 l0 -59 400 0 400 0 -2 203 -3 202 -393 0 c-216 0 -395 -1 -398 -4z
m774 -198 c1 -101 -1 -183 -5 -184 -30 -4 -753 -3 -754 1 0 3 -2 28 -3 57 -2
70 -15 82 -62 59 -23 -10 -41 -13 -46 -8 -12 12 -12 152 1 165 6 6 21 2 43
-11 51 -32 62 -17 67 89 1 13 43 15 379 15 l377 -1 3 -182z"/>
<path d="M6360 5005 c-16 -19 -5 -34 12 -17 7 7 20 12 30 12 30 0 21 -33 -22
-75 -21 -21 -37 -42 -34 -47 3 -4 28 -8 55 -8 31 0 48 4 44 10 -3 6 -23 10
-43 10 l-37 1 38 32 c56 48 49 97 -13 97 -9 0 -23 -7 -30 -15z"/>
<path d="M6480 5005 c-20 -24 -16 -106 5 -122 44 -31 76 -10 82 54 4 38 1 53
-12 66 -21 21 -58 22 -75 2z m64 -21 c16 -42 3 -94 -24 -94 -24 0 -32 14 -32
55 0 19 3 38 7 44 10 16 42 13 49 -5z"/>
<path d="M6606 5004 c-10 -9 -16 -33 -16 -59 0 -61 37 -93 78 -66 22 14 31 75
16 110 -15 35 -51 42 -78 15z m59 -59 c0 -41 -3 -50 -19 -53 -24 -5 -36 14
-36 59 0 42 7 51 35 47 17 -3 20 -10 20 -53z"/>
<path d="M6726 5004 c-10 -9 -16 -33 -16 -59 0 -47 19 -75 50 -75 10 0 26 7
34 16 18 18 21 85 6 115 -13 23 -53 25 -74 3z m59 -59 c0 -41 -3 -50 -19 -53
-22 -5 -36 14 -36 50 0 42 10 59 34 56 18 -3 21 -10 21 -53z"/>
<path d="M7534 5141 c-2 -2 -4 -28 -4 -58 0 -58 -5 -61 -52 -37 -28 14 -32 14
-47 0 -24 -25 -23 -168 2 -193 17 -17 19 -17 48 0 17 9 35 17 40 17 5 0 9 -29
9 -65 l0 -65 310 0 310 0 0 203 0 203 -306 0 c-168 0 -307 -2 -310 -5z m597
-51 c3 -123 1 -319 -4 -327 -3 -4 -133 -8 -289 -7 l-283 0 -3 45 c-5 94 -17
105 -73 72 -15 -9 -31 -14 -35 -10 -11 11 -17 103 -10 142 6 29 11 35 24 30
69 -29 73 -30 82 -15 5 8 10 36 10 61 l0 46 290 -1 290 0 1 -36z"/>
<path d="M7631 5051 c-12 -12 -21 -29 -22 -38 -8 -126 0 -176 29 -189 26 -11
353 -14 388 -3 41 13 51 39 50 131 -2 116 4 112 -231 116 -185 3 -195 2 -214
-17z m386 0 c31 -2 43 -33 43 -111 0 -111 2 -110 -222 -110 -216 0 -217 0
-216 107 0 76 15 110 50 115 18 2 296 1 345 -1z"/>
<path d="M7703 4995 c-7 -7 -9 -16 -5 -19 3 -4 7 -26 8 -49 2 -23 3 -45 3 -49
1 -11 41 -10 41 1 0 5 -6 11 -13 14 -16 6 -16 59 0 79 17 19 -16 42 -34 23z"/>
<path d="M7763 4928 c0 -38 4 -57 11 -55 6 2 12 18 12 35 3 58 4 62 19 62 8 0
15 4 15 9 0 5 -13 9 -28 9 -28 -1 -29 -2 -29 -60z"/>
<path d="M8649 5130 c-1 -8 -3 -31 -4 -50 -3 -64 -2 -63 -41 -39 l-37 22 -18
-22 c-32 -39 -21 -201 13 -201 5 0 23 7 40 16 39 20 47 10 45 -60 l-1 -51 220
0 219 0 0 198 c0 108 -2 198 -5 198 -3 1 -101 2 -217 3 -186 2 -213 0 -214
-14z m418 -187 c1 -162 -1 -183 -16 -184 -63 -4 -381 -3 -382 1 0 3 -2 29 -4
59 -5 70 -15 80 -60 58 -20 -9 -37 -17 -39 -17 -21 0 -26 154 -6 174 5 5 23 0
42 -12 45 -28 59 -17 63 49 1 30 3 54 4 55 1 0 90 0 199 0 l198 0 1 -183z"/>
<path d="M8842 5008 c-17 -17 -15 -33 3 -18 13 11 15 5 15 -44 0 -49 -2 -56
-20 -56 -11 0 -20 -4 -20 -10 0 -5 23 -10 51 -10 31 0 48 4 44 10 -3 6 -13 10
-21 10 -11 0 -14 15 -14 65 0 66 -10 81 -38 53z"/>
<path d="M9580 5088 c0 -63 -4 -67 -52 -42 -28 14 -32 14 -47 0 -24 -25 -23
-168 2 -193 17 -17 19 -17 48 0 17 9 35 17 40 17 5 0 9 -29 9 -65 l0 -65 220
0 220 0 -2 203 -3 202 -217 0 -218 0 0 -57z m415 -147 l0 -185 -198 0 -197 -1
0 45 c0 91 -15 106 -71 73 -40 -24 -49 -9 -49 77 0 89 7 97 58 71 41 -21 41
-21 52 -2 5 11 10 39 10 64 l0 43 198 0 197 -1 0 -184z"/>
<path d="M9762 5008 c-34 -41 -11 -138 32 -138 37 0 56 25 56 75 0 26 -6 50
-16 59 -19 19 -58 21 -72 4z m62 -24 c9 -22 7 -67 -3 -82 -5 -8 -17 -12 -27
-10 -14 2 -20 13 -22 42 -2 21 -1 44 2 52 7 19 42 18 50 -2z"/>
<path d="M4998 5034 c-5 -4 -8 -49 -8 -101 l0 -93 28 0 c24 1 25 2 10 14 -13
10 -18 32 -20 100 -2 48 -6 84 -10 80z"/>
<path d="M5890 5034 c0 -3 6 -11 13 -18 8 -8 12 -41 11 -94 -1 -45 3 -82 8
-82 4 0 9 3 9 8 4 20 5 168 2 177 -4 11 -43 18 -43 9z"/>
<path d="M4650 4950 l0 -80 78 0 78 0 0 80 1 80 -79 0 -78 0 0 -80z m139 0
l-1 -60 -59 0 -59 0 0 60 0 60 60 0 60 0 -1 -60z"/>
<path d="M4750 4986 c0 -9 7 -16 16 -16 17 0 14 22 -4 28 -7 2 -12 -3 -12 -12z"/>
<path d="M4680 4914 c0 -9 5 -14 12 -12 18 6 21 28 4 28 -9 0 -16 -7 -16 -16z"/>
<path d="M4535 4980 c-18 -19 -18 -20 -1 -14 15 6 17 2 14 -22 -2 -25 -8 -29
-35 -32 -41 -4 -44 -22 -4 -22 36 0 61 23 61 56 0 13 5 24 11 24 8 0 8 5 -1
15 -16 20 -23 19 -45 -5z"/>
<path d="M7210 4985 c-9 -11 -9 -15 -1 -15 8 0 11 -11 9 -27 -2 -23 -8 -29
-35 -31 -41 -4 -44 -22 -4 -22 36 0 61 23 61 57 0 20 4 24 17 19 15 -6 15 -4
-2 14 -22 24 -29 25 -45 5z"/>
<path d="M9280 4976 c0 -18 -7 -26 -22 -29 l-23 -4 23 -8 c12 -4 22 -16 22
-26 0 -11 5 -19 10 -19 6 0 10 9 10 20 0 18 10 25 33 21 4 0 7 4 7 9 0 6 -9
10 -20 10 -15 0 -20 7 -20 25 0 14 -4 25 -10 25 -5 0 -10 -11 -10 -24z"/>
<path d="M8310 4981 c0 -5 7 -14 15 -21 14 -12 14 -15 -1 -31 -22 -24 -10 -37
14 -16 17 15 19 15 35 0 9 -9 19 -14 23 -10 3 3 -1 13 -10 22 -9 9 -16 18 -16
20 0 2 7 11 16 20 22 22 9 32 -15 11 -17 -15 -20 -15 -34 -1 -17 17 -27 19
-27 6z"/>
<path d="M5289 4598 c-4 -76 -7 -99 -11 -104 -3 -3 -22 3 -43 13 -36 17 -37
17 -51 -2 -17 -22 -19 -147 -4 -176 13 -23 38 -24 68 -3 31 21 37 13 38 -54 1
-31 2 -60 3 -64 0 -5 97 -8 215 -8 162 0 215 3 218 13 2 6 4 98 4 202 l-1 190
-217 3 c-171 2 -218 0 -219 -10z m418 -193 l0 -185 -201 0 -201 0 -1 61 c-2
78 -11 86 -62 60 -41 -21 -41 -21 -47 -1 -11 35 -9 140 3 152 9 9 20 7 47 -7
44 -25 55 -14 58 53 l2 52 201 0 201 0 0 -185z"/>
<path d="M5464 4455 c-18 -28 -14 -85 7 -111 31 -38 89 1 89 61 0 68 -63 101
-96 50z m70 -22 c3 -16 4 -37 2 -48 -3 -11 -5 -23 -5 -27 -1 -5 -10 -8 -21 -8
-34 0 -50 60 -27 98 15 23 45 14 51 -15z"/>
<path d="M6178 4553 c-2 -32 -7 -57 -13 -56 -5 1 -25 8 -43 15 -30 12 -35 11
-48 -6 -17 -23 -19 -147 -4 -177 12 -22 47 -24 74 -4 29 22 36 10 36 -61 l0
-64 340 0 340 0 0 205 0 205 -340 0 -339 0 -3 -57z m662 -148 l0 -185 -320 0
c-249 0 -320 3 -321 13 0 6 -2 34 -4 60 -4 66 -14 73 -63 48 l-41 -21 -6 21
c-10 32 -7 141 5 153 7 7 21 5 45 -9 44 -23 59 -12 62 48 1 23 2 45 2 50 1 4
145 7 321 7 l320 0 0 -185z"/>
<path d="M6363 4473 c-16 -6 -17 -39 -2 -49 8 -5 8 -9 -1 -14 -17 -10 -16 -60
1 -71 34 -21 89 1 89 36 0 7 -7 21 -16 29 -8 9 -11 16 -5 16 17 0 13 47 -5 54
-18 7 -43 7 -61 -1z m55 -30 c-2 -10 -12 -18 -23 -18 -11 0 -21 8 -23 18 -3
13 3 17 23 17 20 0 26 -4 23 -17z m5 -73 c-3 -13 -14 -20 -29 -20 -19 0 -24 5
-24 24 0 27 17 37 42 25 10 -6 14 -16 11 -29z"/>
<path d="M6481 4467 c-33 -40 -10 -137 32 -137 37 0 50 16 54 67 4 38 1 53
-12 66 -20 20 -58 22 -74 4z m63 -23 c16 -42 3 -94 -24 -94 -24 0 -32 14 -32
55 0 19 3 38 7 44 10 16 42 13 49 -5z"/>
<path d="M6606 4464 c-10 -9 -16 -33 -16 -59 0 -46 19 -75 48 -75 41 1 63 44
51 99 -11 51 -51 68 -83 35z m59 -59 c0 -41 -3 -50 -19 -53 -24 -5 -36 14 -36
59 0 42 7 51 35 47 17 -3 20 -10 20 -53z"/>
<path d="M7410 4550 c0 -33 -3 -60 -7 -60 -5 1 -19 7 -33 15 -37 21 -55 18
-68 -10 -15 -31 -16 -124 -2 -159 11 -30 43 -34 74 -11 29 22 36 10 36 -61 l0
-64 310 0 310 0 0 205 0 205 -310 0 -310 0 0 -60z m600 -145 l0 -185 -289 0
-289 0 -4 60 c-6 78 -15 87 -64 61 -48 -26 -54 -18 -54 69 0 89 8 99 56 76 36
-17 39 -17 51 0 7 10 13 37 13 61 l0 43 290 0 290 0 0 -185z"/>
<path d="M7540 4527 c-45 -12 -56 -36 -55 -126 1 -124 -5 -121 235 -121 242 0
236 -3 234 127 -2 127 0 126 -213 127 -94 1 -184 -2 -201 -7z m377 -22 c12 -9
17 -32 20 -91 7 -123 14 -119 -217 -119 -227 1 -220 -3 -220 110 0 70 10 98
39 107 8 2 92 4 187 5 123 0 179 -3 191 -12z"/>
<path d="M7584 4463 c-10 -17 -10 -55 2 -110 3 -15 12 -23 26 -23 20 0 20 1 5
18 -20 22 -19 72 3 89 13 11 13 12 -2 13 -9 0 -18 7 -20 15 -2 13 -5 13 -14
-2z"/>
<path d="M7640 4388 c0 -69 15 -78 23 -12 3 28 12 50 23 59 18 13 16 14 -13
13 l-33 -1 0 -59z"/>
<path d="M8524 4555 c-1 -31 -4 -59 -7 -62 -4 -3 -18 2 -31 11 -34 22 -53 20
-67 -5 -12 -23 -15 -133 -5 -167 9 -26 41 -29 74 -6 13 9 26 14 28 11 3 -3 7
-31 8 -63 2 -33 4 -62 5 -66 0 -5 98 -8 216 -8 118 0 215 3 216 8 1 10 1 363
0 385 -1 16 -18 17 -218 17 l-218 0 -1 -55z m421 -152 l0 -183 -203 0 c-156 0
-203 3 -201 13 4 31 -2 103 -10 115 -7 11 -16 10 -50 -7 -39 -20 -42 -20 -48
-4 -12 30 -8 142 5 155 9 9 19 7 47 -7 44 -24 53 -15 56 53 l3 52 200 -2 201
-3 0 -182z"/>
<path d="M8718 4469 c-25 -14 -24 -33 1 -20 18 10 19 7 19 -44 -1 -47 -4 -55
-19 -55 -11 0 -19 -4 -19 -10 0 -5 20 -10 45 -10 25 0 45 5 45 10 0 6 -7 10
-15 10 -12 0 -15 14 -15 65 0 67 -6 75 -42 54z"/>
<path d="M9458 4553 c-2 -32 -7 -57 -13 -56 -5 1 -25 8 -42 15 -26 10 -35 10
-45 0 -17 -17 -23 -153 -9 -181 14 -24 47 -27 75 -6 11 8 23 15 28 15 4 0 8
-32 8 -70 l0 -70 218 2 217 3 3 203 2 202 -219 0 -220 0 -3 -57z m422 -148 l0
-185 -201 2 -201 3 -2 58 c-3 75 -13 84 -64 58 -49 -25 -52 -20 -52 80 0 80
11 91 59 63 37 -22 55 -10 57 39 3 74 -17 67 204 67 l200 0 0 -185z"/>
<path d="M9640 4465 c-7 -9 -13 -36 -13 -60 0 -24 6 -51 13 -60 18 -22 56 -18
74 7 21 29 20 92 0 112 -20 20 -58 21 -74 1z m64 -21 c16 -42 3 -94 -24 -94
-24 0 -32 14 -32 55 0 19 3 38 7 44 10 16 42 13 49 -5z"/>
<path d="M4990 4400 l0 -100 28 0 c24 1 25 2 10 14 -15 11 -18 29 -18 100 0
51 -4 86 -10 86 -6 0 -10 -40 -10 -100z"/>
<path d="M5890 4490 c0 -4 5 -10 11 -12 7 -2 12 -36 12 -91 0 -48 4 -87 9 -87
4 0 9 3 9 8 3 21 5 168 2 177 -4 13 -43 17 -43 5z"/>
<path d="M4650 4410 l0 -80 78 0 78 0 -1 78 0 77 -77 3 -78 3 0 -81z m140 0
l0 -60 -60 0 -60 0 0 60 0 60 60 0 60 0 0 -60z"/>
<path d="M4745 4451 c-7 -12 12 -24 25 -16 11 7 4 25 -10 25 -5 0 -11 -4 -15
-9z"/>
<path d="M4680 4374 c0 -9 5 -14 12 -12 18 6 21 28 4 28 -9 0 -16 -7 -16 -16z"/>
<path d="M4535 4440 c-18 -19 -18 -20 -1 -14 15 6 17 2 14 -22 -2 -25 -8 -29
-35 -32 -44 -4 -42 -22 2 -22 37 0 55 20 55 60 0 17 4 21 17 16 15 -6 15 -4
-2 14 -10 11 -21 20 -25 20 -4 0 -15 -9 -25 -20z"/>
<path d="M7091 4446 c-9 -11 -9 -15 0 -18 8 -3 10 -14 5 -31 -5 -22 -12 -27
-36 -27 -17 0 -30 -4 -30 -10 0 -17 56 -11 73 8 10 10 17 29 17 41 0 18 4 22
18 16 13 -5 12 -1 -5 14 -26 25 -27 25 -42 7z"/>
<path d="M9160 4436 c0 -19 -6 -25 -27 -28 l-28 -4 28 -12 c15 -6 27 -19 27
-28 0 -10 3 -14 8 -10 4 4 7 13 7 19 0 7 10 13 23 15 30 4 28 22 -2 22 -19 0
-24 4 -21 20 2 11 0 22 -6 25 -5 4 -9 -5 -9 -19z"/>
<path d="M8190 4441 c0 -5 7 -14 15 -21 14 -12 14 -15 -1 -31 -22 -25 -10 -37
15 -15 16 15 19 15 31 1 20 -25 34 -17 16 9 -14 23 -14 26 0 41 24 23 8 32
-17 9 -20 -18 -22 -18 -34 -1 -13 18 -25 22 -25 8z"/>
<path d="M5440 4010 c0 -64 -3 -68 -34 -45 -35 27 -63 19 -76 -21 -16 -47 -8
-140 13 -161 15 -16 19 -16 52 0 20 9 38 17 40 17 3 0 5 -29 5 -65 l0 -65 220
0 220 0 0 200 0 200 -220 0 -220 0 0 -60z m415 -141 l0 -184 -197 -1 -198 0 0
57 c0 73 -14 86 -65 62 -31 -15 -37 -15 -45 -3 -13 20 -13 127 0 150 10 19 11
19 44 -1 31 -18 35 -18 50 -4 10 10 16 33 16 60 0 33 4 44 17 47 9 2 98 3 197
2 l181 0 0 -185z"/>
<path d="M5626 3925 c-21 -22 -21 -98 0 -119 48 -49 105 18 80 94 -8 27 -17
36 -37 38 -15 2 -34 -4 -43 -13z m59 -60 c0 -41 -3 -50 -19 -53 -24 -5 -36 14
-36 59 0 42 7 51 35 47 17 -3 20 -10 20 -53z"/>
<path d="M6430 4017 c0 -64 -6 -72 -37 -51 -38 24 -65 15 -76 -26 -13 -49 -4
-138 16 -157 15 -16 19 -16 52 0 20 9 38 17 40 17 3 0 5 -29 5 -65 l0 -65 305
0 305 0 0 200 0 200 -305 0 -305 0 0 -53z m585 -148 l0 -184 -282 -1 -283 -1
-1 41 c-1 45 -7 87 -14 94 -3 3 -23 -3 -46 -13 -51 -23 -59 -14 -59 72 0 91 3
95 53 73 23 -11 46 -15 50 -11 5 5 11 28 14 52 2 24 6 49 8 54 1 6 103 10 281
9 l279 0 0 -185z"/>
<path d="M6539 3988 c-27 -22 -36 -51 -34 -118 3 -129 8 -132 248 -128 213 4
206 0 206 128 0 129 8 124 -217 128 -138 1 -191 -1 -203 -10z m394 -30 c18
-29 16 -160 -2 -182 -11 -14 -41 -16 -194 -16 -221 0 -217 -2 -217 108 0 114
-5 112 216 112 180 0 184 0 197 -22z"/>
<path d="M6611 3896 c-16 -20 -17 -72 -1 -91 14 -17 66 -20 75 -4 10 16 -3 23
-18 11 -10 -9 -18 -8 -33 2 -24 18 -13 29 26 28 36 -1 47 17 30 47 -13 25 -61
29 -79 7z m63 -22 c4 -10 -3 -14 -24 -14 -32 0 -37 9 -19 27 14 14 35 7 43
-13z"/>
<path d="M7620 4010 c0 -64 -3 -68 -34 -45 -51 38 -78 9 -79 -83 0 -101 27
-135 77 -97 32 24 36 18 36 -50 l0 -65 305 0 305 0 0 200 0 200 -305 0 -305 0
0 -60z m575 41 c19 -1 20 -7 19 -178 -1 -98 -2 -181 -3 -184 0 -3 -129 -6
-286 -5 l-285 0 0 63 c0 34 -5 65 -11 69 -6 3 -28 -2 -50 -11 -22 -10 -41 -16
-44 -13 -8 8 -15 121 -8 146 6 26 20 28 58 8 43 -22 55 -11 55 48 0 29 2 55 4
57 4 3 478 3 551 0z"/>
<path d="M7726 3979 c-24 -19 -26 -26 -26 -109 0 -83 2 -90 26 -109 24 -19 38
-20 211 -18 225 2 221 0 220 129 0 125 2 124 -224 126 -168 1 -183 0 -207 -19z
m398 -15 c12 -11 16 -36 16 -94 0 -113 6 -110 -211 -110 -219 0 -215 -3 -213
114 1 64 5 82 20 93 13 10 63 13 195 13 148 0 180 -3 193 -16z"/>
<path d="M7870 3927 c0 -18 -5 -22 -32 -22 -26 0 -34 -5 -42 -27 -6 -18 -6
-38 0 -55 8 -24 15 -28 52 -29 l42 -2 0 79 c0 46 -4 79 -10 79 -5 0 -10 -10
-10 -23z m0 -77 c0 -24 -23 -51 -37 -42 -22 14 -26 58 -7 77 17 16 18 16 31
-1 7 -10 13 -25 13 -34z"/>
<path d="M8780 4010 l0 -60 -38 19 c-44 22 -59 17 -71 -26 -12 -40 -5 -141 10
-159 15 -18 39 -17 63 1 32 24 36 18 36 -50 l0 -65 312 2 311 3 0 195 0 195
-311 3 -312 2 0 -60z m580 41 l25 -1 0 -174 c0 -96 -4 -178 -8 -183 -5 -4
-137 -8 -293 -9 l-284 0 0 63 c0 72 -13 86 -55 59 -38 -25 -52 -20 -59 22 -8
53 -7 87 4 117 l10 26 38 -20 c49 -25 62 -14 62 49 0 26 2 49 4 51 4 3 463 3
556 0z"/>
<path d="M8893 3988 c-27 -13 -33 -35 -33 -130 0 -71 2 -78 27 -97 25 -20 36
-21 215 -19 186 3 190 3 209 27 15 18 19 39 19 103 0 69 -3 82 -23 102 -22 22
-29 23 -207 23 -104 1 -195 -4 -207 -9z m401 -24 c12 -11 16 -36 16 -94 0
-113 7 -110 -214 -110 -137 0 -187 3 -201 13 -15 12 -18 28 -18 97 0 69 3 85
18 96 29 22 378 20 399 -2z"/>
<path d="M8958 3918 c-2 -7 -2 -39 0 -70 3 -49 7 -58 23 -58 10 0 19 5 19 10
0 6 -4 10 -10 10 -5 0 -10 21 -10 46 0 27 4 43 10 39 15 -9 12 4 -4 21 -18 17
-23 18 -28 2z"/>
<path d="M9019 3899 c-5 -50 -1 -103 9 -107 8 -2 12 12 12 47 0 39 4 51 15 51
8 0 15 4 15 9 0 5 -11 9 -25 9 -14 0 -25 -4 -26 -9z"/>
<path d="M9900 4016 c0 -61 -8 -72 -36 -51 -31 23 -63 19 -74 -11 -13 -34 -13
-113 1 -153 12 -34 30 -38 69 -16 14 8 28 14 33 15 4 0 7 -29 7 -65 l0 -65
220 0 220 0 0 200 0 200 -220 0 -220 0 0 -54z m415 -147 l0 -184 -197 -1
c-194 -1 -198 0 -199 20 -1 57 -7 108 -13 113 -3 3 -24 -2 -47 -12 -51 -24
-59 -15 -59 76 0 81 9 92 58 68 20 -11 40 -15 44 -11 5 5 11 29 14 53 2 24 6
49 8 54 2 6 76 10 197 9 l194 0 0 -185z"/>
<path d="M10098 3929 c-22 -12 -24 -31 -3 -23 12 5 15 -4 15 -45 0 -38 -4 -51
-14 -51 -8 0 -18 -4 -21 -10 -4 -6 13 -10 44 -10 28 0 51 5 51 10 0 6 -9 10
-20 10 -18 0 -20 7 -20 65 0 67 -3 72 -32 54z"/>
<path d="M10830 4010 l0 -60 -38 19 c-44 23 -59 17 -71 -27 -12 -39 -5 -140
10 -158 15 -18 39 -17 63 1 32 24 36 18 36 -50 l0 -65 220 0 220 0 0 200 0
200 -220 0 -220 0 0 -60z m414 39 c5 -5 8 -138 7 -285 l-1 -80 -200 -1 -200 0
0 56 c0 80 -8 89 -59 66 -23 -10 -45 -15 -49 -11 -11 12 -12 138 -1 159 10 18
12 17 46 -3 46 -27 63 -14 63 50 0 25 2 49 4 51 6 5 385 3 390 -2z"/>
<path d="M11016 3925 c-21 -22 -21 -98 0 -119 48 -49 105 18 80 94 -8 27 -17
36 -37 38 -15 2 -34 -4 -43 -13z m59 -60 c0 -41 -3 -50 -19 -53 -22 -5 -36 14
-36 50 0 42 10 59 34 56 18 -3 21 -10 21 -53z"/>
<path d="M7241 3919 c-13 -13 -21 -29 -18 -40 3 -10 0 -20 -7 -22 -16 -5 49
-67 72 -67 26 0 72 44 72 70 0 12 -4 19 -10 15 -5 -3 -7 -12 -3 -20 3 -8 0
-15 -7 -15 -6 0 -9 -4 -5 -9 5 -9 -19 -21 -52 -27 -6 -1 -21 7 -32 17 -23 22
-23 69 0 91 16 16 59 21 59 7 0 -5 6 -8 13 -6 6 1 11 -4 10 -10 -2 -7 2 -13 7
-13 17 0 11 18 -12 34 -31 22 -60 20 -87 -5z"/>
<path d="M4535 3900 c-18 -19 -18 -20 -1 -14 15 6 17 2 14 -22 -2 -25 -8 -29
-35 -32 -41 -4 -44 -22 -4 -22 38 0 61 23 61 62 0 27 2 29 18 17 14 -11 13
-10 -2 9 -23 27 -28 27 -51 2z"/>
<path d="M8460 3905 c-9 -11 -9 -15 -1 -15 8 0 11 -11 9 -27 -2 -23 -8 -29
-36 -31 -38 -4 -33 -22 7 -22 36 0 51 17 51 58 0 19 4 31 10 27 6 -3 10 -2 10
3 0 6 -7 13 -16 16 -21 8 -20 8 -34 -9z"/>
<path d="M10530 3895 c0 -18 -5 -25 -20 -25 -11 0 -20 -4 -20 -10 0 -5 9 -10
20 -10 13 0 20 -7 20 -20 0 -11 5 -20 10 -20 6 0 10 9 10 20 0 13 7 20 20 20
11 0 20 5 20 10 0 6 -9 10 -20 10 -15 0 -20 7 -20 25 0 14 -4 25 -10 25 -5 0
-10 -11 -10 -25z"/>
<path d="M9560 3900 c0 -5 7 -13 16 -18 15 -8 15 -11 -1 -36 -18 -28 -6 -37
15 -11 12 14 15 14 31 -1 24 -22 39 -9 16 13 -15 16 -15 18 0 35 21 23 9 36
-13 14 -15 -15 -18 -15 -33 -1 -20 17 -31 19 -31 5z"/>
<path d="M6140 3880 c-8 -5 -36 -10 -62 -10 -27 0 -48 -4 -48 -10 0 -5 22 -10
49 -10 28 0 53 -4 56 -10 8 -13 42 -13 50 0 9 14 -4 50 -18 50 -7 0 -19 -5
-27 -10z m30 -20 c0 -5 -4 -10 -10 -10 -5 0 -10 5 -10 10 0 6 5 10 10 10 6 0
10 -4 10 -10z"/>
<path d="M7261 3874 c13 -16 29 -19 29 -5 0 5 -9 11 -21 14 -16 4 -18 3 -8 -9z"/>
<path d="M5021 3866 c-9 -11 -10 -20 -1 -35 13 -25 42 -27 60 -6 8 10 31 15
68 15 30 0 52 3 49 7 -4 4 -29 6 -56 4 -33 -1 -52 3 -61 14 -16 19 -44 19 -59
1z m48 -10 c9 -10 8 -16 -3 -26 -19 -15 -36 -5 -36 21 0 22 22 25 39 5z"/>
<path d="M4634 3848 c-3 -4 45 -8 105 -8 61 0 111 4 111 8 0 11 -210 11 -216
0z"/>
<path d="M4476 3464 c-18 -18 -21 -85 -6 -115 20 -36 88 -15 91 29 2 32 -3 67
-12 85 -12 21 -52 22 -73 1z m59 -59 c0 -47 -2 -50 -25 -50 -20 0 -26 6 -28
29 -6 49 6 78 31 74 19 -3 22 -9 22 -53z"/>
<path d="M4488 3089 c-22 -12 -24 -31 -3 -23 15 6 17 2 17 -41 0 -48 -2 -55
-17 -55 -8 0 -15 -4 -15 -10 0 -5 20 -10 45 -10 45 0 61 13 26 23 -15 4 -18
13 -16 66 2 63 -4 70 -37 50z"/>
<path d="M4476 2694 c-10 -9 -16 -33 -16 -59 0 -49 19 -75 55 -75 31 0 45 27
45 84 0 35 -5 48 -19 56 -27 14 -47 13 -65 -6z m59 -59 c0 -47 -2 -50 -25 -50
-20 0 -26 6 -28 29 -6 49 6 78 31 74 19 -3 22 -9 22 -53z"/>
<path d="M2545 2276 c-21 -21 -23 -31 -21 -102 4 -107 3 -102 34 -117 20 -10
74 -13 205 -12 212 1 209 0 215 105 9 149 7 150 -224 150 -181 0 -185 0 -209
-24z m402 -8 c9 -10 15 -36 15 -74 1 -138 7 -134 -178 -134 l-144 0 0 23 c0
20 4 23 30 19 38 -5 58 30 44 80 -9 30 -13 33 -52 34 l-42 2 0 -79 c0 -74 -1
-79 -22 -79 -45 0 -58 26 -58 115 0 54 4 86 13 93 17 15 53 17 225 16 121 -1
157 -5 169 -16z m-253 -93 c9 -34 -3 -55 -30 -55 -20 0 -24 5 -24 33 0 56 41
73 54 22z"/>
<path d="M3067 2196 c-3 -8 -2 -18 3 -21 13 -8 24 15 12 27 -6 6 -11 4 -15 -6z"/>
<path d="M3105 2190 c3 -5 35 -10 71 -10 36 0 64 4 64 10 0 6 -30 10 -71 10
-44 0 -68 -4 -64 -10z"/>
<path d="M3070 2144 c0 -8 5 -12 10 -9 6 3 10 10 10 16 0 5 -4 9 -10 9 -5 0
-10 -7 -10 -16z"/>
<path d="M3100 2150 c0 -6 30 -10 70 -10 40 0 70 4 70 10 0 6 -30 10 -70 10
-40 0 -70 -4 -70 -10z"/>
<path d="M4519 2370 c-1 -3 -2 -27 -3 -54 -1 -56 -10 -63 -51 -42 -26 14 -31
14 -47 -1 -27 -24 -26 -163 1 -187 19 -17 21 -17 51 0 27 16 32 17 40 4 5 -8
9 -31 9 -50 -3 -77 -28 -70 256 -70 l255 0 0 200 c0 153 -3 200 -12 201 -40 4
-498 3 -499 -1z m491 -197 l0 -183 -237 2 -238 3 -1 53 c-1 69 -13 81 -60 58
-26 -12 -40 -14 -47 -7 -13 13 -13 149 0 162 5 5 21 2 37 -6 53 -28 67 -18 71
49 2 23 3 44 4 47 1 3 107 5 236 5 l235 1 0 -184z"/>
<path d="M4782 2238 c-17 -17 -15 -33 3 -18 13 11 15 5 15 -44 0 -42 -4 -56
-14 -56 -8 0 -18 -4 -21 -10 -4 -6 13 -10 44 -10 28 0 51 5 51 10 0 6 -9 10
-21 10 -13 0 -20 6 -18 18 9 89 -8 131 -39 100z"/>
<path d="M4685 2160 c3 -5 17 -10 31 -10 13 0 24 5 24 10 0 6 -14 10 -31 10
-17 0 -28 -4 -24 -10z"/>
<path d="M5484 2371 c-2 -2 -4 -28 -4 -58 0 -58 -5 -61 -52 -37 -49 25 -63 3
-63 -96 0 -99 14 -121 63 -96 48 25 52 21 52 -49 l0 -65 220 0 220 0 0 203 0
202 -216 0 c-118 0 -217 -2 -220 -4z m414 -198 l2 -183 -200 0 -200 0 0 49 c0
84 -15 97 -71 64 -15 -9 -32 -14 -36 -9 -11 11 -15 149 -5 165 8 11 15 11 42
-3 58 -29 70 -19 70 58 l0 42 198 0 197 -1 3 -182z"/>
<path d="M5672 2238 c-17 -17 -15 -33 3 -18 13 11 15 5 15 -44 0 -42 -4 -56
-14 -56 -8 0 -18 -4 -21 -10 -4 -6 13 -10 44 -10 29 0 51 5 51 10 0 6 -8 10
-17 8 -18 -3 -18 -2 -22 110 -1 24 -20 29 -39 10z"/>
<path d="M6470 2318 c0 -63 -4 -67 -52 -42 -49 25 -63 3 -63 -96 0 -99 14
-121 63 -96 48 25 52 21 52 -49 l0 -65 310 0 310 0 0 200 c0 110 -3 201 -7
201 -5 1 -144 2 -310 3 l-303 1 0 -57z m600 -145 l0 -183 -290 0 c-313 0 -298
-3 -290 49 1 8 -1 29 -5 48 -7 37 -21 41 -67 17 -40 -21 -48 -9 -48 76 0 85 8
97 48 76 37 -19 62 -21 63 -3 2 18 7 70 8 88 1 14 33 16 291 15 l290 0 0 -183z"/>
<path d="M6567 2277 c-20 -19 -23 -32 -22 -97 2 -91 9 -117 38 -126 32 -11
357 -12 389 -1 33 11 41 32 43 117 2 68 -13 113 -40 124 -9 3 -100 6 -201 6
-178 0 -186 -1 -207 -23z m413 -12 c16 -15 20 -30 19 -92 -1 -114 1 -113 -219
-113 -221 0 -220 0 -220 113 0 39 4 78 9 86 13 20 73 26 244 25 126 -1 150 -4
167 -19z"/>
<path d="M6646 2235 c-5 -11 -8 -24 -7 -30 1 -5 3 -23 3 -40 0 -48 8 -65 30
-65 19 0 20 2 6 18 -19 22 -18 80 2 92 13 8 13 10 -2 10 -9 0 -18 8 -20 18 -3
15 -5 15 -12 -3z"/>
<path d="M6700 2158 c0 -32 4 -58 10 -58 11 0 11 0 13 52 1 24 9 42 22 52 19
14 18 15 -12 14 l-33 -1 0 -59z"/>
<path d="M7589 2375 c-1 0 -2 -24 -3 -52 -1 -29 -5 -55 -8 -58 -3 -3 -22 2
-43 11 -36 15 -39 15 -49 -3 -24 -40 -23 -170 1 -194 8 -8 22 -6 47 6 20 10
40 15 43 11 4 -4 7 -32 8 -64 l0 -57 218 -3 217 -2 1 22 c1 26 1 344 0 368 -1
13 -32 15 -216 15 -118 0 -216 0 -216 0z m416 -200 l0 -180 -201 -3 -201 -2
-2 57 c-1 72 -10 82 -57 59 -26 -12 -40 -14 -47 -7 -13 13 -14 148 -1 160 5 6
21 4 41 -6 48 -23 63 -12 63 45 0 27 2 51 5 54 3 2 94 4 202 4 l198 -1 0 -180z"/>
<path d="M7778 2236 c-23 -17 -23 -29 0 -17 16 8 18 4 20 -45 1 -48 -1 -54
-18 -54 -11 0 -20 -4 -20 -10 0 -5 20 -10 45 -10 25 0 45 5 45 10 0 6 -7 10
-15 10 -12 0 -15 14 -15 65 0 68 -8 77 -42 51z"/>
<path d="M8524 2371 c-2 -2 -4 -28 -4 -58 0 -58 -5 -61 -52 -37 -31 16 -32 16
-51 -7 -16 -20 -18 -36 -15 -96 4 -92 20 -113 66 -89 48 25 52 21 52 -49 l0
-65 220 0 220 0 -2 202 -3 203 -213 0 c-117 0 -215 -2 -218 -4z m416 -198 l0
-183 -202 2 -203 3 2 35 c3 54 -7 90 -24 90 -8 0 -28 -8 -44 -17 -40 -24 -49
-9 -49 77 0 85 8 97 48 76 43 -22 62 -20 64 7 1 12 3 31 4 42 1 11 2 27 3 36
1 13 27 15 201 15 l200 0 0 -183z"/>
<path d="M8700 2235 c-6 -8 -12 -35 -12 -60 0 -52 14 -75 46 -75 34 0 47 15
53 59 8 55 -11 91 -47 91 -15 0 -33 -7 -40 -15z m64 -21 c9 -22 7 -67 -3 -82
-5 -8 -17 -12 -27 -10 -21 4 -35 54 -23 86 10 25 44 29 53 6z"/>
<path d="M4228 2264 c-5 -4 -8 -49 -8 -101 l0 -93 28 0 c24 1 25 2 10 14 -13
10 -18 32 -20 100 -2 48 -6 84 -10 80z"/>
<path d="M5190 2259 c0 -4 6 -9 13 -12 8 -2 12 -29 12 -87 0 -52 4 -85 11 -87
7 -2 11 27 10 94 -1 94 -2 98 -23 99 -13 1 -23 -2 -23 -7z"/>
<path d="M3880 2180 l0 -80 81 0 80 0 -3 78 -3 77 -77 3 -78 3 0 -81z m139 0
l1 -60 -60 0 -60 0 0 60 0 60 59 0 59 0 1 -60z"/>
<path d="M3980 2215 c0 -9 5 -15 11 -13 6 2 11 8 11 13 0 5 -5 11 -11 13 -6 2
-11 -4 -11 -13z"/>
<path d="M3910 2145 c0 -9 5 -15 11 -13 6 2 11 8 11 13 0 5 -5 11 -11 13 -6 2
-11 -4 -11 -13z"/>
<path d="M3770 2215 c-9 -11 -9 -15 -1 -15 8 0 11 -11 9 -27 -2 -23 -8 -29
-35 -31 -41 -4 -44 -22 -4 -22 36 0 61 23 61 57 0 20 4 24 17 19 15 -6 15 -4
-2 14 -22 24 -29 25 -45 5z"/>
<path d="M6145 2210 c-17 -18 -17 -20 -2 -14 11 4 17 1 17 -9 0 -33 -13 -47
-41 -47 -16 0 -29 -4 -29 -10 0 -11 39 -13 64 -4 8 3 18 21 22 40 3 19 11 34
16 34 6 0 5 6 -2 15 -16 20 -23 19 -45 -5z"/>
<path d="M8220 2207 c0 -22 -5 -27 -25 -27 -14 0 -25 -4 -25 -10 0 -5 3 -9 8
-9 26 4 42 -3 42 -21 0 -11 4 -20 9 -20 6 0 8 9 6 20 -4 18 9 26 38 21 4 0 7
4 7 9 0 6 -9 10 -20 10 -11 0 -21 5 -21 10 -1 6 -2 14 -3 19 -3 23 -16 21 -16
-2z"/>
<path d="M7250 2211 c0 -5 7 -14 15 -21 14 -12 14 -15 -1 -31 -22 -24 -10 -37
14 -16 17 15 19 15 35 0 9 -9 19 -14 23 -10 3 3 -1 13 -10 22 -9 9 -16 18 -16
20 0 2 7 11 16 20 24 23 8 32 -17 9 -19 -17 -21 -18 -30 -1 -10 18 -29 23 -29
8z"/>
<path d="M3827 1773 c-3 -5 -4 -27 -2 -50 3 -58 -7 -71 -39 -50 -55 37 -76 12
-76 -88 0 -101 18 -122 80 -90 23 12 30 13 31 3 1 -7 2 -35 4 -63 1 -27 3 -53
4 -57 0 -5 135 -8 300 -8 276 0 299 1 303 18 2 9 4 100 3 202 l0 185 -302 3
c-166 1 -304 -1 -306 -5z m590 -198 l-1 -185 -287 0 -286 0 0 48 c0 67 -11 95
-31 86 -56 -23 -72 -27 -77 -22 -6 5 -9 86 -7 141 2 32 18 34 61 10 40 -23 51
-11 52 55 l2 52 287 0 287 0 0 -185z"/>
<path d="M3937 1694 c-29 -16 -35 -37 -36 -125 -1 -67 2 -78 22 -97 22 -21 32
-22 208 -22 180 0 186 1 206 23 17 18 21 37 22 99 2 85 -7 113 -41 124 -38 13
-357 10 -381 -2z m389 -25 c23 -25 22 -165 -1 -188 -11 -12 -50 -14 -195 -14
-218 0 -212 -3 -213 107 0 117 -3 116 214 115 162 -1 179 -3 195 -20z"/>
<path d="M4005 1597 c-26 -40 -3 -97 40 -97 47 0 73 70 39 104 -23 23 -61 20
-79 -7z m68 -12 c6 -13 2 -54 -5 -60 -2 -2 -12 -5 -22 -7 -21 -3 -36 32 -28
65 5 21 48 23 55 2z"/>
<path d="M4925 1768 c-3 -7 -3 -32 -2 -56 3 -51 -5 -59 -38 -38 -54 36 -77 8
-78 -95 -1 -94 26 -121 81 -83 13 9 26 14 28 11 3 -3 6 -33 7 -68 l2 -64 303
-3 302 -2 0 37 c1 73 1 298 1 336 l-1 37 -300 0 c-231 0 -302 -3 -305 -12z
m590 -190 l0 -183 -288 -3 -288 -2 2 22 c4 42 -1 93 -10 107 -8 13 -15 12 -45
-4 -49 -27 -61 -12 -61 70 1 82 12 95 60 70 45 -25 56 -14 57 54 l0 51 287 0
286 0 0 -182z"/>
<path d="M5040 1698 c-30 -11 -40 -42 -40 -125 0 -66 3 -83 20 -101 20 -21 28
-22 209 -22 229 0 224 -3 228 124 2 71 0 86 -18 104 -11 12 -25 23 -32 23 -52
5 -352 3 -367 -3z m378 -24 c20 -13 22 -23 22 -92 0 -116 1 -115 -161 -114
-170 0 -159 -1 -159 21 0 14 6 17 24 14 32 -6 56 28 49 70 -3 18 -10 35 -16
39 -18 11 -77 6 -78 -6 -1 -6 -1 -39 -2 -73 0 -51 -3 -62 -19 -66 -10 -3 -28
3 -40 12 -18 15 -21 28 -21 83 0 82 8 115 31 121 9 2 91 5 182 5 130 1 170 -2
188 -14z m-247 -98 c3 -48 -10 -69 -38 -59 -17 7 -18 80 0 86 21 7 37 -4 38
-27z"/>
<path d="M6030 1726 c0 -62 -10 -74 -42 -52 -52 37 -78 7 -78 -89 0 -96 31
-130 84 -90 29 22 36 10 36 -61 l0 -64 370 0 370 0 0 205 0 205 -370 0 -370 0
0 -54z m720 -151 l0 -185 -350 0 c-192 0 -350 3 -351 8 0 4 -2 31 -4 60 -4 68
-14 79 -53 57 -50 -30 -62 -16 -62 69 0 43 5 78 11 82 6 3 26 -2 45 -12 42
-23 56 -12 60 48 1 24 3 46 3 51 1 4 159 7 351 7 l350 0 0 -185z"/>
<path d="M6211 1636 c-16 -19 -17 -87 -2 -114 14 -27 52 -29 74 -4 23 26 22
94 -1 115 -23 21 -56 22 -71 3z m63 -22 c9 -22 7 -67 -3 -82 -5 -8 -17 -12
-27 -10 -14 2 -20 13 -22 42 -2 21 -1 44 2 52 7 19 42 18 50 -2z"/>
<path d="M6396 1634 c-10 -9 -16 -33 -16 -59 0 -49 19 -75 55 -75 31 0 49 32
47 85 -3 59 -50 86 -86 49z m59 -59 c0 -47 -2 -50 -25 -50 -20 0 -26 6 -28 29
-6 49 6 78 31 74 19 -3 22 -9 22 -53z"/>
<path d="M6505 1619 c-8 -37 -2 -44 38 -44 26 0 33 -5 35 -23 4 -27 -23 -40
-50 -23 -25 15 -35 7 -18 -14 15 -18 61 -20 78 -3 17 17 15 63 -3 78 -8 7 -26
10 -39 8 -18 -4 -23 -1 -21 11 1 11 14 17 39 19 47 4 36 22 -14 22 -35 0 -39
-3 -45 -31z"/>
<path d="M6330 1516 c0 -9 5 -16 10 -16 6 0 10 4 10 9 0 6 -4 13 -10 16 -5 3
-10 -1 -10 -9z"/>
<path d="M7264 1725 c-1 -31 -4 -58 -7 -62 -4 -3 -18 2 -31 11 -57 37 -78 9
-74 -101 4 -92 19 -109 70 -80 17 10 33 15 36 12 3 -3 6 -31 8 -62 1 -32 2
-61 3 -65 1 -5 98 -8 216 -8 l215 0 1 28 c3 85 4 350 0 365 -3 16 -22 17 -220
17 l-216 0 -1 -55z m421 -150 l0 -180 -201 -3 -200 -2 -1 49 c-2 70 -11 94
-31 85 -56 -23 -72 -27 -77 -22 -6 5 -9 86 -7 141 2 32 18 34 61 10 40 -23 51
-11 52 55 l2 52 201 -2 201 -3 0 -180z"/>
<path d="M7449 1634 c-17 -21 -17 -97 0 -118 33 -40 91 -3 91 59 0 61 -58 99
-91 59z m64 -26 c4 -20 4 -48 -2 -80 0 -5 -10 -8 -21 -8 -25 0 -39 33 -33 78
4 25 10 32 28 32 15 0 25 -7 28 -22z"/>
<path d="M3233 1624 c7 -7 -30 -44 -45 -44 -7 0 2 -11 20 -23 17 -13 29 -27
25 -30 -3 -4 -4 -7 0 -7 3 0 18 12 34 28 l28 27 -28 28 c-16 15 -31 27 -34 27
-4 0 -4 -3 0 -6z m32 -34 c3 -5 1 -10 -4 -10 -6 0 -11 5 -11 10 0 6 2 10 4 10
3 0 8 -4 11 -10z m-25 -24 c0 -3 -4 -8 -10 -11 -5 -3 -10 -1 -10 4 0 6 5 11
10 11 6 0 10 -2 10 -4z"/>
<path d="M4609 1601 l-26 -26 26 -25 26 -25 25 25 25 25 -25 26 -26 25 -25
-25z m21 -11 c0 -5 -5 -10 -11 -10 -5 0 -7 5 -4 10 3 6 8 10 11 10 2 0 4 -4 4
-10z m0 -30 c0 -5 -2 -10 -4 -10 -3 0 -8 5 -11 10 -3 6 -1 10 4 10 6 0 11 -4
11 -10z m30 6 c0 -3 -4 -8 -10 -11 -5 -3 -10 -1 -10 4 0 6 5 11 10 11 6 0 10
-2 10 -4z"/>
<path d="M6961 1623 c4 -27 -3 -43 -21 -43 -11 0 -20 -5 -20 -11 0 -6 7 -9 15
-5 15 5 39 -26 28 -38 -3 -3 -1 -6 5 -6 7 0 12 9 12 20 0 13 7 20 19 20 11 0
23 5 26 10 4 6 -5 10 -19 10 -21 0 -26 5 -26 25 0 14 -4 25 -10 25 -5 0 -9 -3
-9 -7z"/>
<path d="M5704 1596 c14 -23 14 -26 0 -41 -22 -22 -9 -33 14 -12 17 15 19 15
35 0 9 -9 20 -14 24 -10 4 4 -1 15 -10 24 -15 16 -15 18 0 35 9 10 13 21 9 26
-4 4 -14 -2 -22 -12 -13 -18 -15 -18 -32 -3 -27 25 -37 21 -18 -7z"/>
<path d="M3060 1602 c0 -5 25 -9 55 -10 30 0 55 4 55 9 0 5 -25 9 -55 9 -30 0
-55 -4 -55 -8z"/>
<path d="M3320 1559 c-12 -8 -10 -9 7 -4 33 9 39 -14 9 -41 -14 -14 -26 -27
-26 -29 0 -3 17 -4 38 -4 36 1 36 2 7 8 -24 5 -27 9 -15 16 8 6 21 18 29 28
13 16 13 20 0 28 -18 11 -31 11 -49 -2z"/>
<path d="M3560 1560 c0 -5 5 -10 10 -10 6 0 10 5 10 10 0 6 -4 10 -10 10 -5 0
-10 -4 -10 -10z"/>
<path d="M3064 1549 c-3 -5 20 -9 50 -9 31 0 56 4 56 8 0 12 -99 12 -106 1z"/>
<path d="M2308 1179 c-10 -5 -18 -14 -18 -20 0 -6 6 -6 18 0 15 8 17 4 15 -37
-1 -26 -2 -50 -2 -54 -1 -5 -8 -8 -16 -8 -8 0 -15 -4 -15 -10 0 -5 20 -10 45
-10 45 0 61 13 27 22 -15 4 -18 16 -17 67 1 62 -5 69 -37 50z"/>
<path d="M2295 784 c-21 -21 -13 -29 13 -13 20 13 52 7 52 -10 0 -6 -18 -28
-40 -50 -22 -22 -40 -44 -40 -50 0 -6 21 -11 50 -11 28 0 50 5 50 10 0 6 -17
10 -37 10 l-37 0 37 38 c20 21 37 45 37 53 0 38 -55 52 -85 23z"/>
<path d="M2280 410 c0 -5 17 -10 39 -10 l38 0 -23 -47 c-25 -49 -31 -83 -14
-83 6 0 10 8 10 18 0 9 11 41 25 70 14 30 25 56 25 58 0 2 -22 4 -50 4 -27 0
-50 -4 -50 -10z"/>
</g>
</svg>
