<?xml version="1.0" standalone="no"?>
<!DOCTYPE svg PUBLIC "-//W3C//DTD SVG 20010904//EN"
 "http://www.w3.org/TR/2001/REC-SVG-20010904/DTD/svg10.dtd">
<svg version="1.0" xmlns="http://www.w3.org/2000/svg"
 width="1301.000000pt" height="327.000000pt" viewBox="0 0 1301.000000 327.000000"
 preserveAspectRatio="xMidYMid meet">
<metadata>
Created by potrace 1.16, written by Peter Selinger 2001-2019
</metadata>
<g transform="translate(0.000000,327.000000) scale(0.100000,-0.100000)"
fill="#000000" stroke="none">
<path d="M415 2875 c-5 -2 -22 -6 -37 -9 -45 -10 -123 -80 -148 -132 -18 -40
-23 -67 -24 -151 0 -57 -5 -103 -9 -103 -5 0 -5 -6 -1 -12 11 -18 12 -148 1
-148 -4 0 -5 -5 -1 -12 12 -19 11 -178 -1 -178 -7 0 -7 -3 0 -8 13 -9 13 -105
0 -114 -7 -5 -6 -8 1 -8 11 0 13 -64 2 -75 -4 -4 -3 -17 1 -29 10 -29 7 -358
-3 -375 -6 -8 -5 -12 0 -8 11 6 12 -132 1 -149 -3 -6 -3 -14 1 -18 11 -12 9
-180 -2 -188 -7 -5 -7 -8 -1 -8 8 0 13 -172 5 -190 -1 -3 -1 -9 0 -15 2 -5 4
-89 4 -185 2 -158 4 -180 24 -221 12 -25 31 -55 42 -67 29 -31 100 -70 140
-77 19 -3 2809 -7 6200 -8 l6166 -2 0 858 0 857 -666 0 c-366 0 -1887 0 -3381
0 l-2717 1 0 377 c0 207 -1 383 -1 390 -1 9 -498 12 -2450 12 l-2449 0 -88
-60 c-72 -48 -97 -60 -129 -60 -37 0 -102 30 -90 42 3 2 -1 5 -8 5 -7 0 -36
16 -65 36 l-52 37 -127 -1 c-71 0 -132 -2 -138 -4z m340 -85 c80 -53 95 -60
140 -60 44 0 60 7 140 60 l90 60 2428 0 2427 0 1 -22 c0 -35 1 -680 0 -706
l-1 -22 -2435 0 -2435 1 -89 -61 c-120 -80 -137 -80 -254 1 l-88 61 -222 0
-223 0 1 282 c1 301 3 317 54 384 46 62 96 78 245 81 l131 2 90 -61z m5 -783
c74 -50 91 -57 133 -57 42 0 61 8 140 59 l92 59 143 -1 142 0 0 -91 c0 -125
-4 -129 -80 -88 -75 42 -106 40 -135 -8 -17 -31 -20 -52 -20 -170 0 -109 4
-141 18 -167 32 -59 57 -61 140 -10 26 16 54 26 62 23 13 -5 15 -81 15 -571
l0 -566 -507 3 c-498 3 -509 3 -548 25 -47 25 -81 62 -103 112 -14 32 -16 120
-17 766 -1 402 0 733 1 736 2 4 102 6 221 5 l218 -1 85 -58z m11986 -762 l0
-825 -5651 0 -5651 0 0 560 c-1 674 4 650 -119 585 -36 -19 -71 -35 -79 -35
-27 0 -41 62 -41 180 0 170 24 210 95 160 41 -29 94 -50 107 -42 24 16 34 57
35 147 l2 95 5651 0 5650 0 1 -825z"/>
<path d="M1794 2480 c1 -146 2 -160 18 -160 19 0 20 2 22 60 2 53 27 50 71
-10 22 -31 44 -50 56 -50 23 0 23 0 -35 83 l-40 57 49 50 c46 46 47 50 25 50
-17 0 -40 -17 -76 -57 l-52 -58 0 85 c0 112 1 110 -20 110 -17 0 -18 -12 -18
-160z"/>
<path d="M4313 2480 c0 -150 1 -160 18 -160 17 0 19 8 19 74 0 41 4 86 10 100
11 30 49 42 79 26 19 -10 21 -20 21 -105 0 -88 1 -95 20 -95 19 0 20 7 20 91
0 86 -9 125 -34 141 -21 15 -72 8 -94 -12 l-22 -21 0 61 c0 51 -3 60 -18 60
-17 0 -18 -13 -19 -160z"/>
<path d="M5022 2623 c5 -26 38 -29 38 -4 0 15 -6 21 -21 21 -14 0 -19 -5 -17
-17z"/>
<path d="M543 2598 c-11 -53 -9 -63 15 -66 16 -3 22 2 22 16 0 11 -6 22 -12
24 -10 4 -10 10 -1 31 11 23 10 27 -2 27 -9 0 -18 -13 -22 -32z"/>
<path d="M616 2614 c-3 -9 -6 -31 -6 -50 0 -27 4 -34 20 -34 22 0 29 35 8 42
-10 4 -10 10 -1 31 10 22 10 27 -1 27 -8 0 -17 -7 -20 -16z"/>
<path d="M972 2613 c75 -274 82 -293 109 -293 25 0 28 5 45 76 9 42 25 98 33
125 l17 49 18 -72 c42 -169 46 -178 71 -178 21 0 27 9 44 68 72 246 73 253 37
239 -7 -3 -28 -63 -47 -133 -18 -70 -34 -123 -36 -118 -2 5 -18 63 -37 129
-27 98 -37 121 -53 123 -17 3 -24 -12 -52 -120 -18 -68 -34 -127 -36 -133 -3
-13 -8 0 -35 105 -38 145 -40 150 -62 150 -15 0 -19 -5 -16 -17z"/>
<path d="M3485 2618 c-31 -16 -45 -39 -45 -75 0 -40 26 -60 112 -82 39 -10 66
-24 75 -38 14 -20 13 -24 -11 -47 -22 -22 -31 -25 -73 -21 -32 3 -54 11 -65
25 -9 11 -26 20 -37 20 -18 0 -19 -3 -10 -23 14 -32 42 -47 98 -54 70 -8 120
11 137 53 26 63 -5 97 -111 123 -60 15 -75 26 -75 56 0 44 94 61 131 24 11
-11 30 -19 41 -17 21 3 21 4 -4 33 -23 26 -33 30 -85 32 -32 1 -67 -3 -78 -9z"/>
<path d="M4207 2603 c-4 -3 -7 -15 -7 -25 0 -10 -7 -18 -15 -18 -8 0 -15 -7
-15 -15 0 -8 6 -15 13 -15 10 0 13 -23 13 -89 0 -100 10 -121 55 -121 35 0 38
21 7 35 -21 9 -23 16 -23 95 1 82 1 85 23 82 14 -2 22 2 22 12 0 8 -10 16 -22
18 -17 2 -23 9 -22 26 1 21 -15 30 -29 15z"/>
<path d="M1439 2545 c-32 -18 -41 -36 -45 -94 -3 -59 13 -99 47 -116 60 -32
130 -8 149 51 15 43 5 115 -18 145 -23 27 -96 35 -133 14z m95 -28 c21 -16 31
-93 16 -132 -10 -26 -46 -41 -79 -30 -42 13 -52 142 -13 165 24 13 55 12 76
-3z"/>
<path d="M1648 2528 c-2 -18 -2 -72 0 -120 3 -76 6 -88 21 -88 15 0 18 9 18
58 1 96 3 108 16 126 7 9 22 18 33 18 11 1 21 10 21 20 2 26 -32 23 -57 -4
-12 -13 -21 -18 -20 -13 5 22 -1 35 -14 35 -9 0 -16 -12 -18 -32z"/>
<path d="M2041 2547 c-30 -15 -43 -57 -25 -81 7 -10 37 -26 65 -36 29 -9 57
-24 63 -33 26 -41 -65 -66 -101 -28 -13 14 -23 17 -33 10 -13 -8 -10 -14 13
-34 68 -60 193 -5 159 69 -8 18 -26 29 -63 40 -67 20 -82 32 -68 57 12 24 51
25 90 2 31 -18 45 -13 35 12 -12 32 -90 45 -135 22z"/>
<path d="M2234 2395 c0 -151 2 -165 18 -165 19 0 20 2 20 71 l1 46 29 -14 c47
-24 96 -10 114 32 28 68 11 173 -31 189 -29 11 -65 7 -90 -10 -23 -15 -25 -15
-25 0 0 9 -8 16 -18 16 -17 0 -19 -11 -18 -165z m140 113 c22 -30 21 -116 -1
-140 -19 -21 -52 -23 -76 -5 -32 23 -27 138 6 159 23 15 56 8 71 -14z"/>
<path d="M2525 2550 c-30 -12 -50 -39 -38 -51 6 -6 18 -3 35 11 46 35 98 22
98 -26 0 -18 -5 -21 -32 -18 -42 5 -96 -13 -108 -36 -27 -50 5 -110 59 -110
15 0 40 9 54 20 14 11 27 20 30 20 3 0 7 -9 10 -20 3 -13 14 -20 30 -20 31 0
43 26 16 33 -17 5 -19 14 -19 85 0 75 -2 82 -26 101 -27 21 -73 26 -109 11z
m95 -133 c0 -34 -41 -69 -76 -65 -24 2 -30 8 -32 33 -5 37 19 55 70 55 33 0
38 -3 38 -23z"/>
<path d="M2763 2548 c-39 -19 -60 -101 -40 -164 20 -66 124 -86 162 -31 32 46
5 57 -37 15 -24 -24 -51 -23 -74 3 -25 28 -24 127 2 146 25 19 51 16 74 -7 21
-21 50 -27 50 -10 0 6 -11 22 -25 35 -26 27 -72 32 -112 13z"/>
<path d="M2969 2531 c-16 -16 -30 -39 -30 -50 -1 -12 -2 -31 -3 -43 -5 -63 42
-118 101 -118 47 0 92 25 93 53 0 13 -31 8 -46 -8 -34 -33 -97 -9 -106 40 -3
18 3 20 80 23 92 3 96 8 67 77 -25 61 -107 75 -156 26z m111 -21 c37 -37 26
-50 -40 -50 -65 0 -77 14 -43 52 21 24 58 23 83 -2z"/>
<path d="M3703 2548 c3 -7 24 -62 47 -121 l43 -109 -20 -26 c-11 -15 -30 -28
-42 -30 -28 -4 -27 -32 2 -32 33 0 65 26 83 68 27 64 94 244 94 253 0 5 -8 9
-18 9 -14 0 -25 -20 -47 -90 -16 -49 -31 -90 -34 -90 -3 0 -20 39 -37 88 -25
72 -35 88 -54 90 -16 3 -21 0 -17 -10z"/>
<path d="M3950 2440 c0 -109 2 -120 18 -120 16 0 18 11 20 86 2 94 15 124 57
124 39 0 50 -25 50 -121 0 -83 1 -89 20 -89 20 0 21 5 19 102 -2 92 -5 105
-24 120 -30 24 -71 23 -104 -3 -15 -12 -26 -17 -25 -12 4 21 -2 33 -16 33 -12
0 -15 -20 -15 -120z"/>
<path d="M4603 2550 c-35 -15 -55 -54 -55 -111 1 -77 38 -119 107 -119 32 0
73 19 80 38 9 24 -3 27 -34 9 -16 -9 -38 -17 -48 -17 -30 0 -63 29 -63 56 0
23 2 24 81 24 l82 0 -6 41 c-3 23 -14 51 -25 61 -22 22 -87 32 -119 18z m89
-37 c10 -9 18 -24 18 -35 0 -15 -8 -18 -60 -18 -49 0 -60 3 -60 17 0 46 66 69
102 36z"/>
<path d="M4833 2550 c-28 -11 -41 -36 -35 -66 5 -27 24 -40 85 -58 48 -14 67
-37 48 -60 -18 -22 -77 -20 -99 2 -10 10 -26 16 -35 13 -14 -5 -14 -8 2 -30
12 -16 31 -25 62 -28 57 -6 97 10 110 44 14 39 -14 72 -79 93 -64 21 -69 26
-56 48 16 24 53 27 91 6 35 -18 47 -16 38 8 -13 32 -84 47 -132 28z"/>
<path d="M5020 2440 c0 -113 1 -120 20 -120 19 0 20 7 20 120 0 113 -1 120
-20 120 -19 0 -20 -7 -20 -120z"/>
<path d="M5148 2549 c-56 -21 -40 -101 24 -114 50 -11 87 -33 84 -51 -6 -37
-68 -46 -108 -15 -14 11 -30 16 -37 12 -20 -13 20 -51 61 -58 70 -11 118 16
118 66 0 36 -23 55 -85 73 -73 20 -75 67 -3 68 15 0 33 -7 42 -15 16 -16 46
-20 46 -7 0 5 -10 18 -23 30 -25 24 -72 28 -119 11z"/>
<path d="M5381 2546 c-34 -19 -50 -54 -51 -112 0 -81 53 -125 134 -110 18 4
41 15 51 26 16 18 16 20 2 26 -9 3 -26 -1 -39 -10 -12 -9 -33 -16 -45 -16 -28
0 -63 33 -63 60 0 18 7 20 84 20 l83 0 -7 42 c-14 75 -85 110 -149 74z m93
-32 c9 -8 16 -24 16 -35 0 -17 -7 -19 -60 -19 -66 0 -77 13 -40 50 24 24 63
26 84 4z"/>
<path d="M5585 2440 c0 -114 1 -121 20 -118 17 3 19 12 20 87 2 75 4 86 24
103 13 10 27 15 32 12 5 -3 9 4 9 15 0 28 -34 27 -54 -1 l-16 -22 0 22 c0 14
-6 22 -18 22 -16 0 -17 -12 -17 -120z"/>
<path d="M3200 2345 c0 -14 4 -25 10 -25 6 0 6 -9 0 -25 -5 -14 -6 -27 0 -30
14 -8 30 29 30 69 0 29 -4 36 -20 36 -15 0 -20 -7 -20 -25z"/>
<path d="M569 1356 c-1 0 -2 -58 -3 -128 -1 -122 -1 -128 18 -122 10 3 71 28
135 54 159 65 159 70 -14 141 -74 31 -136 56 -136 55z m119 -87 c42 -18 80
-35 85 -39 4 -3 -33 -22 -83 -42 l-90 -36 0 74 c0 41 3 74 6 74 3 0 40 -14 82
-31z"/>
<path d="M2830 1835 c0 -136 -5 -143 -78 -96 -59 38 -105 41 -126 9 -46 -70
-39 -348 9 -388 21 -18 75 -7 124 25 51 34 71 28 71 -22 1 -21 1 -215 1 -430
l0 -393 3889 0 3890 0 0 705 0 705 -3890 0 -3890 0 0 -115z m7748 -590 l0
-675 -3857 2 -3856 3 0 417 -1 417 -23 20 c-21 19 -26 19 -58 6 -19 -8 -47
-24 -64 -35 -66 -48 -91 -5 -91 154 0 61 4 124 9 140 13 41 37 55 65 36 64
-41 111 -59 128 -50 26 14 33 42 35 140 2 47 3 88 4 93 1 4 1735 7 3855 7
l3854 0 0 -675z"/>
<path d="M4570 1685 c0 -137 -5 -142 -81 -95 -71 43 -107 39 -134 -15 -28 -58
-28 -272 0 -330 27 -54 63 -58 134 -15 28 18 58 29 66 26 13 -5 15 -48 15
-286 l0 -280 2870 0 2870 0 0 555 0 555 -2870 0 -2870 0 0 -115z m5705 -442
l1 -523 -2836 0 -2836 0 1 252 c0 141 -4 265 -10 282 -14 44 -51 46 -119 7
-29 -17 -60 -31 -69 -31 -25 0 -40 67 -40 170 0 108 6 155 23 176 18 21 31 18
95 -20 94 -57 120 -30 120 127 l0 87 2835 -2 2835 -3 0 -522z"/>
<path d="M6391 1538 c0 -61 -5 -116 -11 -122 -6 -6 -30 2 -69 22 -70 38 -105
41 -125 10 -45 -70 -40 -327 7 -385 17 -22 68 -14 119 18 79 51 80 49 80 -159
l-1 -82 867 2 867 3 3 403 2 402 -869 0 -868 0 -2 -112z m1704 -283 c0 -198
-1 -366 -3 -372 -3 -10 -179 -13 -836 -13 l-832 0 1 93 c1 50 -3 109 -8 130
-15 59 -34 62 -112 21 -37 -20 -73 -33 -81 -30 -26 10 -36 59 -37 176 -1 122
12 172 46 178 9 2 42 -12 73 -31 95 -60 113 -41 119 123 2 47 3 86 4 88 1 1
375 1 833 0 l832 -3 1 -360z"/>
<path d="M6783 1389 c-39 -20 -55 -72 -51 -161 3 -75 5 -81 36 -109 18 -16 44
-29 58 -29 39 0 80 26 94 59 28 67 19 175 -18 221 -20 25 -86 35 -119 19z m77
-29 c26 -14 40 -66 36 -131 -5 -69 -19 -97 -52 -105 -19 -5 -32 -1 -47 14 -41
41 -39 180 3 214 26 21 34 22 60 8z"/>
<path d="M7149 1385 c-36 -20 -53 -67 -52 -146 0 -74 21 -120 60 -138 83 -38
146 25 146 144 0 125 -68 187 -154 140z m99 -42 c13 -18 16 -40 14 -118 -2
-83 -32 -116 -85 -96 -30 12 -45 53 -41 116 1 22 2 50 3 62 2 33 41 65 71 58
14 -3 31 -13 38 -22z"/>
<path d="M7395 1389 c-42 -24 -61 -69 -29 -69 9 0 24 10 33 22 23 28 59 33 83
12 34 -32 23 -64 -46 -129 -70 -66 -101 -109 -91 -125 8 -14 192 -13 200 1 12
18 -1 21 -80 22 -41 1 -75 4 -75 8 0 4 24 28 53 54 95 84 118 137 79 185 -21
26 -96 37 -127 19z"/>
<path d="M7599 1363 c-1 -21 -3 -58 -5 -82 l-3 -44 37 8 c60 12 94 9 109 -11
17 -23 17 -65 -1 -89 -20 -27 -80 -25 -106 3 -12 12 -27 19 -35 15 -14 -5 -14
-8 -2 -27 22 -33 58 -47 106 -43 56 6 82 32 88 90 5 41 2 49 -25 77 -32 32
-76 40 -113 20 -18 -10 -19 -8 -16 27 4 56 11 62 70 61 74 0 77 0 71 17 -5 12
-25 15 -90 15 l-84 0 -1 -37z"/>
<path d="M6998 1133 c-10 -20 -1 -38 20 -41 18 -3 21 1 19 20 -4 22 -31 37
-39 21z"/>
<path d="M9130 1543 c0 -143 -3 -147 -82 -104 -76 40 -105 39 -131 -7 -25 -42
-35 -212 -18 -292 21 -98 54 -111 152 -57 51 27 61 30 69 17 5 -8 10 -70 10
-137 l0 -123 440 0 440 0 0 405 0 405 -440 0 -440 0 0 -107z m846 -298 l0
-375 -407 0 -407 0 0 107 c-1 107 -12 157 -38 167 -7 3 -44 -11 -80 -30 -36
-19 -73 -34 -82 -32 -27 5 -39 68 -37 183 4 183 15 196 119 141 37 -20 72 -33
80 -30 25 10 36 55 36 149 l0 95 408 0 408 0 0 -375z"/>
<path d="M9519 1385 c-35 -19 -51 -62 -52 -139 0 -78 16 -122 54 -141 55 -29
109 -12 135 44 22 46 21 158 -1 201 -25 48 -84 63 -136 35z m75 -25 c16 -6 28
-21 34 -42 11 -42 6 -137 -9 -165 -15 -27 -53 -37 -79 -21 -31 20 -38 59 -31
176 1 22 33 62 50 62 5 0 21 -4 35 -10z"/>
<path d="M4890 1220 l0 -180 120 0 c116 0 141 -7 103 -29 -14 -8 -4 -10 41
-11 52 0 58 2 42 13 -16 11 -17 19 -9 43 7 20 16 28 28 26 47 -9 101 39 124
111 25 75 -17 120 -76 82 -23 -16 -25 -16 -20 -1 7 18 -2 19 -55 7 l-36 -8 2
51 c1 28 1 57 -2 64 -3 9 -39 12 -133 12 l-129 0 0 -180z m246 0 l0 -160 -113
0 -113 0 0 160 0 160 113 0 113 0 0 -160z m41 5 c-9 -73 -25 -87 -22 -19 3 68
2 64 16 64 7 0 9 -15 6 -45z m110 24 c7 -7 7 -24 -3 -57 -19 -61 -40 -92 -64
-92 -25 0 -25 3 -1 75 11 33 17 63 14 69 -3 5 -1 6 5 2 6 -3 13 -2 17 4 8 13
18 13 32 -1z"/>
<path d="M4973 1338 c-23 -11 -32 -48 -13 -48 6 0 10 6 10 14 0 31 71 35 99 7
26 -26 17 -58 -22 -82 -31 -18 -43 -44 -26 -55 5 -3 9 2 9 10 0 9 4 16 9 16 4
0 20 11 35 25 30 27 36 84 11 105 -20 17 -86 22 -112 8z"/>
<path d="M4992 1103 c2 -12 12 -18 28 -18 16 0 26 6 28 18 3 13 -3 17 -28 17
-25 0 -31 -4 -28 -17z"/>
<path d="M8520 1328 c6 -73 3 -78 -45 -78 -33 0 -45 -4 -45 -15 0 -11 12 -15
45 -15 44 0 45 -1 46 -32 1 -18 1 -39 0 -45 -1 -7 5 -13 14 -13 15 0 17 3 19
55 1 28 4 30 46 35 63 7 64 30 2 30 l-47 0 0 43 c1 39 -8 56 -28 57 -5 0 -8
-10 -7 -22z"/>
<path d="M5714 1325 c-5 -13 3 -26 30 -50 l37 -31 -36 -39 c-22 -23 -34 -44
-30 -53 4 -12 14 -7 45 23 l40 39 40 -39 c34 -33 40 -36 46 -21 5 12 -4 28
-27 52 l-33 34 38 39 c23 23 34 41 27 45 -14 9 -43 -7 -66 -38 l-20 -26 -42
42 c-37 36 -43 39 -49 23z"/>
<path d="M3180 1396 c0 -7 9 -16 20 -19 11 -3 27 -21 35 -41 15 -36 15 -38
-30 -132 -25 -53 -45 -100 -45 -105 0 -5 9 -9 20 -9 11 0 20 4 20 9 0 19 67
154 72 145 2 -5 15 -42 29 -81 17 -54 28 -73 41 -73 10 0 18 4 18 9 0 22 -101
276 -117 293 -19 21 -63 24 -63 4z"/>
<path d="M3787 1185 l-28 -25 28 -25 c34 -30 47 -32 33 -5 -10 19 -8 20 95 20
63 0 105 4 105 10 0 6 -42 10 -105 10 -103 0 -105 1 -95 20 14 27 1 25 -33 -5z"/>
<path d="M11600 1543 c0 -142 -4 -147 -79 -105 -33 17 -70 32 -84 32 -54 0
-79 -73 -76 -218 3 -145 24 -202 76 -202 26 0 98 33 108 50 11 18 43 11 49
-12 3 -13 6 -74 6 -135 l0 -113 439 0 438 0 2 405 1 405 -440 0 -440 0 0 -107z
m846 -298 l-1 -375 -407 0 -408 0 0 110 c0 108 -10 154 -36 164 -8 3 -44 -11
-80 -30 -36 -19 -73 -34 -82 -32 -27 5 -42 82 -38 197 3 112 16 161 41 161 8
0 44 -16 80 -35 36 -19 71 -32 79 -29 25 10 36 55 36 149 l0 95 408 0 409 0
-1 -375z"/>
<path d="M11970 1372 c-16 -17 -30 -35 -30 -41 0 -17 37 -13 44 4 9 25 48 38
79 26 22 -9 27 -17 27 -44 0 -28 -9 -43 -52 -83 -65 -60 -98 -102 -98 -126 0
-16 10 -18 100 -18 82 0 100 3 100 15 0 17 0 17 -87 17 -38 0 -63 5 -63 11 0
6 32 41 70 78 61 58 70 71 70 102 0 51 -26 78 -82 84 -42 5 -50 3 -78 -25z"/>
<path d="M2180 1396 c0 -7 9 -16 20 -19 11 -3 27 -22 36 -42 15 -36 14 -38
-31 -132 -25 -52 -45 -99 -45 -104 0 -5 9 -9 20 -9 11 0 20 4 20 9 0 4 15 41
33 82 l34 73 29 -82 c21 -61 33 -82 46 -82 10 0 18 4 18 9 0 22 -101 276 -117
293 -19 21 -63 24 -63 4z"/>
<path d="M1770 1290 c0 -87 3 -110 14 -110 20 0 22 13 25 123 2 92 2 97 -18
97 -20 0 -21 -5 -21 -110z"/>
<path d="M10973 1353 c-5 -31 -14 -48 -23 -49 -8 -1 -23 -2 -33 -3 -27 -2 -10
-21 19 -21 21 0 24 -4 20 -20 -3 -11 -9 -29 -12 -40 -3 -11 -11 -20 -17 -19
-24 3 -37 -1 -37 -11 0 -5 11 -10 24 -10 23 0 23 -2 15 -41 -6 -23 -8 -44 -5
-46 11 -11 24 9 30 47 6 39 7 40 46 40 43 0 43 1 23 -72 -3 -11 1 -18 10 -18
10 0 17 15 21 45 7 42 9 45 37 45 16 0 29 5 29 10 0 9 -22 15 -44 11 -5 -1 -6
12 -2 30 3 17 6 35 6 40 0 5 11 9 24 9 29 0 46 19 19 21 -10 1 -22 1 -26 0 -8
-1 -3 36 9 82 3 10 0 17 -9 17 -8 0 -17 -18 -23 -47 -9 -47 -10 -48 -47 -50
l-38 -1 6 41 c4 23 9 45 11 49 3 5 -1 8 -9 8 -10 0 -18 -17 -24 -47z m80 -105
c-7 -39 -19 -48 -55 -46 -31 2 -31 2 -22 47 6 28 10 31 45 31 38 0 38 0 32
-32z"/>
<path d="M1770 1114 c0 -18 5 -24 21 -24 15 0 20 5 17 22 -4 31 -38 33 -38 2z"/>
</g>
</svg>
