<?xml version="1.0" standalone="no"?>
<!DOCTYPE svg PUBLIC "-//W3C//DTD SVG 20010904//EN"
 "http://www.w3.org/TR/2001/REC-SVG-20010904/DTD/svg10.dtd">
<svg version="1.0" xmlns="http://www.w3.org/2000/svg"
 width="998.000000pt" height="841.000000pt" viewBox="0 0 998.000000 841.000000"
 preserveAspectRatio="xMidYMid meet">
<metadata>
Created by potrace 1.16, written by Peter Selinger 2001-2019
</metadata>
<g transform="translate(0.000000,841.000000) scale(0.100000,-0.100000)"
fill="#000000" stroke="none">
<path d="M212 8257 c-12 -7 -30 -24 -40 -37 -16 -24 -17 -240 -18 -4018 -1
-3279 2 -3997 12 -4018 8 -14 24 -34 36 -44 22 -18 55 -19 789 -20 l766 0 -1
355 -1 355 25 0 c14 1 143 1 288 1 193 0 262 4 263 12 1 7 2 88 3 181 l1 170
55 1 c30 1 62 -2 71 -6 9 -5 19 -5 23 -2 9 10 757 11 777 1 9 -4 19 -4 23 -1
10 10 278 11 298 1 9 -4 19 -5 21 -1 6 10 598 9 613 0 6 -3 14 -3 18 0 10 10
128 11 148 1 9 -4 19 -5 21 -1 6 10 1078 10 1093 0 6 -3 14 -3 18 0 10 10 128
11 147 2 9 -5 19 -5 23 -2 9 10 757 11 777 1 9 -4 19 -4 23 -1 9 10 278 11
297 1 9 -4 19 -4 23 -1 9 9 757 11 776 2 13 -6 15 26 15 254 l0 262 -625 1
c-344 1 -629 2 -635 4 -5 1 -12 1 -15 0 -15 -6 -608 -5 -621 2 -9 4 -19 4 -23
1 -9 -10 -597 -11 -617 -1 -9 4 -19 4 -23 1 -10 -10 -598 -10 -618 -1 -9 4
-19 5 -21 1 -4 -6 -1257 -9 -1300 -4 -4 1 -6 157 -5 349 l3 347 83 0 82 -1 0
188 0 188 -85 0 -85 0 0 170 c0 94 3 170 8 171 4 0 1065 1 2358 1 l2351 1 -1
326 -1 326 -2238 1 c-1230 0 -2240 4 -2244 7 -3 4 -7 84 -7 179 l-1 172 -307
0 -306 0 1 171 2 170 3110 1 c1711 1 3117 2 3126 3 12 1 15 11 14 41 -1 22 2
40 8 40 6 0 6 5 0 13 -5 6 -8 35 -6 62 2 28 3 55 3 60 0 6 -1 55 -3 110 -1 55
1 106 6 113 5 6 6 12 1 12 -5 0 -9 39 -8 87 1 49 -1 93 -3 98 -2 8 -197 11
-609 10 -333 0 -608 3 -611 8 -2 4 -10 4 -16 0 -17 -11 -5147 -10 -5147 1 0 5
-6 4 -13 -1 -9 -7 -517 -11 -597 -4 -13 1 -15 26 -14 163 1 90 0 170 -2 179
-4 14 -36 16 -285 16 -154 0 -282 2 -284 5 -5 5 -7 103 -6 251 l1 87 379 0
379 0 1 508 c0 279 0 521 1 537 l0 30 3879 -1 3879 -1 -2 326 -1 326 -4030 2
c-2216 1 -4049 2 -4072 2 l-43 1 0 174 c0 157 -2 174 -17 178 -10 2 -98 3
-195 3 -152 -1 -177 1 -180 14 -2 9 -3 89 -3 179 l1 162 -388 0 -388 0 -39
-24 c-53 -34 -70 -34 -116 -3 -34 23 -50 27 -110 27 -38 -1 -80 -6 -93 -13z
m197 -30 c51 -34 71 -34 124 0 l42 28 378 0 377 1 0 -171 0 -170 -377 1 -378
0 -42 -28 c-52 -35 -74 -35 -126 1 -40 27 -47 28 -139 27 l-98 -2 0 131 c0 84
5 139 13 155 31 62 151 76 226 27z m-3 -359 c50 -35 73 -35 127 -1 l42 27 293
1 292 1 0 -48 0 -49 -30 16 c-16 8 -36 15 -45 15 -21 0 -35 -40 -35 -98 0 -91
19 -114 70 -87 16 8 32 15 35 15 3 0 4 -408 3 -907 l-3 -907 -290 -1 -290 0
-47 -27 c-26 -16 -51 -28 -57 -28 -6 0 -30 12 -54 27 -38 25 -51 27 -142 28
l-100 1 -3 1025 -2 1025 98 0 c91 -1 102 -3 138 -28z m1309 21 c5 -6 8 -177 6
-378 l-1 -73 -25 16 c-56 37 -85 9 -85 -79 0 -64 14 -95 44 -95 14 0 28 5 31
10 3 6 13 10 21 10 12 0 14 -38 14 -245 0 -135 -2 -245 -4 -245 -2 0 -17 7
-32 15 -41 21 -51 19 -63 -16 -20 -57 -10 -153 16 -163 8 -3 27 1 43 9 16 8
31 15 35 15 3 0 5 -50 5 -111 0 -61 -3 -109 -7 -107 -5 2 -20 10 -35 17 -15 8
-33 11 -42 8 -31 -12 -33 -154 -3 -185 13 -12 19 -12 45 2 17 9 33 16 37 16 3
0 5 -50 5 -110 l0 -111 -30 16 c-42 22 -59 19 -71 -12 -14 -35 -7 -136 10
-157 12 -14 17 -14 48 -1 20 8 37 15 40 15 2 0 3 -24 1 -52 l-3 -53 -267 0
c-172 0 -268 4 -269 10 0 6 -1 414 -1 908 -1 710 -4 899 -14 908 -9 7 -22 6
-44 -6 -20 -10 -36 -13 -42 -7 -10 10 -13 110 -3 141 l6 21 40 -20 39 -21 9
25 c5 13 8 32 7 42 -8 49 -5 49 272 49 143 0 263 -3 267 -6z m8155 -659 l0
-310 -4065 0 -4065 0 0 184 c0 101 -3 191 -6 200 -8 21 -28 20 -60 -1 -22 -14
-27 -14 -35 -2 -12 19 -11 136 1 144 6 3 26 0 46 -7 43 -15 54 -4 54 60 l0 42
4065 0 4065 0 0 -310z m-7772 -329 c9 -1 12 -42 12 -171 l0 -170 -185 0 -185
0 0 54 c0 67 -17 87 -56 61 -42 -27 -54 -14 -54 57 0 84 8 95 49 73 44 -22 61
-7 61 54 l0 46 173 -2 c94 0 178 -1 185 -2z m12 -523 c0 -92 -3 -168 -7 -169
-26 -3 -340 -4 -350 -1 -8 3 -13 23 -13 52 0 63 -18 78 -60 53 -40 -23 -50
-10 -50 67 0 78 9 89 54 67 34 -16 36 -16 46 3 5 10 10 34 10 53 0 18 2 36 5
39 3 2 86 5 185 5 l180 0 0 -169z m-2 -362 l-3 -171 -180 0 -180 0 -5 57 c-3
31 -9 60 -13 64 -4 4 -24 0 -44 -10 -46 -22 -53 -13 -53 72 0 72 11 82 59 58
28 -15 31 -15 41 3 5 11 10 37 10 59 l0 38 185 0 185 0 -2 -170z m-1707 -212
c61 -38 83 -39 134 -4 38 26 53 30 109 30 l66 0 0 -39 c0 -48 -8 -54 -48 -39
-49 19 -62 0 -62 -88 0 -91 15 -112 62 -88 18 9 34 12 39 7 5 -5 8 -1156 7
-2729 l-3 -2719 -215 -1 c-118 0 -228 3 -245 8 -16 4 -40 20 -52 35 l-23 28 0
2813 0 2812 95 0 c85 0 100 -3 136 -26z m949 -199 c0 -124 -4 -225 -9 -225 -5
0 -22 7 -37 15 -27 14 -30 14 -46 -6 -13 -15 -18 -39 -18 -81 0 -91 25 -119
76 -83 12 8 24 11 28 8 9 -9 7 -4493 -2 -4493 -5 0 -17 7 -28 15 -47 36 -74 5
-74 -85 0 -90 27 -121 74 -85 11 8 23 15 28 15 4 0 8 -50 8 -110 l0 -111 -30
16 c-39 20 -57 19 -70 -4 -20 -38 -10 -148 15 -179 2 -2 20 4 40 12 21 9 39
16 41 16 2 0 4 -24 4 -53 l0 -53 -310 0 c-171 -1 -311 2 -311 5 -1 3 -3 1226
-4 2716 -2 1491 -3 2720 -4 2733 -1 27 -26 29 -60 6 -16 -12 -26 -13 -33 -6
-12 12 -16 117 -5 145 6 16 9 17 36 2 58 -29 64 -23 64 63 l-1 32 314 0 314 0
0 -225z m580 -354 c0 -142 -4 -222 -10 -226 -6 -4 -22 0 -35 9 -30 20 -30 20
-49 0 -21 -20 -22 -142 -2 -169 12 -16 17 -17 44 -6 17 7 36 10 41 6 13 -7 15
-453 3 -472 -6 -10 -12 -10 -28 2 -27 20 -51 19 -64 -4 -15 -29 -13 -144 3
-166 13 -17 16 -17 47 -2 18 9 36 14 41 11 13 -7 12 -2621 -1 -2629 -5 -3 -23
1 -39 10 -27 13 -31 13 -45 -1 -24 -23 -22 -155 2 -177 16 -15 20 -15 49 3 42
25 43 21 43 -160 0 -183 0 -184 -47 -162 -33 16 -36 16 -49 -3 -19 -25 -19
-145 0 -170 13 -19 16 -19 49 -3 19 9 38 14 41 11 3 -4 6 -28 6 -55 l0 -48
-281 2 -281 3 1 2170 c0 1194 -2 2182 -5 2198 -6 30 -29 35 -59 13 -34 -25
-45 -9 -45 63 0 85 6 94 48 74 45 -22 59 -6 61 70 l1 27 280 0 280 0 0 -219z
m7008 -448 l-3 -308 -3485 -1 c-1917 0 -3489 1 -3495 3 -6 2 -10 76 -10 193
-1 104 -4 192 -8 196 -4 4 -25 1 -47 -6 -22 -7 -43 -10 -46 -7 -10 10 -12 111
-3 135 8 22 9 22 44 5 45 -21 58 -10 59 52 l1 45 3498 0 3497 0 -2 -307z
m-6253 -533 c0 -113 -1 -215 -4 -228 -3 -21 -5 -22 -27 -7 -58 38 -85 2 -77
-105 5 -72 20 -87 63 -65 17 9 34 14 37 11 5 -4 7 -120 4 -194 -1 -22 -2 -22
-23 -8 -38 27 -66 21 -76 -16 -5 -18 -8 -46 -6 -63 1 -16 2 -39 3 -51 0 -11 7
-28 14 -37 11 -16 14 -16 50 2 33 17 37 17 38 2 3 -52 4 -458 1 -468 -3 -9
-13 -7 -38 5 -32 15 -36 15 -51 0 -23 -24 -23 -152 1 -176 16 -16 18 -16 48 1
17 10 33 16 35 13 3 -3 5 -44 5 -93 0 -136 3 -126 -32 -108 -56 29 -66 19 -74
-69 -4 -42 7 -93 23 -109 6 -6 22 -3 42 7 18 9 34 14 36 12 4 -4 7 -132 4
-189 -1 -27 -1 -27 -31 -12 -56 29 -66 19 -74 -69 -4 -41 7 -93 23 -109 5 -5
22 -2 41 8 17 9 34 14 38 11 7 -8 7 -194 0 -202 -4 -3 -15 -1 -26 5 -38 20
-61 13 -70 -22 -8 -28 -8 -50 -3 -119 0 -9 8 -24 17 -32 14 -14 18 -14 46 0
16 8 32 13 35 11 3 -3 6 -25 6 -49 l2 -43 -370 0 -370 0 0 1262 c0 946 -3
1265 -12 1274 -9 9 -19 7 -44 -5 -41 -20 -51 -11 -52 46 -1 87 2 98 22 98 11
0 23 -4 26 -10 3 -5 17 -10 31 -10 25 0 26 3 27 81 l1 25 370 0 371 -1 0 -205z
m615 -320 l0 -170 -300 0 -300 0 0 55 c0 65 -13 76 -60 48 -40 -23 -48 -11
-46 71 3 81 9 91 46 70 43 -26 60 -13 60 46 l0 50 300 0 300 0 0 -170z m4490
-500 l0 -310 -2545 0 -2545 0 0 195 c0 216 -1 220 -59 190 -29 -15 -32 -15
-39 2 -9 23 -9 113 0 136 7 17 9 17 37 1 44 -26 61 -14 61 46 l0 50 2545 0
2545 0 0 -310z m-4719 -330 c3 -16 4 -317 1 -327 -3 -10 -50 -13 -188 -13
l-184 0 0 53 c0 74 -8 82 -54 60 -32 -15 -38 -15 -46 -3 -10 16 -7 136 3 147
4 3 24 -1 44 -11 43 -21 53 -12 53 51 0 23 4 43 10 45 16 5 360 3 361 -2z
m170 -374 c1 -31 1 -256 0 -292 l-1 -30 -262 2 c-145 1 -266 3 -270 3 -5 1 -8
25 -8 55 0 30 -5 58 -11 62 -6 3 -26 -2 -44 -12 -19 -10 -37 -15 -41 -11 -11
11 -14 131 -4 147 8 12 13 12 42 -1 47 -23 58 -15 58 40 0 26 2 50 5 53 3 2
124 5 270 5 262 0 265 0 266 -21z m-166 -506 l-1 -165 -187 -3 -187 -2 0 55
c0 64 -12 75 -59 50 -31 -15 -31 -15 -42 12 -12 31 -10 99 3 126 9 17 11 17
43 -1 42 -25 55 -14 55 48 l0 46 188 0 187 -1 0 -165z m0 -362 l0 -168 -187 0
-188 0 0 55 c0 64 -15 77 -56 50 -36 -23 -48 -8 -51 63 -2 79 6 90 51 74 20
-7 40 -10 46 -7 5 3 10 29 10 56 l0 49 187 -2 187 -3 1 -167z m4505 -428 l0
-240 -2818 0 -2817 0 0 108 c0 59 -1 117 -3 130 -5 25 -28 29 -58 8 -32 -23
-47 -5 -47 60 -1 33 2 67 6 77 6 16 9 17 36 2 17 -8 37 -15 46 -15 15 0 17 8
19 78 l0 32 2818 0 2818 0 0 -240z m-5266 -270 c3 -8 4 -86 4 -172 l0 -158
-187 0 -186 0 -1 55 c0 70 -12 83 -53 59 -43 -25 -56 -10 -55 67 1 74 11 86
54 64 40 -21 52 -11 54 45 1 23 7 44 13 48 6 4 88 7 182 7 144 0 172 -2 175
-15z m-586 -349 c9 -1 12 -42 12 -168 l0 -168 -185 0 c-116 0 -185 4 -186 10
0 6 -1 29 -3 52 -2 57 -17 71 -51 49 -44 -29 -55 -16 -55 64 0 80 11 93 55 64
26 -17 28 -17 41 1 8 10 14 36 14 56 0 27 5 38 17 41 14 2 297 2 341 -1z m12
-527 l0 -171 -187 1 -188 1 2 52 c1 66 -13 81 -57 58 -17 -9 -35 -13 -40 -10
-6 3 -10 38 -10 76 0 79 10 90 59 65 29 -15 31 -15 41 4 6 12 10 28 9 38 -6
62 -17 59 186 58 l185 0 0 -172z"/>
<path d="M840 8085 c0 -43 4 -75 10 -75 6 0 10 32 10 75 0 43 -4 75 -10 75 -6
0 -10 -32 -10 -75z"/>
<path d="M889 8130 c0 -16 -1 -46 -1 -65 0 -19 1 -39 1 -45 1 -14 65 -12 79 2
17 17 15 73 -3 88 -8 7 -24 10 -35 7 -16 -4 -20 0 -20 19 0 35 -20 29 -21 -6z
m71 -64 c0 -27 -18 -46 -36 -39 -17 6 -18 55 -2 71 16 16 38 -3 38 -32z"/>
<path d="M308 8125 c-3 -16 -1 -25 7 -25 7 0 12 11 11 25 -1 32 -12 32 -18 0z"/>
<path d="M347 8143 c-10 -9 -8 -43 2 -43 5 0 9 11 9 25 0 27 -1 28 -11 18z"/>
<path d="M510 8140 c0 -5 11 -10 24 -10 21 0 24 -4 24 -47 0 -68 1 -73 12 -73
6 0 10 27 10 60 0 53 2 60 20 60 11 0 20 5 20 10 0 6 -25 10 -55 10 -30 0 -55
-4 -55 -10z"/>
<path d="M620 8094 c-20 -52 17 -99 65 -81 20 8 30 54 16 83 -16 35 -68 34
-81 -2z m70 -28 c0 -34 -24 -51 -44 -31 -16 16 -17 40 -3 63 13 19 47 -4 47
-32z"/>
<path d="M736 8099 c-16 -23 -12 -69 7 -81 18 -12 52 -9 65 4 7 7 12 26 12 43
0 17 -5 36 -12 43 -19 19 -55 14 -72 -9z m64 -34 c0 -34 -17 -49 -40 -35 -7 4
-12 20 -12 35 0 15 5 31 12 35 23 14 40 -1 40 -35z"/>
<path d="M1011 8106 c-31 -37 -10 -96 33 -96 31 0 46 18 46 55 0 17 -5 36 -12
43 -16 16 -53 15 -67 -2z m59 -47 c0 -24 -4 -29 -25 -29 -24 0 -31 12 -25 50
6 44 50 25 50 -21z"/>
<path d="M1110 8113 c0 -5 7 -17 15 -27 13 -17 12 -22 -6 -47 -16 -23 -17 -29
-5 -29 8 0 18 9 21 21 l7 21 22 -21 c32 -30 41 -26 17 8 l-21 29 21 26 c12 16
16 26 8 26 -6 0 -18 -8 -25 -17 -13 -17 -15 -17 -28 0 -14 18 -26 22 -26 10z"/>
<path d="M243 6968 c-17 -19 -21 -37 -21 -97 -1 -63 2 -76 22 -96 21 -21 29
-22 196 -22 167 0 174 0 196 22 20 20 22 32 21 98 -3 118 -2 117 -217 117
-170 0 -177 -1 -197 -22z m381 -8 c20 -16 23 -159 4 -178 -8 -8 -65 -12 -189
-12 -145 0 -179 3 -189 15 -15 18 -14 153 1 171 14 18 32 19 206 18 108 0 156
-4 167 -14z"/>
<path d="M320 6926 c0 -9 -5 -16 -11 -16 -5 0 -7 -5 -3 -12 4 -7 9 -28 10 -48
3 -50 3 -50 19 -50 16 0 20 12 8 24 -11 11 -11 50 1 65 8 11 8 15 -2 18 -6 3
-10 9 -7 13 3 5 1 11 -5 15 -5 3 -10 -1 -10 -9z"/>
<path d="M370 6855 c0 -30 5 -55 10 -55 6 0 10 17 10 37 0 20 7 45 17 55 15
17 15 18 -10 18 -26 0 -27 -2 -27 -55z"/>
<path d="M736 6892 c-3 -6 -1 -14 5 -17 15 -10 25 3 12 16 -7 7 -13 7 -17 1z"/>
<path d="M770 6880 c0 -6 28 -10 65 -10 37 0 65 4 65 10 0 6 -28 10 -65 10
-37 0 -65 -4 -65 -10z"/>
<path d="M740 6846 c0 -9 5 -16 10 -16 6 0 10 4 10 9 0 6 -4 13 -10 16 -5 3
-10 -1 -10 -9z"/>
<path d="M770 6840 c0 -6 28 -10 65 -10 37 0 65 4 65 10 0 6 -28 10 -65 10
-37 0 -65 -4 -65 -10z"/>
<path d="M1388 7739 c-3 -62 -4 -64 -31 -65 -15 -1 -30 -4 -34 -8 -3 -3 29 -6
72 -6 79 0 95 5 40 13 -29 4 -30 5 -31 61 -2 79 -12 82 -16 5z"/>
<path d="M1315 7248 c28 -97 40 -107 68 -59 19 32 23 81 7 81 -5 0 -10 -11
-10 -24 0 -30 -9 -56 -21 -56 -4 0 -13 18 -19 40 -6 22 -15 40 -21 40 -6 0 -8
-10 -4 -22z"/>
<path d="M1354 6795 c3 -8 -3 -20 -14 -28 -28 -20 -29 -71 -2 -100 12 -13 20
-26 16 -29 -3 -3 -1 -9 5 -13 6 -3 11 2 11 12 0 10 9 24 20 31 14 8 20 23 20
46 0 20 -8 40 -20 51 -11 10 -20 24 -20 32 0 7 -5 13 -11 13 -6 0 -9 -7 -5
-15z m1 -79 c1 -26 -3 -32 -11 -25 -7 5 -11 18 -9 27 2 9 4 20 4 25 1 4 4 7 9
7 4 0 7 -15 7 -34z m26 -29 c-8 -8 -11 -3 -9 18 2 43 12 55 16 21 2 -16 -1
-33 -7 -39z"/>
<path d="M1335 6390 c17 -19 17 -21 0 -40 -20 -22 -14 -26 17 -9 14 8 23 8 31
0 19 -19 31 -12 12 9 -16 18 -16 20 -1 36 23 22 11 32 -13 10 -16 -15 -19 -15
-31 -1 -7 8 -17 15 -23 15 -5 0 -2 -9 8 -20z"/>
<path d="M1360 6056 c0 -9 -10 -20 -22 -25 l-23 -8 23 -7 c13 -5 22 -15 22
-28 0 -20 14 -17 16 3 1 5 2 14 3 19 0 6 4 9 9 9 23 -4 33 4 12 10 -14 4 -25
12 -25 18 0 6 -3 15 -7 19 -5 4 -8 0 -8 -10z"/>
<path d="M1940 7434 c0 -50 -2 -55 -17 -48 -10 4 -31 8 -48 8 -28 1 -31 -2
-39 -46 -13 -66 2 -132 31 -136 12 -2 33 4 47 13 l25 17 3 -134 3 -133 2008
-3 2007 -2 0 260 0 260 -2010 0 -2010 0 0 -56z m4005 -204 l0 -235 -1993 -3
-1992 -2 0 125 c0 141 -5 150 -63 122 -29 -15 -33 -15 -39 1 -10 27 -9 111 2
132 10 19 12 19 46 3 43 -21 54 -10 54 55 l0 42 1993 -2 1992 -3 0 -235z"/>
<path d="M2697 7413 c-4 -3 -7 -28 -7 -55 0 -26 -2 -48 -5 -48 -4 0 -20 7 -37
16 -26 14 -32 14 -44 2 -35 -34 -24 -188 12 -188 8 0 28 7 44 15 l30 16 0 -66
0 -65 290 0 290 0 0 190 0 190 -283 0 c-156 0 -287 -3 -290 -7z m553 -183 l0
-170 -270 0 -270 0 0 53 c0 70 -13 83 -56 56 -33 -20 -33 -20 -43 0 -13 23
-14 120 -2 139 6 11 15 10 45 -5 45 -21 56 -11 56 55 l0 42 270 0 270 0 0
-170z"/>
<path d="M2860 7281 c-5 -11 -10 -34 -10 -51 0 -17 5 -40 10 -51 13 -23 52
-25 70 -4 16 20 17 89 1 109 -18 22 -58 20 -71 -3z m61 -21 c5 -70 1 -82 -23
-78 -18 2 -24 11 -26 36 -4 45 3 62 28 62 13 0 20 -7 21 -20z"/>
<path d="M3022 7266 c-2 -34 11 -56 22 -37 11 18 46 -1 46 -24 0 -28 -24 -39
-44 -19 -10 10 -17 11 -22 3 -9 -15 16 -30 45 -27 58 7 59 88 1 88 -34 0 -44
29 -10 31 33 2 38 4 46 12 4 4 -13 7 -37 7 -44 0 -45 -1 -47 -34z"/>
<path d="M2970 7170 c0 -5 5 -10 10 -10 6 0 10 5 10 10 0 6 -4 10 -10 10 -5 0
-10 -4 -10 -10z"/>
<path d="M3690 7371 c0 -27 -4 -53 -10 -56 -5 -3 -23 1 -39 10 -45 23 -61 1
-61 -81 0 -97 25 -126 74 -89 27 20 36 4 36 -62 l0 -53 203 0 202 0 0 188 0
187 -203 3 -202 2 0 -49z m389 -141 l1 -170 -187 2 -187 3 -2 54 c-2 64 -15
75 -59 49 -42 -24 -48 -15 -48 67 0 81 5 88 48 68 43 -21 54 -12 60 48 2 24 4
45 4 47 1 1 84 2 185 2 l184 0 1 -170z"/>
<path d="M3866 7284 c-21 -20 -20 -23 2 -17 16 4 18 -2 17 -44 -1 -39 -4 -47
-18 -45 -9 2 -17 -2 -17 -8 0 -5 21 -10 48 -10 44 1 46 2 27 16 -14 10 -20 28
-21 62 -1 26 -2 50 -3 55 -2 12 -19 8 -35 -9z"/>
<path d="M4557 7413 c-4 -3 -7 -28 -7 -55 0 -52 -7 -57 -46 -31 -22 14 -27 14
-40 1 -31 -31 -29 -173 3 -185 8 -3 30 1 49 10 l34 17 0 -65 0 -65 205 0 205
0 0 190 0 190 -198 0 c-109 0 -202 -3 -205 -7z m383 -183 l0 -170 -185 0 -185
0 0 53 c0 70 -13 83 -56 56 -33 -20 -33 -20 -43 0 -13 24 -14 121 -2 140 8 12
13 12 35 -2 49 -32 66 -19 66 54 l0 39 185 0 185 0 0 -170z"/>
<path d="M4732 7288 c-17 -17 -15 -33 3 -18 13 11 15 6 15 -37 0 -42 -4 -52
-22 -61 -20 -9 -17 -11 25 -11 26 -1 47 4 47 9 0 6 -7 10 -15 10 -12 0 -15 13
-15 60 0 61 -11 75 -38 48z"/>
<path d="M5420 7365 c0 -59 -10 -68 -46 -40 -24 18 -29 18 -48 -1 -12 -11 -16
-35 -16 -88 0 -89 13 -106 64 -88 18 7 35 12 39 12 4 0 7 -27 7 -60 l0 -60
199 0 c150 0 200 3 203 13 2 6 4 91 4 187 l-1 175 -202 3 -203 2 0 -55z m389
-135 l-2 -170 -185 2 -185 3 -2 51 c-3 72 -8 78 -56 54 -36 -19 -40 -19 -46
-4 -11 29 -8 133 4 145 8 8 17 7 34 -5 48 -34 67 -18 64 57 l-1 37 189 0 188
0 -2 -170z"/>
<path d="M5584 7275 c-19 -29 -14 -93 8 -107 39 -24 78 6 78 62 0 66 -54 94
-86 45z m66 -35 c0 -41 -10 -60 -30 -60 -32 0 -42 67 -14 95 21 21 44 3 44
-35z"/>
<path d="M2420 7230 c0 -72 3 -92 15 -97 9 -3 19 -2 23 2 4 4 1 10 -5 12 -9 3
-13 31 -13 89 0 49 -4 84 -10 84 -6 0 -10 -37 -10 -90z"/>
<path d="M3418 7308 c-10 -6 -8 -8 5 -8 15 0 17 -11 17 -85 0 -50 4 -85 10
-85 6 0 10 38 10 93 0 96 -6 108 -42 85z"/>
<path d="M2106 7301 c-3 -5 -5 -39 -4 -75 l2 -66 73 0 73 0 0 75 0 75 -69 0
c-39 0 -72 -4 -75 -9z m128 -66 l0 -50 -57 -3 -57 -3 0 56 0 56 57 -3 57 -3 0
-50z"/>
<path d="M2197 7274 c-8 -8 1 -24 14 -24 5 0 9 7 9 15 0 15 -12 20 -23 9z"/>
<path d="M2136 7213 c-11 -11 -6 -23 9 -23 8 0 15 4 15 9 0 13 -16 22 -24 14z"/>
<path d="M5140 7260 c0 -13 -7 -20 -20 -20 -11 0 -20 -4 -20 -9 0 -5 8 -8 17
-7 10 0 20 -9 24 -24 7 -24 10 -24 13 2 0 7 12 18 25 24 l24 12 -24 4 c-16 2
-23 9 -21 21 2 9 -2 17 -8 17 -5 0 -10 -9 -10 -20z"/>
<path d="M4253 7246 c14 -21 14 -26 2 -36 -8 -7 -15 -17 -15 -23 0 -5 9 -2 20
8 16 15 22 16 35 5 20 -17 32 -5 15 15 -10 12 -10 18 0 30 17 21 6 30 -13 11
-13 -14 -16 -14 -27 -1 -20 25 -34 17 -17 -9z"/>
<path d="M6570 7435 c0 -59 -5 -63 -49 -40 -26 13 -30 13 -42 -1 -17 -21 -24
-122 -10 -156 12 -32 39 -36 76 -12 l25 16 0 -136 0 -136 1590 0 1590 0 0 260
0 260 -1590 0 -1590 0 0 -55z m3160 -205 l0 -240 -1570 0 -1570 0 0 114 c0 63
-3 121 -6 130 -8 20 -33 20 -58 1 -31 -23 -46 -2 -46 65 0 88 3 92 52 73 48
-19 58 -10 58 55 l0 42 1570 0 1570 0 0 -240z"/>
<path d="M7507 7413 c-4 -3 -7 -28 -7 -55 0 -26 -2 -48 -5 -48 -4 0 -20 7 -36
16 -38 19 -55 8 -64 -46 -9 -52 4 -130 22 -137 8 -3 30 1 49 10 l34 17 0 -65
0 -65 205 0 205 0 0 190 0 190 -198 0 c-109 0 -202 -3 -205 -7z m383 -183 l0
-170 -185 0 -185 0 0 53 c0 70 -12 81 -58 56 -45 -23 -52 -15 -52 63 0 85 4
90 52 71 48 -19 58 -10 58 55 l0 42 185 0 185 0 0 -170z"/>
<path d="M7670 7285 c-7 -9 -10 -19 -6 -22 4 -4 11 -1 15 6 10 16 43 11 49 -7
2 -7 -5 -16 -17 -19 -27 -7 -27 -23 -1 -23 13 0 20 -7 20 -20 0 -15 -7 -20
-25 -20 -14 0 -25 5 -25 10 0 6 -4 10 -10 10 -5 0 -10 -7 -10 -15 0 -16 37
-29 67 -23 22 4 29 43 13 64 -9 10 -9 14 -1 14 15 0 14 33 -1 48 -17 17 -53
15 -68 -3z"/>
<path d="M8070 7365 c0 -59 -6 -64 -47 -38 -25 16 -26 16 -44 -6 -14 -17 -19
-39 -19 -83 0 -91 25 -119 76 -83 29 20 34 11 34 -57 l0 -58 205 0 205 0 0
190 0 190 -205 0 -205 0 0 -55z m390 -135 l0 -170 -185 0 -185 0 0 46 c0 25
-5 54 -11 65 -10 20 -11 20 -46 -1 -45 -27 -53 -17 -53 65 0 81 9 93 49 69 25
-15 33 -16 43 -6 14 14 15 17 17 67 l1 35 185 0 185 0 0 -170z"/>
<path d="M8230 7260 c0 -37 2 -40 19 -31 25 14 57 -9 47 -34 -5 -13 -13 -16
-36 -11 -37 7 -40 -11 -3 -20 32 -8 57 6 61 35 5 29 -15 51 -44 51 -15 0 -24
6 -24 15 0 14 17 20 47 16 6 -1 14 3 18 9 4 6 -11 10 -39 10 l-46 0 0 -40z"/>
<path d="M8640 7365 c0 -59 -3 -62 -45 -41 -53 28 -68 3 -63 -103 3 -73 22
-96 58 -73 41 25 50 16 50 -48 l0 -60 203 2 202 3 0 185 0 185 -202 3 -203 2
0 -55z m389 -135 l1 -170 -187 2 -187 3 -2 51 c-2 72 -8 78 -55 54 -37 -20
-40 -20 -46 -3 -11 26 -7 133 4 144 6 6 21 3 42 -8 31 -17 33 -17 45 0 7 9 12
35 11 57 l-2 40 187 0 188 0 1 -170z"/>
<path d="M8795 7290 c3 -5 21 -8 39 -6 l33 2 -23 -47 c-25 -50 -30 -79 -14
-79 6 0 10 7 10 16 0 9 11 38 25 66 14 27 25 52 25 54 0 2 -23 4 -51 4 -29 0
-48 -4 -44 -10z"/>
<path d="M9209 7413 c-1 -5 -2 -27 -4 -51 -1 -23 -4 -45 -8 -48 -3 -3 -20 2
-38 11 -31 16 -33 16 -46 -1 -7 -10 -14 -27 -14 -38 -1 -12 -2 -34 -3 -51 -4
-45 12 -95 30 -95 8 0 28 7 44 15 34 18 37 12 34 -62 l-2 -53 204 0 204 0 0
190 0 190 -200 0 c-110 0 -200 -3 -201 -7z m386 -183 l0 -170 -187 0 -188 0 0
53 c0 73 -8 81 -53 57 l-37 -20 -11 27 c-10 27 -7 112 5 132 5 8 16 6 37 -5
46 -23 59 -13 59 46 l0 50 188 0 188 0 -1 -170z"/>
<path d="M9368 7274 c-15 -33 -1 -58 36 -62 15 -2 26 -10 26 -19 0 -12 -7 -14
-31 -9 -22 4 -29 2 -27 -7 7 -18 53 -20 68 -2 17 20 18 88 1 109 -21 25 -60
20 -73 -10z m65 -14 c7 -29 -20 -48 -40 -27 -9 8 -13 23 -10 31 9 23 44 20 50
-4z"/>
<path d="M6803 7350 c-47 -4 -66 -10 -77 -25 -8 -11 -12 -22 -10 -24 2 -3 11
5 20 17 13 19 24 22 94 22 70 0 81 -2 94 -22 13 -18 16 -19 16 -6 0 32 -50 46
-137 38z"/>
<path d="M7110 7220 l0 -90 33 1 c17 0 26 3 20 6 -9 3 -13 30 -13 83 0 53 4
80 13 83 6 3 -3 6 -20 6 l-33 1 0 -90z m30 0 c0 -47 -4 -80 -10 -80 -6 0 -10
33 -10 80 0 47 4 80 10 80 6 0 10 -33 10 -80z"/>
<path d="M7218 7303 c8 -3 12 -30 12 -83 0 -53 -4 -80 -12 -83 -7 -3 2 -6 20
-6 l32 -1 0 90 0 90 -32 -1 c-18 0 -27 -3 -20 -6z m42 -83 c0 -47 -4 -80 -10
-80 -6 0 -10 33 -10 80 0 47 4 80 10 80 6 0 10 -33 10 -80z"/>
<path d="M6710 7280 c0 -5 5 -10 11 -10 5 0 7 5 4 10 -3 6 -8 10 -11 10 -2 0
-4 -4 -4 -10z"/>
<path d="M6937 7283 c-7 -15 -9 -88 -2 -81 4 4 8 25 9 47 2 40 1 48 -7 34z"/>
<path d="M6803 7273 c-19 -7 -16 -60 3 -71 40 -22 76 17 54 58 -10 19 -31 24
-57 13z m53 -25 c9 -30 -23 -55 -44 -34 -19 18 -6 56 18 56 10 0 22 -10 26
-22z"/>
<path d="M6713 7235 c0 -14 3 -25 8 -25 4 0 6 10 4 21 -6 32 -12 34 -12 4z"/>
<path d="M6710 7191 c0 -20 23 -60 37 -65 9 -4 7 3 -6 20 -11 15 -18 30 -16
34 3 5 1 11 -5 15 -5 3 -10 2 -10 -4z"/>
<path d="M6930 7170 c0 -10 -9 -24 -21 -30 -11 -7 -18 -14 -15 -17 9 -9 43 25
49 48 3 10 1 19 -4 19 -5 0 -9 -9 -9 -20z"/>
<path d="M6775 7130 c-3 -5 1 -10 10 -10 9 0 13 5 10 10 -3 6 -8 10 -10 10 -2
0 -7 -4 -10 -10z"/>
<path d="M6820 7130 c-13 -8 -12 -10 3 -10 9 0 17 5 17 10 0 12 -1 12 -20 0z"/>
<path d="M6860 7130 c-13 -8 -12 -10 3 -10 9 0 17 5 17 10 0 12 -1 12 -20 0z"/>
<path d="M6039 7331 c-18 -14 -22 -29 -24 -96 -3 -70 -1 -80 21 -101 22 -23
28 -24 189 -24 161 0 167 1 190 24 21 21 23 32 22 99 -3 117 -3 117 -208 116
-145 0 -171 -3 -190 -18z m365 -11 c12 -9 16 -32 16 -91 0 -106 3 -104 -200
-103 -192 2 -190 0 -190 104 0 70 12 96 44 102 11 1 86 3 167 2 105 0 153 -4
163 -14z"/>
<path d="M6140 7260 c0 -5 5 -10 10 -10 6 0 10 5 10 10 0 6 -4 10 -10 10 -5 0
-10 -4 -10 -10z"/>
<path d="M6104 7222 c6 -10 82 -9 92 1 4 4 -16 7 -45 7 -29 0 -50 -4 -47 -8z"/>
<path d="M6140 7190 c0 -5 5 -10 10 -10 6 0 10 5 10 10 0 6 -4 10 -10 10 -5 0
-10 -4 -10 -10z"/>
<path d="M1890 6785 c-16 -20 -17 -89 -1 -109 18 -22 58 -20 71 3 5 11 10 34
10 51 0 17 -5 40 -10 51 -13 23 -52 25 -70 4z m55 -55 c0 -38 -3 -45 -21 -48
-16 -2 -23 3 -26 22 -9 46 2 77 26 74 18 -3 21 -10 21 -48z"/>
<path d="M1898 6426 c-10 -7 -15 -16 -11 -19 3 -4 12 -2 18 3 9 8 13 -2 14
-40 0 -37 -3 -50 -14 -50 -7 0 -17 -4 -20 -10 -4 -6 12 -10 39 -10 25 0 46 5
46 10 0 6 -7 10 -15 10 -12 0 -15 13 -15 60 0 63 -8 72 -42 46z"/>
<path d="M1889 6074 c-17 -20 -17 -88 0 -108 18 -22 58 -20 71 3 5 11 10 34
10 51 0 17 -5 40 -10 51 -13 23 -53 25 -71 3z m59 -50 c3 -43 -14 -69 -36 -55
-12 7 -16 32 -13 79 1 18 6 23 24 20 18 -2 23 -10 25 -44z"/>
<path d="M320 2971 l0 -59 65 26 c36 14 65 29 65 34 0 8 -104 58 -121 58 -5 0
-9 -27 -9 -59z m69 15 c25 -14 22 -19 -23 -35 -24 -10 -26 -9 -26 19 0 33 12
37 49 16z"/>
<path d="M892 5697 c-12 -13 -22 -32 -21 -43 0 -15 3 -13 10 7 11 30 53 52 81
43 11 -3 28 -20 39 -37 13 -23 19 -27 19 -14 0 28 -45 67 -78 67 -17 0 -37 -9
-50 -23z"/>
<path d="M873 3214 c0 -17 2 -22 8 -13 4 7 5 17 2 22 -3 5 3 7 13 3 11 -3 26
-1 34 4 11 7 6 10 -21 10 -33 0 -36 -3 -36 -26z"/>
<path d="M1038 3233 c8 -3 12 -30 12 -83 0 -53 -4 -80 -12 -83 -7 -3 2 -6 20
-6 l32 -1 0 90 0 90 -32 -1 c-18 0 -27 -3 -20 -6z m42 -83 c0 -47 -4 -80 -10
-80 -6 0 -10 33 -10 80 0 47 4 80 10 80 6 0 10 -33 10 -80z"/>
<path d="M901 3173 c3 -70 -1 -104 -10 -98 -6 3 -8 14 -6 25 2 11 0 20 -4 20
-4 0 -8 -13 -9 -30 -1 -28 2 -30 36 -30 29 1 33 3 20 10 -13 8 -16 23 -14 70
2 33 -1 63 -6 66 -4 3 -8 -12 -7 -33z"/>
<path d="M873 3155 c0 -14 3 -25 6 -25 4 0 7 11 7 25 0 14 -3 25 -7 25 -3 0
-6 -11 -6 -25z"/>
<path d="M970 3140 c0 -5 4 -10 9 -10 6 0 13 5 16 10 3 6 -1 10 -9 10 -9 0
-16 -4 -16 -10z"/>
<path d="M885 676 c14 -21 14 -25 0 -36 -8 -7 -12 -17 -9 -22 3 -5 11 -2 18 8
10 13 17 14 34 5 31 -17 37 -13 17 9 -17 19 -17 21 0 40 10 11 13 20 8 20 -6
0 -16 -7 -23 -15 -12 -14 -15 -14 -30 0 -25 22 -33 18 -15 -9z"/>
<path d="M905 343 c-4 -14 -15 -23 -28 -23 -24 0 -17 -10 10 -14 12 -2 17 -11
16 -25 -4 -28 15 -27 19 2 2 12 8 22 15 22 6 0 15 3 19 8 4 4 -2 7 -14 7 -13
0 -22 8 -25 23 l-4 22 -8 -22z"/>
<path d="M1534 5362 c-20 -3 -21 -9 -20 -78 0 -41 5 -74 11 -75 14 -1 117 -1
133 0 13 1 18 150 5 152 -24 3 -111 4 -129 1z m125 -77 c2 -64 -2 -68 -75 -63
l-49 3 58 58 c32 31 60 57 61 57 1 0 4 -25 5 -55z"/>
<path d="M1520 4780 c0 -5 5 -10 10 -10 6 0 10 5 10 10 0 6 -4 10 -10 10 -5 0
-10 -4 -10 -10z"/>
<path d="M1500 3124 c0 -20 36 -104 45 -104 16 0 45 54 45 84 0 14 -4 26 -10
26 -5 0 -10 -11 -10 -24 0 -30 -9 -56 -21 -56 -4 0 -13 18 -19 40 -6 22 -15
40 -20 40 -6 0 -10 -3 -10 -6z"/>
<path d="M1525 1470 c17 -19 17 -21 0 -40 -16 -17 -16 -20 -2 -20 8 0 17 6 20
13 3 9 9 9 27 -1 26 -16 37 -10 16 7 -14 11 -13 16 1 37 17 26 3 33 -17 9 -12
-14 -15 -14 -30 0 -24 22 -36 18 -15 -5z"/>
<path d="M1550 1050 c0 -15 -7 -20 -27 -20 -29 0 -26 -10 4 -14 10 -2 19 -13
21 -24 2 -12 8 -22 13 -22 6 0 8 4 5 9 -10 15 6 43 20 37 7 -3 16 -1 19 4 4 6
-3 10 -14 10 -19 0 -26 10 -22 33 0 4 -3 7 -9 7 -5 0 -10 -9 -10 -20z"/>
<path d="M2761 5010 c2 -27 0 -52 -3 -56 -4 -3 -21 2 -38 11 -29 15 -34 15
-48 1 -23 -23 -23 -149 0 -173 17 -16 20 -16 53 0 33 16 35 16 36 -1 0 -9 1
-69 2 -132 l2 -115 2588 0 c1512 0 2591 3 2594 9 3 5 6 119 6 255 l0 246
-2597 3 -2597 2 2 -50z m5175 -210 l0 -240 -2578 0 -2578 0 0 123 c0 142 -5
154 -57 129 -44 -21 -54 -8 -51 70 2 76 8 84 48 63 47 -24 60 -14 60 45 l0 50
2578 0 2578 0 0 -240z"/>
<path d="M3566 4981 c-3 -4 -4 -24 -3 -44 5 -54 -5 -63 -42 -41 -29 17 -32 17
-48 2 -24 -24 -24 -151 0 -175 16 -16 19 -16 52 0 26 12 35 13 36 4 1 -6 2
-34 3 -62 l1 -50 288 -3 287 -2 0 190 0 190 -284 0 c-157 0 -287 -4 -290 -9z
m550 -13 c4 -5 8 -212 5 -315 l-1 -23 -270 0 -270 0 0 53 c0 74 -8 82 -54 60
-32 -15 -39 -15 -46 -3 -10 17 -8 135 2 146 5 4 24 -1 43 -12 31 -17 37 -17
45 -4 5 8 10 34 10 57 0 31 4 42 17 45 30 6 512 2 519 -4z"/>
<path d="M3656 4904 c-19 -19 -18 -12 -20 -103 -3 -117 -5 -116 206 -117 166
-2 202 3 220 30 4 6 8 46 8 89 0 118 2 117 -219 117 -150 0 -182 -3 -195 -16z
m386 -12 c16 -16 15 -157 -1 -176 -11 -13 -41 -16 -187 -16 -208 0 -204 -2
-204 104 0 76 7 90 45 97 45 9 337 1 347 -9z"/>
<path d="M3728 4851 c-10 -11 -13 -23 -8 -26 5 -3 9 -20 8 -38 0 -18 0 -38 1
-44 1 -15 41 -18 41 -3 0 6 -6 10 -13 10 -17 0 -13 70 5 81 8 6 9 9 1 9 -6 0
-13 7 -15 15 -2 13 -6 12 -20 -4z"/>
<path d="M3780 4784 c0 -30 5 -54 10 -54 6 0 10 18 10 40 0 27 5 43 15 46 23
9 18 22 -10 22 -24 0 -25 -4 -25 -54z"/>
<path d="M4650 4935 c0 -30 -2 -55 -5 -55 -2 0 -20 8 -40 17 -50 24 -60 10
-60 -87 0 -97 10 -111 60 -87 20 9 38 17 40 17 3 0 5 -29 5 -65 l0 -65 205 0
205 0 0 190 0 190 -205 0 -205 0 0 -55z m383 36 c4 -1 7 -77 7 -171 l0 -170
-185 0 -185 0 0 48 c0 27 -6 56 -13 66 -13 18 -15 18 -40 1 -45 -29 -57 -15
-57 64 0 38 4 73 10 76 5 3 24 -2 41 -11 31 -15 33 -15 46 2 7 10 13 35 13 55
0 21 4 39 10 41 8 2 326 2 353 -1z"/>
<path d="M4821 4856 c-8 -10 -9 -16 -1 -21 5 -3 10 -1 10 5 0 15 42 9 47 -7 2
-6 -5 -14 -16 -18 -27 -8 -27 -25 -1 -25 13 0 20 -7 20 -20 0 -15 -7 -20 -25
-20 -14 0 -25 5 -25 10 0 6 -4 10 -10 10 -21 0 -9 -30 14 -36 38 -9 66 4 66
31 0 13 -4 27 -10 30 -6 4 -5 13 2 25 24 37 -42 71 -71 36z"/>
<path d="M5567 4983 c-2 -5 -3 -25 -2 -45 3 -52 -7 -65 -36 -44 -50 34 -70 8
-70 -91 0 -82 14 -102 60 -83 42 17 46 15 47 -27 1 -21 2 -48 3 -61 l1 -22
258 2 257 3 0 185 0 185 -257 3 c-141 1 -259 -1 -261 -5z m501 -181 l2 -172
-243 0 -243 0 -1 56 c-2 64 -16 81 -50 59 -30 -20 -50 -19 -56 4 -6 23 0 131
7 138 3 3 22 -2 42 -12 45 -21 55 -12 57 51 l1 49 240 -1 241 0 3 -172z"/>
<path d="M5730 4850 c-11 -20 3 -30 15 -10 3 6 15 10 26 10 30 0 23 -32 -16
-70 -19 -19 -35 -38 -35 -42 0 -4 20 -8 45 -8 25 0 45 5 45 10 0 6 -14 10 -32
10 l-32 0 32 33 c18 18 32 42 32 54 0 36 -62 46 -80 13z"/>
<path d="M5834 4863 c4 -4 19 -9 34 -11 15 -2 28 -4 29 -6 2 -1 -6 -21 -17
-44 -22 -45 -26 -72 -10 -72 6 0 10 8 10 19 0 10 11 39 25 65 14 26 25 49 25
52 0 2 -23 4 -52 4 -28 0 -48 -3 -44 -7z"/>
<path d="M6540 4935 c0 -30 -3 -55 -6 -55 -3 0 -19 8 -35 17 -27 16 -30 16
-46 0 -25 -24 -25 -149 -1 -174 17 -16 20 -16 52 0 l35 16 3 -62 3 -62 203 -3
202 -2 0 190 0 190 -205 0 -205 0 0 -55z m380 36 c13 -1 15 -23 13 -144 0 -78
-2 -154 -2 -169 l-1 -28 -185 0 -185 0 0 53 c0 68 -12 81 -57 59 -30 -14 -35
-14 -44 -2 -11 16 -8 135 4 146 4 4 23 -1 42 -12 31 -17 37 -17 45 -4 5 8 10
33 10 56 0 22 2 43 4 45 4 3 301 3 356 0z"/>
<path d="M6722 4858 c-17 -17 -15 -33 3 -18 13 11 15 6 15 -39 0 -38 -4 -51
-14 -51 -8 0 -18 -4 -21 -10 -4 -6 12 -10 39 -10 25 0 46 5 46 10 0 6 -7 10
-15 10 -12 0 -15 13 -15 60 0 61 -11 75 -38 48z"/>
<path d="M7410 4935 c0 -30 -4 -55 -9 -55 -5 0 -23 8 -41 18 -30 16 -32 16
-45 -2 -20 -26 -20 -145 -1 -171 13 -19 16 -19 49 -3 19 9 38 14 41 11 3 -4 6
-33 6 -65 l0 -58 203 2 202 3 1 188 1 187 -204 0 -203 0 0 -55z m375 36 c13
-1 15 -27 15 -171 l0 -170 -185 0 c-141 0 -185 3 -186 13 0 6 -1 31 -3 54 -3
58 -16 70 -55 47 -42 -25 -53 -11 -53 66 0 76 10 88 51 64 39 -23 52 -12 54
47 1 24 7 46 14 49 10 4 285 5 348 1z"/>
<path d="M7576 4848 c-22 -30 -20 -81 2 -101 41 -37 81 -9 82 55 0 62 -53 91
-84 46z m62 -45 c2 -33 -1 -44 -17 -52 -17 -9 -22 -8 -31 10 -7 12 -9 36 -5
56 5 28 10 34 28 31 18 -2 23 -11 25 -45z"/>
<path d="M2946 4842 c-4 -3 13 -25 36 -49 30 -31 37 -43 25 -43 -9 0 -17 -4
-17 -10 0 -5 14 -10 30 -10 17 0 31 5 31 10 4 36 2 50 -6 48 -6 -2 -9 -6 -7
-10 5 -17 -10 -6 -47 31 -22 22 -42 37 -45 33z"/>
<path d="M4350 4840 c0 -5 5 -10 12 -10 7 0 -5 -18 -27 -40 -21 -22 -36 -43
-32 -47 4 -4 25 11 47 32 22 22 40 34 40 27 0 -7 5 -12 10 -12 6 0 10 14 10
30 0 27 -3 30 -30 30 -16 0 -30 -4 -30 -10z"/>
<path d="M5217 4843 c-4 -4 12 -26 35 -50 34 -34 38 -43 23 -43 -14 0 -16 -3
-8 -11 6 -6 21 -9 34 -7 26 3 39 42 20 61 -8 8 -11 6 -11 -8 0 -15 -9 -11 -43
23 -24 23 -46 39 -50 35z"/>
<path d="M7130 4830 c0 -14 -7 -20 -22 -20 -12 0 -18 -3 -14 -7 4 -5 13 -8 19
-8 7 0 13 -10 15 -22 5 -31 22 -29 22 3 0 14 4 23 8 20 4 -2 14 -1 22 5 12 7
10 9 -7 9 -16 0 -23 6 -23 20 0 11 -4 20 -10 20 -5 0 -10 -9 -10 -20z"/>
<path d="M6230 4836 c0 -3 7 -12 16 -21 15 -15 15 -17 0 -34 -10 -11 -13 -22
-8 -25 6 -3 13 1 16 10 3 9 12 14 19 11 54 -22 54 -22 33 1 -18 21 -18 23 -1
42 10 11 13 20 8 20 -6 0 -16 -7 -23 -15 -12 -14 -15 -14 -30 0 -16 14 -30 20
-30 11z"/>
<path d="M3320 4785 c0 -8 4 -15 10 -15 5 0 7 7 4 15 -4 8 -8 15 -10 15 -2 0
-4 -7 -4 -15z"/>
<path d="M3094 4779 c-4 -8 0 -9 15 -4 28 9 29 -20 1 -35 -30 -16 -24 -30 13
-29 25 1 27 3 9 6 l-24 5 22 23 c12 13 19 28 15 34 -8 14 -42 14 -51 0z"/>
<path d="M8410 4935 c0 -58 -5 -64 -36 -40 -28 21 -49 18 -62 -10 -24 -52 -8
-175 22 -175 6 0 24 7 40 15 15 8 30 15 32 15 2 0 4 -29 4 -65 l0 -65 205 0
205 0 0 190 0 190 -205 0 -205 0 0 -55z m388 -133 l2 -172 -185 0 -185 0 0 48
c0 27 -6 56 -13 66 -13 18 -15 18 -40 1 -45 -29 -57 -15 -57 64 0 38 4 73 10
76 5 3 23 -1 40 -10 42 -22 60 -7 60 50 0 24 5 45 10 47 6 2 88 3 183 2 l172
0 3 -172z"/>
<path d="M8581 4856 c-18 -22 -20 -82 -4 -105 18 -26 59 -27 73 -2 14 27 13
94 -2 109 -16 16 -53 15 -67 -2z m57 -60 c-2 -34 -7 -42 -25 -44 -18 -3 -23 2
-24 20 -3 47 1 72 13 79 22 14 39 -12 36 -55z"/>
<path d="M2128 4863 l63 -4 -3 -67 -3 -67 -53 -3 c-36 -2 -52 0 -47 7 3 6 1
11 -5 11 -7 0 -10 -6 -8 -12 3 -8 26 -14 57 -16 29 -2 49 -7 46 -13 -4 -5 5
-9 18 -9 20 0 24 4 20 19 -4 15 1 20 19 23 15 2 29 16 40 38 21 42 12 55 -37
52 -31 -2 -35 0 -35 23 0 24 -1 25 -67 23 l-68 -2 63 -3z m132 -63 c0 -16 -23
-60 -32 -60 -10 0 -10 1 3 39 10 29 29 43 29 21z"/>
<path d="M2073 4801 c1 -27 4 -48 7 -46 7 4 5 83 -2 91 -3 2 -5 -18 -5 -45z"/>
<path d="M2105 4840 c-4 -6 -4 -14 -1 -17 3 -4 6 -1 6 5 0 7 11 12 25 12 18 0
25 -5 25 -19 0 -10 -7 -21 -15 -25 -8 -3 -15 -10 -15 -16 0 -6 9 -2 21 9 28
25 21 55 -13 59 -14 2 -29 -2 -33 -8z"/>
<path d="M8130 4830 c0 -14 -7 -20 -22 -20 -18 0 -20 -2 -8 -9 8 -6 18 -7 22
-5 4 3 8 -6 8 -20 0 -14 5 -26 10 -26 6 0 10 8 10 19 0 10 10 22 23 26 l22 8
-22 4 c-15 3 -23 12 -23 24 0 10 -4 19 -10 19 -5 0 -10 -9 -10 -20z"/>
<path d="M2450 4836 c0 -3 7 -12 16 -21 15 -15 15 -17 0 -34 -22 -25 -20 -38
3 -17 15 14 24 15 40 7 30 -17 36 -13 16 9 -17 19 -17 21 0 40 10 11 13 20 8
20 -6 0 -16 -7 -23 -15 -12 -14 -15 -14 -30 0 -16 14 -30 20 -30 11z"/>
<path d="M2125 4740 c3 -5 10 -10 16 -10 5 0 9 5 9 10 0 6 -7 10 -16 10 -8 0
-12 -4 -9 -10z"/>
<path d="M2161 4346 c-9 -11 -9 -15 0 -18 22 -7 0 -48 -26 -48 -13 0 -27 -4
-30 -10 -4 -6 8 -10 30 -10 29 0 37 5 45 25 5 14 9 31 7 38 -1 7 4 11 12 9 12
-3 12 0 1 12 -15 20 -24 20 -39 2z"/>
<path d="M2247 4292 c14 -9 191 -7 200 2 3 3 -43 6 -103 6 -60 0 -104 -4 -97
-8z"/>
<path d="M2102 3958 c-17 -17 -15 -48 4 -55 9 -3 28 1 43 9 14 8 43 14 64 13
21 -1 40 2 43 7 3 4 -18 8 -46 8 -32 0 -57 6 -66 15 -19 18 -26 19 -42 3z m38
-29 c0 -25 -33 -22 -38 4 -2 12 3 17 17 17 15 0 21 -6 21 -21z"/>
<path d="M2185 3459 c-4 -6 -19 -10 -33 -9 -48 4 -73 0 -68 -9 3 -5 26 -9 52
-9 25 -1 52 -6 59 -12 19 -16 50 17 34 36 -14 17 -35 18 -44 3z m35 -19 c0 -5
-4 -10 -10 -10 -5 0 -10 5 -10 10 0 6 5 10 10 10 6 0 10 -4 10 -10z"/>
<path d="M2132 3000 c-26 -25 -29 -72 -6 -95 9 -9 19 -14 21 -11 3 3 -2 12
-11 21 -9 9 -16 27 -16 41 0 24 1 24 25 8 14 -9 28 -14 32 -11 3 4 -6 11 -21
17 -24 9 -26 12 -12 25 21 21 46 19 73 -7 13 -12 23 -16 23 -10 0 16 -41 42
-65 42 -12 0 -31 -9 -43 -20z"/>
<path d="M2230 2947 c0 -21 -41 -59 -57 -53 -7 3 -13 1 -13 -4 0 -27 69 7 76
37 4 13 4 27 0 30 -3 4 -6 -1 -6 -10z"/>
<path d="M2161 2626 c-9 -11 -9 -15 0 -18 22 -7 0 -48 -26 -48 -13 0 -27 -4
-30 -10 -4 -6 8 -10 30 -10 29 0 37 5 45 25 5 14 7 32 4 40 -5 12 -2 14 12 8
17 -6 17 -5 5 10 -16 21 -25 21 -40 3z"/>
<path d="M2090 2274 c0 -4 8 -13 17 -19 17 -13 17 -14 0 -32 -26 -29 -21 -40
7 -14 20 19 24 20 29 7 4 -9 14 -16 23 -16 16 0 16 2 -1 20 -17 19 -17 21 0
40 10 11 13 20 8 20 -6 0 -16 -7 -23 -15 -12 -14 -15 -14 -30 0 -17 16 -30 19
-30 9z"/>
<path d="M2129 1925 c-1 -3 -2 -10 -3 -17 0 -7 -12 -15 -26 -19 -23 -6 -20 -9
13 -13 6 -1 11 -11 11 -24 -2 -28 14 -29 18 0 2 11 11 22 21 24 31 4 32 14 3
14 -23 0 -27 4 -23 20 3 11 1 20 -4 20 -5 0 -10 -2 -10 -5z"/>
<path d="M2851 4007 c-17 -21 -2 -28 23 -11 13 8 26 11 29 7 14 -13 6 -34 -15
-42 -23 -9 -23 -9 5 -20 24 -9 26 -14 17 -31 -10 -20 -37 -18 -52 4 -4 6 -10
7 -14 3 -13 -12 18 -37 47 -37 32 0 59 34 40 53 -5 5 -7 23 -4 39 4 20 1 33
-8 39 -21 13 -55 11 -68 -4z"/>
<path d="M2964 3996 c-28 -44 -5 -116 37 -116 29 0 49 29 49 70 0 66 -54 94
-86 46z m62 -20 c10 -41 1 -71 -23 -74 -17 -2 -23 3 -28 27 -3 17 -4 40 0 51
9 28 43 26 51 -4z"/>
<path d="M3079 4004 c-16 -20 -15 -89 1 -109 18 -21 57 -19 70 4 14 27 13 94
-2 109 -17 17 -53 15 -69 -4z m59 -58 c-2 -33 -7 -42 -24 -44 -29 -4 -41 51
-18 85 23 36 46 13 42 -41z"/>
<path d="M2907 3703 c-2 -5 -3 -24 -2 -45 3 -53 -6 -63 -42 -44 -42 21 -61 5
-64 -54 -3 -79 1 -108 16 -124 14 -13 19 -13 50 5 26 16 35 18 36 7 1 -7 3
-65 4 -128 1 -63 3 -118 4 -122 0 -5 766 -8 1701 -8 l1700 0 0 260 0 260
-1699 0 c-935 0 -1702 -3 -1704 -7z m3383 -253 l0 -240 -1684 0 -1684 0 0 58
c-1 190 -2 193 -18 199 -9 3 -29 -2 -45 -11 -26 -16 -29 -16 -37 1 -10 19 -10
138 0 148 3 3 22 -2 42 -11 46 -22 58 -12 58 50 l0 46 1684 0 1684 0 0 -240z"/>
<path d="M3840 3591 c0 -58 -8 -66 -45 -47 -53 28 -68 3 -63 -103 4 -78 21
-96 67 -69 28 15 29 15 35 -5 3 -12 6 -41 6 -64 l0 -43 200 0 200 0 1 25 c1
14 1 90 1 170 0 80 0 154 -1 165 -1 19 -8 20 -201 20 l-200 0 0 -49z m386
-144 l0 -167 -185 2 -184 3 -3 52 c-3 72 -8 77 -55 53 l-39 -21 -8 22 c-11 28
-8 127 4 139 5 5 22 2 42 -7 42 -20 52 -11 55 50 l2 47 185 -2 185 -3 1 -168z"/>
<path d="M4013 3513 c-7 -2 -13 -11 -13 -19 0 -11 4 -12 19 -3 21 14 56 5 46
-12 -4 -6 -17 -14 -29 -19 -20 -8 -20 -8 7 -19 15 -6 27 -15 27 -21 0 -17 -31
-24 -51 -12 -27 17 -31 15 -19 -8 13 -24 62 -27 80 -5 10 12 10 22 2 39 -6 13
-7 27 -2 32 4 5 4 19 -1 32 -8 21 -36 28 -66 15z"/>
<path d="M4407 3633 c-2 -5 -5 -28 -6 -53 -1 -24 -4 -46 -6 -48 -2 -2 -18 4
-35 13 -19 10 -36 13 -41 8 -30 -30 -33 -153 -5 -181 14 -15 19 -14 51 1 l35
17 1 -33 c0 -17 2 -45 2 -62 l2 -30 203 -3 202 -2 0 190 0 190 -199 0 c-110 0
-202 -3 -204 -7z m385 -30 c3 -15 2 -228 -1 -300 -1 -23 -1 -23 -186 -23
l-185 0 0 53 c0 70 -13 83 -57 56 l-33 -21 -10 27 c-13 34 -13 86 0 120 10 25
10 25 41 10 46 -24 59 -14 59 45 l0 50 184 0 c167 0 184 -2 188 -17z"/>
<path d="M4572 3508 c-31 -31 5 -92 49 -81 15 4 18 2 13 -12 -5 -13 -14 -15
-36 -11 -21 4 -28 2 -25 -7 2 -6 17 -12 33 -12 48 0 69 78 33 122 -14 16 -51
17 -67 1z m61 -28 c7 -29 -20 -48 -40 -27 -9 8 -13 23 -10 31 9 23 44 20 50
-4z"/>
<path d="M4970 3585 c0 -30 -2 -55 -5 -55 -4 0 -20 7 -37 16 -26 14 -32 14
-45 2 -30 -31 -28 -173 4 -185 8 -3 30 1 49 10 l34 17 0 -65 0 -65 260 0 260
0 0 190 0 190 -260 0 -260 0 0 -55z m501 28 c1 -5 2 -81 3 -170 l1 -163 -242
0 -243 0 0 55 c0 64 -16 78 -60 52 -38 -23 -50 -6 -50 68 0 79 10 94 44 72 49
-32 66 -19 66 54 l0 39 240 0 c132 0 240 -3 241 -7z"/>
<path d="M5152 3508 c-18 -18 -15 -33 4 -18 13 12 15 7 12 -41 -2 -33 -8 -54
-15 -54 -6 0 -15 -3 -19 -7 -4 -5 14 -8 39 -8 26 0 47 5 47 10 0 6 -6 9 -12 8
-9 -2 -14 16 -16 60 -3 63 -14 76 -40 50z"/>
<path d="M5257 3513 c-4 -3 -7 -13 -7 -22 0 -12 3 -12 12 -3 7 7 20 12 30 12
29 0 21 -34 -17 -69 -19 -17 -35 -36 -35 -41 0 -6 23 -10 51 -10 32 0 48 4 44
10 -4 6 -12 10 -18 9 -48 -6 -51 1 -19 34 34 36 42 71 16 81 -21 8 -49 8 -57
-1z"/>
<path d="M5650 3585 c0 -30 -2 -55 -5 -55 -4 0 -20 7 -37 16 -28 14 -32 14
-46 0 -19 -19 -28 -121 -13 -158 12 -32 29 -35 71 -13 l30 16 0 -66 0 -65 260
0 260 0 0 190 0 190 -260 0 -260 0 0 -55z m505 -120 c0 -82 -1 -158 -3 -167
-4 -17 -24 -18 -243 -18 l-239 0 0 46 c0 25 -5 54 -11 65 -10 20 -10 20 -44 1
-44 -27 -55 -14 -55 63 0 81 8 92 50 70 47 -24 60 -14 60 45 l0 50 242 -2 243
-3 0 -150z"/>
<path d="M5832 3508 c-18 -18 -15 -33 4 -18 13 12 15 7 12 -41 -2 -33 -8 -54
-15 -54 -6 0 -15 -3 -19 -7 -4 -5 14 -8 39 -8 26 0 47 5 47 10 0 6 -7 10 -15
10 -12 0 -15 13 -15 60 0 61 -11 75 -38 48z"/>
<path d="M5929 3513 c0 -5 -2 -20 -4 -36 -3 -24 -1 -27 23 -25 49 4 65 -18 36
-47 -15 -14 -18 -14 -34 0 -19 18 -35 8 -19 -12 25 -30 89 -4 89 36 0 25 -20
41 -51 41 -21 0 -26 4 -22 18 3 14 12 17 34 14 17 -3 29 0 29 7 0 12 -80 16
-81 4z"/>
<path d="M3134 3568 c-3 -4 6 -8 20 -8 14 0 26 4 26 8 0 4 -9 8 -21 8 -11 0
-23 -4 -25 -8z"/>
<path d="M3195 3570 c-3 -5 1 -10 10 -10 9 0 13 5 10 10 -3 6 -8 10 -10 10 -2
0 -7 -4 -10 -10z"/>
<path d="M3062 3550 c-7 -11 -12 -53 -12 -98 0 -66 3 -82 20 -97 11 -10 20
-13 20 -8 0 6 -7 13 -15 17 -12 4 -15 24 -15 91 0 67 3 87 15 91 8 4 15 10 15
15 0 16 -15 10 -28 -11z"/>
<path d="M3250 3548 c13 -14 21 -37 22 -67 l1 -46 4 43 c4 44 -16 92 -38 92
-5 0 -1 -10 11 -22z"/>
<path d="M3440 3515 c0 -8 5 -15 11 -15 5 0 7 5 4 10 -3 6 -1 10 4 10 6 0 11
-11 11 -25 0 -14 4 -25 8 -25 5 0 8 10 7 23 -1 12 5 25 14 29 10 4 1 7 -21 7
-27 1 -38 -3 -38 -14z"/>
<path d="M3551 3523 c24 -6 23 -160 0 -166 -9 -3 0 -5 19 -6 29 -1 36 3 37 19
1 11 -3 20 -8 20 -6 0 -8 -4 -4 -9 3 -5 1 -12 -4 -15 -12 -8 -17 41 -13 106 3
35 7 45 18 41 8 -3 14 0 14 6 0 6 -16 11 -37 10 -21 -1 -31 -3 -22 -6z"/>
<path d="M3130 3485 c-7 -8 -10 -25 -6 -40 5 -20 13 -25 36 -25 31 0 60 33 40
45 -6 4 -10 3 -9 -2 4 -26 -3 -34 -28 -31 -20 2 -29 9 -31 26 -3 22 7 27 53
24 16 -2 17 0 5 8 -22 14 -46 12 -60 -5z"/>
<path d="M3593 3485 c0 -8 4 -15 9 -15 4 0 8 7 8 15 0 8 -4 15 -8 15 -5 0 -9
-7 -9 -15z"/>
<path d="M3443 3465 c0 -14 2 -25 6 -25 10 0 11 39 2 45 -5 2 -8 -7 -8 -20z"/>
<path d="M3472 3420 c-1 -22 2 -40 7 -40 9 0 8 66 -1 75 -3 3 -5 -13 -6 -35z"/>
<path d="M3594 3430 c0 -16 4 -30 7 -30 3 0 6 14 7 30 0 17 -3 30 -8 30 -4 0
-7 -13 -6 -30z"/>
<path d="M3267 3406 c4 -17 -2 -28 -18 -40 -13 -8 -20 -18 -18 -21 3 -2 15 4
27 15 21 20 31 70 13 70 -4 0 -6 -11 -4 -24z"/>
<path d="M3442 3390 c-1 -40 0 -40 36 -40 27 0 33 3 22 10 -8 5 -22 7 -31 4
-13 -4 -16 2 -14 26 1 17 -1 32 -5 35 -4 3 -8 -13 -8 -35z"/>
<path d="M3145 3349 l-50 -6 63 -1 c34 -1 62 0 62 2 0 9 -28 11 -75 5z"/>
<path d="M6924 3589 c1 -28 -2 -53 -6 -55 -4 -3 -22 3 -39 12 -31 15 -33 15
-46 -2 -22 -30 -21 -150 2 -173 13 -13 19 -13 50 2 26 12 35 13 36 4 1 -6 2
-34 3 -62 l1 -50 373 -3 372 -2 0 190 0 190 -373 0 -374 0 1 -51z m726 -139
l0 -170 -355 0 -354 0 0 56 c1 68 -11 79 -57 52 l-34 -20 -9 24 c-11 29 -11
108 1 131 8 16 11 16 39 1 46 -23 59 -13 59 46 l0 50 355 0 355 0 0 -170z"/>
<path d="M7102 3508 c-17 -17 -15 -33 3 -18 13 11 15 6 15 -35 0 -34 -5 -52
-17 -61 -16 -12 -12 -13 30 -14 30 0 46 4 42 10 -3 6 -13 10 -21 10 -11 0 -14
14 -14 60 0 61 -11 75 -38 48z"/>
<path d="M7213 3512 c-21 -13 -26 -80 -8 -108 31 -48 85 -20 85 46 0 56 -39
86 -77 62z m53 -37 c9 -38 -3 -75 -25 -75 -22 0 -37 46 -26 80 9 29 43 26 51
-5z"/>
<path d="M7316 3499 c-16 -23 -13 -84 6 -106 16 -20 56 -16 69 8 15 28 14 86
-1 104 -18 22 -57 18 -74 -6z m64 -43 c0 -47 -20 -76 -37 -54 -32 41 -24 98
13 98 22 0 24 -4 24 -44z"/>
<path d="M7431 3506 c-16 -19 -17 -77 -2 -104 14 -25 52 -29 71 -7 16 20 17
89 1 109 -17 20 -55 21 -70 2z m60 -22 c1 -8 1 -23 1 -34 0 -45 -2 -50 -27
-50 -23 0 -25 4 -25 43 0 24 5 48 11 54 14 14 39 6 40 -13z"/>
<path d="M6388 3550 c-23 -17 -25 -27 -27 -97 -2 -121 -8 -118 214 -118 220 0
214 -3 215 118 0 117 0 117 -209 117 -152 0 -171 -2 -193 -20z m369 -12 c23
-24 27 -141 4 -169 -15 -19 -27 -20 -186 -20 -204 -1 -204 -1 -198 107 2 37 9
74 14 80 14 16 45 19 212 18 113 0 141 -3 154 -16z"/>
<path d="M6465 3470 c17 -19 17 -21 0 -40 -16 -18 -16 -20 -2 -20 10 0 17 5
17 10 0 15 26 12 40 -5 7 -9 15 -13 18 -10 3 3 -3 14 -13 25 -16 18 -16 20 -1
36 23 22 11 32 -13 10 -16 -15 -19 -15 -31 -1 -7 8 -17 15 -23 15 -5 0 -2 -9
8 -20z"/>
<path d="M2851 3006 c-8 -9 -8 -16 -2 -20 5 -4 12 -2 16 4 10 16 45 12 45 -5
0 -9 -10 -20 -22 -24 -23 -9 -23 -9 4 -20 19 -7 26 -15 22 -26 -7 -18 -35 -20
-52 -3 -17 17 -28 2 -12 -17 19 -23 67 -19 81 6 7 15 8 24 0 32 -5 5 -7 23 -4
39 4 20 1 33 -8 39 -21 13 -55 11 -68 -5z"/>
<path d="M2796 2707 c-13 -4 -27 -18 -32 -30 -8 -19 -10 -91 -5 -160 2 -33 50
-42 225 -41 208 1 206 0 206 119 0 118 2 117 -204 119 -92 0 -177 -3 -190 -7z
m365 -24 c7 -7 12 -42 12 -89 0 -63 -3 -79 -18 -90 -14 -10 -61 -14 -186 -13
-203 0 -199 -2 -199 104 0 104 0 104 211 102 116 -1 172 -6 180 -14z"/>
<path d="M2842 2634 c-7 -7 -8 -15 -3 -19 6 -3 9 -24 9 -46 0 -46 4 -54 29
-45 11 5 13 10 7 14 -18 12 -23 50 -9 69 11 16 11 21 -3 30 -13 7 -21 7 -30
-3z"/>
<path d="M2900 2574 c0 -30 5 -54 10 -54 6 0 10 18 10 40 0 27 5 43 15 46 23
9 18 22 -10 22 -24 0 -25 -4 -25 -54z"/>
<path d="M2868 2299 c-10 -5 -18 -15 -18 -21 0 -7 5 -6 15 2 13 11 15 6 15
-39 0 -39 -4 -51 -15 -51 -8 0 -15 -4 -15 -10 0 -5 21 -10 46 -10 27 0 43 4
39 10 -3 6 -13 10 -21 10 -11 0 -14 14 -14 60 0 62 -3 66 -32 49z"/>
<path d="M2850 1931 c-15 -29 -12 -87 6 -105 34 -35 84 -2 84 54 0 58 -66 95
-90 51z m65 -21 c10 -33 -4 -80 -25 -80 -10 0 -21 7 -24 16 -8 21 -8 69 1 77
14 14 42 6 48 -13z"/>
<path d="M2850 1591 c0 -58 -8 -66 -45 -47 -53 28 -68 3 -63 -103 4 -78 21
-96 67 -69 36 20 41 12 41 -63 l0 -49 343 2 342 3 0 185 0 185 -342 3 -343 2
0 -49z m670 -141 l0 -170 -327 2 -328 3 -1 35 c-3 73 -4 80 -19 80 -9 0 -29
-7 -45 -15 -37 -19 -43 -10 -43 70 0 81 5 88 48 68 43 -20 55 -11 60 43 1 22
3 42 4 47 1 4 147 7 326 7 l325 0 0 -170z"/>
<path d="M3023 1513 c-19 -7 -27 -70 -13 -103 24 -59 90 -30 90 40 0 55 -32
82 -77 63z m52 -63 c0 -39 -3 -45 -22 -48 -26 -4 -39 31 -29 74 5 19 12 25 29
22 19 -3 22 -9 22 -48z"/>
<path d="M3186 1504 c-9 -9 -16 -32 -16 -54 0 -65 54 -94 85 -47 41 64 -19
152 -69 101z m64 -53 c0 -35 -14 -54 -36 -49 -26 5 -32 69 -8 93 17 16 18 16
31 -1 7 -10 13 -29 13 -43z"/>
<path d="M3290 1486 c0 -35 13 -55 25 -36 9 14 45 -6 45 -25 0 -23 -36 -37
-50 -20 -7 8 -16 12 -22 9 -16 -10 13 -34 41 -34 32 0 51 16 51 45 0 27 -18
45 -47 45 -14 0 -23 6 -23 15 0 14 17 20 48 16 6 -1 12 3 12 9 0 5 -18 10 -40
10 -39 0 -40 -1 -40 -34z"/>
<path d="M3125 1390 c-3 -5 1 -10 9 -10 9 0 16 5 16 10 0 6 -4 10 -9 10 -6 0
-13 -4 -16 -10z"/>
<path d="M3956 1632 c-3 -5 -4 -25 -2 -44 5 -53 -5 -63 -42 -44 -41 21 -41 21
-57 -16 -16 -40 -11 -137 10 -157 13 -13 19 -13 50 2 39 19 35 26 39 -68 l1
-40 343 -3 342 -2 0 190 0 190 -339 0 c-187 0 -342 -4 -345 -8z m670 -172 c0
-85 -2 -161 -4 -167 -3 -10 -78 -13 -328 -13 l-324 0 0 53 c0 73 -8 81 -53 57
-22 -12 -38 -16 -42 -10 -13 22 -17 117 -6 138 11 21 13 21 42 6 46 -23 59
-13 59 46 l0 50 327 -2 328 -3 1 -155z"/>
<path d="M4126 1504 c-9 -9 -16 -32 -16 -54 0 -66 54 -94 86 -45 19 29 14 93
-8 107 -20 12 -45 9 -62 -8z m59 -24 c4 -11 3 -34 0 -51 -5 -24 -11 -29 -28
-27 -17 2 -23 11 -25 36 -2 19 -1 40 2 48 8 21 44 17 51 -6z"/>
<path d="M4302 1508 c-17 -17 -15 -33 3 -18 13 11 15 5 15 -43 0 -44 -3 -55
-14 -51 -8 3 -17 1 -21 -5 -4 -7 10 -11 39 -11 25 0 46 5 46 10 0 6 -7 10 -15
10 -12 0 -15 13 -15 60 0 61 -11 75 -38 48z"/>
<path d="M4399 1508 c0 -7 -2 -23 -3 -36 -2 -20 1 -23 26 -20 30 3 50 -15 41
-39 -6 -15 -39 -18 -48 -3 -4 6 -11 8 -16 4 -15 -9 10 -34 35 -34 26 0 41 10
49 33 10 26 -10 57 -37 57 -12 0 -26 3 -29 7 -12 11 13 31 32 26 10 -3 22 0
25 6 5 7 -7 11 -33 11 -26 0 -41 -5 -42 -12z"/>
<path d="M4230 1390 c0 -5 5 -10 10 -10 6 0 10 5 10 10 0 6 -4 10 -10 10 -5 0
-10 -4 -10 -10z"/>
<path d="M5150 1585 c0 -30 -2 -55 -5 -55 -4 0 -20 7 -37 16 -28 14 -32 14
-46 0 -19 -19 -28 -121 -13 -158 12 -32 29 -35 71 -13 l30 16 0 -66 0 -65 288
2 287 3 3 188 2 187 -290 0 -290 0 0 -55z m560 -135 l0 -170 -270 0 -270 0 0
46 c0 25 -5 54 -11 65 -10 20 -10 20 -43 0 -44 -27 -56 -13 -56 64 0 79 10 94
44 72 49 -32 66 -19 66 54 l0 39 270 0 270 0 0 -170z"/>
<path d="M5241 1544 c-15 -19 -20 -40 -20 -87 1 -73 14 -113 39 -120 10 -2 95
-5 189 -6 168 0 170 0 189 24 14 18 19 41 20 95 1 63 -2 75 -22 95 -23 23 -29
24 -200 24 -176 0 -176 0 -195 -25z m385 -4 c20 -18 20 -163 -1 -180 -21 -17
-349 -17 -370 0 -20 16 -21 162 -2 178 16 14 66 17 225 15 87 -1 138 -6 148
-13z"/>
<path d="M5320 1506 c0 -9 -5 -16 -11 -16 -5 0 -7 -5 -3 -12 4 -6 8 -30 8 -52
1 -35 5 -41 25 -44 22 -3 23 -2 9 11 -18 19 -17 75 3 88 11 7 11 9 -4 9 -10 0
-16 4 -12 9 3 5 1 12 -5 16 -5 3 -10 -1 -10 -9z"/>
<path d="M5370 1435 c0 -30 5 -55 10 -55 6 0 10 19 10 41 0 28 6 46 18 55 15
12 14 13 -10 14 -27 0 -28 -2 -28 -55z"/>
<path d="M6189 1628 c-1 -7 -2 -31 -3 -53 -1 -43 -5 -45 -51 -26 -25 11 -31
10 -42 -5 -22 -30 -20 -151 2 -173 13 -13 19 -13 50 2 19 9 36 13 36 9 1 -4 2
-32 3 -62 l1 -55 203 -3 202 -2 0 190 0 190 -200 0 c-153 0 -200 -3 -201 -12z
m387 -168 c0 -85 -2 -161 -4 -167 -3 -10 -50 -13 -187 -13 l-182 0 -2 57 c-1
68 -14 79 -57 52 -24 -14 -34 -16 -40 -8 -11 18 -13 109 -3 136 8 23 10 23 40
8 46 -24 59 -14 59 45 l0 50 187 -2 188 -3 1 -155z"/>
<path d="M6362 1508 c-17 -17 -15 -33 3 -18 13 11 15 6 15 -39 0 -39 -4 -51
-15 -51 -8 0 -15 -4 -15 -10 0 -5 21 -10 46 -10 27 0 43 4 39 10 -3 6 -13 10
-21 10 -11 0 -14 14 -14 60 0 61 -11 75 -38 48z"/>
<path d="M7050 1585 c0 -30 -2 -55 -5 -55 -4 0 -19 7 -35 15 -51 27 -70 4 -70
-87 0 -88 28 -119 76 -83 10 8 22 15 27 15 4 0 7 -29 7 -65 l0 -65 203 2 202
3 3 188 2 187 -205 0 -205 0 0 -55z m390 -135 l0 -170 -185 0 -185 0 0 55 c0
65 -14 76 -65 52 -41 -20 -45 -13 -45 78 0 71 10 84 45 61 47 -31 65 -14 65
62 l0 32 185 0 185 0 0 -170z"/>
<path d="M7220 1505 c-16 -20 -17 -89 -1 -109 16 -19 52 -21 69 -4 15 15 16
82 2 109 -13 23 -52 25 -70 4z m60 -49 c0 -46 -17 -70 -38 -57 -12 7 -17 37
-13 84 1 11 9 17 26 17 23 0 25 -4 25 -44z"/>
<path d="M2579 1533 c-5 -34 -3 -166 2 -175 4 -6 15 -8 25 -4 16 6 17 9 4 16
-12 6 -15 26 -13 84 1 42 -3 78 -8 82 -5 3 -10 2 -10 -3z"/>
<path d="M3691 1530 c-10 -5 -9 -9 2 -13 11 -4 15 -21 15 -64 0 -89 1 -105 10
-99 5 3 9 43 10 90 0 85 -8 104 -37 86z"/>
<path d="M2260 1455 l0 -75 73 0 73 0 0 73 -1 72 -72 3 -73 3 0 -76z m130 0
l0 -55 -55 0 -55 0 0 55 0 55 55 0 55 0 0 -55z"/>
<path d="M2350 1486 c0 -9 7 -16 16 -16 17 0 14 22 -4 28 -7 2 -12 -3 -12 -12z"/>
<path d="M2295 1429 c-10 -15 3 -25 16 -12 7 7 7 13 1 17 -6 3 -14 1 -17 -5z"/>
<path d="M2161 1486 c-9 -11 -9 -15 0 -18 22 -7 0 -48 -26 -48 -13 0 -27 -4
-30 -10 -4 -6 8 -10 30 -10 28 0 38 5 44 23 5 12 7 25 4 30 -2 4 3 10 12 13
12 5 13 9 4 20 -14 18 -24 18 -38 0z"/>
<path d="M4850 1485 c-9 -10 -9 -15 -1 -15 6 0 11 -11 11 -25 0 -20 -5 -25
-24 -25 -14 0 -28 -4 -31 -10 -9 -14 48 -13 63 2 7 7 12 25 12 41 0 27 2 28
18 16 14 -11 13 -10 -2 9 -23 26 -29 27 -46 7z"/>
<path d="M6770 1480 c0 -13 -7 -20 -20 -20 -11 0 -20 -4 -20 -9 0 -5 9 -7 20
-4 16 4 20 0 20 -21 0 -14 5 -26 10 -26 6 0 10 12 10 26 0 14 4 23 8 20 4 -2
14 -1 22 5 12 7 10 9 -7 9 -16 0 -23 6 -23 20 0 11 -4 20 -10 20 -5 0 -10 -9
-10 -20z"/>
<path d="M5884 1468 c14 -20 14 -24 -1 -40 -19 -21 -12 -23 18 -5 17 10 23 10
26 0 3 -7 12 -13 20 -13 14 0 14 3 -2 20 -17 19 -17 21 0 40 10 11 13 20 8 20
-6 0 -16 -7 -23 -15 -12 -14 -15 -14 -30 0 -24 22 -33 18 -16 -7z"/>
<path d="M2094 1065 c-19 -29 -14 -93 8 -107 21 -13 50 -9 64 10 16 21 18 76
4 103 -15 27 -56 24 -76 -6z m64 -24 c6 -39 -7 -71 -28 -71 -23 0 -35 37 -26
76 9 34 49 30 54 -5z"/>
<path d="M1533 723 c-18 -7 -16 -23 2 -23 11 0 15 -12 15 -45 0 -33 -4 -45
-14 -45 -8 0 -18 -4 -21 -10 -4 -6 12 -10 39 -10 25 0 46 5 46 10 0 6 -7 10
-15 10 -15 0 -19 21 -15 88 2 32 -7 38 -37 25z"/>
<path d="M1520 365 c-7 -9 -13 -33 -13 -55 0 -22 6 -46 13 -55 18 -21 57 -19
70 4 14 27 13 94 -2 109 -17 17 -53 15 -68 -3z m58 -51 c3 -46 -17 -74 -36
-51 -12 14 -16 37 -14 75 2 18 7 23 25 20 18 -2 23 -10 25 -44z"/>
</g>
</svg>
