<?xml version="1.0" standalone="no"?>
<!DOCTYPE svg PUBLIC "-//W3C//DTD SVG 20010904//EN"
 "http://www.w3.org/TR/2001/REC-SVG-20010904/DTD/svg10.dtd">
<svg version="1.0" xmlns="http://www.w3.org/2000/svg"
 width="1341.000000pt" height="457.000000pt" viewBox="0 0 1341.000000 457.000000"
 preserveAspectRatio="xMidYMid meet">
<metadata>
Created by potrace 1.16, written by Peter Selinger 2001-2019
</metadata>
<g transform="translate(0.000000,457.000000) scale(0.100000,-0.100000)"
fill="#000000" stroke="none">
<path d="M240 4382 c-39 -18 -63 -40 -81 -74 -18 -36 -19 -89 -19 -2047 0
-2222 -5 -2061 63 -2112 l32 -24 1008 -3 1007 -2 0 22 c1 13 0 115 0 228 l-1
206 48 -1 c26 0 54 -4 62 -9 9 -6 12 -5 8 1 -7 12 212 12 231 0 6 -5 12 -4 12
1 0 4 47 8 104 8 66 0 103 -3 99 -9 -4 -6 -1 -7 8 -1 21 13 989 13 989 0 0 -8
3 -7 8 0 10 15 304 14 314 0 5 -7 8 -8 8 -1 0 7 91 11 270 10 l270 0 1 30 c0
17 0 119 0 228 l0 197 4290 0 4289 0 0 503 0 504 -2400 -1 c-1592 -1 -2401 2
-2403 9 -2 6 -3 187 -2 403 0 215 -2 392 -5 393 -3 0 -90 1 -193 1 -103 1
-190 5 -193 10 -3 4 -11 5 -17 1 -17 -11 -370 -12 -384 -1 -7 5 -13 5 -17 0
-6 -10 -125 -10 -142 1 -6 3 -14 3 -18 -1 -11 -10 -375 -11 -382 -1 -3 5 -11
6 -17 2 -18 -11 -370 -13 -384 -1 -7 5 -13 5 -17 0 -6 -11 -125 -10 -143 1 -6
4 -14 3 -17 -1 -6 -11 -126 -10 -143 1 -6 4 -14 3 -17 -1 -6 -11 -126 -10
-142 1 -6 3 -14 3 -18 -1 -11 -10 -375 -11 -382 -1 -3 5 -11 6 -17 2 -17 -11
-370 -12 -384 -1 -7 5 -13 5 -17 0 -6 -10 -125 -10 -142 1 -6 3 -14 3 -18 -1
-11 -11 -369 -11 -383 0 -6 5 -14 5 -17 0 -2 -4 -60 -8 -128 -8 l-123 1 1 318
0 317 -451 0 c-247 0 -885 0 -1417 0 l-967 0 0 27 c-6 212 -4 396 3 401 15 9
136 8 136 -1 0 -5 5 -5 12 -1 6 4 279 7 607 7 l596 0 5 136 c3 75 4 182 2 239
l-3 102 -1223 0 -1222 0 -54 -35 c-30 -19 -65 -35 -77 -35 -13 0 -45 16 -72
35 -46 34 -52 35 -132 34 -46 0 -91 -3 -99 -7z m227 -47 c29 -19 64 -35 78
-35 14 0 49 16 78 35 l52 35 1212 0 1213 0 0 -219 0 -219 -1211 2 -1212 2 -51
-33 c-54 -33 -102 -48 -111 -33 -3 4 -26 21 -53 36 -45 27 -53 28 -172 29
l-125 0 -3 163 c-2 136 0 169 14 199 27 55 65 73 159 73 75 0 84 -2 132 -35z
m-2 -455 c60 -41 100 -46 140 -16 57 43 87 53 160 51 39 -2 73 -3 78 -4 10 -1
9 -109 -1 -115 -5 -3 -21 4 -38 15 -66 43 -94 12 -94 -106 0 -118 28 -149 95
-105 22 14 31 16 37 7 4 -7 8 -789 8 -1739 l0 -1728 -296 0 c-286 0 -298 1
-331 22 -67 41 -63 -96 -63 1916 0 1006 2 1831 5 1834 3 2 60 4 128 3 122 -2
124 -2 172 -35z m1257 31 c16 -1 17 -23 15 -280 -1 -154 -5 -282 -9 -286 -3
-4 -20 1 -37 9 -72 38 -93 12 -93 -112 0 -72 4 -88 21 -105 l21 -21 42 22 c36
18 44 19 48 7 4 -13 6 -353 1 -423 l-1 -24 -34 21 c-74 46 -98 20 -98 -104 0
-122 23 -147 95 -105 32 19 35 19 39 3 4 -15 3 -570 -1 -611 -1 -11 -10 -9
-37 7 -71 42 -95 20 -96 -88 -1 -132 21 -161 89 -121 19 11 38 18 42 15 6 -7
9 -1219 3 -1248 -4 -16 -6 -16 -37 3 -73 45 -97 17 -97 -114 0 -67 3 -81 21
-100 l22 -21 41 23 c23 12 43 20 46 17 3 -2 6 -34 7 -70 l2 -65 -433 0 -434 0
-2 1740 c-2 1254 -6 1742 -14 1750 -8 8 -24 5 -57 -11 -26 -13 -50 -19 -54
-15 -10 10 -10 192 0 202 4 4 28 -2 54 -15 45 -22 48 -22 60 -5 7 10 13 41 13
69 0 29 2 54 4 56 4 3 772 3 848 0z m2851 -465 c2 -6 3 -144 3 -306 l-1 -295
-1403 0 c-807 0 -1406 4 -1409 9 -3 5 -6 76 -7 157 -2 176 -6 185 -68 151 -52
-28 -66 -18 -69 53 -5 138 5 153 71 116 38 -21 39 -21 52 -2 8 12 14 43 14 74
l-1 54 1407 -1 c985 0 1408 -3 1411 -10z m3862 -1014 l0 -392 -3337 0 c-2663
0 -3338 3 -3339 13 0 6 -2 113 -3 237 -2 214 -7 260 -27 260 -5 0 -23 -9 -41
-20 -18 -11 -39 -20 -45 -20 -15 0 -25 36 -25 93 -1 121 5 129 67 98 57 -28
65 -22 70 53 2 30 6 59 8 63 3 5 1505 8 3339 8 l3333 -1 0 -392z m-5855 -474
c0 -64 -10 -72 -55 -42 -15 10 -34 14 -49 10 -20 -5 -26 -14 -32 -51 -10 -69
0 -163 19 -182 16 -16 20 -16 61 4 24 12 47 19 50 16 8 -8 8 -788 0 -796 -3
-3 -26 4 -50 16 -42 20 -45 20 -62 4 -13 -13 -18 -38 -20 -100 -5 -104 7 -137
47 -137 15 0 34 7 41 15 7 8 21 15 31 15 17 0 19 -8 19 -68 l0 -68 -407 4
c-224 2 -410 6 -413 8 -2 3 -4 254 -5 559 0 429 -3 557 -13 567 -9 9 -21 8
-56 -9 -62 -31 -71 -15 -67 122 2 66 12 73 64 48 25 -12 49 -18 56 -13 7 4 14
33 16 66 2 33 4 62 4 65 1 3 186 6 411 6 l410 0 0 -59z m10658 -424 l2 -482
-5317 2 -5318 1 -5 332 c-4 253 -8 335 -18 345 -11 11 -20 9 -54 -10 -28 -15
-45 -19 -52 -12 -13 13 -20 119 -12 165 8 40 17 42 71 15 38 -19 41 -19 52 -3
7 9 13 42 13 73 l0 57 5318 -1 5317 -1 3 -481z m-9298 -548 c0 -74 -5 -78 -57
-53 l-45 22 -19 -24 c-15 -18 -19 -39 -19 -101 0 -96 11 -130 43 -130 12 0 33
7 45 16 40 28 53 12 50 -58 l-3 -63 -667 0 -668 0 0 66 c0 36 -5 73 -12 82
-12 16 -16 16 -57 -5 -42 -21 -44 -21 -57 -3 -18 25 -19 155 -1 179 13 18 15
18 54 -5 56 -32 73 -18 73 62 l0 59 670 0 670 0 0 -44z m718 -173 l-3 -218
-343 0 c-189 0 -345 2 -347 6 -2 3 -5 33 -6 67 -3 87 -13 98 -64 72 -69 -35
-75 -28 -75 90 0 97 10 109 68 78 53 -29 64 -19 70 62 l4 60 349 0 349 0 -2
-217z m-2428 -454 l0 -219 -235 0 c-181 0 -235 3 -236 13 -3 80 -10 132 -19
141 -7 7 -24 3 -57 -13 -60 -29 -65 -20 -65 94 0 96 9 107 68 76 58 -31 65
-25 70 69 1 25 2 48 3 51 1 3 107 6 236 6 l235 0 0 -218z"/>
<path d="M950 4240 c0 -5 5 -10 10 -10 6 0 10 5 10 10 0 6 -4 10 -10 10 -5 0
-10 -4 -10 -10z"/>
<path d="M1090 4223 c0 -27 -3 -29 -28 -25 -39 5 -62 -20 -62 -68 0 -51 19
-68 74 -68 l45 1 -2 90 c-1 62 -6 92 -14 95 -9 2 -13 -7 -13 -25z m-2 -91 c3
-46 -16 -65 -47 -45 -32 21 -14 96 22 91 18 -2 23 -11 25 -46z"/>
<path d="M1769 4248 c-1 -2 -2 -45 -3 -95 -1 -70 2 -93 11 -93 10 0 13 24 13
95 0 57 -4 95 -10 95 -5 0 -11 -1 -11 -2z"/>
<path d="M2680 4155 c0 -69 3 -95 13 -95 7 0 13 17 14 45 2 59 8 75 32 75 23
0 31 -19 31 -76 0 -24 4 -44 9 -44 13 0 18 90 6 114 -12 24 -50 33 -69 16 -11
-8 -13 -4 -11 25 1 24 -2 35 -12 35 -10 0 -13 -22 -13 -95z"/>
<path d="M338 4223 c-6 -22 1 -43 12 -43 5 0 8 14 8 30 -1 33 -13 40 -20 13z"/>
<path d="M387 4233 c-10 -10 -8 -53 2 -53 5 0 9 14 9 30 -1 33 -1 33 -11 23z"/>
<path d="M626 4217 c-41 -41 -33 -118 15 -142 61 -32 129 -8 129 46 0 27 -2
29 -40 29 -22 0 -40 -4 -40 -10 0 -5 13 -10 29 -10 22 0 29 -4 27 -17 -4 -28
-52 -40 -83 -23 -32 19 -42 46 -31 87 10 39 55 54 93 29 25 -17 39 -9 26 13
-5 7 -29 15 -54 18 -39 5 -49 2 -71 -20z"/>
<path d="M1440 4150 c0 -73 3 -90 15 -90 8 0 14 8 13 18 -4 56 0 62 47 62 l45
0 0 -40 c0 -26 5 -40 13 -40 9 0 12 24 13 90 0 67 -4 90 -13 90 -8 0 -13 -14
-13 -41 l0 -40 -47 3 -48 3 2 38 c1 26 -3 37 -13 37 -11 0 -14 -19 -14 -90z"/>
<path d="M2131 4216 c-35 -37 -33 -101 3 -132 50 -44 142 -22 141 33 0 25 -4
28 -37 31 -22 2 -38 -1 -38 -7 0 -6 11 -11 25 -11 18 0 25 -5 25 -20 0 -14 -9
-21 -34 -25 -42 -8 -74 8 -82 42 -17 65 40 113 97 81 34 -20 49 -6 17 16 -35
25 -90 20 -117 -8z"/>
<path d="M809 4193 c-5 -33 -3 -83 4 -105 8 -25 13 -27 56 -25 l48 2 0 68 c-1
47 -5 67 -13 67 -9 0 -14 -20 -16 -57 -3 -54 -5 -58 -28 -58 -23 0 -25 4 -28
58 -2 31 -7 57 -12 57 -6 0 -11 -3 -11 -7z"/>
<path d="M950 4130 c0 -40 4 -70 10 -70 10 0 12 7 12 65 0 65 -2 75 -12 75 -6
0 -10 -30 -10 -70z"/>
<path d="M1160 4185 c-23 -27 -23 -82 0 -105 24 -24 72 -26 90 -5 16 20 5 32
-14 16 -23 -19 -60 -10 -64 16 -3 20 2 22 45 25 42 3 48 6 45 23 -7 42 -76 62
-102 30z m78 -22 c2 -9 -8 -13 -32 -13 -34 0 -44 8 -29 24 11 11 56 2 61 -11z"/>
<path d="M1643 4192 c-22 -14 -33 -60 -22 -89 6 -15 16 -31 22 -35 20 -13 64
-9 77 7 18 21 6 29 -19 13 -24 -15 -54 -2 -59 26 -3 13 6 16 47 16 55 0 62 9
35 48 -15 22 -57 29 -81 14z m65 -29 c2 -9 -8 -13 -32 -13 -34 0 -44 8 -29 24
11 11 56 2 61 -11z"/>
<path d="M1820 4103 c0 -72 3 -93 14 -93 8 0 13 10 12 28 -1 25 2 27 31 24 39
-4 65 29 61 77 -3 43 -25 59 -75 58 l-43 -2 0 -92z m89 55 c12 -34 -2 -72 -27
-76 -23 -3 -43 29 -36 56 2 6 6 19 9 27 7 23 44 18 54 -7z"/>
<path d="M2310 4130 c0 -40 4 -70 10 -70 9 0 14 24 12 59 -1 26 17 61 33 61 8
0 15 5 15 10 0 14 -23 13 -38 -2 -9 -9 -12 -9 -12 0 0 7 -4 12 -10 12 -6 0
-10 -30 -10 -70z"/>
<path d="M2413 4193 c-7 -2 -13 -11 -13 -19 0 -17 5 -17 29 -2 19 11 51 5 51
-10 0 -4 -19 -12 -42 -18 -36 -7 -44 -13 -46 -35 -4 -36 22 -56 57 -43 18 7
32 7 43 0 10 -6 21 -6 25 -2 4 5 2 11 -4 13 -8 3 -13 23 -13 52 0 26 -5 52
-12 59 -12 12 -52 15 -75 5z m67 -69 c0 -18 -23 -44 -40 -44 -23 0 -32 13 -24
34 6 15 64 24 64 10z"/>
<path d="M2540 4103 c0 -55 4 -93 10 -93 9 0 14 20 11 47 -1 8 9 10 32 6 42
-6 60 14 60 67 0 54 -16 70 -69 68 l-44 -2 0 -93z m88 48 c6 -39 -7 -71 -28
-71 -26 0 -41 31 -34 70 6 26 11 31 33 28 19 -2 27 -10 29 -27z"/>
<path d="M2832 4188 c-23 -23 -12 -44 31 -64 50 -23 54 -38 10 -42 -19 -2 -33
1 -33 7 0 6 -4 11 -10 11 -5 0 -10 -6 -10 -14 0 -31 84 -37 100 -7 14 27 3 50
-29 57 -32 8 -53 23 -45 35 8 13 48 11 62 -3 9 -9 12 -8 12 4 0 27 -65 39 -88
16z"/>
<path d="M1303 4055 c1 -38 13 -35 19 4 1 13 -2 26 -9 28 -7 3 -11 -9 -10 -32z"/>
<path d="M1975 4073 c2 -10 4 -27 4 -38 1 -17 3 -17 11 -5 15 23 12 60 -4 60
-8 0 -13 -8 -11 -17z"/>
<path d="M359 2088 c-8 -15 -2 -131 6 -134 15 -6 150 53 150 66 0 15 -150 80
-156 68z m71 -44 c47 -19 50 -28 13 -42 -16 -5 -36 -13 -45 -17 -15 -6 -18 -1
-18 34 0 23 2 41 5 41 2 0 23 -7 45 -16z"/>
<path d="M1225 3726 l-30 -31 31 -31 31 -31 25 27 c14 15 32 30 39 33 10 4 10
6 2 6 -7 1 -25 14 -40 30 l-28 28 -30 -31z m55 -11 c10 -12 10 -15 -4 -15 -9
0 -16 7 -16 15 0 8 2 15 4 15 2 0 9 -7 16 -15z m-30 -5 c0 -5 -4 -10 -10 -10
-5 0 -10 5 -10 10 0 6 5 10 10 10 6 0 10 -4 10 -10z m0 -36 c0 -8 -4 -12 -10
-9 -5 3 -10 10 -10 16 0 5 5 9 10 9 6 0 10 -7 10 -16z m35 6 c-3 -5 -10 -10
-16 -10 -5 0 -9 5 -9 10 0 6 7 10 16 10 8 0 12 -4 9 -10z"/>
<path d="M1050 3720 c0 -6 27 -10 60 -10 33 0 60 4 60 10 0 6 -27 10 -60 10
-33 0 -60 -4 -60 -10z"/>
<path d="M1357 3683 c-14 -13 -6 -25 8 -13 12 10 19 10 28 1 8 -8 4 -18 -21
-41 -18 -16 -32 -31 -32 -34 0 -3 19 -5 43 -4 39 1 39 2 8 5 l-34 4 33 30 c26
24 30 32 20 44 -13 16 -42 20 -53 8z"/>
<path d="M1050 3660 c0 -6 27 -10 60 -10 33 0 60 4 60 10 0 6 -27 10 -60 10
-33 0 -60 -4 -60 -10z"/>
<path d="M1062 3131 c2 -7 7 -12 11 -12 12 1 9 15 -3 20 -7 2 -11 -2 -8 -8z"/>
<path d="M1075 2455 l-30 -30 31 -31 31 -31 25 27 c14 15 32 30 39 33 10 4 10
6 2 6 -7 1 -25 14 -40 29 l-28 28 -30 -31z m25 -15 c0 -5 -4 -10 -10 -10 -5 0
-10 5 -10 10 0 6 5 10 10 10 6 0 10 -4 10 -10z m35 0 c3 -5 -1 -10 -9 -10 -9
0 -16 5 -16 10 0 6 4 10 9 10 6 0 13 -4 16 -10z m-35 -30 c0 -5 -4 -10 -10
-10 -5 0 -10 5 -10 10 0 6 5 10 10 10 6 0 10 -4 10 -10z m35 0 c-3 -5 -10 -10
-16 -10 -5 0 -9 5 -9 10 0 6 7 10 16 10 8 0 12 -4 9 -10z"/>
<path d="M1069 1337 c23 -25 21 -51 -5 -61 -9 -3 -12 -11 -9 -17 5 -7 16 -3
31 12 l24 22 25 -23 c28 -27 36 -8 8 22 -15 17 -15 19 2 38 10 11 15 23 11 27
-3 4 -16 -4 -28 -17 l-22 -23 -14 21 c-8 12 -21 22 -30 22 -12 0 -11 -5 7 -23z"/>
<path d="M1100 390 c0 -25 -4 -30 -25 -30 -14 0 -25 -4 -25 -10 0 -5 11 -10
25 -10 20 0 25 -5 25 -25 0 -14 5 -25 10 -25 6 0 10 11 10 25 0 20 5 25 25 25
14 0 25 5 25 10 0 6 -11 10 -25 10 -21 0 -25 5 -25 30 0 17 -4 30 -10 30 -5 0
-10 -13 -10 -30z"/>
<path d="M2800 3320 c0 -38 -2 -70 -5 -70 -3 0 -23 9 -45 20 -48 25 -67 18
-80 -28 -20 -75 -6 -194 26 -206 8 -3 33 3 54 14 22 11 41 20 44 20 3 0 6 -35
8 -77 l3 -78 258 -3 257 -2 0 240 0 240 -260 0 -260 0 0 -70z m500 -169 l0
-219 -237 2 -238 1 -5 72 c-3 39 -9 75 -13 79 -4 5 -22 2 -40 -5 -70 -28 -75
-27 -82 20 -8 60 1 150 17 160 7 5 25 0 44 -12 60 -37 74 -24 74 67 l0 54 240
0 240 0 0 -219z"/>
<path d="M3027 3222 c-19 -21 -23 -42 -5 -24 22 22 28 12 28 -53 0 -58 -2 -65
-19 -65 -11 0 -23 -4 -26 -10 -4 -6 17 -10 54 -10 34 0 61 4 61 10 0 6 -9 10
-19 10 -24 0 -27 10 -26 93 0 55 -3 67 -16 67 -9 0 -23 -8 -32 -18z"/>
<path d="M3902 3324 c0 -36 -2 -67 -5 -70 -3 -3 -24 4 -47 16 -42 21 -43 21
-61 3 -35 -35 -32 -194 4 -230 13 -13 20 -12 57 7 23 12 44 20 46 17 2 -2 5
-37 6 -78 l3 -74 258 -3 257 -2 0 240 0 240 -259 0 -259 0 0 -66z m498 -172
l0 -219 -235 0 c-129 0 -236 2 -236 6 -2 6 -6 70 -8 119 -1 33 -25 37 -73 13
-40 -19 -43 -20 -52 -3 -15 26 -12 167 3 186 12 14 17 13 50 -6 47 -27 71 -19
72 24 1 34 5 77 7 91 1 4 108 7 237 7 l235 0 0 -218z"/>
<path d="M4114 3215 c-22 -34 -15 -122 12 -142 28 -20 62 -16 80 12 21 33 21
111 -2 136 -25 28 -70 25 -90 -6z m76 -14 c24 -45 5 -121 -29 -121 -30 0 -49
69 -31 115 11 30 45 33 60 6z"/>
<path d="M1920 3140 l0 -100 71 0 c59 0 70 -3 65 -15 -4 -12 2 -15 27 -14 18
0 27 3 21 5 -19 8 -4 44 18 44 57 0 94 114 38 116 -83 4 -80 2 -80 34 l0 30
-80 0 -80 0 0 -100z m148 0 l-2 -90 -67 0 -68 0 0 90 0 90 70 0 69 0 -2 -90z
m24 -5 c-6 -34 -12 -32 -12 6 0 16 4 28 9 25 4 -3 6 -17 3 -31z m68 15 c0 -22
-30 -80 -41 -80 -14 0 -5 56 12 77 14 16 29 17 29 3z"/>
<path d="M1961 3201 c-8 -5 -9 -11 -3 -15 6 -3 13 -2 17 4 10 16 43 12 54 -7
8 -14 4 -23 -17 -40 -15 -12 -22 -22 -16 -23 15 0 54 39 54 55 0 28 -59 45
-89 26z"/>
<path d="M1985 3081 c-7 -12 12 -24 25 -16 11 7 4 25 -10 25 -5 0 -11 -4 -15
-9z"/>
<path d="M3550 3180 c0 -25 -4 -30 -24 -30 -14 0 -28 -4 -31 -10 -4 -6 7 -10
24 -10 26 0 31 -4 31 -25 0 -14 5 -25 10 -25 6 0 10 11 10 25 0 20 5 25 25 25
14 0 25 5 25 10 0 6 -11 10 -25 10 -21 0 -25 5 -25 30 0 17 -4 30 -10 30 -5 0
-10 -13 -10 -30z"/>
<path d="M2411 3183 c8 -10 18 -21 24 -25 5 -4 0 -17 -13 -31 -28 -30 -16 -44
14 -16 l22 21 22 -22 c26 -26 41 -18 17 8 -10 10 -17 22 -17 27 0 5 7 17 17
27 24 27 7 35 -21 9 l-25 -23 -13 21 c-7 12 -19 21 -27 21 -11 0 -11 -3 0 -17z"/>
<path d="M2717 2753 c-4 -3 -7 -35 -7 -70 0 -67 -8 -75 -44 -48 -25 19 -60 19
-75 1 -18 -21 -25 -135 -12 -184 15 -54 34 -61 82 -34 21 12 40 22 43 22 3 0
7 -75 8 -167 l3 -168 1133 -3 1132 -2 0 330 0 330 -1128 0 c-621 0 -1132 -3
-1135 -7z m2241 -324 l2 -307 -1110 0 c-1022 0 -1110 1 -1114 17 -2 9 -3 70
-2 136 1 122 -7 185 -25 185 -5 0 -28 -9 -51 -21 -55 -28 -63 -18 -63 86 0
106 8 117 69 88 55 -27 65 -18 70 63 2 33 4 59 5 60 1 1 499 1 1109 0 l1107
-1 3 -306z"/>
<path d="M2992 2604 c0 -36 -3 -68 -6 -72 -4 -3 -25 5 -48 18 l-41 23 -19 -23
c-10 -12 -19 -32 -19 -44 -1 -11 -3 -37 -4 -56 -4 -47 10 -110 28 -127 13 -13
20 -12 57 7 26 13 45 18 49 12 3 -6 6 -42 5 -81 l-1 -71 258 0 259 0 0 240 0
240 -259 0 -258 0 -1 -66z m498 -174 l0 -220 -237 2 -238 3 -1 62 c-2 100 -13
110 -81 73 -34 -18 -38 -18 -46 -4 -9 15 -12 86 -8 157 1 36 26 44 67 22 43
-23 64 -14 65 27 2 35 5 78 8 91 0 4 107 7 236 7 l235 0 0 -220z"/>
<path d="M3219 2499 l-24 -20 25 5 c25 5 25 4 24 -47 -1 -29 -3 -58 -3 -64 -1
-7 -10 -13 -21 -13 -11 0 -20 -4 -20 -10 0 -5 25 -10 55 -10 30 0 55 5 55 10
0 6 -9 10 -20 10 -18 0 -20 7 -20 80 0 88 -8 97 -51 59z"/>
<path d="M4290 2606 c0 -36 -4 -67 -10 -71 -5 -3 -26 3 -46 14 -67 36 -90 -2
-82 -139 2 -47 9 -75 20 -86 15 -16 20 -15 59 4 23 12 46 19 51 16 4 -3 8 -39
8 -80 l0 -74 258 0 257 0 0 240 0 240 -257 0 -258 0 0 -64z m491 27 c3 -55 4
-400 1 -410 -3 -10 -60 -13 -238 -13 l-234 0 0 58 c0 107 -11 117 -80 82 -39
-20 -39 -20 -50 -1 -13 26 -13 157 1 182 10 20 10 20 45 0 19 -12 41 -21 49
-21 22 0 35 34 35 89 l0 51 235 0 c217 0 235 -1 236 -17z"/>
<path d="M4490 2510 c0 -5 20 -10 45 -10 l45 0 -25 -48 c-31 -59 -44 -117 -25
-110 7 2 18 24 24 49 7 25 22 61 34 81 12 19 22 38 22 42 0 3 -27 6 -60 6 -33
0 -60 -4 -60 -10z"/>
<path d="M3605 2555 c-23 -22 -25 -31 -25 -125 0 -94 2 -103 25 -125 24 -25
24 -25 239 -25 211 0 215 0 242 23 26 23 27 28 29 123 1 96 1 100 -26 127
l-27 27 -217 0 -216 0 -24 -25z m474 -16 c16 -18 19 -34 17 -116 -2 -80 -5
-98 -21 -109 -15 -11 -67 -14 -230 -14 -193 0 -213 2 -229 18 -15 18 -20 63
-17 174 2 67 7 68 246 68 204 0 215 -1 234 -21z"/>
<path d="M3735 2480 c3 -5 10 -10 16 -10 5 0 9 5 9 10 0 6 -7 10 -16 10 -8 0
-12 -4 -9 -10z"/>
<path d="M3680 2430 c0 -6 28 -10 65 -10 37 0 65 4 65 10 0 6 -28 10 -65 10
-37 0 -65 -4 -65 -10z"/>
<path d="M3735 2380 c-3 -5 1 -10 9 -10 9 0 16 5 16 10 0 6 -4 10 -9 10 -6 0
-13 -4 -16 -10z"/>
<path d="M5560 2606 c0 -36 -5 -68 -10 -71 -6 -4 -26 3 -44 14 -40 25 -60 20
-76 -20 -18 -43 -8 -185 14 -207 16 -16 19 -16 58 5 22 13 44 20 49 17 5 -3 9
-39 9 -80 l0 -74 259 0 259 0 -2 238 -1 237 -257 3 -258 2 0 -64z m495 -178
l1 -218 -238 0 -238 0 0 64 c0 103 -9 112 -81 76 l-39 -21 -10 26 c-13 34 -13
136 0 170 l10 25 48 -24 49 -25 12 25 c6 14 11 47 11 75 l0 49 237 -2 238 -3
0 -217z"/>
<path d="M5776 2501 c-25 -28 -26 -114 -1 -141 10 -11 28 -20 41 -20 21 0 53
22 55 38 0 4 3 20 5 36 14 83 -53 139 -100 87z m64 -16 c18 -22 16 -93 -4
-113 -27 -27 -50 -4 -54 52 -4 66 27 98 58 61z"/>
<path d="M6660 2600 c0 -38 -4 -70 -9 -70 -6 0 -26 10 -46 21 l-37 22 -20 -21
c-39 -39 -33 -220 8 -236 8 -3 33 3 54 14 22 11 42 20 45 20 3 0 5 -36 5 -80
l0 -80 260 0 260 0 0 240 0 240 -260 0 -260 0 0 -70z m500 -170 l0 -220 -240
0 -240 0 0 64 c0 103 -10 112 -77 76 -26 -14 -40 -17 -48 -9 -13 13 -13 185 0
198 7 7 25 3 57 -14 46 -24 48 -25 58 -6 5 11 10 45 10 75 l0 56 240 0 240 0
0 -220z"/>
<path d="M6892 2504 c-12 -8 -22 -20 -22 -27 0 -8 3 -8 12 1 22 22 28 12 28
-53 0 -58 -2 -65 -20 -65 -11 0 -20 -4 -20 -10 0 -5 25 -10 55 -10 30 0 55 5
55 10 0 6 -9 10 -19 10 -24 0 -27 11 -26 93 1 71 -4 78 -43 51z"/>
<path d="M7760 2600 c0 -39 -4 -70 -10 -70 -5 0 -24 9 -42 20 -42 25 -44 25
-64 -5 -33 -50 -23 -215 13 -229 8 -3 32 3 53 14 22 11 42 20 45 20 3 0 5 -36
5 -80 l0 -80 260 0 260 0 0 240 0 240 -260 0 -260 0 0 -70z m500 -170 l0 -220
-239 0 -239 0 0 69 c0 38 -3 74 -6 80 -11 17 -35 13 -73 -10 -19 -12 -36 -19
-39 -16 -23 22 -26 175 -4 202 10 13 17 12 49 -7 51 -29 71 -20 72 34 1 24 1
47 0 52 -7 34 6 36 244 36 l235 0 0 -220z"/>
<path d="M7980 2500 c-15 -15 -20 -33 -20 -70 0 -57 24 -90 65 -90 34 0 57 38
57 95 0 76 -55 112 -102 65z m70 -19 c24 -45 5 -121 -30 -121 -10 0 -22 5 -26
11 -11 19 -14 79 -4 105 11 29 45 32 60 5z"/>
<path d="M5209 2528 c0 -2 -2 -12 -4 -23 -2 -10 -13 -26 -24 -35 -37 -28 -31
-112 10 -125 14 -5 18 -13 15 -31 -3 -16 0 -24 10 -24 8 0 14 9 14 21 0 12 11
32 25 45 16 15 25 34 25 54 0 20 -9 40 -25 56 -14 14 -25 34 -25 44 0 11 -4
20 -10 20 -5 0 -10 -1 -11 -2z m-3 -113 c-1 -25 -5 -44 -11 -42 -13 5 -18 33
-11 63 10 39 22 27 22 -21z m48 -13 c-10 -53 -24 -47 -24 9 1 48 2 52 15 36 7
-10 11 -31 9 -45z"/>
<path d="M1973 2478 c-18 -22 -26 -71 -11 -66 7 3 15 15 18 27 8 34 23 25 40
-22 19 -55 28 -67 46 -67 12 0 44 54 44 76 0 15 -25 -5 -30 -25 -8 -36 -24
-26 -40 26 -18 62 -44 81 -67 51z"/>
<path d="M7410 2461 c0 -28 -3 -31 -31 -31 -17 0 -28 -4 -24 -10 3 -5 17 -10
31 -10 19 0 24 -5 24 -25 0 -14 5 -25 10 -25 6 0 10 11 10 25 0 20 5 25 25 25
14 0 25 5 25 10 0 6 -11 10 -25 10 -20 0 -25 5 -25 24 0 14 -4 28 -10 31 -6 4
-10 -7 -10 -24z"/>
<path d="M2320 2472 c0 -26 44 -132 55 -132 25 0 70 96 59 125 -9 23 -24 18
-24 -9 0 -30 -20 -86 -30 -86 -4 0 -11 12 -14 28 -11 44 -28 82 -37 82 -5 0
-9 -4 -9 -8z"/>
<path d="M6260 2472 c0 -5 9 -17 20 -27 l20 -18 -22 -24 c-28 -30 -15 -44 14
-15 l22 22 23 -22 c30 -28 43 -15 15 15 l-22 23 22 22 c29 29 15 42 -15 14
l-24 -22 -18 20 c-19 21 -35 26 -35 12z"/>
<path d="M1871 954 c-38 -16 -48 -47 -46 -145 1 -63 6 -93 18 -113 10 -14 21
-27 25 -27 30 -6 431 -4 448 2 47 17 54 35 54 139 0 89 -2 102 -24 126 l-23
28 -213 0 c-135 1 -223 -3 -239 -10z m441 -13 c4 -1 14 -8 22 -17 24 -23 23
-206 -1 -225 -12 -11 -65 -14 -230 -16 -266 -2 -257 -6 -259 123 -1 95 6 121
37 133 16 5 398 8 431 2z"/>
<path d="M1959 833 l21 -26 -20 -22 c-27 -29 -13 -41 17 -13 l23 21 20 -23
c11 -13 23 -20 27 -17 3 4 -1 15 -10 25 -10 10 -17 22 -17 27 0 5 7 17 17 27
23 26 7 35 -20 11 -22 -20 -22 -20 -41 -2 -29 28 -40 23 -17 -8z"/>
<path d="M6400 1880 c0 -74 -7 -83 -44 -55 -11 8 -30 15 -42 15 -37 0 -48 -26
-49 -109 0 -131 17 -156 85 -121 22 11 42 20 45 20 3 0 5 -115 5 -255 l0 -255
2133 0 2132 0 0 413 0 412 -2132 3 -2133 2 0 -70z m4242 38 c3 -11 3 -747 -1
-770 -1 -5 -950 -8 -2109 -8 l-2109 0 0 233 c0 128 -3 243 -7 255 -9 27 -25
28 -73 2 -25 -13 -41 -16 -47 -10 -15 15 -14 176 1 191 10 10 21 8 55 -9 55
-27 68 -16 69 58 1 30 3 58 6 63 2 4 951 7 2108 7 1673 0 2104 -3 2107 -12z"/>
<path d="M6682 1794 c0 -36 -2 -68 -5 -70 -2 -3 -23 5 -46 17 -33 17 -44 19
-56 9 -22 -18 -34 -74 -30 -139 5 -98 32 -121 96 -84 15 9 31 14 35 11 3 -4 6
-79 6 -167 l1 -161 1133 0 1134 0 0 325 0 325 -1134 0 -1133 0 -1 -66z m2248
-259 l0 -305 -1113 0 -1112 0 -1 154 c0 187 -4 195 -70 163 -34 -16 -47 -18
-56 -9 -17 17 -17 165 1 186 12 15 16 15 46 -4 62 -38 78 -25 79 67 l0 53
1113 0 1113 0 0 -305z"/>
<path d="M6969 1775 c-1 0 -2 -30 -3 -67 -2 -38 -5 -70 -8 -73 -3 -3 -22 4
-41 15 -21 13 -44 19 -56 15 -25 -8 -38 -63 -34 -143 5 -104 27 -122 97 -81
l36 21 1 -24 c1 -12 2 -50 3 -83 l1 -60 255 0 255 0 0 240 0 240 -252 0 c-139
0 -254 0 -254 0z m489 -238 c2 -170 0 -217 -10 -218 -36 -3 -435 -4 -449 -1
-13 3 -16 15 -14 58 2 89 -28 120 -76 78 -50 -45 -70 8 -60 156 3 38 16 42 64
19 59 -29 70 -20 71 57 1 44 5 58 18 63 10 3 115 6 235 5 l218 0 3 -217z"/>
<path d="M7182 1608 c-14 -14 -16 -38 -3 -38 5 0 11 7 15 15 3 8 14 15 24 15
11 0 25 -7 32 -15 15 -19 -1 -42 -33 -48 -19 -3 -18 -5 11 -16 40 -16 44 -48
5 -57 -19 -5 -30 -2 -39 11 -7 9 -18 14 -24 10 -8 -5 -6 -13 6 -26 19 -21 73
-26 92 -7 16 16 15 65 0 71 -10 4 -10 7 0 18 18 20 15 57 -7 69 -26 14 -64 13
-79 -2z"/>
<path d="M8260 1709 c0 -36 -3 -68 -6 -72 -3 -3 -26 4 -50 16 -42 20 -45 20
-62 4 -12 -13 -18 -39 -21 -98 -5 -129 23 -166 94 -119 38 25 45 15 45 -75 l0
-70 248 1 c136 1 252 2 258 3 8 1 11 73 10 238 l-1 238 -257 0 -258 0 0 -66z
m490 42 c3 0 5 -98 5 -216 0 -185 -2 -215 -15 -216 -45 -4 -437 -4 -447 -1 -9
3 -13 26 -13 67 0 44 -5 68 -16 79 -20 20 -21 20 -51 -4 -34 -26 -59 -25 -67
3 -11 41 -6 153 7 171 13 18 15 18 56 -5 41 -24 42 -24 56 -5 9 12 15 42 15
71 0 29 2 54 4 56 4 3 451 4 466 0z"/>
<path d="M8476 1604 c-18 -17 -21 -34 -7 -34 5 0 14 7 21 15 16 20 46 19 54
-1 9 -23 10 -22 -39 -71 -62 -61 -60 -73 15 -73 71 0 81 18 13 22 l-48 3 43
39 c43 41 55 79 30 104 -17 17 -64 15 -82 -4z"/>
<path d="M7603 1678 c-41 -11 -53 -43 -53 -141 0 -155 -3 -153 273 -152 176 1
208 3 231 18 28 19 28 20 30 145 1 70 -2 86 -20 109 l-21 27 -205 1 c-113 0
-218 -3 -235 -7z m447 -36 c15 -18 18 -39 16 -113 -2 -130 9 -125 -256 -125
-254 1 -240 -6 -240 131 0 96 9 120 45 127 11 2 109 3 219 3 192 -1 199 -2
216 -23z"/>
<path d="M7710 1580 c0 -5 5 -10 10 -10 6 0 10 5 10 10 0 6 -4 10 -10 10 -5 0
-10 -4 -10 -10z"/>
<path d="M7655 1530 c-4 -6 18 -10 59 -10 37 0 66 4 66 10 0 6 -26 10 -59 10
-33 0 -63 -4 -66 -10z"/>
<path d="M7710 1480 c0 -5 5 -10 10 -10 6 0 10 5 10 10 0 6 -4 10 -10 10 -5 0
-10 -4 -10 -10z"/>
<path d="M9744 1771 c-2 -2 -4 -32 -4 -66 0 -34 -3 -64 -6 -68 -3 -3 -26 4
-51 16 l-45 22 -19 -24 c-15 -18 -19 -39 -19 -101 0 -129 22 -155 96 -109 l33
20 6 -23 c2 -13 6 -50 7 -83 l3 -60 370 0 370 0 0 240 0 240 -368 0 c-203 0
-370 -2 -373 -4z m721 -236 l0 -219 -353 -1 -352 0 0 55 c0 101 -20 126 -70
90 -58 -41 -70 -26 -70 90 0 98 10 109 69 77 41 -22 42 -22 56 -3 9 11 15 42
15 71 0 29 2 54 4 56 3 2 161 4 353 4 l348 -1 0 -219z"/>
<path d="M9877 1677 c-13 -4 -30 -18 -37 -32 -14 -25 -18 -162 -7 -207 13 -49
40 -54 289 -54 225 1 227 1 252 25 25 23 26 30 26 122 0 88 -2 101 -23 125
l-24 27 -226 1 c-124 1 -237 -2 -250 -7z m465 -16 c4 0 14 -8 22 -17 12 -12
16 -37 16 -107 0 -51 -4 -97 -8 -103 -18 -27 -56 -31 -269 -30 -268 1 -255 -5
-257 119 -3 96 5 124 34 135 15 6 432 9 462 3z"/>
<path d="M9935 1570 c-3 -5 3 -10 13 -10 17 0 19 -6 16 -37 -2 -21 -6 -48 -9
-60 -4 -16 -1 -23 10 -23 8 0 16 10 17 23 0 12 2 27 3 32 2 6 3 22 4 38 1 22
6 27 26 27 24 0 25 -3 25 -55 0 -41 4 -57 15 -62 19 -7 34 5 19 15 -17 11 -16
92 1 98 8 4 15 10 15 15 0 12 -147 11 -155 -1z"/>
<path d="M9077 1681 c-6 -2 -22 -13 -34 -24 -21 -19 -23 -29 -23 -122 0 -88 3
-104 20 -123 12 -12 26 -23 33 -24 57 -7 409 -4 435 4 44 13 55 39 57 138 2
94 -11 134 -47 146 -23 8 -417 12 -441 5z m452 -38 c14 -17 17 -39 16 -112 -2
-132 11 -126 -251 -127 -265 -2 -253 -7 -255 121 -1 101 3 118 32 131 11 5
115 9 231 9 202 0 211 -1 227 -22z"/>
<path d="M9140 1571 c0 -5 7 -14 15 -21 20 -17 19 -29 -5 -50 -12 -10 -17 -21
-12 -24 5 -3 19 4 31 15 l22 21 25 -23 c28 -26 34 -7 7 23 -15 17 -15 19 2 38
10 11 15 23 12 27 -4 3 -15 -3 -26 -15 -18 -22 -18 -22 -36 -2 -19 21 -35 26
-35 11z"/>
<path d="M3559 1843 c-1 -10 -1 -36 0 -58 1 -63 -9 -70 -59 -44 l-43 23 -18
-23 c-19 -23 -23 -63 -19 -156 4 -75 29 -91 91 -59 17 8 34 13 37 9 4 -4 8
-73 9 -153 0 -81 2 -153 2 -159 1 -10 234 -13 1131 -13 897 0 1130 3 1131 13
1 14 1 594 0 620 -1 16 -62 17 -1131 17 -1069 0 -1130 -1 -1131 -17z m2242
-35 c0 -37 0 -559 -1 -570 0 -5 -499 -8 -1110 -8 -1050 0 -1110 1 -1111 18 0
9 -1 78 -2 152 -1 74 -7 143 -12 152 -10 17 -13 17 -50 -2 -50 -25 -62 -25
-70 1 -12 37 -8 158 5 174 11 14 17 13 47 -5 19 -11 41 -20 49 -20 18 0 35 42
33 84 -1 17 -1 37 0 44 1 9 230 12 1111 12 l1110 0 1 -32z"/>
<path d="M3840 1709 c0 -36 -3 -68 -6 -72 -3 -3 -26 4 -51 16 l-45 22 -19 -24
c-15 -18 -19 -39 -19 -101 0 -128 24 -157 95 -110 38 25 45 15 45 -75 l0 -70
255 0 c220 0 255 2 256 15 5 82 2 445 -3 453 -5 8 -81 12 -258 12 l-250 0 0
-66z m485 39 c10 -9 11 -416 1 -425 -8 -8 -456 -11 -461 -2 -2 3 -5 33 -6 67
-1 35 -8 70 -14 79 -11 15 -15 15 -49 -5 -48 -28 -64 -28 -72 3 -8 31 -1 171
8 181 4 4 28 -4 53 -17 45 -24 46 -24 61 -5 8 11 14 42 14 71 0 29 2 54 4 56
7 7 454 4 461 -3z"/>
<path d="M4068 1606 c-10 -7 -18 -19 -18 -27 0 -10 3 -10 12 -1 22 22 28 12
28 -53 0 -63 -1 -65 -25 -65 -14 0 -25 -4 -25 -10 0 -6 27 -10 61 -10 37 0 58
4 54 10 -3 6 -14 10 -24 10 -15 0 -18 10 -18 68 -1 37 -2 73 -2 80 -1 16 -21
15 -43 -2z"/>
<path d="M5134 1771 c-2 -2 -4 -35 -4 -73 0 -37 -3 -68 -6 -68 -4 0 -24 10
-46 22 -64 36 -85 8 -86 -112 0 -106 22 -136 83 -107 19 9 38 17 43 17 4 0 9
-35 12 -77 l5 -78 255 0 255 0 0 240 0 240 -253 0 c-140 0 -255 -2 -258 -4z
m479 -20 c16 -1 17 -18 17 -215 l0 -214 -22 -3 c-13 -3 -120 -4 -238 -4 l-215
0 -5 72 c-6 92 -16 102 -68 71 -34 -19 -43 -21 -54 -10 -18 18 -21 164 -4 188
13 17 15 16 48 -4 64 -40 78 -28 78 63 0 42 4 54 17 57 14 3 395 2 446 -1z"/>
<path d="M5339 1608 c-1 -7 -2 -29 -3 -48 -1 -36 -1 -36 45 -23 23 7 48 -23
42 -48 -8 -28 -29 -35 -59 -19 -30 17 -46 3 -20 -16 46 -33 106 -5 106 49 0
31 -40 62 -70 54 -16 -4 -20 0 -20 19 0 21 4 24 40 24 22 0 40 5 40 10 0 15
-100 13 -101 -2z"/>
<path d="M4470 1678 c-38 -14 -50 -48 -50 -145 0 -83 2 -95 24 -120 l24 -28
222 0 222 0 24 28 c22 25 24 37 24 123 0 87 -2 97 -25 119 -13 14 -32 26 -42
26 -75 5 -408 3 -423 -3z m449 -32 c18 -17 21 -31 21 -111 0 -137 13 -130
-239 -132 -267 -2 -261 -6 -261 132 0 135 -8 131 253 130 186 -1 208 -3 226
-19z"/>
<path d="M4580 1580 c0 -5 5 -10 10 -10 6 0 10 5 10 10 0 6 -4 10 -10 10 -5 0
-10 -4 -10 -10z"/>
<path d="M4530 1530 c0 -6 27 -10 60 -10 33 0 60 4 60 10 0 6 -27 10 -60 10
-33 0 -60 -4 -60 -10z"/>
<path d="M4580 1486 c0 -9 5 -16 10 -16 6 0 10 4 10 9 0 6 -4 13 -10 16 -5 3
-10 -1 -10 -9z"/>
<path d="M11260 1772 c-5 -2 -10 -32 -10 -66 0 -35 -3 -65 -6 -69 -4 -3 -24 4
-45 16 -64 36 -87 8 -87 -108 0 -112 22 -141 83 -112 19 9 38 17 43 17 4 0 9
-35 12 -77 l5 -78 360 0 360 0 0 240 0 240 -352 0 c-194 0 -357 -1 -363 -3z
m698 -237 l-3 -219 -330 -1 c-181 -1 -336 1 -342 3 -9 3 -13 25 -13 66 0 36
-6 70 -13 80 -13 18 -15 18 -56 -5 -42 -24 -42 -24 -57 -4 -12 15 -15 39 -12
97 4 97 13 107 66 77 55 -32 72 -18 72 61 0 47 3 59 17 62 9 2 164 3 345 3
l328 0 -2 -220z"/>
<path d="M11467 1602 c-22 -24 -23 -110 -1 -140 19 -28 57 -29 84 -2 15 15 20
33 20 70 0 37 -5 55 -20 70 -25 25 -62 26 -83 2z m72 -24 c9 -24 6 -92 -4
-108 -10 -17 -44 -11 -55 9 -24 46 -5 121 31 121 11 0 23 -10 28 -22z"/>
<path d="M11670 1575 l0 -46 36 3 c26 2 40 -2 48 -14 24 -38 -35 -78 -61 -42
-16 22 -31 9 -17 -14 14 -22 63 -27 87 -10 25 19 26 77 1 95 -11 8 -31 12 -46
9 -21 -4 -25 -2 -23 12 2 9 4 20 4 25 1 4 17 7 36 7 19 0 35 5 35 10 0 6 -22
10 -50 10 l-50 0 0 -45z"/>
<path d="M11603 1455 c0 -8 6 -15 14 -15 7 0 13 7 13 15 0 8 -6 15 -13 15 -8
0 -14 -7 -14 -15z"/>
<path d="M12574 1771 c-2 -2 -4 -28 -4 -57 0 -83 -4 -87 -57 -61 l-45 22 -19
-24 c-15 -18 -19 -39 -19 -101 0 -128 24 -157 95 -110 38 25 45 15 45 -75 l0
-70 253 1 c138 1 254 2 257 3 4 1 4 409 1 466 -1 10 -497 15 -507 6z m482 -23
c7 -8 9 -412 1 -425 -4 -6 -425 -10 -458 -4 -4 0 -9 33 -11 72 -5 84 -17 97
-66 69 -44 -26 -60 -25 -68 5 -7 29 -1 171 7 180 4 3 28 -4 54 -17 44 -21 48
-22 59 -6 7 10 14 41 15 69 1 28 3 54 5 58 5 8 453 7 462 -1z"/>
<path d="M12798 1606 c-10 -7 -18 -19 -18 -27 0 -10 3 -10 12 -1 22 22 28 12
28 -53 0 -63 -1 -65 -25 -65 -14 0 -25 -4 -25 -10 0 -6 27 -10 60 -10 33 0 60
4 60 10 0 6 -11 10 -24 10 -22 0 -23 3 -23 78 0 82 -9 96 -45 68z"/>
<path d="M6050 1609 c0 -12 -11 -30 -25 -41 -19 -15 -25 -29 -25 -58 0 -31 5
-43 25 -56 15 -10 25 -26 25 -40 0 -13 5 -24 10 -24 6 0 10 11 10 24 0 14 10
30 25 40 20 13 25 25 25 56 0 36 -19 70 -41 70 -5 0 -9 11 -9 25 0 14 -4 25
-10 25 -5 0 -10 -9 -10 -21z m-2 -94 c0 -48 -14 -60 -24 -21 -5 21 9 66 21 66
2 0 3 -20 3 -45z m52 1 c0 -12 -7 -31 -15 -42 -13 -17 -14 -15 -15 35 0 46 2
52 15 41 8 -7 15 -22 15 -34z"/>
<path d="M2815 1580 c-4 -6 -10 -24 -15 -40 -11 -40 8 -40 21 0 6 17 14 30 18
30 4 0 15 -25 25 -56 20 -64 41 -78 68 -45 19 25 24 61 8 61 -5 0 -10 -6 -10
-13 0 -7 -6 -22 -14 -32 -12 -17 -14 -16 -25 21 -7 21 -17 49 -23 62 -12 23
-42 30 -53 12z"/>
<path d="M12217 1583 c-4 -3 -7 -17 -7 -30 0 -18 -5 -23 -25 -23 -14 0 -25 -4
-25 -10 0 -5 11 -10 25 -10 20 0 25 -5 25 -25 0 -14 5 -25 10 -25 6 0 10 11
10 25 0 20 5 25 24 25 14 0 28 5 31 10 4 6 -7 10 -26 10 -26 0 -30 3 -26 19 5
21 -6 45 -16 34z"/>
<path d="M3162 1568 c21 -80 44 -128 57 -126 20 4 61 84 57 111 -5 32 -25 32
-24 0 0 -36 -20 -89 -31 -77 -4 5 -16 30 -25 57 -10 26 -22 47 -28 47 -5 0 -8
-6 -6 -12z"/>
<path d="M10860 1561 c5 -11 15 -23 21 -26 7 -5 2 -16 -12 -31 -28 -30 -17
-45 14 -16 22 20 22 20 46 1 31 -26 41 -15 13 14 l-22 23 22 22 c29 29 15 42
-15 14 l-24 -22 -18 20 c-23 26 -39 26 -25 1z"/>
<path d="M2718 957 c-40 -14 -47 -37 -48 -144 0 -105 5 -120 48 -141 9 -5 230
-8 490 -8 l474 1 24 28 c22 25 24 37 24 122 0 84 -2 97 -24 121 l-23 28 -472
0 c-260 1 -482 -2 -493 -7z m976 -32 c16 -21 23 -190 8 -211 -19 -29 -58 -32
-510 -31 -421 0 -465 1 -484 17 -19 15 -21 27 -21 102 1 101 6 122 34 134 11
5 230 9 489 9 456 0 470 -1 484 -20z"/>
<path d="M2860 879 c0 -25 -3 -29 -18 -25 -31 10 -55 -17 -55 -62 0 -52 16
-72 58 -70 26 1 35 6 37 22 6 41 -4 166 -13 166 -5 0 -9 -14 -9 -31z m-2 -85
c3 -42 -14 -69 -35 -56 -31 19 -18 106 14 100 13 -2 19 -14 21 -44z"/>
<path d="M2905 900 c-7 -11 -5 -147 3 -167 5 -16 64 -17 80 -1 17 17 15 63 -3
78 -13 10 -13 15 -1 32 23 32 2 68 -40 68 -18 0 -36 -5 -39 -10z m68 -29 c6
-23 -10 -41 -35 -41 -13 0 -18 8 -18 30 0 25 4 30 24 30 15 0 26 -7 29 -19z
m5 -90 c3 -15 -3 -30 -13 -37 -26 -20 -45 -6 -45 33 0 32 2 34 28 31 20 -2 28
-9 30 -27z"/>
<path d="M3310 841 c5 -11 15 -23 21 -26 7 -5 2 -16 -12 -31 -28 -30 -16 -45
13 -16 l22 22 23 -22 c30 -28 43 -15 15 15 l-22 23 22 22 c29 29 15 42 -15 14
l-24 -22 -18 20 c-23 26 -39 26 -25 1z"/>
<path d="M3190 782 c0 -6 -27 -13 -62 -15 l-63 -3 64 -2 c52 -2 62 -5 57 -17
-5 -13 -2 -13 20 1 13 9 23 17 22 18 -2 1 -11 8 -20 15 -11 8 -18 9 -18 3z"/>
<path d="M4235 878 c-18 -27 0 -39 19 -13 17 23 50 15 54 -12 3 -17 -3 -24
-22 -29 -30 -7 -35 -24 -7 -24 10 0 24 -7 31 -15 16 -19 -3 -45 -32 -45 -10 0
-21 7 -24 15 -6 16 -34 21 -34 7 0 -16 37 -42 59 -42 55 0 79 43 44 82 -9 10
-11 18 -5 18 6 0 14 9 17 21 16 50 -68 81 -100 37z"/>
<path d="M4388 889 c-18 -10 -25 -39 -9 -39 5 0 14 7 21 15 18 21 47 19 53 -5
4 -15 -8 -34 -44 -71 -27 -28 -47 -54 -44 -60 8 -12 115 -12 115 1 0 6 -18 10
-40 10 -22 0 -40 4 -40 8 0 5 18 25 40 45 27 24 40 44 40 61 0 39 -52 59 -92
35z"/>
<path d="M4140 790 c0 -5 14 -10 30 -10 17 0 30 5 30 10 0 6 -13 10 -30 10
-16 0 -30 -4 -30 -10z"/>
<path d="M1959 440 c-36 -21 -30 -150 7 -164 53 -20 88 13 87 84 0 74 -43 110
-94 80z m59 -22 c7 -7 12 -33 12 -58 0 -49 -13 -70 -41 -70 -21 0 -32 29 -31
83 1 51 31 74 60 45z"/>
</g>
</svg>
