<?xml version="1.0" standalone="no"?>
<!DOCTYPE svg PUBLIC "-//W3C//DTD SVG 20010904//EN"
 "http://www.w3.org/TR/2001/REC-SVG-20010904/DTD/svg10.dtd">
<svg version="1.0" xmlns="http://www.w3.org/2000/svg"
 width="1179.000000pt" height="842.000000pt" viewBox="0 0 1179.000000 842.000000"
 preserveAspectRatio="xMidYMid meet">
<metadata>
Created by potrace 1.16, written by Peter Selinger 2001-2019
</metadata>
<g transform="translate(0.000000,842.000000) scale(0.100000,-0.100000)"
fill="#000000" stroke="none">
<path d="M797 8261 c-10 -4 -58 -6 -108 -5 -81 1 -93 -1 -127 -24 -48 -33 -98
-44 -112 -26 -36 43 -95 55 -215 46 -24 -2 -67 -38 -84 -69 -8 -17 -11 -972
-11 -3978 0 -3476 1 -3959 14 -3984 9 -16 33 -37 55 -48 39 -19 68 -20 1225
-20 l1186 0 0 111 c1 61 1 326 1 589 l0 477 2828 0 2828 0 0 278 c0 152 -3
279 -7 282 -5 3 -1208 5 -2673 4 -1466 0 -2664 3 -2661 8 22 35 -68 35 4377
34 2376 -1 4321 2 4324 7 3 5 7 452 4 540 -1 15 -9 18 -44 16 -24 -2 -48 0
-53 3 -6 4 -9 109 -9 265 1 142 0 263 -2 268 -2 6 -41 10 -93 9 l-90 -1 0 272
0 272 -1010 -1 -1010 -1 -1 45 c-3 213 1 651 5 658 3 5 3 12 -1 15 -5 6 -6
120 -4 308 l1 46 153 -1 153 -1 0 280 -1 280 -30 5 -31 5 1 260 c0 243 1 260
18 260 10 0 21 5 25 12 5 8 8 479 3 539 -1 8 -839 11 -2993 12 -1646 0 -3001
1 -3010 1 -15 1 -16 20 -15 186 2 158 0 185 -13 186 -8 0 -145 1 -305 2 l-290
2 -3 197 -2 197 -392 0 c-215 1 -393 3 -396 6 -3 2 -5 90 -5 195 l0 190 -136
1 c-75 1 -148 0 -163 -1 l-27 -1 -1 188 0 188 485 0 485 0 0 206 0 206 -50 -1
c-27 0 -50 2 -50 6 0 4 -10 4 -22 0 -29 -10 -159 -9 -176 1 -6 5 -12 5 -12 0
0 -4 -55 -7 -122 -5 -68 1 -136 2 -153 1 -204 -4 -475 -2 -475 3 0 4 -10 4
-22 0 -29 -10 -159 -9 -176 1 -6 5 -12 5 -12 0 0 -4 -55 -7 -122 -5 -68 1
-136 2 -153 1 -189 -4 -476 -3 -477 2 -2 4 -11 3 -21 0z m-382 -51 c55 -38 88
-38 145 0 l45 30 1108 0 1107 0 0 -189 0 -188 -1111 1 -1111 2 -46 -32 c-55
-36 -79 -36 -136 4 -36 25 -47 27 -145 28 -58 1 -108 2 -111 3 -4 1 -5 188 -1
280 1 12 16 38 35 57 32 32 37 34 106 34 63 0 76 -4 115 -30z m0 -392 c22 -16
37 -28 35 -29 -3 0 -43 0 -90 -1 -85 -1 -139 -16 -141 -41 -1 -6 -3 -47 -4
-90 -2 -64 1 -82 17 -102 l19 -25 289 0 c354 0 335 -7 335 129 -1 129 4 126
-195 126 -88 0 -160 1 -160 2 0 2 19 15 42 30 l42 28 407 1 c428 1 422 1 414
-42 -2 -11 -4 -29 -4 -42 -1 -22 -2 -22 -31 -7 -64 33 -83 12 -82 -91 0 -100
25 -127 80 -88 13 9 26 14 29 10 3 -3 6 -30 8 -61 l2 -55 -419 0 -418 0 -42
-30 c-22 -16 -50 -30 -60 -30 -11 0 -39 14 -63 30 -42 29 -48 30 -153 30 -79
0 -111 3 -114 13 -3 10 -2 337 1 358 1 4 49 6 109 5 99 -1 110 -3 147 -28z
m1435 -160 l0 -188 -202 2 -203 3 -1 58 c-2 72 -11 84 -52 63 -46 -24 -59 -20
-65 17 -6 39 -2 121 7 136 5 7 21 4 48 -10 44 -22 56 -17 59 26 2 31 6 69 7
76 1 3 92 5 202 5 l200 1 0 -189z m-1006 96 c12 -11 16 -36 16 -94 0 -121 18
-115 -320 -115 -330 1 -310 -7 -310 114 0 118 -19 111 316 111 244 0 285 -2
298 -16z m-422 -333 c54 -37 75 -36 139 5 33 21 58 28 99 29 77 2 88 -5 84
-56 -5 -52 -7 -55 -36 -35 -50 35 -76 12 -79 -70 -3 -76 0 -99 15 -119 13 -18
14 -18 55 3 37 20 41 20 42 4 1 -9 2 -1591 3 -3515 l1 -3498 -263 3 -264 3
-29 33 c-16 18 -29 42 -30 55 -5 124 -3 7175 3 7182 4 6 49 10 110 9 98 -1
105 -3 150 -33z m1051 30 c4 -1 7 -22 5 -48 -3 -51 -4 -51 -56 -31 -30 12 -35
11 -48 -6 -22 -31 -19 -158 5 -187 l18 -23 36 21 c19 12 38 19 41 16 3 -4 6
-1585 6 -3515 l0 -3508 -358 0 -359 0 0 3516 c0 2999 -2 3517 -14 3525 -9 5
-26 1 -48 -12 -43 -26 -52 -16 -55 56 -5 106 5 121 63 88 40 -24 52 -11 52 58
l1 54 352 -1 c193 -1 355 -2 359 -3z m705 -243 c1 -158 -1 -248 -7 -248 -6 0
-27 8 -47 17 -35 17 -36 17 -50 -2 -19 -26 -19 -163 1 -189 14 -19 16 -19 50
-3 20 9 40 17 45 17 14 0 14 -5557 0 -5565 -5 -3 -20 1 -32 9 -54 38 -78 10
-78 -88 0 -66 15 -116 34 -116 6 0 25 9 43 19 17 11 34 17 37 14 10 -10 7
-221 -4 -228 -5 -3 -23 1 -39 10 -37 19 -36 19 -55 -1 -22 -21 -22 -160 -1
-188 14 -19 16 -19 50 -3 20 9 40 17 45 17 11 0 14 -222 4 -233 -4 -3 -24 3
-45 13 l-38 20 -15 -22 c-19 -26 -22 -148 -6 -179 13 -23 38 -24 68 -3 32 22
42 10 42 -52 l0 -54 -340 0 c-187 0 -340 3 -341 8 0 4 -1 1585 -2 3514 -1
2407 -5 3510 -12 3517 -8 8 -23 4 -49 -10 -53 -28 -60 -16 -57 101 1 59 12 68
57 46 46 -21 56 -12 58 51 0 27 6 50 13 53 7 3 160 5 340 5 l328 0 3 -247z
m787 -152 c9 -3 12 -151 6 -434 l-1 -62 -41 21 c-53 27 -68 14 -76 -62 -7 -75
11 -139 40 -139 12 0 31 7 41 15 31 24 36 18 36 -39 0 -51 -2 -54 -40 -80 -51
-34 -73 -33 -132 5 -46 30 -53 31 -124 27 -71 -5 -78 -7 -112 -42 l-37 -36 0
-2134 0 -2135 21 -28 c37 -50 62 -55 251 -56 l173 -1 0 -53 0 -54 -30 16 c-38
20 -66 19 -75 -2 -14 -36 -17 -110 -6 -151 9 -33 16 -42 34 -42 12 0 31 7 41
15 11 8 23 15 28 15 4 0 8 -61 8 -135 l0 -135 -385 0 c-301 0 -385 3 -386 13
0 6 -2 1227 -3 2712 -2 1485 -4 2710 -4 2723 -2 26 -21 28 -64 6 -42 -22 -51
-8 -51 77 1 85 11 100 52 76 16 -9 36 -17 45 -17 17 0 17 1 20 69 2 31 7 46
19 50 18 7 735 4 752 -3z m620 -556 c1 -91 -1 -172 -3 -180 -3 -13 -42 -15
-285 -14 -155 1 -288 2 -294 3 -9 1 -13 18 -13 49 0 71 -10 80 -60 57 -53 -24
-61 -14 -59 75 2 85 10 95 59 70 48 -24 60 -13 60 55 l0 51 297 0 298 -1 0
-165z m-785 -240 c25 -16 56 -30 70 -30 14 0 45 14 70 30 l45 30 338 0 337 0
0 -50 c0 -27 -4 -50 -8 -50 -5 0 -24 7 -41 16 -30 15 -34 15 -49 0 -25 -25
-24 -168 1 -193 17 -17 19 -17 48 0 17 9 35 17 40 17 6 0 8 -54 7 -132 l-3
-133 -340 0 -340 0 -47 -33 c-26 -17 -52 -32 -59 -32 -7 0 -35 15 -63 32 -49
32 -54 33 -156 33 l-105 0 -3 218 c-2 182 0 222 13 248 21 40 65 58 140 59 50
0 67 -5 105 -30z m6805 -235 l1 -260 -2963 0 -2963 0 0 127 c0 69 -3 133 -6
142 -8 21 -29 20 -65 -1 -40 -24 -49 -9 -49 77 0 86 9 101 49 77 56 -33 71
-20 71 59 l0 44 2963 -2 2962 -3 0 -260z m-6805 -311 c55 -37 82 -37 140 1
l45 30 373 1 c264 1 372 -2 373 -10 3 -25 -1 -89 -5 -93 -3 -3 -15 2 -28 11
-30 21 -64 20 -73 -1 -12 -31 -14 -133 -3 -163 12 -34 40 -39 76 -14 13 9 26
14 29 11 6 -7 11 -237 5 -254 -3 -10 -88 -13 -379 -13 l-374 0 -44 -30 c-24
-16 -53 -30 -65 -30 -12 0 -42 14 -67 30 -42 29 -48 30 -154 30 l-109 0 0 264
0 264 108 -2 c101 -1 109 -3 152 -32z m6756 -231 l1 -263 -2902 0 -2903 0 -1
137 c0 75 -5 141 -10 146 -5 5 -25 0 -50 -12 l-41 -22 -11 28 c-11 28 -7 132
6 153 4 7 20 3 46 -12 48 -27 59 -18 59 53 0 25 2 48 5 51 3 2 1309 4 2902 4
l2898 -1 1 -262z m-6756 -313 c25 -16 56 -30 70 -30 14 0 45 14 70 30 l45 30
468 0 467 0 0 -50 c0 -54 -10 -62 -46 -35 -48 36 -74 2 -74 -99 0 -47 5 -70
18 -86 17 -22 19 -22 50 -6 17 9 36 16 42 16 6 0 10 -47 10 -132 l0 -133 -473
0 c-471 0 -472 0 -503 -22 -61 -44 -77 -45 -136 -10 -51 31 -57 32 -160 32
l-108 0 0 262 0 263 108 0 c102 0 109 -1 152 -30z m6820 -233 l0 -262 -2840 0
-2840 0 0 75 c-1 136 -5 198 -13 206 -4 5 -22 2 -40 -5 -57 -23 -62 -20 -67
34 -5 46 2 110 13 121 2 3 21 -3 41 -12 29 -14 39 -15 49 -5 14 14 14 16 16
71 l1 40 2840 0 2840 0 0 -263z m-6820 -310 c54 -38 87 -37 144 2 l41 28 338
0 337 0 0 -48 c0 -53 -6 -57 -49 -34 -46 23 -64 2 -69 -79 -5 -73 11 -126 37
-126 9 1 27 7 41 15 14 8 28 14 33 15 4 0 7 -61 7 -135 l0 -135 -342 0 -343 0
-45 -30 c-25 -16 -51 -30 -59 -30 -8 0 -36 14 -63 30 -46 29 -54 30 -158 30
l-110 0 0 264 0 263 108 0 c103 0 109 -1 152 -30z m6508 -234 l2 -263 -2815 0
-2815 0 0 133 c0 72 -4 138 -9 146 -8 13 -15 12 -51 -4 -53 -24 -60 -15 -60
75 0 85 8 97 48 76 57 -29 72 -18 72 53 0 21 2 40 5 43 3 3 1269 5 2813 4
l2807 -1 3 -262z m-6512 -309 c59 -36 85 -36 149 2 l50 29 332 0 333 0 0 -52
c0 -57 -2 -60 -40 -38 -38 22 -56 18 -70 -15 -17 -41 -9 -155 12 -177 15 -15
19 -14 51 5 20 11 38 18 41 15 3 -4 6 -64 6 -135 l0 -128 -337 0 -338 0 -45
-30 c-25 -16 -56 -30 -70 -30 -14 0 -45 14 -70 30 -43 29 -50 30 -152 30
l-108 0 0 258 c0 142 2 261 4 263 2 2 49 4 104 4 93 0 102 -2 148 -31z m6507
27 c4 -1 7 -118 7 -261 l0 -260 -2815 0 -2815 0 0 126 c0 69 -5 134 -10 145
-11 19 -11 19 -52 -2 -52 -26 -58 -18 -58 79 0 83 9 93 60 67 43 -22 60 -7 60
55 0 25 2 49 4 51 3 3 5592 3 5619 0z m-6503 -571 c57 -38 89 -38 142 0 l41
30 334 0 333 0 0 -44 c0 -54 -10 -62 -52 -40 -31 16 -32 16 -50 -6 -34 -42
-19 -200 19 -200 8 0 25 7 38 16 13 9 29 13 35 9 12 -7 14 -254 3 -256 -5 -1
-156 -2 -338 -3 l-330 -2 -44 -32 c-24 -18 -51 -32 -60 -32 -9 0 -39 15 -66
33 -49 32 -52 33 -157 32 l-108 0 0 262 0 263 108 0 c102 0 109 -1 152 -30z
m8531 -2 c1 -40 0 -469 0 -483 -1 -14 -7661 -14 -7662 0 0 6 -1 65 -2 132 -2
144 -8 156 -63 129 -47 -22 -56 -13 -57 56 -1 76 10 112 31 103 57 -24 72 -28
78 -22 7 7 11 36 13 95 l1 22 3830 0 3830 0 1 -32z m-8531 -544 c56 -37 84
-37 141 0 l46 31 404 0 404 -1 0 -39 c1 -64 -2 -67 -46 -45 l-38 20 -17 -25
c-19 -29 -22 -141 -5 -173 14 -26 31 -28 71 -7 36 19 36 18 36 -130 l-1 -120
-408 -3 -409 -2 -43 -30 c-55 -38 -75 -38 -130 0 -42 29 -48 30 -154 30 l-111
0 0 263 0 262 108 -1 c101 -1 110 -3 152 -30z m8707 23 c7 -4 11 -93 11 -262
l0 -255 -3852 0 -3851 0 -1 135 c0 82 -5 140 -11 146 -8 8 -20 6 -41 -5 -43
-22 -62 -20 -63 7 -5 82 -4 115 5 134 l9 22 40 -20 c49 -26 60 -17 60 50 1 36
5 51 16 53 32 6 7668 1 7678 -5z m-8707 -567 c57 -38 81 -38 140 0 l47 30 429
-2 429 -3 -2 -43 c0 -24 -3 -46 -6 -48 -2 -3 -21 3 -42 13 -36 17 -37 17 -51
-2 -14 -19 -16 -30 -17 -90 0 -60 3 -82 17 -100 14 -19 15 -19 51 -2 21 10 40
15 43 12 6 -6 11 -234 5 -251 -3 -7 -136 -11 -432 -11 l-428 0 -52 -31 c-28
-18 -56 -32 -63 -32 -6 0 -34 14 -62 32 -39 24 -64 32 -106 33 -30 1 -65 3
-76 4 -12 0 -35 15 -52 32 l-31 31 -1 229 -1 229 108 0 c103 0 110 -1 153 -30z
m8824 -227 c-1 -142 -2 -261 -3 -264 0 -3 -1745 -5 -3876 -5 -3517 0 -3875 1
-3879 15 -2 9 -4 69 -4 135 0 71 -4 122 -11 129 -8 8 -21 6 -47 -7 -49 -23
-58 -12 -59 74 0 85 9 97 59 74 45 -22 54 -14 58 53 l3 53 3880 0 3880 0 -1
-257z m-9017 -278 c16 -4 55 -8 88 -9 45 -1 68 -7 90 -22 l29 -22 -99 2 c-109
2 -142 15 -163 62 -18 39 -14 49 8 21 11 -13 32 -28 47 -32z m5651 -332 l2
-263 -2635 0 -2635 0 0 134 c0 106 -3 136 -15 146 -12 10 -20 9 -40 -4 -31
-20 -51 -20 -59 0 -10 25 -7 124 4 145 10 18 11 18 47 -1 49 -26 63 -13 63 55
l0 52 2633 -1 2632 -1 3 -262z m-5653 -468 l0 -180 -203 -3 c-187 -2 -202 -1
-203 15 -5 123 -10 131 -63 102 -53 -28 -61 -15 -57 96 2 65 12 73 56 50 43
-24 58 -13 61 47 1 24 3 46 3 51 1 4 92 6 203 5 l203 -3 0 -180z m-1 -377 c-1
-95 -2 -180 -3 -188 -1 -13 -30 -15 -195 -15 -107 0 -197 3 -201 7 -4 4 -8 28
-10 55 -4 72 -4 73 -20 73 -9 0 -30 -7 -47 -16 -42 -22 -51 -8 -51 76 0 86 8
97 57 74 46 -23 60 -11 63 54 1 26 2 48 2 50 1 1 92 2 204 2 l202 0 -1 -172z
m-2 -232 c3 -10 2 -299 -1 -348 -1 -17 -18 -18 -204 -18 l-202 0 1 55 c0 31
-4 63 -11 71 -11 15 -15 15 -49 -1 -24 -12 -41 -14 -47 -8 -13 13 -17 112 -6
145 l9 27 40 -20 c50 -26 60 -17 62 54 l1 54 202 0 c137 0 203 -4 205 -11z"/>
<path d="M980 8117 c0 -18 -5 -22 -32 -22 -26 0 -34 -5 -42 -27 -6 -18 -6 -38
0 -55 8 -24 15 -28 52 -29 l42 -2 0 79 c0 46 -4 79 -10 79 -5 0 -10 -10 -10
-23z m0 -77 c0 -31 -33 -60 -45 -40 -13 21 -15 63 -4 76 18 22 49 -1 49 -36z"/>
<path d="M2333 8060 c0 -54 4 -79 11 -77 15 5 15 157 0 157 -7 0 -11 -28 -11
-80z"/>
<path d="M308 8112 c-4 -12 -2 -25 4 -28 15 -10 19 1 10 26 l-9 24 -5 -22z"/>
<path d="M347 8123 c-14 -13 -7 -43 10 -43 13 0 14 3 6 11 -6 6 -9 18 -6 25 5
15 1 18 -10 7z"/>
<path d="M540 8055 l0 -75 50 0 c28 0 50 5 50 10 0 6 -18 10 -40 10 l-40 0 0
65 c0 37 -4 65 -10 65 -6 0 -10 -32 -10 -75z"/>
<path d="M1189 8123 c-18 -4 -39 -44 -39 -72 0 -31 39 -71 69 -71 31 0 74 27
65 41 -4 6 -13 4 -24 -6 -25 -23 -61 -15 -79 16 -13 24 -13 29 2 53 18 27 72
37 79 15 2 -7 10 -10 17 -8 11 4 10 9 -3 22 -16 16 -51 20 -87 10z"/>
<path d="M1770 8120 c0 -5 11 -10 25 -10 24 0 25 -2 25 -65 0 -37 4 -65 10
-65 6 0 10 28 10 65 0 63 1 65 25 65 14 0 25 5 25 10 0 6 -27 10 -60 10 -33 0
-60 -4 -60 -10z"/>
<path d="M2508 8108 c-3 -7 -2 -38 1 -68 5 -41 10 -56 24 -58 9 -2 17 1 17 7
0 6 -4 11 -10 11 -15 0 -12 78 2 82 9 3 8 9 -4 21 -20 20 -24 21 -30 5z"/>
<path d="M671 8086 c-48 -58 21 -143 73 -90 20 20 20 68 0 88 -19 20 -58 21
-73 2z m64 -26 c10 -33 -4 -60 -31 -60 -23 0 -26 6 -26 45 0 31 3 35 26 35 16
0 27 -7 31 -20z"/>
<path d="M795 8089 c-10 -15 3 -25 16 -12 14 14 39 6 39 -13 0 -9 -11 -14 -29
-14 -32 0 -47 -23 -35 -54 7 -18 27 -21 55 -6 13 7 19 7 19 0 0 -5 7 -10 15
-10 12 0 14 7 9 27 -4 15 -8 37 -8 48 -1 11 -5 26 -9 33 -10 15 -63 16 -72 1z
m64 -58 c2 -1 -2 -8 -9 -16 -16 -19 -50 -20 -50 -1 0 20 18 25 59 17z"/>
<path d="M1320 8081 c-35 -66 19 -128 75 -87 21 15 25 67 5 90 -18 23 -67 20
-80 -3z m68 -40 c-3 -31 -6 -36 -28 -36 -20 0 -26 6 -28 28 -4 35 13 57 39 50
16 -5 19 -13 17 -42z"/>
<path d="M1439 8097 c0 -1 -1 -38 -2 -81 0 -53 3 -81 11 -84 7 -2 12 8 12 25
0 27 3 29 30 25 25 -4 31 0 40 24 15 39 3 83 -23 88 -23 4 -66 6 -68 3z m75
-49 c6 -35 -19 -65 -40 -47 -21 17 -18 77 4 82 22 5 30 -2 36 -35z"/>
<path d="M1550 8094 c0 -4 10 -34 22 -67 l22 -59 -25 -19 c-16 -12 -19 -19 -9
-19 27 0 38 14 64 84 28 74 31 86 18 86 -5 0 -14 -18 -21 -40 -14 -46 -25 -45
-41 5 -6 19 -16 35 -21 35 -5 0 -9 -3 -9 -6z"/>
<path d="M1905 8038 c0 -39 4 -58 12 -58 7 0 12 10 11 23 -2 55 3 77 17 77 8
0 15 4 15 8 0 5 -12 9 -28 9 -27 0 -27 -2 -27 -59z"/>
<path d="M1987 8093 c-15 -14 -6 -21 24 -19 18 0 34 -5 36 -11 3 -9 -6 -13
-25 -13 -36 0 -56 -22 -47 -50 7 -22 49 -28 61 -8 5 7 2 9 -8 6 -8 -4 -21 -2
-29 3 -12 7 -12 11 2 24 15 15 54 11 44 -5 -10 -16 7 -40 28 -40 16 0 18 3 9
12 -7 7 -12 28 -12 48 0 20 -5 41 -12 48 -13 13 -60 16 -71 5z"/>
<path d="M2100 8038 c0 -69 15 -77 23 -12 8 76 51 81 53 6 2 -51 3 -52 14 -52
10 0 12 42 3 92 -4 25 -8 27 -49 26 l-44 -2 0 -58z"/>
<path d="M2233 8093 c-26 -10 -13 -43 23 -58 21 -8 34 -20 31 -27 -5 -14 -9
-14 -44 -3 -14 4 -23 2 -23 -4 0 -14 44 -24 70 -16 14 5 20 13 18 28 -3 19
-19 32 -63 51 -6 3 -4 9 4 15 10 6 21 6 34 -1 22 -12 38 -1 17 12 -16 10 -47
12 -67 3z"/>
<path d="M2403 8093 c-7 -2 -13 -12 -13 -21 0 -12 3 -13 12 -4 17 17 48 15 48
-3 0 -9 -9 -15 -22 -15 -37 0 -51 -15 -44 -44 5 -19 13 -26 31 -26 13 0 27 5
30 10 4 6 -5 10 -19 10 -29 0 -36 24 -10 34 26 10 31 7 38 -24 3 -18 12 -30
21 -30 12 0 15 5 9 23 -4 12 -7 31 -6 41 3 44 -32 67 -75 49z"/>
<path d="M2580 8084 c-8 -8 -13 -28 -13 -44 0 -36 19 -60 47 -60 26 0 53 16
43 26 -3 4 -13 2 -20 -4 -10 -9 -18 -8 -33 2 -24 18 -13 30 29 30 37 1 47 24
22 50 -21 20 -59 21 -75 0z m64 -19 c4 -11 -2 -15 -24 -15 -29 0 -38 9 -23 23
12 12 41 7 47 -8z"/>
<path d="M1669 8008 c-6 -11 -3 -58 3 -58 4 0 8 14 8 30 0 25 -6 38 -11 28z"/>
<path d="M1037 7989 c6 -6 9 -18 6 -27 -4 -10 -2 -13 5 -8 18 11 14 46 -5 46
-13 0 -14 -3 -6 -11z"/>
<path d="M967 7676 c-3 -8 -2 -18 3 -21 13 -8 24 15 12 27 -6 6 -11 4 -15 -6z"/>
<path d="M1000 7670 c0 -6 30 -10 70 -10 40 0 70 4 70 10 0 6 -30 10 -70 10
-40 0 -70 -4 -70 -10z"/>
<path d="M960 7631 c0 -17 18 -21 24 -6 3 9 0 15 -9 15 -8 0 -15 -4 -15 -9z"/>
<path d="M1000 7630 c0 -6 30 -10 70 -10 40 0 70 4 70 10 0 6 -30 10 -70 10
-40 0 -70 -4 -70 -10z"/>
<path d="M1600 7720 c0 -5 16 -10 35 -10 19 0 35 -2 35 -5 0 -3 -9 -22 -20
-42 -21 -40 -27 -83 -10 -83 6 0 10 9 10 20 0 12 11 43 25 70 14 27 25 52 25
55 0 3 -22 5 -50 5 -27 0 -50 -4 -50 -10z"/>
<path d="M385 7715 c3 -21 0 -24 -24 -19 -33 7 -52 -13 -53 -55 -1 -44 18 -62
61 -58 l36 4 1 77 c0 53 -3 76 -11 76 -7 0 -11 -11 -10 -25z m-2 -55 c9 -35
-3 -61 -27 -58 -21 3 -33 36 -22 64 8 21 43 17 49 -6z"/>
<path d="M433 7658 c-1 -63 10 -78 57 -76 l40 1 0 59 c0 32 -4 58 -10 58 -5 0
-10 -17 -10 -38 0 -21 -7 -47 -15 -58 -14 -18 -16 -18 -28 -2 -8 10 -13 36
-12 58 1 25 -3 40 -10 40 -6 0 -12 -18 -12 -42z"/>
<path d="M560 7638 c0 -32 4 -58 10 -58 6 0 10 20 10 44 0 34 5 47 23 59 22
15 22 15 -10 15 l-33 -1 0 -59z"/>
<path d="M320 3809 c0 -59 1 -61 23 -55 39 9 117 46 117 55 0 8 -116 61 -132
61 -5 0 -8 -27 -8 -61z m68 15 l37 -15 -34 -15 c-46 -20 -51 -18 -51 16 0 35
-1 35 48 14z"/>
<path d="M844 3919 c-16 -17 -19 -37 -19 -110 0 -128 -9 -124 230 -126 248 -2
245 -3 245 126 0 79 -2 90 -23 109 -22 21 -32 22 -219 22 -185 0 -196 -1 -214
-21z m425 -15 c24 -30 21 -172 -5 -191 -13 -10 -65 -13 -203 -13 -226 0 -221
-3 -221 112 0 116 -6 113 224 113 178 -1 189 -2 205 -21z"/>
<path d="M920 3882 c0 -5 11 -19 25 -32 31 -29 31 -28 0 -64 -14 -16 -25 -33
-25 -38 0 -4 27 -8 61 -8 37 0 58 4 54 10 -3 6 -25 10 -47 10 l-41 0 21 23
c28 30 28 51 0 70 -22 16 -22 16 20 16 23 1 42 6 42 11 0 6 -25 10 -55 10 -30
0 -55 -4 -55 -8z"/>
<path d="M1688 7239 c-21 -17 -35 -35 -32 -40 3 -5 22 4 42 21 36 30 62 38 62
21 0 -5 -7 -14 -15 -21 -8 -7 -15 -16 -15 -21 0 -14 17 -10 35 7 15 15 17 15
34 0 10 -9 21 -13 24 -10 4 4 -1 12 -10 19 -16 12 -11 35 8 35 5 0 21 -14 36
-30 36 -40 43 -29 9 15 -28 36 -53 44 -74 23 -9 -9 -15 -9 -24 0 -19 19 -40
14 -80 -19z"/>
<path d="M1660 4280 c0 -5 4 -10 9 -10 20 0 17 -42 -5 -89 -27 -58 -14 -70 15
-14 l19 38 15 -38 c19 -43 43 -53 26 -9 -6 15 -20 51 -31 80 -11 29 -26 52
-34 52 -8 0 -14 -4 -14 -10z"/>
<path d="M1728 1241 c-44 -10 -102 -71 -68 -71 6 0 10 4 10 10 0 21 42 46 80
48 35 3 46 -2 72 -30 22 -24 29 -28 27 -14 -8 38 -72 68 -121 57z"/>
<path d="M1748 803 c10 -4 3 -17 -24 -44 -27 -28 -40 -35 -46 -26 -5 7 -8 2
-8 -15 0 -24 4 -28 28 -27 15 0 21 3 14 6 -10 4 -3 17 24 44 20 21 41 36 46
33 4 -3 8 4 8 15 0 16 -6 21 -27 20 -16 0 -22 -3 -15 -6z"/>
<path d="M1680 410 c0 -14 -7 -20 -22 -21 -17 -1 -19 -2 -5 -6 9 -2 17 -13 17
-24 0 -11 -7 -19 -17 -19 -14 0 -15 -2 -4 -9 8 -5 12 -18 8 -30 -3 -12 -1 -21
3 -21 5 0 10 10 12 22 2 13 11 24 22 26 15 3 18 -1 14 -22 -3 -14 -1 -26 3
-26 5 0 9 9 9 20 0 12 10 24 23 30 17 7 18 9 5 9 -10 1 -18 8 -18 16 0 7 8 19
18 24 10 7 12 11 4 11 -9 0 -11 7 -7 21 5 15 4 19 -4 15 -6 -4 -11 -14 -11
-22 0 -8 -9 -14 -21 -14 -16 0 -20 5 -16 20 3 11 1 20 -4 20 -5 0 -9 -9 -9
-20z m40 -52 c0 -11 -7 -18 -20 -18 -18 0 -27 19 -15 32 12 12 35 3 35 -14z"/>
<path d="M2360 6950 c0 -5 4 -10 9 -10 21 0 18 -46 -5 -91 -13 -27 -20 -49
-14 -49 5 0 18 17 29 37 l19 38 15 -38 c19 -43 43 -53 26 -9 -6 15 -20 51 -31
80 -11 29 -26 52 -34 52 -8 0 -14 -4 -14 -10z"/>
<path d="M2365 6508 c-6 -16 -9 -47 -7 -75 2 -27 45 -42 67 -23 10 9 15 9 15
1 0 -19 49 -12 60 8 19 37 10 101 -16 101 -10 0 -11 -6 -4 -26 12 -31 3 -74
-15 -74 -8 0 -16 14 -20 30 -8 35 -25 31 -25 -6 0 -19 -5 -25 -17 -22 -14 3
-18 14 -17 51 0 44 -11 63 -21 35z"/>
<path d="M2350 6190 c0 -5 5 -10 10 -10 6 0 10 5 10 10 0 6 -4 10 -10 10 -5 0
-10 -4 -10 -10z"/>
<path d="M2350 6150 c0 -5 5 -10 10 -10 6 0 10 5 10 10 0 6 -4 10 -10 10 -5 0
-10 -4 -10 -10z"/>
<path d="M2350 6090 c0 -5 5 -10 10 -10 6 0 10 5 10 10 0 6 -4 10 -10 10 -5 0
-10 -4 -10 -10z"/>
<path d="M2350 6040 c0 -5 5 -10 10 -10 6 0 10 5 10 10 0 6 -4 10 -10 10 -5 0
-10 -4 -10 -10z"/>
<path d="M2401 1587 c-9 -11 -8 -17 4 -27 10 -9 15 -9 15 -1 0 6 21 12 53 13
l52 2 -50 3 c-27 3 -52 9 -56 14 -3 6 -10 4 -18 -4z"/>
<path d="M3083 6598 c-27 -13 -33 -35 -33 -129 0 -66 3 -78 23 -97 22 -21 32
-22 219 -22 236 0 230 -3 234 118 2 86 -12 126 -48 136 -39 10 -371 5 -395 -6z
m409 -25 c14 -13 18 -31 18 -93 0 -117 9 -112 -219 -112 -233 -1 -225 -5 -224
112 1 47 7 87 14 96 9 11 48 14 202 14 163 0 193 -2 209 -17z"/>
<path d="M3155 6533 c-16 -26 -6 -123 12 -130 8 -3 19 -1 26 6 8 8 7 11 -6 11
-24 0 -24 75 1 89 15 9 15 10 0 11 -9 0 -18 7 -20 15 -2 13 -5 13 -13 -2z"/>
<path d="M3210 6459 c0 -33 4 -59 10 -59 6 0 10 20 10 45 0 31 5 47 15 51 23
9 18 22 -10 22 -24 0 -25 -3 -25 -59z"/>
<path d="M2622 6135 c-22 -19 -24 -28 -24 -109 1 -133 -6 -129 234 -128 106 0
203 1 215 1 12 1 31 11 43 23 28 31 30 174 1 209 -19 23 -21 23 -232 24 -201
1 -214 -1 -237 -20z m452 -11 c12 -12 16 -36 16 -99 0 -117 7 -113 -247 -111
-147 1 -205 4 -215 14 -8 8 -12 43 -13 98 0 74 3 88 19 100 30 22 418 20 440
-2z"/>
<path d="M2813 6090 c-3 -11 -10 -20 -16 -20 -7 0 -7 -4 1 -12 7 -7 12 -34 12
-60 0 -26 5 -48 10 -48 6 0 10 22 10 49 0 28 5 53 11 57 8 4 7 9 -2 16 -11 7
-11 11 -1 15 17 7 15 23 -4 23 -9 0 -18 -9 -21 -20z"/>
<path d="M2700 6051 c-22 -42 -2 -101 35 -101 24 0 45 12 45 26 0 11 -4 12
-19 3 -30 -20 -53 -4 -49 33 3 35 33 52 49 27 4 -7 11 -10 15 -6 12 11 -17 37
-42 37 -13 0 -28 -9 -34 -19z"/>
<path d="M3200 6046 c0 -8 5 -18 10 -21 6 -3 10 1 10 9 0 8 -4 18 -10 21 -5 3
-10 -1 -10 -9z"/>
<path d="M3240 6040 c0 -6 28 -10 64 -10 36 0 68 5 71 10 4 6 -20 10 -64 10
-41 0 -71 -4 -71 -10z"/>
<path d="M3200 5995 c0 -8 5 -15 10 -15 6 0 10 7 10 15 0 8 -4 15 -10 15 -5 0
-10 -7 -10 -15z"/>
<path d="M3235 6000 c-4 -6 22 -10 69 -10 44 0 76 4 76 10 0 6 -30 10 -69 10
-39 0 -73 -4 -76 -10z"/>
<path d="M4670 6176 c0 -62 -10 -74 -42 -52 -30 21 -55 20 -68 -3 -16 -31 -13
-153 6 -179 l15 -22 38 20 c21 10 41 16 45 13 3 -4 6 -35 6 -70 l0 -63 222 2
222 3 0 200 0 200 -222 3 -222 2 0 -54z m421 35 c3 0 6 -84 5 -186 l0 -185
-203 0 -203 0 -1 23 c-3 114 -11 127 -67 98 l-41 -21 -7 22 c-11 35 -7 139 5
151 8 8 21 6 46 -8 44 -23 56 -14 62 47 2 24 6 48 7 53 3 8 362 13 397 6z"/>
<path d="M4856 6084 c-10 -9 -16 -33 -16 -59 0 -65 40 -94 83 -62 25 18 26
106 1 124 -24 17 -49 17 -68 -3z m59 -59 c0 -41 -3 -50 -19 -53 -22 -5 -36 14
-36 50 0 42 10 59 34 56 18 -3 21 -10 21 -53z"/>
<path d="M5570 6170 c0 -63 -4 -69 -36 -45 -48 36 -78 7 -80 -79 -2 -108 26
-141 84 -100 13 9 25 14 27 12 3 -2 6 -33 7 -69 l3 -64 408 -3 407 -2 0 205 0
205 -410 0 -410 0 0 -60z m798 -143 l2 -187 -390 0 -390 0 0 59 c0 76 -14 90
-63 61 -44 -26 -50 -18 -53 68 -4 95 9 110 61 76 36 -24 55 -4 55 56 0 25 2
49 4 51 2 2 177 4 388 4 l383 -1 3 -187z"/>
<path d="M5760 6085 c-16 -19 -5 -34 12 -17 7 7 20 12 30 12 30 0 21 -38 -17
-71 -50 -44 -46 -59 16 -59 31 0 48 4 44 10 -3 6 -22 10 -41 10 l-35 0 41 38
c44 43 47 53 24 76 -20 20 -58 21 -74 1z"/>
<path d="M5879 6078 c-17 -32 -13 -100 7 -115 44 -32 84 -3 84 62 0 26 -6 50
-16 59 -22 23 -61 20 -75 -6z m67 -22 c10 -40 1 -81 -20 -84 -10 -2 -23 1 -28
6 -11 11 -14 75 -3 91 12 20 44 12 51 -13z"/>
<path d="M6006 6078 c-34 -48 -9 -128 39 -128 13 0 31 9 39 21 17 25 15 91 -4
114 -18 22 -56 18 -74 -7z m65 -10 c0 -7 3 -24 5 -38 5 -33 -17 -65 -40 -57
-23 9 -29 31 -22 72 6 29 11 35 31 35 14 0 25 -6 26 -12z"/>
<path d="M6126 6079 c-17 -25 -15 -91 4 -114 17 -20 53 -19 73 3 23 26 22 94
-1 115 -25 23 -58 21 -76 -4z m68 -15 c16 -42 3 -94 -25 -94 -31 0 -47 63 -25
98 10 17 43 15 50 -4z"/>
<path d="M6950 6176 c0 -62 -10 -74 -42 -52 -55 39 -78 11 -78 -97 0 -58 4
-77 18 -90 16 -15 20 -15 51 4 43 26 51 16 51 -63 l0 -58 315 0 315 0 0 205 0
205 -315 0 -315 0 0 -54z m608 -149 l2 -187 -297 0 -298 0 -1 61 c-1 74 -13
85 -66 58 -35 -18 -39 -18 -45 -3 -11 29 -7 144 5 156 9 9 20 7 47 -7 44 -24
57 -13 61 52 1 26 3 50 3 53 1 3 133 5 293 5 l293 0 3 -188z"/>
<path d="M7061 6146 c-27 -12 -34 -37 -36 -125 -1 -62 2 -78 19 -98 21 -23 25
-24 191 -24 232 -1 223 -1 245 21 29 29 29 176 1 211 -18 23 -22 23 -209 24
-105 0 -200 -4 -211 -9z m403 -22 c18 -17 18 -15 19 -104 1 -109 10 -105 -218
-105 -233 0 -225 -4 -225 114 0 114 -5 111 221 111 157 0 190 -3 203 -16z"/>
<path d="M7123 6077 c-4 -6 -6 -25 -4 -42 5 -39 8 -68 10 -77 2 -11 41 -10 41
1 0 5 -5 11 -11 13 -17 6 -20 77 -3 86 11 6 9 10 -6 20 -15 9 -21 9 -27 -1z"/>
<path d="M7186 6017 c2 -65 2 -67 13 -67 4 0 8 10 8 23 1 64 4 77 18 77 28 0
15 17 -13 18 -27 1 -28 -1 -26 -51z"/>
<path d="M8080 6169 c0 -54 -2 -60 -17 -54 -68 28 -73 29 -85 17 -17 -17 -23
-153 -9 -181 13 -24 47 -27 75 -6 29 22 36 10 36 -61 l0 -64 223 2 222 3 0
203 0 202 -222 0 -223 0 0 -61z m421 42 c3 0 6 -84 6 -186 l0 -185 -203 0
-204 0 0 53 c0 29 -6 61 -13 71 -13 17 -15 17 -52 -3 -49 -26 -55 -19 -55 77
0 83 9 93 60 67 43 -22 60 -7 60 55 0 25 2 49 4 51 4 3 379 4 397 0z"/>
<path d="M8278 6089 c-10 -5 -18 -14 -18 -20 0 -6 6 -6 18 0 15 8 17 3 18 -45
1 -46 -2 -54 -18 -54 -10 0 -18 -4 -18 -10 0 -5 20 -10 45 -10 25 0 45 5 45
10 0 6 -7 10 -15 10 -16 0 -18 8 -17 83 0 48 -8 55 -40 36z"/>
<path d="M9030 6176 c0 -62 -10 -74 -42 -52 -30 21 -55 20 -68 -3 -16 -31 -13
-153 6 -179 l15 -22 38 20 c21 10 41 16 45 13 3 -4 6 -35 6 -70 l0 -63 220 0
220 0 0 205 0 205 -220 0 -220 0 0 -54z m415 32 c6 -4 10 -77 10 -185 l0 -178
-204 0 -205 0 -2 59 c-3 75 -11 83 -63 57 l-40 -21 -9 32 c-11 41 -7 127 7
141 6 6 22 4 46 -8 47 -21 57 -12 59 52 0 26 4 50 8 53 9 7 381 5 393 -2z"/>
<path d="M9210 6081 c-5 -11 -10 -36 -10 -56 0 -20 5 -45 10 -56 13 -24 52
-25 73 -1 22 24 22 95 1 116 -21 22 -61 20 -74 -3z m65 -56 c0 -47 -2 -50 -25
-50 -22 0 -25 5 -28 39 -4 52 3 68 30 64 20 -3 23 -9 23 -53z"/>
<path d="M4370 6020 l0 -100 28 0 c24 1 25 2 10 14 -15 11 -18 29 -18 100 0
51 -4 86 -10 86 -6 0 -10 -40 -10 -100z"/>
<path d="M5280 6112 c0 -6 5 -12 12 -14 7 -3 12 -34 12 -89 1 -52 5 -82 11
-79 6 3 10 45 10 95 0 86 -1 90 -22 93 -13 2 -23 -1 -23 -6z"/>
<path d="M4024 6030 l0 -80 82 0 82 0 0 80 0 80 -82 0 -81 0 -1 -80z m144 0
l-2 -60 -61 0 -62 0 3 58 c1 31 2 58 3 60 1 1 28 2 61 2 l60 0 -2 -60z"/>
<path d="M4130 6065 c0 -9 5 -15 11 -13 6 2 11 8 11 13 0 5 -5 11 -11 13 -6 2
-11 -4 -11 -13z"/>
<path d="M4060 5994 c0 -9 5 -14 12 -12 18 6 21 28 4 28 -9 0 -16 -7 -16 -16z"/>
<path d="M3909 6063 c-12 -14 -12 -16 1 -11 13 5 15 -1 12 -28 -4 -31 -7 -34
-39 -34 -20 0 -32 -4 -28 -10 9 -14 58 -13 73 2 7 7 12 25 12 40 0 19 5 28 16
28 14 0 14 2 0 15 -19 19 -30 19 -47 -2z"/>
<path d="M6614 6058 c-17 -20 -17 -21 -1 -8 17 13 18 11 15 -21 -3 -30 -7 -34
-35 -37 -39 -4 -45 -22 -7 -22 44 0 64 17 64 57 0 32 2 34 18 22 14 -11 13
-10 -2 9 -11 12 -22 22 -26 22 -4 0 -15 -10 -26 -22z"/>
<path d="M8728 6074 c-5 -4 -8 -16 -8 -26 0 -11 -7 -18 -20 -18 -11 0 -20 -5
-20 -12 0 -6 3 -8 6 -5 12 11 43 -13 38 -28 -4 -8 -1 -15 5 -15 6 0 11 9 11
20 0 11 5 21 10 21 6 1 14 2 19 3 23 3 22 16 -2 16 -20 0 -26 5 -29 26 -2 14
-6 22 -10 18z"/>
<path d="M7748 6047 c20 -22 21 -24 5 -40 -9 -9 -14 -19 -10 -23 3 -3 14 1 23
10 15 15 18 15 33 1 25 -22 35 -19 17 6 -13 19 -13 24 1 45 18 28 8 32 -18 8
-17 -15 -19 -15 -34 0 -26 25 -41 19 -17 -7z"/>
<path d="M2620 5590 c-20 -20 -24 -42 -22 -135 2 -59 16 -91 46 -99 11 -3 122
-6 246 -6 124 0 235 3 246 6 32 9 47 46 48 121 2 72 -12 116 -39 127 -9 3
-127 6 -261 6 -231 0 -245 -1 -264 -20z m518 -4 c25 -8 24 -5 28 -101 4 -121
17 -115 -275 -115 -290 0 -275 -6 -277 104 -2 77 6 103 37 114 25 10 458 8
487 -2z"/>
<path d="M2883 5547 c-6 -13 -8 -29 -4 -36 4 -6 6 -31 5 -56 -1 -25 2 -45 7
-45 11 0 11 1 13 58 2 24 8 47 15 51 10 6 8 10 -5 15 -16 6 -16 8 2 21 18 14
18 14 -2 15 -12 0 -25 -10 -31 -23z"/>
<path d="M2694 5468 c0 -69 20 -80 23 -12 1 44 17 69 35 58 4 -3 8 -27 8 -55
0 -27 5 -49 10 -49 9 0 15 38 11 63 -3 18 20 46 34 41 10 -4 15 -21 15 -55 0
-28 5 -49 10 -49 7 0 10 22 8 58 l-3 57 -75 1 -75 0 -1 -58z"/>
<path d="M3270 5505 c0 -8 7 -15 15 -15 9 0 12 6 9 15 -4 8 -10 15 -15 15 -5
0 -9 -7 -9 -15z"/>
<path d="M3310 5500 c0 -6 30 -10 70 -10 40 0 70 4 70 10 0 6 -30 10 -70 10
-40 0 -70 -4 -70 -10z"/>
<path d="M3270 5455 c0 -8 5 -15 10 -15 6 0 10 7 10 15 0 8 -4 15 -10 15 -5 0
-10 -7 -10 -15z"/>
<path d="M3310 5460 c0 -6 30 -10 70 -10 40 0 70 4 70 10 0 6 -30 10 -70 10
-40 0 -70 -4 -70 -10z"/>
<path d="M4747 5683 c-4 -3 -7 -30 -7 -60 0 -29 -2 -53 -5 -53 -2 0 -20 8 -40
17 -33 16 -36 16 -53 0 -25 -26 -25 -169 1 -194 17 -17 19 -17 48 0 17 9 35
17 39 17 5 0 10 -30 12 -67 l3 -68 220 0 220 0 3 208 2 207 -218 0 c-120 0
-222 -3 -225 -7z m423 -201 l0 -188 -205 0 -205 0 0 63 c0 74 -10 83 -65 57
-19 -9 -39 -13 -43 -9 -4 3 -8 40 -9 80 -2 89 10 106 55 79 46 -27 62 -14 62
51 l0 55 205 0 205 0 0 -188z"/>
<path d="M4929 5544 c-7 -9 -13 -35 -13 -59 0 -50 17 -75 50 -75 30 0 54 35
54 81 0 58 -58 92 -91 53z m65 -20 c16 -42 3 -94 -24 -94 -11 0 -22 5 -25 11
-12 18 -13 63 -4 82 12 21 45 22 53 1z"/>
<path d="M5650 5636 c0 -30 -4 -57 -9 -61 -5 -3 -26 3 -46 12 -36 17 -37 17
-51 -2 -18 -25 -19 -163 0 -187 16 -22 30 -23 61 -2 35 23 45 10 45 -59 l0
-62 345 0 345 0 0 208 0 207 -345 0 -345 0 0 -54z m670 -154 l0 -189 -327 1
-326 1 -3 55 c-3 80 -3 80 -20 80 -9 0 -29 -8 -45 -17 -23 -14 -31 -15 -41 -5
-15 15 -15 149 -1 163 7 7 23 4 47 -7 44 -22 57 -12 61 43 2 21 4 44 4 51 1 9
73 12 326 12 l325 0 0 -188z"/>
<path d="M5829 5544 c-9 -11 -10 -20 -2 -32 7 -12 6 -23 -3 -38 -12 -17 -11
-23 2 -42 17 -24 62 -30 82 -10 14 14 16 54 2 63 -6 4 -5 13 2 25 25 40 -52
72 -83 34z m64 -30 c-6 -16 -22 -18 -43 -4 -13 9 -12 12 4 25 22 17 48 3 39
-21z m7 -55 c0 -20 -28 -39 -47 -32 -20 7 -16 51 5 55 26 6 42 -2 42 -23z"/>
<path d="M5956 5538 c-33 -47 -9 -128 38 -128 13 0 29 7 36 15 18 21 18 98 1
118 -19 24 -57 21 -75 -5z m65 -10 c1 -7 3 -22 4 -33 4 -34 -13 -65 -34 -65
-24 0 -35 31 -26 76 5 28 10 34 30 34 14 0 26 -6 26 -12z"/>
<path d="M6075 5536 c-11 -17 -15 -36 -10 -62 7 -47 21 -64 51 -64 30 0 54 35
54 81 0 64 -63 94 -95 45z m69 -12 c16 -42 3 -94 -25 -94 -31 0 -47 63 -25 98
10 17 43 15 50 -4z"/>
<path d="M6900 5630 c0 -64 -9 -73 -46 -45 -50 38 -74 5 -74 -103 1 -93 27
-123 74 -87 37 28 45 19 48 -52 l3 -68 310 0 310 0 0 205 0 205 -312 3 -313 2
0 -60z m610 -148 l0 -188 -295 0 c-201 0 -295 3 -296 10 0 6 -2 33 -3 59 -4
65 -17 76 -61 52 -45 -24 -56 -14 -57 56 -1 71 1 81 11 98 8 13 15 12 45 -4
48 -26 64 -11 62 55 l-1 50 297 0 298 0 0 -188z"/>
<path d="M6999 5592 c-19 -16 -22 -29 -24 -98 -2 -91 11 -128 50 -138 15 -4
105 -6 202 -6 171 2 176 2 199 25 22 22 24 33 24 110 0 128 6 125 -234 125
-173 0 -196 -2 -217 -18z m418 -15 c26 -25 24 -174 -2 -193 -14 -11 -64 -14
-206 -14 -183 0 -188 1 -203 22 -20 28 -22 156 -3 180 17 22 28 23 224 23 150
0 175 -3 190 -18z"/>
<path d="M7073 5535 c-7 -8 -9 -16 -4 -20 5 -3 9 -24 8 -47 -1 -41 22 -73 40
-54 4 5 2 11 -4 13 -15 6 -17 79 -3 88 6 4 5 12 -4 21 -17 17 -18 17 -33 -1z"/>
<path d="M7134 5469 c0 -38 4 -59 11 -59 6 0 12 15 12 33 1 60 3 67 18 67 8 0
15 4 15 9 0 5 -12 9 -28 9 -27 -1 -27 -3 -28 -59z"/>
<path d="M8030 5630 c0 -64 -6 -70 -45 -44 -38 25 -63 11 -71 -42 -9 -62 0
-133 20 -153 16 -15 19 -15 47 2 17 9 35 17 40 17 5 0 9 -29 9 -64 0 -42 4
-65 13 -68 10 -4 391 -3 423 1 8 1 11 59 9 199 -1 108 -3 200 -3 205 -1 4
-101 7 -222 7 l-220 0 0 -60z m427 -147 l-2 -188 -202 -1 -203 0 0 52 c0 88
-12 99 -69 67 -41 -24 -51 -9 -51 77 0 85 8 97 48 76 57 -30 72 -16 72 67 l0
37 205 0 205 0 -3 -187z"/>
<path d="M8225 5540 c-19 -21 -7 -28 13 -8 9 9 12 -1 12 -45 0 -50 -2 -57 -20
-57 -11 0 -20 -4 -20 -10 0 -5 23 -10 51 -10 31 0 48 4 44 10 -3 6 -13 10 -21
10 -11 0 -14 15 -14 65 0 71 -11 82 -45 45z"/>
<path d="M8980 5630 c0 -33 -4 -60 -10 -60 -5 0 -26 8 -46 17 -35 17 -36 17
-50 -2 -16 -22 -19 -140 -4 -179 11 -29 35 -33 64 -11 38 29 46 19 46 -53 l0
-67 220 0 c213 0 220 1 221 20 1 22 1 362 0 383 -1 9 -52 12 -221 12 l-220 0
0 -60z m425 -147 c0 -101 -2 -184 -5 -185 -3 0 -94 -2 -202 -3 -133 -1 -198 2
-199 9 -1 6 -2 34 -4 61 -1 28 -3 53 -4 58 -2 12 -32 8 -62 -10 -41 -24 -52
-9 -51 77 0 86 8 98 50 76 37 -19 62 -21 63 -3 3 22 7 72 8 90 1 16 16 17 203
15 l203 -3 0 -182z"/>
<path d="M9166 5544 c-10 -9 -16 -33 -16 -59 0 -66 40 -94 85 -61 21 15 25 97
5 121 -16 20 -55 19 -74 -1z m65 -40 c9 -45 -6 -76 -33 -72 -19 2 -24 10 -26
42 -4 51 3 68 30 64 16 -2 24 -12 29 -34z"/>
<path d="M4449 5578 c-1 -2 -3 -47 -4 -100 -2 -97 -2 -98 22 -98 25 0 31 15
10 23 -10 4 -13 26 -12 86 1 45 -2 84 -7 87 -4 3 -9 4 -9 2z"/>
<path d="M5350 5570 c0 -5 7 -10 15 -10 12 0 15 -17 15 -90 0 -53 4 -90 10
-90 6 0 10 40 10 100 l0 100 -25 0 c-14 0 -25 -4 -25 -10z"/>
<path d="M4100 5490 l0 -80 80 0 80 0 0 80 0 80 -80 0 -80 0 0 -80z m140 0 l0
-60 -59 0 c-66 0 -70 5 -62 83 l3 37 59 0 59 0 0 -60z"/>
<path d="M4200 5525 c0 -9 5 -15 11 -13 6 2 11 8 11 13 0 5 -5 11 -11 13 -6 2
-11 -4 -11 -13z"/>
<path d="M4132 5458 c6 -18 28 -21 28 -4 0 9 -7 16 -16 16 -9 0 -14 -5 -12
-12z"/>
<path d="M3982 5525 c-11 -12 -10 -15 3 -15 11 0 15 -8 12 -27 -3 -23 -9 -29
-35 -31 -39 -4 -43 -22 -4 -22 46 0 55 13 61 83 1 5 7 5 14 1 8 -5 8 -2 -2 9
-16 21 -32 21 -49 2z"/>
<path d="M6570 5525 c-9 -11 -9 -15 -1 -15 8 0 11 -11 9 -27 -2 -23 -8 -29
-35 -31 -39 -4 -45 -22 -7 -22 44 0 64 17 64 57 0 32 2 34 18 22 14 -11 13
-10 -2 9 -23 26 -29 27 -46 7z"/>
<path d="M8671 5533 c4 -27 -3 -43 -21 -43 -11 0 -20 -5 -20 -11 0 -5 4 -8 9
-4 5 3 17 -2 25 -11 9 -8 14 -20 11 -25 -4 -5 -2 -9 4 -9 5 0 11 10 13 23 2
14 9 21 20 19 9 -1 19 2 23 8 4 6 -4 10 -19 10 -21 0 -26 5 -26 25 0 14 -4 25
-10 25 -5 0 -9 -3 -9 -7z"/>
<path d="M7690 5521 c0 -5 7 -14 15 -21 14 -12 14 -15 -1 -31 -22 -24 -10 -37
14 -16 17 15 19 15 35 0 9 -9 20 -13 24 -9 4 4 -1 14 -11 22 -19 13 -19 14 -1
34 23 25 12 39 -14 16 -17 -15 -20 -15 -34 -1 -17 17 -27 19 -27 6z"/>
<path d="M2633 5057 c-30 -13 -35 -33 -35 -130 -1 -124 -25 -117 386 -117 187
0 346 4 352 8 24 15 34 54 34 127 0 66 -3 79 -23 99 l-24 24 -334 -1 c-201 0
-343 -4 -356 -10z m701 -23 c23 -23 23 -176 0 -195 -13 -11 -79 -14 -308 -14
-160 -1 -296 3 -303 8 -19 14 -4 35 21 30 30 -6 50 20 48 64 -2 43 -15 54 -62
50 l-35 -2 -1 -60 c-2 -104 1 -99 -51 -81 -26 8 -33 41 -30 127 4 94 -18 89
368 89 294 0 340 -2 353 -16z m-564 -104 c0 -43 -9 -58 -31 -53 -25 7 -30 70
-6 85 19 12 37 -4 37 -32z"/>
<path d="M2820 4918 c0 -32 4 -58 10 -58 6 0 10 20 10 45 0 34 5 47 20 55 20
11 34 -2 29 -26 -1 -5 -1 -24 0 -41 2 -49 21 -40 21 10 0 84 40 90 44 6 1 -23
7 -44 13 -46 12 -4 12 85 0 105 -10 15 -39 16 -55 0 -9 -9 -12 -9 -12 -1 0 7
-16 11 -40 10 l-40 -1 0 -58z"/>
<path d="M3011 4966 c-16 -20 -17 -72 -1 -91 16 -19 64 -19 80 0 14 17 7 19
-19 5 -13 -6 -24 -5 -36 4 -26 19 -11 34 30 30 29 -2 35 0 35 16 0 42 -63 67
-89 36z m67 -23 c2 -9 -7 -13 -27 -13 -30 0 -39 9 -24 24 11 10 46 3 51 -11z"/>
<path d="M3460 4955 c-10 -12 -10 -15 4 -15 9 0 16 7 16 15 0 8 -2 15 -4 15
-2 0 -9 -7 -16 -15z"/>
<path d="M3490 4950 c0 -6 30 -10 70 -10 40 0 70 4 70 10 0 6 -30 10 -70 10
-40 0 -70 -4 -70 -10z"/>
<path d="M3457 4916 c-3 -8 -2 -18 3 -21 13 -8 24 15 12 27 -6 6 -11 4 -15 -6z"/>
<path d="M3495 4910 c-4 -6 20 -10 64 -10 41 0 71 4 71 10 0 6 -28 10 -64 10
-36 0 -68 -4 -71 -10z"/>
<path d="M4930 5095 c0 -65 -9 -80 -36 -60 -27 20 -61 18 -74 -4 -16 -31 -13
-153 6 -179 l15 -22 38 20 c21 10 41 16 45 13 3 -4 6 -35 6 -70 l0 -63 220 0
220 0 -2 207 -3 208 -217 0 -218 0 0 -50z m421 26 c1 -3 2 -88 3 -189 l1 -182
-204 2 -204 3 -1 57 c-2 76 -12 85 -65 59 l-41 -21 -7 27 c-3 16 -7 46 -7 68
0 22 4 52 7 68 l7 27 41 -21 c56 -28 61 -21 68 92 1 14 26 16 201 15 110 0
201 -2 201 -5z"/>
<path d="M5122 5001 c-22 -14 -31 -75 -16 -110 26 -62 94 -29 94 47 0 58 -38
89 -78 63z m56 -45 c6 -49 -6 -78 -31 -74 -18 2 -23 11 -25 42 -4 52 3 68 30
64 17 -2 24 -11 26 -32z"/>
<path d="M5840 5142 c-5 -2 -10 -30 -10 -63 0 -32 -2 -59 -5 -59 -3 0 -17 7
-30 16 -60 39 -92 -7 -82 -121 7 -77 26 -94 74 -65 19 11 36 20 38 20 2 0 5
-30 7 -67 l3 -68 283 -3 282 -2 0 207 0 208 -275 0 c-151 0 -279 -1 -285 -3z
m540 -204 l0 -188 -265 0 -265 0 0 58 c0 81 -8 89 -58 63 -41 -21 -41 -21 -52
-2 -13 26 -13 127 1 152 10 20 10 20 46 -1 46 -27 63 -14 63 50 0 25 2 49 5
52 3 2 122 5 265 5 l260 0 0 -189z"/>
<path d="M6028 4996 c-24 -18 -23 -29 1 -17 17 10 19 6 20 -44 0 -48 -2 -55
-19 -55 -11 0 -20 -4 -20 -10 0 -5 23 -10 51 -10 31 0 48 4 44 10 -3 6 -13 10
-21 10 -11 0 -14 15 -14 65 0 68 -8 77 -42 51z"/>
<path d="M6140 4995 c-16 -19 -5 -34 12 -17 17 17 45 15 52 -4 4 -10 -8 -28
-34 -51 -54 -49 -52 -63 10 -63 28 0 50 5 50 10 0 6 -16 10 -35 10 -39 0 -46
14 -15 30 34 18 53 56 40 79 -13 25 -61 28 -80 6z"/>
<path d="M6960 5088 c0 -63 -8 -74 -36 -53 -53 40 -84 6 -84 -90 0 -97 31
-130 84 -90 11 8 23 15 28 15 4 0 8 -31 8 -70 l0 -70 315 0 315 0 -2 207 -3
208 -312 0 -313 0 0 -57z m610 -150 l0 -188 -294 0 -294 0 -4 60 c-6 78 -16
89 -61 62 -47 -27 -57 -15 -57 73 0 87 9 99 58 73 35 -17 38 -17 49 -1 7 9 13
38 13 63 l0 47 295 0 295 -1 0 -188z"/>
<path d="M7072 5057 c-27 -12 -32 -31 -33 -117 -2 -87 -2 -87 21 -110 19 -19
33 -20 215 -20 251 0 241 -7 236 168 -3 86 -4 87 -224 88 -117 1 -201 -2 -215
-9z m409 -24 c18 -21 19 -177 1 -195 -9 -9 -63 -12 -207 -13 -182 0 -195 1
-209 20 -18 25 -16 166 3 189 12 14 41 16 206 16 167 0 194 -2 206 -17z"/>
<path d="M7133 4986 c-6 -8 -9 -17 -5 -21 8 -8 9 -13 11 -65 1 -33 5 -40 21
-40 11 0 20 5 20 10 0 6 -4 10 -10 10 -15 0 -12 78 2 82 9 3 8 9 -4 21 -20 20
-20 20 -35 3z"/>
<path d="M7198 4962 c-6 -28 4 -102 13 -102 5 0 9 20 9 45 0 31 5 47 15 51 23
9 18 22 -10 22 -14 0 -25 -7 -27 -16z"/>
<path d="M8094 5141 c-2 -2 -4 -31 -4 -63 0 -32 -2 -58 -4 -58 -3 0 -20 9 -38
20 -18 10 -39 16 -45 12 -31 -19 -43 -120 -22 -181 12 -35 41 -41 75 -16 10 8
22 15 26 15 4 0 8 -30 10 -67 l3 -68 220 0 220 0 3 203 c1 111 -1 203 -5 203
-24 4 -435 4 -439 0z m426 -203 l0 -188 -205 0 -205 0 0 58 c0 78 -9 89 -50
68 -41 -20 -56 -20 -64 0 -10 25 -7 124 4 145 10 18 11 18 47 -1 49 -26 63
-13 63 55 l0 52 205 -1 205 0 0 -188z"/>
<path d="M8286 4994 c-22 -21 -20 -27 4 -14 19 10 20 8 20 -45 0 -48 -2 -55
-20 -55 -11 0 -20 -4 -20 -10 0 -5 23 -10 51 -10 31 0 48 4 44 10 -3 6 -13 10
-21 10 -11 0 -14 15 -14 65 0 69 -12 82 -44 49z"/>
<path d="M9040 5088 c0 -63 -8 -74 -36 -53 -53 40 -84 6 -84 -90 0 -97 31
-130 84 -90 11 8 23 15 28 15 4 0 8 -32 8 -70 l0 -70 223 2 222 3 0 203 c0
111 -2 203 -5 203 -3 1 -103 2 -222 3 l-218 1 0 -57z m422 28 c1 -6 2 -91 3
-188 l2 -178 -204 0 -203 0 0 53 c0 29 -6 62 -14 72 -13 18 -14 18 -48 -3 -47
-29 -58 -16 -58 73 0 87 9 99 58 73 35 -17 38 -17 49 -1 7 9 13 38 13 63 l0
46 200 1 c139 0 201 -3 202 -11z"/>
<path d="M9226 4994 c-20 -19 -21 -92 -2 -116 29 -39 82 -13 89 42 8 71 -45
117 -87 74z m64 -34 c13 -53 -27 -107 -51 -68 -11 16 -12 82 -2 92 15 15 47 0
53 -24z"/>
<path d="M4630 4930 l0 -100 28 0 c24 1 25 2 10 14 -15 11 -18 29 -18 100 0
51 -4 86 -10 86 -6 0 -10 -40 -10 -100z"/>
<path d="M5540 5022 c0 -6 6 -12 13 -15 8 -3 12 -29 10 -86 -1 -44 2 -83 7
-86 13 -8 16 15 16 105 -1 80 -2 85 -24 88 -12 2 -22 -1 -22 -6z"/>
<path d="M4280 4940 l0 -80 79 0 c54 0 80 4 83 13 2 6 4 41 3 77 l0 65 -83 3
-82 3 0 -81z m145 -2 l0 -58 -62 0 -62 0 0 60 1 61 61 -3 61 -3 1 -57z"/>
<path d="M4387 4984 c-8 -8 1 -24 14 -24 5 0 9 7 9 15 0 15 -12 20 -23 9z"/>
<path d="M4320 4905 c0 -9 5 -15 11 -13 6 2 11 8 11 13 0 5 -5 11 -11 13 -6 2
-11 -4 -11 -13z"/>
<path d="M4170 4975 c-9 -11 -9 -15 -1 -15 8 0 11 -11 9 -27 -2 -23 -8 -29
-35 -31 -39 -4 -45 -22 -7 -22 44 0 64 17 64 55 0 28 3 33 18 28 14 -5 13 -3
-3 10 -25 20 -30 21 -45 2z"/>
<path d="M6624 4968 c-13 -15 -13 -18 -3 -10 14 10 17 9 21 -5 9 -38 -2 -53
-38 -53 -21 0 -33 -4 -29 -10 9 -14 58 -13 73 2 7 7 12 27 12 45 0 26 3 31 18
27 14 -5 14 -3 -2 10 -26 21 -29 20 -52 -6z"/>
<path d="M8732 4966 c4 -21 1 -26 -21 -29 -25 -4 -25 -5 -4 -12 11 -4 24 -17
28 -28 7 -21 7 -21 14 3 5 15 14 24 23 22 9 -1 19 2 23 8 4 6 -4 10 -19 10
-21 0 -26 5 -26 25 0 14 -5 25 -11 25 -7 0 -9 -10 -7 -24z"/>
<path d="M7750 4974 c0 -4 8 -16 17 -26 15 -17 15 -19 -3 -32 -10 -8 -16 -18
-12 -22 5 -4 16 0 26 9 17 15 19 15 35 0 9 -9 19 -14 23 -10 3 3 -1 14 -10 23
-16 15 -16 18 0 35 21 24 10 39 -13 17 -14 -15 -18 -15 -39 -1 -13 8 -24 12
-24 7z"/>
<path d="M2621 4505 c-21 -19 -23 -29 -23 -109 0 -135 -9 -131 258 -131 215 0
216 0 235 24 28 35 28 182 -1 211 -11 11 -28 20 -37 21 -10 0 -106 1 -213 2
-183 2 -196 1 -219 -18z m454 -16 c12 -11 17 -34 17 -75 -1 -143 15 -134 -238
-134 -249 0 -243 -3 -241 115 2 115 -6 112 240 111 176 -1 209 -3 222 -17z"/>
<path d="M2699 4473 c-8 -37 -2 -153 6 -153 7 0 11 29 11 80 0 44 -4 80 -8 80
-5 0 -9 -3 -9 -7z"/>
<path d="M2768 4456 c-23 -17 -23 -25 0 -19 16 4 18 -2 17 -44 0 -37 -4 -49
-18 -51 -35 -7 -16 -22 28 -22 45 0 61 13 27 22 -16 4 -18 15 -17 67 2 63 -5
72 -37 47z"/>
<path d="M3207 4424 c-4 -4 -7 -14 -7 -23 0 -11 3 -12 11 -4 6 6 10 16 7 23
-2 6 -7 8 -11 4z"/>
<path d="M3235 4410 c-4 -6 20 -10 64 -10 38 0 73 5 76 10 4 6 -20 10 -64 10
-38 0 -73 -4 -76 -10z"/>
<path d="M3200 4364 c0 -8 5 -12 10 -9 6 3 10 10 10 16 0 5 -4 9 -10 9 -5 0
-10 -7 -10 -16z"/>
<path d="M3235 4370 c-4 -6 22 -10 70 -10 48 0 74 4 70 10 -3 6 -35 10 -70 10
-35 0 -67 -4 -70 -10z"/>
<path d="M4670 4540 c0 -33 -2 -60 -5 -60 -2 0 -21 8 -41 17 -36 17 -36 17
-55 -6 -27 -33 -27 -149 0 -182 l18 -23 36 21 c19 12 38 19 41 16 3 -4 6 -35
6 -70 l0 -63 260 0 260 0 0 205 0 205 -260 0 -260 0 0 -60z m500 -144 c0 -138
-3 -185 -12 -188 -11 -3 -452 -2 -468 1 -3 1 -5 28 -5 61 0 73 -14 87 -59 59
-41 -25 -44 -24 -54 12 -8 33 -1 133 10 145 4 3 21 -1 39 -10 18 -9 38 -16 45
-16 11 0 27 45 23 66 -1 5 -1 19 0 32 l1 22 240 0 240 0 0 -184z"/>
<path d="M4942 4458 c-18 -18 -15 -33 4 -18 13 12 15 7 12 -46 -3 -50 -6 -59
-20 -56 -10 2 -18 -2 -18 -8 0 -5 22 -10 51 -10 31 0 48 4 44 10 -3 6 -13 10
-21 10 -11 0 -14 15 -14 65 0 66 -10 81 -38 53z"/>
<path d="M4840 4380 c0 -5 11 -10 25 -10 14 0 25 5 25 10 0 6 -11 10 -25 10
-14 0 -25 -4 -25 -10z"/>
<path d="M5650 4546 c0 -30 -4 -57 -9 -60 -5 -3 -22 1 -37 9 -16 8 -34 15 -41
15 -22 0 -33 -38 -33 -114 0 -103 20 -121 86 -79 29 18 34 9 34 -64 l0 -63
220 0 220 0 0 205 0 205 -220 0 -220 0 0 -54z m425 -153 c0 -118 -3 -183 -10
-184 -5 -1 -95 -2 -199 -3 -208 -1 -197 -5 -201 68 -1 22 -3 47 -4 54 -2 17
-37 15 -67 -4 -36 -24 -47 -7 -47 76 -1 87 8 98 58 75 45 -22 57 -12 61 47 1
24 3 46 3 51 1 4 92 6 203 5 l203 -3 0 -182z"/>
<path d="M5848 4459 c-10 -5 -18 -15 -18 -21 0 -7 5 -6 15 2 13 11 15 5 15
-44 0 -42 -4 -56 -14 -56 -8 0 -18 -4 -21 -10 -4 -6 13 -10 44 -10 28 0 51 5
51 10 0 6 -8 10 -18 10 -16 0 -19 9 -19 55 -2 73 -2 75 -10 75 -5 0 -16 -5
-25 -11z"/>
<path d="M6650 4540 c0 -33 -2 -60 -5 -60 -2 0 -20 8 -40 17 -33 16 -36 16
-53 0 -24 -25 -25 -169 -1 -193 15 -14 20 -14 58 5 l41 21 0 -70 0 -70 315 0
315 0 0 205 0 205 -315 0 -315 0 0 -60z m612 -145 c0 -99 -1 -182 -1 -185 -1
-4 -555 -5 -583 -1 -5 1 -8 28 -8 61 0 71 -13 82 -67 56 -46 -22 -53 -13 -53
74 0 90 7 99 60 75 50 -23 60 -14 60 58 l0 47 296 -2 297 -3 -1 -180z"/>
<path d="M6782 4518 c-43 -12 -52 -34 -52 -128 0 -127 -5 -124 228 -125 103
-1 197 3 208 8 31 13 40 42 39 130 -2 120 -2 119 -219 121 -97 0 -189 -2 -204
-6z m394 -32 c9 -13 14 -46 14 -97 0 -110 2 -109 -225 -109 -133 0 -186 3
-199 13 -14 10 -18 29 -20 82 -3 90 2 115 27 124 11 4 103 7 204 7 171 -1 186
-2 199 -20z"/>
<path d="M6828 4448 c-3 -7 -2 -38 1 -68 5 -41 10 -56 24 -58 9 -2 17 1 17 7
0 6 -4 11 -10 11 -5 0 -10 21 -10 46 0 27 4 43 10 39 15 -9 12 4 -4 21 -18 17
-23 18 -28 2z"/>
<path d="M6890 4378 c0 -32 4 -58 10 -58 6 0 10 18 10 40 0 27 6 45 21 59 l21
20 -31 -1 -31 -1 0 -59z"/>
<path d="M7785 4591 c-3 -5 -4 -30 -3 -55 0 -25 -1 -49 -4 -52 -4 -3 -20 2
-37 10 -43 22 -50 20 -66 -18 -22 -53 -6 -186 23 -186 4 0 24 9 45 20 l37 20
1 -42 c1 -24 1 -55 1 -70 l1 -28 223 0 224 0 0 205 0 205 -219 0 c-124 0 -222
-4 -226 -9z m425 -195 c0 -167 -2 -184 -17 -188 -10 -2 -101 -3 -203 -3 -138
0 -185 4 -186 13 -1 6 -2 35 -3 62 -1 60 -17 71 -67 47 -31 -15 -34 -15 -43 1
-11 20 -9 147 2 158 4 4 24 -1 46 -11 22 -9 44 -14 50 -11 6 4 11 32 11 62 l0
54 205 0 205 0 0 -184z"/>
<path d="M7975 4450 c-19 -21 -7 -28 13 -8 9 9 12 -1 12 -45 0 -50 -2 -57 -20
-57 -11 0 -20 -4 -20 -10 0 -5 23 -10 51 -10 31 0 48 4 44 10 -3 6 -13 10 -21
10 -11 0 -14 15 -14 65 0 71 -11 82 -45 45z"/>
<path d="M8730 4540 c0 -33 -2 -60 -5 -60 -2 0 -20 8 -40 17 -33 16 -36 16
-53 0 -24 -25 -25 -169 0 -193 15 -16 19 -15 53 5 20 11 38 21 41 21 2 0 4
-31 4 -70 l0 -70 225 0 225 0 0 205 0 205 -225 0 -225 0 0 -60z m430 -144 c0
-167 -2 -184 -17 -188 -10 -2 -101 -3 -203 -3 l-185 1 -3 59 c-4 81 -13 90
-64 64 -33 -17 -42 -18 -50 -7 -10 15 -6 153 5 164 4 4 25 -1 48 -11 49 -23
59 -14 59 58 l0 47 205 0 205 0 0 -184z"/>
<path d="M8917 4452 c-37 -40 -10 -132 37 -132 31 0 46 19 51 65 9 70 -47 112
-88 67z m67 -37 c7 -37 -7 -75 -27 -75 -21 0 -37 22 -37 51 0 42 10 59 35 59
18 0 24 -7 29 -35z"/>
<path d="M4370 4390 c0 -93 1 -100 20 -100 11 0 20 5 20 10 0 6 -4 10 -10 10
-6 0 -10 37 -10 90 0 53 -4 90 -10 90 -6 0 -10 -40 -10 -100z"/>
<path d="M5363 4476 c14 -11 17 -29 17 -100 0 -51 4 -86 10 -86 6 0 10 40 10
100 l0 100 -27 0 c-25 -1 -26 -2 -10 -14z"/>
<path d="M4025 4400 l0 -80 82 0 83 0 -2 80 -1 80 -81 0 -81 0 0 -80z m144 0
l-1 -61 -61 3 -62 3 -1 58 -1 57 63 0 63 0 0 -60z"/>
<path d="M4125 4441 c-7 -12 12 -24 25 -16 11 7 4 25 -10 25 -5 0 -11 -4 -15
-9z"/>
<path d="M4060 4365 c0 -9 5 -15 11 -13 6 2 11 8 11 13 0 5 -5 11 -11 13 -6 2
-11 -4 -11 -13z"/>
<path d="M3910 4435 c-10 -12 -10 -15 2 -15 10 0 13 -8 10 -30 -4 -25 -9 -30
-33 -30 -15 0 -31 -4 -34 -10 -10 -15 61 -12 74 4 6 7 12 25 13 40 1 14 6 26
10 26 4 0 5 7 2 15 -4 8 -12 15 -19 15 -7 0 -18 -7 -25 -15z"/>
<path d="M6327 4436 c-3 -7 -1 -18 5 -24 19 -19 -1 -52 -33 -52 -16 0 -29 -4
-29 -10 0 -5 13 -10 28 -10 30 0 65 29 61 52 -3 28 1 39 14 32 8 -5 8 -2 -2 9
-16 21 -37 22 -44 3z"/>
<path d="M8429 4445 c-4 -5 -5 -18 -4 -27 2 -13 -4 -18 -21 -18 -30 0 -32 -18
-1 -22 14 -2 21 -9 21 -21 -2 -18 15 -25 17 -7 1 6 2 16 3 23 1 6 11 11 24 9
12 -2 22 2 22 7 0 6 -11 11 -24 11 -19 0 -25 6 -28 28 -2 15 -6 23 -9 17z"/>
<path d="M7457 4414 c16 -25 16 -27 -2 -40 -10 -8 -15 -17 -12 -21 4 -4 15 0
24 9 14 15 18 15 39 1 27 -17 32 -8 9 17 -14 15 -14 18 0 30 24 20 17 34 -9
17 -21 -14 -26 -14 -36 -2 -21 25 -31 16 -13 -11z"/>
<path d="M2633 3970 c-25 -10 -33 -34 -35 -105 -1 -87 2 -105 22 -125 19 -19
33 -20 225 -20 129 0 213 4 229 11 30 14 36 34 36 131 0 71 -2 78 -26 97 -25
20 -39 21 -228 20 -110 0 -211 -4 -223 -9z m444 -22 c21 -22 21 -174 0 -195
-12 -12 -52 -15 -221 -16 -249 0 -244 -3 -244 106 0 90 14 115 65 119 21 2
116 2 211 2 139 -1 177 -5 189 -16z"/>
<path d="M2694 3850 c0 -52 4 -79 10 -77 15 5 16 157 1 157 -7 0 -11 -28 -11
-80z"/>
<path d="M2754 3903 c-13 -13 -14 -18 -3 -22 7 -2 15 1 17 8 6 17 42 13 49 -5
4 -11 -8 -28 -36 -54 -22 -21 -41 -43 -41 -49 0 -7 20 -11 50 -11 28 0 50 5
50 10 0 6 -19 10 -42 10 l-41 0 36 28 c41 30 56 65 37 87 -17 20 -55 19 -76
-2z"/>
<path d="M3202 3845 c0 -19 4 -37 8 -40 4 -3 8 11 8 30 0 19 -4 37 -8 40 -4 3
-8 -11 -8 -30z"/>
<path d="M3235 3860 c3 -5 35 -10 70 -10 35 0 67 5 70 10 4 6 -22 10 -70 10
-48 0 -74 -4 -70 -10z"/>
<path d="M3240 3820 c0 -6 30 -10 70 -10 40 0 70 4 70 10 0 6 -30 10 -70 10
-40 0 -70 -4 -70 -10z"/>
<path d="M4670 4000 c0 -65 -4 -69 -52 -44 -31 16 -33 16 -50 -6 -13 -16 -18
-39 -18 -85 0 -105 25 -138 76 -100 37 28 44 19 44 -55 l0 -70 260 0 260 0 0
210 0 210 -260 0 -260 0 0 -60z m500 -150 l0 -190 -242 2 -241 3 0 52 c1 29
-5 60 -12 70 -12 16 -15 16 -49 -2 -46 -25 -55 -15 -57 61 -2 77 7 108 29 98
56 -23 72 -27 77 -22 7 6 13 48 14 91 l1 27 240 0 240 0 0 -190z"/>
<path d="M4942 3908 c-17 -17 -15 -33 3 -18 13 11 15 5 15 -43 0 -48 -3 -56
-22 -62 -22 -8 -22 -8 5 -12 15 -2 39 -2 55 0 26 4 26 4 5 12 -21 7 -23 14
-23 71 0 65 -11 79 -38 52z"/>
<path d="M4840 3830 c0 -5 11 -10 25 -10 14 0 25 5 25 10 0 6 -11 10 -25 10
-14 0 -25 -4 -25 -10z"/>
<path d="M5650 4000 c0 -65 -4 -69 -52 -44 -31 16 -33 16 -50 -6 -21 -25 -26
-147 -8 -181 13 -23 39 -25 66 -4 37 28 44 19 44 -55 l0 -70 220 0 220 0 0
210 0 210 -220 0 -220 0 0 -60z m425 -150 l0 -185 -202 -3 c-159 -2 -203 0
-204 10 -1 7 -2 34 -3 61 -3 64 -16 76 -61 52 -49 -27 -60 -13 -58 76 1 83 11
99 47 75 33 -21 66 -21 67 2 1 9 3 24 4 32 1 8 3 27 4 43 l1 27 202 -2 203 -3
0 -185z"/>
<path d="M5848 3909 c-10 -5 -18 -15 -18 -21 0 -7 5 -6 15 2 13 11 15 5 15
-44 0 -42 -4 -56 -14 -56 -8 0 -18 -4 -21 -10 -4 -6 13 -10 44 -10 28 0 51 5
51 10 0 6 -9 10 -19 10 -17 0 -19 7 -19 53 0 87 0 86 -34 66z"/>
<path d="M6650 3995 l0 -65 -41 21 c-38 19 -43 19 -57 5 -20 -20 -28 -123 -12
-170 13 -39 29 -44 70 -21 14 8 28 14 33 15 4 0 7 -31 7 -70 l0 -70 315 0 315
0 0 210 0 210 -315 0 -315 0 0 -65z m611 33 c0 -7 1 -93 2 -191 l2 -177 -297
0 -298 0 0 58 c0 81 -8 90 -60 67 -36 -16 -43 -17 -51 -4 -12 19 -11 126 1
149 10 18 12 19 44 3 52 -24 66 -13 66 52 l0 55 295 0 c229 0 295 -3 296 -12z"/>
<path d="M6752 3960 c-19 -18 -22 -31 -22 -110 0 -133 -5 -130 236 -130 238 0
234 -2 238 115 3 84 -10 127 -39 139 -9 3 -101 6 -204 6 -175 0 -189 -1 -209
-20z m424 -17 c20 -27 19 -167 -2 -187 -19 -19 1 -18 -217 -18 -148 -1 -181 2
-194 15 -20 20 -25 160 -6 187 17 24 27 25 231 23 155 -1 175 -4 188 -20z"/>
<path d="M6823 3895 c-8 -9 -9 -16 -3 -20 6 -3 10 -26 10 -51 0 -31 5 -46 15
-51 9 -3 19 -2 23 2 4 4 1 10 -5 12 -8 3 -13 23 -13 49 0 28 4 43 10 39 15 -9
12 4 -4 21 -17 17 -18 17 -33 -1z"/>
<path d="M6890 3828 c0 -32 4 -58 10 -58 6 0 10 18 10 40 0 27 6 45 21 59 l21
20 -31 -1 -31 -1 0 -59z"/>
<path d="M7785 4048 c-2 -7 -4 -29 -4 -48 2 -75 3 -74 -35 -51 -56 35 -76 14
-82 -82 -5 -97 23 -135 76 -103 17 10 33 16 36 13 3 -2 6 -33 7 -68 l2 -64
223 -3 222 -2 0 210 0 210 -220 0 c-168 0 -222 -3 -225 -12z m425 -198 l0
-190 -205 0 -205 0 0 65 c0 74 -13 88 -55 61 -40 -26 -53 -20 -60 28 -8 50 -1
114 13 128 6 6 22 1 44 -12 31 -18 37 -19 48 -5 6 8 12 37 12 65 l-1 50 205 0
204 0 0 -190z"/>
<path d="M7982 3908 c-17 -17 -15 -33 3 -18 13 11 15 5 15 -43 0 -48 -3 -56
-22 -62 -22 -8 -22 -8 5 -12 15 -2 39 -2 55 0 26 4 26 4 5 12 -21 7 -23 14
-23 71 0 65 -11 79 -38 52z"/>
<path d="M8730 3995 l0 -65 -41 21 c-36 18 -43 19 -56 6 -20 -19 -28 -113 -14
-164 13 -47 28 -53 71 -28 14 8 28 14 33 15 4 0 7 -32 7 -70 l0 -70 223 2 222
3 0 205 0 205 -222 3 -223 2 0 -65z m430 -145 l0 -190 -205 0 -205 0 0 58 c0
81 -8 90 -60 67 -36 -16 -43 -17 -51 -4 -12 19 -11 126 1 150 11 19 11 19 49
0 49 -25 61 -14 61 56 l0 53 205 0 205 0 0 -190z"/>
<path d="M8916 3898 c-34 -48 -9 -128 39 -128 13 0 31 9 39 21 17 25 15 91 -4
114 -18 22 -56 18 -74 -7z m67 -30 c6 -44 -8 -78 -32 -78 -23 0 -36 43 -25 84
4 18 13 26 29 26 18 0 24 -7 28 -32z"/>
<path d="M4370 3840 l0 -100 28 0 c24 1 25 2 10 14 -15 11 -18 29 -18 100 0
51 -4 86 -10 86 -6 0 -10 -40 -10 -100z"/>
<path d="M5363 3926 c14 -11 17 -29 17 -100 0 -51 4 -86 10 -86 6 0 10 40 10
100 l0 100 -27 0 c-25 -1 -26 -2 -10 -14z"/>
<path d="M4025 3853 l1 -78 81 -3 81 -3 1 81 1 80 -83 0 -83 0 1 -77z m145 -3
l0 -60 -63 0 -63 0 0 60 1 60 62 0 63 0 0 -60z"/>
<path d="M4130 3885 c0 -9 5 -15 11 -13 6 2 11 8 11 13 0 5 -5 11 -11 13 -6 2
-11 -4 -11 -13z"/>
<path d="M4060 3815 c0 -9 5 -15 11 -13 6 2 11 8 11 13 0 5 -5 11 -11 13 -6 2
-11 -4 -11 -13z"/>
<path d="M3904 3878 c-13 -15 -13 -18 -3 -10 14 10 17 9 21 -5 8 -35 -2 -53
-32 -53 -16 0 -32 -4 -35 -10 -11 -17 61 -11 76 6 7 9 12 29 11 46 -2 18 2 27
8 23 6 -3 7 0 4 9 -9 22 -28 20 -50 -6z"/>
<path d="M6333 3886 c4 -11 1 -13 -11 -9 -13 4 -12 2 3 -10 26 -20 10 -51 -29
-55 -35 -4 -33 -22 3 -22 31 0 53 20 58 53 2 12 8 24 14 25 14 5 -10 32 -28
32 -9 0 -13 -6 -10 -14z"/>
<path d="M8424 3891 c10 -16 -5 -41 -25 -41 -10 0 -19 -4 -19 -10 0 -5 12 -10
26 -10 19 0 25 -4 21 -15 -4 -8 -2 -17 3 -20 6 -4 10 3 10 14 0 16 6 21 25 21
14 0 25 5 25 10 0 6 -11 10 -25 10 -15 0 -25 5 -24 13 3 24 -1 37 -12 37 -5 0
-8 -4 -5 -9z"/>
<path d="M7440 3884 c0 -3 7 -12 15 -21 14 -14 14 -18 0 -39 -17 -26 -5 -33
15 -9 12 14 15 14 31 -1 25 -22 37 -10 15 15 -15 16 -15 19 -1 31 24 20 17 32
-9 15 -21 -14 -25 -14 -36 0 -12 15 -30 20 -30 9z"/>
<path d="M2621 3414 c-23 -20 -24 -27 -23 -109 2 -131 -6 -127 233 -128 107 0
206 2 220 6 36 9 49 47 46 132 -3 71 -18 114 -40 116 -7 1 -102 2 -212 3 -190
1 -201 0 -224 -20z m441 -11 c25 -23 27 -173 1 -194 -12 -11 -62 -14 -216 -15
-244 -1 -236 -5 -233 116 1 68 5 84 21 96 15 11 63 14 214 14 167 0 197 -2
213 -17z"/>
<path d="M2694 3310 c1 -48 5 -80 11 -80 15 0 13 152 -1 157 -7 2 -11 -22 -10
-77z"/>
<path d="M2752 3338 c-15 -15 -16 -63 -2 -89 16 -28 80 -23 80 7 0 11 -4 12
-19 3 -28 -18 -51 -4 -51 30 0 37 33 61 48 35 7 -13 11 -14 17 -4 16 25 -49
42 -73 18z"/>
<path d="M3186 3332 c-3 -6 -1 -14 5 -17 15 -10 25 3 12 16 -7 7 -13 7 -17 1z"/>
<path d="M3220 3320 c0 -6 30 -10 70 -10 40 0 70 4 70 10 0 6 -30 10 -70 10
-40 0 -70 -4 -70 -10z"/>
<path d="M3186 3275 c4 -8 10 -15 15 -15 5 0 9 7 9 15 0 8 -7 15 -15 15 -9 0
-12 -6 -9 -15z"/>
<path d="M3225 3280 c-4 -6 20 -10 64 -10 41 0 71 4 71 10 0 6 -28 10 -64 10
-36 0 -68 -4 -71 -10z"/>
<path d="M4810 3450 c0 -33 -3 -60 -6 -60 -3 0 -19 8 -35 17 -50 29 -76 -3
-77 -92 -1 -22 5 -56 11 -75 10 -29 16 -34 36 -32 14 2 35 11 48 19 l23 15 0
-71 0 -71 335 0 335 0 0 205 0 205 -335 0 -335 0 0 -60z m650 -142 l0 -188
-315 0 -315 0 0 60 c0 71 -13 82 -66 57 -32 -16 -34 -16 -45 5 -12 21 -9 142
4 154 4 4 25 -1 48 -11 50 -23 59 -14 59 60 l0 50 315 0 315 0 0 -187z"/>
<path d="M4931 3428 c-31 -11 -41 -41 -41 -127 0 -68 3 -84 20 -101 23 -23 9
-22 259 -22 240 1 233 -3 233 127 -1 133 7 129 -247 130 -112 0 -213 -3 -224
-7z m434 -21 c15 -11 18 -29 20 -95 4 -123 16 -117 -232 -118 -253 -2 -243 -6
-243 109 0 121 -9 117 235 117 153 0 206 -3 220 -13z"/>
<path d="M4990 3310 c0 -47 4 -80 10 -80 6 0 10 33 10 80 0 47 -4 80 -10 80
-6 0 -10 -33 -10 -80z"/>
<path d="M5056 3365 c-11 -8 -17 -18 -13 -21 4 -4 13 -1 21 5 13 11 15 5 15
-43 -1 -48 -4 -56 -20 -56 -10 0 -19 -4 -19 -10 0 -5 23 -10 51 -10 31 0 48 4
44 10 -3 6 -13 10 -21 10 -11 0 -14 15 -14 65 0 69 -8 78 -44 50z"/>
<path d="M6040 3449 c0 -54 -2 -60 -17 -54 -74 31 -74 31 -89 11 -21 -30 -19
-158 4 -185 17 -22 17 -22 54 -3 21 11 40 17 43 14 3 -3 5 -34 5 -69 l0 -63
334 0 335 0 1 205 1 205 -336 0 -335 0 0 -61z m648 -142 l2 -187 -315 0 -315
0 0 45 c0 25 1 46 2 48 1 1 -4 12 -11 25 l-12 22 -41 -21 c-48 -24 -57 -17
-59 46 -3 112 5 126 58 101 35 -17 38 -17 50 0 7 10 13 38 13 63 l0 46 312 0
313 0 3 -188z"/>
<path d="M6162 3429 c-37 -14 -45 -38 -45 -125 0 -129 -5 -126 234 -126 251 0
235 -1 259 24 17 18 20 35 20 106 0 76 -2 85 -24 105 -24 21 -34 22 -226 22
-110 0 -209 -3 -218 -6z m430 -26 c15 -13 18 -31 18 -99 0 -115 9 -111 -246
-110 -244 1 -233 -4 -230 118 2 66 5 83 21 94 15 11 64 14 219 14 172 0 202
-2 218 -17z"/>
<path d="M6214 3310 c0 -51 4 -80 11 -80 15 0 14 152 0 157 -7 2 -11 -27 -11
-77z"/>
<path d="M6274 3363 c-12 -12 -13 -18 -4 -21 7 -3 16 1 20 8 9 15 42 10 47 -7
3 -7 -14 -31 -36 -53 -23 -23 -41 -45 -41 -50 0 -6 23 -10 50 -10 28 0 50 5
50 10 0 6 -17 10 -37 10 l-37 0 37 38 c20 21 37 45 37 53 0 38 -55 52 -86 22z"/>
<path d="M7300 3450 c0 -33 -3 -60 -7 -60 -5 1 -19 7 -33 15 -38 22 -56 18
-70 -15 -16 -39 -9 -155 10 -175 13 -12 20 -12 58 5 l42 19 0 -70 0 -69 408 2
407 3 1 203 1 202 -408 0 -409 0 0 -60z m800 -142 l0 -188 -390 0 -390 0 0 51
c0 28 -5 59 -10 70 -11 19 -11 19 -49 0 -52 -27 -61 -15 -61 76 0 84 9 94 60
68 43 -22 60 -7 60 55 0 27 5 50 10 52 6 2 181 3 389 3 l380 0 1 -187z"/>
<path d="M7435 3432 c-45 -9 -55 -30 -55 -122 0 -140 -17 -132 295 -132 343 0
321 -1 345 24 17 18 20 35 20 105 0 70 -3 86 -20 103 -11 11 -26 21 -32 21
-33 3 -536 4 -553 1z m572 -35 c14 -18 18 -39 17 -97 -3 -112 13 -107 -323
-106 -329 1 -308 -7 -306 118 1 66 4 83 20 94 15 11 76 14 296 14 l278 0 18
-23z"/>
<path d="M7550 3367 c0 -18 -5 -22 -32 -22 -26 0 -34 -5 -42 -27 -6 -18 -6
-38 0 -55 8 -24 15 -28 52 -29 l42 -1 0 79 c0 45 -4 78 -10 78 -5 0 -10 -10
-10 -23z m-5 -77 c0 -28 -4 -36 -22 -38 -14 -2 -23 3 -28 17 -10 34 4 63 28
59 18 -2 22 -10 22 -38z"/>
<path d="M7600 3303 c0 -64 9 -74 55 -71 l39 3 0 55 c-1 31 -6 56 -13 58 -7 2
-11 -13 -11 -46 0 -49 -10 -64 -37 -55 -8 3 -13 23 -13 54 0 27 -4 49 -10 49
-5 0 -10 -21 -10 -47z"/>
<path d="M7720 3288 c0 -32 4 -58 10 -58 6 0 10 8 11 18 3 59 7 73 24 86 19
14 18 15 -12 14 l-33 -1 0 -59z"/>
<path d="M8673 3455 c1 -30 -2 -58 -6 -61 -3 -4 -18 1 -31 10 -54 35 -76 13
-80 -77 -4 -83 13 -128 46 -120 13 4 33 13 46 21 25 16 23 21 26 -73 l1 -50
315 -3 315 -2 0 205 0 205 -316 0 -316 0 0 -55z m608 36 c3 -1 6 -84 6 -186
l-1 -185 -296 0 -296 0 -2 56 c-2 77 -14 90 -60 64 -45 -27 -56 -17 -58 60 -3
101 9 118 61 84 40 -26 55 -12 55 50 0 30 5 56 10 58 9 3 564 2 581 -1z"/>
<path d="M8792 3426 c-35 -18 -42 -39 -42 -123 0 -70 3 -86 20 -103 23 -23 13
-22 234 -22 223 1 226 2 226 129 0 75 -12 109 -42 119 -32 11 -375 11 -396 0z
m396 -22 c20 -14 22 -24 22 -98 0 -66 -4 -87 -17 -97 -12 -11 -60 -14 -197
-16 -231 -2 -226 -4 -226 112 0 119 -8 115 213 115 149 0 187 -3 205 -16z"/>
<path d="M8854 3363 c-17 -28 -3 -127 19 -131 9 -2 17 1 17 7 0 6 -4 11 -10
11 -15 0 -12 77 3 83 8 4 9 8 1 14 -6 4 -13 14 -15 21 -3 8 -7 7 -15 -5z"/>
<path d="M8910 3288 c0 -32 4 -58 10 -58 6 0 10 10 11 23 2 52 7 68 25 82 18
13 17 14 -13 13 l-33 -1 0 -59z"/>
<path d="M9810 3457 c0 -30 -3 -56 -6 -60 -4 -3 -19 0 -35 8 -61 32 -81 9 -80
-97 0 -56 4 -76 18 -90 18 -17 20 -17 55 2 44 23 48 17 48 -66 l0 -54 220 0
220 0 0 205 0 205 -220 0 -220 0 0 -53z m421 33 c1 -3 2 -87 3 -187 l1 -183
-205 0 -206 0 -1 43 c0 81 -2 87 -23 87 -12 0 -32 -7 -46 -16 -36 -24 -47 -8
-47 75 -1 89 10 103 59 76 33 -18 37 -18 48 -3 7 9 11 36 11 60 -1 27 4 45 12
48 17 7 393 7 394 0z"/>
<path d="M10008 3369 c-22 -12 -24 -31 -3 -23 12 5 15 -4 15 -45 0 -38 -4 -51
-14 -51 -8 0 -18 -4 -21 -10 -4 -6 13 -10 44 -10 28 0 51 5 51 10 0 6 -8 10
-19 10 -16 0 -18 8 -18 62 1 64 -6 74 -35 57z"/>
<path d="M10759 3503 c-1 -5 -2 -30 -4 -56 -3 -59 -8 -64 -39 -43 -57 37 -80
11 -80 -87 1 -111 23 -133 92 -89 25 16 24 20 26 -68 l1 -55 223 -3 222 -2 0
205 0 205 -220 0 c-121 0 -221 -3 -221 -7z m409 -12 c9 -1 12 -45 12 -186 l0
-185 -204 0 -203 0 -1 54 c0 80 -8 89 -57 66 -35 -17 -41 -17 -52 -4 -9 13
-12 94 -5 152 3 17 25 15 61 -5 39 -23 50 -12 53 52 1 28 6 52 10 55 5 4 342
5 386 1z"/>
<path d="M10940 3365 c-19 -23 -21 -89 -4 -114 34 -48 94 -10 94 60 0 57 -58
92 -90 54z m65 -26 c12 -36 -3 -89 -25 -89 -32 0 -48 63 -26 98 12 19 44 14
51 -9z"/>
<path d="M6910 3358 c-11 -13 -20 -35 -20 -54 0 -64 81 -92 123 -43 56 68 -43
161 -103 97z m70 1 c0 -5 4 -8 9 -5 5 3 13 0 19 -7 12 -15 13 -67 1 -67 -5 0
-8 -5 -6 -12 1 -7 -4 -13 -10 -14 -7 -1 -14 -2 -15 -4 -10 -7 -38 -7 -38 1 0
5 -6 8 -12 7 -7 -2 -12 3 -10 10 1 6 -2 12 -7 12 -15 0 -10 54 7 73 16 19 62
24 62 6z"/>
<path d="M6930 3321 c24 -20 40 -26 40 -16 0 2 -15 12 -32 20 l-33 16 25 -20z"/>
<path d="M3899 3343 c-11 -13 -11 -15 -1 -9 10 6 13 0 10 -25 -3 -30 -7 -34
-35 -37 -39 -4 -45 -22 -7 -22 44 0 64 17 64 57 0 32 2 34 18 22 14 -11 13
-10 -2 9 -23 26 -29 27 -47 5z"/>
<path d="M8344 3344 c-17 -14 -17 -15 -1 -10 15 5 18 1 15 -27 -3 -28 -7 -32
-35 -35 -41 -4 -44 -22 -4 -22 38 0 61 23 61 61 0 22 4 28 13 23 8 -5 8 -2 -2
9 -17 21 -22 21 -47 1z"/>
<path d="M10450 3336 c0 -21 -5 -26 -26 -26 -15 0 -23 -4 -19 -10 4 -6 14 -9
23 -8 11 2 18 -5 20 -19 2 -13 8 -23 14 -23 5 0 8 7 4 15 -5 15 26 39 38 28 3
-3 6 -1 6 5 0 7 -11 12 -24 12 -19 0 -23 4 -19 19 3 10 0 22 -6 25 -7 5 -11
-3 -11 -18z"/>
<path d="M9473 3332 c21 -23 21 -36 2 -52 -24 -20 -10 -24 18 -6 22 15 26 15
37 1 7 -8 17 -15 23 -15 6 0 0 11 -12 24 l-22 24 22 16 c13 8 20 19 16 22 -4
4 -16 -1 -27 -11 -19 -17 -21 -17 -38 -2 -25 23 -39 22 -19 -1z"/>
<path d="M5745 3320 c-3 -5 -31 -10 -61 -10 -30 0 -54 -4 -54 -10 0 -5 24 -10
54 -10 30 0 58 -4 61 -10 11 -18 43 -11 50 11 10 30 -34 55 -50 29z m35 -20
c0 -5 -7 -10 -15 -10 -8 0 -15 5 -15 10 0 6 7 10 15 10 8 0 15 -4 15 -10z"/>
<path d="M4385 3300 c-12 -39 47 -72 61 -35 5 11 23 15 68 16 37 0 54 3 42 8
-10 4 -35 6 -56 4 -24 -2 -42 3 -50 12 -18 22 -57 19 -65 -5z m52 -6 c3 -8 1
-20 -6 -27 -14 -14 -47 15 -37 32 10 16 36 13 43 -5z"/>
<path d="M3994 3288 c-3 -4 47 -8 111 -8 64 0 114 4 111 8 -3 5 -53 9 -111 9
-58 0 -108 -4 -111 -9z"/>
<path d="M2621 2873 c-17 -15 -22 -30 -22 -78 -2 -103 0 -121 21 -143 20 -22
26 -22 290 -22 180 0 277 4 294 11 33 15 42 48 41 138 -2 115 11 111 -325 111
-250 0 -280 -2 -299 -17z m566 -2 c31 -3 43 -33 43 -104 0 -122 13 -117 -276
-117 l-244 0 4 23 c2 17 9 21 28 19 32 -4 50 19 50 63 0 46 -4 49 -56 51 l-43
2 1 -77 c1 -75 1 -76 -26 -79 -41 -5 -57 28 -54 113 4 96 3 92 31 102 19 6
481 10 542 4z m-417 -116 c0 -37 -19 -58 -39 -45 -17 10 -17 70 0 81 22 13 39
-2 39 -36z"/>
<path d="M2820 2748 c0 -32 4 -58 10 -58 6 0 10 22 10 49 0 32 5 51 14 54 22
9 36 -14 36 -60 0 -24 5 -43 10 -43 6 0 10 20 10 44 0 78 41 84 46 6 3 -49 3
-50 13 -50 10 0 8 90 -3 108 -9 15 -42 16 -51 2 -5 -7 -11 -8 -19 -1 -6 5 -26
9 -44 9 l-32 -1 0 -59z"/>
<path d="M3336 2793 c-11 -11 -6 -23 9 -23 8 0 15 4 15 9 0 13 -16 22 -24 14z"/>
<path d="M3370 2780 c0 -6 30 -10 70 -10 40 0 70 4 70 10 0 6 -30 10 -70 10
-40 0 -70 -4 -70 -10z"/>
<path d="M3332 2739 c2 -6 8 -10 13 -10 5 0 11 4 13 10 2 6 -4 11 -13 11 -9 0
-15 -5 -13 -11z"/>
<path d="M3370 2740 c0 -6 30 -10 70 -10 40 0 70 4 70 10 0 6 -30 10 -70 10
-40 0 -70 -4 -70 -10z"/>
<path d="M4960 2910 c0 -65 -4 -69 -52 -44 -31 16 -32 16 -51 -7 -25 -32 -21
-159 6 -186 17 -17 19 -17 48 0 17 9 35 17 39 17 5 0 10 -30 12 -67 l3 -68
210 -1 c116 0 215 1 221 3 8 3 11 66 10 206 l-1 202 -222 3 -223 2 0 -60z
m430 -148 l0 -188 -205 0 -205 -1 0 53 c0 87 -14 101 -71 67 -15 -9 -32 -14
-36 -9 -12 12 -15 149 -4 166 9 13 14 13 40 -3 56 -33 71 -20 71 59 l0 44 205
0 205 0 0 -188z"/>
<path d="M5147 2822 c-37 -40 -10 -132 37 -132 33 0 51 26 51 75 0 23 -6 49
-14 58 -18 22 -54 21 -74 -1z m66 -38 c7 -43 -6 -74 -32 -74 -21 0 -31 19 -31
55 0 38 11 55 35 55 18 0 24 -7 28 -36z"/>
<path d="M5969 2968 c-1 -2 -3 -27 -4 -56 -2 -29 -5 -55 -7 -58 -3 -2 -22 3
-43 12 -22 9 -41 12 -46 7 -38 -38 -27 -213 12 -213 5 0 24 7 40 16 17 8 33
13 37 10 3 -4 6 -33 6 -66 0 -33 3 -61 6 -61 15 -4 897 -5 908 -1 9 3 12 54
12 208 l0 204 -460 0 c-253 0 -460 -1 -461 -2z m903 -34 c2 -9 1 -94 -2 -188
l-5 -171 -440 0 -440 0 -3 60 c-3 75 -11 84 -58 61 -27 -12 -40 -14 -48 -6
-16 16 -18 134 -3 154 12 17 15 17 50 0 48 -23 60 -12 60 55 l0 51 443 0 c401
0 443 -2 446 -16z"/>
<path d="M6062 2865 c-16 -21 -20 -40 -19 -107 0 -72 3 -85 23 -105 l23 -23
328 0 c180 0 338 3 349 6 35 9 49 49 47 137 -2 125 24 117 -388 117 l-344 0
-19 -25z m722 -11 c20 -26 20 -151 0 -181 l-14 -23 -305 0 -305 0 0 23 c0 18
5 22 32 22 26 0 34 5 42 28 6 17 6 37 0 55 -8 23 -15 27 -52 28 l-42 2 0 -79
0 -79 -30 0 c-41 0 -51 25 -48 122 3 72 6 84 24 93 13 6 143 10 352 10 317 -1
333 -2 346 -21z m-568 -105 c-4 -57 -56 -57 -56 0 0 35 18 53 41 41 11 -7 16
-20 15 -41z"/>
<path d="M6264 2748 c0 -32 3 -58 8 -58 9 0 9 1 13 54 3 37 20 60 37 50 4 -3
8 -27 8 -55 0 -55 19 -68 21 -14 2 58 12 77 34 68 10 -3 15 -20 15 -54 0 -27
5 -49 10 -49 11 0 14 109 3 111 -5 1 -40 3 -78 4 l-70 2 -1 -59z"/>
<path d="M6456 2794 c-49 -48 16 -131 74 -94 22 14 6 22 -23 11 -22 -9 -28 -7
-37 9 -11 20 -3 24 40 21 8 0 21 3 29 8 12 8 12 13 -3 35 -19 30 -56 34 -80
10z m64 -19 c0 -10 -10 -15 -30 -15 -22 0 -28 4 -24 15 4 8 17 15 30 15 15 0
24 -6 24 -15z"/>
<path d="M7489 2968 c-1 -2 -2 -26 -3 -55 -1 -28 -4 -54 -7 -57 -3 -4 -23 1
-44 10 -22 9 -41 12 -46 7 -38 -38 -27 -213 12 -213 5 0 23 7 40 15 16 9 33
14 37 11 4 -3 8 -32 7 -65 0 -34 2 -62 5 -62 3 -1 186 -2 408 -3 l402 -1 0
207 0 208 -405 0 c-223 0 -406 -1 -406 -2z m789 -205 l-3 -188 -385 0 -385 0
-2 59 c-3 76 -11 84 -63 61 -22 -10 -43 -15 -47 -11 -12 11 -9 154 3 166 8 8
21 6 48 -6 46 -23 58 -12 59 55 l0 51 389 0 388 0 -2 -187z"/>
<path d="M7581 2863 c-19 -23 -21 -38 -19 -111 5 -128 -11 -122 324 -122 286
0 317 4 331 44 3 12 6 57 5 101 -2 121 16 115 -332 115 l-289 0 -20 -27z m611
-1 c18 -18 20 -162 2 -189 -14 -23 -15 -23 -299 -23 -247 0 -286 2 -300 16
-12 13 -15 34 -13 102 3 76 6 88 24 97 30 15 571 12 586 -3z"/>
<path d="M7736 2827 c3 -21 0 -23 -24 -19 -35 5 -55 -18 -54 -59 1 -43 17 -58
62 -56 l38 1 -1 78 c-1 55 -5 78 -13 78 -8 0 -11 -9 -8 -23z m-3 -51 c3 -7 3
-24 0 -39 -4 -20 -11 -27 -29 -27 -21 0 -24 5 -24 39 0 38 12 53 37 44 6 -3
14 -10 16 -17z"/>
<path d="M7783 2768 c-1 -63 10 -77 57 -75 l40 1 0 58 c0 32 -4 58 -10 58 -5
0 -10 -20 -10 -44 0 -76 -52 -84 -56 -9 -3 52 -3 53 -12 53 -5 0 -9 -19 -9
-42z"/>
<path d="M7909 2790 c-4 -67 0 -100 11 -100 6 0 10 20 10 45 0 31 5 47 17 54
10 5 15 13 11 17 -4 4 -15 1 -25 -7 -11 -9 -14 -10 -9 -1 4 6 2 12 -3 12 -6 0
-11 -9 -12 -20z"/>
<path d="M8860 2910 c0 -65 -4 -69 -50 -45 -54 28 -70 5 -70 -101 0 -46 5 -68
19 -85 19 -24 20 -24 49 -6 48 27 52 23 52 -51 l0 -67 308 1 c169 1 310 2 315
3 4 0 7 93 7 206 l0 205 -315 0 -315 0 0 -60z m610 -148 l0 -188 -294 0 -294
-1 -4 63 c-2 35 -7 67 -11 71 -4 4 -22 1 -40 -6 -55 -22 -62 -20 -67 24 -6 43
3 121 14 132 4 4 20 -1 35 -10 32 -19 60 -22 62 -7 1 6 3 15 4 20 1 6 3 28 4
50 l1 40 295 0 295 0 0 -188z"/>
<path d="M8960 2870 c-11 -11 -21 -32 -21 -47 -3 -76 1 -145 11 -163 15 -27
53 -32 247 -28 216 4 213 2 213 128 0 133 5 130 -235 130 -182 0 -196 -1 -215
-20z m413 -6 c16 -9 19 -25 21 -94 4 -123 10 -120 -224 -120 -236 0 -227 -9
-211 192 0 9 12 20 26 25 37 12 366 9 388 -3z"/>
<path d="M9038 2821 c-10 -11 -13 -23 -9 -26 5 -2 9 -23 9 -45 0 -22 4 -44 7
-50 8 -13 35 -13 35 0 0 6 -4 10 -10 10 -14 0 -12 74 2 88 8 8 9 12 1 12 -6 0
-13 7 -15 15 -2 13 -6 12 -20 -4z"/>
<path d="M9099 2784 c-4 -66 0 -94 11 -94 6 0 10 20 10 45 0 31 5 47 15 51 23
9 18 22 -10 22 -19 0 -25 -6 -26 -24z"/>
<path d="M9990 2910 c0 -33 -2 -60 -5 -60 -3 0 -22 7 -42 15 -55 23 -68 6 -68
-95 0 -63 4 -83 18 -97 17 -17 19 -17 48 0 17 9 35 17 40 17 5 0 9 -29 9 -64
0 -42 4 -65 13 -68 6 -2 107 -4 222 -4 l210 1 0 205 0 205 -222 3 -223 2 0
-60z m430 -149 l0 -188 -205 0 -205 1 0 52 c0 88 -12 99 -69 67 -16 -10 -33
-14 -38 -9 -10 9 -11 161 -1 171 4 4 21 0 39 -9 58 -29 69 -19 69 60 l0 44
205 0 205 0 0 -189z"/>
<path d="M10184 2819 c-19 -22 -19 -22 3 -10 21 11 22 9 22 -44 0 -48 -3 -55
-20 -55 -10 0 -19 -4 -19 -10 0 -5 23 -10 51 -10 31 0 48 4 44 10 -3 6 -13 10
-21 10 -11 0 -14 15 -14 65 0 71 -12 82 -46 44z"/>
<path d="M10940 2910 c0 -65 -4 -69 -50 -45 -54 28 -70 5 -70 -101 0 -46 5
-68 19 -85 19 -24 20 -24 49 -6 48 27 52 23 52 -51 l0 -67 218 1 c119 1 219 2
222 3 4 1 5 359 1 399 -1 9 -52 12 -221 12 l-220 0 0 -60z m426 -139 c-1 -99
-5 -183 -9 -188 -5 -4 -96 -8 -203 -9 l-194 0 -1 40 c-1 23 -2 46 -4 51 -1 6
-3 18 -3 28 -2 22 -26 22 -63 0 -40 -24 -49 -9 -49 77 0 86 9 101 49 77 16 -9
36 -17 45 -17 14 0 30 33 25 56 -1 5 -1 21 0 37 l1 27 204 0 203 0 -1 -179z"/>
<path d="M11126 2824 c-10 -9 -16 -33 -16 -59 0 -47 19 -75 50 -75 38 0 55 31
51 95 -2 49 -52 72 -85 39z m64 -34 c11 -42 -3 -75 -31 -75 -19 0 -25 6 -27
29 -2 15 -1 39 3 53 8 33 47 28 55 -7z"/>
<path d="M7095 2815 c-38 -37 -30 -91 16 -116 17 -9 20 -8 17 3 -3 7 -11 13
-19 13 -8 1 -13 6 -11 13 1 7 -2 12 -7 12 -5 0 -8 11 -8 25 0 14 3 25 8 25 5
0 8 6 7 13 -2 6 3 11 10 10 6 -2 12 1 12 7 0 9 58 8 63 -1 1 -2 7 -13 13 -24
11 -20 0 -75 -15 -75 -4 0 -16 -7 -27 -15 -18 -14 -18 -14 3 -9 55 14 75 92
33 126 -31 25 -66 23 -95 -7z"/>
<path d="M4041 2798 c-13 -21 -13 -22 3 -9 16 14 17 12 14 -20 -3 -30 -7 -34
-35 -37 -41 -4 -44 -22 -4 -22 36 0 61 23 61 56 0 13 5 24 11 24 8 0 8 5 -1
15 -17 21 -33 19 -49 -7z"/>
<path d="M8524 2798 c-13 -15 -13 -18 -3 -10 14 10 17 9 21 -6 8 -30 -10 -52
-43 -52 -18 0 -28 -4 -24 -10 9 -15 61 -12 74 4 7 8 13 28 13 44 1 23 5 29 17
24 14 -5 14 -4 -1 11 -22 22 -31 21 -54 -5z"/>
<path d="M10640 2818 c-4 -11 -7 -26 -9 -38 0 -5 -10 -10 -21 -10 -11 0 -20
-5 -20 -11 0 -6 9 -9 20 -6 18 5 26 -7 21 -35 0 -5 4 -8 9 -8 6 0 10 9 10 20
0 11 5 21 10 21 6 1 14 2 19 3 23 3 22 16 -2 16 -20 0 -27 6 -30 28 -2 15 -5
24 -7 20z"/>
<path d="M9650 2801 c0 -5 7 -14 15 -21 14 -12 14 -15 -1 -31 -22 -24 -10 -37
14 -16 17 15 19 15 35 0 9 -9 20 -13 24 -9 4 4 -1 14 -11 22 -19 13 -19 14 -1
34 23 25 12 39 -14 16 -16 -15 -19 -15 -31 -1 -14 17 -30 20 -30 6z"/>
<path d="M5670 2780 c-8 -5 -36 -10 -62 -10 -27 0 -48 -4 -48 -10 0 -5 20 -10
45 -10 25 0 54 -5 64 -12 26 -16 53 -3 49 24 -3 25 -25 33 -48 18z m35 -20
c-3 -5 -10 -10 -16 -10 -5 0 -9 5 -9 10 0 6 7 10 16 10 8 0 12 -4 9 -10z"/>
<path d="M7124 2775 c11 -8 22 -12 25 -9 6 6 -19 24 -34 24 -5 -1 -1 -7 9 -15z"/>
<path d="M4533 2764 c-14 -37 32 -67 60 -39 10 10 34 15 72 15 31 0 54 4 51 8
-3 5 -27 7 -54 5 -35 -3 -53 1 -62 12 -17 20 -59 19 -67 -1z m51 -3 c9 -14 -4
-41 -19 -41 -15 0 -28 27 -19 41 3 5 11 9 19 9 8 0 16 -4 19 -9z"/>
<path d="M4144 2748 c-3 -4 45 -8 107 -8 62 0 109 3 105 8 -11 10 -206 11
-212 0z"/>
<path d="M2632 2337 c-26 -12 -32 -28 -33 -93 -2 -94 1 -114 21 -134 19 -19
33 -20 328 -20 366 0 345 -7 347 118 2 82 -7 116 -34 128 -25 12 -603 12 -629
1z m630 -24 c21 -25 25 -161 4 -188 -14 -19 -27 -20 -303 -20 -282 -1 -336 3
-346 29 -10 27 -1 164 12 180 12 14 51 16 316 16 275 0 303 -2 317 -17z"/>
<path d="M3000 2276 c0 -19 -4 -22 -22 -19 -34 5 -49 -10 -53 -51 -5 -47 15
-67 63 -63 l36 2 0 78 c1 55 -3 77 -11 77 -7 0 -13 -11 -13 -24z m0 -76 c0
-35 -3 -40 -24 -40 -17 0 -25 7 -28 23 -7 39 2 57 28 57 21 0 24 -4 24 -40z"/>
<path d="M2696 2244 c-11 -28 -7 -35 29 -50 19 -8 35 -18 35 -23 0 -15 -23
-19 -43 -9 -21 11 -32 5 -22 -11 7 -12 44 -14 69 -5 33 13 14 58 -28 65 -11 2
-21 10 -24 18 -4 11 3 13 32 8 36 -6 50 6 20 17 -29 11 -62 6 -68 -10z"/>
<path d="M2809 2246 c-1 -12 -1 -86 0 -98 1 -5 6 -8 11 -8 6 0 10 22 10 49 0
35 4 51 16 55 26 10 34 -3 34 -55 0 -27 5 -49 10 -49 7 0 10 22 8 58 l-3 57
-42 1 c-26 1 -43 -3 -44 -10z"/>
<path d="M3385 2240 c-8 -13 -1 -24 14 -19 6 3 7 10 2 18 -6 10 -10 10 -16 1z"/>
<path d="M3420 2230 c0 -6 30 -10 70 -10 40 0 70 4 70 10 0 6 -30 10 -70 10
-40 0 -70 -4 -70 -10z"/>
<path d="M3391 2201 c-8 -5 -10 -14 -6 -21 6 -9 10 -8 17 4 12 21 7 28 -11 17z"/>
<path d="M3420 2190 c0 -6 30 -10 70 -10 40 0 70 4 70 10 0 6 -30 10 -70 10
-40 0 -70 -4 -70 -10z"/>
<path d="M4914 2421 c-2 -2 -4 -28 -4 -57 0 -59 -8 -70 -36 -49 -27 20 -62 18
-74 -4 -17 -34 -13 -156 8 -180 l17 -21 36 19 c20 11 40 17 43 14 3 -4 6 -35
6 -70 l0 -63 333 0 333 0 0 199 c-1 110 -5 203 -9 208 -8 8 -645 12 -653 4z
m642 -203 l2 -188 -314 0 c-244 0 -314 3 -315 13 -7 132 -11 140 -62 109 -19
-11 -39 -17 -45 -13 -14 9 -21 107 -10 149 l9 32 40 -21 c52 -26 63 -17 65 54
2 28 3 52 3 53 1 0 142 0 314 0 l312 -1 1 -187z"/>
<path d="M5029 2343 c-30 -7 -46 -54 -44 -137 1 -118 -3 -116 259 -116 263 1
251 -5 251 125 0 136 12 130 -243 131 -114 0 -214 -1 -223 -3z m435 -29 c23
-23 23 -176 0 -195 -20 -16 -397 -21 -429 -6 -31 15 -35 27 -35 102 0 118 -7
115 240 115 176 0 211 -2 224 -16z"/>
<path d="M5203 2280 c-3 -11 -10 -20 -16 -20 -7 0 -7 -4 1 -12 7 -7 12 -34 12
-60 0 -26 5 -48 10 -48 6 0 10 25 10 56 0 34 4 53 10 49 6 -3 10 -2 10 4 0 5
-6 12 -12 15 -10 5 -10 7 0 12 17 8 15 24 -4 24 -9 0 -18 -9 -21 -20z"/>
<path d="M5090 2241 c-22 -41 -4 -101 30 -101 29 0 50 11 50 26 0 8 -4 14 -10
14 -5 0 -10 -5 -10 -11 0 -6 -10 -9 -22 -7 -19 2 -23 9 -23 38 0 26 5 36 19
38 10 2 22 -2 27 -9 4 -7 11 -10 15 -6 12 11 -17 37 -42 37 -13 0 -28 -9 -34
-19z"/>
<path d="M6220 2363 c0 -66 -4 -72 -36 -48 -27 20 -61 18 -74 -4 -5 -11 -10
-50 -10 -86 0 -36 5 -75 10 -86 13 -22 47 -24 74 -4 11 8 23 15 28 15 4 0 8
-31 8 -70 l0 -70 370 0 370 0 -2 208 -3 207 -367 0 -368 0 0 -62z m720 -145
l0 -188 -350 0 -350 0 -1 33 c-2 101 -14 118 -63 89 -28 -17 -37 -18 -46 -8
-12 15 -16 122 -5 155 l6 21 40 -21 c49 -25 66 -15 67 39 0 20 1 44 1 53 1 14
40 15 351 16 l350 0 0 -189z"/>
<path d="M6343 2342 c-33 -5 -49 -50 -47 -138 3 -118 -8 -114 294 -114 304 0
290 -6 291 120 0 94 -4 115 -29 126 -16 8 -464 13 -509 6z m511 -34 c17 -28
15 -173 -2 -190 -9 -9 -82 -13 -258 -13 -299 -1 -288 -5 -281 116 2 43 10 85
17 94 11 13 50 15 261 15 247 0 249 0 263 -22z"/>
<path d="M6584 2275 c-7 -14 -9 -39 -5 -57 4 -18 6 -43 5 -55 -1 -13 4 -23 11
-23 8 0 11 15 9 45 -2 30 2 50 12 60 14 13 14 15 -2 15 -16 0 -16 1 1 20 17
19 17 20 -1 20 -10 0 -24 -11 -30 -25z"/>
<path d="M6395 2202 c0 -63 18 -70 21 -9 3 78 44 74 44 -4 0 -54 19 -69 21
-16 1 17 1 36 0 41 -3 15 20 35 35 29 9 -3 14 -21 14 -54 0 -27 5 -49 10 -49
6 0 10 25 10 55 0 62 -2 63 -100 63 l-55 0 0 -56z"/>
<path d="M7694 2421 c-2 -2 -4 -31 -4 -63 0 -32 -2 -58 -4 -58 -3 0 -20 9 -39
20 -32 19 -36 19 -51 5 -31 -32 -35 -171 -5 -201 13 -12 20 -11 52 6 20 11 39
20 42 20 3 0 5 -31 5 -70 l0 -70 399 0 c310 0 400 3 403 13 7 22 1 387 -6 395
-8 7 -784 10 -792 3z m782 -203 l0 -188 -383 0 -383 0 0 59 c0 77 -16 92 -64
62 -34 -22 -35 -22 -45 -2 -14 25 -14 126 -1 152 10 18 11 18 47 -1 49 -26 63
-13 63 54 l0 52 383 0 382 0 1 -188z"/>
<path d="M7820 2342 c-42 -13 -50 -33 -50 -124 0 -136 -20 -128 324 -128 l285
0 19 25 c17 22 20 39 18 110 -3 127 17 120 -309 121 -150 0 -279 -2 -287 -4z
m564 -28 c23 -23 23 -176 0 -195 -13 -11 -70 -14 -255 -14 -237 0 -239 0 -239
21 0 17 5 20 23 17 36 -7 59 22 54 65 -6 41 -20 52 -64 50 -22 -1 -33 -6 -34
-17 -1 -9 -2 -43 -3 -76 -1 -58 -2 -60 -26 -57 -44 6 -57 32 -55 117 1 63 5
80 20 91 15 11 76 14 291 14 234 0 275 -2 288 -16z m-450 -79 c16 -17 12 -65
-7 -77 -29 -18 -52 53 -25 80 15 15 14 15 32 -3z"/>
<path d="M7990 2200 c0 -73 17 -80 22 -10 3 55 1 70 -13 70 -5 0 -9 -27 -9
-60z"/>
<path d="M8020 2249 c0 -5 9 -9 20 -9 17 0 20 -7 20 -50 0 -27 5 -50 10 -50 6
0 10 22 10 49 0 34 5 51 15 55 20 7 32 -20 30 -67 -1 -23 3 -36 9 -34 14 5 15
95 1 106 -14 11 -115 11 -115 0z"/>
<path d="M9154 2421 c-2 -2 -4 -31 -4 -63 0 -32 -2 -58 -5 -58 -3 0 -17 7 -30
16 -38 25 -67 15 -78 -26 -12 -48 -4 -147 14 -165 13 -13 19 -12 52 5 20 11
39 20 42 20 3 0 5 -31 5 -70 l0 -70 224 0 224 0 0 200 c0 139 -4 202 -12 207
-12 8 -424 11 -432 4z m424 -203 l2 -188 -205 0 -205 0 0 53 c0 29 -6 62 -14
72 -13 18 -14 18 -49 -4 -35 -22 -36 -22 -46 -2 -6 11 -11 45 -11 76 0 31 5
65 11 76 10 20 11 20 45 -2 47 -29 64 -14 64 56 l0 52 203 -1 202 -1 3 -187z"/>
<path d="M9336 2268 c-33 -47 -9 -128 38 -128 32 0 48 23 52 69 5 71 -55 110
-90 59z m68 -21 c12 -49 -9 -95 -39 -84 -22 9 -28 31 -21 72 6 28 11 35 30 35
17 0 26 -7 30 -23z"/>
<path d="M10104 2421 c-2 -2 -4 -28 -4 -57 0 -59 -8 -70 -36 -49 -31 23 -63
19 -74 -11 -16 -41 -12 -146 6 -172 l15 -22 38 20 c21 10 41 16 45 13 3 -4 6
-35 6 -70 l0 -63 220 0 c202 0 220 1 221 18 4 69 3 364 -1 379 -5 17 -21 18
-218 18 -117 0 -215 -2 -218 -4z m411 -19 c7 -1 10 -70 11 -187 l0 -185 -203
0 -203 0 -1 28 c-3 111 -12 124 -63 94 -51 -30 -60 -13 -57 111 1 53 11 58 63
31 44 -23 53 -10 57 87 l1 25 193 -1 c105 -1 197 -2 202 -3z"/>
<path d="M10298 2279 c-24 -14 -24 -33 0 -20 16 9 18 4 17 -45 0 -45 -3 -54
-17 -54 -10 0 -18 -4 -18 -10 0 -5 20 -10 45 -10 45 0 61 13 27 22 -15 4 -18
15 -17 67 2 63 -4 70 -37 50z"/>
<path d="M11052 2422 c-5 -1 -7 -19 -5 -40 2 -20 1 -48 -2 -60 -6 -23 -7 -23
-30 -8 -29 19 -57 20 -73 4 -19 -19 -16 -158 4 -186 l16 -23 35 21 c19 11 38
18 43 15 4 -3 8 -26 8 -52 0 -27 0 -56 1 -65 1 -17 19 -18 221 -18 l220 0 -2
207 -3 208 -212 0 c-117 0 -216 -1 -221 -3z m419 -46 c1 -39 1 -328 0 -339 -1
-4 -92 -6 -203 -5 l-202 3 -2 59 c-1 32 -7 63 -12 68 -6 6 -25 2 -51 -11 -38
-20 -42 -20 -48 -4 -9 23 -9 133 0 156 6 17 9 16 48 -4 51 -26 60 -18 64 53 2
29 4 53 4 54 1 0 91 1 201 1 l200 0 1 -31z"/>
<path d="M11238 2278 c-41 -32 -21 -138 26 -138 37 0 56 25 56 75 0 64 -40 95
-82 63z m58 -32 c3 -13 4 -37 2 -52 -2 -23 -8 -29 -28 -29 -21 0 -26 6 -31 35
-3 19 -1 43 3 53 13 25 46 22 54 -7z"/>
<path d="M4060 2280 c0 -11 -6 -23 -14 -26 -36 -14 -36 -97 -1 -110 8 -4 15
-17 15 -30 0 -13 5 -24 10 -24 6 0 10 11 10 25 0 14 6 25 13 25 35 0 40 92 6
110 -10 6 -19 20 -19 30 0 11 -4 20 -10 20 -5 0 -10 -9 -10 -20z m0 -80 c0
-22 -4 -40 -10 -40 -11 0 -14 63 -3 73 11 12 13 8 13 -33z m40 -5 c0 -19 -4
-37 -10 -40 -6 -4 -10 12 -10 40 0 28 4 44 10 40 6 -3 10 -21 10 -40z"/>
<path d="M8689 2291 c-1 -6 -2 -14 -3 -18 0 -5 -12 -19 -25 -32 -18 -18 -22
-30 -17 -55 3 -17 15 -37 26 -45 11 -7 20 -22 20 -32 0 -11 5 -19 11 -19 6 0
9 7 5 15 -3 9 4 24 19 37 31 27 34 77 5 103 -11 10 -20 24 -20 31 0 16 -20 29
-21 15z m-1 -91 c1 -22 -3 -40 -8 -40 -6 0 -11 5 -11 10 -1 6 -2 16 -3 23 -2
11 11 47 18 47 1 0 3 -18 4 -40z m36 24 c10 -25 7 -51 -6 -62 -10 -8 -13 0
-13 34 0 45 8 57 19 28z"/>
<path d="M4176 2261 c-16 -25 -25 -61 -16 -61 6 0 15 12 20 26 12 31 26 24 35
-19 13 -60 43 -75 63 -32 14 30 15 45 4 45 -5 0 -13 -12 -18 -27 l-11 -28 -13
30 c-7 17 -16 40 -21 53 -9 22 -33 30 -43 13z"/>
<path d="M7148 2263 c7 -3 16 -2 19 1 4 3 -2 6 -13 5 -11 0 -14 -3 -6 -6z"/>
<path d="M10740 2245 c0 -18 -5 -25 -20 -25 -11 0 -20 -4 -20 -10 0 -5 9 -10
20 -10 13 0 20 -7 20 -20 0 -11 5 -20 10 -20 6 0 10 9 10 20 0 18 10 25 33 21
4 0 7 4 7 9 0 6 -9 10 -20 10 -15 0 -20 7 -20 25 0 14 -4 25 -10 25 -5 0 -10
-11 -10 -25z"/>
<path d="M4476 2238 c23 -73 32 -93 45 -93 17 0 49 61 49 93 0 12 -6 22 -14
22 -9 0 -12 -7 -9 -18 2 -10 -2 -34 -10 -53 l-14 -34 -17 53 c-10 28 -22 52
-27 52 -6 0 -7 -10 -3 -22z"/>
<path d="M5720 2253 c0 -19 39 -108 49 -111 6 -2 20 11 31 30 21 35 27 88 10
88 -5 0 -10 -12 -10 -27 -1 -16 -7 -39 -14 -52 -13 -24 -14 -23 -30 27 -10 29
-22 52 -27 52 -5 0 -9 -3 -9 -7z"/>
<path d="M9760 2252 c0 -5 7 -15 15 -22 14 -12 14 -15 -1 -31 -22 -25 -10 -37
15 -15 16 15 19 15 31 1 7 -8 17 -15 23 -15 5 0 3 8 -6 18 -21 23 -21 29 -2
49 22 21 9 30 -13 10 -16 -15 -20 -15 -40 -1 -12 8 -22 11 -22 6z"/>
<path d="M4605 2215 c-28 -27 -31 -45 -13 -63 14 -14 44 -16 52 -4 3 5 -4 8
-16 8 -28 -1 -31 27 -6 59 25 32 15 32 -17 0z"/>
<path d="M4650 2226 c0 -9 5 -16 10 -16 6 0 10 4 10 9 0 6 -4 13 -10 16 -5 3
-10 -1 -10 -9z"/>
<path d="M5845 2218 c-1 -13 -4 -35 -8 -50 -4 -16 -3 -28 1 -28 12 0 40 72 34
88 -7 21 -27 13 -27 -10z"/>
<path d="M5897 2234 c-3 -3 -3 -12 0 -20 3 -7 0 -27 -5 -44 -13 -37 4 -41 18
-4 18 46 10 90 -13 68z"/>
<path d="M5940 2225 c-11 -13 -10 -14 3 -9 14 5 15 1 7 -28 -13 -43 -13 -48 3
-48 6 0 13 12 14 28 1 15 3 36 5 46 4 24 -15 31 -32 11z"/>
<path d="M7210 2231 c17 -5 21 -9 12 -15 -7 -4 -10 -12 -7 -17 4 -5 1 -9 -5
-9 -6 0 -8 -5 -4 -11 4 -8 9 -7 15 2 4 7 6 16 3 20 -2 4 0 10 6 14 16 10 1 25
-23 24 -20 -1 -20 -2 3 -8z"/>
<path d="M7314 2190 c-12 -56 -2 -67 16 -17 17 44 19 67 5 67 -6 0 -16 -22
-21 -50z"/>
<path d="M7372 2223 c1 -10 -2 -33 -6 -50 -5 -22 -4 -33 3 -33 6 0 11 9 11 19
0 11 12 33 26 48 l25 28 -6 -30 c-12 -48 -11 -60 4 -60 8 0 14 15 16 42 4 46
-7 62 -30 43 -9 -7 -15 -8 -20 0 -10 16 -24 12 -23 -7z"/>
<path d="M8774 2190 c-6 -27 -7 -50 -2 -50 12 0 35 63 30 83 -8 30 -18 19 -28
-33z"/>
<path d="M8825 2230 c-3 -5 -2 -10 4 -10 6 0 6 -11 0 -32 -11 -41 -11 -48 0
-48 8 0 26 46 23 61 0 3 8 11 19 17 18 12 19 10 13 -15 -3 -16 -7 -33 -9 -40
-6 -18 15 -27 28 -13 9 10 9 11 -2 5 -10 -6 -12 -2 -7 14 3 11 8 30 11 40 7
24 -11 37 -30 21 -9 -7 -15 -8 -20 0 -8 13 -22 13 -30 0z"/>
<path d="M3920 1760 c0 -64 -9 -73 -46 -45 -47 36 -74 2 -74 -95 0 -61 15
-110 34 -110 6 1 22 7 36 15 45 25 50 20 50 -50 l0 -65 425 0 425 0 0 205 0
205 -425 0 -425 0 0 -60z m832 -102 c2 -79 1 -163 -2 -188 l-5 -45 -402 0
-403 0 -1 42 c-1 24 -3 48 -4 53 -1 6 -3 17 -4 25 -1 19 -24 19 -63 -1 -18 -9
-34 -12 -39 -7 -13 13 -13 153 -1 165 6 6 23 3 46 -8 52 -25 62 -13 65 84 l1
22 404 0 405 0 3 -142z"/>
<path d="M4016 1721 c-33 -37 -26 -194 10 -231 10 -9 588 -9 620 1 41 13 50
38 48 133 -2 122 17 116 -354 116 -290 0 -308 -1 -324 -19z m648 -16 c19 -26
19 -153 0 -182 l-14 -23 -305 0 c-356 0 -335 -7 -335 115 0 75 11 101 45 107
11 2 149 3 307 3 272 0 288 -1 302 -20z"/>
<path d="M4400 1677 c0 -18 -5 -22 -32 -22 -26 0 -34 -5 -42 -27 -6 -18 -6
-38 0 -55 8 -24 15 -28 52 -29 l42 -2 0 79 c0 46 -4 79 -10 79 -5 0 -10 -10
-10 -23z m0 -76 c0 -31 -19 -54 -37 -43 -18 11 -27 61 -13 77 19 22 50 1 50
-34z"/>
<path d="M4102 1651 c-24 -14 -9 -45 26 -56 32 -9 43 -29 20 -38 -7 -2 -21 0
-31 5 -21 11 -32 5 -22 -11 7 -12 44 -14 69 -5 9 3 16 17 16 30 0 19 -7 26
-30 31 -17 3 -33 10 -36 15 -10 16 18 28 39 16 22 -12 38 -1 17 12 -19 12 -51
12 -68 1z"/>
<path d="M4209 1656 c-1 -1 -2 -27 -3 -58 -1 -40 2 -58 10 -58 8 0 12 11 10
28 -3 40 8 77 25 77 21 1 29 -15 29 -62 0 -24 5 -43 10 -43 12 0 13 89 2 107
-6 9 -74 16 -83 9z"/>
<path d="M5270 1760 c0 -65 -6 -70 -50 -45 -35 20 -45 18 -58 -10 -13 -27 -16
-125 -6 -162 8 -30 38 -38 66 -19 41 29 48 21 48 -49 l0 -65 325 0 c318 0 325
0 326 20 0 11 0 49 0 85 0 36 0 119 0 185 l-1 120 -325 0 -325 0 0 -60z m635
-139 c0 -99 -4 -183 -8 -188 -5 -4 -143 -8 -308 -8 -259 0 -299 2 -300 15 -1
8 -2 31 -4 50 -1 19 -3 43 -4 53 -1 22 -25 22 -62 0 -22 -13 -32 -14 -40 -6
-14 14 -15 151 -1 165 5 5 23 2 46 -8 45 -22 58 -12 62 48 1 24 3 46 3 51 1 4
139 7 309 7 l307 0 0 -179z"/>
<path d="M5370 1722 c-19 -15 -23 -29 -24 -87 -3 -84 8 -130 32 -141 9 -4 105
-8 212 -10 163 -1 200 1 223 14 30 18 29 15 32 120 2 59 -2 78 -17 98 l-19 24
-209 0 c-185 0 -210 -2 -230 -18z m446 -17 c9 -12 14 -45 14 -94 0 -115 7
-111 -236 -111 -241 0 -234 -3 -234 117 0 111 -4 109 240 108 187 -1 203 -2
216 -20z"/>
<path d="M5444 1620 c0 -51 4 -79 11 -77 14 5 14 157 -1 157 -7 0 -11 -28 -10
-80z"/>
<path d="M5499 1644 c-15 -18 -14 -71 3 -91 6 -7 21 -13 33 -13 24 0 52 26 41
37 -4 4 -11 1 -15 -6 -5 -7 -17 -11 -27 -9 -14 2 -19 12 -19 38 0 26 5 36 19
38 10 2 22 -2 27 -9 4 -7 11 -10 15 -6 11 11 -17 37 -41 37 -12 0 -29 -7 -36
-16z"/>
<path d="M6429 1818 c-1 -2 -2 -27 -3 -55 -2 -29 -5 -55 -8 -58 -3 -3 -22 2
-43 12 -36 17 -37 17 -51 -2 -13 -18 -17 -41 -16 -95 1 -64 3 -77 16 -95 14
-19 15 -19 51 -2 21 10 40 15 43 12 3 -3 6 -24 8 -48 1 -23 2 -50 3 -59 1 -17
26 -18 376 -18 l375 0 0 205 0 205 -375 0 c-206 0 -375 -1 -376 -2z m729 -205
l-3 -188 -345 0 c-190 -1 -350 0 -355 2 -6 2 -12 29 -13 60 -2 72 -12 82 -58
59 -27 -12 -40 -14 -48 -6 -12 12 -15 155 -3 166 4 4 25 -1 47 -11 51 -23 61
-14 62 54 l0 51 359 0 359 0 -2 -187z"/>
<path d="M6611 1672 c-30 -55 -10 -132 33 -132 13 0 32 7 40 16 18 18 21 85 6
115 -14 25 -66 26 -79 1z m64 -57 c0 -47 -2 -50 -25 -50 -22 0 -25 5 -28 39
-4 52 3 68 30 64 20 -3 23 -9 23 -53z"/>
<path d="M6796 1668 c-33 -47 -9 -128 38 -128 13 0 29 7 36 15 18 21 18 98 1
118 -19 24 -57 21 -75 -5z m65 -20 c1 -13 2 -32 3 -43 2 -41 -44 -64 -58 -29
-18 46 -2 94 30 94 18 0 24 -6 25 -22z"/>
<path d="M6910 1651 c0 -39 0 -40 34 -34 35 5 51 -11 40 -42 -7 -18 -51 -20
-56 -3 -2 6 -10 9 -17 7 -11 -4 -10 -9 3 -22 34 -33 96 -12 96 33 0 26 -27 50
-56 50 -15 0 -24 6 -24 15 0 10 11 15 35 15 19 0 35 5 35 10 0 6 -20 10 -45
10 l-45 0 0 -39z"/>
<path d="M6736 1561 c-4 -7 -5 -15 -2 -18 9 -9 19 4 14 18 -4 11 -6 11 -12 0z"/>
<path d="M7680 1760 c0 -33 -4 -60 -9 -60 -5 0 -23 8 -40 17 -29 17 -31 17
-48 0 -14 -14 -18 -34 -18 -97 0 -63 4 -83 18 -97 17 -17 19 -17 48 0 17 9 35
17 40 17 5 0 9 -29 9 -65 l0 -65 224 0 224 0 1 205 0 205 -224 0 -225 0 0 -60z
m430 -144 c0 -138 -3 -185 -12 -188 -7 -2 -98 -4 -203 -3 l-190 0 -3 45 c-5
95 -14 105 -71 73 -41 -24 -51 -9 -51 77 0 86 10 101 51 78 56 -32 69 -21 69
58 l0 44 205 0 205 0 0 -184z"/>
<path d="M7866 1668 c-34 -48 -9 -128 39 -128 14 0 31 9 39 23 17 25 14 90 -4
112 -18 22 -57 18 -74 -7z m65 -10 c0 -7 2 -23 5 -36 6 -31 -12 -62 -36 -62
-23 0 -34 31 -25 76 5 28 10 34 30 34 14 0 25 -6 26 -12z"/>
<path d="M3299 1641 l-26 -26 26 -26 26 -26 26 26 26 26 -26 26 -26 26 -26
-26z m21 -11 c0 -5 -5 -10 -11 -10 -5 0 -7 5 -4 10 3 6 8 10 11 10 2 0 4 -4 4
-10z m25 0 c3 -5 1 -10 -4 -10 -6 0 -11 5 -11 10 0 6 2 10 4 10 3 0 8 -4 11
-10z m-25 -30 c0 -5 -2 -10 -4 -10 -3 0 -8 5 -11 10 -3 6 -1 10 4 10 6 0 11
-4 11 -10z m30 6 c0 -3 -4 -8 -10 -11 -5 -3 -10 -1 -10 4 0 6 5 11 10 11 6 0
10 -2 10 -4z"/>
<path d="M4949 1641 l-26 -26 26 -26 26 -26 26 26 26 26 -26 26 -26 26 -26
-26z m21 -11 c0 -5 -5 -10 -11 -10 -5 0 -7 5 -4 10 3 6 8 10 11 10 2 0 4 -4 4
-10z m25 0 c3 -5 1 -10 -4 -10 -6 0 -11 5 -11 10 0 6 2 10 4 10 3 0 8 -4 11
-10z m-25 -30 c0 -5 -2 -10 -4 -10 -3 0 -8 5 -11 10 -3 6 -1 10 4 10 6 0 11
-4 11 -10z m30 6 c0 -3 -4 -8 -10 -11 -5 -3 -10 -1 -10 4 0 6 5 11 10 11 6 0
10 -2 10 -4z"/>
<path d="M7378 1665 c-3 -6 -4 -18 -3 -27 2 -13 -4 -18 -21 -18 -13 0 -24 -4
-24 -10 0 -5 12 -10 26 -10 21 0 25 -4 21 -20 -3 -11 -1 -20 4 -20 5 0 9 7 9
15 0 16 34 38 44 28 3 -3 6 -1 6 5 0 6 -10 12 -22 14 -14 2 -24 12 -28 28 -3
14 -8 20 -12 15z"/>
<path d="M6086 1645 c4 -8 10 -15 15 -15 14 0 10 -22 -8 -42 -9 -10 -11 -18
-6 -18 6 0 16 7 23 15 11 14 15 14 37 -1 28 -18 42 -14 18 6 -8 7 -15 18 -15
25 0 7 7 18 15 25 9 7 13 15 10 18 -3 3 -14 -3 -25 -13 -19 -17 -21 -17 -38
-2 -23 21 -33 22 -26 2z"/>
<path d="M3150 1641 c0 -6 23 -10 50 -9 28 0 50 4 50 9 0 5 -22 9 -50 9 -27 0
-50 -4 -50 -9z"/>
<path d="M3404 1599 c-4 -7 0 -9 14 -5 31 10 34 -8 7 -34 -33 -31 -31 -40 8
-39 25 1 27 3 9 6 l-24 5 22 23 c13 14 20 31 17 39 -7 18 -43 21 -53 5z"/>
<path d="M3640 1600 c0 -5 7 -10 15 -10 8 0 15 5 15 10 0 6 -7 10 -15 10 -8 0
-15 -4 -15 -10z"/>
<path d="M3150 1590 c0 -5 23 -10 50 -10 28 0 50 5 50 10 0 6 -22 10 -50 10
-27 0 -50 -4 -50 -10z"/>
<path d="M2378 1209 c-22 -12 -24 -31 -3 -23 12 5 15 -4 15 -45 0 -38 -4 -51
-14 -51 -8 0 -18 -4 -21 -10 -4 -6 13 -10 44 -10 28 0 51 5 51 10 0 6 -9 10
-19 10 -17 0 -19 7 -18 62 2 63 -5 75 -35 57z"/>
<path d="M2360 815 c-7 -9 -9 -19 -5 -23 4 -4 10 -1 12 6 5 12 45 17 56 6 11
-11 -5 -34 -24 -34 -27 0 -24 -18 3 -22 28 -4 36 -36 12 -45 -9 -3 -25 -1 -36
6 -25 15 -35 7 -18 -14 16 -20 64 -19 81 1 10 12 10 22 2 43 -6 18 -7 34 -1
45 21 38 -53 65 -82 31z"/>
<path d="M2375 378 c-40 -61 -42 -68 -16 -63 31 6 60 -5 54 -21 -3 -8 0 -14 6
-14 6 0 11 6 11 14 0 8 6 17 13 19 9 4 9 7 0 14 -6 5 -10 24 -9 43 6 76 -11
78 -59 8z m39 0 c-1 -13 -3 -29 -3 -35 -1 -13 -41 -19 -41 -7 0 6 40 64 44 64
1 0 2 -10 0 -22z"/>
</g>
</svg>
