<?xml version="1.0" standalone="no"?>
<!DOCTYPE svg PUBLIC "-//W3C//DTD SVG 20010904//EN"
 "http://www.w3.org/TR/2001/REC-SVG-20010904/DTD/svg10.dtd">
<svg version="1.0" xmlns="http://www.w3.org/2000/svg"
 width="1214.000000pt" height="836.000000pt" viewBox="0 0 1214.000000 836.000000"
 preserveAspectRatio="xMidYMid meet">
<metadata>
Created by potrace 1.16, written by Peter Selinger 2001-2019
</metadata>
<g transform="translate(0.000000,836.000000) scale(0.100000,-0.100000)"
fill="#000000" stroke="none">
<path d="M260 8222 c-20 -10 -42 -32 -52 -52 -17 -33 -18 -245 -18 -3990 0
-3949 0 -3955 20 -3988 41 -67 -206 -62 3021 -62 1612 0 2935 2 2939 5 4 3 8
129 8 280 l-1 275 -1643 0 -1644 0 0 188 0 187 603 -2 c331 -1 612 0 624 2 21
5 21 8 20 188 0 100 2 187 5 192 4 6 44 10 92 9 l86 -2 0 197 0 196 88 0 c48
0 93 -4 101 -9 9 -6 12 -5 8 0 -7 13 453 12 472 0 9 -6 12 -5 8 0 -7 13 453
12 472 0 9 -6 12 -5 8 0 -7 13 453 12 472 0 9 -6 12 -5 8 0 -7 12 773 12 792
0 9 -6 12 -5 8 0 -7 12 453 12 472 0 9 -6 12 -5 8 0 -3 6 201 9 523 9 323 0
526 -3 523 -9 -4 -5 -1 -6 8 0 21 13 681 13 698 0 10 -7 13 -7 9 -1 -8 14 450
14 471 1 9 -6 12 -5 8 0 -7 13 453 12 472 0 9 -6 12 -5 8 0 -7 13 453 12 472
0 9 -6 12 -5 8 0 -7 13 453 12 472 0 9 -6 12 -5 8 0 -7 13 453 12 472 0 9 -6
12 -5 8 0 -7 13 503 12 522 0 9 -6 12 -5 8 2 -5 6 7 10 30 10 81 -1 74 -40 71
354 l-3 352 -235 0 c-151 0 -238 4 -242 11 -5 7 -8 7 -8 -1 0 -14 -31 -14 -49
0 -11 8 -13 8 -8 0 8 -14 -130 -13 -152 0 -9 6 -12 5 -8 -1 8 -13 -132 -12
-152 1 -9 6 -12 5 -7 -2 4 -7 -5 -10 -24 -10 l-31 1 1 271 c0 149 0 305 0 347
l0 76 -610 -1 -610 -1 0 273 0 272 -2570 0 -2570 0 0 575 c0 541 1 575 18 576
9 0 190 0 402 0 212 -1 399 -1 415 0 56 2 470 2 480 -1 6 -1 15 -1 20 0 6 1
177 1 380 1 204 -1 377 -1 385 -1 8 0 224 0 480 0 256 0 470 0 475 0 6 0 147
0 315 0 168 0 314 0 325 0 11 0 405 1 875 1 l855 2 0 278 0 279 -1275 0 c-701
0 -2017 0 -2925 0 l-1650 0 1 195 c0 128 -3 195 -10 198 -6 2 -121 3 -256 2
-163 -1 -250 2 -259 9 -11 8 -13 8 -8 -1 5 -8 -5 -10 -35 -9 l-43 3 -1 181
c-1 101 -4 188 -7 195 -3 9 -75 12 -301 12 -197 -1 -296 3 -297 10 0 5 -1 97
-1 203 -1 106 -4 189 -7 185 -8 -12 -232 -11 -250 1 -9 6 -12 5 -8 0 3 -6 -69
-10 -184 -10 -163 0 -189 2 -190 16 0 8 -1 92 -2 185 l-1 170 32 3 32 3 0 203
0 204 -272 0 c-150 0 -288 1 -305 1 l-33 1 0 185 0 185 148 0 147 0 -1 197
c-1 109 -2 201 -3 205 0 4 -353 7 -783 7 l-783 0 -40 -28 c-61 -42 -68 -43
-127 -6 -46 30 -61 35 -118 35 -42 0 -77 -6 -100 -18z m211 -33 c59 -37 80
-36 137 2 l45 30 736 0 c405 0 752 0 772 -1 l36 0 0 -185 c0 -127 -3 -185 -11
-186 -6 0 -354 0 -773 1 l-763 1 -44 -30 c-56 -39 -79 -39 -136 -1 -43 29 -50
30 -155 30 l-110 0 1 144 c1 141 1 146 28 180 25 34 36 38 116 49 33 5 77 -7
121 -34z m-4 -389 c24 -16 57 -30 72 -30 15 0 47 14 69 30 l42 30 305 0 305 0
0 -50 c0 -55 -4 -58 -49 -33 -29 17 -31 17 -48 0 -14 -14 -18 -34 -18 -97 1
-102 13 -119 70 -96 21 9 39 16 41 16 2 0 4 -1548 4 -3440 l0 -3440 -310 0
-310 0 -42 -30 c-51 -38 -68 -38 -123 0 -42 29 -48 30 -153 30 -79 0 -111 3
-114 13 -3 10 -2 7075 1 7115 1 9 29 12 107 12 101 0 108 -1 151 -30z m1435 8
c5 -30 1 -459 -5 -464 -2 -2 -21 3 -41 11 -20 9 -41 13 -46 10 -31 -19 -35
-161 -5 -202 13 -17 15 -17 49 0 20 9 39 17 41 17 3 0 5 -52 5 -115 0 -63 -4
-115 -9 -115 -5 0 -23 8 -39 17 -42 24 -59 7 -66 -65 -12 -111 17 -162 73
-129 16 9 32 17 35 17 3 0 6 -1372 6 -3050 l0 -3050 -310 0 -310 0 0 3445 c0
3062 -2 3446 -15 3451 -8 4 -31 -1 -51 -11 -20 -9 -38 -14 -41 -11 -3 3 -8 36
-10 73 -4 49 -1 73 10 87 13 18 15 18 38 3 49 -35 69 -19 69 59 l0 44 309 0
309 0 4 -22z m608 -552 c0 -113 -4 -186 -10 -188 -5 -1 -138 -2 -295 0 l-285
3 0 60 c0 70 -15 82 -62 54 -42 -24 -53 -9 -53 75 0 84 10 98 55 75 48 -25 60
-15 60 50 l0 55 295 0 295 0 0 -184z m-60 -446 c0 -262 -1 -264 -54 -236 -52
27 -66 5 -66 -102 0 -96 25 -124 78 -86 12 8 27 12 32 9 12 -7 14 -5403 2
-5422 -6 -10 -12 -10 -28 2 -27 20 -61 18 -74 -4 -13 -25 -13 -147 0 -172 13
-23 31 -24 70 -4 34 18 40 8 40 -61 l0 -44 -265 0 -265 0 0 3055 c0 2620 -2
3056 -14 3061 -8 3 -29 -2 -47 -11 -31 -16 -33 -16 -46 1 -17 23 -17 125 1
149 12 17 14 17 37 2 24 -17 70 -23 68 -9 -1 4 -1 31 0 60 l1 52 265 0 265 0
0 -240z m640 -395 c0 -133 -2 -244 -5 -247 -3 -3 -22 3 -43 13 -55 28 -67 11
-67 -96 0 -100 9 -116 58 -97 17 7 37 14 42 15 7 1 11 -826 13 -2461 l2 -2462
-312 2 -312 3 0 2657 c-1 2080 -4 2660 -13 2669 -10 10 -20 8 -48 -6 -46 -26
-56 -14 -56 69 -1 81 12 104 47 81 13 -8 32 -15 44 -15 20 0 21 3 24 86 l1 31
313 0 312 0 0 -242z m605 -380 c0 -126 -1 -238 -3 -247 -4 -16 -7 -16 -33 -3
-58 30 -78 13 -83 -70 -7 -105 19 -144 74 -111 17 10 34 15 37 12 7 -7 8
-1935 1 -1942 -3 -3 -22 3 -42 13 -32 15 -38 15 -52 2 -18 -18 -26 -117 -13
-162 14 -49 24 -53 69 -28 l40 22 1 -48 c2 -118 0 -336 -4 -339 -2 -2 -21 3
-41 11 -20 9 -41 13 -46 10 -27 -17 -34 -150 -10 -195 13 -24 22 -25 61 -4 17
8 33 13 36 10 4 -4 7 -357 4 -499 l-1 -39 -34 21 c-60 38 -82 8 -80 -107 1
-45 6 -69 18 -80 15 -15 19 -15 51 2 19 11 38 16 41 13 5 -5 9 -378 5 -510 -1
-27 -1 -27 -31 -12 -57 29 -76 16 -84 -60 -11 -106 19 -154 74 -121 17 10 33
16 36 13 4 -4 7 -106 5 -200 l-1 -37 -39 19 c-39 20 -39 20 -57 0 -14 -16 -18
-36 -18 -94 1 -100 27 -128 82 -89 13 9 25 14 28 11 4 -4 8 -73 5 -105 -1 -10
-63 -12 -292 -10 l-292 3 -1 2467 c0 1356 -4 2470 -8 2474 -4 4 -26 -1 -48
-11 -27 -12 -44 -15 -51 -8 -14 14 -13 141 1 158 10 12 17 11 48 -5 21 -12 40
-16 45 -11 9 9 15 46 16 97 1 21 2 21 294 20 l292 -1 0 -230z m613 -395 c1
-129 0 -240 -3 -248 -3 -10 -14 -8 -44 8 l-40 20 -15 -22 c-21 -30 -22 -156
-2 -184 13 -17 18 -18 48 -6 18 7 38 14 43 15 13 3 19 -363 6 -376 -6 -6 -18
-3 -32 7 -31 21 -56 20 -69 -3 -15 -30 -13 -154 4 -177 13 -17 18 -18 48 -6
18 7 38 14 43 15 13 3 18 -203 6 -222 -7 -11 -13 -11 -32 3 -56 38 -79 11 -79
-92 0 -52 5 -75 18 -91 l17 -21 37 19 c32 18 37 18 42 5 10 -25 7 -212 -3
-218 -5 -3 -22 1 -37 9 -16 8 -34 15 -41 15 -21 0 -33 -37 -33 -102 0 -111 14
-130 73 -98 42 22 47 16 47 -56 l0 -44 -300 0 -299 0 0 313 c-1 1308 -2 1514
-10 1526 -8 13 -15 12 -50 -4 -23 -10 -44 -15 -47 -12 -12 12 -16 123 -5 150
l11 28 37 -19 c53 -27 63 -20 63 42 0 29 2 55 5 58 3 3 137 4 298 4 l292 -1 3
-235z m5843 -159 c3 -1 5 -117 5 -258 l-1 -258 -2915 -3 -2915 -2 0 135 c-1
83 -5 139 -12 146 -8 8 -19 6 -41 -5 -49 -25 -62 -21 -64 22 -2 52 0 93 7 120
l5 22 41 -21 c51 -25 61 -17 63 48 0 27 6 50 13 53 10 4 5790 5 5814 1z
m-5433 -540 c9 -1 12 -45 12 -186 l0 -185 -202 2 -202 3 -2 59 c-3 72 -12 83
-52 62 -62 -32 -66 -26 -64 83 1 70 12 80 57 56 44 -24 57 -14 60 52 2 26 3
50 4 53 1 4 333 5 389 1z m12 -576 l0 -185 -202 0 -203 0 -1 61 c-2 74 -15 86
-63 58 -47 -28 -55 -13 -53 100 1 59 13 69 57 45 34 -18 37 -18 49 -2 7 9 11
37 11 62 l-2 46 204 0 203 0 0 -185z m0 -390 l0 -185 -203 0 -202 0 -1 61 c-1
33 -5 64 -10 69 -5 5 -27 1 -51 -10 -27 -12 -45 -15 -49 -9 -11 18 -8 149 3
160 8 8 21 6 48 -6 46 -22 57 -13 60 52 2 26 3 49 4 51 0 1 91 2 201 2 l200 0
0 -185z m5140 -465 l0 -260 -3080 0 -3080 0 0 134 c0 154 -6 167 -59 135 -46
-28 -56 -14 -56 71 0 84 11 99 53 75 46 -28 62 -15 62 50 l0 55 3080 0 3080 0
0 -260z m1225 -612 c0 -252 -3 -334 -12 -338 -7 -3 -1667 -5 -3690 -5 l-3678
0 -3 210 c-1 115 -7 214 -12 219 -6 6 -24 3 -50 -9 -22 -10 -43 -15 -47 -11
-12 12 -9 154 4 167 8 8 18 7 41 -6 46 -28 62 -15 62 50 l0 55 3693 0 3692 0
0 -332z m915 -402 c1 -46 1 -503 0 -582 l0 -51 -4147 1 -4148 1 -2 209 c-2
120 -7 214 -13 220 -6 6 -23 3 -50 -9 -22 -10 -44 -15 -48 -11 -11 12 -8 154
4 166 8 8 20 6 45 -9 44 -27 59 -14 59 53 l0 52 4150 0 4150 1 0 -41z m-7709
-672 c0 -13 0 -80 0 -149 0 -69 0 -142 0 -163 l-1 -38 -295 1 -295 0 0 63 c0
71 -13 85 -55 58 -40 -26 -53 -20 -60 28 -4 25 -4 63 0 85 7 45 21 51 65 26
36 -19 50 -3 50 60 l0 52 295 0 295 0 1 -23z m-181 -556 l0 -188 -205 0 -205
0 0 58 c0 78 -9 89 -50 68 -35 -17 -60 -21 -60 -8 -1 4 -3 32 -6 62 -3 30 -1
67 5 83 l11 28 40 -21 c22 -11 45 -18 50 -15 6 3 10 30 10 60 0 29 4 55 10 57
5 2 98 3 205 3 l195 0 0 -187z m-1252 -391 l2 -187 -202 2 -202 3 -1 58 c-2
73 -11 83 -59 61 -26 -13 -39 -15 -47 -7 -13 13 -16 104 -6 146 l7 27 42 -21
c38 -19 43 -20 54 -5 6 9 10 34 9 56 -2 25 2 43 10 48 8 4 98 7 202 7 l188 -1
3 -187z m-2400 -235 c58 -38 79 -37 143 4 35 22 56 28 107 28 72 2 81 -6 75
-63 -4 -44 -7 -47 -37 -27 -53 34 -75 14 -80 -70 -4 -82 8 -124 37 -124 12 0
33 7 45 16 12 8 25 13 30 11 4 -3 7 -63 6 -134 l0 -128 -250 -3 c-172 -2 -258
1 -277 9 -53 22 -59 50 -60 286 0 145 3 217 10 221 6 4 54 7 106 6 89 0 97 -2
145 -32z m1045 29 c10 -1 9 -101 -1 -101 -5 0 -17 7 -28 15 -24 18 -48 19 -63
1 -18 -22 -24 -106 -12 -153 10 -35 16 -43 34 -43 13 0 32 7 43 15 10 8 22 15
27 15 4 0 7 -61 7 -135 l0 -135 -355 0 -355 0 0 133 c0 72 -4 138 -9 145 -7
11 -16 10 -50 -7 l-41 -22 -9 23 c-10 26 -8 144 2 154 4 4 24 -1 46 -11 22 -9
44 -14 50 -11 6 4 11 33 11 64 l0 57 347 -2 c192 0 351 -1 356 -2z m4645 -259
l2 -262 -2310 0 -2310 0 0 139 c0 156 -3 163 -64 130 -33 -18 -36 -18 -45 -1
-11 22 -12 135 -1 153 7 11 15 10 44 -4 52 -24 66 -15 66 47 0 29 2 55 4 57 2
2 1041 4 2308 4 l2303 0 3 -263z"/>
<path d="M360 8085 c0 -14 4 -25 9 -25 5 0 8 11 7 25 -1 33 -16 33 -16 0z"/>
<path d="M396 8092 c-8 -24 -3 -37 12 -31 4 2 5 15 2 29 l-6 25 -8 -23z"/>
<path d="M590 8051 c0 -67 15 -91 59 -91 49 0 65 21 67 89 1 43 -2 61 -10 61
-8 0 -12 -16 -12 -46 1 -66 -8 -84 -43 -84 -34 0 -41 13 -41 81 0 27 -4 49
-10 49 -6 0 -10 -26 -10 -59z"/>
<path d="M1119 8100 c0 -5 -1 -26 -1 -45 0 -78 2 -95 12 -95 6 0 10 14 10 30
0 27 3 30 33 30 21 0 41 8 52 20 17 18 17 21 1 45 -14 21 -24 25 -61 25 -25 0
-45 -4 -46 -10z m89 -37 c3 -20 -1 -23 -32 -23 -32 0 -36 3 -36 26 0 23 3 25
33 22 24 -2 33 -8 35 -25z"/>
<path d="M751 8066 c-17 -20 -3 -44 30 -51 17 -4 29 -13 29 -22 0 -12 -8 -14
-36 -10 -30 5 -34 4 -24 -8 14 -17 43 -19 70 -5 28 15 14 47 -27 60 -27 10
-32 15 -22 26 8 10 16 11 31 3 22 -12 34 -6 23 10 -9 16 -60 14 -74 -3z"/>
<path d="M873 8073 c-22 -9 -27 -72 -8 -93 21 -24 58 -26 75 -5 11 13 8 14
-20 9 -22 -5 -35 -3 -40 7 -11 17 8 30 35 23 11 -2 26 0 34 5 12 8 12 13 -3
35 -16 25 -43 32 -73 19z m55 -30 c2 -9 -7 -13 -27 -13 -23 0 -29 4 -24 16 6
17 44 15 51 -3z"/>
<path d="M980 8018 c0 -32 4 -58 10 -58 6 0 10 20 10 44 0 34 5 47 23 59 22
15 22 15 -10 15 l-33 -1 0 -59z"/>
<path d="M1260 8018 c0 -32 4 -58 10 -58 11 0 13 11 10 52 -1 16 7 34 21 46
l21 21 -31 -1 -31 -1 0 -59z"/>
<path d="M1348 8069 c-23 -13 -24 -72 -2 -93 20 -20 58 -21 74 -1 16 19 15 71
-1 91 -13 16 -46 18 -71 3z m60 -53 c-2 -21 -9 -32 -22 -34 -35 -7 -51 59 -19
77 26 14 45 -6 41 -43z"/>
<path d="M1460 8060 c-13 -24 -13 -56 1 -82 9 -16 17 -19 41 -14 24 5 29 3 26
-12 -3 -12 -13 -17 -36 -16 -39 2 -42 -13 -5 -22 46 -12 58 5 61 87 l3 75 -41
1 c-30 2 -42 -3 -50 -17z m65 -20 c9 -29 -4 -60 -25 -60 -25 0 -34 34 -21 78
1 1 10 2 20 2 11 0 23 -9 26 -20z"/>
<path d="M1580 8018 c0 -32 4 -58 10 -58 6 0 10 20 10 44 0 34 5 47 23 59 22
15 22 15 -10 15 l-33 -1 0 -59z"/>
<path d="M1660 8065 c-10 -12 -10 -15 3 -15 9 0 18 4 22 10 8 13 35 1 35 -15
0 -8 -14 -15 -32 -17 -29 -3 -33 -6 -33 -33 0 -29 1 -30 52 -31 45 -1 51 1 44
15 -5 9 -9 31 -9 48 0 18 -3 37 -7 43 -9 15 -61 12 -75 -5z m57 -62 c3 -7 -5
-17 -17 -23 -16 -9 -22 -8 -27 6 -3 9 0 20 8 25 17 10 31 7 36 -8z"/>
<path d="M1773 8018 c1 -68 20 -75 23 -9 2 41 18 66 36 55 4 -3 8 -27 8 -55 0
-27 5 -49 10 -49 10 0 13 17 10 62 -1 17 5 30 18 37 27 14 32 6 32 -51 0 -26
5 -48 10 -48 11 0 13 89 2 106 -4 6 -37 11 -78 11 l-71 -1 0 -58z"/>
<path d="M1961 8062 c-12 -23 -2 -34 43 -52 23 -8 26 -13 16 -25 -8 -10 -18
-11 -36 -4 -34 12 -39 11 -24 -6 15 -18 61 -20 78 -3 21 21 13 39 -23 54 -44
18 -47 39 -4 30 22 -4 29 -2 27 7 -3 6 -19 13 -36 15 -22 2 -34 -2 -41 -16z"/>
<path d="M290 4370 c-23 -23 -22 -16 -25 -105 -2 -73 12 -118 40 -129 22 -8
348 -8 370 0 30 12 42 55 39 139 -4 116 -2 115 -225 115 -166 0 -180 -1 -199
-20z m400 -26 c6 -14 10 -55 10 -91 0 -104 1 -103 -208 -103 -215 0 -212 -2
-212 108 0 115 -5 112 217 112 l183 0 10 -26z"/>
<path d="M372 4250 c11 -33 26 -60 33 -60 12 0 58 110 49 119 -8 8 -21 -12
-34 -54 -14 -43 -14 -42 -40 28 -5 15 -14 27 -19 27 -5 0 -1 -27 11 -60z"/>
<path d="M806 4293 c-11 -11 -6 -23 9 -23 8 0 15 4 15 9 0 13 -16 22 -24 14z"/>
<path d="M840 4280 c0 -6 30 -10 70 -10 40 0 70 4 70 10 0 6 -30 10 -70 10
-40 0 -70 -4 -70 -10z"/>
<path d="M802 4239 c2 -6 8 -10 13 -10 5 0 11 4 13 10 2 6 -4 11 -13 11 -9 0
-15 -5 -13 -11z"/>
<path d="M840 4240 c0 -6 30 -10 70 -10 40 0 70 4 70 10 0 6 -30 10 -70 10
-40 0 -70 -4 -70 -10z"/>
<path d="M1440 7721 c0 -6 4 -11 9 -11 21 0 21 -41 1 -79 -22 -44 -25 -61 -10
-61 5 0 12 11 16 25 3 13 12 29 19 35 10 9 15 4 20 -19 6 -30 21 -48 31 -38
10 10 -54 152 -70 155 -9 2 -16 -1 -16 -7z"/>
<path d="M1445 7277 c-13 -70 13 -115 52 -91 13 8 23 8 35 0 38 -23 69 29 54
90 -9 36 -29 30 -21 -6 4 -16 4 -39 0 -50 -9 -29 -35 -25 -35 5 0 16 -6 25
-15 25 -9 0 -15 -9 -15 -25 0 -30 -26 -34 -35 -5 -4 11 -4 33 0 49 3 16 2 32
-4 35 -6 4 -13 -8 -16 -27z"/>
<path d="M1481 3837 c-9 -11 -8 -17 4 -27 10 -9 15 -9 15 -1 0 6 21 12 53 13
l52 2 -50 3 c-27 3 -52 9 -56 14 -3 6 -10 4 -18 -4z"/>
<path d="M2020 7373 c-31 -12 -39 -38 -40 -121 0 -74 3 -85 23 -106 23 -23 27
-23 213 -22 104 1 197 6 206 10 23 11 31 39 33 116 1 69 -14 114 -40 124 -21
8 -375 7 -395 -1z m399 -27 c15 -13 19 -32 19 -89 1 -120 6 -117 -216 -117
-135 0 -193 4 -205 13 -14 9 -18 29 -19 94 -1 87 7 109 45 115 12 2 97 3 190
2 142 -1 170 -4 186 -18z"/>
<path d="M2084 7313 c-6 -11 -8 -41 -5 -73 5 -49 9 -55 31 -58 23 -2 24 -1 8
11 -21 16 -24 77 -6 95 8 8 9 12 1 12 -6 0 -13 7 -15 15 -2 13 -5 13 -14 -2z"/>
<path d="M2140 7238 c0 -32 4 -58 10 -58 6 0 10 20 10 44 0 34 5 47 23 59 22
15 22 15 -10 15 l-33 -1 0 -59z"/>
<path d="M2089 6935 c-5 -21 -2 -105 4 -105 9 0 9 2 12 63 1 26 -2 47 -7 47
-4 0 -9 -2 -9 -5z"/>
<path d="M2080 6800 c0 -5 7 -10 15 -10 8 0 15 5 15 10 0 6 -7 10 -15 10 -8 0
-15 -4 -15 -10z"/>
<path d="M2080 3942 c0 -6 7 -12 15 -16 19 -7 19 -45 1 -71 -20 -29 -29 -65
-17 -65 6 0 18 17 27 38 l17 37 15 -37 c8 -21 19 -38 23 -38 13 0 11 7 -19 85
-17 44 -34 71 -45 73 -9 2 -17 -1 -17 -6z"/>
<path d="M2106 933 c-4 -13 -15 -23 -24 -23 -14 0 -13 -2 2 -13 16 -11 16 -15
4 -28 -9 -9 -12 -25 -8 -44 l6 -30 7 28 c10 37 43 34 39 -3 -2 -24 -2 -24 9
-5 6 11 19 26 27 33 14 11 14 12 0 12 -22 0 -11 40 11 41 10 0 11 2 4 6 -7 2
-13 14 -14 26 0 22 0 22 -9 0 -5 -13 -16 -23 -24 -23 -8 0 -16 10 -18 23 l-4
22 -8 -22z m44 -37 c0 -18 -15 -36 -30 -36 -13 0 -17 5 -13 20 4 16 43 31 43
16z"/>
<path d="M2635 6540 c19 -21 17 -43 -9 -102 -10 -23 -12 -38 -6 -38 6 0 19 19
28 41 l18 42 12 -42 c7 -22 17 -41 22 -41 14 0 13 11 -12 77 -25 68 -35 83
-56 83 -13 0 -12 -3 3 -20z"/>
<path d="M2673 3653 c-18 -7 -16 -30 3 -37 8 -3 12 -2 9 4 -3 5 20 11 52 13
l58 3 -58 2 c-36 1 -56 6 -52 12 7 11 6 11 -12 3z"/>
<path d="M3291 6114 c-45 -57 -9 -114 72 -114 26 0 47 5 47 10 0 6 -20 10 -44
10 -47 0 -76 19 -76 49 0 29 33 51 78 51 23 0 42 5 42 10 0 6 -22 10 -49 10
-42 0 -53 -4 -70 -26z"/>
<path d="M3314 6085 c-14 -35 19 -56 74 -47 37 7 25 22 -18 22 -22 0 -40 5
-40 10 0 6 18 10 40 10 22 0 40 5 40 10 0 17 -90 12 -96 -5z"/>
<path d="M3334 4868 c-17 -20 -17 -21 -1 -8 17 13 18 11 15 -21 -3 -30 -7 -34
-35 -37 -43 -4 -43 -22 0 -22 40 0 57 15 57 52 0 15 5 28 11 28 8 0 8 5 -1 15
-17 20 -23 19 -46 -7z"/>
<path d="M3250 3546 c0 -16 45 -116 52 -116 4 0 17 15 28 33 21 34 27 87 10
87 -5 0 -10 -12 -10 -27 -1 -16 -6 -38 -13 -50 -12 -22 -13 -20 -30 27 -10 28
-22 50 -27 50 -6 0 -10 -2 -10 -4z"/>
<path d="M3290 2950 c0 -14 -7 -20 -22 -21 -17 -1 -19 -2 -5 -6 9 -2 17 -11
17 -18 0 -8 -8 -19 -17 -24 -12 -7 -14 -10 -4 -11 9 0 12 -8 9 -25 -3 -14 -1
-25 3 -25 5 0 9 10 9 23 0 16 6 23 21 24 17 2 20 -3 16 -23 -2 -13 0 -24 4
-24 5 0 9 9 9 20 0 12 10 24 23 30 17 7 18 9 5 9 -22 1 -23 15 -2 35 10 10 11
16 4 16 -7 0 -10 8 -7 20 3 11 1 18 -4 14 -5 -3 -9 -12 -9 -20 0 -8 -9 -14
-21 -14 -16 0 -19 4 -14 20 4 11 2 20 -4 20 -6 0 -11 -9 -11 -20z m40 -50 c0
-13 -7 -20 -20 -20 -22 0 -23 1 -14 24 9 23 34 20 34 -4z"/>
<path d="M3290 2250 c0 -8 19 -34 42 -57 30 -31 37 -43 25 -43 -9 0 -17 -5
-17 -11 0 -6 14 -9 33 -7 28 3 32 7 35 36 2 18 -1 32 -7 32 -6 0 -11 -8 -11
-17 0 -12 -15 -2 -50 32 -27 27 -50 43 -50 35z"/>
<path d="M3270 1691 c0 -5 7 -14 15 -21 14 -12 14 -15 -1 -31 -22 -24 -10 -37
14 -16 17 15 19 15 35 0 9 -9 19 -14 23 -10 3 3 -1 14 -10 23 -16 15 -16 18 0
35 22 25 10 37 -15 15 -16 -15 -19 -15 -31 -1 -14 17 -30 20 -30 6z"/>
<path d="M3310 1318 c-4 -14 -7 -28 -9 -38 0 -5 -10 -10 -21 -10 -11 0 -20 -4
-20 -10 0 -5 12 -10 26 -10 19 0 25 -4 21 -15 -4 -8 -2 -17 3 -20 6 -4 10 3
10 14 0 14 6 21 19 21 28 0 35 18 9 22 -14 2 -25 13 -29 28 -4 14 -8 22 -9 18z"/>
<path d="M3944 5710 c2 -69 -7 -89 -39 -86 -14 2 -28 -1 -31 -5 -3 -5 31 -9
76 -9 45 0 79 4 76 9 -3 5 -19 7 -36 6 l-30 -3 0 69 c0 38 -4 69 -9 69 -5 0
-8 -23 -7 -50z"/>
<path d="M3860 5263 c0 -24 36 -113 46 -113 32 0 65 107 36 117 -9 3 -11 -3
-9 -19 5 -26 -8 -68 -21 -68 -5 0 -15 20 -22 45 -7 25 -17 45 -21 45 -5 0 -9
-3 -9 -7z"/>
<path d="M3907 4824 c4 -11 -2 -23 -17 -34 -33 -25 -34 -87 -2 -108 12 -8 22
-23 22 -33 0 -25 15 -25 17 0 1 11 11 29 22 40 29 29 27 76 -3 96 -16 10 -23
24 -21 36 2 11 -2 19 -10 19 -9 0 -12 -6 -8 -16z m41 -97 c-3 -24 -24 -26 -22
-2 1 8 2 25 3 38 1 20 3 20 12 4 6 -10 9 -28 7 -40z m-42 14 c-1 -29 -15 -55
-17 -33 -4 39 -1 62 10 62 4 0 8 -13 7 -29z"/>
<path d="M3883 4392 c10 -10 17 -22 17 -27 0 -5 -7 -17 -17 -27 -11 -13 -12
-18 -3 -18 7 0 18 8 25 17 12 16 14 16 29 0 23 -23 43 -22 23 1 -21 23 -21 36
-2 52 9 7 13 15 10 18 -3 3 -14 -3 -25 -13 -19 -17 -21 -17 -38 -2 -25 23 -39
22 -19 -1z"/>
<path d="M3910 4005 c0 -18 -5 -25 -20 -25 -11 0 -20 -4 -20 -10 0 -5 9 -10
20 -10 13 0 20 -7 20 -20 0 -11 5 -20 10 -20 6 0 10 9 10 20 0 13 7 20 20 20
11 0 20 5 20 10 0 6 -9 10 -20 10 -15 0 -20 7 -20 25 0 14 -4 25 -10 25 -5 0
-10 -11 -10 -25z"/>
<path d="M5310 5370 c0 -33 -4 -60 -9 -60 -5 0 -23 8 -40 17 -29 17 -31 17
-48 0 -14 -14 -18 -34 -18 -97 0 -63 4 -83 18 -97 17 -17 19 -17 48 0 17 9 35
17 40 17 5 0 9 -29 9 -65 l0 -65 260 0 260 0 -2 203 -3 202 -257 3 -258 2 0
-60z m500 -144 c0 -167 -2 -184 -17 -187 -10 -2 -117 -4 -238 -4 l-220 1 -3
44 c-5 95 -13 103 -72 74 -42 -22 -50 -10 -50 76 0 86 9 101 49 77 56 -33 71
-20 71 59 l0 44 240 0 240 0 0 -184z"/>
<path d="M5582 5288 c-17 -17 -15 -33 3 -18 13 11 15 5 15 -43 0 -48 -3 -56
-22 -62 -22 -8 -22 -8 5 -12 15 -2 39 -2 55 0 26 4 26 4 5 12 -21 7 -23 14
-23 71 0 65 -11 79 -38 52z"/>
<path d="M5480 5210 c0 -5 11 -10 25 -10 14 0 25 5 25 10 0 6 -11 10 -25 10
-14 0 -25 -4 -25 -10z"/>
<path d="M6287 5424 c-4 -4 -7 -31 -7 -61 0 -57 -2 -60 -40 -38 -38 22 -50 18
-65 -19 -24 -57 -6 -186 26 -186 6 0 24 8 40 17 15 9 31 15 33 12 3 -3 6 -33
7 -67 l2 -62 224 0 223 0 -2 203 -3 202 -216 3 c-118 1 -218 -1 -222 -4z m421
-201 l-3 -186 -203 -1 -203 -1 1 30 c6 102 -8 122 -63 90 -28 -17 -31 -17 -42
-1 -16 21 -16 130 -1 152 12 15 15 15 45 -1 49 -25 61 -15 61 50 l0 55 205 0
205 0 -2 -187z"/>
<path d="M6475 5280 c-19 -21 -7 -28 13 -8 9 9 12 0 12 -44 0 -49 -3 -57 -22
-63 -22 -8 -22 -8 5 -12 15 -2 39 -2 55 0 26 4 26 4 5 12 -21 7 -23 14 -23 71
0 70 -12 81 -45 44z"/>
<path d="M7287 5423 c-4 -3 -7 -30 -7 -60 0 -29 -2 -53 -5 -53 -2 0 -20 8 -40
17 -33 16 -36 16 -53 0 -13 -14 -17 -35 -17 -97 0 -62 4 -83 17 -97 17 -16 20
-16 53 0 20 9 38 17 40 17 3 0 5 -29 5 -65 l0 -65 315 0 315 0 0 205 0 205
-308 0 c-170 0 -312 -3 -315 -7z m603 -197 c0 -138 -3 -185 -12 -188 -7 -2
-139 -3 -293 -3 l-280 2 -3 62 c-3 72 -16 83 -67 55 -19 -10 -38 -15 -42 -10
-11 10 -10 162 0 172 5 5 22 1 38 -9 56 -31 69 -20 69 59 l0 44 295 0 295 0 0
-184z"/>
<path d="M7382 5330 c-19 -18 -22 -31 -22 -109 0 -129 -6 -126 232 -127 183
-2 190 -1 215 21 25 21 26 27 25 111 -1 127 5 124 -236 124 -180 0 -194 -1
-214 -20z m421 -9 c18 -18 19 -162 1 -188 -14 -23 -19 -23 -202 -23 -140 0
-193 3 -206 13 -15 11 -18 28 -19 94 0 86 4 100 34 111 32 12 379 6 392 -7z"/>
<path d="M7458 5280 c-10 -11 -13 -20 -8 -20 6 0 10 -23 10 -50 0 -36 4 -52
15 -57 9 -3 19 -2 23 2 4 4 1 10 -5 12 -16 6 -17 75 -1 91 8 8 9 12 1 12 -6 0
-13 7 -15 15 -2 13 -6 12 -20 -5z"/>
<path d="M7520 5208 c0 -32 4 -58 10 -58 6 0 10 20 10 44 0 34 5 47 23 59 22
15 22 15 -10 15 l-33 -1 0 -59z"/>
<path d="M8410 5370 c0 -65 -8 -72 -48 -44 -28 19 -58 11 -66 -19 -3 -12 -6
-50 -6 -83 0 -46 5 -68 19 -85 19 -24 20 -24 49 -6 47 27 52 23 52 -48 l0 -65
220 0 220 0 0 205 0 205 -220 0 -220 0 0 -60z m421 23 c6 -105 2 -353 -6 -354
-5 0 -95 -1 -200 -2 l-190 0 -3 44 c-5 94 -17 105 -73 72 -40 -24 -49 -9 -49
77 0 86 9 101 49 77 56 -33 71 -20 71 59 l0 44 200 0 c183 0 200 -1 201 -17z"/>
<path d="M8608 5289 c-24 -13 -23 -28 0 -22 17 4 19 -1 17 -44 -1 -36 -5 -49
-18 -51 -35 -7 -15 -22 28 -22 25 0 45 5 45 10 0 6 -8 10 -18 10 -15 0 -18 9
-16 65 1 67 -4 74 -38 54z"/>
<path d="M9357 5423 c-4 -3 -7 -30 -7 -60 0 -29 -2 -53 -5 -53 -2 0 -20 8 -40
17 -33 16 -36 16 -53 0 -25 -26 -25 -169 1 -194 17 -17 19 -17 48 0 17 9 35
17 40 17 5 0 9 -29 9 -65 l0 -65 335 0 c261 0 335 3 336 13 1 18 1 338 0 370
l-1 27 -328 0 c-181 0 -332 -3 -335 -7z m648 -202 l0 -185 -295 1 c-162 1
-305 2 -317 2 -21 1 -23 6 -23 50 0 84 -12 96 -69 64 -16 -10 -33 -14 -38 -9
-10 10 -10 162 0 172 5 5 22 1 38 -9 56 -31 69 -20 69 59 l0 44 318 -2 317 -3
0 -184z"/>
<path d="M9548 5286 c-23 -17 -23 -29 0 -17 16 8 18 4 20 -45 2 -48 0 -54 -18
-54 -11 0 -20 -4 -20 -10 0 -5 23 -10 50 -10 28 0 50 5 50 10 0 6 -9 10 -20
10 -18 0 -20 7 -20 65 0 68 -8 77 -42 51z"/>
<path d="M9652 5288 c-17 -17 -15 -33 3 -18 13 11 15 5 15 -44 0 -43 -3 -56
-15 -56 -8 0 -15 -4 -15 -10 0 -5 20 -10 45 -10 25 0 45 5 45 10 0 6 -9 10
-19 10 -17 0 -19 7 -17 65 1 53 -1 65 -14 65 -9 0 -21 -5 -28 -12z"/>
<path d="M9766 5278 c-34 -48 -9 -128 39 -128 13 0 31 9 39 21 17 25 15 91 -4
114 -18 22 -56 18 -74 -7z m66 -20 c0 -13 2 -30 3 -38 5 -50 -49 -70 -60 -21
-10 46 3 81 31 81 18 0 24 -6 26 -22z"/>
<path d="M5016 5308 c-3 -7 -4 -51 -3 -98 2 -82 3 -85 27 -89 23 -3 24 -2 9
15 -12 14 -16 38 -14 97 1 70 -9 109 -19 75z"/>
<path d="M5990 5310 c0 -4 6 -10 14 -13 10 -4 13 -25 12 -79 -2 -79 1 -98 15
-98 6 0 8 42 7 98 -3 93 -4 97 -25 98 -13 1 -23 -2 -23 -6z"/>
<path d="M4670 5230 l0 -80 80 0 80 0 0 80 0 80 -80 0 -80 0 0 -80z m140 0 l0
-60 -60 0 -60 0 0 60 0 60 60 0 60 0 0 -60z"/>
<path d="M4770 5266 c0 -9 7 -16 16 -16 17 0 14 22 -4 28 -7 2 -12 -3 -12 -12z"/>
<path d="M4702 5198 c6 -18 28 -21 28 -4 0 9 -7 16 -16 16 -9 0 -14 -5 -12
-12z"/>
<path d="M4554 5258 c-17 -20 -17 -21 -1 -8 17 13 18 11 15 -21 -3 -30 -7 -34
-35 -37 -41 -4 -44 -22 -4 -22 36 0 61 23 61 56 0 13 5 24 11 24 8 0 8 5 -1
15 -17 20 -23 19 -46 -7z"/>
<path d="M6954 5258 c-17 -20 -17 -21 -1 -8 17 13 18 11 15 -21 -3 -30 -7 -34
-35 -37 -41 -4 -44 -22 -4 -22 36 0 61 23 61 56 0 13 5 24 11 24 8 0 8 5 -1
15 -17 20 -23 19 -46 -7z"/>
<path d="M9050 5255 c0 -20 -5 -25 -25 -25 -14 0 -25 -5 -25 -10 0 -6 6 -10
13 -9 27 3 37 -2 37 -21 0 -11 5 -20 11 -20 6 0 8 9 4 20 -6 19 7 26 38 21 4
0 7 3 7 8 0 5 -10 11 -22 13 -17 2 -22 9 -20 26 2 12 -2 22 -7 22 -6 0 -11
-11 -11 -25z"/>
<path d="M8070 5261 c0 -5 7 -14 15 -21 14 -12 14 -15 -1 -31 -22 -24 -10 -37
14 -16 17 15 19 15 35 0 9 -9 19 -14 23 -10 3 3 -1 14 -10 23 -16 15 -16 18 0
35 10 11 14 22 11 26 -4 3 -15 -1 -26 -11 -17 -15 -20 -15 -34 -1 -17 17 -27
19 -27 6z"/>
<path d="M4486 4798 c-25 -57 -1 -118 45 -118 30 0 49 29 49 75 0 50 -19 75
-56 75 -19 0 -28 -8 -38 -32z m72 -22 c6 -49 -6 -78 -31 -74 -18 2 -23 11 -25
42 -4 52 3 68 30 64 17 -2 24 -11 26 -32z"/>
<path d="M4502 4428 c-17 -17 -15 -33 3 -18 13 11 15 5 15 -44 0 -42 -4 -56
-14 -56 -8 0 -18 -4 -21 -10 -4 -6 13 -10 44 -10 28 0 51 5 51 10 0 6 -9 10
-20 10 -16 0 -19 7 -18 48 0 26 0 55 -1 65 -1 20 -21 23 -39 5z"/>
<path d="M4490 4035 c-20 -24 -16 -106 5 -122 45 -32 85 -3 85 62 0 49 -19 75
-54 75 -13 0 -29 -7 -36 -15z m68 -39 c6 -49 -6 -78 -31 -74 -18 2 -23 11 -25
42 -4 52 3 68 30 64 17 -2 24 -11 26 -32z"/>
<path d="M4858 3710 c0 -3 -2 -23 -3 -45 -2 -22 -3 -48 -4 -58 -1 -16 -3 -16
-40 2 -38 20 -39 20 -56 1 -11 -12 -18 -39 -20 -76 -5 -106 20 -143 75 -110
17 10 34 16 37 13 3 -3 6 -34 6 -69 l2 -63 335 0 335 0 0 205 0 205 -332 0
c-183 0 -334 -2 -335 -5z m650 -202 l2 -188 -320 0 -320 0 0 58 c0 81 -8 90
-59 67 -23 -10 -44 -15 -47 -12 -12 12 -15 123 -5 151 l11 28 35 -21 c47 -27
65 -19 66 33 1 37 2 47 7 67 1 3 143 5 315 5 l312 -1 3 -187z"/>
<path d="M5052 3568 c-17 -17 -15 -33 3 -18 13 11 15 5 15 -44 0 -49 -2 -56
-20 -56 -11 0 -20 -4 -20 -10 0 -5 23 -10 51 -10 31 0 48 4 44 10 -3 6 -13 10
-21 10 -11 0 -14 15 -14 65 0 66 -10 81 -38 53z"/>
<path d="M5158 3569 c-23 -13 -23 -28 0 -22 15 3 17 -3 18 -46 0 -43 -3 -51
-18 -51 -10 0 -18 -4 -18 -10 0 -5 20 -10 45 -10 25 0 45 5 45 10 0 6 -7 10
-15 10 -9 0 -15 10 -16 28 -3 82 -5 96 -14 98 -5 2 -18 -1 -27 -7z"/>
<path d="M5266 3558 c-35 -50 -10 -128 41 -128 30 0 47 27 47 75 0 24 -6 50
-13 59 -19 23 -57 20 -75 -6z m65 -20 c1 -13 2 -30 3 -38 3 -26 -14 -50 -34
-50 -23 0 -34 31 -25 76 5 28 10 34 30 34 19 0 25 -6 26 -22z"/>
<path d="M5984 3711 c-2 -2 -4 -31 -4 -63 l0 -59 -30 16 c-49 25 -68 20 -79
-22 -6 -21 -11 -51 -11 -68 0 -16 5 -47 11 -67 11 -42 37 -50 73 -23 11 8 23
15 27 15 5 0 9 -30 11 -67 l3 -68 343 -3 342 -2 0 208 0 208 -341 0 c-187 0
-342 -3 -345 -5z m667 -153 c0 -76 1 -154 1 -173 0 -19 -1 -42 -1 -50 -1 -13
-44 -15 -326 -15 l-325 0 0 64 c0 75 -11 85 -66 59 -29 -14 -37 -15 -44 -4
-11 19 -10 132 2 154 9 17 11 17 45 -3 46 -27 63 -14 63 50 0 25 2 49 5 52 3
3 149 5 325 5 l320 0 1 -139z"/>
<path d="M6166 3565 c-15 -16 -12 -45 6 -45 5 0 2 -7 -6 -16 -9 -8 -16 -22
-16 -29 0 -34 55 -57 88 -36 20 12 22 44 4 64 -9 11 -11 17 -4 17 16 0 15 33
0 48 -17 17 -54 15 -72 -3z m64 -21 c0 -19 -28 -30 -42 -16 -6 6 -8 17 -5 26
7 18 47 10 47 -10z m3 -57 c8 -22 -8 -39 -34 -35 -22 3 -31 21 -22 41 7 12 51
8 56 -6z"/>
<path d="M6293 3573 c-7 -2 -13 -16 -13 -29 0 -13 6 -24 13 -24 8 0 9 -3 1 -8
-19 -12 -23 -51 -7 -67 29 -29 93 -8 93 30 0 7 -7 21 -16 29 -8 9 -11 16 -6
16 18 0 21 29 6 45 -15 15 -46 18 -71 8z m55 -32 c-2 -9 -11 -17 -21 -19 -21
-4 -35 27 -17 38 19 12 42 0 38 -19z m5 -53 c2 -7 0 -21 -5 -30 -14 -28 -63
-1 -51 29 6 17 50 17 56 1z"/>
<path d="M6416 3567 c-13 -9 -18 -27 -18 -62 0 -35 5 -53 18 -62 44 -32 84 -3
84 62 0 65 -40 94 -84 62z m62 -41 c6 -49 -6 -78 -31 -74 -18 2 -23 11 -25 42
-4 52 3 68 30 64 17 -2 24 -11 26 -32z"/>
<path d="M7230 3669 c0 -76 -5 -82 -48 -58 l-37 19 -17 -21 c-13 -16 -18 -39
-18 -91 0 -102 24 -130 78 -92 33 23 42 10 42 -62 l0 -64 310 0 c288 0 310 1
311 18 4 71 3 385 -1 391 -3 4 -143 7 -312 7 l-308 0 0 -47z m586 26 c20 -4
21 -10 20 -187 l-1 -183 -295 -3 -295 -2 -1 60 c-1 77 -12 90 -59 65 -48 -26
-58 -13 -58 75 -1 85 10 97 60 68 44 -26 56 -15 59 54 1 29 2 53 3 54 4 3 550
2 567 -1z"/>
<path d="M7343 3629 c-33 -12 -41 -36 -39 -127 2 -123 -1 -122 238 -122 187 0
189 0 213 24 23 23 24 31 22 111 -4 125 1 122 -229 122 -101 0 -193 -3 -205
-8z m401 -25 c12 -12 16 -36 16 -99 0 -82 -1 -85 -27 -97 -20 -10 -80 -13
-207 -12 -213 1 -206 -3 -206 115 0 113 -7 109 220 109 158 0 191 -3 204 -16z"/>
<path d="M7410 3565 c0 -8 -4 -15 -9 -15 -5 0 -7 -12 -3 -27 4 -16 7 -41 6
-56 -1 -31 9 -42 34 -32 14 5 14 7 2 15 -17 11 -21 71 -4 85 8 7 6 14 -7 28
-16 14 -19 14 -19 2z"/>
<path d="M7460 3488 c0 -43 3 -58 13 -55 6 2 11 14 9 27 -5 34 7 70 23 70 8 0
15 4 15 8 0 5 -13 9 -30 9 -30 0 -30 0 -30 -59z"/>
<path d="M8359 3709 c-5 -3 -9 -10 -8 -15 1 -5 1 -30 0 -57 l-1 -48 -30 16
c-63 32 -79 18 -85 -76 -7 -105 22 -141 81 -103 13 9 27 15 29 12 3 -3 6 -34
8 -69 l2 -64 220 0 220 0 0 205 0 205 -213 0 c-117 1 -217 -2 -223 -6z m421
-200 l0 -189 -205 0 -205 0 0 58 c0 81 -8 90 -59 67 -23 -10 -44 -15 -47 -12
-12 12 -16 123 -5 150 l11 28 41 -22 c50 -25 59 -17 59 52 0 25 2 48 5 51 3 3
95 5 205 5 l200 0 0 -188z"/>
<path d="M8552 3568 c-17 -17 -15 -33 3 -18 13 11 15 5 15 -44 0 -49 -2 -56
-20 -56 -11 0 -20 -4 -20 -10 0 -5 23 -10 51 -10 31 0 48 4 44 10 -3 6 -13 10
-21 10 -11 0 -14 15 -14 65 0 66 -10 81 -38 53z"/>
<path d="M9299 3695 c-1 -11 0 -28 1 -39 1 -10 -1 -29 -4 -42 l-6 -24 -40 20
-39 20 -15 -22 c-19 -26 -22 -148 -6 -179 13 -23 38 -24 68 -3 29 20 37 13 39
-39 0 -23 2 -52 2 -64 l1 -23 220 0 220 0 0 205 c0 157 -3 205 -12 207 -7 0
-106 2 -220 2 -203 2 -208 1 -209 -19z m421 -187 l0 -188 -202 0 -203 0 -1 61
c-1 75 -13 90 -53 66 -43 -25 -61 -22 -62 11 -1 15 -2 43 -3 62 -1 19 2 47 7
62 l9 27 40 -20 c50 -26 60 -17 64 53 1 29 3 53 3 54 1 0 91 1 201 1 l200 0 0
-189z"/>
<path d="M9482 3568 c-21 -26 -18 -100 4 -122 38 -39 84 -7 84 59 0 26 -6 50
-16 59 -19 19 -58 21 -72 4z m66 -42 c5 -45 -6 -76 -28 -76 -24 0 -32 13 -32
55 0 44 9 57 35 53 16 -2 23 -11 25 -32z"/>
<path d="M4558 3587 c-2 -6 -3 -50 -3 -97 0 -80 2 -85 23 -88 12 -2 22 1 22 7
0 6 -4 11 -10 11 -6 0 -10 35 -10 84 0 47 -4 87 -9 90 -5 3 -11 0 -13 -7z"/>
<path d="M5690 3589 c0 -5 6 -9 13 -9 10 0 13 -22 14 -87 0 -58 4 -88 12 -91
9 -3 11 22 9 95 -3 94 -4 98 -25 99 -13 1 -23 -3 -23 -7z"/>
<path d="M4070 3570 c37 -37 36 -66 -4 -105 -36 -34 -36 -35 -11 -35 16 0 23
4 19 13 -2 7 5 22 16 32 18 16 23 17 31 5 5 -8 7 -23 5 -32 -3 -14 2 -18 24
-18 l29 0 -25 43 -24 43 34 37 c33 37 33 37 9 37 -14 0 -22 -4 -18 -11 4 -5
-1 -19 -11 -30 -18 -20 -18 -20 -30 3 -9 17 -9 25 -1 30 7 4 -5 8 -25 8 -38 0
-38 0 -18 -20z"/>
<path d="M4210 3510 l0 -80 79 0 c54 0 80 4 83 13 2 6 4 41 3 77 l-1 65 -82 3
-82 3 0 -81z m146 10 c0 -68 -1 -70 -67 -70 l-59 0 0 60 0 61 63 -3 62 -3 1
-45z"/>
<path d="M4317 3554 c-8 -8 1 -24 14 -24 5 0 9 7 9 15 0 15 -12 20 -23 9z"/>
<path d="M4247 3484 c-8 -8 1 -24 14 -24 5 0 9 7 9 15 0 15 -12 20 -23 9z"/>
<path d="M3944 3545 c-15 -12 -16 -14 -3 -15 18 0 21 -28 6 -47 -5 -7 -20 -13
-33 -13 -13 0 -24 -4 -24 -10 0 -5 13 -10 30 -10 21 0 35 8 46 25 9 14 14 28
10 32 -3 3 -1 12 5 19 11 13 5 34 -10 34 -4 0 -16 -7 -27 -15z"/>
<path d="M6899 3543 c-12 -14 -12 -16 2 -11 13 5 15 1 10 -25 -6 -27 -12 -32
-39 -35 -38 -4 -33 -22 7 -22 35 0 51 17 51 53 0 22 4 28 15 23 12 -4 13 -2 2
14 -15 24 -30 25 -48 3z"/>
<path d="M8991 3553 c4 -27 -3 -43 -21 -43 -11 0 -20 -4 -20 -10 0 -5 9 -10
20 -10 13 0 20 -7 20 -20 0 -11 5 -20 10 -20 6 0 10 9 10 20 0 13 7 20 19 20
11 0 23 5 26 10 4 6 -5 10 -19 10 -21 0 -26 5 -26 25 0 14 -4 25 -10 25 -5 0
-9 -3 -9 -7z"/>
<path d="M8026 3525 c16 -24 16 -27 -1 -45 -22 -24 -9 -27 17 -3 17 15 19 15
38 -2 11 -10 22 -16 25 -13 3 3 -1 11 -10 18 -8 7 -15 18 -15 25 0 7 7 18 15
25 9 7 13 15 10 18 -3 3 -14 -3 -25 -13 -19 -17 -21 -17 -38 -2 -27 25 -35 21
-16 -8z"/>
<path d="M6230 3110 c0 -33 -2 -60 -3 -60 -2 0 -18 7 -35 16 -45 22 -64 15
-75 -26 -12 -48 -4 -147 14 -165 13 -13 19 -12 52 5 20 11 39 20 42 20 3 0 5
-65 5 -145 l0 -145 1423 2 1422 3 1 278 2 277 -1424 0 -1424 0 0 -60z m2828
-218 l2 -262 -1405 0 -1405 0 -1 123 c-1 67 -1 126 0 131 1 4 -3 14 -10 22 -9
11 -17 11 -47 -2 -55 -23 -62 -15 -62 71 0 86 9 96 60 70 43 -22 60 -7 60 55
0 25 2 49 4 51 2 2 634 4 1403 4 l1398 -1 3 -262z"/>
<path d="M7249 3098 c-1 -2 -2 -27 -3 -55 -2 -29 -5 -55 -8 -58 -3 -3 -20 1
-39 9 -21 9 -41 11 -49 6 -28 -17 -29 -175 -2 -202 9 -9 20 -8 48 6 20 9 39
14 42 11 3 -3 6 -33 6 -65 l1 -60 222 0 223 0 0 205 0 205 -220 0 c-121 0
-221 -1 -221 -2z m421 -202 c0 -138 -3 -185 -12 -188 -11 -3 -279 -2 -370 1
-25 1 -26 3 -26 57 1 71 -10 83 -58 60 -27 -12 -40 -14 -48 -6 -13 13 -13 147
1 161 7 7 22 4 47 -7 46 -22 56 -13 59 54 l2 52 203 0 202 0 0 -184z"/>
<path d="M7433 2963 c-7 -2 -13 -12 -13 -21 0 -12 3 -13 12 -4 7 7 22 12 35
12 29 0 31 -30 3 -37 -25 -7 -26 -23 -2 -23 25 0 31 -7 25 -31 -6 -20 -53 -28
-53 -9 0 6 -7 10 -15 10 -20 0 -8 -28 17 -36 53 -17 96 29 62 67 -10 11 -12
19 -6 19 18 0 14 47 -4 54 -18 7 -43 7 -61 -1z"/>
<path d="M7867 3093 c-3 -5 -5 -30 -5 -57 -1 -27 -3 -50 -5 -52 -2 -3 -21 3
-42 12 -45 18 -53 13 -66 -46 -11 -49 -3 -121 16 -147 13 -17 15 -17 50 0 21
10 39 16 41 14 2 -2 5 -31 6 -65 l2 -62 223 0 223 0 -2 203 -3 202 -217 3
c-119 1 -219 -1 -221 -5z m423 -198 c0 -141 -3 -185 -12 -186 -7 0 -98 -1
-203 -2 l-190 -1 -3 60 c-2 32 -8 63 -13 68 -5 6 -23 3 -45 -8 -25 -11 -40
-14 -47 -7 -13 13 -18 117 -6 148 8 23 9 23 46 8 53 -22 63 -15 63 50 l0 55
205 0 205 0 0 -185z"/>
<path d="M8040 2931 c0 -39 0 -40 34 -34 35 5 51 -11 40 -42 -7 -17 -54 -21
-54 -5 0 6 -4 10 -10 10 -22 0 -8 -30 17 -36 47 -12 85 28 65 70 -9 20 -19 26
-42 26 -20 0 -30 5 -30 15 0 14 24 20 58 16 6 -1 12 3 12 9 0 5 -20 10 -45 10
l-45 0 0 -39z"/>
<path d="M8487 3094 c-4 -4 -7 -31 -7 -61 0 -29 -2 -53 -4 -53 -2 0 -20 7 -40
15 -20 9 -41 13 -46 10 -34 -21 -36 -179 -3 -206 12 -11 20 -10 45 4 16 9 34
17 39 17 5 0 9 -29 9 -65 l0 -65 223 2 222 3 0 200 0 200 -216 3 c-118 1 -218
-1 -222 -4z m423 -199 c0 -185 0 -185 -22 -186 -13 0 -105 -2 -206 -2 l-182
-2 0 63 c0 74 -13 84 -65 56 -19 -10 -38 -15 -42 -10 -10 9 -11 162 -1 171 3
4 22 -1 42 -10 53 -25 66 -16 66 50 l0 55 205 0 205 0 0 -185z"/>
<path d="M8655 2960 c4 -6 14 -10 23 -9 51 5 53 2 32 -38 -24 -48 -35 -93 -23
-93 6 0 16 19 23 43 7 23 21 54 31 68 10 14 16 29 12 33 -11 11 -105 7 -98 -4z"/>
<path d="M6411 3006 c-18 -19 -21 -35 -21 -107 0 -114 7 -122 101 -125 81 -2
119 4 119 17 0 5 -10 5 -22 0 -38 -13 -169 -6 -179 10 -5 8 -9 53 -9 100 0 97
10 115 61 111 16 -1 29 1 29 5 0 19 -60 10 -79 -11z"/>
<path d="M6515 3020 c-16 -6 -14 -8 12 -7 18 0 30 4 27 9 -6 10 -12 9 -39 -2z"/>
<path d="M6570 3019 c0 -5 8 -9 18 -9 29 0 40 -38 37 -130 -2 -54 0 -77 6 -63
12 31 5 169 -10 186 -14 18 -51 29 -51 16z"/>
<path d="M6817 2983 c-3 -7 -1 -163 2 -185 0 -5 18 -7 39 -7 20 1 29 3 20 6
-16 4 -18 17 -18 93 0 76 2 89 18 93 9 3 0 5 -20 6 -20 0 -38 -2 -41 -6z m33
-93 c0 -43 -4 -82 -10 -85 -6 -4 -10 27 -10 85 0 58 4 89 10 85 6 -3 10 -42
10 -85z"/>
<path d="M6933 2983 c15 -4 17 -17 17 -93 0 -61 -4 -90 -12 -93 -7 -3 3 -6 22
-6 l36 -1 0 100 1 100 -41 -1 c-23 -1 -33 -3 -23 -6z m49 -15 c3 -11 3 -135
-1 -160 -1 -5 -5 -8 -9 -8 -5 0 -9 41 -9 90 1 81 8 111 19 78z"/>
<path d="M6499 2943 c-9 -2 -21 -15 -27 -29 -10 -20 -8 -28 8 -44 11 -11 26
-20 33 -20 20 0 45 32 42 52 -3 16 -29 50 -37 47 -2 -1 -10 -3 -19 -6z m48
-46 c-3 -15 -23 -37 -35 -37 -5 0 -17 9 -26 19 -17 18 -17 20 4 41 20 20 23
21 40 5 11 -10 18 -22 17 -28z"/>
<path d="M5019 3098 c-1 -2 -3 -27 -4 -56 -1 -29 -4 -55 -7 -57 -3 -3 -22 2
-43 11 -36 15 -40 15 -52 -2 -7 -10 -14 -27 -14 -38 -5 -75 -5 -94 2 -120 13
-46 24 -52 65 -32 20 9 39 15 42 12 2 -3 5 -33 4 -66 l0 -60 314 0 314 0 0
205 0 205 -310 0 c-170 0 -311 -1 -311 -2z m601 -60 c2 -128 -2 -323 -5 -327
-6 -5 -555 -8 -572 -3 -9 3 -13 25 -13 63 0 69 -11 79 -60 54 -45 -23 -55 -9
-55 75 0 83 8 95 52 73 56 -26 65 -15 66 85 l0 22 293 0 294 0 0 -42z"/>
<path d="M5123 3008 c-27 -13 -33 -35 -33 -124 0 -56 4 -77 19 -95 19 -24 22
-24 208 -25 105 -1 198 3 210 9 30 13 40 49 38 136 -3 112 -2 111 -234 110
-107 0 -195 -5 -208 -11z m374 -7 c41 -2 53 -26 53 -108 0 -116 5 -113 -217
-113 -108 0 -192 4 -204 10 -17 9 -19 22 -19 99 0 91 6 105 44 112 16 3 271 3
343 0z"/>
<path d="M5194 2953 c-17 -28 -3 -127 19 -131 9 -2 17 1 17 7 0 6 -4 11 -10
11 -15 0 -12 77 3 83 8 4 9 8 1 14 -6 4 -13 14 -15 21 -3 8 -7 7 -15 -5z"/>
<path d="M5250 2878 c0 -32 4 -58 10 -58 6 0 10 20 10 44 0 34 5 47 23 59 22
15 22 15 -10 15 l-33 -1 0 -59z"/>
<path d="M9579 3088 c0 -7 -1 -32 -1 -56 0 -23 -4 -44 -8 -47 -4 -3 -24 2 -43
10 -31 13 -36 13 -50 -3 -24 -27 -26 -156 -3 -187 14 -19 15 -19 51 -2 20 9
40 15 45 12 5 -3 8 -31 7 -63 l-2 -57 223 -3 222 -2 0 205 0 205 -220 0 c-169
0 -220 -3 -221 -12z m421 -195 l0 -188 -202 1 -203 1 -1 39 c-3 106 -6 109
-66 78 -43 -22 -53 -7 -52 77 1 84 10 97 52 75 59 -31 64 -26 65 67 l1 37 203
0 203 0 0 -187z"/>
<path d="M9778 2959 c-10 -5 -18 -15 -18 -21 0 -7 5 -6 15 2 13 11 15 5 15
-44 0 -42 -4 -56 -14 -56 -8 0 -18 -4 -21 -10 -4 -6 13 -10 44 -10 28 0 51 5
51 10 0 6 -8 10 -19 10 -16 0 -18 7 -17 53 3 77 -2 86 -36 66z"/>
<path d="M10520 3040 c0 -65 -4 -69 -52 -44 -31 16 -33 16 -50 -6 -26 -32 -25
-149 1 -181 19 -24 20 -24 49 -6 47 27 52 23 52 -48 l0 -65 220 0 220 0 0 205
0 205 -220 0 -220 0 0 -60z m421 18 c1 -30 1 -319 0 -338 -1 -13 -30 -15 -199
-14 l-197 0 -3 35 c-7 104 -16 113 -74 83 -40 -21 -48 -9 -48 76 0 85 8 97 48
76 57 -30 72 -16 72 67 l0 37 200 0 200 0 1 -22z"/>
<path d="M10706 2954 c-10 -9 -16 -33 -16 -59 0 -50 19 -75 56 -75 44 0 65 95
31 138 -13 17 -52 15 -71 -4z m65 -40 c9 -45 -6 -76 -33 -72 -25 3 -35 40 -23
85 9 36 47 28 56 -13z"/>
<path d="M4060 2890 l0 -100 38 0 c30 1 34 3 20 11 -25 14 -25 176 0 182 9 3
0 5 -20 6 l-38 1 0 -100z m30 0 c0 -53 -4 -90 -10 -90 -6 0 -10 37 -10 90 0
53 4 90 10 90 6 0 10 -37 10 -90z"/>
<path d="M4180 2981 c21 -13 20 -169 -1 -182 -10 -6 -2 -9 24 -9 l37 0 0 100
0 100 -37 0 c-27 -1 -34 -3 -23 -9z m46 -86 c0 -47 -5 -86 -10 -88 -5 -1 -9
33 -9 78 2 99 1 95 12 95 5 0 8 -38 7 -85z"/>
<path d="M5800 2890 l0 -100 38 0 c27 0 33 3 22 10 -22 14 -22 168 0 180 11 7
5 9 -22 10 l-38 0 0 -100z m30 0 c0 -51 -4 -90 -10 -90 -5 0 -9 38 -8 90 0 50
5 90 9 90 5 0 9 -40 9 -90z"/>
<path d="M5922 2978 c22 -18 20 -164 -2 -178 -11 -7 -5 -10 23 -10 l37 0 0
100 0 100 -37 0 c-31 0 -34 -2 -21 -12z m48 -88 c0 -53 -4 -90 -10 -90 -6 0
-10 37 -10 90 0 53 4 90 10 90 6 0 10 -37 10 -90z"/>
<path d="M4275 2900 l0 -80 81 0 81 0 0 80 1 80 -81 0 -82 0 0 -80z m142 0 l0
-61 -61 3 -61 3 0 58 0 57 61 0 61 0 0 -60z"/>
<path d="M4380 2935 c0 -8 5 -15 10 -15 6 0 10 7 10 15 0 8 -4 15 -10 15 -5 0
-10 -7 -10 -15z"/>
<path d="M4310 2865 c0 -9 5 -15 11 -13 6 2 11 8 11 13 0 5 -5 11 -11 13 -6 2
-11 -4 -11 -13z"/>
<path d="M3946 2935 c-3 -8 -2 -15 3 -15 4 0 7 -10 5 -22 -1 -13 -3 -26 -3
-30 -1 -5 -14 -8 -31 -8 -16 0 -30 -4 -30 -10 0 -12 50 -13 68 -1 7 4 14 21
16 37 2 16 4 33 5 38 0 5 9 2 19 -5 14 -11 13 -10 -2 9 -22 26 -41 28 -50 7z"/>
<path d="M4690 2935 c-9 -11 -9 -15 -1 -15 8 0 11 -11 9 -27 -2 -23 -8 -29
-35 -31 -43 -4 -43 -22 0 -22 40 0 57 15 57 52 0 15 5 28 11 28 8 0 8 5 -1 15
-7 8 -16 15 -20 15 -4 0 -13 -7 -20 -15z"/>
<path d="M10218 2944 c-3 -5 -4 -17 -3 -26 2 -13 -4 -18 -21 -18 -13 0 -24 -5
-24 -11 0 -6 6 -9 14 -6 15 6 34 -10 34 -28 0 -5 5 -11 10 -13 6 -2 8 6 5 17
-4 16 -1 21 15 21 12 0 24 5 27 10 4 6 -5 10 -20 10 -19 0 -26 4 -22 13 6 16
-8 43 -15 31z"/>
<path d="M9240 2931 c0 -5 7 -14 15 -21 14 -12 13 -16 -6 -37 -25 -25 -8 -33
18 -8 14 14 17 14 34 -1 11 -10 22 -14 26 -11 4 4 -2 13 -12 21 -18 13 -18 15
-2 40 19 29 13 34 -14 11 -15 -14 -18 -14 -32 0 -17 17 -27 19 -27 6z"/>
<path d="M6230 2420 c0 -33 -3 -60 -7 -60 -5 1 -19 7 -33 15 -41 23 -57 18
-70 -21 -15 -43 -9 -146 9 -168 12 -14 17 -14 48 -1 20 8 39 15 44 15 5 0 9
-63 9 -140 l0 -140 1883 2 1882 3 1 278 0 277 -1883 0 -1883 0 0 -60z m3748
-220 l0 -260 -1864 0 -1864 0 0 128 c0 70 -5 134 -10 142 -8 13 -14 13 -54 -2
-54 -20 -56 -16 -56 75 0 86 8 95 59 72 23 -10 44 -15 48 -12 3 4 8 32 11 62
l4 55 1863 0 1862 0 1 -260z"/>
<path d="M7249 2405 c-1 0 -2 -25 -4 -55 -2 -30 -3 -58 -4 -62 -1 -4 -16 1
-33 12 -18 11 -38 20 -44 20 -21 0 -37 -51 -36 -115 2 -100 23 -124 78 -89 13
9 28 14 32 10 3 -4 7 -35 7 -69 l0 -62 365 0 c201 -1 370 0 376 2 8 3 11 67
10 206 l-1 202 -373 0 c-204 0 -372 0 -373 0z m725 -34 c2 -9 3 -92 3 -186
l-2 -170 -352 -1 c-194 0 -354 2 -354 5 -1 3 -3 30 -5 60 -4 70 -15 81 -59 56
-26 -13 -39 -15 -46 -8 -24 24 -15 173 10 173 4 0 16 -7 27 -15 10 -8 29 -15
42 -15 19 0 22 6 23 38 1 20 2 42 4 47 1 6 3 15 3 21 2 7 109 11 352 11 312 0
350 -2 354 -16z"/>
<path d="M7429 2263 c-17 -20 -17 -97 1 -118 17 -21 53 -19 75 5 14 15 16 30
12 66 -2 26 -11 50 -18 55 -22 14 -55 10 -70 -8z m66 -24 c4 -11 4 -36 0 -55
-4 -25 -11 -34 -26 -34 -31 0 -45 65 -23 102 10 16 43 8 49 -13z"/>
<path d="M7600 2270 c0 -5 17 -10 39 -10 l38 0 -23 -47 c-25 -49 -31 -83 -14
-83 6 0 10 8 10 18 0 10 11 41 25 68 14 27 25 52 25 57 0 4 -22 7 -50 7 -27 0
-50 -4 -50 -10z"/>
<path d="M7725 2270 c3 -5 22 -10 40 -10 l35 0 -20 -37 c-25 -50 -35 -93 -21
-93 6 0 14 12 17 28 4 15 18 48 31 75 l23 47 -55 0 c-35 0 -54 -4 -50 -10z"/>
<path d="M7550 2146 c0 -9 5 -16 10 -16 6 0 10 4 10 9 0 6 -4 13 -10 16 -5 3
-10 -1 -10 -9z"/>
<path d="M8174 2401 c-2 -2 -4 -31 -4 -63 l0 -58 -41 21 c-38 19 -43 19 -58 5
-24 -24 -23 -168 1 -193 17 -16 20 -16 53 0 20 9 38 17 40 17 2 0 5 -30 7 -67
l3 -68 373 0 372 0 -2 205 -3 205 -368 0 c-203 0 -370 -2 -373 -4z m726 -201
l0 -187 -355 0 -355 0 0 56 c0 80 -8 89 -60 66 -36 -16 -43 -17 -51 -4 -12 19
-11 126 1 150 11 19 11 19 50 -1 39 -20 39 -20 50 -1 5 11 10 40 10 64 l0 44
355 0 355 0 0 -187z"/>
<path d="M8350 2261 c-15 -30 -12 -97 6 -115 25 -26 62 -20 77 12 17 33 11 93
-10 110 -25 18 -61 15 -73 -7z m65 -56 c0 -47 -2 -50 -25 -50 -22 0 -25 5 -28
39 -4 52 3 68 30 64 20 -3 23 -9 23 -53z"/>
<path d="M8542 2268 c-15 -15 -16 -48 0 -48 7 0 5 -6 -4 -17 -28 -32 -8 -72
35 -73 50 0 73 42 41 74 -8 9 -11 16 -6 16 18 0 21 29 6 45 -18 18 -55 20 -72
3z m56 -25 c-2 -10 -12 -18 -23 -18 -11 0 -21 8 -23 18 -3 13 3 17 23 17 20 0
26 -4 23 -17z m5 -71 c-14 -38 -53 -36 -53 3 0 27 17 36 42 23 11 -5 15 -15
11 -26z"/>
<path d="M8659 2264 c-10 -12 -10 -20 -1 -34 7 -12 8 -21 2 -25 -16 -10 -12
-62 6 -69 25 -10 59 -7 72 6 15 15 16 54 2 63 -7 4 -6 13 1 27 9 18 8 24 -7
35 -24 18 -59 16 -75 -3z m64 -10 c9 -9 -3 -34 -17 -34 -20 0 -39 17 -32 29 8
12 39 15 49 5z m5 -82 c-2 -10 -15 -18 -31 -20 -23 -3 -27 0 -27 22 0 13 6 26
13 29 19 7 49 -13 45 -31z"/>
<path d="M8475 2149 c-10 -15 3 -25 16 -12 7 7 7 13 1 17 -6 3 -14 1 -17 -5z"/>
<path d="M9099 2405 c-1 0 -3 -25 -4 -55 -1 -30 -3 -58 -4 -61 0 -4 -20 3 -42
14 -41 20 -42 20 -55 2 -15 -20 -18 -50 -15 -125 4 -78 27 -96 77 -64 32 22
39 13 40 -49 1 -29 2 -57 3 -62 1 -7 129 -10 369 -9 202 1 369 2 372 3 10 2 5
401 -5 402 -7 1 -611 4 -736 4z m726 -205 l0 -185 -355 0 -355 0 -1 59 c-3 73
-14 87 -55 63 -41 -23 -56 -22 -61 6 -7 37 -2 137 8 147 5 5 25 1 49 -10 47
-22 53 -17 59 57 2 26 4 48 5 49 1 0 160 0 354 0 l352 -1 0 -185z"/>
<path d="M9279 2263 c-8 -9 -14 -35 -14 -58 0 -49 18 -75 51 -75 29 0 54 35
54 75 0 62 -58 99 -91 58z m67 -38 c7 -41 1 -63 -21 -72 -22 -8 -38 10 -40 44
-5 66 49 91 61 28z"/>
<path d="M9462 2268 c-30 -30 -7 -81 37 -81 33 0 36 -4 22 -26 -6 -9 -18 -11
-42 -6 -30 7 -32 6 -20 -9 18 -22 54 -20 75 3 24 26 24 100 0 118 -22 16 -56
17 -72 1z m66 -36 c4 -28 -24 -40 -45 -19 -21 21 -9 49 19 45 15 -2 24 -11 26
-26z"/>
<path d="M9586 2264 c-18 -17 -19 -24 -10 -48 10 -26 41 -38 63 -27 16 9 18 8
14 -10 -7 -27 -31 -35 -56 -20 -17 11 -19 11 -13 -4 3 -9 6 -19 6 -21 0 -2 14
-4 30 -4 25 0 33 6 44 32 15 36 13 83 -5 104 -15 19 -54 18 -73 -2z m62 -32
c4 -26 -21 -40 -42 -23 -8 7 -12 21 -9 32 8 28 47 22 51 -9z"/>
<path d="M9400 2146 c0 -9 5 -16 10 -16 6 0 10 4 10 9 0 6 -4 13 -10 16 -5 3
-10 -1 -10 -9z"/>
<path d="M6490 2330 c0 -6 7 -10 15 -10 8 0 15 2 15 4 0 2 -7 6 -15 10 -8 3
-15 1 -15 -4z"/>
<path d="M6530 2329 c0 -5 12 -9 28 -9 44 0 74 -26 68 -61 -2 -16 -1 -29 3
-29 14 0 10 54 -4 74 -14 19 -95 40 -95 25z"/>
<path d="M6402 2310 c-7 -12 -12 -54 -12 -105 0 -111 11 -124 105 -124 37 0
64 3 61 6 -3 3 -33 5 -66 5 -82 -1 -90 9 -90 112 0 92 10 113 55 119 29 4 28
4 -5 6 -25 1 -39 -5 -48 -19z"/>
<path d="M6815 2200 l0 -100 40 1 c22 1 32 3 23 6 -16 4 -18 17 -18 93 0 76 2
89 18 93 9 3 -1 5 -23 6 l-40 1 0 -100z m34 0 c0 -49 -5 -90 -10 -90 -5 0 -9
41 -9 90 0 53 4 90 10 90 6 0 10 -36 9 -90z"/>
<path d="M6938 2294 c8 -4 12 -33 12 -94 0 -76 -2 -89 -17 -93 -10 -3 0 -5 22
-6 l41 -1 -1 98 0 97 -35 2 c-19 1 -29 0 -22 -3z m47 -82 c0 -61 -8 -119 -16
-102 -1 3 -3 45 -4 93 -2 58 1 87 8 84 6 -2 11 -34 12 -75z"/>
<path d="M6510 2253 c0 -5 9 -14 20 -21 11 -7 20 -8 20 -2 0 5 -9 14 -20 20
-11 6 -20 7 -20 3z"/>
<path d="M6479 2245 c-1 -3 -2 -8 -3 -12 -1 -5 -5 -14 -10 -21 -5 -8 -1 -21
10 -33 18 -20 54 -26 54 -9 0 5 -7 7 -15 3 -21 -8 -47 27 -33 44 6 7 7 13 2
13 -5 0 -2 5 6 10 10 6 11 10 3 10 -7 0 -14 -2 -14 -5z"/>
<path d="M6540 2195 c0 -8 4 -15 8 -15 5 0 9 7 9 15 0 8 -4 15 -9 15 -4 0 -8
-7 -8 -15z"/>
<path d="M6622 2144 c-2 -27 -30 -56 -44 -48 -5 3 -8 0 -8 -5 0 -17 19 -13 41
8 20 19 36 71 21 71 -4 0 -9 -12 -10 -26z"/>
<path d="M5014 2384 c-3 -11 -4 -24 -3 -30 1 -5 1 -24 0 -42 l-1 -34 -35 21
c-19 11 -42 18 -50 15 -21 -9 -33 -59 -30 -127 5 -84 28 -105 81 -71 13 9 27
14 30 11 3 -3 7 -34 8 -69 l2 -63 310 0 309 0 3 205 2 205 -310 0 c-306 0
-311 0 -316 -21z m608 -113 c2 -64 2 -148 0 -187 l-3 -71 -292 1 -292 1 -2 59
c-3 74 -14 87 -54 63 -36 -20 -58 -22 -61 -4 -6 49 -4 135 3 150 9 16 12 16
48 -2 48 -25 61 -14 61 49 0 26 2 49 5 52 3 2 135 5 294 5 l290 0 3 -116z"/>
<path d="M5115 2305 c-22 -22 -25 -32 -25 -105 0 -73 3 -83 25 -105 24 -25 26
-25 210 -25 103 0 195 4 205 10 26 14 36 54 34 139 -2 111 -1 111 -236 111
-187 0 -189 0 -213 -25z m421 -12 c19 -26 18 -152 -2 -181 -15 -21 -20 -22
-204 -22 -227 0 -220 -4 -220 110 0 114 -8 110 222 110 170 0 192 -2 204 -17z"/>
<path d="M5194 2263 c-6 -11 -8 -41 -5 -73 5 -49 9 -55 31 -58 23 -2 24 -1 8
11 -11 9 -18 28 -18 50 0 24 6 39 18 46 15 9 15 10 0 11 -9 0 -18 7 -20 15 -2
13 -5 13 -14 -2z"/>
<path d="M5250 2188 c0 -32 4 -58 10 -58 6 0 10 18 10 40 0 27 6 45 21 59 l21
20 -31 -1 -31 -1 0 -59z"/>
<path d="M10499 2400 c-1 -3 -3 -23 -4 -45 -5 -85 -1 -79 -39 -56 -59 37 -79
12 -79 -95 1 -96 25 -123 79 -88 13 9 27 14 31 11 3 -4 7 -35 7 -69 l2 -63
220 0 219 0 0 205 0 205 -217 0 c-120 0 -219 -2 -219 -5z m421 -200 l0 -187
-202 1 -203 1 -2 59 c-2 73 -13 87 -54 63 -42 -23 -56 -21 -62 9 -7 37 1 136
11 146 5 5 23 1 44 -12 31 -18 37 -19 48 -5 6 8 13 36 15 62 1 27 3 48 4 49 0
0 91 1 201 1 l200 0 0 -187z"/>
<path d="M10688 2266 c-10 -7 -15 -16 -11 -19 3 -4 12 -2 20 4 11 9 13 1 13
-45 0 -49 -2 -56 -20 -56 -11 0 -20 -4 -20 -10 0 -5 23 -10 51 -10 31 0 48 4
44 10 -3 6 -13 10 -21 10 -11 0 -14 15 -14 65 0 68 -8 77 -42 51z"/>
<path d="M11440 2348 c0 -63 -4 -67 -52 -42 -31 16 -33 16 -50 -6 -13 -16 -18
-39 -18 -86 0 -103 26 -135 79 -98 31 22 39 10 43 -61 l3 -60 218 0 217 0 0
205 0 205 -220 0 -220 0 0 -57z m420 -148 l0 -186 -200 -1 c-177 0 -200 2
-201 16 -1 9 -2 35 -3 58 -3 60 -17 71 -61 48 -25 -14 -38 -16 -46 -8 -13 13
-15 133 -3 156 8 14 13 14 51 -3 54 -24 56 -21 62 96 1 8 63 11 201 11 l200 0
0 -187z"/>
<path d="M11615 2247 c-23 -56 0 -117 46 -117 30 0 49 29 49 75 0 50 -19 75
-56 75 -19 0 -28 -8 -39 -33z m71 -11 c3 -13 4 -37 2 -52 -2 -23 -8 -29 -28
-29 -22 0 -25 5 -28 39 -4 49 3 66 27 66 13 0 23 -9 27 -24z"/>
<path d="M4060 2200 l0 -100 38 1 c20 1 29 3 20 6 -16 4 -18 17 -18 93 0 76 2
89 18 93 9 3 0 5 -20 6 l-38 1 0 -100z m30 0 c0 -53 -4 -90 -10 -90 -6 0 -10
37 -10 90 0 53 4 90 10 90 6 0 10 -37 10 -90z"/>
<path d="M4179 2291 c7 -5 14 -20 14 -35 0 -14 3 -26 7 -26 4 0 7 12 6 27 0
14 4 28 10 30 8 3 11 -25 11 -87 0 -81 -8 -112 -19 -78 -3 9 -9 8 -22 -5 -17
-16 -16 -17 18 -17 l36 0 0 100 0 100 -37 0 c-26 0 -33 -3 -24 -9z"/>
<path d="M5800 2200 l0 -100 38 0 c27 0 33 3 22 10 -21 13 -22 168 0 180 11 7
4 9 -22 10 l-38 0 0 -100z m30 0 c0 -49 -4 -90 -9 -90 -5 0 -9 41 -9 90 0 50
4 90 9 90 5 0 9 -40 9 -90z"/>
<path d="M5921 2290 c22 -13 21 -166 -1 -180 -11 -7 -5 -10 23 -10 l37 0 0
100 0 100 -37 0 c-28 -1 -34 -3 -22 -10z m49 -90 c0 -53 -4 -90 -10 -90 -6 0
-10 37 -10 90 0 53 4 90 10 90 6 0 10 -37 10 -90z"/>
<path d="M4275 2213 l1 -78 80 -3 80 -3 1 81 0 80 -81 0 -82 0 1 -77z m144 -3
l-2 -61 -60 3 -61 3 -1 58 -1 57 63 0 63 0 -1 -60z"/>
<path d="M4375 2250 c-3 -6 1 -13 10 -16 19 -8 30 0 20 15 -8 14 -22 14 -30 1z"/>
<path d="M4310 2175 c0 -9 5 -15 11 -13 6 2 11 8 11 13 0 5 -5 11 -11 13 -6 2
-11 -4 -11 -13z"/>
<path d="M3940 2245 c-10 -12 -10 -15 4 -15 19 0 21 -31 4 -48 -7 -7 -22 -12
-35 -12 -13 0 -23 -4 -23 -10 0 -5 13 -10 30 -10 31 0 68 39 55 60 -3 5 1 13
10 16 12 5 13 9 4 20 -15 18 -33 18 -49 -1z"/>
<path d="M4690 2245 c-9 -11 -9 -15 -1 -15 8 0 11 -11 9 -27 -2 -23 -8 -29
-35 -31 -39 -4 -45 -22 -7 -22 44 0 64 17 64 57 0 32 2 34 18 22 14 -11 13
-10 -2 9 -23 26 -29 27 -46 7z"/>
<path d="M11138 2254 c-5 -4 -8 -16 -8 -26 0 -11 -7 -18 -20 -18 -11 0 -20 -5
-20 -12 0 -6 3 -8 6 -5 12 11 43 -13 38 -28 -4 -8 -1 -15 5 -15 6 0 11 8 11
18 0 10 12 23 28 29 l27 11 -27 1 c-21 1 -27 7 -30 27 -2 14 -6 22 -10 18z"/>
<path d="M10166 2225 c16 -24 16 -27 -1 -45 -22 -24 -13 -26 20 -4 23 15 25
15 31 0 3 -9 13 -16 22 -16 13 0 13 2 -1 18 -21 23 -21 36 -2 52 9 7 13 15 10
18 -3 3 -14 -3 -25 -13 -19 -17 -21 -17 -38 -2 -27 25 -35 21 -16 -8z"/>
<path d="M4192 2180 c0 -22 3 -40 7 -40 4 0 8 18 7 40 0 22 -3 40 -7 40 -4 0
-7 -18 -7 -40z"/>
<path d="M3876 1708 c-17 -26 -14 -91 4 -113 17 -21 54 -19 75 5 14 15 16 30
12 66 -2 26 -11 50 -18 55 -25 16 -58 9 -73 -13z m69 -19 c4 -11 4 -36 0 -55
-4 -25 -11 -34 -26 -34 -31 0 -47 63 -24 100 11 18 43 11 50 -11z"/>
<path d="M4072 1718 c-17 -17 -15 -33 3 -18 13 11 15 5 15 -44 0 -42 -4 -56
-14 -56 -8 0 -18 -4 -21 -10 -4 -6 13 -10 44 -10 28 0 51 5 51 10 0 6 -9 10
-19 10 -17 0 -19 7 -18 62 1 48 -2 64 -14 66 -8 1 -20 -3 -27 -10z"/>
<path d="M4006 1601 c-4 -7 -5 -15 -2 -18 9 -9 19 4 14 18 -4 11 -6 11 -12 0z"/>
<path d="M3879 1323 c-17 -20 -17 -97 1 -118 32 -39 90 -1 90 60 0 62 -58 99
-91 58z m66 -24 c12 -36 -3 -89 -25 -89 -10 0 -21 4 -24 8 -11 19 -15 66 -5
83 13 25 46 24 54 -2z"/>
<path d="M2630 935 c-17 -21 -7 -29 18 -14 20 13 52 7 52 -10 0 -5 -18 -26
-40 -47 -54 -51 -52 -64 10 -64 28 0 50 5 50 10 0 6 -16 10 -35 10 -42 0 -43
6 -10 32 37 29 48 54 35 78 -13 24 -62 27 -80 5z"/>
<path d="M370 409 c0 -59 1 -61 23 -55 46 11 118 48 115 58 -3 9 -111 58 -130
58 -4 0 -8 -27 -8 -61z m67 19 c41 -15 42 -23 2 -37 -46 -16 -49 -14 -49 19 0
34 1 34 47 18z"/>
<path d="M891 514 c-17 -22 -21 -41 -21 -106 0 -70 3 -82 24 -102 23 -24 26
-24 219 -23 241 2 232 -3 232 128 0 132 5 129 -240 129 l-194 0 -20 -26z m391
7 c36 -2 48 -29 48 -111 0 -114 7 -110 -216 -110 -109 0 -193 4 -205 10 -16 9
-19 22 -19 93 0 81 9 110 37 118 10 3 280 3 355 0z"/>
<path d="M970 479 c0 -7 12 -22 27 -35 l27 -23 -32 -34 c-18 -18 -29 -36 -26
-40 11 -11 114 -8 114 3 0 6 -18 10 -40 10 -44 0 -50 8 -20 30 25 18 25 28 -2
57 l-21 23 36 0 c20 0 39 5 42 10 4 6 -15 10 -49 10 -35 0 -56 -4 -56 -11z"/>
<path d="M2450 560 c0 -33 -4 -60 -9 -60 -5 0 -25 7 -44 15 -34 14 -37 14 -51
-7 -24 -34 -22 -149 3 -179 20 -24 20 -24 51 -6 18 9 36 17 40 17 5 0 10 -30
12 -67 l3 -68 298 0 297 0 0 207 0 208 -300 0 -300 0 0 -60z m584 -135 c1 -93
0 -177 -2 -186 -3 -14 -35 -16 -283 -16 l-279 0 0 46 c0 92 -15 107 -71 74
-40 -24 -49 -9 -49 77 0 89 7 97 59 71 l41 -22 10 26 c6 15 10 44 10 66 l0 39
282 -2 281 -3 1 -170z"/>
<path d="M2562 533 c-23 -9 -38 -57 -37 -118 2 -82 11 -110 37 -122 13 -6 99
-10 194 -11 220 0 218 -2 218 128 1 132 4 130 -223 129 -97 0 -182 -3 -189 -6z
m383 -29 c9 -12 14 -45 15 -93 0 -113 4 -111 -210 -111 -213 0 -207 -3 -208
113 0 112 0 112 216 111 157 -1 174 -3 187 -20z"/>
<path d="M2615 443 c4 -10 14 -37 22 -60 8 -24 21 -43 28 -43 12 0 58 110 49
119 -8 8 -21 -12 -34 -54 -14 -43 -14 -42 -40 28 -5 15 -15 27 -21 27 -7 0 -8
-7 -4 -17z"/>
<path d="M3650 560 c0 -65 -4 -69 -52 -44 -31 16 -33 16 -50 -6 -26 -32 -25
-149 1 -181 19 -24 20 -24 49 -6 48 27 52 23 52 -51 l0 -68 218 0 217 1 3 208
2 207 -220 0 -220 0 0 -60z m422 28 c3 -11 2 -269 -1 -344 -1 -21 -4 -21 -201
-21 -175 0 -200 2 -201 16 -8 123 -7 121 -25 121 -9 0 -29 -8 -45 -17 -33 -20
-39 -16 -48 29 -7 33 1 123 11 134 3 3 24 -4 46 -15 48 -24 54 -19 58 48 2 25
3 49 3 54 1 4 91 7 200 7 150 0 200 -3 203 -12z"/>
<path d="M3830 475 c-17 -21 -7 -29 18 -14 27 17 59 4 42 -16 -7 -8 -19 -15
-26 -15 -23 0 -16 -18 9 -22 14 -2 22 -10 22 -23 0 -26 -31 -31 -56 -9 -15 14
-19 14 -19 3 0 -35 61 -54 88 -27 15 15 16 55 1 60 -9 3 -9 10 0 27 10 17 10
26 0 37 -15 19 -63 18 -79 -1z"/>
<path d="M4650 566 c0 -30 -4 -58 -10 -61 -5 -3 -23 1 -39 10 -39 20 -59 11
-67 -31 -9 -48 0 -152 14 -166 9 -9 20 -8 47 5 20 9 40 17 45 17 6 0 10 -30
10 -68 l0 -67 220 -1 220 0 0 208 0 208 -220 0 -220 0 0 -54z m420 -154 l0
-188 -200 -1 c-139 0 -200 3 -201 11 0 6 -2 31 -4 56 -1 25 -3 51 -4 58 -1 17
-26 15 -63 -4 -43 -22 -52 -8 -51 77 2 84 11 99 47 75 40 -25 66 -21 68 12 1
27 5 71 7 85 0 4 91 7 201 7 l200 0 0 -188z"/>
<path d="M4827 483 c-4 -3 -7 -21 -7 -39 0 -32 1 -33 34 -27 37 6 51 -6 41
-37 -7 -22 -50 -28 -58 -7 -2 6 -8 9 -12 5 -12 -11 15 -38 37 -38 36 0 58 19
58 50 0 31 -22 50 -59 50 -12 0 -21 7 -21 15 0 10 10 15 29 15 17 0 33 5 36
10 7 11 -67 14 -78 3z"/>
<path d="M5589 615 c-1 -3 -3 -9 -4 -15 -1 -5 -3 -32 -4 -60 l-1 -50 -41 22
c-39 20 -43 20 -54 4 -27 -36 -29 -141 -4 -187 12 -23 23 -24 60 -2 15 9 31
14 34 11 3 -3 6 -33 6 -66 0 -37 5 -62 12 -64 7 -2 107 -4 222 -4 l210 1 0
205 0 205 -217 3 c-120 1 -219 0 -219 -3z m421 -204 l0 -188 -202 1 -203 1 -3
63 c-3 73 -17 85 -65 57 -29 -17 -31 -17 -43 -1 -15 21 -13 141 3 157 7 7 20
4 44 -10 45 -27 59 -14 59 55 l0 54 205 0 205 0 0 -189z"/>
<path d="M5770 475 c-7 -9 -9 -19 -5 -23 4 -4 10 -1 12 6 3 6 16 12 29 12 30
0 33 -30 4 -37 -25 -7 -26 -23 -1 -23 20 0 31 -17 24 -37 -6 -16 -50 -17 -55
-1 -2 6 -10 9 -17 7 -23 -8 17 -39 50 -39 36 0 60 39 39 65 -8 10 -9 19 -2 28
6 7 6 21 1 35 -10 26 -59 31 -79 7z"/>
<path d="M3273 508 c-17 -4 -41 -20 -53 -35 -29 -37 -18 -40 17 -4 26 25 37
29 74 27 33 -3 48 -10 65 -32 13 -15 26 -26 29 -22 11 10 -39 58 -70 67 -16 4
-44 4 -62 -1z"/>
<path d="M2139 475 l20 -26 -25 -54 c-13 -30 -19 -55 -13 -55 5 0 18 19 27 41
l18 42 14 -42 c7 -22 17 -41 22 -41 12 0 10 14 -13 77 -25 67 -36 83 -56 83
-11 0 -10 -6 6 -25z"/>
<path d="M5270 470 c0 -14 -7 -20 -22 -21 -17 -1 -19 -2 -5 -6 9 -2 17 -11 17
-18 0 -8 -8 -19 -17 -24 -12 -7 -14 -10 -4 -11 9 0 12 -8 9 -25 -3 -14 -2 -25
3 -25 4 0 9 10 11 22 2 13 11 24 22 26 15 3 18 -1 14 -22 -7 -33 8 -34 16 -2
3 14 14 27 24 29 16 4 16 5 0 6 -10 0 -18 8 -18 16 0 7 8 19 18 24 10 7 12 11
4 11 -9 0 -11 7 -7 20 4 11 2 20 -4 20 -6 0 -11 -9 -11 -20 0 -14 -7 -20 -21
-20 -16 0 -19 4 -14 20 4 11 2 20 -4 20 -6 0 -11 -9 -11 -20z m38 -53 c2 -12
-3 -17 -17 -17 -12 0 -21 6 -21 13 0 31 32 34 38 4z"/>
<path d="M4342 464 c14 -4 9 -13 -24 -46 -31 -31 -42 -37 -49 -27 -6 10 -9 6
-9 -13 0 -24 4 -28 28 -27 15 0 21 3 14 6 -10 4 -3 17 24 44 26 26 41 35 49
29 8 -7 11 -3 10 13 -1 17 -8 22 -31 24 -16 1 -21 -1 -12 -3z"/>
<path d="M1749 402 c-36 -24 -59 -49 -52 -55 3 -4 22 7 42 23 37 31 61 38 61
19 0 -7 -8 -18 -17 -25 -27 -19 -8 -28 20 -9 17 11 27 13 32 6 3 -6 13 -11 21
-11 14 0 13 2 0 16 -16 15 -13 34 5 34 5 0 21 -14 36 -30 36 -40 43 -29 9 15
-28 36 -53 44 -74 23 -9 -9 -15 -9 -24 0 -16 16 -28 15 -59 -6z"/>
</g>
</svg>
