<?xml version="1.0" standalone="no"?>
<!DOCTYPE svg PUBLIC "-//W3C//DTD SVG 20010904//EN"
 "http://www.w3.org/TR/2001/REC-SVG-20010904/DTD/svg10.dtd">
<svg version="1.0" xmlns="http://www.w3.org/2000/svg"
 width="1357.000000pt" height="518.000000pt" viewBox="0 0 1357.000000 518.000000"
 preserveAspectRatio="xMidYMid meet">
<metadata>
Created by potrace 1.16, written by Peter Selinger 2001-2019
</metadata>
<g transform="translate(0.000000,518.000000) scale(0.100000,-0.100000)"
fill="#000000" stroke="none">
<path d="M284 4890 c-79 -34 -136 -110 -151 -200 -7 -40 -9 -4101 -3 -4240 5
-98 57 -178 150 -231 21 -12 263 -14 1582 -17 l1558 -2 0 390 0 390 184 0 183
0 0 405 0 405 -184 0 -183 0 0 375 0 375 245 0 245 0 0 405 0 405 -667 2 -667
3 0 370 0 370 1648 5 1649 5 -1 390 c0 215 -1 396 -1 403 -1 9 -492 12 -2420
12 -2403 0 -2418 0 -2444 -20 -14 -11 -30 -20 -35 -20 -6 0 -12 -3 -14 -7 -5
-12 -66 -53 -78 -53 -5 0 -10 -4 -10 -10 0 -5 -20 -10 -45 -10 -39 0 -59 9
-136 60 l-89 61 -138 -2 c-107 -1 -146 -5 -178 -19z m396 -70 c80 -53 95 -60
139 -60 45 0 60 6 139 60 l89 60 2397 0 2396 0 0 -30 c1 -16 1 -176 1 -355 0
-179 0 -334 -1 -345 0 -20 -7 -20 -2402 -20 l-2403 0 -90 -60 c-119 -79 -133
-79 -253 0 l-91 60 -220 0 -221 0 -1 63 c0 34 0 162 0 285 1 250 6 276 73 340
50 47 103 61 241 61 l118 1 89 -60z m0 -780 c80 -54 95 -60 140 -60 45 0 60 6
139 60 l89 60 144 0 143 0 -1 -77 c-2 -129 -3 -133 -19 -133 -8 0 -37 14 -63
30 -28 17 -63 30 -81 30 -28 0 -34 -5 -51 -42 -34 -77 -30 -298 5 -352 23 -35
65 -34 127 4 62 38 75 38 80 -2 2 -18 3 -773 3 -1678 l0 -1645 -492 -2 c-543
-3 -550 -2 -612 59 -34 33 -59 76 -67 111 -4 16 -7 3322 -4 3645 l0 52 215 0
216 0 89 -60z m1864 -342 c-2 -599 -2 -578 -19 -584 -8 -4 -37 8 -63 25 -59
38 -105 41 -126 9 -37 -59 -43 -287 -8 -357 24 -50 66 -54 133 -11 71 46 79
39 79 -67 2 -372 2 -373 -15 -379 -8 -4 -37 8 -63 25 -52 33 -102 40 -121 17
-46 -55 -49 -315 -5 -383 21 -33 67 -30 126 8 56 36 78 33 79 -13 0 -39 0
-325 0 -386 -1 -57 -19 -62 -79 -23 -59 38 -105 41 -126 8 -44 -68 -41 -328 5
-383 19 -23 65 -16 119 17 59 36 80 33 81 -13 0 -39 0 -325 0 -386 -1 -57 -19
-62 -79 -23 -59 38 -105 41 -126 9 -23 -35 -34 -124 -30 -226 6 -167 51 -208
155 -142 27 18 56 30 64 26 15 -5 17 -15 17 -131 0 -36 -1 -74 -1 -85 -1 -20
-6 -20 -588 -18 l-587 3 0 1678 -1 1679 -23 18 c-26 21 -36 19 -103 -22 -69
-42 -90 -36 -104 29 -9 43 -9 202 0 245 15 67 36 73 106 28 97 -63 121 -42
125 104 1 50 3 94 3 99 1 4 265 7 589 7 l587 0 -1 -402z m1336 -753 l0 -375
-650 0 c-357 0 -651 3 -651 8 -1 4 -2 52 -4 107 -3 167 -18 183 -118 130 -36
-19 -73 -35 -81 -35 -24 0 -39 74 -38 192 1 153 26 195 91 148 17 -11 46 -27
65 -35 33 -14 37 -14 56 5 11 11 21 30 21 43 1 12 2 58 4 102 1 44 3 81 4 83
0 1 294 2 651 2 l650 0 0 -375z m-490 -780 l0 -375 -405 0 c-317 0 -405 3
-406 13 -1 6 -3 48 -4 92 -1 44 -3 92 -4 108 0 15 -10 36 -21 47 -22 22 -49
17 -100 -20 -16 -11 -42 -23 -58 -26 -27 -6 -31 -3 -43 32 -17 53 -16 252 2
290 19 39 38 40 97 4 103 -63 123 -45 126 110 l1 100 408 0 407 0 0 -375z
m366 -782 l0 -373 -588 0 c-323 0 -588 3 -589 8 -1 4 -2 52 -4 107 -4 168 -18
183 -118 130 -36 -19 -73 -35 -81 -35 -25 0 -39 69 -39 185 0 159 26 203 92
155 114 -81 148 -51 146 128 l-1 72 591 -2 590 -3 1 -372z m-366 -778 l0 -375
-405 0 c-317 0 -405 3 -406 13 -1 6 -3 48 -4 92 -1 44 -3 92 -4 108 0 15 -10
36 -21 47 -22 22 -49 17 -100 -20 -16 -11 -42 -23 -58 -26 -27 -6 -31 -3 -43
32 -17 54 -16 252 2 290 19 39 38 40 95 4 103 -64 125 -45 128 110 l1 100 408
0 407 0 0 -375z"/>
<path d="M3360 4663 c1 -19 19 -35 34 -30 21 8 9 37 -15 37 -10 0 -19 -3 -19
-7z"/>
<path d="M5030 4658 c-1 -31 -1 -217 -1 -260 1 -39 4 -48 19 -48 16 0 18 13
18 160 0 147 -2 160 -18 160 -10 0 -18 -6 -18 -12z"/>
<path d="M466 4644 c-3 -9 -6 -31 -6 -50 0 -27 4 -34 20 -34 21 0 29 33 10 45
-6 4 -6 15 0 30 7 19 6 25 -4 25 -8 0 -17 -7 -20 -16z"/>
<path d="M536 4638 c-12 -48 -7 -78 14 -78 21 0 29 33 10 45 -6 4 -6 15 0 30
7 19 6 25 -4 25 -8 0 -16 -10 -20 -22z"/>
<path d="M983 4640 c-50 -30 -67 -64 -67 -134 -1 -70 16 -106 66 -136 59 -36
170 -13 199 42 17 31 -17 34 -48 4 -27 -27 -37 -30 -88 -27 -55 3 -95 61 -89
130 6 79 46 109 135 102 9 0 27 -12 40 -25 15 -15 30 -21 42 -17 16 6 16 8 1
30 -35 50 -134 66 -191 31z"/>
<path d="M3120 4643 c-30 -16 -35 -23 -38 -60 -3 -36 1 -44 23 -59 15 -9 54
-25 88 -34 38 -10 66 -25 75 -38 12 -19 11 -24 -13 -48 -23 -23 -32 -25 -73
-20 -30 3 -53 13 -64 26 -9 11 -26 20 -37 20 -18 0 -19 -3 -10 -23 14 -32 42
-47 98 -54 63 -7 118 11 134 45 7 15 12 33 11 40 -1 6 -2 19 -3 27 -2 21 -42
45 -108 62 -71 18 -85 29 -81 62 5 46 95 54 137 12 10 -10 25 -15 35 -11 17 6
17 8 -5 34 -32 37 -116 46 -169 19z"/>
<path d="M3800 4654 c-67 -25 -100 -74 -100 -150 0 -51 28 -112 62 -133 11 -7
44 -15 72 -17 93 -9 155 43 162 137 5 61 -15 111 -56 141 -26 19 -112 32 -140
22z m91 -38 c81 -18 85 -197 6 -222 -89 -29 -157 22 -157 116 0 63 61 127 110
115 8 -2 27 -6 41 -9z"/>
<path d="M4740 4505 c0 -148 1 -155 20 -155 18 0 20 7 20 60 l0 60 54 0 c29 0
67 5 83 10 70 25 78 132 12 165 -18 10 -57 15 -109 15 l-80 0 0 -155z m168
109 c27 -18 31 -74 5 -95 -9 -8 -41 -14 -75 -15 l-58 -1 0 48 c0 26 2 54 6 62
7 19 92 20 122 1z"/>
<path d="M2716 4615 c-4 -14 -13 -25 -21 -25 -8 0 -15 -7 -15 -15 0 -8 7 -15
15 -15 12 0 15 -17 15 -93 0 -101 7 -117 51 -117 34 0 47 27 16 32 -20 3 -22
9 -25 91 -3 82 -2 87 18 87 11 0 20 7 20 15 0 8 -9 15 -20 15 -15 0 -20 7 -20
25 0 15 -6 25 -14 25 -8 0 -17 -11 -20 -25z"/>
<path d="M1283 4580 c-35 -14 -54 -53 -55 -109 0 -59 20 -97 58 -111 94 -36
163 34 143 145 -12 69 -77 103 -146 75z m89 -37 c24 -22 25 -118 1 -145 -24
-26 -69 -23 -88 6 -21 32 -22 100 -1 131 19 29 60 33 88 8z"/>
<path d="M1484 4473 c1 -104 3 -118 19 -121 15 -3 17 6 17 82 0 73 3 89 20
106 25 25 56 26 69 2 5 -9 9 -49 9 -87 0 -103 0 -105 20 -105 15 0 18 10 18
73 0 97 9 125 39 133 45 11 55 -9 55 -112 0 -87 1 -94 20 -94 19 0 20 7 20
100 0 87 -3 103 -20 120 -11 11 -29 20 -40 20 -26 0 -70 -21 -70 -33 0 -6 -9
-1 -20 11 -26 28 -73 29 -100 2 l-20 -20 0 20 c0 13 -7 20 -19 20 -17 0 -19
-9 -17 -117z"/>
<path d="M1850 4470 c0 -109 2 -120 18 -120 16 0 18 9 19 73 0 99 8 125 39
133 46 12 58 -13 56 -116 -2 -84 -1 -90 18 -90 18 0 20 6 20 83 0 87 15 127
48 127 40 -1 47 -16 48 -107 2 -111 1 -103 22 -103 17 0 19 9 17 100 -2 80 -6
105 -20 120 -23 25 -66 26 -95 2 -23 -18 -24 -18 -42 0 -22 22 -56 23 -86 2
-20 -14 -23 -14 -28 0 -3 9 -12 16 -20 16 -11 0 -14 -24 -14 -120z"/>
<path d="M2239 4561 c-16 -16 -29 -38 -30 -48 0 -10 -2 -26 -4 -36 -6 -31 15
-86 42 -107 34 -26 92 -26 127 1 14 11 26 25 26 30 0 14 -30 11 -46 -6 -35
-34 -94 -10 -107 43 -5 21 -3 22 79 22 75 0 84 2 84 19 0 96 -106 147 -171 82z
m111 -21 c37 -37 26 -50 -40 -50 -65 0 -77 14 -43 52 21 24 58 23 83 -2z"/>
<path d="M2460 4470 c0 -113 1 -120 20 -120 18 0 20 7 20 85 0 72 3 88 20 105
22 22 46 25 70 10 11 -7 15 -30 17 -87 1 -43 2 -86 2 -95 1 -10 9 -18 19 -18
17 0 18 10 18 101 -1 93 -3 103 -25 120 -28 23 -69 24 -99 3 -20 -14 -26 -12
-23 9 0 4 -8 7 -19 7 -19 0 -20 -7 -20 -120z"/>
<path d="M3364 4470 c-1 -115 0 -120 20 -120 20 0 21 5 19 103 -2 142 -1 137
-21 137 -16 0 -18 -12 -18 -120z"/>
<path d="M3464 4473 c1 -101 3 -118 17 -121 15 -3 17 10 20 88 4 99 16 120 66
120 33 0 43 -29 43 -124 0 -81 1 -86 21 -86 20 0 21 4 17 105 -3 90 -6 106
-23 120 -26 20 -94 13 -112 -11 -12 -17 -13 -16 -13 4 0 15 -6 22 -18 22 -17
0 -19 -10 -18 -117z"/>
<path d="M4072 4578 c-30 -15 -38 -52 -19 -82 11 -16 33 -28 67 -36 54 -13 78
-42 58 -67 -16 -20 -85 -16 -100 6 -8 12 -19 16 -31 12 -18 -7 -18 -8 1 -31
17 -22 29 -25 80 -25 70 0 92 14 92 60 0 40 -21 59 -85 77 -73 20 -75 67 -3
68 15 0 33 -7 42 -15 16 -17 46 -20 46 -6 0 5 -12 19 -26 30 -29 23 -84 27
-122 9z"/>
<path d="M4313 4580 c-60 -24 -72 -161 -19 -207 40 -34 89 -31 128 8 25 25 29
33 17 40 -10 6 -21 1 -37 -16 -47 -51 -93 -24 -100 57 -4 47 -1 59 17 77 27
27 56 27 74 0 10 -13 23 -19 39 -17 23 3 23 3 -9 36 -33 33 -66 40 -110 22z"/>
<path d="M5163 4580 c-12 -5 -27 -18 -33 -29 -9 -18 -8 -21 10 -21 12 0 28 7
36 15 16 16 52 20 70 7 6 -4 14 -17 18 -29 7 -23 -5 -29 -56 -24 -24 3 -88
-28 -89 -43 0 -6 -2 -20 -4 -30 -4 -21 11 -56 29 -68 21 -14 73 -8 98 11 24
19 24 19 36 0 15 -23 62 -26 62 -4 0 8 -7 15 -15 15 -16 0 -17 5 -19 90 -1 30
-5 65 -10 78 -13 37 -80 53 -133 32z m103 -137 c-8 -35 -41 -63 -72 -63 -30 0
-49 32 -34 59 12 24 25 29 74 30 37 1 38 0 32 -26z"/>
<path d="M5359 4543 c10 -26 31 -77 45 -112 14 -36 26 -72 26 -81 0 -23 -37
-60 -61 -60 -29 0 -18 -24 12 -28 40 -5 67 36 124 185 42 110 50 139 38 141
-22 5 -27 -3 -58 -95 -16 -46 -31 -80 -34 -77 -3 3 -19 42 -36 87 -24 66 -35
83 -53 85 l-22 3 19 -48z"/>
<path d="M2840 4376 c0 -13 5 -26 11 -28 9 -3 9 -9 0 -25 -7 -14 -7 -24 -2
-28 15 -8 31 29 31 69 0 29 -4 36 -20 36 -14 0 -20 -7 -20 -24z"/>
<path d="M4500 4375 c0 -14 4 -25 10 -25 5 0 7 -14 3 -32 -6 -30 -5 -32 10
-19 11 9 17 28 17 57 0 37 -3 44 -20 44 -15 0 -20 -7 -20 -25z"/>
<path d="M489 2257 c-3 -76 -1 -228 3 -232 3 -3 63 19 134 48 101 42 130 58
132 74 2 15 -5 24 -25 31 -15 6 -76 31 -135 56 -105 44 -108 45 -109 23z m118
-68 c95 -37 102 -44 66 -57 -15 -6 -55 -21 -89 -35 l-61 -24 0 73 c0 41 2 74
3 74 2 0 38 -14 81 -31z"/>
<path d="M1753 3815 c-11 -8 -28 -36 -37 -62 -20 -59 -20 -63 3 -63 13 0 21
10 25 33 8 45 31 75 45 61 6 -5 20 -44 32 -85 24 -87 45 -115 83 -105 29 7 51
43 61 99 6 30 4 37 -8 37 -10 0 -21 -17 -29 -47 -10 -36 -18 -48 -33 -48 -16
0 -24 15 -41 80 -15 50 -31 86 -44 97 -27 22 -30 22 -57 3z"/>
<path d="M1694 2911 c34 -101 44 -121 61 -121 35 0 104 134 99 190 -1 8 -2 23
-3 33 0 9 -9 17 -19 17 -15 0 -18 -9 -18 -52 -1 -52 -39 -156 -53 -143 -3 4
-20 48 -36 98 -24 75 -34 93 -51 95 -21 3 -20 -2 20 -117z"/>
<path d="M1757 2290 c3 -34 0 -42 -19 -49 -39 -15 -61 -48 -66 -99 -5 -60 15
-104 56 -121 22 -9 29 -19 30 -39 0 -54 2 -62 17 -62 15 0 18 13 16 60 -2 20
5 29 31 40 40 18 58 51 58 108 0 56 -22 97 -60 110 -27 10 -30 15 -30 51 0 33
-4 41 -18 41 -15 0 -18 -7 -15 -40z m0 -165 c0 -42 -4 -78 -8 -81 -15 -9 -39
41 -39 81 0 41 24 90 40 80 4 -3 8 -39 7 -80z m73 66 c13 -25 13 -97 0 -120
-5 -10 -16 -21 -24 -24 -12 -5 -15 9 -15 79 0 66 3 84 14 84 8 0 19 -9 25 -19z"/>
<path d="M1690 1459 c0 -7 16 -27 35 -46 l35 -34 -36 -34 c-25 -24 -34 -40
-30 -51 6 -15 13 -11 46 21 l40 39 40 -39 c34 -33 40 -36 46 -21 5 12 -4 28
-27 52 l-33 34 39 40 c34 35 36 40 20 46 -13 5 -27 -2 -50 -29 l-32 -36 -34
35 c-33 34 -59 44 -59 23z"/>
<path d="M1769 698 c-1 -7 -2 -29 -3 -48 -1 -34 -2 -35 -49 -40 -61 -6 -61
-24 0 -30 l48 -5 -1 -42 c0 -35 3 -43 18 -43 14 0 17 8 15 43 l-2 42 48 3 c33
2 47 7 47 18 0 10 -12 14 -45 14 -48 0 -49 0 -47 68 1 22 -3 32 -13 32 -8 0
-16 -6 -16 -12z"/>
<path d="M2940 2995 c-38 -57 -70 -111 -70 -120 0 -12 14 -15 70 -15 l70 0 0
-35 c0 -28 4 -35 20 -35 16 0 20 7 20 35 0 28 4 35 20 35 11 0 20 7 20 15 0 8
-9 15 -20 15 -19 0 -20 7 -20 105 0 98 -1 105 -20 105 -14 0 -40 -31 -90 -105z
m67 -102 c-3 -2 -25 -3 -50 -1 l-46 3 47 74 47 73 3 -72 c2 -40 1 -74 -1 -77z"/>
<path d="M3184 2994 c-38 -58 -69 -112 -69 -118 0 -7 28 -13 70 -16 l70 -5 3
-33 c4 -44 36 -41 37 3 0 23 5 31 23 33 30 4 29 32 -1 32 -24 0 -24 1 -23 103
1 97 0 102 -20 105 -17 2 -34 -17 -90 -104z m75 -24 l0 -80 -50 0 c-28 0 -49
4 -47 9 4 10 92 151 95 151 1 0 2 -36 2 -80z"/>
<path d="M3423 3089 c-39 -20 -55 -72 -51 -161 3 -75 5 -81 36 -109 52 -47
119 -34 151 29 30 57 18 194 -19 227 -23 21 -88 28 -117 14z m87 -39 c22 -22
21 -20 26 -100 3 -70 -16 -117 -52 -126 -22 -6 -32 -2 -51 20 -42 49 -31 207
15 219 33 9 42 7 62 -13z"/>
<path d="M2933 2309 c-34 -18 -53 -69 -53 -143 0 -101 36 -156 101 -156 34 0
76 28 88 58 28 68 18 194 -19 227 -23 21 -88 28 -117 14z m86 -38 c35 -35 39
-162 8 -205 -20 -28 -66 -25 -89 5 -36 48 -21 201 21 212 31 9 41 7 60 -12z"/>
<path d="M2933 1529 c-39 -20 -56 -73 -51 -162 5 -75 7 -82 37 -109 49 -44
117 -34 146 23 34 64 24 198 -16 235 -22 20 -87 27 -116 13z m85 -33 c31 -19
39 -155 13 -204 -22 -41 -77 -36 -101 9 -25 46 -10 179 23 200 12 8 49 5 65
-5z"/>
<path d="M3302 1512 c-18 -15 -32 -33 -32 -39 0 -15 16 -17 25 -3 3 5 15 15
26 20 19 11 20 8 17 -107 -2 -96 -6 -118 -18 -119 -8 -1 -25 -2 -37 -3 -13 -1
-23 -7 -23 -16 0 -12 17 -15 95 -15 78 0 95 3 95 15 0 14 -9 17 -55 18 -19 0
-20 6 -19 138 1 135 0 139 -20 139 -12 0 -36 -13 -54 -28z"/>
<path d="M3145 1258 c1 -16 9 -24 24 -26 19 -3 22 0 19 20 -4 32 -45 38 -43 6z"/>
<path d="M2933 748 c-39 -19 -55 -71 -51 -160 3 -75 5 -81 36 -109 54 -48 122
-33 153 35 21 48 19 148 -5 195 -25 47 -82 64 -133 39z m77 -28 c26 -14 43
-82 36 -141 -8 -63 -13 -74 -40 -89 -42 -22 -82 13 -86 75 -6 82 0 116 25 140
27 28 37 30 65 15z"/>
</g>
</svg>
