<?xml version="1.0" standalone="no"?>
<!DOCTYPE svg PUBLIC "-//W3C//DTD SVG 20010904//EN"
 "http://www.w3.org/TR/2001/REC-SVG-20010904/DTD/svg10.dtd">
<svg version="1.0" xmlns="http://www.w3.org/2000/svg"
 width="1370.000000pt" height="434.000000pt" viewBox="0 0 1370.000000 434.000000"
 preserveAspectRatio="xMidYMid meet">
<metadata>
Created by potrace 1.16, written by Peter Selinger 2001-2019
</metadata>
<g transform="translate(0.000000,434.000000) scale(0.100000,-0.100000)"
fill="#000000" stroke="none">
<path d="M233 4190 c-61 -27 -118 -84 -139 -137 -18 -46 -19 -116 -19 -1873
l0 -1825 24 -48 c36 -73 105 -130 172 -141 46 -8 5440 -8 5448 0 3 3 6 245 6
537 l0 532 330 2 c182 2 517 3 745 3 l415 0 0 540 0 540 1996 0 1996 0 0 555
1 555 -1769 0 -1769 0 0 390 0 390 -3346 0 -3345 0 -65 -45 c-35 -25 -67 -45
-70 -45 -3 0 -12 -7 -20 -15 -9 -9 -33 -15 -57 -15 -35 0 -58 10 -132 60 l-89
61 -137 -2 c-107 -1 -145 -5 -176 -19z m392 -70 c80 -53 96 -60 140 -60 43 0
60 7 140 60 l91 60 3320 -2 3319 -3 1 -372 2 -373 -3330 0 -3329 0 -89 -60
c-118 -79 -134 -79 -249 -2 l-86 57 -225 5 -225 5 0 260 c-1 143 2 279 6 303
9 61 54 121 116 153 47 25 61 27 180 28 l128 1 90 -60z m0 -780 c80 -53 96
-60 140 -60 44 0 60 7 140 60 l90 60 623 0 622 0 0 -92 c0 -126 -5 -131 -79
-90 -67 36 -101 40 -124 14 -49 -54 -49 -330 0 -384 23 -26 57 -22 124 15 51
27 61 30 69 17 6 -9 10 -123 10 -272 l0 -258 -630 0 -631 0 -89 -60 c-71 -47
-97 -60 -128 -60 -30 0 -56 12 -125 60 l-88 60 -219 0 c-169 0 -220 3 -221 13
-1 6 -2 243 -3 525 l-1 512 215 0 215 0 90 -60z m10550 -465 l0 -525 -4452 0
-4453 0 0 254 c0 252 -6 309 -35 320 -8 3 -46 -11 -84 -31 -39 -19 -77 -33
-85 -30 -35 14 -47 251 -17 330 14 35 30 34 104 -6 34 -19 70 -32 79 -30 25 6
38 57 38 154 l0 89 4453 0 4452 0 0 -525z m-10551 -616 c78 -53 97 -61 138
-62 41 0 58 7 141 61 l93 62 547 0 547 0 0 -100 c0 -120 -7 -127 -79 -80 -69
44 -109 40 -136 -15 -28 -59 -28 -272 0 -330 27 -54 63 -58 133 -14 84 52 82
58 82 -246 l0 -265 -555 0 -556 0 -89 -60 c-119 -80 -135 -80 -255 0 l-90 60
-217 0 -218 0 -4 23 c-6 28 -5 1009 1 1020 2 4 99 7 215 7 l212 0 90 -61z
m6561 -464 l-1 -520 -2530 -3 -2530 -2 0 252 c0 139 -3 266 -7 281 -12 47 -43
50 -114 11 -34 -19 -68 -34 -76 -34 -26 0 -41 68 -41 186 0 164 24 204 94 154
16 -11 45 -27 64 -35 33 -14 37 -14 56 5 20 20 22 31 23 158 l1 72 2530 -2
2531 -3 0 -520z m-6560 -615 c80 -53 96 -60 140 -60 44 0 60 7 139 60 l90 60
143 0 143 0 0 -92 c0 -127 -4 -131 -82 -89 -77 40 -105 39 -132 -9 -18 -31
-21 -52 -21 -170 0 -118 3 -139 21 -170 27 -48 55 -49 132 -9 53 29 64 32 72
19 6 -9 10 -126 10 -272 l0 -258 -497 0 -498 0 -51 24 c-52 24 -93 67 -115
121 -9 22 -13 147 -13 468 l-2 437 216 0 215 0 90 -60z m5066 48 c1 -17 1
-976 0 -1010 l-1 -28 -2190 0 -2190 0 1 258 c1 260 -4 303 -37 316 -7 3 -44
-11 -82 -31 -39 -20 -77 -33 -85 -30 -23 9 -36 90 -33 202 4 110 16 155 43
155 10 0 43 -15 73 -33 30 -18 61 -32 68 -31 6 1 16 2 20 3 20 3 32 57 33 146
l1 95 2189 0 c1744 0 2189 -3 2190 -12z"/>
<path d="M1110 3950 c0 -13 7 -20 20 -20 13 0 20 7 20 20 0 13 -7 20 -20 20
-13 0 -20 -7 -20 -20z"/>
<path d="M2670 3950 c0 -24 25 -27 34 -4 9 23 8 24 -14 24 -13 0 -20 -7 -20
-20z"/>
<path d="M3010 3810 c0 -153 1 -160 20 -160 11 0 20 7 20 16 0 14 2 14 22 0
49 -34 126 -1 129 56 1 13 3 34 4 47 9 91 -67 151 -133 105 -22 -15 -22 -15
-22 40 0 49 -2 56 -20 56 -19 0 -20 -7 -20 -160z m134 34 c9 -8 16 -21 17 -27
0 -7 2 -26 3 -44 1 -18 -3 -46 -10 -63 -10 -24 -19 -30 -43 -30 -39 0 -61 32
-61 90 0 25 7 56 16 68 18 26 56 29 78 6z"/>
<path d="M3250 3810 c0 -153 1 -160 20 -160 19 0 20 7 20 160 0 153 -1 160
-20 160 -19 0 -20 -7 -20 -160z"/>
<path d="M4354 3953 c3 -22 26 -29 36 -12 11 17 3 29 -20 29 -11 0 -17 -6 -16
-17z"/>
<path d="M413 3928 c-11 -53 -9 -63 15 -66 16 -3 22 2 22 16 0 11 -6 22 -12
24 -10 4 -10 10 -1 31 11 23 10 27 -2 27 -9 0 -18 -13 -22 -32z"/>
<path d="M482 3928 c-11 -43 -4 -68 19 -68 21 0 27 36 7 42 -10 4 -10 10 -1
31 11 23 10 27 -2 27 -8 0 -18 -15 -23 -32z"/>
<path d="M870 3805 l0 -155 95 0 c57 0 95 4 95 10 0 6 0 13 0 17 0 4 -33 8
-72 8 l-73 1 -2 34 c-1 19 -2 81 -2 138 -1 95 -2 102 -21 102 -19 0 -20 -7
-20 -155z"/>
<path d="M1994 3943 c3 -10 30 -79 60 -153 48 -120 57 -135 78 -135 20 0 29
16 80 140 31 77 57 146 57 153 1 6 -7 12 -18 12 -15 0 -29 -26 -67 -130 -27
-71 -50 -127 -53 -124 -3 2 -26 59 -52 127 -39 100 -51 123 -69 125 -17 3 -21
0 -16 -15z"/>
<path d="M4068 3953 c-2 -4 -3 -73 -3 -153 l1 -145 93 0 c89 0 94 1 117 28 13
15 24 41 24 56 0 28 -32 71 -52 71 -6 0 -2 10 10 23 28 30 29 78 1 103 -16 15
-40 20 -104 22 -45 2 -84 0 -87 -5z m155 -38 c10 -4 17 -18 17 -36 0 -34 -27
-49 -91 -49 l-39 0 0 49 0 49 48 -3 c26 -1 55 -6 65 -10z m24 -141 c35 -48 6
-83 -75 -89 l-62 -5 0 60 0 59 62 -3 c45 -2 65 -8 75 -22z"/>
<path d="M5493 3939 c-50 -25 -68 -62 -68 -141 1 -67 22 -103 76 -130 65 -34
150 -14 192 44 11 14 22 49 25 77 12 131 -104 210 -225 150z m136 -28 c71 -39
64 -184 -11 -215 -30 -13 -58 -13 -100 0 -41 12 -65 95 -46 162 16 58 96 85
157 53z"/>
<path d="M1440 3920 c0 -11 -8 -24 -17 -28 -23 -9 -28 -32 -8 -32 12 0 15 -16
15 -88 0 -102 11 -125 55 -120 35 4 45 25 13 30 -22 3 -23 8 -26 91 -3 82 -2
87 18 87 11 0 20 7 20 15 0 8 -9 15 -20 15 -15 0 -20 7 -20 25 0 16 -6 25 -15
25 -8 0 -15 -9 -15 -20z"/>
<path d="M6669 3935 c-1 -3 -3 -9 -4 -15 -1 -5 -3 -14 -4 -20 0 -5 -8 -10 -16
-10 -18 0 -20 -27 -2 -32 8 -3 12 -31 13 -91 0 -55 5 -91 13 -101 17 -21 71
-21 71 -1 0 8 -7 15 -15 15 -23 0 -32 30 -31 105 1 65 3 70 24 73 12 2 22 10
22 17 0 7 -10 15 -22 17 -17 2 -23 9 -22 26 1 12 -4 22 -12 22 -8 0 -15 -2
-15 -5z"/>
<path d="M1110 3770 c0 -113 1 -120 20 -120 19 0 20 7 20 120 0 113 -1 120
-20 120 -19 0 -20 -7 -20 -120z"/>
<path d="M1240 3883 c-40 -14 -53 -69 -22 -95 9 -9 41 -23 70 -33 43 -14 52
-21 52 -40 0 -12 -7 -26 -16 -29 -28 -11 -71 -6 -84 9 -13 16 -50 21 -50 7 0
-21 44 -45 87 -49 60 -6 103 22 103 67 0 34 -17 48 -83 70 -33 11 -53 23 -55
35 -7 35 57 48 89 19 11 -10 25 -14 36 -9 16 6 15 9 -10 31 -27 23 -78 31
-117 17z"/>
<path d="M1566 3869 c-49 -39 -24 -90 54 -109 58 -14 79 -39 54 -64 -20 -20
-63 -20 -92 0 -12 8 -29 14 -37 12 -14 -3 -14 -6 0 -25 32 -46 145 -42 169 5
25 49 0 82 -79 104 -73 20 -75 67 -3 68 15 0 33 -7 42 -15 16 -17 46 -20 46
-6 0 21 -54 51 -90 51 -23 0 -48 -8 -64 -21z"/>
<path d="M2313 3880 c-12 -5 -27 -18 -33 -29 -9 -18 -8 -21 10 -21 12 0 28 7
36 15 27 27 74 17 87 -17 8 -22 -4 -29 -51 -32 -56 -4 -80 -15 -88 -39 -13
-39 -11 -58 8 -83 26 -32 80 -33 112 -1 23 23 23 23 32 3 11 -26 64 -35 64
-12 0 9 -7 16 -15 16 -8 0 -15 6 -16 13 -1 6 -2 45 -4 86 -2 48 -8 78 -18 88
-18 18 -94 26 -124 13z m101 -137 c-16 -70 -120 -88 -109 -20 6 33 26 47 71
47 43 0 44 -1 38 -27z"/>
<path d="M2520 3770 c0 -111 1 -120 19 -120 17 0 19 9 23 90 3 93 10 110 47
113 13 1 21 8 21 19 0 22 -33 24 -50 3 -13 -15 -35 -11 -25 6 4 5 -3 9 -14 9
-20 0 -21 -6 -21 -120z"/>
<path d="M2669 3863 c-1 -33 -1 -195 0 -205 1 -5 9 -8 19 -8 15 0 17 12 17
120 1 108 -1 120 -17 120 -13 0 -18 -8 -19 -27z"/>
<path d="M2800 3877 c-29 -15 -40 -47 -15 -47 9 0 23 7 31 15 16 16 52 20 70
7 6 -4 14 -17 18 -29 6 -19 4 -23 -16 -24 -72 -2 -114 -14 -123 -37 -15 -39
-14 -61 6 -86 27 -34 80 -36 113 -3 23 23 23 23 32 3 11 -26 64 -35 64 -12 0
9 -7 16 -15 16 -18 0 -17 -5 -19 94 -2 70 -5 80 -27 97 -28 21 -83 24 -119 6z
m104 -134 c-13 -57 -82 -85 -104 -42 -9 16 -8 26 5 45 12 19 24 24 60 24 44 0
45 -1 39 -27z"/>
<path d="M3393 3878 c-27 -13 -53 -65 -53 -106 0 -80 50 -129 122 -119 56 7
107 57 59 57 -10 0 -24 -7 -31 -15 -13 -16 -57 -20 -76 -7 -13 8 -34 46 -34
61 0 7 32 11 86 11 l86 0 -7 36 c-3 20 -11 45 -18 55 -22 36 -88 49 -134 27z
m89 -30 c9 -7 19 -23 23 -35 6 -22 4 -23 -59 -23 -36 0 -66 3 -66 6 0 11 23
49 34 56 17 12 50 9 68 -4z"/>
<path d="M3612 3874 c-23 -16 -29 -57 -13 -82 5 -8 32 -22 62 -31 60 -20 80
-41 60 -65 -17 -20 -75 -21 -95 -1 -16 17 -46 20 -46 6 0 -5 12 -19 26 -30 46
-37 134 -23 156 24 19 43 -2 72 -67 90 -57 17 -83 43 -63 63 17 17 73 15 88
-3 17 -21 42 -19 38 2 -7 39 -103 57 -146 27z"/>
<path d="M4354 3770 c0 -114 1 -121 19 -118 18 3 20 11 19 103 0 136 0 135
-20 135 -16 0 -18 -12 -18 -120z"/>
<path d="M4451 3770 c0 -111 1 -120 18 -120 17 0 19 10 23 91 3 98 15 119 65
119 33 0 43 -29 43 -124 0 -81 1 -86 21 -86 21 0 21 4 17 106 -3 91 -6 108
-23 121 -26 19 -92 11 -110 -14 -14 -17 -14 -17 -15 5 0 15 -6 22 -19 22 -17
0 -19 -9 -20 -120z"/>
<path d="M4733 3878 c-27 -13 -38 -39 -21 -49 7 -5 20 0 31 12 24 26 73 25 87
-2 18 -32 8 -41 -48 -43 -66 -3 -92 -25 -92 -77 0 -64 69 -91 123 -49 l26 21
11 -21 c6 -12 21 -20 35 -20 28 0 33 17 10 34 -11 8 -16 33 -17 86 -2 63 -6
79 -25 97 -24 25 -81 30 -120 11z m107 -128 c0 -32 -45 -72 -78 -68 -22 2 -28
9 -30 33 -5 37 19 55 70 55 32 0 38 -3 38 -20z"/>
<path d="M4943 3770 c1 -109 2 -120 19 -120 16 0 18 9 18 80 0 73 2 83 25 106
14 14 30 22 35 19 6 -3 10 3 10 14 0 28 -34 27 -54 -1 l-16 -22 0 22 c0 15 -6
22 -19 22 -18 0 -19 -8 -18 -120z"/>
<path d="M5063 3878 c3 -7 24 -62 47 -121 l43 -109 -20 -26 c-11 -15 -30 -28
-42 -30 -30 -5 -27 -32 3 -32 46 0 73 39 126 179 27 73 50 137 50 142 0 5 -8
9 -18 9 -14 0 -25 -20 -47 -90 -16 -49 -31 -90 -34 -90 -3 0 -20 39 -37 88
-25 72 -35 88 -54 90 -16 3 -21 0 -17 -10z"/>
<path d="M5770 3725 c0 -158 1 -165 20 -165 18 0 20 7 20 61 l0 60 22 -15 c32
-23 73 -20 105 8 26 22 28 30 28 94 0 61 -3 74 -24 96 -28 30 -74 34 -109 10
-20 -14 -22 -14 -22 0 0 9 -9 16 -20 16 -19 0 -20 -7 -20 -165z m139 116 c15
-15 19 -32 18 -74 -3 -66 -19 -89 -61 -85 -41 4 -58 38 -53 102 6 72 54 99 96
57z"/>
<path d="M6063 3880 c-41 -17 -57 -59 -54 -143 2 -43 51 -87 96 -87 43 0 95
25 95 45 0 19 -19 19 -44 0 -44 -33 -106 -5 -106 47 0 16 10 18 81 18 l82 0
-6 42 c-10 72 -73 106 -144 78z m91 -42 c28 -40 21 -48 -44 -48 -49 0 -60 3
-60 17 0 49 76 72 104 31z"/>
<path d="M6263 3770 c0 -109 2 -120 19 -120 15 0 18 9 19 58 1 31 1 61 0 66
-5 25 22 75 42 78 12 2 23 11 25 21 5 25 -33 22 -52 -5 l-16 -22 0 22 c0 15
-6 22 -19 22 -17 0 -19 -9 -18 -120z"/>
<path d="M6445 3879 c-12 -6 -26 -19 -33 -30 -11 -16 -9 -19 9 -19 11 0 27 7
35 15 25 25 73 19 86 -10 6 -14 9 -27 7 -30 -3 -2 -29 -6 -59 -9 -64 -7 -91
-29 -92 -76 -2 -63 80 -92 131 -46 15 14 18 13 29 -4 14 -23 62 -27 62 -6 0 8
-6 16 -14 19 -10 4 -15 29 -18 87 -3 72 -6 84 -27 101 -25 21 -82 24 -116 8z
m105 -129 c0 -32 -45 -72 -78 -68 -22 2 -28 9 -30 33 -5 37 19 55 70 55 32 0
38 -3 38 -20z"/>
<path d="M6798 3861 c-28 -25 -32 -34 -32 -84 -1 -91 48 -138 128 -123 54 10
78 53 73 130 -3 49 -8 63 -31 83 -39 34 -96 32 -138 -6z m116 -23 c32 -46 15
-143 -28 -154 -64 -16 -89 27 -77 133 4 43 79 58 105 21z"/>
<path d="M7020 3770 c0 -113 1 -120 20 -120 18 0 20 7 20 83 0 90 11 117 48
120 14 1 22 8 22 19 0 23 -28 23 -52 1 -17 -15 -18 -15 -18 0 0 10 -8 17 -20
17 -19 0 -20 -7 -20 -120z"/>
<path d="M7200 3883 c-22 -8 -40 -34 -40 -58 0 -30 28 -52 88 -70 44 -13 52
-20 52 -39 0 -37 -58 -50 -96 -21 -21 16 -54 20 -54 7 0 -5 9 -17 21 -28 31
-28 132 -27 153 1 19 25 20 69 2 84 -7 6 -38 20 -67 30 -45 15 -54 22 -54 42
0 19 6 25 28 27 16 2 40 -4 53 -13 14 -9 33 -15 42 -13 14 3 13 8 -10 31 -27
27 -76 35 -118 20z"/>
<path d="M1780 3675 c0 -14 4 -25 10 -25 5 0 7 -14 3 -32 -5 -30 -4 -31 10
-18 14 13 21 50 18 88 -1 6 -10 12 -21 12 -15 0 -20 -7 -20 -25z"/>
<path d="M3826 3691 c-8 -12 3 -41 15 -41 5 0 4 -12 -2 -26 -11 -30 -4 -43 13
-26 6 6 12 30 12 54 1 32 -3 43 -16 46 -9 2 -19 -1 -22 -7z"/>
<path d="M293 3111 c-61 -38 -68 -59 -68 -221 -1 -170 4 -195 45 -235 l31 -30
365 -3 c405 -3 414 -2 454 63 18 29 20 49 20 185 0 166 -8 198 -58 235 -26 19
-45 20 -392 23 -348 2 -366 1 -397 -17z m783 -45 l34 -34 0 -151 c0 -163 -6
-188 -50 -214 -25 -15 -69 -17 -373 -17 -196 0 -357 4 -371 10 -51 19 -61 51
-62 204 0 78 3 154 9 169 5 16 24 37 41 48 29 18 55 19 384 19 l354 0 34 -34z"/>
<path d="M460 2947 c-70 -35 -66 -190 6 -217 61 -24 116 -4 137 49 16 39 14
102 -4 137 -21 41 -89 56 -139 31z m94 -33 c15 -15 18 -27 18 -74 0 -11 0 -29
-1 -39 -3 -50 -77 -70 -105 -29 -9 12 -16 43 -16 68 0 25 7 56 16 68 18 26 65
30 88 6z"/>
<path d="M1320 2902 c0 -23 4 -29 18 -27 9 2 20 4 23 4 3 1 5 11 4 24 -1 14
-9 23 -23 25 -18 3 -22 -2 -22 -26z"/>
<path d="M1395 2910 c-14 -22 9 -26 139 -27 127 -1 136 0 136 18 0 18 -9 19
-134 19 -79 0 -137 -4 -141 -10z"/>
<path d="M1320 2816 c0 -43 44 -42 46 2 1 17 -4 22 -22 22 -19 0 -24 -5 -24
-24z"/>
<path d="M1396 2821 c-13 -20 26 -27 144 -27 110 1 125 3 128 19 3 15 -9 17
-132 17 -74 0 -137 -4 -140 -9z"/>
<path d="M3909 3188 c-1 -51 -2 -97 -4 -103 -1 -5 -3 -18 -3 -27 -3 -26 -25
-22 -79 12 -73 47 -122 37 -140 -28 -5 -15 -8 -88 -8 -162 0 -117 3 -139 20
-167 25 -43 64 -44 128 -3 82 52 87 45 87 -127 l0 -113 683 0 682 0 -1 398
c-1 218 -2 400 -3 405 0 4 -307 7 -681 7 l-680 0 -1 -92z m1332 40 c1 -31 1
-688 0 -710 -1 -17 -39 -18 -650 -18 l-649 0 -3 120 c-4 105 -7 122 -25 140
l-21 21 -68 -35 c-37 -20 -74 -36 -81 -36 -30 0 -39 44 -39 180 0 187 14 208
104 151 104 -66 131 -40 131 127 l0 82 650 0 650 0 1 -22z"/>
<path d="M4313 2938 c-74 -114 -84 -134 -76 -142 3 -3 37 -6 75 -6 66 0 69 -1
68 -22 -4 -41 0 -50 18 -46 9 2 18 13 18 26 2 38 3 40 24 45 27 7 25 27 -3 27
-22 0 -22 2 -22 103 0 96 -2 102 -21 105 -17 2 -33 -16 -81 -90z m64 -40 l-2
-73 -47 -3 c-27 -2 -48 0 -48 4 0 9 89 144 95 144 2 0 3 -33 2 -72z"/>
<path d="M4550 2925 c-38 -57 -70 -111 -70 -120 0 -12 14 -15 70 -15 74 0 78
-3 71 -57 -1 -7 7 -13 19 -13 16 0 20 6 20 35 0 28 4 35 20 35 11 0 20 7 20
15 0 8 -9 15 -20 15 -19 0 -20 7 -20 105 0 98 -1 105 -20 105 -14 0 -40 -31
-90 -105z m75 -25 l0 -80 -54 0 -53 0 18 28 c38 59 87 132 88 132 1 0 1 -36 1
-80z"/>
<path d="M4793 3020 c-42 -17 -58 -57 -58 -146 0 -98 19 -133 79 -149 72 -18
126 42 126 140 0 128 -59 190 -147 155z m78 -39 c22 -18 24 -27 24 -106 0 -79
-2 -88 -24 -106 -13 -10 -29 -19 -36 -19 -7 0 -23 9 -36 19 -22 18 -24 27 -24
106 0 79 2 88 24 106 13 10 29 19 36 19 7 0 23 -9 36 -19z"/>
<path d="M6270 3191 c0 -105 -8 -151 -26 -151 -7 0 -35 14 -62 31 -60 37 -96
36 -126 -4 -18 -25 -21 -45 -24 -151 -7 -224 35 -280 151 -206 57 36 76 38 79
8 0 -13 2 -27 3 -33 2 -5 3 -56 4 -112 l1 -103 438 0 438 0 0 405 0 405 -438
0 -438 0 0 -89z m845 -306 c0 -198 -1 -366 -3 -372 -3 -10 -94 -13 -408 -13
l-404 0 -1 98 c-1 115 -4 140 -25 163 -18 20 -44 15 -96 -17 -95 -60 -111 -42
-115 131 -2 129 10 187 40 193 10 2 39 -10 65 -26 105 -67 132 -41 132 126 l0
82 407 -2 407 -3 1 -360z"/>
<path d="M6660 3017 c-38 -19 -55 -63 -55 -142 1 -91 24 -136 79 -150 48 -12
84 7 108 55 23 44 24 150 3 195 -25 51 -82 69 -135 42z m90 -44 c19 -24 21
-38 18 -105 -2 -63 -7 -82 -25 -99 -26 -26 -66 -20 -85 14 -18 32 -19 145 -2
178 24 47 63 51 94 12z"/>
<path d="M8150 3183 c0 -156 -6 -164 -87 -113 -110 70 -156 13 -152 -188 4
-195 44 -241 152 -172 82 52 87 45 87 -127 l0 -113 440 0 440 0 0 405 0 405
-440 0 -440 0 0 -97z m841 60 c1 -5 2 -173 3 -375 l1 -368 -407 0 -408 0 -1
103 c-1 124 -3 135 -27 159 -18 19 -20 18 -87 -16 -80 -42 -90 -43 -106 -13
-18 32 -22 233 -6 287 16 56 33 60 96 21 106 -64 131 -41 131 120 l0 89 405 0
c223 0 406 -3 406 -7z"/>
<path d="M8538 3002 c-23 -18 -34 -33 -29 -40 6 -9 14 -7 33 8 33 25 34 21 34
-110 l-1 -105 -38 0 c-29 0 -37 -4 -37 -17 0 -16 11 -18 95 -18 78 0 95 3 95
15 0 9 -10 15 -22 16 -13 1 -30 2 -38 3 -12 1 -15 24 -15 136 0 127 -1 135
-20 137 -11 2 -37 -10 -57 -25z"/>
<path d="M10030 3173 c0 -142 -4 -147 -79 -105 -96 52 -130 40 -151 -53 -13
-58 -11 -214 2 -265 22 -78 58 -87 149 -37 51 27 61 30 69 17 5 -8 10 -70 10
-137 l0 -123 440 0 440 0 0 405 0 405 -440 0 -440 0 0 -107z m846 -300 l0
-373 -408 0 -408 0 0 110 c0 108 -10 154 -36 164 -8 3 -43 -10 -79 -29 -36
-19 -72 -35 -80 -35 -26 0 -37 42 -40 154 -4 124 10 199 37 204 10 2 46 -12
80 -31 35 -19 71 -32 80 -30 25 6 38 57 38 155 l0 88 408 -2 407 -3 1 -372z"/>
<path d="M10423 3020 c-53 -22 -77 -164 -39 -241 37 -78 135 -78 172 0 20 42
22 147 4 192 -21 49 -82 71 -137 49z m95 -48 c20 -26 21 -136 2 -183 -20 -48
-75 -51 -99 -6 -16 29 -21 122 -9 165 14 51 74 64 106 24z"/>
<path d="M5660 2996 c0 -38 -3 -45 -25 -50 -36 -9 -57 -48 -58 -105 0 -56 21
-97 59 -111 21 -8 24 -16 24 -55 0 -39 3 -45 21 -45 13 0 20 6 18 18 -5 52 2
70 30 81 34 15 50 42 55 96 6 55 -17 104 -54 118 -30 11 -34 19 -30 70 1 21
-3 27 -19 27 -18 0 -21 -6 -21 -44z m0 -163 c0 -87 0 -87 -20 -68 -26 28 -33
78 -16 120 25 59 36 42 36 -52z m69 74 c18 -23 24 -73 12 -110 -16 -47 -41
-57 -42 -17 -4 136 2 160 30 127z"/>
<path d="M2657 2969 c-12 -7 -57 -104 -57 -124 0 -3 8 -5 19 -5 14 0 22 12 30
44 20 83 47 70 75 -34 23 -87 40 -112 74 -108 44 5 100 127 60 133 -12 2 -19
-9 -27 -40 -6 -23 -17 -48 -26 -55 -13 -11 -17 -7 -29 21 -8 19 -17 51 -21 72
-9 45 -44 99 -66 102 -8 2 -23 -1 -32 -6z"/>
<path d="M9421 2968 c1 -7 1 -30 0 -50 l-1 -38 -45 0 c-33 0 -45 -4 -45 -15 0
-11 12 -15 45 -15 42 0 45 -2 46 -27 1 -16 0 -36 -1 -46 -1 -13 4 -18 17 -15
14 3 18 12 17 46 l-1 42 49 0 c63 0 61 23 -3 30 -41 5 -44 7 -45 35 -2 59 -4
65 -19 65 -9 0 -15 -6 -14 -12z"/>
<path d="M3230 2952 c0 -5 18 -58 39 -118 34 -95 42 -109 61 -109 18 0 31 14
56 60 49 89 57 175 16 175 -14 0 -17 -11 -18 -58 0 -38 -7 -71 -22 -99 -12
-24 -24 -43 -27 -43 -2 0 -18 45 -36 100 -26 77 -37 100 -51 100 -10 0 -18 -4
-18 -8z"/>
<path d="M7466 2953 c-3 -4 10 -24 31 -45 l37 -38 -37 -38 c-23 -24 -33 -42
-28 -50 6 -9 18 -4 46 23 22 19 42 35 45 35 3 0 21 -16 40 -35 23 -23 37 -32
44 -25 7 7 -3 23 -28 49 l-38 39 36 38 c50 53 30 72 -22 21 l-37 -37 -32 35
c-33 35 -44 41 -57 28z"/>
<path d="M293 2030 c-61 -37 -67 -57 -68 -219 -2 -169 3 -196 45 -236 l31 -30
297 -3 c284 -2 298 -2 330 18 56 35 68 76 66 242 -2 162 -11 194 -67 228 -30
19 -52 20 -317 20 -265 0 -287 -1 -317 -20z m615 -24 c48 -25 56 -53 56 -215
0 -162 -8 -192 -60 -211 -14 -6 -149 -10 -300 -10 -363 0 -352 -7 -349 225 3
178 0 162 36 196 l31 29 280 0 c221 0 285 -3 306 -14z"/>
<path d="M420 1800 c0 -153 1 -160 20 -160 19 0 20 7 20 160 0 153 -1 160 -20
160 -19 0 -20 -7 -20 -160z"/>
<path d="M1179 1848 c-8 -16 -3 -48 8 -52 22 -9 33 2 33 30 0 17 -5 24 -20 24
-11 0 -21 -1 -21 -2z"/>
<path d="M1250 1822 c0 -17 10 -19 137 -18 122 1 136 3 139 19 2 15 -10 17
-137 17 -128 0 -139 -1 -139 -18z"/>
<path d="M1179 1758 c-10 -19 -3 -47 12 -51 23 -6 29 0 29 30 0 16 -6 23 -20
23 -11 0 -21 -1 -21 -2z"/>
<path d="M1250 1736 c0 -20 13 -22 149 -22 110 1 124 3 127 19 2 15 -10 17
-137 17 -112 0 -139 -3 -139 -14z"/>
<path d="M4120 2103 c0 -156 -6 -164 -87 -113 -115 73 -160 9 -151 -215 4 -96
8 -120 25 -143 29 -39 65 -40 125 -3 54 34 77 39 79 16 1 -8 3 -19 4 -25 1 -5
3 -59 4 -120 l1 -110 610 0 610 0 0 405 0 405 -610 0 -610 0 0 -97z m1187
-308 l0 -375 -579 0 -578 0 0 104 c0 104 -12 165 -33 167 -29 3 -53 -5 -98
-33 -59 -36 -80 -33 -96 12 -15 45 -14 235 0 280 16 46 37 48 95 12 43 -28 68
-36 99 -33 19 2 33 69 33 159 l0 82 579 0 578 0 0 -375z"/>
<path d="M4360 2042 c-39 -18 -69 -46 -79 -74 -6 -17 -11 -98 -11 -181 0 -133
2 -153 20 -182 39 -64 49 -65 442 -65 335 0 355 1 386 20 63 39 70 63 68 239
-1 174 -7 194 -69 231 -30 19 -52 20 -387 19 -195 0 -362 -3 -370 -7z m740
-37 c48 -25 54 -47 56 -207 2 -162 -8 -198 -62 -218 -36 -14 -706 -13 -737 1
-49 22 -57 54 -57 219 l0 152 34 34 34 34 351 0 c294 0 357 -2 381 -15z"/>
<path d="M4504 1869 c-32 -16 -49 -55 -48 -113 0 -87 47 -127 130 -111 52 9
76 53 71 128 -2 42 -9 64 -24 78 -24 25 -97 34 -129 18z m96 -34 c19 -23 23
-105 8 -135 -15 -27 -37 -35 -73 -26 -25 6 -44 46 -39 86 1 14 3 33 3 42 2 42
74 66 101 33z"/>
<path d="M5699 2193 c-1 -5 -3 -42 -4 -83 -1 -41 -3 -92 -4 -112 -1 -47 -14
-48 -79 -8 -28 17 -63 30 -81 30 -29 0 -34 -5 -53 -47 -17 -38 -21 -68 -21
-157 0 -205 44 -259 153 -186 82 55 86 48 85 -127 l-1 -113 611 0 612 0 0 405
0 405 -609 0 c-334 0 -609 -3 -609 -7z m1185 -386 c-1 -199 -2 -368 -3 -375
-1 -10 -120 -12 -577 -10 l-576 3 -2 117 c-2 79 -7 122 -15 132 -19 23 -61 20
-102 -8 -99 -67 -120 -41 -119 147 0 180 18 205 109 148 70 -44 87 -47 107
-16 13 19 18 52 20 118 1 51 3 95 3 100 1 4 261 7 579 7 l577 0 -1 -363z"/>
<path d="M5920 2032 c-62 -31 -72 -62 -73 -235 -1 -136 1 -157 19 -188 40 -69
46 -70 451 -67 349 3 363 4 390 24 49 36 57 66 58 223 1 164 -11 207 -67 241
-31 19 -50 20 -388 20 -318 0 -359 -2 -390 -18z m767 -32 c20 -12 35 -31 40
-50 14 -54 8 -296 -7 -326 -29 -52 -41 -54 -415 -54 -308 0 -350 2 -376 17
-45 27 -53 61 -52 219 1 152 9 178 58 203 12 6 159 10 370 10 331 1 352 0 382
-19z"/>
<path d="M6079 1865 c-32 -18 -46 -49 -46 -105 0 -57 11 -82 47 -103 52 -31
114 -17 144 34 19 32 17 109 -3 148 -22 40 -93 53 -142 26z m94 -27 c19 -16
30 -82 19 -123 -10 -37 -49 -54 -86 -37 -42 19 -45 138 -3 164 18 12 51 9 70
-4z"/>
<path d="M2517 2059 c-9 -6 -21 -7 -26 -4 -6 3 -14 -3 -20 -12 -6 -10 -11 -14
-11 -9 0 5 -11 -1 -25 -14 -13 -12 -22 -27 -19 -31 3 -5 1 -9 -5 -9 -5 0 -9
-9 -8 -20 1 -22 22 -22 22 1 0 19 48 69 67 69 17 0 55 26 48 33 -3 3 -13 1
-23 -4z m-67 -43 c0 -2 -8 -10 -17 -17 -16 -13 -17 -12 -4 4 13 16 21 21 21
13z"/>
<path d="M2557 2063 c-4 -3 -7 -12 -7 -18 0 -13 31 -12 70 0 17 6 21 4 14 -6
-6 -10 -3 -10 11 1 14 12 19 12 23 2 3 -10 7 -10 18 -1 11 9 14 8 14 -2 0 -10
3 -10 12 -1 15 15 32 16 23 2 -3 -5 -2 -10 4 -10 5 0 12 4 15 9 8 12 66 -10
66 -24 0 -5 4 -4 9 4 7 11 10 9 16 -8 3 -11 12 -21 19 -21 9 0 12 -9 8 -25 -4
-24 11 -35 23 -15 14 23 -54 108 -77 94 -4 -3 -8 0 -8 7 0 6 -8 9 -20 6 -11
-3 -20 -1 -20 3 0 8 -46 4 -61 -6 -4 -2 -10 -1 -13 4 -4 6 -71 8 -86 2 -13 -6
-36 -4 -41 3 -3 4 -8 4 -12 0z"/>
<path d="M3298 1972 c-35 -3 -38 -6 -39 -35 0 -38 0 -266 0 -319 l1 -38 71 0
c44 0 68 4 64 10 -3 6 -17 10 -29 10 l-23 0 -1 175 0 175 29 0 c16 0 29 4 29
9 0 11 -51 17 -102 13z m22 -197 c0 -168 -1 -175 -20 -175 -19 0 -20 7 -20
175 0 168 1 175 20 175 19 0 20 -7 20 -175z"/>
<path d="M3470 1960 c0 -5 13 -10 29 -10 l28 0 -1 -172 -1 -173 -27 -3 c-56
-7 -26 -22 42 -22 l70 0 0 195 0 195 -70 0 c-40 0 -70 -4 -70 -10z m120 -185
c0 -168 -1 -175 -20 -175 -19 0 -20 7 -20 175 0 168 1 175 20 175 19 0 20 -7
20 -175z"/>
<path d="M2398 1924 c10 -5 10 -9 0 -22 -10 -12 -10 -14 0 -8 13 8 17 -6 5
-18 -9 -9 -11 -46 -2 -40 4 2 7 -5 6 -16 -1 -11 -6 -20 -12 -20 -5 0 -3 -5 5
-10 13 -8 13 -13 2 -31 -8 -11 -9 -18 -3 -14 15 9 14 -8 -1 -24 -10 -11 -10
-13 0 -7 14 8 17 -10 2 -19 -7 -4 -7 -12 0 -24 5 -10 6 -22 2 -26 -4 -5 -1 -4
7 0 11 6 13 4 8 -9 -4 -10 -3 -15 3 -11 6 3 10 1 10 -5 0 -22 40 -53 69 -53
17 0 28 -5 24 -10 -3 -5 4 -4 15 2 26 14 35 14 26 0 -5 -8 -1 -8 14 0 11 6 23
11 27 11 3 0 3 -5 -1 -11 -5 -8 -1 -8 14 0 11 6 23 11 27 11 3 0 3 -5 -1 -11
-5 -8 -1 -8 14 0 11 6 23 11 27 11 3 0 3 -5 -1 -11 -4 -7 1 -7 15 1 16 8 26 8
35 1 15 -13 26 -5 26 18 0 9 -3 12 -8 6 -8 -12 -52 -15 -52 -4 0 9 -20 6 -37
-4 -8 -5 -13 -3 -13 4 0 8 -4 8 -15 -1 -9 -7 -15 -8 -15 -2 0 11 -18 11 -37
-1 -8 -5 -13 -3 -13 4 0 8 -4 8 -15 -1 -8 -7 -15 -8 -15 -3 0 5 -15 9 -32 9
-26 -1 -38 6 -60 34 -14 19 -24 38 -22 42 3 5 1 8 -5 8 -6 0 -8 6 -5 13 9 25
9 175 0 169 -6 -3 -6 3 -2 14 15 36 12 59 -9 61 -11 2 -14 0 -7 -3z"/>
<path d="M2879 1928 c-6 -27 -6 -37 2 -32 11 6 12 -9 2 -20 -10 -10 -12 -56
-2 -56 23 0 33 100 11 108 -7 2 -12 2 -13 0z"/>
<path d="M2646 1901 c-4 -6 -11 -9 -16 -6 -15 9 -49 -13 -64 -43 -15 -30 -12
-72 7 -84 6 -4 8 -8 3 -8 -5 0 3 -9 17 -20 14 -11 30 -20 36 -20 17 0 1 28
-18 33 -22 5 -35 61 -21 88 13 23 70 55 70 39 0 -6 4 -9 9 -6 5 3 14 -1 21 -9
7 -8 20 -15 29 -15 9 0 12 -3 6 -8 -15 -11 -17 -32 -2 -32 9 0 9 -2 -1 -9 -8
-4 -13 -11 -13 -15 3 -23 0 -36 -8 -31 -5 3 -16 -1 -24 -9 -11 -11 -17 -12
-27 -3 -10 10 -12 8 -6 -6 3 -10 6 -21 6 -23 0 -3 6 -2 13 3 6 4 19 8 27 10 8
1 16 7 18 13 2 6 10 17 19 25 8 8 11 15 7 15 -3 0 -1 7 6 15 9 11 10 15 1 15
-7 0 -10 8 -7 18 6 21 -24 59 -50 64 -10 2 -22 7 -25 12 -4 4 -10 3 -13 -3z
m-41 -31 c-10 -11 -21 -18 -23 -15 -3 3 3 12 14 20 27 20 30 18 9 -5z m-27
-85 c-3 -3 -9 2 -12 12 -6 14 -5 15 5 6 7 -7 10 -15 7 -18z"/>
<path d="M2875 1786 c0 -13 3 -22 8 -19 4 2 7 -1 7 -6 0 -6 -4 -11 -8 -11 -5
0 -9 -7 -9 -15 0 -8 4 -12 9 -9 4 3 8 1 8 -5 0 -5 -6 -11 -12 -14 -7 -2 -9 -8
-5 -13 5 -5 15 0 23 11 9 12 11 21 4 23 -7 3 -7 10 0 23 8 14 7 19 -1 19 -8 0
-9 4 0 13 11 14 5 27 -13 27 -6 0 -11 -11 -11 -24z"/>
<path d="M2890 1679 c0 -5 -5 -7 -10 -4 -6 4 -10 3 -9 -2 1 -4 -1 -20 -5 -34
-8 -27 -69 -65 -87 -54 -10 7 -13 -18 -3 -28 8 -7 76 26 91 45 18 22 43 88 32
88 -5 0 -9 -5 -9 -11z"/>
<path d="M434 699 c0 -123 1 -129 19 -123 11 3 72 28 136 54 155 64 156 72 14
130 -59 24 -122 49 -139 56 l-30 13 0 -130z m124 40 c42 -18 80 -35 84 -38 4
-3 -33 -23 -82 -43 l-90 -37 0 75 c0 41 3 74 6 74 3 0 40 -14 82 -31z"/>
<path d="M1760 1013 c0 -143 -3 -147 -82 -104 -76 40 -105 39 -132 -8 -16 -28
-21 -56 -23 -145 -4 -165 18 -236 74 -236 14 0 51 15 84 32 51 28 61 31 69 18
5 -8 10 -70 10 -138 l0 -122 537 2 538 3 0 403 0 402 -537 0 -538 0 0 -107z
m1041 65 c1 -18 1 -678 0 -710 l-1 -28 -505 0 -505 0 0 110 c0 108 -10 154
-36 164 -8 3 -44 -11 -80 -30 -36 -19 -74 -34 -83 -32 -25 5 -39 81 -36 198 2
107 16 160 42 160 8 0 43 -16 78 -35 34 -20 69 -33 77 -30 27 11 38 54 39 150
l1 95 504 0 c396 0 504 -3 505 -12z"/>
<path d="M1983 954 c-56 -28 -71 -78 -72 -234 0 -153 7 -185 50 -226 l30 -29
297 -3 c281 -2 299 -1 329 17 58 36 66 67 66 237 -1 169 -10 200 -66 234 -30
19 -52 20 -317 20 -240 0 -290 -3 -317 -16z m610 -25 c52 -29 56 -43 57 -206
0 -97 -4 -162 -12 -178 -23 -52 -44 -55 -337 -55 -151 0 -281 4 -295 10 -14 5
-35 24 -45 41 -18 29 -20 49 -18 185 2 136 4 154 22 174 11 12 29 26 40 31 32
13 563 11 588 -2z"/>
<path d="M2110 865 c-1 -8 -1 -55 -1 -105 0 -208 0 -202 19 -198 15 3 17 19
17 161 1 144 -1 157 -17 157 -10 0 -18 -7 -18 -15z"/>
<path d="M4180 1013 c0 -143 -3 -147 -82 -104 -77 40 -105 39 -132 -9 -18 -30
-21 -52 -21 -165 0 -110 3 -136 20 -170 27 -53 53 -56 133 -14 53 29 64 32 72
19 5 -8 10 -70 10 -138 l0 -122 623 2 622 3 0 403 1 402 -623 0 -623 0 0 -107z
m1213 -293 c-1 -201 -2 -368 -2 -372 -1 -5 -266 -8 -591 -8 l-590 0 1 108 c1
168 -23 193 -126 132 -64 -38 -79 -37 -96 3 -19 43 -18 250 0 295 17 40 34 40
93 3 102 -65 128 -41 128 115 l0 94 592 -2 592 -3 -1 -365z"/>
<path d="M4569 855 c-35 -19 -53 -66 -53 -139 1 -121 64 -183 148 -145 79 36
78 260 -1 290 -34 13 -63 11 -94 -6z m99 -42 c6 -9 13 -26 13 -37 5 -79 4
-101 -7 -132 -15 -44 -17 -46 -48 -49 -29 -4 -65 27 -67 58 -6 81 -5 105 2
131 5 15 16 34 26 42 21 17 63 10 81 -13z"/>
<path d="M4943 847 c-18 -12 -33 -30 -33 -40 0 -19 11 -16 41 10 23 19 25 8
24 -117 0 -85 -3 -105 -15 -106 -8 -1 -25 -2 -37 -3 -13 -1 -23 -7 -23 -16 0
-12 17 -15 95 -15 78 0 95 3 95 15 0 9 -10 15 -22 16 -13 1 -30 2 -38 3 -12 1
-15 24 -15 136 0 128 -1 135 -20 137 -11 1 -35 -8 -52 -20z"/>
<path d="M4787 603 c-4 -3 -7 -15 -7 -25 0 -12 7 -18 24 -18 18 0 23 5 21 18
-2 9 -4 20 -4 25 -1 9 -25 9 -34 0z"/>
<path d="M3018 948 c-55 -32 -62 -55 -64 -218 -3 -163 3 -194 47 -236 l30 -29
374 -3 c416 -3 414 -3 455 62 19 32 21 49 21 190 0 173 -8 202 -64 236 -30 19
-52 20 -397 20 -353 0 -366 -1 -402 -22z m794 -28 c33 -34 38 -60 38 -204 0
-157 -6 -184 -50 -209 -25 -15 -70 -17 -378 -17 -199 0 -362 4 -376 10 -50 19
-61 52 -63 200 -2 150 6 190 45 220 25 20 35 21 397 18 316 -3 374 -5 387 -18z"/>
<path d="M3156 793 c-3 -4 10 -24 31 -45 l37 -38 -39 -40 c-27 -28 -36 -43
-29 -50 8 -8 23 0 49 25 22 19 42 35 45 35 4 0 21 -16 39 -36 23 -25 36 -33
44 -25 7 7 -1 23 -27 51 l-37 41 37 35 c27 26 34 38 25 47 -8 8 -20 2 -49 -25
l-37 -36 -35 34 c-37 36 -42 38 -54 27z"/>
</g>
</svg>
