<?xml version="1.0" standalone="no"?>
<!DOCTYPE svg PUBLIC "-//W3C//DTD SVG 20010904//EN"
 "http://www.w3.org/TR/2001/REC-SVG-20010904/DTD/svg10.dtd">
<svg version="1.0" xmlns="http://www.w3.org/2000/svg"
 width="1340.000000pt" height="719.000000pt" viewBox="0 0 1340.000000 719.000000"
 preserveAspectRatio="xMidYMid meet">
<metadata>
Created by potrace 1.16, written by Peter Selinger 2001-2019
</metadata>
<g transform="translate(0.000000,719.000000) scale(0.100000,-0.100000)"
fill="#000000" stroke="none">
<path d="M358 6970 c-71 -7 -116 -30 -153 -79 -20 -26 -20 -43 -23 -3322 l-2
-3296 23 -43 c16 -30 37 -51 67 -67 l43 -23 5101 2 c3392 2 5101 6 5101 13 0
6 4 15 8 22 4 6 3 14 -2 17 -10 7 -9 55 2 72 3 6 3 14 0 18 -11 10 -11 289 -1
303 5 6 5 13 1 16 -5 3 -8 102 -8 221 l1 216 -1673 0 -1673 0 2 332 3 331 488
1 c268 1 487 -3 487 -7 0 -5 5 -5 11 -1 16 10 469 11 469 1 0 -5 5 -5 12 -1
16 10 1428 11 1428 1 0 -5 5 -5 11 -1 16 10 469 11 469 1 0 -5 5 -5 12 -1 16
10 1428 11 1428 1 0 -5 5 -5 11 -1 16 10 469 11 469 1 0 -5 5 -5 12 -1 6 4
113 8 237 8 l226 1 3 628 c1 345 5 627 10 628 51 7 262 2 262 -6 0 -5 5 -3 10
5 6 9 10 189 10 457 l0 443 -5263 2 -5262 3 35 25 35 25 4855 2 c2670 0 4861
2 4868 2 10 1 12 113 10 543 l-3 543 -4515 -1 c-2483 0 -4517 3 -4520 7 -3 4
-5 111 -5 238 l1 231 -338 0 -338 0 -2 248 -3 247 -268 0 c-170 0 -267 4 -268
10 -1 6 -3 116 -4 245 -1 129 -3 237 -4 240 0 3 -31 5 -68 5 l-68 0 -3 248 -2
247 -123 0 c-67 0 -370 0 -674 0 l-551 0 -59 -38 c-63 -41 -104 -50 -123 -27
-7 8 -19 15 -26 15 -8 0 -14 4 -14 8 0 11 -45 32 -85 41 -16 4 -60 4 -97 1z
m181 -63 c68 -47 95 -47 170 1 l59 39 661 0 661 0 0 -236 0 -236 -665 0 -665
0 -55 -37 c-71 -49 -101 -49 -169 0 l-53 37 -141 0 -142 0 0 179 c0 166 2 181
23 219 31 57 77 75 180 73 77 -2 85 -4 136 -39z m-15 -488 c26 -17 45 -34 42
-36 -3 -3 -49 -5 -103 -5 -170 1 -186 -13 -186 -163 0 -103 10 -136 50 -154
30 -14 431 -15 467 -1 40 15 53 54 51 160 -1 52 -6 105 -13 116 -16 30 -63 47
-121 42 -28 -1 -51 -2 -51 -1 0 1 24 18 52 38 l53 35 387 0 388 0 0 -65 c0
-36 -4 -65 -10 -65 -5 0 -24 9 -42 20 -18 11 -41 20 -50 20 -30 0 -48 -52 -48
-137 0 -123 28 -155 100 -114 20 11 40 18 44 14 3 -3 6 -37 6 -75 l0 -68 -389
0 -389 0 -60 -40 c-33 -22 -70 -40 -82 -40 -12 0 -49 18 -82 40 l-60 40 -139
0 -139 0 0 235 0 235 138 0 c138 0 139 0 186 -31z m1710 -196 c-1 -126 -2
-231 -3 -235 -1 -5 -151 -8 -335 -8 l-334 0 -1 72 c-1 98 -15 112 -77 79 -33
-18 -48 -21 -56 -13 -17 17 -23 156 -8 192 15 35 16 36 55 10 39 -26 72 -26
80 0 4 11 6 45 6 75 l0 55 337 0 337 0 -1 -227z m-1439 123 c22 -16 31 -61 30
-155 -2 -124 6 -121 -264 -121 -280 0 -262 -13 -264 188 0 52 19 90 47 94 60
10 437 5 451 -6z m-266 -427 c75 -52 110 -52 182 0 l55 39 502 0 502 -1 0 -68
c0 -38 -2 -69 -4 -69 -3 0 -21 9 -40 21 -51 30 -78 23 -94 -26 -16 -48 -10
-172 10 -204 16 -26 34 -26 76 -1 18 11 37 20 42 20 7 0 10 -469 10 -1323 l0
-1322 -507 0 -508 0 -55 -38 c-30 -20 -66 -37 -80 -37 -14 0 -50 17 -80 37
l-55 37 -140 1 -140 0 -3 1486 -2 1487 136 0 137 0 56 -39z m2251 -270 c-1
-185 -5 -311 -11 -315 -5 -3 -26 4 -45 15 -46 27 -60 26 -80 -4 -11 -18 -16
-49 -17 -107 0 -136 21 -160 103 -118 22 11 40 17 41 13 0 -5 3 -35 5 -69 l4
-61 -55 -36 c-30 -21 -66 -37 -80 -37 -13 0 -51 17 -84 38 -59 39 -60 39 -150
36 -125 -3 -181 -39 -200 -125 -4 -19 -7 -232 -6 -474 l1 -440 24 -42 c42 -76
70 -83 328 -83 l223 0 -2 -54 c-3 -77 -9 -84 -54 -58 -47 28 -61 28 -82 -4
-13 -20 -17 -47 -16 -108 1 -135 21 -158 103 -116 l38 20 6 -28 c3 -15 5 -135
4 -267 l0 -240 -492 0 -491 0 0 1321 c0 1394 1 1363 -43 1347 -9 -4 -30 -15
-45 -26 -25 -17 -31 -18 -43 -5 -19 19 -27 128 -14 179 12 44 31 50 70 19 27
-21 55 -26 65 -10 4 6 8 36 10 68 2 31 4 62 4 68 1 9 132 12 491 11 l491 0 -1
-308z m676 -409 c0 -118 -1 -220 -3 -226 -3 -7 -103 -11 -327 -11 l-324 1 -4
68 c-5 90 -14 98 -78 68 -44 -20 -53 -22 -61 -10 -15 26 -14 171 2 202 9 17
11 17 49 -2 75 -38 90 -25 90 78 l0 52 327 -2 328 -3 1 -215z m-899 -294 c70
-50 102 -50 177 0 l59 39 394 0 393 0 0 -67 c0 -38 -3 -68 -7 -68 -5 0 -23 9
-41 20 -69 42 -94 21 -100 -88 -8 -143 17 -181 93 -144 25 12 48 22 50 22 3 0
5 -163 5 -362 l0 -363 -398 0 -397 1 -57 -38 c-31 -21 -68 -38 -83 -38 -14 0
-50 17 -81 37 -53 35 -61 37 -144 39 -103 3 -138 17 -171 71 l-23 37 0 416 c0
416 0 417 23 453 36 59 74 73 184 71 67 -1 76 -4 124 -38z m9941 -486 l-3
-524 -4430 -1 c-2436 0 -4437 1 -4446 3 -14 3 -16 41 -16 340 -1 419 0 391
-19 399 -9 3 -37 -4 -61 -16 -34 -16 -49 -19 -57 -11 -16 16 -15 195 1 211 10
10 21 8 52 -9 21 -12 46 -22 55 -22 19 0 29 37 29 105 l0 50 4449 0 4448 0 -2
-525z m-10168 -537 c19 -3 68 -6 108 -6 39 0 72 -3 72 -7 0 -4 14 -13 30 -20
17 -7 30 -16 30 -21 0 -15 -217 -11 -253 5 -40 17 -73 53 -82 89 l-7 28 33
-30 c18 -17 49 -34 69 -38z m10890 -511 l0 -427 -5207 0 -5208 0 -5 267 c-4
192 -8 270 -17 279 -10 10 -23 8 -63 -11 -44 -20 -53 -22 -61 -10 -15 25 -14
172 2 202 9 17 13 16 59 -7 l49 -25 15 22 c10 14 16 44 16 80 l0 58 5210 0
5210 0 0 -428z m-12688 -488 c66 -47 108 -50 161 -11 72 54 61 53 512 53 l420
-1 3 -67 c2 -38 0 -68 -4 -68 -4 0 -22 9 -40 21 -69 43 -103 5 -103 -116 0
-74 18 -129 43 -133 10 -2 37 6 58 18 22 12 42 20 45 17 2 -3 5 -47 5 -99 -1
-51 -1 -254 -1 -450 l-1 -358 -435 0 -435 0 -57 -40 c-32 -22 -68 -40 -80 -40
-12 0 -51 18 -85 40 l-63 40 -137 0 -138 0 0 613 c0 338 2 616 4 618 3 3 65 4
138 4 l133 0 57 -41z m12396 -576 c2 -580 1 -616 -15 -620 -25 -6 -11246 2
-11252 8 -3 3 -5 206 -6 452 0 246 -4 453 -8 460 -12 18 -38 15 -72 -8 -16
-11 -35 -20 -42 -20 -18 0 -31 57 -28 126 5 108 15 120 70 84 33 -22 60 -26
70 -10 4 6 8 37 10 70 2 32 5 62 8 67 3 4 2538 8 5634 8 l5628 -1 3 -616z
m-12397 -681 c74 -49 109 -49 180 1 53 36 56 37 144 37 l90 0 3 -34 c2 -19 1
-50 -3 -68 l-6 -33 -46 25 c-76 40 -96 12 -95 -133 1 -74 18 -122 45 -122 7 0
30 9 51 21 31 17 40 18 47 7 5 -7 9 -281 9 -609 l0 -596 -322 1 c-358 2 -360
2 -402 67 l-25 38 -1 714 c0 392 2 715 4 718 3 3 65 4 138 4 l133 0 56 -38z
m1337 -16 c5 -78 0 -85 -40 -61 -40 24 -71 26 -88 4 -17 -19 -25 -157 -13
-203 13 -52 35 -60 86 -33 23 12 45 22 50 22 4 0 7 -274 7 -608 l0 -609 -450
0 -450 0 -2 613 c-2 401 -7 617 -13 623 -7 7 -20 5 -40 -5 -67 -35 -75 -36
-86 -7 -16 43 -13 173 5 191 13 14 20 13 61 -9 45 -24 46 -24 61 -5 8 12 14
43 14 81 l0 60 448 0 447 0 3 -54z m975 50 c14 -1 17 -10 17 -50 0 -78 -6 -86
-47 -61 -72 42 -100 21 -104 -77 -4 -93 1 -131 20 -154 l19 -24 48 23 c37 19
49 21 55 10 12 -18 11 -465 0 -472 -5 -3 -28 3 -52 13 -73 33 -91 9 -91 -119
0 -132 20 -156 95 -115 38 20 46 21 51 8 3 -8 6 -128 6 -267 l0 -253 -483 0
-484 0 0 608 c0 471 -3 612 -12 623 -11 14 -19 12 -63 -10 -37 -19 -53 -23
-62 -14 -16 16 -15 195 2 212 10 10 21 8 58 -11 58 -31 72 -20 75 64 2 33 4
62 5 65 2 4 889 5 947 1z m4300 0 c4 0 7 -149 7 -331 l0 -330 -2134 0 -2135 0
-3 175 c-4 204 -6 209 -78 169 -42 -24 -45 -24 -57 -8 -26 35 -17 214 10 214
7 0 31 -10 54 -22 54 -29 65 -19 70 59 3 32 6 63 7 68 2 7 719 10 2127 9 1168
-1 2127 -2 2132 -3z m3352 -1101 c1 -228 -1 -420 -2 -426 -3 -8 -1084 -11
-3808 -11 l-3805 0 0 262 c0 308 -1 311 -72 277 -74 -36 -78 -32 -78 88 0 118
8 127 79 91 53 -28 64 -16 69 68 l4 71 3806 -2 3806 -3 1 -415z"/>
<path d="M396 6784 c-10 -26 -7 -44 9 -44 10 0 14 9 12 30 -2 33 -11 39 -21
14z"/>
<path d="M447 6793 c-10 -10 -8 -53 2 -53 15 0 23 18 12 25 -6 3 -8 12 -4 20
5 16 1 20 -10 8z"/>
<path d="M725 6788 c-33 -18 -45 -40 -45 -82 1 -44 13 -66 47 -84 85 -45 172
42 132 131 -19 42 -88 60 -134 35z m93 -28 c41 -39 25 -113 -27 -125 -49 -11
-76 13 -86 74 -9 56 70 91 113 51z"/>
<path d="M1465 6777 c-8 -24 -7 -121 1 -149 6 -19 54 -26 54 -8 0 6 -7 10 -15
10 -23 0 -21 98 3 116 16 13 16 13 0 14 -10 0 -18 6 -18 14 0 25 -17 27 -25 3z"/>
<path d="M900 6654 c0 -84 3 -104 14 -104 10 0 14 10 13 33 -2 31 -1 32 34 29
21 -2 40 2 47 11 18 22 23 80 9 107 -11 22 -20 25 -65 26 l-52 2 0 -104z m88
74 c13 -13 16 -56 6 -82 -3 -9 -17 -16 -30 -16 -25 0 -41 35 -35 75 5 33 37
45 59 23z"/>
<path d="M1070 6740 c-45 -45 -13 -130 49 -130 16 0 34 7 41 15 16 19 5 34
-12 17 -17 -17 -55 -15 -62 4 -11 30 -6 34 44 34 43 0 50 3 50 20 0 28 -35 60
-65 60 -14 0 -34 -9 -45 -20z m78 -22 c3 -15 -4 -18 -32 -18 -34 0 -47 15 -29
34 13 13 58 1 61 -16z"/>
<path d="M1210 6685 c0 -58 3 -75 14 -75 10 0 14 14 14 52 1 42 5 57 23 71 26
21 16 36 -13 18 -11 -7 -17 -8 -13 -2 3 6 -1 11 -9 11 -13 0 -16 -14 -16 -75z"/>
<path d="M1320 6745 c-16 -19 -5 -34 12 -17 18 18 46 14 58 -8 10 -18 8 -20
-23 -20 -44 0 -70 -20 -65 -50 5 -33 31 -47 66 -34 19 7 33 8 44 0 10 -6 21
-6 25 -2 4 5 2 11 -4 13 -8 3 -13 24 -13 58 0 43 -4 56 -19 65 -28 15 -67 12
-81 -5z m75 -74 c7 -13 -23 -41 -45 -41 -22 0 -33 23 -17 39 13 13 54 15 62 2z"/>
<path d="M1550 6740 c-45 -45 -13 -130 48 -130 45 0 67 36 63 102 -3 46 -75
64 -111 28z m75 -10 c26 -42 9 -100 -29 -100 -25 0 -36 17 -36 55 0 13 3 30 6
39 7 18 49 22 59 6z"/>
<path d="M1693 6685 c1 -54 5 -75 14 -75 9 0 13 17 13 55 0 44 4 56 20 65 11
6 20 15 20 20 0 14 -27 12 -33 -2 -4 -10 -6 -10 -6 0 -1 6 -7 12 -15 12 -11 0
-14 -17 -13 -75z"/>
<path d="M1798 6749 c-21 -12 -24 -42 -5 -57 6 -5 27 -13 45 -17 23 -5 32 -12
30 -23 -4 -21 -44 -28 -64 -11 -19 16 -30 4 -14 -16 24 -29 110 -10 110 24 0
17 -27 42 -55 49 -39 11 -47 42 -11 42 14 0 28 -4 31 -10 9 -15 25 -12 25 4 0
25 -59 35 -92 15z"/>
<path d="M967 6253 c-13 -12 -7 -33 8 -33 8 0 15 9 15 20 0 20 -11 26 -23 13z"/>
<path d="M1010 6237 c0 -18 162 -17 168 1 3 9 -18 12 -82 12 -64 0 -86 -3 -86
-13z"/>
<path d="M960 6180 c0 -11 7 -20 15 -20 8 0 15 9 15 20 0 11 -7 20 -15 20 -8
0 -15 -9 -15 -20z"/>
<path d="M1012 6179 c2 -7 30 -12 73 -11 95 1 95 1 95 12 0 6 -35 10 -86 10
-60 0 -85 -3 -82 -11z"/>
<path d="M1792 6294 c-27 -19 -30 -39 -3 -25 17 9 19 6 22 -27 2 -20 3 -52 1
-69 -3 -27 -7 -33 -28 -33 -13 0 -24 -4 -24 -10 0 -6 26 -10 59 -10 33 0 63 5
66 10 4 6 -5 10 -19 10 -26 0 -26 0 -26 85 0 91 -5 99 -48 69z"/>
<path d="M1928 6288 c-14 -14 -17 -23 -10 -26 7 -2 19 4 28 12 18 19 36 20 52
4 20 -20 14 -32 -38 -85 -27 -28 -50 -56 -50 -62 0 -7 25 -11 65 -11 37 0 65
4 65 10 0 6 -24 10 -52 10 l-53 1 41 37 c58 53 69 77 49 108 -20 31 -67 32
-97 2z"/>
<path d="M400 6220 c0 -78 3 -100 14 -100 8 0 14 11 14 25 0 41 11 42 41 6 15
-19 33 -32 40 -30 8 3 2 18 -19 43 l-30 39 22 26 c13 14 28 29 33 33 6 4 2 8
-8 8 -10 0 -30 -14 -44 -30 -13 -17 -28 -28 -32 -25 -4 2 -6 27 -5 55 3 39 0
50 -11 50 -12 0 -15 -18 -15 -100z"/>
<path d="M330 4628 c-40 -15 -53 -53 -53 -156 0 -103 9 -134 45 -153 32 -17
689 -15 716 2 32 20 42 54 42 143 0 97 -12 138 -44 156 -26 13 -671 21 -706 8z
m706 -32 c16 -12 19 -29 22 -118 5 -160 36 -148 -382 -148 -412 0 -379 -12
-379 140 1 152 -32 140 378 140 279 0 345 -3 361 -14z"/>
<path d="M634 4470 c-1 -77 2 -100 13 -100 8 0 13 12 13 30 0 17 4 30 9 30 5
0 21 -13 34 -30 24 -28 48 -40 47 -22 -1 4 -14 23 -30 42 l-30 34 32 33 c42
43 15 44 -29 1 l-33 -32 0 57 c0 40 -4 57 -13 57 -10 0 -13 -25 -13 -100z"/>
<path d="M400 4445 c0 -58 3 -75 14 -75 11 0 15 14 15 55 0 63 5 75 32 75 20
0 21 -2 24 -65 4 -63 5 -65 14 -65 5 0 11 25 13 55 5 60 18 81 42 72 12 -5 16
-21 16 -67 0 -44 4 -60 13 -60 17 0 22 101 7 130 -12 22 -49 27 -67 9 -8 -8
-17 -7 -32 3 -17 10 -25 10 -41 0 -12 -7 -20 -8 -20 -2 0 5 -7 10 -15 10 -12
0 -15 -15 -15 -75z"/>
<path d="M1203 4503 c-18 -7 -16 -33 2 -33 8 0 15 9 15 20 0 11 -1 20 -2 19
-2 0 -9 -3 -15 -6z"/>
<path d="M1240 4488 c0 -18 168 -19 174 -1 4 10 -15 13 -84 13 -65 0 -90 -3
-90 -12z"/>
<path d="M1190 4430 c0 -11 7 -20 15 -20 8 0 15 9 15 20 0 11 -7 20 -15 20 -8
0 -15 -9 -15 -20z"/>
<path d="M1240 4431 c0 -5 33 -11 74 -13 84 -3 109 0 101 13 -8 12 -175 12
-175 0z"/>
<path d="M2002 5807 c35 -28 37 -57 6 -120 -16 -33 -27 -62 -24 -64 10 -10 27
10 42 48 19 46 29 43 45 -11 7 -22 18 -40 26 -40 17 0 17 -1 -13 77 -37 97
-50 118 -76 121 -21 2 -22 1 -6 -11z"/>
<path d="M2023 5282 c-30 -19 -38 -107 -13 -137 14 -17 61 -20 77 -4 8 8 13 8
17 0 11 -17 57 -13 72 7 27 35 11 133 -23 139 -9 2 -10 -4 -3 -23 12 -31 13
-84 1 -103 -19 -30 -49 7 -42 52 0 4 -5 7 -13 7 -8 0 -17 -15 -20 -35 -8 -40
-29 -46 -47 -14 -8 16 -8 33 1 66 12 49 11 56 -7 45z"/>
<path d="M1990 4855 c0 -8 5 -15 10 -15 6 0 10 7 10 15 0 8 -4 15 -10 15 -5 0
-10 -7 -10 -15z"/>
<path d="M1990 4794 c0 -8 5 -12 10 -9 6 3 10 10 10 16 0 5 -4 9 -10 9 -5 0
-10 -7 -10 -16z"/>
<path d="M1990 4725 c0 -8 5 -15 10 -15 6 0 10 7 10 15 0 8 -4 15 -10 15 -5 0
-10 -7 -10 -15z"/>
<path d="M1990 4665 c0 -8 5 -15 10 -15 6 0 10 7 10 15 0 8 -4 15 -10 15 -5 0
-10 -7 -10 -15z"/>
<path d="M2048 3383 c-17 -18 -16 -20 2 -36 17 -14 20 -14 20 -2 0 12 14 15
67 15 36 0 64 3 60 6 -3 3 -33 6 -66 5 -47 0 -60 3 -63 15 -3 14 -5 14 -20 -3z"/>
<path d="M2915 5371 c-35 -22 -42 -52 -41 -165 2 -94 3 -99 29 -122 27 -23 32
-24 217 -24 201 0 230 5 249 47 14 30 15 208 1 233 -21 39 -48 44 -243 45
-150 0 -192 -2 -212 -14z m426 -30 c16 -19 19 -40 19 -120 -1 -142 10 -135
-224 -139 -243 -4 -239 -6 -241 124 -2 100 7 137 37 151 11 5 104 9 205 8 181
-1 186 -1 204 -24z"/>
<path d="M3012 5318 c-7 -7 -12 -18 -12 -25 0 -7 -4 -13 -9 -13 -6 0 -4 -11 3
-24 6 -13 11 -47 10 -75 -1 -37 3 -51 13 -51 9 0 13 17 13 65 0 51 3 65 15 65
8 0 15 5 15 10 0 6 -7 10 -15 10 -8 0 -15 7 -15 15 0 8 7 15 15 15 8 0 15 5
15 10 0 14 -33 13 -48 -2z"/>
<path d="M2379 4620 c-33 -7 -54 -21 -68 -47 -14 -28 -14 -194 0 -226 20 -45
39 -48 294 -45 l239 3 21 31 c19 27 21 45 20 134 -2 94 -4 103 -27 127 l-26
25 -214 2 c-118 0 -225 -1 -239 -4z m468 -44 c16 -20 19 -40 18 -120 -2 -144
13 -136 -271 -136 -289 0 -280 -6 -273 166 3 71 7 88 23 100 16 11 67 14 252
14 l233 0 18 -24z"/>
<path d="M2442 4508 c-16 -16 -15 -28 3 -28 8 0 15 5 15 10 0 20 48 11 53 -10
4 -17 0 -20 -25 -20 -41 0 -68 -17 -68 -43 0 -44 52 -64 83 -32 13 13 16 13
21 0 3 -8 12 -15 21 -15 17 0 20 16 5 25 -5 3 -10 28 -10 55 0 39 -4 52 -19
60 -26 14 -64 13 -79 -2z m71 -75 c11 -10 -24 -43 -45 -43 -18 0 -26 29 -11
43 8 9 48 9 56 0z"/>
<path d="M3000 4488 c0 -10 7 -18 15 -18 8 0 15 8 15 18 0 10 -7 19 -15 19 -8
0 -15 -9 -15 -19z"/>
<path d="M3050 4487 c0 -10 21 -13 85 -13 61 1 85 5 85 14 0 9 -24 12 -85 12
-63 0 -85 -3 -85 -13z"/>
<path d="M3000 4430 c0 -11 7 -20 15 -20 8 0 15 9 15 20 0 11 -7 20 -15 20 -8
0 -15 -9 -15 -20z"/>
<path d="M3045 4430 c-4 -6 27 -10 84 -10 54 0 91 4 91 10 0 6 -35 10 -84 10
-47 0 -88 -4 -91 -10z"/>
<path d="M4489 4908 c-1 -2 -2 -33 -3 -70 -1 -37 -5 -70 -9 -74 -3 -3 -27 4
-53 17 l-47 22 -18 -21 c-36 -45 -36 -199 1 -244 l17 -22 52 27 51 27 1 -27
c1 -16 2 -140 3 -278 l1 -250 3228 -3 3227 -2 0 450 0 450 -3225 0 c-1774 0
-3226 -1 -3226 -2z m6431 -446 l0 -429 -3205 0 -3205 0 0 242 c0 134 -3 256
-6 273 -8 40 -29 47 -69 22 -62 -38 -79 -20 -78 85 1 122 8 131 77 97 62 -30
74 -16 75 91 l1 47 3205 0 3205 0 0 -428z"/>
<path d="M5594 4811 c-2 -2 -4 -34 -4 -71 0 -37 -3 -70 -6 -73 -4 -4 -24 3
-44 14 -72 41 -100 8 -99 -111 2 -131 21 -158 86 -125 21 11 43 19 48 20 6 0
12 -70 15 -180 l5 -180 2575 0 2575 0 0 355 0 355 -2573 0 c-1416 0 -2576 -2
-2578 -4z m5134 -349 l2 -332 -2559 0 -2560 0 0 165 c-1 90 -4 171 -7 180 -8
21 -36 19 -80 -7 -35 -20 -37 -21 -49 -4 -18 24 -18 179 0 203 13 17 15 17 53
-5 70 -39 82 -30 82 68 0 47 3 59 17 62 9 2 1160 3 2557 3 l2541 0 3 -333z"/>
<path d="M6830 4645 c0 -83 -4 -88 -58 -55 -18 11 -38 20 -45 20 -47 0 -65
-206 -22 -263 13 -18 15 -18 60 2 26 12 51 21 56 21 5 0 9 -38 9 -85 l0 -85
475 0 475 0 0 260 0 260 -475 0 -475 0 0 -75z m930 -185 l0 -236 -452 0 -452
1 -1 73 c-2 99 -15 112 -78 81 -63 -31 -71 -21 -73 84 -2 120 12 137 81 96 33
-20 38 -20 52 -6 12 11 17 36 17 80 l1 64 452 0 453 0 0 -237z"/>
<path d="M7070 4540 c-21 -21 -24 -33 -21 -90 3 -49 26 -80 59 -80 33 0 45 8
61 37 21 40 8 126 -22 145 -22 14 -57 8 -77 -12z m69 -14 c18 -21 16 -105 -2
-123 -25 -25 -54 -8 -62 37 -13 75 28 129 64 86z"/>
<path d="M7298 4538 c-14 -14 -17 -23 -10 -26 7 -2 19 4 28 12 17 18 24 19 48
10 28 -11 17 -38 -34 -89 -27 -27 -50 -55 -50 -62 0 -9 19 -13 65 -13 37 0 65
4 65 10 0 6 -24 10 -52 10 l-53 1 42 39 c59 56 68 75 48 106 -20 31 -67 32
-97 2z"/>
<path d="M7442 4518 c-1 -54 2 -58 37 -45 35 13 61 -3 61 -37 0 -43 -39 -59
-71 -30 -28 25 -47 12 -21 -14 31 -31 75 -29 101 4 39 49 7 109 -55 102 -27
-3 -30 -1 -26 19 4 20 10 23 48 23 24 0 44 5 44 10 0 6 -26 10 -59 10 l-59 0
0 -42z"/>
<path d="M7212 4388 c6 -18 28 -21 28 -4 0 9 -7 16 -16 16 -9 0 -14 -5 -12
-12z"/>
<path d="M8419 4718 c0 -2 -2 -32 -3 -68 -2 -36 -4 -71 -4 -78 -2 -9 -15 -5
-45 13 -24 14 -49 25 -55 25 -52 0 -67 -219 -19 -268 14 -13 21 -12 62 8 25
12 49 19 53 15 4 -4 8 -39 9 -78 0 -40 2 -75 2 -80 1 -4 214 -6 473 -5 l473 3
0 245 c1 135 -1 251 -3 258 -3 9 -107 12 -473 12 -258 0 -469 -1 -470 -2z
m921 -85 c1 -34 1 -101 1 -148 0 -47 0 -125 -1 -173 l0 -88 -447 0 -448 1 -3
50 c-6 120 -20 140 -77 105 -62 -39 -79 -20 -79 90 0 71 11 110 29 110 8 0 30
-9 50 -20 58 -32 75 -13 75 86 l0 51 450 0 450 0 0 -64z"/>
<path d="M8649 4539 c-18 -18 -21 -30 -17 -81 5 -65 22 -88 65 -88 41 0 63 33
63 95 0 42 -5 60 -20 75 -26 26 -65 25 -91 -1z m72 -15 c29 -35 10 -134 -26
-134 -23 0 -39 32 -39 76 2 65 34 95 65 58z"/>
<path d="M8884 4539 c-26 -29 -26 -119 0 -148 24 -27 68 -27 92 0 26 29 26
120 -1 149 -24 26 -67 26 -91 -1z m76 -18 c5 -11 10 -36 10 -56 0 -46 -15 -75
-40 -75 -25 0 -40 29 -40 75 0 46 15 75 40 75 11 0 24 -9 30 -19z"/>
<path d="M9029 4530 c-1 -16 -2 -36 -3 -42 -1 -8 13 -13 34 -14 54 -1 57 -3
63 -23 11 -42 -54 -85 -69 -46 -6 16 -34 21 -34 7 0 -17 37 -42 61 -42 40 0
69 27 69 64 0 43 -29 70 -70 64 -27 -4 -31 -2 -28 16 2 17 11 22 46 24 61 5
52 22 -13 22 -54 0 -55 0 -56 -30z"/>
<path d="M8800 4385 c0 -9 5 -15 11 -13 6 2 11 8 11 13 0 5 -5 11 -11 13 -6 2
-11 -4 -11 -13z"/>
<path d="M10000 4645 c0 -84 -6 -89 -62 -55 -44 27 -55 25 -73 -10 -18 -35
-21 -177 -4 -214 16 -35 34 -39 79 -16 22 11 44 20 50 20 6 0 10 -33 10 -85
l0 -85 280 0 280 0 0 260 0 260 -280 0 -280 0 0 -75z m538 -184 l-3 -236 -257
-1 -258 -1 0 77 c0 101 -10 110 -78 76 l-49 -25 -12 25 c-12 27 -15 123 -5
173 8 36 20 38 75 10 56 -28 69 -15 69 66 0 34 2 64 5 67 3 3 120 5 260 5
l255 0 -2 -236z"/>
<path d="M10234 4539 c-26 -29 -26 -120 1 -149 23 -26 67 -26 91 1 26 29 26
119 0 148 -24 27 -68 27 -92 0z m76 -18 c5 -11 10 -36 10 -56 0 -46 -15 -75
-40 -75 -25 0 -40 29 -40 75 0 46 15 75 40 75 11 0 24 -9 30 -19z"/>
<path d="M5930 4455 l0 -105 85 0 85 0 0 105 0 105 -85 0 -85 0 0 -105z m160
0 l0 -95 -74 0 -74 0 1 95 1 95 73 0 73 0 0 -95z"/>
<path d="M5983 4523 c-7 -2 -13 -12 -13 -21 0 -11 3 -13 8 -5 4 6 19 14 34 18
20 5 29 2 37 -14 10 -17 7 -23 -14 -37 -14 -9 -25 -22 -25 -29 0 -8 12 -2 30
13 34 30 37 44 14 66 -15 16 -46 20 -71 9z"/>
<path d="M6000 4385 c0 -10 7 -15 18 -13 21 4 19 22 -2 26 -10 2 -16 -3 -16
-13z"/>
<path d="M5827 4519 c7 -7 15 -10 18 -7 3 3 -2 9 -12 12 -14 6 -15 5 -6 -5z"/>
<path d="M9617 4523 c-4 -3 -7 -17 -7 -30 0 -19 -5 -23 -31 -23 -17 0 -28 -4
-24 -10 3 -5 17 -10 31 -10 24 0 28 -8 24 -44 -1 -11 3 -17 12 -14 7 3 13 16
13 29 0 19 6 25 28 27 35 4 35 22 -1 22 -23 0 -28 5 -30 27 -2 30 -6 36 -15
26z"/>
<path d="M6405 4503 c4 -10 16 -44 27 -76 24 -70 43 -72 76 -7 24 47 26 91 5
98 -9 2 -13 -8 -13 -32 0 -34 -17 -86 -29 -86 -3 0 -15 27 -25 60 -12 37 -25
60 -34 60 -10 0 -12 -6 -7 -17z"/>
<path d="M7986 4505 c4 -8 10 -15 14 -15 19 0 19 -35 0 -55 -12 -13 -17 -26
-12 -29 5 -3 17 3 27 14 23 26 41 25 56 -1 8 -15 14 -18 22 -10 8 8 4 16 -13
31 l-23 20 23 25 c30 32 18 46 -13 17 l-24 -22 -23 20 c-27 24 -42 26 -34 5z"/>
<path d="M5866 4502 c-7 -11 -2 -40 9 -49 4 -4 5 -2 1 5 -4 7 -2 12 6 12 9 0
9 3 -2 10 -13 9 -13 11 0 20 9 6 10 10 3 10 -6 0 -14 -4 -17 -8z"/>
<path d="M6119 4444 c-15 -19 -16 -19 32 1 31 12 30 -24 -1 -46 -46 -35 -46
-49 0 -49 22 0 40 4 40 8 0 5 -15 7 -32 4 l-33 -4 34 29 c22 19 32 35 30 48
-5 26 -51 32 -70 9z"/>
<path d="M4710 4564 c0 -4 7 -12 16 -18 23 -18 21 -54 -9 -118 -20 -44 -23
-58 -13 -58 8 0 22 20 32 45 9 25 20 45 24 45 4 0 13 -18 20 -41 13 -40 26
-56 37 -46 6 7 -43 141 -63 175 -13 20 -44 31 -44 16z"/>
<path d="M5089 4432 c-16 -16 -15 -18 7 -35 19 -14 23 -15 18 -2 -5 13 5 15
62 15 37 0 65 2 62 6 -3 3 -34 5 -68 5 -49 1 -60 4 -56 15 7 19 -5 17 -25 -4z"/>
<path d="M11570 4650 c0 -82 -10 -91 -63 -60 -69 41 -92 0 -86 -149 3 -58 9
-85 21 -97 15 -15 19 -15 62 5 25 13 50 20 56 16 5 -3 10 -42 10 -86 l0 -79
380 0 380 0 0 260 0 260 -380 0 -380 0 0 -70z m740 -190 l0 -236 -360 0 -360
0 0 71 c0 43 -5 78 -13 89 -13 18 -15 17 -55 -3 -73 -37 -82 -27 -82 89 0 78
8 110 26 110 7 0 32 -10 55 -22 41 -21 42 -21 55 -3 8 11 14 44 14 80 l0 62
360 0 360 0 0 -237z"/>
<path d="M11735 4620 c-51 -9 -69 -48 -70 -153 -2 -98 10 -138 44 -157 12 -6
109 -10 243 -10 244 0 257 3 275 57 5 16 8 71 7 123 -2 88 -4 96 -29 117 -14
13 -31 23 -38 24 -75 3 -410 3 -432 -1z m460 -40 c15 -16 18 -38 19 -117 2
-150 15 -143 -263 -143 -278 0 -263 -8 -265 136 -3 151 -16 144 263 144 215 0
229 -1 246 -20z"/>
<path d="M11790 4469 c0 -76 3 -100 13 -96 6 2 12 13 12 24 0 37 16 39 44 4
15 -19 33 -32 40 -30 7 3 -1 19 -20 42 -33 40 -32 42 10 87 10 11 11 15 1 18
-7 3 -26 -12 -44 -32 l-32 -37 1 60 c0 43 -3 61 -12 61 -10 0 -13 -25 -13
-101z"/>
<path d="M4070 4562 c0 -4 9 -13 20 -20 25 -15 25 -42 1 -90 -27 -54 -34 -82
-21 -82 6 0 21 23 33 50 l23 51 18 -51 c10 -27 24 -50 32 -50 8 0 14 1 14 3 0
15 -73 183 -83 189 -15 10 -37 10 -37 0z"/>
<path d="M3810 4490 c0 -40 4 -70 10 -70 12 0 11 -7 16 73 4 55 2 67 -11 67
-12 0 -15 -14 -15 -70z"/>
<path d="M11171 4530 c-5 -16 -17 -30 -25 -30 -9 0 -16 -4 -16 -10 0 -5 7 -7
15 -4 8 4 15 2 15 -4 0 -22 -13 -42 -26 -42 -8 0 -14 -4 -14 -10 0 -5 6 -9 13
-7 8 1 11 -8 9 -28 -4 -33 13 -25 20 9 1 11 13 21 26 23 21 3 23 0 18 -27 -6
-40 10 -39 18 1 3 17 9 28 14 25 4 -2 14 -1 22 5 13 7 12 9 -2 9 -27 0 -23 39
5 50 19 7 19 9 3 9 -15 1 -17 6 -12 31 3 17 1 30 -3 30 -5 0 -12 -13 -16 -30
-5 -23 -12 -30 -31 -30 -21 0 -23 3 -17 30 3 17 3 30 0 30 -3 0 -10 -13 -16
-30z m47 -62 c-2 -15 -11 -24 -25 -26 -25 -4 -31 16 -11 36 20 20 40 14 36
-10z"/>
<path d="M3817 4393 c-12 -11 -8 -23 8 -23 8 0 15 7 15 15 0 16 -12 20 -23 8z"/>
<path d="M4060 3696 c0 -41 -4 -77 -8 -80 -5 -3 -21 4 -38 15 -35 23 -67 24
-84 3 -17 -19 -25 -157 -13 -203 13 -51 32 -58 85 -33 24 12 47 22 51 22 4 0
7 -81 7 -180 l0 -180 3300 0 3300 0 0 355 0 355 -3300 0 -3300 0 0 -74z m848
-5 c5 -81 1 -85 -55 -56 l-47 26 -20 -21 c-43 -42 -29 -260 16 -260 7 0 30 9
51 20 20 11 41 20 47 20 6 0 10 -63 10 -170 l0 -170 -414 0 -413 0 -1 172 c-1
205 -4 211 -76 172 -65 -34 -71 -26 -71 91 0 118 8 129 70 95 59 -32 74 -19
76 65 1 33 5 62 10 65 4 3 189 5 411 5 l403 0 3 -54z m5718 50 c9 -1 12 -92
12 -331 l0 -330 -2853 0 -2854 0 1 171 c0 205 -2 210 -77 174 -34 -17 -53 -21
-60 -14 -5 5 -10 52 -10 104 0 118 8 129 70 95 40 -22 46 -23 60 -9 11 10 16
35 16 75 1 32 2 61 4 64 2 4 5651 5 5691 1z"/>
<path d="M4221 3568 c-32 -9 -58 -39 -61 -73 -1 -11 -2 -60 -1 -108 1 -82 3
-90 27 -112 27 -25 28 -25 234 -25 268 0 269 0 265 183 -2 81 -4 91 -28 115
l-27 26 -188 1 c-104 0 -203 -3 -221 -7z m421 -36 c20 -20 22 -32 22 -121 0
-147 11 -141 -241 -141 -254 0 -243 -7 -243 143 0 86 3 106 18 119 26 23 28
23 232 23 182 -1 191 -2 212 -23z"/>
<path d="M4291 3490 c-2 -14 -2 -31 -1 -39 1 -8 -4 -18 -12 -22 -9 -6 -10 -11
-2 -16 5 -5 11 -26 13 -48 3 -56 11 -57 11 -2 0 62 20 61 22 0 1 -48 1 -48 5
-8 3 22 12 49 21 59 15 18 15 19 1 13 -14 -4 -17 2 -17 35 -1 22 -3 43 -6 46
-3 3 -6 -13 -6 -36 0 -55 -18 -54 -23 1 -2 25 -5 32 -6 17z"/>
<path d="M5970 3595 c0 -83 -4 -87 -56 -54 -65 40 -94 1 -94 -125 0 -115 34
-150 104 -107 18 11 36 18 39 14 4 -3 7 -44 7 -90 l0 -83 350 0 350 0 0 260 0
260 -350 0 -350 0 0 -75z m680 -179 c0 -178 -3 -235 -12 -238 -7 -2 -155 -4
-328 -3 l-315 0 -2 75 c-3 100 -16 114 -78 80 -62 -34 -70 -23 -70 95 0 52 5
99 10 104 8 7 25 3 57 -14 42 -23 48 -23 62 -9 15 15 20 54 16 117 l-2 27 331
0 331 0 0 -234z"/>
<path d="M6121 3568 c-40 -14 -51 -47 -51 -154 0 -56 3 -110 6 -119 15 -38 55
-45 252 -45 247 0 250 2 247 183 -2 81 -4 91 -28 115 l-27 26 -190 1 c-104 0
-198 -3 -209 -7z m411 -36 c20 -19 22 -32 22 -123 1 -143 8 -139 -235 -139
-238 0 -229 -6 -229 144 0 146 -8 141 234 141 178 -1 187 -2 208 -23z"/>
<path d="M6207 3513 c-4 -3 -7 -15 -7 -25 0 -10 -7 -18 -17 -18 -14 0 -15 -2
-1 -17 9 -11 15 -39 16 -71 0 -30 3 -56 6 -60 13 -12 20 12 18 68 -1 46 2 60
13 60 8 0 15 5 15 10 0 6 -7 10 -15 10 -8 0 -15 5 -15 10 0 6 7 13 15 16 8 4
15 10 15 15 0 10 -33 12 -43 2z"/>
<path d="M7300 3595 c0 -46 -4 -75 -11 -75 -5 0 -27 10 -48 22 -70 40 -95 3
-89 -134 2 -72 7 -91 23 -108 l20 -20 46 25 c26 13 49 21 53 18 3 -4 6 -44 6
-90 l0 -83 280 0 280 0 0 260 0 260 -280 0 -280 0 0 -75z m537 -182 l-2 -238
-255 0 -255 0 -3 77 c-4 99 -16 111 -78 78 -61 -34 -69 -23 -69 95 0 52 5 99
10 104 7 7 25 3 57 -14 42 -23 48 -23 62 -9 11 11 16 35 16 80 l0 64 260 0
260 0 -3 -237z"/>
<path d="M7534 3489 c-25 -28 -24 -121 1 -149 24 -26 67 -25 91 1 26 29 26
119 0 148 -24 27 -68 27 -92 0z m76 -18 c15 -30 12 -97 -6 -115 -34 -35 -64
-7 -64 59 0 46 15 75 40 75 11 0 24 -9 30 -19z"/>
<path d="M8499 3668 c-1 -2 -2 -33 -4 -71 -1 -37 -5 -70 -8 -74 -4 -3 -27 5
-52 18 l-46 24 -19 -23 c-37 -45 -38 -198 -2 -242 l17 -20 53 25 52 24 1 -27
c1 -15 2 -54 3 -87 l1 -60 388 -3 387 -2 0 260 0 260 -385 0 c-212 0 -385 -1
-386 -2z m751 -253 c0 -129 -3 -236 -7 -236 -33 -5 -716 -3 -719 2 -2 4 -5 39
-7 78 -5 94 -13 101 -77 71 -27 -13 -53 -21 -56 -17 -22 22 -25 187 -4 213 9
10 20 8 58 -12 41 -22 47 -23 61 -9 10 9 16 38 18 77 1 35 2 64 3 66 0 1 164
2 365 2 l365 0 0 -235z"/>
<path d="M8661 3569 c-58 -12 -66 -28 -69 -149 l-4 -110 30 -30 30 -30 236 0
c234 0 235 0 263 24 27 23 28 27 29 127 2 175 6 172 -272 174 -116 0 -225 -2
-243 -6z m455 -22 c32 -11 41 -44 40 -144 -2 -140 12 -133 -272 -133 l-233 0
-20 26 c-18 22 -21 41 -21 115 0 103 4 118 40 133 30 12 429 15 466 3z"/>
<path d="M8732 3458 c-16 -16 -15 -28 3 -28 8 0 15 5 15 10 0 20 48 11 53 -10
4 -17 0 -20 -27 -20 -43 0 -69 -20 -64 -50 5 -33 31 -47 66 -34 19 7 33 8 44
0 21 -13 36 0 20 16 -7 7 -12 33 -12 60 0 37 -4 50 -19 58 -26 14 -64 13 -79
-2z m71 -74 c12 -13 -14 -44 -37 -44 -27 0 -40 22 -23 39 12 12 50 15 60 5z"/>
<path d="M9910 3601 c0 -39 -4 -73 -10 -76 -5 -3 -27 4 -48 16 -68 39 -92 8
-93 -120 -1 -85 14 -131 43 -131 10 0 36 9 57 20 48 24 51 19 51 -86 l0 -74
280 0 280 0 0 260 0 260 -280 0 -280 0 0 -69z m537 -186 c0 -129 -3 -236 -6
-236 -3 -1 -120 -2 -259 -3 l-252 -1 0 76 c0 100 -13 113 -77 79 -44 -23 -46
-24 -59 -5 -17 23 -19 167 -3 196 10 20 11 20 52 -3 70 -39 87 -24 87 80 l0
52 258 0 258 0 1 -235z"/>
<path d="M10154 3502 c-49 -32 -43 -162 8 -178 30 -9 66 4 79 28 17 32 14 103
-5 133 -16 25 -57 34 -82 17z m54 -20 c32 -21 25 -127 -9 -137 -32 -10 -51 15
-51 69 0 64 24 90 60 68z"/>
<path d="M6919 3510 c-1 -5 -3 -14 -4 -20 -1 -5 -3 -14 -4 -19 0 -5 -10 -12
-21 -16 -41 -13 -35 -116 8 -133 10 -4 18 -17 18 -31 0 -14 5 -26 12 -29 8 -2
12 7 12 26 0 22 6 32 21 37 45 15 48 95 4 130 -14 12 -25 31 -25 43 0 21 -19
32 -21 12z m-5 -117 c-3 -58 -4 -59 -18 -40 -12 16 -12 35 0 75 8 26 20 2 18
-35z m52 22 c7 -30 -2 -75 -16 -75 -6 0 -10 23 -10 50 0 53 15 67 26 25z"/>
<path d="M5155 3443 c-10 -24 -12 -40 -6 -46 10 -10 31 28 31 54 0 6 6 9 12 7
7 -3 19 -28 28 -58 18 -61 41 -83 65 -59 22 22 37 79 21 79 -8 0 -16 -13 -19
-30 -10 -46 -33 -37 -47 17 -14 56 -26 73 -51 73 -12 0 -24 -13 -34 -37z"/>
<path d="M9527 3473 c-4 -3 -7 -17 -7 -30 0 -19 -5 -23 -31 -23 -17 0 -28 -4
-24 -10 3 -5 17 -10 31 -10 24 0 28 -8 24 -44 -1 -11 3 -17 12 -14 7 3 13 11
14 19 2 35 5 39 29 39 14 0 25 5 25 10 0 6 -14 10 -31 10 -26 0 -30 3 -26 19
5 21 -6 45 -16 34z"/>
<path d="M5545 3449 c24 -76 48 -129 60 -129 27 0 71 102 59 134 -11 28 -21
17 -26 -29 -3 -25 -11 -52 -19 -61 -11 -13 -15 -8 -33 42 -12 32 -27 59 -35
62 -10 3 -11 -2 -6 -19z"/>
<path d="M8060 3463 c0 -4 9 -17 21 -29 l21 -22 -21 -21 c-28 -28 -17 -47 11
-21 27 25 31 25 53 0 10 -11 22 -17 27 -14 5 3 -1 17 -13 30 l-22 24 22 24
c13 14 18 26 12 30 -5 4 -18 -3 -29 -14 l-19 -20 -25 20 c-27 21 -38 25 -38
13z"/>
<path d="M11299 3663 c-2 -11 -6 -71 -8 -110 -1 -38 -15 -41 -51 -13 -34 26
-56 25 -76 -5 -23 -35 -30 -149 -12 -200 16 -49 40 -55 97 -25 l41 20 1 -22
c1 -13 2 -52 3 -88 l1 -65 280 0 280 0 0 255 0 255 -277 3 c-153 1 -279 -1
-279 -5z m532 -25 c0 -7 1 -113 2 -236 2 -191 0 -222 -13 -223 -47 -4 -500 -3
-500 1 -1 3 -2 38 -4 78 -4 95 -12 102 -76 72 -27 -13 -53 -21 -56 -17 -22 22
-26 186 -4 212 10 13 18 11 58 -10 66 -35 76 -20 81 113 l1 22 255 0 c197 0
255 -3 256 -12z"/>
<path d="M11541 3491 c-15 -11 -20 -21 -13 -25 6 -3 13 -2 17 4 15 25 23 5 22
-60 0 -67 -1 -70 -24 -70 -12 0 -23 -4 -23 -10 0 -6 27 -10 60 -10 33 0 60 4
60 10 0 6 -11 10 -24 10 -23 0 -23 2 -23 82 1 91 -8 103 -52 69z"/>
<path d="M12490 3601 c0 -39 -5 -73 -10 -76 -6 -4 -26 3 -45 15 -66 41 -95 5
-95 -118 0 -122 28 -154 100 -113 20 11 40 18 44 14 3 -3 6 -44 6 -90 l0 -83
280 0 280 0 0 260 0 260 -280 0 -280 0 0 -69z m540 -185 c0 -178 -3 -235 -12
-238 -7 -2 -123 -4 -258 -3 l-245 0 -3 77 c-4 100 -16 112 -79 78 -45 -24 -46
-24 -60 -5 -10 14 -13 44 -12 100 2 117 13 129 79 85 49 -33 70 -10 70 78 l0
62 260 0 260 0 0 -234z"/>
<path d="M12724 3489 c-26 -29 -26 -120 1 -149 23 -26 67 -26 90 0 27 30 28
113 3 145 -24 31 -68 33 -94 4z m76 -18 c5 -11 10 -36 10 -56 0 -46 -15 -75
-40 -75 -25 0 -40 29 -40 75 0 46 15 75 40 75 11 0 24 -9 30 -19z"/>
<path d="M3439 3488 c-1 -60 -1 -95 0 -158 l1 -50 47 0 c25 0 43 3 39 8 -4 4
-13 7 -19 7 -8 0 -12 33 -13 109 0 100 1 109 20 116 22 9 19 10 -42 13 -32 2
-32 2 -33 -45z m40 -83 c1 -96 -1 -114 -13 -109 -21 8 -23 224 -2 224 11 0 14
-23 15 -115z"/>
<path d="M3665 3521 c18 -7 20 -18 21 -112 0 -95 -2 -105 -20 -116 -19 -11
-16 -12 26 -13 l46 0 4 68 c2 37 2 93 0 125 l-3 57 -47 -1 c-33 0 -41 -3 -27
-8z m57 -13 c3 -7 5 -57 4 -111 -1 -138 -20 -130 -24 11 -1 64 1 112 7 112 5
0 11 -6 13 -12z"/>
<path d="M3043 3479 c-18 -11 -33 -22 -33 -23 0 0 -4 -16 -9 -34 -6 -20 -6
-32 0 -32 5 0 9 7 9 16 0 29 56 74 93 74 40 0 87 -38 87 -70 0 -11 5 -20 11
-20 7 0 9 10 4 28 -17 69 -101 102 -162 61z"/>
<path d="M12105 3468 c-3 -8 -5 -21 -3 -29 2 -9 -8 -15 -30 -17 -37 -4 -34
-22 4 -22 22 0 31 -17 25 -52 0 -5 4 -8 9 -8 6 0 11 7 11 15 1 8 2 21 3 28 0
6 13 13 29 15 34 4 36 22 2 22 -14 0 -25 3 -26 8 -4 44 -16 62 -24 40z"/>
<path d="M10860 3463 c0 -4 10 -17 22 -30 l22 -23 -22 -21 c-13 -11 -20 -25
-16 -30 4 -6 14 -2 25 10 24 26 31 26 54 1 10 -11 22 -17 27 -14 5 3 0 16 -12
29 -22 23 -19 49 6 59 15 6 20 26 6 26 -5 0 -18 -9 -31 -21 l-22 -21 -23 21
c-23 21 -36 27 -36 14z"/>
<path d="M3577 3404 c-8 -8 1 -24 13 -24 4 0 10 7 14 15 5 15 -14 21 -27 9z"/>
<path d="M324 2498 c-38 -18 -48 -52 -47 -157 1 -54 6 -108 12 -120 20 -37 71
-43 344 -39 l259 3 24 28 c22 25 24 37 24 122 0 176 6 173 -335 173 -155 0
-269 -4 -281 -10z m577 -37 c16 -19 19 -40 19 -118 0 -86 -2 -96 -25 -118
l-24 -25 -266 0 c-252 0 -266 1 -285 20 -11 11 -20 32 -21 48 -4 167 1 199 34
212 12 4 141 8 285 7 l264 -2 19 -24z"/>
<path d="M400 2323 c0 -57 3 -73 14 -73 11 0 15 14 15 55 0 63 5 75 32 75 22
0 21 2 24 -68 2 -29 5 -56 9 -59 12 -12 19 8 18 50 -2 50 17 83 42 74 12 -5
16 -20 16 -67 0 -47 3 -60 15 -60 12 0 15 12 14 58 -1 31 -6 65 -11 75 -10 19
-48 23 -66 5 -8 -8 -15 -8 -24 -1 -7 6 -32 10 -55 10 l-43 -2 0 -72z"/>
<path d="M1056 2383 c-12 -12 -6 -33 9 -33 8 0 15 6 15 14 0 17 -14 28 -24 19z"/>
<path d="M1103 2368 c2 -9 28 -13 78 -13 80 -1 99 2 99 16 0 5 -41 9 -91 9
-68 0 -90 -3 -86 -12z"/>
<path d="M1050 2310 c0 -11 7 -20 15 -20 8 0 15 9 15 20 0 11 -7 20 -15 20 -8
0 -15 -9 -15 -20z"/>
<path d="M1100 2311 c0 -11 65 -17 133 -13 82 6 51 22 -43 22 -50 0 -90 -4
-90 -9z"/>
<path d="M1940 2826 c0 -97 -3 -100 -60 -68 -47 26 -50 26 -67 9 -25 -25 -27
-228 -2 -253 15 -15 20 -14 64 5 26 11 51 18 56 15 5 -3 9 -167 9 -370 l0
-364 4625 0 4625 0 0 545 0 545 -4625 0 -4625 0 0 -64z m9230 -481 l0 -525
-4605 0 -4605 0 0 358 c0 413 0 413 -68 374 -71 -40 -82 -28 -82 88 0 116 11
128 82 88 39 -22 40 -22 54 -3 9 11 14 43 14 82 l0 63 4605 0 4605 0 0 -525z"/>
<path d="M2844 2791 c-2 -2 -4 -37 -4 -78 0 -40 -3 -73 -7 -73 -5 0 -23 9 -41
20 -70 43 -92 22 -99 -92 -4 -62 -1 -92 10 -120 18 -43 32 -46 87 -18 22 11
42 20 45 20 3 0 5 -125 5 -278 l0 -277 3385 0 3385 0 -2 450 -3 450 -3378 0
c-1858 0 -3381 -2 -3383 -4z m6744 -448 l-3 -427 -3361 -1 -3361 0 -1 267 c0
146 -3 271 -7 277 -10 17 -37 13 -70 -9 -41 -27 -52 -25 -64 13 -18 57 -6 197
17 197 4 0 25 -10 48 -22 60 -31 74 -22 75 54 1 35 1 66 0 71 0 4 1513 7 3364
7 l3365 0 -2 -427z"/>
<path d="M3950 2636 c0 -97 -2 -99 -62 -68 l-50 26 -19 -23 c-33 -40 -28 -223
6 -251 12 -10 24 -8 59 10 25 12 50 19 56 15 6 -4 10 -72 10 -181 l0 -174
2735 0 2735 0 0 355 0 355 -2735 0 -2735 0 0 -64z m5450 -293 l0 -333 -2715 0
-2715 0 0 168 c0 126 -3 173 -14 187 -13 18 -15 18 -65 -8 l-51 -27 -10 25
c-11 29 -14 164 -4 189 8 22 28 20 75 -6 39 -23 40 -23 54 -4 9 12 15 43 15
81 l0 62 2715 0 2715 0 0 -334z"/>
<path d="M4984 2601 c-2 -2 -4 -37 -4 -78 0 -80 -5 -85 -51 -52 -41 29 -71 22
-86 -21 -25 -72 -10 -214 24 -227 8 -3 35 4 60 16 25 12 47 21 48 19 2 -2 5
-41 7 -88 l3 -85 278 0 277 -1 1 26 c4 131 1 482 -5 488 -8 7 -544 11 -552 3z
m536 -256 l0 -235 -258 0 -258 0 0 53 c-2 96 -4 108 -21 114 -9 4 -35 -4 -60
-17 -24 -13 -46 -21 -48 -18 -21 21 -28 153 -11 206 9 27 23 28 56 2 31 -24
68 -26 77 -3 4 10 7 44 7 75 l1 58 257 0 258 0 0 -235z"/>
<path d="M5220 2422 c-28 -23 -32 -107 -6 -146 16 -26 57 -35 82 -18 32 21 43
87 23 139 -18 47 -59 57 -99 25z m70 -17 c17 -20 15 -104 -3 -122 -19 -20 -53
-9 -61 20 -21 79 23 151 64 102z"/>
<path d="M6131 2600 c-4 -3 -7 -36 -8 -73 0 -38 -3 -71 -6 -74 -3 -3 -21 4
-40 16 -74 46 -102 11 -101 -124 0 -123 21 -145 98 -104 21 11 40 18 43 15 3
-2 6 -41 6 -85 1 -48 5 -82 12 -82 5 -1 166 -2 358 -3 l347 -1 0 260 0 260
-351 0 c-193 0 -354 -2 -358 -5z m689 -255 l0 -235 -337 2 -336 3 -2 70 c0 39
-4 76 -9 83 -11 18 -37 15 -71 -8 -40 -27 -53 -25 -62 8 -14 58 -8 181 11 200
3 2 23 -5 46 -17 70 -36 82 -29 86 58 1 31 3 59 3 64 1 4 152 7 336 7 l335 0
0 -235z"/>
<path d="M6371 2421 c-14 -11 -20 -21 -13 -25 6 -3 13 -2 17 4 15 24 22 5 21
-57 -1 -63 -3 -68 -23 -71 -47 -7 -21 -22 37 -22 58 0 84 15 38 22 -21 3 -23
8 -25 78 -1 41 -2 78 -2 83 -2 13 -25 7 -50 -12z"/>
<path d="M6518 2426 c-10 -7 -18 -18 -18 -25 0 -17 27 -13 34 5 9 25 50 14 54
-15 3 -19 -8 -35 -48 -72 -29 -26 -49 -52 -45 -58 8 -14 122 -14 130 -1 4 6
-13 10 -44 10 -28 0 -51 3 -51 6 0 4 20 25 45 48 47 45 56 74 29 100 -19 19
-63 20 -86 2z"/>
<path d="M7482 2595 c-4 -5 -7 -38 -7 -72 -1 -35 -4 -65 -8 -69 -3 -3 -21 3
-40 15 -45 28 -63 27 -84 -6 -14 -21 -18 -47 -17 -112 1 -129 26 -156 101
-110 19 12 37 19 40 16 3 -3 6 -41 7 -84 0 -43 4 -80 8 -83 5 -4 508 -5 544
-1 12 1 16 510 5 512 -3 1 -127 2 -274 3 -172 1 -271 -2 -275 -9z m532 -250
l0 -230 -257 -3 -257 -2 0 59 c0 70 -13 111 -35 111 -9 0 -34 -10 -56 -22 -55
-32 -60 -23 -61 102 -2 108 7 122 60 92 22 -12 47 -22 56 -22 15 0 38 31 35
47 -1 4 -1 29 0 56 l1 47 257 -2 257 -3 0 -230z"/>
<path d="M7721 2421 c-14 -11 -20 -21 -13 -25 6 -3 13 -2 17 4 14 23 20 6 22
-60 3 -69 2 -70 -22 -70 -14 0 -25 -4 -25 -10 0 -6 27 -10 60 -10 58 0 84 15
38 22 -21 3 -23 9 -25 73 -2 97 -2 95 -15 95 -7 0 -24 -9 -37 -19z"/>
<path d="M8680 2602 c-6 -2 -10 -36 -10 -78 0 -81 -7 -88 -50 -54 -63 49 -100
7 -100 -114 0 -126 22 -154 95 -118 24 11 46 18 49 15 3 -4 6 -42 6 -85 0 -43
3 -79 8 -79 21 -4 529 -5 540 -1 9 3 12 64 12 258 0 140 -3 255 -7 255 -19 3
-534 4 -543 1z m530 -257 l0 -235 -260 0 -260 0 0 69 c0 109 -8 118 -82 80
-56 -29 -63 -18 -63 96 0 114 8 127 60 96 69 -41 86 -26 86 74 l0 55 260 0
259 0 0 -235z"/>
<path d="M8904 2419 c-26 -28 -25 -120 1 -149 23 -26 67 -26 90 0 27 29 27
120 1 149 -24 27 -68 27 -92 0z m76 -18 c5 -11 10 -36 10 -56 0 -46 -15 -75
-40 -75 -25 0 -40 29 -40 75 0 46 15 75 40 75 11 0 24 -9 30 -19z"/>
<path d="M4604 2338 l1 -123 28 -3 c15 -2 27 1 27 7 0 6 -7 11 -15 11 -12 0
-15 19 -15 115 0 89 -3 115 -13 115 -10 0 -13 -27 -13 -122z"/>
<path d="M5750 2450 c0 -5 7 -10 15 -10 12 0 15 -19 15 -115 0 -96 3 -115 15
-115 13 0 15 21 15 125 l0 125 -30 0 c-16 0 -30 -4 -30 -10z"/>
<path d="M4199 2427 c11 -11 -27 -159 -43 -169 -6 -4 3 -8 19 -8 28 0 30 3 32
38 1 20 10 62 20 93 l19 57 -27 -2 c-16 0 -24 -5 -20 -9z"/>
<path d="M8289 2396 c-1 -9 -2 -22 -3 -28 0 -7 -13 -14 -28 -16 -37 -4 -36
-22 1 -22 26 0 28 -3 26 -30 -2 -20 2 -30 11 -30 9 0 14 11 14 30 0 27 3 30
31 30 17 0 28 4 24 10 -3 6 -17 10 -31 10 -19 0 -24 5 -24 24 0 27 -19 47 -21
22z"/>
<path d="M7040 2392 c0 -4 9 -14 20 -22 25 -18 25 -32 0 -55 -11 -10 -17 -22
-14 -27 3 -5 16 0 28 11 28 27 40 26 58 -1 9 -13 17 -17 21 -11 3 5 -3 20 -14
32 l-21 22 23 25 c29 31 17 45 -14 16 l-24 -22 -23 20 c-24 21 -40 26 -40 12z"/>
<path d="M4308 2373 l62 -4 0 -54 0 -55 -56 0 c-47 0 -55 3 -50 16 3 8 2 12
-4 9 -6 -3 -10 -13 -10 -21 0 -11 15 -14 65 -14 l65 0 0 65 0 65 -67 -2 -68
-2 63 -3z"/>
<path d="M4280 2350 c0 -5 5 -10 10 -10 6 0 10 5 10 10 0 6 -4 10 -10 10 -5 0
-10 -4 -10 -10z"/>
<path d="M4250 2330 c0 -5 5 -10 10 -10 6 0 10 5 10 10 0 6 -4 10 -10 10 -5 0
-10 -4 -10 -10z"/>
<path d="M4340 2286 c0 -9 5 -16 10 -16 6 0 10 4 10 9 0 6 -4 13 -10 16 -5 3
-10 -1 -10 -9z"/>
<path d="M3065 2440 c-3 -5 0 -10 8 -10 7 0 19 -11 25 -24 9 -20 6 -35 -19
-86 -33 -71 -33 -70 -16 -70 6 0 20 20 30 45 11 25 22 43 26 40 4 -2 13 -22
21 -44 7 -23 19 -41 27 -41 7 0 13 2 13 4 0 11 -64 172 -73 184 -11 15 -33 16
-42 2z"/>
<path d="M3447 2312 c-17 -18 -17 -20 7 -36 22 -14 25 -14 20 -1 -5 12 5 15
62 15 82 0 81 8 -1 12 -39 2 -62 7 -65 16 -4 10 -10 9 -23 -6z"/>
<path d="M10240 2533 c0 -39 -4 -74 -9 -77 -5 -3 -26 4 -48 16 -69 38 -93 8
-93 -117 0 -126 22 -153 96 -116 53 25 53 25 56 -79 l3 -75 375 0 375 0 3 260
2 260 -380 0 -380 0 0 -72z m740 -188 l0 -235 -360 0 -360 0 0 69 c0 38 -3 76
-6 85 -8 22 -36 20 -80 -6 -36 -21 -37 -21 -51 -2 -17 23 -15 186 3 204 9 9
22 6 53 -12 59 -34 75 -20 79 66 l3 66 359 0 360 0 0 -235z"/>
<path d="M10389 2499 c-39 -14 -49 -44 -51 -149 -3 -171 -4 -170 282 -170 285
0 288 2 285 175 -2 104 -12 129 -57 143 -41 13 -424 13 -459 1z m463 -23 c24
-11 31 -39 33 -131 1 -89 -12 -129 -47 -139 -42 -11 -416 -7 -442 5 -34 16
-38 30 -37 136 1 105 4 117 34 130 26 12 433 11 459 -1z"/>
<path d="M10460 2351 c0 -79 3 -101 14 -101 8 0 14 11 14 25 0 40 11 42 40 7
40 -49 60 -40 23 10 l-31 42 32 33 c25 26 28 33 14 33 -9 0 -29 -13 -43 -30
-13 -16 -28 -30 -31 -30 -4 0 -7 23 -7 52 0 32 -5 53 -12 55 -10 4 -13 -20
-13 -96z"/>
<path d="M2430 2440 c0 -5 5 -10 10 -10 6 0 16 -12 22 -26 10 -20 9 -31 -4
-57 -47 -91 -49 -97 -35 -97 7 0 24 23 37 50 l24 51 19 -51 c10 -27 24 -50 32
-50 14 0 -39 153 -64 183 -15 19 -41 23 -41 7z"/>
<path d="M2168 2433 c-2 -5 -3 -26 -2 -48 1 -22 3 -50 3 -62 1 -13 6 -23 11
-23 6 0 10 30 10 70 0 39 -4 70 -9 70 -6 0 -11 -3 -13 -7z"/>
<path d="M9847 2433 c-4 -3 -7 -17 -7 -30 0 -16 -6 -23 -20 -23 -11 0 -20 -5
-20 -11 0 -5 4 -8 9 -4 5 3 12 1 15 -4 10 -15 -5 -41 -23 -42 -10 0 -11 -2 -3
-6 6 -2 12 -18 12 -34 0 -18 4 -28 10 -24 6 3 10 17 10 29 0 19 5 24 26 24 23
0 25 -3 20 -29 -7 -39 11 -37 19 1 4 17 10 28 14 26 4 -3 13 -1 21 5 12 7 10
9 -7 9 -34 0 -27 26 12 48 19 11 19 11 1 12 -15 0 -17 6 -14 30 3 17 1 30 -3
30 -4 0 -10 -13 -14 -30 -5 -23 -12 -30 -31 -30 -21 0 -23 3 -17 30 5 30 3 36
-10 23z m41 -88 c-3 -20 -48 -36 -48 -17 0 24 13 41 31 39 14 -1 19 -7 17 -22z"/>
<path d="M2167 2274 c-8 -8 1 -24 14 -24 5 0 9 7 9 15 0 15 -12 20 -23 9z"/>
<path d="M12052 2600 c-4 -3 -7 -35 -8 -72 0 -37 -3 -70 -6 -74 -4 -3 -22 3
-41 15 -45 28 -63 27 -84 -5 -12 -20 -17 -48 -18 -109 0 -128 28 -160 102
-114 19 12 37 18 41 15 3 -4 6 -41 7 -84 0 -42 3 -79 7 -82 3 -3 163 -5 355
-5 l348 0 0 260 0 260 -348 0 c-192 0 -352 -2 -355 -5z m688 -255 l0 -235
-335 0 -335 0 0 59 c0 69 -13 111 -35 111 -8 0 -29 -9 -47 -20 -18 -11 -39
-20 -45 -20 -18 0 -27 45 -26 129 2 99 14 110 75 76 41 -23 47 -24 59 -9 7 9
15 45 17 80 l4 64 334 0 334 0 0 -235z"/>
<path d="M12300 2380 c-60 -88 -60 -90 -6 -90 43 0 51 -6 47 -32 0 -5 6 -8 14
-8 8 0 15 9 15 20 0 12 7 20 18 20 16 1 16 1 0 14 -14 10 -18 28 -18 75 0 80
-16 80 -70 1z m45 -44 c-1 -16 -9 -22 -35 -24 -27 -3 -32 -1 -24 10 6 7 19 26
29 43 16 26 19 27 25 10 3 -10 6 -28 5 -39z"/>
<path d="M12436 2424 c-19 -18 -21 -45 -4 -62 9 -9 8 -16 -4 -29 -31 -35 -1
-83 52 -83 51 0 85 53 54 85 -12 12 -14 19 -5 28 17 17 13 55 -8 67 -29 15
-67 12 -85 -6z m72 -31 c-3 -32 -44 -46 -54 -19 -10 26 4 46 31 46 23 0 26 -4
23 -27z m1 -62 c9 -6 11 -18 7 -35 -11 -43 -76 -30 -76 15 0 26 41 38 69 20z"/>
<path d="M11314 2498 c-12 -5 -27 -21 -35 -34 -17 -33 -19 -201 -3 -235 23
-46 51 -50 302 -47 292 4 277 -5 277 163 0 169 16 160 -283 162 -144 1 -245
-3 -258 -9z m499 -29 c19 -15 22 -29 24 -118 3 -97 2 -103 -21 -126 l-25 -25
-228 0 c-285 1 -276 -4 -278 126 0 49 3 100 7 113 17 47 28 49 272 48 199 -1
231 -3 249 -18z"/>
<path d="M11449 2406 c-1 -3 -3 -10 -4 -16 -1 -5 -3 -17 -4 -25 -1 -10 -12
-15 -32 -15 -17 0 -28 -4 -24 -10 3 -5 17 -10 31 -10 23 0 29 -12 25 -49 -2
-7 4 -11 11 -9 7 3 13 17 12 31 0 23 4 27 28 27 15 0 28 5 28 10 0 6 -13 10
-29 10 -26 0 -29 3 -25 24 2 14 0 28 -6 31 -5 3 -11 4 -11 1z"/>
<path d="M410 930 c0 -58 3 -80 13 -79 28 1 162 66 162 78 0 9 -151 81 -172
81 -2 0 -3 -36 -3 -80z m81 23 c27 -10 49 -21 49 -25 0 -7 -92 -44 -99 -40 -6
2 -8 82 -2 82 2 0 25 -8 52 -17z"/>
<path d="M1092 1084 c-39 -16 -49 -50 -47 -167 2 -147 -10 -141 273 -145 125
-2 242 0 260 3 50 9 65 41 67 148 2 107 -7 143 -44 161 -35 18 -466 18 -509 0z
m500 -12 c22 -5 35 -63 33 -151 -3 -137 10 -131 -280 -131 -290 0 -278 -6
-280 131 -2 106 7 134 44 147 20 7 452 10 483 4z"/>
<path d="M1170 1017 c0 -7 14 -26 30 -42 17 -16 30 -32 30 -36 0 -3 -16 -24
-35 -45 -19 -21 -35 -42 -35 -46 0 -4 34 -8 75 -8 87 0 102 18 19 22 l-56 3
31 35 c17 19 31 37 31 40 0 3 -14 20 -31 38 l-30 32 56 0 c35 0 54 4 50 10
-10 16 -135 13 -135 -3z"/>
<path d="M2030 747 c-50 -13 -60 -39 -60 -160 0 -101 2 -109 25 -132 l24 -25
281 0 281 0 24 26 c23 25 25 34 25 136 0 102 -1 110 -25 133 -13 14 -30 25
-37 26 -83 5 -515 2 -538 -4z m562 -37 c15 -18 18 -41 18 -121 0 -148 20 -139
-310 -139 -330 0 -310 -9 -310 136 0 100 9 130 40 142 10 4 137 6 282 5 257
-1 263 -2 280 -23z"/>
<path d="M2235 639 c-4 -5 -37 -9 -76 -9 -38 0 -69 -4 -69 -8 0 -5 33 -9 73
-10 92 -1 96 -2 73 -11 -11 -4 -45 -6 -77 -5 -32 2 -61 -1 -64 -7 -4 -5 29 -9
82 -9 60 0 83 -3 73 -10 -8 -5 -48 -10 -87 -10 -40 0 -73 -4 -73 -8 0 -5 31
-9 69 -9 39 -1 74 -4 79 -7 5 -3 21 8 37 24 l27 28 -31 31 c-17 16 -33 26 -36
20z"/>
<path d="M4143 1560 c0 -39 -3 -74 -7 -77 -3 -4 -24 4 -46 16 -74 42 -95 14
-94 -124 0 -124 23 -146 104 -105 l40 20 1 -27 c1 -16 2 -55 3 -88 l1 -60 428
-2 427 -3 0 260 0 260 -428 0 -429 0 0 -70z m835 -185 c1 -214 -1 -235 -16
-236 -94 -7 -785 -2 -790 5 -3 6 -6 35 -8 65 -3 89 -3 91 -19 98 -9 3 -36 -5
-60 -18 -61 -32 -68 -22 -69 90 0 118 8 129 74 96 43 -22 49 -23 61 -9 8 10
13 43 14 80 l0 64 406 0 406 0 1 -235z"/>
<path d="M4302 1528 c-52 -14 -62 -39 -62 -156 0 -101 1 -104 29 -133 l29 -29
275 0 274 0 27 25 c28 26 29 32 26 175 -1 65 -4 78 -25 100 l-25 24 -258 1
c-143 0 -273 -3 -290 -7z m558 -33 c17 -17 20 -35 21 -125 2 -149 22 -140
-311 -140 l-269 0 -20 26 c-18 23 -21 41 -21 118 0 103 12 133 58 138 15 2
138 3 275 3 232 -1 248 -2 267 -20z"/>
<path d="M4366 1360 c1 -64 7 -90 18 -79 3 2 6 28 7 57 3 55 18 78 44 68 11
-4 15 -21 15 -66 0 -44 4 -60 14 -60 9 0 14 16 15 56 1 65 5 74 31 74 21 0 35
-46 26 -86 -5 -24 9 -52 20 -41 8 8 7 101 -2 130 -6 19 -53 24 -71 6 -8 -8
-13 -8 -17 0 -9 15 -49 14 -64 -1 -9 -9 -12 -9 -12 0 0 7 -6 12 -13 12 -9 0
-12 -20 -11 -70z"/>
<path d="M5220 1555 c0 -41 -3 -75 -7 -75 -5 0 -27 10 -50 22 l-43 23 -21 -22
c-28 -28 -38 -147 -17 -208 16 -49 40 -55 97 -25 l41 20 1 -52 c0 -29 1 -69 2
-88 l2 -35 878 -2 877 -2 0 259 0 260 -880 0 -880 0 0 -75z m910 3 c0 -76 -9
-86 -55 -60 -47 28 -61 28 -81 -4 -13 -19 -17 -48 -17 -110 0 -130 22 -155
102 -114 34 17 40 18 45 4 9 -23 7 -134 -1 -135 -36 -6 -873 -2 -874 4 -1 6
-3 30 -8 132 -2 36 -26 41 -71 16 -50 -28 -58 -27 -68 12 -12 44 -7 164 8 182
10 12 19 11 60 -10 43 -22 49 -23 61 -9 7 9 14 43 15 77 1 34 2 63 3 65 0 1
199 2 441 2 l440 0 0 -52z m828 -185 l-3 -238 -400 0 -400 1 -5 76 c-6 99 -17
110 -73 80 -51 -27 -63 -27 -72 -5 -10 28 -7 171 5 193 l11 20 39 -20 c75 -38
90 -25 90 78 l0 52 405 0 405 0 -2 -237z"/>
<path d="M5388 1532 c-52 -6 -68 -43 -68 -153 0 -54 5 -109 11 -123 20 -43 49
-47 296 -44 l231 3 21 25 c18 22 20 39 21 133 0 101 -1 109 -25 132 -13 14
-30 26 -37 26 -32 3 -426 4 -450 1z m473 -41 c16 -19 19 -40 19 -122 0 -146
14 -139 -267 -139 -188 1 -232 3 -248 16 -17 13 -20 29 -23 113 -4 104 4 137
38 149 10 4 119 7 241 7 219 -1 222 -1 240 -24z"/>
<path d="M5458 1419 c-22 -13 -23 -43 -2 -64 14 -14 15 -18 2 -33 -26 -30 -30
-42 -14 -42 8 0 23 14 33 30 9 17 25 30 35 30 13 0 18 -8 18 -30 0 -19 5 -30
14 -30 10 0 13 19 14 75 l1 75 -42 0 c-23 0 -50 -5 -59 -11z m72 -34 c0 -20
-5 -25 -24 -25 -14 0 -28 5 -31 10 -12 19 4 40 30 40 20 0 25 -5 25 -25z"/>
<path d="M6293 1532 c-12 -2 -33 -16 -46 -31 -22 -27 -24 -37 -23 -136 1 -104
2 -108 29 -131 l28 -24 270 0 c175 0 277 4 291 11 31 17 45 66 43 159 -2 159
9 154 -315 155 -140 0 -265 -1 -277 -3z m534 -26 c30 -10 36 -35 38 -141 1
-81 -2 -92 -22 -112 -22 -23 -26 -23 -286 -23 -328 0 -311 -7 -313 132 -2 102
13 145 50 150 45 6 512 2 533 -6z"/>
<path d="M6350 1354 c0 -53 3 -75 12 -72 6 2 12 28 14 57 3 61 16 81 42 65 13
-9 17 -24 16 -68 -1 -41 3 -56 13 -56 9 0 13 15 13 53 0 60 10 80 36 75 16 -3
20 -14 22 -66 3 -58 13 -79 25 -49 6 16 0 114 -8 127 -8 13 -41 13 -65 0 -13
-7 -21 -7 -25 0 -9 14 -48 13 -63 -2 -9 -9 -12 -9 -12 0 0 7 -4 12 -10 12 -6
0 -10 -32 -10 -76z"/>
<path d="M3170 1537 c0 -10 15 -13 64 -11 73 2 110 -12 114 -44 2 -12 8 -22
13 -22 16 0 9 27 -14 52 -20 21 -33 25 -92 27 -38 1 -72 4 -77 7 -4 3 -8 -1
-8 -9z"/>
<path d="M3077 1512 c-22 -24 -34 -102 -15 -102 5 0 9 10 8 23 -5 54 19 96 51
92 9 -2 23 1 30 6 10 6 4 8 -19 7 -19 -1 -42 -12 -55 -26z"/>
<path d="M3605 1491 c-3 -2 -5 -60 -5 -128 l0 -123 46 0 c28 0 43 4 39 10 -4
6 -11 8 -16 5 -11 -7 -11 -6 -13 119 -1 90 0 99 19 107 14 5 15 8 5 9 -49 5
-71 5 -75 1z m35 -126 c0 -89 -3 -113 -13 -109 -9 3 -12 31 -11 107 2 121 1
117 14 117 6 0 10 -45 10 -115z"/>
<path d="M3755 1489 c-23 -5 -25 -7 -7 -8 21 -1 22 -4 22 -107 0 -90 -3 -109
-17 -120 -16 -12 -13 -13 25 -14 23 0 43 3 43 8 1 4 2 60 3 124 1 129 0 132
-69 117z m55 -119 c0 -87 -3 -110 -14 -110 -11 0 -13 21 -11 108 3 121 2 112
15 112 6 0 10 -43 10 -110z"/>
<path d="M3358 1443 c7 -3 16 -2 19 1 4 3 -2 6 -13 5 -11 0 -14 -3 -6 -6z"/>
<path d="M3172 1424 c-7 -8 -9 -14 -5 -14 4 0 2 -4 -6 -9 -12 -8 -12 -14 -1
-40 7 -17 20 -32 29 -33 44 -4 55 -2 59 11 3 10 0 11 -14 3 -22 -11 -44 -5
-61 17 -9 13 -8 21 3 39 18 27 15 46 -4 26z"/>
<path d="M3200 1429 c0 -6 6 -9 14 -6 8 3 20 -1 26 -9 7 -8 17 -14 23 -14 5 0
2 9 -8 20 -19 21 -55 27 -55 9z"/>
<path d="M3359 1428 c-5 -15 -3 -81 3 -84 4 -3 8 15 8 40 0 25 -2 46 -5 46 -3
0 -5 -1 -6 -2z"/>
<path d="M3054 1334 c2 -60 5 -69 30 -89 26 -21 38 -22 130 -20 129 3 119 0
139 34 19 32 22 56 7 46 -6 -4 -8 -10 -6 -13 2 -4 -3 -18 -13 -30 -15 -21 -26
-23 -102 -24 -165 -1 -170 1 -171 96 -1 36 -4 66 -9 66 -4 0 -6 -30 -5 -66z"/>
<path d="M3253 1375 c0 -8 4 -15 9 -15 4 0 8 7 8 15 0 8 -4 15 -8 15 -5 0 -9
-7 -9 -15z"/>
<path d="M3358 1323 c7 -3 16 -2 19 1 4 3 -2 6 -13 5 -11 0 -14 -3 -6 -6z"/>
<path d="M5434 941 c-2 -2 -4 -37 -4 -78 0 -80 -7 -87 -50 -53 -30 24 -63 25
-80 4 -17 -19 -25 -157 -13 -203 13 -52 35 -60 86 -33 23 12 45 22 50 22 4 0
7 -81 7 -180 0 -99 3 -181 8 -181 4 -1 1102 -2 2440 -3 1615 -1 2436 2 2440 9
12 18 9 695 -2 696 -30 4 -4878 3 -4882 0z m4856 -20 c13 -1 15 -44 14 -328
l-1 -328 -2425 -3 -2424 -2 -1 160 c-1 87 -4 168 -8 180 -8 25 -25 25 -77 -1
-56 -29 -63 -18 -63 96 0 116 8 128 64 97 69 -39 81 -29 81 68 0 57 1 59 28
62 24 3 4775 2 4812 -1z"/>
<path d="M6380 786 c0 -97 -3 -101 -56 -70 -50 29 -70 26 -84 -11 -23 -62 -15
-205 15 -234 12 -12 20 -11 64 11 59 31 61 29 61 -78 l0 -74 495 0 495 0 0
260 0 260 -495 0 -495 0 0 -64z m970 -194 l0 -239 -475 0 -475 0 0 72 c0 44
-5 78 -14 90 -13 18 -14 18 -55 -3 -49 -26 -67 -27 -75 -6 -10 25 -7 160 4
189 l10 25 51 -27 c50 -26 52 -26 65 -8 8 11 14 44 14 82 l0 63 475 0 475 0 0
-238z"/>
<path d="M6554 752 c-17 -2 -42 -14 -54 -27 -19 -20 -22 -36 -25 -117 -3 -101
10 -149 43 -167 14 -7 137 -11 365 -11 l344 0 24 26 c22 23 24 34 25 132 0
101 -1 107 -26 135 l-26 30 -320 1 c-175 0 -333 0 -350 -2z m679 -41 c18 -17
21 -34 23 -116 1 -81 -2 -99 -18 -120 l-19 -25 -343 0 c-413 0 -381 -12 -380
140 0 112 12 137 68 142 17 2 170 2 340 1 297 -1 309 -2 329 -22z"/>
<path d="M6830 601 c0 -86 2 -101 16 -101 9 0 14 6 11 13 -2 6 0 23 5 36 l9
25 25 -37 c13 -20 32 -37 40 -37 11 0 7 11 -15 43 l-29 43 29 32 c39 42 15 42
-28 0 -36 -35 -34 -37 -37 41 0 19 -7 36 -13 38 -10 4 -13 -20 -13 -96z"/>
<path d="M6600 575 c0 -43 4 -75 10 -75 11 0 11 -1 15 57 4 58 11 73 35 73 21
0 23 -5 23 -82 0 -34 4 -48 13 -48 10 0 14 15 14 54 0 56 17 83 45 72 11 -4
15 -21 15 -66 0 -43 4 -60 13 -60 10 0 13 17 12 63 0 34 -4 68 -9 75 -9 15
-48 16 -64 0 -9 -9 -15 -9 -24 0 -7 7 -21 12 -33 12 -12 0 -26 -5 -33 -12 -9
-9 -12 -9 -12 0 0 7 -4 12 -10 12 -6 0 -10 -32 -10 -75z"/>
<path d="M7920 775 c0 -42 -4 -75 -10 -75 -5 0 -28 10 -50 21 l-42 22 -21 -22
c-20 -19 -22 -32 -22 -121 0 -89 2 -102 22 -121 l21 -22 51 27 51 26 0 -90 0
-90 1108 2 1107 3 0 255 0 255 -1107 3 -1108 2 0 -75z m1450 -10 c0 -36 -4
-65 -10 -65 -5 0 -28 10 -50 21 l-42 22 -21 -22 c-20 -19 -22 -32 -22 -121 0
-89 2 -102 22 -121 l21 -22 42 22 c22 11 45 21 50 21 6 0 10 -33 10 -73 l0
-74 -712 1 -712 1 -2 74 c-3 97 -16 112 -72 81 -67 -38 -83 -16 -78 110 4 97
10 104 70 75 74 -36 78 -31 79 93 l1 42 713 0 713 0 0 -65z m741 48 c1 -23 1
-399 0 -434 l-1 -26 -357 1 -357 1 -2 73 c-2 98 -16 114 -72 82 -49 -28 -68
-22 -75 22 -10 51 -2 155 12 172 12 14 18 13 58 -11 41 -24 46 -25 61 -10 11
12 16 36 16 82 l1 65 358 0 c333 0 357 -1 358 -17z"/>
<path d="M8080 747 c-50 -13 -60 -39 -60 -158 0 -102 1 -107 26 -133 l27 -26
512 0 512 0 24 26 c22 24 24 33 24 135 0 104 -1 110 -27 135 l-27 27 -490 1
c-270 1 -504 -2 -521 -7z m1016 -27 c29 -16 32 -30 30 -139 -3 -144 52 -131
-543 -131 -598 0 -543 -14 -543 138 0 119 10 139 73 144 23 2 249 2 501 1 338
-1 465 -4 482 -13z"/>
<path d="M8192 620 c0 -17 3 -28 8 -25 5 3 7 15 5 27 -7 32 -12 31 -13 -2z"/>
<path d="M8708 575 c15 -41 32 -75 39 -75 21 0 56 60 61 106 3 34 1 44 -10 44
-9 0 -14 -13 -15 -40 -2 -44 -21 -87 -33 -74 -4 5 -15 33 -25 62 -9 29 -23 52
-30 52 -11 0 -8 -18 13 -75z"/>
<path d="M8194 564 c4 -10 0 -18 -13 -21 -22 -6 -35 -29 -21 -38 9 -6 39 4 41
14 6 36 4 61 -4 61 -5 0 -6 -7 -3 -16z"/>
<path d="M8583 566 c5 -13 -3 -15 -54 -15 -33 1 -63 -2 -66 -5 -4 -3 24 -6 60
-6 59 0 66 -2 60 -17 -6 -16 -4 -16 15 1 27 24 27 28 1 45 -19 11 -21 11 -16
-3z"/>
<path d="M9545 749 c-64 -11 -75 -34 -75 -159 0 -103 1 -108 26 -134 l27 -26
231 0 c242 1 251 2 274 47 15 28 16 194 1 226 -20 45 -45 50 -252 51 -107 0
-211 -2 -232 -5z m390 -18 c72 -1 83 -19 84 -138 2 -150 14 -143 -264 -143
-278 0 -265 -7 -265 138 0 109 12 139 58 144 23 2 164 2 387 -1z"/>
<path d="M9604 613 c23 -34 24 -39 11 -58 -31 -43 -36 -55 -23 -55 7 0 22 13
33 30 l20 29 18 -29 c11 -17 26 -30 34 -30 15 0 13 6 -20 53 l-19 28 27 34
c19 25 22 35 11 35 -8 0 -23 -12 -34 -27 l-19 -26 -18 26 c-9 15 -24 27 -32
27 -10 0 -7 -10 11 -37z"/>
<path d="M5960 690 c0 -5 6 -10 13 -10 8 0 19 -11 25 -24 9 -20 6 -35 -19 -86
-34 -72 -33 -70 -15 -70 8 0 22 22 32 50 20 55 24 55 44 -7 7 -24 19 -43 27
-43 17 0 17 -4 -12 75 -38 100 -53 125 -75 125 -11 0 -20 -4 -20 -10z"/>
<path d="M5677 628 c-33 -31 -34 -43 -5 -73 20 -21 55 -24 42 -4 -3 5 26 9 65
9 39 0 71 4 71 9 0 5 -37 8 -82 7 -56 0 -83 3 -86 12 -3 9 19 12 82 12 51 0
86 4 86 10 0 6 -30 10 -69 10 -57 0 -70 3 -73 17 -3 14 -7 13 -31 -9z"/>
<path d="M7576 575 c4 -8 10 -15 14 -15 4 0 10 7 14 15 4 10 -1 15 -14 15 -13
0 -18 -5 -14 -15z"/>
<path d="M3920 786 c0 -97 -3 -100 -61 -68 l-50 27 -19 -24 c-19 -22 -23 -42
-22 -126 0 -81 2 -93 21 -116 l19 -23 50 26 c61 31 62 30 62 -78 l0 -74 380 0
380 0 0 260 0 260 -380 0 -380 0 0 -64z m736 -193 l-1 -238 -357 -1 -358 -1 0
73 c0 53 -4 77 -16 88 -20 20 -23 20 -59 -4 -36 -24 -61 -25 -69 -4 -3 9 -6
53 -6 99 0 109 13 126 70 90 22 -14 44 -25 49 -25 19 0 31 39 31 99 l0 61 359
0 359 0 -2 -237z"/>
<path d="M4105 752 c-44 -4 -73 -22 -83 -51 -5 -14 -8 -70 -8 -125 1 -94 3
-99 29 -122 28 -24 30 -24 258 -24 l230 0 24 25 c24 23 25 31 25 134 0 100 -2
112 -23 136 l-22 27 -200 1 c-110 1 -213 1 -230 -1z m436 -38 c16 -15 19 -32
19 -125 0 -147 15 -139 -266 -139 -270 0 -258 -6 -260 133 -1 126 6 138 80
149 11 2 107 2 214 1 168 -1 196 -4 213 -19z"/>
<path d="M4152 612 l22 -39 -23 -32 c-30 -42 -17 -55 15 -16 l24 30 24 -30
c32 -39 45 -26 15 16 l-23 32 22 39 c17 28 19 38 9 38 -7 0 -20 -11 -27 -25
-7 -14 -16 -25 -20 -25 -4 0 -13 11 -20 25 -7 14 -20 25 -27 25 -10 0 -8 -10
9 -38z"/>
<path d="M3080 690 c0 -5 5 -10 10 -10 6 0 15 -11 22 -24 11 -25 7 -38 -39
-128 -12 -24 -12 -28 1 -28 9 0 25 22 37 51 l22 51 19 -51 c11 -28 26 -51 34
-51 11 0 10 10 -7 53 -12 28 -26 66 -32 82 -5 17 -17 38 -25 48 -16 19 -42 23
-42 7z"/>
<path d="M3564 643 c12 -41 14 -76 6 -99 -17 -43 -50 -25 -50 27 0 10 -7 19
-15 19 -10 0 -15 -10 -15 -30 0 -34 -26 -52 -42 -29 -5 8 -7 38 -4 67 3 39 1
52 -9 52 -27 0 -35 -109 -9 -134 20 -21 61 -20 72 0 8 15 10 15 15 0 8 -20 60
-21 76 -2 11 13 16 54 13 103 -1 12 -11 27 -23 34 -18 9 -20 8 -15 -8z"/>
<path d="M4927 561 c-17 -18 -17 -19 7 -35 22 -14 25 -14 20 -1 -5 12 5 15 62
15 37 0 65 3 62 6 -4 3 -34 6 -68 6 -47 1 -60 4 -56 15 7 18 -5 15 -27 -6z"/>
<path d="M10239 6328 c-5 -18 -6 -38 -1 -34 7 8 12 36 6 36 -2 0 -4 -1 -5 -2z"/>
<path d="M11265 149 c-3 -4 2 -6 10 -5 21 3 28 13 10 13 -9 0 -18 -4 -20 -8z"/>
</g>
</svg>
