<?xml version="1.0" standalone="no"?>
<!DOCTYPE svg PUBLIC "-//W3C//DTD SVG 20010904//EN"
 "http://www.w3.org/TR/2001/REC-SVG-20010904/DTD/svg10.dtd">
<svg version="1.0" xmlns="http://www.w3.org/2000/svg"
 width="1350.000000pt" height="749.000000pt" viewBox="0 0 1350.000000 749.000000"
 preserveAspectRatio="xMidYMid meet">
<metadata>
Created by potrace 1.16, written by Peter Selinger 2001-2019
</metadata>
<g transform="translate(0.000000,749.000000) scale(0.100000,-0.100000)"
fill="#000000" stroke="none">
<path d="M232 7249 c-42 -12 -96 -61 -114 -102 -11 -26 -13 -224 -13 -1060 0
-565 -4 -1027 -8 -1027 -5 0 -5 -6 0 -12 10 -17 10 -468 0 -468 -5 0 -5 -6 0
-12 10 -17 10 -468 0 -468 -5 0 -5 -6 0 -12 11 -18 10 -468 -1 -468 -5 0 -4
-6 1 -12 5 -8 8 -673 7 -1613 -1 -880 2 -1623 7 -1652 11 -73 70 -134 142
-149 19 -4 487 -5 1840 -4 l357 0 0 278 0 279 128 -1 127 0 3 284 c1 165 -2
286 -7 289 -5 3 -64 6 -130 5 l-121 -1 0 267 0 267 5298 -1 c2913 -1 5304 0
5313 2 13 3 16 14 14 53 -2 31 1 49 9 49 7 0 8 3 1 8 -7 5 -11 155 -10 449 l0
443 -5612 0 -5613 0 0 268 0 267 4433 0 4432 0 0 193 c0 107 3 192 8 192 5 0
4 7 -3 15 -9 11 -9 15 -1 15 7 0 9 5 4 12 -12 20 -10 772 2 780 7 5 7 8 0 8
-7 0 -10 62 -10 170 1 112 -3 170 -10 171 -5 0 -1124 1 -2485 2 l-2475 2 -3
373 -2 372 2488 0 2488 0 -1 320 c0 184 3 320 8 320 5 0 4 7 -3 15 -9 11 -9
15 -1 15 7 0 9 5 4 12 -4 7 -7 83 -8 168 l0 154 -3102 0 -3103 0 0 278 0 278
-1878 0 -1877 0 -66 -44 c-81 -55 -107 -54 -190 4 -57 40 -58 40 -146 39 -48
0 -103 -5 -121 -10z m265 -57 c83 -57 116 -57 202 1 l63 44 1862 -1 1861 -1 0
-265 0 -265 -1865 0 -1865 1 -65 -43 c-82 -54 -106 -55 -184 -1 l-61 42 -155
1 -155 0 0 215 c0 209 1 216 23 245 47 59 83 72 202 71 71 -1 78 -3 137 -44z
m6 -556 c84 -55 111 -55 195 2 l61 42 485 0 486 0 0 -75 c0 -41 -2 -75 -5 -75
-3 0 -27 12 -55 26 -82 43 -105 14 -104 -131 1 -147 22 -174 104 -131 28 14
52 26 55 26 3 0 5 -135 5 -300 l0 -300 -491 0 -490 0 -59 -40 c-77 -52 -107
-52 -185 0 l-60 40 -157 0 -158 0 0 480 0 480 153 0 152 0 68 -44z m10188
-351 c0 -214 -1 -429 -1 -477 l0 -88 -4465 0 c-3565 0 -4465 3 -4466 13 0 6
-1 140 -2 297 -1 157 -6 291 -10 298 -12 18 -43 15 -88 -10 -39 -23 -40 -23
-54 -4 -19 25 -23 121 -9 204 6 38 24 41 72 12 37 -23 67 -26 78 -8 4 7 9 41
10 77 1 36 3 69 3 74 1 4 2011 6 4467 5 l4466 -3 -1 -390z m-10191 -629 c84
-55 113 -55 197 2 l62 42 435 0 436 0 0 -62 c0 -88 -7 -95 -64 -64 -53 28 -71
26 -91 -15 -18 -34 -20 -181 -4 -227 15 -43 39 -47 97 -18 43 22 51 23 56 10
9 -23 7 -364 -1 -365 -5 -1 -202 -2 -439 -3 l-430 -1 -65 -43 c-37 -23 -77
-42 -93 -42 -15 0 -53 18 -89 42 l-62 43 -157 0 -158 0 0 372 0 373 153 0 152
0 65 -44z m5211 37 c1 -5 2 -171 3 -370 1 -237 -2 -364 -9 -366 -5 -2 -919 -3
-2030 -3 l-2020 1 -6 200 c-3 110 -6 201 -7 203 -7 9 -49 -1 -81 -20 -54 -31
-68 -21 -76 55 -7 60 -1 150 11 169 9 14 30 9 77 -17 63 -36 77 -21 77 81 l0
74 2030 0 c1117 0 2031 -3 2031 -7z m-5211 -807 c81 -56 112 -56 197 2 l62 42
435 0 436 0 0 -62 c0 -89 -6 -95 -65 -63 -43 22 -51 24 -69 12 -27 -18 -34
-46 -35 -137 -1 -87 12 -145 36 -154 10 -4 38 4 67 19 38 20 51 23 58 13 4 -7
8 -93 8 -190 l0 -178 -435 0 -434 0 -70 -45 c-38 -25 -81 -45 -96 -45 -14 0
-56 20 -93 45 l-67 45 -152 0 -153 0 0 370 0 370 153 0 153 0 64 -44z m10191
-71 c0 -63 0 -144 0 -180 0 -36 0 -150 0 -255 l-1 -190 -4520 0 -4520 0 0 184
c0 101 -3 191 -6 200 -8 22 -37 20 -84 -4 -22 -11 -44 -20 -49 -20 -26 0 -39
163 -19 222 12 34 23 35 81 3 63 -36 77 -21 77 81 l0 74 4520 0 4520 0 1 -115z
m-10191 -698 c81 -53 108 -53 196 2 l65 41 435 0 434 0 0 -59 c0 -92 -2 -95
-66 -63 l-54 26 -23 -22 c-19 -19 -22 -35 -25 -115 -4 -99 12 -161 42 -173 9
-3 36 6 61 20 25 15 50 24 55 21 6 -4 10 -80 10 -191 l0 -184 -436 0 -436 0
-68 -45 c-38 -25 -79 -45 -94 -45 -15 0 -55 19 -93 45 l-65 45 -154 0 -154 0
0 370 0 370 153 0 152 0 65 -43z m10192 -137 c-1 -96 -1 -263 -2 -370 l0 -195
-4407 1 c-2425 1 -4459 2 -4521 3 l-113 1 1 83 c5 330 1 346 -77 302 -54 -30
-68 -31 -78 -7 -15 33 -14 175 1 210 l14 33 51 -27 c71 -39 83 -30 87 70 l3
76 4521 -2 4520 -3 0 -175z m-10266 -589 c5 0 38 -19 72 -41 82 -54 115 -53
200 2 63 41 65 41 158 43 52 1 97 -2 100 -7 8 -13 8 -127 1 -135 -4 -3 -27 3
-51 15 -56 28 -72 28 -92 -4 -22 -33 -26 -193 -6 -241 18 -42 37 -45 95 -15
26 14 50 22 53 19 5 -5 9 -2713 5 -2803 -1 -8 -98 -11 -353 -10 -392 1 -399 2
-449 69 l-24 32 -3 1540 -2 1541 142 -2 c79 -1 148 -2 154 -3z m1385 0 c14 -1
15 -39 13 -347 -1 -190 -5 -348 -8 -351 -3 -3 -20 3 -38 14 -73 43 -101 35
-117 -36 -14 -62 -6 -187 14 -217 20 -30 38 -30 90 1 23 13 45 21 49 18 10
-11 7 -763 -4 -763 -5 0 -24 9 -42 20 -48 29 -82 26 -98 -7 -17 -37 -21 -180
-7 -222 19 -55 38 -60 102 -28 l55 27 0 -175 c0 -96 -3 -175 -7 -175 -5 0 -26
12 -48 25 -22 14 -48 25 -57 25 -31 0 -50 -44 -54 -127 -7 -164 30 -213 118
-152 14 11 31 19 37 19 8 0 11 -53 11 -170 0 -185 0 -186 -55 -150 -77 51
-109 12 -110 -135 0 -70 4 -97 18 -118 22 -33 40 -34 94 -3 24 14 45 22 47 18
5 -9 8 -63 7 -123 l-1 -47 -415 1 -415 0 -1 1394 c-1 766 -3 1398 -4 1403 -1
6 -3 16 -4 24 -2 26 -33 26 -82 -1 -39 -21 -52 -24 -62 -14 -15 15 -17 225 -2
240 7 7 27 2 63 -15 30 -14 59 -23 66 -21 16 6 26 53 26 117 0 25 2 49 4 51 4
4 769 4 817 0z m1637 -620 c-2 -39 -6 -73 -10 -76 -3 -3 -27 6 -53 19 -81 43
-105 12 -105 -134 0 -142 25 -171 110 -126 41 22 49 23 54 10 3 -9 6 -144 6
-300 l0 -284 -800 0 -800 0 0 284 c0 161 -4 296 -10 310 -12 32 -32 33 -85 2
-62 -37 -69 -27 -73 96 -3 81 0 107 12 123 15 20 16 20 63 -6 52 -27 82 -28
85 -1 0 9 2 22 3 27 2 6 3 36 4 68 l1 57 801 0 801 0 -4 -69z m9602 -411 l0
-480 -4790 0 -4790 0 -2 301 c-3 351 -2 345 -87 297 -60 -34 -69 -27 -78 65
-7 80 3 156 23 164 8 3 37 -6 64 -21 67 -36 80 -23 80 80 l0 74 4790 0 4790 0
0 -480z m-10625 -770 l0 -265 -287 0 -288 0 -1 65 c-1 139 -13 152 -95 104
-34 -20 -48 -24 -57 -15 -25 25 -25 217 0 242 8 8 25 3 61 -15 53 -27 81 -26
84 3 0 9 2 21 3 26 2 6 3 35 4 66 l1 56 288 -1 287 -1 0 -265z m262 -555 l0
-265 -419 0 -418 0 -1 63 c-1 133 -13 148 -87 110 -62 -32 -73 -26 -82 45 -6
51 3 169 14 179 4 4 20 2 36 -5 17 -7 43 -17 60 -24 46 -19 58 3 59 110 l1 52
419 0 418 0 0 -265z m-262 -555 l0 -265 -287 -1 -288 -1 -1 71 c-2 130 -17
146 -94 100 -32 -18 -50 -23 -57 -16 -24 24 -26 218 -1 243 8 8 24 4 61 -15
28 -14 57 -23 65 -20 18 6 27 48 27 119 l0 52 288 -1 287 -1 0 -265z"/>
<path d="M842 7078 c6 -18 28 -21 28 -4 0 9 -7 16 -16 16 -9 0 -14 -5 -12 -12z"/>
<path d="M2442 7078 c6 -18 28 -21 28 -4 0 9 -7 16 -16 16 -9 0 -14 -5 -12
-12z"/>
<path d="M3890 7074 c0 -9 5 -14 12 -12 18 6 21 28 4 28 -9 0 -16 -7 -16 -16z"/>
<path d="M346 7064 c-11 -27 -6 -54 8 -54 10 0 14 10 13 35 -2 37 -11 45 -21
19z"/>
<path d="M396 7064 c-11 -27 -6 -54 8 -54 10 0 14 10 13 35 -2 37 -11 45 -21
19z"/>
<path d="M672 6970 l-1 -110 70 0 c38 0 69 4 69 9 0 13 -20 18 -66 16 l-41 -1
-1 85 c0 113 0 111 -16 111 -10 0 -13 -24 -14 -110z"/>
<path d="M1250 6970 c0 -91 3 -110 15 -110 12 0 15 19 15 110 0 91 -3 110 -15
110 -12 0 -15 -19 -15 -110z"/>
<path d="M2270 6970 l0 -110 71 0 c52 0 70 3 67 12 -3 8 -24 13 -54 13 l-49 0
-2 85 c-2 114 -1 110 -18 110 -12 0 -15 -19 -15 -110z"/>
<path d="M2849 7053 c0 -16 -1 -65 -2 -111 l-2 -82 88 0 c48 0 87 4 87 9 0 13
-19 17 -82 16 l-58 0 0 37 0 38 60 0 c43 0 60 4 60 13 0 9 -17 13 -57 12 l-58
0 0 35 0 35 63 -1 c45 0 62 3 62 13 0 10 -21 13 -80 13 l-80 0 -1 -27z"/>
<path d="M1080 7056 c0 -8 -8 -20 -17 -26 -13 -8 -14 -13 -5 -16 7 -4 12 -27
12 -64 0 -74 6 -90 36 -90 27 0 32 15 9 24 -11 4 -15 21 -15 66 0 47 3 60 15
60 8 0 15 5 15 10 0 6 -7 10 -15 10 -8 0 -15 6 -15 14 0 8 -4 18 -10 21 -5 3
-10 -1 -10 -9z"/>
<path d="M1860 7051 c0 -12 -7 -21 -15 -21 -18 0 -20 -16 -2 -23 9 -3 12 -20
10 -56 -4 -58 9 -91 37 -91 26 0 34 17 11 23 -15 3 -18 15 -20 64 -1 55 1 61
21 68 l23 8 -22 4 c-13 2 -23 11 -23 18 0 8 -4 17 -10 20 -5 3 -10 -3 -10 -14z"/>
<path d="M2680 7056 c0 -8 -8 -20 -17 -26 -13 -8 -14 -13 -5 -16 7 -4 12 -27
12 -64 0 -74 6 -90 36 -90 27 0 32 15 9 24 -11 4 -15 21 -15 66 0 47 3 60 15
60 8 0 15 5 15 10 0 6 -7 10 -15 10 -8 0 -15 6 -15 14 0 8 -4 18 -10 21 -5 3
-10 -1 -10 -9z"/>
<path d="M841 6945 c1 -64 5 -85 15 -85 11 0 14 20 14 85 0 70 -3 85 -16 85
-12 0 -15 -14 -13 -85z"/>
<path d="M926 7017 c-32 -24 -17 -59 34 -78 25 -9 46 -24 48 -32 5 -24 -43
-33 -72 -14 -29 20 -42 10 -19 -15 21 -24 74 -23 104 1 20 16 22 22 12 44 -8
18 -25 29 -53 37 -24 6 -40 17 -40 26 0 22 28 29 56 14 28 -16 42 -7 24 15
-15 18 -70 20 -94 2z"/>
<path d="M1330 6945 c0 -69 3 -85 15 -85 12 0 15 13 15 56 0 81 20 109 60 84
11 -7 15 -27 15 -72 0 -49 4 -63 16 -66 13 -2 15 9 14 67 -1 40 -7 76 -15 85
-15 19 -61 21 -78 4 -9 -9 -12 -9 -12 0 0 7 -7 12 -15 12 -12 0 -15 -16 -15
-85z"/>
<path d="M1501 6910 c2 -94 5 -120 15 -120 10 0 14 14 14 47 0 37 3 44 12 35
18 -18 63 -14 83 8 12 13 17 34 17 66 -2 71 -40 102 -93 74 -13 -7 -19 -7 -19
0 0 5 -7 10 -15 10 -13 0 -15 -19 -14 -120z m98 86 c16 -19 17 -82 1 -101 -31
-38 -75 0 -67 58 7 53 40 74 66 43z"/>
<path d="M1679 7003 c-3 -59 3 -118 13 -130 13 -16 60 -17 76 -1 9 9 12 9 12
0 0 -7 7 -12 15 -12 12 0 15 16 15 85 0 69 -3 85 -15 85 -12 0 -15 -13 -15
-59 0 -61 -15 -91 -46 -91 -20 0 -26 21 -28 87 -1 35 -6 58 -13 61 -8 2 -13
-7 -14 -25z"/>
<path d="M1946 7014 c-9 -8 -16 -21 -16 -28 0 -17 29 -42 60 -51 39 -12 52
-25 39 -41 -15 -19 -53 -18 -69 1 -10 12 -16 13 -24 5 -16 -16 20 -40 59 -40
42 0 68 20 63 50 -3 22 -14 31 -77 60 -8 3 -16 11 -18 17 -6 18 32 25 61 12
32 -15 48 -3 22 17 -26 19 -81 18 -100 -2z"/>
<path d="M2441 6945 c0 -67 3 -85 15 -85 11 0 14 18 14 85 0 68 -3 85 -15 85
-11 0 -14 -17 -14 -85z"/>
<path d="M2520 7016 c-23 -29 -8 -59 40 -77 47 -17 61 -36 39 -50 -21 -13 -46
-11 -63 7 -23 22 -42 7 -20 -17 23 -26 85 -25 109 1 27 30 7 66 -45 80 -24 6
-40 17 -40 26 0 20 29 29 51 16 10 -7 27 -12 36 -12 15 1 14 4 -6 20 -27 23
-83 26 -101 6z"/>
<path d="M3040 7024 c0 -3 12 -21 27 -40 l26 -35 -31 -45 c-27 -37 -29 -44
-14 -44 10 0 26 14 35 30 10 17 21 30 25 30 4 0 16 -13 25 -30 10 -16 25 -30
34 -30 14 0 14 3 1 23 -44 67 -44 62 -15 106 24 36 25 41 10 41 -10 0 -26 -15
-36 -32 l-18 -32 -21 32 c-17 27 -48 44 -48 26z"/>
<path d="M3210 6910 c0 -102 2 -120 16 -120 10 0 15 8 14 23 -1 12 -2 32 -1
45 1 19 4 21 19 11 28 -17 71 -3 82 27 16 42 12 92 -10 114 -21 21 -65 27 -75
10 -3 -5 -11 -10 -16 -10 -6 0 -7 5 -4 10 3 6 -1 10 -9 10 -14 0 -16 -18 -16
-120z m94 84 c31 -30 14 -114 -22 -114 -27 0 -42 20 -42 58 0 63 31 90 64 56z"/>
<path d="M3401 7014 c-16 -12 -20 -19 -12 -27 7 -7 16 -5 30 7 24 22 61 13 61
-15 0 -15 -7 -19 -33 -19 -56 0 -88 -41 -61 -79 17 -23 44 -27 76 -10 14 8 23
8 31 0 13 -13 47 -15 47 -2 0 5 -6 11 -14 14 -10 4 -14 24 -15 64 0 43 -5 61
-18 70 -23 18 -64 16 -92 -3z m79 -94 c0 -27 -44 -48 -64 -30 -24 19 -2 50 34
50 23 0 30 -4 30 -20z"/>
<path d="M3558 7023 c-3 -7 -3 -113 1 -150 0 -7 7 -13 14 -13 8 0 12 18 13 60
0 68 18 97 53 85 19 -6 21 -14 21 -76 0 -55 3 -69 15 -69 22 0 21 132 -1 154
-18 18 -47 20 -75 6 -13 -7 -19 -7 -19 0 0 12 -17 14 -22 3z"/>
<path d="M3736 7008 c-21 -29 -2 -59 45 -71 42 -11 54 -28 32 -44 -23 -17 -43
-16 -64 3 -22 20 -35 1 -13 -20 22 -23 80 -20 104 4 33 33 21 56 -41 79 -45
17 -52 29 -26 45 11 7 24 6 41 -4 32 -16 49 -4 22 16 -31 22 -82 18 -100 -8z"/>
<path d="M3890 6945 c0 -64 3 -85 13 -85 10 0 14 21 14 85 0 65 -3 85 -13 85
-11 0 -14 -20 -14 -85z"/>
<path d="M3970 7010 c-14 -14 -20 -33 -20 -65 0 -76 65 -112 121 -66 30 24 33
99 4 131 -24 26 -78 27 -105 0z m79 -14 c20 -24 21 -74 1 -98 -15 -20 -21 -21
-44 -10 -22 10 -26 18 -26 55 0 24 5 48 12 55 16 16 43 15 57 -2z"/>
<path d="M4130 6945 c0 -69 3 -85 15 -85 12 0 15 13 15 59 0 61 15 91 45 91
22 0 32 -30 30 -88 -1 -53 10 -76 25 -52 11 18 3 129 -11 146 -14 17 -43 18
-70 4 -13 -7 -19 -7 -19 0 0 5 -7 10 -15 10 -12 0 -15 -16 -15 -85z"/>
<path d="M2109 6897 c-6 -17 -5 -37 1 -37 4 0 6 -10 3 -22 -4 -16 -2 -20 5
-13 18 17 22 63 6 69 -8 3 -14 4 -15 3z"/>
<path d="M268 6373 c-17 -8 -34 -26 -43 -47 -18 -42 -20 -198 -4 -244 21 -61
27 -62 364 -62 l307 0 29 29 c16 16 29 40 30 53 8 208 0 247 -53 269 -42 17
-589 19 -630 2z m639 -35 c21 -20 23 -29 23 -134 0 -95 -3 -115 -19 -135 l-19
-24 -293 -3 c-205 -2 -301 1 -321 9 -35 14 -45 50 -42 154 3 115 2 113 24 135
19 19 33 20 322 20 296 0 302 0 325 -22z"/>
<path d="M350 6185 c0 -69 3 -85 15 -85 12 0 15 13 15 56 0 60 13 94 35 94 23
0 33 -30 31 -93 -1 -45 2 -57 14 -57 12 0 16 13 16 61 1 65 18 95 47 83 14 -5
17 -20 17 -75 0 -55 3 -69 15 -69 12 0 15 14 15 66 0 36 -5 74 -10 85 -12 21
-41 25 -72 8 -14 -8 -23 -8 -31 0 -15 15 -50 14 -65 -1 -9 -9 -12 -9 -12 0 0
7 -7 12 -15 12 -12 0 -15 -16 -15 -85z"/>
<path d="M1080 6230 c0 -11 7 -20 15 -20 8 0 15 9 15 20 0 11 -7 20 -15 20 -8
0 -15 -9 -15 -20z"/>
<path d="M1132 6228 c3 -9 32 -13 98 -13 66 0 95 4 97 13 4 9 -20 12 -97 12
-77 0 -101 -3 -98 -12z"/>
<path d="M1080 6170 c0 -11 7 -20 15 -20 8 0 15 9 15 20 0 11 -7 20 -15 20 -8
0 -15 -9 -15 -20z"/>
<path d="M1133 6168 c2 -9 31 -13 97 -13 66 0 95 4 98 13 3 9 -21 12 -98 12
-77 0 -101 -3 -97 -12z"/>
<path d="M2079 6598 c-2 -3 -5 -73 -8 -151 l-1 -29 -46 26 c-26 14 -55 26 -65
26 -30 0 -48 -41 -53 -116 -6 -85 6 -150 31 -175 18 -19 20 -19 71 8 28 14 55
24 58 20 4 -3 7 -95 8 -204 l1 -198 3335 0 3335 0 0 395 0 395 -3332 3 c-1833
1 -3334 1 -3334 0z m6642 -63 c0 -22 1 -188 1 -370 l1 -330 -3311 -3 -3311 -2
-3 190 c-4 231 -6 237 -87 194 -40 -21 -55 -24 -64 -15 -15 15 -17 225 -2 240
7 7 27 2 63 -15 30 -14 59 -23 66 -21 16 6 26 53 26 121 l0 51 3310 0 3310 0
1 -40z"/>
<path d="M3519 6488 c-1 -2 -2 -38 -4 -81 -1 -42 -5 -80 -9 -84 -3 -4 -24 3
-45 15 -85 48 -113 18 -114 -121 0 -99 14 -149 46 -155 10 -2 40 8 66 22 l49
25 4 -22 c2 -12 3 -57 3 -99 l-1 -78 313 0 313 0 0 290 0 290 -310 0 c-170 0
-310 -1 -311 -2z m600 -285 c0 -201 -2 -263 -12 -264 -37 -4 -535 -4 -549 -1
-15 4 -18 16 -18 73 0 78 -12 119 -36 119 -9 0 -33 -10 -53 -22 -48 -30 -57
-30 -70 0 -16 33 -12 196 4 219 12 16 17 15 69 -11 31 -16 58 -27 60 -25 17
20 26 58 26 112 l0 64 289 -1 289 0 1 -263z"/>
<path d="M3780 6300 c-19 -19 -22 -29 -23 -75 -1 -89 23 -128 75 -123 52 5 75
53 69 149 -3 60 -79 91 -121 49z m74 -16 c9 -8 16 -21 17 -27 0 -7 2 -21 4
-32 6 -30 -13 -92 -31 -99 -23 -9 -51 10 -57 39 -9 48 1 109 19 122 23 17 29
16 48 -3z"/>
<path d="M4397 6483 c-2 -5 -5 -41 -5 -82 -1 -41 -4 -76 -7 -79 -3 -3 -28 6
-56 21 -59 30 -72 27 -91 -16 -20 -49 -17 -207 5 -240 22 -33 35 -34 97 -2
l50 25 1 -37 c1 -21 1 -66 1 -100 l-1 -63 314 0 315 0 0 290 0 290 -309 0
c-171 0 -312 -3 -314 -7z m599 -280 c0 -178 -3 -263 -10 -264 -6 -1 -136 -2
-289 -3 l-277 -1 -1 70 c-2 129 -15 142 -95 100 l-48 -26 -13 26 c-17 30 -19
169 -4 208 13 34 21 34 77 1 42 -25 47 -26 62 -10 12 11 18 39 20 90 l4 73
287 -1 287 0 0 -263z"/>
<path d="M4657 6302 c-34 -37 -13 -58 22 -23 20 20 60 18 62 -3 3 -28 -7 -45
-58 -98 -30 -32 -51 -62 -48 -68 8 -13 145 -13 145 0 0 11 1 11 -60 15 -25 1
-47 3 -50 4 -3 1 19 23 48 50 48 46 57 63 52 101 -4 40 -83 55 -113 22z"/>
<path d="M5270 6405 c0 -47 -4 -85 -9 -85 -6 0 -31 11 -57 25 -49 26 -75 23
-89 -12 -15 -37 -17 -177 -3 -217 20 -59 39 -66 98 -35 27 15 52 24 55 21 3
-3 5 -47 5 -99 l0 -93 315 0 315 0 0 290 0 290 -315 0 -315 0 0 -85z m601 56
c1 -3 2 -122 3 -264 1 -222 -1 -257 -14 -258 -86 -7 -560 -2 -561 6 0 6 -2 39
-3 75 -3 77 -12 110 -31 110 -8 0 -35 -11 -62 -25 -45 -24 -48 -25 -60 -9 -13
17 -15 31 -15 104 -1 81 3 107 16 126 15 19 16 18 66 -10 47 -26 53 -27 68
-13 10 11 16 38 18 84 1 37 3 71 3 74 1 7 571 8 572 0z"/>
<path d="M5531 6299 c-15 -16 -18 -26 -10 -33 7 -8 14 -6 24 7 17 23 51 29 65
12 18 -21 8 -48 -19 -55 -36 -8 -36 -25 1 -35 37 -11 47 -35 23 -58 -18 -18
-55 -14 -71 8 -13 17 -34 20 -34 5 0 -23 41 -50 75 -50 64 0 97 59 54 98 -17
17 -18 20 -5 25 17 7 21 53 7 75 -4 8 -26 16 -48 19 -33 4 -44 1 -62 -18z"/>
<path d="M6150 6411 c0 -44 -5 -83 -10 -86 -6 -3 -27 3 -48 15 -54 30 -84 24
-99 -20 -15 -45 -16 -149 -2 -206 15 -58 42 -66 103 -30 24 14 46 22 50 19 3
-3 6 -48 6 -100 l0 -93 315 0 315 0 0 290 0 290 -315 0 -315 0 0 -79z m601 30
c5 -228 2 -501 -6 -504 -5 -1 -136 -2 -290 -2 l-279 1 -2 82 c-1 49 -6 88 -14
97 -16 19 -44 19 -59 1 -7 -8 -25 -19 -42 -25 -25 -9 -30 -7 -41 12 -7 12 -12
62 -12 114 0 74 3 96 16 110 16 16 20 15 69 -11 66 -36 77 -27 83 69 3 39 5
73 5 76 1 3 129 6 286 6 l285 0 1 -26z"/>
<path d="M6400 6270 c0 -59 2 -66 15 -63 6 1 22 5 36 9 53 12 80 -52 33 -82
-24 -16 -26 -16 -54 4 -34 26 -50 12 -20 -18 28 -28 75 -26 105 5 49 48 16
121 -51 113 -32 -4 -34 -2 -34 28 0 30 2 31 38 29 42 -2 62 3 62 16 0 5 -29 9
-65 9 l-65 0 0 -50z"/>
<path d="M7030 6418 c0 -100 -6 -106 -65 -74 -78 41 -105 6 -104 -133 1 -143
30 -176 113 -127 54 31 56 28 56 -90 l0 -84 313 2 312 3 0 285 0 285 -312 3
-313 2 0 -72z m600 -217 l0 -266 -290 0 -290 0 1 76 c1 80 -11 119 -37 119 -8
0 -33 -12 -55 -26 -58 -36 -71 -22 -74 88 -5 137 14 171 73 129 70 -49 92 -32
94 72 1 34 2 65 4 68 2 3 131 5 288 5 l286 1 0 -266z"/>
<path d="M7270 6311 c0 -12 18 -17 68 -16 23 0 42 0 42 -1 0 -1 -13 -29 -29
-61 -37 -72 -50 -133 -29 -133 10 0 19 19 27 53 6 28 23 72 36 96 38 67 36 71
-45 71 -38 0 -70 -4 -70 -9z"/>
<path d="M7909 6411 c-2 -44 -7 -83 -12 -87 -4 -4 -25 3 -47 15 -81 46 -110
14 -110 -122 0 -98 18 -157 47 -157 10 0 39 11 66 25 33 18 47 22 49 13 0 -7
2 -17 3 -23 2 -5 3 -45 4 -87 l1 -78 309 0 c286 0 309 1 312 18 4 14 3 488 0
545 -1 16 -23 17 -310 17 l-309 0 -3 -79z m599 -210 l-3 -266 -285 0 -285 0
-5 85 c-7 121 -15 128 -92 85 -64 -36 -73 -23 -73 111 0 131 5 137 81 99 55
-28 57 -28 70 -10 9 12 14 46 14 90 l0 72 290 -1 290 0 -2 -265z"/>
<path d="M8172 6304 c-28 -20 -31 -83 -4 -107 22 -20 63 -22 80 -5 9 9 12 8
12 -4 0 -49 -40 -80 -70 -53 -27 24 -44 15 -25 -13 20 -27 64 -29 96 -3 19 15
24 30 27 82 3 54 1 68 -18 92 -25 31 -63 36 -98 11z m72 -20 c30 -30 14 -84
-25 -84 -40 0 -55 61 -21 88 21 16 27 15 46 -4z"/>
<path d="M2343 6379 c-12 -4 -27 -18 -34 -31 -14 -26 -20 -228 -7 -228 4 0 8
46 8 103 0 56 4 108 9 115 17 28 57 37 151 36 122 -2 113 -1 141 -25 22 -19
23 -27 24 -130 0 -60 -3 -109 -7 -109 -5 0 -7 -3 -6 -7 4 -11 -25 -48 -37 -49
-5 -1 -22 -4 -37 -8 -16 -4 -28 -2 -28 4 0 6 -9 6 -27 -1 -18 -7 -29 -7 -31 0
-4 11 -32 3 -32 -9 0 -6 137 -7 150 0 3 1 9 2 14 1 12 -2 37 20 31 29 -3 4 1
10 9 13 10 4 13 34 13 125 0 113 -1 122 -24 148 -24 29 -26 29 -142 30 -64 1
-126 -3 -138 -7z"/>
<path d="M2902 6200 l0 -140 49 0 c27 0 49 4 49 10 0 6 -3 9 -7 9 -26 -4 -29
8 -29 121 0 114 2 125 29 121 4 0 7 4 7 9 0 6 -22 10 -49 10 l-48 0 -1 -140z
m48 0 c0 -95 -3 -119 -15 -124 -13 -5 -15 12 -15 118 0 67 3 126 6 129 18 18
24 -15 24 -123z"/>
<path d="M3060 6329 c0 -6 7 -9 15 -5 18 7 17 16 19 -126 2 -112 -1 -123 -26
-119 -5 0 -8 -3 -8 -9 0 -5 22 -10 49 -10 l50 0 -1 140 0 140 -49 0 c-29 0
-49 -4 -49 -11z m82 -211 c-3 -34 -7 -45 -17 -42 -19 8 -21 234 -2 246 9 5 13
-13 17 -75 3 -45 3 -103 2 -129z"/>
<path d="M2444 6270 c-12 -5 -26 -21 -31 -37 -11 -30 -1 -73 17 -73 14 0 12
16 -4 33 -13 12 -13 17 1 36 25 36 54 42 75 15 10 -12 18 -28 18 -36 0 -19
-39 -50 -56 -44 -8 3 -14 2 -14 -3 0 -16 13 -19 41 -9 17 6 28 13 25 15 -3 3
2 12 10 20 17 18 10 50 -17 76 -20 19 -33 20 -65 7z"/>
<path d="M2299 6092 c5 -9 17 -25 28 -34 21 -19 93 -35 93 -21 0 6 -14 10 -32
11 -23 1 -40 10 -59 31 -29 34 -45 41 -30 13z"/>
<path d="M9700 6405 c0 -47 -3 -85 -7 -85 -5 0 -30 12 -58 26 l-50 25 -22 -25
c-54 -63 -36 -286 24 -286 9 0 35 11 58 25 23 13 45 21 49 18 3 -3 6 -48 6
-100 l0 -93 403 0 402 0 -1 287 -1 288 -401 3 -402 2 0 -85z m775 -205 l0
-265 -372 0 c-366 0 -373 0 -374 20 0 11 -1 49 -3 85 -1 36 -5 71 -9 78 -11
16 -38 15 -64 -3 -11 -8 -33 -19 -47 -25 -24 -9 -28 -7 -37 18 -15 37 -15 183
0 210 15 28 23 28 77 -4 42 -25 47 -26 62 -10 15 15 17 29 21 142 1 21 2 21
374 20 l372 -1 0 -265z"/>
<path d="M9983 6243 c-28 -43 -49 -81 -46 -85 2 -5 26 -8 54 -8 46 0 49 -2 49
-25 0 -14 4 -25 9 -25 11 0 23 29 16 40 -3 4 5 11 18 15 17 5 18 8 7 12 -24 9
-26 19 -25 88 2 89 -16 86 -82 -12z m57 -16 l0 -53 -35 -2 c-19 -2 -35 0 -35
3 0 6 63 105 68 105 1 0 2 -24 2 -53z"/>
<path d="M10137 6302 c-21 -23 -21 -42 -3 -67 12 -17 12 -21 -1 -30 -9 -7 -15
-24 -15 -40 0 -61 91 -89 130 -40 21 27 19 73 -4 82 -11 4 -11 9 1 26 20 29
19 43 -5 67 -26 26 -81 26 -103 2z m84 -18 c17 -21 0 -49 -31 -49 -31 0 -48
28 -31 49 8 9 21 16 31 16 10 0 23 -7 31 -16z m-3 -86 c21 -21 14 -57 -14 -70
-23 -11 -29 -10 -45 10 -35 44 20 99 59 60z"/>
<path d="M8901 6377 c-59 -15 -71 -46 -71 -179 0 -119 0 -120 29 -149 l29 -29
272 0 272 0 29 29 c29 29 29 31 29 145 0 129 -9 159 -52 177 -34 14 -487 19
-537 6z m544 -42 c24 -23 25 -31 25 -133 0 -167 21 -156 -302 -160 -335 -4
-313 -15 -313 158 0 171 -22 160 307 160 l259 0 24 -25z"/>
<path d="M9028 6258 c-3 -29 -7 -33 -35 -36 -37 -4 -45 -22 -10 -22 33 0 49
-14 45 -40 -1 -13 3 -25 10 -27 8 -3 12 7 12 31 0 28 4 35 18 34 32 -2 52 2
52 12 0 6 -16 10 -35 10 -33 0 -35 2 -35 35 0 44 -18 46 -22 3z"/>
<path d="M274 5500 c-12 -4 -31 -21 -43 -37 -21 -26 -22 -36 -19 -145 3 -113
4 -119 31 -145 l27 -28 260 0 260 0 27 28 c27 26 28 32 31 140 4 128 -9 168
-61 186 -36 13 -482 14 -513 1z m530 -41 c20 -23 22 -36 21 -137 0 -165 17
-156 -288 -155 -254 0 -281 4 -295 44 -4 11 -7 67 -7 124 1 85 4 108 19 124
24 26 24 26 294 26 l234 0 22 -26z"/>
<path d="M350 5335 c0 -93 3 -115 14 -115 9 0 16 12 18 32 4 43 19 44 47 3 13
-19 30 -35 37 -35 19 0 18 6 -10 43 -38 52 -38 54 -5 91 41 48 16 46 -33 -1
l-38 -37 0 67 c0 53 -3 67 -15 67 -12 0 -15 -19 -15 -115z"/>
<path d="M979 5368 c-8 -27 -5 -38 12 -38 12 0 19 7 19 20 0 11 -7 20 -15 20
-8 0 -15 -1 -16 -2z"/>
<path d="M1030 5347 c0 -19 191 -18 198 1 3 9 -21 12 -97 12 -77 0 -101 -3
-101 -13z"/>
<path d="M978 5298 c-8 -21 2 -37 18 -31 18 7 18 43 0 43 -8 0 -16 -6 -18 -12z"/>
<path d="M1030 5285 c0 -13 15 -15 97 -13 66 2 98 7 101 16 3 9 -21 12 -97 12
-84 0 -101 -3 -101 -15z"/>
<path d="M1970 5537 c0 -46 -3 -86 -6 -90 -4 -3 -27 5 -53 18 -56 30 -63 31
-86 5 -24 -26 -34 -179 -15 -234 18 -55 42 -62 97 -32 25 14 49 23 54 20 5 -3
9 -45 9 -94 0 -61 4 -89 13 -92 6 -2 449 -4 982 -4 l970 1 3 293 2 292 -985 0
-985 0 0 -83z m1014 -4 c-3 -103 2 -97 -54 -68 -27 14 -56 25 -64 25 -54 0
-70 -236 -20 -291 17 -19 42 -16 92 14 18 11 35 17 38 14 7 -7 13 -138 6 -154
-3 -10 -111 -13 -493 -13 -269 0 -489 3 -490 8 0 4 -3 43 -5 87 -5 103 -18
116 -82 80 -24 -14 -50 -25 -57 -25 -19 0 -33 71 -30 145 6 113 20 129 78 89
70 -47 87 -31 92 84 1 31 3 58 4 60 0 1 223 2 494 2 l493 0 -2 -57z m936 -208
l0 -265 -455 0 -455 0 0 79 c0 60 -4 84 -17 100 l-18 21 -52 -27 c-72 -37 -78
-29 -78 101 0 133 9 147 71 111 23 -14 50 -25 59 -25 22 0 35 41 35 111 l0 59
455 0 455 0 0 -265z"/>
<path d="M2128 5494 c-42 -22 -48 -43 -48 -172 0 -116 1 -120 26 -146 15 -14
29 -27 33 -27 29 -7 512 -4 534 4 45 15 57 52 57 177 0 183 5 180 -327 180
-199 -1 -253 -4 -275 -16z m529 -13 c7 0 21 -11 33 -23 17 -19 20 -35 20 -124
0 -115 -10 -149 -49 -161 -14 -5 -135 -8 -269 -7 -239 1 -242 1 -267 24 -24
22 -25 29 -25 134 1 118 12 149 56 158 17 3 472 3 501 -1z"/>
<path d="M2256 5424 c-3 -9 -6 -24 -6 -34 0 -13 -9 -20 -27 -23 -27 -4 -27 -4
-5 -12 12 -4 22 -11 22 -15 0 -20 -13 -40 -26 -40 -8 0 -14 -4 -14 -10 0 -5 6
-10 14 -10 12 0 13 -7 6 -31 -7 -22 -6 -29 3 -26 7 2 13 16 15 30 3 22 8 27
31 27 25 0 27 -3 23 -31 -3 -22 -1 -30 7 -25 6 4 11 16 11 26 0 20 32 44 44
33 3 -3 6 -1 6 5 0 7 -9 12 -21 12 -15 0 -19 4 -15 16 3 9 6 20 6 25 0 5 9 9
20 9 11 0 20 5 20 10 0 6 -9 10 -19 10 -17 0 -19 4 -10 32 11 40 11 38 -1 38
-5 0 -12 -16 -16 -35 -5 -30 -10 -35 -34 -35 -27 0 -28 2 -20 30 9 31 -3 52
-14 24z m52 -99 c-2 -20 -8 -25 -30 -25 -15 0 -28 4 -28 9 0 25 14 41 36 41
19 0 23 -5 22 -25z"/>
<path d="M3155 5501 c-49 -20 -59 -46 -61 -153 -2 -125 8 -163 47 -187 27 -16
57 -18 327 -17 224 1 303 5 320 15 37 20 49 65 46 179 -2 112 -14 145 -60 162
-31 12 -591 12 -619 1z m608 -20 c4 0 16 -10 27 -21 18 -18 20 -33 20 -135 0
-102 -2 -117 -20 -135 -11 -11 -26 -20 -32 -21 -79 -6 -570 -2 -591 4 -41 13
-50 41 -50 154 0 112 13 149 55 155 21 3 573 2 591 -1z"/>
<path d="M3234 5305 c-1 -64 3 -85 13 -85 9 0 13 16 14 50 1 28 3 55 4 60 1 6
3 14 4 19 2 15 33 22 47 10 9 -8 14 -33 14 -75 0 -49 3 -64 15 -64 11 0 15 16
17 66 2 50 7 70 20 78 29 18 42 -7 42 -79 0 -54 3 -65 16 -63 12 3 14 17 13
72 -2 38 -8 75 -14 82 -15 18 -53 18 -69 -1 -11 -13 -14 -13 -27 0 -17 18 -37
19 -64 5 -13 -7 -19 -7 -19 0 0 5 -6 10 -13 10 -10 0 -13 -22 -13 -85z"/>
<path d="M4900 5546 c0 -108 -2 -110 -61 -81 -26 14 -54 25 -61 25 -23 0 -41
-43 -46 -111 -6 -85 4 -152 27 -181 l19 -22 52 27 c28 15 56 24 61 21 5 -3 9
-47 9 -97 l0 -92 313 0 312 0 1 280 c0 154 -1 286 -4 293 -3 9 -75 12 -313 12
l-309 0 0 -74z m600 -221 l0 -265 -290 0 -289 0 0 80 c0 119 -20 139 -93 88
-37 -25 -56 -23 -65 10 -12 43 -8 184 6 210 l12 23 46 -25 c25 -15 51 -26 58
-26 25 0 36 30 36 99 l0 71 290 0 289 0 0 -265z"/>
<path d="M5176 5419 c-14 -11 -23 -25 -20 -30 4 -6 13 -4 24 6 16 15 18 14 21
-7 2 -13 2 -50 -1 -83 -4 -51 -8 -60 -24 -60 -11 0 -21 -6 -24 -13 -5 -15 123
-17 133 -2 3 6 -1 11 -9 11 -9 1 -22 2 -28 3 -9 1 -14 30 -16 99 -3 106 -8
114 -56 76z"/>
<path d="M4080 5497 c-44 -22 -56 -63 -55 -178 1 -62 7 -114 14 -127 24 -45
57 -49 333 -48 l258 1 27 28 c27 26 28 32 31 140 4 128 -9 168 -61 186 -45 16
-515 14 -547 -2z m562 -35 c21 -21 23 -31 23 -137 -1 -168 17 -158 -287 -159
-134 -1 -256 2 -273 6 -48 13 -55 31 -55 153 0 113 5 132 42 152 10 5 133 9
273 8 251 0 255 -1 277 -23z"/>
<path d="M4227 5403 c-4 -3 -7 -19 -7 -35 0 -24 -4 -28 -30 -28 -18 0 -30 -5
-30 -13 0 -7 12 -13 28 -12 23 0 27 -4 30 -32 2 -18 9 -33 16 -33 8 0 12 13
12 33 -1 22 4 32 14 33 8 1 23 2 33 3 30 2 18 21 -13 21 -16 0 -31 5 -31 10
-1 6 -2 19 -3 29 -1 23 -10 34 -19 24z"/>
<path d="M258 4725 c-39 -22 -51 -70 -46 -191 3 -97 5 -106 30 -131 l27 -27
248 -1 c331 -2 333 -1 333 171 0 118 -11 159 -51 179 -41 22 -501 21 -541 0z
m546 -36 c21 -24 22 -36 21 -139 -1 -159 17 -150 -290 -150 -134 0 -251 3
-260 6 -31 12 -42 55 -40 163 3 155 -11 148 300 147 l247 -1 22 -26z"/>
<path d="M346 4608 c4 -7 16 -26 27 -41 l19 -28 -26 -39 c-30 -45 -31 -50 -13
-50 7 0 21 14 30 30 10 17 21 30 25 30 4 0 16 -13 25 -30 10 -16 25 -30 33
-30 16 0 14 6 -18 52 -24 34 -23 43 8 84 24 31 24 34 8 34 -11 0 -27 -14 -37
-32 l-18 -32 -21 32 c-18 30 -59 48 -42 20z"/>
<path d="M976 4584 c-9 -23 -8 -24 14 -24 13 0 20 7 20 20 0 24 -25 27 -34 4z"/>
<path d="M1030 4576 c0 -19 191 -17 198 2 3 9 -23 12 -97 12 -80 0 -101 -3
-101 -14z"/>
<path d="M977 4526 c-7 -19 4 -35 19 -29 18 7 18 40 -1 40 -8 0 -16 -5 -18
-11z"/>
<path d="M1030 4516 c0 -12 17 -15 98 -13 126 3 124 21 -3 25 -79 2 -95 0 -95
-12z"/>
<path d="M2850 4776 c0 -107 -3 -111 -56 -80 -84 49 -114 15 -114 -130 0 -139
32 -174 115 -124 19 11 39 17 45 13 6 -3 10 -45 10 -96 l0 -89 313 2 312 3 1
275 c0 151 -2 281 -4 288 -3 9 -75 12 -313 12 l-309 0 0 -74z m588 45 c9 -1
12 -61 12 -266 l0 -265 -289 0 -289 0 0 43 c0 125 -2 136 -22 147 -16 9 -29 6
-63 -15 -24 -14 -49 -25 -55 -25 -19 0 -30 60 -28 148 3 111 13 121 83 85 71
-36 83 -26 83 72 0 41 5 75 10 77 9 3 525 2 558 -1z"/>
<path d="M3111 4644 c-20 -25 -26 -57 -21 -114 7 -90 112 -108 140 -25 15 46
5 120 -21 146 -28 28 -73 25 -98 -7z m75 -8 c26 -20 27 -132 1 -151 -24 -17
-56 -8 -62 19 -12 58 -8 111 11 130 19 20 25 20 50 2z"/>
<path d="M4129 4843 c0 -5 -2 -39 -3 -78 -2 -38 -4 -76 -4 -83 -2 -10 -14 -7
-46 12 -25 14 -54 26 -65 26 -33 0 -52 -51 -53 -139 -1 -97 8 -137 34 -155 19
-13 26 -12 70 10 28 14 53 23 56 19 4 -3 7 -38 8 -78 1 -40 3 -80 3 -89 1 -17
28 -18 426 -18 l425 0 0 290 0 290 -425 0 c-234 0 -425 -3 -426 -7z m816 -22
c7 -1 10 -95 10 -266 l0 -265 -402 0 -403 0 0 84 c0 64 -4 88 -16 100 -20 20
-18 21 -75 -11 -68 -39 -74 -30 -74 108 0 133 5 139 82 101 54 -26 55 -27 69
-8 9 13 14 45 14 87 0 37 4 69 10 71 9 3 759 2 785 -1z"/>
<path d="M4283 4728 c-39 -19 -50 -59 -48 -176 1 -113 10 -143 48 -164 33 -17
487 -18 531 0 47 18 56 47 56 175 0 103 -2 114 -24 142 l-24 30 -259 2 c-169
1 -266 -2 -280 -9z m520 -20 c39 -15 47 -42 47 -159 0 -93 -2 -102 -25 -124
l-24 -25 -250 0 c-318 0 -297 -16 -291 220 1 44 5 59 24 76 22 20 35 21 257
22 145 0 245 -4 262 -10z"/>
<path d="M4370 4565 c0 -93 3 -115 14 -115 9 0 16 12 18 32 4 44 21 45 49 3
13 -19 32 -35 41 -35 15 0 11 9 -17 49 l-35 48 30 32 c33 34 36 41 17 41 -8 0
-29 -17 -48 -37 l-34 -38 -3 68 c-2 51 -6 67 -17 67 -12 0 -15 -21 -15 -115z"/>
<path d="M5599 4843 c-1 -5 -2 -35 -4 -68 -1 -33 -3 -71 -4 -83 l-1 -24 -46
26 c-60 34 -80 33 -99 -4 -33 -64 -23 -231 16 -263 20 -16 23 -16 70 10 27 14
52 23 56 20 3 -4 7 -46 8 -94 l1 -88 312 -3 312 -2 0 290 0 290 -310 0 c-170
0 -310 -3 -311 -7z m594 -22 c4 -1 7 -120 7 -266 l0 -265 -289 0 -289 0 -4 90
c-4 116 -12 124 -83 85 -75 -40 -80 -33 -80 106 0 133 5 139 82 101 54 -26 55
-27 69 -8 9 13 14 45 14 87 0 37 4 69 10 71 9 3 541 2 563 -1z"/>
<path d="M5860 4650 c-21 -21 -24 -36 -22 -105 2 -51 19 -84 49 -91 69 -18
102 33 95 147 -4 60 -80 91 -122 49z m73 -13 c31 -22 26 -148 -6 -160 -26 -10
-57 12 -59 40 -4 73 1 108 18 120 22 16 26 16 47 0z"/>
<path d="M6940 4776 c0 -107 -3 -111 -54 -81 -52 30 -67 31 -91 5 -24 -26 -34
-179 -15 -234 17 -53 38 -60 94 -30 26 14 51 22 56 19 6 -3 10 -46 10 -96 l0
-89 445 0 445 0 -2 288 -3 287 -442 3 -443 2 0 -74z m855 42 c5 -5 10 -446 6
-515 -1 -10 -92 -13 -420 -13 l-420 0 1 53 c1 92 -2 113 -16 133 -15 19 -16
18 -64 -8 -28 -16 -55 -28 -61 -28 -18 0 -28 61 -25 149 3 109 13 120 76 86
26 -14 54 -25 62 -25 19 0 29 38 29 110 0 30 3 57 8 60 11 7 817 5 824 -2z"/>
<path d="M7205 4650 c-36 -40 -36 -140 0 -180 10 -11 31 -20 47 -20 28 0 67
29 69 53 10 93 0 140 -31 157 -30 16 -65 12 -85 -10z m71 -14 c27 -20 28 -131
1 -151 -39 -28 -73 10 -70 78 0 9 1 26 2 36 1 20 26 51 40 51 4 0 16 -6 27
-14z"/>
<path d="M7461 4646 c-17 -18 -19 -26 -10 -31 7 -5 17 -2 23 7 16 21 47 30 62
17 27 -22 15 -54 -41 -107 -76 -73 -73 -82 20 -82 41 0 75 4 75 9 0 13 -20 18
-67 16 -24 -1 -43 1 -43 5 0 3 23 28 50 54 36 35 50 55 50 75 0 59 -76 82
-119 37z"/>
<path d="M7370 4470 c0 -11 7 -20 15 -20 8 0 15 6 15 14 0 8 -7 16 -15 20 -10
4 -15 -1 -15 -14z"/>
<path d="M8540 4776 c0 -107 -3 -111 -56 -80 -84 49 -114 14 -114 -132 0 -135
28 -169 105 -128 60 32 65 26 65 -84 l0 -82 313 2 312 3 0 285 0 285 -312 3
-313 2 0 -74z m600 -218 l0 -268 -291 0 -291 0 2 33 c4 77 -1 135 -14 153 -15
19 -16 18 -64 -8 -28 -16 -55 -28 -61 -28 -18 0 -29 61 -26 148 3 111 12 120
83 85 71 -37 84 -25 84 78 l0 74 289 0 289 0 0 -267z"/>
<path d="M8816 4649 c-14 -11 -23 -25 -20 -30 3 -6 14 -3 25 7 20 18 20 17 17
-67 -3 -80 -4 -84 -25 -83 -13 1 -23 -4 -23 -12 0 -11 17 -14 70 -14 56 0 68
3 64 14 -3 9 -15 13 -30 10 l-24 -4 0 100 c0 110 -5 117 -54 79z"/>
<path d="M9880 4783 c0 -38 -3 -78 -6 -91 l-6 -22 -44 25 c-60 35 -82 33 -100
-12 -12 -27 -15 -63 -12 -135 3 -84 6 -100 24 -119 l22 -21 52 28 c64 35 70
29 70 -83 l0 -83 313 0 312 0 -2 277 c-1 153 -2 284 -2 291 -1 9 -70 12 -311
12 l-310 0 0 -67z m598 -226 l2 -267 -290 0 -290 0 0 83 c0 57 -5 89 -14 103
-15 19 -16 18 -70 -11 -38 -20 -59 -26 -66 -19 -14 14 -24 131 -16 185 11 72
15 74 79 43 75 -37 87 -28 87 71 0 41 4 75 10 77 5 2 135 3 287 3 l278 0 3
-268z"/>
<path d="M10140 4650 c-20 -20 -23 -34 -22 -105 1 -72 37 -106 96 -91 34 8 52
64 48 147 -4 60 -80 91 -122 49z m84 -31 c7 -17 12 -43 10 -57 -1 -15 -3 -34
-3 -42 -2 -24 -16 -40 -39 -45 -31 -6 -51 37 -46 100 6 75 54 102 78 44z"/>
<path d="M2425 4550 l0 -140 32 0 c35 0 45 15 15 22 -16 5 -18 18 -17 132 1
107 -2 126 -15 126 -13 0 -15 -21 -15 -140z"/>
<path d="M3703 4550 c0 -110 3 -140 14 -140 9 0 13 14 14 43 2 191 4 212 18
212 8 0 16 6 19 13 2 8 -8 12 -31 12 l-34 0 0 -140z"/>
<path d="M1993 4673 c16 -4 22 -16 18 -36 -1 -5 3 -6 9 -2 15 9 -7 45 -28 44
-16 -1 -16 -2 1 -6z"/>
<path d="M1893 4663 c9 -2 25 -2 35 0 9 3 1 5 -18 5 -19 0 -27 -2 -17 -5z"/>
<path d="M5250 4640 c-11 -11 -20 -27 -20 -35 0 -9 -10 -20 -22 -25 -19 -7
-20 -9 -4 -9 11 -1 16 -6 13 -15 -3 -8 -11 -41 -18 -75 -10 -55 -38 -114 -39
-83 0 6 -8 12 -17 12 -16 0 -16 -2 -2 -15 33 -33 70 15 92 120 9 44 15 55 32
56 16 1 17 2 3 6 -22 6 -23 33 -2 59 11 13 17 15 20 7 8 -18 24 -16 24 2 0 22
-36 19 -60 -5z"/>
<path d="M9448 4633 c0 -4 -1 -19 -2 -33 -1 -21 -7 -26 -34 -28 -20 -2 -32 -8
-29 -15 2 -7 12 -11 21 -9 26 5 44 -15 40 -43 -1 -16 3 -25 12 -25 9 0 14 12
14 35 0 23 5 35 13 34 26 -3 47 1 47 11 0 6 -13 10 -30 10 -27 0 -30 3 -30 29
0 27 -18 54 -22 34z"/>
<path d="M6512 4612 c-24 -19 -30 -35 -31 -90 -1 -25 -8 -37 -33 -53 l-33 -21
49 5 c61 6 83 28 89 92 3 28 6 51 6 52 1 1 13 9 29 17 l27 15 -40 0 c-23 0
-50 -7 -63 -17z m38 -11 c-5 -11 -10 -37 -10 -57 0 -21 -7 -46 -17 -56 -18
-20 -49 -25 -37 -6 7 11 10 35 13 90 1 10 13 24 29 32 35 19 35 19 22 -3z"/>
<path d="M8050 4613 c0 -4 11 -19 25 -33 l25 -26 -25 -24 c-14 -13 -25 -27
-25 -32 0 -14 30 -9 36 6 10 25 36 27 60 5 12 -11 28 -18 34 -14 7 4 2 15 -15
30 -30 29 -31 41 -5 57 20 13 28 38 12 38 -5 0 -17 -9 -27 -20 -10 -11 -23
-20 -29 -20 -6 0 -17 9 -24 20 -11 19 -42 28 -42 13z"/>
<path d="M2083 4579 c36 -21 11 -109 -31 -109 -7 0 -12 -4 -12 -10 0 -18 19
-11 44 17 l25 26 6 -26 c8 -30 26 -35 45 -12 11 13 10 14 -3 10 -11 -5 -17 2
-22 24 -7 34 8 71 30 71 8 0 15 5 15 10 0 16 -12 12 -37 -12 l-23 -21 0 21 c0
17 -6 22 -27 22 -24 -1 -25 -2 -10 -11z"/>
<path d="M1979 4578 c0 -2 -2 -14 -3 -26 -2 -13 -9 -28 -17 -34 -11 -8 -11 -9
3 -5 9 3 19 1 21 -6 2 -7 3 7 3 31 0 35 -3 51 -7 40z"/>
<path d="M1941 4552 c-1 -14 -6 -22 -13 -19 -7 2 -12 10 -10 16 1 6 -2 11 -8
11 -5 0 -10 -5 -10 -11 0 -5 -6 -7 -12 -3 -8 4 -10 3 -5 -2 5 -5 12 -9 15 -9
4 0 13 -4 20 -9 18 -11 35 7 29 30 -4 15 -5 14 -6 -4z"/>
<path d="M253 3952 c-33 -26 -43 -64 -43 -167 0 -179 -3 -178 320 -178 328 0
324 -3 318 201 -3 113 -3 114 -33 138 -30 24 -31 24 -285 24 -226 0 -257 -2
-277 -18z m552 -26 c16 -15 20 -36 22 -115 2 -105 -9 -156 -37 -171 -10 -6
-100 -10 -203 -10 l-184 0 33 83 c44 112 50 137 32 137 -9 0 -22 -23 -33 -60
-10 -33 -21 -60 -24 -60 -3 0 -15 26 -27 58 -12 34 -27 58 -37 60 -15 3 -16 0
-6 -25 61 -159 59 -149 38 -172 -26 -28 -91 -29 -119 -1 -23 23 -22 15 -24
133 -2 105 6 140 37 155 14 7 107 10 268 9 226 -2 247 -4 264 -21z"/>
<path d="M974 3810 c0 -13 7 -20 18 -20 11 0 18 7 18 20 0 13 -7 20 -18 20
-11 0 -18 -7 -18 -20z"/>
<path d="M1030 3806 c0 -19 191 -17 198 2 3 9 -21 12 -97 12 -79 0 -101 -3
-101 -14z"/>
<path d="M974 3749 c0 -12 7 -19 18 -19 11 0 18 7 18 18 0 10 -8 18 -18 19
-11 1 -18 -5 -18 -18z"/>
<path d="M1032 3748 c3 -9 32 -13 98 -13 66 0 95 4 97 13 4 9 -20 12 -97 12
-77 0 -101 -3 -98 -12z"/>
<path d="M2850 4008 c0 -99 -8 -109 -58 -80 -84 47 -112 16 -112 -123 0 -145
30 -182 109 -134 53 32 61 22 61 -81 l0 -90 313 0 312 0 0 288 0 287 -312 3
-313 2 0 -72z m593 43 c4 -1 7 -120 7 -264 l0 -264 -287 1 -288 1 -2 35 c-1
19 -2 56 -2 81 -1 25 -7 53 -14 64 -13 17 -16 17 -72 -9 -32 -14 -60 -24 -62
-22 -25 25 -25 218 -1 243 14 13 21 11 67 -14 51 -27 52 -28 66 -9 13 17 21
92 15 135 -1 8 3 17 8 20 8 5 532 7 565 2z"/>
<path d="M3124 3892 c-39 -26 -49 -137 -16 -181 21 -29 60 -38 91 -22 45 24
52 150 10 192 -19 19 -64 25 -85 11z m83 -98 c1 -43 -2 -59 -18 -75 -10 -10
-23 -19 -28 -19 -18 0 -41 32 -42 58 -3 75 7 110 34 114 35 6 51 -17 54 -78z"/>
<path d="M4129 4078 c0 -2 -1 -38 -3 -80 -1 -43 -6 -81 -10 -85 -4 -4 -26 3
-49 16 -81 44 -108 13 -108 -129 0 -142 26 -174 108 -129 23 13 46 20 50 16 4
-4 8 -45 9 -90 1 -45 3 -85 3 -89 1 -5 192 -8 426 -8 l425 0 0 290 0 290 -425
0 c-234 0 -425 -1 -426 -2z m816 -27 c11 -1 14 -499 3 -517 -5 -7 -129 -11
-403 -11 l-395 0 0 71 c0 126 -13 140 -92 100 -37 -19 -53 -23 -62 -14 -7 7
-11 51 -11 115 0 83 3 108 16 120 15 15 20 14 67 -12 64 -35 75 -27 80 65 2
37 5 72 6 77 2 6 141 10 392 9 214 -1 394 -2 399 -3z"/>
<path d="M4285 3959 c-39 -19 -48 -49 -50 -159 -4 -194 -4 -193 289 -192 122
0 236 1 254 1 23 1 43 10 63 30 29 29 29 30 29 151 0 121 0 122 -29 151 l-29
29 -254 -1 c-146 0 -262 -5 -273 -10z m542 -32 c15 -14 19 -39 21 -132 4 -111
3 -115 -22 -140 l-25 -25 -240 0 c-132 0 -251 4 -264 9 -34 13 -39 32 -38 156
1 105 2 111 27 133 26 23 28 23 275 20 222 -3 250 -5 266 -21z"/>
<path d="M4370 3795 c0 -93 3 -115 14 -115 9 0 16 12 18 32 4 44 21 45 49 3
13 -19 32 -35 41 -35 15 0 12 9 -17 48 l-34 48 31 34 c21 23 27 35 18 38 -8 3
-31 -14 -52 -36 l-38 -41 0 69 c0 56 -3 70 -15 70 -12 0 -15 -19 -15 -115z"/>
<path d="M5599 4078 c-1 -2 -2 -38 -3 -80 -1 -43 -6 -81 -10 -85 -4 -4 -27 3
-51 16 -53 28 -76 25 -94 -14 -19 -40 -19 -190 0 -230 18 -39 41 -42 94 -14
24 13 47 20 51 17 3 -4 8 -44 9 -90 2 -46 4 -86 4 -90 1 -5 141 -8 311 -8
l310 0 0 290 0 290 -310 0 c-170 0 -310 -1 -311 -2z m594 -27 c4 -1 6 -119 5
-263 l-3 -263 -287 -1 -286 -1 -4 88 c-4 114 -11 121 -84 85 -38 -18 -60 -24
-67 -17 -12 12 -22 148 -13 193 12 62 18 65 80 32 69 -36 79 -29 84 64 2 37 5
72 6 77 2 6 104 9 282 8 154 0 282 -1 287 -2z"/>
<path d="M5867 3888 c-34 -26 -43 -124 -16 -175 14 -26 47 -38 83 -29 56 14
69 162 18 204 -9 6 -28 12 -42 12 -14 0 -34 -6 -43 -12z m78 -40 c22 -54 8
-132 -25 -141 -37 -10 -54 16 -54 83 0 50 3 65 19 76 29 22 45 17 60 -18z"/>
<path d="M6940 4000 c0 -93 -8 -102 -63 -70 -76 45 -105 8 -106 -133 -1 -136
31 -173 108 -126 53 32 61 22 61 -81 l0 -90 445 0 444 0 1 290 0 290 -445 0
-445 0 0 -80z m855 48 c5 -5 9 -361 6 -494 l-1 -31 -417 1 -418 1 -2 84 c-3
115 -14 126 -86 88 -29 -15 -55 -27 -59 -27 -27 0 -32 220 -5 247 12 13 21 11
65 -14 48 -26 52 -27 68 -11 12 12 17 34 17 87 0 55 3 71 15 73 30 6 811 2
817 -4z"/>
<path d="M7201 3874 c-29 -37 -31 -120 -5 -161 28 -45 105 -38 120 10 21 67 8
149 -26 167 -33 18 -68 11 -89 -16z m94 -44 c9 -42 -3 -108 -22 -119 -52 -28
-82 42 -58 136 11 45 69 33 80 -17z"/>
<path d="M7468 3886 c-17 -12 -25 -46 -12 -46 3 0 17 9 30 19 33 26 64 17 64
-18 0 -19 -15 -41 -55 -78 -76 -72 -74 -83 21 -83 56 0 75 3 72 12 -3 8 -23
13 -50 13 -26 0 -49 3 -52 6 -4 3 16 27 44 52 54 50 65 90 34 121 -19 19 -72
20 -96 2z"/>
<path d="M7376 3713 c-12 -12 -6 -33 9 -33 8 0 15 6 15 14 0 17 -14 28 -24 19z"/>
<path d="M8540 4000 c0 -93 -8 -102 -63 -70 -76 45 -105 8 -106 -133 -1 -136
31 -173 108 -126 53 32 61 22 61 -81 l0 -90 313 0 312 0 0 288 0 287 -312 3
-313 2 0 -80z m598 -211 l2 -266 -287 1 -288 1 -2 45 c-1 25 -2 61 -2 81 -1
19 -7 43 -14 54 -13 17 -16 17 -71 -9 -32 -15 -60 -25 -63 -23 -25 25 -25 219
0 244 12 13 20 11 64 -13 70 -39 83 -28 83 71 0 61 3 74 17 77 9 2 138 3 287
3 l271 0 3 -266z"/>
<path d="M8816 3879 c-14 -11 -23 -25 -20 -30 4 -6 13 -4 24 6 17 16 18 14 22
-44 4 -82 -3 -107 -30 -104 -14 2 -22 -3 -22 -12 0 -12 15 -15 70 -15 54 0 68
3 64 14 -3 7 -15 13 -27 12 -21 -1 -22 3 -25 97 -3 106 -8 114 -56 76z"/>
<path d="M9879 4001 c-2 -44 -7 -83 -12 -87 -4 -4 -25 3 -47 15 -82 46 -111
12 -111 -129 0 -142 29 -175 111 -129 53 30 60 20 60 -88 l0 -83 310 0 c241 0
310 3 311 13 1 15 1 526 0 550 -1 16 -23 17 -310 17 l-309 0 -3 -79z m594 50
c4 -1 6 -119 5 -263 l-3 -263 -287 -1 -288 -1 0 82 c0 52 -5 88 -13 100 -13
17 -16 17 -72 -9 -42 -19 -62 -23 -69 -16 -24 24 -13 250 12 250 4 0 31 -12
60 -27 52 -27 53 -28 68 -9 9 13 14 44 14 87 0 62 2 68 23 71 19 3 530 2 550
-1z"/>
<path d="M10147 3888 c-34 -26 -43 -124 -16 -175 23 -43 95 -43 117 -1 26 52
17 150 -16 176 -9 6 -28 12 -42 12 -14 0 -34 -6 -43 -12z m67 -24 c16 -15 17
-22 20 -74 4 -61 -27 -100 -63 -80 -34 18 -37 134 -4 157 22 17 28 16 47 -3z"/>
<path d="M2429 3913 c-4 -26 -4 -250 -1 -260 5 -15 62 -18 62 -3 0 6 -7 10
-15 10 -18 0 -17 -4 -19 139 -1 82 -5 116 -13 118 -7 3 -13 1 -14 -4z"/>
<path d="M3703 3780 c0 -111 3 -140 14 -140 14 0 14 1 15 154 0 88 2 99 19
103 31 8 22 23 -14 23 l-34 0 0 -140z"/>
<path d="M2002 3896 c7 -8 15 -12 17 -11 5 6 -10 25 -20 25 -5 0 -4 -6 3 -14z"/>
<path d="M1886 3892 c-2 -4 13 -6 35 -4 21 2 39 6 39 8 0 7 -69 4 -74 -4z"/>
<path d="M5246 3865 c-9 -13 -16 -29 -16 -35 0 -6 -10 -15 -22 -20 -19 -7 -20
-9 -4 -9 11 -1 16 -6 13 -15 -3 -8 -11 -41 -18 -75 -10 -55 -38 -114 -39 -83
0 6 -8 12 -17 12 -16 0 -16 -1 -1 -16 34 -34 74 25 94 139 5 29 11 37 28 38
17 1 17 2 4 6 -22 6 -23 33 -2 59 11 13 17 15 20 7 8 -18 24 -16 24 2 0 25
-46 18 -64 -10z"/>
<path d="M2019 3868 c-5 -19 -8 -50 -4 -46 7 7 15 48 9 48 -2 0 -4 -1 -5 -2z"/>
<path d="M9449 3866 c-1 -3 -3 -15 -4 -26 -1 -11 -3 -24 -4 -30 0 -5 -14 -10
-31 -10 -19 0 -30 -5 -30 -14 0 -9 9 -12 27 -10 32 3 43 -9 37 -43 -3 -16 0
-23 11 -23 10 0 15 10 15 34 0 32 2 34 30 32 19 -1 30 3 30 11 0 8 -12 13 -30
13 -27 0 -30 3 -30 29 0 25 -17 54 -21 37z"/>
<path d="M6521 3846 c-30 -16 -39 -38 -40 -89 -1 -31 -6 -41 -33 -57 l-33 -20
41 0 c61 0 94 30 94 84 0 44 12 66 45 84 18 10 16 11 -15 11 -19 0 -46 -6 -59
-13z m29 -15 c-5 -11 -10 -35 -10 -53 0 -38 -24 -78 -46 -78 -11 0 -12 5 -6
18 5 9 8 25 6 35 -6 41 25 87 64 96 1 1 -2 -8 -8 -18z"/>
<path d="M8050 3843 c0 -4 11 -19 25 -33 l25 -26 -25 -24 c-14 -13 -25 -27
-25 -32 0 -17 28 -7 46 17 l18 25 27 -26 c35 -34 58 -22 24 12 -31 31 -31 32
1 59 18 16 22 25 14 30 -6 4 -21 -2 -34 -14 -24 -22 -50 -20 -60 5 -5 14 -36
20 -36 7z"/>
<path d="M2082 3781 c11 -22 20 -60 21 -85 l2 -45 27 45 c16 24 28 47 28 51 0
5 -5 0 -11 -9 -13 -23 -29 -23 -29 1 0 36 -22 81 -40 81 -16 0 -16 -2 2 -39z"/>
<path d="M2150 3813 c0 -5 4 -15 10 -23 11 -18 25 -7 17 15 -6 15 -27 21 -27
8z"/>
<path d="M1975 3800 c-3 -5 -3 -15 1 -22 4 -6 -1 -17 -11 -25 -11 -7 -14 -13
-8 -13 16 0 28 20 28 48 1 24 -1 27 -10 12z"/>
<path d="M1905 3790 c-3 -5 -1 -10 4 -10 6 0 11 5 11 10 0 6 -2 10 -4 10 -3 0
-8 -4 -11 -10z"/>
<path d="M1941 3781 c-1 -18 -5 -22 -18 -16 -15 5 -16 4 -5 -6 16 -17 36 2 29
27 -4 15 -5 14 -6 -5z"/>
<path d="M2080 3641 c0 -8 -7 -10 -20 -6 -20 6 -28 -9 -11 -19 11 -7 48 21 38
30 -4 4 -7 2 -7 -5z"/>
<path d="M361 1800 c-1 -49 2 -90 6 -90 4 0 50 17 101 37 61 25 91 43 90 52
-3 11 -116 66 -179 86 -14 5 -17 -6 -18 -85z m142 1 c6 -6 -90 -51 -109 -51
-2 0 -4 22 -4 50 l0 50 53 -21 c28 -11 56 -24 60 -28z"/>
<path d="M1251 3186 c-16 -19 -26 -86 -14 -86 5 0 15 18 22 41 15 51 34 40 51
-31 21 -87 65 -101 94 -29 19 48 19 49 2 49 -7 0 -17 -14 -22 -32 -14 -49 -29
-43 -48 19 -10 32 -23 64 -28 71 -14 16 -43 15 -57 -2z"/>
<path d="M1190 2418 c0 -2 13 -40 29 -84 34 -93 53 -102 88 -38 30 54 35 124
10 124 -9 0 -13 -12 -12 -32 1 -34 -11 -72 -29 -97 -8 -11 -16 2 -32 55 -14
43 -28 70 -38 72 -9 2 -16 2 -16 0z"/>
<path d="M1263 1699 c4 -15 -3 -29 -24 -48 -37 -35 -47 -86 -25 -129 9 -18 23
-32 31 -32 15 0 19 -16 16 -52 -1 -10 4 -18 13 -18 12 0 16 10 16 35 0 23 5
35 13 35 26 0 50 39 49 76 -2 53 -9 70 -37 82 -19 9 -25 19 -25 42 0 21 -5 30
-16 30 -12 0 -15 -6 -11 -21z m0 -121 c-2 -75 -2 -75 -18 -54 -17 23 -19 59
-5 87 18 32 25 22 23 -33z m57 11 c6 -35 -6 -79 -22 -79 -4 0 -8 27 -8 61 0
44 3 60 13 57 6 -3 14 -20 17 -39z"/>
<path d="M1220 1087 c0 -7 9 -19 20 -27 26 -19 25 -26 -5 -55 -17 -15 -22 -26
-15 -30 7 -4 24 5 39 19 l27 26 22 -27 c15 -18 25 -24 32 -17 7 7 2 18 -15 34
l-25 24 27 28 c14 15 24 30 21 34 -8 8 -48 -14 -48 -26 0 -17 -26 -11 -45 10
-21 23 -35 26 -35 7z"/>
<path d="M1270 530 c0 -27 -3 -30 -30 -30 -18 0 -30 -5 -30 -13 0 -8 11 -12
30 -11 28 2 30 0 30 -32 0 -31 19 -50 21 -21 1 6 2 21 3 32 0 11 7 20 14 21 6
1 21 2 32 3 34 2 22 21 -14 21 -32 0 -34 2 -32 30 1 19 -3 30 -11 30 -8 0 -13
-12 -13 -30z"/>
<path d="M1981 2526 c-41 -23 -50 -53 -51 -163 0 -115 8 -145 45 -169 24 -16
73 -17 573 -16 653 0 584 -2 610 20 32 28 38 57 36 176 -1 110 -2 110 -33 138
l-31 28 -563 0 c-447 -1 -567 -3 -586 -14z m1164 -31 c24 -23 25 -30 25 -139
0 -173 65 -156 -610 -156 -530 0 -559 1 -581 19 -21 17 -23 26 -24 127 -2 117
5 146 39 162 14 7 215 11 574 11 l553 1 24 -25z"/>
<path d="M2131 2405 c-2 -16 -4 -46 -4 -66 0 -26 -5 -38 -20 -45 -11 -5 -22
-14 -24 -20 -6 -17 23 -24 41 -11 14 10 16 27 13 92 -1 44 -4 67 -6 50z"/>
<path d="M2680 2413 c0 -5 12 -43 26 -85 32 -98 51 -103 89 -24 28 58 30 109
4 114 -12 2 -14 -5 -11 -32 4 -35 -25 -113 -38 -99 -4 4 -15 36 -25 71 -11 36
-24 62 -32 62 -7 0 -13 -3 -13 -7z"/>
<path d="M2566 2326 c5 -14 -5 -16 -65 -16 -39 0 -71 -4 -71 -8 0 -4 32 -7 71
-6 56 1 69 -1 65 -12 -8 -20 8 -17 28 5 13 14 14 20 4 28 -28 22 -38 24 -32 9z"/>
<path d="M4779 2748 c0 -7 -2 -42 -3 -78 -2 -36 -4 -71 -4 -78 -2 -9 -17 -5
-52 13 -64 32 -76 32 -96 -6 -18 -36 -22 -186 -6 -229 19 -51 37 -56 94 -26
35 18 54 23 58 16 4 -6 7 -91 8 -188 0 -97 1 -185 1 -194 1 -17 94 -18 1806
-18 l1805 0 0 400 0 400 -1805 0 c-1437 0 -1805 -3 -1806 -12z m3586 -390 c0
-237 -4 -369 -10 -371 -5 -2 -806 -3 -1780 -2 l-1770 0 -5 198 c-6 233 -10
242 -93 185 -37 -27 -59 -20 -70 22 -12 47 -4 185 12 204 12 14 19 13 62 -12
39 -21 52 -25 66 -16 20 13 20 11 22 99 l1 65 1783 -2 1782 -3 0 -367z"/>
<path d="M6220 2578 c0 -99 -8 -109 -59 -80 -22 12 -49 22 -61 22 -32 0 -50
-55 -50 -155 0 -140 35 -178 113 -123 47 34 57 20 57 -82 l0 -90 425 0 425 0
0 290 0 290 -425 0 -425 0 0 -72z m816 43 c7 -1 10 -87 10 -264 l0 -264 -400
1 -401 1 -5 87 c-6 113 -15 122 -81 86 -27 -16 -53 -28 -59 -28 -32 0 -38 216
-7 247 12 13 21 11 66 -14 51 -27 52 -28 66 -9 10 13 15 44 15 87 0 37 5 69
10 71 9 3 759 2 786 -1z"/>
<path d="M6367 2520 c-35 -28 -43 -60 -42 -176 2 -111 16 -148 65 -161 46 -12
499 -7 523 6 37 20 47 46 48 133 2 155 1 157 -30 189 l-29 29 -255 0 c-239 0
-256 -1 -280 -20z m548 -25 c24 -23 25 -30 25 -139 0 -165 16 -156 -301 -156
l-248 0 -20 26 c-18 23 -21 41 -21 136 0 102 1 110 25 133 l24 25 246 0 246 0
24 -25z"/>
<path d="M6476 2380 c29 -43 28 -53 -12 -107 -15 -21 -15 -23 -1 -23 9 0 24
14 34 30 9 17 21 30 25 30 4 0 15 -13 25 -30 9 -16 23 -30 30 -30 19 0 16 11
-13 53 -23 34 -24 40 -11 55 8 9 20 27 26 40 10 18 9 22 -3 22 -9 0 -23 -14
-32 -32 l-16 -32 -27 32 c-38 47 -57 41 -25 -8z"/>
<path d="M7320 2565 c0 -52 -4 -85 -10 -85 -6 0 -28 9 -50 20 -22 11 -46 20
-54 20 -29 0 -48 -46 -52 -127 -4 -87 7 -142 34 -166 18 -16 22 -16 66 8 26
14 51 25 57 25 5 0 9 -42 9 -95 l0 -95 428 0 428 0 0 290 0 290 -428 0 -428 0
0 -85z m830 -206 l0 -266 -401 1 -402 1 -1 82 c-1 113 -13 125 -86 88 -32 -16
-56 -23 -62 -17 -9 9 -25 96 -22 120 1 6 2 31 3 55 0 24 7 51 14 61 13 17 16
17 65 -8 28 -14 56 -26 61 -26 13 0 29 64 29 119 0 24 4 46 10 50 6 3 186 6
401 6 l391 0 0 -266z"/>
<path d="M7474 2522 c-36 -29 -44 -57 -44 -161 0 -187 -4 -185 319 -184 267 0
280 3 306 53 18 35 21 200 4 249 -20 57 -40 61 -316 61 -220 0 -250 -2 -269
-18z m542 -26 c27 -23 28 -27 29 -127 2 -108 -9 -151 -40 -163 -9 -3 -99 -6
-199 -6 l-183 0 33 83 c44 112 50 137 32 137 -9 0 -22 -23 -33 -60 -10 -33
-21 -60 -24 -60 -3 0 -15 26 -27 58 -12 34 -27 58 -37 60 -14 3 -13 -6 10 -65
36 -95 40 -123 17 -140 -26 -19 -88 -16 -115 6 -23 18 -24 26 -25 133 -1 117
9 152 44 161 9 3 124 5 254 6 236 1 237 1 264 -23z"/>
<path d="M5065 2540 c-3 -5 1 -10 9 -10 9 0 16 5 16 10 0 6 -4 10 -9 10 -6 0
-13 -4 -16 -10z"/>
<path d="M5100 2542 c0 -6 26 -9 65 -7 39 1 65 -1 65 -7 0 -6 6 -6 14 1 18 15
87 -15 79 -35 -3 -8 -1 -14 4 -14 15 0 10 -233 -5 -238 -7 -2 -12 -11 -12 -20
1 -13 5 -12 21 8 15 18 20 35 17 67 -2 24 -1 43 2 43 3 0 4 17 3 37 -1 21 -2
55 -2 75 -1 25 -9 46 -27 65 -24 26 -31 28 -125 31 -62 3 -99 0 -99 -6z"/>
<path d="M5034 2532 c-17 -11 -45 -70 -36 -76 5 -3 14 11 21 30 7 19 17 32 22
29 5 -4 9 1 9 9 0 18 -1 18 -16 8z"/>
<path d="M5609 2488 c-1 -2 -3 -65 -4 -140 l-1 -138 55 0 c53 1 55 2 31 14
-25 14 -25 16 -23 126 1 95 4 113 20 125 16 13 13 14 -29 15 -27 0 -49 -1 -49
-2z m39 -140 c-4 -161 -22 -159 -26 2 -2 103 0 120 13 120 13 0 15 -17 13
-122z"/>
<path d="M5765 2480 c3 -5 13 -10 21 -10 11 0 14 -23 14 -125 0 -102 -2 -123
-14 -119 -8 3 -17 1 -21 -5 -4 -7 11 -11 44 -11 l51 0 0 140 0 140 -51 0 c-31
0 -48 -4 -44 -10z m79 -135 c1 -79 -3 -116 -11 -119 -17 -7 -20 9 -17 134 2
135 1 127 16 112 7 -7 12 -53 12 -127z"/>
<path d="M4994 2410 c0 -16 3 -30 7 -30 9 0 17 32 12 48 -8 23 -19 12 -19 -18z"/>
<path d="M5147 2428 c-15 -5 -25 -14 -21 -19 3 -5 -2 -12 -10 -15 -16 -6 -12
-24 5 -24 6 0 7 5 4 10 -3 6 -1 10 4 10 6 0 11 6 11 14 0 22 60 14 73 -10 26
-45 11 -67 -46 -69 -18 0 -29 5 -33 17 -3 10 -10 18 -15 18 -28 0 18 -47 53
-54 56 -10 92 86 41 109 -13 5 -23 13 -23 17 0 10 -8 9 -43 -4z"/>
<path d="M4995 2311 c2 -36 9 -68 19 -82 9 -13 16 -20 16 -16 0 5 6 2 14 -6
19 -19 256 -21 256 -2 0 6 -7 12 -15 12 -8 0 -15 -3 -15 -7 0 -3 -44 -5 -98
-4 -115 1 -159 19 -160 63 0 79 -3 101 -10 101 -5 0 -7 -26 -7 -59z"/>
<path d="M9230 2570 c0 -93 -9 -103 -61 -71 -78 48 -109 10 -109 -129 0 -104
18 -150 57 -150 15 0 39 9 53 20 50 39 60 24 60 -91 l0 -79 478 2 477 3 0 285
0 285 -477 3 -478 2 0 -80z m928 -211 l2 -266 -455 0 -455 0 0 83 c0 62 -4 87
-16 98 -20 20 -15 21 -74 -11 -43 -24 -52 -26 -60 -13 -26 41 -23 211 4 238
11 11 22 9 65 -15 51 -27 52 -28 66 -9 10 13 15 44 15 87 0 37 4 69 10 71 5 2
209 3 452 3 l443 -1 3 -265z"/>
<path d="M9369 2512 l-31 -28 -1 -120 c0 -133 11 -167 63 -181 45 -12 603 -7
628 6 41 22 52 60 49 178 -3 115 -12 143 -54 162 -15 7 -132 11 -323 11 l-300
0 -31 -28z m657 -15 c26 -23 27 -28 29 -126 1 -102 -9 -145 -38 -163 -7 -4
-145 -8 -308 -8 -373 0 -349 -11 -349 156 0 109 1 116 25 139 l24 25 295 0
c295 0 295 0 322 -23z"/>
<path d="M9478 2413 c-3 -7 -2 -117 1 -150 0 -7 7 -13 14 -13 8 0 12 16 12 53
-1 65 3 84 21 91 34 13 44 -4 44 -75 0 -55 3 -69 15 -69 12 0 15 14 15 65 0
55 3 66 21 75 32 18 48 -3 48 -63 -1 -73 -1 -77 14 -77 18 0 16 132 -2 154
-15 18 -52 21 -68 5 -8 -8 -17 -7 -32 2 -16 11 -27 11 -51 2 -16 -6 -30 -7
-30 -2 0 11 -17 12 -22 2z"/>
<path d="M10899 2578 c-1 -40 -1 -77 0 -81 3 -18 -29 -17 -60 2 -79 49 -109
13 -109 -129 0 -92 14 -142 43 -153 8 -3 34 6 57 19 43 25 72 25 69 2 -1 -7
-1 -48 0 -91 l1 -77 312 2 312 3 1 270 c0 149 -1 278 -4 288 -3 16 -26 17
-312 17 l-309 0 -1 -72z m601 -219 l0 -266 -290 0 -290 0 0 82 c0 56 -5 87
-15 101 -14 19 -15 18 -65 -8 -27 -16 -54 -28 -59 -28 -32 0 -40 216 -9 246
14 14 20 13 67 -13 51 -27 52 -28 66 -9 10 13 15 44 15 87 0 55 3 68 17 71 9
2 140 3 290 3 l273 0 0 -266z"/>
<path d="M11176 2449 c-33 -26 -34 -47 -1 -25 l25 16 0 -84 c0 -79 -1 -85 -19
-81 -11 2 -25 -3 -32 -11 -10 -12 -1 -14 60 -14 58 0 71 3 71 16 0 8 -4 13 -9
10 -5 -4 -16 -3 -25 0 -13 5 -16 23 -16 100 0 103 -6 111 -54 73z"/>
<path d="M12239 2648 c-1 -2 -2 -38 -3 -80 -1 -42 -5 -80 -9 -85 -4 -4 -27 3
-50 16 -79 43 -107 13 -109 -116 -2 -97 8 -139 35 -158 19 -13 25 -12 69 12
26 14 51 23 55 19 4 -4 8 -46 8 -94 l1 -87 312 -3 312 -2 0 290 0 290 -310 0
c-170 0 -310 -1 -311 -2z m594 -27 c4 -1 6 -119 5 -263 l-3 -263 -285 0 -285
0 -2 60 c-6 137 -18 150 -94 108 -68 -39 -74 -30 -74 107 0 137 5 143 79 104
70 -37 79 -29 84 71 4 67 6 74 26 77 19 3 529 2 549 -1z"/>
<path d="M12500 2450 c-21 -21 -26 -50 -22 -132 4 -62 78 -90 120 -45 38 40
33 153 -7 184 -24 19 -69 15 -91 -7z m75 -13 c26 -20 27 -134 1 -153 -25 -18
-58 -3 -67 29 -12 43 -2 110 17 124 22 16 26 16 49 0z"/>
<path d="M8617 2483 c-2 -5 -3 -66 -3 -138 l1 -130 48 -3 c28 -2 47 1 47 7 0
6 -3 10 -7 10 -25 -4 -28 8 -26 108 1 60 2 116 2 125 1 11 6 15 16 12 8 -4 15
-1 15 5 0 12 -87 16 -93 4z m41 -135 c-4 -161 -22 -159 -26 2 -2 103 0 120 13
120 13 0 15 -17 13 -122z"/>
<path d="M8775 2480 c3 -5 13 -10 21 -10 12 0 14 -20 12 -122 -2 -86 -7 -123
-15 -123 -6 0 -15 -3 -19 -7 -4 -5 16 -8 44 -8 l52 0 0 140 0 140 -51 0 c-31
0 -48 -4 -44 -10z m78 -113 c-2 -146 -2 -147 -16 -142 -9 4 -12 38 -12 125 0
99 3 120 14 118 12 -2 15 -23 14 -101z"/>
<path d="M11806 2432 c-2 -4 -3 -20 -2 -35 3 -25 0 -27 -30 -27 -19 0 -34 -4
-34 -10 0 -5 11 -10 25 -10 27 0 45 -24 38 -51 -4 -13 0 -19 11 -19 12 0 16 9
16 34 0 29 3 34 26 34 14 0 31 5 37 11 8 8 1 11 -26 11 -34 0 -37 2 -37 29 0
30 -14 49 -24 33z"/>
<path d="M3841 2421 c-9 -6 3 -7 32 -4 36 4 46 2 50 -11 4 -14 5 -13 3 1 -1
20 -61 30 -85 14z"/>
<path d="M4205 2419 c-4 -6 -4 -13 -1 -16 3 -4 6 0 6 7 0 9 12 11 46 7 29 -3
41 -1 33 4 -20 12 -76 11 -84 -2z"/>
<path d="M3705 2409 c-4 -6 -4 -13 -1 -16 3 -4 6 -1 6 5 0 6 8 13 18 15 15 4
15 5 0 6 -9 0 -20 -4 -23 -10z"/>
<path d="M3798 2413 c7 -3 16 -2 19 1 4 3 -2 6 -13 5 -11 0 -14 -3 -6 -6z"/>
<path d="M4358 2413 c7 -3 16 -2 19 1 4 3 -2 6 -13 5 -11 0 -14 -3 -6 -6z"/>
<path d="M10410 2413 c0 -4 11 -19 25 -33 l25 -26 -25 -24 c-14 -13 -25 -27
-25 -32 0 -16 25 -8 38 12 7 11 18 20 26 20 7 0 21 -9 31 -20 35 -38 49 -19
15 20 -25 29 -25 29 2 57 30 32 14 42 -20 11 l-27 -26 -25 24 c-24 24 -40 30
-40 17z"/>
<path d="M3760 2380 c8 -5 11 -10 6 -10 -22 0 19 -30 42 -30 14 0 22 3 18 7
-4 4 -16 8 -26 8 -32 0 -23 20 12 26 29 6 26 7 -17 8 -36 0 -46 -2 -35 -9z"/>
<path d="M4201 2374 c0 -11 3 -14 6 -6 3 7 2 16 -1 19 -3 4 -6 -2 -5 -13z"/>
<path d="M4290 2386 c0 -2 16 -6 35 -8 19 -2 35 0 35 4 0 4 -16 8 -35 8 -19 0
-35 -2 -35 -4z"/>
<path d="M4303 2348 c-15 -7 -14 -8 5 -4 13 2 26 -2 33 -12 10 -16 10 -16 5 0
-3 9 0 19 7 21 7 3 2 4 -10 4 -12 -1 -30 -5 -40 -9z"/>
<path d="M4202 2325 c0 -16 2 -22 5 -12 2 9 2 23 0 30 -3 6 -5 -1 -5 -18z"/>
<path d="M3787 2314 c2 -7 11 -10 19 -7 19 7 18 10 -5 16 -13 3 -18 1 -14 -9z"/>
<path d="M3912 2300 c0 -14 2 -19 5 -12 2 6 2 18 0 25 -3 6 -5 1 -5 -13z"/>
<path d="M4310 2316 c0 -2 7 -7 16 -10 8 -3 12 -2 9 4 -6 10 -25 14 -25 6z"/>
<path d="M2091 1691 c-24 -24 -36 -79 -27 -127 9 -45 38 -74 74 -74 44 0 66
31 70 103 3 52 0 66 -18 90 -26 33 -71 36 -99 8z m73 -17 c24 -24 22 -126 -3
-148 -25 -22 -58 -7 -67 30 -10 39 3 107 22 121 23 17 29 16 48 -3z"/>
<path d="M2091 1131 c-58 -58 -27 -201 43 -201 47 0 69 31 74 101 3 54 1 68
-18 92 -26 33 -71 36 -99 8z m73 -17 c24 -24 22 -126 -3 -148 -25 -22 -58 -7
-67 30 -10 39 3 107 22 121 23 17 29 16 48 -3z"/>
<path d="M2363 1133 c-13 -8 -23 -22 -23 -30 0 -13 3 -13 25 1 l25 16 0 -80
c0 -56 -4 -80 -12 -82 -7 0 -19 -2 -27 -2 -8 -1 -16 -7 -19 -14 -3 -9 15 -12
67 -12 39 0 71 4 71 9 0 12 -29 23 -41 15 -10 -6 -11 20 -9 129 1 59 -1 67
-17 66 -10 0 -28 -7 -40 -16z"/>
<path d="M2263 963 c-18 -6 -16 -33 1 -33 8 0 17 4 20 8 7 12 -7 30 -21 25z"/>
<path d="M2102 593 c-30 -12 -47 -94 -33 -165 3 -20 44 -48 69 -48 44 0 66 31
70 103 3 52 0 66 -18 90 -21 26 -54 34 -88 20z m62 -29 c24 -24 22 -126 -3
-148 -22 -20 -54 -10 -65 20 -14 36 -6 104 14 124 24 24 34 25 54 4z"/>
</g>
</svg>
