<?xml version="1.0" standalone="no"?>
<!DOCTYPE svg PUBLIC "-//W3C//DTD SVG 20010904//EN"
 "http://www.w3.org/TR/2001/REC-SVG-20010904/DTD/svg10.dtd">
<svg version="1.0" xmlns="http://www.w3.org/2000/svg"
 width="1366.000000pt" height="521.000000pt" viewBox="0 0 1366.000000 521.000000"
 preserveAspectRatio="xMidYMid meet">
<metadata>
Created by potrace 1.16, written by Peter Selinger 2001-2019
</metadata>
<g transform="translate(0.000000,521.000000) scale(0.100000,-0.100000)"
fill="#000000" stroke="none">
<path d="M390 5062 c-32 -14 -58 -38 -79 -72 l-21 -35 0 -2335 0 -2335 21 -42
c15 -30 33 -48 63 -62 l42 -21 4730 0 4729 0 -2 413 -2 412 -3505 3 -3506 2 0
218 0 218 5258 0 c2891 -1 5265 1 5275 3 16 3 17 35 17 502 l0 499 -632 0
c-348 0 -2866 0 -5595 0 l-4963 0 0 220 0 220 283 2 282 3 2 215 c0 118 2 220
2 225 1 8 916 11 2992 10 1645 0 2994 2 2998 5 4 3 7 190 7 416 l0 411 -1348
-1 c-741 -1 -1348 3 -1348 7 0 5 -5 5 -12 1 -13 -8 -3927 -12 -3929 -4 -1 3
-2 101 -2 218 -2 206 -1 212 18 213 11 0 220 2 465 2 l445 2 1 238 1 237
-1126 0 c-1097 0 -1127 -1 -1155 -19 -17 -11 -35 -17 -40 -14 -6 3 -8 3 -4 -2
11 -12 -23 -34 -52 -35 -14 0 -49 16 -77 35 -50 33 -56 35 -135 34 -46 0 -90
-3 -98 -7z m227 -47 c29 -19 65 -35 80 -35 16 0 52 16 80 35 l52 35 1114 0
1114 0 1 -219 1 -219 -1112 3 -1112 2 -52 -33 c-74 -48 -91 -48 -161 -5 l-60
37 -127 -1 -127 -1 4 176 c3 166 4 177 26 205 36 45 60 54 147 55 75 0 83 -2
132 -35z m-7 -454 c74 -48 100 -48 168 -4 l55 37 316 1 c174 1 322 -1 329 -3
12 -4 18 -103 6 -115 -3 -3 -24 4 -45 15 -22 11 -46 17 -54 14 -23 -8 -35 -50
-35 -121 0 -113 26 -144 91 -108 21 11 40 18 43 15 4 -3 6 -320 6 -704 l0
-698 -333 0 -333 0 -50 -35 c-27 -19 -60 -35 -74 -35 -14 0 -49 16 -77 35
l-52 35 -131 0 -130 0 0 849 c0 795 1 850 17 853 10 2 66 3 124 3 105 -1 109
-2 159 -34z m1516 -246 c0 -154 -2 -286 -4 -293 -3 -9 -13 -7 -39 8 -43 25
-69 25 -83 0 -12 -22 -15 -151 -5 -193 10 -38 46 -45 86 -17 20 15 33 19 38
12 5 -8 7 -568 2 -620 -1 -10 -10 -8 -35 7 -72 45 -97 21 -97 -92 -1 -130 18
-154 89 -118 47 24 50 21 48 -59 l-1 -55 -307 -3 -308 -2 0 698 c0 557 -3 702
-13 716 -12 17 -15 17 -56 -5 -42 -21 -44 -22 -57 -4 -16 22 -14 169 3 186 9
9 20 6 46 -10 62 -38 77 -24 77 70 0 25 2 48 4 50 3 2 141 4 308 4 l303 -1 1
-279z m6641 -574 l0 -396 -3304 1 c-1816 0 -3306 4 -3310 8 -4 4 -8 115 -8
246 0 171 -3 242 -12 251 -9 9 -21 7 -54 -10 -58 -30 -71 -17 -71 76 0 77 7
113 25 113 7 0 27 -9 45 -20 18 -11 37 -20 42 -20 12 0 24 38 26 90 1 25 2 48
3 51 1 4 1490 6 3310 6 l3309 0 -1 -396z m-6000 -633 l1 -218 -311 0 -312 0 0
70 c-1 92 -11 102 -71 71 -60 -32 -66 -23 -66 94 0 96 8 106 67 76 58 -29 68
-21 71 56 1 32 3 61 3 64 1 4 139 6 309 5 l307 -1 2 -217z m-2151 -273 c32
-23 60 -35 82 -35 21 0 50 12 82 35 l50 35 365 0 365 0 0 -60 c0 -64 -8 -72
-44 -45 -11 8 -32 15 -47 15 -24 0 -30 -6 -38 -37 -22 -79 -8 -194 25 -207 8
-3 33 3 54 14 22 11 42 20 45 20 3 0 5 -355 5 -790 l0 -790 -366 0 -367 0 -53
-35 c-29 -19 -64 -35 -78 -35 -14 0 -48 16 -75 35 l-48 35 -132 0 -131 0 0
940 0 940 128 0 128 0 50 -35z m1584 -249 c0 -157 -4 -287 -8 -290 -5 -3 -28
4 -51 16 -40 19 -44 20 -59 4 -14 -13 -17 -37 -17 -117 0 -87 3 -102 19 -114
16 -12 24 -11 58 6 21 11 43 17 48 14 11 -7 14 -787 4 -798 -3 -3 -21 3 -40
14 -71 39 -94 14 -94 -101 0 -118 24 -148 89 -112 21 12 41 19 45 15 3 -3 6
-35 6 -70 l0 -63 -309 0 -309 0 1 778 c0 427 -3 787 -7 800 -9 27 -32 28 -71
2 -40 -26 -42 -26 -55 16 -14 43 -9 146 9 167 10 13 17 12 56 -9 44 -25 44
-25 55 -4 6 11 11 45 11 75 l1 55 309 0 309 0 0 -284z m11188 -658 l-3 -482
-5255 -1 c-2890 0 -5402 1 -5582 3 l-328 3 0 317 c0 174 -3 327 -6 340 -7 26
-40 30 -70 7 -25 -19 -50 -19 -58 1 -10 26 -7 154 4 175 11 19 11 19 50 -1 68
-35 80 -24 80 73 l0 47 5585 0 5585 0 -2 -482z m-10550 -720 l2 -218 -310 0
-310 0 0 63 c0 40 -5 70 -15 83 -14 19 -15 19 -56 -3 -59 -32 -69 -21 -69 81
0 109 6 117 66 88 59 -29 67 -22 72 62 l4 64 307 -1 306 -2 3 -217z m-2222
-273 c32 -23 60 -35 82 -35 21 0 50 12 82 35 47 33 54 35 135 35 l85 0 0 -60
c0 -65 -8 -72 -48 -44 -33 23 -75 15 -83 -16 -13 -48 -10 -160 7 -191 16 -32
34 -33 81 -3 12 8 27 14 33 14 7 0 10 -83 10 -245 l0 -245 -292 0 c-329 0
-344 3 -380 70 -16 32 -18 64 -18 377 l0 343 128 0 128 0 50 -35z m9237 -360
l0 -390 -4417 -3 -4416 -2 0 239 c0 132 -3 246 -6 255 -8 22 -36 20 -78 -5
l-36 -21 -10 27 c-11 29 -13 127 -4 163 8 27 23 28 72 2 35 -19 38 -19 50 -3
6 9 12 43 12 75 l0 58 4416 -2 4417 -3 0 -390z"/>
<path d="M1260 4835 c0 -57 4 -95 10 -95 6 0 10 5 10 12 0 9 3 9 12 0 17 -17
53 -15 68 3 16 20 17 89 1 109 -16 19 -52 21 -70 4 -10 -11 -12 -9 -11 7 4 36
0 55 -10 55 -6 0 -10 -38 -10 -95z m86 0 c10 -39 -3 -75 -26 -75 -12 0 -25 10
-32 25 -15 33 3 75 32 75 13 0 22 -9 26 -25z"/>
<path d="M1490 4901 c0 -28 -2 -29 -33 -24 -22 3 -37 0 -45 -9 -18 -22 -21
-85 -5 -108 16 -22 53 -26 71 -8 9 9 12 9 12 0 0 -7 5 -12 10 -12 6 0 10 38
10 95 0 57 -4 95 -10 95 -5 0 -10 -13 -10 -29z m-9 -48 c0 -5 2 -18 5 -31 10
-54 -49 -89 -62 -37 -11 42 3 75 31 75 14 0 25 -3 26 -7z"/>
<path d="M2304 4835 c0 -70 4 -95 13 -95 10 0 13 24 13 95 0 73 -3 95 -13 95
-11 0 -14 -22 -13 -95z"/>
<path d="M2360 4920 c0 -5 4 -10 9 -10 6 0 13 5 16 10 3 6 -1 10 -9 10 -9 0
-16 -4 -16 -10z"/>
<path d="M490 4890 c0 -16 4 -30 10 -30 5 0 8 13 7 30 -3 39 -17 39 -17 0z"/>
<path d="M537 4913 c-10 -10 -8 -53 2 -53 5 0 9 14 9 30 -1 33 -1 33 -11 23z"/>
<path d="M760 4830 l0 -90 61 0 c37 0 58 4 54 10 -3 6 -23 10 -45 10 -21 0
-40 5 -42 13 -3 6 -4 42 -3 80 2 51 -1 67 -11 67 -11 0 -14 -21 -14 -90z"/>
<path d="M1838 4913 c-2 -5 -3 -44 -3 -88 l0 -80 39 -3 c21 -2 51 2 66 8 63
26 66 131 3 159 -27 12 -100 15 -105 4z m106 -36 c45 -45 10 -117 -56 -117
-28 0 -28 0 -28 70 l0 70 30 0 c19 0 40 -9 54 -23z"/>
<path d="M2700 4895 c0 -8 -5 -15 -11 -15 -7 0 -8 -7 -4 -17 5 -10 8 -38 9
-62 1 -49 25 -76 48 -53 9 9 8 12 -5 12 -14 0 -17 10 -17 49 0 30 5 52 13 55
10 5 10 7 0 12 -7 3 -13 12 -13 20 0 8 -4 14 -10 14 -5 0 -10 -7 -10 -15z"/>
<path d="M910 4865 c-17 -21 -7 -29 18 -14 21 13 52 7 52 -11 0 -5 -9 -10 -21
-10 -47 0 -77 -36 -59 -71 12 -22 49 -25 69 -6 11 10 14 10 18 0 3 -7 14 -13
25 -13 18 0 19 2 7 16 -7 8 -13 36 -14 60 -1 28 -7 49 -15 55 -23 14 -66 11
-80 -6z m70 -68 c0 -19 -21 -37 -42 -37 -18 0 -25 29 -11 43 12 12 53 7 53 -6z"/>
<path d="M1045 4813 c1 -87 22 -98 27 -13 3 69 1 80 -16 80 -8 0 -12 -20 -11
-67z"/>
<path d="M1080 4870 c0 -5 9 -10 20 -10 21 0 22 -5 23 -82 0 -25 4 -38 13 -38
9 0 14 18 16 58 3 50 6 57 26 60 21 3 22 0 22 -57 0 -45 4 -61 14 -61 10 0 13
15 12 58 -1 31 -5 63 -10 70 -9 15 -48 16 -63 1 -8 -8 -13 -8 -17 0 -9 14 -56
15 -56 1z"/>
<path d="M1563 4873 c-15 -6 -17 -33 -3 -33 6 0 10 5 10 10 0 13 47 13 55 -1
9 -14 6 -16 -32 -22 -45 -7 -53 -14 -53 -47 0 -24 5 -31 27 -36 14 -4 33 -2
42 3 11 7 21 7 33 -1 9 -5 21 -6 25 -2 4 5 2 11 -4 13 -8 3 -13 23 -13 52 0
26 -5 52 -12 59 -12 12 -52 15 -75 5z m67 -69 c0 -18 -23 -44 -39 -44 -23 0
-37 30 -19 42 15 9 58 11 58 2z"/>
<path d="M2020 4821 c0 -69 9 -79 68 -78 l42 2 0 67 c0 52 -3 68 -14 68 -10 0
-13 -11 -11 -38 3 -55 -10 -84 -37 -80 -25 3 -25 4 -27 73 -2 67 -21 55 -21
-14z"/>
<path d="M2160 4783 c0 -75 3 -93 15 -93 9 0 13 9 12 28 -2 25 1 27 29 24 18
-2 36 3 43 12 21 25 24 75 7 101 -14 21 -23 24 -61 23 l-45 -2 0 -93z m88 24
c-2 -32 -8 -43 -22 -46 -26 -4 -44 23 -38 57 7 41 20 54 44 41 15 -8 18 -19
16 -52z"/>
<path d="M2360 4810 c0 -50 4 -70 13 -70 9 0 13 20 13 70 0 51 -4 70 -13 70
-9 0 -13 -19 -13 -70z"/>
<path d="M2429 4864 c-21 -25 -17 -93 6 -110 35 -26 85 -12 85 25 0 11 -4 11
-19 -3 -33 -30 -56 -17 -59 32 -4 48 16 64 50 43 25 -15 35 -7 18 14 -16 20
-64 19 -81 -1z"/>
<path d="M2560 4865 c-17 -21 -7 -29 18 -14 22 14 56 5 50 -12 -2 -7 -17 -13
-33 -15 -43 -5 -61 -27 -47 -59 13 -27 49 -34 71 -12 11 10 14 10 18 0 3 -7
14 -13 25 -13 16 0 18 3 9 14 -6 7 -13 34 -15 61 -2 26 -10 51 -17 56 -22 14
-65 10 -79 -6z m70 -68 c0 -19 -21 -37 -42 -37 -18 0 -25 29 -11 43 12 12 53
7 53 -6z"/>
<path d="M2777 4862 c-23 -25 -22 -85 1 -105 23 -21 66 -22 82 -2 17 21 7 29
-18 14 -24 -15 -48 -7 -55 20 -5 19 -1 21 44 21 41 0 49 3 49 18 0 46 -72 69
-103 34z m73 -17 c11 -13 7 -15 -30 -15 -37 0 -41 2 -30 15 7 8 20 15 30 15
10 0 23 -7 30 -15z"/>
<path d="M1698 4754 c5 -9 7 -26 5 -38 -4 -17 -3 -18 6 -6 16 23 13 60 -4 60
-12 0 -14 -4 -7 -16z"/>
<path d="M405 3865 c-23 -22 -25 -31 -25 -123 0 -94 1 -101 26 -126 l27 -26
173 0 c109 0 182 4 198 11 34 16 47 61 45 150 -2 77 -17 122 -44 133 -9 3 -97
6 -196 6 -178 0 -180 0 -204 -25z m409 -17 c12 -16 16 -47 16 -110 0 -130 3
-128 -213 -128 -223 0 -217 -4 -217 127 0 139 -9 133 216 133 178 0 183 -1
198 -22z"/>
<path d="M507 3833 c-4 -3 -7 -14 -7 -24 0 -9 -6 -20 -12 -23 -10 -5 -10 -7 0
-12 7 -4 12 -27 12 -65 0 -33 4 -59 10 -59 11 0 12 5 12 73 0 33 5 47 14 47 8
0 14 5 14 10 0 6 -7 10 -15 10 -8 0 -15 5 -15 10 0 6 7 13 15 16 8 4 15 10 15
15 0 10 -33 12 -43 2z"/>
<path d="M956 3773 c-12 -12 -6 -33 9 -33 8 0 15 6 15 14 0 17 -14 28 -24 19z"/>
<path d="M996 3761 c-7 -10 68 -18 125 -13 21 2 39 8 39 13 0 12 -157 12 -164
0z"/>
<path d="M950 3705 c0 -8 7 -15 15 -15 8 0 15 7 15 15 0 8 -7 15 -15 15 -8 0
-15 -7 -15 -15z"/>
<path d="M998 3707 c8 -9 33 -12 79 -11 87 3 83 2 83 14 0 6 -35 10 -86 10
-70 0 -84 -2 -76 -13z"/>
<path d="M1700 4395 c0 -37 4 -65 10 -65 6 0 10 8 11 18 0 9 2 38 3 65 2 34
-1 47 -10 47 -10 0 -14 -17 -14 -65z"/>
<path d="M1700 4295 c0 -8 7 -15 15 -15 8 0 15 4 15 9 0 5 -7 11 -15 15 -9 3
-15 0 -15 -9z"/>
<path d="M1700 3834 c0 -3 7 -12 15 -20 19 -20 19 -47 0 -84 -29 -56 -36 -80
-22 -80 6 0 21 22 33 48 l20 47 13 -40 c15 -43 27 -62 37 -53 5 6 -36 131 -56
169 -10 17 -40 27 -40 13z"/>
<path d="M1726 3178 c-5 -19 -15 -28 -30 -29 -16 -1 -17 -2 -3 -6 23 -6 24
-63 1 -63 -13 0 -14 -3 -4 -15 7 -8 10 -22 6 -30 -3 -8 -2 -15 3 -15 5 0 12
12 15 26 8 32 42 29 39 -4 -4 -30 13 -28 21 3 4 14 11 23 16 20 5 -3 11 -1 15
5 3 5 -1 10 -10 10 -20 0 -11 38 13 58 9 7 11 12 4 12 -7 0 -12 12 -13 28 l-1
27 -11 -27 c-6 -16 -19 -28 -28 -28 -12 0 -19 9 -21 28 l-4 27 -8 -27z m44
-69 c0 -25 -4 -29 -26 -29 -20 0 -25 4 -20 16 3 9 6 21 6 28 0 6 9 12 20 13
16 1 20 -4 20 -28z"/>
<path d="M3147 4063 c-2 -5 -3 -34 -2 -66 3 -66 -9 -79 -47 -53 -31 22 -65 20
-78 -4 -17 -32 -14 -177 5 -206 19 -29 30 -30 74 -3 18 11 36 17 40 14 3 -4 6
-77 7 -163 1 -86 2 -160 3 -164 0 -5 1230 -8 2731 -8 l2730 0 0 330 0 330
-2729 0 c-1502 0 -2732 -3 -2734 -7z m5443 -322 l0 -308 -2710 -1 c-2010 0
-2710 3 -2711 12 0 6 -1 77 -2 158 -2 175 -7 185 -69 150 -59 -32 -70 -19 -69
88 0 46 5 88 11 94 7 7 21 4 45 -7 46 -22 75 -22 77 1 0 9 2 35 3 57 2 22 3
46 4 53 1 9 550 12 2711 12 l2710 0 0 -309z"/>
<path d="M4106 3972 c-2 -4 -3 -31 -2 -60 2 -72 -3 -77 -53 -51 -37 19 -44 20
-57 7 -26 -26 -33 -70 -25 -184 0 -12 9 -32 20 -45 l18 -23 43 23 c23 12 44
20 46 18 2 -2 5 -37 6 -78 l3 -74 393 -3 392 -2 0 240 0 240 -389 0 c-215 0
-392 -3 -395 -8z m764 -232 l0 -220 -372 0 -373 0 -1 64 c-1 103 -12 113 -81
76 -34 -18 -38 -18 -47 -3 -14 26 -12 168 3 187 12 15 16 14 46 -4 62 -38 78
-24 79 67 l0 53 373 0 373 0 0 -220z"/>
<path d="M4338 3816 c-10 -7 -18 -19 -18 -27 0 -10 3 -10 12 -1 21 21 24 14
25 -53 1 -62 0 -65 -23 -65 -13 0 -24 -4 -24 -10 0 -5 25 -10 55 -10 30 0 55
5 55 10 0 6 -9 10 -20 10 -18 0 -20 7 -20 80 0 84 -6 94 -42 66z"/>
<path d="M4458 3816 c-10 -7 -18 -19 -18 -27 0 -10 3 -10 12 -1 22 22 28 12
28 -53 0 -63 -1 -65 -25 -65 -14 0 -25 -4 -25 -10 0 -6 27 -10 60 -10 64 0 74
5 36 20 -22 8 -24 13 -23 82 2 78 -9 92 -45 64z"/>
<path d="M4596 3817 c-12 -9 -20 -30 -23 -63 -5 -64 13 -98 53 -102 41 -4 64
23 66 80 4 79 -46 122 -96 85z m64 -26 c24 -46 5 -121 -31 -121 -11 0 -23 9
-28 23 -8 22 -5 92 5 108 10 16 43 10 54 -10z"/>
<path d="M5429 3973 c-1 -5 -2 -34 -3 -65 -1 -31 -4 -60 -8 -63 -3 -4 -25 3
-49 15 l-43 22 -18 -22 c-18 -22 -19 -30 -20 -100 -1 -75 3 -99 21 -121 l18
-23 43 23 c23 12 45 20 48 17 3 -3 6 -38 7 -78 l1 -73 402 -3 402 -2 0 240 0
240 -400 0 c-220 0 -401 -3 -401 -7z m781 -233 l0 -220 -383 0 -382 0 1 58 c1
66 -9 102 -30 102 -8 0 -31 -9 -50 -21 l-35 -20 -12 23 c-16 29 -16 147 0 176
l12 23 33 -21 c62 -38 78 -26 82 59 1 31 3 57 3 59 1 1 172 2 381 2 l380 0 0
-220z"/>
<path d="M5648 3819 c-19 -11 -25 -39 -8 -39 6 0 10 4 10 9 0 15 40 24 54 11
21 -16 8 -47 -34 -80 -21 -16 -40 -39 -43 -50 -5 -18 0 -20 54 -20 33 0 59 4
59 10 0 6 -18 10 -40 10 -22 0 -40 3 -40 7 0 4 18 24 40 44 41 38 51 74 28 97
-15 15 -57 15 -80 1z"/>
<path d="M5786 3814 c-30 -30 -16 -46 15 -18 21 19 59 10 59 -14 0 -10 -20
-37 -45 -60 -63 -59 -60 -72 15 -72 33 0 60 4 60 10 0 6 -20 10 -45 10 -25 0
-45 4 -45 8 0 5 18 23 40 41 30 24 40 39 40 61 0 46 -61 68 -94 34z"/>
<path d="M5934 3816 c-15 -12 -19 -27 -19 -76 0 -49 4 -64 19 -76 52 -37 96
-4 97 75 2 78 -44 115 -97 77z m66 -25 c24 -45 5 -121 -29 -121 -31 0 -47 75
-27 126 8 21 44 17 56 -5z"/>
<path d="M6819 3973 c-1 -5 -2 -34 -3 -65 -1 -31 -4 -59 -7 -63 -4 -3 -26 4
-49 16 l-43 23 -18 -23 c-17 -21 -21 -43 -21 -111 0 -68 4 -90 21 -111 l18
-23 43 23 c23 12 45 19 48 16 3 -3 7 -36 8 -73 1 -37 2 -70 3 -74 0 -5 116 -8
256 -8 l255 0 0 240 0 240 -255 0 c-140 0 -255 -3 -256 -7z m491 -40 c1 -39 1
-352 1 -385 l-1 -28 -235 0 c-129 0 -235 3 -236 8 0 4 -2 34 -3 67 -3 91 -16
102 -79 65 -48 -29 -59 -12 -60 89 -1 102 11 120 60 91 19 -11 41 -20 49 -20
20 0 33 40 31 94 l-2 46 238 0 237 0 0 -27z"/>
<path d="M7048 3816 c-10 -7 -18 -19 -18 -27 0 -10 3 -10 12 -1 21 21 25 13
25 -53 0 -62 -1 -65 -23 -65 -13 0 -24 -4 -24 -10 0 -6 27 -10 61 -10 37 0 58
4 54 10 -3 6 -15 10 -26 10 -17 0 -19 7 -19 80 0 84 -6 94 -42 66z"/>
<path d="M7920 3916 c0 -36 -4 -67 -8 -70 -5 -3 -28 4 -51 16 -40 19 -44 20
-59 4 -14 -13 -17 -36 -17 -116 0 -80 3 -103 17 -116 15 -16 19 -15 59 4 23
12 46 19 51 16 4 -3 8 -39 8 -80 l0 -74 260 0 259 0 0 240 0 240 -260 0 -259
0 0 -64z m497 -176 l0 -220 -239 0 -238 0 0 58 c0 107 -11 117 -80 82 -39 -20
-39 -20 -50 -1 -13 25 -13 142 0 176 l10 27 36 -21 c67 -40 84 -27 84 65 l0
54 238 0 238 0 1 -220z"/>
<path d="M8135 3810 c-25 -28 -25 -112 0 -140 43 -48 105 -7 105 70 0 77 -62
118 -105 70z m73 -29 c6 -16 9 -38 7 -48 -2 -10 -4 -26 -4 -35 -1 -22 -38 -33
-56 -18 -18 15 -20 101 -3 118 21 21 46 13 56 -17z"/>
<path d="M3757 3843 c-6 -10 -7 -215 -2 -224 3 -3 17 -4 31 -1 25 4 25 6 10
17 -14 11 -17 31 -18 114 0 89 -7 118 -21 94z"/>
<path d="M5080 3840 c0 -5 7 -10 15 -10 12 0 15 -18 15 -105 0 -78 3 -105 13
-105 9 0 12 28 12 115 l0 115 -27 0 c-16 0 -28 -4 -28 -10z"/>
<path d="M3350 3745 l0 -95 95 0 95 0 0 95 0 95 -95 0 -95 0 0 -95z m170 0 l0
-75 -73 0 -72 0 -2 67 c-2 44 2 70 10 75 6 4 40 8 75 8 l62 0 0 -75z"/>
<path d="M3467 3794 c-9 -10 2 -24 19 -24 8 0 14 7 14 15 0 15 -21 21 -33 9z"/>
<path d="M3392 3704 c4 -21 22 -23 26 -1 2 10 -3 17 -13 17 -10 0 -15 -6 -13
-16z"/>
<path d="M7560 3770 c0 -25 -4 -30 -25 -30 -14 0 -25 -4 -25 -10 0 -5 11 -10
25 -10 20 0 25 -5 25 -25 0 -14 5 -25 10 -25 6 0 10 11 10 25 0 20 5 25 24 25
14 0 28 5 31 10 4 6 -7 10 -24 10 -28 0 -31 3 -31 30 0 17 -4 30 -10 30 -5 0
-10 -13 -10 -30z"/>
<path d="M6420 3781 c0 -5 7 -14 15 -21 16 -14 20 -40 6 -40 -10 0 -24 -30
-17 -37 2 -2 13 6 25 18 l21 23 25 -24 c28 -27 36 -8 8 22 -15 17 -15 19 2 38
10 11 15 23 11 28 -4 4 -16 -3 -26 -15 -17 -22 -18 -22 -35 -3 -19 21 -35 26
-35 11z"/>
<path d="M2330 3830 c0 -5 5 -10 10 -10 6 0 15 -11 21 -24 9 -19 6 -32 -15
-74 -27 -54 -32 -72 -18 -72 5 0 17 18 27 40 10 22 22 40 26 40 5 0 14 -18 20
-40 7 -22 18 -40 25 -40 10 0 5 23 -17 82 -16 45 -35 88 -41 95 -12 15 -38 17
-38 3z"/>
<path d="M2681 3707 c-8 -11 -6 -18 11 -33 19 -17 21 -17 15 -2 -5 15 3 18 56
21 l62 3 -63 2 c-39 1 -61 6 -57 12 9 15 -11 12 -24 -3z"/>
<path d="M2358 3186 c-10 -7 -18 -19 -18 -27 0 -10 3 -10 12 -1 21 21 24 14
25 -53 1 -62 0 -65 -23 -65 -13 0 -24 -4 -24 -10 0 -6 27 -10 61 -10 37 0 58
4 54 10 -3 6 -15 10 -26 10 -17 0 -19 7 -19 80 0 84 -6 94 -42 66z"/>
<path d="M2485 3178 c-18 -27 0 -39 19 -13 16 22 50 16 54 -10 2 -13 -13 -36
-43 -65 -61 -60 -59 -70 15 -70 71 0 81 18 13 22 l-48 3 42 38 c22 21 43 49
46 62 9 51 -67 76 -98 33z"/>
<path d="M418 2065 c-33 -19 -41 -55 -36 -166 5 -122 -2 -119 270 -119 l219 0
24 25 c23 22 25 32 25 119 0 111 -3 122 -41 141 -41 22 -422 21 -461 0z m460
-21 c20 -14 22 -23 22 -111 0 -140 14 -133 -248 -133 -265 0 -252 -6 -252 127
0 138 -10 133 248 133 172 0 211 -3 230 -16z"/>
<path d="M513 1973 c-15 -6 -17 -33 -3 -33 6 0 10 5 10 10 0 16 47 12 54 -5 5
-13 -5 -19 -26 -16 -4 0 -19 -4 -33 -9 -35 -13 -36 -67 -1 -76 14 -3 32 -1 42
4 12 7 23 6 35 -1 10 -6 22 -7 26 -3 4 5 2 11 -4 13 -8 3 -13 23 -13 52 0 26
-5 52 -12 59 -12 12 -52 15 -75 5z m67 -76 c0 -18 -21 -37 -41 -37 -24 0 -33
18 -19 35 15 19 60 20 60 2z"/>
<path d="M1026 1963 c-12 -12 -6 -33 9 -33 8 0 15 6 15 14 0 17 -14 28 -24 19z"/>
<path d="M1065 1948 c6 -15 165 -12 165 3 0 5 -38 9 -85 9 -63 0 -83 -3 -80
-12z"/>
<path d="M1033 1913 c-18 -7 -16 -33 2 -33 8 0 15 9 15 20 0 11 -1 20 -2 19
-2 0 -9 -3 -15 -6z"/>
<path d="M1066 1901 c-9 -13 12 -17 82 -15 82 3 82 2 82 14 0 13 -157 14 -164
1z"/>
<path d="M1774 2680 c2 -78 20 -78 23 0 2 44 -1 60 -10 60 -10 0 -13 -17 -13
-60z"/>
<path d="M1776 2583 c-11 -11 -6 -23 9 -23 8 0 15 4 15 9 0 13 -16 22 -24 14z"/>
<path d="M1770 2020 c0 -5 5 -10 10 -10 6 0 14 -10 19 -22 6 -16 0 -40 -20
-85 -20 -45 -24 -63 -15 -63 8 0 22 21 33 47 l19 48 19 -48 c10 -26 24 -47 31
-47 11 0 9 12 -7 53 -12 28 -26 66 -32 82 -5 17 -14 36 -20 43 -11 14 -37 16
-37 2z"/>
<path d="M1796 1275 c-4 -14 -14 -25 -24 -25 -15 -1 -15 -2 -2 -13 20 -16 14
-57 -8 -58 -11 0 -12 -3 -4 -6 6 -2 12 -17 13 -31 l1 -27 11 27 c14 35 47 34
48 -2 0 -25 0 -25 9 -2 5 12 19 26 32 31 l22 8 -22 5 c-25 7 -21 33 6 56 12 9
12 12 3 12 -9 0 -12 9 -9 25 3 14 2 25 -2 25 -4 0 -11 -11 -14 -25 -4 -17 -13
-25 -27 -25 -17 0 -20 5 -17 25 3 14 2 25 -2 25 -4 0 -11 -11 -14 -25z m37
-41 c21 -8 9 -54 -14 -54 -24 0 -29 10 -18 38 9 24 10 25 32 16z"/>
<path d="M3224 2341 c-2 -2 -4 -32 -4 -66 0 -34 -3 -64 -6 -68 -3 -3 -26 4
-50 16 -42 20 -45 20 -62 4 -21 -21 -30 -166 -13 -209 12 -32 40 -36 81 -13
51 29 50 33 50 -240 l0 -255 5005 0 5005 0 0 418 0 417 -5001 0 c-2750 0
-5003 -2 -5005 -4z m9984 -412 l2 -396 -4982 1 -4983 1 -5 247 c-3 161 -9 251
-16 258 -8 8 -24 5 -57 -11 -26 -13 -50 -19 -54 -15 -15 15 -15 170 -1 189 13
17 15 17 56 -5 42 -23 43 -23 57 -4 9 12 15 42 15 75 l0 56 4983 0 4982 -1 3
-395z"/>
<path d="M4199 2255 c0 -3 -1 -31 -1 -62 -1 -82 -4 -87 -43 -63 -64 39 -91 21
-95 -66 -4 -87 1 -122 19 -145 l19 -24 45 22 46 22 5 -27 c3 -15 5 -90 4 -167
l-1 -140 2672 -3 2671 -2 -2 327 -3 328 -2667 3 c-1468 1 -2668 0 -2669 -3z
m5318 -327 l3 -308 -2650 0 c-2113 0 -2650 3 -2650 13 -1 6 -2 78 -3 159 -2
176 -6 184 -72 148 -24 -13 -47 -21 -51 -17 -20 20 -20 184 0 204 4 4 27 -3
52 -16 55 -29 64 -23 70 50 3 30 7 59 9 65 2 8 742 11 2647 10 l2643 -1 2
-307z"/>
<path d="M5159 2163 c-1 -5 -3 -34 -4 -66 -1 -31 -5 -60 -9 -64 -4 -4 -20 1
-35 10 -39 23 -68 21 -81 -3 -17 -32 -17 -173 -1 -204 17 -31 35 -33 80 -5 18
11 35 18 38 16 2 -3 5 -38 6 -78 l3 -74 367 -3 367 -2 0 240 0 240 -365 0
c-201 0 -366 -3 -366 -7z m702 -21 c3 -1 6 -99 6 -217 l0 -215 -346 0 -346 0
-1 70 c-1 92 -11 102 -69 71 -25 -13 -48 -22 -50 -19 -22 22 -26 181 -5 202 7
7 25 3 54 -11 56 -27 67 -17 71 64 2 32 4 58 4 59 2 2 676 -3 682 -4z"/>
<path d="M5376 2004 c-9 -8 -16 -18 -17 -22 0 -4 -2 -16 -5 -27 -6 -31 5 -83
22 -100 43 -43 99 0 98 76 -1 76 -55 116 -98 73z m62 -16 c7 -7 12 -33 12 -58
0 -49 -13 -70 -41 -70 -21 0 -33 31 -31 84 2 51 32 72 60 44z"/>
<path d="M5602 2004 c-28 -19 -30 -39 -2 -24 19 10 20 8 20 -55 0 -58 -2 -65
-20 -65 -11 0 -20 -4 -20 -10 0 -5 25 -10 55 -10 30 0 55 5 55 10 0 6 -9 10
-19 10 -24 0 -27 10 -26 93 1 71 -5 78 -43 51z"/>
<path d="M5510 1855 c0 -8 5 -15 10 -15 6 0 10 7 10 15 0 8 -4 15 -10 15 -5 0
-10 -7 -10 -15z"/>
<path d="M6420 2100 c0 -38 -4 -70 -8 -70 -4 0 -25 9 -47 20 -44 22 -57 17
-74 -30 -13 -38 -8 -158 8 -188 14 -27 37 -28 76 -2 17 11 33 20 37 20 4 0 8
-35 10 -77 l3 -78 365 0 365 0 1 220 c1 121 0 228 -3 238 -4 16 -30 17 -369
17 l-364 0 0 -70z m711 36 c1 -6 2 -104 3 -218 l1 -208 -346 0 -347 0 0 58 c1
68 -8 102 -27 102 -8 0 -30 -10 -50 -21 -49 -29 -58 -17 -60 78 -3 115 12 132
78 93 44 -26 55 -14 58 60 1 30 3 58 5 61 6 12 684 6 685 -5z"/>
<path d="M6639 1999 c-18 -18 -21 -30 -17 -77 3 -38 11 -59 23 -68 52 -38 99
4 96 84 -2 76 -55 108 -102 61z m71 -18 c24 -46 5 -121 -31 -121 -11 0 -23 9
-28 23 -9 24 -7 89 4 107 10 17 44 11 55 -9z"/>
<path d="M6843 1974 c-2 -46 -2 -46 27 -40 43 8 60 -2 60 -35 0 -38 -24 -48
-62 -26 -23 13 -28 14 -28 2 0 -17 31 -35 59 -35 27 0 61 34 61 60 0 29 -36
60 -69 60 -24 0 -28 3 -24 20 4 16 14 20 44 20 22 0 39 5 39 10 0 6 -24 10
-53 10 l-52 0 -2 -46z"/>
<path d="M6776 1855 c4 -8 10 -15 15 -15 5 0 9 7 9 15 0 8 -7 15 -15 15 -9 0
-12 -6 -9 -15z"/>
<path d="M7740 2100 c0 -74 -7 -83 -44 -55 -11 8 -32 15 -47 15 -24 0 -30 -6
-38 -37 -22 -77 -6 -198 26 -210 9 -4 33 3 54 15 21 12 40 22 43 22 4 0 6 -36
6 -80 l0 -80 260 0 260 0 0 240 0 240 -260 0 -260 0 0 -70z m500 -172 l0 -218
-240 0 -240 0 0 64 c0 103 -10 113 -75 75 -24 -15 -40 -18 -46 -12 -14 14 -23
105 -15 158 8 51 18 55 74 25 35 -19 38 -19 50 -3 6 9 12 42 12 73 l0 57 240
0 240 0 0 -219z"/>
<path d="M7972 2004 c-12 -8 -22 -20 -22 -27 0 -8 3 -8 12 1 22 22 28 12 28
-53 0 -58 -2 -65 -20 -65 -11 0 -20 -4 -20 -10 0 -5 25 -10 55 -10 54 0 77 15
33 22 -22 3 -23 7 -21 81 1 82 -4 90 -45 61z"/>
<path d="M8849 2168 c-1 -2 -3 -32 -5 -67 -1 -34 -5 -65 -7 -68 -3 -2 -19 3
-36 11 -70 37 -92 13 -94 -104 -2 -82 14 -130 42 -130 9 0 31 9 50 21 18 11
36 18 39 15 3 -3 5 -38 6 -78 l1 -73 258 -3 257 -2 0 240 0 240 -255 0 c-140
0 -256 -1 -256 -2z m491 -240 l0 -218 -237 2 -237 3 -2 68 c-2 88 -11 97 -69
69 -25 -12 -47 -22 -49 -22 -22 0 -28 182 -7 203 8 8 23 5 55 -10 56 -28 68
-17 71 65 2 31 3 57 4 58 1 0 107 1 236 1 l235 0 0 -219z"/>
<path d="M9066 2004 c-33 -32 -32 -116 0 -149 21 -20 57 -19 77 3 31 34 27
133 -6 154 -20 13 -55 9 -71 -8z m62 -16 c7 -7 12 -33 12 -58 0 -25 -5 -51
-12 -58 -21 -21 -46 -13 -55 16 -23 69 15 140 55 100z"/>
<path d="M4802 1925 l-1 -115 30 0 c18 0 28 4 24 10 -4 6 -11 8 -16 5 -9 -6
-13 65 -9 168 1 34 -2 47 -12 47 -12 0 -15 -24 -16 -115z"/>
<path d="M6080 2030 c0 -5 7 -10 15 -10 12 0 15 -18 15 -105 0 -63 4 -105 10
-105 6 0 10 45 10 115 l0 115 -25 0 c-14 0 -25 -4 -25 -10z"/>
<path d="M4400 1935 l0 -95 95 0 95 0 0 95 0 95 -95 0 -95 0 0 -95z m170 -1
l0 -75 -72 3 -73 3 -1 72 0 72 73 0 73 0 0 -75z"/>
<path d="M4520 1975 c0 -8 7 -15 15 -15 8 0 15 7 15 15 0 8 -7 15 -15 15 -8 0
-15 -7 -15 -15z"/>
<path d="M4442 1894 c4 -21 22 -23 26 -1 2 10 -3 17 -13 17 -10 0 -15 -6 -13
-16z"/>
<path d="M8490 1960 c0 -25 -4 -30 -25 -30 -14 0 -25 -4 -25 -10 0 -5 11 -10
25 -10 20 0 25 -5 25 -25 0 -14 5 -25 10 -25 6 0 10 11 10 25 0 20 5 25 25 25
14 0 25 5 25 10 0 6 -11 10 -25 10 -21 0 -25 5 -25 30 0 17 -4 30 -10 30 -5 0
-10 -13 -10 -30z"/>
<path d="M7350 1961 c5 -11 15 -23 21 -26 7 -5 3 -15 -11 -30 -12 -13 -17 -26
-12 -29 5 -3 17 3 27 14 18 20 18 20 42 -2 30 -28 43 -15 15 15 l-22 23 22 22
c29 29 15 42 -15 14 l-24 -22 -18 20 c-23 26 -39 26 -25 1z"/>
<path d="M10120 2106 c0 -36 -4 -68 -10 -71 -5 -3 -23 1 -39 10 -73 37 -95 7
-89 -122 2 -62 7 -87 20 -100 17 -16 20 -16 62 4 24 12 47 19 50 16 3 -4 6
-39 6 -80 l0 -73 258 0 259 0 -1 238 -1 237 -257 3 -258 2 0 -64z m491 35 c1
-3 2 -102 3 -218 l1 -213 -237 0 -238 0 0 63 c0 40 -5 70 -15 83 -14 19 -15
19 -57 -4 -40 -21 -43 -22 -55 -6 -13 18 -18 149 -7 178 8 21 22 20 69 -4 50
-25 58 -17 63 64 l4 63 234 0 c129 0 235 -3 235 -6z"/>
<path d="M10334 1999 c-25 -27 -24 -111 1 -139 33 -36 84 -20 100 31 11 35 -4
108 -25 119 -29 16 -55 12 -76 -11z m75 -34 c10 -36 9 -46 -3 -82 -8 -25 -35
-30 -54 -11 -7 7 -12 33 -12 58 0 49 13 70 42 70 11 0 20 -12 27 -35z"/>
<path d="M11220 2100 c0 -74 -7 -83 -44 -55 -11 8 -32 15 -47 15 -36 0 -49
-38 -46 -133 5 -113 29 -139 92 -97 17 11 33 20 38 20 4 0 7 -36 7 -80 l0 -80
368 0 367 0 0 238 -1 237 -367 3 -367 2 0 -70z m710 39 c4 -5 4 -384 1 -421
-1 -5 -156 -8 -346 -8 l-345 0 0 64 c0 103 -10 113 -75 75 -24 -15 -40 -18
-46 -12 -14 14 -23 105 -15 158 8 51 21 56 71 25 47 -29 65 -12 66 66 l2 61
341 0 c187 0 343 -3 346 -8z"/>
<path d="M11436 1998 c-9 -12 -16 -43 -16 -68 0 -55 22 -90 56 -90 40 0 64 33
64 90 0 37 -5 55 -20 70 -27 27 -65 26 -84 -2z m68 -7 c12 -20 16 -79 7 -104
-12 -32 -45 -36 -61 -8 -24 45 -5 121 30 121 10 0 21 -4 24 -9z"/>
<path d="M11668 2006 c-10 -7 -18 -19 -18 -27 0 -10 3 -10 12 -1 21 21 24 14
24 -53 1 -62 0 -65 -23 -65 -12 0 -23 -4 -23 -10 0 -5 25 -10 55 -10 30 0 55
5 55 10 0 6 -9 10 -20 10 -18 0 -20 7 -20 80 0 84 -6 94 -42 66z"/>
<path d="M11576 1855 c4 -8 10 -15 15 -15 5 0 9 7 9 15 0 8 -7 15 -15 15 -9 0
-12 -6 -9 -15z"/>
<path d="M12540 2100 c0 -75 -8 -84 -46 -55 -10 8 -31 15 -45 15 -35 0 -49
-34 -49 -120 0 -118 24 -148 89 -112 21 12 41 19 45 15 3 -3 6 -39 6 -80 l0
-73 260 0 260 0 0 240 0 240 -260 0 -260 0 0 -70z m496 -172 l1 -218 -238 0
-239 0 0 64 c0 103 -12 115 -78 74 -34 -21 -35 -21 -48 -3 -9 12 -14 46 -14
91 0 112 9 121 78 84 35 -19 38 -19 50 -3 6 9 12 42 12 73 l0 57 238 -1 237
-1 1 -217z"/>
<path d="M12757 2002 c-22 -24 -23 -110 -1 -140 19 -28 57 -29 84 -2 15 15 20
33 20 70 0 37 -5 55 -20 70 -25 25 -62 26 -83 2z m67 -11 c11 -17 14 -84 6
-107 -11 -29 -45 -32 -60 -5 -24 45 -5 121 30 121 10 0 21 -4 24 -9z"/>
<path d="M9760 2009 c0 -12 -12 -33 -26 -46 -22 -20 -25 -30 -21 -60 3 -19 17
-45 31 -58 16 -15 23 -30 20 -39 -4 -10 -1 -16 9 -16 8 0 15 6 14 13 -1 32 4
47 16 47 38 0 44 92 7 120 -11 9 -22 25 -24 35 -4 27 -26 31 -26 4z m2 -101
c-2 -53 -9 -59 -20 -17 -6 21 -5 41 0 52 14 27 22 13 20 -35z m46 23 c4 -28
-7 -76 -15 -67 -12 12 -11 97 1 93 6 -2 12 -14 14 -26z"/>
<path d="M3455 1980 c-4 -6 -10 -24 -15 -40 -11 -40 8 -40 21 0 14 39 26 38
34 -2 21 -98 70 -117 90 -35 5 17 3 27 -4 27 -6 0 -11 -6 -11 -13 0 -7 -6 -22
-14 -32 -12 -17 -15 -13 -33 41 -15 44 -25 60 -40 62 -12 2 -24 -2 -28 -8z"/>
<path d="M12186 1982 c-3 -5 -4 -19 -1 -31 3 -18 -1 -21 -26 -21 -37 0 -38
-18 -1 -22 19 -2 27 -9 27 -22 0 -11 5 -21 11 -23 7 -2 11 6 10 19 -1 18 5 24
27 26 15 2 27 7 27 12 0 5 -12 10 -27 12 -21 2 -28 8 -28 25 0 25 -10 39 -19
25z"/>
<path d="M3802 1969 c3 -8 14 -40 24 -72 13 -41 22 -57 33 -55 22 4 64 92 56
118 -10 31 -25 24 -25 -12 -1 -18 -7 -44 -15 -58 -15 -27 -13 -29 -38 44 -8
22 -20 42 -27 44 -8 3 -11 -1 -8 -9z"/>
<path d="M10830 1961 c5 -11 15 -23 21 -26 7 -5 2 -16 -12 -31 -28 -30 -16
-45 13 -16 l22 22 23 -22 c30 -28 43 -15 15 15 l-22 23 22 22 c29 29 15 42
-15 14 l-24 -22 -18 20 c-23 26 -39 26 -25 1z"/>
<path d="M2411 2017 c30 -23 32 -54 5 -113 -30 -64 -30 -64 -15 -64 5 0 19 21
31 47 l21 47 17 -44 c9 -24 22 -46 29 -48 15 -5 15 -4 -13 69 -40 106 -48 119
-70 119 -19 -1 -19 -2 -5 -13z"/>
<path d="M2751 1897 c-8 -11 -6 -18 11 -33 19 -17 21 -17 15 -2 -5 15 3 18 56
21 l62 3 -63 2 c-39 1 -61 6 -57 12 9 15 -11 12 -24 -3z"/>
<path d="M2428 1286 c-10 -7 -18 -19 -18 -27 0 -10 3 -10 12 -1 22 22 28 12
28 -53 0 -63 -1 -65 -26 -65 -14 0 -23 -4 -19 -10 3 -5 31 -10 61 -10 30 0 54
5 54 10 0 6 -11 10 -24 10 -23 0 -23 2 -22 80 1 85 -7 96 -46 66z"/>
<path d="M2555 1278 c-18 -27 0 -39 19 -13 16 22 50 16 54 -10 2 -13 -13 -36
-43 -65 -61 -60 -59 -70 15 -70 33 0 60 4 60 10 0 6 -21 10 -46 10 l-47 0 47
50 c25 27 46 53 46 57 0 5 -7 19 -16 31 -21 30 -68 30 -89 0z"/>
<path d="M505 564 c0 -41 4 -74 8 -74 19 0 157 63 157 71 0 10 -20 20 -118 58
l-47 19 0 -74z m88 14 c15 -5 27 -13 27 -16 0 -4 -19 -15 -42 -25 -47 -19 -57
-13 -50 34 3 23 8 29 21 24 9 -4 28 -12 44 -17z"/>
<path d="M2189 898 c0 -2 -2 -31 -4 -66 -2 -35 -5 -65 -8 -68 -2 -3 -24 5 -47
17 l-43 23 -18 -23 c-19 -24 -21 -35 -22 -106 0 -76 3 -93 21 -114 l17 -21 43
21 c24 12 46 19 49 15 4 -4 7 -77 7 -164 1 -86 4 -159 7 -162 4 -3 1197 -5
2651 -5 l2643 0 3 328 2 327 -2650 0 c-1457 0 -2650 -1 -2651 -2z m5281 -323
c0 -168 -3 -305 -7 -306 -28 -4 -5246 -3 -5251 1 -4 3 -7 73 -8 157 -1 185 -6
196 -69 158 -53 -31 -64 -21 -67 56 -4 134 4 151 57 121 20 -12 43 -22 51 -22
20 0 31 34 29 92 l-2 48 2634 0 2633 0 0 -305z"/>
<path d="M3170 812 c-5 -2 -10 -35 -10 -73 0 -38 -2 -69 -5 -69 -2 0 -19 9
-37 20 -60 37 -81 24 -93 -59 -9 -58 3 -136 23 -161 l17 -21 40 21 c21 11 43
20 47 20 4 0 8 -34 8 -75 0 -41 3 -76 8 -76 27 -5 625 -3 633 2 6 3 8 101 7
240 l-3 234 -312 0 c-172 0 -317 -1 -323 -3z m618 -235 c1 -119 -1 -218 -5
-218 -24 -4 -580 -4 -591 -1 -8 3 -12 19 -11 41 5 110 -6 125 -72 96 -55 -25
-63 -14 -64 90 0 107 8 117 69 84 57 -30 67 -21 68 57 0 33 4 61 8 64 5 3 140
5 302 5 l293 0 3 -218z"/>
<path d="M3299 713 c-40 -17 -50 -50 -47 -154 3 -76 6 -92 26 -111 21 -22 30
-23 196 -24 189 -1 229 7 240 49 3 12 6 61 6 109 0 77 -3 90 -23 114 l-24 27
-173 1 c-114 1 -182 -3 -201 -11z m387 -28 c20 -26 19 -194 0 -221 -13 -17
-29 -19 -178 -21 -90 -1 -177 2 -194 8 -38 12 -44 28 -44 135 0 65 4 84 18 96
26 23 31 24 214 23 156 0 171 -2 184 -20z"/>
<path d="M3380 656 c0 -8 -7 -21 -15 -30 -9 -9 -11 -17 -5 -21 5 -3 10 -33 10
-66 0 -44 4 -59 14 -59 11 0 14 13 12 56 -2 41 2 58 13 65 12 8 13 12 4 15
-15 7 -17 34 -3 34 6 0 10 5 10 10 0 6 -9 10 -20 10 -11 0 -20 -6 -20 -14z"/>
<path d="M4394 811 c-2 -2 -4 -32 -4 -66 0 -34 -3 -65 -6 -68 -4 -4 -25 3 -46
15 -64 36 -85 9 -87 -108 -1 -67 13 -120 34 -127 7 -3 29 3 49 14 20 10 40 19
46 19 6 0 10 -31 10 -74 0 -50 4 -75 13 -78 6 -2 122 -4 257 -4 l245 1 3 238
c1 130 -1 238 -5 238 -22 4 -505 3 -509 0z m488 -20 c12 -2 6 -430 -6 -434 -6
-1 -112 -3 -236 -2 l-225 0 -5 72 c-6 90 -14 99 -63 73 -53 -28 -65 -26 -73
16 -7 40 0 161 10 172 4 3 28 -4 53 -18 44 -23 46 -24 59 -5 8 10 14 42 14 70
0 29 2 54 4 56 4 3 445 3 468 0z"/>
<path d="M4606 638 c-9 -12 -16 -43 -16 -68 0 -80 53 -117 100 -70 25 25 27
105 4 138 -20 30 -68 30 -88 0z m68 -7 c12 -20 16 -79 7 -104 -14 -36 -48 -36
-61 -1 -20 51 -4 114 29 114 11 0 22 -4 25 -9z"/>
<path d="M5494 811 c-2 -2 -4 -35 -4 -73 0 -37 -2 -68 -5 -68 -2 0 -19 9 -37
20 -60 37 -82 22 -93 -61 -8 -60 3 -135 23 -159 l17 -21 40 21 c21 11 43 20
47 20 4 0 8 -35 10 -77 l3 -78 358 0 357 0 0 237 c0 131 -3 239 -7 239 -22 4
-705 3 -709 0z m689 -20 c4 -1 7 -97 7 -215 0 -162 -3 -215 -12 -218 -7 -2
-159 -4 -338 -3 l-325 0 -2 68 c-2 92 -12 102 -69 74 -60 -29 -68 -18 -69 88
0 104 8 114 63 86 23 -12 46 -21 52 -21 12 0 24 48 24 100 0 19 3 37 7 40 6 4
634 5 662 1z"/>
<path d="M5629 713 c-40 -17 -47 -38 -45 -145 1 -87 3 -100 24 -120 22 -22 28
-23 230 -24 212 -1 255 4 272 36 6 10 10 63 10 117 0 86 -3 102 -20 121 -12
12 -26 22 -33 23 -95 7 -415 2 -438 -8z m456 -24 c11 -11 15 -40 17 -112 2
-139 14 -132 -235 -134 -122 -1 -213 2 -229 8 -32 13 -38 34 -37 137 1 81 10
102 47 113 7 3 105 4 217 4 169 0 207 -3 220 -16z"/>
<path d="M5710 605 c-17 -21 -7 -29 18 -14 21 13 52 7 52 -11 0 -5 -10 -10
-23 -10 -50 0 -84 -49 -55 -78 14 -14 54 -16 63 -2 4 6 13 5 25 -2 22 -14 36
-6 24 14 -5 7 -10 30 -11 52 -1 21 -8 44 -14 52 -15 19 -63 18 -79 -1z m70
-68 c0 -19 -21 -37 -42 -37 -18 0 -25 29 -11 43 12 12 53 7 53 -6z"/>
<path d="M6800 749 c0 -36 -3 -68 -6 -72 -3 -3 -26 4 -51 16 l-45 22 -20 -25
c-17 -21 -19 -36 -16 -118 2 -78 6 -96 22 -107 16 -12 24 -11 58 6 22 11 44
17 49 12 4 -4 9 -39 11 -78 l3 -70 253 0 c138 0 253 2 253 5 5 16 4 470 -1
471 -3 1 -119 2 -257 3 l-253 1 0 -66z m490 42 c4 -1 5 -414 1 -431 0 -3 -106
-5 -233 -5 l-233 0 -6 73 c-6 87 -18 100 -67 72 -63 -38 -72 -27 -72 90 0 98
10 109 69 77 41 -22 42 -22 56 -3 9 12 15 42 15 75 l0 56 232 -1 c128 -1 235
-2 238 -3z"/>
<path d="M7016 644 c-17 -16 -20 -35 -17 -94 5 -85 97 -96 117 -14 8 33 -3 90
-22 109 -20 19 -58 19 -78 -1z m71 -31 c21 -62 -8 -130 -45 -107 -21 13 -29
98 -11 120 19 23 46 17 56 -13z"/>
<path d="M4035 646 c2 -17 -4 -27 -21 -35 -13 -6 -24 -17 -25 -26 -3 -39 -2
-52 5 -72 4 -13 13 -23 21 -23 16 0 29 -35 20 -50 -3 -5 1 -10 9 -10 10 0 16
9 16 21 0 12 11 32 25 45 16 15 25 34 25 54 0 20 -9 40 -25 56 -14 14 -25 34
-25 44 0 11 -6 20 -14 20 -8 0 -12 -9 -11 -24z m0 -101 c1 -35 -2 -42 -12 -33
-14 11 -17 46 -7 73 10 25 18 8 19 -40z m49 -3 c-10 -53 -24 -47 -24 9 1 48 2
52 15 36 7 -10 11 -31 9 -45z"/>
<path d="M2415 600 c-17 -33 -19 -50 -6 -50 5 0 14 14 20 31 13 38 27 30 42
-24 19 -74 48 -88 74 -37 17 33 19 50 6 50 -5 0 -14 -14 -20 -31 -12 -35 -26
-32 -35 8 -20 87 -53 108 -81 53z"/>
<path d="M6448 624 c-5 -4 -8 -18 -8 -31 0 -18 -5 -23 -25 -23 -14 0 -25 -4
-25 -10 0 -5 11 -10 25 -10 20 0 25 -5 25 -25 0 -14 5 -25 10 -25 6 0 10 11
10 25 0 20 5 25 24 25 14 0 28 5 31 10 4 6 -6 10 -24 10 -26 0 -30 4 -33 31
-2 17 -6 27 -10 23z"/>
<path d="M2770 612 c0 -26 44 -132 55 -132 25 0 59 74 56 123 -2 30 -21 19
-21 -13 0 -30 -18 -80 -30 -80 -3 0 -14 25 -24 55 -9 30 -21 55 -27 55 -5 0
-9 -4 -9 -8z"/>
<path d="M5110 595 l23 -25 -21 -23 c-28 -30 -16 -44 13 -17 l22 20 26 -21
c29 -22 37 -11 12 15 -19 19 -19 25 2 48 24 27 7 35 -21 9 l-24 -23 -11 21
c-7 12 -19 21 -28 21 -13 0 -12 -5 7 -25z"/>
<path d="M8084 811 c-2 -2 -4 -32 -4 -66 0 -34 -3 -64 -6 -68 -3 -3 -26 4 -51
16 l-45 22 -20 -25 c-17 -21 -19 -36 -16 -117 4 -118 14 -131 77 -103 23 11
47 17 52 14 5 -3 9 -38 9 -77 l0 -72 255 0 c140 0 256 2 256 5 1 3 2 110 3
238 1 150 -2 232 -9 233 -30 4 -497 4 -501 0z m481 -20 c6 -1 10 -79 10 -213
0 -180 -2 -214 -15 -218 -8 -3 -114 -6 -235 -5 l-220 0 -7 74 c-3 40 -10 77
-15 82 -5 5 -25 1 -48 -11 -69 -35 -75 -28 -75 88 0 103 5 109 64 80 47 -22
48 -23 62 -4 8 12 14 43 14 75 l0 56 228 -1 c125 -1 232 -2 237 -3z"/>
<path d="M8307 642 c-19 -21 -24 -43 -5 -24 22 22 28 12 28 -53 0 -63 -1 -65
-25 -65 -14 0 -25 -4 -25 -10 0 -6 27 -10 61 -10 37 0 58 4 54 10 -3 6 -14 10
-24 10 -16 0 -18 9 -18 77 1 62 -2 78 -14 81 -8 1 -23 -6 -32 -16z"/>
<path d="M9180 743 c0 -40 -3 -73 -6 -73 -4 0 -24 10 -46 22 -63 36 -85 9 -87
-102 -1 -65 14 -126 33 -133 8 -3 30 3 50 14 20 10 40 19 46 19 5 0 10 -35 12
-77 l3 -78 255 0 255 0 0 240 0 240 -257 0 -258 0 0 -72z m492 42 c4 -5 7
-104 6 -220 l0 -210 -237 0 -236 1 -5 71 c-3 40 -10 77 -15 82 -7 7 -24 3 -53
-11 -33 -17 -45 -19 -55 -9 -18 18 -22 161 -4 185 14 19 15 19 51 -2 64 -38
76 -28 76 62 0 29 2 55 5 57 9 9 460 4 467 -6z"/>
<path d="M9397 642 c-22 -24 -23 -110 -1 -140 19 -28 57 -29 84 -2 15 15 20
33 20 70 0 37 -5 55 -20 70 -25 25 -62 26 -83 2z m67 -11 c12 -20 16 -79 7
-104 -12 -32 -45 -36 -61 -8 -24 45 -5 121 30 121 10 0 21 -4 24 -9z"/>
<path d="M1610 563 c0 -62 3 -113 8 -114 4 0 14 -2 22 -3 8 -2 24 0 35 5 17 6
17 8 3 8 -16 1 -18 13 -18 101 0 87 2 100 17 100 30 0 5 12 -31 15 l-36 2 0
-114z m32 85 c11 -30 3 -181 -9 -186 -10 -3 -13 21 -13 97 0 56 4 101 9 101 5
0 11 -6 13 -12z"/>
<path d="M1819 669 c-12 -7 -11 -9 2 -9 14 0 16 -15 17 -100 1 -82 -1 -100
-13 -100 -8 0 -15 -3 -15 -7 0 -7 30 -8 73 -4 4 1 6 51 5 112 l-3 112 -26 3
c-14 1 -32 -2 -40 -7z m52 -16 c4 -23 5 -170 1 -180 -2 -7 -8 -13 -13 -13 -5
0 -9 45 -9 100 0 60 4 100 10 100 6 0 11 -3 11 -7z"/>
<path d="M1273 643 c-39 -7 -97 -93 -63 -93 6 0 10 9 10 19 0 27 46 61 82 61
31 0 78 -38 78 -65 0 -8 5 -15 10 -15 19 0 10 30 -17 59 -29 30 -61 41 -100
34z"/>
<path d="M8827 623 c-2 -4 -3 -18 -2 -30 1 -19 -3 -23 -27 -23 -15 0 -28 -4
-28 -10 0 -5 13 -10 29 -10 24 0 28 -3 25 -26 -1 -16 2 -24 9 -21 7 2 11 14
11 25 -1 18 4 22 27 22 37 0 38 18 2 22 -21 2 -28 8 -28 25 0 23 -10 39 -18
26z"/>
<path d="M7680 613 c0 -3 7 -14 16 -24 15 -16 15 -20 0 -41 -24 -34 -19 -42
11 -19 l26 21 23 -21 c13 -12 24 -16 28 -10 4 5 -3 15 -14 21 -24 13 -25 27
-3 52 9 10 13 21 10 25 -4 3 -15 -3 -26 -15 -18 -22 -18 -22 -36 -2 -18 20
-35 26 -35 13z"/>
<path d="M1740 555 c0 -9 5 -15 11 -13 6 2 11 8 11 13 0 5 -5 11 -11 13 -6 2
-11 -4 -11 -13z"/>
</g>
</svg>
