<?xml version="1.0" standalone="no"?>
<!DOCTYPE svg PUBLIC "-//W3C//DTD SVG 20010904//EN"
 "http://www.w3.org/TR/2001/REC-SVG-20010904/DTD/svg10.dtd">
<svg version="1.0" xmlns="http://www.w3.org/2000/svg"
 width="1343.000000pt" height="545.000000pt" viewBox="0 0 1343.000000 545.000000"
 preserveAspectRatio="xMidYMid meet">
<metadata>
Created by potrace 1.16, written by Peter Selinger 2001-2019
</metadata>
<g transform="translate(0.000000,545.000000) scale(0.100000,-0.100000)"
fill="#000000" stroke="none">
<path d="M183 5214 c-19 -7 -35 -14 -36 -16 -1 -1 -13 -16 -27 -31 l-25 -29
-1 -2431 c-1 -1338 0 -2443 3 -2457 7 -37 56 -90 90 -97 15 -3 1899 -6 4186
-7 l4157 -1 1 35 c1 40 1 674 0 706 -1 21 -4 21 -176 20 -96 0 -175 3 -175 7
0 5 -5 5 -12 1 -16 -10 -1428 -11 -1428 -1 0 5 -5 5 -12 1 -16 -10 -468 -11
-468 -1 0 5 -5 5 -12 1 -16 -10 -1588 -11 -1588 -1 0 5 -5 5 -12 1 -16 -10
-628 -11 -628 -1 0 5 -5 5 -12 1 -16 -10 -628 -11 -628 -1 0 5 -5 5 -11 1 -10
-6 -133 -9 -189 -5 -13 1 -15 30 -15 198 l1 198 4749 0 4750 1 0 379 0 380
-175 2 c-96 0 -185 2 -197 2 l-22 1 -1 360 0 360 482 0 c266 0 490 0 499 0 14
0 16 38 16 375 1 206 -3 378 -7 380 -5 3 -2380 5 -5280 5 l-5271 0 1 153 c1
83 1 178 0 210 l0 57 -80 0 -80 0 0 208 0 209 -325 -1 -325 -1 0 201 0 201
220 -1 220 -1 0 220 0 220 -878 -1 -877 0 -51 -32 c-28 -18 -60 -32 -71 -32
-11 0 -40 14 -64 32 -39 28 -52 32 -113 33 -38 0 -85 -5 -103 -11z m208 -41
c59 -42 89 -42 148 1 l47 33 870 0 869 0 0 -193 c-1 -106 -4 -196 -8 -200 -4
-5 -395 -7 -868 -5 l-861 2 -54 -35 c-29 -20 -61 -36 -69 -36 -9 0 -39 16 -68
35 l-52 35 -118 0 -118 0 2 154 c1 128 4 158 18 180 34 52 62 63 156 63 51 0
66 -5 106 -34z m-6 -414 c62 -43 91 -44 150 -5 l50 33 303 0 302 1 0 -54 c0
-59 -6 -63 -51 -37 -42 25 -62 9 -73 -56 -11 -64 2 -140 27 -155 13 -8 25 -7
48 7 17 9 35 17 40 17 5 0 9 -712 9 -1800 l0 -1800 -303 0 -303 0 -50 -35
c-27 -19 -58 -35 -69 -35 -11 0 -42 16 -69 35 l-50 35 -118 0 -118 0 0 1939 0
1939 118 -1 c112 0 119 -1 157 -28z m1495 -235 c0 -280 -1 -283 -46 -249 -35
26 -61 19 -74 -21 -17 -50 -9 -160 13 -181 16 -16 19 -16 52 0 20 9 40 17 45
17 13 0 13 -237 0 -245 -5 -3 -21 2 -35 11 -15 10 -34 14 -49 10 -20 -5 -26
-14 -32 -52 -9 -64 0 -142 20 -162 16 -16 19 -16 56 4 21 12 41 19 44 16 4 -3
6 -626 6 -1384 l0 -1378 -335 0 -335 0 0 1798 c0 1103 -4 1803 -10 1812 -9 15
-13 14 -82 -15 -22 -9 -38 28 -38 90 0 62 16 99 38 90 69 -29 73 -30 82 -15 5
8 10 38 10 66 l0 52 335 0 335 0 0 -264z m650 -354 l0 -200 -315 0 -315 0 0
50 c0 28 1 51 2 53 1 1 -4 12 -11 24 l-11 23 -45 -22 c-25 -12 -48 -18 -52
-14 -12 12 -15 159 -4 176 9 12 14 12 46 -3 20 -9 42 -17 49 -17 17 0 26 31
26 88 l0 42 315 0 315 0 0 -200z m163 -412 c-3 -368 -1 -341 -20 -333 -70 29
-73 30 -88 14 -32 -32 -24 -202 10 -215 7 -3 31 4 54 16 l41 20 0 -290 c0
-159 -2 -290 -5 -290 -2 0 -20 7 -39 16 -19 9 -41 14 -49 11 -47 -18 -41 -227
6 -227 7 0 29 9 50 20 l37 20 0 -290 c0 -307 0 -310 -46 -275 -31 24 -54 18
-69 -17 -16 -38 -14 -143 4 -176 14 -26 26 -27 65 -7 15 8 32 15 37 15 5 0 9
-129 9 -291 l0 -290 -39 22 c-22 12 -46 19 -55 16 -21 -8 -36 -72 -31 -134 7
-89 30 -110 85 -78 14 8 28 14 33 15 4 0 7 -27 7 -60 l0 -60 -395 0 -395 0 -1
1363 c0 749 -3 1373 -5 1387 -7 36 -24 41 -66 18 -21 -12 -41 -18 -45 -14 -13
13 -16 152 -4 174 l11 21 36 -21 c27 -16 41 -19 53 -11 18 11 18 13 20 78 l1
45 398 0 397 0 -2 -192z m10557 -590 l0 -363 -482 2 c-266 0 -2637 1 -5270 2
l-4788 1 0 224 c0 255 -2 262 -65 225 -45 -27 -55 -19 -61 47 -9 108 12 146
62 109 25 -19 50 -19 58 1 3 9 6 38 6 65 l0 49 5270 0 5270 0 0 -362z m-996
-723 c1 -187 -1 -348 -3 -357 -3 -17 -239 -18 -4772 -18 l-4769 0 0 223 c0
154 -4 227 -11 234 -9 9 -22 7 -52 -8 -53 -28 -62 -16 -62 76 0 91 12 108 56
82 57 -32 69 -20 69 64 l0 49 4772 -2 4772 -3 0 -340z m396 -760 l0 -362
-4967 1 -4968 1 -5 227 c-3 124 -9 230 -13 234 -7 7 -21 4 -79 -21 -25 -10
-37 26 -34 103 3 80 12 89 63 63 52 -26 63 -15 63 60 l0 56 4970 0 4970 0 0
-362z m-9507 -383 c4 -1 7 -90 7 -197 l0 -195 -220 0 -220 0 0 65 c0 75 -14
89 -60 61 -58 -34 -68 -20 -66 88 3 84 12 94 62 67 51 -27 64 -15 64 59 l0 57
213 -2 c116 -1 215 -3 220 -3z m-2753 -448 c27 -19 61 -34 75 -34 14 0 48 15
75 34 46 32 55 34 125 33 l75 -1 0 -53 c0 -58 -5 -61 -51 -37 -40 20 -56 13
-68 -33 -15 -53 -14 -107 3 -148 16 -38 39 -45 72 -20 43 32 44 27 44 -208 l0
-224 -273 1 c-247 1 -276 3 -301 19 -53 35 -56 58 -56 395 l0 309 115 1 115 1
50 -35z m1130 -21 c0 -57 -10 -65 -46 -38 -50 38 -77 4 -78 -100 0 -103 28
-139 80 -100 43 33 45 28 42 -207 l-3 -223 -377 -1 -378 0 0 220 c0 122 -5
228 -10 236 -8 13 -14 13 -42 2 -67 -27 -66 -28 -74 24 -9 61 6 140 26 137 8
-1 30 -7 48 -15 42 -16 52 -4 52 68 l0 51 380 0 380 0 0 -54z m6991 43 c4 -39
3 -699 -1 -705 -3 -4 -1572 -8 -3487 -7 l-3483 0 0 228 c0 255 0 255 -66 223
-49 -23 -58 -11 -58 79 -1 93 9 107 57 81 51 -27 67 -16 67 48 0 30 2 56 5 59
3 3 1571 5 3485 5 2531 0 3480 -3 3481 -11z"/>
<path d="M277 5093 c-12 -12 -7 -43 7 -43 9 0 12 8 8 25 -5 27 -6 28 -15 18z"/>
<path d="M317 5093 c-13 -13 -7 -43 9 -43 13 0 14 3 4 15 -6 8 -9 19 -5 25 7
11 2 14 -8 3z"/>
<path d="M547 5088 c-42 -33 -41 -125 3 -148 26 -14 72 -12 92 4 41 31 41 111
1 142 -23 17 -74 18 -96 2z m87 -24 c9 -8 16 -31 16 -49 0 -39 -22 -65 -55
-65 -33 0 -55 26 -55 65 0 39 22 65 55 65 13 0 31 -7 39 -16z"/>
<path d="M1030 5015 c0 -50 4 -85 10 -85 6 0 10 35 10 85 0 50 -4 85 -10 85
-6 0 -10 -35 -10 -85z"/>
<path d="M1400 5090 c0 -5 13 -10 28 -10 l29 0 -1 -72 c-1 -49 3 -73 12 -75 9
-4 12 15 12 71 0 74 1 76 25 76 14 0 25 5 25 10 0 6 -28 10 -65 10 -37 0 -65
-4 -65 -10z"/>
<path d="M1784 5072 c-6 -10 -8 -43 -5 -77 5 -53 9 -60 29 -63 24 -4 30 13 7
21 -19 8 -15 85 5 97 12 8 12 10 -3 10 -10 0 -16 4 -12 9 3 5 2 12 -3 15 -4 2
-13 -3 -18 -12z"/>
<path d="M690 5054 c0 -23 45 -124 55 -124 7 0 22 25 34 56 23 62 25 74 12 74
-5 0 -17 -23 -26 -51 -9 -28 -19 -48 -21 -46 -3 2 -10 24 -17 47 -7 24 -18 45
-25 48 -6 2 -12 0 -12 -4z"/>
<path d="M835 5046 c-22 -16 -26 -76 -6 -100 7 -9 26 -16 41 -16 30 0 58 24
40 35 -5 3 -10 1 -10 -5 0 -19 -54 -7 -58 13 -3 14 4 17 43 17 43 0 46 1 39
23 -14 48 -50 62 -89 33z m63 -23 c2 -9 -7 -13 -27 -13 -30 0 -39 9 -24 24 11
10 46 3 51 -11z"/>
<path d="M953 4993 c1 -39 5 -63 12 -63 6 0 11 15 12 33 1 66 3 77 18 77 8 0
15 4 15 8 0 5 -13 9 -29 9 l-29 0 1 -64z"/>
<path d="M1090 5045 c-10 -13 -7 -14 25 -12 23 1 40 -3 42 -10 3 -9 -5 -13
-24 -13 -41 0 -55 -13 -51 -46 2 -22 9 -30 27 -32 13 -2 28 1 33 6 7 7 16 7
29 -1 10 -6 22 -7 26 -3 4 5 2 11 -4 13 -8 3 -13 22 -13 47 0 23 -5 47 -12 54
-17 17 -63 15 -78 -3z m70 -70 c0 -13 -21 -25 -46 -25 -24 0 -16 38 9 42 27 5
37 1 37 -17z"/>
<path d="M1216 5051 c-2 -6 0 -130 3 -158 2 -27 21 -12 21 17 0 27 2 29 29 24
23 -5 32 -2 40 14 15 28 14 87 -2 101 -14 11 -86 13 -91 2z m84 -49 c0 -36
-13 -55 -36 -50 -23 4 -32 61 -14 83 18 22 50 1 50 -33z"/>
<path d="M1539 5044 c-20 -24 -16 -84 6 -100 24 -18 59 -18 74 0 9 11 4 13
-26 12 -28 -1 -38 3 -41 17 -3 14 4 17 37 17 48 0 58 13 37 45 -19 29 -66 34
-87 9z m67 -15 c9 -15 -13 -28 -37 -22 -20 5 -24 15 -12 26 10 11 41 8 49 -4z"/>
<path d="M1670 5028 c19 -32 19 -32 -1 -65 -25 -40 -9 -44 19 -6 l20 28 13
-28 c7 -15 19 -27 26 -27 11 0 9 8 -8 31 -21 30 -21 33 -5 59 18 31 20 40 8
40 -4 0 -14 -11 -23 -25 l-15 -26 -14 26 c-7 14 -19 25 -27 25 -9 0 -7 -9 7
-32z"/>
<path d="M1849 5058 c-1 -2 -3 -23 -4 -48 -3 -66 7 -79 58 -77 l43 2 0 62 c0
41 -4 63 -12 63 -7 0 -11 -16 -10 -42 2 -30 -3 -47 -17 -61 -27 -27 -40 -9
-40 52 0 28 -4 51 -8 51 -5 0 -10 -1 -10 -2z"/>
<path d="M1976 5002 c3 -76 3 -72 14 -72 6 0 10 23 10 50 0 36 4 52 15 56 24
10 17 21 -13 22 -28 1 -28 0 -26 -56z"/>
<path d="M2066 5044 c-9 -8 -16 -30 -16 -48 0 -56 53 -84 96 -51 18 14 16 15
-20 9 -27 -5 -41 -3 -47 7 -15 25 -10 29 36 29 38 0 45 3 45 19 0 27 -26 51
-55 51 -13 0 -31 -7 -39 -16z m67 -18 c4 -10 -4 -15 -24 -18 -33 -5 -40 -2
-32 18 7 18 49 18 56 0z"/>
<path d="M237 2982 c-43 -5 -61 -43 -63 -131 -1 -79 12 -124 41 -135 9 -3 90
-6 180 -6 212 0 210 -1 206 160 -2 71 -8 87 -34 102 -20 11 -259 18 -330 10z
m332 -39 c14 -17 17 -38 16 -103 -3 -114 0 -113 -182 -115 -81 0 -160 3 -175
8 -33 11 -42 47 -36 142 6 92 7 92 200 91 151 -1 161 -2 177 -23z"/>
<path d="M285 2920 c-3 -11 -11 -20 -18 -20 -8 0 -8 -3 1 -12 7 -7 12 -36 12
-65 0 -29 5 -53 10 -53 11 0 13 10 11 62 -1 21 5 43 15 52 14 15 14 16 -3 16
-17 1 -17 1 0 14 22 17 22 26 -2 26 -11 0 -23 -9 -26 -20z"/>
<path d="M704 2877 c-8 -21 2 -35 16 -21 5 5 6 15 0 24 -8 12 -10 12 -16 -3z"/>
<path d="M740 2870 c0 -6 32 -10 75 -10 43 0 75 4 75 10 0 6 -32 10 -75 10
-43 0 -75 -4 -75 -10z"/>
<path d="M704 2825 c-9 -22 1 -29 15 -11 8 10 9 16 1 21 -5 3 -13 -1 -16 -10z"/>
<path d="M740 2820 c0 -6 30 -10 69 -10 39 0 73 5 76 10 4 6 -22 10 -69 10
-44 0 -76 -4 -76 -10z"/>
<path d="M1380 4681 c0 -5 7 -11 15 -15 22 -8 18 -50 -10 -106 -19 -37 -22
-50 -12 -50 8 0 22 21 33 48 l18 47 15 -47 c8 -27 20 -48 28 -48 9 0 4 23 -18
81 -16 45 -32 86 -35 90 -7 12 -34 12 -34 0z"/>
<path d="M1386 4204 c-9 -24 -7 -73 4 -95 11 -19 60 -27 60 -10 0 5 13 4 30
-2 24 -9 33 -8 45 3 19 20 24 58 13 93 -14 40 -32 34 -24 -8 13 -67 -25 -109
-39 -45 -4 17 -10 30 -15 30 -4 0 -10 -13 -13 -30 -6 -26 -35 -44 -38 -22 -6
33 -5 60 2 80 6 16 5 22 -5 22 -8 0 -17 -7 -20 -16z"/>
<path d="M1421 2396 c-10 -12 -8 -17 10 -26 13 -7 19 -8 15 -2 -4 7 14 12 51
15 l58 3 -58 2 c-36 1 -56 6 -52 12 10 15 -11 12 -24 -4z"/>
<path d="M2003 4297 c-36 -19 -43 -40 -43 -129 0 -81 2 -91 25 -113 24 -25 25
-25 228 -25 254 0 250 -2 255 119 5 91 -8 136 -42 148 -31 10 -403 11 -423 0z
m427 -27 c17 -17 20 -33 20 -104 0 -91 -11 -115 -53 -117 -25 0 -318 0 -359 1
-48 0 -58 22 -58 120 0 124 -7 120 237 120 180 0 194 -1 213 -20z"/>
<path d="M2070 4235 c0 -8 -5 -15 -12 -15 -9 0 -9 -3 0 -12 7 -7 12 -36 12
-65 0 -46 3 -53 20 -53 11 0 20 5 20 10 0 6 -4 10 -10 10 -14 0 -12 84 2 98 9
9 9 12 0 12 -7 0 -12 7 -12 15 0 8 -4 15 -10 15 -5 0 -10 -7 -10 -15z"/>
<path d="M2130 4155 c0 -37 4 -65 10 -65 6 0 10 6 11 13 7 94 5 117 -12 117
-5 0 -9 -29 -9 -65z"/>
<path d="M2160 4210 c0 -5 7 -10 15 -10 8 0 15 5 15 10 0 6 -7 10 -15 10 -8 0
-15 -4 -15 -10z"/>
<path d="M2223 3774 c-18 -19 -27 -34 -20 -34 7 -1 21 -12 32 -25 l19 -23 21
22 c12 13 28 26 36 29 12 5 12 6 -1 6 -8 1 -24 14 -35 30 l-20 28 -32 -33z
m23 -21 c-10 -10 -19 5 -10 18 6 11 8 11 12 0 2 -7 1 -15 -2 -18z m29 7 c3 -5
1 -10 -4 -10 -6 0 -11 5 -11 10 0 6 2 10 4 10 3 0 8 -4 11 -10z m-25 -30 c0
-5 -2 -10 -4 -10 -3 0 -8 5 -11 10 -3 6 -1 10 4 10 6 0 11 -4 11 -10z m30 6
c0 -3 -4 -8 -10 -11 -5 -3 -10 -1 -10 4 0 6 5 11 10 11 6 0 10 -2 10 -4z"/>
<path d="M2060 3780 c0 -6 27 -10 61 -10 37 0 58 4 54 10 -3 6 -31 10 -61 10
-30 0 -54 -4 -54 -10z"/>
<path d="M2347 3743 c-4 -3 -7 -11 -7 -17 0 -6 5 -5 12 2 17 17 28 15 28 -7 0
-10 -6 -21 -14 -24 -8 -3 -20 -15 -26 -26 -10 -20 -8 -21 27 -20 32 2 34 3 9
6 l-28 5 26 27 c17 18 24 34 20 44 -6 17 -35 23 -47 10z"/>
<path d="M2060 3720 c0 -6 27 -10 61 -10 37 0 58 4 54 10 -3 6 -31 10 -61 10
-30 0 -54 -4 -54 -10z"/>
<path d="M2070 3155 c0 -8 5 -15 10 -15 6 0 10 7 10 15 0 8 -4 15 -10 15 -5 0
-10 -7 -10 -15z"/>
<path d="M2094 2458 c-10 -15 -26 -28 -34 -29 -13 0 -13 -1 0 -6 8 -3 25 -16
37 -29 12 -13 23 -20 25 -16 2 4 16 17 32 30 20 15 24 22 12 22 -9 0 -16 5
-16 10 0 6 -8 18 -18 28 -18 18 -19 18 -38 -10z m16 -18 c0 -5 -4 -10 -10 -10
-5 0 -10 5 -10 10 0 6 5 10 10 10 6 0 10 -4 10 -10z m30 0 c0 -5 -4 -10 -10
-10 -5 0 -10 5 -10 10 0 6 5 10 10 10 6 0 10 -4 10 -10z m-30 -30 c0 -5 -2
-10 -4 -10 -3 0 -8 5 -11 10 -3 6 -1 10 4 10 6 0 11 -4 11 -10z m30 6 c0 -3
-4 -8 -10 -11 -5 -3 -10 -1 -10 4 0 6 5 11 10 11 6 0 10 -2 10 -4z"/>
<path d="M2070 1733 c0 -3 7 -15 17 -25 15 -17 15 -19 -2 -38 -24 -26 -11 -39
15 -15 19 17 21 17 40 0 25 -23 39 -12 17 13 -21 23 -21 29 -2 49 23 22 9 30
-15 8 -19 -17 -21 -17 -38 -2 -19 18 -32 22 -32 10z"/>
<path d="M2110 1145 c0 -20 -5 -25 -25 -25 -14 0 -25 -4 -25 -10 0 -5 11 -10
25 -10 20 0 25 -5 25 -25 0 -14 5 -25 10 -25 6 0 10 11 10 25 0 20 5 25 26 25
14 0 23 4 19 10 -3 6 -15 10 -26 10 -14 0 -19 7 -19 25 0 14 -4 25 -10 25 -5
0 -10 -11 -10 -25z"/>
<path d="M3590 3405 c0 -69 -8 -79 -46 -50 -31 24 -63 19 -75 -12 -17 -43 -7
-169 14 -190 17 -17 19 -17 48 0 58 33 59 32 59 -133 l0 -150 3245 0 3245 0 0
300 0 300 -3245 0 -3245 0 0 -65z m6470 -235 l0 -280 -3225 0 c-2573 0 -3225
3 -3226 13 0 6 0 68 -1 136 0 69 -2 131 -5 138 -7 18 -44 16 -71 -3 -37 -26
-52 -4 -52 76 0 38 3 75 6 84 8 20 33 20 58 1 45 -34 66 -12 66 73 l0 42 3225
0 3225 0 0 -280z"/>
<path d="M4667 3383 c-2 -5 -4 -32 -5 -61 0 -30 -3 -56 -5 -59 -3 -2 -19 3
-36 11 -40 21 -58 20 -71 -5 -16 -29 -15 -161 1 -188 17 -26 33 -27 75 0 l34
21 1 -24 c1 -13 2 -47 2 -75 l0 -53 239 0 238 0 0 220 0 220 -234 0 c-129 0
-237 -3 -239 -7z m453 -213 l0 -200 -218 0 -218 0 -2 61 c-2 83 -12 94 -64 68
-54 -27 -62 -17 -61 77 0 93 9 103 63 79 51 -23 59 -15 62 58 l2 57 218 0 218
0 0 -200z"/>
<path d="M4861 3241 c-26 -47 -19 -123 12 -143 48 -30 93 22 83 95 -3 23 -14
48 -23 55 -25 18 -61 15 -72 -7z m68 -24 c9 -23 6 -81 -4 -98 -8 -13 -42 -11
-51 2 -4 7 -7 31 -7 54 0 23 3 47 7 54 12 19 46 12 55 -12z"/>
<path d="M5630 3325 c0 -69 -8 -78 -44 -50 -28 21 -52 19 -70 -6 -22 -32 -17
-172 7 -196 17 -17 19 -17 57 3 21 12 41 19 44 16 4 -3 6 -36 6 -74 l0 -68
435 0 435 0 -2 218 -3 217 -432 3 -433 2 0 -65z m850 -155 l0 -200 -415 0
-415 0 -1 48 c-1 98 -11 109 -64 81 -37 -20 -39 -20 -52 -3 -13 18 -18 129 -7
158 8 20 33 20 58 1 45 -34 66 -12 66 73 l0 42 415 0 415 0 0 -200z"/>
<path d="M5826 3241 c-10 -11 -13 -22 -8 -25 5 -3 15 1 22 9 7 8 21 15 31 15
32 0 22 -39 -21 -86 -22 -24 -40 -48 -40 -54 0 -6 24 -10 55 -10 30 0 55 5 55
10 0 6 -19 10 -41 10 l-42 0 42 45 c45 48 49 65 25 89 -21 22 -57 20 -78 -3z"/>
<path d="M5956 3238 c-18 -26 -21 -74 -6 -113 25 -67 111 -30 104 45 -1 8 -2
25 -3 37 -3 51 -67 71 -95 31z m68 -14 c3 -9 6 -31 6 -49 0 -18 -3 -40 -6 -49
-7 -19 -40 -21 -50 -4 -11 18 -13 81 -3 100 12 22 45 23 53 2z"/>
<path d="M6089 3244 c-19 -23 -21 -107 -3 -133 15 -21 49 -27 70 -13 18 12 33
47 29 68 -2 10 -4 29 -4 41 -2 46 -63 71 -92 37z m65 -20 c9 -23 7 -87 -3
-102 -28 -45 -73 35 -52 91 12 30 45 37 55 11z"/>
<path d="M6226 3247 c-31 -23 -26 -128 7 -149 49 -31 94 23 82 98 -8 59 -48
81 -89 51z m59 -17 c10 -17 13 -74 4 -97 -8 -23 -43 -31 -54 -13 -8 13 -9 96
-1 109 9 14 43 14 51 1z"/>
<path d="M7097 3383 c-2 -5 -4 -32 -5 -61 0 -29 -2 -56 -5 -58 -3 -3 -19 2
-36 10 -64 33 -82 12 -83 -98 -1 -113 21 -137 88 -95 l34 21 1 -29 c1 -15 1
-49 0 -75 l-1 -48 338 0 338 0 0 218 -1 217 -332 3 c-182 1 -334 -1 -336 -5z
m650 -213 l0 -200 -317 0 -316 0 -2 61 c-2 83 -12 94 -64 68 -53 -27 -61 -17
-62 76 0 93 10 107 59 81 58 -32 68 -17 68 97 0 16 21 17 317 17 l317 0 0
-200z"/>
<path d="M7202 3285 c-23 -20 -25 -27 -25 -115 0 -89 1 -95 27 -117 26 -22 32
-23 221 -23 204 0 236 6 252 44 5 11 8 59 7 105 -3 129 3 126 -251 127 -197 1
-207 0 -231 -21z m442 -11 c19 -19 18 -12 21 -107 4 -123 11 -119 -235 -119
-167 1 -206 4 -218 16 -11 11 -16 40 -17 100 -3 130 -10 126 235 126 167 0
201 -2 214 -16z"/>
<path d="M7284 3232 c-10 -16 -9 -67 2 -119 3 -15 12 -23 24 -23 23 0 27 15 5
23 -18 7 -15 93 3 90 17 -4 15 5 -6 27 -17 18 -18 18 -28 2z"/>
<path d="M7350 3153 c0 -35 4 -63 10 -63 6 0 10 23 10 51 0 42 3 52 20 56 30
8 24 22 -10 21 l-30 -1 0 -64z"/>
<path d="M8307 3384 c-4 -4 -7 -34 -7 -67 0 -52 -2 -58 -17 -52 -70 29 -73 30
-89 14 -18 -19 -26 -126 -12 -177 12 -44 31 -49 79 -23 l39 22 0 -75 0 -76
240 0 240 0 -2 218 -3 217 -231 3 c-127 1 -233 -1 -237 -4z m453 -214 l0 -200
-220 0 -220 0 0 63 c0 81 -11 92 -63 66 -51 -27 -61 -17 -63 66 -4 107 8 123
66 89 45 -27 60 -14 60 56 l0 60 220 0 220 0 0 -200z"/>
<path d="M8504 3239 c-19 -21 -19 -22 4 -15 21 7 22 5 22 -53 0 -54 -2 -61
-20 -61 -11 0 -20 -4 -20 -10 0 -5 23 -10 50 -10 28 0 50 5 50 10 0 6 -8 10
-18 10 -15 0 -18 9 -19 58 -2 89 -2 92 -16 92 -8 0 -22 -10 -33 -21z"/>
<path d="M9317 3383 c-4 -3 -7 -33 -7 -65 0 -62 -8 -70 -44 -43 -27 21 -53 19
-66 -4 -14 -27 -19 -129 -8 -169 12 -43 29 -49 78 -23 l40 21 0 -75 0 -75 305
0 305 0 0 220 0 220 -298 0 c-164 0 -302 -3 -305 -7z m583 -213 l0 -200 -285
0 -285 0 0 63 c0 81 -11 92 -63 66 -50 -26 -59 -17 -62 61 -4 112 7 127 65 94
45 -27 60 -14 60 56 l0 60 285 0 285 0 0 -200z"/>
<path d="M9512 3248 c-15 -15 -16 -54 -2 -63 6 -4 4 -15 -5 -29 -13 -19 -13
-25 1 -44 21 -30 69 -30 89 2 16 24 11 56 -8 56 -7 0 -7 4 1 12 7 7 12 21 12
33 0 28 -19 45 -50 45 -14 0 -31 -5 -38 -12z m65 -42 c-4 -9 -16 -16 -27 -16
-29 0 -38 30 -15 47 16 11 21 11 33 -1 8 -8 12 -22 9 -30z m-2 -66 c0 -18 -6
-26 -23 -28 -13 -2 -25 3 -28 12 -10 26 4 48 28 44 17 -2 23 -10 23 -28z"/>
<path d="M9647 3248 c-23 -18 -29 -84 -12 -125 16 -37 46 -44 81 -19 27 20 27
122 -1 142 -23 17 -46 18 -68 2z m62 -30 c8 -23 5 -83 -5 -99 -8 -13 -42 -11
-50 2 -4 7 -7 31 -7 54 0 23 3 47 7 54 12 19 46 12 55 -11z"/>
<path d="M4345 3168 c0 -99 1 -103 23 -106 23 -4 31 13 10 20 -9 3 -11 31 -9
96 2 71 -1 92 -11 92 -10 0 -13 -24 -13 -102z"/>
<path d="M5323 3256 c14 -11 17 -29 17 -105 0 -54 4 -91 10 -91 11 0 12 3 12
60 0 154 0 150 -29 150 -25 -1 -26 -2 -10 -14z"/>
<path d="M3976 3183 c1 -43 3 -81 3 -85 1 -5 39 -8 86 -8 l85 0 0 85 0 85 -88
0 -87 0 1 -77z m154 -8 l0 -65 -65 0 c-45 0 -65 4 -66 13 0 6 -2 36 -3 65 l-1
52 67 0 68 0 0 -65z"/>
<path d="M4087 3224 c-9 -9 4 -35 14 -28 5 3 9 12 9 20 0 14 -12 19 -23 8z"/>
<path d="M4012 3138 c6 -18 28 -21 28 -4 0 9 -7 16 -16 16 -9 0 -14 -5 -12
-12z"/>
<path d="M3855 3210 c-17 -18 -17 -20 -2 -14 13 4 17 1 17 -14 0 -40 -11 -52
-47 -52 -20 0 -32 -4 -28 -10 10 -16 62 -12 79 6 9 8 16 29 16 46 0 24 3 29
17 24 15 -6 15 -4 -2 14 -10 11 -21 20 -25 20 -4 0 -15 -9 -25 -20z"/>
<path d="M6745 3210 c-14 -15 -15 -19 -4 -15 10 4 15 -2 16 -17 3 -31 -14 -48
-48 -48 -16 0 -29 -4 -29 -10 0 -5 16 -10 35 -10 40 0 71 36 62 70 -4 17 -2
20 15 14 20 -6 20 -6 -1 15 -26 26 -24 26 -46 1z"/>
<path d="M8990 3206 c0 -21 -5 -26 -25 -26 -14 0 -25 -4 -25 -10 0 -5 11 -10
25 -10 20 0 25 -5 25 -25 0 -14 5 -25 11 -25 5 0 8 4 5 9 -10 16 5 41 25 41
10 0 19 5 19 10 0 6 -11 10 -24 10 -19 0 -23 4 -19 19 3 10 0 22 -6 25 -7 5
-11 -3 -11 -18z"/>
<path d="M7940 3213 c0 -3 7 -15 17 -25 15 -17 15 -19 -2 -38 -22 -24 -13 -39
10 -16 20 20 24 20 47 -1 26 -23 32 -11 9 16 -20 23 -20 23 -1 44 24 25 17 37
-8 14 -23 -21 -38 -22 -46 -2 -5 15 -26 21 -26 8z"/>
<path d="M10610 3325 c0 -36 -4 -65 -9 -65 -5 0 -23 8 -40 18 -53 30 -78 -2
-80 -101 -1 -53 21 -117 41 -117 7 0 27 9 45 19 17 11 34 17 37 14 3 -4 6 -37
6 -75 l0 -68 238 2 237 3 0 215 0 215 -238 3 -237 2 0 -65z m455 -152 l0 -198
-217 -3 -218 -2 0 58 c0 32 -6 66 -12 75 -12 16 -16 16 -52 -4 -47 -25 -57
-18 -64 50 -10 104 13 143 62 106 26 -20 52 -19 60 1 3 9 6 38 6 65 l0 49 218
0 217 0 0 -197z"/>
<path d="M10810 3245 c-19 -23 -21 -109 -4 -134 19 -27 55 -27 80 0 20 23 23
93 4 128 -13 25 -61 28 -80 6z m68 -49 c5 -56 -5 -86 -28 -86 -26 0 -38 27
-35 72 4 48 12 60 38 56 18 -2 23 -11 25 -42z"/>
<path d="M11620 3325 c0 -36 -4 -65 -9 -65 -5 0 -22 8 -39 17 -16 9 -36 14
-45 10 -37 -14 -46 -167 -12 -213 13 -18 15 -18 59 3 l46 23 0 -75 0 -75 238
2 237 3 0 215 0 215 -237 3 -238 2 0 -65z m458 -155 l0 -200 -219 0 -219 0 0
56 c0 30 -5 64 -10 75 -11 19 -11 19 -51 -1 -22 -12 -44 -18 -49 -15 -15 9
-23 72 -15 130 7 59 21 69 59 40 26 -20 52 -19 60 1 3 9 6 38 6 65 l0 49 219
0 219 0 0 -200z"/>
<path d="M11829 3239 l-24 -20 23 6 c21 6 22 4 22 -54 0 -54 -2 -61 -20 -61
-11 0 -20 -4 -20 -10 0 -5 23 -10 50 -10 28 0 50 5 50 10 0 6 -9 10 -19 10
-18 0 -20 7 -19 63 1 100 -1 103 -43 66z"/>
<path d="M12637 3384 c-4 -4 -7 -34 -7 -66 0 -32 -2 -58 -5 -58 -2 0 -20 7
-39 16 -19 9 -41 14 -50 11 -47 -18 -41 -227 7 -227 7 0 29 9 50 20 l37 20 0
-75 0 -75 240 0 240 0 -2 218 -3 217 -231 3 c-127 1 -233 -1 -237 -4z m453
-214 l0 -200 -220 0 -220 0 0 63 c0 81 -11 92 -63 66 -22 -11 -43 -17 -48 -12
-13 13 -21 101 -14 145 7 42 26 49 61 23 25 -19 50 -19 58 1 3 9 6 38 6 65 l0
49 220 0 220 0 0 -200z"/>
<path d="M12830 3245 c-30 -36 -20 -138 15 -151 41 -16 86 26 79 74 -1 6 -2
23 -3 36 -2 48 -63 75 -91 41z m64 -21 c3 -9 6 -31 6 -49 0 -18 -3 -40 -6 -49
-9 -24 -43 -19 -54 8 -9 24 -6 78 5 96 10 16 42 12 49 -6z"/>
<path d="M10288 3263 c0 -5 -2 -13 -2 -18 -1 -6 -11 -20 -24 -33 -31 -31 -29
-81 3 -112 14 -13 24 -30 23 -38 -2 -8 3 -17 11 -20 9 -3 11 1 7 15 -4 13 2
26 19 41 37 32 37 85 1 117 -13 11 -22 28 -21 38 3 16 -13 26 -17 10z m-3
-109 c-1 -19 -5 -38 -8 -40 -9 -10 -19 37 -13 62 9 36 25 19 21 -22z m43 22
c5 -24 -7 -70 -16 -61 -11 11 -8 85 3 82 6 -2 12 -12 13 -21z"/>
<path d="M2905 3206 c-9 -14 -15 -33 -13 -43 3 -14 8 -10 22 16 14 26 20 31
27 20 5 -8 9 -23 9 -34 0 -27 27 -65 46 -65 16 0 37 45 31 69 -2 10 -9 4 -19
-19 l-15 -35 -13 30 c-36 89 -50 100 -75 61z"/>
<path d="M12310 3206 c0 -21 -5 -26 -25 -26 -14 0 -25 -4 -25 -10 0 -5 11 -10
25 -10 20 0 25 -5 25 -25 0 -14 4 -25 9 -25 4 0 8 10 7 23 -1 16 5 23 22 25
12 2 22 7 22 12 0 5 -10 10 -22 12 -15 2 -22 9 -20 20 1 9 -2 19 -8 23 -6 4
-10 -4 -10 -19z"/>
<path d="M3243 3158 c13 -36 28 -63 36 -63 7 0 22 16 32 35 20 37 25 90 9 90
-5 0 -10 -11 -10 -24 0 -33 -18 -78 -29 -72 -4 3 -14 26 -21 51 -7 25 -19 45
-26 45 -10 0 -8 -15 9 -62z"/>
<path d="M11268 3198 c18 -20 19 -25 6 -42 -20 -28 -17 -42 4 -23 23 21 32 21
48 0 7 -10 16 -15 20 -11 4 5 -1 17 -11 28 -17 19 -17 21 0 40 24 26 11 39
-15 15 -19 -17 -21 -17 -38 -2 -28 25 -39 20 -14 -5z"/>
<path d="M3730 2665 c0 -36 -4 -65 -9 -65 -5 0 -23 8 -40 18 -38 21 -61 10
-74 -39 -13 -47 -2 -148 17 -167 14 -14 19 -14 51 1 20 9 40 17 45 17 6 0 10
-60 10 -150 l0 -150 3180 0 3180 0 0 300 0 300 -3180 0 -3180 0 0 -65z m6338
-237 l-3 -283 -3145 0 c-1730 -1 -3151 1 -3157 3 -10 3 -13 41 -13 142 0 167
-6 181 -69 147 -22 -12 -43 -18 -47 -14 -11 11 -17 111 -10 153 8 39 8 39 74
12 42 -16 52 -4 52 70 l0 52 3160 0 3160 0 -2 -282z"/>
<path d="M4809 2633 c-1 -10 -2 -38 -3 -63 -2 -49 -6 -52 -64 -28 -30 12 -35
11 -48 -6 -17 -24 -19 -154 -2 -191 13 -29 27 -31 69 -9 17 8 34 13 37 9 4 -4
8 -32 9 -63 1 -31 2 -60 2 -64 1 -5 107 -8 236 -8 l235 0 0 220 0 220 -235 0
c-217 0 -235 -1 -236 -17z m449 -207 l-3 -201 -200 -1 c-110 0 -207 3 -216 8
-12 5 -16 19 -15 51 3 53 -8 87 -28 87 -8 0 -28 -8 -45 -17 -28 -16 -33 -16
-41 -3 -17 26 -16 158 1 175 7 7 20 4 40 -8 46 -26 69 -22 70 11 2 39 6 86 8
93 0 4 98 6 216 6 l215 1 -2 -202z"/>
<path d="M5012 2511 c-31 -19 -31 -133 -1 -152 45 -29 89 9 89 76 0 67 -44
105 -88 76z m55 -23 c14 -19 16 -74 3 -97 -13 -25 -45 -28 -54 -5 -3 9 -6 31
-6 49 0 18 3 40 6 49 7 19 38 21 51 4z"/>
<path d="M5770 2585 c0 -70 -5 -75 -50 -49 -57 34 -85 -10 -76 -120 7 -90 21
-107 71 -83 20 9 40 17 45 17 6 0 10 -31 10 -70 l0 -70 335 0 335 0 0 220 0
220 -335 0 -335 0 0 -65z m651 16 c3 -95 1 -351 -3 -362 -5 -12 -59 -14 -309
-13 -167 1 -307 2 -311 3 -5 1 -8 25 -8 55 0 91 -10 100 -75 69 -19 -9 -37
-14 -41 -11 -10 11 -17 116 -10 154 8 39 8 39 74 12 42 -16 52 -4 52 68 l0 52
315 0 315 0 1 -27z"/>
<path d="M5970 2505 c-30 -36 -20 -138 15 -151 28 -11 63 5 72 33 11 31 7 88
-8 115 -12 22 -62 24 -79 3z m68 -49 c5 -57 -5 -86 -28 -86 -25 0 -40 36 -35
79 6 43 13 53 38 49 18 -2 23 -11 25 -42z"/>
<path d="M6166 2504 c-19 -18 -19 -20 -5 -45 7 -15 7 -24 -1 -35 -19 -22 -4
-63 26 -70 55 -14 98 38 62 74 -9 9 -9 15 0 24 26 26 -1 68 -43 68 -13 0 -31
-7 -39 -16z m67 -16 c7 -23 -4 -38 -29 -38 -19 0 -24 5 -24 25 0 20 5 25 24
25 13 0 26 -6 29 -12z m-3 -73 c17 -21 5 -45 -24 -45 -28 0 -37 17 -24 43 11
21 31 22 48 2z"/>
<path d="M6096 2373 c-11 -11 -6 -23 9 -23 8 0 15 4 15 9 0 13 -16 22 -24 14z"/>
<path d="M7040 2585 c0 -69 -8 -79 -46 -50 -35 26 -61 19 -74 -21 -17 -50 -9
-160 13 -181 16 -16 19 -16 52 0 20 9 40 17 45 17 6 0 10 -31 10 -70 l0 -70
335 0 335 0 0 220 0 220 -335 0 -335 0 0 -65z m650 -159 l0 -201 -315 0 -315
0 0 50 c0 97 -17 113 -79 78 -16 -10 -33 -14 -37 -10 -11 11 -17 111 -10 153
8 39 8 39 74 12 40 -16 48 -7 51 59 0 25 3 49 6 53 3 4 144 8 315 8 l310 -1 0
-201z"/>
<path d="M7162 2557 c-31 -14 -43 -54 -41 -140 2 -70 5 -84 25 -104 23 -23 27
-23 227 -23 258 0 251 -4 255 132 3 83 1 95 -18 116 -11 12 -28 23 -38 23 -80
6 -395 2 -410 -4z m426 -23 c20 -13 22 -22 22 -104 0 -92 -11 -119 -48 -121
-82 -4 -373 0 -390 5 -28 9 -33 29 -33 121 1 115 -5 113 233 113 150 0 198 -3
216 -14z"/>
<path d="M7230 2495 c0 -8 -5 -15 -12 -15 -9 0 -9 -3 0 -12 7 -7 12 -34 12
-60 0 -35 4 -50 15 -55 9 -3 19 -2 23 2 4 4 1 10 -5 12 -8 3 -13 22 -13 48 0
25 5 46 13 49 10 5 10 7 0 12 -7 3 -13 12 -13 20 0 8 -4 14 -10 14 -5 0 -10
-7 -10 -15z"/>
<path d="M7290 2413 c0 -35 4 -63 10 -63 6 0 10 10 11 23 1 12 2 29 3 37 2 8
3 23 4 33 1 9 9 17 17 17 8 0 15 4 15 9 0 5 -13 9 -30 9 l-30 -1 0 -64z"/>
<path d="M8249 2618 c-1 -18 -1 -42 0 -53 2 -39 -13 -49 -47 -31 -43 22 -61
20 -72 -10 -14 -35 -13 -148 2 -179 13 -29 27 -31 69 -10 38 20 49 12 48 -33
-1 -20 -1 -49 0 -64 l1 -28 235 0 235 0 0 220 0 220 -235 0 -235 0 -1 -32z
m451 -192 l0 -201 -210 1 c-115 0 -213 3 -216 7 -4 4 -8 26 -9 49 -2 24 -3 53
-4 66 -1 27 -27 29 -70 5 -42 -24 -51 -10 -51 82 0 92 9 106 51 83 43 -25 69
-23 71 5 2 30 5 69 6 88 2 14 27 16 217 16 l215 1 0 -202z"/>
<path d="M8458 2506 c-10 -7 -18 -16 -18 -20 0 -4 8 -6 18 -4 14 3 17 -6 18
-54 1 -55 -1 -58 -23 -58 -14 0 -21 -4 -18 -10 3 -5 28 -10 56 -10 27 0 49 5
49 10 0 6 -9 10 -20 10 -18 0 -20 7 -20 75 0 78 -7 88 -42 61z"/>
<path d="M9260 2585 c0 -69 -8 -79 -46 -50 -30 22 -59 18 -72 -10 -20 -43 -15
-159 7 -186 19 -23 19 -23 56 -6 20 9 41 15 46 12 5 -4 9 -35 9 -71 l0 -64
335 0 335 0 0 220 0 220 -335 0 -335 0 0 -65z m648 -159 l-3 -200 -309 -1
c-242 0 -309 2 -313 12 -3 7 -6 32 -8 56 -1 23 -3 50 -4 60 0 10 -9 17 -20 17
-11 0 -33 -8 -50 -17 -42 -24 -51 -10 -51 82 0 92 9 106 51 83 47 -27 67 -23
74 15 4 18 6 37 5 42 -2 6 -2 19 -1 31 1 21 2 21 316 21 l315 0 -2 -201z"/>
<path d="M9456 2498 c-9 -12 -16 -41 -16 -63 0 -73 53 -111 93 -67 24 26 23
113 -1 135 -26 23 -58 21 -76 -5z m70 -22 c16 -65 -15 -126 -50 -97 -18 15
-21 73 -6 102 15 27 48 24 56 -5z"/>
<path d="M9672 2472 c-51 -78 -51 -82 -2 -82 37 0 42 -2 37 -20 -3 -13 0 -20
10 -20 8 0 12 4 8 9 -3 5 2 17 12 26 15 15 15 18 2 26 -12 6 -14 21 -11 59 5
66 -14 67 -56 2z m35 -19 c-2 -31 -6 -39 -24 -41 -13 -2 -23 -1 -23 2 0 6 43
76 47 76 1 0 1 -17 0 -37z"/>
<path d="M9580 2365 c0 -16 16 -20 24 -6 3 5 -1 11 -9 15 -9 3 -15 0 -15 -9z"/>
<path d="M4487 2523 c-2 -5 -3 -51 -3 -103 l1 -95 29 -3 c18 -2 26 0 21 7 -3
6 -12 11 -18 11 -9 0 -11 26 -9 95 2 59 0 95 -7 95 -5 0 -12 -3 -14 -7z"/>
<path d="M5450 2520 c0 -5 7 -10 15 -10 12 0 15 -17 15 -95 0 -57 4 -95 10
-95 9 0 11 21 11 125 0 86 1 85 -26 85 -14 0 -25 -4 -25 -10z"/>
<path d="M4120 2435 l0 -85 85 0 85 0 0 85 0 85 -85 0 -85 0 0 -85z m150 0 l0
-65 -65 0 -65 0 0 65 0 65 65 0 65 0 0 -65z"/>
<path d="M4230 2476 c0 -9 7 -16 16 -16 17 0 14 22 -4 28 -7 2 -12 -3 -12 -12z"/>
<path d="M4152 2398 c5 -15 28 -18 29 -3 0 6 -7 12 -17 13 -10 3 -15 -1 -12
-10z"/>
<path d="M3995 2470 c-17 -19 -18 -20 -1 -14 15 6 17 2 14 -27 -3 -30 -7 -34
-35 -37 -39 -4 -45 -22 -7 -22 44 0 64 17 64 56 0 30 3 35 17 30 15 -6 15 -4
-2 14 -10 11 -21 20 -25 20 -4 0 -15 -9 -25 -20z"/>
<path d="M6685 2470 c-17 -19 -18 -20 -1 -14 15 6 17 2 14 -27 -3 -30 -7 -34
-35 -37 -39 -4 -45 -22 -7 -22 44 0 64 17 64 56 0 30 3 35 17 30 15 -6 15 -4
-2 14 -10 11 -21 20 -25 20 -4 0 -15 -9 -25 -20z"/>
<path d="M8930 2465 c0 -18 -5 -25 -19 -25 -11 0 -23 -4 -26 -10 -4 -6 5 -10
19 -10 21 0 26 -5 26 -25 0 -14 5 -25 10 -25 6 0 10 11 10 25 0 20 5 25 25 25
14 0 25 5 25 10 0 6 -11 10 -25 10 -20 0 -25 5 -25 25 0 14 -4 25 -10 25 -5 0
-10 -11 -10 -25z"/>
<path d="M7880 2473 c0 -3 7 -15 17 -25 15 -17 15 -19 -2 -38 -10 -11 -15 -23
-11 -28 4 -4 16 3 25 15 l18 22 21 -22 c12 -11 24 -18 28 -14 3 3 -1 13 -10
22 -20 20 -20 32 -1 52 23 22 9 30 -15 8 -19 -17 -21 -17 -38 -2 -19 18 -32
22 -32 10z"/>
<path d="M10629 2633 c0 -10 -1 -38 -2 -63 -2 -49 -7 -52 -64 -29 -26 11 -35
11 -45 1 -18 -18 -23 -155 -8 -192 14 -34 28 -37 71 -14 17 8 34 13 37 9 4 -4
8 -30 8 -58 1 -29 2 -58 3 -64 1 -10 55 -13 236 -13 l235 0 0 220 0 220 -235
0 c-217 0 -235 -1 -236 -17z m451 -207 l0 -201 -212 1 c-117 1 -215 2 -218 3
-3 1 -5 28 -5 60 -1 33 -6 66 -14 75 -12 14 -17 13 -51 -7 -21 -12 -42 -18
-46 -14 -20 20 -20 164 0 184 4 4 21 0 37 -10 56 -31 76 -16 75 58 -1 22 3 43
7 46 4 3 102 6 217 6 l210 1 0 -202z"/>
<path d="M10838 2506 c-10 -7 -18 -19 -18 -27 0 -10 3 -10 12 -1 21 21 25 14
25 -48 0 -51 -3 -60 -18 -60 -10 0 -21 -4 -24 -10 -4 -6 15 -10 49 -10 31 0
56 5 56 10 0 6 -9 10 -20 10 -18 0 -20 7 -20 75 0 78 -7 88 -42 61z"/>
<path d="M11640 2596 c0 -81 -5 -89 -43 -65 -18 10 -39 19 -48 19 -24 0 -39
-44 -39 -115 0 -69 15 -115 37 -115 8 0 27 7 44 15 16 9 34 13 39 10 6 -3 10
-35 10 -71 l0 -64 235 0 235 0 0 220 0 220 -235 0 -235 0 0 -54z m448 -169
l-3 -201 -208 -1 c-115 0 -211 4 -214 9 -3 5 -7 27 -8 50 -4 73 -5 77 -21 83
-8 3 -31 -3 -50 -13 -46 -25 -54 -12 -54 81 0 92 9 106 51 83 43 -25 69 -23
71 5 0 12 2 31 3 42 1 11 3 29 4 41 1 20 5 21 216 21 l215 1 -2 -201z"/>
<path d="M11836 2504 c-25 -24 -24 -108 1 -136 20 -22 56 -23 73 -3 21 26 25
101 6 130 -19 29 -56 33 -80 9z m65 -31 c19 -50 3 -103 -31 -103 -21 0 -30 19
-30 65 0 18 3 40 6 49 10 26 43 19 55 -11z"/>
<path d="M2980 2425 l0 -95 113 1 c61 1 104 3 95 6 -14 3 -18 15 -18 49 0 24
-4 44 -9 44 -14 0 -23 -18 -13 -24 5 -3 9 -19 10 -36 0 -24 -4 -30 -19 -30
-11 0 -18 4 -14 9 3 5 1 13 -5 16 -6 4 -9 1 -8 -7 2 -9 -14 -14 -59 -16 l-63
-3 0 87 0 86 69 -4 c38 -2 67 0 65 4 -3 4 -36 8 -75 8 l-69 0 0 -95z"/>
<path d="M2891 2484 c0 -11 3 -14 6 -6 3 7 2 16 -1 19 -3 4 -6 -2 -5 -13z"/>
<path d="M3023 2483 c-7 -2 -13 -10 -13 -16 0 -8 4 -7 12 1 17 17 43 15 58 -3
11 -13 10 -18 -8 -31 -12 -8 -22 -20 -22 -25 0 -5 12 1 26 14 22 21 24 28 15
46 -11 20 -40 26 -68 14z"/>
<path d="M3110 2480 c0 -5 5 -10 11 -10 5 0 7 5 4 10 -3 6 -8 10 -11 10 -2 0
-4 -4 -4 -10z"/>
<path d="M11310 2465 c0 -18 -5 -25 -19 -25 -11 0 -23 -4 -26 -10 -4 -6 5 -10
19 -10 21 0 26 -5 26 -25 0 -14 5 -25 10 -25 6 0 10 11 10 25 0 20 5 25 25 25
14 0 25 5 25 10 0 6 -11 10 -25 10 -20 0 -25 5 -25 25 0 14 -4 25 -10 25 -5 0
-10 -11 -10 -25z"/>
<path d="M3371 2468 c2 -33 37 -113 50 -113 19 0 58 80 52 105 -8 31 -23 23
-23 -12 -1 -18 -7 -44 -14 -58 -14 -24 -14 -24 -31 33 -9 31 -21 57 -26 57 -5
0 -9 -6 -8 -12z"/>
<path d="M10260 2473 c0 -3 7 -15 17 -25 15 -17 15 -19 -2 -38 -10 -11 -15
-23 -11 -28 4 -4 16 3 25 15 l18 22 21 -22 c26 -26 42 -15 18 12 -17 18 -17
21 -1 45 20 29 11 34 -17 9 -17 -15 -19 -15 -36 0 -19 18 -32 22 -32 10z"/>
<path d="M3110 2445 c0 -8 4 -15 8 -15 5 0 9 7 9 15 0 8 -4 15 -9 15 -4 0 -8
-7 -8 -15z"/>
<path d="M2923 2435 c0 -7 6 -11 14 -8 7 3 13 6 13 8 0 2 -6 5 -13 8 -8 3 -14
-1 -14 -8z"/>
<path d="M3110 2410 c0 -5 5 -10 10 -10 6 0 10 5 10 10 0 6 -4 10 -10 10 -5 0
-10 -4 -10 -10z"/>
<path d="M3040 2360 c0 -5 7 -10 15 -10 8 0 15 5 15 10 0 6 -7 10 -15 10 -8 0
-15 -4 -15 -10z"/>
<path d="M3730 1925 c0 -36 -4 -65 -10 -65 -5 0 -25 8 -45 17 -32 15 -37 15
-51 1 -19 -19 -30 -120 -17 -167 13 -49 36 -60 74 -38 17 9 35 17 40 17 4 0
10 -69 11 -152 l3 -153 3165 -1 c1741 0 3171 2 3178 4 9 3 12 73 12 303 l0
299 -3180 0 -3180 0 0 -65z m6338 -239 l-3 -281 -3157 -1 -3158 -1 0 141 c0
78 -5 148 -10 156 -8 13 -14 13 -42 2 -67 -27 -66 -28 -73 23 -8 48 -2 131 9
142 4 4 26 -3 51 -15 44 -21 45 -21 55 -2 5 10 10 41 10 68 l0 49 3160 0 3160
0 -2 -281z"/>
<path d="M4809 1895 c-1 -5 -3 -28 -4 -50 -4 -81 -1 -77 -40 -54 -40 24 -70
18 -79 -14 -12 -44 -6 -163 8 -183 13 -17 18 -18 48 -6 61 25 63 23 64 -46 0
-36 5 -66 11 -70 9 -6 422 -8 456 -3 4 0 6 99 5 219 l-3 217 -232 0 c-150 0
-233 -3 -234 -10z m451 -205 c0 -150 -3 -199 -12 -202 -11 -3 -379 -2 -414 1
-5 1 -10 22 -9 50 2 90 -16 107 -74 74 -20 -12 -33 -14 -40 -8 -17 17 -18 149
-1 175 8 12 14 11 47 -7 52 -30 66 -19 68 54 2 32 3 58 4 59 0 0 98 1 216 1
l215 0 0 -197z"/>
<path d="M5006 1764 c-15 -14 -18 -28 -18 -69 0 -59 17 -85 57 -85 32 0 55 36
55 85 0 72 -53 111 -94 69z m64 -23 c23 -43 5 -111 -29 -111 -22 0 -31 19 -31
65 0 18 3 40 6 49 8 22 41 20 54 -3z"/>
<path d="M5781 1902 c-6 -2 -11 -29 -11 -63 0 -64 -6 -69 -50 -44 -38 22 -50
18 -66 -20 -17 -40 -18 -105 -3 -157 11 -42 39 -50 75 -23 36 27 43 19 46 -57
l3 -73 330 0 330 0 0 220 0 220 -322 0 c-177 0 -326 -1 -332 -3z m640 -51 c1
-45 1 -342 0 -356 -1 -6 -110 -9 -308 -9 -170 1 -311 2 -315 3 -5 1 -8 27 -8
59 0 78 -9 91 -52 74 -63 -26 -65 -26 -72 8 -10 53 -7 125 7 144 13 17 15 17
53 -3 36 -20 40 -20 52 -4 6 9 12 40 12 68 l0 52 315 0 315 0 1 -36z"/>
<path d="M5970 1765 c-30 -36 -20 -138 15 -151 41 -16 86 26 79 74 -1 6 -2 23
-3 36 -2 48 -63 75 -91 41z m64 -21 c3 -9 6 -31 6 -49 0 -18 -3 -40 -6 -49 -8
-22 -41 -20 -53 2 -9 18 -6 85 5 103 9 15 41 10 48 -7z"/>
<path d="M6166 1764 c-19 -18 -19 -20 -5 -46 8 -14 8 -23 0 -31 -29 -29 2 -77
48 -77 32 0 51 16 51 45 0 12 -5 26 -12 33 -9 9 -9 15 0 24 26 26 -1 68 -43
68 -13 0 -31 -7 -39 -16z m67 -16 c7 -23 -4 -38 -29 -38 -19 0 -24 5 -24 25 0
20 5 25 24 25 13 0 26 -6 29 -12z m-9 -64 c22 -8 20 -41 -3 -54 -15 -7 -23 -6
-35 6 -19 19 -20 26 -4 42 14 14 20 14 42 6z"/>
<path d="M6100 1625 c-10 -12 -10 -15 4 -15 9 0 16 7 16 15 0 8 -2 15 -4 15
-2 0 -9 -7 -16 -15z"/>
<path d="M7040 1844 c0 -33 -2 -63 -6 -66 -3 -3 -23 4 -44 16 -37 20 -40 20
-57 4 -20 -21 -30 -124 -16 -178 11 -41 40 -51 78 -26 40 26 45 20 45 -57 l0
-72 333 0 332 0 0 220 0 220 -332 0 -333 0 0 -61z m648 -158 l-3 -200 -308 0
c-170 -1 -310 1 -312 4 -2 3 -4 30 -6 60 -4 89 -10 94 -74 63 -32 -15 -37 -15
-46 -3 -11 16 -8 164 3 175 4 4 26 -2 50 -14 56 -27 66 -17 67 75 l1 41 315 0
315 0 -2 -201z"/>
<path d="M7174 1818 c-44 -12 -53 -35 -54 -134 0 -82 2 -93 23 -112 22 -21 32
-22 231 -22 206 0 207 0 231 25 23 22 25 32 25 109 0 74 -3 88 -23 112 l-23
27 -192 1 c-106 1 -204 -2 -218 -6z m422 -32 c15 -21 20 -171 6 -193 -15 -24
-61 -29 -245 -28 -229 1 -220 -4 -219 122 2 124 -8 119 242 119 188 -1 203 -2
216 -20z"/>
<path d="M7230 1755 c0 -8 -5 -15 -12 -15 -9 0 -9 -3 0 -12 7 -7 12 -34 12
-60 0 -35 4 -50 15 -55 9 -3 19 -2 23 2 4 4 1 10 -5 12 -17 6 -17 85 -1 101 9
9 9 12 0 12 -7 0 -12 7 -12 15 0 8 -4 15 -10 15 -5 0 -10 -7 -10 -15z"/>
<path d="M7290 1673 c0 -35 4 -63 10 -63 6 0 10 8 11 18 2 25 6 76 8 85 0 4 8
7 16 7 8 0 15 4 15 9 0 5 -13 9 -30 9 l-30 -1 0 -64z"/>
<path d="M8249 1880 c-1 -14 -2 -36 -4 -50 -1 -14 -3 -33 -3 -42 -2 -16 -4
-16 -34 2 -45 27 -63 25 -78 -10 -15 -37 -10 -174 8 -192 10 -10 19 -10 45 1
59 24 62 22 65 -49 2 -36 8 -67 12 -70 5 -3 109 -5 232 -5 l223 0 0 220 0 220
-232 0 -233 0 -1 -25z m449 -195 l2 -200 -212 1 c-117 1 -215 2 -218 3 -3 1
-5 28 -6 61 -1 78 -11 89 -64 65 -22 -10 -43 -15 -47 -11 -19 19 -19 164 1
183 3 4 23 -3 44 -15 48 -27 63 -17 67 44 2 27 3 54 4 60 1 9 61 11 214 10
l212 -1 3 -200z"/>
<path d="M8458 1766 c-10 -7 -18 -19 -18 -27 0 -10 3 -10 12 -1 21 21 25 13
25 -48 -1 -56 -2 -60 -24 -60 -14 0 -21 -4 -18 -10 3 -5 28 -10 56 -10 27 0
49 5 49 10 0 6 -9 10 -20 10 -18 0 -20 7 -20 75 0 78 -7 88 -42 61z"/>
<path d="M9264 1901 c-2 -2 -4 -26 -4 -52 0 -75 -5 -80 -50 -55 -38 20 -40 20
-57 3 -13 -12 -19 -37 -21 -90 -6 -116 21 -152 83 -111 13 9 29 13 35 9 5 -3
10 -36 10 -73 l0 -67 323 1 c177 1 328 2 335 3 9 1 12 51 12 216 0 118 -3 216
-7 216 -22 4 -655 4 -659 0z m641 -216 l0 -199 -305 -1 c-168 0 -310 1 -315 2
-6 2 -9 27 -9 56 2 57 -9 87 -31 87 -7 0 -27 -8 -44 -17 -28 -16 -33 -16 -42
-3 -11 17 -8 164 4 176 4 4 24 -2 45 -14 57 -32 63 -23 71 104 1 8 93 11 314
10 l312 -1 0 -200z"/>
<path d="M9457 1762 c-22 -24 -22 -100 -1 -130 35 -51 94 -14 94 59 0 77 -52
116 -93 71z m67 -18 c3 -9 6 -31 6 -49 0 -18 -3 -40 -6 -49 -8 -22 -41 -20
-54 3 -14 27 -13 84 2 99 17 17 45 15 52 -4z"/>
<path d="M9672 1732 c-50 -78 -51 -82 -3 -82 23 0 40 -3 40 -7 -3 -19 2 -33
11 -33 6 0 10 9 10 19 0 11 6 22 13 24 9 4 9 8 -1 15 -9 6 -14 29 -14 61 1 66
-15 66 -56 3z m35 -27 c-1 -30 -5 -35 -25 -35 -13 0 -22 3 -20 8 36 74 46 80
45 27z"/>
<path d="M9585 1630 c-8 -13 -1 -24 14 -19 6 3 7 10 2 18 -6 10 -10 10 -16 1z"/>
<path d="M4489 1788 c-1 -2 -2 -49 -3 -105 -2 -101 -2 -103 21 -103 13 0 23 5
23 10 0 6 -4 10 -10 10 -6 0 -10 38 -10 95 0 57 -4 95 -10 95 -5 0 -11 -1 -11
-2z"/>
<path d="M5455 1780 c-3 -5 1 -10 9 -10 13 0 16 -16 16 -95 0 -57 4 -95 10
-95 6 0 10 6 11 13 1 11 1 136 -1 180 0 18 -34 24 -45 7z"/>
<path d="M4120 1695 l0 -85 85 0 85 0 0 85 0 85 -85 0 -85 0 0 -85z m150 0 l0
-65 -65 0 -65 0 0 65 0 65 65 0 65 0 0 -65z"/>
<path d="M4230 1736 c0 -9 7 -16 16 -16 17 0 14 22 -4 28 -7 2 -12 -3 -12 -12z"/>
<path d="M4157 1666 c-6 -15 1 -26 15 -26 11 0 10 27 -1 34 -5 3 -11 0 -14 -8z"/>
<path d="M3995 1730 c-17 -19 -18 -20 -1 -14 15 6 17 2 14 -27 -3 -30 -7 -34
-35 -37 -39 -4 -45 -22 -7 -22 44 0 64 17 64 56 0 30 3 35 17 30 15 -6 15 -4
-2 14 -10 11 -21 20 -25 20 -4 0 -15 -9 -25 -20z"/>
<path d="M6685 1730 c-17 -19 -18 -20 -1 -14 15 6 17 2 14 -27 -3 -30 -7 -34
-35 -37 -39 -4 -45 -22 -7 -22 44 0 64 17 64 56 0 30 3 35 17 30 15 -6 15 -4
-2 14 -10 11 -21 20 -25 20 -4 0 -15 -9 -25 -20z"/>
<path d="M8938 1744 c-5 -4 -8 -16 -8 -26 0 -11 -7 -18 -19 -18 -11 0 -23 -4
-26 -10 -4 -6 5 -10 19 -10 21 0 26 -5 26 -25 0 -14 5 -25 10 -25 6 0 10 11
10 25 0 20 5 25 25 25 14 0 25 5 25 10 0 6 -11 10 -24 10 -19 0 -25 6 -28 26
-2 14 -6 22 -10 18z"/>
<path d="M7880 1733 c0 -3 7 -15 17 -25 15 -17 15 -19 -2 -38 -24 -26 -11 -39
15 -15 19 17 21 17 40 0 27 -25 39 -10 13 16 -21 21 -21 21 -1 41 25 25 15 37
-12 13 -19 -17 -21 -17 -38 -2 -19 18 -32 22 -32 10z"/>
<path d="M10629 1895 c0 -5 -1 -35 -2 -65 -1 -30 -5 -54 -10 -53 -4 2 -21 10
-38 18 -59 31 -79 7 -79 -102 0 -107 26 -136 86 -97 13 9 28 13 32 10 4 -4 8
-35 9 -68 1 -34 6 -64 11 -67 6 -3 156 -6 334 -6 l323 0 0 220 0 220 -332 0
c-217 0 -333 -3 -334 -10z m649 -209 l-3 -200 -308 -1 c-191 0 -311 4 -315 10
-3 5 -6 32 -7 60 -1 78 -12 87 -72 59 -45 -22 -54 -12 -54 69 -1 107 12 125
60 88 29 -22 61 -16 62 13 4 59 6 92 8 97 0 3 143 6 316 6 l315 0 -2 -201z"/>
<path d="M10826 1764 c-26 -25 -26 -107 0 -135 41 -45 94 -7 94 66 0 72 -53
111 -94 69z m64 -25 c11 -20 9 -77 -4 -98 -11 -16 -43 -13 -50 5 -3 9 -6 31
-6 49 0 18 3 40 6 49 9 23 41 20 54 -5z"/>
<path d="M11036 1723 c-20 -32 -36 -61 -36 -65 0 -4 18 -8 40 -8 33 0 40 -3
38 -16 -2 -10 3 -19 10 -21 7 -3 12 4 12 15 0 11 6 23 13 26 10 5 10 7 0 12
-8 3 -13 26 -13 60 0 72 -18 71 -64 -3z m42 -18 c1 -31 -1 -35 -24 -35 -14 0
-24 3 -22 8 36 74 44 79 46 27z"/>
<path d="M10950 1625 c0 -9 5 -15 11 -13 6 2 11 8 11 13 0 5 -5 11 -11 13 -6
2 -11 -4 -11 -13z"/>
<path d="M11842 1895 c-4 -5 -8 -26 -8 -45 -1 -19 -2 -45 -3 -58 l-1 -24 -34
21 c-66 41 -87 20 -88 -93 -1 -110 19 -134 83 -100 17 8 33 13 36 11 3 -3 6
-36 7 -74 l2 -68 328 0 c210 0 330 3 335 10 9 11 11 424 2 426 -3 1 -152 2
-329 3 -208 1 -326 -2 -330 -9z m645 -204 c0 -108 -4 -198 -8 -201 -4 -3 -146
-5 -315 -5 l-309 1 -2 44 c-1 25 -2 55 -2 68 -1 32 -26 38 -66 16 -45 -24 -56
-13 -59 62 -5 109 11 132 64 94 28 -20 34 -21 46 -8 8 8 16 39 18 69 2 30 4
54 5 55 0 0 142 1 315 1 l313 0 0 -196z"/>
<path d="M12037 1768 c-22 -17 -28 -86 -11 -127 10 -25 19 -31 43 -31 42 0 66
45 56 106 -8 58 -48 81 -88 52z m63 -32 c8 -23 6 -62 -5 -94 -3 -7 -15 -12
-27 -10 -19 2 -24 11 -29 45 -3 22 -2 51 3 62 10 29 46 27 58 -3z"/>
<path d="M12220 1745 c0 -19 0 -37 0 -40 0 -3 12 -6 28 -8 15 -2 33 -4 40 -5
8 -1 12 -12 10 -29 -2 -21 -9 -29 -27 -31 -13 -2 -27 2 -31 8 -4 7 -13 11 -20
8 -21 -7 18 -38 49 -38 36 0 51 17 51 57 0 36 -28 59 -61 50 -15 -4 -19 0 -19
19 0 21 5 24 35 24 19 0 35 5 35 10 0 6 -20 10 -45 10 -45 0 -45 0 -45 -35z"/>
<path d="M12166 1631 c-4 -7 -5 -15 -2 -18 9 -9 19 4 14 18 -4 11 -6 11 -12 0z"/>
<path d="M2980 1685 l0 -95 113 1 c61 1 104 3 95 6 -14 3 -18 15 -18 49 0 24
-4 44 -9 44 -14 0 -23 -18 -12 -24 5 -4 9 -19 9 -35 l-1 -29 -83 -1 -84 -1 0
85 0 86 63 -3 c53 -3 62 -6 59 -20 -2 -10 1 -18 7 -18 5 0 8 8 6 18 -2 9 -4
20 -4 25 -1 4 -32 7 -71 7 l-70 0 0 -95z"/>
<path d="M2890 1740 c0 -5 5 -10 11 -10 5 0 7 5 4 10 -3 6 -8 10 -11 10 -2 0
-4 -4 -4 -10z"/>
<path d="M3020 1734 c-12 -13 -10 -14 14 -3 22 11 29 10 43 -3 14 -15 14 -18
-6 -34 -11 -10 -21 -23 -21 -28 0 -5 11 3 25 18 28 31 30 37 13 54 -17 17 -53
15 -68 -4z"/>
<path d="M11510 1725 c0 -20 -5 -25 -25 -25 -14 0 -25 -4 -25 -10 0 -5 11 -10
25 -10 20 0 25 -5 25 -25 0 -14 5 -25 10 -25 6 0 10 11 10 25 0 20 5 25 26 25
14 0 23 4 19 10 -3 6 -15 10 -26 10 -14 0 -19 7 -19 25 0 14 -4 25 -10 25 -5
0 -10 -11 -10 -25z"/>
<path d="M3370 1732 c0 -15 33 -107 41 -117 20 -21 74 79 62 112 -10 24 -23
13 -23 -19 -1 -18 -7 -44 -14 -57 -13 -24 -14 -23 -30 32 -9 31 -21 57 -26 57
-6 0 -10 -4 -10 -8z"/>
<path d="M10260 1733 c0 -3 7 -15 17 -25 15 -17 15 -19 -2 -38 -24 -26 -11
-39 15 -15 19 17 21 17 40 0 25 -23 39 -12 17 13 -21 23 -21 32 0 48 10 7 15
16 11 20 -5 4 -17 -1 -28 -11 -19 -17 -21 -17 -38 -2 -19 18 -32 22 -32 10z"/>
<path d="M2930 1700 c0 -5 5 -10 11 -10 5 0 7 5 4 10 -3 6 -8 10 -11 10 -2 0
-4 -4 -4 -10z"/>
<path d="M3112 1670 c1 -16 4 -30 8 -30 3 0 6 14 6 30 0 17 -3 30 -7 30 -4 0
-7 -13 -7 -30z"/>
<path d="M3040 1620 c0 -5 7 -10 15 -10 8 0 15 5 15 10 0 6 -7 10 -15 10 -8 0
-15 -4 -15 -10z"/>
<path d="M2890 1185 c-18 -22 -23 -96 -8 -125 17 -31 58 -38 81 -12 31 34 27
123 -6 144 -20 13 -54 9 -67 -7z m68 -49 c5 -61 -5 -88 -31 -84 -27 4 -43 61
-28 102 8 20 17 27 34 24 18 -2 23 -10 25 -42z"/>
<path d="M284 515 c1 -43 5 -65 13 -65 24 0 133 53 133 65 0 11 -115 65 -139
65 -4 0 -7 -29 -7 -65z m76 16 l41 -18 -41 -17 c-55 -22 -58 -21 -56 19 0 19
4 35 7 35 4 0 26 -8 49 -19z"/>
<path d="M866 655 c-35 -18 -46 -54 -42 -142 4 -128 -5 -123 253 -123 264 0
253 -6 253 135 0 124 -9 135 -112 135 -40 1 -131 2 -202 3 -73 1 -139 -2 -150
-8z m433 -32 c14 -16 17 -38 16 -102 -2 -119 7 -115 -236 -116 -246 -1 -239
-4 -239 120 0 81 9 108 39 117 8 2 102 4 209 3 186 0 195 -1 211 -22z"/>
<path d="M930 598 c0 -7 12 -24 26 -39 l27 -28 -32 -39 c-17 -22 -31 -43 -31
-46 0 -3 29 -6 65 -6 37 0 65 4 65 10 0 6 -23 10 -52 10 l-52 0 27 28 c33 34
34 49 5 79 l-21 23 41 0 c23 0 42 5 42 10 0 6 -25 10 -55 10 -36 0 -55 -4 -55
-12z"/>
<path d="M1784 821 c-2 -2 -4 -33 -4 -68 l0 -63 -45 22 c-43 21 -46 21 -62 5
-21 -20 -28 -140 -11 -187 11 -34 41 -40 74 -15 41 31 43 23 46 -137 l3 -153
2520 -1 c1386 0 2526 2 2533 4 9 3 12 72 12 298 0 162 -3 295 -7 295 -22 4
-5055 3 -5059 0z m5044 -297 l2 -281 -2515 1 -2515 0 0 140 c0 78 -5 148 -10
156 -8 13 -14 13 -42 2 -66 -27 -66 -27 -74 13 -8 45 0 133 13 146 7 7 23 4
49 -10 50 -27 64 -15 64 54 0 28 2 54 5 57 3 3 1134 5 2513 4 l2507 -1 3 -281z"/>
<path d="M2781 742 c-6 -2 -11 -31 -11 -68 l0 -64 -37 20 c-21 11 -43 20 -50
20 -23 0 -37 -44 -36 -116 1 -106 23 -133 83 -99 14 8 28 14 33 15 4 0 7 -31
7 -69 0 -46 4 -70 13 -73 6 -2 140 -4 297 -4 l285 1 0 220 0 220 -287 0 c-157
0 -291 -1 -297 -3z m564 -217 l0 -200 -278 -1 -278 -1 1 31 c6 113 -6 132 -65
100 -48 -26 -58 -12 -59 80 -1 94 9 107 59 77 49 -29 65 -16 65 54 0 28 2 54
5 57 3 3 128 5 278 4 l272 -1 0 -200z"/>
<path d="M2899 653 c-33 -14 -42 -38 -44 -123 -2 -75 9 -116 35 -130 24 -13
336 -13 360 0 26 14 36 55 34 144 -2 106 -13 116 -133 117 -47 0 -117 1 -155
2 -38 1 -81 -3 -97 -10z m337 -12 c21 -2 33 -55 31 -128 -4 -107 -4 -107 -184
-108 -82 0 -158 1 -169 3 -31 5 -41 37 -39 117 1 82 10 112 33 117 15 3 297 2
328 -1z"/>
<path d="M2964 584 c-11 -15 -14 -28 -8 -32 5 -4 10 -24 11 -44 1 -61 2 -68
13 -68 6 0 10 24 10 54 0 34 5 56 13 59 9 4 8 8 -3 17 -11 9 -12 13 -2 17 17
7 15 23 -3 23 -8 0 -22 -12 -31 -26z"/>
<path d="M4009 715 c-1 -31 -5 -84 -8 -97 0 -4 -16 1 -33 12 -44 27 -62 25
-76 -5 -15 -31 -16 -144 -2 -179 11 -30 39 -34 76 -9 33 21 45 6 43 -57 0 -25
0 -52 0 -60 1 -13 34 -15 236 -15 l235 0 0 220 0 220 -235 0 -235 0 -1 -30z
m451 -190 l0 -202 -216 1 -217 1 -2 68 c-2 38 -6 71 -9 75 -4 3 -21 0 -39 -7
-61 -25 -71 -21 -77 29 -5 48 2 126 14 137 3 4 23 -3 44 -15 50 -28 64 -17 68
49 1 30 3 57 3 60 1 3 98 6 216 6 l215 0 0 -202z"/>
<path d="M4206 594 c-9 -8 -13 -20 -10 -26 5 -7 12 -5 20 6 16 23 48 17 52 -9
2 -13 -12 -35 -38 -60 -55 -54 -52 -65 15 -65 65 0 74 17 13 22 l-43 3 36 35
c45 43 52 62 33 89 -18 25 -56 27 -78 5z"/>
<path d="M5080 693 c0 -78 -5 -86 -43 -62 -43 26 -62 24 -75 -6 -15 -31 -16
-144 -2 -179 11 -30 39 -34 75 -10 13 9 29 13 35 9 5 -3 10 -36 10 -73 l0 -67
235 0 235 0 0 220 0 221 -235 -1 -235 0 0 -52z m450 -167 l0 -201 -215 -1
c-151 -1 -215 2 -216 10 0 6 -2 29 -3 51 -5 79 -6 85 -21 85 -8 0 -30 -8 -50
-17 -47 -23 -55 -11 -55 82 0 95 8 105 57 78 52 -29 67 -19 69 49 1 29 3 56 3
59 1 3 98 6 216 6 l215 0 0 -201z"/>
<path d="M5276 594 c-20 -19 -20 -25 -2 -49 12 -17 12 -21 -2 -31 -23 -17 -8
-62 24 -70 54 -14 98 38 63 73 -8 8 -8 17 0 31 6 11 11 23 11 26 0 13 -34 36
-55 36 -13 0 -31 -7 -39 -16z m64 -29 c0 -20 -5 -25 -25 -25 -20 0 -25 5 -25
25 0 20 5 25 25 25 20 0 25 -5 25 -25z m5 -65 c8 -27 -1 -40 -30 -40 -27 0
-41 26 -24 46 17 20 47 17 54 -6z"/>
<path d="M6084 741 c-2 -2 -4 -33 -4 -68 l0 -64 -39 22 c-48 27 -67 21 -79
-25 -14 -50 -6 -156 13 -175 15 -16 18 -15 87 14 15 6 17 -2 20 -67 l3 -73
293 0 c162 0 298 2 303 6 6 3 8 93 7 220 l-3 214 -298 0 c-164 0 -300 -2 -303
-4z m581 -216 l0 -200 -282 -1 -283 0 0 57 c0 32 -3 64 -6 73 -8 20 -33 20
-58 1 -27 -20 -53 -19 -58 3 -10 37 -6 141 6 158 11 15 15 14 51 -5 52 -27 65
-16 65 59 l0 57 283 -1 282 -1 0 -200z"/>
<path d="M6289 589 l-24 -20 23 6 c21 6 22 4 22 -54 0 -54 -2 -61 -20 -61 -11
0 -20 -4 -20 -10 0 -5 23 -10 50 -10 28 0 50 5 50 10 0 6 -9 10 -20 10 -17 0
-19 6 -16 58 3 62 -2 92 -14 92 -4 0 -18 -9 -31 -21z"/>
<path d="M6415 597 c-10 -8 -15 -19 -11 -26 6 -9 11 -8 20 4 15 21 50 16 54
-8 2 -10 -11 -32 -31 -51 -19 -19 -40 -43 -46 -55 -11 -20 -10 -21 44 -21 30
0 55 5 55 10 0 6 -19 10 -42 10 l-43 0 43 40 c43 40 54 74 30 98 -16 16 -50
15 -73 -1z"/>
<path d="M3583 610 c-32 -19 -58 -48 -51 -56 3 -3 19 9 36 26 47 47 125 37
159 -21 l13 -24 -2 24 c-6 53 -100 85 -155 51z"/>
<path d="M2439 596 c25 -27 25 -31 -13 -118 -10 -24 -12 -38 -5 -38 6 0 18 18
27 40 9 22 20 40 23 40 3 0 11 -18 18 -40 6 -22 16 -40 21 -40 15 0 13 11 -16
86 -29 78 -40 94 -62 94 -12 0 -10 -6 7 -24z"/>
<path d="M5750 603 c-1 -7 -3 -18 -4 -24 0 -7 -10 -15 -21 -20 -15 -6 -16 -8
-4 -8 22 -1 13 -51 -10 -52 -10 0 -11 -2 -3 -6 6 -2 12 -17 13 -31 l1 -27 10
28 c12 34 44 33 41 -1 -2 -12 2 -22 7 -22 6 0 10 11 10 25 0 19 5 25 23 26 16
1 18 2 5 6 -10 2 -18 12 -18 20 0 9 8 22 18 29 12 9 13 13 3 14 -9 0 -11 8 -7
25 4 14 2 25 -4 25 -5 0 -10 -11 -10 -25 0 -37 -37 -35 -43 3 -2 15 -5 21 -7
15z m35 -78 c0 -13 -8 -21 -21 -23 -18 -3 -21 1 -16 23 5 31 37 31 37 0z"/>
<path d="M4747 572 c9 -5 0 -21 -30 -52 -23 -25 -44 -44 -46 -42 -3 1 -6 -4
-7 -13 -2 -11 7 -15 29 -15 24 0 28 3 17 10 -12 8 -8 16 24 49 27 27 43 37 51
31 8 -6 11 -2 11 15 0 21 -5 25 -30 25 -19 0 -26 -3 -19 -8z"/>
<path d="M2025 511 c-16 -10 -39 -28 -49 -40 -29 -33 2 -26 44 9 19 17 40 30
47 30 18 0 16 -29 -2 -36 -8 -4 -15 -10 -15 -15 0 -14 26 -10 40 6 12 14 15
14 31 -1 24 -22 36 -12 13 11 -14 14 -15 18 -4 25 17 11 44 -3 64 -32 9 -12
18 -19 22 -16 3 4 -10 23 -29 44 -33 36 -36 37 -62 26 -20 -9 -31 -10 -39 -2
-14 14 -27 13 -61 -9z"/>
<path d="M7574 741 c-2 -2 -4 -31 -4 -63 0 -32 -4 -58 -10 -58 -5 0 -25 8 -45
17 -33 16 -36 16 -52 0 -20 -20 -30 -124 -16 -177 11 -41 40 -51 78 -26 13 9
29 16 34 16 6 0 11 -33 13 -72 l3 -73 398 0 397 0 -2 220 -3 220 -393 0 c-217
0 -395 -2 -398 -4z m777 -30 c4 -79 0 -374 -6 -379 -4 -4 -175 -7 -381 -8
l-374 0 0 57 c0 32 -3 64 -6 73 -8 20 -34 21 -60 1 -25 -19 -50 -19 -58 1 -11
29 -6 140 7 158 13 17 15 17 52 -3 49 -26 57 -18 63 57 l4 59 379 0 c342 0
379 -1 380 -16z"/>
<path d="M7766 588 c-9 -12 -16 -41 -16 -63 0 -73 53 -111 93 -67 22 24 22
100 1 130 -20 28 -58 28 -78 0z m70 -22 c17 -67 -20 -134 -52 -92 -16 23 -18
69 -4 97 15 27 48 24 56 -5z"/>
<path d="M7966 594 c-15 -14 -18 -28 -18 -69 0 -59 17 -85 57 -85 32 0 55 36
55 85 0 72 -53 111 -94 69z m64 -23 c23 -43 5 -111 -29 -111 -22 0 -31 19 -31
65 0 18 3 40 6 49 8 22 41 20 54 -3z"/>
<path d="M8089 588 c-1 -13 -3 -34 -4 -46 -2 -22 1 -23 30 -18 38 7 60 -12 50
-44 -7 -21 -55 -30 -55 -10 0 6 -7 10 -15 10 -21 0 -19 -17 4 -30 45 -23 91
-1 91 45 0 35 -27 57 -60 50 -25 -6 -27 -4 -23 19 5 22 11 26 39 26 19 0 34 5
34 10 0 6 -20 10 -45 10 -40 0 -45 -3 -46 -22z"/>
<path d="M7896 463 c-11 -11 -6 -23 9 -23 8 0 15 4 15 9 0 13 -16 22 -24 14z"/>
<path d="M7038 660 c-122 -6 -127 -12 -128 -125 0 -44 3 -90 6 -101 12 -45 41
-48 386 -45 96 1 108 16 108 136 0 115 -13 135 -93 136 -29 0 -81 1 -117 2
-36 1 -109 0 -162 -3z m338 -32 c24 -23 24 -182 0 -206 -24 -24 -407 -25 -432
-1 -12 12 -15 37 -15 105 0 125 -9 120 234 119 169 0 199 -2 213 -17z"/>
<path d="M7020 563 c0 -3 7 -15 17 -25 15 -17 15 -19 -2 -38 -10 -11 -15 -23
-11 -28 4 -4 16 3 25 15 l18 22 21 -22 c26 -25 42 -15 19 11 -21 23 -21 32 0
48 10 7 15 16 11 20 -5 4 -17 -1 -28 -11 -19 -17 -21 -17 -38 -2 -19 18 -32
22 -32 10z"/>
</g>
</svg>
