<?xml version="1.0" standalone="no"?>
<!DOCTYPE svg PUBLIC "-//W3C//DTD SVG 20010904//EN"
 "http://www.w3.org/TR/2001/REC-SVG-20010904/DTD/svg10.dtd">
<svg version="1.0" xmlns="http://www.w3.org/2000/svg"
 width="1332.000000pt" height="454.000000pt" viewBox="0 0 1332.000000 454.000000"
 preserveAspectRatio="xMidYMid meet">
<metadata>
Created by potrace 1.16, written by Peter Selinger 2001-2019
</metadata>
<g transform="translate(0.000000,454.000000) scale(0.100000,-0.100000)"
fill="#000000" stroke="none">
<path d="M245 4316 c-44 -20 -85 -68 -96 -112 -14 -62 -11 -3900 3 -3947 12
-40 77 -107 104 -107 8 0 13 -3 11 -7 -5 -7 2135 -7 2156 0 6 2 10 201 11 507
l1 505 4195 5 4195 5 0 363 0 362 -4036 0 -4036 0 1 83 c1 45 5 88 10 96 6 9
5 12 -1 8 -6 -4 -10 50 -10 148 0 105 4 155 11 156 6 0 144 0 306 -1 162 -1
300 -1 305 -1 70 0 5744 0 5755 0 27 0 1872 1 2020 2 80 0 568 1 1085 2 l940
2 0 460 0 460 -5647 3 -5648 2 0 245 0 245 2145 0 2145 0 0 265 0 265 -2715 0
-2715 0 -54 -36 c-78 -51 -99 -52 -171 -4 -59 39 -62 39 -150 39 -53 0 -102
-5 -120 -13z m260 -46 c77 -51 104 -51 180 0 l60 39 2703 1 2702 0 0 -245 0
-245 -117 0 c-65 -1 -1283 -1 -2706 0 l-2588 0 -59 -40 c-32 -22 -70 -40 -84
-40 -14 0 -51 18 -82 40 l-57 40 -148 0 -147 0 1 194 c2 189 3 195 26 228 42
57 65 66 176 67 77 1 82 0 140 -39z m-1 -510 c37 -23 75 -40 93 -40 17 0 54
16 91 40 60 39 63 40 152 40 l90 0 0 -70 c0 -38 -3 -70 -7 -70 -5 0 -21 9 -38
20 -16 11 -42 20 -57 20 -35 0 -48 -38 -48 -141 0 -129 20 -153 95 -117 25 12
47 19 50 16 4 -4 7 -2020 5 -3211 l0 -88 -337 3 c-370 3 -359 2 -404 66 l-24
36 -1 1768 -1 1768 139 0 138 0 64 -40z m1355 -273 c0 -172 -4 -319 -8 -326
-7 -10 -17 -8 -49 8 -57 29 -71 27 -89 -16 -11 -28 -14 -59 -10 -119 7 -126
25 -144 99 -102 33 19 41 20 48 8 9 -15 13 -626 4 -672 l-5 -28 -51 26 c-51
26 -51 26 -71 6 -14 -15 -21 -38 -25 -90 -6 -87 3 -137 29 -163 20 -20 20 -20
66 6 33 18 49 22 54 14 9 -15 9 -283 0 -298 -5 -8 -20 -4 -53 14 -45 25 -46
25 -69 6 -23 -18 -24 -26 -24 -125 0 -92 3 -108 20 -125 l20 -21 52 25 c47 21
53 22 57 7 6 -21 5 -473 -1 -489 -3 -9 -20 -5 -55 14 l-50 26 -20 -21 c-40
-40 -35 -227 6 -261 9 -8 26 -4 62 14 31 16 50 21 55 14 8 -14 11 -222 3 -271
l-6 -37 -50 25 -51 26 -21 -21 c-19 -19 -21 -33 -21 -127 0 -99 2 -107 23
-125 23 -18 24 -18 72 6 56 28 56 28 59 -68 l2 -67 -452 2 -453 3 -2 1635 c-1
899 -2 1645 -3 1656 -2 33 -23 35 -77 9 l-49 -24 -12 22 c-18 32 -17 178 1
203 14 19 15 19 59 -5 54 -29 76 -23 78 21 3 50 6 102 8 111 0 4 204 7 451 7
l451 0 -2 -313z m11296 -642 l0 -440 -5635 0 -5635 0 -6 280 c-3 154 -6 281
-7 281 -15 11 -37 8 -77 -12 -46 -22 -50 -22 -60 -6 -5 9 -10 58 -10 109 0
115 8 127 68 95 23 -12 47 -22 54 -22 21 0 33 36 33 99 l0 60 5638 -2 5637 -2
0 -440z m-10427 -470 c4 -4 6 -407 3 -472 -1 -10 -93 -13 -426 -13 l-425 0 0
64 c0 74 -13 116 -35 116 -9 0 -34 -10 -55 -22 -56 -33 -65 -20 -65 96 0 64 4
98 14 110 13 15 17 14 57 -9 39 -23 72 -25 75 -4 1 5 3 14 4 19 1 6 3 34 4 64
1 54 1 55 34 58 51 5 810 -1 815 -7z m8077 -851 l0 -341 -4462 0 -4463 0 0
172 c0 133 -3 175 -14 191 -15 19 -16 19 -60 -5 -25 -13 -52 -21 -60 -18 -18
7 -29 76 -23 149 7 87 15 92 84 56 55 -30 66 -19 71 72 l4 70 4461 -2 4462 -3
0 -341z m-8395 -609 l0 -245 -265 0 -265 0 0 64 c0 71 -13 116 -32 116 -7 0
-32 -10 -55 -22 -60 -32 -68 -20 -68 96 0 122 9 135 72 101 43 -22 71 -24 74
-4 1 5 3 14 4 19 1 6 3 35 4 65 l1 55 265 0 265 0 0 -245z m-52 -265 l52 0 0
-245 0 -245 -264 0 -264 0 -3 80 c-5 102 -15 113 -74 81 -24 -13 -51 -21 -59
-18 -27 10 -34 177 -9 221 7 13 15 12 61 -12 52 -26 54 -27 68 -8 9 12 14 44
14 83 l0 62 88 3 c48 2 143 2 212 1 69 -1 149 -3 178 -3z"/>
<path d="M1032 4169 c2 -6 8 -10 13 -10 5 0 11 4 13 10 2 6 -4 11 -13 11 -9 0
-15 -5 -13 -11z"/>
<path d="M3262 4171 c2 -7 7 -12 11 -12 12 1 9 15 -3 20 -7 2 -11 -2 -8 -8z"/>
<path d="M3324 4070 c0 -85 3 -110 13 -110 10 0 13 25 13 110 0 82 -3 110 -13
110 -9 0 -13 -28 -13 -110z"/>
<path d="M4897 4173 c-2 -5 -3 -53 -3 -107 1 -70 5 -101 14 -103 9 -4 12 22
12 106 0 96 -8 132 -23 104z"/>
<path d="M5232 4169 c2 -6 8 -10 13 -10 5 0 11 4 13 10 2 6 -4 11 -13 11 -9 0
-15 -5 -13 -11z"/>
<path d="M5779 4173 c-5 -52 -2 -206 4 -210 16 -10 19 7 21 111 1 79 -2 106
-11 106 -7 0 -13 -3 -14 -7z"/>
<path d="M367 4153 c-14 -13 -7 -63 8 -63 17 0 20 26 5 35 -8 5 -7 11 1 21 11
14 -1 20 -14 7z"/>
<path d="M416 4148 c-13 -42 -13 -58 -1 -58 7 0 15 7 19 15 3 8 1 15 -3 15 -5
0 -7 9 -4 20 6 21 -5 28 -11 8z"/>
<path d="M669 4158 c-1 -2 -2 -47 -3 -100 -1 -74 2 -98 11 -98 10 0 13 22 13
83 l1 82 52 -82 c73 -116 86 -113 86 17 0 77 -3 100 -14 100 -10 0 -13 -18
-12 -79 1 -44 -1 -77 -5 -75 -4 3 -28 38 -53 79 -26 41 -53 75 -61 75 -8 0
-15 -1 -15 -2z"/>
<path d="M1523 4150 c-26 -11 -42 -38 -44 -77 -3 -51 1 -64 27 -88 31 -29 80
-33 128 -10 27 13 32 21 30 46 -3 39 -7 43 -49 44 -22 0 -35 -4 -35 -12 0 -8
12 -13 30 -13 45 0 41 -35 -5 -50 -46 -15 -86 3 -98 46 -20 69 41 121 104 90
39 -19 39 -19 39 -3 0 30 -79 46 -127 27z"/>
<path d="M2455 4143 c-4 -13 -15 -23 -24 -23 -14 -1 -14 -2 -1 -13 11 -8 15
-28 14 -62 -1 -60 10 -85 36 -85 23 0 27 15 5 24 -11 4 -15 21 -15 61 0 42 3
55 15 55 8 0 15 5 15 10 0 6 -6 10 -14 10 -8 0 -17 10 -19 23 l-4 22 -8 -22z"/>
<path d="M3085 4060 c0 -73 3 -100 13 -100 13 0 13 1 16 45 1 29 3 30 51 33
53 3 87 21 45 23 -26 1 -68 5 -86 7 -5 1 -10 17 -10 35 1 34 0 34 79 36 70 2
38 21 -35 21 l-73 0 0 -100z"/>
<path d="M4070 4147 c-34 -17 -52 -74 -39 -121 10 -38 49 -66 89 -66 30 0 80
28 80 45 0 19 -9 19 -29 1 -26 -24 -68 -27 -92 -7 -32 26 -32 96 0 122 26 21
64 19 91 -6 14 -12 20 -13 26 -4 11 18 -33 49 -70 49 -17 0 -42 -6 -56 -13z"/>
<path d="M4570 4151 c0 -5 -7 -17 -17 -26 -11 -12 -13 -19 -5 -24 6 -3 12 -36
14 -71 3 -64 3 -65 33 -68 28 -2 29 -2 11 13 -24 18 -31 114 -9 122 18 7 17
23 -2 23 -8 0 -12 6 -9 14 3 8 1 17 -5 21 -6 3 -11 2 -11 -4z"/>
<path d="M5060 4140 c-38 -38 -16 -71 63 -90 33 -9 47 -17 47 -29 0 -42 -65
-56 -97 -22 -12 13 -23 17 -32 12 -9 -6 -6 -14 15 -30 51 -40 144 -19 144 33
0 30 -16 43 -79 62 -28 8 -51 20 -51 27 0 35 56 50 84 22 16 -17 36 -20 36 -6
0 41 -95 56 -130 21z"/>
<path d="M3390 4136 c0 -8 -6 -17 -12 -20 -10 -5 -10 -7 0 -12 8 -4 12 -28 12
-70 0 -68 11 -84 48 -69 16 8 16 8 0 12 -19 5 -19 5 -22 71 -2 30 2 46 13 52
14 9 14 11 -2 21 -9 5 -15 14 -12 20 4 5 -1 9 -9 9 -9 0 -16 -6 -16 -14z"/>
<path d="M886 4104 c-50 -49 -21 -144 43 -144 48 0 66 22 66 80 0 40 -5 55
-19 66 -26 19 -71 18 -90 -2z m73 -18 c17 -21 10 -87 -11 -100 -28 -17 -52 5
-56 48 -4 41 11 66 38 66 10 0 23 -6 29 -14z"/>
<path d="M1030 4039 c0 -60 3 -80 13 -77 8 3 13 31 15 81 2 63 -1 77 -13 77
-12 0 -15 -16 -15 -81z"/>
<path d="M1102 4108 c-28 -28 -8 -63 45 -77 36 -10 39 -44 4 -49 -13 -2 -28 1
-34 7 -6 6 -18 11 -26 11 -11 0 -10 -4 4 -20 33 -36 115 -18 115 25 0 20 -26
43 -59 50 -28 6 -46 27 -34 39 11 10 48 7 61 -6 17 -17 28 -2 12 17 -15 18
-71 20 -88 3z"/>
<path d="M1251 4094 c-55 -70 14 -164 90 -124 23 13 25 30 4 30 -8 0 -15 -4
-15 -10 0 -18 -49 -11 -60 9 -18 35 -12 41 45 41 32 0 55 4 55 11 0 15 -21 53
-34 61 -24 17 -65 8 -85 -18z m77 -6 c21 -21 13 -28 -28 -28 -22 0 -40 4 -40
8 0 14 23 32 40 32 9 0 21 -5 28 -12z"/>
<path d="M1727 4108 c-38 -29 -38 -107 0 -135 25 -19 68 -16 88 7 14 16 15 20
4 20 -8 0 -20 -5 -26 -11 -16 -16 -60 -3 -66 20 -7 27 -1 31 55 31 44 0 48 2
48 23 0 47 -64 74 -103 45z m73 -28 c10 -19 8 -20 -35 -20 -50 0 -52 2 -29 24
21 22 51 20 64 -4z"/>
<path d="M1867 4113 c-10 -20 -1 -147 11 -150 8 -3 12 11 12 49 0 61 17 92 46
86 16 -3 19 -13 22 -71 2 -51 6 -67 18 -67 20 0 18 125 -3 146 -18 17 -55 18
-71 2 -9 -9 -12 -9 -12 0 0 13 -17 16 -23 5z"/>
<path d="M2040 4100 c-13 -13 -20 -33 -20 -60 0 -48 27 -80 68 -80 16 0 37 9
47 20 14 16 15 20 4 20 -8 0 -20 -5 -26 -11 -19 -19 -60 -2 -65 26 -5 24 -3
25 48 25 50 0 54 2 54 23 0 52 -71 76 -110 37z m80 -20 c10 -19 8 -20 -35 -20
-43 0 -44 1 -33 20 7 11 23 20 35 20 12 0 27 -9 33 -20z"/>
<path d="M2185 4043 c0 -52 4 -78 13 -80 9 -4 12 12 12 56 0 57 2 62 27 72 19
7 23 13 15 21 -8 8 -15 8 -27 -2 -10 -8 -15 -9 -15 -1 0 6 -6 11 -13 11 -9 0
-12 -21 -12 -77z"/>
<path d="M2295 4104 c-22 -23 -10 -30 21 -14 18 10 30 11 42 3 26 -16 17 -27
-28 -36 -42 -9 -63 -36 -52 -67 12 -33 60 -41 83 -14 11 14 13 14 21 0 10 -18
38 -22 38 -6 0 6 -4 10 -10 10 -6 0 -10 27 -10 60 0 48 -4 61 -19 70 -29 15
-67 12 -86 -6z m79 -72 c9 -14 -24 -52 -45 -52 -25 0 -35 25 -19 45 13 16 55
20 64 7z"/>
<path d="M2535 4100 c-12 -14 -19 -35 -18 -61 2 -107 133 -106 133 1 0 71 -72
108 -115 60z m71 -8 c15 -9 20 -59 10 -89 -9 -29 -51 -31 -66 -4 -30 57 10
123 56 93z"/>
<path d="M2681 4040 c0 -64 2 -80 14 -80 12 0 15 14 15 60 0 54 2 61 26 73 18
9 23 16 15 21 -7 4 -18 3 -26 -4 -9 -7 -15 -8 -20 0 -16 26 -23 4 -24 -70z"/>
<path d="M2786 4104 c-19 -18 -19 -20 -6 -44 6 -11 28 -24 50 -30 23 -6 40
-17 40 -25 0 -20 -43 -29 -70 -15 -28 15 -41 3 -16 -16 28 -20 73 -17 97 7 18
18 19 23 6 42 -8 12 -28 25 -45 29 -36 10 -49 25 -33 41 8 8 19 8 43 -1 36
-13 46 -9 28 13 -16 20 -74 19 -94 -1z"/>
<path d="M3260 4040 c0 -61 3 -81 13 -78 8 3 12 28 12 78 0 50 -4 75 -12 77
-10 4 -13 -16 -13 -77z"/>
<path d="M3479 4099 c-18 -18 -20 -30 -16 -67 3 -28 12 -51 23 -59 25 -18 69
-16 89 3 22 23 10 30 -21 14 -30 -17 -57 -4 -62 28 -3 19 2 21 50 24 47 3 53
5 50 23 -10 54 -74 73 -113 34z m81 -19 c10 -18 8 -20 -30 -20 -28 0 -40 4
-40 14 0 30 55 34 70 6z"/>
<path d="M3629 4103 c-3 -49 0 -135 5 -141 12 -12 19 10 19 58 -1 50 18 87 38
75 5 -4 9 1 9 9 0 19 -21 21 -38 4 -9 -9 -12 -9 -12 0 0 19 -20 14 -21 -5z"/>
<path d="M3738 4109 c-37 -21 -16 -63 39 -78 18 -5 28 -14 28 -27 0 -20 -26
-23 -75 -8 -25 7 -25 7 -6 -14 23 -26 77 -29 100 -6 30 30 16 61 -35 74 -29 8
-39 16 -39 30 0 15 7 20 24 20 14 0 28 -4 31 -10 9 -15 25 -12 25 4 0 25 -59
35 -92 15z"/>
<path d="M4250 4100 c-13 -13 -20 -33 -20 -60 0 -48 27 -80 68 -80 37 0 63 29
67 74 7 72 -67 114 -115 66z m84 -32 c22 -62 -33 -116 -67 -67 -9 12 -14 26
-12 33 2 6 6 24 10 39 5 24 10 28 33 25 19 -2 29 -11 36 -30z"/>
<path d="M4397 4044 c1 -42 4 -79 7 -82 12 -11 18 8 20 63 1 55 13 74 43 75
20 0 26 -20 25 -81 0 -44 3 -59 14 -59 17 0 20 110 4 141 -12 21 -41 25 -71 9
-13 -7 -19 -7 -19 0 0 5 -6 10 -12 10 -10 0 -12 -21 -11 -76z"/>
<path d="M4639 4113 c-4 -27 1 -146 5 -151 11 -11 16 5 20 64 2 32 8 60 13 61
22 8 37 23 30 30 -4 4 -17 2 -27 -5 -12 -7 -20 -8 -20 -2 0 11 -19 14 -21 3z"/>
<path d="M4751 4106 c-54 -65 -10 -161 64 -142 46 12 64 98 29 137 -20 22 -76
26 -93 5z m78 -28 c8 -21 6 -56 -4 -85 -8 -23 -53 -15 -61 10 -13 37 -13 48
-2 73 15 32 55 33 67 2z"/>
<path d="M5230 4040 c0 -63 3 -80 14 -80 12 0 15 17 15 80 0 63 -3 80 -14 80
-12 0 -15 -17 -15 -80z"/>
<path d="M5311 4111 c-19 -12 -29 -79 -18 -114 10 -31 50 -46 79 -28 15 9 18
8 18 -8 0 -31 -26 -46 -56 -32 -38 17 -49 13 -29 -9 21 -23 63 -26 90 -6 15
11 19 29 21 110 3 79 1 96 -11 96 -8 0 -15 -5 -15 -12 0 -9 -3 -9 -12 0 -14
14 -47 15 -67 3z m73 -43 c13 -38 -3 -82 -31 -86 -36 -5 -49 45 -28 106 8 23
49 9 59 -20z"/>
<path d="M5455 4040 c0 -58 3 -80 12 -80 9 0 13 17 13 53 0 60 17 91 46 85 16
-3 19 -13 22 -71 2 -47 7 -67 16 -67 15 0 19 100 5 137 -10 26 -56 32 -77 11
-9 -9 -12 -9 -12 0 0 7 -6 12 -13 12 -9 0 -12 -22 -12 -80z"/>
<path d="M5638 4109 c-22 -12 -23 -29 -3 -29 8 0 15 5 15 11 0 17 54 6 58 -12
2 -12 -8 -18 -39 -22 -46 -6 -60 -20 -57 -56 4 -31 28 -46 61 -37 38 9 34 27
-4 19 -29 -6 -30 -4 -27 23 3 25 8 29 37 32 31 3 33 1 28 -19 -8 -29 9 -59 33
-59 21 0 27 16 9 22 -6 2 -12 27 -14 56 -2 29 -9 59 -15 67 -14 17 -57 19 -82
4z"/>
<path d="M5846 4104 c-19 -18 -19 -20 -6 -44 5 -10 23 -21 39 -25 16 -3 35
-13 41 -20 25 -30 -20 -47 -60 -23 -26 16 -40 0 -16 -18 41 -29 106 -10 106
31 0 26 -10 35 -55 50 -16 6 -30 17 -30 25 0 19 41 25 61 9 8 -6 18 -9 22 -5
11 12 -29 36 -59 36 -15 0 -35 -7 -43 -16z"/>
<path d="M2933 3955 c1 -19 5 -35 10 -35 4 0 8 3 8 8 8 49 6 62 -6 62 -9 0
-13 -11 -12 -35z"/>
<path d="M3876 3975 c-3 -8 0 -15 5 -15 6 0 9 -9 6 -20 -3 -11 -1 -20 4 -20 5
0 10 6 10 13 1 6 3 22 4 35 3 25 -20 31 -29 7z"/>
<path d="M380 1971 c0 -45 4 -81 9 -81 20 0 165 67 169 78 4 12 -103 65 -154
78 -24 6 -24 6 -24 -75z m129 3 c7 -6 -2 -11 -55 -33 l-52 -20 3 47 c2 26 3
48 4 49 1 2 94 -38 100 -43z"/>
<path d="M1236 3608 c-3 -7 -10 -31 -16 -53 -7 -22 -23 -55 -37 -72 -17 -23
-20 -33 -10 -33 19 0 43 28 61 70 l14 34 15 -34 c20 -45 41 -70 57 -70 9 0 8
6 -4 23 -22 31 -45 83 -49 115 -4 28 -24 42 -31 20z"/>
<path d="M1170 2815 c0 -8 7 -15 15 -15 8 0 15 7 15 15 0 8 -7 15 -15 15 -8 0
-15 -7 -15 -15z"/>
<path d="M1168 2123 c33 -94 51 -102 81 -40 27 56 33 117 11 117 -5 0 -10 -14
-10 -30 0 -29 -24 -100 -34 -100 -2 0 -14 29 -26 65 -13 38 -27 65 -35 65 -11
0 -7 -19 13 -77z"/>
<path d="M1166 1631 c-3 -5 3 -11 13 -14 15 -3 18 -12 15 -38 -2 -19 -9 -35
-14 -37 -23 -8 -7 -20 25 -19 19 1 35 5 35 9 0 4 -6 8 -13 8 -9 0 -13 16 -12
50 0 45 -2 50 -22 50 -12 0 -24 -4 -27 -9z"/>
<path d="M1275 1543 c-70 -112 -70 -113 -57 -113 6 0 23 21 40 48 16 26 45 73
66 105 22 34 31 57 24 57 -7 0 -40 -44 -73 -97z"/>
<path d="M1404 1610 c-67 -27 -100 -132 -54 -171 18 -16 18 -16 0 -35 -19 -19
-18 -19 50 -19 56 0 73 4 87 19 16 18 16 19 1 7 -13 -9 -32 -11 -65 -6 l-48 7
45 21 c80 39 114 124 68 167 -23 21 -49 24 -84 10z m65 -14 c14 -17 6 -80 -15
-113 -8 -13 -26 -30 -40 -39 -23 -16 -27 -16 -41 -1 -9 9 -16 29 -15 45 1 35
35 108 54 115 24 10 46 7 57 -7z"/>
<path d="M1170 973 c0 -4 10 -17 22 -30 l21 -23 -23 -25 c-30 -32 -18 -46 15
-15 l25 23 19 -22 c11 -13 25 -21 32 -19 8 3 2 14 -14 30 l-26 26 25 23 c16
15 21 26 15 32 -7 7 -17 2 -30 -14 l-19 -24 -24 23 c-24 22 -38 28 -38 15z"/>
<path d="M1219 473 c-1 -10 -2 -25 -3 -33 0 -8 -13 -16 -28 -18 -16 -2 -28 -7
-28 -12 0 -5 12 -10 28 -12 22 -2 27 -8 26 -30 0 -17 5 -28 14 -28 7 0 12 8
11 18 -3 35 2 42 31 42 17 0 30 5 30 10 0 6 -15 10 -33 10 -31 0 -33 2 -29 29
2 16 -1 32 -7 35 -6 4 -11 0 -12 -11z"/>
<path d="M3100 3136 c0 -41 -4 -77 -9 -81 -6 -3 -25 4 -43 15 -67 41 -93 23
-104 -73 -8 -71 2 -140 25 -169 l19 -22 50 26 c42 22 51 24 56 11 3 -8 6 -93
6 -189 l0 -174 4325 0 4325 0 0 365 0 365 -4325 0 -4325 0 0 -74z m8627 -291
l0 -345 -4304 0 -4303 0 0 174 c0 218 -5 227 -96 174 -28 -16 -33 -17 -44 -3
-27 32 -17 225 12 225 5 0 28 -10 50 -22 58 -33 72 -19 76 71 l3 71 4303 0
4302 0 1 -345z"/>
<path d="M4220 3030 c0 -44 -2 -80 -4 -80 -3 0 -26 11 -51 25 -77 40 -96 15
-96 -125 0 -82 12 -127 36 -136 8 -3 35 5 59 19 25 14 47 22 50 19 3 -3 6 -43
6 -89 l0 -83 410 0 410 0 0 265 0 265 -410 0 -410 0 0 -80z m800 -185 l0 -245
-387 2 -387 3 -1 60 c-2 75 -12 115 -29 115 -7 0 -34 -12 -60 -26 l-46 -26
-10 27 c-11 29 -13 156 -4 193 8 27 29 28 72 2 20 -12 42 -18 53 -15 20 7 21
15 22 103 l0 52 389 0 388 0 0 -245z"/>
<path d="M4470 2920 c-11 -11 -21 -26 -21 -32 -1 -7 -3 -24 -4 -37 -1 -14 2
-40 7 -58 17 -63 94 -71 118 -13 17 42 8 129 -16 147 -26 19 -61 16 -84 -7z
m71 -16 c7 -9 13 -38 13 -65 -1 -71 -32 -99 -69 -62 -13 13 -16 29 -13 71 6
68 38 93 69 56z"/>
<path d="M4707 2922 c-21 -23 -21 -32 -2 -32 8 0 15 4 15 9 0 16 40 23 55 11
25 -21 17 -39 -40 -96 -31 -30 -53 -59 -50 -64 8 -13 135 -13 135 0 0 10 -25
14 -67 11 -36 -3 -35 16 2 45 46 35 69 78 56 103 -19 35 -78 42 -104 13z"/>
<path d="M4620 2754 c0 -9 5 -14 12 -12 18 6 21 28 4 28 -9 0 -16 -7 -16 -16z"/>
<path d="M5640 3037 c0 -41 -3 -76 -6 -80 -4 -3 -27 5 -52 18 -34 18 -50 22
-63 14 -20 -10 -34 -67 -32 -129 2 -93 4 -109 22 -131 l19 -23 50 26 c28 14
53 24 56 20 3 -3 6 -43 6 -89 l0 -83 410 0 410 0 0 265 0 265 -410 0 -410 0 0
-73z m798 -192 l0 -245 -388 0 -388 0 0 76 c0 102 -15 119 -72 87 -21 -13 -46
-23 -54 -23 -20 0 -29 39 -29 116 1 118 13 132 84 92 55 -30 70 -14 72 75 l1
67 387 0 386 0 1 -245z"/>
<path d="M5884 2919 c-14 -16 -19 -36 -19 -79 0 -67 21 -100 65 -100 39 0 63
32 68 93 3 42 0 57 -18 80 -26 33 -69 36 -96 6z m70 -15 c33 -32 14 -144 -24
-144 -16 0 -40 31 -41 53 -5 90 25 131 65 91z"/>
<path d="M6117 2933 c-8 -8 -9 -87 -1 -95 3 -3 18 -1 34 5 34 13 60 -3 60 -37
0 -43 -39 -59 -71 -30 -10 9 -23 14 -30 12 -22 -7 28 -48 59 -48 38 0 60 19
68 56 8 44 -25 78 -71 72 -25 -3 -32 0 -30 12 2 8 4 21 4 28 1 8 17 12 46 12
25 0 45 5 45 10 0 11 -103 14 -113 3z"/>
<path d="M6035 2761 c-7 -12 12 -24 25 -16 11 7 4 25 -10 25 -5 0 -11 -4 -15
-9z"/>
<path d="M7030 3043 c0 -94 -6 -100 -65 -67 l-48 27 -18 -22 c-38 -47 -38
-216 -1 -254 l20 -20 50 26 c60 31 62 29 62 -79 l0 -74 288 2 287 3 0 260 0
260 -288 3 -287 2 0 -67z m551 20 c1 -36 1 -354 0 -415 l-1 -48 -265 0 -265 0
0 73 c0 48 -5 80 -14 93 -15 19 -15 19 -58 -4 -68 -35 -74 -32 -84 44 -8 67 4
154 22 161 8 3 35 -5 60 -18 44 -24 45 -24 60 -5 9 12 14 44 14 83 l0 63 265
0 265 0 1 -27z"/>
<path d="M7270 2920 c-19 -19 -25 -52 -20 -110 4 -53 37 -78 85 -66 38 10 51
48 46 134 -1 30 -35 62 -66 62 -14 0 -34 -9 -45 -20z m70 -15 c21 -25 24 -92
6 -120 -20 -31 -41 -32 -60 -2 -40 63 10 175 54 122z"/>
<path d="M8269 3103 c0 -5 -2 -39 -3 -76 -2 -37 -6 -70 -9 -73 -3 -3 -26 7
-52 22 l-47 27 -21 -21 c-41 -42 -34 -250 10 -266 9 -4 37 5 63 18 57 30 57
29 55 -82 l-1 -72 410 2 409 3 -1 250 c0 138 -1 256 -1 263 -1 9 -89 12 -406
12 -223 0 -405 -3 -406 -7z m791 -258 l0 -245 -385 0 -385 0 -1 63 c-2 113
-21 138 -78 98 -39 -28 -59 -26 -71 5 -21 53 -9 191 17 201 7 3 34 -5 58 -18
61 -33 72 -18 74 99 l1 42 385 0 385 0 0 -245z"/>
<path d="M8516 2927 c-37 -27 -37 -147 0 -174 43 -32 92 -7 103 53 14 77 -13
134 -64 134 -12 0 -29 -6 -39 -13z m71 -37 c18 -36 16 -84 -5 -111 -36 -43
-79 8 -67 79 10 65 47 81 72 32z"/>
<path d="M8750 2922 c-27 -22 -20 -44 8 -24 31 22 42 24 57 12 26 -21 17 -44
-35 -93 -69 -65 -66 -77 15 -77 37 0 65 4 65 10 0 10 -32 14 -77 10 -13 -1
-23 0 -23 3 0 2 23 27 51 55 44 45 50 56 44 79 -8 35 -6 33 -46 39 -26 4 -41
1 -59 -14z"/>
<path d="M8660 2755 c0 -8 7 -15 15 -15 8 0 15 7 15 15 0 8 -7 15 -15 15 -8 0
-15 -7 -15 -15z"/>
<path d="M9740 3037 c0 -41 -3 -76 -6 -80 -4 -3 -27 5 -52 18 -72 39 -92 19
-97 -102 -4 -78 6 -128 30 -153 14 -13 21 -12 64 12 27 15 52 24 55 21 3 -4 6
-44 6 -90 l0 -83 290 0 290 0 0 265 0 265 -290 0 -290 0 0 -73z m553 36 c3
-10 4 -119 3 -243 l-1 -225 -267 -3 -268 -2 0 79 c0 104 -12 116 -80 78 l-49
-28 -12 23 c-13 25 -17 148 -6 191 9 33 26 34 76 5 56 -32 71 -17 71 73 l0 69
264 0 c244 0 265 -1 269 -17z"/>
<path d="M9998 2922 c-41 -24 -38 -43 3 -22 18 10 19 7 19 -65 0 -73 -1 -75
-25 -75 -14 0 -25 -4 -25 -10 0 -6 26 -10 59 -10 33 0 63 5 66 10 4 6 -5 10
-19 10 -29 0 -28 -3 -29 108 0 78 -4 82 -49 54z"/>
<path d="M10970 3030 c0 -44 -2 -80 -4 -80 -3 0 -26 11 -52 25 -52 28 -68 23
-86 -24 -13 -36 -11 -173 3 -204 17 -37 36 -40 85 -13 23 13 45 21 48 18 3 -3
6 -43 6 -89 l0 -83 290 0 290 0 0 265 0 265 -290 0 -290 0 0 -80z m560 -185
l0 -245 -267 2 -267 3 -2 65 c-2 113 -15 128 -76 90 -66 -40 -78 -25 -78 98 0
109 22 135 77 92 51 -40 77 -15 79 74 1 33 2 62 3 64 1 1 120 2 266 2 l265 0
0 -245z"/>
<path d="M11216 2921 c-20 -22 -27 -93 -13 -134 17 -52 73 -63 106 -21 33 42
26 141 -13 166 -21 14 -63 8 -80 -11z m74 -16 c18 -21 16 -114 -3 -132 -39
-39 -78 23 -63 101 9 45 42 60 66 31z"/>
<path d="M3830 2830 l0 -130 30 0 c17 0 30 5 30 10 0 6 -7 10 -15 10 -12 0
-15 20 -15 120 0 100 -2 120 -15 120 -13 0 -15 -21 -15 -130z"/>
<path d="M5250 2829 c0 -100 3 -130 13 -127 8 3 12 37 13 119 0 99 2 114 17
117 29 6 19 22 -13 22 l-30 0 0 -131z"/>
<path d="M3420 2946 c0 -2 9 -6 20 -9 11 -3 18 -1 14 4 -5 9 -34 13 -34 5z"/>
<path d="M3338 2933 c6 -2 18 -2 25 0 6 3 1 5 -13 5 -14 0 -19 -2 -12 -5z"/>
<path d="M6711 2914 c-12 -15 -21 -33 -21 -40 0 -8 -10 -15 -22 -15 -17 -1
-19 -2 -5 -6 21 -5 20 3 1 -80 -17 -74 -30 -96 -43 -74 -6 9 -11 10 -15 2 -4
-6 0 -14 10 -18 27 -10 59 36 74 106 11 51 16 61 34 62 17 1 17 2 4 6 -21 5
-22 12 -8 47 11 29 30 35 30 9 0 -14 3 -14 12 -5 10 10 10 15 -2 22 -22 14
-26 13 -49 -16z"/>
<path d="M10586 2911 c-5 -7 -9 -23 -10 -35 -1 -15 -9 -22 -28 -24 -37 -4 -36
-22 1 -22 24 0 28 -4 27 -27 0 -14 5 -28 12 -31 10 -3 13 4 10 24 -3 26 0 29
30 32 40 4 43 22 3 22 -27 0 -30 3 -33 38 -2 26 -6 33 -12 23z"/>
<path d="M7872 2882 c-20 -16 -27 -36 -31 -94 0 -10 -13 -24 -28 -32 l-28 -15
37 -1 c53 0 85 32 91 93 3 32 1 45 -5 39 -6 -6 -11 -28 -11 -50 -1 -33 -6 -43
-29 -57 -15 -9 -28 -12 -28 -6 0 5 4 12 8 15 4 2 9 22 10 43 3 42 34 77 61 68
9 -2 23 0 31 5 11 7 6 10 -20 10 -19 0 -45 -8 -58 -18z"/>
<path d="M9290 2893 c0 -4 10 -17 21 -29 l21 -23 -22 -30 c-25 -36 -8 -43 20
-8 l18 22 26 -24 c33 -31 47 -19 16 14 l-23 25 23 25 c13 14 20 28 17 32 -4 3
-18 -4 -32 -17 l-25 -23 -23 21 c-24 22 -37 28 -37 15z"/>
<path d="M3501 2860 c21 -12 43 -100 34 -132 -6 -20 -4 -20 13 5 18 27 18 30
2 80 -14 42 -22 53 -41 55 -20 2 -21 1 -8 -8z"/>
<path d="M3584 2854 c3 -9 6 -21 6 -27 0 -7 4 -7 9 2 10 16 4 41 -11 41 -6 0
-7 -7 -4 -16z"/>
<path d="M3346 2834 c-5 -14 -4 -15 9 -4 17 14 19 20 6 20 -5 0 -12 -7 -15
-16z"/>
<path d="M3383 2830 c-1 -11 2 -22 6 -24 4 -3 7 4 6 14 -2 27 -10 33 -12 10z"/>
<path d="M3410 2800 c0 -5 5 -10 10 -10 6 0 10 5 10 10 0 6 -4 10 -10 10 -5 0
-10 -4 -10 -10z"/>
<path d="M3480 2690 c0 -13 11 -13 30 0 12 8 11 10 -7 10 -13 0 -23 -4 -23
-10z"/>
<path d="M12403 3035 c0 -42 -2 -78 -5 -81 -3 -2 -27 7 -54 21 l-48 26 -20
-21 c-17 -17 -22 -36 -25 -111 -3 -93 8 -143 35 -153 9 -3 37 5 65 19 l49 25
1 -27 c1 -16 1 -56 1 -90 l1 -63 288 0 289 0 0 265 0 265 -288 0 -288 0 -1
-75z m557 -190 l0 -245 -268 0 -268 0 2 63 c1 64 -11 117 -27 117 -6 0 -27 -9
-49 -20 -55 -28 -68 -26 -76 15 -9 51 0 173 14 187 10 10 21 8 57 -11 52 -27
74 -23 77 16 3 62 6 108 7 116 1 4 120 7 266 7 l265 0 0 -245z"/>
<path d="M12646 2921 c-22 -24 -28 -96 -11 -137 23 -56 92 -59 115 -4 17 42 8
129 -16 147 -26 19 -68 16 -88 -6z m74 -16 c7 -8 12 -37 12 -65 0 -72 -30
-101 -66 -64 -10 10 -16 33 -16 64 0 67 38 103 70 65z"/>
<path d="M2065 2825 l0 -105 87 0 88 0 0 70 c0 72 19 101 21 33 2 -35 3 -52 8
-78 1 -5 11 5 23 23 12 19 17 37 12 40 -5 4 -10 16 -12 27 -6 37 -11 43 -31
38 -18 -5 -21 -1 -21 26 l0 31 -88 0 -87 0 0 -105z m162 0 l-1 -96 -74 3 -75
3 -1 88 c0 49 1 91 3 93 2 2 37 4 77 4 l72 0 -1 -95z"/>
<path d="M2115 2892 c-5 -4 -11 -14 -13 -22 -3 -11 1 -10 17 4 23 21 49 18 65
-7 9 -15 7 -21 -13 -36 -13 -10 -21 -24 -18 -32 4 -10 6 -10 6 3 1 9 10 19 20
23 27 8 34 35 15 56 -17 19 -60 25 -79 11z"/>
<path d="M2135 2760 c-3 -6 1 -13 10 -16 19 -8 30 0 20 15 -8 14 -22 14 -30 1z"/>
<path d="M12009 2901 c-1 -12 -2 -27 -3 -33 0 -7 -16 -14 -34 -16 -39 -4 -33
-22 7 -22 20 0 28 -5 28 -17 0 -34 3 -43 13 -43 6 0 10 14 10 30 0 27 3 30 30
30 17 0 30 5 30 10 0 6 -13 10 -30 10 -27 0 -30 3 -30 29 0 34 -19 53 -21 22z"/>
<path d="M2650 2893 c0 -4 10 -17 21 -29 l21 -23 -22 -30 c-25 -36 -8 -43 20
-8 l18 22 26 -24 c33 -31 47 -19 16 14 l-23 25 23 25 c31 32 17 46 -15 15
l-25 -23 -23 21 c-24 22 -37 28 -37 15z"/>
<path d="M2327 2850 c-13 -21 -15 -35 -8 -47 10 -20 11 -25 11 -50 0 -14 4
-13 24 6 33 31 60 85 53 105 -9 23 -29 9 -22 -14 6 -19 -12 -66 -22 -57 -3 3
-7 23 -10 44 -3 21 -6 39 -7 40 -1 1 -10 -11 -19 -27z"/>
<path d="M2120 2180 c-60 -88 -60 -88 -3 -92 40 -2 48 -6 48 -22 0 -11 6 -21
13 -23 7 -3 12 5 12 21 0 16 6 26 15 26 8 0 15 5 15 10 0 6 -7 10 -15 10 -12
0 -15 14 -15 65 0 84 -16 85 -70 5z m45 -20 c-2 -48 -6 -52 -39 -48 l-25 3 27
42 c15 24 30 43 33 43 3 0 5 -18 4 -40z"/>
<path d="M2276 2172 c-25 -37 -46 -71 -46 -75 0 -4 20 -7 44 -7 43 0 65 -18
50 -41 -3 -5 2 -9 10 -9 10 0 16 9 16 25 0 16 6 25 15 25 8 0 15 5 15 10 0 6
-7 10 -15 10 -12 0 -15 14 -15 65 0 86 -15 85 -74 -3z m49 -19 c-1 -35 -3 -38
-34 -41 -36 -4 -36 -2 3 51 26 36 33 34 31 -10z"/>
<path d="M2420 2220 c-21 -21 -23 -31 -21 -93 2 -68 33 -96 86 -83 37 9 52 51
46 134 -1 30 -35 62 -66 62 -14 0 -34 -9 -45 -20z m64 -6 c20 -8 31 -81 17
-117 -27 -70 -82 -31 -76 55 4 59 21 77 59 62z"/>
<path d="M2984 1791 c-2 -2 -4 -37 -4 -76 0 -39 -3 -75 -7 -78 -3 -4 -17 0
-31 9 -86 56 -114 30 -116 -105 -1 -135 28 -169 106 -121 18 11 36 20 41 20 4
0 7 -40 7 -90 l0 -90 490 0 490 0 0 268 0 267 -486 0 c-267 0 -487 -2 -490 -4z
m953 -264 l-2 -242 -465 -3 -465 -2 -2 67 c-4 120 -15 133 -81 93 -42 -26 -59
-25 -68 2 -11 35 -8 173 5 196 l11 21 52 -24 c68 -32 79 -22 81 68 l1 67 361
2 c198 2 408 2 467 0 l106 -3 -1 -242z"/>
<path d="M3229 1611 c-21 -17 -24 -28 -24 -81 1 -53 4 -65 24 -81 29 -24 53
-24 82 0 19 15 24 30 25 74 4 92 -49 135 -107 88z m75 -32 c21 -50 0 -128 -36
-129 -33 -1 -52 96 -28 141 16 30 49 24 64 -12z"/>
<path d="M3465 1606 c-20 -20 -23 -32 -22 -81 2 -46 7 -61 26 -76 57 -46 106
-9 106 81 0 43 -5 63 -19 79 -25 28 -61 27 -91 -3z m74 -10 c28 -33 9 -146
-24 -146 -34 0 -50 37 -45 100 5 54 42 79 69 46z"/>
<path d="M3642 1614 c-28 -19 -30 -39 -2 -24 19 10 20 8 20 -65 0 -73 -1 -75
-25 -75 -14 0 -25 -4 -25 -10 0 -6 29 -10 66 -10 48 0 65 3 61 13 -2 6 -14 11
-25 9 -21 -3 -22 0 -22 87 0 97 -5 105 -48 75z"/>
<path d="M3375 1451 c-7 -12 12 -24 25 -16 11 7 4 25 -10 25 -5 0 -11 -4 -15
-9z"/>
<path d="M4564 1791 c-2 -2 -4 -37 -4 -76 0 -39 -3 -74 -6 -77 -3 -4 -28 6
-56 20 l-50 26 -18 -22 c-38 -46 -37 -210 1 -251 21 -22 36 -20 81 11 16 11
32 16 38 13 5 -3 10 -44 10 -91 l0 -84 490 0 490 0 0 265 c0 205 -3 265 -12
266 -36 4 -960 3 -964 0z m941 -21 c7 0 11 -81 10 -242 l0 -243 -467 -3 -468
-2 0 74 c0 41 -3 81 -6 90 -8 22 -44 20 -74 -4 -32 -25 -57 -25 -65 -1 -17 55
-10 190 12 212 5 5 30 -2 57 -17 64 -34 76 -24 76 67 l0 68 58 3 c42 2 794 1
867 -2z"/>
<path d="M4806 1617 c-24 -17 -33 -105 -16 -147 14 -33 39 -45 76 -36 75 19
62 196 -14 196 -16 0 -36 -6 -46 -13z m68 -23 c35 -35 13 -144 -28 -144 -24 0
-39 30 -39 79 -2 71 31 102 67 65z"/>
<path d="M5058 1623 c-23 -6 -41 -67 -35 -115 10 -72 59 -99 108 -59 20 16 24
28 24 79 0 85 -29 113 -97 95z m56 -29 c33 -32 14 -144 -24 -144 -16 0 -40 31
-41 53 -5 90 25 131 65 91z"/>
<path d="M5190 1582 c0 -27 3 -51 6 -54 3 -3 18 -1 34 5 35 13 60 -3 60 -39 0
-36 -43 -54 -69 -30 -29 27 -50 15 -23 -12 41 -41 104 -23 118 33 12 46 -34
86 -85 72 -13 -3 -18 0 -16 12 2 9 4 22 4 29 1 8 17 12 46 12 25 0 45 5 45 10
0 6 -27 10 -60 10 l-60 0 0 -48z"/>
<path d="M4953 1445 c0 -8 6 -15 14 -15 7 0 13 7 13 15 0 8 -6 15 -13 15 -8 0
-14 -7 -14 -15z"/>
<path d="M6117 1788 c-6 -4 -12 -33 -13 -65 -2 -102 3 -97 -55 -67 l-52 26
-21 -21 c-19 -19 -21 -33 -21 -125 0 -110 9 -136 49 -136 11 0 36 9 55 21 18
11 36 17 39 14 4 -3 7 -38 8 -78 1 -40 3 -78 3 -85 1 -10 62 -12 287 -10 l286
3 0 245 c0 135 -1 254 -1 265 -1 20 -8 20 -277 20 -152 0 -281 -3 -287 -7z
m446 -17 l97 -1 0 -245 0 -245 -265 0 -265 0 0 71 c0 72 -11 109 -33 109 -7 0
-31 -10 -54 -22 -60 -32 -68 -20 -68 96 0 124 9 135 77 99 35 -18 52 -23 60
-15 6 6 13 42 16 81 l5 70 121 3 c66 2 141 2 166 1 25 -1 89 -2 143 -2z"/>
<path d="M6350 1610 c-20 -20 -24 -36 -21 -98 1 -45 17 -71 47 -78 49 -12 93
31 88 86 -1 8 -2 27 -3 43 -1 34 -33 67 -66 67 -14 0 -34 -9 -45 -20z m74 -22
c31 -44 10 -138 -29 -138 -37 0 -57 94 -29 138 18 28 39 28 58 0z"/>
<path d="M7349 1795 c-1 0 -3 -27 -4 -60 -2 -33 -3 -70 -4 -82 l-1 -22 -52 24
c-37 17 -56 21 -69 14 -38 -20 -40 -222 -3 -259 l20 -21 48 26 c27 14 51 24
53 21 3 -3 6 -43 6 -91 l1 -85 408 0 408 0 0 268 0 267 -405 0 c-223 0 -406 0
-406 0z m554 -25 l237 0 0 -245 0 -245 -385 0 c-301 0 -385 3 -386 13 -1 6 -2
35 -4 62 -1 28 -3 60 -4 73 -2 34 -28 38 -77 11 -60 -32 -68 -21 -71 88 -1 73
5 111 23 131 1 2 23 -9 49 -24 42 -24 48 -25 62 -11 10 10 16 37 18 78 3 77
-3 75 173 72 70 -1 234 -3 365 -3z"/>
<path d="M7598 1619 c-40 -23 -44 -139 -6 -171 53 -46 108 -4 108 82 0 81 -46
122 -102 89z m62 -24 c7 -9 13 -38 13 -65 1 -72 -31 -101 -68 -63 -13 13 -16
29 -13 71 6 67 38 93 68 57z"/>
<path d="M7832 1614 c-25 -17 -29 -34 -7 -34 8 0 15 4 15 9 0 16 40 23 55 11
25 -20 17 -38 -35 -89 -69 -67 -67 -81 15 -81 37 0 65 4 65 10 0 9 -53 15 -87
11 -22 -3 -14 10 36 59 40 38 48 53 44 72 -11 46 -59 62 -101 32z"/>
<path d="M7740 1444 c0 -9 5 -14 12 -12 18 6 21 28 4 28 -9 0 -16 -7 -16 -16z"/>
<path d="M8824 1791 c-2 -2 -4 -32 -4 -67 0 -94 -2 -97 -61 -67 -40 21 -51 23
-64 13 -46 -38 -45 -233 1 -267 15 -11 25 -9 62 12 24 14 48 22 53 19 5 -3 9
-43 9 -90 l0 -84 289 0 288 0 0 265 c0 146 -3 266 -6 266 -17 4 -563 4 -567 0z
m551 -266 l0 -240 -268 -3 -267 -2 0 70 c0 107 -24 134 -80 90 -37 -29 -58
-25 -68 13 -12 45 -8 157 7 184 l12 23 51 -26 c49 -25 52 -25 65 -8 7 10 13
44 13 81 l0 63 163 2 c89 2 209 1 267 -2 l105 -5 0 -240z"/>
<path d="M9071 1609 c-26 -25 -22 -35 8 -19 20 10 21 9 21 -65 0 -73 -1 -75
-25 -75 -14 0 -25 -4 -25 -10 0 -6 29 -10 66 -10 41 0 63 4 59 10 -3 6 -14 10
-25 10 -23 0 -26 10 -25 103 0 85 -10 96 -54 56z"/>
<path d="M10054 1791 c-2 -2 -4 -37 -4 -76 0 -39 -2 -74 -5 -77 -3 -3 -26 5
-51 18 -77 39 -97 11 -96 -129 1 -123 34 -155 107 -107 17 11 33 20 38 20 4 0
7 -40 7 -90 l0 -90 290 0 290 0 -2 267 -3 268 -283 0 c-156 0 -285 -2 -288 -4z
m444 -21 l112 0 0 -245 0 -245 -267 2 -268 3 -1 73 c-1 40 -5 79 -8 87 -8 21
-35 19 -74 -5 -46 -28 -60 -25 -68 15 -9 48 -1 182 12 195 6 6 25 1 58 -16 64
-34 78 -22 79 69 l1 66 30 3 c17 2 87 2 156 1 69 -1 176 -3 238 -3z"/>
<path d="M10294 1609 c-14 -16 -19 -36 -19 -79 0 -67 21 -100 65 -100 44 0 65
33 65 100 0 67 -21 100 -65 100 -15 0 -35 -9 -46 -21z m76 -18 c16 -30 12
-107 -6 -125 -37 -37 -64 -7 -64 73 0 37 5 53 18 60 26 15 40 13 52 -8z"/>
<path d="M2590 1520 l0 -130 30 0 c17 0 30 5 30 10 0 6 -6 10 -14 10 -20 0
-22 13 -21 133 1 81 -2 107 -12 107 -10 0 -13 -30 -13 -130z"/>
<path d="M4170 1519 c0 -100 3 -130 13 -127 8 3 13 37 14 114 1 60 2 112 2
117 1 4 8 7 16 7 8 0 15 5 15 10 0 6 -13 10 -30 10 l-30 0 0 -131z"/>
<path d="M2207 1619 c4 -13 8 -18 11 -10 2 7 -1 18 -6 23 -8 8 -9 4 -5 -13z"/>
<path d="M2108 1623 c7 -3 16 -2 19 1 4 3 -2 6 -13 5 -11 0 -14 -3 -6 -6z"/>
<path d="M5820 1616 c0 -9 5 -16 10 -16 6 0 10 4 10 9 0 6 -4 13 -10 16 -5 3
-10 -1 -10 -9z"/>
<path d="M5776 1586 c-9 -19 -24 -37 -34 -39 -15 -4 -15 -5 2 -6 10 -1 16 -6
13 -14 -2 -7 -10 -37 -16 -67 -15 -70 -27 -91 -40 -70 -11 16 -27 7 -16 -9 22
-37 64 16 84 103 8 36 18 56 29 59 15 4 15 5 -1 6 -16 1 -16 4 -3 36 19 45 3
46 -18 1z"/>
<path d="M9656 1603 c-3 -3 -6 -19 -6 -35 0 -23 -4 -28 -24 -28 -14 0 -28 -4
-31 -10 -4 -6 7 -10 24 -10 31 0 37 -10 32 -49 -2 -7 4 -11 11 -9 7 3 13 16
13 29 0 18 6 25 25 27 42 6 48 22 8 22 -34 0 -36 2 -34 31 2 30 -5 44 -18 32z"/>
<path d="M2211 1574 c0 -11 3 -14 6 -6 3 7 2 16 -1 19 -3 4 -6 -2 -5 -13z"/>
<path d="M6950 1572 c-22 -18 -27 -34 -29 -89 -1 -14 -12 -28 -28 -37 l-28
-15 38 -1 c53 0 87 35 87 89 0 34 5 43 28 55 l27 15 -36 1 c-21 0 -46 -8 -59
-18z m35 -9 c-4 -10 -8 -32 -9 -50 -2 -33 -32 -76 -47 -67 -5 2 -5 15 0 27 4
12 7 32 6 45 -1 14 8 31 23 43 30 24 36 24 27 2z"/>
<path d="M8370 1583 c0 -4 10 -17 22 -30 l21 -23 -21 -23 c-12 -13 -22 -26
-22 -30 0 -15 23 -6 40 16 l18 22 31 -29 c35 -34 43 -15 9 21 l-21 23 23 25
c31 32 17 46 -15 15 l-25 -23 -23 21 c-24 22 -37 28 -37 15z"/>
<path d="M2287 1530 c12 -26 13 -33 1 -47 -9 -12 -9 -15 0 -9 7 4 12 2 12 -7
0 -19 26 -40 40 -32 7 4 5 11 -5 21 -8 9 -15 24 -15 35 0 27 19 61 30 54 5 -3
11 -1 15 5 10 16 -21 11 -36 -6 -11 -14 -13 -14 -21 0 -5 9 -15 16 -23 16 -11
0 -11 -5 2 -30z"/>
<path d="M2170 1541 c0 -6 4 -13 10 -16 6 -3 7 1 4 9 -7 18 -14 21 -14 7z"/>
<path d="M2141 1524 c0 -12 7 -28 17 -35 15 -12 16 -12 6 1 -7 8 -14 24 -17
35 -4 19 -5 19 -6 -1z"/>
<path d="M2102 1521 c-11 -6 -9 -9 6 -13 15 -4 19 -2 15 8 -6 16 -4 16 -21 5z"/>
<path d="M2250 1451 c-18 -5 -21 -9 -11 -15 8 -5 19 -2 29 8 9 9 14 16 12 15
-3 -1 -16 -4 -30 -8z"/>
<path d="M2186 1438 c3 -4 9 -8 15 -8 5 0 9 4 9 8 0 5 -7 9 -15 9 -8 0 -12 -4
-9 -9z"/>
<path d="M2110 1000 c-28 -21 -22 -37 8 -21 19 10 20 7 18 -62 -1 -63 -3 -72
-21 -75 -50 -9 -34 -22 28 -22 63 0 93 15 45 22 -21 3 -23 8 -25 78 -2 102 -1
100 -15 100 -7 0 -24 -9 -38 -20z"/>
<path d="M2100 490 c-11 -11 -21 -31 -21 -45 -1 -14 -2 -31 -2 -37 -3 -38 15
-79 37 -89 30 -14 72 -5 85 19 9 17 15 76 12 115 -2 26 -38 57 -66 57 -14 0
-34 -9 -45 -20z m76 -25 c28 -42 6 -135 -32 -135 -25 0 -47 48 -41 91 9 69 43
90 73 44z"/>
</g>
</svg>
