<?xml version="1.0" standalone="no"?>
<!DOCTYPE svg PUBLIC "-//W3C//DTD SVG 20010904//EN"
 "http://www.w3.org/TR/2001/REC-SVG-20010904/DTD/svg10.dtd">
<svg version="1.0" xmlns="http://www.w3.org/2000/svg"
 width="1345.000000pt" height="585.000000pt" viewBox="0 0 1345.000000 585.000000"
 preserveAspectRatio="xMidYMid meet">
<metadata>
Created by potrace 1.16, written by Peter Selinger 2001-2019
</metadata>
<g transform="translate(0.000000,585.000000) scale(0.100000,-0.100000)"
fill="#000000" stroke="none">
<path d="M235 5580 c-43 -9 -83 -38 -103 -74 -16 -29 -17 -207 -18 -2604 -1
-2408 0 -2575 17 -2611 10 -22 32 -47 55 -61 l38 -24 3095 0 3096 0 0 394 0
394 -767 0 c-423 -1 -768 2 -769 5 0 3 -2 18 -4 34 -2 16 1 27 8 27 8 0 8 3 2
8 -12 9 -14 222 -2 222 4 0 5 6 0 12 -4 7 -7 76 -8 152 l0 140 -1298 0 -1297
0 27 23 28 22 2800 1 2800 0 -1 300 c-2 220 1 300 10 301 70 5 1045 1 1054 -5
7 -4 12 -4 12 1 0 10 452 9 468 -1 7 -4 12 -4 12 1 0 10 451 9 468 -1 7 -4 12
-4 12 1 0 10 452 9 468 -1 7 -4 12 -4 12 1 0 10 451 9 468 -1 7 -4 12 -4 12 1
0 10 452 9 468 -1 7 -4 12 -4 12 1 0 10 1732 9 1748 -1 7 -4 12 -3 12 2 0 4
17 8 38 7 20 -2 42 -1 48 2 7 2 10 151 10 476 l-1 472 -140 0 c-82 0 -143 4
-147 10 -5 7 -8 7 -8 0 0 -14 -150 -13 -150 0 0 7 -3 7 -8 0 -10 -14 -5264
-14 -5274 0 -5 7 -8 7 -8 0 0 -14 -150 -13 -150 0 0 6 -3 6 -8 0 -9 -14 -145
-13 -154 0 -5 7 -8 7 -8 0 0 -14 -150 -13 -150 0 0 6 -3 6 -8 0 -9 -14 -145
-13 -154 0 -5 7 -8 7 -8 0 0 -14 -150 -13 -150 0 0 6 -3 6 -8 0 -9 -14 -145
-13 -154 0 -5 7 -8 7 -8 0 0 -14 -150 -13 -150 0 0 6 -3 6 -8 0 -9 -14 -145
-13 -154 0 -5 7 -8 7 -8 0 0 -14 -150 -13 -150 0 0 6 -3 6 -8 0 -9 -14 -145
-13 -154 0 -5 7 -8 7 -8 0 0 -14 -150 -13 -150 0 0 6 -3 6 -8 0 -9 -14 -145
-13 -154 0 -5 7 -8 7 -8 0 0 -14 -150 -13 -150 0 0 6 -3 6 -8 0 -9 -13 -152
-13 -152 0 0 6 -3 6 -8 0 -9 -14 -145 -13 -154 0 -5 7 -8 7 -8 0 0 -7 -466 -9
-1382 -8 -761 1 -1385 2 -1389 2 -3 1 -5 89 -5 196 0 168 2 195 16 196 8 0
2097 1 4642 1 l4628 1 0 778 0 779 -4665 0 c-4436 0 -4665 1 -4666 18 0 9 -1
107 -1 217 l-1 200 -843 0 -843 -1 -43 -31 c-67 -48 -78 -48 -139 -8 -44 30
-63 37 -113 39 -34 1 -75 -1 -91 -4z m190 -50 c59 -41 91 -41 155 1 l51 33
817 1 c449 1 822 -1 828 -2 7 -3 10 -73 11 -208 l0 -205 -834 0 -834 0 -52
-35 c-28 -19 -59 -35 -67 -35 -8 0 -39 16 -67 35 l-52 35 -124 0 -124 0 1 163
c1 137 4 168 19 190 47 71 187 85 272 27z m1 -434 c29 -19 62 -34 75 -34 13 1
46 17 74 35 l50 33 337 0 c293 0 338 -2 339 -15 2 -19 2 -48 0 -80 l-1 -26
-40 23 c-48 28 -70 19 -83 -33 -12 -46 -1 -159 18 -178 13 -13 20 -13 60 7
l45 22 1 -33 c1 -41 1 -408 0 -424 -1 -10 -76 -13 -341 -13 l-340 0 -52 -33
c-29 -18 -63 -32 -74 -31 -12 0 -42 15 -67 33 -45 31 -47 31 -170 31 l-124 0
0 375 -1 375 122 0 121 0 51 -34z m11194 -341 l0 -375 -5148 0 -5147 0 -1 235
c0 157 -4 239 -12 247 -8 8 -22 5 -53 -11 -56 -29 -64 -19 -64 79 0 98 9 109
62 82 54 -28 65 -18 66 57 l1 61 5148 0 5148 0 0 -375z m-11198 -427 c61 -38
91 -38 155 1 l50 31 337 0 c261 0 336 -3 337 -12 3 -27 -1 -91 -4 -95 -3 -2
-21 4 -41 14 -61 29 -83 1 -85 -105 -1 -51 20 -122 36 -122 5 0 26 9 47 21 21
11 40 18 43 15 7 -7 10 -456 3 -457 -3 -1 -156 -2 -340 -3 l-335 -1 -53 -33
c-29 -17 -62 -32 -74 -32 -12 0 -44 15 -72 33 -49 31 -54 32 -161 33 -60 1
-115 2 -121 3 -8 1 -12 104 -12 371 l0 370 121 0 c118 0 121 -1 169 -32z
m11198 -342 l0 -373 -5147 1 -5148 1 -1 233 c0 267 -1 270 -66 234 -51 -28
-60 -21 -66 52 -9 110 13 148 62 111 23 -17 52 -20 61 -5 3 5 7 34 7 65 l2 55
5148 0 5148 0 0 -374z m-11197 -424 c59 -41 95 -41 155 0 l46 32 405 0 c301 1
408 -2 417 -11 10 -10 11 -89 1 -99 -2 -2 -20 5 -41 16 -21 10 -44 16 -51 14
-32 -13 -47 -137 -24 -203 13 -36 44 -41 85 -15 13 9 28 14 32 10 6 -7 11
-2266 4 -2296 -3 -13 -56 -15 -417 -15 l-415 0 -47 -32 c-60 -41 -84 -41 -147
-1 -49 32 -52 33 -170 33 l-121 0 -1 1300 -1 1300 122 -1 c120 -1 123 -2 168
-32z m1911 -152 c-1 -102 -2 -193 -3 -202 -1 -20 -86 -78 -114 -78 -9 0 -42
16 -72 36 -54 36 -56 36 -132 32 -94 -6 -126 -20 -156 -67 l-22 -36 -2 -692
c-2 -486 1 -701 9 -725 15 -47 56 -87 96 -94 19 -4 114 -7 213 -7 l179 -1 0
-58 c0 -32 -2 -58 -5 -58 -2 0 -23 10 -45 21 -38 20 -43 20 -57 6 -21 -21 -29
-142 -13 -191 13 -40 41 -48 76 -21 42 32 45 24 42 -133 l-3 -147 -425 0 -425
0 -1 1158 c-1 846 -4 1161 -12 1169 -8 8 -22 7 -53 -7 -40 -19 -42 -19 -55 -1
-14 19 -14 152 0 174 5 8 20 5 51 -10 56 -27 67 -19 67 53 1 30 2 56 3 59 2 3
196 5 432 5 l428 0 -1 -185z m-190 -268 c63 -40 87 -40 150 1 l51 32 347 1
348 0 0 -42 c0 -71 -5 -76 -51 -52 -48 25 -65 19 -77 -24 -12 -44 -8 -149 7
-176 14 -26 31 -28 72 -7 16 9 34 13 39 10 6 -4 10 -126 10 -316 l0 -309 -352
0 -353 0 -45 -30 c-57 -38 -90 -38 -145 0 -43 29 -46 30 -169 30 l-126 0 0
394 c0 216 3 408 6 425 8 38 55 88 87 93 12 2 51 4 87 3 56 -1 72 -5 114 -33z
m11101 -422 l0 -455 -5092 -3 -5093 -2 -1 302 c0 167 -2 312 -4 322 -6 32 -26
36 -66 13 -53 -31 -63 -17 -63 83 0 99 8 110 62 78 50 -28 62 -20 69 49 2 26
6 53 8 59 2 7 1523 10 5091 10 l5089 -1 0 -455z m-11103 -512 c61 -40 88 -41
151 -1 23 14 44 29 47 32 3 3 160 6 350 6 l345 0 3 -49 c4 -60 -8 -75 -42 -52
-30 19 -60 21 -74 4 -31 -39 -20 -209 15 -222 9 -4 32 3 51 14 28 17 37 18 43
8 5 -7 9 -75 9 -150 l0 -138 -353 0 -352 0 -50 -35 c-57 -41 -74 -40 -144 6
-38 25 -54 29 -114 29 -79 0 -127 18 -154 58 -16 24 -18 55 -21 271 -2 150 0
246 6 250 6 3 60 6 121 5 109 -1 112 -2 163 -36z m5763 30 c8 -5 13 -517 6
-570 -1 -5 -1092 -8 -2425 -8 l-2425 0 -3 150 c-4 175 -8 186 -68 154 -55 -31
-64 -20 -64 76 0 97 11 113 55 87 56 -32 74 -17 78 62 1 25 4 47 6 50 4 8
4828 7 4840 -1z m-5889 -598 c56 0 81 -5 108 -21 20 -12 36 -22 36 -23 0 -2
-50 -2 -110 -1 -123 2 -147 12 -184 74 l-19 32 49 -30 c42 -27 57 -31 120 -31z
m2839 -355 l0 -290 -1250 0 -1250 0 -5 155 c-4 139 -7 155 -23 158 -10 2 -29
-3 -42 -12 -50 -33 -65 -15 -65 81 0 28 4 63 10 77 l9 26 46 -22 c56 -27 65
-19 65 58 0 28 2 53 5 56 3 2 566 4 1252 4 l1248 -1 0 -290z m-4431 -344 c56
-39 86 -39 149 0 43 26 60 31 116 31 107 0 99 4 95 -53 -2 -28 -5 -54 -8 -56
-3 -3 -20 4 -39 16 -19 12 -42 18 -51 15 -32 -12 -48 -138 -25 -203 13 -35 33
-40 80 -15 17 8 34 13 37 9 3 -3 6 -108 7 -232 l0 -227 -282 1 -282 0 -35 27
c-23 17 -39 40 -45 64 -5 20 -9 177 -9 347 l1 310 123 -2 c120 -1 124 -2 168
-32z m5969 30 c4 -1 7 -169 7 -373 l0 -373 -2790 1 c-1534 0 -2793 4 -2797 8
-4 4 -8 107 -8 229 0 122 -4 228 -8 235 -11 16 -37 15 -61 -3 -51 -38 -74 3
-63 111 8 74 12 78 57 53 45 -25 69 -20 71 16 1 14 2 39 3 55 0 17 6 34 13 38
8 5 5532 8 5576 3z"/>
<path d="M307 5433 c-14 -13 -7 -43 10 -43 13 0 14 3 6 11 -6 6 -9 18 -6 25 5
15 1 18 -10 7z"/>
<path d="M340 5415 c0 -14 4 -25 9 -25 5 0 8 11 7 25 -1 33 -16 33 -16 0z"/>
<path d="M560 5356 c0 -51 4 -86 10 -86 6 0 10 30 11 68 l0 67 26 -68 c14 -37
30 -66 36 -64 6 2 21 30 33 63 l23 59 0 -62 c1 -44 5 -63 14 -63 9 0 12 23 12
82 0 67 -3 83 -16 86 -11 2 -23 -16 -41 -65 l-24 -67 -26 65 c-15 36 -33 65
-42 67 -14 3 -16 -9 -16 -82z"/>
<path d="M1379 5421 c-33 -27 -33 -106 1 -133 37 -30 120 -16 120 21 0 16 -15
14 -30 -4 -16 -20 -54 -19 -74 1 -9 8 -16 31 -16 49 0 18 7 41 16 49 20 20 58
21 78 1 17 -17 26 -19 26 -6 0 40 -82 54 -121 22z"/>
<path d="M2090 5355 c0 -63 3 -86 12 -83 16 6 16 160 0 166 -9 3 -12 -21 -12
-83z"/>
<path d="M1810 5416 c0 -8 -6 -17 -12 -19 -10 -4 -10 -7 0 -14 7 -5 11 -27 10
-49 -1 -50 6 -64 35 -64 20 1 21 2 5 14 -12 8 -18 27 -18 51 0 24 6 43 18 51
16 13 16 13 0 14 -10 0 -18 7 -18 15 0 8 -4 15 -10 15 -5 0 -10 -6 -10 -14z"/>
<path d="M766 5378 c-33 -46 -7 -108 44 -108 40 0 65 37 56 84 -10 51 -71 65
-100 24z m76 -21 c7 -39 -9 -69 -34 -65 -17 2 -24 11 -26 31 -5 41 4 57 32 57
17 0 25 -7 28 -23z"/>
<path d="M890 5354 c0 -69 12 -84 65 -82 l45 2 0 63 c0 47 -4 63 -14 63 -10 0
-13 -12 -11 -45 1 -31 -3 -49 -14 -59 -27 -25 -44 -4 -45 53 0 35 -4 51 -13
51 -9 0 -13 -15 -13 -46z"/>
<path d="M1037 5394 c-4 -4 -7 -17 -7 -29 0 -16 10 -26 41 -38 52 -21 44 -42
-14 -33 -35 6 -39 5 -27 -9 16 -19 74 -20 90 0 18 22 5 44 -35 61 -47 19 -46
38 1 31 25 -4 34 -2 31 6 -4 13 -69 22 -80 11z"/>
<path d="M1166 5384 c-21 -20 -21 -78 0 -98 20 -20 55 -20 80 -1 18 14 16 15
-20 9 -27 -5 -41 -3 -47 7 -15 25 -10 29 36 29 38 0 45 3 45 19 0 27 -26 51
-55 51 -13 0 -31 -7 -39 -16z m72 -21 c2 -9 -8 -13 -32 -13 -28 0 -34 3 -29
16 7 18 54 16 61 -3z"/>
<path d="M1548 5389 c-23 -13 -24 -81 -2 -103 29 -29 91 -11 95 27 7 72 -38
108 -93 76z m68 -33 c9 -38 -4 -66 -31 -66 -27 0 -40 28 -31 66 5 17 13 24 31
24 18 0 26 -7 31 -24z"/>
<path d="M1670 5332 c0 -46 3 -63 12 -60 7 3 13 24 13 52 1 48 16 69 42 59 14
-6 15 -9 15 -70 0 -29 4 -43 13 -43 9 0 13 14 13 48 -1 70 -10 82 -63 80 l-45
-2 0 -64z"/>
<path d="M1873 5333 c0 -46 3 -63 13 -63 9 0 13 14 12 46 0 38 4 50 23 65 l23
17 -35 -1 -35 -1 -1 -63z"/>
<path d="M1966 5384 c-22 -21 -20 -77 2 -97 55 -50 129 26 87 89 -18 28 -65
32 -89 8z m69 -49 c0 -33 -4 -41 -22 -43 -25 -4 -44 23 -38 54 2 10 4 23 4 27
1 5 13 7 29 5 24 -3 27 -7 27 -43z"/>
<path d="M225 4875 c-23 -22 -25 -32 -25 -118 0 -146 -7 -141 232 -144 209 -3
240 3 257 45 11 29 9 176 -3 203 -14 33 -54 39 -247 39 -188 0 -190 0 -214
-25z m431 -9 c16 -12 20 -29 22 -104 6 -135 11 -132 -231 -132 -245 0 -232
-10 -228 177 2 71 7 73 225 73 150 0 196 -3 212 -14z"/>
<path d="M300 4791 c0 -5 7 -14 15 -21 21 -17 19 -43 -6 -74 -17 -21 -18 -26
-5 -26 8 0 22 12 29 27 l14 26 18 -26 c9 -15 24 -27 32 -27 11 0 9 8 -8 32
-22 30 -22 32 -5 61 21 38 11 50 -14 17 l-19 -25 -16 23 c-16 22 -35 30 -35
13z"/>
<path d="M795 4780 c-8 -13 4 -32 16 -25 12 8 12 35 0 35 -6 0 -13 -4 -16 -10z"/>
<path d="M835 4770 c3 -5 40 -10 81 -10 43 0 74 4 74 10 0 6 -34 10 -81 10
-51 0 -78 -4 -74 -10z"/>
<path d="M795 4730 c-8 -13 4 -32 16 -25 12 8 12 35 0 35 -6 0 -13 -4 -16 -10z"/>
<path d="M835 4720 c3 -5 40 -10 81 -10 43 0 74 4 74 10 0 6 -34 10 -81 10
-51 0 -78 -4 -74 -10z"/>
<path d="M5960 5007 c0 -35 -3 -66 -6 -70 -3 -3 -24 4 -46 15 l-41 22 -18 -23
c-11 -13 -20 -37 -20 -55 -3 -62 3 -131 12 -148 12 -22 48 -23 75 -3 41 31 43
23 46 -142 l3 -158 1705 0 1705 0 3 313 2 312 -1710 0 -1710 0 0 -63z m3400
-11 c1 -72 1 -498 1 -517 -1 -14 -157 -16 -1691 -16 l-1690 0 0 148 c0 119 -3
151 -15 163 -14 14 -19 13 -48 -4 -18 -11 -37 -20 -44 -20 -18 0 -30 56 -26
119 5 77 16 86 65 59 39 -22 40 -22 54 -3 8 10 14 42 14 70 l0 52 1690 0 1690
0 0 -51z"/>
<path d="M7089 4978 c-1 -2 -2 -29 -3 -61 -2 -31 -6 -60 -9 -63 -4 -4 -18 1
-31 10 -31 20 -60 21 -76 1 -30 -37 -20 -205 14 -218 8 -3 31 3 52 13 21 11
40 17 43 14 3 -3 7 -33 7 -67 1 -34 2 -65 3 -69 1 -5 217 -8 481 -8 l480 0 0
225 0 225 -480 0 c-264 0 -480 -1 -481 -2z m937 -21 c5 -5 9 -288 5 -385 l-1
-22 -462 2 -461 3 -2 62 c-1 82 -12 93 -67 65 -29 -14 -46 -18 -53 -11 -5 5
-10 46 -10 89 0 96 11 113 56 87 58 -32 77 -15 74 65 -1 35 2 48 13 50 33 6
901 2 908 -5z"/>
<path d="M7290 4825 c-18 -22 -23 -96 -8 -125 11 -19 21 -25 48 -25 27 0 37 6
47 25 17 34 16 91 -3 118 -18 26 -65 30 -84 7z m65 -15 c10 -17 13 -74 4 -97
-5 -14 -17 -23 -29 -23 -32 0 -45 59 -25 118 5 14 41 16 50 2z"/>
<path d="M7496 4821 c-23 -26 -24 -106 -1 -131 10 -11 28 -20 40 -20 42 0 61
41 56 117 -3 49 -62 70 -95 34z m70 -25 c17 -67 -20 -134 -52 -92 -17 24 -19
87 -2 104 20 20 47 14 54 -12z"/>
<path d="M7635 4826 c-28 -20 -28 -122 -1 -142 45 -33 86 -7 93 59 9 79 -39
122 -92 83z m65 -31 c14 -36 -1 -99 -24 -103 -10 -2 -23 1 -29 7 -11 11 -13
93 -2 110 12 20 45 12 55 -14z"/>
<path d="M7759 4813 c0 -16 -2 -36 -4 -46 -3 -16 1 -18 28 -13 41 7 60 -5 55
-35 -2 -18 -10 -25 -30 -27 -16 -2 -28 1 -28 7 0 6 -7 11 -15 11 -8 0 -15 -4
-15 -10 0 -13 34 -30 59 -30 24 0 61 33 61 55 0 26 -40 57 -66 52 -20 -3 -24
0 -24 19 0 21 5 24 34 24 19 0 38 5 41 10 4 6 -13 10 -44 10 -49 0 -51 -1 -52
-27z"/>
<path d="M7426 4693 c-11 -11 -6 -23 9 -23 8 0 15 4 15 9 0 13 -16 22 -24 14z"/>
<path d="M8250 4921 c0 -67 -10 -80 -45 -57 -55 36 -83 13 -86 -70 -3 -85 1
-111 19 -134 l18 -22 41 20 c22 12 43 18 47 15 3 -4 6 -37 6 -75 l0 -68 483 0
484 0 0 225 0 225 -484 0 -483 0 0 -59z m930 40 c13 -1 16 -29 16 -206 l0
-205 -463 0 -463 0 0 58 c0 34 -6 66 -14 77 -14 19 -15 19 -54 -3 -54 -30 -65
-16 -64 84 0 92 9 104 57 81 20 -9 42 -17 49 -17 16 0 26 31 26 86 0 22 2 43
4 45 4 3 858 4 906 0z"/>
<path d="M8464 4832 c-16 -10 -30 -44 -28 -67 0 -11 2 -30 3 -42 3 -51 67 -71
95 -31 23 32 21 110 -2 131 -19 18 -49 22 -68 9z m56 -31 c23 -43 5 -111 -29
-111 -22 0 -31 19 -31 65 0 18 3 40 6 49 8 22 41 20 54 -3z"/>
<path d="M8656 4818 c-9 -12 -16 -41 -16 -63 0 -49 23 -85 55 -85 41 0 71 47
61 95 -3 11 -5 25 -5 32 -2 20 -31 43 -56 43 -13 0 -31 -10 -39 -22z m68 -14
c3 -9 6 -31 6 -49 0 -18 -3 -40 -6 -49 -7 -18 -39 -21 -50 -5 -13 21 -15 78
-4 98 13 25 45 28 54 5z"/>
<path d="M8792 4828 c-14 -14 -16 -38 -3 -38 5 0 12 7 15 16 9 22 50 14 54
-11 2 -13 -13 -36 -43 -64 -24 -24 -42 -47 -39 -52 7 -12 114 -11 114 1 0 6
-18 10 -40 10 -22 0 -40 3 -40 6 0 4 15 21 34 38 42 38 52 68 31 90 -19 19
-66 21 -83 4z"/>
<path d="M8920 4795 l0 -46 35 7 c30 5 36 3 44 -17 15 -39 -27 -67 -56 -38 -6
6 -17 9 -23 7 -22 -7 19 -38 49 -38 32 0 61 27 61 58 0 26 -43 56 -70 49 -16
-4 -20 0 -20 19 0 21 4 24 40 24 22 0 40 5 40 10 0 6 -22 10 -50 10 l-50 0 0
-45z"/>
<path d="M8587 4694 c-8 -8 1 -24 14 -24 5 0 9 7 9 15 0 15 -12 20 -23 9z"/>
<path d="M6210 4900 c0 -12 26 -19 39 -10 9 5 4 9 -13 12 -14 3 -26 2 -26 -2z"/>
<path d="M6270 4899 c0 -5 11 -9 25 -9 14 0 25 2 25 4 0 2 -11 6 -25 8 -14 3
-25 1 -25 -3z"/>
<path d="M6330 4895 c0 -8 6 -12 14 -9 8 3 24 -4 35 -15 26 -26 35 -27 19 -1
-17 26 -68 45 -68 25z"/>
<path d="M6156 4885 c-11 -8 -16 -15 -12 -15 5 0 4 -6 -2 -13 -12 -14 -13
-129 -1 -122 3 3 5 28 4 57 -3 54 12 88 45 101 13 5 13 5 0 6 -8 0 -24 -6 -34
-14z"/>
<path d="M6614 4848 c-7 -10 -8 -194 -1 -204 6 -10 64 -11 74 -1 3 4 -1 7 -10
7 -14 0 -17 12 -18 78 -2 92 0 106 12 110 5 2 9 7 9 11 0 9 -61 8 -66 -1z m31
-100 c0 -63 -4 -93 -13 -96 -9 -3 -12 21 -12 92 0 71 3 96 13 96 9 0 12 -24
12 -92z"/>
<path d="M6734 4848 c-3 -4 1 -8 9 -8 10 0 13 -21 14 -95 0 -73 -3 -95 -13
-95 -8 0 -14 -4 -14 -8 0 -4 12 -7 28 -6 15 1 33 3 40 3 9 1 12 29 12 106 0
58 -3 105 -7 106 -41 5 -65 5 -69 -3z m58 -20 c9 -32 2 -172 -10 -176 -9 -3
-12 21 -12 92 0 53 4 96 9 96 5 0 11 -6 13 -12z"/>
<path d="M6395 4805 c0 -19 3 -35 7 -35 3 0 6 16 6 35 0 19 -3 35 -6 35 -4 0
-7 -16 -7 -35z"/>
<path d="M6241 4806 c-18 -24 -22 -36 -12 -36 6 0 11 7 11 15 0 8 9 15 20 15
11 0 20 4 20 8 0 12 -29 11 -39 -2z"/>
<path d="M6290 4807 c0 -4 6 -16 12 -27 11 -17 9 -23 -8 -40 l-20 -21 -29 22
c-18 15 -26 18 -23 8 7 -22 59 -47 65 -31 3 6 10 9 15 6 7 -4 8 -2 4 4 -4 7
-3 12 2 12 19 0 20 27 1 51 -10 13 -19 21 -19 16z"/>
<path d="M6396 4745 c4 -8 8 -15 10 -15 2 0 4 7 4 15 0 8 -4 15 -10 15 -5 0
-7 -7 -4 -15z"/>
<path d="M6130 4696 c0 -13 11 -34 25 -48 22 -23 31 -24 119 -23 87 1 96 3
115 26 11 13 20 34 21 47 0 31 -15 28 -16 -4 -3 -49 -24 -59 -123 -58 -82 1
-93 3 -111 24 -12 14 -18 31 -14 42 3 10 1 18 -5 18 -6 0 -11 -11 -11 -24z"/>
<path d="M2260 4921 c0 -33 -4 -62 -10 -66 -5 -3 -26 4 -47 15 l-38 20 -17
-21 c-16 -19 -20 -40 -20 -94 0 -68 4 -96 20 -114 l17 -22 39 20 c21 11 43 18
47 15 5 -3 9 -36 9 -75 l0 -69 313 2 312 3 1 223 0 222 -313 0 -313 0 0 -59z
m595 37 c6 -4 10 -85 10 -205 l0 -198 -293 -3 -292 -2 0 58 c0 33 -6 66 -14
77 -13 18 -15 18 -57 -3 -55 -27 -60 -20 -62 84 -1 93 8 104 64 79 40 -19 42
-19 55 0 8 10 14 40 14 66 0 26 4 49 10 51 18 6 555 2 565 -4z"/>
<path d="M2468 4829 c-10 -5 -18 -17 -18 -24 0 -20 16 -19 24 1 9 22 50 14 54
-11 2 -13 -12 -34 -38 -58 -56 -54 -53 -67 15 -67 30 0 55 5 55 10 0 6 -18 10
-40 10 -22 0 -40 2 -40 5 0 3 18 23 41 45 33 31 39 43 34 62 -12 38 -49 49
-87 27z"/>
<path d="M2600 4825 c-18 -22 -23 -96 -8 -125 11 -19 21 -25 48 -25 43 0 63
31 57 92 -6 53 -21 73 -57 73 -15 0 -33 -7 -40 -15z m64 -14 c10 -16 13 -76 5
-98 -9 -24 -43 -31 -55 -12 -4 7 -7 31 -7 54 0 23 3 47 7 54 8 13 42 15 50 2z"/>
<path d="M3391 4918 c-1 -34 -4 -64 -6 -67 -3 -3 -19 3 -34 12 -65 38 -91 10
-91 -99 0 -82 21 -128 53 -118 12 4 31 13 42 20 11 8 23 14 27 14 5 0 8 -34 8
-75 l0 -75 520 0 520 0 0 225 0 225 -519 0 -518 0 -2 -62z m1012 43 c4 -1 7
-93 7 -206 l0 -205 -498 0 -499 0 -1 66 c-1 85 -10 94 -64 66 -26 -13 -46 -18
-52 -12 -13 13 -20 111 -12 155 8 40 14 42 62 19 57 -27 69 -12 64 83 -1 23 3
32 16 35 15 3 955 2 977 -1z"/>
<path d="M3603 4833 c-7 -2 -13 -14 -13 -25 0 -20 1 -20 18 -5 29 26 62 17 62
-17 0 -2 -20 -23 -45 -48 -25 -25 -45 -51 -45 -57 0 -14 106 -15 115 -1 4 6
-12 10 -41 10 l-48 0 42 43 c42 43 52 73 30 95 -12 12 -52 15 -75 5z"/>
<path d="M3736 4824 c-22 -22 -9 -40 14 -19 24 22 60 12 53 -14 -3 -10 -22
-36 -44 -57 -54 -53 -51 -64 16 -64 64 0 75 17 14 22 l-41 3 41 42 c23 23 41
51 41 62 0 38 -65 55 -94 25z"/>
<path d="M3876 4827 c-23 -17 -31 -93 -14 -127 16 -29 54 -37 82 -17 26 19 34
99 12 132 -18 28 -52 33 -80 12z m63 -29 c8 -23 5 -83 -5 -99 -10 -17 -45 -9
-53 13 -8 21 -6 70 4 96 8 21 45 14 54 -10z"/>
<path d="M4006 4818 c-9 -12 -16 -41 -16 -63 0 -53 23 -85 60 -85 23 0 33 7
45 30 19 36 19 61 1 105 -12 29 -20 35 -45 35 -20 0 -35 -8 -45 -22z m69 -10
c19 -58 7 -118 -23 -118 -36 0 -52 52 -33 103 11 28 48 38 56 15z"/>
<path d="M4135 4809 c-19 -35 -13 -100 12 -124 21 -22 60 -18 77 7 23 32 21
110 -2 131 -31 28 -69 22 -87 -14z m75 -8 c23 -44 5 -111 -30 -111 -11 0 -22
10 -26 23 -8 25 -7 83 1 97 10 17 44 11 55 -9z"/>
<path d="M4910 4915 c0 -69 -8 -79 -46 -50 -27 20 -61 19 -73 -4 -10 -18 -15
-77 -12 -147 0 -18 9 -42 20 -55 l18 -23 37 22 c21 12 42 20 47 17 5 -4 9 -37
9 -76 l0 -69 245 0 245 0 0 225 0 225 -245 0 -245 0 0 -65z m458 46 c9 -1 12
-49 12 -206 l0 -205 -225 0 -225 0 0 56 c0 57 -12 94 -31 94 -6 0 -23 -9 -39
-20 -23 -16 -30 -17 -45 -7 -14 11 -17 29 -18 90 0 96 8 107 64 82 40 -19 42
-19 55 0 8 10 14 40 14 65 0 26 2 49 4 51 4 3 395 4 434 0z"/>
<path d="M5116 4821 c-23 -26 -24 -106 -1 -131 33 -36 93 -17 96 31 4 62 0 86
-17 103 -21 21 -57 20 -78 -3z m70 -25 c16 -65 -15 -126 -50 -97 -19 16 -22
91 -4 109 20 20 47 14 54 -12z"/>
<path d="M9940 4921 c0 -33 -4 -62 -10 -66 -5 -3 -26 4 -47 15 -31 17 -40 18
-51 6 -18 -18 -31 -83 -27 -131 11 -102 22 -114 81 -85 20 11 41 17 45 14 5
-3 9 -36 9 -75 l0 -69 245 0 245 0 0 225 0 225 -245 0 -245 0 0 -59z m458 40
c9 -1 12 -49 12 -206 l0 -205 -225 0 -225 0 0 58 c0 33 -6 66 -14 77 -13 18
-15 18 -57 -3 -27 -13 -47 -18 -53 -12 -14 14 -13 167 1 181 10 10 21 8 54 -6
40 -19 42 -19 55 0 8 10 14 40 14 66 0 26 5 49 10 51 9 3 396 2 428 -1z"/>
<path d="M10158 4826 c-23 -17 -23 -29 0 -22 15 5 17 -1 17 -54 0 -56 -2 -60
-23 -60 -13 0 -20 -4 -17 -10 3 -5 28 -10 56 -10 27 0 49 5 49 10 0 6 -9 10
-20 10 -18 0 -20 7 -20 75 0 78 -7 88 -42 61z"/>
<path d="M10982 4920 c0 -34 -2 -63 -5 -66 -3 -3 -19 2 -36 10 -47 25 -67 20
-80 -15 -15 -45 -14 -133 3 -174 17 -41 19 -41 70 -14 21 11 40 18 43 15 3 -3
6 -37 6 -76 l0 -70 247 0 246 0 1 225 0 225 -247 0 -248 0 0 -60z m469 41 c3
-1 5 -92 5 -203 l-1 -203 -225 -3 -225 -2 -1 66 c-2 85 -13 96 -66 66 -26 -14
-45 -19 -51 -13 -14 14 -20 93 -13 145 8 51 20 57 66 30 15 -10 35 -14 44 -11
15 6 18 20 18 92 0 17 4 32 8 35 7 4 419 5 441 1z"/>
<path d="M11189 4824 c-7 -9 -13 -41 -13 -71 -1 -57 16 -83 54 -83 50 0 80 93
46 145 -19 29 -66 34 -87 9z m66 -14 c10 -17 13 -74 4 -97 -11 -30 -47 -30
-58 -1 -8 21 -6 70 4 96 5 14 41 16 50 2z"/>
<path d="M1929 4835 c0 -14 0 -54 0 -90 0 -108 -1 -105 26 -105 14 0 25 5 25
10 0 6 -7 10 -15 10 -12 0 -15 18 -15 100 0 60 -4 100 -10 100 -5 0 -10 -11
-11 -25z"/>
<path d="M3067 4853 c-4 -3 -7 -53 -7 -110 0 -81 3 -103 14 -103 11 0 13 20
12 96 -2 86 0 97 16 102 10 2 15 8 12 13 -6 11 -38 12 -47 2z"/>
<path d="M1590 4846 c0 -2 7 -7 16 -10 8 -3 12 -2 9 4 -6 10 -25 14 -25 6z"/>
<path d="M4667 4824 c3 -7 9 -14 14 -14 14 0 10 17 -5 23 -10 4 -13 1 -9 -9z"/>
<path d="M4628 4805 c-6 -14 -14 -25 -18 -25 -4 0 -5 -10 -3 -22 2 -13 -2 -45
-9 -73 -10 -38 -17 -49 -31 -47 -9 2 -17 -2 -17 -8 0 -15 26 -12 44 5 8 9 21
43 28 75 8 42 17 60 28 60 12 0 12 2 1 9 -8 5 -11 16 -6 30 9 29 -3 26 -17 -4z"/>
<path d="M5629 4797 c-18 -13 -36 -77 -22 -77 5 0 10 12 11 28 1 15 10 33 19
39 21 16 22 16 14 -36 -4 -30 -13 -48 -29 -59 -21 -14 -22 -13 -15 3 6 17 5
17 -19 -1 l-26 -19 25 -3 c42 -6 73 23 73 68 0 29 6 43 22 54 l22 16 -29 0
c-17 0 -37 -6 -46 -13z"/>
<path d="M10649 4798 c-1 -7 -1 -19 0 -25 1 -8 -9 -13 -24 -13 -14 0 -25 -4
-25 -10 0 -5 12 -10 26 -10 20 0 25 -4 22 -22 -2 -11 3 -23 10 -26 9 -3 13 3
10 19 -2 19 3 25 27 30 26 5 28 7 10 13 -11 5 -25 9 -32 11 -6 2 -9 13 -6 24
3 12 1 21 -6 21 -6 0 -12 -6 -12 -12z"/>
<path d="M9560 4793 c0 -3 7 -15 17 -25 15 -17 15 -19 -2 -38 -24 -26 -11 -39
15 -15 19 17 21 17 40 0 26 -24 39 -11 15 15 -17 19 -17 21 0 40 24 26 11 39
-15 15 -19 -17 -21 -17 -38 -2 -19 18 -32 22 -32 10z"/>
<path d="M1656 4772 c19 -13 25 -44 12 -60 -9 -11 -9 -13 -1 -9 7 4 14 -1 18
-13 7 -22 20 -26 30 -10 3 6 1 10 -4 10 -6 0 -11 12 -11 26 0 35 -17 64 -38
64 -10 0 -13 -3 -6 -8z"/>
<path d="M1710 4770 c-8 -5 -12 -11 -9 -14 3 -3 14 1 25 9 21 16 8 20 -16 5z"/>
<path d="M1515 4751 c-3 -5 -1 -12 5 -16 5 -3 10 1 10 9 0 18 -6 21 -15 7z"/>
<path d="M1545 4730 c3 -5 8 -10 11 -10 2 0 4 5 4 10 0 6 -5 10 -11 10 -5 0
-7 -4 -4 -10z"/>
<path d="M1590 4680 c-9 -6 -10 -10 -3 -10 6 0 15 5 18 10 8 12 4 12 -15 0z"/>
<path d="M1624 4678 c-3 -4 2 -8 10 -8 8 0 17 4 20 8 3 5 -2 9 -10 9 -8 0 -17
-4 -20 -9z"/>
<path d="M225 4105 c-23 -22 -25 -32 -25 -114 0 -49 3 -97 6 -106 14 -35 53
-41 252 -40 239 1 235 -1 238 132 3 91 -10 135 -41 147 -9 3 -104 6 -211 6
-194 0 -195 0 -219 -25z m439 -17 c22 -31 22 -175 0 -203 -14 -18 -27 -20
-165 -21 -170 0 -158 -11 -113 98 27 65 28 71 13 66 -7 -2 -20 -24 -29 -48
l-18 -45 -16 39 c-9 21 -16 42 -16 47 0 5 -7 9 -15 9 -12 0 -11 -9 6 -52 28
-70 31 -81 21 -95 -14 -21 -68 -25 -91 -5 -21 17 -25 49 -22 164 2 66 8 68
231 68 194 0 199 -1 214 -22z"/>
<path d="M795 4010 c-4 -6 -3 -16 3 -22 6 -6 12 -6 17 2 4 6 3 16 -3 22 -6 6
-12 6 -17 -2z"/>
<path d="M835 4000 c3 -5 40 -10 81 -10 43 0 74 4 74 10 0 6 -34 10 -81 10
-51 0 -78 -4 -74 -10z"/>
<path d="M797 3956 c-6 -15 1 -26 15 -26 4 0 8 9 8 20 0 23 -15 27 -23 6z"/>
<path d="M840 3950 c0 -6 32 -10 75 -10 43 0 75 4 75 10 0 6 -32 10 -75 10
-43 0 -75 -4 -75 -10z"/>
<path d="M5960 4237 c0 -35 -3 -67 -7 -70 -3 -4 -21 3 -39 14 -61 38 -90 2
-86 -106 3 -108 25 -133 87 -97 18 11 36 18 39 15 3 -4 6 -75 6 -160 l0 -153
1710 0 1710 0 0 310 0 310 -1710 0 -1710 0 0 -63z m3400 -24 c1 -171 1 -346 1
-428 l-1 -90 -1682 1 c-926 1 -1686 2 -1690 3 -5 1 -8 65 -8 144 0 176 -5 187
-68 156 -56 -28 -64 -19 -64 76 0 106 8 117 63 86 40 -23 43 -23 56 -6 7 11
13 43 13 72 l0 53 1690 0 1690 0 0 -67z"/>
<path d="M7089 4215 c0 0 -2 -28 -3 -62 0 -34 -4 -64 -7 -68 -4 -3 -22 3 -41
15 -63 36 -83 8 -83 -111 1 -45 6 -75 18 -93 l18 -26 41 21 c49 25 58 17 56
-51 0 -25 0 -53 1 -62 1 -17 31 -18 481 -18 l480 0 -2 227 -3 228 -477 0
c-263 0 -478 0 -479 0z m942 -44 c0 -40 1 -354 0 -373 -1 -17 -30 -18 -460
-18 -358 0 -460 3 -464 13 -2 6 -3 33 -1 58 2 28 -3 54 -10 65 -13 17 -15 17
-55 -1 -33 -14 -44 -16 -54 -6 -15 15 -16 166 -1 181 6 6 24 2 52 -12 54 -28
65 -18 68 59 1 32 3 58 3 59 1 0 208 1 461 1 l460 0 1 -26z"/>
<path d="M7289 4054 c-22 -27 -21 -112 2 -135 23 -23 62 -25 79 -4 21 26 25
101 6 130 -19 29 -66 34 -87 9z m65 -13 c10 -16 13 -76 5 -98 -9 -24 -43 -31
-55 -12 -4 7 -7 31 -7 54 0 23 3 47 7 54 8 13 42 15 50 2z"/>
<path d="M7496 4054 c-16 -16 -20 -35 -16 -89 6 -89 108 -84 111 6 3 72 -12
99 -56 99 -13 0 -31 -7 -39 -16z m70 -28 c17 -67 -20 -134 -52 -92 -17 24 -19
87 -2 104 20 20 47 14 54 -12z"/>
<path d="M7630 4055 c-7 -8 -15 -35 -18 -60 -8 -77 41 -120 94 -81 15 11 19
26 19 69 0 31 -6 61 -14 70 -17 21 -64 22 -81 2z m65 -16 c11 -17 13 -83 3
-101 -13 -26 -47 -22 -58 6 -8 22 -6 62 5 94 5 15 41 16 50 1z"/>
<path d="M7759 4053 c0 -10 -2 -31 -4 -47 -4 -27 -2 -28 28 -22 41 7 60 -5 55
-35 -4 -28 -40 -38 -64 -18 -8 6 -18 9 -22 5 -11 -12 29 -36 59 -36 29 0 43
12 53 47 10 30 -27 67 -60 60 -20 -3 -24 0 -24 19 0 21 5 24 41 24 24 0 38 4
34 10 -3 6 -26 10 -51 10 -35 0 -44 -4 -45 -17z"/>
<path d="M7420 3913 c0 -7 6 -13 13 -13 8 0 14 6 14 13 0 8 -6 14 -14 14 -7 0
-13 -6 -13 -14z"/>
<path d="M8250 4153 c0 -34 -4 -64 -9 -68 -5 -3 -25 4 -44 15 -19 11 -42 18
-50 14 -20 -7 -32 -61 -29 -136 2 -93 25 -116 82 -83 46 26 50 21 50 -60 l0
-75 484 0 483 0 1 213 c0 116 -2 219 -4 227 -3 13 -65 15 -484 15 l-480 0 0
-62z m945 -165 l1 -208 -463 0 -463 0 0 59 c0 94 -13 108 -70 75 -38 -23 -60
-12 -61 28 -6 154 1 170 60 137 41 -24 42 -24 56 -5 9 12 15 42 15 71 l0 52
463 -1 462 -1 0 -207z"/>
<path d="M8452 4057 c-26 -31 -19 -130 11 -149 43 -28 87 11 87 77 0 53 -23
85 -59 85 -16 0 -33 -6 -39 -13z m68 -26 c25 -47 2 -117 -36 -109 -15 2 -20
13 -22 52 -2 27 -1 55 2 62 8 21 44 17 56 -5z"/>
<path d="M8656 4048 c-9 -12 -16 -41 -16 -63 0 -49 23 -85 55 -85 41 0 71 52
61 105 -3 11 -5 23 -5 27 -1 4 -8 14 -17 22 -22 23 -60 20 -78 -6z m69 -20 c9
-43 9 -53 2 -81 -6 -22 -13 -28 -30 -25 -29 4 -46 65 -29 103 15 32 50 34 57
3z"/>
<path d="M8780 4060 c0 -5 18 -10 40 -10 22 0 40 -1 40 -2 0 -2 -11 -25 -25
-52 -26 -51 -33 -96 -15 -96 6 0 10 3 11 8 3 31 12 59 34 102 14 27 25 52 25
55 0 3 -25 5 -55 5 -30 0 -55 -4 -55 -10z"/>
<path d="M8920 4025 l0 -46 35 7 c30 5 36 3 44 -17 15 -39 -27 -67 -56 -38 -6
6 -17 9 -23 7 -22 -7 19 -38 49 -38 32 0 61 27 61 58 0 26 -43 56 -70 49 -16
-4 -20 0 -20 19 0 21 4 24 40 24 22 0 40 5 40 10 0 6 -22 10 -50 10 l-50 0 0
-45z"/>
<path d="M8586 3923 c-11 -11 -6 -23 9 -23 8 0 15 4 15 9 0 13 -16 22 -24 14z"/>
<path d="M6178 4127 c-13 -4 -27 -16 -33 -25 -11 -20 -16 -94 -5 -87 4 2 6 19
5 37 -2 51 26 72 97 71 32 0 58 2 58 6 0 9 -96 8 -122 -2z"/>
<path d="M6310 4130 c0 -6 8 -10 18 -9 37 3 49 -2 61 -27 6 -14 9 -30 6 -35
-4 -5 -1 -9 4 -9 17 0 13 36 -6 59 -20 22 -83 38 -83 21z"/>
<path d="M6618 4079 c-13 -8 -13 -199 0 -209 4 -4 21 -3 37 1 17 3 24 7 18 8
-9 1 -13 22 -13 71 0 39 -4 70 -8 70 -4 0 -8 -30 -7 -67 0 -44 -4 -68 -13 -71
-9 -3 -12 20 -12 92 0 77 3 96 14 96 9 0 13 -7 11 -20 -2 -11 0 -20 6 -20 5 0
9 9 9 20 0 11 5 20 10 20 6 0 10 4 10 8 0 10 -46 11 -62 1z"/>
<path d="M6735 4079 c-3 -4 1 -9 8 -12 10 -4 14 -30 15 -92 1 -72 -2 -87 -16
-93 -14 -5 -12 -7 8 -12 36 -9 60 -1 60 21 0 11 -4 19 -10 19 -5 0 -10 -7 -10
-15 0 -8 -4 -15 -10 -15 -6 0 -10 38 -10 95 0 52 4 95 9 95 14 0 17 -20 15
-87 -1 -35 2 -63 7 -63 15 0 11 160 -3 161 -7 0 -23 2 -36 3 -13 2 -25 -1 -27
-5z"/>
<path d="M6250 4040 c0 -6 -7 -10 -15 -10 -8 0 -15 -9 -15 -20 0 -11 4 -20 10
-20 5 0 7 6 5 13 -8 19 27 36 53 26 17 -6 22 -15 20 -31 -2 -13 -7 -26 -13
-30 -15 -11 -55 -10 -55 2 0 6 -5 10 -11 10 -17 0 8 -27 31 -33 45 -12 80 54
44 84 -20 16 -54 22 -54 9z"/>
<path d="M6399 4038 c-6 -21 -5 -39 2 -44 5 -3 9 6 9 20 0 21 -7 36 -11 24z"/>
<path d="M6132 3951 c-1 -40 4 -52 24 -70 25 -22 114 -37 114 -19 0 4 -18 8
-40 8 -23 0 -51 7 -64 15 -19 13 -23 23 -21 65 1 28 -1 50 -5 50 -5 0 -8 -22
-8 -49z"/>
<path d="M6399 3978 c-6 -21 -5 -39 2 -44 5 -3 9 6 9 20 0 21 -7 36 -11 24z"/>
<path d="M6385 3896 c-14 -22 -25 -26 -63 -26 -47 0 -53 -7 -11 -13 34 -6 72
10 87 34 20 31 7 35 -13 5z"/>
<path d="M2264 4211 c-2 -2 -4 -30 -4 -61 0 -31 -3 -59 -6 -63 -4 -3 -24 3
-47 14 -34 18 -42 19 -53 7 -34 -33 -40 -168 -10 -213 l17 -25 40 20 c22 12
44 18 49 15 6 -3 10 -37 10 -76 l0 -69 313 0 313 0 0 227 -1 228 -308 0 c-170
0 -310 -2 -313 -4z m602 -211 c0 -107 -2 -201 -4 -207 -3 -10 -71 -13 -293
-13 l-289 0 0 53 c0 98 -14 113 -70 81 -34 -20 -59 -13 -61 18 -4 62 0 137 8
152 8 14 13 14 52 -6 42 -21 44 -21 57 -3 8 10 14 42 14 70 l0 52 292 -1 293
-1 1 -195z"/>
<path d="M2460 4055 c-6 -8 -9 -19 -5 -25 5 -8 11 -6 19 5 16 22 50 15 54 -10
2 -13 -12 -35 -38 -60 -55 -54 -52 -65 15 -65 30 0 55 5 55 10 0 6 -18 10 -40
10 -22 0 -40 3 -40 6 0 3 15 20 34 37 42 39 52 69 31 91 -20 20 -69 21 -85 1z"/>
<path d="M2599 4054 c-22 -27 -21 -112 2 -135 45 -45 99 -9 99 66 0 22 -7 51
-16 63 -18 26 -65 30 -85 6z m65 -13 c10 -16 13 -76 5 -98 -10 -27 -44 -30
-57 -5 -9 17 -8 72 2 98 6 15 42 19 50 5z"/>
<path d="M3400 4210 c-5 -3 -9 -32 -9 -64 0 -32 -2 -60 -5 -63 -3 -3 -21 4
-40 16 -27 17 -40 20 -54 12 -44 -23 -43 -206 1 -233 6 -4 27 2 45 12 18 11
37 20 43 20 5 0 9 -34 9 -75 l0 -75 520 0 520 0 -2 228 -3 227 -508 0 c-280 0
-513 -2 -517 -5z m1010 -222 l0 -208 -500 0 c-395 0 -501 3 -499 13 1 6 1 38
0 70 -1 67 -16 80 -61 53 -38 -22 -57 -20 -64 7 -9 35 -7 123 4 152 l10 27 36
-21 c61 -36 70 -28 78 69 2 25 4 45 5 46 1 0 224 1 496 1 l495 0 0 -209z"/>
<path d="M3596 4051 c-10 -11 -13 -22 -8 -25 5 -3 15 1 22 9 21 26 60 13 60
-19 0 -2 -20 -23 -45 -48 -25 -25 -45 -51 -45 -57 0 -7 23 -11 61 -11 37 0 58
4 54 10 -3 6 -25 10 -48 10 l-41 0 42 43 c42 43 52 73 30 95 -18 18 -63 14
-82 -7z"/>
<path d="M3736 4054 c-22 -21 -9 -40 13 -20 22 20 47 20 55 0 4 -9 -10 -32
-39 -63 -25 -26 -45 -53 -45 -60 0 -7 20 -11 55 -11 30 0 55 5 55 10 0 6 -19
10 -42 10 l-42 0 42 43 c23 23 42 50 42 59 0 42 -63 63 -94 32z"/>
<path d="M3876 4057 c-23 -17 -31 -93 -14 -127 11 -19 21 -25 48 -25 27 0 37
6 48 25 15 29 10 103 -8 125 -15 18 -50 19 -74 2z m61 -23 c10 -26 10 -78 1
-96 -10 -20 -43 -24 -53 -7 -9 14 -10 93 -1 107 11 17 46 14 53 -4z"/>
<path d="M4006 4048 c-35 -50 -10 -148 37 -148 31 0 44 11 57 44 11 30 4 92
-13 114 -16 20 -64 14 -81 -10z m74 -38 c12 -75 -37 -126 -61 -63 -20 53 -2
106 35 101 15 -2 22 -12 26 -38z"/>
<path d="M4154 4062 c-19 -12 -32 -46 -29 -77 2 -16 3 -35 4 -42 4 -42 70 -57
95 -21 23 32 21 110 -2 131 -19 18 -49 22 -68 9z m54 -24 c15 -15 16 -72 2
-99 -13 -23 -46 -25 -54 -3 -3 9 -6 31 -6 49 0 18 3 40 6 49 7 19 35 21 52 4z"/>
<path d="M4920 4212 c-5 -2 -10 -30 -10 -61 0 -32 -3 -60 -6 -64 -4 -3 -24 3
-47 14 -35 18 -41 19 -54 6 -33 -33 -34 -190 -2 -222 13 -13 19 -12 52 5 20
11 41 20 47 20 6 0 10 -31 10 -75 l0 -75 245 0 245 0 -2 227 -3 228 -232 0
c-128 0 -237 -1 -243 -3z m460 -224 l0 -208 -225 0 -225 0 0 53 c0 100 -11
111 -75 80 -25 -12 -38 -14 -46 -6 -13 13 -15 154 -3 176 9 15 14 15 53 -5 42
-21 44 -21 57 -3 8 10 14 42 14 71 l0 51 225 0 225 0 0 -209z"/>
<path d="M5116 4054 c-25 -25 -24 -108 1 -136 35 -39 91 -10 94 48 4 74 -12
104 -56 104 -13 0 -31 -7 -39 -16z m70 -28 c16 -65 -15 -126 -50 -97 -19 16
-22 91 -4 109 20 20 47 14 54 -12z"/>
<path d="M9944 4211 c-2 -2 -4 -30 -4 -62 0 -32 -4 -60 -9 -64 -5 -3 -25 4
-44 15 -19 11 -41 18 -50 15 -21 -9 -35 -73 -31 -139 5 -93 25 -111 85 -81 16
9 34 13 39 10 6 -3 10 -37 10 -76 l0 -69 245 0 245 0 -2 227 -3 228 -238 0
c-131 0 -240 -2 -243 -4z m466 -222 l0 -209 -225 0 -225 0 0 53 c0 100 -11
111 -75 80 -26 -13 -38 -14 -47 -5 -14 14 -16 150 -2 174 9 17 12 16 52 -4 59
-29 69 -18 71 83 l1 36 225 0 225 0 0 -208z"/>
<path d="M10154 4056 c-10 -8 -16 -18 -12 -22 4 -4 13 -2 20 4 10 8 13 -3 13
-54 1 -60 -1 -64 -22 -64 -13 0 -23 -4 -23 -10 0 -5 25 -10 55 -10 30 0 55 5
55 10 0 6 -9 10 -20 10 -18 0 -20 7 -20 75 0 80 -7 89 -46 61z"/>
<path d="M10986 4210 c-2 -3 -3 -31 -4 -64 -1 -32 -3 -61 -6 -63 -3 -3 -21 4
-40 16 -27 17 -40 20 -54 12 -43 -23 -42 -206 0 -233 7 -3 29 2 51 13 21 11
41 19 43 16 2 -2 5 -35 6 -73 l3 -69 246 -3 246 -2 -1 227 -1 228 -243 0
c-134 0 -245 -2 -246 -5z m467 -24 c2 -6 3 -99 3 -206 l-1 -195 -226 -3 -225
-2 -1 42 c-1 87 -3 99 -19 105 -9 3 -29 -1 -44 -11 -58 -34 -70 -18 -67 93 3
90 8 95 62 69 30 -14 48 -19 55 -12 5 5 11 36 14 69 2 33 4 60 5 61 0 0 100 1
220 1 152 0 221 -3 224 -11z"/>
<path d="M11196 4057 c-26 -19 -31 -105 -10 -136 18 -25 66 -28 84 -6 18 22
23 96 8 125 -16 29 -54 37 -82 17z m59 -16 c10 -17 13 -75 4 -98 -9 -24 -43
-31 -55 -12 -4 7 -7 31 -7 54 0 23 3 47 7 54 9 13 43 15 51 2z"/>
<path d="M1929 4073 c0 -10 -1 -58 -1 -108 l-2 -90 27 -3 c15 -2 27 1 27 7 0
6 -7 11 -15 11 -12 0 -15 18 -15 100 0 60 -4 100 -10 100 -5 0 -10 -8 -11 -17z"/>
<path d="M3067 4083 c-4 -3 -7 -53 -7 -110 0 -79 3 -104 13 -100 8 2 12 32 12
98 1 81 3 94 18 97 10 2 15 8 12 13 -7 10 -39 12 -48 2z"/>
<path d="M1590 4076 c0 -2 7 -7 16 -10 8 -3 12 -2 9 4 -6 10 -25 14 -25 6z"/>
<path d="M4642 4050 c-32 -35 -37 -45 -38 -75 -1 -38 -10 -91 -19 -104 -3 -6
-2 -11 4 -11 10 0 41 89 41 116 0 7 8 18 18 23 9 6 11 11 5 11 -18 0 -16 25 2
40 10 9 15 9 15 1 0 -6 5 -11 10 -11 16 0 12 17 -5 24 -9 3 -23 -3 -33 -14z"/>
<path d="M5623 4020 c-10 -11 -18 -35 -19 -52 -1 -20 -10 -39 -24 -50 l-22
-18 29 0 c47 0 73 25 73 70 0 29 6 43 22 54 22 16 22 16 -10 16 -20 0 -39 -8
-49 -20z m30 -32 c-5 -42 -27 -78 -45 -78 -5 0 -7 4 -4 9 3 5 8 26 11 46 4 37
20 65 35 65 5 0 6 -19 3 -42z"/>
<path d="M10649 4035 c-1 -5 -1 -18 0 -27 2 -13 -5 -18 -23 -18 -14 0 -26 -4
-26 -10 0 -5 11 -10 25 -10 14 0 24 -3 24 -7 -3 -21 2 -43 11 -43 5 0 9 10 7
22 -1 17 5 24 28 29 31 6 27 10 -23 25 -7 2 -11 7 -8 12 2 4 1 14 -5 22 -5 8
-9 11 -10 5z"/>
<path d="M9560 4023 c0 -3 7 -15 17 -25 15 -17 15 -19 -2 -38 -24 -26 -11 -39
15 -15 19 17 21 17 40 0 26 -24 39 -11 15 15 -17 19 -17 21 0 40 24 26 11 39
-15 15 -19 -17 -21 -17 -38 -2 -19 18 -32 22 -32 10z"/>
<path d="M1654 3988 c21 -35 28 -88 14 -106 -8 -10 -9 -13 -2 -9 7 4 22 24 34
44 14 24 16 32 6 24 -13 -11 -16 -11 -16 2 0 27 -22 67 -37 67 -11 0 -11 -4 1
-22z"/>
<path d="M1711 4003 c0 -5 4 -17 9 -28 8 -18 9 -17 9 8 1 15 -3 27 -9 27 -5 0
-10 -3 -9 -7z"/>
<path d="M1512 3985 c-11 -12 -10 -15 3 -15 8 0 15 7 15 15 0 18 -2 18 -18 0z"/>
<path d="M1575 3989 c-4 -6 -5 -12 -2 -15 2 -3 7 2 10 11 7 17 1 20 -8 4z"/>
<path d="M1535 3958 c-5 -7 -5 -10 0 -6 4 4 13 4 19 -2 7 -5 17 -5 26 2 13 8
12 9 -1 5 -9 -3 -21 -1 -27 5 -6 6 -12 5 -17 -4z"/>
<path d="M1625 3860 c-3 -5 1 -10 9 -10 9 0 16 5 16 10 0 6 -4 10 -9 10 -6 0
-13 -4 -16 -10z"/>
<path d="M4550 3860 c0 -5 5 -10 10 -10 6 0 10 5 10 10 0 6 -4 10 -10 10 -5 0
-10 -4 -10 -10z"/>
<path d="M243 2430 c-34 -14 -43 -42 -43 -140 0 -83 2 -93 25 -115 l24 -25
270 0 270 0 28 24 c27 23 28 27 28 121 0 93 -1 98 -27 120 -28 24 -29 24 -290
24 -145 0 -273 -4 -285 -9z m553 -18 c24 -15 34 -54 34 -126 0 -121 14 -116
-308 -116 -323 0 -303 -8 -304 126 -2 130 -16 124 306 124 143 0 266 -4 272
-8z"/>
<path d="M529 2370 c-1 -5 -2 -16 -3 -22 -1 -8 -12 -12 -29 -10 -40 5 -57 -14
-57 -63 0 -52 14 -65 68 -62 l42 1 0 83 c0 49 -4 83 -10 83 -5 0 -11 -4 -11
-10z m-11 -67 c14 -27 -1 -68 -25 -71 -25 -4 -38 26 -29 64 8 28 41 33 54 7z"/>
<path d="M309 2329 c0 -5 -1 -29 -1 -54 0 -62 1 -65 12 -65 6 0 10 22 10 50 0
38 4 52 18 59 28 15 42 -6 42 -61 0 -26 5 -48 10 -48 6 0 10 27 10 60 0 54 -2
60 -22 64 -39 7 -78 4 -79 -5z"/>
<path d="M947 2324 c-8 -8 3 -34 14 -34 5 0 9 9 9 20 0 19 -11 26 -23 14z"/>
<path d="M985 2310 c3 -5 40 -10 81 -10 43 0 74 4 74 10 0 6 -34 10 -81 10
-51 0 -78 -4 -74 -10z"/>
<path d="M947 2274 c-8 -8 3 -34 14 -34 5 0 9 9 9 20 0 19 -11 26 -23 14z"/>
<path d="M985 2260 c-4 -6 23 -10 74 -10 47 0 81 4 81 10 0 6 -31 10 -74 10
-41 0 -78 -4 -81 -10z"/>
<path d="M1650 3470 c0 -5 5 -10 10 -10 26 0 27 -45 4 -92 -25 -50 -29 -68
-16 -68 5 0 17 18 27 40 20 44 30 44 40 0 6 -28 21 -47 31 -38 5 6 -28 104
-50 146 -15 30 -46 44 -46 22z"/>
<path d="M1645 3060 c-3 -5 1 -10 10 -10 9 0 13 5 10 10 -3 6 -8 10 -10 10 -2
0 -7 -4 -10 -10z"/>
<path d="M1640 3010 c0 -5 7 -10 16 -10 8 0 12 5 9 10 -3 6 -10 10 -16 10 -5
0 -9 -4 -9 -10z"/>
<path d="M1640 2950 c0 -5 7 -10 16 -10 8 0 12 5 9 10 -3 6 -10 10 -16 10 -5
0 -9 -4 -9 -10z"/>
<path d="M1645 2890 c4 -6 11 -8 16 -5 14 9 11 15 -7 15 -8 0 -12 -5 -9 -10z"/>
<path d="M1697 1256 c-16 -12 -16 -15 -1 -27 11 -9 17 -10 23 -1 4 6 26 10 49
9 24 -2 48 1 55 5 7 4 -16 8 -51 8 -40 0 -61 4 -57 10 8 13 4 12 -18 -4z"/>
<path d="M1940 2838 c-21 -23 -22 -32 -21 -141 1 -80 12 -104 49 -114 15 -3
114 -6 221 -6 l195 0 23 27 c20 24 23 38 23 115 0 74 -3 93 -21 115 l-20 26
-214 0 c-207 0 -215 -1 -235 -22z m427 3 c32 -3 43 -32 43 -119 -1 -133 11
-127 -236 -127 -251 1 -242 -4 -239 129 2 90 11 113 48 118 19 3 350 2 384 -1z"/>
<path d="M2043 2753 c-27 -10 -11 -21 22 -16 28 4 35 2 35 -11 0 -11 -9 -16
-28 -16 -48 0 -70 -43 -36 -71 12 -10 22 -10 45 -2 16 6 29 7 29 2 0 -5 10 -9
22 -9 17 0 19 3 10 12 -7 7 -12 27 -12 46 0 62 -34 87 -87 65z m55 -77 c-4
-24 -37 -34 -49 -14 -10 15 11 35 36 35 10 0 15 -8 13 -21z"/>
<path d="M2530 2730 c0 -11 5 -20 10 -20 6 0 10 9 10 20 0 11 -4 20 -10 20 -5
0 -10 -9 -10 -20z"/>
<path d="M2570 2730 c0 -6 32 -10 75 -10 43 0 75 4 75 10 0 6 -32 10 -75 10
-43 0 -75 -4 -75 -10z"/>
<path d="M2530 2680 c0 -11 5 -20 10 -20 6 0 10 9 10 20 0 11 -4 20 -10 20 -5
0 -10 -9 -10 -20z"/>
<path d="M2570 2680 c0 -6 32 -10 75 -10 43 0 75 4 75 10 0 6 -32 10 -75 10
-43 0 -75 -4 -75 -10z"/>
<path d="M3969 3115 c0 0 -2 -29 -5 -64 -2 -35 -5 -66 -8 -68 -2 -2 -21 5 -41
16 -20 11 -43 17 -51 14 -30 -11 -43 -124 -23 -195 8 -32 14 -38 37 -38 15 0
38 7 50 16 13 9 26 13 30 9 3 -3 7 -113 7 -243 l0 -237 3000 0 3000 0 2 393
c1 215 -1 393 -5 393 -5 1 -5943 5 -5993 4z m5972 -24 c3 -1 6 -167 6 -370 0
-368 0 -369 -21 -373 -17 -2 -5900 -2 -5931 1 -7 1 -10 77 -10 214 1 116 -1
222 -3 235 -6 32 -28 38 -62 18 -43 -25 -58 -21 -66 19 -7 38 0 137 11 155 4
7 19 3 45 -11 41 -23 69 -20 71 8 1 10 2 36 2 58 2 34 6 41 26 45 19 4 5906 5
5932 1z"/>
<path d="M5060 2965 c0 -69 -8 -79 -46 -50 -27 21 -61 18 -74 -5 -13 -24 -16
-131 -6 -177 9 -41 29 -47 75 -23 21 10 41 16 45 13 3 -4 6 -75 6 -160 l0
-153 1235 0 1235 0 0 310 0 310 -1235 0 -1235 0 0 -65z m2450 -245 l0 -290
-1215 0 -1215 0 0 143 c0 105 -4 148 -14 162 -13 18 -15 18 -56 -4 -34 -18
-45 -20 -51 -9 -16 24 -14 166 1 182 5 5 26 0 49 -12 36 -19 42 -20 56 -6 10
10 15 34 15 70 l0 54 1215 0 1215 0 0 -290z"/>
<path d="M6189 2943 c-1 -5 -3 -28 -4 -53 -4 -87 1 -81 -50 -59 -25 11 -50 17
-55 14 -15 -9 -30 -75 -29 -125 2 -98 26 -125 85 -97 20 10 39 15 43 12 3 -4
6 -36 6 -73 l0 -67 245 0 245 0 0 225 0 225 -242 3 c-134 1 -244 -1 -244 -5z
m467 -226 l1 -207 -225 2 -226 3 -2 69 c-2 82 -13 93 -65 63 -31 -18 -40 -20
-51 -9 -16 16 -18 166 -2 182 7 7 22 4 52 -12 51 -29 63 -19 67 54 2 29 4 56
4 59 1 3 101 6 224 5 l222 -1 1 -208z"/>
<path d="M6380 2754 c0 -45 0 -46 29 -39 38 8 66 -17 51 -46 -12 -21 -40 -25
-57 -8 -6 6 -17 9 -23 7 -22 -7 19 -38 49 -38 30 0 61 27 61 53 0 29 -39 60
-66 53 -21 -6 -24 -3 -24 19 0 23 4 25 40 25 22 0 40 5 40 10 0 6 -22 10 -50
10 l-50 0 0 -46z"/>
<path d="M6877 2943 c-4 -3 -7 -35 -7 -70 0 -36 -3 -63 -7 -61 -5 2 -25 12
-46 23 -35 18 -38 18 -55 2 -22 -22 -30 -154 -12 -197 14 -33 32 -37 70 -15
46 26 50 21 50 -60 l0 -75 245 0 245 0 0 230 0 230 -238 0 c-131 0 -242 -3
-245 -7z m464 -169 c0 -85 1 -170 1 -189 0 -83 25 -75 -227 -75 l-225 0 0 68
c0 87 -9 97 -67 69 -38 -19 -45 -19 -54 -7 -11 17 -8 174 4 186 4 4 25 -3 48
-15 53 -30 69 -18 69 54 0 28 2 54 5 57 3 2 104 5 225 5 l220 0 1 -153z"/>
<path d="M7076 2784 c-37 -37 -1 -103 49 -90 27 7 35 -10 13 -32 -15 -15 -48
-16 -48 -2 0 6 -4 10 -10 10 -16 0 -11 -27 6 -34 61 -23 91 16 85 111 -1 29
-27 53 -56 53 -13 0 -31 -7 -39 -16z m70 -28 c7 -31 -1 -46 -26 -46 -25 0 -41
29 -29 52 14 27 47 23 55 -6z"/>
<path d="M5290 2862 c0 -4 35 -7 78 -7 94 1 121 -9 124 -44 2 -45 3 -49 11
-57 16 -16 6 65 -11 86 -17 20 -29 23 -110 26 -51 2 -92 0 -92 -4z"/>
<path d="M5248 2838 c-16 -26 -24 -98 -11 -98 5 0 8 18 7 41 0 25 4 43 12 46
15 5 27 33 15 33 -5 0 -15 -10 -23 -22z"/>
<path d="M5722 2812 c-8 -2 -12 -38 -12 -107 0 -112 5 -120 60 -104 16 4 19 7
8 8 -14 1 -18 10 -19 44 -2 86 3 142 12 145 31 12 -17 25 -49 14z m23 -107 c0
-69 -3 -95 -12 -95 -10 0 -13 26 -13 95 0 70 3 95 13 95 9 0 12 -25 12 -95z"/>
<path d="M5838 2809 c-10 -7 -9 -9 3 -9 23 0 24 -176 0 -190 -15 -9 -14 -10 2
-11 21 -2 43 -2 57 0 7 1 10 40 8 108 l-3 107 -27 1 c-15 1 -33 -2 -40 -6z
m57 -104 c0 -69 -3 -95 -12 -95 -10 0 -13 26 -13 95 0 69 3 95 13 95 9 0 12
-26 12 -95z"/>
<path d="M5336 2764 c-18 -18 -21 -44 -5 -44 5 0 7 5 4 10 -14 23 42 46 63 26
10 -10 11 -56 1 -56 -5 0 -9 -5 -9 -11 0 -8 5 -8 15 1 20 17 19 53 -3 73 -23
21 -46 22 -66 1z"/>
<path d="M5497 2726 c-4 -10 -5 -21 -2 -24 9 -9 17 6 13 25 -3 17 -4 17 -11
-1z"/>
<path d="M5234 2680 c1 -49 4 -56 31 -75 24 -15 43 -19 84 -17 68 5 57 16 -13
13 -63 -2 -96 22 -91 67 1 15 -1 36 -5 47 -5 13 -7 1 -6 -35z"/>
<path d="M5334 2695 c8 -8 18 -15 22 -15 3 0 1 7 -6 15 -7 8 -17 15 -22 15 -5
0 -3 -7 6 -15z"/>
<path d="M5499 2688 c-1 -2 -2 -16 -3 -31 -3 -33 -33 -59 -63 -53 -22 3 -30
-4 -17 -17 6 -5 71 17 82 28 6 5 11 75 6 75 -2 0 -4 -1 -5 -2z"/>
<path d="M8089 2948 c-1 -2 -3 -25 -4 -53 -2 -27 -3 -58 -4 -67 -1 -16 -4 -16
-43 2 -22 10 -47 16 -54 13 -36 -13 -43 -189 -9 -222 12 -13 19 -12 56 2 24 9
45 15 47 12 3 -3 6 -35 6 -73 l1 -67 245 0 245 0 0 225 0 225 -242 3 c-134 1
-244 1 -244 0z m468 -230 l0 -208 -227 0 -226 0 1 53 c2 49 -11 107 -22 107
-3 0 -23 -10 -44 -22 -31 -17 -42 -19 -52 -9 -15 15 -17 165 -2 180 7 7 24 3
53 -11 53 -28 63 -19 67 59 2 32 3 58 4 59 1 0 102 1 224 1 l224 0 0 -209z"/>
<path d="M8299 2779 l-24 -21 23 5 c21 5 22 2 22 -54 0 -52 -2 -59 -20 -59
-11 0 -20 -4 -20 -10 0 -5 25 -10 55 -10 30 0 55 5 55 10 0 6 -10 10 -23 10
-22 0 -23 3 -22 75 2 82 -5 90 -46 54z"/>
<path d="M9130 2879 c0 -39 -3 -69 -7 -67 -5 2 -25 12 -46 23 -35 18 -38 18
-55 2 -14 -14 -17 -36 -17 -112 0 -111 8 -126 58 -106 71 28 67 31 67 -53 l0
-76 335 0 335 0 0 230 0 230 -335 0 -335 0 0 -71z m650 -161 l0 -208 -315 0
-315 0 0 70 c0 83 -10 92 -71 65 -21 -10 -43 -15 -47 -11 -9 10 -9 182 0 192
4 4 28 -4 53 -17 55 -29 65 -21 65 58 0 32 5 53 13 56 6 2 148 4 315 4 l302 0
0 -209z"/>
<path d="M9240 2840 c-22 -22 -22 -23 -22 -121 -1 -86 7 -116 34 -130 25 -13
363 -18 411 -5 39 9 54 49 52 136 -3 100 -2 97 -25 120 -19 19 -33 20 -225 20
-192 0 -206 -1 -225 -20z m440 -18 c13 -15 17 -41 17 -103 1 -127 4 -125 -234
-124 -233 1 -225 -3 -228 115 -1 90 9 121 43 130 13 3 105 5 204 4 171 -1 182
-2 198 -22z"/>
<path d="M9320 2753 c0 -5 9 -19 19 -33 19 -24 19 -25 -1 -53 -25 -35 -14 -51
13 -17 l19 25 19 -22 c29 -35 46 -27 20 9 -22 30 -22 32 -5 61 21 38 11 50
-14 17 l-19 -25 -16 23 c-16 21 -35 30 -35 15z"/>
<path d="M4172 2780 c0 -14 2 -19 5 -12 2 6 2 18 0 25 -3 6 -5 1 -5 -13z"/>
<path d="M4264 2708 l1 -93 73 -3 72 -3 0 96 0 95 -73 0 -73 0 0 -92z m136 -3
l0 -86 -62 3 -63 3 0 82 0 83 63 0 62 0 0 -85z"/>
<path d="M4307 2763 c-14 -13 -7 -25 8 -13 17 14 55 4 55 -15 0 -8 -9 -19 -20
-25 -11 -6 -20 -15 -20 -21 0 -5 11 -2 25 8 28 20 33 58 9 67 -21 8 -49 8 -57
-1z"/>
<path d="M4326 2653 c-11 -11 -6 -23 8 -23 8 0 17 4 20 9 7 10 -19 23 -28 14z"/>
<path d="M8798 2763 c0 -4 -1 -15 -2 -23 -1 -8 -10 -16 -21 -18 -36 -7 -41
-22 -8 -22 26 0 31 -3 28 -20 -2 -11 0 -22 6 -25 9 -6 13 8 10 33 -1 7 9 12
24 12 14 0 25 5 25 10 0 6 -12 10 -26 10 -21 0 -25 4 -21 20 3 11 1 23 -4 26
-5 3 -10 2 -11 -3z"/>
<path d="M4683 2748 c3 -7 14 -37 23 -65 10 -29 23 -53 31 -53 24 0 66 88 56
118 -9 24 -23 11 -23 -21 0 -18 -6 -42 -14 -52 -16 -22 -12 -27 -46 60 -5 14
-15 25 -21 25 -6 0 -8 -6 -6 -12z"/>
<path d="M7720 2735 l23 -25 -23 -25 c-27 -29 -13 -34 16 -6 19 18 19 18 41
-2 27 -24 43 -15 20 11 -21 23 -21 29 -2 49 22 21 9 30 -13 10 -23 -21 -29
-21 -48 -2 -26 26 -39 16 -14 -10z"/>
<path d="M4209 2748 c-8 -26 -5 -36 8 -31 11 4 12 8 3 13 -9 6 -9 9 1 13 10 4
10 6 2 6 -7 1 -13 0 -14 -1z"/>
<path d="M4430 2685 c-14 -37 3 -75 34 -75 25 0 36 16 36 54 0 47 -54 64 -70
21z m50 -5 c13 -25 4 -60 -15 -60 -17 0 -30 42 -21 65 8 21 23 19 36 -5z"/>
<path d="M10519 2943 c0 -5 -1 -28 0 -53 0 -79 -4 -83 -49 -60 -21 11 -46 17
-54 14 -46 -18 -45 -213 1 -231 8 -3 31 2 50 11 20 9 38 14 42 11 3 -4 7 -34
8 -68 1 -34 2 -65 2 -70 1 -4 110 -6 244 -5 l242 3 0 225 0 225 -242 3 c-134
1 -243 -1 -244 -5z m468 -225 l2 -208 -224 0 c-207 0 -225 1 -226 18 -1 19 -5
88 -8 115 -1 22 -34 22 -72 0 -43 -25 -53 -8 -54 87 0 99 9 110 63 78 30 -16
44 -20 52 -12 10 10 18 56 19 110 1 21 4 21 224 20 l222 -1 2 -207z"/>
<path d="M10716 2779 c-21 -31 -16 -117 9 -135 48 -36 95 -1 95 71 0 22 -7 51
-16 63 -20 29 -68 30 -88 1z m68 -8 c10 -16 13 -76 5 -98 -8 -23 -42 -32 -53
-14 -10 16 -13 76 -5 99 8 22 42 31 53 13z"/>
<path d="M11567 2943 c-4 -3 -7 -35 -7 -70 0 -36 -3 -63 -7 -61 -5 2 -25 12
-46 23 -35 18 -38 18 -55 2 -14 -14 -17 -36 -17 -112 0 -111 8 -126 58 -106
69 28 66 30 69 -50 l3 -74 243 -3 242 -2 1 27 c1 41 1 384 0 411 l-1 22 -238
0 c-131 0 -242 -3 -245 -7z m464 -22 c3 -19 4 -388 1 -398 -3 -10 -58 -13
-228 -13 l-224 0 0 68 c0 87 -9 97 -66 69 -24 -11 -47 -17 -51 -13 -10 10 -10
182 0 192 4 4 25 -3 48 -15 53 -30 69 -18 69 54 0 28 2 54 5 57 7 7 445 6 446
-1z"/>
<path d="M11782 2784 c-12 -8 -22 -20 -22 -27 0 -8 3 -8 12 1 22 22 28 12 28
-48 0 -53 -2 -60 -20 -60 -11 0 -20 -4 -20 -10 0 -5 25 -10 56 -10 34 0 53 4
49 10 -3 6 -14 10 -25 10 -15 0 -18 8 -18 58 1 103 0 104 -40 76z"/>
<path d="M12610 2887 c0 -35 -3 -66 -6 -70 -3 -3 -24 4 -46 15 l-41 22 -18
-23 c-19 -23 -24 -57 -20 -141 4 -77 27 -96 81 -65 46 26 50 21 50 -60 l0 -75
245 0 245 0 0 230 0 230 -245 0 -245 0 0 -63z m470 -169 l0 -208 -225 0 -225
0 0 64 c0 45 -5 69 -16 80 -14 14 -19 14 -54 -7 -29 -16 -42 -19 -50 -11 -14
14 -16 172 -2 186 6 6 24 2 53 -12 41 -21 43 -21 56 -4 7 10 13 41 13 69 l0
52 225 0 225 0 0 -209z"/>
<path d="M12815 2780 c-23 -25 -22 -105 1 -131 21 -23 57 -24 78 -3 16 16 19
24 19 69 0 45 -3 53 -19 69 -21 22 -57 20 -79 -4z m69 -16 c3 -9 6 -31 6 -49
0 -45 -9 -65 -29 -65 -28 0 -41 21 -41 65 0 23 5 46 12 53 17 17 45 15 52 -4z"/>
<path d="M10180 2790 c0 -10 -11 -30 -25 -44 -14 -14 -25 -37 -25 -51 0 -14
11 -37 25 -51 14 -14 25 -34 25 -44 0 -11 5 -20 10 -20 6 0 10 9 10 21 0 12
11 30 25 41 38 29 30 118 -10 118 -9 0 -15 10 -15 25 0 14 -4 25 -10 25 -5 0
-10 -9 -10 -20z m0 -96 c0 -44 -13 -53 -22 -16 -5 18 7 62 17 62 3 0 5 -21 5
-46z m44 21 c6 -23 -7 -65 -19 -65 -3 0 -5 20 -5 45 0 49 14 60 24 20z"/>
<path d="M3254 2739 c-10 -20 -12 -35 -6 -41 6 -6 13 2 20 22 14 40 26 33 42
-24 15 -53 38 -66 62 -36 20 24 24 60 8 60 -5 0 -10 -6 -10 -13 0 -7 -6 -22
-14 -32 -13 -18 -15 -16 -26 25 -21 78 -48 92 -76 39z"/>
<path d="M12270 2745 c0 -20 -5 -25 -25 -25 -14 0 -25 -4 -25 -10 0 -5 11 -10
25 -10 20 0 25 -5 25 -25 0 -14 5 -25 10 -25 6 0 10 11 10 25 0 20 5 25 25 25
14 0 25 5 25 10 0 6 -11 10 -25 10 -20 0 -25 5 -25 25 0 14 -4 25 -10 25 -5 0
-10 -11 -10 -25z"/>
<path d="M3592 2749 c3 -8 13 -38 23 -67 20 -62 38 -65 66 -12 24 43 25 90 3
90 -11 0 -14 -6 -9 -21 7 -21 -11 -79 -24 -79 -4 0 -14 21 -22 47 -8 25 -21
49 -28 51 -9 3 -12 -1 -9 -9z"/>
<path d="M11191 2743 c8 -10 18 -21 24 -25 5 -4 -1 -16 -14 -28 -14 -11 -21
-23 -18 -27 4 -3 15 1 25 10 20 18 42 22 42 8 0 -9 30 -24 36 -18 2 2 -6 14
-17 26 l-21 22 23 25 c19 20 20 24 5 24 -9 0 -19 -7 -22 -15 -4 -8 -12 -15
-19 -15 -7 0 -18 7 -25 15 -18 21 -35 19 -19 -2z"/>
<path d="M1971 2088 c-43 -12 -52 -36 -53 -139 -1 -80 1 -92 22 -114 l23 -25
209 0 c208 0 209 0 233 25 23 22 25 32 25 114 0 80 -3 93 -24 118 l-24 27
-190 1 c-104 0 -204 -3 -221 -7z m425 -32 c9 -14 14 -47 14 -105 0 -126 10
-121 -235 -121 -151 0 -206 3 -219 13 -15 11 -19 29 -20 94 -3 93 5 120 36
132 13 5 110 8 216 7 179 -1 195 -2 208 -20z"/>
<path d="M2029 2033 c-1 -5 -2 -42 -3 -84 l-2 -76 44 -1 c50 0 76 27 68 73 -7
40 -26 57 -58 53 -24 -4 -28 -1 -28 19 0 21 -18 34 -21 16z m76 -98 c0 -36 -2
-40 -25 -40 -20 0 -26 6 -28 28 -5 42 5 59 30 55 20 -3 23 -9 23 -43z"/>
<path d="M2530 1969 c0 -18 2 -19 15 -9 15 12 12 30 -6 30 -5 0 -9 -10 -9 -21z"/>
<path d="M2570 1970 c0 -6 32 -10 75 -10 43 0 75 4 75 10 0 6 -32 10 -75 10
-43 0 -75 -4 -75 -10z"/>
<path d="M2527 1926 c-7 -18 1 -26 18 -19 8 2 11 11 8 19 -7 18 -19 18 -26 0z"/>
<path d="M2570 1920 c0 -6 32 -10 75 -10 43 0 75 4 75 10 0 6 -32 10 -75 10
-43 0 -75 -4 -75 -10z"/>
<path d="M3965 2128 c1 -88 -1 -91 -46 -65 -48 27 -70 17 -82 -39 -11 -52 -1
-155 18 -173 13 -13 20 -13 60 7 l45 22 1 -23 c1 -12 2 -47 3 -77 l1 -55 328
0 c181 0 331 4 334 9 4 6 7 372 4 434 -1 9 -75 12 -334 12 l-333 0 1 -52z
m646 15 c1 -25 1 -342 0 -374 l-1 -26 -312 1 -311 1 -3 69 c-1 38 -7 73 -13
79 -6 6 -24 2 -52 -13 -38 -19 -44 -20 -54 -6 -15 20 -19 125 -6 159 12 32 24
34 57 8 32 -25 64 -17 65 18 2 30 6 83 8 94 0 4 141 7 311 7 288 0 310 -1 311
-17z"/>
<path d="M4115 2090 c-56 -15 -60 -23 -63 -129 -4 -96 -3 -101 22 -126 l25
-25 201 0 c200 0 201 0 225 25 23 22 25 32 25 114 0 80 -3 93 -24 118 l-24 27
-184 1 c-101 0 -193 -2 -203 -5z m401 -34 c9 -14 14 -47 14 -105 0 -123 2
-121 -183 -121 -115 0 -148 3 -144 13 3 6 17 43 32 80 15 37 24 71 21 75 -9 9
-25 -16 -33 -51 -9 -43 -20 -41 -39 8 -9 25 -22 45 -29 45 -9 0 -6 -19 12 -64
14 -36 23 -71 20 -80 -10 -24 -74 -32 -97 -11 -17 15 -20 31 -20 107 0 130 -9
125 234 124 183 -1 199 -2 212 -20z"/>
<path d="M5180 2110 l0 -70 -45 22 c-43 21 -46 21 -63 5 -14 -14 -17 -35 -17
-107 0 -72 3 -93 17 -107 17 -16 20 -16 62 5 l45 21 3 -77 3 -77 244 0 244 0
1 225 0 225 -247 3 -247 2 0 -70z m474 -137 c-1 -104 -2 -197 -3 -209 -1 -20
-5 -21 -223 -20 l-223 1 -2 25 c0 14 -2 43 -2 65 -2 65 -12 72 -62 46 -41 -22
-44 -22 -56 -5 -17 24 -17 145 0 168 13 17 15 17 52 -3 51 -27 64 -15 66 62
l2 57 226 0 226 0 -1 -187z"/>
<path d="M5386 2018 c-9 -12 -16 -41 -16 -63 0 -49 23 -85 55 -85 21 0 53 21
56 38 6 32 7 60 4 79 -11 52 -71 71 -99 31z m74 -33 c4 -16 2 -45 -2 -63 -7
-27 -13 -33 -31 -30 -28 4 -44 60 -28 101 15 39 53 34 61 -8z"/>
<path d="M6230 2115 c0 -70 -4 -74 -51 -49 -41 21 -67 10 -73 -29 -13 -79 -9
-157 9 -181 13 -18 16 -18 55 -2 22 9 45 16 50 16 5 0 10 -33 12 -72 l3 -73
240 0 240 0 3 228 2 227 -245 0 -245 0 0 -65z m470 -164 l0 -208 -225 0 -225
1 0 61 c0 35 -6 69 -13 80 -13 17 -16 17 -56 -6 -56 -31 -63 -21 -63 96 0 85
9 96 61 67 36 -20 41 -21 55 -6 11 10 16 33 16 70 l0 54 225 0 225 0 0 -209z"/>
<path d="M6448 2026 c-24 -18 -23 -29 2 -21 18 6 20 2 20 -54 0 -54 -2 -61
-19 -61 -11 0 -23 -4 -26 -10 -4 -6 15 -10 49 -10 31 0 56 5 56 10 0 6 -9 10
-20 10 -18 0 -20 7 -20 75 0 78 -7 88 -42 61z"/>
<path d="M7279 2173 c-1 -5 -2 -28 -4 -53 -5 -91 -1 -84 -39 -61 -47 30 -65
27 -82 -14 -25 -59 -12 -189 21 -201 7 -3 31 4 54 16 47 23 41 31 47 -70 1
-27 2 -53 3 -58 2 -12 475 -9 483 3 4 5 7 108 7 228 l0 217 -245 0 c-134 0
-244 -3 -245 -7z m467 -220 l-1 -208 -224 0 -224 0 -3 69 c-1 37 -7 73 -12 78
-6 6 -25 2 -52 -12 -32 -16 -45 -19 -54 -10 -15 15 -15 165 1 181 12 12 17 10
63 -16 35 -20 54 1 56 63 1 26 2 50 3 55 0 4 101 7 224 7 l224 0 -1 -207z"/>
<path d="M7481 2021 c-27 -27 -24 -117 4 -137 44 -33 85 -7 92 59 10 82 -47
127 -96 78z m68 -23 c8 -23 5 -83 -5 -99 -11 -18 -45 -9 -53 14 -9 23 -6 80 4
97 11 18 45 10 54 -12z"/>
<path d="M4850 2025 c0 -14 -4 -25 -9 -25 -20 0 -41 -33 -41 -65 0 -24 7 -39
25 -53 14 -11 25 -29 25 -41 0 -12 5 -21 10 -21 6 0 10 11 10 25 0 14 4 25 10
25 5 0 17 11 26 25 21 32 12 91 -16 100 -13 4 -20 15 -20 31 0 13 -4 24 -10
24 -5 0 -10 -11 -10 -25z m-3 -90 c-1 -25 -3 -45 -4 -45 -10 0 -22 45 -17 65
10 41 23 29 21 -20z m46 0 c0 -15 -6 -32 -12 -38 -8 -8 -11 2 -11 38 0 36 3
46 11 38 6 -6 12 -23 12 -38z"/>
<path d="M3254 1979 c-10 -20 -12 -35 -6 -41 6 -6 14 2 21 23 13 38 23 31 41
-26 19 -60 49 -73 68 -30 15 32 15 55 2 55 -5 0 -10 -6 -10 -13 0 -7 -6 -22
-14 -32 -13 -18 -15 -16 -26 25 -21 78 -48 92 -76 39z"/>
<path d="M6940 1985 c0 -20 -5 -25 -25 -25 -14 0 -25 -4 -25 -10 0 -5 11 -10
25 -10 20 0 25 -5 25 -25 0 -14 5 -25 10 -25 6 0 10 11 10 25 0 20 5 25 25 25
14 0 25 5 25 10 0 6 -11 10 -25 10 -20 0 -25 5 -25 25 0 14 -4 25 -10 25 -5 0
-10 -11 -10 -25z"/>
<path d="M3592 1989 c3 -8 13 -38 22 -66 10 -31 24 -53 32 -53 17 0 54 71 54
105 0 15 -6 25 -15 25 -8 0 -12 -6 -9 -15 7 -16 -14 -85 -25 -85 -4 0 -14 21
-22 47 -8 25 -21 49 -28 51 -9 3 -12 -1 -9 -9z"/>
<path d="M5850 1993 c0 -3 7 -15 17 -25 15 -17 15 -19 -2 -38 -24 -26 -11 -39
15 -15 19 17 21 17 40 0 26 -24 39 -11 15 15 -17 19 -17 21 0 40 24 26 11 39
-15 15 -19 -17 -21 -17 -38 -2 -19 18 -32 22 -32 10z"/>
<path d="M2600 1445 c0 -69 -8 -79 -46 -50 -26 20 -61 19 -73 -3 -21 -39 -16
-173 7 -202 l18 -22 41 20 c22 12 43 18 47 15 3 -4 6 -37 6 -75 l0 -68 340 0
340 0 0 225 0 225 -340 0 -340 0 0 -65z m660 -162 l0 -208 -293 1 c-160 1
-304 2 -319 3 -27 1 -28 3 -28 59 0 34 -6 66 -14 77 -14 19 -15 19 -56 -4 -58
-32 -62 -26 -62 98 0 78 11 92 53 68 62 -35 79 -21 79 64 l0 49 320 0 320 0 0
-207z"/>
<path d="M2713 1406 c-27 -24 -28 -27 -28 -121 0 -94 1 -98 28 -121 28 -24 32
-24 222 -24 209 0 237 5 254 49 10 28 8 176 -3 202 -14 33 -54 39 -251 39
-191 0 -194 0 -222 -24z m447 -16 c17 -17 20 -33 20 -105 0 -128 6 -125 -238
-125 -155 0 -202 3 -217 14 -17 12 -20 28 -22 104 -2 136 -10 132 237 132 187
0 201 -1 220 -20z"/>
<path d="M2801 1316 c-8 -9 -8 -16 -2 -20 5 -4 12 -2 16 4 10 16 55 12 55 -5
0 -9 -9 -15 -24 -15 -42 0 -56 -11 -56 -41 0 -36 22 -47 61 -32 16 7 29 7 29
2 0 -5 7 -9 15 -9 16 0 20 12 8 24 -4 4 -8 25 -9 48 -1 22 -8 44 -15 49 -21
13 -65 11 -78 -5z m63 -55 c10 -16 -5 -41 -24 -41 -25 0 -35 18 -20 35 14 17
36 20 44 6z"/>
<path d="M4030 1451 c0 -33 -4 -62 -9 -66 -5 -3 -25 2 -44 11 -20 9 -42 14
-50 11 -37 -14 -45 -184 -10 -218 17 -17 20 -17 60 1 23 10 44 16 47 12 3 -3
6 -36 6 -74 l0 -68 340 0 340 0 0 225 0 225 -340 0 -340 0 0 -59z m660 -166
c0 -113 -3 -205 -7 -206 -37 -5 -617 -2 -625 2 -6 4 -10 32 -10 63 0 31 -6 64
-14 73 -12 17 -15 17 -52 -4 -55 -31 -65 -21 -66 76 -1 97 10 114 53 88 38
-22 71 -22 72 1 1 9 3 35 5 57 1 22 3 43 3 48 1 4 145 7 321 7 l320 0 0 -205z"/>
<path d="M4157 1423 c-30 -8 -47 -57 -47 -135 0 -147 2 -148 264 -148 191 0
195 0 223 24 26 23 27 27 27 121 0 94 -1 99 -28 121 -27 24 -31 24 -224 23
-108 -1 -205 -3 -215 -6z m427 -28 c16 -12 20 -29 22 -97 2 -80 -6 -115 -30
-130 -6 -4 -100 -8 -208 -8 -244 0 -238 -3 -238 125 0 128 -6 125 238 125 156
-1 201 -4 216 -15z"/>
<path d="M4220 1287 l0 -83 45 -2 c49 -2 65 14 65 63 0 46 -18 67 -53 63 -28
-3 -32 0 -31 20 0 12 -5 22 -13 22 -10 0 -13 -21 -13 -83z m84 -3 c10 -38 -2
-64 -29 -64 -25 0 -38 30 -28 68 8 32 49 30 57 -4z"/>
<path d="M3395 1421 c-40 -17 -49 -39 -50 -124 -1 -98 8 -130 41 -146 16 -7
96 -11 224 -11 194 0 200 1 226 23 26 23 27 28 27 121 0 145 8 140 -246 143
-111 1 -211 -2 -222 -6z m431 -30 c18 -16 20 -30 19 -110 -2 -77 -5 -94 -21
-106 -28 -21 -411 -22 -440 -1 -16 12 -19 28 -21 97 -2 79 7 115 31 131 6 4
101 8 212 8 182 0 202 -2 220 -19z"/>
<path d="M3460 1323 c0 -3 7 -15 17 -25 15 -17 15 -19 -2 -38 -24 -26 -11 -39
15 -15 19 17 21 17 40 0 26 -24 39 -11 15 15 -17 19 -17 21 0 40 24 26 11 39
-15 15 -19 -17 -21 -17 -38 -2 -19 18 -32 22 -32 10z"/>
<path d="M319 665 c0 -3 -1 -21 -1 -40 0 -19 1 -50 1 -69 l1 -34 75 31 c41 17
75 36 75 43 0 6 -24 21 -52 33 -29 12 -61 26 -70 31 -20 11 -28 12 -29 5z m88
-56 l28 -11 -25 -13 c-14 -7 -35 -16 -47 -19 -21 -7 -23 -4 -23 34 0 37 2 40
19 30 11 -5 32 -15 48 -21z"/>
<path d="M1050 845 c0 -69 -5 -75 -45 -49 -38 25 -73 12 -81 -31 -11 -59 0
-163 19 -182 16 -16 19 -16 54 2 21 11 41 21 46 23 4 2 7 -69 7 -157 l0 -161
1814 0 1815 0 0 310 1 310 -1815 0 -1815 0 0 -65z m810 -10 c0 -59 -9 -67 -44
-40 -31 24 -65 19 -76 -11 -18 -45 -12 -169 8 -194 18 -22 18 -22 57 -4 22 10
43 20 48 22 4 2 7 -64 7 -147 l0 -151 -395 0 -395 0 0 148 c0 81 -5 154 -10
162 -8 13 -15 12 -52 -8 -40 -21 -43 -22 -55 -6 -15 21 -17 152 -3 174 8 12
15 12 53 -7 56 -27 67 -18 67 59 l0 58 395 0 395 0 0 -55z m2797 -235 l0 -290
-1388 0 -1389 0 0 149 c0 176 -4 185 -71 151 -53 -28 -59 -20 -59 80 0 102 7
110 63 83 56 -27 67 -18 67 59 l0 58 1389 0 1388 0 0 -290z"/>
<path d="M1190 737 c-40 -10 -51 -34 -51 -115 -2 -107 0 -117 21 -140 20 -21
28 -22 235 -22 117 0 221 3 230 6 29 12 42 55 39 140 -2 93 -13 121 -52 131
-38 9 -386 10 -422 0z m436 -29 c13 -13 18 -38 20 -103 3 -133 13 -128 -245
-128 -253 0 -244 -4 -246 105 -1 91 6 120 32 133 12 6 103 10 222 10 174 0
203 -3 217 -17z"/>
<path d="M1246 682 c-3 -5 8 -22 24 -37 17 -16 30 -31 30 -34 0 -3 -14 -21
-30 -40 -17 -18 -30 -38 -30 -42 0 -5 29 -9 65 -9 37 0 65 4 65 10 0 6 -23 10
-51 10 l-51 0 32 36 31 36 -27 29 -28 29 48 0 c29 0 45 4 41 10 -7 12 -112 13
-119 2z"/>
<path d="M2650 760 l0 -70 -45 22 c-43 21 -46 21 -63 5 -14 -14 -17 -35 -17
-107 0 -72 3 -93 17 -107 17 -16 20 -16 63 5 l45 22 0 -80 0 -80 410 0 410 0
0 230 0 230 -410 0 -410 0 0 -70z m800 -159 l0 -208 -390 0 -390 1 0 66 c0 84
-10 95 -63 68 -40 -20 -41 -20 -55 -2 -14 19 -14 165 0 179 3 4 26 -3 50 -13
56 -27 68 -16 68 59 l0 59 390 0 390 0 0 -209z"/>
<path d="M2790 737 c-40 -10 -51 -35 -52 -115 -1 -108 1 -117 22 -140 20 -22
26 -22 300 -22 267 0 281 1 300 20 23 23 22 19 24 120 3 88 -12 127 -52 137
-37 9 -505 10 -542 0z m557 -30 c13 -13 18 -37 19 -102 4 -136 22 -128 -305
-128 -320 -1 -303 -6 -306 105 -1 90 6 120 32 133 12 6 124 10 281 10 235 0
263 -2 279 -18z"/>
<path d="M3060 667 c0 -20 -4 -23 -28 -19 -32 4 -48 -11 -56 -53 -9 -48 16
-74 67 -73 l44 0 -1 84 c-1 60 -5 84 -13 84 -7 0 -13 -10 -13 -23z m-5 -82 c0
-36 -2 -40 -25 -40 -20 0 -26 6 -28 28 -5 42 5 59 30 55 20 -3 23 -9 23 -43z"/>
<path d="M2849 645 c-3 -1 -5 -103 -1 -112 10 -30 22 -9 22 37 0 38 4 52 18
59 28 15 42 -6 42 -61 0 -26 5 -48 10 -48 12 0 13 99 2 117 -5 9 -77 15 -93 8z"/>
<path d="M4020 766 c0 -36 -4 -67 -8 -70 -5 -3 -21 4 -38 15 -64 42 -88 13
-86 -102 1 -117 22 -140 89 -100 17 11 34 17 37 14 3 -4 6 -39 6 -80 l0 -73
245 0 245 0 0 230 0 230 -245 0 -245 0 0 -64z m470 -165 l0 -208 -222 1 -223
1 -5 67 c-3 37 -10 72 -15 77 -7 7 -24 3 -53 -12 -57 -28 -64 -18 -64 88 0 94
7 103 62 75 42 -21 44 -21 57 -4 7 10 13 42 13 71 l0 53 225 0 225 0 0 -209z"/>
<path d="M4220 675 c-17 -21 -7 -29 18 -14 11 7 27 9 36 6 24 -9 16 -41 -12
-45 -27 -4 -30 -22 -3 -22 24 0 43 -23 35 -44 -8 -21 -50 -21 -62 0 -5 9 -14
15 -21 13 -8 -3 -7 -11 4 -27 18 -25 72 -31 93 -10 17 17 15 53 -3 68 -13 11
-13 14 0 27 19 18 19 28 -1 47 -20 20 -68 21 -84 1z"/>
<path d="M2290 690 c0 -5 4 -10 10 -10 5 0 14 -8 19 -18 7 -14 3 -32 -15 -71
-26 -57 -29 -71 -16 -71 5 0 17 18 27 40 20 44 30 44 40 0 6 -29 21 -47 31
-37 5 5 -45 146 -59 165 -11 14 -37 16 -37 2z"/>
<path d="M2061 630 c1 -33 6 -60 10 -60 10 0 10 -1 13 68 2 38 -2 52 -11 52
-10 0 -13 -16 -12 -60z"/>
<path d="M3677 683 c-4 -3 -7 -15 -7 -25 0 -12 -8 -18 -22 -19 -17 -1 -19 -2
-5 -6 9 -2 17 -13 17 -23 0 -11 -8 -24 -17 -29 -12 -7 -13 -10 -4 -11 9 0 11
-8 7 -25 -4 -14 -2 -25 3 -25 5 0 11 10 13 23 2 14 10 22 23 22 15 0 19 -6 17
-24 -2 -15 0 -21 7 -17 6 4 11 14 11 22 0 8 10 19 23 24 18 7 19 9 4 9 -13 1
-17 7 -15 24 2 12 9 21 16 20 6 -2 12 2 12 7 0 6 -5 10 -11 10 -7 0 -9 10 -7
25 3 14 2 25 -3 25 -4 0 -9 -10 -11 -22 -2 -15 -11 -24 -26 -26 -20 -3 -22 0
-16 22 6 26 3 32 -9 19z m43 -64 c0 -21 -15 -39 -32 -39 -14 0 -18 5 -14 16 3
9 6 19 6 24 0 5 9 8 20 7 11 -1 20 -4 20 -8z"/>
<path d="M2066 543 c-11 -11 -6 -23 9 -23 8 0 15 4 15 9 0 13 -16 22 -24 14z"/>
<path d="M5427 823 c-4 -3 -7 -35 -7 -70 l0 -63 -45 22 c-43 21 -46 21 -63 5
-23 -24 -28 -174 -6 -206 19 -26 35 -26 76 -1 l33 20 5 -78 5 -77 414 0 415 0
-1 205 c-1 113 -2 215 -2 228 l-1 22 -408 0 c-225 0 -412 -3 -415 -7z m805
-25 c3 -11 2 -320 -1 -384 -1 -21 -2 -21 -393 -20 l-393 1 -3 65 c-4 84 -14
97 -59 70 -44 -26 -59 -25 -67 3 -10 39 -6 143 7 160 11 16 14 16 51 -3 53
-27 66 -15 66 61 l0 59 394 0 c306 0 395 -3 398 -12z"/>
<path d="M5626 668 c-9 -12 -16 -41 -16 -63 0 -49 23 -85 55 -85 21 0 53 21
56 38 7 34 4 82 -8 105 -17 35 -64 38 -87 5z m68 -14 c9 -23 7 -87 -3 -102
-28 -46 -77 40 -53 93 13 28 47 34 56 9z"/>
<path d="M5848 679 c-24 -13 -23 -32 0 -25 16 6 18 0 16 -46 -2 -71 -1 -68
-24 -68 -11 0 -20 -4 -20 -10 0 -5 25 -10 55 -10 30 0 55 5 55 10 0 6 -9 10
-20 10 -18 0 -20 7 -20 75 0 78 -5 86 -42 64z"/>
<path d="M5958 644 l-3 -45 30 5 c39 7 58 -5 53 -35 -2 -18 -10 -25 -30 -27
-16 -2 -28 1 -28 7 0 6 -7 11 -15 11 -21 0 -19 -17 4 -30 46 -24 87 -7 96 39
6 30 -30 64 -61 58 -20 -3 -24 0 -24 19 0 21 5 24 40 24 22 0 40 5 40 10 0 6
-22 10 -49 10 l-49 0 -4 -46z"/>
<path d="M5760 535 c0 -8 5 -15 10 -15 6 0 10 7 10 15 0 8 -4 15 -10 15 -5 0
-10 -7 -10 -15z"/>
<path d="M4792 738 c-40 -11 -52 -45 -52 -144 0 -77 2 -87 25 -109 24 -25 24
-25 235 -25 211 0 211 0 235 25 23 22 25 32 25 118 0 86 -2 95 -25 117 -23 22
-30 23 -220 24 -107 0 -208 -2 -223 -6z m434 -33 c21 -28 19 -188 -2 -209 -19
-19 2 -17 -224 -20 -177 -1 -216 3 -232 28 -4 6 -8 50 -8 97 0 84 9 112 38
121 7 2 103 3 214 3 185 0 201 -2 214 -20z"/>
<path d="M4850 645 c0 -2 9 -13 20 -23 l20 -19 -20 -23 c-24 -28 -18 -40 8
-17 23 21 36 21 52 2 7 -8 16 -12 22 -9 5 3 -1 14 -13 25 l-22 19 23 25 c26
28 16 33 -18 9 -21 -15 -25 -15 -41 0 -17 16 -31 21 -31 11z"/>
</g>
</svg>
