<?xml version="1.0" standalone="no"?>
<!DOCTYPE svg PUBLIC "-//W3C//DTD SVG 20010904//EN"
 "http://www.w3.org/TR/2001/REC-SVG-20010904/DTD/svg10.dtd">
<svg version="1.0" xmlns="http://www.w3.org/2000/svg"
 width="1358.000000pt" height="556.000000pt" viewBox="0 0 1358.000000 556.000000"
 preserveAspectRatio="xMidYMid meet">
<metadata>
Created by potrace 1.16, written by Peter Selinger 2001-2019
</metadata>
<g transform="translate(0.000000,556.000000) scale(0.100000,-0.100000)"
fill="#000000" stroke="none">
<path d="M358 5216 c-78 -28 -150 -108 -165 -185 -3 -14 -5 -1053 -5 -2308 -1
-1799 2 -2292 12 -2327 14 -51 76 -124 130 -152 34 -18 95 -19 1593 -22 l1557
-2 0 390 0 390 473 0 c259 0 483 0 497 0 l25 0 -1 301 c0 165 4 303 8 305 5 3
5 11 1 17 -5 7 -9 44 -9 82 -1 39 -2 78 -3 88 -1 16 -32 17 -496 17 l-495 0 0
375 0 375 2892 0 c1590 0 2894 2 2897 5 3 3 5 155 6 338 0 183 4 338 9 346 6
9 5 12 -1 8 -6 -4 -9 70 -9 201 l0 207 -3320 3 -3320 2 0 375 0 375 1043 0
1043 0 0 405 0 405 -1810 0 c-1834 0 -1819 0 -1864 -33 -151 -109 -173 -111
-298 -27 l-91 60 -131 0 c-82 -1 -145 -6 -168 -14z m377 -75 c80 -53 96 -60
140 -61 45 0 60 6 140 60 l90 60 1793 0 1792 0 0 -375 0 -375 -1797 0 -1798 0
-90 -60 c-120 -80 -137 -80 -255 0 l-89 60 -221 0 -220 0 0 38 c-1 20 -1 150
-1 289 0 278 3 294 62 352 56 56 98 68 239 70 l125 2 90 -60z m3 -781 c79 -52
97 -60 139 -60 42 0 59 7 138 60 l90 60 143 0 142 0 1 -42 c2 -91 -3 -153 -12
-163 -6 -6 -31 2 -69 23 -120 66 -153 28 -154 -177 0 -106 3 -133 19 -166 19
-37 23 -40 60 -39 26 0 55 10 82 28 59 39 73 31 73 -41 0 -96 0 -3505 0 -3551
l0 -43 -507 3 -508 3 -45 27 c-47 27 -83 69 -101 115 -8 22 -14 2656 -9 3936
l0 87 213 0 213 0 92 -60z m1863 38 c1 -13 1 -232 1 -487 -1 -315 -4 -467 -12
-475 -7 -7 -28 -1 -70 22 -78 44 -108 41 -135 -13 -29 -58 -29 -271 0 -330 27
-53 57 -57 131 -15 31 17 62 29 70 26 22 -8 21 -764 -1 -772 -8 -3 -38 8 -66
26 -71 43 -107 39 -134 -15 -29 -59 -29 -272 0 -330 27 -54 63 -58 134 -15 82
51 81 55 81 -210 0 -265 1 -261 -81 -210 -71 43 -107 39 -134 -15 -17 -34 -20
-60 -20 -165 0 -105 3 -131 20 -165 27 -53 58 -57 131 -15 31 17 62 29 70 26
21 -8 21 -464 0 -472 -8 -3 -39 9 -70 26 -73 42 -104 38 -131 -15 -29 -58 -29
-271 0 -330 27 -53 57 -57 131 -15 31 17 62 29 70 26 11 -4 14 -31 14 -121 l0
-115 -587 0 -588 0 0 1823 c-1 1435 -3 1827 -13 1845 -17 30 -51 28 -115 -8
-30 -16 -61 -30 -70 -30 -26 0 -40 67 -40 186 0 158 26 202 92 154 17 -11 46
-27 65 -35 33 -14 37 -14 56 5 11 11 21 32 21 48 1 15 3 59 4 97 1 39 3 73 4
78 0 4 264 7 586 7 l585 0 1 -22z m6641 -770 c3 -10 2 -1003 -1 -1030 -1 -5
-1487 -8 -3304 -8 l-3303 0 -1 261 c0 335 -4 344 -118 284 -36 -19 -71 -35
-79 -35 -27 0 -40 62 -40 180 0 125 13 180 44 180 10 0 43 -15 74 -34 94 -57
117 -34 119 122 l2 92 3301 0 c2633 0 3303 -3 3306 -12z m-5793 -1443 l1 -375
-408 0 -408 0 -1 111 c-1 110 -11 152 -39 163 -8 3 -43 -10 -79 -29 -36 -19
-71 -35 -79 -35 -26 0 -40 61 -40 180 0 124 13 180 44 180 10 0 43 -15 74 -34
31 -19 64 -33 74 -32 29 4 44 53 44 145 0 47 2 89 5 94 2 4 186 7 408 7 l403
0 1 -375z m993 -417 c3 -11 2 -687 -1 -725 -1 -10 -188 -13 -901 -13 -495 0
-901 3 -901 8 -1 4 -3 54 -4 111 -3 101 -14 145 -41 155 -7 3 -43 -11 -80 -31
-50 -26 -72 -33 -83 -26 -26 17 -39 85 -36 189 3 103 14 151 39 160 8 3 45
-10 82 -30 100 -52 113 -38 119 132 2 42 3 78 4 80 0 1 406 2 900 2 710 0 900
-3 903 -12z m-993 -1143 l0 -375 -407 0 -408 0 -2 113 c-1 110 -11 151 -38
161 -8 3 -43 -10 -79 -29 -36 -19 -71 -35 -79 -35 -27 0 -40 61 -40 180 0 121
14 180 41 180 9 0 40 -14 69 -30 29 -17 62 -33 73 -35 35 -7 51 35 55 143 2
53 4 98 5 100 0 1 183 2 405 2 l404 0 1 -375z"/>
<path d="M2299 4973 c-1 -32 -1 -268 0 -285 1 -10 9 -18 19 -18 16 0 17 14 18
160 1 149 -1 160 -18 160 -10 0 -18 -7 -19 -17z"/>
<path d="M2790 4970 c0 -24 25 -27 34 -4 9 23 8 24 -14 24 -13 0 -20 -7 -20
-20z"/>
<path d="M3130 4830 c0 -153 1 -160 20 -160 19 0 20 7 20 160 0 153 -1 160
-20 160 -19 0 -20 -7 -20 -160z"/>
<path d="M3373 4953 c-1 -77 0 -76 -25 -59 -53 37 -123 0 -130 -67 -12 -125
46 -187 132 -142 27 14 30 14 30 0 0 -8 7 -15 14 -15 18 0 22 55 18 213 -3 95
-5 107 -21 107 -14 0 -18 -8 -18 -37z m-21 -90 c23 -21 25 -109 2 -141 -15
-22 -48 -29 -71 -14 -31 20 -32 144 -1 163 21 14 50 10 70 -8z"/>
<path d="M3870 4963 c-74 -94 -75 -255 -3 -350 13 -18 31 -33 39 -33 19 0 18
7 -6 40 -62 87 -64 232 -5 322 29 44 30 48 11 48 -8 0 -24 -12 -36 -27z"/>
<path d="M4226 4960 c-63 -36 -145 -114 -162 -156 -26 -62 -15 -107 33 -132
29 -16 41 -15 19 1 -38 28 -8 131 41 143 42 10 105 43 134 71 24 22 27 23 33
6 29 -73 11 -219 -34 -276 -25 -31 -25 -37 -2 -37 16 0 60 60 76 105 15 40 18
114 7 166 -13 61 -59 139 -81 138 -8 -1 -37 -14 -64 -29z m64 -5 c16 -19 -4
-52 -54 -90 -32 -24 -96 -50 -96 -38 0 12 73 104 97 123 31 24 37 25 53 5z"/>
<path d="M526 4964 c-3 -9 -6 -31 -6 -50 0 -27 4 -34 20 -34 22 0 27 29 9 47
-8 8 -8 17 0 32 9 17 9 21 -3 21 -7 0 -17 -7 -20 -16z"/>
<path d="M596 4958 c-12 -48 -7 -78 14 -78 21 0 29 33 10 45 -6 4 -6 15 0 30
7 19 6 25 -4 25 -8 0 -16 -10 -20 -22z"/>
<path d="M1043 4963 c-39 -20 -73 -83 -73 -136 0 -100 72 -166 166 -153 50 6
72 18 97 52 16 22 17 25 2 30 -10 4 -27 -3 -43 -19 -25 -24 -56 -32 -104 -28
-26 2 -67 52 -74 89 -9 46 12 109 42 128 39 26 100 22 132 -9 33 -32 61 -23
42 13 -25 46 -124 64 -187 33z"/>
<path d="M2523 4825 c0 -145 1 -155 18 -155 21 0 21 0 23 73 l1 52 83 -1 c72
0 82 2 82 18 0 15 -11 18 -82 20 l-83 3 0 55 1 55 74 1 c101 2 100 2 100 19 0
12 -19 15 -108 15 l-109 0 0 -155z"/>
<path d="M4063 4968 c-37 -9 -71 -53 -68 -85 2 -23 31 -63 47 -63 4 0 0 8 -11
19 -24 24 -17 62 16 96 14 14 28 25 32 26 22 3 44 8 48 13 7 7 -26 4 -64 -6z"/>
<path d="M1796 4935 c-4 -14 -13 -25 -21 -25 -8 0 -15 -7 -15 -15 0 -8 7 -15
15 -15 12 0 15 -17 15 -93 0 -101 7 -117 51 -117 34 0 47 27 16 32 -20 3 -22
9 -25 91 -3 82 -2 87 18 87 11 0 20 7 20 15 0 8 -9 15 -20 15 -15 0 -20 7 -20
25 0 15 -6 25 -14 25 -8 0 -17 -11 -20 -25z"/>
<path d="M1345 4903 c-37 -8 -60 -52 -59 -117 0 -53 3 -61 32 -87 20 -18 44
-29 62 -29 78 0 115 48 108 138 -7 85 -52 114 -143 95z m89 -45 c9 -12 16 -43
16 -68 0 -57 -22 -90 -60 -90 -33 0 -59 22 -62 53 -3 55 3 91 18 108 24 26 69
24 88 -3z"/>
<path d="M1540 4790 c0 -113 1 -120 20 -120 18 0 20 7 20 83 0 92 15 127 55
127 42 0 53 -23 53 -107 0 -106 0 -103 20 -103 17 0 19 9 18 99 -1 82 -4 103
-20 120 -23 25 -72 28 -104 5 -20 -14 -22 -14 -22 0 0 9 -9 16 -20 16 -19 0
-20 -7 -20 -120z"/>
<path d="M1910 4791 c0 -113 1 -121 19 -121 17 0 19 7 19 53 -1 119 7 145 46
151 11 1 20 10 22 19 3 25 -31 21 -56 -5 -20 -21 -21 -22 -18 -3 2 12 -3 21
-14 23 -16 3 -18 -8 -18 -117z"/>
<path d="M2078 4881 c-30 -26 -32 -33 -32 -91 1 -58 4 -66 33 -92 33 -29 70
-35 115 -18 62 23 77 160 22 207 -40 34 -96 31 -138 -6z m116 -23 c9 -12 16
-43 16 -68 0 -56 -22 -90 -58 -90 -37 0 -51 11 -61 48 -12 39 -4 92 16 115 23
24 68 22 87 -5z"/>
<path d="M2789 4883 c-1 -32 -1 -182 0 -200 1 -7 9 -13 19 -13 17 0 18 11 18
120 0 108 -2 120 -18 120 -13 0 -18 -8 -19 -27z"/>
<path d="M2912 4885 c-73 -61 -32 -215 58 -215 39 0 87 19 94 37 10 25 -2 28
-33 10 -53 -31 -104 -14 -113 38 -3 18 3 20 80 23 92 3 96 8 67 77 -24 58
-101 74 -153 30z m112 -27 c28 -40 21 -48 -43 -48 -33 0 -62 4 -65 9 -3 5 4
20 15 35 26 33 71 35 93 4z"/>
<path d="M3486 4887 c-17 -17 -22 -31 -19 -51 6 -29 24 -42 86 -60 22 -6 45
-19 50 -28 27 -42 -63 -68 -102 -29 -25 25 -48 12 -32 -17 25 -47 145 -39 169
12 13 25 12 31 -5 54 -11 15 -41 32 -71 42 -64 21 -69 26 -56 48 16 24 53 27
91 6 36 -19 47 -16 37 10 -16 41 -112 49 -148 13z"/>
<path d="M4161 4774 c-24 -30 -27 -49 -9 -60 6 -4 8 -3 5 3 -4 6 4 27 18 47
28 41 17 49 -14 10z"/>
<path d="M4221 4785 c9 -11 19 -27 22 -35 5 -13 6 -13 6 1 1 9 -9 24 -21 35
-23 19 -23 19 -7 -1z"/>
<path d="M4215 4704 c-9 -15 -12 -23 -6 -20 11 7 35 46 28 46 -3 0 -12 -12
-22 -26z"/>
<path d="M4148 4663 c7 -3 16 -2 19 1 4 3 -2 6 -13 5 -11 0 -14 -3 -6 -6z"/>
<path d="M549 2442 c-4 -36 -3 -236 2 -243 3 -5 64 15 135 44 104 43 130 58
132 75 2 12 2 22 -1 22 -2 0 -63 24 -135 54 -73 30 -132 52 -133 48z m118 -83
c43 -17 82 -34 86 -38 7 -7 -140 -71 -162 -71 -4 0 -8 32 -8 70 0 39 2 70 3
70 2 0 38 -14 81 -31z"/>
<path d="M1817 4139 c-21 -12 -56 -83 -57 -112 0 -38 33 -12 47 36 23 78 42
62 77 -64 31 -112 94 -118 132 -12 18 51 17 62 -3 59 -10 -2 -22 -20 -30 -50
-10 -35 -18 -46 -31 -44 -16 3 -29 32 -52 116 -10 40 -40 82 -57 82 -5 0 -16
-5 -26 -11z"/>
<path d="M1718 3178 c4 -13 22 -67 41 -120 44 -125 65 -129 120 -21 40 81 44
163 7 163 -11 0 -15 -12 -14 -48 0 -47 -20 -111 -45 -140 -9 -12 -17 3 -43 84
-25 80 -35 100 -52 102 -17 3 -19 -1 -14 -20z"/>
<path d="M1815 2305 c1 -41 -1 -45 -27 -50 -37 -9 -58 -50 -58 -113 0 -54 17
-84 60 -105 21 -11 25 -19 24 -55 -1 -34 3 -42 18 -42 15 0 18 8 18 44 0 39 3
45 31 57 78 32 76 200 -2 216 -27 5 -29 9 -29 49 0 36 -3 44 -18 44 -16 0 -19
-7 -17 -45z m0 -166 c0 -43 -3 -79 -6 -79 -3 0 -13 8 -22 18 -15 17 -20 43
-18 94 1 27 28 64 40 53 3 -4 6 -42 6 -86z m73 66 c22 -49 10 -126 -22 -138
-14 -6 -16 5 -16 78 0 64 3 85 13 85 8 0 19 -11 25 -25z"/>
<path d="M1746 1483 c-3 -4 10 -24 31 -45 l37 -38 -37 -38 c-29 -30 -34 -41
-25 -50 9 -9 20 -4 50 25 l38 37 40 -39 c33 -32 40 -36 46 -21 4 11 -5 27 -29
50 l-36 33 35 34 c19 18 34 39 34 46 0 23 -25 14 -59 -21 l-34 -35 -32 35
c-32 34 -46 40 -59 27z"/>
<path d="M1820 703 c5 -71 3 -73 -45 -73 -33 0 -45 -4 -45 -15 0 -11 12 -15
45 -15 48 0 47 1 47 -62 1 -16 6 -28 13 -28 16 0 21 16 20 58 -1 32 -1 32 45
32 35 0 47 4 47 15 0 11 -12 15 -44 15 -27 0 -44 5 -45 13 0 6 -2 23 -3 37 -4
47 -5 50 -21 50 -11 0 -15 -8 -14 -27z"/>
<path d="M4629 3508 c0 -7 -2 -56 -3 -108 -2 -52 -4 -101 -5 -107 -2 -21 -27
-15 -78 17 -112 71 -154 21 -154 -183 1 -199 41 -246 153 -177 52 32 77 38 79
18 1 -7 3 -60 4 -118 2 -58 3 -113 4 -122 1 -17 55 -18 996 -18 l995 0 0 405
0 405 -995 0 c-789 0 -995 -3 -996 -12z m1961 -393 l0 -375 -965 0 c-912 0
-965 1 -965 18 -3 194 -6 225 -29 243 -25 21 -48 15 -109 -26 -81 -55 -102
-20 -99 165 3 176 18 196 106 142 60 -37 88 -44 106 -25 17 16 17 19 21 123 1
41 3 83 3 93 1 16 54 17 966 17 l965 0 0 -375z"/>
<path d="M5073 3257 c-40 -15 -62 -43 -63 -79 0 -29 30 -68 52 -68 7 0 2 7
-10 16 -12 8 -22 26 -22 39 0 27 45 85 65 85 8 0 17 5 20 10 8 12 -1 12 -42
-3z"/>
<path d="M5138 3263 c7 -3 16 -2 19 1 4 3 -2 6 -13 5 -11 0 -14 -3 -6 -6z"/>
<path d="M5243 3250 c-97 -44 -192 -166 -178 -230 6 -29 47 -70 69 -70 6 0 3
5 -6 11 -37 21 -11 124 36 146 21 10 24 13 8 9 -22 -4 -22 -4 -5 25 26 44 75
94 108 112 42 23 19 21 -32 -3z"/>
<path d="M5654 3168 c-92 -141 -92 -136 -3 -140 l73 -3 1 -30 c0 -20 6 -31 18
-33 14 -3 17 4 17 32 0 32 3 36 26 36 32 0 28 24 -5 28 -19 3 -22 9 -21 40 1
20 2 67 1 105 -1 100 -22 93 -107 -35z m71 -30 l0 -73 -53 -3 -53 -3 51 75
c28 42 52 76 53 76 2 0 3 -33 2 -72z"/>
<path d="M5898 3167 c-38 -57 -68 -111 -68 -120 0 -14 11 -17 70 -17 l70 0 0
-35 c0 -28 4 -35 20 -35 13 0 19 7 18 23 -2 40 2 47 22 47 11 0 20 7 20 15 0
8 -9 15 -20 15 -22 0 -22 -3 -23 123 -1 81 -2 87 -21 87 -15 0 -39 -28 -88
-103z m72 -32 l0 -75 -50 0 c-27 0 -50 2 -50 5 0 7 92 145 96 145 2 0 4 -34 4
-75z"/>
<path d="M6128 3251 c-35 -28 -47 -66 -45 -148 3 -107 47 -157 124 -137 51 13
74 49 80 126 9 109 -21 165 -94 175 -29 4 -44 0 -65 -16z m93 -30 c21 -17 24
-28 26 -101 2 -75 0 -84 -22 -106 -29 -29 -45 -30 -76 -5 -22 18 -24 27 -24
106 0 79 2 88 24 106 29 24 43 24 72 0z"/>
<path d="M5313 3240 c-2 -28 -32 -65 -78 -94 -44 -30 -43 -32 8 -11 40 17 87
68 87 95 0 25 -15 34 -17 10z"/>
<path d="M5191 3077 c-27 -14 -43 -48 -31 -67 5 -9 10 -3 15 19 4 19 17 37 33
46 33 17 17 20 -17 2z"/>
<path d="M5251 3044 c0 -11 3 -14 6 -6 3 7 2 16 -1 19 -3 4 -6 -2 -5 -13z"/>
<path d="M5210 2981 c-19 -19 -26 -29 -15 -24 22 12 61 52 54 56 -2 1 -20 -13
-39 -32z"/>
<path d="M6980 3413 c0 -142 -4 -147 -79 -105 -95 51 -130 40 -150 -48 -23
-101 -8 -284 26 -322 23 -26 57 -22 124 15 51 27 61 30 69 17 5 -8 10 -70 10
-138 l0 -122 997 2 998 3 0 403 0 402 -997 0 -998 0 0 -107z m1962 -273 c0
-190 -1 -357 -1 -372 l-1 -28 -965 0 -965 0 0 98 c0 110 -13 169 -38 175 -9 2
-45 -11 -79 -30 -34 -18 -68 -33 -76 -33 -27 0 -41 52 -43 169 -2 121 11 184
39 189 10 2 43 -11 75 -30 31 -18 63 -32 70 -32 6 1 16 2 21 3 18 2 31 66 31
153 l0 88 966 -2 967 -3 -1 -345z"/>
<path d="M7427 3255 c-45 -16 -66 -40 -67 -77 0 -26 33 -68 54 -68 6 0 0 7
-12 16 -44 31 -19 93 52 124 48 22 29 25 -27 5z"/>
<path d="M7658 3239 c4 -25 -2 -36 -36 -68 -23 -22 -55 -42 -72 -46 -17 -4
-29 -9 -26 -12 11 -11 93 28 124 58 34 33 41 69 19 88 -11 8 -13 5 -9 -20z"/>
<path d="M8007 3169 c-37 -56 -68 -109 -69 -118 -3 -13 10 -17 70 -19 49 -2
72 -7 71 -15 -1 -7 -1 -22 0 -35 1 -31 35 -26 37 6 2 40 4 42 24 42 11 0 20 7
20 15 0 9 -9 15 -23 15 -22 0 -23 2 -22 103 0 96 -1 102 -21 105 -17 2 -34
-18 -87 -99z m71 -29 l2 -80 -51 0 c-28 0 -49 4 -47 8 3 8 92 152 94 152 0 0
1 -36 2 -80z"/>
<path d="M8312 3258 c-31 -38 -132 -201 -132 -213 0 -12 15 -15 70 -15 74 0
76 -2 71 -52 -2 -12 5 -18 18 -18 17 0 21 6 21 35 0 28 4 35 20 35 11 0 20 7
20 15 0 8 -9 15 -20 15 -19 0 -20 7 -20 105 0 96 -2 105 -19 105 -10 0 -23 -6
-29 -12z m11 -124 c-1 -37 -4 -69 -7 -71 -2 -2 -25 -3 -50 -1 l-46 3 48 72
c26 39 49 70 52 68 3 -2 4 -34 3 -71z"/>
<path d="M8485 3258 c-25 -13 -45 -38 -45 -55 0 -20 26 -15 41 7 18 26 74 34
94 14 34 -35 8 -84 -44 -84 -11 0 -23 -5 -27 -11 -7 -12 15 -31 28 -23 9 6 50
-14 60 -30 12 -18 9 -53 -6 -65 -25 -21 -72 -21 -94 -1 -11 11 -22 24 -24 31
-3 8 -9 9 -21 3 -14 -8 -14 -13 -4 -34 16 -32 52 -50 100 -50 49 0 97 44 97
87 0 29 -31 73 -52 73 -6 0 1 9 16 21 58 46 17 129 -63 129 -20 0 -45 -6 -56
-12z"/>
<path d="M7579 3244 c-47 -24 -126 -102 -145 -141 -26 -55 -22 -102 11 -130
29 -26 55 -32 31 -7 -9 8 -16 21 -16 27 0 24 21 87 33 99 7 7 21 30 31 51 11
20 37 55 60 77 41 41 40 48 -5 24z"/>
<path d="M7522 3068 c-7 -7 -12 -26 -12 -42 l0 -30 20 39 c11 22 20 41 20 42
0 7 -17 2 -28 -9z"/>
<path d="M7596 3067 c3 -10 9 -15 12 -12 3 3 0 11 -7 18 -10 9 -11 8 -5 -6z"/>
<path d="M7569 2983 l-24 -28 28 24 c15 14 27 26 27 28 0 8 -8 1 -31 -24z"/>
<path d="M7508 2953 c7 -3 16 -2 19 1 4 3 -2 6 -13 5 -11 0 -14 -3 -6 -6z"/>
<path d="M3026 3374 c-8 -20 -4 -25 11 -16 7 4 9 13 4 21 -6 10 -10 9 -15 -5z"/>
<path d="M3057 3383 c-3 -5 -2 -15 2 -22 5 -7 11 -9 14 -4 3 5 2 15 -2 22 -5
7 -11 9 -14 4z"/>
<path d="M3103 3381 c-17 -5 -20 -10 -13 -21 6 -9 10 -10 10 -3 0 8 9 9 29 3
30 -8 41 -5 41 13 0 5 -9 7 -20 4 -10 -3 -20 -2 -22 2 -2 4 -13 5 -25 2z"/>
<path d="M3180 3369 c0 -11 4 -18 10 -14 5 3 7 12 3 20 -7 21 -13 19 -13 -6z"/>
<path d="M3207 3371 c5 -20 33 -18 33 3 0 6 4 5 9 -3 11 -17 41 -24 41 -10 0
5 5 9 11 9 5 0 8 -4 5 -9 -3 -5 6 -12 19 -15 14 -4 31 -18 37 -31 6 -13 15
-22 20 -19 5 3 8 -2 6 -11 -2 -10 3 -20 10 -22 14 -6 12 23 -6 52 -8 15 -12
16 -13 5 0 -8 -4 -5 -7 8 -4 13 -11 23 -16 22 -5 -1 -12 4 -17 12 -5 7 -23 13
-42 14 -18 0 -38 4 -44 7 -7 4 -15 3 -18 -3 -5 -8 -11 -8 -20 0 -11 9 -12 7
-8 -9z"/>
<path d="M2972 3360 c-12 -12 -22 -17 -22 -13 0 4 -6 -2 -14 -13 -10 -13 -11
-21 -3 -26 6 -4 18 4 27 18 9 13 20 21 23 17 4 -3 7 2 7 13 0 16 2 17 10 4 8
-13 10 -12 10 3 0 22 -11 22 -38 -3z"/>
<path d="M2911 3258 c-8 -101 -5 -276 3 -270 5 3 6 -2 3 -12 -4 -11 -3 -15 4
-11 6 4 9 1 8 -6 -4 -25 12 -48 28 -42 11 4 14 2 9 -5 -9 -15 22 -29 67 -29
20 0 40 -2 43 -6 3 -3 17 -1 31 4 18 6 30 6 39 -2 8 -6 14 -8 14 -3 0 5 15 8
32 7 18 -1 33 -2 33 -3 0 -7 47 -5 51 2 3 4 10 6 15 3 13 -9 79 25 79 41 0 8
5 13 11 12 14 -4 20 20 24 95 3 39 0 57 -8 57 -15 0 -16 -72 -2 -82 6 -5 5 -8
-3 -8 -7 0 -12 -6 -10 -14 4 -17 -41 -76 -58 -76 -7 0 -15 -6 -17 -12 -4 -10
-6 -10 -6 0 -1 10 -6 10 -23 1 -17 -9 -23 -9 -26 0 -3 9 -7 9 -18 0 -8 -6 -14
-7 -14 -2 0 5 -7 10 -15 10 -8 0 -15 -4 -15 -9 0 -5 -5 -6 -11 -3 -14 9 -69
13 -69 5 0 -10 -55 -6 -62 5 -5 6 -8 4 -8 -5 0 -13 -1 -13 -10 0 -7 11 -10 12
-10 2 0 -11 -3 -11 -15 0 -37 33 -46 39 -57 32 -7 -5 -9 -2 -5 8 3 9 2 19 -3
24 -5 5 -10 27 -11 49 -2 22 -8 43 -13 47 -7 5 -3 8 9 8 12 0 16 3 9 10 -6 6
-7 36 -4 71 3 33 3 62 -1 65 -4 2 -3 19 1 38 7 33 5 46 -10 46 -3 0 -8 -19 -9
-42z"/>
<path d="M3765 3098 l0 -193 68 -3 c42 -2 67 1 67 8 0 5 -11 10 -25 10 l-25 0
0 175 0 175 25 0 c14 0 25 5 25 10 0 6 -29 10 -67 10 l-68 0 0 -192z m65 -3
c0 -146 -2 -175 -14 -175 -8 0 -18 5 -22 11 -5 9 -8 175 -4 317 0 15 6 22 20
22 19 0 20 -7 20 -175z"/>
<path d="M3980 3280 c0 -5 11 -10 24 -10 13 0 26 -6 28 -12 2 -7 4 -85 3 -173
l-1 -160 -27 -3 c-55 -7 -25 -22 43 -22 l70 0 0 195 -1 195 -69 0 c-40 0 -70
-4 -70 -10z m117 -185 c0 -163 -1 -175 -19 -175 -21 0 -20 -9 -22 192 -1 154
0 158 20 158 20 0 21 -4 21 -175z"/>
<path d="M3385 3213 c0 -21 5 -41 10 -45 6 -5 5 -8 -2 -8 -8 0 -11 -9 -9 -22
3 -13 5 -26 5 -30 1 -5 5 -8 10 -8 4 0 8 34 8 75 0 48 -4 75 -11 75 -6 0 -11
-17 -11 -37z"/>
<path d="M3160 3221 c0 -6 -6 -8 -14 -5 -7 3 -20 -2 -29 -10 -8 -8 -17 -13
-20 -10 -8 8 -27 -31 -31 -65 -2 -19 1 -28 7 -24 6 4 8 0 4 -9 -3 -9 2 -23 11
-31 24 -22 70 -38 77 -27 3 5 11 7 18 5 7 -3 23 4 36 14 46 35 30 147 -21 155
-7 1 -19 5 -25 9 -7 5 -13 4 -13 -2z m1 -31 c6 0 8 4 5 8 -3 5 5 8 17 7 13 -1
23 -9 25 -21 2 -10 9 -23 14 -29 8 -7 9 -4 4 10 -5 14 -4 17 4 9 7 -7 7 -19
-1 -42 -6 -18 -9 -39 -6 -47 4 -10 1 -12 -10 -8 -11 4 -14 2 -9 -5 5 -8 1 -10
-10 -5 -13 5 -15 3 -9 -7 6 -9 4 -11 -5 -5 -7 4 -16 2 -21 -6 -7 -11 -9 -9 -9
6 0 17 -2 17 -10 5 -7 -11 -10 -11 -10 -2 0 7 -4 10 -10 7 -5 -3 -10 1 -10 9
0 9 -5 16 -11 16 -5 0 -7 -5 -3 -12 4 -6 3 -8 -4 -5 -5 4 -8 16 -5 28 4 12 0
25 -8 30 -12 7 -12 9 0 9 8 0 11 6 7 17 -4 10 -4 15 -1 11 3 -3 18 5 33 19 15
13 28 20 30 14 2 -6 8 -11 13 -11z"/>
<path d="M2993 2330 c-50 -20 -73 -144 -44 -233 28 -83 138 -90 176 -10 20 42
23 135 6 186 -19 56 -79 81 -138 57z m95 -47 c6 -9 13 -28 13 -42 1 -14 2 -42
3 -61 2 -35 -11 -88 -24 -103 -3 -4 -17 -9 -30 -12 -60 -12 -81 43 -71 188 0
9 10 26 22 38 24 24 65 20 87 -8z"/>
<path d="M3053 1549 c-35 -10 -73 -52 -73 -79 0 -21 37 -70 53 -70 6 0 3 6 -7
13 -40 29 -19 95 42 126 40 22 36 25 -15 10z"/>
<path d="M3274 1548 c17 -13 17 -17 3 -44 -19 -37 -43 -59 -93 -84 -24 -13
-30 -18 -14 -14 47 11 115 59 125 87 10 30 -1 58 -26 65 -8 2 -6 -2 5 -10z"/>
<path d="M3614 1542 c-36 -28 -47 -62 -46 -139 0 -92 21 -134 74 -147 81 -20
130 36 131 148 0 75 -23 133 -58 146 -39 15 -77 12 -101 -8z m96 -32 c11 -11
20 -30 21 -42 1 -13 2 -42 3 -65 4 -87 -41 -141 -93 -114 -26 14 -35 48 -35
128 1 100 52 145 104 93z"/>
<path d="M3993 1537 c-18 -12 -33 -30 -33 -41 0 -17 1 -17 25 -2 13 9 28 16
33 16 12 0 10 -220 -2 -222 -6 0 -15 -2 -21 -3 -5 -2 -18 -3 -27 -4 -10 0 -18
-8 -18 -16 0 -12 17 -15 95 -15 78 0 95 3 95 15 0 13 -26 21 -54 16 -18 -4
-22 20 -21 148 0 125 0 131 -20 130 -11 0 -35 -10 -52 -22z"/>
<path d="M3169 1511 c-128 -94 -170 -214 -89 -256 37 -19 51 -19 23 0 -16 11
-21 23 -18 45 6 43 35 101 48 93 6 -4 7 -1 3 6 -10 15 35 81 81 121 49 44 15
37 -48 -9z"/>
<path d="M3165 1368 c-27 -15 -35 -28 -34 -58 1 -24 1 -23 15 7 7 17 24 39 36
47 26 18 13 21 -17 4z"/>
<path d="M3215 1360 c3 -5 8 -10 11 -10 2 0 4 5 4 10 0 6 -5 10 -11 10 -5 0
-7 -4 -4 -10z"/>
<path d="M3207 1287 l-17 -32 20 24 c17 20 26 41 18 41 -2 0 -11 -15 -21 -33z"/>
<path d="M3839 1298 c-10 -34 -7 -48 9 -48 25 0 31 7 25 31 -4 15 -30 28 -34
17z"/>
<path d="M3155 1250 c-3 -6 1 -7 9 -4 18 7 21 14 7 14 -6 0 -13 -4 -16 -10z"/>
<path d="M2993 770 c-50 -20 -73 -143 -44 -233 28 -84 139 -90 176 -10 21 43
24 148 6 192 -22 51 -82 73 -138 51z m87 -40 c20 -20 23 -36 22 -128 0 -42 -5
-59 -23 -78 -37 -39 -97 -15 -100 40 -5 82 -4 105 3 134 14 50 64 66 98 32z"/>
</g>
</svg>
