<?xml version="1.0" standalone="no"?>
<!DOCTYPE svg PUBLIC "-//W3C//DTD SVG 20010904//EN"
 "http://www.w3.org/TR/2001/REC-SVG-20010904/DTD/svg10.dtd">
<svg version="1.0" xmlns="http://www.w3.org/2000/svg"
 width="1337.000000pt" height="430.000000pt" viewBox="0 0 1337.000000 430.000000"
 preserveAspectRatio="xMidYMid meet">
<metadata>
Created by potrace 1.16, written by Peter Selinger 2001-2019
</metadata>
<g transform="translate(0.000000,430.000000) scale(0.100000,-0.100000)"
fill="#000000" stroke="none">
<path d="M775 4070 c-137 -5 -141 -6 -189 -37 -28 -18 -61 -33 -76 -33 -14 0
-49 16 -78 36 -51 34 -56 35 -135 33 -90 -2 -137 -20 -172 -67 -20 -27 -20
-43 -20 -1877 0 -1834 0 -1850 20 -1877 11 -15 38 -37 60 -48 40 -19 60 -20
900 -20 473 0 887 0 920 0 l60 0 0 226 c0 124 2 228 5 232 7 11 960 9 960 -1
0 -4 6 -5 13 0 16 10 947 11 947 0 0 -4 6 -5 13 0 16 10 1907 11 1907 0 0 -4
6 -5 13 0 16 10 1267 11 1267 0 0 -4 6 -5 13 0 18 11 787 11 780 -1 -4 -5 -1
-6 8 0 19 12 319 13 312 1 -4 -6 -1 -7 8 -1 19 12 319 13 312 1 -4 -6 -1 -7 8
-1 19 12 319 13 312 1 -4 -6 -1 -7 8 -1 18 11 479 13 479 1 0 -4 6 -5 13 0 17
11 947 11 947 0 0 -6 5 -5 13 0 6 5 83 9 169 9 l158 -1 0 230 c1 479 -1 789
-4 792 -2 2 -1950 3 -4330 3 -2379 0 -4327 4 -4327 8 -1 4 -2 103 -3 220 -1
137 2 212 9 213 56 5 275 2 275 -4 0 -5 5 -5 12 -1 17 11 228 11 228 1 0 -5 5
-5 12 -1 17 10 788 11 788 1 0 -5 5 -5 12 -1 16 10 308 11 308 1 0 -5 6 -5 13
0 16 10 547 10 547 0 0 -5 5 -5 12 -1 17 11 228 11 228 1 0 -5 5 -5 12 -1 17
11 708 11 708 1 0 -5 5 -5 12 -1 17 11 228 11 228 1 0 -5 5 -5 12 -1 16 10
388 11 388 1 0 -5 5 -5 12 -1 17 11 228 11 228 1 0 -5 5 -5 12 -1 16 10 388
11 388 1 0 -5 5 -5 12 -1 17 11 228 11 228 1 0 -5 5 -5 12 -1 16 10 388 11
388 1 0 -5 5 -5 12 -1 17 11 228 11 228 1 0 -5 5 -5 12 -1 17 11 708 11 708 1
0 -5 5 -5 12 -1 17 11 228 11 228 1 0 -5 5 -5 12 -1 17 10 788 11 788 1 0 -5
5 -5 12 -1 16 10 308 11 308 1 0 -5 6 -5 13 0 16 10 547 10 547 0 0 -5 5 -5
12 -1 17 11 228 11 228 1 0 -5 5 -5 12 -1 17 10 788 11 788 1 0 -5 5 -5 12 -1
16 10 308 11 308 1 0 -5 6 -5 13 0 16 10 547 10 547 0 0 -5 5 -5 12 -1 17 11
228 11 228 1 0 -5 5 -5 12 -1 16 10 708 11 708 1 0 -4 8 -4 18 1 9 4 74 7 145
6 l127 -1 1 26 c2 90 -1 995 -4 998 -2 2 -2621 3 -5820 3 l-5817 0 0 223 0
222 170 0 c94 0 170 -4 170 -8 0 -5 5 -5 11 -1 16 9 289 11 289 1 0 -4 8 -4
18 0 9 5 107 7 217 6 110 -2 205 -3 210 -3 6 0 124 1 263 2 138 2 252 -1 252
-5 0 -5 5 -5 12 -1 15 10 648 11 648 2 0 -4 10 -4 23 0 12 4 105 6 207 5 102
-2 190 -3 195 -3 334 1 606 2 625 1 14 -1 79 0 145 1 l120 3 0 242 0 243 -185
0 c-102 0 -1051 1 -2110 3 -1059 1 -1988 0 -2065 -3z m-347 -56 c69 -46 98
-46 167 -1 l55 37 2229 0 c2114 0 2229 -1 2232 -17 3 -10 4 -110 4 -223 l-1
-205 -2239 0 -2240 -1 -52 -37 c-29 -20 -61 -37 -70 -37 -10 0 -44 17 -75 38
l-56 37 -131 0 -131 0 0 170 c0 146 3 175 18 204 28 51 73 71 162 71 70 0 79
-3 128 -36z m2 -467 c31 -21 67 -37 83 -37 15 0 50 16 78 35 28 19 56 35 63
36 6 1 46 2 89 2 l77 2 0 -57 c0 -31 -4 -59 -9 -62 -5 -3 -27 4 -50 17 l-42
22 -20 -24 c-18 -22 -24 -60 -21 -136 5 -100 25 -119 90 -86 22 11 42 17 46
14 3 -4 6 -696 6 -1540 l0 -1533 -298 0 c-333 0 -347 3 -384 71 -17 32 -18
104 -18 1671 0 1081 3 1637 10 1640 5 2 63 3 128 2 l118 -1 54 -36z m1098 34
c9 -1 12 -66 12 -291 0 -270 -1 -290 -17 -290 -10 0 -27 7 -37 15 -30 23 -61
19 -74 -10 -15 -31 -16 -164 -2 -199 11 -30 52 -35 84 -11 47 35 46 40 46
-395 0 -225 -2 -410 -5 -410 -2 0 -25 10 -51 22 l-46 23 -20 -25 c-17 -21 -19
-36 -16 -117 4 -120 16 -136 79 -105 23 12 46 19 51 16 4 -3 8 -66 8 -140 0
-142 -4 -151 -46 -119 -32 24 -73 19 -84 -11 -13 -33 -13 -165 0 -198 12 -32
43 -34 84 -7 17 11 33 18 38 15 11 -7 10 -811 0 -818 -5 -3 -23 4 -40 15 -72
43 -96 10 -91 -125 5 -111 18 -127 77 -97 23 12 46 21 52 21 6 0 10 -28 10
-70 l0 -70 -350 0 -350 0 0 1528 c0 840 -3 1537 -6 1550 -8 27 -29 28 -73 1
-29 -18 -36 -19 -48 -6 -18 18 -21 154 -4 186 l12 22 35 -20 c66 -39 84 -25
84 70 0 25 2 48 4 50 4 3 641 3 684 0z m11650 -953 l-3 -492 -5545 0 c-3050
-1 -5663 0 -5807 2 l-263 3 0 332 c0 379 0 381 -62 347 -69 -37 -78 -26 -78
95 0 97 7 105 66 77 62 -30 74 -20 74 64 l0 64 5810 0 5810 0 -2 -492z
m-11137 -518 c1 -3 2 -103 3 -222 l1 -218 -242 0 -243 0 0 64 c0 103 -9 112
-79 76 -56 -28 -64 -14 -60 99 2 49 7 92 11 96 4 4 27 -3 52 -16 61 -30 76
-18 76 61 0 31 2 59 4 61 6 6 476 5 477 -1z m8667 -952 l-3 -493 -4305 0
c-2368 0 -4425 1 -4572 3 l-268 3 0 332 c0 388 1 382 -73 346 -26 -13 -50 -20
-54 -16 -10 11 -16 130 -9 172 8 41 21 43 72 13 36 -21 37 -21 50 -3 8 11 14
44 14 77 l0 58 4575 0 4575 0 -2 -492z m-8663 -735 l0 -223 -242 0 -243 0 0
68 c0 39 -5 76 -12 85 -12 16 -15 16 -50 -3 -50 -26 -66 -25 -74 5 -8 32 -1
171 9 181 4 4 28 -3 52 -15 61 -30 75 -19 75 59 0 31 2 59 5 62 3 3 112 5 243
4 l237 -1 0 -222z"/>
<path d="M749 3908 c-1 -28 -1 -138 0 -155 1 -7 6 -13 11 -13 6 0 10 38 10 95
0 57 -4 95 -10 95 -5 0 -11 -10 -11 -22z"/>
<path d="M1080 3835 c0 -78 3 -95 15 -95 8 0 14 3 14 8 -4 22 2 52 10 52 6 0
18 -13 28 -30 9 -16 23 -30 30 -30 18 0 16 7 -13 46 l-27 35 28 29 c22 23 25
30 13 30 -9 0 -28 -15 -42 -32 -27 -35 -29 -33 -28 40 1 30 -3 42 -13 42 -12
0 -15 -19 -15 -95z"/>
<path d="M300 3900 c0 -11 0 -23 -1 -27 0 -4 4 -9 10 -11 5 -2 9 11 9 27 -1
34 -18 44 -18 11z"/>
<path d="M347 3914 c-10 -11 -9 -54 2 -54 15 0 18 13 12 38 -3 13 -9 20 -14
16z"/>
<path d="M574 3833 l1 -88 52 -3 c41 -2 56 1 72 17 22 22 19 49 -6 64 -12 8
-12 11 1 26 12 14 13 21 3 41 -11 22 -20 25 -69 28 l-56 3 2 -88z m96 57 c23
-15 -1 -44 -39 -48 -29 -3 -31 -1 -31 27 0 27 3 31 28 31 15 0 34 -5 42 -10z
m10 -85 c19 -22 -5 -45 -46 -45 -31 0 -34 3 -34 30 0 27 3 30 34 30 18 0 39
-7 46 -15z"/>
<path d="M1290 3830 c0 -108 18 -122 22 -17 l3 72 45 -72 c62 -102 77 -98 77
17 0 62 -3 90 -11 87 -6 -2 -12 -21 -12 -43 -1 -21 -2 -52 -3 -68 -1 -27 -5
-23 -47 42 -63 98 -74 95 -74 -18z"/>
<path d="M2269 3918 c-1 -2 -2 -42 -3 -90 -1 -65 2 -88 11 -88 8 0 13 13 13
35 0 34 1 35 38 35 43 0 67 15 77 47 10 36 -25 63 -85 63 -27 0 -51 -1 -51 -2z
m95 -24 c9 -3 16 -16 16 -29 0 -25 -17 -35 -61 -35 -27 0 -29 3 -29 35 0 32 2
35 29 35 16 0 36 -3 45 -6z"/>
<path d="M3770 3831 c0 -106 18 -124 22 -23 l3 67 25 -64 c14 -36 30 -66 36
-68 6 -2 23 27 37 64 l26 68 0 -67 c1 -48 5 -68 14 -68 9 0 12 24 12 87 0 74
-3 88 -17 91 -15 3 -21 -8 -64 -128 -3 -9 -17 14 -32 55 -18 44 -34 71 -45 73
-15 3 -17 -7 -17 -87z"/>
<path d="M3190 3895 c0 -8 -5 -15 -11 -15 -7 0 -8 -7 -4 -17 4 -10 8 -36 9
-58 1 -22 5 -46 9 -52 10 -15 47 -17 47 -3 0 6 -7 10 -15 10 -23 0 -21 88 3
106 16 13 16 13 0 14 -10 0 -18 7 -18 15 0 8 -4 15 -10 15 -5 0 -10 -7 -10
-15z"/>
<path d="M817 3862 c-23 -25 -22 -85 1 -105 23 -21 66 -22 86 -1 9 9 16 32 16
54 0 22 -7 45 -16 54 -21 22 -67 20 -87 -2z m75 -19 c4 -49 4 -59 -5 -70 -30
-40 -81 14 -59 62 14 30 61 36 64 8z"/>
<path d="M959 3859 c-17 -17 -20 -29 -15 -58 9 -59 64 -82 101 -41 16 17 16
20 2 20 -9 0 -19 -4 -22 -10 -10 -16 -42 -12 -49 6 -21 55 6 100 45 76 30 -19
44 -14 24 8 -23 26 -60 25 -86 -1z"/>
<path d="M1493 3873 c-15 -5 -18 -33 -4 -33 6 0 13 5 16 10 8 13 42 13 50 -1
11 -17 -8 -26 -58 -28 -22 -1 -31 -23 -23 -56 5 -20 13 -25 36 -25 16 0 32 4
35 10 4 6 13 5 25 -2 22 -14 36 -6 24 14 -5 7 -10 30 -10 51 -1 20 -7 44 -14
52 -12 14 -52 19 -77 8z m67 -76 c0 -18 -21 -37 -41 -37 -24 0 -33 18 -19 35
15 19 60 20 60 2z"/>
<path d="M1621 3808 c1 -46 6 -68 14 -68 8 0 12 17 12 49 0 57 7 71 34 71 17
0 19 -7 19 -60 0 -42 4 -60 13 -60 8 0 13 17 14 50 2 59 7 70 34 70 16 0 19
-8 20 -52 1 -29 1 -56 0 -60 0 -5 5 -8 13 -8 16 0 19 94 4 123 -10 19 -53 23
-63 7 -5 -8 -11 -8 -19 -1 -7 6 -31 9 -54 8 l-43 -1 2 -68z"/>
<path d="M1855 3866 c-27 -20 -27 -92 0 -112 25 -18 69 -18 85 1 16 19 5 34
-12 17 -17 -17 -55 -15 -62 4 -11 30 -6 34 45 34 48 0 50 1 44 23 -14 45 -62
61 -100 33z m73 -23 c2 -9 -8 -13 -32 -13 -34 0 -44 8 -29 24 11 11 56 2 61
-11z"/>
<path d="M1990 3865 c-19 -23 -4 -45 40 -62 22 -9 39 -21 37 -27 -5 -16 -46
-19 -63 -5 -19 16 -30 4 -14 -16 17 -21 79 -16 94 8 15 24 -3 49 -42 59 -38
10 -43 38 -8 38 14 0 28 -5 31 -10 4 -6 11 -8 16 -4 6 4 6 11 -2 20 -15 18
-73 18 -89 -1z"/>
<path d="M2450 3865 c-17 -21 -7 -29 18 -14 22 14 56 5 49 -14 -2 -6 -13 -13
-25 -13 -12 -1 -29 -2 -37 -3 -20 -1 -30 -47 -15 -66 15 -18 51 -19 69 -2 11
10 14 10 18 0 3 -7 14 -13 25 -13 17 0 18 2 8 15 -7 9 -13 33 -12 55 1 24 -4
45 -14 54 -20 20 -68 21 -84 1z m70 -68 c0 -19 -21 -37 -42 -37 -18 0 -25 29
-11 43 12 12 53 7 53 -6z"/>
<path d="M2585 3813 c0 -44 4 -68 13 -71 8 -2 12 11 12 47 0 40 4 53 20 63 11
7 20 16 20 20 0 13 -28 9 -33 -4 -4 -10 -6 -10 -6 0 -1 6 -7 12 -14 12 -9 0
-12 -19 -12 -67z"/>
<path d="M2685 3867 c-14 -11 -15 -16 -5 -22 9 -5 15 -4 18 3 5 17 49 15 56
-3 3 -8 2 -15 -2 -16 -73 -7 -97 -25 -83 -62 9 -25 41 -33 68 -19 11 7 23 6
34 -1 10 -6 22 -7 26 -3 4 5 2 11 -4 13 -8 3 -13 23 -13 52 0 26 -5 52 -12 59
-16 16 -60 15 -83 -1z m75 -63 c0 -18 -23 -44 -40 -44 -25 0 -35 17 -20 35 12
14 60 21 60 9z"/>
<path d="M2819 3870 c0 -5 -1 -26 -1 -45 0 -71 2 -85 11 -85 6 0 11 23 13 51
5 87 60 95 57 9 -1 -51 0 -60 10 -60 6 0 11 23 13 51 2 37 8 55 21 63 24 15
37 -7 37 -66 0 -27 5 -48 10 -48 6 0 10 28 10 65 0 61 -2 65 -25 71 -15 4 -32
1 -42 -7 -13 -11 -17 -11 -20 -1 -6 15 -45 16 -61 0 -9 -9 -12 -9 -12 0 0 14
-20 16 -21 2z"/>
<path d="M3050 3860 c-24 -24 -26 -67 -4 -98 17 -25 74 -31 93 -9 14 18 2 30
-15 16 -21 -18 -59 -7 -62 19 -3 20 0 22 46 22 47 0 50 1 45 23 -12 48 -67 63
-103 27z m74 -15 c4 -12 -3 -15 -29 -15 -33 0 -43 8 -28 23 12 13 51 7 57 -8z"/>
<path d="M3267 3862 c-23 -25 -22 -85 1 -105 21 -19 54 -22 83 -6 28 14 14 31
-16 17 -30 -13 -51 -6 -58 21 -5 19 -1 21 44 21 42 0 49 3 49 19 0 47 -71 69
-103 33z m77 -17 c4 -12 -3 -15 -36 -15 -35 0 -39 2 -28 15 7 8 23 15 35 15
13 0 25 -7 29 -15z"/>
<path d="M3401 3808 c1 -50 5 -68 15 -68 10 0 14 15 14 56 0 47 3 57 20 61 32
9 23 21 -15 20 l-36 -1 2 -68z"/>
<path d="M3490 3859 c-14 -26 1 -46 44 -57 17 -5 31 -15 31 -23 0 -18 -42 -24
-61 -8 -8 6 -18 9 -22 5 -11 -12 29 -36 57 -36 74 1 72 66 -1 84 -35 8 -37 36
-4 36 14 0 28 -5 31 -10 4 -6 11 -8 16 -4 19 11 -13 34 -47 34 -23 0 -37 -6
-44 -21z"/>
<path d="M3997 3862 c-23 -25 -22 -85 1 -105 22 -20 62 -22 87 -4 14 11 15 16
5 22 -9 5 -15 4 -18 -3 -6 -19 -50 -14 -62 7 -15 30 -14 31 40 31 43 0 50 3
50 19 0 47 -71 69 -103 33z m73 -17 c11 -13 7 -15 -30 -15 -37 0 -41 2 -30 15
7 8 20 15 30 15 10 0 23 -7 30 -15z"/>
<path d="M4136 3864 c-22 -22 -5 -51 37 -62 17 -5 32 -15 32 -23 0 -17 -43
-25 -58 -10 -18 18 -28 12 -17 -9 13 -25 71 -27 95 -4 14 14 14 19 2 37 -8 12
-28 25 -45 29 -18 5 -32 13 -32 19 0 16 31 23 50 11 22 -13 34 -4 19 15 -15
18 -64 17 -83 -3z"/>
<path d="M4272 3871 c-26 -16 -9 -53 28 -66 45 -15 54 -45 13 -45 -16 0 -34 5
-41 12 -6 6 -14 9 -17 6 -3 -3 1 -13 10 -22 23 -23 82 -21 95 3 15 29 2 50
-41 62 -21 7 -39 16 -39 21 0 15 32 22 50 10 22 -13 34 -4 19 15 -13 15 -57
17 -77 4z"/>
<path d="M4405 3867 c-14 -11 -15 -16 -5 -22 9 -5 15 -4 18 3 5 17 49 15 56
-3 3 -8 2 -15 -2 -16 -73 -7 -97 -25 -83 -62 9 -25 41 -33 68 -19 11 7 23 6
34 -1 10 -6 22 -7 26 -3 4 5 2 11 -4 13 -8 3 -13 23 -13 52 0 26 -5 52 -12 59
-16 16 -60 15 -83 -1z m66 -79 c-9 -26 -37 -36 -54 -19 -15 15 10 41 39 41 20
0 22 -3 15 -22z"/>
<path d="M4544 3855 c-17 -27 -14 -76 7 -102 14 -16 51 -17 68 0 11 10 13 9 7
-6 -3 -10 -6 -23 -6 -28 0 -12 -47 -12 -55 1 -4 6 -11 8 -16 4 -17 -10 12 -34
42 -34 47 0 59 22 59 111 0 46 -4 79 -10 79 -5 0 -10 -5 -10 -12 0 -9 -3 -9
-12 0 -20 20 -56 14 -74 -13z m77 -18 c16 -34 -4 -79 -34 -75 -17 2 -23 11
-25 36 -2 19 -1 40 2 48 9 22 45 17 57 -9z"/>
<path d="M4697 3862 c-23 -25 -22 -85 1 -105 24 -22 66 -22 87 -1 22 22 15 26
-24 11 -29 -11 -34 -10 -47 7 -22 31 -17 36 36 36 43 0 50 3 50 19 0 47 -71
69 -103 33z m77 -17 c4 -12 -3 -15 -29 -15 -33 0 -43 8 -28 23 12 13 51 7 57
-8z"/>
<path d="M4836 3864 c-9 -8 -16 -19 -16 -23 0 -13 26 -32 57 -40 15 -4 28 -14
28 -22 0 -17 -41 -24 -59 -10 -17 14 -29 2 -15 -16 16 -19 73 -16 92 5 15 16
15 20 2 39 -8 12 -29 24 -45 28 -36 8 -41 35 -6 35 14 0 28 -5 31 -10 4 -6 11
-8 16 -4 17 10 -12 34 -42 34 -15 0 -35 -7 -43 -16z"/>
<path d="M2127 3762 c-3 -4 -3 -20 0 -35 4 -21 8 -25 14 -15 12 18 11 58 0 58
-6 0 -12 -3 -14 -8z"/>
<path d="M3625 3761 c-3 -5 -1 -12 4 -16 6 -3 8 -12 4 -20 -3 -8 0 -15 6 -15
6 0 11 14 11 30 0 29 -13 40 -25 21z"/>
<path d="M314 1885 c0 -47 4 -75 10 -74 27 1 151 58 154 70 2 9 -25 25 -74 44
-43 17 -80 31 -83 32 -3 2 -6 -31 -7 -72z m94 14 c32 -12 27 -23 -15 -39 -21
-8 -41 -16 -45 -18 -5 -2 -8 15 -8 38 0 45 -1 44 68 19z"/>
<path d="M1062 3407 c-6 -7 -15 -25 -21 -40 -9 -22 -8 -27 4 -27 8 0 15 6 15
13 0 7 6 22 14 32 12 17 15 14 30 -33 9 -28 23 -55 30 -61 20 -17 43 -3 55 31
13 38 13 38 1 38 -6 0 -15 -11 -20 -25 -14 -37 -28 -31 -41 18 -17 64 -42 85
-67 54z"/>
<path d="M1012 2669 c17 -65 44 -129 54 -129 37 0 79 126 46 138 -7 2 -13 -2
-11 -9 4 -32 -2 -66 -15 -84 -12 -17 -15 -14 -33 35 -11 30 -26 56 -33 58 -6
2 -10 -2 -8 -9z"/>
<path d="M1070 1969 c0 -12 -11 -30 -25 -41 -19 -15 -25 -29 -25 -58 0 -29 6
-43 25 -58 14 -11 25 -29 25 -41 0 -12 5 -21 10 -21 6 0 10 9 10 21 0 12 11
30 24 40 13 10 26 31 29 46 6 33 -17 83 -38 83 -9 0 -15 10 -15 25 0 14 -4 25
-10 25 -5 0 -10 -9 -10 -21z m-2 -126 l-4 -28 -14 28 c-11 23 -11 31 0 55 l14
27 4 -27 c2 -16 2 -40 0 -55z m46 61 c10 -26 7 -49 -9 -70 -13 -17 -14 -15
-15 34 0 50 12 68 24 36z"/>
<path d="M1030 1202 c0 -5 9 -17 20 -27 l20 -18 -22 -24 c-28 -29 -17 -42 13
-14 l23 21 23 -22 c30 -28 43 -15 15 15 l-22 23 22 22 c29 29 15 42 -15 14
l-24 -22 -18 20 c-19 21 -35 26 -35 12z"/>
<path d="M1076 469 c-4 -9 -6 -22 -4 -30 2 -9 -7 -15 -24 -17 -35 -4 -37 -22
-3 -22 23 0 31 -13 26 -42 0 -5 4 -8 9 -8 10 0 11 3 14 33 0 6 13 13 29 15 35
4 35 20 0 24 -22 2 -29 10 -34 33 -4 22 -8 26 -13 14z"/>
<path d="M2539 3038 c-1 -7 -3 -33 -4 -58 -4 -90 0 -85 -41 -61 -69 41 -94 21
-100 -83 -4 -66 9 -127 29 -145 10 -7 24 -5 56 11 23 11 45 17 49 14 3 -4 7
-116 8 -249 1 -133 2 -248 3 -254 1 -10 451 -13 2216 -13 l2215 0 0 425 0 425
-2215 0 c-1765 0 -2215 -3 -2216 -12z m4411 -412 l0 -403 -2195 0 c-1603 0
-2195 3 -2196 11 0 6 -2 115 -3 241 -2 127 -3 237 -4 246 -3 28 -31 30 -72 6
-54 -31 -63 -18 -64 87 -1 107 7 118 67 88 25 -12 47 -22 50 -22 9 0 26 62 25
95 0 17 0 36 1 43 1 9 447 12 2196 12 l2195 0 0 -404z"/>
<path d="M4140 2890 c0 -62 -2 -70 -19 -70 -10 0 -24 7 -31 15 -7 8 -26 15
-41 15 -38 0 -49 -28 -49 -125 0 -124 24 -150 97 -106 17 11 34 17 37 14 3 -4
6 -82 6 -175 l0 -168 1325 0 1325 0 0 335 0 335 -1325 0 -1325 0 0 -70z m2630
-263 l0 -313 -1305 0 -1305 0 0 162 c0 187 -5 201 -63 165 -64 -39 -77 -25
-77 84 0 109 11 121 75 84 51 -30 65 -15 65 67 l0 64 1305 0 1305 0 0 -313z"/>
<path d="M5350 2802 c0 -38 -3 -71 -6 -74 -3 -3 -24 5 -47 18 -65 36 -87 8
-87 -110 0 -125 24 -151 97 -107 17 11 34 17 37 14 3 -4 6 -42 6 -85 l0 -78
263 2 262 3 2 243 2 242 -265 0 -264 0 0 -68z m505 -177 l0 -220 -242 -1 -243
-1 0 67 c0 38 -5 74 -13 84 -12 17 -15 17 -61 -5 -59 -29 -66 -22 -66 76 0
121 10 132 76 93 36 -21 37 -21 50 -3 8 11 14 44 14 77 l0 58 243 -2 242 -3 0
-220z"/>
<path d="M5550 2710 c0 -5 22 -10 49 -10 l49 0 -29 -52 c-28 -52 -38 -108 -20
-108 5 0 12 15 16 33 4 17 18 54 31 80 13 27 24 53 24 58 0 5 -27 9 -60 9 -33
0 -60 -4 -60 -10z"/>
<path d="M6089 2853 c-2 -82 -5 -113 -11 -118 -3 -4 -20 1 -38 10 -71 37 -102
-5 -95 -128 7 -109 29 -128 99 -87 33 20 35 20 40 3 3 -10 5 -43 5 -73 -1 -30
0 -61 0 -67 1 -10 60 -13 261 -13 l260 0 0 85 c1 47 1 141 1 210 0 69 0 141
-1 160 l0 35 -260 0 c-241 0 -260 -1 -261 -17z m503 -170 c2 -93 2 -193 0
-224 l-3 -56 -238 0 -239 0 -4 73 c-4 93 -14 103 -68 75 -22 -11 -45 -21 -50
-21 -23 0 -33 132 -15 189 8 27 25 26 70 0 47 -28 56 -19 62 65 l6 66 238 0
238 0 3 -167z"/>
<path d="M6307 2702 c-41 -46 4 -118 58 -94 23 11 23 10 13 -19 -10 -29 -40
-40 -53 -19 -9 15 -25 12 -25 -4 0 -18 34 -30 64 -22 43 11 62 108 30 154 -19
27 -64 29 -87 4z m74 -29 c9 -24 -11 -53 -36 -53 -21 0 -34 31 -24 58 11 30
48 26 60 -5z"/>
<path d="M4410 2778 c0 -4 7 -8 15 -8 8 0 15 4 15 8 0 5 -7 9 -15 9 -8 0 -15
-4 -15 -9z"/>
<path d="M4450 2778 c0 -4 7 -8 15 -8 8 0 15 4 15 8 0 5 -7 9 -15 9 -8 0 -15
-4 -15 -9z"/>
<path d="M4490 2778 c0 -4 7 -8 15 -8 8 0 15 4 15 8 0 5 -7 9 -15 9 -8 0 -15
-4 -15 -9z"/>
<path d="M4530 2779 c0 -5 14 -9 31 -9 16 0 28 -4 25 -9 -3 -5 1 -11 9 -15 10
-3 15 -20 15 -48 0 -27 3 -38 9 -30 18 29 -12 111 -42 113 -6 0 -20 2 -29 4
-10 2 -18 -1 -18 -6z"/>
<path d="M4343 2758 c-12 -14 -17 -41 -18 -108 -1 -49 2 -87 6 -84 4 2 7 37 6
77 0 40 3 79 7 85 4 7 4 12 -1 12 -4 1 8 9 27 20 29 15 31 18 12 17 -13 -1
-30 -9 -39 -19z"/>
<path d="M4837 2733 c-6 -13 -2 -207 6 -219 4 -6 20 -10 37 -9 33 3 55 15 27
15 -15 0 -17 13 -17 100 0 84 3 101 18 109 13 8 8 10 -25 11 -23 0 -44 -3 -46
-7z m37 -106 c-2 -111 -2 -107 -14 -107 -6 0 -10 42 -10 105 0 79 3 103 13
100 8 -4 12 -32 11 -98z"/>
<path d="M4975 2731 c18 -7 20 -18 20 -109 0 -76 -3 -102 -12 -102 -7 0 -13
-4 -13 -9 0 -7 32 -8 73 -2 4 1 7 53 7 116 l0 115 -47 -1 c-34 0 -42 -3 -28
-8z m57 -13 c10 -32 2 -192 -10 -196 -9 -3 -12 23 -12 102 0 58 4 106 9 106 5
0 11 -6 13 -12z"/>
<path d="M4437 2672 c-23 -26 -21 -58 5 -76 29 -21 51 -20 71 2 22 24 21 55
-1 75 -24 22 -55 21 -75 -1z m59 0 c39 -25 14 -89 -30 -76 -11 4 -22 7 -22 8
-1 0 -4 11 -8 22 -11 35 30 66 60 46z"/>
<path d="M4610 2630 c0 -11 4 -20 8 -20 4 0 8 9 9 20 1 11 -2 20 -8 20 -5 0
-9 -9 -9 -20z"/>
<path d="M4608 2565 c-2 -19 0 -35 4 -35 4 0 8 6 9 13 0 6 2 20 4 29 2 10 0
20 -5 23 -4 3 -10 -11 -12 -30z"/>
<path d="M4340 2515 c7 -8 16 -13 20 -10 5 3 10 0 12 -7 5 -13 78 -18 78 -5 0
5 -12 7 -28 6 -15 -2 -38 4 -52 14 -30 21 -47 22 -30 2z"/>
<path d="M4567 2506 c-15 -7 -25 -15 -21 -19 6 -6 64 19 64 28 0 7 -12 5 -43
-9z"/>
<path d="M4464 2493 c4 -5 21 -8 37 -8 16 0 29 3 29 8 0 4 -16 7 -37 7 -20 0
-33 -3 -29 -7z"/>
<path d="M2820 2800 c0 -75 -7 -83 -48 -54 -30 21 -64 14 -79 -16 -16 -31 -17
-146 -2 -189 13 -37 33 -40 89 -11 l39 20 3 -83 3 -82 263 -3 262 -2 0 245 0
245 -265 0 -265 0 0 -70z m507 -172 l-2 -223 -220 -2 c-121 -1 -229 0 -241 2
-19 4 -21 12 -22 71 -1 88 -12 100 -71 73 -32 -14 -48 -16 -55 -9 -18 18 -20
162 -2 185 15 20 15 20 57 -3 54 -31 67 -19 71 66 l3 62 242 0 243 0 -3 -222z"/>
<path d="M3058 2706 c-10 -7 -18 -19 -18 -27 0 -10 3 -10 12 -1 22 22 28 12
28 -53 0 -63 -1 -65 -25 -65 -14 0 -25 -4 -25 -10 0 -5 24 -10 54 -10 30 0 58
5 61 10 3 6 -5 10 -19 10 -23 0 -24 3 -24 58 -1 95 -2 102 -14 102 -7 0 -21
-7 -30 -14z"/>
<path d="M3449 2761 c-22 -17 -25 -29 -29 -118 -6 -111 4 -144 47 -161 29 -11
369 -15 431 -5 50 8 66 40 67 137 2 166 2 166 -276 166 -198 0 -219 -2 -240
-19z m477 -22 c15 -16 18 -37 18 -114 1 -135 10 -129 -227 -133 -106 -1 -207
0 -224 3 -46 8 -56 34 -55 139 3 132 -10 126 252 126 206 0 218 -1 236 -21z"/>
<path d="M3580 2674 c0 -8 5 -12 10 -9 6 3 10 10 10 16 0 5 -4 9 -10 9 -5 0
-10 -7 -10 -16z"/>
<path d="M3525 2630 c-4 -6 18 -10 59 -10 37 0 66 4 66 10 0 6 -26 10 -59 10
-33 0 -63 -4 -66 -10z"/>
<path d="M3580 2586 c0 -9 5 -16 10 -16 6 0 10 4 10 9 0 6 -4 13 -10 16 -5 3
-10 -1 -10 -9z"/>
<path d="M8689 2953 c-2 -8 -5 -55 -8 -115 l-1 -27 -46 24 c-26 14 -51 22 -56
19 -34 -21 -48 -127 -27 -210 13 -52 35 -57 93 -23 l36 21 1 -24 c0 -12 2 -90
2 -173 l2 -150 1473 -3 1472 -2 0 335 0 335 -1470 0 c-808 0 -1471 -3 -1471
-7z m2918 -325 l-2 -313 -1447 -1 c-1023 0 -1448 3 -1449 10 -1 6 -2 74 -3
151 -2 140 -9 185 -27 185 -6 0 -28 -10 -49 -22 -55 -32 -65 -19 -65 87 0 106
10 119 65 88 41 -24 69 -22 71 6 1 9 3 39 4 66 2 28 4 51 4 53 1 1 653 2 1451
2 l1450 0 -3 -312z"/>
<path d="M9890 2800 c0 -74 -7 -83 -44 -55 -11 8 -30 15 -42 15 -39 0 -49 -26
-49 -125 0 -125 23 -150 97 -105 l33 20 5 -83 5 -82 335 0 335 0 1 243 1 242
-338 0 -339 0 0 -70z m655 -176 l0 -221 -315 1 -315 1 -1 45 c-3 99 -4 108
-20 114 -8 3 -33 -4 -54 -17 -55 -31 -65 -18 -65 88 0 107 9 119 67 87 56 -30
71 -16 72 68 l1 60 315 -2 315 -3 0 -221z"/>
<path d="M10107 2713 c-2 -5 -5 -25 -5 -47 -1 -38 -1 -38 31 -32 35 6 51 0 59
-24 14 -40 -51 -72 -66 -33 -5 12 -10 13 -18 5 -18 -18 9 -42 47 -42 18 0 39
8 48 18 37 41 5 110 -47 100 -14 -3 -27 0 -29 6 -9 24 6 36 44 36 21 0 39 5
39 10 0 11 -97 14 -103 3z"/>
<path d="M10248 2681 c-5 -56 -2 -61 32 -48 32 12 60 -3 60 -32 0 -38 -41 -53
-71 -25 -22 20 -35 1 -13 -20 19 -19 64 -21 88 -3 24 18 24 76 0 94 -10 8 -32
12 -47 10 -24 -3 -27 0 -25 17 2 16 11 22 38 24 60 6 59 22 -2 22 l-56 0 -4
-39z"/>
<path d="M10780 2818 c0 -29 -3 -63 -6 -75 l-6 -22 -31 20 c-73 44 -101 15
-101 -106 0 -123 24 -148 98 -104 21 12 37 16 37 10 1 -6 3 -15 4 -21 1 -5 3
-39 4 -75 l1 -65 335 0 335 0 0 245 0 245 -335 0 -335 0 0 -52z m650 -192 l0
-223 -315 0 -315 0 -1 56 c-1 112 -11 123 -73 90 -34 -17 -48 -21 -57 -12 -12
12 -17 134 -6 176 9 33 24 34 72 6 51 -31 63 -16 64 84 l1 47 315 0 315 0 0
-224z"/>
<path d="M10989 2713 c0 -5 -2 -21 -5 -38 -6 -48 0 -55 35 -42 26 9 34 9 48
-5 14 -14 15 -22 5 -43 -13 -28 -43 -33 -62 -10 -10 12 -16 13 -24 5 -15 -15
19 -40 55 -40 36 0 59 24 59 60 0 39 -26 63 -62 58 -24 -4 -28 -1 -28 19 0 20
5 23 40 23 22 0 40 5 40 10 0 11 -100 14 -101 3z"/>
<path d="M11125 2710 c-4 -6 13 -10 43 -10 l49 0 -29 -56 c-30 -60 -36 -104
-15 -104 7 0 14 12 15 28 1 15 14 52 30 82 15 30 29 58 30 62 5 12 -116 10
-123 -2z"/>
<path d="M8907 2771 c-27 -18 -37 -33 -31 -43 3 -4 2 -8 -3 -8 -4 0 -6 -29 -5
-65 5 -90 17 -82 16 10 -1 66 1 78 20 90 11 8 31 15 43 15 13 0 23 4 23 9 0
14 -38 9 -63 -8z"/>
<path d="M8980 2779 c0 -5 27 -7 60 -7 62 2 110 -15 110 -39 0 -7 5 -13 10
-13 13 0 -2 31 -25 50 -17 14 -155 22 -155 9z"/>
<path d="M9379 2685 c-1 -70 -1 -140 0 -162 1 -14 10 -18 41 -18 22 -1 40 3
40 7 0 4 -7 8 -15 8 -24 0 -22 188 3 206 15 12 12 13 -25 14 l-43 0 -1 -55z
m36 -66 c0 -74 -3 -99 -12 -99 -10 0 -13 25 -13 98 0 92 5 120 19 106 3 -3 6
-50 6 -105z"/>
<path d="M9522 2730 c14 -9 17 -27 16 -110 0 -86 -2 -100 -16 -101 -14 0 -13
-2 2 -8 11 -4 29 -7 40 -6 20 2 21 8 24 118 l3 117 -43 0 c-33 -1 -39 -3 -26
-10z m54 -111 c0 -76 -2 -99 -13 -99 -10 0 -13 23 -13 98 0 92 5 120 19 106 3
-3 6 -50 7 -105z"/>
<path d="M9153 2695 c0 -8 4 -15 9 -15 4 0 8 7 8 15 0 8 -4 15 -8 15 -5 0 -9
-7 -9 -15z"/>
<path d="M8988 2678 c-23 -19 -27 -40 -12 -70 11 -21 20 -26 45 -24 17 1 35 9
40 17 33 52 -25 114 -73 77z m56 -14 c29 -28 14 -65 -27 -69 -22 -3 -27 2 -33
28 -5 23 -2 34 12 44 23 17 29 16 48 -3z"/>
<path d="M9154 2635 c1 -19 4 -35 8 -35 4 0 7 16 6 35 -1 19 -4 35 -8 35 -3 0
-6 -16 -6 -35z"/>
<path d="M9153 2549 c-1 -23 0 -39 3 -36 8 8 14 77 6 77 -4 0 -8 -18 -9 -41z"/>
<path d="M8869 2574 c5 -3 7 -13 5 -22 -6 -24 19 -51 55 -62 42 -12 39 -2 -4
16 -19 8 -36 21 -36 29 -1 8 -2 20 -3 27 0 6 -7 12 -14 14 -7 1 -8 0 -3 -2z"/>
<path d="M9120 2510 c-8 -6 -25 -10 -38 -10 -13 0 -21 -4 -18 -8 7 -11 64 -3
72 10 9 14 0 18 -16 8z"/>
<path d="M8983 2503 c-25 -9 -12 -18 27 -19 22 0 40 4 40 9 0 6 -3 8 -6 4 -3
-3 -16 -2 -28 2 -11 5 -27 6 -33 4z"/>
<path d="M7560 2802 c0 -38 -3 -72 -6 -75 -4 -3 -18 3 -32 13 -13 11 -37 20
-52 20 -35 0 -50 -37 -50 -125 0 -119 27 -148 97 -106 17 11 34 17 37 14 3 -4
6 -42 6 -85 l0 -78 265 0 265 0 0 245 0 245 -265 0 -265 0 0 -68z m508 -174
l-3 -223 -240 0 -240 0 -3 70 c-4 92 -15 104 -73 75 -41 -21 -43 -21 -56 -4
-8 10 -13 45 -13 83 0 116 12 130 77 90 48 -30 64 -13 64 69 l1 62 244 0 244
0 -2 -222z"/>
<path d="M7794 2712 c-21 -14 -33 -50 -30 -91 5 -70 54 -101 101 -66 28 22 29
130 1 151 -21 15 -54 18 -72 6z m61 -34 c6 -31 8 -48 6 -80 -1 -31 -34 -47
-56 -28 -18 15 -20 101 -3 118 20 20 47 14 53 -10z"/>
<path d="M12229 2868 c-1 -2 -2 -31 -3 -66 -2 -34 -6 -65 -10 -69 -4 -4 -20 1
-35 10 -47 28 -70 22 -88 -20 -15 -38 -14 -154 2 -195 10 -24 46 -23 89 3 l36
21 1 -34 c1 -18 2 -55 3 -83 l1 -50 394 -3 c231 -1 397 2 400 7 5 7 6 427 2
474 -1 6 -789 11 -792 5z m771 -35 c1 -28 1 -407 1 -419 -1 -15 -751 -15 -752
0 0 6 -2 39 -3 74 -5 84 -14 93 -71 62 -61 -33 -70 -23 -70 85 0 107 8 117 71
86 59 -30 63 -25 69 69 1 22 3 45 4 50 1 6 134 10 376 10 350 0 375 -1 375
-17z"/>
<path d="M12457 2702 c-19 -21 -24 -43 -5 -24 22 22 28 12 28 -53 0 -58 -2
-65 -19 -65 -11 0 -23 -4 -26 -10 -4 -6 17 -10 54 -10 34 0 61 4 61 10 0 6
-10 10 -23 10 -22 0 -23 3 -22 77 0 63 -3 78 -16 81 -8 1 -23 -6 -32 -16z"/>
<path d="M12588 2706 c-10 -7 -18 -19 -18 -27 0 -10 3 -10 12 -1 22 22 28 12
28 -53 0 -63 -1 -65 -25 -65 -14 0 -25 -4 -25 -10 0 -6 27 -10 60 -10 33 0 60
4 60 10 0 6 -11 10 -24 10 -22 0 -24 4 -24 43 0 125 -4 134 -44 103z"/>
<path d="M12716 2698 c-9 -12 -16 -43 -16 -68 0 -25 7 -56 16 -68 21 -31 69
-30 89 2 21 32 22 100 1 131 -21 33 -68 34 -90 3z m74 -17 c24 -45 5 -121 -30
-121 -23 0 -31 12 -37 54 -9 68 40 117 67 67z"/>
<path d="M7200 2711 c0 -11 -11 -31 -25 -45 -16 -16 -25 -36 -25 -56 0 -20 9
-39 25 -54 14 -13 25 -33 25 -45 0 -11 5 -21 10 -21 10 0 14 13 11 37 -1 6 7
14 18 18 47 14 52 102 8 127 -12 7 -23 22 -22 32 0 11 -6 21 -12 24 -8 2 -13
-5 -13 -17z m-4 -139 c-18 -17 -26 55 -9 80 5 8 9 -3 11 -31 2 -23 1 -46 -2
-49z m54 44 c0 -19 -6 -39 -14 -45 -13 -11 -15 -6 -14 31 0 24 2 46 5 51 9 16
23 -6 23 -37z"/>
<path d="M1782 2677 c-6 -6 -13 -24 -17 -40 -10 -38 10 -35 24 5 13 37 23 30
41 -27 15 -47 27 -65 46 -65 17 0 47 56 41 78 -3 12 -10 4 -22 -23 l-18 -40
-12 30 c-8 17 -19 45 -25 63 -13 33 -39 42 -58 19z"/>
<path d="M11864 2677 c-3 -8 -4 -20 -2 -28 2 -9 -7 -15 -24 -17 -34 -4 -37
-22 -4 -22 18 0 26 -6 28 -22 4 -31 26 -35 23 -3 -3 22 1 25 26 25 16 0 29 5
29 10 0 6 -13 10 -29 10 -25 0 -29 3 -26 25 3 28 -12 44 -21 22z"/>
<path d="M2140 2653 c37 -121 54 -136 88 -74 25 45 30 101 8 101 -10 0 -14 -9
-12 -27 3 -25 -17 -83 -29 -83 -2 0 -12 25 -21 55 -10 30 -23 55 -30 55 -9 0
-10 -8 -4 -27z"/>
<path d="M8280 2673 c0 -3 7 -14 15 -23 15 -17 11 -50 -6 -50 -5 0 -9 -7 -9
-16 0 -13 5 -12 27 5 l26 21 22 -20 c29 -27 41 -13 13 17 l-22 23 24 22 c15
14 19 23 11 26 -6 2 -20 -5 -30 -17 -18 -21 -18 -21 -36 -1 -18 20 -35 26 -35
13z"/>
<path d="M1764 1966 c-28 -21 -28 -131 0 -152 47 -34 94 -5 100 62 7 86 -43
131 -100 90z m64 -18 c7 -7 12 -33 12 -58 0 -48 -13 -70 -41 -70 -21 0 -37 44
-33 90 6 46 35 65 62 38z"/>
<path d="M2539 1578 c-1 -2 -2 -31 -3 -65 -1 -35 -5 -66 -9 -69 -4 -4 -22 1
-40 11 -18 9 -42 16 -52 14 -57 -11 -58 -236 -1 -247 10 -2 36 6 57 18 29 15
39 18 40 8 1 -7 3 -121 4 -253 1 -132 3 -245 4 -250 1 -7 744 -10 2214 -10
l2212 0 3 423 2 422 -2215 0 c-1218 0 -2216 -1 -2216 -2z m4409 -420 l-3 -402
-2188 -1 c-1312 0 -2191 4 -2195 9 -3 5 -6 119 -6 252 -1 282 -1 282 -72 245
-60 -32 -68 -23 -68 83 -1 107 6 116 71 88 44 -19 49 -19 58 -4 5 9 10 42 11
72 1 30 3 56 3 58 1 1 989 2 2196 2 l2195 0 -2 -402z"/>
<path d="M4140 1420 c0 -75 -8 -84 -46 -55 -31 23 -69 19 -82 -10 -18 -39 -15
-176 4 -203 19 -27 37 -28 80 -1 26 16 35 18 39 7 3 -7 6 -85 7 -173 l3 -160
1323 0 1322 0 0 332 0 333 -1325 0 -1325 0 0 -70z m2630 -262 l0 -313 -1302 0
-1303 1 -3 161 c-3 188 -6 196 -72 163 -58 -30 -70 -17 -70 74 0 120 10 134
71 97 52 -32 69 -15 69 64 l0 65 1305 0 1305 0 0 -312z"/>
<path d="M5350 1330 c0 -75 -5 -81 -50 -55 -67 38 -90 10 -90 -113 0 -114 29
-146 94 -103 17 11 33 18 38 15 4 -3 8 -41 8 -85 l0 -79 263 2 262 3 2 243 3
242 -265 0 -265 0 0 -70z m506 -167 c0 -120 -3 -220 -7 -223 -4 -3 -112 -5
-241 -5 l-233 0 -5 72 c-7 94 -16 103 -74 72 -25 -13 -48 -20 -53 -16 -10 11
-17 150 -9 182 8 30 25 31 67 6 52 -32 69 -15 69 64 l0 65 243 0 243 0 0 -217z"/>
<path d="M5558 1211 c-5 -56 -2 -61 32 -48 32 12 60 -3 60 -32 0 -38 -41 -53
-71 -25 -22 20 -35 1 -13 -20 19 -19 64 -21 88 -3 24 18 24 76 0 94 -10 8 -31
13 -46 10 -24 -3 -28 0 -28 20 0 20 5 23 39 23 22 0 43 5 46 10 4 6 -15 10
-48 10 l-55 0 -4 -39z"/>
<path d="M6089 1348 c-1 -29 -1 -58 0 -65 3 -21 -18 -24 -48 -8 -68 35 -92 11
-96 -94 -3 -79 12 -134 39 -139 10 -2 36 5 56 17 43 24 48 20 48 -49 0 -25 1
-57 1 -72 l1 -28 260 0 260 0 0 245 0 245 -260 0 -260 0 -1 -52z m502 -120 c1
-226 0 -278 -5 -286 -2 -4 -109 -7 -238 -7 l-233 1 -7 73 c-8 93 -17 103 -68
73 -21 -12 -44 -22 -49 -22 -16 0 -28 59 -25 129 4 82 12 91 67 64 59 -28 70
-19 75 61 l4 66 239 0 239 0 1 -152z"/>
<path d="M6290 1240 c0 -5 20 -10 45 -10 25 0 45 -2 45 -4 0 -2 -11 -23 -24
-47 -31 -58 -41 -109 -21 -109 9 0 15 10 15 24 0 13 14 50 30 81 17 31 30 61
30 66 0 5 -27 9 -60 9 -33 0 -60 -4 -60 -10z"/>
<path d="M4390 1313 c0 -5 41 -9 91 -10 99 -1 129 -15 129 -60 0 -12 4 -23 9
-23 13 0 -5 60 -23 78 -15 15 -206 29 -206 15z"/>
<path d="M4346 1291 c-14 -15 -18 -41 -20 -120 -2 -56 1 -101 6 -101 4 0 8 -7
8 -15 0 -8 9 -19 21 -26 24 -12 188 -17 207 -5 7 4 12 4 12 1 0 -3 6 0 14 7 8
7 12 16 9 21 -2 4 -11 0 -19 -8 -17 -16 -24 -17 -134 -15 -102 2 -114 17 -112
132 2 93 8 118 31 135 9 7 11 13 5 13 -6 0 -19 -9 -28 -19z"/>
<path d="M4839 1268 c-8 -16 -2 -228 6 -229 5 0 20 -2 32 -3 12 -1 28 1 35 6
10 6 8 8 -4 8 -16 0 -18 12 -18 104 0 91 2 105 18 109 9 3 -2 5 -25 6 -24 0
-44 0 -44 -1z m32 -33 c1 -14 1 -54 1 -90 0 -89 -1 -95 -12 -95 -6 0 -10 42
-10 105 0 63 4 105 10 105 6 0 10 -11 11 -25z"/>
<path d="M4973 1263 c20 -5 19 3 21 -111 1 -75 -2 -95 -14 -102 -10 -7 -11
-10 -2 -11 14 -1 48 -2 62 0 6 1 10 47 10 116 l0 115 -47 -1 c-27 -1 -40 -3
-30 -6z m61 -101 c-3 -114 -2 -112 -14 -112 -6 0 -10 42 -10 105 0 80 3 103
13 100 8 -4 12 -31 11 -93z"/>
<path d="M4440 1208 c-18 -16 -24 -38 -10 -38 6 0 10 6 10 14 0 32 64 30 72
-2 12 -50 -26 -73 -67 -40 -28 22 -35 11 -7 -13 15 -13 68 -16 79 -5 8 8 12
63 5 73 -12 19 -65 25 -82 11z"/>
<path d="M4610 1190 c0 -11 4 -20 8 -20 4 0 8 9 9 20 1 11 -2 20 -8 20 -5 0
-9 -9 -9 -20z"/>
<path d="M4610 1109 c0 -29 2 -50 5 -47 10 10 13 88 4 94 -5 3 -9 -18 -9 -47z"/>
<path d="M2820 1330 c0 -40 -4 -70 -10 -70 -6 0 -26 9 -46 19 -20 11 -42 17
-49 15 -24 -9 -34 -53 -32 -137 3 -118 21 -136 97 -97 l40 20 0 -85 0 -85 265
0 265 0 0 245 0 245 -265 0 -265 0 0 -70z m509 -172 l-2 -223 -236 0 c-130 0
-239 4 -242 9 -4 5 -7 36 -8 69 -1 84 -16 99 -72 68 -28 -16 -44 -20 -51 -13
-15 15 -22 101 -14 156 8 52 18 56 73 26 51 -27 64 -13 65 69 l1 61 243 0 244
0 -1 -222z"/>
<path d="M3058 1236 c-10 -7 -18 -19 -18 -26 0 -9 3 -10 13 -1 21 17 27 3 27
-61 0 -55 -1 -58 -25 -58 -14 0 -25 -4 -25 -10 0 -6 27 -10 60 -10 33 0 60 4
60 10 0 6 -11 10 -25 10 -23 0 -25 3 -24 48 2 117 -3 129 -43 98z"/>
<path d="M3445 1285 c-22 -21 -25 -33 -26 -102 -2 -126 6 -156 45 -170 39 -13
429 -10 457 4 36 17 45 51 44 157 -1 84 -3 90 -29 112 -27 24 -30 24 -247 24
l-220 0 -24 -25z m479 -11 c19 -19 18 -10 20 -118 3 -137 15 -131 -253 -131
-189 0 -223 2 -236 16 -13 13 -16 38 -17 113 0 143 -14 136 253 136 184 0 220
-2 233 -16z"/>
<path d="M3580 1204 c0 -8 5 -12 10 -9 6 3 10 10 10 16 0 5 -4 9 -10 9 -5 0
-10 -7 -10 -16z"/>
<path d="M3525 1160 c-4 -6 20 -10 65 -10 45 0 69 4 65 10 -3 6 -33 10 -65 10
-32 0 -62 -4 -65 -10z"/>
<path d="M3580 1116 c0 -9 5 -16 10 -16 6 0 10 4 10 9 0 6 -4 13 -10 16 -5 3
-10 -1 -10 -9z"/>
<path d="M7560 1330 c0 -38 -4 -70 -8 -70 -4 0 -26 9 -47 20 l-40 21 -22 -26
c-19 -22 -23 -38 -23 -100 0 -120 22 -152 86 -122 19 9 37 17 42 17 4 0 9 -35
12 -77 l5 -78 263 -3 262 -2 0 245 0 245 -265 0 -265 0 0 -70z m509 -170 c0
-121 -3 -220 -7 -221 -24 -3 -450 -4 -464 -1 -14 3 -17 16 -17 69 1 90 -15
106 -72 74 -30 -17 -44 -20 -52 -12 -13 13 -22 139 -13 176 8 30 24 31 73 5
50 -26 62 -13 64 68 l2 62 243 0 243 0 0 -220z"/>
<path d="M7794 1242 c-45 -30 -40 -152 8 -168 35 -11 65 4 77 37 26 74 0 139
-54 139 -11 0 -25 -4 -31 -8z m56 -27 c17 -21 15 -95 -5 -114 -26 -26 -49 -2
-53 53 -4 66 27 98 58 61z"/>
<path d="M8684 1341 c4 -78 -4 -91 -43 -68 -46 27 -70 22 -87 -18 -28 -69 -9
-206 30 -213 10 -2 36 6 57 18 l39 21 1 -23 c0 -13 1 -51 2 -85 l0 -63 374 0
373 0 0 245 0 245 -375 0 -375 0 4 -59z m724 -183 l-3 -222 -343 0 c-218 -1
-346 3 -351 9 -4 6 -7 30 -6 55 2 50 -12 100 -26 100 -6 0 -28 -10 -49 -22
-55 -32 -65 -19 -65 87 0 106 8 117 70 87 44 -21 44 -21 58 -1 9 12 14 41 13
74 l-2 55 353 0 353 0 -2 -222z"/>
<path d="M8905 1230 c-25 -28 -26 -112 -1 -139 25 -28 71 -27 90 1 23 33 21
113 -4 138 -25 25 -62 26 -85 0z m75 -25 c10 -25 7 -86 -5 -105 -10 -17 -44
-11 -55 9 -24 46 -5 121 31 121 12 0 23 -10 29 -25z"/>
<path d="M9137 1232 c-19 -21 -24 -43 -5 -24 22 22 28 12 28 -53 0 -58 -2 -65
-19 -65 -11 0 -23 -4 -26 -10 -4 -6 17 -10 54 -10 59 0 85 15 39 22 -21 3 -23
8 -23 78 0 59 -3 75 -16 78 -8 1 -23 -6 -32 -16z"/>
<path d="M9047 1093 c-12 -11 -8 -23 8 -23 8 0 15 7 15 15 0 16 -12 20 -23 8z"/>
<path d="M10030 1343 c0 -78 -8 -89 -48 -69 -73 37 -96 10 -96 -109 0 -122 27
-150 99 -105 l33 20 6 -22 c3 -13 6 -51 6 -85 l0 -63 260 0 260 0 1 38 c0 51
1 424 0 440 -1 9 -60 12 -261 12 l-260 0 0 -57z m498 -185 l-3 -222 -228 -1
c-126 0 -232 2 -237 5 -4 3 -10 36 -12 73 -7 90 -16 98 -73 67 -56 -31 -65
-23 -67 61 -3 134 6 147 71 111 56 -32 69 -17 70 81 l1 47 240 0 240 0 -2
-222z"/>
<path d="M10246 1228 c-23 -33 -21 -113 4 -138 28 -28 66 -26 86 5 21 33 21
111 -2 136 -24 26 -69 25 -88 -3z m78 -30 c15 -42 -3 -102 -31 -106 -17 -3
-26 3 -33 23 -21 56 -3 118 32 113 14 -2 26 -14 32 -30z"/>
<path d="M7200 1241 c0 -11 -11 -31 -25 -45 -16 -16 -25 -36 -25 -56 0 -20 9
-39 25 -54 14 -13 25 -33 25 -45 0 -14 5 -21 13 -18 6 2 11 13 9 25 -2 13 4
23 18 27 51 16 44 135 -7 135 -9 0 -13 8 -11 22 2 11 -3 23 -9 25 -8 3 -13 -4
-13 -16z m-4 -139 c-17 -17 -27 46 -12 73 10 18 11 15 14 -24 2 -23 1 -46 -2
-49z m54 45 c0 -34 -14 -65 -23 -51 -3 7 -2 78 2 92 1 2 6 0 11 -3 6 -3 10
-21 10 -38z"/>
<path d="M1782 1207 c-6 -6 -13 -24 -17 -40 -10 -38 10 -35 24 5 13 37 23 30
41 -27 15 -47 27 -65 46 -65 18 0 47 58 39 78 -5 13 -11 7 -24 -23 l-19 -40
-11 28 c-6 16 -11 32 -11 37 0 5 -5 21 -12 35 -12 27 -39 33 -56 12z"/>
<path d="M9669 1215 c-1 -5 -3 -14 -4 -20 -2 -5 -3 -16 -4 -22 0 -7 -12 -13
-26 -13 -34 0 -32 -18 3 -22 22 -2 26 -7 24 -25 -2 -13 2 -23 7 -23 10 0 16
21 12 43 0 4 13 7 29 7 17 0 30 5 30 10 0 6 -13 10 -29 10 -24 0 -29 4 -26 18
2 10 -1 25 -6 33 -5 8 -9 10 -10 4z"/>
<path d="M2130 1208 c2 -26 52 -134 63 -136 9 -2 23 14 36 41 25 52 28 97 5
97 -11 0 -13 -6 -9 -19 5 -18 -18 -91 -29 -91 -3 0 -13 25 -22 55 -10 30 -24
55 -31 55 -7 0 -13 -1 -13 -2z"/>
<path d="M8280 1201 c0 -5 7 -14 15 -21 20 -17 19 -29 -5 -50 -12 -11 -17 -21
-11 -24 5 -4 19 3 30 16 l21 22 23 -22 c30 -28 44 -16 17 13 l-20 22 20 23
c11 13 20 25 20 27 0 9 -18 1 -37 -16 -21 -20 -21 -20 -39 0 -18 20 -34 25
-34 10z"/>
<path d="M1759 489 c-18 -18 -21 -30 -17 -77 5 -59 23 -82 63 -82 37 0 60 36
59 91 -1 80 -57 116 -105 68z m69 -11 c17 -17 15 -103 -3 -118 -18 -15 -55 -4
-56 18 -8 92 20 139 59 100z"/>
</g>
</svg>
