<?xml version="1.0" standalone="no"?>
<!DOCTYPE svg PUBLIC "-//W3C//DTD SVG 20010904//EN"
 "http://www.w3.org/TR/2001/REC-SVG-20010904/DTD/svg10.dtd">
<svg version="1.0" xmlns="http://www.w3.org/2000/svg"
 width="1330.000000pt" height="511.000000pt" viewBox="0 0 1330.000000 511.000000"
 preserveAspectRatio="xMidYMid meet">
<metadata>
Created by potrace 1.16, written by Peter Selinger 2001-2019
</metadata>
<g transform="translate(0.000000,511.000000) scale(0.100000,-0.100000)"
fill="#000000" stroke="none">
<path d="M351 4824 c-24 -7 -61 -29 -82 -50 -75 -73 -69 109 -69 -2245 0
-1198 4 -2130 9 -2152 12 -49 58 -117 80 -117 6 0 11 -4 11 -8 0 -5 19 -16 42
-25 38 -15 165 -17 1390 -17 l1348 0 0 340 0 340 159 0 159 0 0 355 0 355
-159 0 -159 0 0 325 0 325 4950 0 4950 0 0 148 c1 134 0 597 0 945 l0 137
-5319 0 -5318 0 1 323 1 322 1644 2 c904 1 1646 5 1650 8 3 4 6 164 6 356 l1
349 -2325 0 -2325 0 -80 -52 c-107 -71 -126 -71 -231 -1 l-82 54 -104 -2 c-57
-1 -124 -7 -148 -15z m325 -65 c109 -73 135 -74 241 -3 l83 54 2310 0 2310 0
0 -325 0 -325 -2315 0 -2314 0 -77 -52 c-104 -70 -125 -71 -225 -1 l-76 53
-194 2 -194 3 1 230 c0 127 4 247 8 268 8 45 66 113 110 131 18 8 78 14 143
15 l113 2 76 -52z m2 -680 c105 -70 131 -70 240 -2 l83 53 124 0 125 0 0 -77
c0 -108 -7 -115 -69 -80 -108 60 -136 27 -136 -158 0 -100 3 -126 18 -148 28
-43 45 -44 110 -8 48 27 61 30 68 20 5 -8 9 -785 9 -1727 l0 -1712 -435 0
c-304 1 -444 4 -463 12 -42 18 -100 78 -114 117 -9 28 -12 460 -13 1891 -1
1020 0 1858 2 1863 2 4 88 7 190 7 l185 0 76 -51z m1637 -344 c0 -214 -2 -407
-4 -427 -4 -44 -19 -48 -62 -17 -100 71 -141 26 -141 -154 0 -115 16 -171 51
-182 15 -4 41 4 82 25 34 17 63 29 66 26 10 -10 7 -926 -3 -936 -6 -6 -27 2
-54 20 -98 66 -142 19 -143 -148 -1 -185 36 -224 147 -155 26 17 42 21 49 14
11 -11 14 -397 3 -409 -4 -4 -30 5 -57 21 -61 34 -101 35 -118 4 -27 -51 -33
-224 -10 -294 19 -60 56 -64 133 -16 26 17 42 21 49 14 11 -11 13 -398 2 -409
-4 -4 -32 7 -63 24 -31 17 -65 30 -75 28 -42 -6 -61 -69 -60 -199 0 -93 17
-153 48 -167 24 -11 37 -7 112 38 17 10 34 16 38 13 5 -6 9 -134 6 -191 -1
-17 -33 -18 -516 -18 l-515 0 0 48 c-1 26 -1 792 -1 1702 -1 910 -3 1668 -6
1683 -9 48 -36 52 -103 15 -57 -31 -61 -32 -77 -15 -15 15 -18 38 -19 135 -3
165 12 187 92 141 28 -16 61 -29 72 -29 28 0 40 42 38 134 l-1 76 520 -2 520
-3 0 -390z m10639 -870 l0 -580 -5306 -3 -5306 -2 0 362 c-1 353 -1 362 -22
382 l-21 21 -59 -32 c-32 -18 -64 -33 -70 -33 -42 0 -49 286 -7 312 7 4 35 -6
64 -22 94 -53 113 -37 114 101 l1 79 5306 -2 5306 -3 0 -580z m-9904 -940 l0
-325 -356 0 -356 0 2 33 c6 100 -1 166 -18 187 l-19 23 -66 -34 c-43 -21 -70
-30 -76 -24 -31 31 -35 246 -7 290 18 27 30 26 86 -12 42 -28 76 -30 89 -4 6
10 11 57 12 105 l2 86 353 0 354 0 0 -325z m320 -680 l0 -325 -514 0 -514 0
-2 93 c-1 50 -2 98 -2 104 -1 7 -10 21 -20 30 -18 17 -22 16 -83 -17 -42 -23
-68 -31 -74 -25 -31 31 -36 246 -6 291 l16 25 54 -30 c96 -55 113 -40 116 99
l2 80 513 0 514 0 0 -325z m-320 -680 l0 -325 -354 0 -354 0 -1 90 c-1 156
-15 172 -107 119 -49 -28 -58 -30 -71 -17 -20 21 -29 71 -28 153 2 90 12 142
29 148 8 3 38 -7 67 -23 30 -16 62 -29 72 -30 25 0 37 40 38 131 l1 79 354 0
354 0 0 -325z"/>
<path d="M3080 4490 c0 -130 1 -141 18 -138 9 2 16 10 14 17 -2 9 4 8 20 -3
61 -43 118 0 118 89 0 69 -28 109 -74 102 -17 -2 -38 -7 -47 -11 -12 -5 -15 1
-15 36 1 33 -3 43 -16 46 -17 3 -18 -9 -18 -138z m127 13 c11 -32 11 -68 -1
-100 -9 -27 -56 -32 -76 -8 -15 19 -15 102 1 121 6 8 24 14 39 14 22 0 30 -6
37 -27z"/>
<path d="M3509 4628 c-1 -2 -2 -65 -3 -140 -1 -126 0 -138 16 -138 16 0 18 13
18 140 0 118 -2 140 -15 140 -8 0 -16 -1 -16 -2z"/>
<path d="M4480 4615 c0 -8 9 -15 20 -15 11 0 20 7 20 15 0 8 -9 15 -20 15 -11
0 -20 -7 -20 -15z"/>
<path d="M5100 4579 c0 -46 -1 -49 -16 -35 -18 18 -56 21 -84 6 -22 -12 -42
-76 -36 -111 3 -13 5 -30 5 -36 3 -41 80 -69 110 -40 11 10 14 10 18 0 3 -7
12 -13 21 -13 15 0 17 16 17 140 0 127 -1 140 -17 140 -15 0 -18 -9 -18 -51z
m-10 -68 c13 -25 13 -72 0 -105 -7 -20 -17 -26 -39 -26 -36 0 -51 23 -51 75 0
52 15 75 50 75 19 0 33 -7 40 -19z"/>
<path d="M495 4608 c-13 -38 -8 -78 9 -78 11 0 14 12 13 45 -2 43 -13 59 -22
33z"/>
<path d="M556 4604 c-3 -9 -6 -29 -6 -46 0 -22 4 -29 17 -26 17 3 28 38 11 38
-6 0 -8 11 -4 25 7 27 -8 35 -18 9z"/>
<path d="M893 4485 c0 -118 3 -135 16 -133 13 3 16 21 16 111 0 59 1 107 2
107 1 0 32 -49 70 -110 54 -88 72 -110 90 -110 23 0 23 1 23 136 0 124 -2 135
-17 132 -16 -3 -18 -16 -18 -111 1 -124 6 -125 -82 21 -44 72 -60 92 -78 92
-22 0 -23 -1 -22 -135z"/>
<path d="M2370 4613 c-50 -20 -66 -75 -31 -107 10 -10 42 -23 71 -31 55 -15
80 -30 80 -51 0 -44 -93 -61 -130 -24 -23 23 -50 26 -50 7 0 -32 41 -52 107
-52 58 0 67 3 88 27 43 50 14 99 -68 118 -49 12 -87 34 -87 51 0 38 89 52 125
19 29 -28 53 -12 27 20 -14 17 -31 23 -68 26 -27 2 -56 1 -64 -3z"/>
<path d="M4000 4516 c0 -94 2 -108 23 -131 27 -31 92 -44 136 -25 44 18 58 58
60 166 2 89 1 94 -19 94 -19 0 -20 -6 -20 -100 0 -87 -3 -103 -20 -120 -25
-25 -71 -26 -101 -2 -21 17 -22 27 -23 120 0 92 -2 102 -18 102 -16 0 -18 -10
-18 -104z"/>
<path d="M1193 4550 c-13 -5 -23 -16 -23 -24 0 -19 27 -28 34 -10 8 21 63 18
76 -5 15 -29 14 -31 -34 -31 -51 0 -84 -22 -91 -62 -11 -57 67 -90 112 -49 21
20 21 20 26 0 6 -23 57 -27 57 -4 0 8 -7 15 -15 15 -12 0 -15 14 -15 70 0 57
-4 74 -20 90 -21 21 -68 25 -107 10z m93 -112 c6 -41 -50 -77 -82 -53 -21 15
-12 62 14 67 36 8 65 2 68 -14z"/>
<path d="M1380 4454 c0 -93 2 -105 17 -102 13 2 16 14 15 58 -2 78 13 120 43
120 33 0 42 -23 40 -107 -1 -64 1 -73 17 -73 16 0 18 9 18 73 0 83 13 111 51
105 23 -3 24 -6 27 -91 2 -77 5 -88 20 -85 14 3 17 16 18 81 0 42 -4 87 -10
99 -14 28 -59 35 -91 14 -20 -13 -25 -13 -35 -1 -16 19 -50 19 -78 -1 -20 -14
-22 -14 -22 0 0 9 -7 16 -15 16 -12 0 -15 -18 -15 -106z"/>
<path d="M1720 4542 c-44 -35 -43 -139 2 -176 29 -23 105 -17 125 10 17 24 -5
39 -28 18 -24 -21 -65 -17 -83 8 -28 40 -21 47 57 50 l72 3 -3 30 c-6 63 -92
98 -142 57z m101 -34 c13 -25 9 -29 -33 -30 -68 -1 -69 0 -56 27 17 38 69 40
89 3z"/>
<path d="M1920 4540 c-40 -40 -20 -74 62 -100 46 -14 55 -27 35 -47 -20 -20
-63 -20 -85 0 -11 10 -23 13 -31 8 -23 -14 27 -51 68 -51 106 1 126 92 27 120
-49 13 -69 29 -58 46 13 19 39 22 68 8 41 -22 60 -14 34 14 -27 29 -92 30
-120 2z"/>
<path d="M2581 4463 c21 -54 39 -105 39 -114 0 -18 -25 -42 -54 -53 -14 -5
-16 -10 -8 -18 18 -18 61 0 78 34 26 50 95 240 90 245 -14 15 -33 -12 -55 -76
-13 -39 -27 -71 -30 -71 -3 0 -18 33 -32 73 -20 55 -31 73 -47 75 -19 3 -18
-3 19 -95z"/>
<path d="M2760 4455 c0 -93 2 -105 18 -105 15 0 17 10 18 74 0 81 12 106 49
106 28 0 35 -22 35 -112 0 -54 3 -68 15 -68 12 0 15 14 15 65 0 78 15 115 46
115 32 0 37 -13 38 -99 1 -63 4 -76 19 -79 15 -3 17 7 17 86 0 73 -3 92 -18
105 -24 21 -60 22 -83 1 -17 -15 -19 -15 -34 0 -19 19 -48 21 -78 5 -16 -9
-22 -9 -25 0 -2 6 -10 11 -18 11 -11 0 -14 -21 -14 -105z"/>
<path d="M3313 4536 c-25 -21 -28 -30 -27 -82 1 -50 5 -61 28 -81 37 -31 89
-31 121 2 23 22 29 40 28 90 -1 40 -3 46 -28 70 -32 33 -84 33 -122 1z m111
-40 c15 -57 -3 -112 -41 -119 -70 -13 -91 134 -23 155 23 7 58 -12 64 -36z"/>
<path d="M3607 4548 c-45 -33 -19 -91 47 -103 40 -8 61 -28 52 -50 -7 -19 -84
-21 -92 -2 -6 17 -34 18 -34 1 0 -21 42 -44 80 -44 48 0 80 24 80 59 0 35 -15
48 -71 64 -32 9 -44 18 -44 32 0 26 50 39 70 18 8 -8 23 -13 32 -11 16 3 15 6
-5 26 -25 25 -87 30 -115 10z"/>
<path d="M4270 4455 c0 -94 2 -105 18 -105 15 0 17 9 17 71 -1 82 13 109 54
109 36 0 41 -13 41 -106 0 -64 2 -74 18 -74 15 0 17 10 15 77 -2 105 -1 100
-19 117 -20 20 -63 20 -92 0 -20 -14 -22 -14 -22 0 0 9 -7 16 -15 16 -12 0
-15 -18 -15 -105z"/>
<path d="M4482 4455 c1 -91 3 -105 17 -103 13 3 16 20 17 106 1 92 -1 102 -17
102 -16 0 -18 -11 -17 -105z"/>
<path d="M4603 4548 c-38 -18 -53 -100 -29 -159 9 -20 48 -39 82 -39 28 0 79
44 69 60 -7 11 -39 -2 -50 -20 -11 -17 -54 -11 -65 9 -14 27 -13 104 2 119 17
17 53 15 68 -3 16 -19 40 -19 40 -1 0 37 -70 57 -117 34z"/>
<path d="M4779 4531 c-29 -29 -31 -36 -27 -83 4 -40 12 -57 32 -75 26 -22 68
-29 101 -17 43 17 61 132 27 174 -11 13 -33 23 -59 27 -38 5 -45 2 -74 -26z
m110 -34 c22 -58 -15 -131 -59 -120 -29 8 -42 37 -38 91 2 38 8 49 27 59 30
14 58 2 70 -30z"/>
<path d="M5220 4547 c-51 -25 -57 -141 -10 -179 31 -25 91 -23 119 3 18 17 20
23 10 30 -8 5 -20 2 -30 -7 -24 -21 -65 -17 -83 8 -29 42 -22 48 58 48 l74 0
-4 33 c-9 62 -75 94 -134 64z m90 -38 c16 -28 12 -35 -17 -33 -16 1 -40 3 -55
3 -26 1 -27 3 -16 25 17 38 69 41 88 5z"/>
<path d="M2110 4370 c0 -11 4 -20 10 -20 6 0 6 -9 0 -25 -6 -16 -6 -25 0 -25
12 0 30 43 30 71 0 12 -7 19 -20 19 -13 0 -20 -7 -20 -20z"/>
<path d="M3790 4371 c0 -11 5 -21 11 -23 9 -3 9 -10 0 -26 -10 -18 -9 -22 3
-22 17 0 26 21 26 61 0 22 -5 29 -20 29 -13 0 -20 -7 -20 -19z"/>
<path d="M512 2170 c0 -60 2 -110 6 -110 4 0 58 21 120 46 82 34 112 52 112
64 0 13 -30 30 -111 64 -61 25 -115 46 -119 46 -4 0 -7 -49 -8 -110z m113 33
c36 -15 65 -30 65 -33 0 -6 -127 -60 -140 -60 -3 0 -5 27 -5 60 0 33 3 60 7
60 4 0 37 -12 73 -27z"/>
<path d="M1678 3818 l-3 -123 -54 0 c-35 0 -56 -5 -58 -12 -6 -16 252 -19 262
-3 6 10 4 11 -55 15 -19 1 -42 3 -51 4 -13 1 -15 18 -14 109 1 111 -1 132 -16
132 -5 0 -10 -55 -11 -122z"/>
<path d="M1531 2928 c0 -7 15 -53 33 -103 39 -108 55 -115 100 -41 35 56 44
148 16 154 -13 2 -16 -7 -16 -45 0 -45 -27 -123 -43 -123 -4 0 -19 37 -32 82
-17 58 -29 84 -42 86 -9 2 -17 -2 -16 -10z"/>
<path d="M1615 2035 c2 -30 -2 -38 -20 -45 -33 -13 -55 -49 -55 -92 0 -49 16
-81 50 -102 23 -13 28 -23 27 -48 -2 -25 3 -33 17 -36 16 -3 18 1 14 37 -3 35
-1 41 19 46 33 8 57 50 56 100 -1 53 -17 83 -48 91 -19 5 -25 13 -27 42 -2 24
-9 38 -19 40 -12 2 -15 -5 -14 -33z m75 -135 c0 -39 -18 -82 -31 -78 -10 3
-15 74 -10 138 3 27 41 -30 41 -60z m-74 -10 c0 -38 -3 -70 -7 -70 -17 0 -32
35 -31 75 0 48 7 65 25 65 9 0 13 -22 13 -70z"/>
<path d="M1556 1313 c-3 -4 8 -22 26 -40 l32 -33 -33 -34 c-43 -45 -22 -61 23
-17 l32 31 29 -30 c27 -28 55 -40 55 -23 0 4 -14 22 -32 40 l-32 33 32 33 c18
18 32 36 32 40 0 16 -26 5 -56 -24 l-31 -30 -26 30 c-26 31 -38 37 -51 24z"/>
<path d="M1620 610 l0 -40 -41 0 c-52 0 -48 -24 4 -28 36 -3 37 -4 37 -43 0
-28 4 -39 15 -39 11 0 15 11 15 40 l0 40 40 0 c29 0 40 4 40 15 0 11 -11 15
-40 15 l-40 0 0 40 c0 29 -4 40 -15 40 -11 0 -15 -11 -15 -40z"/>
<path d="M2730 3250 c0 -117 -7 -125 -69 -86 -100 63 -135 21 -135 -159 0
-115 11 -157 47 -179 14 -9 30 -4 78 22 33 18 65 30 70 27 5 -4 9 -111 9 -251
l0 -244 4065 0 4065 0 0 485 0 485 -4065 0 -4065 0 0 -100z m8100 -385 l0
-455 -4035 0 -4035 0 0 223 c0 287 -9 309 -106 248 -57 -37 -69 -38 -85 -8
-15 27 -21 188 -9 241 12 55 26 60 86 25 28 -16 60 -29 71 -29 29 0 43 41 43
130 l0 80 4035 0 4035 0 0 -455z"/>
<path d="M4181 3153 c3 -161 1 -164 -70 -117 -90 59 -133 9 -133 -156 0 -185
35 -222 146 -153 23 15 42 21 47 16 5 -5 10 -60 11 -121 l1 -112 544 0 543 0
0 355 0 355 -545 0 -544 0 0 -67z m1059 -288 l0 -325 -515 0 -515 0 0 102 c0
80 -3 105 -17 120 -21 24 -27 23 -85 -12 -61 -38 -72 -38 -89 2 -20 49 -18
228 4 261 19 29 30 28 87 -10 42 -28 76 -30 90 -4 5 11 10 58 10 105 l0 86
515 0 515 0 0 -325z"/>
<path d="M4519 2987 c-28 -21 -41 -57 -42 -116 -2 -95 30 -141 99 -141 27 0
73 42 75 69 1 9 3 27 5 41 6 50 -9 114 -32 137 -26 25 -78 31 -105 10z m85
-39 c10 -14 16 -44 16 -83 0 -70 -19 -105 -55 -105 -40 0 -58 39 -53 114 2 35
10 71 17 80 19 23 57 20 75 -6z"/>
<path d="M4842 2974 c-37 -29 -34 -54 4 -30 13 9 25 16 27 16 2 0 3 -45 3
-100 l0 -100 -33 0 c-23 0 -33 -5 -33 -15 0 -13 14 -15 83 -13 81 3 114 20 50
26 l-33 3 0 120 c0 134 -5 142 -68 93z"/>
<path d="M4706 2762 c-8 -13 10 -35 24 -30 21 7 21 38 0 38 -10 0 -21 -4 -24
-8z"/>
<path d="M6130 3120 c0 -117 -8 -127 -70 -86 -72 47 -112 29 -129 -60 -12 -64
-6 -207 11 -241 24 -49 42 -51 109 -15 33 18 65 30 70 27 5 -4 9 -58 9 -121
l0 -114 385 0 385 0 0 355 0 355 -385 0 -385 0 0 -100z m740 -255 l0 -325
-355 0 -355 0 0 99 c0 82 -3 103 -19 122 l-19 23 -61 -32 c-71 -37 -77 -38
-90 -14 -28 52 -23 259 6 288 13 13 21 11 69 -16 96 -54 114 -37 114 101 l0
79 355 0 355 0 0 -325z"/>
<path d="M6473 2990 c-31 -12 -45 -45 -48 -108 -5 -100 25 -152 89 -152 60 1
89 45 89 136 -1 109 -50 156 -130 124z m81 -42 c19 -27 21 -122 3 -158 -8 -15
-23 -26 -39 -28 -39 -5 -58 29 -58 103 0 70 19 105 55 105 13 0 31 -10 39 -22z"/>
<path d="M7770 3123 c0 -54 -4 -104 -8 -110 -6 -10 -20 -5 -55 17 -108 68
-142 31 -142 -155 0 -100 3 -126 18 -148 28 -43 45 -44 110 -8 48 27 61 30 68
20 5 -8 9 -62 9 -121 l0 -108 490 0 490 0 0 355 0 355 -490 0 -490 0 0 -97z
m950 -258 l0 -325 -460 0 -460 0 0 79 c0 159 -15 177 -109 129 -57 -29 -63
-30 -78 -16 -30 31 -30 251 0 292 11 15 17 14 70 -14 71 -38 91 -38 106 -2 7
16 11 33 10 38 -1 5 -1 39 0 77 l1 67 460 0 460 0 0 -325z"/>
<path d="M8113 2979 c-18 -12 -33 -27 -33 -35 0 -18 5 -18 35 2 l25 16 0 -100
0 -101 -32 -3 c-17 -2 -33 -9 -36 -15 -3 -10 18 -13 82 -13 70 0 86 3 86 15 0
10 -10 15 -29 15 -16 0 -31 6 -33 13 -2 6 -4 60 -3 120 1 120 -2 124 -62 86z"/>
<path d="M8289 2983 c-1 -10 -3 -42 -5 -72 l-5 -53 28 7 c62 15 86 11 102 -17
14 -25 14 -31 1 -55 -20 -37 -73 -44 -92 -14 -16 26 -38 27 -38 2 0 -24 19
-39 58 -47 69 -14 114 23 114 93 0 61 -67 103 -120 74 -15 -8 -17 -4 -14 30
l4 39 59 0 c46 0 59 3 59 15 0 12 -15 15 -75 15 -64 0 -75 -2 -76 -17z"/>
<path d="M9620 3120 c0 -117 -8 -127 -70 -86 -56 37 -95 35 -117 -6 -23 -44
-26 -248 -3 -292 27 -52 44 -55 112 -18 48 26 63 30 69 20 5 -7 9 -61 9 -120
l0 -108 490 0 490 0 0 355 0 355 -490 0 -490 0 0 -100z m950 -255 l0 -325
-460 0 -460 0 0 85 c0 87 -18 155 -41 155 -6 0 -36 -14 -66 -31 -29 -17 -60
-28 -68 -25 -44 16 -47 280 -4 307 8 5 33 -4 65 -22 28 -16 60 -29 71 -29 29
0 43 41 43 130 l0 80 460 0 460 0 0 -325z"/>
<path d="M9975 2984 c-11 -8 -26 -19 -34 -23 -8 -5 -11 -14 -6 -20 5 -9 13 -8
31 4 13 8 24 12 25 8 1 -11 1 -165 0 -180 -1 -8 -14 -13 -31 -13 -20 0 -30 -5
-30 -15 0 -12 16 -15 80 -15 64 0 80 3 80 15 0 10 -10 15 -30 15 l-30 0 0 120
c0 108 -2 120 -17 120 -10 0 -27 -8 -38 -16z"/>
<path d="M10177 2993 c-30 -8 -54 -75 -51 -138 4 -73 28 -113 72 -121 66 -13
104 29 108 120 6 114 -39 162 -129 139z m75 -40 c24 -22 26 -138 2 -171 -21
-31 -64 -26 -82 8 -16 31 -11 142 7 164 17 21 50 20 73 -1z"/>
<path d="M5608 3005 c-3 -3 -4 -19 -2 -36 3 -24 -1 -31 -20 -39 -34 -13 -56
-49 -56 -93 0 -50 24 -95 55 -103 22 -5 24 -11 22 -45 -3 -33 0 -39 16 -39 14
0 18 7 17 28 -3 44 -1 50 20 57 69 22 73 174 6 191 -27 6 -29 11 -26 57 1 25
-16 37 -32 22z m69 -183 c-4 -41 -21 -72 -31 -61 -5 5 -10 121 -7 144 1 6 11
-1 22 -15 17 -19 20 -34 16 -68z m-71 8 c0 -70 -4 -81 -24 -57 -25 30 -16 127
12 127 8 0 12 -23 12 -70z"/>
<path d="M3078 2923 c-8 -16 -19 -43 -23 -60 -10 -50 17 -42 35 9 25 70 40 60
69 -49 14 -51 36 -75 65 -71 33 5 79 113 48 113 -8 0 -20 -17 -27 -38 -7 -21
-16 -41 -19 -45 -11 -11 -27 15 -41 67 -26 100 -73 132 -107 74z"/>
<path d="M7290 2915 l-34 -35 -32 31 c-45 44 -66 28 -23 -17 l33 -34 -32 -33
c-19 -20 -28 -37 -24 -45 6 -8 18 -2 42 23 l34 35 32 -31 c45 -44 66 -28 23
17 l-33 34 32 33 c19 20 28 37 24 45 -6 8 -18 2 -42 -23z"/>
<path d="M9090 2911 c0 -38 -1 -40 -35 -43 -20 -2 -35 -7 -35 -13 0 -5 15 -11
35 -13 34 -3 35 -5 35 -43 0 -28 4 -39 15 -39 11 0 15 11 15 40 l0 40 40 0
c29 0 40 4 40 15 0 11 -11 15 -40 15 l-40 0 0 40 c0 29 -4 40 -15 40 -11 0
-15 -11 -15 -39z"/>
<path d="M3593 2928 c3 -7 20 -55 37 -106 27 -80 35 -93 52 -90 55 8 114 208
62 208 -10 0 -14 -13 -14 -46 0 -43 -22 -108 -41 -119 -4 -3 -20 33 -35 80
-22 67 -32 85 -47 85 -11 0 -17 -5 -14 -12z"/>
<path d="M11959 3213 c0 -5 -1 -50 -3 -100 -1 -51 -6 -97 -12 -103 -6 -6 -25
1 -54 20 -57 38 -94 39 -117 3 -15 -23 -18 -50 -18 -159 0 -126 1 -134 24
-158 14 -14 30 -26 36 -26 7 0 38 14 70 31 31 17 60 28 63 25 3 -4 7 -52 8
-109 1 -56 3 -108 3 -114 1 -10 84 -13 381 -13 l380 0 0 355 0 355 -380 0
c-209 0 -380 -3 -381 -7z m731 -33 c1 -5 1 -138 1 -295 0 -157 0 -298 -1 -315
l0 -30 -353 0 -353 0 -1 73 c-1 121 -2 135 -19 152 -19 18 -43 13 -94 -21 -44
-30 -56 -30 -76 1 -29 45 -19 268 14 289 5 3 33 -8 63 -24 94 -51 110 -39 114
87 2 49 3 89 4 91 3 8 701 1 701 -8z"/>
<path d="M12283 2976 c-27 -23 -28 -28 -28 -111 0 -83 1 -88 28 -111 71 -61
147 -4 147 111 0 115 -76 172 -147 111z m85 -14 c27 -17 35 -98 17 -169 -6
-24 -44 -40 -69 -30 -38 15 -44 176 -8 197 21 12 43 12 60 2z"/>
<path d="M11031 3074 c-57 -24 -71 -63 -71 -202 0 -141 12 -181 62 -212 31
-19 50 -20 308 -20 258 0 277 1 308 20 49 30 60 67 60 211 0 144 -12 180 -71
203 -45 19 -552 18 -596 0z m610 -43 l29 -29 0 -137 0 -137 -29 -29 -29 -29
-282 0 -282 0 -29 29 -29 29 0 137 0 137 29 29 29 29 282 0 282 0 29 -29z"/>
<path d="M11140 2849 c0 -157 1 -170 17 -167 16 3 18 19 18 151 0 118 3 150
15 157 8 5 18 6 22 4 4 -3 8 2 8 10 0 12 -10 16 -40 16 l-40 0 0 -171z"/>
<path d="M2657 2053 c-48 -12 -68 -153 -32 -222 27 -54 118 -52 147 4 17 31
19 133 3 171 -20 48 -57 63 -118 47z m77 -42 c23 -26 24 -133 1 -168 -21 -32
-64 -28 -83 7 -16 31 -11 142 7 164 18 22 54 20 75 -3z"/>
<path d="M2659 1373 c-44 -11 -69 -136 -42 -206 37 -92 153 -67 168 36 18 128
-31 196 -126 170z m75 -42 c23 -25 24 -132 1 -167 -21 -33 -64 -30 -83 6 -16
31 -11 142 7 164 18 21 54 20 75 -3z"/>
<path d="M2978 1359 c-16 -11 -28 -28 -28 -36 0 -14 3 -13 25 1 13 9 26 16 27
16 2 0 4 -45 4 -100 l0 -100 -33 0 c-23 0 -33 -5 -33 -15 0 -12 16 -15 85 -15
71 0 83 2 79 15 -4 9 -19 15 -35 15 l-29 0 0 120 c0 108 -2 120 -17 120 -10 0
-30 -10 -45 -21z"/>
<path d="M2837 1130 c-4 -17 -1 -21 16 -18 25 3 30 31 6 36 -10 2 -19 -6 -22
-18z"/>
<path d="M2647 685 c-45 -33 -56 -165 -19 -215 38 -50 105 -52 137 -3 39 59
24 197 -23 222 -28 15 -73 13 -95 -4z m87 -34 c23 -26 24 -133 1 -168 -21 -32
-64 -28 -83 7 -16 31 -11 142 7 164 18 22 54 20 75 -3z"/>
<path d="M9757 4483 c-10 -9 -9 -23 1 -23 5 0 9 7 9 15 0 17 -1 18 -10 8z"/>
<path d="M2715 3670 c-3 -5 -1 -10 4 -10 6 0 11 5 11 10 0 6 -2 10 -4 10 -3 0
-8 -4 -11 -10z"/>
<path d="M4315 3670 c-3 -5 -1 -10 4 -10 6 0 11 5 11 10 0 6 -2 10 -4 10 -3 0
-8 -4 -11 -10z"/>
<path d="M4955 3670 c-3 -5 -1 -10 4 -10 6 0 11 5 11 10 0 6 -2 10 -4 10 -3 0
-8 -4 -11 -10z"/>
<path d="M5915 3670 c-3 -5 -1 -10 4 -10 6 0 11 5 11 10 0 6 -2 10 -4 10 -3 0
-8 -4 -11 -10z"/>
<path d="M7195 3670 c-3 -5 -1 -10 4 -10 6 0 11 5 11 10 0 6 -2 10 -4 10 -3 0
-8 -4 -11 -10z"/>
<path d="M8155 3670 c-3 -5 -1 -10 4 -10 6 0 11 5 11 10 0 6 -2 10 -4 10 -3 0
-8 -4 -11 -10z"/>
<path d="M8795 3670 c-3 -5 -1 -10 4 -10 6 0 11 5 11 10 0 6 -2 10 -4 10 -3 0
-8 -4 -11 -10z"/>
<path d="M10395 3670 c-3 -5 -1 -10 4 -10 6 0 11 5 11 10 0 6 -2 10 -4 10 -3
0 -8 -4 -11 -10z"/>
<path d="M11995 3670 c-3 -5 -1 -10 4 -10 6 0 11 5 11 10 0 6 -2 10 -4 10 -3
0 -8 -4 -11 -10z"/>
<path d="M12635 3670 c-3 -5 -1 -10 4 -10 6 0 11 5 11 10 0 6 -2 10 -4 10 -3
0 -8 -4 -11 -10z"/>
<path d="M6233 1905 c0 -8 4 -12 9 -9 5 3 6 10 3 15 -9 13 -12 11 -12 -6z"/>
<path d="M5746 1112 c-3 -5 1 -9 9 -9 8 0 12 4 9 9 -3 4 -7 8 -9 8 -2 0 -6 -4
-9 -8z"/>
<path d="M9585 1110 c-3 -6 1 -7 9 -4 18 7 21 14 7 14 -6 0 -13 -4 -16 -10z"/>
</g>
</svg>
