<?xml version="1.0" standalone="no"?>
<!DOCTYPE svg PUBLIC "-//W3C//DTD SVG 20010904//EN"
 "http://www.w3.org/TR/2001/REC-SVG-20010904/DTD/svg10.dtd">
<svg version="1.0" xmlns="http://www.w3.org/2000/svg"
 width="1347.000000pt" height="667.000000pt" viewBox="0 0 1347.000000 667.000000"
 preserveAspectRatio="xMidYMid meet">
<metadata>
Created by potrace 1.16, written by Peter Selinger 2001-2019
</metadata>
<g transform="translate(0.000000,667.000000) scale(0.100000,-0.100000)"
fill="#000000" stroke="none">
<path d="M320 6392 c-14 -2 -31 -9 -38 -14 -7 -6 -15 -8 -18 -5 -7 7 -52 -39
-75 -77 -18 -30 -19 -107 -19 -2990 l0 -2958 21 -38 c24 -42 91 -90 129 -91
98 -4 2003 -3 2009 1 5 3 8 122 8 265 l-1 260 385 2 c211 2 651 3 977 3 l592
0 0 265 c0 205 3 265 13 266 6 1 64 1 127 1 l115 1 0 266 0 266 80 0 80 0 1
265 1 265 4034 2 c2219 2 4123 3 4232 3 l197 0 0 484 0 483 -293 -1 -293 -1 0
473 1 472 -4438 0 -4437 0 0 228 c1 125 1 245 0 268 l0 40 -85 -2 c-58 -1 -83
1 -78 9 4 6 1 7 -8 1 -8 -5 -212 -9 -460 -10 l-445 -1 1 251 c0 138 -1 258 -3
267 -3 14 -47 16 -420 15 -229 -1 -425 0 -434 3 -17 3 -18 23 -18 255 l0 252
878 -1 c482 0 884 3 893 7 15 6 16 38 16 280 l-1 273 -1377 0 -1376 -1 -49
-32 c-27 -17 -54 -36 -61 -42 -16 -13 -73 -13 -73 0 0 6 -3 9 -8 8 -4 -2 -32
13 -62 32 -49 31 -61 35 -125 35 -38 0 -81 -2 -95 -3z m225 -62 c79 -52 111
-52 190 0 l60 40 1365 0 1365 0 0 -255 0 -255 -1368 0 -1368 0 -59 -40 c-33
-22 -71 -40 -86 -40 -15 0 -55 18 -90 40 l-64 40 -150 0 -150 0 0 189 c0 197
5 228 43 270 35 38 76 50 167 51 83 0 87 -1 145 -40z m5 -536 c80 -52 105 -52
186 3 58 39 60 40 157 40 l97 1 0 -69 c0 -38 -4 -69 -10 -69 -5 0 -30 10 -55
22 l-45 22 -21 -21 c-17 -17 -22 -37 -26 -104 -9 -149 27 -199 108 -150 19 12
37 21 42 21 4 0 7 -1181 7 -2625 l0 -2626 -349 3 c-337 3 -351 4 -378 24 -15
11 -38 36 -50 54 l-23 33 0 2742 0 2742 147 0 148 0 65 -43z m1187 -290 c-1
-183 -5 -335 -8 -339 -4 -3 -28 5 -53 19 -71 38 -92 21 -102 -82 -8 -76 2
-145 26 -174 l18 -23 55 27 55 27 4 -27 c7 -52 3 -4310 -5 -4318 -4 -4 -25 2
-46 14 -84 48 -106 23 -106 -124 0 -86 3 -105 19 -123 24 -26 39 -26 87 1 21
12 42 19 45 15 4 -4 7 -39 8 -79 l1 -73 -357 -3 -358 -2 -1 2602 c0 1432 -2
2611 -4 2621 -10 53 -40 62 -85 27 -33 -26 -57 -25 -66 3 -12 36 -12 150 0
190 l11 37 53 -25 c66 -31 69 -31 78 -2 11 32 11 32 13 90 l1 54 359 0 360 0
-2 -333z m871 -529 c1 -192 -2 -333 -7 -338 -6 -6 -24 -1 -49 13 -76 43 -103
10 -103 -125 0 -133 30 -170 102 -126 19 12 40 21 47 21 9 0 12 -371 12 -1824
l0 -1823 -425 1 -425 1 -1 2065 c0 1136 -2 2077 -3 2092 -3 50 -20 55 -81 25
l-55 -27 -12 23 c-13 24 -16 155 -5 200 9 32 25 34 69 7 64 -39 84 -22 87 74
1 32 3 62 5 65 2 3 192 6 423 6 l418 -1 3 -329z m1082 -529 c0 -178 -3 -331
-6 -340 -5 -14 -13 -12 -54 11 -27 15 -54 24 -64 20 -22 -9 -37 -50 -38 -111
-3 -104 2 -134 25 -161 l22 -26 49 26 c39 21 51 23 57 13 12 -18 11 -715 0
-723 -6 -3 -25 4 -43 15 -49 30 -83 26 -98 -9 -16 -40 -19 -146 -6 -200 16
-63 33 -70 94 -38 43 22 51 24 56 11 10 -27 7 -712 -4 -719 -5 -3 -27 3 -49
15 -52 26 -67 25 -87 -5 -24 -37 -24 -203 -1 -239 21 -31 41 -33 86 -5 57 35
61 27 61 -135 0 -79 -3 -151 -6 -160 -5 -13 -13 -12 -55 10 -27 15 -56 24 -64
20 -50 -19 -54 -230 -6 -279 16 -17 19 -16 65 8 26 14 52 23 57 20 11 -8 12
-295 0 -313 -6 -10 -18 -8 -55 12 -26 14 -53 23 -61 20 -22 -9 -38 -62 -38
-132 -2 -149 22 -180 103 -138 58 30 60 27 60 -74 l0 -68 -527 2 -528 1 -1
1823 c0 1606 -2 1825 -16 1838 -15 16 -26 13 -91 -23 -22 -11 -32 -12 -40 -4
-16 16 -16 216 -1 231 9 9 25 5 65 -15 50 -26 53 -26 66 -9 13 18 17 47 14
117 l-1 37 530 0 530 0 0 -324z m8870 -667 l0 -459 -4425 0 -4425 0 0 282 c0
247 -2 284 -16 300 -16 17 -19 17 -66 -10 -49 -27 -49 -27 -64 -7 -12 15 -15
42 -12 117 4 120 12 131 67 95 22 -15 47 -27 55 -27 24 0 36 34 36 98 0 32 2
61 5 64 3 3 1995 5 4425 6 l4420 0 0 -459z m588 -946 l2 -461 -4717 2 -4718 1
-5 287 c-4 215 -8 290 -18 300 -10 10 -21 8 -55 -10 -80 -42 -91 -28 -86 112
5 107 15 120 69 88 46 -26 75 -28 84 -6 3 9 6 44 6 78 0 35 2 65 4 67 2 2
2125 4 4718 4 l4713 0 3 -462z m-8473 -486 c6 -2 10 -101 10 -255 l0 -252
-487 0 -488 0 0 78 c0 53 -5 85 -15 98 -15 20 -20 19 -92 -26 -37 -24 -48 -1
-51 108 -3 73 0 102 11 117 15 19 16 19 65 -8 46 -25 52 -26 66 -11 12 11 16
35 16 85 l0 69 323 2 c323 3 623 0 642 -5z m-157 -786 l2 -256 -113 1 c-61 1
-244 2 -404 3 l-293 1 0 79 c0 109 -13 122 -80 84 -68 -38 -75 -29 -75 103 0
127 6 134 77 96 48 -26 49 -27 63 -8 10 13 15 44 15 86 l0 67 404 0 403 0 1
-256z m-262 -280 c8 -1 12 -75 12 -254 l0 -254 -279 0 -279 -1 0 77 c0 51 -5
84 -14 97 -14 19 -15 18 -60 -4 -63 -30 -74 -28 -82 13 -9 52 0 183 14 197 10
10 21 7 57 -12 64 -35 79 -23 83 66 2 38 7 71 12 74 7 4 500 6 536 1z m-1951
-535 c6 -2 9 -92 8 -247 0 -134 -2 -247 -2 -251 -1 -5 -125 -8 -276 -8 l-275
0 0 59 c0 78 -9 118 -27 126 -9 3 -36 -6 -60 -21 -66 -38 -77 -24 -76 101 0
126 10 138 79 101 l49 -26 18 21 c12 15 17 39 17 84 0 58 2 64 23 67 29 4 509
-1 522 -6z"/>
<path d="M1229 6226 c-2 -2 -3 -51 -1 -108 l3 -103 47 -2 c63 -2 82 16 82 77
0 61 -24 85 -73 76 -35 -6 -35 -6 -32 29 2 31 -11 46 -26 31z m98 -103 c13
-41 2 -87 -22 -91 -35 -4 -49 14 -48 59 0 23 7 45 14 50 26 16 47 9 56 -18z"/>
<path d="M1930 6190 c0 -37 -2 -39 -18 -29 -28 18 -71 3 -83 -29 -12 -31 -6
-87 12 -108 14 -17 61 -18 77 -2 9 9 12 9 12 0 0 -7 7 -12 15 -12 12 0 15 19
15 110 0 91 -3 110 -15 110 -11 0 -15 -11 -15 -40z m-6 -72 c20 -57 -29 -115
-61 -72 -16 22 -17 58 -2 85 15 29 51 21 63 -13z"/>
<path d="M2281 6120 c0 -89 3 -110 15 -110 10 0 14 14 14 58 0 60 11 82 41 82
26 0 32 -16 30 -81 -1 -47 1 -59 14 -59 12 0 15 14 15 68 0 74 -10 92 -50 92
-14 0 -31 -5 -38 -12 -9 -9 -12 -3 -12 30 0 30 -4 42 -14 42 -12 0 -14 -22
-15 -110z"/>
<path d="M402 6193 c-4 -10 -8 -24 -8 -32 1 -20 22 -25 29 -6 4 8 2 15 -4 15
-6 0 -8 9 -4 20 8 25 -1 26 -13 3z"/>
<path d="M449 6203 c0 -5 -2 -18 -5 -30 -4 -24 10 -38 26 -28 8 5 8 11 0 20
-6 7 -8 20 -4 29 3 9 1 16 -5 16 -6 0 -11 -3 -12 -7z"/>
<path d="M714 6113 c1 -80 4 -98 17 -101 12 -2 15 5 12 37 -4 60 21 63 70 6
21 -25 45 -45 53 -45 17 0 18 16 1 27 -6 4 -27 25 -45 47 l-34 39 43 43 c28
29 38 44 27 44 -8 0 -36 -20 -60 -45 -25 -25 -48 -45 -51 -45 -3 0 -6 10 -5
23 2 48 -3 67 -16 67 -10 0 -13 -21 -12 -97z"/>
<path d="M2100 6190 c-11 -11 -20 -26 -20 -33 0 -21 31 -44 70 -52 69 -14 83
-30 54 -60 -21 -20 -62 -17 -90 8 -17 14 -24 15 -30 6 -11 -18 33 -49 70 -49
51 0 77 11 87 37 14 37 -4 59 -60 73 -61 14 -81 34 -59 57 12 11 26 14 52 9
20 -4 36 -11 36 -16 0 -6 7 -10 15 -10 20 0 19 13 -3 33 -27 24 -97 22 -122
-3z"/>
<path d="M3130 6201 c0 -5 -8 -17 -17 -27 -13 -13 -14 -19 -5 -22 7 -2 12 -23
12 -57 0 -29 3 -60 6 -69 7 -17 54 -22 54 -6 0 6 -7 10 -15 10 -12 0 -15 13
-15 60 0 47 3 60 15 60 8 0 15 5 15 10 0 6 -7 10 -15 10 -8 0 -15 6 -15 14 0
8 -4 18 -10 21 -5 3 -10 2 -10 -4z"/>
<path d="M2720 6186 c0 -8 -6 -17 -12 -19 -10 -4 -10 -8 -2 -14 7 -4 12 -34
13 -66 0 -68 4 -77 37 -77 28 0 32 16 6 24 -28 9 -25 106 3 117 19 8 19 8 -2
14 -13 4 -20 12 -16 21 3 8 -1 14 -11 14 -9 0 -16 -6 -16 -14z"/>
<path d="M920 6143 c-25 -32 -22 -83 6 -114 23 -25 76 -25 99 1 16 17 16 20 2
20 -9 0 -19 -4 -22 -10 -16 -25 -75 2 -75 35 0 10 17 15 58 17 51 3 57 5 54
23 -10 59 -84 75 -122 28z m88 -15 c3 -15 -4 -18 -38 -18 -38 0 -40 1 -30 21
14 25 63 23 68 -3z"/>
<path d="M1060 6166 c0 -2 13 -37 30 -77 31 -78 31 -104 -1 -114 -25 -8 -25
-25 1 -25 25 0 44 29 85 135 27 68 31 86 18 83 -8 -2 -25 -29 -37 -62 l-22
-59 -23 61 c-13 35 -29 62 -37 62 -8 0 -14 -2 -14 -4z"/>
<path d="M1410 6150 c-29 -29 -28 -103 2 -124 54 -38 108 -12 115 56 4 37 2
49 -16 67 -27 27 -75 27 -101 1z m78 -12 c7 -7 12 -28 12 -48 0 -39 -14 -60
-41 -60 -25 0 -41 25 -41 66 0 49 40 72 70 42z"/>
<path d="M1575 6150 c-16 -17 -16 -20 -2 -20 9 0 19 5 22 10 10 16 52 12 59
-6 9 -24 9 -24 -27 -24 -39 0 -62 -16 -70 -48 -10 -41 38 -66 83 -42 13 7 21
7 25 0 8 -13 45 -13 45 -1 0 5 -5 11 -10 13 -6 2 -11 26 -12 53 -1 28 -8 58
-16 68 -21 23 -74 22 -97 -3z m85 -74 c0 -20 -28 -46 -50 -46 -22 0 -30 19
-18 43 11 21 68 24 68 3z"/>
<path d="M1730 6088 c0 -63 3 -78 15 -78 12 0 15 13 15 57 0 50 3 60 27 79
l27 22 -42 -2 -42 -1 0 -77z"/>
<path d="M2466 6157 c-11 -8 -20 -31 -23 -59 -4 -37 -2 -49 16 -67 48 -48 121
-13 121 59 0 67 -63 104 -114 67z m80 -35 c23 -47 -16 -110 -53 -86 -22 13
-29 79 -12 100 17 21 51 13 65 -14z"/>
<path d="M2615 6090 c0 -58 3 -80 12 -80 7 0 13 12 14 28 2 84 16 121 41 106
4 -3 8 2 8 10 0 19 -21 21 -38 4 -9 -9 -12 -9 -12 0 0 7 -6 12 -12 12 -9 0
-13 -23 -13 -80z"/>
<path d="M2810 6143 c-39 -49 -6 -133 51 -133 27 0 59 22 59 41 0 14 -20 11
-37 -6 -22 -22 -46 -15 -57 18 -20 55 22 108 57 72 17 -16 37 -20 37 -7 0 17
-37 42 -63 42 -16 0 -33 -10 -47 -27z"/>
<path d="M2950 6102 c0 -74 10 -92 50 -92 14 0 31 5 38 12 9 9 12 9 12 0 0 -7
7 -12 15 -12 12 0 14 14 12 77 -1 50 -6 78 -14 81 -10 3 -13 -13 -13 -55 0
-61 -11 -83 -41 -83 -25 0 -30 13 -31 80 -1 43 -5 60 -15 60 -9 0 -13 -18 -13
-68z"/>
<path d="M3206 6148 c-21 -29 -6 -52 44 -67 30 -9 40 -17 38 -29 -4 -22 -35
-27 -64 -11 -13 7 -27 9 -31 5 -13 -12 28 -36 62 -36 79 0 88 68 13 92 -26 8
-43 19 -43 28 0 18 43 26 58 11 6 -6 18 -11 26 -11 11 0 10 4 -4 20 -25 28
-79 27 -99 -2z"/>
<path d="M418 3103 c-3 -4 -4 -42 -3 -83 1 -88 1 -88 105 -45 105 44 106 49
19 88 -91 42 -116 50 -121 40z m92 -56 l53 -23 -51 -22 c-28 -12 -55 -22 -61
-22 -6 0 -11 20 -11 45 0 25 4 45 9 45 5 0 32 -10 61 -23z"/>
<path d="M1240 5605 c0 -43 4 -75 10 -75 6 0 10 6 11 13 8 107 7 137 -7 137
-11 0 -14 -17 -14 -75z"/>
<path d="M1240 5496 c0 -9 7 -16 16 -16 9 0 14 5 12 12 -6 18 -28 21 -28 4z"/>
<path d="M1230 3142 c0 -4 8 -12 19 -19 31 -19 30 -48 -4 -119 -18 -38 -28
-71 -23 -73 15 -5 27 11 47 64 l18 48 21 -54 c11 -30 27 -55 36 -57 13 -3 12
8 -10 65 -48 129 -62 153 -83 153 -12 0 -21 -3 -21 -8z"/>
<path d="M1266 566 c-3 -13 -16 -27 -28 -31 -19 -6 -20 -8 -5 -12 33 -9 19
-60 -15 -54 -5 0 -8 -3 -8 -9 0 -5 7 -10 16 -10 12 0 14 -7 9 -30 -4 -18 -3
-30 4 -30 5 0 11 12 13 28 2 21 9 28 30 30 26 3 27 2 22 -30 -5 -23 -3 -30 4
-23 5 6 12 19 14 30 2 10 14 22 28 25 l25 6 -23 8 c-15 5 -21 13 -18 23 3 8 6
19 6 24 0 5 9 9 21 9 11 0 17 5 14 10 -4 6 -11 7 -17 4 -8 -5 -9 3 -5 24 4 19
2 32 -3 32 -6 0 -10 -6 -10 -14 0 -22 -29 -46 -46 -39 -10 4 -14 14 -11 29 6
31 -9 31 -17 0z m54 -71 c0 -21 -5 -25 -29 -25 -25 0 -28 3 -23 25 3 18 11 25
28 25 19 0 24 -5 24 -25z"/>
<path d="M1970 5150 c0 -5 6 -10 14 -10 7 0 19 -13 25 -29 11 -25 9 -36 -18
-91 -33 -68 -36 -80 -21 -80 5 0 23 26 39 58 17 31 30 50 31 42 1 -31 33 -100
47 -100 10 0 13 6 8 18 -4 9 -20 53 -36 97 -17 43 -35 85 -41 92 -12 15 -48
17 -48 3z"/>
<path d="M2030 2734 c-11 -13 -10 -19 10 -37 18 -18 22 -19 17 -4 -6 15 1 17
64 17 39 0 68 4 65 8 -3 5 -35 8 -71 7 -52 -2 -65 1 -61 12 7 18 -9 17 -24 -3z"/>
<path d="M3093 4600 c-17 -4 -19 -16 -18 -115 l0 -110 113 -3 c85 -2 112 0
113 10 6 62 2 211 -5 216 -12 7 -178 9 -203 2z m194 -115 l0 -95 -96 0 -96 0
95 95 c52 52 95 95 96 95 0 0 1 -43 1 -95z"/>
<path d="M2926 4579 c-3 -8 -10 -32 -15 -54 -6 -22 -22 -56 -36 -75 -15 -20
-21 -36 -15 -38 16 -6 36 15 59 60 l20 41 12 -29 c17 -38 49 -74 66 -74 11 0
8 8 -7 28 -26 32 -50 87 -50 112 0 24 -28 47 -34 29z"/>
<path d="M2856 3755 c4 -8 12 -15 18 -15 7 0 13 7 13 15 0 8 -8 15 -18 15 -12
0 -16 -5 -13 -15z"/>
<path d="M2832 2878 c3 -7 15 -43 28 -80 13 -38 29 -68 36 -68 30 0 80 105 68
142 -9 30 -31 21 -26 -11 4 -30 -25 -104 -38 -96 -4 2 -15 32 -24 65 -12 40
-22 60 -33 60 -8 0 -13 -6 -11 -12z"/>
<path d="M2850 2200 c0 -5 7 -10 15 -10 11 0 15 -11 15 -40 0 -29 -4 -40 -15
-40 -8 0 -15 -5 -15 -10 0 -6 17 -10 40 -8 37 2 59 18 25 18 -11 0 -15 12 -15
50 0 47 -2 50 -25 50 -14 0 -25 -4 -25 -10z"/>
<path d="M3004 2168 c-15 -24 -44 -70 -66 -104 -39 -64 -44 -74 -30 -74 5 0
36 44 69 98 77 124 76 122 64 122 -6 0 -23 -19 -37 -42z"/>
<path d="M3083 2169 c-64 -41 -86 -120 -45 -161 21 -22 21 -22 3 -43 l-20 -20
62 1 c85 0 97 2 97 15 0 5 -5 7 -10 4 -15 -9 -101 6 -94 16 3 5 14 9 24 9 41
0 110 84 110 135 0 24 -46 65 -72 65 -13 0 -37 -9 -55 -21z m80 -4 c16 -16 8
-88 -15 -124 -16 -26 -50 -44 -74 -39 -39 7 -29 100 15 147 32 34 52 39 74 16z"/>
<path d="M2856 1611 c-3 -4 5 -18 19 -31 l24 -22 -26 -26 c-32 -32 -12 -44 22
-12 l23 21 25 -25 c14 -14 29 -22 32 -16 3 5 -3 18 -15 30 -25 25 -25 32 0 55
21 19 26 35 12 35 -5 0 -18 -9 -30 -20 -22 -21 -47 -18 -56 6 -6 16 -22 19
-30 5z"/>
<path d="M2909 1096 c-1 -3 -3 -15 -4 -26 -1 -11 -3 -24 -4 -30 0 -5 -14 -10
-31 -10 -40 0 -38 -18 3 -22 28 -3 32 -6 30 -30 -1 -19 3 -28 12 -28 8 0 14 3
14 8 -6 38 2 52 31 52 40 0 38 18 -2 22 -29 3 -33 6 -30 30 2 14 -2 29 -7 33
-6 3 -12 4 -12 1z"/>
<path d="M4697 4153 c-4 -3 -7 -39 -7 -79 0 -40 -4 -75 -9 -78 -5 -3 -29 5
-54 19 -24 14 -52 23 -60 19 -24 -9 -37 -59 -37 -144 0 -85 13 -135 38 -145 9
-3 38 5 64 19 35 18 50 22 53 13 3 -6 6 -95 7 -197 l3 -185 1665 0 1665 0 0
380 0 380 -1661 3 c-913 1 -1664 -1 -1667 -5z m3303 -24 c3 -4 5 -164 5 -356
l-1 -348 -1645 -3 -1644 -2 -1 180 c-1 183 -6 210 -41 210 -8 0 -28 -9 -44
-21 -39 -28 -61 -21 -72 21 -12 45 -4 177 12 193 9 9 21 6 54 -11 75 -40 86
-30 92 86 2 31 4 57 4 57 1 0 738 0 1638 0 901 0 1640 -2 1643 -6z"/>
<path d="M5939 4050 c-1 -3 -3 -38 -4 -78 -1 -40 -5 -75 -9 -79 -3 -4 -24 4
-46 16 -56 31 -82 25 -98 -24 -19 -56 -10 -199 13 -226 23 -25 37 -24 85 3 21
13 42 19 46 15 5 -4 8 -46 8 -92 l1 -85 302 0 303 0 0 275 c0 213 -3 275 -12
276 -41 4 -588 3 -589 -1z m575 -263 c-1 -133 -2 -248 -3 -254 -1 -10 -63 -13
-276 -13 l-275 0 0 64 c0 73 -15 126 -37 126 -8 0 -27 -8 -41 -18 -68 -47 -83
-33 -86 82 -3 126 16 157 73 117 16 -12 38 -21 50 -21 19 0 43 29 40 47 -1 4
-1 32 0 61 l1 52 278 0 277 0 -1 -243z"/>
<path d="M6200 3850 c-29 -22 -22 -37 10 -20 21 11 21 10 18 -62 -3 -71 -4
-73 -30 -76 -54 -6 -27 -22 36 -22 68 0 96 14 48 23 l-29 6 2 85 c1 95 -6 104
-55 66z"/>
<path d="M7220 3978 c0 -42 -4 -79 -9 -83 -5 -3 -25 4 -45 16 -44 25 -77 22
-93 -11 -18 -36 -17 -194 2 -230 18 -35 32 -37 85 -10 22 11 44 20 50 20 6 0
10 -34 10 -90 l0 -90 300 0 300 0 0 278 0 277 -300 0 -300 0 0 -77z m580 -203
l0 -255 -278 0 -278 0 -2 82 c-2 111 -13 121 -84 85 l-52 -27 -14 26 c-17 32
-12 198 6 216 9 9 24 6 64 -15 49 -26 54 -26 65 -10 13 17 14 24 16 106 l0 47
279 0 278 0 0 -255z"/>
<path d="M7484 3862 c-39 -25 -46 -124 -13 -166 22 -28 62 -34 90 -13 39 30
41 146 4 173 -20 15 -63 18 -81 6z m66 -27 c18 -22 16 -113 -3 -132 -37 -38
-79 19 -67 91 10 53 44 73 70 41z"/>
<path d="M4966 3870 l-60 -5 0 -80 c-1 -44 1 -93 4 -109 l5 -29 75 1 c103 1
100 0 100 16 0 9 7 12 20 9 48 -13 110 43 110 100 0 29 -34 47 -53 28 -8 -8
-8 -11 1 -11 27 0 5 -93 -26 -105 -24 -9 -26 2 -7 52 11 27 20 55 20 63 1 8 5
30 9 48 8 34 5 36 -32 25 -13 -3 -19 -9 -13 -12 7 -5 4 -28 -8 -71 l-19 -65
-1 71 -1 72 -32 3 c-18 2 -60 2 -92 -1z m109 -112 l1 -98 -78 0 -78 0 0 100 0
101 77 -3 78 -3 0 -97z"/>
<path d="M4963 3833 c-7 -2 -13 -12 -13 -21 0 -11 3 -13 8 -6 12 18 42 24 63
14 26 -15 24 -34 -6 -50 -25 -13 -35 -40 -14 -40 5 0 8 4 5 8 -3 5 6 15 19 22
27 14 33 48 13 68 -12 12 -52 15 -75 5z"/>
<path d="M4980 3685 c0 -10 7 -15 18 -13 21 4 19 22 -2 26 -10 2 -16 -3 -16
-13z"/>
<path d="M6809 3833 c-1 -10 -2 -25 -3 -33 0 -9 -13 -16 -33 -18 -43 -4 -42
-22 1 -22 25 0 33 -4 33 -17 0 -34 3 -43 13 -43 6 0 10 14 10 30 0 27 3 30 30
30 17 0 30 5 30 10 0 6 -13 10 -30 10 -27 0 -30 3 -30 29 0 32 -19 54 -21 24z"/>
<path d="M5470 3823 c0 -4 10 -17 22 -30 l22 -23 -29 -30 c-33 -35 -14 -42 22
-8 l23 21 23 -21 c36 -34 55 -27 22 8 l-29 30 22 20 c21 20 29 40 15 40 -4 0
-17 -10 -30 -22 l-23 -21 -23 21 c-24 22 -37 28 -37 15z"/>
<path d="M8794 4051 c-2 -2 -4 -34 -4 -70 0 -90 -8 -100 -55 -73 -51 31 -80
29 -95 -7 -16 -40 -20 -147 -6 -200 16 -63 35 -72 92 -42 58 31 64 23 64 -81
l0 -78 510 0 510 0 -2 277 -3 278 -503 0 c-277 0 -506 -2 -508 -4z m990 -268
c-1 -137 -2 -251 -3 -255 0 -5 -219 -8 -486 -8 l-485 0 0 78 c0 53 -5 84 -15
98 -14 19 -15 18 -66 -9 -38 -21 -55 -25 -63 -17 -6 6 -12 54 -14 108 -3 75 0
102 12 117 13 18 17 19 38 6 93 -58 108 -48 108 72 l0 57 488 0 487 0 -1 -247z"/>
<path d="M9046 3857 c-26 -19 -36 -87 -20 -133 15 -42 28 -54 66 -54 40 0 68
42 68 100 0 81 -60 127 -114 87z m68 -23 c35 -35 13 -144 -28 -144 -25 0 -40
32 -40 80 0 71 32 100 68 64z"/>
<path d="M9290 3850 c-53 -53 4 -135 71 -100 24 13 26 -6 3 -38 -18 -26 -37
-28 -58 -7 -19 19 -33 1 -16 -20 13 -16 47 -19 75 -9 43 17 56 134 20 175 -23
25 -70 24 -95 -1z m77 -14 c1 0 4 -13 8 -28 6 -23 3 -29 -19 -39 -20 -9 -29
-9 -41 1 -18 15 -20 51 -3 68 9 9 41 8 55 -2z"/>
<path d="M9451 3843 c-23 -28 -21 -54 7 -85 17 -21 44 -23 74 -7 18 10 20 9
15 -6 -4 -9 -7 -21 -7 -25 0 -5 -9 -14 -21 -20 -16 -9 -26 -8 -44 4 -28 19
-41 9 -18 -16 34 -38 112 -7 114 45 0 12 2 30 4 40 5 27 -15 76 -35 87 -33 18
-68 11 -89 -17z m76 -5 c27 -35 15 -78 -22 -78 -21 0 -44 27 -40 47 2 10 4 21
4 25 1 6 17 12 42 17 4 0 11 -5 16 -11z"/>
<path d="M9200 3685 c0 -8 7 -15 15 -15 8 0 15 7 15 15 0 8 -7 15 -15 15 -8 0
-15 -7 -15 -15z"/>
<path d="M10501 4052 c-7 -2 -11 -36 -11 -83 0 -45 -4 -79 -10 -79 -5 0 -24 9
-42 20 -76 46 -101 21 -106 -104 -7 -150 23 -193 100 -146 55 33 58 30 58 -70
l0 -90 300 0 c233 0 300 3 301 13 4 54 3 537 -1 538 -14 3 -580 4 -589 1z
m569 -277 l0 -255 -275 0 c-151 0 -275 3 -276 8 -1 4 -2 40 -4 81 -2 51 -8 78
-19 89 -15 16 -20 15 -65 -11 -43 -24 -50 -25 -61 -12 -30 37 -19 235 13 235
7 0 26 -9 42 -20 37 -25 73 -26 82 -3 4 10 7 46 7 80 l1 63 278 0 277 0 0
-255z"/>
<path d="M10759 3851 c-13 -11 -21 -23 -17 -27 4 -4 14 -1 23 6 18 15 17 20
19 -63 2 -67 2 -68 -26 -74 -52 -10 -28 -23 44 -23 57 0 69 3 60 12 -7 7 -20
13 -30 13 -14 0 -17 12 -19 80 -1 44 -2 83 -3 88 0 13 -28 7 -51 -12z"/>
<path d="M11784 4051 c-2 -2 -4 -37 -4 -77 0 -40 -4 -76 -10 -79 -5 -3 -30 5
-56 19 -59 31 -79 23 -92 -38 -13 -62 -6 -184 13 -212 19 -30 37 -30 87 -2 51
29 58 19 58 -84 l0 -78 300 0 300 0 0 278 0 277 -296 0 c-162 0 -297 -2 -300
-4z m573 -276 l-1 -255 -278 0 -278 0 0 78 c0 52 -5 85 -14 98 -14 19 -16 18
-68 -8 -35 -18 -56 -24 -63 -17 -15 15 -19 192 -6 218 14 26 25 26 59 3 70
-48 92 -31 92 69 l0 69 278 0 279 0 0 -255z"/>
<path d="M12036 3857 c-20 -15 -36 -88 -26 -124 8 -37 38 -63 68 -63 41 0 65
31 70 93 3 42 0 57 -18 80 -24 30 -64 36 -94 14z m68 -23 c20 -19 21 -103 3
-128 -10 -13 -20 -16 -36 -11 -27 8 -39 38 -36 88 5 61 36 84 69 51z"/>
<path d="M8312 3854 c-64 -26 -81 -99 -37 -152 29 -35 73 -44 114 -25 58 29
72 109 26 156 -31 31 -64 38 -103 21z m82 -35 c53 -41 18 -129 -51 -129 -32 0
-73 42 -73 75 0 33 41 75 73 75 13 0 36 -9 51 -21z"/>
<path d="M8295 3811 c-2 -5 2 -14 10 -21 19 -16 19 -28 -1 -47 -13 -13 -13
-17 -2 -24 8 -5 17 -3 24 6 14 19 28 19 44 0 7 -8 17 -12 22 -9 5 3 3 13 -6
23 -20 22 -20 26 0 46 11 11 13 20 7 26 -6 6 -14 4 -23 -6 -14 -16 -40 -21
-40 -6 0 12 -28 22 -35 12z"/>
<path d="M11369 3846 c-1 -3 -3 -10 -4 -16 -1 -5 -3 -19 -4 -30 -1 -15 -8 -20
-31 -20 -40 0 -38 -18 3 -22 28 -3 32 -6 29 -30 -5 -38 17 -36 25 2 4 25 10
30 34 30 16 0 29 5 29 10 0 6 -13 10 -30 10 -29 0 -34 7 -31 42 2 15 -17 37
-20 24z"/>
<path d="M3990 3833 c0 -7 -6 -13 -13 -13 -22 0 -59 -47 -59 -74 0 -31 16 -52
52 -71 24 -12 30 -12 58 5 28 17 59 58 53 70 -21 39 -39 61 -56 66 -11 4 -23
12 -27 18 -6 8 -8 7 -8 -1z m0 -88 l0 -65 -25 12 c-55 25 -41 100 23 117 1 1
2 -28 2 -64z m65 21 c10 -31 1 -51 -33 -74 -22 -14 -22 -14 -22 51 0 65 1 66
23 58 12 -4 26 -20 32 -35z"/>
<path d="M10026 3823 c-3 -4 6 -17 21 -29 l28 -22 -29 -31 c-34 -35 -15 -43
21 -9 l23 21 25 -23 c14 -13 28 -20 32 -17 3 4 -4 18 -17 32 l-23 25 23 25
c13 14 20 28 17 32 -4 3 -18 -4 -32 -17 l-25 -23 -23 21 c-25 24 -30 26 -41
15z"/>
<path d="M4322 3754 c4 -21 22 -23 26 -1 2 10 -3 17 -13 17 -10 0 -15 -6 -13
-16z"/>
<path d="M4801 3210 c-3 -3 -7 -38 -9 -79 -1 -41 -5 -77 -7 -80 -3 -2 -23 6
-45 18 -78 44 -108 10 -109 -119 -1 -136 30 -173 107 -129 23 13 44 20 48 16
4 -4 8 -91 8 -194 l1 -188 1668 -3 1667 -2 -2 382 -3 383 -1658 0 c-913 0
-1662 -2 -1666 -5z m3307 -377 l-3 -358 -1642 0 -1643 0 -1 25 c0 14 -1 96 -2
182 -2 195 -7 203 -85 164 -42 -21 -52 -23 -62 -11 -22 26 -19 210 4 233 4 3
30 -6 59 -21 67 -34 78 -25 85 72 l5 71 1643 0 1644 0 -2 -357z"/>
<path d="M6040 3036 c0 -42 -5 -78 -11 -81 -6 -4 -30 3 -53 16 -75 39 -98 8
-99 -133 0 -132 29 -163 108 -116 48 28 55 17 55 -87 l0 -80 300 0 300 0 0
277 0 278 -300 0 -300 0 0 -74z m578 -201 l-1 -255 -278 0 -279 0 0 79 c0 109
-13 122 -81 84 -39 -21 -52 -24 -62 -14 -15 15 -17 215 -2 230 7 6 29 1 64
-16 52 -25 55 -25 68 -8 8 12 13 46 13 87 l0 68 279 0 280 0 -1 -255z"/>
<path d="M6308 2912 c-41 -24 -38 -43 3 -22 18 10 19 7 19 -65 0 -73 -1 -75
-25 -75 -14 0 -25 -4 -25 -10 0 -6 28 -10 65 -10 37 0 65 4 65 10 0 6 -11 10
-25 10 -25 0 -25 1 -25 90 0 98 -4 103 -52 72z"/>
<path d="M7323 3034 c-1 -41 -4 -78 -7 -81 -3 -4 -26 3 -50 15 -24 12 -50 22
-58 22 -29 0 -43 -49 -43 -149 1 -141 23 -166 106 -119 21 12 41 19 45 16 3
-3 7 -41 9 -84 1 -44 3 -84 4 -89 1 -14 583 -14 593 0 4 5 7 130 6 277 l0 268
-302 0 -303 0 0 -76z m578 29 c1 -35 1 -430 0 -460 l-1 -23 -275 0 -275 0 -1
58 c-1 127 -14 143 -87 105 -28 -14 -55 -24 -58 -21 -22 23 -26 207 -4 233 10
12 19 11 60 -10 48 -24 78 -25 82 -1 0 6 2 36 4 66 1 30 3 61 3 68 1 9 63 12
276 12 l275 0 1 -27z"/>
<path d="M7580 2910 c-11 -11 -20 -23 -21 -27 -11 -87 6 -139 47 -149 39 -10
76 14 87 56 11 44 3 97 -19 121 -22 25 -69 24 -94 -1z m64 -6 c19 -7 30 -63
22 -108 -8 -40 -39 -57 -63 -33 -23 23 -28 92 -9 122 17 26 24 29 50 19z"/>
<path d="M5063 2932 l-53 -3 0 -110 0 -109 30 -1 c139 -3 167 1 156 20 -3 4 8
5 25 3 38 -6 77 20 95 64 19 46 4 79 -33 69 -23 -5 -25 -4 -19 19 3 13 9 31
12 39 4 11 0 14 -13 12 -10 -2 -27 -4 -38 -4 -16 -1 -17 -3 -6 -10 12 -8 12
-17 1 -58 -20 -76 -32 -76 -27 -1 l4 66 -41 4 c-23 1 -65 2 -93 0z m117 -112
l0 -100 -78 0 -78 0 1 93 c1 50 3 95 3 100 1 4 36 7 77 7 l75 0 0 -100z m104
-8 c-15 -64 -62 -102 -50 -40 8 40 34 81 46 73 6 -4 7 -18 4 -33z"/>
<path d="M5062 2888 c-19 -19 -14 -33 6 -15 20 18 61 15 74 -5 5 -9 -1 -20
-17 -33 -14 -12 -25 -26 -25 -33 0 -7 14 1 30 18 34 35 36 43 14 64 -18 19
-65 21 -82 4z"/>
<path d="M5087 2754 c-9 -10 2 -24 19 -24 8 0 14 7 14 15 0 15 -21 21 -33 9z"/>
<path d="M6910 2875 c0 -32 -2 -35 -30 -35 -16 0 -30 -4 -30 -10 0 -5 14 -10
30 -10 27 0 30 -3 30 -30 0 -16 5 -30 10 -30 6 0 10 14 10 30 0 27 3 30 30 30
17 0 30 5 30 10 0 6 -13 10 -30 10 -28 0 -30 3 -30 35 0 19 -4 35 -10 35 -5 0
-10 -16 -10 -35z"/>
<path d="M5570 2885 c0 -3 11 -17 24 -31 l23 -26 -23 -25 c-32 -35 -19 -51 15
-19 l27 26 22 -20 c22 -20 42 -26 42 -12 0 4 -9 15 -20 25 -11 9 -20 21 -20
25 0 5 9 17 20 27 11 10 20 22 20 27 0 15 -26 8 -40 -12 -8 -11 -18 -20 -23
-20 -4 0 -17 9 -29 20 -21 19 -38 26 -38 15z"/>
<path d="M8790 3030 c0 -45 -4 -80 -10 -80 -5 0 -29 10 -54 21 -76 38 -96 11
-96 -129 0 -133 31 -168 106 -121 20 12 39 18 44 13 5 -5 10 -47 12 -94 l3
-85 380 0 380 0 3 278 2 277 -385 0 -385 0 0 -80z m746 -197 l1 -253 -363 0
-363 0 1 48 c1 87 -2 110 -18 126 -14 15 -20 14 -65 -11 -39 -21 -52 -24 -62
-14 -16 16 -17 215 -1 231 9 9 25 4 63 -16 69 -36 81 -25 83 74 l1 72 361 -2
361 -3 1 -252z"/>
<path d="M9048 2919 c-22 -12 -24 -39 -3 -39 8 0 15 4 15 9 0 16 40 23 55 11
24 -20 18 -33 -40 -92 -30 -31 -55 -61 -55 -67 0 -7 25 -11 70 -11 40 0 70 4
70 10 0 9 -53 15 -87 11 -24 -3 -13 14 37 60 28 25 50 53 50 62 0 43 -69 72
-112 46z"/>
<path d="M9212 2910 c-34 -40 -32 -141 4 -167 54 -40 114 6 114 87 0 60 -28
100 -71 100 -17 0 -37 -8 -47 -20z m72 -16 c18 -18 22 -95 6 -125 -14 -25 -52
-19 -67 11 -6 13 -10 41 -8 63 7 63 36 84 69 51z"/>
<path d="M10240 3030 c0 -49 -4 -80 -10 -80 -6 0 -29 9 -51 20 -51 27 -76 19
-89 -28 -15 -54 -12 -167 4 -207 18 -41 44 -45 94 -15 18 11 37 20 42 20 6 0
10 -38 10 -89 0 -62 4 -90 13 -93 6 -2 217 -4 467 -4 l455 1 3 278 2 277 -470
0 -470 0 0 -80z m916 -198 l1 -252 -446 2 -445 3 -1 78 c-1 104 -13 117 -79
82 -26 -14 -51 -25 -56 -25 -27 0 -36 203 -10 235 10 12 18 11 62 -11 67 -34
79 -23 83 73 2 37 3 69 4 71 1 1 200 1 444 0 l442 -3 1 -253z"/>
<path d="M10498 2919 c-20 -11 -24 -49 -7 -66 8 -8 6 -18 -5 -36 -44 -67 63
-125 113 -61 19 25 19 45 -2 72 -7 9 -6 17 1 24 45 45 -41 102 -100 67z m70
-18 c8 -5 12 -17 10 -27 -4 -25 -56 -32 -64 -10 -14 36 20 59 54 37z m12 -91
c8 -14 8 -26 0 -40 -19 -35 -80 -20 -80 20 0 40 61 55 80 20z"/>
<path d="M10661 2904 c-47 -59 -15 -174 48 -174 15 0 34 6 43 13 38 29 39 147
2 174 -30 22 -70 16 -93 -13z m82 -14 c17 -25 13 -108 -7 -128 -21 -22 -55 -5
-64 31 -21 79 32 152 71 97z"/>
<path d="M10836 2917 c-37 -27 -36 -146 1 -174 53 -40 113 7 113 87 0 81 -60
127 -114 87z m68 -23 c18 -18 22 -95 6 -125 -13 -23 -43 -25 -60 -4 -7 9 -13
37 -13 64 -2 71 31 102 67 65z"/>
<path d="M11861 3033 c0 -42 -3 -78 -6 -81 -3 -3 -26 4 -50 16 -57 28 -67 27
-84 0 -20 -32 -26 -173 -9 -223 16 -49 43 -56 94 -26 19 12 39 21 45 21 5 0 9
-40 9 -89 0 -62 4 -90 13 -93 6 -2 255 -4 552 -4 l540 1 3 278 2 277 -554 0
-554 0 -1 -77z m1083 -198 l0 -250 -529 0 -529 0 -1 78 c-2 104 -13 117 -79
82 -26 -14 -51 -25 -56 -25 -27 0 -36 204 -10 235 10 12 20 10 62 -11 74 -37
81 -25 88 134 0 10 109 12 527 10 l526 -3 1 -250z"/>
<path d="M12130 2910 c-14 -10 -22 -22 -18 -26 4 -4 14 -2 22 5 18 15 22 2 21
-74 0 -46 -4 -60 -15 -61 -8 -1 -21 -2 -27 -3 -7 0 -13 -5 -13 -11 0 -6 30
-10 71 -10 44 0 68 4 64 10 -3 6 -17 10 -30 10 -22 0 -23 3 -23 68 0 104 -1
112 -14 112 -7 0 -24 -9 -38 -20z"/>
<path d="M12294 2922 c-39 -25 -46 -124 -13 -166 26 -33 70 -35 99 -4 28 31
29 129 0 158 -20 20 -65 26 -86 12z m61 -26 c15 -11 19 -25 18 -65 -1 -56 -15
-81 -44 -81 -19 0 -46 43 -43 70 1 8 2 25 3 37 1 21 25 53 40 53 4 0 16 -6 26
-14z"/>
<path d="M12450 2910 c-19 -19 -22 -31 -22 -80 0 -49 3 -61 22 -80 51 -51 120
-6 120 80 0 86 -69 131 -120 80z m81 -21 c12 -19 11 -96 -1 -120 -11 -20 -42
-21 -61 -2 -16 16 -16 108 0 127 15 18 49 16 62 -5z"/>
<path d="M12620 2910 c-11 -11 -20 -26 -21 -32 -1 -7 -2 -26 -4 -43 -7 -75 48
-125 104 -94 44 25 53 128 15 170 -22 25 -69 24 -94 -1z m74 -16 c30 -29 18
-129 -17 -140 -33 -11 -60 31 -54 83 7 67 37 91 71 57z"/>
<path d="M3954 2922 c-21 -3 -22 -8 -20 -115 l1 -112 113 -3 c61 -1 112 1 113
5 5 38 3 207 -3 216 -6 10 -150 17 -204 9z m96 -117 l95 -95 -98 0 -97 0 0 95
c0 52 1 95 3 95 1 0 45 -43 97 -95z"/>
<path d="M11450 2875 c0 -32 -2 -35 -30 -35 -16 0 -30 -4 -30 -10 0 -5 14 -10
30 -10 27 0 30 -3 30 -30 0 -16 5 -30 10 -30 6 0 10 14 10 30 0 27 3 30 30 30
17 0 30 5 30 10 0 6 -13 10 -30 10 -28 0 -30 3 -30 35 0 19 -4 35 -10 35 -5 0
-10 -16 -10 -35z"/>
<path d="M8330 2881 c0 -27 54 -151 66 -151 27 0 76 105 67 141 -8 30 -29 22
-27 -10 1 -15 -6 -46 -16 -67 l-17 -39 -15 36 c-9 20 -19 50 -23 68 -6 27 -35
46 -35 22z"/>
<path d="M9780 2883 c0 -4 10 -17 22 -30 l21 -23 -21 -23 c-34 -36 -27 -55 8
-22 l30 29 30 -29 c35 -33 42 -14 8 22 l-21 23 23 25 c13 14 20 28 17 32 -4 3
-18 -4 -32 -17 l-25 -23 -23 21 c-24 22 -37 28 -37 15z"/>
<path d="M4420 2815 c0 -8 7 -15 15 -15 8 0 15 7 15 15 0 8 -7 15 -15 15 -8 0
-15 -7 -15 -15z"/>
<path d="M3946 2177 c-37 -27 -37 -147 0 -174 54 -40 114 6 114 87 0 81 -60
127 -114 87z m61 -15 c20 -13 30 -54 23 -94 -9 -49 -22 -62 -50 -53 -27 8 -39
41 -35 89 6 56 30 78 62 58z"/>
<path d="M4191 2164 c-46 -59 -15 -174 47 -174 39 1 60 21 70 66 10 48 -1 104
-24 121 -30 22 -70 16 -93 -13z m79 -9 c18 -22 17 -113 -3 -132 -13 -14 -21
-14 -42 -5 -23 11 -25 17 -25 71 0 47 4 62 18 70 24 14 38 13 52 -4z"/>
<path d="M4370 2170 c-14 -10 -21 -22 -17 -26 4 -4 13 -2 19 4 23 23 28 11 25
-60 -2 -64 -4 -73 -22 -76 -11 -2 -24 -8 -29 -13 -6 -5 20 -9 65 -9 66 1 72 2
55 15 -10 8 -22 12 -26 10 -13 -8 -16 16 -15 98 0 85 -8 94 -55 57z"/>
<path d="M4100 2005 c0 -8 7 -15 15 -15 8 0 15 7 15 15 0 8 -7 15 -15 15 -8 0
-15 -7 -15 -15z"/>
<path d="M3947 1648 c-36 -27 -39 -128 -5 -168 24 -27 64 -25 93 5 33 32 35
110 4 149 -22 29 -63 35 -92 14z m67 -24 c16 -15 20 -31 17 -69 -3 -45 -12
-64 -32 -70 -33 -11 -53 16 -52 74 0 72 31 102 67 65z"/>
<path d="M4206 1639 c-31 -24 -28 -36 3 -19 22 11 23 8 23 -60 0 -75 -1 -80
-27 -80 -14 0 -25 -4 -25 -10 0 -6 28 -10 65 -10 37 0 65 4 65 10 0 6 -11 10
-25 10 -25 0 -25 1 -25 90 0 99 -6 107 -54 69z"/>
<path d="M4100 1475 c0 -8 7 -15 15 -15 8 0 15 7 15 15 0 8 -7 15 -15 15 -8 0
-15 -7 -15 -15z"/>
<path d="M3946 1107 c-36 -26 -38 -127 -4 -167 26 -29 72 -26 97 6 47 59 15
174 -48 174 -15 0 -35 -6 -45 -13z m74 -26 c16 -30 12 -107 -6 -125 -19 -20
-25 -20 -49 -2 -15 11 -19 26 -19 65 1 28 7 57 14 66 17 21 47 19 60 -4z"/>
<path d="M1986 571 c-28 -31 -15 -46 17 -21 33 26 67 19 67 -14 0 -15 -18 -39
-50 -68 -70 -63 -67 -78 14 -78 36 0 68 5 71 10 6 10 -16 13 -74 10 -40 -2
-37 5 25 62 47 43 56 75 28 102 -22 22 -77 20 -98 -3z"/>
</g>
</svg>
