<?xml version="1.0" standalone="no"?>
<!DOCTYPE svg PUBLIC "-//W3C//DTD SVG 20010904//EN"
 "http://www.w3.org/TR/2001/REC-SVG-20010904/DTD/svg10.dtd">
<svg version="1.0" xmlns="http://www.w3.org/2000/svg"
 width="1351.000000pt" height="727.000000pt" viewBox="0 0 1351.000000 727.000000"
 preserveAspectRatio="xMidYMid meet">
<metadata>
Created by potrace 1.16, written by Peter Selinger 2001-2019
</metadata>
<g transform="translate(0.000000,727.000000) scale(0.100000,-0.100000)"
fill="#000000" stroke="none">
<path d="M1590 7120 l-1015 -5 -36 -27 c-46 -36 -70 -35 -124 2 -45 31 -100
39 -174 24 -49 -10 -88 -56 -97 -112 -5 -26 -7 -51 -5 -56 1 -6 2 -1513 2
-3350 0 -2138 4 -3354 10 -3378 6 -23 21 -45 42 -60 l32 -23 837 -2 838 -3 2
378 3 377 5725 1 c3149 1 5730 2 5737 3 9 1 12 103 12 414 l-1 414 -5531 0
-5532 0 -1 169 c0 93 1 174 3 180 5 14 145 14 155 -1 5 -6 8 -6 8 2 0 7 14 10
38 9 20 -1 42 -1 49 2 9 3 12 94 12 374 -1 203 1 372 4 374 2 3 522 5 1155 5
896 0 1151 2 1154 12 2 7 3 183 3 392 -1 221 2 388 8 399 6 12 5 16 -1 12 -6
-3 -9 42 -8 121 l1 127 -1157 0 -1158 0 -1 65 c-1 216 0 283 6 289 4 4 19 7
33 7 l27 0 3 188 c1 103 6 187 10 188 48 5 1325 2 1329 -4 2 -4 12 -4 21 1 21
9 2334 8 2350 -2 7 -4 12 -4 12 1 0 4 270 8 600 7 l600 -1 0 344 0 343 -1847
0 c-1017 0 -2232 0 -2700 0 l-853 0 0 180 0 180 3973 0 3972 0 -1 328 c0 217
3 332 10 341 8 11 8 13 -1 7 -7 -4 -13 -4 -13 1 0 4 -1938 8 -4308 8 l-4307 0
-3 178 c-2 164 -1 177 15 178 10 0 263 1 563 2 l545 2 0 198 c0 109 -2 199 -5
200 -3 1 -462 0 -1020 -3z m-1183 -46 c51 -39 78 -39 132 -4 l48 30 1006 0
1007 0 0 -180 0 -180 -1010 0 -1010 0 -39 -25 c-54 -36 -73 -37 -122 -4 -42
27 -50 29 -151 29 l-108 0 -1 90 c0 50 -1 106 -1 125 0 19 1 44 1 54 1 11 16
36 35 55 32 35 36 36 106 36 63 0 78 -4 107 -26z m5 -380 c49 -34 75 -33 138
5 38 23 55 27 110 26 l64 -2 1 -36 c2 -54 -7 -62 -45 -42 -30 15 -34 15 -48 1
-20 -19 -28 -130 -13 -168 12 -32 29 -35 71 -13 23 12 30 13 31 3 1 -7 2
-1432 3 -3166 l1 -3152 -95 -1 c-401 -3 -419 -1 -455 55 -14 21 -15 368 -15
3265 0 1783 2 3245 4 3249 2 4 50 7 106 6 93 -2 105 -4 142 -30z m1049 27 c13
-1 15 -29 13 -232 -1 -127 -4 -233 -7 -235 -2 -3 -21 3 -42 13 -36 17 -37 17
-51 -2 -17 -22 -19 -147 -4 -176 13 -23 37 -24 64 -4 11 8 23 15 28 15 4 0 8
-117 8 -260 0 -143 -2 -260 -5 -260 -2 0 -21 8 -41 17 -35 17 -36 17 -50 -2
-19 -26 -19 -154 0 -180 14 -19 15 -19 50 -2 20 9 39 17 41 17 3 0 5 -776 5
-1725 0 -949 -2 -1725 -5 -1725 -2 0 -21 8 -41 17 -35 17 -36 17 -50 -2 -17
-22 -19 -147 -4 -176 13 -23 37 -24 64 -4 11 8 23 15 28 15 4 0 8 -52 8 -115
0 -63 -4 -115 -8 -115 -5 0 -17 7 -28 15 -27 20 -51 19 -64 -4 -15 -29 -13
-154 3 -176 13 -17 16 -17 47 -1 18 9 37 16 42 16 4 0 8 -148 8 -330 0 -181
-2 -330 -4 -330 -2 0 -21 7 -42 16 -35 15 -39 15 -51 -2 -16 -21 -18 -147 -3
-175 13 -23 37 -24 64 -4 11 8 23 15 28 15 4 0 8 -52 8 -115 0 -63 -2 -115 -4
-115 -2 0 -17 7 -32 15 -38 20 -51 19 -64 -4 -15 -29 -13 -154 4 -176 14 -19
15 -19 50 -2 20 9 39 17 41 17 3 0 5 -25 5 -55 l0 -54 -102 -3 c-57 -2 -220
-2 -364 0 l-261 3 0 3165 c0 2647 -2 3167 -13 3174 -9 5 -28 1 -51 -10 -45
-24 -49 -18 -49 73 0 81 9 96 44 74 50 -33 75 -12 70 58 -3 28 1 34 19 37 18
2 647 2 698 -1z m8637 -697 l2 -322 -22 -3 c-19 -3 -7051 -3 -8230 0 l-358 1
0 199 c0 225 -3 235 -60 206 -44 -23 -54 -9 -53 71 0 81 9 91 57 67 46 -21 56
-11 56 58 l0 46 4303 -1 4302 -1 3 -321z m-7946 -494 c0 -80 -1 -187 -1 -238
l-1 -93 -30 16 c-61 32 -81 13 -81 -78 -1 -105 14 -128 66 -101 15 8 31 14 36
14 5 0 9 -116 9 -260 l0 -260 -39 19 c-36 19 -40 19 -54 3 -25 -28 -26 -161
-1 -186 14 -14 19 -14 55 4 l39 20 0 -115 c0 -63 -2 -115 -4 -115 -2 0 -19 6
-38 14 -20 9 -40 11 -47 6 -17 -10 -28 -81 -21 -139 6 -55 27 -71 67 -51 15 8
31 16 36 18 4 2 7 -48 7 -112 0 -64 -2 -116 -5 -116 -2 0 -21 8 -41 17 -35 17
-36 17 -50 -2 -14 -19 -19 -58 -15 -124 4 -66 33 -88 75 -56 11 8 23 15 28 15
4 0 8 -83 8 -185 0 -102 -4 -185 -9 -185 -5 0 -21 6 -36 14 -52 27 -69 1 -67
-102 1 -87 29 -114 78 -77 10 8 22 15 27 15 4 0 7 -85 7 -190 0 -104 -2 -190
-4 -190 -3 0 -20 9 -39 20 -33 20 -34 20 -51 1 -17 -19 -25 -128 -11 -170 8
-26 45 -28 80 -5 l25 16 0 -116 c0 -123 -4 -131 -47 -101 -25 18 -50 11 -58
-16 -11 -33 -7 -150 6 -165 15 -18 40 -18 65 1 30 23 34 19 34 -40 0 -30 -3
-56 -7 -56 -22 -4 -630 -5 -640 -1 -10 3 -13 345 -13 1666 0 1001 -4 1667 -10
1676 -8 12 -14 12 -46 -3 -49 -24 -58 -13 -58 68 0 82 11 95 59 69 44 -23 55
-12 55 59 l0 47 332 -2 331 -3 -1 -145z m5399 -267 c0 -56 0 -521 0 -570 l-1
-43 -2690 0 -2690 0 0 194 c0 107 -3 201 -6 210 -8 20 -28 20 -60 0 -16 -11
-28 -14 -35 -7 -13 13 -19 79 -12 126 6 41 18 45 63 22 27 -14 30 -14 40 4 5
11 10 38 10 60 l0 41 2690 0 2690 0 1 -37z m-4926 -635 c5 -5 9 -255 6 -340
-1 -17 -19 -18 -231 -18 l-230 0 0 58 c0 76 -11 87 -62 61 -36 -19 -39 -19
-45 -2 -10 23 -9 122 0 146 6 17 9 17 46 -3 40 -20 40 -20 51 -1 5 11 10 37
10 59 0 21 2 41 4 43 7 6 445 3 451 -3z m-70 -378 c4 -6 8 -202 6 -315 l-1
-40 -182 1 c-101 1 -189 2 -195 3 -9 1 -13 19 -13 55 0 66 -17 86 -52 62 -51
-36 -72 -5 -62 94 6 56 13 63 48 45 53 -28 66 -17 66 59 l0 42 190 1 c105 0
193 -3 195 -7z m2322 -625 l0 -255 -1353 0 -1354 0 0 128 c0 153 -4 163 -56
138 -35 -16 -39 -16 -50 -2 -14 19 -11 133 4 148 6 6 21 4 43 -7 31 -16 33
-16 46 1 7 10 13 37 13 61 l0 43 1354 0 1353 0 0 -255z m1 -522 l-1 -253 -41
0 c-49 -1 -2067 -1 -2418 0 l-248 0 0 123 c0 144 -10 172 -51 144 -52 -37 -71
-12 -64 87 5 61 13 69 49 51 52 -27 66 -16 66 54 0 21 2 40 5 43 3 2 612 4
1354 4 l1349 0 0 -253z m-2316 -360 c2 -48 2 -129 0 -180 l-3 -93 -195 0 -194
0 0 51 c0 28 -5 59 -11 70 -10 20 -11 20 -46 -1 -25 -15 -39 -18 -46 -11 -12
12 -15 126 -4 154 6 17 9 17 46 -3 40 -20 40 -20 51 -1 5 11 10 38 10 60 l0
41 195 0 194 0 3 -87z m-7 -294 c4 -4 8 -198 6 -315 l-1 -41 -187 2 c-104 1
-191 3 -195 4 -5 0 -8 25 -8 55 0 66 -17 86 -52 62 -51 -36 -72 -5 -62 94 6
56 16 67 45 46 48 -33 69 -17 69 54 0 28 5 39 17 42 27 5 362 2 368 -3z m-258
-551 l1 -178 -404 0 -404 0 0 53 c0 75 -10 87 -55 63 -49 -26 -60 -13 -59 70
1 81 10 91 58 67 45 -21 56 -11 56 53 0 22 2 43 5 45 2 3 184 5 402 5 l398 -1
2 -177z m11065 -340 c2 -79 1 -258 -2 -399 l-5 -255 -5930 0 -5930 1 -5 280
c-3 154 -7 281 -8 283 -6 7 -36 0 -58 -14 -33 -23 -45 -9 -46 52 -2 112 5 122
57 88 37 -24 55 -4 55 57 l0 49 5934 0 5935 0 3 -142z m-11481 -682 c1 -14 1
-306 0 -328 -1 -17 -17 -18 -196 -18 l-195 0 0 53 c0 74 -9 83 -54 62 -50 -24
-60 -12 -59 70 0 82 8 92 57 68 46 -21 56 -11 56 58 l0 45 195 0 c130 0 195
-3 196 -10z m2 -546 l1 -175 -70 -5 c-38 -3 -126 -4 -196 -2 l-128 3 0 52 c0
75 -10 86 -56 64 -49 -24 -58 -13 -57 69 0 82 11 94 58 68 44 -24 55 -12 55
59 l0 47 197 -2 196 -3 0 -175z"/>
<path d="M1260 6930 c0 -47 4 -80 10 -80 6 0 10 33 10 80 0 47 -4 80 -10 80
-6 0 -10 -33 -10 -80z"/>
<path d="M1790 6930 c0 -86 16 -110 22 -32 4 63 -1 112 -13 112 -5 0 -9 -36
-9 -80z"/>
<path d="M2130 7000 c0 -5 5 -10 10 -10 6 0 10 5 10 10 0 6 -4 10 -10 10 -5 0
-10 -4 -10 -10z"/>
<path d="M307 6986 c-11 -27 -8 -36 8 -36 16 0 17 5 6 34 -7 18 -8 18 -14 2z"/>
<path d="M340 6975 c0 -14 4 -25 9 -25 5 0 8 11 7 25 -1 33 -16 33 -16 0z"/>
<path d="M530 6925 l0 -75 61 0 c37 0 58 4 54 10 -3 6 -26 10 -51 10 -40 0
-44 2 -44 25 0 23 4 25 46 25 27 0 43 4 39 10 -3 6 -24 10 -46 10 -32 0 -39 3
-39 20 0 17 7 20 45 20 25 0 45 5 45 10 0 6 -25 10 -55 10 l-55 0 0 -75z"/>
<path d="M1380 6985 c-21 -25 -7 -49 38 -64 31 -9 42 -18 40 -30 -4 -19 -58
-28 -68 -11 -4 7 -13 11 -20 8 -9 -3 -8 -9 5 -21 23 -24 83 -19 101 8 17 27 6
43 -42 60 -21 7 -39 19 -39 27 0 17 42 23 59 9 17 -14 29 -2 15 16 -15 17 -73
17 -89 -2z"/>
<path d="M1740 6986 c0 -9 -4 -16 -9 -16 -9 0 -7 -40 5 -97 2 -13 11 -23 19
-23 17 0 20 16 6 25 -13 8 -11 68 3 78 8 6 7 10 -2 14 -6 2 -10 9 -7 13 3 5 1
11 -5 15 -5 3 -10 -1 -10 -9z"/>
<path d="M773 6976 c-6 -8 -9 -17 -5 -21 4 -3 7 -21 8 -38 3 -64 4 -67 26 -67
19 0 20 2 6 18 -16 19 -15 85 2 90 5 2 3 10 -4 18 -17 17 -18 17 -33 0z"/>
<path d="M675 6939 c15 -28 15 -33 0 -56 -21 -32 -9 -45 14 -14 l17 23 16 -24
c9 -12 19 -20 23 -16 3 3 -1 18 -10 32 -16 24 -16 28 0 52 22 33 9 46 -14 15
l-19 -24 -11 21 c-6 12 -16 22 -22 22 -5 0 -2 -14 6 -31z"/>
<path d="M848 6959 c-12 -7 -18 -22 -18 -49 0 -45 25 -66 66 -56 34 9 30 27
-5 20 -17 -4 -32 -1 -36 6 -10 16 1 24 38 24 37 1 47 24 22 50 -19 18 -42 20
-67 5z m60 -26 c2 -9 -7 -13 -27 -13 -30 0 -39 9 -24 24 11 10 46 3 51 -11z"/>
<path d="M950 6908 c0 -32 4 -58 10 -58 6 0 10 20 10 44 0 34 5 47 23 59 22
15 22 15 -10 15 l-33 -1 0 -59z"/>
<path d="M1020 6908 c0 -32 4 -58 10 -58 6 0 10 19 10 43 0 46 14 69 36 60 9
-3 14 -22 14 -54 0 -27 5 -49 10 -49 6 0 10 7 11 15 6 94 1 104 -50 102 l-41
-1 0 -58z"/>
<path d="M1150 6955 c-11 -13 -8 -15 20 -13 19 2 35 -2 37 -9 3 -9 -6 -13 -26
-13 -35 0 -54 -25 -40 -52 7 -13 21 -17 59 -16 35 1 47 5 40 12 -5 5 -10 26
-10 46 0 20 -5 41 -12 48 -17 17 -53 15 -68 -3z m60 -55 c0 -3 -6 -14 -12 -23
-16 -20 -44 -7 -35 16 5 15 47 20 47 7z"/>
<path d="M1515 6905 l25 -64 -22 -15 c-25 -18 -16 -36 10 -20 20 13 78 168 60
162 -6 -2 -16 -18 -22 -35 -17 -48 -24 -49 -37 -4 -7 23 -18 41 -25 41 -10 0
-7 -18 11 -65z"/>
<path d="M1614 6908 c1 -66 20 -74 22 -9 1 47 22 70 40 47 5 -8 9 -33 8 -56
-1 -26 3 -39 10 -37 14 5 15 95 1 107 -5 4 -26 8 -46 7 l-37 -1 2 -58z"/>
<path d="M1820 6961 c0 -6 9 -11 20 -11 17 0 20 -7 20 -50 0 -28 5 -50 10 -50
7 0 10 22 8 58 -3 54 -4 57 -30 60 -16 2 -28 -1 -28 -7z"/>
<path d="M1918 6953 c-32 -39 -10 -103 36 -103 26 0 53 16 43 26 -4 4 -12 3
-18 -3 -15 -15 -49 -4 -49 16 0 12 9 16 38 16 32 0 36 3 34 20 -8 46 -55 61
-84 28z m62 -18 c0 -9 -9 -15 -25 -15 -16 0 -25 6 -25 15 0 9 9 15 25 15 16 0
25 -6 25 -15z"/>
<path d="M2031 6956 c-10 -12 -8 -19 8 -35 12 -12 28 -21 36 -21 8 0 15 -7 15
-16 0 -13 -7 -15 -36 -11 -30 5 -34 4 -24 -8 16 -19 55 -19 74 0 21 22 10 42
-30 55 -28 10 -33 15 -23 26 8 10 16 11 31 3 22 -12 34 -6 23 10 -9 16 -61 13
-74 -3z"/>
<path d="M2138 6964 c-6 -37 -2 -114 7 -114 12 0 14 105 2 116 -4 4 -8 3 -9
-2z"/>
<path d="M2193 6964 c-26 -11 -14 -45 22 -60 42 -17 37 -39 -7 -30 -21 4 -28
2 -26 -7 6 -18 62 -21 77 -4 16 21 4 44 -30 56 -40 14 -38 35 2 27 22 -4 29
-2 27 7 -5 13 -44 19 -65 11z"/>
<path d="M2295 6947 c-24 -38 -3 -97 35 -97 25 0 50 10 50 20 0 5 -15 6 -34 3
-25 -4 -35 -1 -39 11 -4 9 -1 16 6 17 7 1 26 2 42 3 24 1 29 5 27 21 -9 49
-60 62 -87 22z m65 -13 c0 -8 -10 -14 -25 -14 -23 0 -34 18 -19 32 10 10 44
-4 44 -18z"/>
<path d="M2409 6965 c0 0 -1 -26 -2 -58 -2 -35 2 -56 8 -54 5 2 11 21 12 42 0
23 8 44 17 51 23 16 20 24 -9 22 -14 -1 -25 -3 -26 -3z"/>
<path d="M319 3475 c-1 -14 -1 -36 -1 -50 0 -55 -2 -54 67 -26 36 14 65 31 65
37 0 6 -21 19 -47 29 -27 10 -52 22 -57 26 -17 15 -26 10 -27 -16z m91 -35 c0
-3 -15 -14 -34 -22 l-34 -17 -4 30 c-3 16 -3 31 -1 33 6 6 73 -16 73 -24z"/>
<path d="M1097 6613 c-4 -3 -7 -42 -7 -85 l0 -78 65 0 65 0 0 85 0 85 -58 0
c-32 0 -62 -3 -65 -7z m111 -78 l0 -75 -54 0 c-53 0 -54 0 -54 29 0 17 5 33
10 36 6 3 10 12 10 18 0 7 -4 6 -10 -3 -7 -11 -10 -6 -10 21 0 20 3 39 7 42 3
4 28 7 54 7 l48 0 -1 -75z"/>
<path d="M1130 6570 c-11 -8 -9 -9 11 -5 17 4 32 1 43 -10 9 -9 16 -12 16 -6
0 10 -32 31 -47 31 -4 0 -15 -5 -23 -10z"/>
<path d="M1110 6514 c0 -19 28 -36 52 -31 21 4 20 4 -4 6 -15 0 -32 9 -37 19
-6 9 -11 12 -11 6z"/>
<path d="M1020 6521 c0 -6 -21 -12 -52 -13 l-53 -2 50 -3 c27 -3 52 -9 56 -14
3 -6 10 -4 18 4 9 11 8 17 -4 27 -10 9 -15 9 -15 1z"/>
<path d="M900 6011 c0 -6 5 -13 10 -16 6 -3 10 1 10 9 0 9 -4 16 -10 16 -5 0
-10 -4 -10 -9z"/>
<path d="M885 3919 c33 -105 44 -116 70 -75 19 29 25 80 10 82 -5 0 -9 -7 -7
-17 4 -22 -17 -64 -26 -54 -4 4 -12 23 -17 43 -6 19 -16 37 -24 40 -10 3 -11
-2 -6 -19z"/>
<path d="M965 1950 c-3 -5 1 -10 9 -10 23 0 20 -5 -26 -49 -24 -22 -39 -43
-35 -47 4 -4 28 12 52 36 32 31 45 39 45 27 0 -9 5 -17 10 -17 6 0 10 16 10
35 0 32 -2 35 -29 35 -17 0 -33 -4 -36 -10z"/>
<path d="M910 1344 c0 -3 20 -25 44 -50 36 -36 41 -44 25 -44 -11 0 -18 -4
-14 -9 3 -5 19 -9 35 -9 27 1 30 4 30 35 0 18 -4 33 -10 33 -5 0 -10 -8 -10
-17 0 -12 -12 -5 -43 25 -40 39 -57 50 -57 36z"/>
<path d="M900 751 c0 -4 7 -14 15 -21 14 -12 14 -15 -1 -31 -10 -11 -14 -22
-10 -27 4 -4 14 2 22 12 13 18 15 18 32 3 26 -24 39 -21 17 3 -17 18 -17 21
-1 45 18 27 7 35 -14 10 -11 -14 -15 -14 -36 0 -13 9 -24 11 -24 6z"/>
<path d="M931 383 c4 -27 -3 -43 -21 -43 -11 0 -20 -4 -20 -10 0 -5 3 -9 8 -9
22 4 32 -3 32 -21 0 -11 5 -20 10 -20 6 0 10 9 10 20 0 13 7 20 20 20 11 0 20
5 20 10 0 6 -9 10 -20 10 -15 0 -20 7 -20 25 0 14 -4 25 -10 25 -5 0 -9 -3 -9
-7z"/>
<path d="M2250 6235 c0 -30 -4 -55 -9 -55 -5 0 -25 7 -44 15 -34 14 -37 14
-47 -5 -25 -47 -19 -177 9 -194 4 -3 24 3 43 14 20 10 39 16 42 13 3 -4 6 -66
6 -140 l0 -133 2230 0 2230 0 0 270 0 270 -2230 0 -2230 0 0 -55z m4437 32 c7
-8 11 -449 5 -479 -4 -17 -118 -18 -2213 -18 -1760 0 -2209 3 -2210 13 0 6 -2
59 -3 117 -2 58 -4 113 -4 123 -2 21 -35 22 -67 1 -22 -14 -24 -14 -34 5 -15
28 -14 124 3 146 12 17 14 17 37 2 28 -20 58 -22 60 -4 1 6 3 28 4 47 2 19 4
38 4 42 1 3 9 8 18 10 34 6 4393 1 4400 -5z"/>
<path d="M3059 6203 c-1 -10 0 -26 1 -37 1 -10 -1 -29 -4 -42 -6 -23 -8 -24
-36 -9 -16 8 -36 15 -45 15 -37 0 -50 -149 -16 -191 l18 -23 37 22 c20 12 37
18 37 14 1 -6 6 -73 8 -115 1 -16 16 -17 214 -15 l212 3 1 185 c0 102 -2 191
-4 198 -3 9 -55 12 -213 12 -192 0 -209 -1 -210 -17z m408 -183 l0 -180 -195
2 -195 3 -4 54 c-3 70 -13 79 -59 57 -47 -22 -54 -13 -54 77 0 77 10 88 57 63
40 -20 54 -8 57 50 2 27 4 50 5 52 0 1 88 2 194 2 l194 0 0 -180z"/>
<path d="M3227 6093 c-3 -5 -4 -21 -3 -38 1 -27 4 -30 33 -27 35 3 47 -9 38
-38 -7 -22 -35 -26 -53 -8 -17 17 -28 2 -12 -17 28 -34 90 -7 90 39 0 31 -24
50 -54 44 -19 -4 -24 -1 -23 14 1 13 9 18 34 18 18 0 33 5 33 10 0 12 -77 14
-83 3z"/>
<path d="M3960 6160 l0 -60 -36 17 c-45 22 -67 9 -74 -43 -7 -55 4 -134 20
-144 9 -5 28 -1 52 11 l38 19 0 -70 0 -70 215 0 215 0 0 200 0 200 -215 0
-215 0 0 -60z m410 -140 l0 -180 -195 0 -195 0 0 49 c0 84 -13 96 -70 66 -27
-14 -30 -14 -38 2 -9 19 -8 123 2 148 5 14 11 13 44 -4 49 -25 62 -14 62 51
l0 48 195 0 195 0 0 -180z"/>
<path d="M4140 6085 c-7 -9 -13 -36 -13 -60 0 -51 16 -75 49 -75 29 0 54 35
54 75 0 61 -58 99 -90 60z m64 -32 c7 -35 3 -60 -11 -74 -29 -29 -61 30 -42
78 12 33 46 30 53 -4z"/>
<path d="M4870 6160 l0 -60 -36 17 c-54 26 -68 11 -72 -73 -5 -116 9 -137 72
-104 l35 20 3 -68 3 -67 270 0 270 0 3 198 2 197 -275 0 -275 0 0 -60z m530
-140 l0 -180 -255 0 -255 0 0 60 c0 71 -15 83 -62 55 -39 -23 -49 -12 -52 61
-4 97 4 108 60 79 39 -20 54 -4 54 56 l0 49 255 0 255 0 0 -180z"/>
<path d="M5050 6085 c-15 -19 -5 -34 12 -17 7 7 20 12 30 12 29 0 21 -33 -17
-70 -49 -48 -46 -60 16 -60 31 0 48 4 44 10 -3 6 -19 10 -36 10 -37 0 -37 10
2 39 24 18 30 29 27 54 -3 28 -7 32 -34 35 -19 2 -36 -3 -44 -13z"/>
<path d="M5170 6085 c-19 -23 -21 -86 -4 -112 17 -27 56 -30 75 -7 17 20 16
98 -1 119 -16 19 -54 19 -70 0z m54 -13 c11 -17 13 -58 5 -79 -17 -46 -60 -16
-54 37 1 14 3 31 4 38 1 13 37 17 45 4z"/>
<path d="M5900 6160 c0 -64 -3 -68 -34 -45 -30 23 -65 19 -71 -7 -13 -59 -9
-149 9 -173 13 -18 14 -18 55 3 l41 22 0 -70 0 -70 333 2 332 3 1 198 1 197
-333 0 -334 0 0 -60z m650 -140 l0 -180 -315 0 -315 0 0 53 c0 72 -10 85 -52
69 -49 -19 -50 -19 -58 10 -9 29 -5 121 5 137 4 7 19 4 42 -9 48 -25 63 -13
63 51 l0 49 315 0 315 0 0 -180z"/>
<path d="M6080 6085 c-7 -9 -9 -19 -5 -23 4 -4 10 -1 12 6 3 6 16 12 29 12 30
0 33 -30 4 -37 -11 -3 -20 -9 -20 -14 0 -5 9 -9 20 -9 15 0 20 -7 20 -25 0
-27 -26 -35 -48 -13 -17 17 -28 2 -12 -17 16 -20 54 -19 74 1 20 19 20 24 0
52 -8 12 -10 22 -5 22 17 0 13 47 -5 54 -27 10 -51 7 -64 -9z"/>
<path d="M6194 6075 c-18 -28 -14 -85 7 -111 15 -19 53 -18 70 2 17 20 16 98
-1 119 -19 23 -57 18 -76 -10z m67 -12 c5 -60 -4 -93 -26 -93 -21 0 -37 46
-30 82 5 21 12 28 31 28 16 0 24 -6 25 -17z"/>
<path d="M6317 6082 c-23 -26 -22 -94 1 -115 41 -38 82 -9 82 58 0 67 -46 98
-83 57z m58 -57 c0 -41 -3 -50 -19 -53 -22 -5 -36 14 -36 50 0 42 10 59 34 56
18 -3 21 -10 21 -53z"/>
<path d="M3670 6092 c0 -10 -9 -25 -20 -35 -13 -11 -20 -29 -20 -52 0 -24 6
-39 20 -47 11 -7 20 -23 20 -35 0 -13 5 -23 10 -23 6 0 10 10 10 23 0 12 9 28
20 35 30 19 26 102 -6 102 -8 0 -14 10 -14 25 0 14 -4 25 -10 25 -5 0 -10 -8
-10 -18z m0 -83 c0 -24 -4 -38 -10 -34 -17 10 -11 75 7 75 2 0 3 -18 3 -41z
m40 -6 c0 -12 -4 -25 -10 -28 -6 -4 -10 11 -10 37 0 31 3 39 10 28 5 -8 10
-25 10 -37z"/>
<path d="M2453 6072 c-7 -4 -16 -20 -22 -35 -9 -22 -8 -27 5 -27 8 0 13 4 10
9 -3 4 1 16 8 26 12 17 15 14 31 -34 12 -38 21 -51 33 -49 20 4 44 48 34 62
-3 6 -11 -1 -16 -16 -13 -38 -23 -35 -36 11 -11 43 -30 64 -47 53z"/>
<path d="M5610 6057 c0 -20 -5 -27 -20 -27 -11 0 -20 -4 -20 -10 0 -5 9 -10
20 -10 14 0 20 -7 20 -22 0 -12 3 -18 8 -14 4 4 7 13 7 19 0 7 10 13 23 15 27
4 29 22 2 22 -11 0 -21 5 -21 10 -1 6 -2 14 -3 19 -3 23 -16 21 -16 -2z"/>
<path d="M2736 6043 c12 -46 34 -93 44 -93 24 0 56 109 34 117 -6 2 -11 -12
-12 -33 -2 -37 -15 -64 -25 -47 -2 4 -10 25 -16 46 -14 43 -35 51 -25 10z"/>
<path d="M4546 6055 c4 -8 10 -15 15 -15 14 0 10 -22 -8 -42 -9 -10 -11 -18
-6 -18 6 0 16 7 23 15 12 14 15 14 31 -1 25 -22 37 -10 15 15 -15 16 -15 19
-1 31 24 20 17 34 -9 17 -21 -14 -26 -14 -36 -2 -16 19 -31 19 -24 0z"/>
<path d="M7190 6167 c0 -30 -3 -56 -6 -60 -4 -3 -19 0 -35 8 -43 23 -56 18
-69 -21 -15 -45 -7 -141 14 -162 13 -13 19 -12 49 6 20 11 38 18 41 15 3 -4 6
-35 6 -70 l0 -63 390 0 390 0 0 200 0 200 -390 0 -390 0 0 -53z m762 21 c3
-11 2 -314 -1 -340 -1 -5 -169 -8 -373 -8 l-373 0 -1 60 c0 33 -4 63 -8 67 -6
6 -21 2 -77 -21 -12 -5 -18 -1 -23 16 -9 35 -7 104 4 132 l9 26 36 -22 c45
-26 57 -16 61 49 1 26 3 49 3 51 1 1 167 2 370 2 286 0 370 -3 373 -12z"/>
<path d="M7378 6086 c-22 -17 -23 -24 -1 -22 26 2 28 -85 2 -91 -35 -10 -19
-23 26 -23 25 0 45 5 45 10 0 6 -7 10 -15 10 -15 0 -18 13 -18 93 1 39 -10 45
-39 23z"/>
<path d="M7486 6078 c-27 -38 -18 -113 15 -123 32 -11 58 4 67 38 21 79 -41
143 -82 85z m59 -53 c0 -41 -3 -50 -19 -53 -22 -5 -36 14 -36 50 0 42 10 59
34 56 18 -3 21 -10 21 -53z"/>
<path d="M7606 6084 c-18 -18 -21 -85 -6 -115 13 -24 52 -25 73 -1 22 24 22
95 1 116 -8 9 -24 16 -34 16 -10 0 -26 -7 -34 -16z m58 -20 c9 -22 7 -67 -3
-82 -5 -8 -17 -12 -27 -10 -14 2 -20 13 -22 42 -2 21 -1 44 2 52 7 19 42 18
50 -2z"/>
<path d="M7722 6088 c-33 -41 -11 -138 31 -138 34 0 52 26 52 75 0 23 -6 49
-14 58 -16 20 -54 22 -69 5z m63 -42 c8 -38 -8 -76 -30 -76 -18 0 -31 27 -29
61 1 35 11 49 34 49 14 0 21 -10 25 -34z"/>
<path d="M8457 6213 c-3 -5 -5 -24 -5 -43 0 -75 1 -72 -32 -55 -61 32 -80 11
-80 -88 0 -47 5 -71 18 -86 l17 -21 38 20 37 20 1 -32 c1 -18 1 -39 -1 -47 -1
-7 1 -24 4 -37 l6 -24 300 0 300 0 0 200 0 200 -299 0 c-165 0 -302 -3 -304
-7z m583 -193 l0 -180 -285 0 -285 0 0 60 c0 70 -12 81 -63 57 -17 -9 -36 -12
-40 -8 -10 10 -12 119 -3 148 l7 23 38 -20 c48 -24 61 -13 61 52 l0 48 285 0
285 0 0 -180z"/>
<path d="M8636 6084 c-18 -18 -21 -85 -6 -115 13 -24 52 -25 73 -1 23 26 22
94 -1 115 -23 21 -46 22 -66 1z m58 -20 c9 -22 7 -67 -3 -82 -5 -8 -17 -12
-27 -10 -14 2 -20 13 -22 42 -2 21 -1 44 2 52 7 19 42 18 50 -2z"/>
<path d="M8822 6088 c-17 -17 -15 -33 3 -18 13 11 15 5 15 -43 0 -48 -3 -56
-22 -62 -22 -8 -22 -8 5 -12 15 -2 39 -2 55 0 26 4 26 4 5 12 -21 7 -23 14
-23 71 0 65 -11 79 -38 52z"/>
<path d="M8745 5960 c3 -5 10 -10 16 -10 5 0 9 5 9 10 0 6 -7 10 -16 10 -8 0
-12 -4 -9 -10z"/>
<path d="M9540 6160 c0 -64 -3 -68 -34 -45 -51 39 -76 8 -76 -94 0 -98 21
-116 87 -73 22 14 22 13 25 -55 l3 -68 213 -3 212 -2 0 200 0 200 -215 0 -215
0 0 -60z m411 33 c1 -11 1 -239 0 -300 l-1 -53 -195 0 -195 0 0 49 c0 83 -12
95 -66 66 -16 -8 -32 -11 -37 -6 -13 13 -16 110 -5 142 l10 28 37 -19 c48 -24
61 -13 61 52 l0 48 195 0 c107 0 195 -3 196 -7z"/>
<path d="M9720 6085 c-16 -19 -16 -84 -1 -113 13 -25 52 -29 70 -8 21 26 25
83 7 111 -19 28 -57 33 -76 10z m61 -12 c11 -66 3 -103 -22 -103 -31 0 -45 66
-23 102 6 10 44 11 45 1z"/>
<path d="M1649 6100 c0 -5 0 -30 0 -55 0 -83 1 -95 11 -95 6 0 10 33 10 80 0
47 -4 80 -10 80 -5 0 -10 -4 -11 -10z"/>
<path d="M1690 6030 c0 -47 4 -80 10 -80 6 0 10 33 10 80 0 47 -4 80 -10 80
-6 0 -10 -33 -10 -80z"/>
<path d="M1730 6029 c0 -60 3 -80 12 -77 18 6 18 158 1 158 -9 0 -13 -23 -13
-81z"/>
<path d="M6891 6087 c0 -10 -11 -22 -23 -27 -17 -6 -19 -9 -6 -9 19 -1 14 -29
-6 -43 -7 -5 -6 -8 3 -8 9 0 11 -8 7 -25 -8 -33 2 -32 14 1 12 31 36 26 33 -7
-2 -23 -1 -23 9 3 7 15 19 29 27 31 14 4 14 5 -1 6 -22 1 -12 41 11 42 10 0
11 2 4 6 -7 2 -13 14 -14 26 l0 22 -11 -22 c-6 -13 -17 -23 -24 -23 -7 0 -15
10 -17 23 -3 15 -5 17 -6 4z m32 -43 c9 -10 -4 -34 -19 -34 -8 0 -14 9 -14 20
0 19 19 27 33 14z"/>
<path d="M9250 6057 c0 -20 -5 -27 -20 -27 -11 0 -20 -4 -20 -10 0 -5 9 -10
20 -10 14 0 20 -7 20 -21 0 -12 4 -17 11 -14 6 4 8 10 5 13 -10 9 15 31 30 25
8 -3 14 0 14 6 0 6 -9 11 -20 11 -11 0 -21 5 -21 10 -1 6 -2 14 -3 19 -3 23
-16 21 -16 -2z"/>
<path d="M1925 6049 c34 -107 46 -116 76 -59 22 41 25 80 5 80 -9 0 -12 -7 -9
-18 6 -24 -15 -78 -27 -66 -4 5 -12 24 -17 43 -5 19 -15 37 -22 39 -10 3 -11
-2 -6 -19z"/>
<path d="M8133 6052 c21 -23 21 -36 2 -52 -9 -7 -13 -15 -10 -18 3 -3 13 2 24
12 17 16 20 16 35 0 22 -21 31 -12 15 14 -11 18 -10 24 5 41 23 25 10 28 -16
4 -17 -15 -19 -15 -36 0 -25 23 -39 22 -19 -1z"/>
<path d="M1666 5578 c-11 -36 -36 -135 -36 -141 0 -4 4 -7 9 -7 5 0 18 36 29
80 11 44 16 80 11 80 -6 0 -11 -6 -13 -12z"/>
<path d="M1836 5555 c-8 -42 -46 -88 -86 -105 -16 -7 -30 -16 -30 -21 0 -10
65 15 87 33 30 25 66 128 44 128 -5 0 -12 -16 -15 -35z"/>
<path d="M1650 4964 c0 -8 5 -12 10 -9 6 3 10 10 10 16 0 5 -4 9 -10 9 -5 0
-10 -7 -10 -16z"/>
<path d="M1649 4533 c0 -5 -2 -47 -2 -96 -2 -84 -1 -87 21 -87 12 0 22 5 22
10 0 6 -6 10 -12 10 -10 0 -12 22 -11 85 2 50 -1 85 -7 85 -6 0 -10 -3 -11 -7z"/>
<path d="M1647 4163 c-3 -7 -2 -124 2 -171 1 -7 5 -11 10 -8 5 3 9 42 8 87 0
59 4 83 14 90 11 7 9 9 -8 9 -12 0 -24 -3 -26 -7z"/>
<path d="M1675 3625 c0 -62 -3 -85 -12 -85 -7 0 -13 -4 -13 -10 0 -5 10 -10
23 -10 22 0 22 3 22 92 0 53 -4 93 -10 95 -7 2 -10 -28 -10 -82z"/>
<path d="M1659 3181 c10 -6 15 -33 16 -88 3 -97 3 -98 12 -89 4 4 8 47 8 96 1
90 1 90 -25 90 -18 0 -21 -3 -11 -9z"/>
<path d="M1653 2682 c21 -23 21 -36 2 -52 -9 -7 -13 -15 -10 -18 3 -3 14 3 25
13 18 16 20 16 35 1 24 -24 41 -20 19 5 -15 17 -16 23 -5 41 16 26 5 37 -13
12 -14 -18 -15 -18 -33 -1 -26 23 -41 22 -20 -1z"/>
<path d="M1680 2305 c0 -18 -5 -25 -20 -25 -11 0 -20 -5 -20 -10 0 -6 8 -10
18 -8 11 2 18 -4 20 -19 4 -31 22 -29 22 1 0 19 4 24 20 21 11 -2 20 0 20 6 0
5 -9 9 -20 9 -15 0 -20 7 -20 25 0 14 -4 25 -10 25 -5 0 -10 -11 -10 -25z"/>
<path d="M3100 5197 c0 -30 -3 -56 -6 -60 -3 -3 -22 2 -41 11 -34 16 -35 16
-55 -8 -17 -21 -19 -36 -16 -92 5 -85 23 -109 65 -88 15 8 33 14 38 15 6 0 12
-55 15 -135 l5 -135 1240 -1 c682 0 1245 1 1250 3 8 3 13 438 6 531 -1 9 -258
12 -1251 12 l-1250 0 0 -53z m2484 -214 c-1 -137 -2 -251 -3 -254 -2 -9 -2448
-5 -2457 4 -5 4 -8 62 -9 127 0 140 -7 153 -60 124 -46 -24 -55 -13 -55 71 0
84 9 95 55 71 44 -24 55 -15 60 50 2 27 4 50 4 52 1 1 556 2 1234 2 l1233 0
-2 -247z"/>
<path d="M4084 5171 c-2 -2 -4 -26 -4 -52 0 -26 -4 -51 -10 -54 -5 -3 -24 2
-41 10 -27 15 -33 15 -46 2 -20 -20 -28 -116 -13 -161 13 -39 29 -44 70 -21
14 8 28 14 33 15 4 0 7 -29 7 -65 l0 -65 300 0 300 0 1 28 c0 30 0 228 0 312
l-1 55 -296 0 c-162 0 -297 -2 -300 -4z m581 -193 c0 -152 -2 -178 -15 -179
-8 -1 -135 -2 -282 -3 -261 -1 -268 -1 -269 19 -6 114 -12 123 -63 98 -32 -15
-38 -15 -47 -3 -11 17 -8 145 4 156 4 5 21 0 36 -9 40 -23 61 -22 63 6 0 12 2
31 3 42 1 11 3 27 4 36 1 14 32 16 283 15 l283 -1 0 -177z"/>
<path d="M4255 5043 c-21 -20 -16 -110 6 -124 21 -13 46 -11 63 7 18 18 21 85
6 115 -13 24 -53 25 -75 2z m60 -58 c0 -41 -3 -50 -19 -53 -24 -5 -36 14 -36
59 0 42 7 51 35 47 17 -3 20 -10 20 -53z"/>
<path d="M4428 5048 c-2 -7 -4 -24 -4 -38 1 -22 5 -25 33 -22 35 3 47 -9 38
-38 -7 -22 -35 -26 -53 -8 -17 17 -28 2 -12 -17 28 -34 90 -7 90 39 0 31 -24
50 -54 44 -19 -4 -24 -1 -23 14 1 13 9 18 34 18 18 0 33 5 33 10 0 15 -77 12
-82 -2z"/>
<path d="M4370 4926 c0 -9 5 -16 10 -16 6 0 10 4 10 9 0 6 -4 13 -10 16 -5 3
-10 -1 -10 -9z"/>
<path d="M4860 5172 c-5 -2 -10 -28 -10 -58 0 -30 -2 -54 -5 -54 -4 0 -19 7
-35 15 -53 28 -70 5 -70 -98 0 -90 26 -118 74 -82 32 24 36 18 36 -50 l0 -65
305 0 305 0 -2 197 -3 198 -292 0 c-161 0 -297 -1 -303 -3z m580 -193 c0 -160
-2 -177 -17 -180 -10 -3 -137 -4 -283 -4 l-265 0 -5 62 c-3 34 -8 65 -12 69
-5 4 -24 -1 -43 -12 -47 -25 -58 -12 -58 71 0 82 9 92 57 68 46 -21 56 -11 56
58 l0 45 285 0 285 0 0 -177z"/>
<path d="M5030 5045 c-16 -19 -5 -34 12 -17 7 7 20 12 30 12 29 0 21 -33 -17
-70 -49 -48 -46 -60 16 -60 31 0 48 4 44 10 -3 6 -23 10 -43 10 l-37 0 31 28
c46 40 58 67 38 86 -20 20 -58 21 -74 1z"/>
<path d="M5200 5021 l0 -40 35 6 c33 5 35 4 35 -21 0 -31 -24 -44 -51 -27 -15
9 -19 8 -19 -4 0 -18 48 -31 68 -18 42 26 25 93 -24 93 -15 0 -24 6 -24 15 0
10 10 15 29 15 17 0 33 5 36 10 4 6 -12 10 -39 10 l-46 0 0 -39z"/>
<path d="M5146 4925 c-3 -9 0 -15 9 -15 16 0 20 16 6 24 -5 3 -11 -1 -15 -9z"/>
<path d="M3282 5097 c-24 -11 -37 -44 -29 -74 3 -10 5 -4 6 14 1 36 31 64 62
56 10 -3 19 -3 19 0 0 11 -37 13 -58 4z"/>
<path d="M3370 5099 c0 -5 18 -7 40 -6 48 2 61 -10 67 -59 5 -50 13 -57 13
-12 0 52 -26 79 -78 82 -23 1 -42 -1 -42 -5z"/>
<path d="M3660 5035 c0 -19 4 -35 9 -35 4 0 7 14 5 30 -2 19 1 30 9 30 8 0 12
-24 12 -85 0 -58 -4 -85 -12 -85 -7 0 -11 16 -9 46 1 25 -1 47 -6 50 -4 3 -8
-20 -8 -50 l0 -56 38 0 c24 0 32 3 24 9 -20 12 -24 148 -5 167 13 12 10 14
-21 14 -34 0 -36 -2 -36 -35z"/>
<path d="M3773 5063 c14 -4 17 -17 17 -88 0 -71 -3 -84 -17 -88 -10 -3 -1 -5
20 -6 l37 -1 0 95 0 95 -37 -1 c-21 -1 -30 -3 -20 -6z m47 -88 c0 -50 -4 -85
-10 -85 -6 0 -10 35 -10 85 0 50 4 85 10 85 6 0 10 -35 10 -85z"/>
<path d="M3343 5015 c-21 -14 -24 -40 -8 -65 9 -14 48 -13 63 2 14 14 16 54 2
63 -6 4 -7 -5 -4 -23 5 -25 2 -31 -15 -37 -25 -8 -50 9 -47 31 3 18 26 35 38
28 4 -3 8 0 8 5 0 15 -12 14 -37 -4z"/>
<path d="M3246 4985 c4 -8 8 -15 10 -15 2 0 4 7 4 15 0 8 -4 15 -10 15 -5 0
-7 -7 -4 -15z"/>
<path d="M3478 4945 c-2 -19 0 -35 4 -35 4 0 8 16 8 35 0 19 -2 35 -4 35 -2 0
-6 -16 -8 -35z"/>
<path d="M3250 4925 c8 -36 29 -69 38 -61 2 3 -3 12 -12 21 -9 9 -16 30 -16
46 0 16 -4 29 -9 29 -5 0 -5 -15 -1 -35z"/>
<path d="M3450 4880 l-25 -21 28 12 c15 7 27 16 27 21 0 11 -1 10 -30 -12z"/>
<path d="M3300 4870 c0 -5 5 -10 11 -10 5 0 7 5 4 10 -3 6 -8 10 -11 10 -2 0
-4 -4 -4 -10z"/>
<path d="M3334 4868 c-3 -4 6 -8 20 -8 14 0 26 4 26 8 0 4 -9 8 -21 8 -11 0
-23 -4 -25 -8z"/>
<path d="M3395 4870 c-3 -5 1 -10 10 -10 9 0 13 5 10 10 -3 6 -8 10 -10 10 -2
0 -7 -4 -10 -10z"/>
<path d="M6089 5165 c0 -5 -1 -29 -2 -52 -1 -23 -5 -45 -9 -48 -3 -4 -21 1
-38 10 -30 15 -34 15 -48 1 -20 -19 -28 -130 -13 -168 12 -32 36 -36 69 -12
32 22 40 11 38 -56 l-2 -60 216 0 215 0 0 195 c0 107 -2 196 -5 196 -3 1 -98
2 -212 3 -135 1 -208 -2 -209 -9z m407 -187 c1 -155 0 -177 -15 -180 -9 -2
-97 -3 -196 -3 l-179 1 -2 58 c-2 72 -12 84 -52 61 -49 -29 -62 -16 -62 62 0
90 7 99 54 77 45 -22 56 -13 61 52 2 27 4 49 4 50 1 0 88 0 194 0 l192 -1 1
-177z"/>
<path d="M6278 5049 c-22 -12 -24 -31 -3 -23 12 5 15 -4 15 -45 0 -39 -4 -51
-15 -51 -8 0 -15 -4 -15 -10 0 -5 20 -10 45 -10 25 0 45 5 45 10 0 6 -8 10
-19 10 -15 0 -18 8 -19 53 -1 87 0 86 -34 66z"/>
<path d="M7004 5171 c-2 -2 -4 -26 -4 -52 0 -26 -4 -51 -10 -54 -5 -3 -24 2
-41 10 -29 16 -33 16 -48 1 -12 -13 -16 -36 -16 -96 0 -95 10 -110 58 -92 17
7 37 14 42 15 6 1 11 -26 13 -60 l3 -63 213 0 213 0 -1 197 -2 198 -208 0
c-114 0 -209 -2 -212 -4z m401 -195 l0 -180 -183 0 c-101 -1 -189 2 -195 6 -6
4 -12 30 -13 58 -2 67 -12 76 -58 53 -47 -22 -56 -11 -56 72 0 83 9 94 54 70
44 -24 57 -14 61 47 2 23 4 46 4 49 1 4 88 6 194 5 l192 -1 0 -179z"/>
<path d="M7174 5035 c-19 -29 -14 -102 8 -116 20 -13 45 -11 62 7 18 18 21 85
6 115 -15 28 -56 24 -76 -6z m61 -50 c0 -41 -3 -50 -19 -53 -22 -5 -36 14 -36
50 0 42 10 59 34 56 18 -3 21 -10 21 -53z"/>
<path d="M2410 4970 l0 -80 65 0 65 0 0 80 0 80 -65 0 -65 0 0 -80z m120 0 l0
-70 -55 0 -55 0 0 70 0 70 55 0 55 0 0 -70z"/>
<path d="M2445 5019 c-4 -6 -4 -13 -1 -16 3 -4 6 -1 6 6 0 9 10 12 29 9 17 -2
28 -1 25 4 -7 12 -52 10 -59 -3z"/>
<path d="M2486 4979 c-11 -10 -17 -21 -14 -24 2 -3 15 6 28 20 27 29 14 33
-14 4z"/>
<path d="M2460 4920 c0 -5 7 -10 15 -10 8 0 15 5 15 10 0 6 -7 10 -15 10 -8 0
-15 -4 -15 -10z"/>
<path d="M6701 5028 c3 -28 -2 -37 -23 -41 -22 -3 -22 -4 4 -15 19 -8 26 -16
22 -27 -3 -8 -1 -15 5 -15 6 0 11 9 11 20 0 11 5 21 10 21 6 1 14 2 19 3 23 3
21 16 -2 16 -22 0 -27 5 -27 25 0 14 -5 25 -10 25 -6 0 -10 -6 -9 -12z"/>
<path d="M2774 5007 c11 -44 36 -97 47 -97 5 0 19 20 30 44 19 43 17 76 -3 76
-6 0 -8 -7 -4 -15 7 -19 -13 -77 -25 -70 -5 3 -13 24 -19 45 -6 22 -16 40 -21
40 -7 0 -9 -10 -5 -23z"/>
<path d="M5760 5021 c0 -5 7 -14 15 -21 14 -12 14 -15 -1 -31 -10 -11 -14 -22
-10 -27 4 -4 14 2 22 12 13 18 15 18 32 3 26 -24 35 -21 17 6 -13 21 -13 25 1
45 18 25 8 29 -17 7 -15 -14 -18 -14 -32 0 -17 17 -27 19 -27 6z"/>
<path d="M2371 4984 c0 -11 3 -14 6 -6 3 7 2 16 -1 19 -3 4 -6 -2 -5 -13z"/>
<path d="M2554 4969 c-4 -7 0 -9 14 -5 31 10 36 -11 7 -36 -33 -29 -32 -38 8
-37 25 1 27 3 9 6 l-24 5 22 23 c13 14 20 31 17 39 -7 18 -43 21 -53 5z"/>
<path d="M2412 4518 c-17 -17 -15 -33 3 -18 13 11 15 5 15 -43 0 -48 -3 -56
-22 -62 -22 -8 -22 -8 5 -12 15 -2 39 -2 55 0 26 4 26 4 5 12 -21 7 -23 14
-23 71 0 65 -11 79 -38 52z"/>
<path d="M2320 4440 c0 -5 11 -10 25 -10 14 0 25 5 25 10 0 6 -11 10 -25 10
-14 0 -25 -4 -25 -10z"/>
<path d="M2342 4148 c-17 -17 -15 -33 3 -18 13 11 15 5 15 -43 0 -48 -3 -56
-22 -62 -22 -8 -22 -8 5 -12 15 -2 39 -2 55 0 26 4 26 4 5 12 -21 7 -23 14
-23 71 0 65 -11 79 -38 52z"/>
<path d="M3130 3765 c0 -59 -5 -63 -49 -41 -32 17 -45 11 -56 -24 -12 -36 -8
-140 6 -156 15 -18 40 -18 65 1 31 23 34 19 34 -50 l0 -65 335 0 335 0 0 195
0 195 -335 0 -335 0 0 -55z m648 -141 l2 -180 -315 0 -315 -1 0 57 c0 70 -17
91 -52 66 -51 -36 -70 -10 -63 87 5 64 10 69 49 50 52 -24 66 -13 66 50 l0 54
313 -1 312 -1 3 -181z"/>
<path d="M3300 3690 c0 -5 16 -10 35 -10 36 0 43 -8 24 -27 -5 -5 -16 -31 -24
-57 -12 -40 -12 -46 0 -46 9 0 15 10 15 23 0 13 11 46 25 73 14 27 25 50 25
52 0 1 -22 2 -50 2 -27 0 -50 -4 -50 -10z"/>
<path d="M3426 3678 c-33 -47 -9 -128 38 -128 13 0 30 7 37 16 17 20 16 98 -1
119 -18 22 -56 18 -74 -7z m63 -21 c11 -29 2 -77 -15 -84 -32 -12 -47 30 -35
100 3 17 42 5 50 -16z"/>
<path d="M3551 3691 c-7 -5 -16 -29 -18 -55 -4 -36 -2 -51 12 -66 38 -42 85
-13 85 51 0 22 -5 49 -10 60 -11 20 -45 25 -69 10z m54 -66 c0 -41 -3 -50 -19
-53 -22 -5 -36 14 -36 50 0 42 10 59 34 56 18 -3 21 -10 21 -53z"/>
<path d="M3967 3813 c-2 -5 -3 -27 -2 -51 1 -23 -1 -45 -6 -48 -5 -2 -23 3
-40 11 -29 16 -33 16 -48 1 -12 -13 -16 -36 -16 -96 0 -95 10 -110 58 -92 17
7 37 14 42 15 6 1 10 -23 10 -58 l0 -60 393 -3 392 -2 0 195 0 195 -389 0
c-215 0 -392 -3 -394 -7z m763 -188 l0 -181 -370 0 c-203 0 -371 2 -372 5 0 3
-2 30 -3 59 -3 68 -13 79 -55 57 -50 -26 -60 -16 -60 62 0 90 7 99 54 77 46
-22 57 -12 61 53 1 26 3 48 4 49 0 0 168 1 371 1 l370 0 0 -182z"/>
<path d="M4158 3689 c-22 -12 -24 -31 -3 -23 12 5 15 -4 15 -45 0 -38 -4 -51
-14 -51 -8 0 -18 -4 -21 -10 -4 -6 13 -10 44 -10 28 0 51 5 51 10 0 6 -9 10
-20 10 -17 0 -19 7 -19 53 1 86 1 86 -33 66z"/>
<path d="M4260 3685 c-16 -19 -5 -34 12 -17 17 17 48 15 48 -4 0 -9 -9 -18
-20 -21 -27 -7 -25 -21 2 -25 28 -4 36 -36 12 -45 -9 -3 -25 -1 -36 6 -25 15
-35 7 -18 -14 16 -20 64 -19 81 1 10 12 10 22 2 43 -6 17 -7 35 -2 44 20 35
-54 64 -81 32z"/>
<path d="M4380 3685 c-15 -19 -15 -102 1 -121 18 -22 57 -17 75 11 18 28 14
85 -7 111 -15 18 -53 18 -69 -1z m64 -31 c11 -40 -2 -84 -24 -84 -25 0 -34 17
-31 59 2 43 7 51 31 51 11 0 20 -10 24 -26z"/>
<path d="M4494 3675 c-17 -27 -14 -85 6 -110 16 -20 54 -19 71 1 7 8 13 35 13
59 0 24 -6 51 -13 59 -20 24 -58 20 -77 -9z m63 -11 c17 -46 4 -94 -27 -94
-20 0 -33 38 -26 75 3 11 5 23 5 28 2 14 42 7 48 -9z"/>
<path d="M2325 3735 c-19 -18 -25 -35 -25 -70 0 -25 3 -45 8 -45 4 0 6 19 4
43 -3 32 2 47 18 65 12 12 26 19 32 16 7 -4 8 -2 4 4 -10 16 -14 15 -41 -13z"/>
<path d="M2380 3750 c0 -5 5 -10 11 -10 5 0 7 5 4 10 -3 6 -8 10 -11 10 -2 0
-4 -4 -4 -10z"/>
<path d="M2410 3750 c0 -5 5 -10 11 -10 5 0 7 5 4 10 -3 6 -8 10 -11 10 -2 0
-4 -4 -4 -10z"/>
<path d="M2440 3750 c0 -5 5 -10 11 -10 5 0 7 5 4 10 -3 6 -8 10 -11 10 -2 0
-4 -4 -4 -10z"/>
<path d="M2470 3751 c0 -6 8 -11 18 -11 23 0 42 -19 42 -42 0 -10 4 -18 9 -18
4 0 6 11 4 24 -4 20 -17 30 -65 54 -5 2 -8 -2 -8 -7z"/>
<path d="M2719 3708 c-5 -15 -3 -81 3 -84 4 -3 8 13 8 35 0 23 4 41 9 41 6 0
9 -38 8 -85 -1 -47 -5 -85 -9 -85 -8 0 -12 29 -9 63 1 9 -2 17 -6 17 -7 0 -9
-42 -4 -82 1 -5 16 -8 34 -7 17 0 26 3 20 6 -9 3 -13 31 -13 88 0 57 4 85 13
88 6 3 -3 6 -20 6 -18 1 -33 0 -34 -1z"/>
<path d="M2830 3701 c22 -15 23 -163 1 -173 -10 -4 -1 -7 22 -7 21 -1 37 4 37
10 0 6 -7 9 -15 5 -13 -4 -15 8 -15 79 0 53 4 85 11 85 5 0 8 -4 4 -9 -3 -5 0
-13 6 -16 7 -5 10 0 7 11 -2 14 -13 20 -38 22 -26 2 -31 0 -20 -7z"/>
<path d="M2397 3665 c-21 -15 -22 -48 -2 -65 10 -9 15 -9 15 -1 0 6 -4 11 -10
11 -14 0 -12 37 3 47 23 14 37 11 48 -10 10 -17 8 -24 -11 -39 -12 -10 -18
-18 -12 -18 12 0 42 28 42 39 0 14 -27 44 -42 47 -8 1 -22 -4 -31 -11z"/>
<path d="M2533 3648 c1 -16 5 -28 9 -28 10 0 9 9 -2 35 -8 17 -8 16 -7 -7z"/>
<path d="M2873 3645 c0 -8 4 -15 9 -15 4 0 8 7 8 15 0 8 -4 15 -8 15 -5 0 -9
-7 -9 -15z"/>
<path d="M2873 3605 c0 -8 4 -15 9 -15 4 0 8 7 8 15 0 8 -4 15 -8 15 -5 0 -9
-7 -9 -15z"/>
<path d="M2301 3593 c-3 -56 36 -91 90 -80 17 3 13 5 -12 6 -41 1 -58 17 -69
64 -6 22 -8 25 -9 10z"/>
<path d="M2532 3600 c9 -55 -29 -89 -87 -78 -14 3 -25 1 -25 -3 0 -12 67 -11
90 1 23 12 41 62 29 81 -8 12 -9 11 -7 -1z"/>
<path d="M2873 3565 c0 -8 4 -15 9 -15 4 0 8 7 8 15 0 8 -4 15 -8 15 -5 0 -9
-7 -9 -15z"/>
<path d="M3130 3240 l0 -61 -30 16 c-47 24 -67 20 -75 -17 -12 -54 -6 -140 11
-159 16 -18 46 -15 65 7 21 26 28 14 31 -53 l3 -68 390 0 390 0 1 198 0 197
-393 0 -393 0 0 -60z m769 -140 l0 -180 -374 0 -375 0 0 51 c0 28 -5 59 -10
70 -11 19 -11 19 -50 -1 -23 -12 -41 -16 -45 -10 -8 13 -13 105 -7 135 5 28
24 31 62 10 35 -19 50 -3 50 56 l0 49 374 0 375 0 0 -180z"/>
<path d="M3310 3165 c-16 -19 -5 -34 12 -17 7 7 20 12 30 12 29 0 21 -33 -17
-70 -49 -48 -46 -60 16 -60 31 0 48 4 44 10 -3 6 -19 10 -36 10 -34 0 -37 10
-8 30 11 8 27 27 35 42 12 23 12 29 -2 42 -20 20 -58 20 -74 1z"/>
<path d="M3431 3166 c-21 -26 -25 -83 -7 -111 19 -29 57 -33 77 -9 17 21 17
97 0 118 -17 20 -55 21 -70 2z m59 -30 c11 -30 5 -65 -13 -84 -12 -11 -16 -11
-29 2 -13 13 -15 29 -9 94 2 22 41 13 51 -12z"/>
<path d="M3547 3162 c-33 -36 -13 -132 27 -132 31 0 45 13 55 46 13 45 -8 98
-40 102 -15 2 -32 -5 -42 -16z m58 -57 c0 -41 -3 -50 -19 -53 -22 -5 -36 14
-36 50 0 42 10 59 34 56 18 -3 21 -10 21 -53z"/>
<path d="M3666 3164 c-23 -23 -21 -96 4 -119 54 -49 109 41 70 114 -13 25 -52
28 -74 5z m59 -59 c0 -41 -3 -50 -19 -53 -22 -5 -36 14 -36 50 0 42 10 59 34
56 18 -3 21 -10 21 -53z"/>
<path d="M4088 3293 c-2 -10 -6 -60 -7 -91 l-1 -22 -39 20 c-36 18 -40 18 -52
3 -8 -9 -15 -47 -17 -87 -3 -58 -1 -76 15 -94 l18 -22 38 20 37 20 1 -25 c0
-14 2 -44 2 -67 l2 -43 333 -3 332 -2 0 200 0 200 -330 0 c-181 0 -331 -3
-332 -7z m642 -193 l0 -180 -315 0 -315 0 0 60 c0 71 -15 83 -62 55 -44 -25
-53 -6 -48 100 3 59 10 67 44 50 54 -29 66 -22 66 40 l0 55 315 0 315 0 0
-180z"/>
<path d="M4278 3169 c-22 -12 -24 -31 -3 -23 12 5 15 -4 15 -45 0 -39 -4 -51
-15 -51 -8 0 -15 -4 -15 -10 0 -5 20 -10 45 -10 25 0 45 5 45 10 0 6 -9 10
-21 10 -19 0 -20 5 -17 65 4 67 -1 74 -34 54z"/>
<path d="M4380 3165 c-7 -9 -13 -36 -13 -60 0 -51 16 -75 48 -75 29 0 45 19
52 64 10 65 -51 115 -87 71z m65 -39 c8 -40 -9 -79 -33 -74 -19 4 -32 56 -21
86 13 36 47 28 54 -12z"/>
<path d="M4494 3155 c-11 -17 -15 -37 -11 -61 7 -45 23 -64 52 -64 32 0 49 25
49 75 0 24 -6 51 -13 59 -20 24 -58 20 -77 -9z m69 -21 c7 -36 -6 -78 -26 -82
-23 -5 -40 34 -32 74 5 27 11 34 29 34 18 0 25 -7 29 -26z"/>
<path d="M2324 3215 c-10 -8 -14 -14 -9 -14 6 0 19 6 29 14 11 8 15 15 10 15
-6 0 -19 -7 -30 -15z"/>
<path d="M2378 3223 c7 -3 16 -2 19 1 4 3 -2 6 -13 5 -11 0 -14 -3 -6 -6z"/>
<path d="M2450 3221 c59 -8 79 -21 82 -54 1 -15 6 -27 10 -27 15 0 -4 55 -24
73 -14 11 -35 17 -67 15 l-46 -1 45 -6z"/>
<path d="M2715 3155 c0 -19 3 -35 8 -35 4 0 7 14 7 30 0 17 4 30 8 30 5 0 8
-38 8 -85 0 -47 -3 -85 -8 -85 -4 0 -8 9 -8 21 0 11 -4 18 -9 15 -5 -4 -8 -14
-7 -24 2 -12 13 -18 37 -19 19 -1 28 0 22 3 -9 4 -13 32 -13 89 0 57 4 85 13
88 6 3 -4 6 -23 6 -33 1 -35 -1 -35 -34z"/>
<path d="M2832 3183 c14 -4 17 -16 15 -84 -2 -58 -6 -82 -17 -89 -11 -7 -6
-10 20 -10 29 0 36 4 37 20 1 11 -3 20 -8 20 -6 0 -8 -4 -4 -9 3 -5 1 -12 -4
-15 -12 -8 -17 48 -10 114 6 61 11 55 13 -19 2 -78 14 -70 13 9 l0 70 -36 -1
c-20 -1 -28 -3 -19 -6z"/>
<path d="M2301 3108 c0 -38 2 -68 7 -68 4 0 6 21 4 48 -5 82 -9 89 -11 20z"/>
<path d="M2410 3152 c-38 -12 -41 -64 -5 -80 14 -6 25 -8 25 -3 0 5 -9 11 -21
14 -28 7 -23 51 7 55 29 4 51 -23 34 -43 -7 -9 -10 -18 -7 -21 8 -9 28 33 22
48 -8 19 -38 36 -55 30z"/>
<path d="M2539 3128 c-6 -12 -5 -48 1 -48 4 0 7 11 6 25 -1 22 -3 30 -7 23z"/>
<path d="M2719 3108 c-5 -17 -4 -48 3 -48 4 0 8 11 8 25 0 20 -7 34 -11 23z"/>
<path d="M2531 3055 c-2 -33 -17 -47 -57 -55 -37 -7 -38 -8 -8 -9 43 -1 77 27
71 59 -3 20 -5 21 -6 5z"/>
<path d="M2310 3021 c0 -15 51 -37 83 -35 47 2 43 14 -6 14 -28 0 -52 6 -61
16 -9 8 -16 11 -16 5z"/>
<path d="M2342 2718 c-17 -17 -15 -33 3 -18 13 11 15 5 15 -43 0 -48 -3 -56
-22 -62 -22 -8 -22 -8 5 -12 15 -2 39 -2 55 0 26 4 26 4 5 12 -21 7 -23 14
-23 71 0 65 -11 79 -38 52z"/>
<path d="M2331 2336 c-17 -20 -19 -78 -4 -108 27 -56 93 -22 93 47 0 59 -58
99 -89 61z m63 -32 c4 -15 4 -40 1 -56 -5 -23 -12 -28 -28 -26 -16 2 -23 12
-28 38 -3 19 -1 43 3 53 13 26 45 21 52 -9z"/>
<path d="M1649 1964 c-16 -19 -15 -99 1 -119 16 -19 54 -19 69 -1 21 26 25 83
7 111 -19 29 -57 33 -77 9z m64 -26 c4 -20 4 -48 -2 -80 -2 -12 -39 -9 -46 3
-4 6 -7 25 -7 44 0 19 3 38 7 44 11 20 43 12 48 -11z"/>
<path d="M1824 1955 c-18 -28 -14 -85 7 -111 15 -19 53 -18 70 2 17 20 16 98
-1 119 -19 23 -57 18 -76 -10z m66 -19 c13 -34 -2 -80 -27 -84 -22 -3 -35 26
-28 63 2 11 4 26 4 33 2 22 41 13 51 -12z"/>
<path d="M1947 1962 c-34 -37 -13 -132 29 -132 35 0 54 26 54 75 0 67 -46 98
-83 57z m58 -57 c0 -41 -3 -50 -19 -53 -22 -5 -36 14 -36 50 0 42 10 59 34 56
18 -3 21 -10 21 -53z"/>
<path d="M2059 1968 c0 -7 -2 -25 -4 -39 -3 -24 -1 -26 33 -25 31 1 38 -3 40
-22 4 -27 -23 -40 -48 -24 -22 13 -34 4 -19 -15 14 -16 61 -17 77 -1 7 7 12
24 12 38 0 34 -17 50 -52 50 -20 0 -26 4 -22 15 4 9 19 15 35 15 16 0 29 5 29
10 0 15 -80 13 -81 -2z"/>
<path d="M1760 1840 c0 -5 4 -10 9 -10 6 0 13 5 16 10 3 6 -1 10 -9 10 -9 0
-16 -4 -16 -10z"/>
<path d="M2330 1600 c0 -66 -10 -77 -50 -54 -32 19 -32 19 -51 -5 -35 -42 -19
-191 20 -191 9 0 27 7 39 16 37 26 43 10 42 -114 -1 -65 -1 -156 -1 -204 l1
-88 2530 0 2530 0 -2 342 -3 343 -2527 0 -2528 0 0 -45z m5040 -296 c0 -249
-3 -323 -12 -326 -11 -3 -4969 -2 -5003 1 -6 1 -10 75 -10 201 -1 228 -3 236
-61 205 -45 -24 -54 -13 -54 70 0 82 7 91 54 69 46 -23 58 -12 60 53 l1 50
2513 0 2512 0 0 -323z"/>
<path d="M3270 1509 c0 -61 0 -61 -22 -47 -39 25 -57 28 -73 12 -21 -22 -21
-151 1 -182 l16 -23 34 21 c20 11 37 20 40 20 2 0 4 -63 4 -140 l0 -140 1078
0 1077 0 0 270 0 270 -1077 0 -1078 0 0 -61z m2130 42 c3 -1 6 -113 6 -251 l1
-250 -1059 0 -1058 0 0 128 c0 150 -5 160 -61 131 l-38 -19 -9 32 c-10 37 -5
129 7 141 4 4 21 0 38 -9 46 -27 63 -14 63 48 l0 53 1052 -2 c579 -1 1055 -2
1058 -2z"/>
<path d="M4250 1440 l0 -61 -30 16 c-39 20 -57 19 -70 -4 -15 -29 -12 -152 5
-175 14 -18 15 -18 54 2 l40 21 3 -67 3 -67 213 -3 212 -2 0 200 0 200 -215 0
-215 0 0 -60z m411 30 c0 -5 1 -80 1 -165 0 -85 -1 -162 -1 -170 -1 -13 -30
-15 -196 -15 l-195 0 0 60 c0 70 -10 79 -64 56 -34 -14 -37 -14 -43 1 -9 22
-8 101 1 136 l6 27 39 -19 c48 -25 61 -14 61 51 l0 48 195 0 c123 0 195 -4
196 -10z"/>
<path d="M4433 1373 c-7 -2 -13 -12 -13 -21 0 -12 3 -13 12 -4 7 7 22 12 35
12 29 0 31 -30 3 -37 -11 -3 -20 -9 -20 -14 0 -5 9 -9 20 -9 15 0 20 -7 20
-25 0 -27 -26 -35 -48 -13 -17 17 -28 2 -12 -17 16 -20 54 -19 74 1 20 19 20
24 0 52 -8 12 -10 22 -5 22 17 0 13 47 -5 54 -18 7 -43 7 -61 -1z"/>
<path d="M4850 1440 l0 -60 -39 19 c-37 20 -39 20 -55 2 -25 -27 -26 -153 -2
-186 13 -18 14 -18 49 2 19 12 38 19 41 16 3 -4 6 -35 6 -70 l0 -63 215 0 215
0 0 200 0 200 -215 0 -215 0 0 -60z m410 -140 l0 -180 -195 0 -195 0 0 43 c0
87 -14 101 -70 72 -23 -12 -31 -12 -37 -2 -11 17 -12 129 -1 149 8 16 11 16
42 1 51 -24 66 -13 66 47 l0 50 195 0 195 0 0 -180z"/>
<path d="M5034 1372 c-6 -4 -14 -17 -18 -29 -9 -30 27 -67 55 -58 17 6 20 3
17 -12 -4 -20 -48 -32 -48 -12 0 10 -3 10 -12 1 -10 -10 -10 -15 2 -22 22 -14
47 -12 64 6 16 16 19 28 18 79 -1 42 -45 69 -78 47z m54 -40 c4 -29 -26 -42
-44 -18 -17 24 -6 48 20 44 13 -2 22 -12 24 -26z"/>
<path d="M3441 1404 c-23 -29 -27 -44 -10 -44 5 0 8 4 5 8 -10 16 25 54 45 49
11 -3 19 -1 19 4 0 19 -40 8 -59 -17z"/>
<path d="M3567 1421 c69 -7 86 -17 86 -55 0 -14 3 -26 8 -26 15 0 -2 55 -22
73 -15 12 -37 17 -78 15 l-56 -1 62 -6z"/>
<path d="M3840 1295 l0 -95 38 1 c20 1 29 3 20 6 -15 4 -18 17 -18 88 0 71 3
84 18 88 9 3 0 5 -20 6 l-38 1 0 -95z m30 0 c0 -50 -4 -85 -10 -85 -6 0 -10
35 -10 85 0 50 4 85 10 85 6 0 10 -35 10 -85z"/>
<path d="M3951 1380 c22 -13 21 -156 -1 -170 -11 -7 -4 -10 23 -10 20 0 37 5
37 11 0 6 -8 8 -17 5 -15 -5 -18 0 -16 32 1 20 2 58 2 85 1 26 5 47 9 47 5 0
8 -27 7 -60 -1 -33 2 -60 5 -60 4 0 7 28 6 63 l-1 62 -35 3 c-26 2 -31 0 -19
-8z"/>
<path d="M3515 1340 c-9 -10 -15 -26 -13 -36 3 -18 48 -52 48 -36 0 5 -9 12
-20 15 -24 6 -27 45 -4 54 19 7 50 -10 47 -26 -2 -6 2 -11 7 -11 21 0 9 30
-19 44 -26 14 -30 14 -46 -4z"/>
<path d="M3420 1315 c0 -8 4 -15 10 -15 5 0 7 7 4 15 -4 8 -8 15 -10 15 -2 0
-4 -7 -4 -15z"/>
<path d="M3659 1328 c-5 -9 -4 -76 1 -72 5 6 8 74 3 74 -2 0 -4 -1 -4 -2z"/>
<path d="M3423 1256 c6 -40 22 -66 41 -66 8 0 8 2 0 8 -18 12 -36 52 -30 67 3
8 0 17 -6 21 -8 5 -9 -4 -5 -30z"/>
<path d="M3565 1280 c-3 -5 -1 -10 4 -10 6 0 11 5 11 10 0 6 -2 10 -4 10 -3 0
-8 -4 -11 -10z"/>
<path d="M3995 1240 c-3 -5 -1 -10 4 -10 6 0 11 5 11 10 0 6 -2 10 -4 10 -3 0
-8 -4 -11 -10z"/>
<path d="M3646 1225 c-3 -9 -16 -20 -28 -25 -14 -5 -17 -9 -7 -9 14 -1 59 33
59 44 0 12 -18 3 -24 -10z"/>
<path d="M3484 1192 c5 -9 53 -8 63 1 3 4 -10 7 -31 7 -20 0 -35 -4 -32 -8z"/>
<path d="M3565 1190 c4 -6 11 -8 16 -5 14 9 11 15 -7 15 -8 0 -12 -5 -9 -10z"/>
<path d="M5909 1458 c0 -24 -4 -51 -7 -61 -7 -16 -9 -16 -27 -3 -32 25 -64 20
-76 -11 -15 -40 -7 -150 13 -170 15 -15 19 -14 52 5 41 25 46 18 46 -64 l0
-54 210 0 c116 0 211 3 211 8 4 21 5 369 1 380 -3 9 -55 12 -213 12 l-209 0
-1 -42z m407 -161 l1 -177 -196 2 -196 3 -1 35 c-1 19 -2 47 -3 63 -1 32 -17
35 -63 11 -25 -13 -32 -14 -39 -2 -12 18 -11 125 1 148 10 19 11 19 43 0 44
-26 58 -14 60 49 l2 51 195 -2 195 -3 1 -178z"/>
<path d="M6098 1366 c-23 -17 -23 -29 1 -21 16 5 18 0 17 -42 -1 -37 -5 -49
-19 -51 -35 -7 -16 -22 28 -22 25 0 45 5 45 10 0 6 -7 10 -15 10 -16 0 -16 0
-18 78 -1 54 -9 61 -39 38z"/>
<path d="M6820 1447 c0 -30 -3 -56 -6 -60 -3 -3 -22 3 -42 13 -33 18 -38 18
-52 5 -22 -23 -21 -168 2 -191 15 -16 19 -16 52 4 41 25 46 18 46 -64 l0 -54
213 2 212 3 0 195 0 195 -212 3 -213 2 0 -53z m410 -147 l0 -180 -197 2 -197
3 -2 53 c-3 70 -13 81 -60 58 -47 -22 -54 -13 -54 75 0 81 12 96 55 69 40 -25
57 -14 60 41 2 24 4 47 4 52 1 4 89 7 196 7 l195 0 0 -180z"/>
<path d="M6994 1355 c-12 -18 -15 -38 -11 -67 6 -44 19 -58 54 -58 28 0 43 27
43 79 0 67 -53 96 -86 46z m61 -50 c0 -41 -3 -50 -19 -53 -22 -5 -36 14 -36
50 0 42 10 59 34 56 18 -3 21 -10 21 -53z"/>
<path d="M2591 1338 c2 -30 2 -31 6 -6 4 26 8 27 66 31 l62 3 -67 2 -68 2 1
-32z"/>
<path d="M6521 1353 c4 -27 -3 -43 -21 -43 -11 0 -20 -5 -20 -10 0 -6 8 -10
18 -8 11 2 18 -4 20 -19 4 -31 22 -29 22 1 0 19 4 23 20 19 11 -3 20 0 20 6 0
6 -9 11 -20 11 -15 0 -20 7 -20 25 0 14 -4 25 -10 25 -5 0 -9 -3 -9 -7z"/>
<path d="M2620 1341 c0 -4 11 -6 24 -4 31 6 42 -13 22 -36 -23 -25 -20 -34 4
-14 24 21 26 49 4 57 -23 9 -54 7 -54 -3z"/>
<path d="M2707 1331 c-4 -17 -3 -21 5 -13 5 5 8 16 6 23 -3 8 -7 3 -11 -10z"/>
<path d="M2961 1291 c12 -34 26 -61 33 -61 7 0 20 16 29 35 19 39 22 85 7 85
-5 0 -10 -11 -10 -25 0 -13 -5 -36 -12 -51 l-12 -26 -16 48 c-9 26 -21 49 -28
52 -7 2 -3 -20 9 -57z"/>
<path d="M5580 1341 c0 -5 7 -14 15 -21 14 -12 14 -15 -1 -31 -22 -25 -10 -37
15 -15 16 15 19 15 31 1 7 -8 17 -15 23 -15 5 0 2 9 -8 20 -17 18 -17 21 -1
45 18 28 11 33 -15 10 -15 -14 -18 -14 -32 0 -17 17 -27 19 -27 6z"/>
<path d="M2540 1320 c0 -11 4 -20 9 -20 5 0 7 9 4 20 -3 11 -7 20 -9 20 -2 0
-4 -9 -4 -20z"/>
<path d="M2588 1255 l4 -45 59 0 c32 0 59 1 60 3 6 27 8 87 2 87 -5 0 -8 -17
-8 -37 l0 -38 -52 -3 -53 -3 0 40 c0 23 -3 41 -8 41 -4 0 -6 -20 -4 -45z"/>
<path d="M2735 1289 c-4 -6 -4 -13 -1 -16 3 -4 6 -1 6 5 0 7 7 12 15 12 23 0
18 -21 -12 -52 l-27 -28 40 1 c35 1 36 2 11 8 l-29 6 26 22 c15 14 23 29 20
38 -7 17 -40 20 -49 4z"/>
<path d="M2640 1240 c0 -5 7 -10 16 -10 8 0 12 5 9 10 -3 6 -10 10 -16 10 -5
0 -9 -4 -9 -10z"/>
<path d="M7830 1440 l0 -60 -39 20 -40 20 -15 -22 c-20 -28 -22 -156 -3 -182
10 -14 18 -15 39 -7 14 5 29 15 33 20 16 27 25 6 25 -59 l0 -70 250 0 250 0 0
200 0 200 -250 0 -250 0 0 -60z m485 -125 c0 -88 -1 -168 -4 -177 -3 -17 -22
-18 -232 -18 l-229 0 0 49 c0 84 -13 96 -71 66 -28 -15 -30 -15 -38 8 -10 24
-6 130 4 148 4 5 23 0 45 -11 39 -20 39 -20 50 -1 5 11 10 38 10 61 l0 40 232
-2 232 -3 1 -160z"/>
<path d="M8092 1368 c-17 -17 -15 -33 3 -18 13 11 15 5 15 -43 0 -48 -3 -56
-22 -62 -22 -8 -22 -8 5 -12 15 -2 39 -2 55 0 26 4 26 4 5 12 -21 7 -23 14
-23 71 0 65 -11 79 -38 52z"/>
<path d="M8000 1290 c0 -5 11 -10 25 -10 14 0 25 5 25 10 0 6 -11 10 -25 10
-14 0 -25 -4 -25 -10z"/>
<path d="M8770 1440 l0 -61 -30 16 c-39 20 -57 19 -70 -4 -15 -28 -13 -154 3
-175 13 -18 15 -17 55 3 l41 21 3 -68 3 -67 213 -3 212 -2 0 200 0 200 -215 0
-215 0 0 -60z m412 -57 c2 -54 2 -135 0 -180 l-3 -83 -194 0 -195 0 0 49 c0
84 -13 96 -71 66 -27 -14 -30 -14 -36 0 -5 15 -7 78 -4 133 1 26 23 28 61 7
35 -19 50 -3 50 56 l0 49 194 0 195 0 3 -97z"/>
<path d="M8962 1368 c-17 -17 -15 -33 3 -18 13 11 15 5 15 -43 0 -48 -3 -56
-22 -62 -22 -8 -22 -8 5 -12 15 -2 39 -2 55 0 26 4 26 4 5 12 -21 7 -23 14
-23 71 0 65 -11 79 -38 52z"/>
<path d="M9640 1440 l0 -61 -30 16 c-56 29 -78 14 -81 -56 -3 -76 1 -105 14
-123 13 -17 15 -17 55 3 l42 21 0 -70 0 -70 363 2 362 3 1 198 1 197 -364 0
-363 0 0 -60z m710 -140 l0 -180 -345 0 -345 0 0 49 c0 84 -13 96 -71 66 -28
-15 -30 -15 -38 7 -7 20 -8 82 -2 136 1 16 30 15 61 -3 35 -19 50 -3 50 56 l0
49 345 0 345 0 0 -180z"/>
<path d="M9820 1365 c-15 -18 -15 -86 0 -114 15 -29 56 -27 76 4 18 28 14 85
-7 111 -15 18 -53 18 -69 -1z m64 -31 c11 -40 -2 -84 -24 -84 -25 0 -34 17
-31 59 2 43 7 51 31 51 11 0 20 -10 24 -26z"/>
<path d="M9994 1355 c-11 -17 -15 -37 -11 -61 7 -45 23 -64 52 -64 32 0 48 24
48 75 0 24 -6 51 -13 60 -19 23 -57 18 -76 -10z m67 -12 c6 -64 -4 -93 -30
-93 -21 0 -34 38 -27 75 3 11 5 23 5 28 1 4 12 7 26 7 17 0 25 -6 26 -17z"/>
<path d="M10128 1366 c-23 -17 -23 -24 -1 -22 14 1 18 -8 18 -46 0 -39 -3 -48
-17 -48 -10 0 -18 -4 -18 -10 0 -5 20 -10 45 -10 25 0 45 5 45 10 0 6 -6 10
-14 10 -18 0 -22 15 -20 78 1 54 -7 62 -38 38z"/>
<path d="M9936 1245 c-3 -9 0 -15 9 -15 9 0 12 6 9 15 -4 8 -7 15 -9 15 -2 0
-5 -7 -9 -15z"/>
<path d="M10810 1456 c0 -72 -5 -78 -48 -56 -33 18 -38 18 -52 5 -22 -23 -21
-168 2 -191 15 -16 19 -16 52 4 41 25 46 18 46 -64 l0 -54 300 0 300 0 0 200
0 200 -300 0 -300 0 0 -44z m585 -156 l0 -175 -284 0 -285 0 -2 53 c-2 70 -13
81 -60 58 -47 -22 -54 -13 -54 74 0 86 7 95 51 71 20 -11 41 -16 48 -12 7 5
13 31 14 60 l2 51 285 -2 285 -3 0 -175z"/>
<path d="M10992 1371 c-8 -4 -16 -27 -19 -49 -13 -99 79 -131 97 -34 12 67
-31 113 -78 83z m53 -66 c0 -41 -3 -50 -19 -53 -22 -5 -36 14 -36 50 0 42 10
59 34 56 18 -3 21 -10 21 -53z"/>
<path d="M11160 1365 c-15 -19 -5 -34 12 -17 17 17 45 15 52 -3 3 -10 -9 -29
-34 -53 -54 -50 -52 -62 10 -62 28 0 50 5 50 10 0 6 -16 10 -35 10 -19 0 -35
2 -35 4 0 2 16 20 35 39 29 29 34 39 26 59 -10 28 -61 37 -81 13z"/>
<path d="M11106 1251 c-4 -7 -5 -15 -2 -18 9 -9 19 4 14 18 -4 11 -6 11 -12 0z"/>
<path d="M11899 1488 c-1 -7 -3 -29 -4 -48 -4 -64 -2 -62 -35 -45 -61 32 -80
11 -80 -88 0 -48 5 -71 19 -88 l18 -22 37 22 c40 25 36 31 41 -54 1 -22 3 -46
4 -52 1 -10 50 -13 211 -13 l210 0 1 85 c0 47 1 101 1 120 0 19 -1 71 -1 115
l-1 80 -210 0 c-161 0 -210 -3 -211 -12z m406 -188 l0 -180 -197 0 -198 0 2
33 c3 96 -8 110 -63 83 -45 -23 -55 -3 -49 99 3 64 7 67 50 45 47 -24 60 -13
63 54 l2 46 195 0 195 0 0 -180z"/>
<path d="M12088 1369 c-22 -12 -24 -31 -3 -23 12 5 15 -4 15 -45 0 -38 -4 -51
-14 -51 -8 0 -18 -4 -21 -10 -4 -6 13 -10 44 -10 28 0 51 5 51 10 0 6 -9 10
-20 10 -17 0 -19 7 -19 53 2 85 1 86 -33 66z"/>
<path d="M12809 1493 c-1 -5 -3 -26 -4 -48 -4 -72 -3 -69 -30 -51 -59 39 -85
10 -85 -94 0 -41 5 -64 19 -81 l18 -22 37 22 c20 12 37 19 37 14 1 -4 2 -35 3
-68 l2 -60 209 -3 c120 -1 211 2 214 7 3 5 6 94 6 198 l-1 188 -212 3 c-117 1
-213 -1 -213 -5z m406 -190 l0 -178 -196 -3 -195 -2 -1 55 c0 73 -12 84 -59
61 -47 -22 -54 -13 -54 71 0 92 4 97 52 72 53 -27 62 -15 60 74 l-1 27 198 0
197 0 -1 -177z"/>
<path d="M12986 1364 c-10 -9 -16 -33 -16 -59 0 -62 37 -93 79 -66 22 14 27
104 6 124 -21 21 -49 22 -69 1z m62 -38 c6 -49 -6 -78 -31 -74 -18 2 -23 11
-25 42 -4 52 3 68 30 64 17 -2 24 -11 26 -32z"/>
<path d="M1656 1338 c-26 -90 -29 -108 -18 -108 5 0 19 36 30 80 22 88 11 112
-12 28z"/>
<path d="M1839 1380 c-8 -64 -37 -105 -86 -127 -18 -7 -33 -18 -33 -23 0 -11
64 13 87 32 31 26 66 128 43 128 -5 0 -11 -4 -11 -10z"/>
<path d="M7545 1298 c0 -89 1 -93 23 -96 12 -2 22 2 22 8 0 6 -4 8 -10 5 -11
-7 -11 -7 -13 98 -1 46 -5 77 -12 77 -6 0 -10 -34 -10 -92z"/>
<path d="M8487 1383 c-3 -7 -2 -127 2 -171 1 -7 5 -11 10 -8 5 4 9 41 8 84 -2
58 2 80 13 89 13 11 12 12 -7 13 -12 0 -24 -3 -26 -7z"/>
<path d="M9380 1305 c0 -50 -4 -85 -10 -85 -5 0 -10 -4 -10 -10 0 -5 9 -10 20
-10 19 0 20 7 20 95 0 57 -4 95 -10 95 -6 0 -10 -35 -10 -85z"/>
<path d="M10530 1380 c0 -5 5 -10 10 -10 6 0 10 -35 10 -85 0 -50 4 -85 10
-85 6 0 10 38 10 95 0 88 -1 95 -20 95 -11 0 -20 -4 -20 -10z"/>
<path d="M12511 1353 c4 -27 -3 -43 -21 -43 -11 0 -20 -5 -20 -11 0 -5 4 -8 9
-4 12 7 43 -24 36 -36 -4 -5 -1 -9 4 -9 6 0 11 9 11 20 0 15 7 20 26 20 14 0
23 4 19 10 -3 6 -15 10 -26 10 -14 0 -19 7 -19 25 0 14 -4 25 -10 25 -5 0 -9
-3 -9 -7z"/>
<path d="M11573 1332 c10 -10 17 -22 17 -27 0 -5 -7 -17 -17 -27 -9 -10 -11
-18 -6 -18 6 0 16 7 23 15 12 14 15 14 36 0 33 -21 40 -19 18 6 -15 17 -16 23
-5 41 16 26 8 34 -13 12 -16 -15 -18 -15 -35 0 -24 22 -38 20 -18 -2z"/>
<path d="M2060 1290 c0 -5 7 -10 16 -10 8 0 12 5 9 10 -3 6 -10 10 -16 10 -5
0 -9 -4 -9 -10z"/>
<path d="M1662 778 c-17 -17 -15 -33 3 -18 13 11 15 5 15 -43 0 -48 -3 -56
-22 -62 -22 -8 -22 -8 5 -12 15 -2 39 -2 55 0 26 4 26 4 5 12 -21 7 -23 14
-23 71 0 65 -11 79 -38 52z"/>
<path d="M1651 396 c-16 -19 -16 -102 -1 -121 19 -23 57 -18 76 10 18 28 14
85 -7 111 -15 18 -53 18 -68 0z m63 -32 c4 -15 4 -40 1 -56 -5 -23 -12 -28
-28 -26 -18 2 -23 11 -25 42 -4 49 3 66 27 66 12 0 21 -9 25 -26z"/>
</g>
</svg>
