<?xml version="1.0" standalone="no"?>
<!DOCTYPE svg PUBLIC "-//W3C//DTD SVG 20010904//EN"
 "http://www.w3.org/TR/2001/REC-SVG-20010904/DTD/svg10.dtd">
<svg version="1.0" xmlns="http://www.w3.org/2000/svg"
 width="798.000000pt" height="841.000000pt" viewBox="0 0 798.000000 841.000000"
 preserveAspectRatio="xMidYMid meet">
<metadata>
Created by potrace 1.16, written by Peter Selinger 2001-2019
</metadata>
<g transform="translate(0.000000,841.000000) scale(0.100000,-0.100000)"
fill="#000000" stroke="none">
<path d="M180 8252 c-17 -8 -39 -29 -48 -46 -16 -29 -17 -285 -17 -4006 0
-3818 1 -3976 18 -4002 41 -60 13 -58 841 -58 l756 0 0 378 0 377 85 -2 c47
-1 86 1 86 5 1 4 2 88 3 187 l1 180 100 2 c55 1 204 2 330 2 127 0 286 1 355
2 69 0 132 1 140 1 8 0 332 -1 720 -1 388 0 712 0 720 0 8 0 116 0 240 0 124
0 232 0 240 0 8 0 188 0 400 0 454 0 366 0 640 0 124 0 260 0 303 -1 l77 -1 0
530 0 531 -1042 0 c-574 0 -1422 0 -1884 0 l-842 0 2 367 1 368 855 0 855 1 3
187 c2 139 6 187 15 188 6 0 849 1 1872 2 l1860 2 1 268 1 267 -583 0 -584 0
-2 263 -3 262 -97 -1 c-70 -1 -96 2 -91 10 5 8 3 8 -8 0 -8 -6 -52 -10 -99
-10 l-85 1 -3 188 -2 187 -1300 0 -1299 0 0 180 c-1 137 2 180 12 180 9 0 12
46 11 197 l-1 197 -286 0 -287 0 0 189 0 189 -25 -4 c-14 -3 -28 -2 -31 3 -2
4 -11 6 -19 2 -13 -4 -15 22 -15 184 l0 190 -37 0 c-93 1 -83 -21 -83 191 l0
187 -203 0 -202 0 -2 145 c-1 80 -2 164 -3 187 l0 43 -272 2 -273 3 0 185 0
185 -337 0 -337 0 0 180 0 180 795 0 c698 0 797 2 803 15 4 8 7 96 6 195 l-1
180 -1184 2 -1184 3 -46 -30 c-58 -37 -75 -37 -125 1 -36 27 -46 30 -107 28
-37 -1 -81 -9 -98 -17z m209 -33 c25 -16 52 -29 60 -29 8 0 36 14 62 30 l47
31 1119 0 c615 0 1144 0 1176 -1 l57 0 0 -180 0 -180 -1181 0 c-1160 0 -1181
0 -1209 -20 -58 -41 -77 -43 -125 -10 -42 29 -48 30 -155 30 l-112 0 4 148 c3
158 10 183 58 201 64 25 139 18 199 -20z m-9 -373 c25 -17 52 -31 60 -31 19
-1 70 23 93 43 23 21 153 27 160 8 6 -15 1 -75 -6 -82 -3 -3 -20 2 -38 12 -32
16 -33 16 -51 -6 -20 -25 -25 -120 -8 -164 11 -30 29 -32 70 -11 23 12 30 13
31 3 1 -7 2 -1688 3 -3735 l1 -3723 -242 0 c-153 0 -251 4 -266 11 -13 6 -31
23 -40 39 -16 26 -17 306 -17 3842 0 2098 2 3817 5 3820 3 3 50 5 103 5 92 0
99 -2 142 -31z m921 10 c3 -56 -1 -449 -5 -453 -2 -2 -20 4 -41 14 -36 17 -37
17 -51 -2 -19 -26 -19 -154 0 -180 14 -19 15 -19 50 -2 20 9 39 17 41 17 3 0
5 -1132 5 -2515 0 -1749 -3 -2515 -10 -2515 -6 0 -24 7 -40 15 -26 13 -30 13
-44 -1 -19 -18 -25 -126 -10 -176 6 -22 43 -23 70 -3 10 8 22 15 27 15 4 0 7
-86 7 -190 l0 -190 -39 19 c-38 20 -39 20 -56 2 -23 -27 -23 -156 1 -182 16
-18 18 -18 55 2 l39 19 0 -190 0 -191 -30 16 c-60 31 -81 10 -81 -85 -1 -103
19 -125 77 -89 l34 21 0 -122 0 -122 -34 21 c-58 36 -77 15 -77 -88 -1 -92 27
-123 77 -86 10 8 22 15 27 15 4 0 7 -52 7 -115 0 -63 -2 -115 -5 -115 -2 0
-20 8 -40 17 -41 20 -54 12 -64 -38 -9 -43 2 -136 17 -151 9 -9 20 -8 47 5 20
9 38 17 40 17 3 0 5 -25 5 -55 l0 -55 -292 2 -293 3 -1 3733 c0 2690 -3 3735
-11 3743 -8 8 -19 6 -41 -6 -49 -29 -62 -16 -62 62 0 90 7 99 54 77 46 -23 58
-12 59 53 l2 50 292 0 c291 0 293 0 294 -21z m679 -582 c-1 -124 -4 -232 -7
-240 -5 -13 -9 -13 -29 1 -60 39 -88 3 -82 -104 5 -82 25 -101 74 -70 18 11
35 16 37 12 10 -16 5 -3893 -4 -3899 -6 -3 -21 2 -35 11 -35 23 -62 11 -70
-31 -10 -52 1 -133 20 -152 16 -16 19 -16 47 1 17 9 34 15 39 12 8 -5 11 -191
3 -212 -4 -9 -13 -8 -38 4 -18 9 -40 13 -48 10 -32 -12 -35 -163 -4 -194 13
-13 19 -13 47 2 39 20 46 13 48 -50 l2 -45 -330 0 -330 0 0 2458 c0 1489 -4
2463 -10 2472 -8 12 -14 12 -46 -3 -49 -24 -57 -13 -58 67 -1 80 10 94 54 71
43 -22 60 -7 60 56 l0 49 330 0 331 0 -1 -226z m544 -387 c0 -125 -3 -229 -6
-232 -3 -3 -20 1 -39 9 -52 22 -63 9 -67 -77 -6 -108 16 -138 74 -101 13 9 27
15 29 12 7 -7 8 -218 1 -225 -3 -3 -17 2 -30 11 -54 35 -76 11 -76 -83 0 -62
15 -111 34 -111 6 1 22 7 36 15 14 8 28 14 33 15 4 0 7 -52 7 -115 l0 -116
-30 16 c-61 31 -80 11 -80 -85 0 -96 27 -122 85 -84 l25 16 0 -1334 0 -1334
-257 2 c-142 1 -260 2 -263 3 -3 1 -5 854 -5 1896 0 2089 5 1935 -62 1894 -32
-20 -32 -20 -42 0 -6 11 -11 47 -11 81 0 69 14 83 59 57 37 -22 52 -9 56 49 2
27 3 50 4 52 1 1 119 1 264 0 l262 -3 -1 -228z m402 -149 c5 -8 6 -73 5 -270
l-1 -78 -195 0 -195 0 0 53 c0 73 -8 82 -54 61 -42 -21 -54 -14 -56 36 -6 109
4 129 50 105 46 -24 60 -14 60 43 0 27 2 51 5 54 10 9 376 5 381 -4z m124
-548 l0 -180 -255 0 -255 0 0 49 c0 83 -15 98 -66 64 -22 -14 -27 -14 -35 -2
-15 25 -14 136 2 153 5 6 23 2 44 -10 44 -23 55 -12 55 59 l0 47 255 0 255 0
0 -180z m93 -434 c-1 -125 -4 -230 -6 -233 -3 -2 -19 3 -35 11 -55 29 -76 1
-75 -99 0 -85 31 -116 79 -80 10 8 22 15 27 15 4 0 7 -52 7 -115 0 -63 -4
-115 -8 -115 -5 0 -17 7 -28 15 -48 36 -75 7 -75 -85 -1 -98 15 -121 66 -94
15 8 31 14 36 14 5 0 8 -400 7 -952 l-3 -953 -297 -1 -298 -1 0 1332 c0 1083
-2 1335 -13 1343 -10 8 -22 6 -46 -9 -27 -16 -36 -18 -42 -7 -13 19 -14 96 -3
146 l5 24 32 -19 c52 -30 67 -21 67 43 l0 54 303 -2 302 -3 -2 -229z m574
-318 l1 -178 -279 0 -279 0 0 48 c0 27 -6 57 -14 67 -13 18 -15 18 -39 2 -38
-25 -57 -22 -59 11 -7 127 3 156 46 128 50 -32 66 -18 66 58 l0 42 278 0 277
-1 2 -177z m-23 -378 c-1 -96 -2 -204 -3 -239 l-1 -63 -25 16 c-58 38 -85 12
-85 -84 0 -96 19 -116 80 -85 l30 16 0 -116 c0 -63 -2 -115 -4 -115 -2 0 -21
7 -42 16 -35 15 -39 15 -51 -2 -16 -21 -18 -147 -3 -175 13 -23 39 -25 66 -4
10 8 22 15 27 15 4 0 7 -83 7 -185 0 -102 -4 -185 -9 -185 -5 0 -21 6 -36 14
-50 26 -65 5 -65 -97 0 -90 27 -119 76 -82 10 8 22 15 27 15 4 0 7 -86 7 -191
l0 -191 -25 16 c-33 21 -62 20 -75 -3 -16 -31 -12 -143 6 -169 l16 -23 34 21
c20 11 37 20 40 20 2 0 4 -26 4 -58 l0 -58 -262 0 -263 1 -5 960 c-3 528 -6
961 -8 963 -7 7 -36 0 -58 -14 -18 -12 -28 -14 -36 -6 -16 16 -19 127 -4 147
12 16 14 16 45 1 45 -24 61 -8 61 55 l0 49 267 -2 268 -3 -1 -175z m1044 -248
l3 -53 -30 15 c-41 22 -58 20 -72 -6 -16 -29 -15 -144 1 -163 16 -19 40 -19
68 1 28 19 35 6 30 -57 l-3 -44 -500 -1 c-275 0 -506 2 -512 4 -9 3 -13 25
-13 63 0 66 -11 73 -66 44 -38 -19 -45 -6 -45 80 0 81 4 89 41 70 16 -8 38
-15 50 -15 18 0 20 6 20 54 0 43 4 55 17 58 9 2 240 3 512 3 l496 0 3 -53z
m982 4 c0 -46 -1 -48 -22 -41 -65 20 -75 18 -87 -16 -14 -41 -14 -97 0 -138
12 -35 40 -41 77 -15 28 19 35 6 30 -57 l-3 -44 -477 0 -478 0 0 55 c0 74 -12
85 -62 59 -36 -19 -39 -19 -45 -2 -9 22 -9 123 0 147 6 15 9 15 45 -3 50 -25
62 -14 62 54 l0 50 480 0 480 0 0 -49z m571 19 c5 -183 2 -318 -6 -323 -12 -8
-535 -10 -540 -2 -2 3 -4 25 -6 50 -1 25 -6 53 -11 63 -8 16 -11 16 -49 -3
l-39 -21 -10 26 c-11 29 -13 105 -4 129 7 18 39 22 49 6 7 -12 55 -14 56 -2 1
4 2 26 4 48 1 23 5 45 8 50 3 5 127 9 276 9 l271 0 1 -30z m390 -364 c1 -20 1
-437 0 -468 l-1 -23 -1485 0 -1485 0 0 128 c0 147 -5 159 -56 134 -47 -22 -57
-8 -56 74 1 79 11 94 46 70 50 -32 66 -18 66 58 l0 43 1485 0 c1350 0 1485 -2
1486 -16z m1167 -759 l2 -252 -2070 0 -2070 0 0 128 c0 147 -5 159 -56 134
-41 -19 -52 -11 -55 43 -5 104 5 125 49 100 45 -27 62 -15 62 44 0 38 4 50 17
53 9 2 939 3 2067 3 l2051 -1 3 -252z m-3748 -271 c4 -1 4 -175 1 -332 l-1
-25 -195 0 -195 0 0 57 c0 67 -13 84 -50 64 -44 -25 -60 -19 -61 20 -4 130 2
145 48 119 45 -26 63 -14 63 44 0 27 2 51 4 53 4 3 370 3 386 0z m-1720 -379
c3 -1 5 -81 5 -177 l0 -175 -195 2 -194 3 -2 53 c-1 70 -13 81 -59 56 -46 -24
-55 -13 -55 71 0 83 9 94 54 70 45 -25 58 -13 61 52 1 26 3 48 4 49 2 1 376
-3 381 -4z m5 -552 l0 -175 -195 0 -194 0 -2 53 c-2 70 -13 81 -60 58 -47 -22
-54 -13 -54 69 0 83 9 94 55 72 20 -9 37 -17 39 -17 9 0 23 58 21 88 l-2 32
196 -2 196 -3 0 -175z m3760 -199 c6 -1 9 -59 8 -158 -1 -87 -2 -200 -3 -250
l0 -93 -2415 0 -2415 0 0 128 c0 150 -5 160 -62 131 -36 -19 -39 -19 -46 -2
-11 28 -7 142 5 154 8 8 18 7 34 -5 48 -33 69 -17 69 54 0 21 4 40 10 42 8 2
4786 2 4815 -1z m5 -533 c3 -74 0 -481 -3 -484 -4 -4 -2397 -6 -4454 -4 l-373
0 0 129 c0 147 -6 162 -57 132 -44 -27 -57 -14 -57 61 0 35 3 71 6 81 7 17 10
17 47 -3 40 -20 40 -20 51 -1 5 11 10 38 10 60 l0 41 2415 0 c1925 0 2415 -3
2415 -12z m-4260 -688 l0 -180 -285 0 -285 0 0 60 c0 71 -15 84 -63 56 -21
-12 -33 -14 -41 -6 -12 12 -14 125 -3 153 7 18 9 18 44 -3 35 -21 38 -21 50
-4 7 10 13 37 13 61 l0 43 285 0 285 0 0 -180z m-192 -199 c10 -1 12 -40 10
-178 l-3 -178 -192 0 -193 0 0 56 c0 73 -15 87 -63 59 l-35 -21 -9 28 c-12 34
-9 131 4 144 6 6 21 4 40 -7 45 -26 63 -14 63 45 0 38 4 50 17 53 14 2 321 2
361 -1z m12 -551 l0 -180 -195 0 -195 0 0 53 c0 75 -10 87 -55 63 -48 -26 -58
-13 -59 68 -1 80 10 94 54 71 43 -22 60 -7 60 56 l0 49 195 0 195 0 0 -180z"/>
<path d="M1230 8080 c0 -47 4 -80 10 -80 6 0 10 33 10 80 0 47 -4 80 -10 80
-6 0 -10 -33 -10 -80z"/>
<path d="M1970 8080 c0 -47 4 -80 10 -80 6 0 10 33 10 80 0 47 -4 80 -10 80
-6 0 -10 -33 -10 -80z"/>
<path d="M278 8125 c-3 -16 -1 -25 7 -25 7 0 12 11 11 25 -1 32 -12 32 -18 0z"/>
<path d="M317 8143 c-10 -10 -8 -43 2 -43 5 0 8 11 7 25 0 14 -1 25 -2 25 0 0
-4 -3 -7 -7z"/>
<path d="M500 8075 l0 -75 61 0 c37 0 58 4 54 10 -3 6 -26 10 -51 10 -40 0
-44 2 -44 25 0 22 4 25 39 25 22 0 43 5 46 10 4 6 -12 10 -39 10 -39 0 -46 3
-46 20 0 17 7 20 45 20 25 0 45 5 45 10 0 6 -25 10 -55 10 l-55 0 0 -75z"/>
<path d="M1352 8130 c-46 -43 -15 -130 46 -130 32 0 62 18 62 37 0 15 -2 15
-18 0 -36 -33 -78 -18 -88 29 -10 50 49 87 84 52 6 -6 15 -8 19 -4 12 11 -27
36 -57 36 -14 0 -36 -9 -48 -20z"/>
<path d="M2140 8075 l0 -75 61 0 c37 0 58 4 54 10 -3 6 -26 10 -51 10 -40 0
-44 2 -44 25 0 23 4 25 46 25 27 0 43 4 39 10 -3 6 -24 10 -46 10 -32 0 -39 3
-39 20 0 17 7 20 45 20 25 0 45 5 45 10 0 6 -25 10 -55 10 l-55 0 0 -75z"/>
<path d="M2622 8129 c-8 -12 -10 -24 -5 -28 4 -3 8 -26 8 -51 0 -39 3 -45 23
-48 12 -2 22 1 22 7 0 8 6 8 18 0 30 -19 72 -3 72 25 0 18 -8 27 -30 35 -16 5
-30 15 -30 22 0 7 10 9 30 6 31 -7 42 6 14 17 -29 11 -53 6 -64 -13 -8 -16 -6
-23 12 -35 12 -9 28 -16 35 -16 7 0 13 -7 13 -16 0 -13 -7 -15 -35 -11 -19 3
-37 1 -41 -4 -11 -18 -22 1 -22 38 0 23 6 42 17 50 15 11 15 12 -1 13 -9 0
-18 7 -20 15 -2 12 -6 11 -16 -6z"/>
<path d="M743 8126 c-6 -8 -9 -16 -6 -20 5 -4 7 -21 12 -93 1 -16 41 -17 41
-2 0 5 -4 8 -9 5 -5 -3 -11 3 -14 15 -7 26 1 73 13 77 6 2 3 10 -4 18 -17 17
-18 17 -33 0z"/>
<path d="M1723 8126 c-6 -8 -9 -17 -5 -20 3 -4 7 -27 8 -52 2 -52 6 -59 31
-50 14 6 15 9 4 16 -17 10 -19 82 -3 88 8 2 8 8 -2 18 -17 17 -18 17 -33 0z"/>
<path d="M646 8092 c15 -27 15 -31 0 -60 -9 -18 -12 -32 -7 -32 6 0 16 10 22
22 l12 22 17 -22 c28 -34 44 -26 20 8 -21 29 -21 32 -5 56 21 32 10 46 -11 15
l-16 -22 -15 20 c-22 32 -37 25 -17 -7z"/>
<path d="M810 8101 c-17 -32 -12 -79 9 -91 25 -13 58 -13 66 1 11 16 -1 22
-23 10 -15 -8 -23 -7 -32 4 -17 20 -6 29 33 30 37 0 47 23 22 49 -22 22 -62
20 -75 -3z m64 -16 c4 -11 -2 -15 -24 -15 -29 0 -38 9 -23 23 12 12 41 7 47
-8z"/>
<path d="M920 8059 c0 -33 4 -59 10 -59 6 0 10 18 10 39 0 22 7 46 15 55 20
20 19 24 -10 24 -24 0 -25 -3 -25 -59z"/>
<path d="M990 8059 c0 -33 4 -59 10 -59 6 0 10 17 10 38 0 42 21 79 38 68 7
-4 12 -29 12 -57 0 -27 5 -49 10 -49 7 0 10 22 8 58 l-3 57 -42 1 -43 2 0 -59z"/>
<path d="M1123 8113 c-7 -2 -13 -12 -13 -21 0 -12 3 -13 12 -4 17 17 45 15 52
-3 4 -11 -2 -15 -23 -15 -36 0 -59 -25 -44 -48 13 -22 42 -27 57 -11 8 9 7 11
-6 6 -9 -3 -22 0 -28 8 -9 11 -7 16 10 25 21 11 44 5 35 -10 -8 -13 6 -40 20
-40 15 0 9 87 -8 108 -9 12 -41 15 -64 5z"/>
<path d="M1496 8104 c-35 -35 -10 -104 38 -104 32 0 46 19 46 60 0 20 -5 41
-12 48 -17 17 -54 15 -72 -4z m64 -44 c0 -38 -23 -56 -44 -35 -21 22 -20 62 1
74 24 13 43 -4 43 -39z"/>
<path d="M1609 8116 c0 -1 -2 -27 -2 -59 -2 -40 2 -57 11 -57 8 0 12 16 12 49
0 32 5 51 13 54 16 6 39 -6 36 -19 -5 -27 2 -84 11 -84 15 0 12 96 -3 108 -9
8 -72 14 -78 8z"/>
<path d="M1782 8060 c0 -33 4 -60 9 -60 10 0 10 0 14 55 2 43 -3 65 -15 65 -4
0 -8 -27 -8 -60z"/>
<path d="M1810 8110 c0 -5 7 -10 15 -10 8 0 15 5 15 10 0 6 -7 10 -15 10 -8 0
-15 -4 -15 -10z"/>
<path d="M1860 8100 c-15 -28 -9 -81 11 -93 46 -29 93 24 73 82 -13 35 -67 42
-84 11z m70 -36 c0 -32 -28 -58 -46 -43 -20 16 -18 66 3 78 23 12 43 -4 43
-35z"/>
<path d="M2270 8113 c0 -24 36 -113 45 -113 13 0 59 109 50 118 -9 9 -22 -10
-36 -53 l-13 -40 -15 48 c-8 26 -18 47 -23 47 -4 0 -8 -3 -8 -7z"/>
<path d="M2398 8109 c-27 -15 -25 -85 3 -99 24 -13 61 -10 66 7 3 7 -8 11 -29
10 -23 -2 -33 2 -33 12 0 10 11 15 35 15 40 1 51 24 25 50 -19 18 -42 20 -67
5z m60 -26 c2 -9 -7 -13 -27 -13 -30 0 -39 9 -24 24 11 10 46 3 51 -11z"/>
<path d="M2502 8058 c1 -32 6 -58 10 -58 9 0 9 -1 12 50 3 48 13 62 35 50 14
-7 17 -20 16 -55 -2 -30 1 -45 9 -45 14 0 15 87 3 107 -4 7 -25 11 -47 10
l-39 -1 1 -58z"/>
<path d="M2024 8004 c3 -9 6 -21 7 -27 0 -7 4 -3 9 8 13 29 12 35 -6 35 -11 0
-14 -5 -10 -16z"/>
<path d="M290 4017 l0 -64 65 25 c36 14 65 31 65 38 0 9 -25 23 -117 61 -10 4
-13 -12 -13 -60z m97 -1 c2 -1 -15 -10 -37 -19 l-40 -15 0 34 0 34 37 -15 c20
-9 38 -17 40 -19z"/>
<path d="M1023 7745 c-17 -19 -26 -36 -21 -37 6 -2 4 -27 -6 -63 -13 -52 -13
-57 0 -40 8 11 17 37 21 58 3 21 12 41 20 44 11 4 12 8 3 13 -9 6 -9 13 0 30
10 18 14 20 21 9 6 -9 9 -10 9 -2 0 25 -18 21 -47 -12z"/>
<path d="M860 7685 l0 -55 55 0 c57 0 57 0 57 50 0 61 1 60 -57 60 l-55 0 0
-55z m96 -5 l2 -45 -7 40 c-5 32 -11 41 -30 43 -29 5 -43 -9 -30 -28 9 -13 10
-12 5 3 -4 13 0 17 19 17 20 0 25 -5 25 -25 0 -16 -6 -25 -15 -25 -8 0 -15 -5
-15 -11 0 -6 -8 -9 -17 -7 -11 2 -18 14 -19 33 -2 48 5 56 45 53 35 -3 36 -4
37 -48z"/>
<path d="M870 4900 c0 -5 5 -10 10 -10 6 0 10 5 10 10 0 6 -4 10 -10 10 -5 0
-10 -4 -10 -10z"/>
<path d="M910 2117 c-75 -38 -29 -155 49 -125 54 20 66 74 26 113 -27 28 -39
30 -75 12z m64 -23 c21 -20 20 -24 -4 -24 -11 0 -20 7 -20 15 0 8 -4 15 -10
15 -5 0 -10 -6 -10 -14 0 -7 -9 -16 -20 -19 -11 -3 -20 -1 -20 3 0 15 31 40
50 40 10 0 26 -7 34 -16z m-4 -76 c-23 -19 -58 -16 -72 6 -13 18 -9 26 12 26
13 0 20 -7 20 -20 0 -11 5 -20 10 -20 6 0 10 9 10 19 0 11 8 21 18 23 26 6 28
-13 2 -34z"/>
<path d="M870 1525 l0 -85 80 0 80 0 0 85 0 85 -80 0 -80 0 0 -85z m148 1 l-3
-71 -67 0 -68 -1 0 66 c0 37 2 69 5 71 2 3 34 5 70 5 l66 1 -3 -71z"/>
<path d="M899 1560 c-1 -11 -1 -31 -1 -45 0 -14 0 -30 1 -36 1 -6 22 -9 54 -7
l52 3 2 53 1 52 -54 0 c-47 0 -54 -3 -55 -20z"/>
<path d="M896 1136 c-48 -48 -21 -120 45 -118 86 2 92 118 7 138 -21 4 -33 0
-52 -20z m71 -4 c8 -5 3 -11 -13 -19 -13 -6 -24 -7 -24 -2 0 5 -7 9 -15 9 -8
0 -15 -4 -15 -10 0 -5 5 -10 10 -10 14 0 12 -28 -2 -33 -7 -2 -10 -8 -6 -12 4
-4 13 -3 20 3 9 7 20 7 37 -2 l23 -13 -22 -6 c-12 -3 -33 -2 -46 3 -19 8 -24
17 -24 44 0 45 41 71 77 48z m23 -47 c0 -27 -12 -32 -29 -12 -8 10 -7 17 1 25
19 19 28 14 28 -13z"/>
<path d="M870 751 c0 -5 7 -14 15 -21 14 -12 14 -15 -1 -31 -22 -25 -10 -37
15 -15 16 15 19 15 31 1 7 -8 17 -15 23 -15 5 0 3 8 -6 18 -21 23 -21 36 -2
52 9 7 13 15 10 18 -3 3 -13 -2 -24 -12 -17 -15 -20 -15 -34 -1 -17 17 -27 19
-27 6z"/>
<path d="M900 375 c0 -18 -5 -25 -20 -25 -27 0 -25 -18 3 -22 15 -2 21 -9 19
-20 -2 -10 2 -18 8 -18 5 0 10 11 10 24 0 19 4 23 20 19 11 -3 20 0 20 6 0 6
-9 11 -20 11 -15 0 -20 7 -20 25 0 14 -4 25 -10 25 -5 0 -10 -11 -10 -25z"/>
<path d="M1508 7375 c-26 -15 -46 -51 -34 -63 4 -3 9 4 13 16 13 50 96 59 119
14 15 -30 24 -38 24 -21 -1 48 -74 81 -122 54z"/>
<path d="M1477 5103 c1 -49 2 -91 2 -95 1 -5 16 -8 34 -7 17 0 26 3 20 6 -9 3
-13 31 -13 88 0 71 3 84 18 88 9 3 -1 5 -23 6 l-40 1 2 -87z m31 -3 c0 -44 -4
-82 -9 -85 -5 -4 -9 30 -9 79 0 47 4 86 9 86 5 0 9 -36 9 -80z"/>
<path d="M1643 5183 c14 -4 17 -17 17 -88 0 -71 -3 -84 -17 -88 -10 -3 -1 -5
20 -6 l37 -1 0 95 0 95 -37 -1 c-21 -1 -30 -3 -20 -6z m47 -88 c0 -50 -4 -85
-10 -85 -6 0 -10 35 -10 85 0 50 4 85 10 85 6 0 10 -35 10 -85z"/>
<path d="M1580 5090 c0 -5 5 -10 10 -10 6 0 10 5 10 10 0 6 -4 10 -10 10 -5 0
-10 -4 -10 -10z"/>
<path d="M1483 2922 c10 -10 17 -22 17 -27 0 -5 -7 -17 -17 -27 -20 -22 -1
-24 22 -2 15 15 17 15 30 -2 18 -25 30 -12 13 15 -10 16 -10 23 0 33 20 20 13
32 -8 13 -19 -17 -21 -17 -38 -2 -25 23 -39 22 -19 -1z"/>
<path d="M1510 2545 c0 -18 -5 -25 -20 -25 -11 0 -20 -4 -20 -10 0 -5 9 -10
20 -10 13 0 20 -7 20 -20 0 -11 5 -20 10 -20 6 0 10 9 10 20 0 13 7 20 20 20
11 0 20 5 20 10 0 6 -9 10 -20 10 -15 0 -20 7 -20 25 0 14 -4 25 -10 25 -5 0
-10 -11 -10 -25z"/>
<path d="M2153 6992 c12 -13 17 -37 17 -77 l0 -59 40 39 c22 21 40 43 40 49 0
5 -13 -6 -30 -24 l-30 -34 0 43 c0 50 -14 81 -37 81 -15 0 -15 -2 0 -18z"/>
<path d="M2244 6994 c3 -9 6 -21 6 -27 0 -7 4 -7 9 2 10 16 4 41 -11 41 -6 0
-7 -7 -4 -16z"/>
<path d="M2148 6643 c-9 -21 -1 -137 10 -141 8 -2 12 8 12 27 0 28 3 31 33 31
38 0 57 15 57 45 0 12 -5 26 -12 33 -13 13 -95 17 -100 5z m87 -38 c0 -14 -9
-21 -32 -26 -31 -6 -33 -5 -33 23 0 27 2 29 33 26 24 -2 32 -8 32 -23z"/>
<path d="M2170 6255 c0 -7 -8 -19 -17 -24 -10 -6 -12 -11 -5 -11 18 0 15 -27
-5 -39 -12 -7 -14 -10 -4 -11 8 0 11 -7 8 -20 -3 -11 -1 -22 3 -25 5 -3 10 5
12 17 2 13 11 24 21 26 15 3 17 -1 11 -24 -5 -19 -4 -25 5 -20 6 4 11 16 11
28 0 14 5 18 15 14 8 -3 15 -1 15 4 0 6 -4 10 -10 10 -17 0 -11 28 8 39 9 6
11 11 5 11 -7 0 -13 10 -14 23 l0 22 -9 -22 c-12 -29 -45 -32 -37 -3 3 11 1
20 -4 20 -5 0 -9 -7 -9 -15z m40 -39 c0 -2 -3 -11 -6 -20 -9 -23 -34 -20 -34
4 0 13 7 20 20 20 11 0 20 -2 20 -4z"/>
<path d="M2150 4623 c0 -5 7 -16 14 -26 12 -16 11 -26 -10 -73 -13 -30 -19
-54 -13 -54 5 0 18 19 27 41 l18 42 14 -42 c12 -37 30 -56 30 -31 0 15 -42
124 -53 138 -10 13 -27 16 -27 5z"/>
<path d="M2712 6638 c-17 -17 -15 -33 3 -18 13 11 15 5 15 -43 0 -48 -3 -56
-22 -62 -22 -8 -22 -8 5 -12 15 -2 39 -2 55 0 26 4 26 4 5 12 -21 7 -23 14
-23 71 0 65 -11 79 -38 52z"/>
<path d="M2712 6258 c-17 -17 -15 -33 3 -18 13 11 15 5 15 -43 0 -48 -3 -56
-22 -62 -22 -8 -22 -8 5 -12 15 -2 39 -2 55 0 26 4 26 4 5 12 -21 7 -23 14
-23 71 0 65 -11 79 -38 52z"/>
<path d="M2826 6254 c-10 -9 -16 -33 -16 -59 0 -46 19 -75 48 -75 38 0 57 36
42 76 -9 22 -15 26 -41 22 -23 -4 -29 -1 -27 11 3 11 14 16 36 15 34 -2 43 10
16 20 -25 10 -42 7 -58 -10z m57 -66 c7 -23 -5 -48 -24 -48 -22 0 -34 22 -25
45 7 18 43 20 49 3z"/>
<path d="M2704 5882 c20 -23 19 -44 -8 -104 -9 -21 -12 -38 -6 -38 5 0 17 17
26 38 l16 37 15 -37 c16 -41 39 -53 28 -15 -24 78 -52 132 -70 136 -20 3 -20
3 -1 -17z"/>
<path d="M2696 5468 c-9 -37 -7 -73 6 -86 15 -15 58 -16 58 -2 0 6 8 5 20 -2
15 -10 25 -10 38 -2 21 14 26 35 17 80 -8 46 -28 44 -22 -3 3 -20 3 -42 0 -50
-8 -22 -30 -15 -37 12 -6 22 -28 38 -25 18 4 -24 -3 -43 -15 -43 -19 0 -25 20
-19 63 5 40 -11 51 -21 15z"/>
<path d="M2731 4137 c-9 -11 -8 -17 4 -27 10 -9 15 -9 15 -1 0 6 21 12 53 13
l52 2 -50 3 c-27 3 -52 9 -56 14 -3 6 -10 4 -18 -4z"/>
<path d="M3239 5542 c-19 -16 -23 -29 -24 -93 -2 -83 13 -124 47 -132 13 -4
98 -6 188 -6 154 0 167 2 188 21 19 19 22 31 22 105 0 125 3 123 -219 123
-159 0 -181 -2 -202 -18z m388 -15 c22 -22 22 -162 1 -184 -13 -12 -46 -15
-188 -15 -208 0 -210 1 -210 98 0 73 12 111 36 116 10 1 91 3 181 2 134 -1
167 -4 180 -17z"/>
<path d="M3316 5468 c-9 -12 -16 -29 -16 -38 0 -47 62 -78 90 -45 10 12 6 13
-23 8 -26 -4 -36 -1 -40 11 -7 17 6 21 51 17 17 -1 22 3 22 22 0 48 -56 65
-84 25z m64 -13 c0 -9 -9 -15 -25 -15 -16 0 -25 6 -25 15 0 9 9 15 25 15 16 0
25 -6 25 -15z"/>
<path d="M3315 5070 c0 -58 3 -80 12 -80 9 0 13 22 13 80 0 57 -4 80 -13 80
-9 0 -12 -23 -12 -80z"/>
<path d="M3359 5143 c-1 -10 -1 -123 0 -140 1 -7 6 -13 11 -13 6 0 10 33 10
80 0 47 -4 80 -10 80 -5 0 -10 -3 -11 -7z"/>
<path d="M3400 5070 c0 -47 4 -80 10 -80 6 0 10 33 10 80 0 47 -4 80 -10 80
-6 0 -10 -33 -10 -80z"/>
<path d="M3300 4723 c0 -23 36 -113 45 -113 17 0 45 55 45 89 0 17 -4 31 -10
31 -5 0 -10 -13 -10 -29 0 -34 -9 -61 -20 -61 -4 0 -13 20 -20 45 -7 25 -17
45 -21 45 -5 0 -9 -3 -9 -7z"/>
<path d="M3335 4290 c-3 -11 -14 -20 -23 -21 -11 0 -12 -3 -4 -6 18 -7 15 -41
-5 -46 -15 -4 -15 -5 -2 -6 12 -1 15 -9 13 -28 l-4 -28 12 28 c7 15 18 27 25
27 7 0 13 -12 14 -27 l1 -28 9 27 c6 15 18 29 27 31 15 4 15 5 0 6 -22 1 -23
15 -2 35 8 9 11 16 6 16 -6 0 -8 10 -4 22 3 14 2 19 -6 14 -7 -4 -12 -14 -12
-22 0 -8 -9 -14 -19 -14 -14 0 -18 5 -14 20 3 11 3 20 0 20 -3 0 -9 -9 -12
-20z m35 -50 c0 -13 -7 -20 -20 -20 -22 0 -23 1 -14 24 9 23 34 20 34 -4z"/>
<path d="M3325 3740 c17 -18 17 -21 1 -45 -18 -27 -7 -35 14 -10 12 14 15 14
31 -1 24 -22 39 -9 16 13 -15 16 -15 18 0 35 21 23 9 36 -13 14 -15 -15 -18
-15 -33 -1 -25 22 -37 19 -16 -5z"/>
<path d="M3350 3296 c0 -19 -5 -26 -20 -26 -11 0 -20 -4 -20 -10 0 -5 9 -10
20 -10 13 0 20 -7 20 -20 0 -11 4 -20 9 -20 6 0 8 9 6 20 -3 16 2 20 21 20 13
0 24 5 24 10 0 6 -11 10 -24 10 -19 0 -24 4 -21 20 2 11 0 22 -6 25 -5 4 -9
-5 -9 -19z"/>
<path d="M3789 4786 c-19 -20 -22 -40 -20 -136 2 -94 -15 -90 402 -90 429 0
399 -9 399 125 0 131 30 122 -401 122 -349 0 -362 -1 -380 -21z m752 -12 c18
-21 19 -157 2 -181 -13 -17 -35 -18 -373 -18 -280 0 -362 3 -372 13 -19 19
-20 151 -2 180 l14 22 359 0 c313 0 360 -2 372 -16z"/>
<path d="M3944 4738 c-4 -7 -3 -8 4 -4 7 4 12 4 13 -1 0 -4 2 -16 4 -25 2 -10
-4 -22 -13 -28 -13 -7 -9 -9 18 -9 19 0 29 3 23 6 -7 2 -13 20 -13 39 0 34
-21 47 -36 22z"/>
<path d="M4220 4727 c0 -16 44 -117 51 -117 15 0 40 46 46 84 4 27 2 36 -8 36
-9 0 -14 -12 -15 -35 -1 -57 -19 -64 -36 -14 -8 24 -20 45 -26 47 -7 2 -12 1
-12 -1z"/>
<path d="M3864 4656 c-9 -38 4 -68 28 -64 25 4 38 35 27 66 -11 30 -47 29 -55
-2z m41 -22 c0 -19 -5 -29 -15 -29 -13 0 -17 19 -11 58 3 22 26 -3 26 -29z"/>
<path d="M4144 4662 c4 -7 -13 -12 -46 -15 l-53 -3 53 -2 c40 -2 51 -5 46 -14
-5 -8 -1 -8 12 2 10 8 21 15 22 16 2 1 -6 8 -18 14 -14 7 -20 8 -16 2z"/>
<path d="M5149 4796 c-29 -14 -36 -43 -33 -130 3 -105 5 -106 218 -106 214 1
210 -2 215 115 3 78 1 86 -21 108 -23 23 -28 24 -190 24 -104 0 -175 -4 -189
-11z m369 -18 c7 -7 12 -44 12 -95 0 -109 -2 -110 -177 -109 -73 1 -135 5
-139 9 -4 3 -2 13 4 20 7 8 10 16 7 19 -9 8 16 66 31 72 21 8 18 -43 -3 -67
-18 -19 -17 -20 5 -8 48 26 46 92 -3 87 -33 -4 -36 -7 -50 -68 -8 -38 -17 -54
-30 -57 -31 -6 -45 27 -45 105 0 106 -4 104 204 104 120 0 176 -4 184 -12z"/>
<path d="M4915 4692 l0 -77 65 -1 c37 -1 47 1 23 3 -41 4 -43 5 -43 38 0 32 2
34 38 38 l37 4 -37 1 c-35 2 -38 4 -38 31 0 28 3 30 43 34 32 3 26 4 -23 5
l-65 2 0 -78z m33 -2 c-1 -38 -5 -70 -10 -70 -4 0 -8 32 -8 70 0 39 4 70 9 70
6 0 10 -31 9 -70z"/>
<path d="M5817 4790 c-18 -15 -22 -29 -24 -95 -2 -75 7 -111 31 -127 6 -4 92
-8 191 -8 99 0 185 4 191 8 23 15 33 52 32 121 -2 117 0 116 -218 117 -159 1
-184 -1 -203 -16z m384 -10 c16 -9 19 -22 19 -95 0 -71 -3 -86 -19 -97 -27
-19 -352 -18 -375 1 -12 10 -16 31 -16 88 0 118 -9 113 196 113 102 0 183 -4
195 -10z"/>
<path d="M5896 4714 c-36 -35 -10 -104 38 -104 13 0 29 7 36 15 14 17 7 19
-20 5 -14 -7 -23 -6 -34 6 -25 24 -19 31 24 27 36 -3 40 -1 40 20 0 45 -52 64
-84 31z m62 -30 c-3 -3 -19 -4 -34 -2 -27 3 -27 4 -9 21 16 17 19 17 33 3 9
-9 13 -18 10 -22z"/>
<path d="M3928 4423 c-2 -12 -6 -55 -7 -84 l-1 -27 -37 19 c-38 20 -38 20 -55
-2 -20 -24 -25 -120 -8 -163 11 -30 44 -35 72 -9 25 23 31 12 32 -60 l1 -62
777 0 778 0 0 197 0 198 -775 0 c-426 0 -776 -3 -777 -7z m950 -12 c15 -1 17
-91 2 -91 -6 0 -24 7 -40 15 -26 13 -30 13 -44 -1 -20 -20 -26 -111 -11 -171
6 -27 40 -31 71 -8 30 23 34 19 34 -43 l0 -59 -472 0 -473 0 -2 60 c-3 72 -16
83 -60 57 -38 -22 -50 -13 -53 40 -6 107 4 128 47 104 51 -30 71 -4 62 83 0 4
6 10 15 13 12 4 867 5 924 1z m567 0 c19 -1 20 -8 20 -178 l0 -178 -273 -1
c-150 0 -275 2 -277 6 -3 4 -5 30 -6 59 -3 66 -15 76 -62 51 -34 -19 -37 -19
-46 -2 -11 20 -9 131 2 149 6 10 14 10 37 -2 55 -28 70 -17 70 55 0 21 4 40
10 42 8 2 456 2 525 -1z"/>
<path d="M4340 4353 c-31 -12 -39 -38 -40 -120 0 -124 -2 -123 208 -123 210 1
206 -2 211 116 3 78 1 88 -20 110 -22 24 -26 24 -183 23 -89 0 -168 -3 -176
-6z m352 -32 c9 -13 13 -44 12 -92 -3 -102 -8 -104 -160 -102 -186 2 -198 3
-214 13 -19 12 -20 161 -1 184 11 13 40 16 182 16 154 0 169 -2 181 -19z"/>
<path d="M4406 4223 c7 -16 14 -36 14 -45 0 -22 16 -24 24 -3 3 8 2 15 -3 15
-5 0 -11 14 -14 30 -4 17 -13 30 -21 30 -13 0 -13 -3 0 -27z"/>
<path d="M4450 4241 c0 -6 5 -13 10 -16 6 -3 10 1 10 9 0 9 -4 16 -10 16 -5 0
-10 -4 -10 -9z"/>
<path d="M4100 4240 l0 -80 63 1 c54 2 57 3 22 8 -37 6 -40 9 -42 39 -1 31 0
32 40 33 l42 2 -40 6 c-34 5 -40 10 -40 31 -1 22 5 26 40 31 35 5 32 6 -22 7
l-63 2 0 -80z m30 0 c0 -40 -4 -70 -10 -70 -6 0 -10 30 -10 70 0 40 4 70 10
70 6 0 10 -30 10 -70z"/>
<path d="M4989 4341 c-20 -16 -23 -28 -25 -101 -2 -75 1 -85 22 -107 22 -22
28 -23 203 -23 l180 0 20 26 c17 22 21 41 21 105 0 72 -2 79 -26 98 -25 19
-40 21 -199 21 -154 0 -175 -2 -196 -19z m384 -13 c14 -10 17 -30 18 -92 1
-113 7 -110 -207 -109 -209 0 -204 -2 -204 106 0 112 -8 107 198 107 127 0
183 -4 195 -12z"/>
<path d="M5071 4266 c-19 -23 -22 -59 -6 -83 18 -26 56 -30 75 -8 14 17 7 19
-19 6 -9 -5 -23 -6 -30 -1 -23 14 -6 34 30 34 28 1 33 4 31 21 -2 11 -9 26
-14 33 -14 16 -53 15 -67 -2z m59 -21 c0 -9 -9 -15 -25 -15 -16 0 -25 6 -25
15 0 9 9 15 25 15 16 0 25 -6 25 -15z"/>
<path d="M6130 4375 c0 -30 -4 -55 -9 -55 -5 0 -25 7 -44 15 -35 14 -37 14
-48 -7 -15 -28 -19 -124 -7 -159 11 -33 40 -38 72 -14 32 24 36 18 36 -49 0
-42 4 -65 13 -68 6 -2 102 -4 212 -4 l200 1 3 198 2 197 -215 0 -215 0 0 -55z
m398 36 c9 -1 12 -44 12 -179 l0 -179 -195 0 -195 0 0 43 c0 55 0 55 -11 77
-9 16 -12 16 -39 2 -59 -31 -70 -19 -66 72 3 78 9 87 46 68 25 -13 59 -20 61
-12 0 1 3 24 6 52 2 27 8 52 13 55 6 4 316 5 368 1z"/>
<path d="M6314 4302 c-6 -4 -14 -17 -18 -29 -9 -29 27 -67 55 -58 13 5 19 2
19 -10 0 -21 -29 -31 -51 -16 -15 9 -19 8 -19 -3 0 -35 74 -30 85 6 11 33 8
87 -5 103 -13 16 -48 20 -66 7z m54 -40 c4 -26 -21 -40 -42 -23 -8 7 -12 21
-9 32 8 28 47 22 51 -9z"/>
<path d="M5573 4350 c-25 -10 -35 -38 -35 -96 0 -87 3 -105 22 -124 18 -18 33
-20 195 -20 107 0 183 4 199 11 30 14 36 34 36 122 0 59 -3 71 -25 92 -24 25
-26 25 -197 24 -95 0 -183 -4 -195 -9z m385 -22 c19 -19 16 -172 -3 -188 -11
-10 -65 -13 -197 -13 -209 0 -201 -4 -204 103 -4 111 -6 110 209 110 129 0
187 -4 195 -12z"/>
<path d="M5643 4262 c10 -10 17 -22 17 -27 0 -5 -7 -17 -17 -27 -9 -10 -11
-18 -5 -18 6 0 14 5 17 10 9 14 42 12 48 -2 2 -7 8 -10 13 -5 4 4 0 15 -9 24
-15 16 -15 18 0 35 9 10 13 21 10 25 -4 4 -14 -2 -21 -13 -14 -18 -15 -18 -33
-1 -26 23 -41 22 -20 -1z"/>
<path d="M3929 3903 c-2 -10 -6 -61 -8 -92 -1 -22 -2 -23 -26 -7 -58 38 -85
10 -85 -90 0 -90 28 -115 85 -78 28 18 27 22 28 -76 l1 -45 801 0 800 0 3 198
2 197 -800 0 c-440 0 -801 -3 -801 -7z m1011 -56 c0 -54 -6 -60 -36 -41 -58
39 -91 -9 -81 -115 8 -74 22 -87 69 -62 43 21 48 16 48 -53 l0 -43 -498 0
-498 0 -2 60 c-1 35 -6 63 -13 68 -7 4 -28 -1 -48 -12 -31 -17 -36 -17 -44 -3
-11 19 -11 129 0 149 8 13 13 12 44 -4 20 -11 41 -16 47 -12 6 4 12 30 13 59
l2 52 499 0 498 0 0 -43z m572 -69 c2 -62 2 -143 0 -179 l-3 -65 -274 -1
c-151 0 -275 3 -276 6 0 3 -2 29 -3 57 -4 72 -10 78 -58 53 -22 -11 -43 -18
-46 -14 -4 3 -8 40 -10 81 -4 64 -2 75 14 81 10 3 29 0 44 -9 38 -21 52 -9 55
48 2 27 4 50 4 52 1 1 124 2 275 2 l275 0 3 -112z"/>
<path d="M4325 3818 c-23 -18 -25 -26 -25 -104 0 -127 -6 -124 234 -124 l195
0 20 26 c17 21 19 38 17 105 -4 117 3 114 -227 115 -174 1 -192 0 -214 -18z
m409 -14 c12 -11 16 -36 16 -94 0 -66 -3 -81 -19 -92 -14 -10 -63 -13 -197
-12 -218 2 -199 0 -211 27 -14 32 -10 152 6 171 20 24 382 24 405 0z"/>
<path d="M4399 3703 c4 -16 6 -33 4 -40 -8 -24 15 -21 26 3 6 15 7 23 1 19 -6
-4 -10 5 -10 19 0 16 -6 26 -14 26 -11 0 -13 -7 -7 -27z"/>
<path d="M4452 3718 c-8 -10 -9 -19 -3 -22 5 -4 8 -15 6 -26 -5 -25 9 -34 25
-15 8 9 9 15 2 15 -6 0 -12 14 -14 32 -3 27 -5 29 -16 16z"/>
<path d="M4503 3715 c0 -8 4 -12 9 -9 4 3 8 9 8 15 0 5 -4 9 -8 9 -5 0 -9 -7
-9 -15z"/>
<path d="M4100 3720 l0 -80 63 2 c55 1 57 2 22 7 -38 6 -41 9 -40 36 0 27 4
31 40 36 l40 5 -40 5 c-35 3 -40 7 -40 29 0 21 6 26 40 31 35 5 32 6 -22 8
l-63 1 0 -80z m30 0 c0 -40 -4 -70 -10 -70 -6 0 -10 30 -10 70 0 40 4 70 10
70 6 0 10 -30 10 -70z"/>
<path d="M5033 3814 c-20 -20 -23 -33 -23 -102 0 -65 3 -82 20 -100 20 -21 28
-22 201 -22 175 0 181 1 203 23 21 21 23 32 22 105 -3 120 3 117 -218 118
-178 2 -182 1 -205 -22z m391 -10 c23 -22 23 -166 0 -185 -23 -19 -348 -20
-375 -1 -16 11 -19 26 -19 96 0 50 5 87 12 94 8 8 65 12 189 12 148 0 180 -3
193 -16z"/>
<path d="M5116 3744 c-36 -35 -10 -104 38 -104 13 0 29 7 36 15 11 13 8 14
-20 9 -22 -5 -35 -3 -41 7 -14 23 -11 25 31 23 43 -2 50 9 30 47 -13 23 -53
25 -74 3z m64 -24 c0 -6 -14 -10 -30 -10 -28 0 -30 2 -20 20 9 16 15 18 30 10
11 -6 20 -15 20 -20z"/>
<path d="M6180 3863 c0 -63 -10 -78 -36 -58 -52 39 -84 7 -84 -85 0 -92 32
-124 87 -85 19 13 22 13 27 -1 3 -9 6 -39 6 -67 l0 -52 770 0 770 0 0 197 0
198 -770 0 -770 0 0 -47z m950 -19 c0 -43 -1 -46 -22 -39 -64 20 -77 18 -84
-11 -9 -36 -9 -111 -1 -146 8 -32 39 -37 73 -13 28 19 34 11 34 -50 l0 -52
-468 0 -469 0 1 55 c2 76 -9 88 -56 63 -31 -17 -38 -18 -48 -6 -13 15 -11 148
2 161 4 3 22 -3 40 -14 45 -28 60 -17 62 47 l1 51 468 0 467 0 0 -46z m575
-131 l0 -178 -278 -1 -277 -1 0 51 c0 74 -9 83 -59 66 -23 -7 -44 -10 -48 -7
-9 10 -10 128 -1 150 7 17 10 17 47 -3 40 -20 40 -20 51 -1 5 11 10 38 10 60
l0 41 278 0 277 0 0 -177z"/>
<path d="M6573 3814 c-20 -20 -23 -33 -23 -104 0 -120 -1 -120 205 -120 206 0
205 -1 205 124 0 121 -2 123 -206 123 -152 1 -158 0 -181 -23z m357 -9 c6 -8
13 -46 14 -85 4 -115 3 -115 -190 -114 -88 1 -162 2 -165 3 -25 5 -32 168 -8
197 17 21 331 21 349 -1z"/>
<path d="M6650 3719 c0 -6 9 -8 22 -3 20 6 21 5 9 -10 -8 -9 -12 -18 -10 -20
2 -2 12 7 22 20 l18 24 -31 0 c-16 0 -30 -5 -30 -11z"/>
<path d="M6635 3650 c-3 -5 -2 -10 4 -10 5 0 18 -3 28 -7 16 -6 16 -5 4 10
-15 19 -27 22 -36 7z"/>
<path d="M6690 3640 c0 -5 5 -10 11 -10 5 0 7 5 4 10 -3 6 -8 10 -11 10 -2 0
-4 -4 -4 -10z"/>
<path d="M6350 3720 l0 -80 63 2 c41 1 50 3 25 5 -21 2 -38 9 -38 15 0 7 -5 6
-14 -1 -8 -7 -16 -8 -19 -4 -9 17 -2 126 9 130 7 2 10 -6 9 -22 -2 -14 1 -25
6 -25 6 0 9 6 8 13 -4 29 3 36 39 40 25 2 16 4 -25 5 l-63 2 0 -80z"/>
<path d="M6380 3705 c0 -14 4 -25 9 -25 5 0 8 8 7 18 -2 13 6 18 38 23 l41 6
-47 1 c-45 2 -48 0 -48 -23z"/>
<path d="M7227 3820 c-17 -15 -21 -29 -23 -99 -1 -67 1 -85 18 -106 l19 -25
184 0 c177 0 185 1 205 22 28 31 29 164 1 199 -19 24 -23 24 -201 25 -157 1
-184 -1 -203 -16z m387 -13 c27 -20 25 -165 -2 -187 -26 -21 -351 -22 -376 -1
-23 19 -23 163 0 185 13 13 44 16 188 16 127 0 177 -3 190 -13z"/>
<path d="M7305 3737 c-17 -27 -16 -57 4 -81 17 -20 55 -21 71 -1 8 9 9 15 2
15 -6 0 -13 -4 -16 -9 -10 -15 -47 0 -44 18 2 12 12 15 36 13 28 -3 32 -1 32
20 0 50 -58 66 -85 25z m65 -12 c0 -9 -9 -15 -25 -15 -16 0 -25 6 -25 15 0 9
9 15 25 15 16 0 25 -6 25 -15z"/>
<path d="M5628 3833 c-32 -8 -45 -45 -43 -125 1 -120 -2 -118 226 -118 186 0
188 0 207 24 15 20 18 40 17 105 -1 119 4 116 -213 117 -97 0 -185 -1 -194 -3z
m376 -29 c12 -11 16 -36 16 -94 0 -66 -3 -81 -19 -92 -27 -19 -362 -18 -385 1
-23 19 -23 163 0 185 13 13 45 16 194 16 149 0 181 -3 194 -16z"/>
<path d="M5680 3751 c0 -5 7 -11 15 -15 19 -7 19 -23 0 -43 -22 -21 -9 -30 13
-10 17 15 19 15 35 0 9 -9 20 -14 24 -10 4 4 -1 15 -10 24 -15 16 -15 18 0 35
9 10 13 21 9 26 -4 4 -14 -2 -22 -12 -13 -18 -15 -18 -32 -3 -21 19 -32 22
-32 8z"/>
<path d="M3869 3324 c-16 -19 -15 -100 2 -120 18 -22 57 -17 75 11 18 28 14
85 -7 111 -15 19 -53 18 -70 -2z m67 -41 c8 -41 -5 -68 -32 -68 -12 0 -20 10
-24 31 -9 41 5 74 29 74 15 0 22 -9 27 -37z"/>
<path d="M2162 2958 c-17 -17 -15 -33 3 -18 13 11 15 5 15 -44 0 -43 -3 -56
-15 -56 -8 0 -15 -4 -15 -10 0 -5 20 -10 45 -10 25 0 45 5 45 10 0 6 -9 10
-21 10 -18 0 -20 5 -18 48 1 26 1 55 0 65 -1 20 -21 23 -39 5z"/>
<path d="M2156 2574 c-10 -9 -16 -33 -16 -59 0 -62 37 -93 79 -66 22 14 27
104 6 124 -21 21 -49 22 -69 1z m58 -20 c9 -22 7 -67 -3 -82 -5 -8 -17 -12
-27 -10 -14 2 -20 13 -22 42 -2 21 -1 44 2 52 7 19 42 18 50 -2z"/>
<path d="M2010 2207 c0 -63 -5 -71 -34 -52 -34 24 -65 19 -73 -12 -11 -42 -8
-135 6 -161 11 -21 13 -21 48 -7 19 8 39 15 44 15 5 0 9 -29 9 -65 l0 -65 513
2 512 3 0 195 0 195 -512 3 -513 2 0 -53z m1007 -147 l-1 -180 -493 0 -493 0
0 49 c0 83 -19 100 -69 64 -22 -15 -25 -15 -37 1 -10 15 -13 97 -5 149 2 11
26 8 57 -8 26 -13 30 -13 42 2 6 9 12 36 12 60 l0 43 494 0 494 0 -1 -180z"/>
<path d="M2218 2129 c-11 -6 -17 -21 -17 -37 2 -23 2 -24 6 -5 2 13 14 30 26
38 24 17 12 20 -15 4z"/>
<path d="M2264 2096 c-47 -47 -52 -62 -29 -92 14 -18 14 -18 15 5 0 29 44 106
68 120 12 7 13 10 3 11 -7 0 -33 -20 -57 -44z"/>
<path d="M2490 2125 c-7 -9 -13 -36 -13 -60 0 -51 16 -75 49 -75 49 0 71 91
33 136 -15 19 -53 18 -69 -1z m63 -27 c4 -13 4 -32 2 -43 -2 -11 -4 -26 -4
-33 -1 -8 -10 -12 -23 -10 -42 6 -42 108 1 108 11 0 21 -9 24 -22z"/>
<path d="M2676 2124 c-17 -16 -20 -30 -17 -78 2 -38 17 -56 47 -56 50 0 66 84
18 96 -12 3 -28 3 -34 -1 -8 -5 -11 -1 -8 11 3 14 12 19 36 17 27 -1 31 1 21
13 -15 19 -44 18 -63 -2z m52 -87 c3 -25 0 -28 -20 -25 -17 2 -24 11 -26 31
-3 25 0 28 20 25 17 -2 24 -11 26 -31z"/>
<path d="M2779 2125 c-1 -8 -1 -22 -1 -30 0 -30 3 -33 35 -31 26 1 33 -3 35
-22 4 -27 -23 -40 -48 -24 -22 13 -34 4 -19 -15 14 -16 61 -17 77 -1 16 16 15
63 0 76 -7 5 -24 12 -38 14 -36 5 -31 22 8 26 46 5 40 22 -8 22 -28 0 -40 -4
-41 -15z"/>
<path d="M2335 2111 c-3 -12 -10 -21 -14 -21 -4 0 -16 -7 -27 -15 -16 -14 -14
-14 14 0 32 15 50 40 39 51 -3 3 -8 -4 -12 -15z"/>
<path d="M2275 2039 c-4 -6 -5 -12 -2 -15 2 -3 7 2 10 11 7 17 1 20 -8 4z"/>
<path d="M2600 2000 c0 -5 4 -10 9 -10 6 0 13 5 16 10 3 6 -1 10 -9 10 -9 0
-16 -4 -16 -10z"/>
<path d="M3609 2258 c-1 -2 -3 -23 -4 -48 -2 -25 -3 -51 -4 -58 -1 -10 -8 -9
-31 3 -62 32 -80 11 -80 -89 0 -53 4 -70 21 -87 l20 -20 35 21 c25 16 34 18
35 8 1 -7 2 -38 3 -68 l1 -55 303 -3 302 -2 0 200 0 200 -300 0 c-165 0 -301
-1 -301 -2z m581 -198 l0 -180 -285 0 -286 0 2 54 c3 78 -11 91 -67 62 -15 -8
-31 -13 -36 -10 -9 6 -11 134 -2 158 5 14 11 13 46 -5 53 -27 63 -15 58 69
l-2 32 286 0 286 0 0 -180z"/>
<path d="M3780 2121 c-5 -11 -10 -38 -10 -60 0 -64 47 -93 85 -51 14 15 16 30
12 66 -2 26 -11 50 -18 55 -24 15 -58 10 -69 -10z m64 -17 c9 -22 7 -67 -3
-82 -5 -8 -17 -12 -27 -10 -14 2 -20 13 -22 42 -2 21 -1 44 2 52 7 19 42 18
50 -2z"/>
<path d="M3960 2125 c-16 -19 -5 -34 12 -17 7 7 20 12 30 12 29 0 21 -33 -17
-70 -49 -48 -46 -60 16 -60 31 0 48 4 44 10 -3 6 -19 10 -36 10 -37 0 -37 13
1 40 34 24 42 73 14 84 -27 10 -51 7 -64 -9z"/>
<path d="M3901 2011 c-10 -6 -10 -10 -1 -16 13 -8 24 -1 19 14 -3 6 -10 7 -18
2z"/>
<path d="M4690 2200 c0 -63 -4 -69 -36 -45 -28 21 -61 19 -69 -5 -11 -34 -13
-112 -4 -144 12 -42 28 -48 66 -26 17 10 34 16 37 13 3 -4 6 -35 6 -70 l0 -63
213 2 212 3 3 198 2 197 -215 0 -215 0 0 -60z m410 -140 l0 -180 -194 0 -194
0 -4 60 c-2 33 -8 63 -12 67 -3 4 -21 1 -39 -5 -49 -20 -51 -19 -60 19 -12 45
-1 129 17 129 8 0 27 -7 42 -15 26 -13 30 -13 42 2 6 9 12 36 12 60 l0 43 195
0 195 0 0 -180z"/>
<path d="M4878 2126 c-10 -7 -15 -16 -11 -19 3 -4 12 -2 20 5 12 10 14 2 12
-45 -2 -48 -5 -57 -21 -57 -10 0 -18 -4 -18 -10 0 -5 20 -10 45 -10 25 0 45 5
45 10 0 6 -7 10 -15 10 -12 0 -15 14 -15 65 0 68 -8 77 -42 51z"/>
<path d="M5600 2207 c0 -30 -3 -56 -6 -60 -4 -3 -19 0 -35 8 -15 8 -35 15 -43
15 -23 0 -40 -69 -32 -134 9 -69 28 -84 73 -56 17 10 34 16 37 13 3 -4 6 -35
6 -70 l0 -63 213 2 212 3 1 198 1 197 -214 0 -213 0 0 -53z m410 -147 l-1
-180 -195 0 c-148 0 -194 3 -195 13 -4 65 -6 94 -8 105 -1 16 -26 15 -62 -3
-28 -15 -30 -15 -39 10 -11 29 -13 105 -4 129 8 20 24 20 60 1 38 -19 48 -7
49 55 l0 50 198 0 197 0 0 -180z"/>
<path d="M5780 2130 c-10 -6 -15 -26 -15 -65 0 -57 11 -75 47 -75 29 0 48 29
48 75 0 62 -37 92 -80 65z m55 -65 c0 -41 -3 -50 -19 -53 -22 -5 -36 14 -36
50 0 42 10 59 34 56 18 -3 21 -10 21 -53z"/>
<path d="M3226 2111 c-40 -44 6 -130 62 -117 31 8 62 40 62 66 0 9 -9 29 -20
43 -24 30 -80 35 -104 8z m96 -14 c16 -30 20 -57 8 -57 -6 0 -9 -5 -7 -12 1
-7 -4 -13 -10 -14 -7 -1 -14 -2 -15 -4 -10 -7 -38 -7 -38 1 0 5 -6 8 -12 7 -7
-2 -12 3 -10 10 1 6 -2 12 -8 12 -13 0 -5 61 9 70 27 16 71 9 83 -13z"/>
<path d="M3240 2084 c0 -2 9 -8 20 -14 11 -6 20 -7 20 -2 0 6 -9 12 -20 15
-11 3 -20 3 -20 1z"/>
<path d="M5310 2113 c-1 -7 -3 -19 -4 -25 0 -7 -11 -14 -24 -16 -26 -4 -20
-22 9 -22 10 0 18 -3 18 -7 -3 -20 2 -34 11 -28 5 3 7 12 3 20 -3 10 1 15 15
15 12 0 24 5 27 10 3 6 -5 10 -19 10 -19 0 -26 6 -29 28 -2 15 -5 21 -7 15z"/>
<path d="M1516 2094 c-9 -8 -16 -28 -16 -44 0 -18 -8 -34 -22 -44 -22 -16 -22
-16 9 -16 36 0 50 14 58 60 3 19 13 41 22 48 15 11 14 12 -9 12 -15 0 -34 -7
-42 -16z m30 -2 c-3 -5 -8 -24 -11 -43 -6 -32 -19 -49 -39 -49 -6 0 -5 5 2 12
7 7 12 24 12 38 0 14 5 31 12 38 14 14 32 16 24 4z"/>
<path d="M4376 2085 c16 -24 16 -27 -1 -45 -10 -11 -13 -20 -8 -20 6 0 16 7
23 15 12 14 15 14 31 -1 24 -22 39 -9 16 13 -15 16 -15 18 0 35 21 23 9 36
-13 14 -15 -15 -18 -15 -33 -1 -26 23 -33 18 -15 -10z"/>
<path d="M1750 2044 c0 -8 5 -12 10 -9 6 3 10 10 10 16 0 5 -4 9 -10 9 -5 0
-10 -7 -10 -16z"/>
<path d="M2010 1687 c0 -30 -3 -56 -6 -60 -3 -3 -21 1 -40 10 -43 21 -59 8
-68 -51 -7 -45 5 -121 22 -138 7 -7 21 -5 43 6 18 9 36 16 41 16 4 0 8 -29 8
-65 l0 -65 513 2 512 3 0 195 0 195 -512 3 -513 2 0 -53z m1007 -147 l0 -180
-494 0 -493 0 0 43 c0 87 -14 101 -71 71 -17 -8 -34 -13 -37 -9 -10 9 -12 139
-2 155 8 12 14 12 46 -4 36 -17 39 -17 51 0 7 10 13 37 13 61 l0 43 493 0 494
0 0 -180z"/>
<path d="M2212 1603 c-15 -13 -18 -23 -12 -38 8 -19 9 -19 9 2 1 12 11 29 23
37 12 9 17 16 11 16 -6 0 -20 -8 -31 -17z"/>
<path d="M2277 1589 c-45 -37 -60 -63 -52 -89 8 -24 25 -27 25 -5 0 16 27 76
39 85 10 9 34 40 30 40 -3 0 -21 -14 -42 -31z"/>
<path d="M2336 1607 c6 -15 -20 -47 -38 -47 -6 0 -8 -3 -5 -6 4 -4 18 1 32 10
26 17 33 40 15 51 -5 3 -7 0 -4 -8z"/>
<path d="M2489 1604 c-16 -19 -15 -100 2 -120 18 -22 57 -17 75 11 18 28 14
85 -7 111 -15 19 -53 18 -70 -2z m64 -26 c4 -13 4 -32 2 -43 -2 -11 -4 -26 -4
-33 -1 -8 -10 -12 -23 -10 -43 6 -41 108 1 108 11 0 21 -9 24 -22z"/>
<path d="M2660 1610 c0 -5 16 -10 35 -10 l35 0 -21 -39 c-24 -46 -33 -91 -20
-91 6 0 15 19 22 42 6 23 17 51 25 62 25 36 17 46 -31 46 -25 0 -45 -4 -45
-10z"/>
<path d="M2779 1605 c-5 -60 -5 -60 31 -60 29 0 36 -4 38 -23 4 -27 -23 -40
-50 -23 -26 16 -34 8 -13 -13 19 -19 56 -21 73 -4 16 16 15 63 0 76 -7 5 -24
12 -38 14 -36 5 -31 22 8 26 46 5 40 22 -8 22 -28 0 -40 -4 -41 -15z"/>
<path d="M2284 1526 c-10 -8 -17 -16 -14 -19 3 -2 14 4 24 14 23 22 18 25 -10
5z"/>
<path d="M2605 1490 c-8 -13 -1 -24 14 -19 6 3 7 10 2 18 -6 10 -10 10 -16 1z"/>
<path d="M3609 1738 c0 -2 -2 -27 -4 -56 -1 -29 -5 -55 -8 -58 -3 -4 -16 1
-29 10 -53 38 -78 8 -78 -94 0 -41 5 -64 18 -80 18 -22 19 -22 51 -6 18 10 35
15 38 12 4 -3 7 -29 8 -58 1 -29 3 -56 4 -60 0 -5 136 -8 301 -8 l300 0 0 200
0 200 -300 0 c-165 0 -300 -1 -301 -2z m581 -198 l0 -180 -284 0 -283 0 -1 56
c-1 72 -11 83 -58 60 -47 -22 -54 -13 -54 77 0 78 10 88 60 62 27 -14 34 -15
41 -3 9 13 14 56 11 91 -2 16 18 17 283 17 l285 0 0 -180z"/>
<path d="M3786 1604 c-10 -9 -16 -33 -16 -59 0 -62 37 -93 79 -66 22 14 27
104 6 124 -21 21 -49 22 -69 1z m58 -20 c9 -22 7 -67 -3 -82 -5 -8 -17 -12
-27 -10 -14 2 -20 13 -22 42 -2 21 -1 44 2 52 7 19 42 18 50 -2z"/>
<path d="M3960 1605 c-16 -19 -5 -34 12 -17 7 7 20 12 30 12 29 0 21 -33 -17
-70 -49 -48 -46 -60 16 -60 31 0 48 4 44 10 -3 6 -19 10 -36 10 -37 0 -37 13
1 40 34 24 42 73 14 84 -27 10 -51 7 -64 -9z"/>
<path d="M3900 1486 c0 -9 5 -16 10 -16 6 0 10 4 10 9 0 6 -4 13 -10 16 -5 3
-10 -1 -10 -9z"/>
<path d="M4690 1680 c0 -63 -4 -69 -36 -45 -49 37 -77 8 -77 -83 -1 -98 23
-132 69 -97 36 28 44 19 44 -50 l0 -65 213 2 212 3 3 198 2 197 -215 0 -215 0
0 -60z m410 -140 l0 -180 -195 0 -195 0 0 49 c0 83 -15 98 -66 65 -32 -21 -45
-10 -51 46 -6 54 4 110 21 110 8 0 26 -7 42 -15 39 -20 54 -4 54 56 l0 49 195
0 195 0 0 -180z"/>
<path d="M4883 1613 c-7 -2 -13 -12 -13 -20 0 -12 3 -13 14 -4 11 9 14 2 15
-44 1 -49 -1 -55 -19 -55 -11 0 -20 -4 -20 -10 0 -5 20 -10 45 -10 25 0 45 5
45 10 0 6 -7 10 -15 10 -12 0 -15 14 -15 65 0 65 -4 72 -37 58z"/>
<path d="M5600 1687 c0 -30 -3 -56 -6 -60 -4 -3 -20 1 -36 9 -59 31 -79 1 -73
-110 2 -37 9 -64 19 -75 15 -15 19 -15 47 2 17 9 35 17 40 17 5 0 9 -29 9 -65
l0 -65 213 2 212 3 0 195 0 195 -212 3 -213 2 0 -53z m409 -147 l-1 -180 -194
0 -194 0 -1 23 c-1 24 -5 74 -8 95 -2 17 -28 15 -62 -5 -15 -9 -32 -13 -36 -9
-10 10 -11 152 -1 161 4 4 25 0 48 -9 40 -16 41 -16 50 9 5 13 8 40 6 60 l-2
35 198 0 198 0 -1 -180z"/>
<path d="M5775 1603 c-21 -20 -16 -110 6 -124 42 -27 79 4 79 66 0 67 -46 98
-85 58z m60 -58 c0 -41 -3 -50 -19 -53 -22 -5 -36 14 -36 50 0 42 10 59 34 56
18 -3 21 -10 21 -53z"/>
<path d="M3230 1590 c-26 -26 -26 -72 0 -95 11 -10 23 -15 26 -12 4 4 -1 9
-10 13 -9 3 -13 11 -9 17 3 5 1 7 -5 3 -7 -4 -10 4 -10 24 1 30 1 30 25 14 14
-8 27 -13 30 -10 3 3 -6 11 -21 17 -20 9 -23 15 -15 25 15 19 70 10 83 -12 14
-26 18 -54 6 -54 -6 0 -9 -5 -7 -12 1 -7 -4 -13 -10 -14 -7 -1 -16 -3 -20 -4
-5 -1 -11 -2 -15 -1 -5 0 -8 -4 -8 -10 0 -16 42 0 63 23 22 27 22 49 -4 82
-25 32 -70 35 -99 6z"/>
<path d="M5310 1593 c-1 -7 -3 -19 -4 -25 0 -7 -11 -14 -24 -16 -26 -4 -20
-22 8 -22 13 0 18 -6 15 -20 -2 -11 0 -20 6 -20 5 0 9 9 9 20 0 13 7 20 19 20
11 0 23 5 26 10 3 6 -5 10 -19 10 -19 0 -26 6 -29 28 -2 15 -5 21 -7 15z"/>
<path d="M1516 1574 c-9 -8 -16 -26 -16 -40 0 -13 -9 -33 -20 -44 l-20 -20 29
0 c34 0 49 15 57 61 4 19 14 40 22 47 14 10 12 12 -10 12 -15 0 -34 -7 -42
-16z m22 -36 c-8 -39 -21 -57 -41 -58 -4 0 -3 9 3 19 5 11 10 28 10 38 0 19
18 43 31 43 4 0 3 -19 -3 -42z"/>
<path d="M4377 1564 c16 -25 16 -27 -2 -40 -10 -8 -16 -17 -12 -21 4 -3 16 2
27 12 20 18 21 18 34 -1 8 -10 18 -15 22 -11 4 4 0 15 -9 24 -15 16 -15 18 0
35 21 23 9 36 -13 14 -15 -15 -18 -15 -33 -1 -27 23 -33 18 -14 -11z"/>
<path d="M1745 1530 c-3 -5 1 -10 9 -10 9 0 16 5 16 10 0 6 -4 10 -9 10 -6 0
-13 -4 -16 -10z"/>
<path d="M1481 1156 c-33 -40 -10 -136 34 -136 50 0 72 90 34 136 -15 18 -53
18 -68 0z m63 -32 c11 -41 -2 -84 -24 -84 -32 0 -44 46 -25 98 8 23 42 13 49
-14z"/>
<path d="M1648 1140 c-6 -39 1 -47 37 -46 24 1 31 -4 33 -22 4 -27 -23 -40
-50 -23 -27 16 -38 3 -14 -15 42 -30 86 -11 86 36 0 34 -17 50 -52 50 -20 0
-26 4 -22 15 4 9 19 15 35 15 16 0 29 5 29 10 0 6 -17 10 -39 10 -35 0 -39 -3
-43 -30z"/>
<path d="M1595 1040 c-8 -13 -1 -24 14 -19 6 3 7 10 2 18 -6 10 -10 10 -16 1z"/>
<path d="M1492 778 c-17 -17 -15 -33 3 -18 13 11 15 5 15 -43 0 -48 -3 -56
-22 -62 -22 -8 -22 -8 5 -12 15 -2 39 -2 55 0 26 4 26 4 5 12 -21 7 -23 14
-23 71 0 65 -11 79 -38 52z"/>
<path d="M1479 404 c-16 -19 -15 -99 1 -119 16 -19 54 -19 70 0 20 25 23 83 6
110 -19 29 -57 33 -77 9z m65 -30 c11 -41 -2 -84 -25 -84 -31 0 -45 66 -23
102 12 18 42 7 48 -18z"/>
<path d="M4390 5866 c0 -2 8 -10 18 -17 15 -13 16 -12 3 4 -13 16 -21 21 -21
13z"/>
</g>
</svg>
