<?xml version="1.0" standalone="no"?>
<!DOCTYPE svg PUBLIC "-//W3C//DTD SVG 20010904//EN"
 "http://www.w3.org/TR/2001/REC-SVG-20010904/DTD/svg10.dtd">
<svg version="1.0" xmlns="http://www.w3.org/2000/svg"
 width="1334.000000pt" height="618.000000pt" viewBox="0 0 1334.000000 618.000000"
 preserveAspectRatio="xMidYMid meet">
<metadata>
Created by potrace 1.16, written by Peter Selinger 2001-2019
</metadata>
<g transform="translate(0.000000,618.000000) scale(0.100000,-0.100000)"
fill="#000000" stroke="none">
<path d="M303 5999 c-23 -4 -51 -12 -61 -18 -11 -6 -23 -7 -27 -3 -5 4 -5 2
-1 -5 3 -6 -2 -18 -13 -25 -10 -7 -30 -34 -42 -58 l-24 -45 -1 -2735 c-1
-2231 2 -2743 12 -2780 15 -50 70 -111 119 -131 22 -9 149 -13 461 -14 237 -1
436 -5 442 -9 7 -4 12 -4 12 1 0 10 2251 10 2268 -1 6 -4 12 -4 12 1 0 4 94 8
210 7 l210 -1 0 318 0 319 150 0 149 0 3 108 c2 59 2 207 0 330 l-3 222 -150
0 -149 0 0 300 c1 275 2 300 18 301 9 1 2058 2 4552 3 l4535 1 0 413 c0 226 4
412 8 412 5 0 5 5 1 12 -4 6 -7 78 -7 160 l0 148 -4893 0 c-3009 0 -4895 4
-4899 9 -3 5 -1 12 5 16 6 4 7 12 3 18 -10 17 -11 357 0 357 4 0 5 6 0 13 -4
6 -8 53 -8 103 l-1 91 1793 -1 1793 -1 0 452 0 453 -62 0 c-35 0 -70 1 -78 1
-43 1 -322 0 -365 -2 -27 -1 -54 -1 -60 -1 -46 3 -388 2 -390 0 -2 -2 -32 -1
-67 2 -35 3 -127 3 -204 0 -78 -3 -154 -3 -170 0 -16 3 -53 3 -81 0 -29 -3
-53 -2 -53 3 0 4 -4 5 -10 2 -12 -8 -1627 -8 -1640 0 -5 3 -11 1 -15 -5 -4 -6
-11 -8 -16 -5 -5 4 -93 5 -196 5 -104 -1 -195 -1 -203 -1 -8 0 -44 0 -80 0
-36 0 -69 -1 -75 0 -133 2 -388 1 -391 -1 -2 -2 -30 -1 -64 2 -33 3 -60 2 -60
-3 0 -4 -4 -6 -8 -3 -5 3 -69 6 -143 7 l-134 1 -1 89 c-1 62 2 86 10 82 8 -5
8 -3 0 8 -7 9 -10 87 -10 219 l1 205 135 1 c88 1 138 -3 142 -10 5 -8 8 -7 8
2 0 15 58 14 79 -2 11 -8 13 -8 8 0 -5 8 37 11 148 10 100 0 155 -4 155 -11 0
-6 3 -6 8 1 9 15 144 14 154 0 5 -8 8 -8 8 0 0 15 222 15 232 0 6 -8 8 -8 8 0
0 8 48 12 158 12 86 0 164 0 173 1 13 1 15 40 15 329 l0 328 -1386 0 -1387 -1
-71 -47 c-95 -63 -120 -63 -215 0 -72 48 -72 49 -157 49 -47 0 -104 -4 -127
-8z m281 -69 c55 -37 83 -50 110 -50 26 0 57 13 113 50 l77 50 1368 0 1368 0
0 -305 0 -305 -1376 0 -1377 0 -68 -45 c-97 -64 -110 -64 -202 -5 l-78 50
-180 0 -180 0 1 240 c1 238 1 239 26 276 53 77 89 92 227 93 l98 1 73 -50z
m-2 -632 c56 -36 86 -48 114 -48 30 0 58 12 114 48 l74 47 113 2 113 1 0 -82
c0 -46 -3 -85 -6 -89 -3 -3 -30 8 -60 24 -63 36 -89 32 -110 -17 -19 -45 -19
-213 1 -259 20 -49 39 -53 99 -22 28 15 57 27 64 27 9 0 12 -495 12 -2360 l0
-2360 -400 0 c-289 1 -407 4 -428 13 -43 19 -67 39 -96 81 l-26 39 0 2502 0
2502 173 -1 172 -1 77 -47z m1606 -349 c-2 -219 -6 -400 -9 -403 -3 -4 -32 7
-64 24 -52 27 -60 29 -79 17 -30 -20 -45 -88 -41 -189 4 -113 18 -143 67 -142
20 1 49 11 66 23 39 27 48 27 56 -4 11 -44 6 -594 -6 -601 -5 -3 -34 6 -63 21
-33 16 -61 24 -73 21 -31 -10 -46 -62 -47 -161 0 -118 9 -158 40 -175 21 -11
30 -10 80 15 30 16 58 25 63 21 4 -4 8 -727 10 -1607 l2 -1599 -525 0 -525 0
0 2349 c0 1503 -4 2359 -10 2375 -12 32 -33 33 -89 1 -55 -32 -69 -31 -82 2
-13 36 -13 200 0 236 13 33 25 34 76 2 81 -50 105 -28 105 99 l0 73 525 0 526
0 -3 -398z m4561 -244 c6 -6 9 -801 3 -826 -3 -15 -182 -17 -2270 -15 l-2267
1 -1 205 c0 113 -4 215 -8 227 -12 37 -42 38 -98 2 -48 -31 -51 -32 -64 -14
-21 28 -27 76 -22 171 6 116 16 126 92 85 31 -16 64 -27 72 -24 19 7 27 43 28
123 l1 65 40 5 c54 7 4487 2 4494 -5z m-3580 -1249 c-1 -210 -4 -391 -7 -403
-7 -22 -8 -22 -37 -7 -80 44 -84 45 -103 35 -33 -18 -47 -69 -46 -176 1 -148
31 -192 104 -150 66 38 71 40 81 24 10 -16 11 -811 1 -846 -7 -22 -8 -22 -37
-7 -80 44 -84 45 -103 35 -32 -17 -47 -69 -47 -171 0 -160 31 -195 125 -144
43 24 53 26 61 13 11 -16 8 -363 -3 -374 -4 -4 -27 4 -52 19 -99 58 -130 23
-130 -144 0 -167 31 -202 130 -144 25 15 48 23 52 19 9 -9 15 -309 7 -352 -7
-40 -14 -40 -66 -7 -80 50 -119 13 -124 -117 -5 -98 8 -166 36 -194 19 -20 19
-19 82 12 74 39 75 38 76 -84 l1 -83 -478 0 -477 0 0 1582 c0 871 -2 1596 -5
1612 -9 49 -33 55 -90 24 -28 -16 -56 -28 -64 -28 -8 0 -18 12 -24 28 -13 40
-15 174 -2 222 10 38 13 41 38 35 14 -3 38 -15 53 -26 32 -22 62 -25 78 -5 6
8 13 51 15 97 2 46 4 84 5 85 1 0 215 1 476 1 l475 0 -1 -381z m9791 -799 l0
-547 -4882 2 -4883 3 -1 330 c-1 404 -1 405 -102 348 -27 -15 -55 -24 -64 -20
-33 12 -38 241 -6 274 14 13 22 11 72 -16 31 -16 64 -27 72 -24 18 7 27 42 29
123 1 36 3 67 4 70 0 3 2197 5 4881 5 l4880 0 0 -548z m-9115 -576 c7 -1 10
-107 10 -298 l0 -298 -330 0 -330 0 -2 93 c-3 130 -16 143 -101 95 -27 -15
-55 -24 -64 -20 -33 12 -38 241 -6 274 14 13 22 11 72 -16 84 -45 96 -34 101
97 2 37 3 69 4 72 1 4 614 5 646 1z m305 -934 l0 -304 -469 1 c-259 1 -474 5
-478 10 -4 4 -9 41 -9 81 -3 138 -17 152 -102 104 -52 -29 -56 -30 -68 -14
-19 26 -27 96 -22 182 7 103 17 111 90 73 31 -17 64 -27 72 -24 22 8 33 56 30
131 l-2 63 479 0 479 0 0 -303z m-296 -624 c-1 -164 -2 -301 -3 -306 0 -4
-148 -6 -328 -5 l-327 3 -1 85 c-2 142 -14 155 -101 109 -50 -27 -58 -29 -72
-16 -32 32 -27 262 5 274 9 4 40 -6 68 -22 29 -15 60 -25 68 -22 22 8 34 60
31 135 l-2 62 332 0 331 0 -1 -297z"/>
<path d="M1270 5690 c0 -109 2 -130 15 -130 17 0 17 -2 17 130 0 130 0 130
-17 130 -13 0 -15 -21 -15 -130z"/>
<path d="M1450 5805 c0 -8 9 -15 20 -15 13 0 18 5 14 15 -4 8 -12 15 -20 15
-8 0 -14 -7 -14 -15z"/>
<path d="M1730 5690 c0 -109 2 -130 15 -130 13 0 15 21 15 130 0 109 -2 130
-15 130 -13 0 -15 -21 -15 -130z"/>
<path d="M2600 5775 c0 -42 -2 -45 -19 -35 -60 32 -106 -5 -106 -85 0 -80 46
-117 106 -85 13 7 19 7 19 0 0 -5 7 -10 15 -10 11 0 15 12 15 43 1 23 2 81 3
130 2 77 0 87 -15 87 -15 0 -18 -9 -18 -45z m-16 -67 c35 -49 6 -135 -41 -122
-43 12 -49 119 -8 135 30 11 33 11 49 -13z"/>
<path d="M3139 5798 c-1 -13 0 -33 1 -45 1 -23 -14 -31 -25 -13 -10 16 -62 12
-79 -6 -34 -33 -33 -137 0 -161 23 -17 66 -17 83 0 11 10 14 10 18 0 3 -7 11
-13 19 -13 11 0 14 25 14 130 0 109 -2 130 -15 130 -9 0 -15 -10 -16 -22z
m-16 -88 c14 -12 18 -65 8 -92 -11 -30 -43 -41 -68 -23 -22 16 -24 95 -3 120
12 15 44 13 63 -5z"/>
<path d="M3335 5775 c1 -38 -1 -45 -14 -39 -40 17 -69 16 -89 -6 -38 -41 -29
-147 13 -164 26 -10 60 -7 74 7 11 10 14 10 18 0 3 -7 11 -13 18 -13 10 0 13
30 14 130 1 119 -1 130 -17 130 -15 0 -18 -8 -17 -45z m-28 -53 c37 -24 33
-125 -7 -135 -32 -8 -60 20 -60 61 0 59 33 95 67 74z"/>
<path d="M406 5778 c-11 -42 -7 -58 14 -58 21 0 28 24 10 35 -7 4 -7 13 0 26
8 15 7 19 -3 19 -8 0 -17 -10 -21 -22z"/>
<path d="M466 5784 c-13 -34 -7 -64 14 -64 17 0 18 4 10 25 -5 14 -7 32 -4 40
4 8 2 15 -4 15 -5 0 -13 -7 -16 -16z"/>
<path d="M780 5680 c0 -100 3 -120 15 -120 12 0 15 18 16 98 l0 97 38 -95 c21
-52 45 -96 53 -98 9 -2 26 30 50 95 l37 98 0 -97 c1 -80 4 -98 16 -98 13 0 15
20 15 121 0 118 0 120 -22 117 -17 -2 -29 -22 -59 -98 -37 -94 -38 -95 -49
-65 -56 152 -63 165 -87 165 -23 0 -23 -1 -23 -120z"/>
<path d="M2811 5698 c-56 -136 -57 -138 -37 -138 9 0 22 16 30 35 14 34 17 35
69 35 51 0 54 -1 70 -35 9 -19 24 -35 33 -35 8 0 14 4 12 9 -1 5 -23 59 -48
120 -60 148 -70 149 -129 9z m97 -39 c-9 -6 -68 -3 -73 3 -2 2 7 27 18 56 l20
54 22 -54 c12 -30 18 -56 13 -59z"/>
<path d="M1360 5770 c0 -11 -7 -20 -15 -20 -18 0 -20 -17 -3 -22 7 -3 12 -31
13 -76 1 -78 10 -95 46 -90 22 3 30 23 10 23 -19 0 -23 15 -24 77 0 53 2 63
16 62 9 -1 17 4 17 12 0 8 -7 14 -15 14 -8 0 -15 9 -15 20 0 11 -7 20 -15 20
-8 0 -15 -9 -15 -20z"/>
<path d="M1077 5743 c-11 -19 -4 -140 9 -160 17 -28 59 -30 94 -6 22 16 23 16
17 -1 -5 -13 -3 -17 11 -14 15 3 17 15 17 93 0 77 -3 90 -18 93 -15 3 -17 -6
-17 -67 0 -59 -3 -72 -21 -84 -11 -8 -29 -13 -40 -10 -20 6 -21 13 -22 111 0
35 -5 52 -13 52 -7 0 -15 -3 -17 -7z"/>
<path d="M1450 5655 c0 -84 2 -95 18 -95 15 0 17 10 15 80 -2 112 -1 110 -18
110 -12 0 -15 -17 -15 -95z"/>
<path d="M1530 5620 c0 -109 2 -130 15 -130 11 0 15 12 15 45 0 42 2 45 19 35
75 -40 136 43 100 137 -5 15 -16 31 -22 35 -19 12 -62 9 -76 -4 -11 -10 -14
-10 -18 0 -3 6 -11 12 -19 12 -11 0 -14 -25 -14 -130z m121 75 c6 -63 -1 -94
-22 -105 -16 -9 -26 -8 -45 5 -41 26 -30 113 16 127 20 7 50 -9 51 -27z"/>
<path d="M1820 5658 c40 -100 39 -120 -5 -140 -27 -12 -24 -28 4 -28 31 0 58
42 99 150 22 58 38 107 36 109 -13 13 -35 -17 -54 -74 -12 -37 -26 -63 -30
-58 -4 4 -17 36 -30 71 -16 44 -28 62 -40 62 -15 0 -13 -12 20 -92z"/>
<path d="M2108 5739 c-22 -12 -24 -39 -3 -39 8 0 15 4 15 9 0 14 42 21 62 10
35 -19 21 -39 -26 -39 -36 0 -49 -5 -65 -25 -46 -60 22 -126 84 -81 16 11 21
11 33 0 15 -16 52 -19 52 -5 0 5 -7 11 -15 15 -11 4 -15 22 -15 69 0 49 -4 68
-18 80 -21 19 -77 22 -104 6z m92 -86 c-1 -43 -42 -79 -75 -67 -21 8 -19 51 3
63 20 12 72 14 72 4z"/>
<path d="M2283 5655 c1 -81 3 -95 16 -93 12 2 16 16 17 53 1 69 11 102 31 107
34 8 53 -3 54 -30 3 -121 4 -127 19 -127 12 0 15 15 14 77 -1 90 -13 112 -58
105 -17 -2 -40 -8 -50 -12 -14 -6 -17 -5 -12 3 5 8 0 12 -12 12 -18 0 -19 -8
-19 -95z"/>
<path d="M430 2773 c0 -96 2 -105 18 -99 9 4 59 23 110 44 124 49 122 60 -20
117 l-108 43 0 -105z m107 28 l68 -30 -40 -16 c-22 -10 -55 -23 -72 -31 l-33
-13 0 60 c0 32 2 59 4 59 2 0 35 -13 73 -29z"/>
<path d="M1370 5026 l0 -135 102 -3 c97 -3 101 -4 84 -20 -17 -17 -15 -18 31
-18 30 0 43 3 35 9 -8 4 -12 19 -10 32 2 17 11 25 37 30 18 4 42 16 53 26 24
24 47 89 41 114 -7 26 -40 33 -68 15 -22 -15 -24 -15 -18 0 5 14 0 15 -34 10
l-40 -7 1 38 1 38 -107 3 -108 3 0 -135z m195 -1 l0 -120 -87 0 c-49 -1 -89 2
-89 5 -6 24 -4 217 2 225 4 6 45 10 91 10 l83 0 0 -120z m40 8 c-10 -55 -21
-59 -21 -8 0 32 5 45 14 45 11 0 13 -9 7 -37z m95 9 c0 -26 -42 -105 -59 -110
-11 -4 -13 4 -7 39 8 51 30 89 51 89 8 0 15 -8 15 -18z"/>
<path d="M1438 5113 c-10 -2 -18 -14 -18 -26 0 -18 2 -19 13 -5 19 24 54 28
78 9 24 -20 18 -44 -17 -59 -24 -11 -34 -42 -13 -42 5 0 8 4 5 8 -3 5 8 16 25
26 21 13 29 25 29 46 0 42 -41 59 -102 43z"/>
<path d="M1460 4950 c-7 -4 -9 -13 -6 -19 10 -16 46 -14 46 3 0 17 -23 27 -40
16z"/>
<path d="M1400 4353 c0 -4 12 -20 27 -35 l27 -28 -28 -29 c-40 -42 -23 -62 18
-22 l32 31 29 -30 c19 -20 32 -27 39 -20 6 6 0 19 -17 36 -33 33 -33 35 -2 64
14 13 25 27 25 32 0 16 -24 8 -51 -18 l-28 -26 -26 26 c-25 25 -45 34 -45 19z"/>
<path d="M1460 2065 c0 -33 -2 -35 -35 -35 -25 0 -35 -4 -35 -16 0 -9 8 -14
18 -13 45 4 52 0 52 -36 0 -50 28 -48 32 2 3 35 5 38 36 37 21 -1 32 3 32 12
0 9 -12 14 -35 14 -33 0 -35 2 -35 35 0 24 -5 35 -15 35 -10 0 -15 -11 -15
-35z"/>
<path d="M3830 4526 c0 -52 -4 -98 -10 -101 -5 -3 -29 5 -53 19 -51 30 -78 33
-99 9 -24 -28 -30 -58 -30 -154 1 -100 13 -148 41 -166 17 -11 29 -8 76 17 32
17 61 27 66 24 5 -3 9 -52 9 -110 l0 -104 605 0 605 0 0 330 0 330 -605 0
-605 0 0 -94z m1181 37 c1 -36 1 -508 0 -549 l-1 -31 -575 0 c-408 0 -575 3
-575 11 -1 6 -2 50 -3 98 -2 68 -6 91 -20 105 -17 17 -20 17 -75 -12 -31 -16
-60 -31 -64 -33 -37 -16 -47 253 -11 289 5 5 35 -5 71 -23 56 -29 63 -31 78
-17 15 15 21 57 23 147 l1 42 575 0 575 0 1 -27z"/>
<path d="M4142 4398 c-50 -24 -55 -163 -7 -205 41 -36 97 -27 120 18 31 58 12
177 -30 193 -24 9 -57 6 -83 -6z m88 -49 c15 -36 8 -128 -11 -140 -22 -14 -55
-10 -70 7 -19 23 -16 130 5 153 24 26 62 16 76 -20z"/>
<path d="M4447 4403 c-39 -10 -61 -114 -38 -176 22 -58 76 -74 124 -37 31 24
42 71 33 134 -11 71 -50 97 -119 79z m74 -39 c18 -22 18 -126 0 -147 -21 -27
-66 -22 -79 8 -15 33 -15 83 -1 124 9 25 17 31 39 31 15 0 34 -7 41 -16z"/>
<path d="M4610 4345 l0 -65 28 12 c73 29 127 -23 81 -78 -15 -19 -68 -18 -75
1 -7 16 -44 21 -44 5 0 -22 45 -50 81 -50 48 0 78 26 85 72 5 31 2 41 -21 63
-22 23 -33 27 -66 22 -38 -5 -39 -4 -39 24 0 30 10 34 81 29 16 -1 29 5 32 14
5 14 -5 16 -68 16 l-75 0 0 -65z"/>
<path d="M4320 4190 c0 -11 6 -20 13 -20 19 0 27 10 20 26 -8 21 -33 17 -33
-6z"/>
<path d="M5328 4526 c-1 -52 -6 -98 -10 -101 -4 -4 -27 4 -52 19 -98 58 -130
23 -130 -144 0 -167 31 -202 131 -143 58 34 63 27 63 -99 l0 -98 605 0 605 0
0 330 0 330 -604 0 -604 0 -4 -94z m1182 -239 l0 -304 -575 0 c-316 0 -575 3
-576 6 0 3 -2 45 -4 92 -3 87 -15 129 -38 129 -7 0 -30 -11 -52 -23 -70 -40
-75 -40 -90 -5 -26 62 -11 268 20 268 3 0 29 -13 58 -30 30 -16 59 -30 65 -30
21 0 34 42 37 119 2 42 4 77 4 79 1 1 260 2 576 2 l575 0 0 -303z"/>
<path d="M5644 4402 c-55 -38 -60 -164 -9 -215 39 -40 119 -4 131 59 9 49 -4
118 -27 143 -20 21 -73 29 -95 13z m77 -38 c18 -22 18 -126 0 -147 -7 -10 -26
-17 -41 -17 -21 0 -30 7 -40 30 -15 36 -7 129 12 142 21 13 55 9 69 -8z"/>
<path d="M5933 4395 c-38 -27 -47 -128 -17 -186 25 -50 99 -51 131 -3 26 40
26 127 -1 166 -25 39 -77 49 -113 23z m94 -52 c5 -16 8 -34 7 -40 -1 -7 -2
-26 -3 -43 -1 -37 -34 -72 -58 -63 -31 12 -42 36 -42 93 0 30 5 62 12 71 28
37 69 28 84 -18z"/>
<path d="M6109 4373 c0 -21 -2 -49 -5 -62 -4 -22 -2 -23 28 -17 73 15 101 1
96 -47 -4 -42 -35 -61 -68 -42 -43 25 -51 28 -56 22 -3 -3 -1 -15 5 -26 24
-45 121 -39 146 8 32 62 -9 126 -77 119 -36 -3 -38 -2 -38 24 0 27 2 28 55 28
42 0 55 3 55 15 0 12 -14 15 -70 15 l-70 0 -1 -37z"/>
<path d="M5820 4190 c0 -11 7 -20 15 -20 8 0 15 9 15 20 0 11 -7 20 -15 20 -8
0 -15 -9 -15 -20z"/>
<path d="M2536 4502 c-2 -1 -14 -5 -26 -7 -28 -5 -62 -34 -54 -46 3 -5 0 -9
-6 -9 -6 0 -9 -4 -5 -9 3 -5 0 -13 -6 -17 -8 -4 -7 -9 2 -15 9 -6 10 -9 2 -9
-6 0 -11 -9 -10 -20 1 -11 6 -20 11 -20 6 0 5 -5 -2 -12 -7 -7 -8 -17 -1 -30
5 -10 6 -18 1 -18 -12 0 -10 -43 3 -52 6 -5 6 -8 -2 -8 -6 0 -11 -9 -10 -20 1
-11 5 -20 10 -20 5 0 6 -7 3 -16 -7 -20 51 -77 71 -70 7 3 13 2 13 -2 0 -10
66 -9 76 1 4 4 13 2 21 -4 10 -9 13 -8 13 2 0 9 3 10 8 4 9 -13 35 -18 27 -5
-3 5 -1 10 4 10 6 0 11 -4 11 -8 0 -4 9 -8 20 -9 11 -1 20 4 20 10 0 8 3 7 9
-2 6 -9 11 -10 15 -2 4 6 12 9 17 6 5 -4 9 -1 9 5 0 6 4 9 9 6 12 -8 36 23 49
62 7 21 7 32 1 32 -6 0 -7 6 -2 13 13 20 10 67 -4 67 -15 0 -13 -21 2 -32 6
-5 6 -8 -2 -8 -6 0 -10 -12 -8 -27 1 -16 -3 -40 -11 -54 -7 -15 -10 -29 -7
-33 4 -3 -3 -6 -14 -6 -11 0 -23 -3 -27 -7 -4 -4 -65 -8 -134 -8 -109 0 -130
3 -145 18 -26 26 -34 55 -32 117 2 30 -2 61 -7 68 -7 8 -7 12 -1 12 6 0 9 19
8 41 -3 50 18 95 48 106 33 11 250 11 265 0 6 -5 12 -6 12 -3 0 4 7 1 15 -8
20 -20 36 -63 29 -80 -3 -8 -1 -24 6 -35 6 -12 7 -21 2 -21 -5 0 -9 -7 -9 -15
0 -9 5 -14 11 -12 14 5 16 57 2 57 -7 0 -7 3 -1 8 11 8 16 42 6 42 -4 0 -7 10
-8 23 -2 19 -47 67 -62 65 -3 0 -8 1 -11 2 -17 8 -90 5 -90 -4 0 -7 -3 -8 -8
-1 -4 6 -14 10 -22 10 -8 0 -18 -4 -22 -10 -5 -7 -8 -6 -8 0 0 9 -66 15 -74 7z"/>
<path d="M3130 4285 c0 -175 -3 -168 76 -163 45 3 47 4 24 14 -25 11 -25 12
-26 148 -1 124 1 136 17 136 10 0 21 5 24 10 4 6 -17 10 -54 10 l-61 0 0 -155z
m55 -5 c0 -127 -2 -140 -17 -140 -16 0 -18 13 -18 140 0 127 2 140 18 140 16
0 17 -13 17 -140z"/>
<path d="M3310 4430 c0 -5 9 -10 20 -10 19 0 20 -7 20 -140 0 -133 -1 -140
-20 -140 -11 0 -20 -5 -20 -11 0 -6 21 -9 53 -7 l52 3 3 158 3 157 -56 0 c-30
0 -55 -4 -55 -10z m90 -150 c0 -127 -2 -140 -17 -140 -16 0 -18 11 -16 97 1
54 2 117 2 141 1 30 5 42 16 42 13 0 15 -22 15 -140z"/>
<path d="M2592 4352 c-47 -46 -27 -110 38 -125 43 -10 99 50 79 86 -6 9 -7 17
-3 17 4 0 -6 11 -22 25 -16 14 -31 20 -32 15 -3 -7 -8 -7 -17 0 -10 8 -20 4
-43 -18z m58 3 c13 -1 36 -22 48 -42 10 -20 9 -24 -8 -35 -11 -7 -20 -19 -20
-26 0 -7 -4 -10 -10 -7 -5 3 -10 1 -10 -6 0 -9 -4 -9 -15 1 -8 6 -19 9 -25 5
-6 -4 -9 -1 -8 7 2 7 -3 12 -10 10 -8 -1 -11 2 -7 8 3 5 2 17 -3 27 -7 12 -3
23 17 44 14 14 31 24 36 20 6 -3 12 -6 15 -6z"/>
<path d="M2515 3596 c-26 -39 -35 -84 -19 -90 9 -3 16 4 20 22 4 15 11 35 16
45 13 26 36 5 44 -42 18 -95 60 -136 94 -90 27 35 41 87 25 93 -15 5 -25 -2
-25 -20 0 -7 -5 -25 -10 -39 -15 -39 -33 -19 -55 60 -22 84 -59 109 -90 61z"/>
<path d="M2450 2722 c0 -5 14 -46 30 -92 17 -46 30 -85 30 -87 0 -1 8 -3 18
-3 28 0 76 86 76 139 1 33 -3 46 -14 48 -12 3 -15 -8 -16 -46 -1 -31 -9 -62
-21 -82 l-21 -31 -27 81 c-16 51 -32 81 -41 81 -8 0 -14 -4 -14 -8z"/>
<path d="M2530 1885 c0 -19 -5 -35 -10 -35 -6 0 -22 -11 -35 -25 -44 -43 -31
-136 21 -155 19 -8 24 -17 24 -45 0 -24 5 -35 15 -35 10 0 15 11 15 35 0 29 5
37 25 45 49 19 62 114 20 155 -13 14 -29 25 -35 25 -5 0 -10 16 -10 35 0 24
-5 35 -15 35 -10 0 -15 -11 -15 -35z m0 -131 c0 -48 -3 -65 -12 -62 -21 7 -33
74 -20 103 20 44 32 28 32 -41z m62 41 c13 -29 1 -96 -19 -103 -10 -3 -13 14
-13 62 0 69 12 85 32 41z"/>
<path d="M2476 1212 c-3 -5 8 -22 24 -37 l30 -29 -31 -32 c-39 -41 -22 -53 21
-14 l32 29 28 -31 c17 -18 33 -27 40 -23 8 5 2 17 -20 40 l-31 32 30 31 c40
39 21 55 -20 16 l-29 -28 -28 27 c-30 29 -38 32 -46 19z"/>
<path d="M2539 580 c-1 -5 -2 -20 -3 -32 -1 -19 -8 -24 -39 -26 -42 -4 -47
-26 -6 -28 13 -1 29 -2 35 -3 7 0 11 -16 9 -36 -1 -24 2 -35 12 -35 8 0 13 12
13 35 0 24 5 35 15 36 8 1 24 2 35 3 32 2 24 21 -12 26 -29 4 -33 9 -36 38 -3
29 -20 46 -23 22z"/>
<path d="M4757 3103 c-4 -3 -7 -48 -7 -100 0 -51 -3 -93 -7 -93 -5 0 -26 11
-49 23 -80 46 -104 40 -124 -31 -17 -62 -13 -202 8 -242 15 -31 21 -35 54 -34
21 1 48 10 63 23 53 41 55 37 56 -156 0 -98 0 -201 -1 -229 -1 -35 3 -53 12
-56 7 -2 951 -4 2098 -4 l2085 1 3 453 2 452 -2093 0 c-1152 0 -2097 -3 -2100
-7z m4164 -45 c0 -13 1 -204 2 -425 l2 -403 -2072 0 -2073 0 0 214 c0 193 -2
216 -19 237 l-18 23 -61 -32 -61 -32 -17 25 c-11 17 -16 49 -17 107 -1 100 8
154 29 162 8 3 40 -9 71 -26 l56 -32 18 23 c15 18 19 40 19 102 l0 79 2070 0
2070 0 1 -22z"/>
<path d="M6399 2988 c0 -2 -1 -44 -2 -95 -1 -50 -5 -95 -9 -99 -5 -4 -30 5
-58 20 -28 15 -60 26 -73 24 -33 -5 -50 -52 -55 -148 -4 -97 12 -165 44 -187
19 -12 27 -10 79 17 32 17 60 28 64 25 3 -3 6 -50 7 -103 1 -53 3 -102 3 -107
1 -7 172 -10 499 -9 273 1 500 2 505 3 4 0 6 148 5 329 l-3 327 -502 3 c-277
1 -503 1 -504 0z m981 -331 l0 -304 -478 0 -478 0 -1 95 c-2 80 -5 98 -21 115
-20 19 -20 19 -77 -13 -53 -30 -58 -31 -73 -16 -14 14 -17 38 -17 136 0 154 6
162 87 120 86 -45 101 -30 101 102 l1 68 478 0 478 0 0 -303z"/>
<path d="M6712 2773 c-36 -14 -55 -119 -32 -179 22 -58 89 -73 130 -29 46 49
36 180 -16 204 -26 11 -59 13 -82 4z m88 -64 c10 -35 3 -108 -11 -125 -6 -8
-24 -14 -39 -14 -24 0 -30 6 -40 36 -27 80 15 173 63 141 12 -8 24 -25 27 -38z"/>
<path d="M6978 2728 c-5 -66 1 -75 46 -61 27 8 39 8 55 -4 23 -16 28 -62 9
-81 -17 -17 -63 -15 -78 3 -16 19 -40 19 -40 1 0 -38 94 -61 132 -32 30 23 40
63 24 101 -16 37 -48 52 -91 41 -23 -6 -25 -3 -25 24 0 32 9 35 83 30 19 -1
27 3 27 14 0 13 -13 16 -69 16 l-69 0 -4 -52z"/>
<path d="M6889 2578 c-8 -27 -5 -38 12 -38 12 0 19 7 19 20 0 11 -7 20 -15 20
-8 0 -15 -1 -16 -2z"/>
<path d="M7699 2983 c-1 -5 -2 -47 -3 -96 -2 -48 -5 -90 -8 -93 -3 -3 -29 6
-58 21 -100 51 -125 20 -125 -150 0 -114 9 -145 44 -165 15 -8 32 -3 77 20 31
17 59 28 62 25 3 -3 7 -49 8 -103 1 -53 2 -102 3 -107 1 -7 172 -10 499 -9
273 1 500 2 505 3 4 0 6 148 5 329 l-3 327 -502 3 c-277 1 -503 -1 -504 -5z
m981 -327 l0 -304 -477 1 -478 2 -2 75 c-3 99 -10 137 -29 144 -9 4 -40 -8
-72 -26 l-55 -31 -18 22 c-15 19 -18 39 -16 136 2 135 12 155 62 128 73 -39
84 -43 98 -37 22 8 27 28 29 117 l2 77 478 0 478 0 0 -304z"/>
<path d="M8003 2765 c-40 -28 -48 -130 -14 -193 23 -43 98 -41 127 3 20 30 26
107 12 146 -19 54 -80 76 -125 44z m88 -37 c6 -12 12 -43 12 -68 0 -63 -16
-90 -53 -90 -37 0 -50 23 -50 90 0 28 5 60 10 71 15 27 66 26 81 -3z"/>
<path d="M8279 2763 c0 -10 -2 -37 -4 -60 -4 -47 7 -53 58 -34 34 13 67 -11
67 -48 0 -48 -56 -73 -86 -40 -20 22 -44 25 -44 5 0 -22 40 -46 77 -46 54 0
90 45 84 107 -2 28 -46 54 -86 51 -35 -2 -40 0 -37 17 6 37 10 40 61 39 37 -1
51 3 51 12 0 11 -18 14 -70 14 -60 0 -70 -3 -71 -17z"/>
<path d="M8185 2570 c-8 -14 3 -30 21 -30 8 0 14 9 14 20 0 21 -24 28 -35 10z"/>
<path d="M5127 2873 c-2 -1 -18 -4 -36 -5 -18 -1 -36 -8 -38 -15 -3 -7 -11
-13 -19 -13 -13 0 -18 -12 -15 -32 0 -5 -3 -8 -7 -8 -5 0 -8 -18 -8 -40 0 -30
4 -40 16 -39 9 0 10 2 3 5 -8 4 -9 13 -3 30 6 14 9 28 9 32 -3 19 2 45 7 39 3
-3 15 2 25 12 12 11 29 16 44 13 15 -2 25 0 25 7 0 6 5 11 11 11 5 0 8 -4 5
-8 -3 -5 28 -9 70 -9 41 0 73 5 71 10 -2 8 -153 18 -160 10z"/>
<path d="M5301 2869 c-1 -12 11 -19 35 -24 20 -3 33 -9 30 -12 -3 -4 1 -15 11
-25 13 -15 16 -39 15 -135 -1 -133 -11 -167 -53 -182 -16 -5 -29 -8 -29 -5 0
3 -9 0 -20 -6 -11 -6 -20 -7 -20 -2 0 11 -91 9 -109 -2 -6 -4 -11 -3 -11 1 0
5 -19 9 -41 10 -40 2 -79 28 -79 53 0 6 -4 9 -8 6 -7 -4 -7 113 0 144 2 7 -2
14 -7 16 -19 7 -13 -167 6 -193 9 -13 19 -20 22 -16 4 3 7 -1 7 -11 0 -11 6
-16 18 -14 9 1 23 -1 30 -5 7 -5 12 -4 12 2 0 6 5 11 11 11 5 0 8 -4 5 -8 -8
-14 198 -6 224 8 35 19 52 38 45 50 -3 5 -2 10 3 10 4 0 9 59 9 130 0 72 -3
130 -8 130 -5 0 -5 8 -2 17 5 12 2 15 -10 10 -11 -4 -14 -2 -10 9 5 12 -7 19
-29 15 -5 0 -8 4 -8 10 0 6 -6 9 -14 6 -8 -3 -17 -1 -20 6 -2 7 -5 5 -5 -4z"/>
<path d="M5700 2773 c-1 -21 -1 -92 -2 -158 l-1 -120 57 -2 c31 0 56 3 56 8 0
5 -9 9 -20 9 -19 0 -20 7 -20 140 0 133 1 140 20 140 11 0 20 5 20 10 0 6 -25
10 -55 10 l-55 0 0 -37z m50 -123 c0 -118 -2 -140 -15 -140 -18 0 -17 -7 -17
145 0 146 -1 135 17 135 13 0 15 -22 15 -140z"/>
<path d="M5875 2800 c3 -5 14 -10 24 -10 16 0 18 -12 18 -140 l0 -140 -24 0
c-13 0 -22 -4 -19 -9 3 -5 30 -8 58 -7 l53 1 1 158 1 157 -59 0 c-37 0 -57 -4
-53 -10z m95 -151 c0 -128 -2 -140 -17 -137 -16 3 -18 18 -19 133 0 72 1 133
3 138 3 4 11 7 19 7 11 0 14 -25 14 -141z"/>
<path d="M5193 2742 c-37 -6 -26 -20 12 -17 27 3 35 -1 40 -16 4 -10 10 -19
15 -19 4 0 6 -8 3 -19 -3 -10 -1 -21 5 -25 5 -3 9 8 10 25 0 18 -5 32 -14 36
-7 3 -12 8 -9 13 7 11 -37 26 -62 22z"/>
<path d="M5150 2717 c0 -9 -4 -17 -10 -17 -10 0 -7 -43 5 -72 11 -27 79 -50
69 -23 -4 8 -10 12 -16 9 -5 -3 -18 2 -29 12 -21 19 -26 70 -6 77 10 4 10 7 0
18 -11 11 -13 10 -13 -4z"/>
<path d="M5233 2625 c-9 -9 -9 -16 -2 -20 12 -8 41 14 33 26 -7 12 -17 11 -31
-6z"/>
<path d="M9767 2983 c-4 -3 -7 -46 -7 -94 0 -48 -4 -90 -9 -93 -5 -3 -29 6
-55 20 -91 51 -127 10 -125 -141 2 -175 35 -213 129 -151 23 15 45 24 50 21 6
-3 10 -53 10 -110 0 -73 4 -104 13 -107 6 -2 251 -4 542 -4 l530 1 0 330 0
330 -536 3 c-294 1 -539 -1 -542 -5z m1053 -326 l0 -304 -514 0 -514 0 -4 99
c-2 83 -6 102 -21 113 -21 15 -37 11 -87 -22 -45 -30 -55 -29 -70 7 -19 46
-16 214 4 245 l17 25 61 -32 61 -32 18 23 c15 18 19 40 19 102 l0 79 515 0
515 0 0 -303z"/>
<path d="M10076 2757 c-21 -17 -26 -26 -17 -31 7 -5 21 0 32 10 19 17 19 15
19 -74 l0 -91 -32 -3 c-62 -6 -33 -23 45 -26 64 -2 77 0 77 13 0 10 -10 15
-30 15 l-30 0 0 105 c0 118 -7 127 -64 82z"/>
<path d="M10258 2763 c-16 -10 -28 -26 -28 -37 0 -18 1 -18 18 -3 10 10 22 17
25 17 4 0 7 -40 7 -88 l0 -89 -30 5 c-23 3 -30 0 -30 -12 0 -13 13 -16 80 -16
65 0 78 3 74 14 -3 8 -18 16 -32 18 l-27 3 0 100 c-1 110 -7 119 -57 88z"/>
<path d="M10443 2765 c-28 -20 -41 -61 -37 -119 5 -81 51 -122 113 -100 64 23
77 178 18 219 -27 19 -66 19 -94 0z m88 -36 c17 -32 7 -139 -15 -154 -21 -16
-54 -8 -66 15 -14 26 -15 112 -1 138 16 30 66 30 82 1z"/>
<path d="M11660 2896 c0 -52 -4 -98 -10 -101 -5 -3 -29 5 -53 19 -95 56 -129
20 -129 -139 0 -98 13 -159 39 -174 19 -10 66 4 105 32 14 11 31 16 37 13 7
-5 11 -47 11 -114 l0 -107 540 0 c297 0 540 2 541 5 3 16 4 637 1 648 -3 9
-121 12 -543 12 l-539 0 0 -94z m1057 -240 l0 -304 -513 0 c-383 0 -514 3
-515 11 -1 7 -2 41 -3 77 -4 113 -5 119 -26 130 -16 8 -31 4 -75 -21 -32 -18
-60 -28 -65 -23 -15 16 -26 78 -25 139 3 109 5 123 21 139 14 15 21 13 74 -17
55 -30 60 -31 76 -16 11 12 17 39 19 95 2 44 4 82 4 87 1 4 232 7 515 7 l514
0 -1 -304z"/>
<path d="M11975 2756 c-16 -13 -27 -28 -22 -32 4 -4 13 -2 19 4 27 27 35 12
35 -73 0 -55 -4 -85 -11 -86 -6 -1 -19 -2 -28 -3 -10 0 -19 -5 -20 -11 -2 -6
29 -11 75 -13 64 -2 77 0 77 13 0 10 -10 15 -30 15 l-30 0 0 105 c0 118 -7
127 -65 81z"/>
<path d="M12151 2761 c-14 -10 -26 -26 -27 -35 -2 -14 2 -13 27 5 l29 20 0
-90 0 -91 -30 0 c-20 0 -30 -5 -30 -15 0 -12 15 -15 75 -15 60 0 75 3 75 15 0
10 -10 15 -30 15 l-30 0 0 105 c0 93 -2 105 -17 105 -10 0 -29 -9 -42 -19z"/>
<path d="M12329 2754 c-21 -22 -24 -35 -24 -96 0 -64 2 -72 28 -94 45 -38 98
-31 122 17 31 58 12 177 -30 193 -35 13 -72 6 -96 -20z m102 -31 c14 -38 11
-106 -7 -131 -18 -26 -56 -29 -75 -6 -7 9 -13 41 -13 76 0 50 4 64 22 78 28
23 61 15 73 -17z"/>
<path d="M3470 2753 c0 -36 10 -46 30 -31 12 8 11 9 -4 4 -14 -5 -17 -2 -13
13 2 10 1 25 -4 32 -6 10 -9 4 -9 -18z"/>
<path d="M3601 2645 l0 -135 109 0 108 0 -1 135 0 135 -108 0 -108 0 0 -135z
m200 110 c4 -46 0 -217 -5 -223 -11 -11 -167 -9 -173 2 -9 14 -11 199 -2 216
6 13 26 16 93 15 50 0 86 -4 87 -10z"/>
<path d="M3668 2733 c-10 -2 -18 -14 -18 -26 0 -19 1 -19 13 -5 15 20 34 24
70 15 37 -10 36 -42 -3 -62 -16 -9 -30 -22 -30 -30 0 -21 3 -20 44 19 32 29
35 36 27 58 -13 35 -48 46 -103 31z"/>
<path d="M3698 2573 c-22 -5 -12 -33 12 -33 11 0 21 4 24 9 8 12 -16 28 -36
24z"/>
<path d="M11170 2706 c0 -35 -1 -36 -40 -36 -22 0 -40 -4 -40 -10 0 -5 5 -11
10 -11 6 -1 19 -3 30 -4 11 -1 25 -3 30 -4 6 0 10 -17 10 -36 0 -23 5 -35 14
-35 9 0 13 10 11 29 -3 38 4 46 39 46 16 1 31 6 34 13 2 8 -9 12 -32 12 -20 0
-37 5 -37 10 -1 6 -2 20 -3 32 -2 38 -26 33 -26 -6z"/>
<path d="M4203 2718 c3 -7 17 -48 32 -91 37 -108 59 -112 103 -23 31 61 34
126 7 126 -11 0 -15 -11 -15 -41 0 -41 -25 -109 -40 -109 -4 0 -19 34 -31 75
-18 58 -28 75 -42 75 -11 0 -17 -5 -14 -12z"/>
<path d="M9210 2723 c0 -4 12 -20 27 -35 l27 -28 -28 -29 c-40 -42 -23 -62 18
-22 l32 31 29 -30 c19 -20 32 -27 39 -20 6 6 0 19 -17 36 -33 33 -33 35 -2 64
14 13 25 27 25 32 0 16 -24 8 -51 -18 l-28 -26 -24 26 c-23 25 -47 34 -47 19z"/>
<path d="M3522 2686 c-1 -20 2 -23 20 -18 21 5 21 6 3 12 -19 7 -19 7 0 18 20
11 20 11 0 12 -15 0 -21 -7 -23 -24z"/>
<path d="M3525 2640 c3 -5 8 -10 11 -10 2 0 4 5 4 10 0 6 -5 10 -11 10 -5 0
-7 -4 -4 -10z"/>
<path d="M3850 2635 c-7 -9 -9 -19 -5 -23 4 -4 10 -1 12 6 3 6 16 12 29 12 35
0 31 -33 -6 -60 -17 -12 -35 -30 -40 -41 -10 -18 -7 -19 45 -19 58 0 71 16 14
18 -44 1 -44 6 -5 33 19 13 37 32 40 41 10 40 -57 65 -84 33z"/>
<path d="M3482 1893 c-36 -14 -56 -131 -31 -186 22 -48 83 -60 124 -24 45 38
47 156 3 197 -21 19 -66 25 -96 13z m92 -112 c0 -66 -14 -91 -50 -91 -32 0
-54 36 -54 88 0 52 13 80 43 92 38 14 62 -20 61 -89z"/>
<path d="M3484 1262 c-56 -39 -60 -177 -6 -218 25 -20 66 -17 95 6 44 35 48
154 6 199 -20 21 -73 29 -95 13z m77 -38 c17 -21 18 -127 0 -148 -7 -9 -26
-16 -41 -16 -24 0 -30 6 -40 35 -12 35 -9 93 5 128 9 22 58 23 76 1z"/>
<path d="M3788 1253 c-16 -10 -28 -23 -28 -30 0 -17 10 -16 32 4 17 15 18 13
18 -75 0 -88 -1 -92 -22 -93 -13 -1 -26 -1 -30 0 -5 0 -8 -6 -8 -14 0 -13 13
-15 78 -13 77 3 101 18 44 28 l-28 5 0 100 c0 110 -6 119 -56 88z"/>
<path d="M3656 1054 c-9 -23 -8 -24 14 -24 13 0 20 7 20 20 0 24 -25 27 -34 4z"/>
<path d="M3487 623 c-44 -12 -65 -143 -30 -193 22 -33 33 -40 65 -40 42 0 79
39 85 88 13 114 -32 168 -120 145z m83 -56 c11 -30 5 -114 -10 -132 -7 -8 -25
-15 -40 -15 -22 0 -30 6 -39 31 -21 60 -6 144 27 152 24 5 52 -11 62 -36z"/>
</g>
</svg>
