<?xml version="1.0" standalone="no"?>
<!DOCTYPE svg PUBLIC "-//W3C//DTD SVG 20010904//EN"
 "http://www.w3.org/TR/2001/REC-SVG-20010904/DTD/svg10.dtd">
<svg version="1.0" xmlns="http://www.w3.org/2000/svg"
 width="1325.000000pt" height="330.000000pt" viewBox="0 0 1325.000000 330.000000"
 preserveAspectRatio="xMidYMid meet">
<metadata>
Created by potrace 1.16, written by Peter Selinger 2001-2019
</metadata>
<g transform="translate(0.000000,330.000000) scale(0.100000,-0.100000)"
fill="#000000" stroke="none">
<path d="M377 2998 c-74 -15 -136 -73 -156 -143 -8 -28 -11 -392 -11 -1231 l0
-1190 26 -52 c38 -76 107 -118 192 -115 6 1 12 -3 12 -9 0 -5 5 -6 12 -2 17
11 78 11 78 1 0 -4 6 -5 12 -1 17 11 1288 11 1288 1 0 -5 5 -5 12 -1 16 10
318 11 318 1 0 -5 5 -5 12 -1 16 10 308 11 308 1 0 -5 5 -5 12 -1 16 10 308
11 308 1 0 -5 5 -5 12 -1 16 10 308 11 308 1 0 -5 6 -5 12 -1 17 11 1258 11
1258 1 0 -5 5 -5 12 -1 16 10 318 11 318 1 0 -5 5 -5 12 -1 16 10 308 11 308
1 0 -5 6 -5 12 0 17 10 2388 10 2388 0 0 -5 6 -5 13 0 16 10 38 10 60 0 9 -4
17 -4 17 1 0 10 80 10 96 0 6 -4 14 -4 18 -1 10 10 1306 10 1306 0 0 -5 5 -5
11 -1 7 4 21 7 33 8 21 1 21 1 23 416 1 228 2 432 2 453 l1 37 2002 0 c1100 0
2002 1 2004 3 4 4 5 161 5 695 l-1 482 -1865 0 -1865 0 0 328 0 329 -4162 -2
c-2290 -1 -4173 -5 -4185 -10 -13 -4 -23 -11 -23 -16 0 -5 -7 -9 -15 -9 -8 0
-15 -4 -15 -10 0 -5 -5 -10 -11 -10 -6 0 -25 -11 -42 -23 -18 -13 -44 -23 -58
-23 -28 1 -99 36 -99 48 0 5 -5 8 -11 8 -6 0 -25 11 -42 24 -29 21 -42 24
-127 23 -52 -1 -112 -4 -133 -9z m290 -69 c104 -71 134 -71 240 -1 l79 52
4142 0 4142 0 0 -315 0 -315 -4150 0 -4149 0 -77 -50 c-48 -31 -88 -50 -106
-50 -19 0 -58 18 -106 50 l-76 50 -182 0 c-137 0 -183 3 -186 13 -2 6 -3 116
-3 242 2 253 5 268 66 323 45 40 83 50 192 51 l98 1 76 -51z m4 -655 c102 -68
134 -68 239 2 l75 50 515 -1 515 0 3 -79 c2 -44 -1 -83 -7 -89 -5 -5 -26 1
-55 18 -92 54 -127 20 -133 -125 -5 -99 12 -176 43 -197 19 -12 27 -10 79 17
31 16 61 27 66 24 5 -3 9 -156 9 -350 l0 -344 -522 0 -523 0 -75 -50 c-100
-67 -126 -67 -225 0 l-74 50 -183 0 -183 0 0 558 c0 306 3 559 7 562 4 3 85 5
180 5 l173 0 76 -51z m12324 47 c7 -1 10 -193 9 -558 -1 -307 -2 -560 -3 -563
0 -3 -898 -4 -1993 -4 -1096 1 -3560 2 -5475 3 l-3483 1 0 344 c0 326 -1 345
-20 367 l-19 24 -62 -34 c-57 -31 -62 -32 -78 -17 -13 14 -16 39 -16 141 0
160 6 169 88 125 31 -16 63 -30 70 -30 23 0 37 47 37 124 0 40 2 75 4 77 4 3
10912 4 10941 0z m-12325 -1201 c103 -68 134 -68 235 0 l74 50 121 0 120 0 0
-74 c0 -110 -2 -112 -67 -75 -100 57 -128 23 -128 -156 0 -170 28 -204 122
-149 73 43 73 44 73 -206 l0 -220 -407 0 c-238 0 -423 4 -443 10 -41 11 -93
57 -117 103 -14 28 -17 76 -18 387 0 195 1 361 3 368 3 9 48 12 181 12 l176 0
75 -50z m8320 -390 l0 -440 -3872 0 -3873 0 1 211 c1 119 -2 224 -8 240 -13
36 -39 38 -93 4 -52 -32 -73 -31 -86 3 -14 36 -13 193 1 237 14 43 31 44 89 5
50 -34 51 -34 74 -17 17 12 25 57 26 150 l1 47 3870 0 3870 0 0 -440z"/>
<path d="M1465 2765 c1 -43 -7 -57 -20 -35 -10 17 -61 11 -86 -9 -20 -16 -23
-28 -24 -81 0 -54 3 -64 25 -82 24 -19 53 -20 94 -3 14 6 17 5 12 -3 -5 -8 0
-12 13 -12 20 0 21 5 21 135 0 125 -1 135 -18 135 -16 0 -19 -7 -17 -45z m-17
-69 c29 -36 18 -105 -18 -123 -20 -10 -28 -9 -42 4 -23 20 -25 105 -3 126 16
16 48 12 63 -7z"/>
<path d="M3182 2798 c7 -19 38 -22 38 -4 0 10 -9 16 -21 16 -12 0 -19 -5 -17
-12z"/>
<path d="M4127 2804 c-9 -10 2 -24 19 -24 8 0 14 7 14 15 0 15 -21 21 -33 9z"/>
<path d="M4720 2675 c0 -113 2 -135 15 -135 18 0 17 -6 17 115 0 152 -1 155
-17 155 -13 0 -15 -22 -15 -135z"/>
<path d="M6830 2795 c0 -8 7 -15 15 -15 8 0 15 7 15 15 0 8 -7 15 -15 15 -8 0
-15 -7 -15 -15z"/>
<path d="M496 2792 c-10 -17 -14 -59 -6 -73 14 -21 25 -1 25 42 0 37 -8 49
-19 31z"/>
<path d="M554 2787 c-13 -34 -9 -72 9 -75 12 -2 17 3 17 17 0 12 -4 21 -10 21
-6 0 -6 9 0 25 6 16 6 25 -1 25 -5 0 -12 -6 -15 -13z"/>
<path d="M931 2788 c-69 -37 -87 -149 -33 -209 49 -54 160 -48 192 10 17 32
-7 35 -41 7 -83 -70 -183 25 -134 127 24 50 82 63 128 27 29 -23 47 -26 47 -7
0 42 -108 72 -159 45z"/>
<path d="M1908 2784 c-80 -43 -77 -188 4 -230 38 -20 115 -15 152 10 22 14 26
24 26 61 l0 45 -55 0 c-42 0 -55 -3 -55 -15 0 -11 11 -15 35 -15 45 0 58 -25
26 -52 -26 -20 -81 -24 -113 -7 -27 15 -48 68 -42 110 10 70 91 102 148 58 25
-19 46 -19 46 2 0 5 -15 18 -32 29 -39 24 -102 25 -140 4z"/>
<path d="M3921 2787 c-14 -6 -28 -24 -32 -39 -11 -41 19 -73 83 -88 61 -15 78
-25 78 -51 0 -40 -97 -55 -127 -19 -20 23 -43 26 -43 7 0 -42 101 -71 159 -47
78 32 53 121 -39 136 -56 9 -89 36 -74 61 6 10 24 21 40 24 30 5 74 -8 74 -23
0 -4 9 -8 20 -8 27 0 25 15 -6 39 -30 24 -95 28 -133 8z"/>
<path d="M5117 2793 c-2 -5 -3 -62 -3 -128 1 -106 3 -120 19 -123 14 -3 17 4
17 47 l0 51 55 0 c67 0 105 29 105 80 0 19 -9 40 -25 55 -21 22 -33 25 -94 25
-38 0 -72 -3 -74 -7z m140 -31 c19 -12 22 -55 5 -74 -10 -13 -30 -18 -64 -18
l-48 0 0 50 0 50 48 0 c26 0 53 -4 59 -8z"/>
<path d="M7429 2783 c-1 -27 -1 -163 0 -205 l1 -38 80 0 c64 0 80 3 80 15 0
12 -14 15 -64 15 l-64 0 1 113 c0 97 -2 112 -16 115 -11 2 -17 -3 -18 -15z"/>
<path d="M3096 2783 c-3 -3 -6 -15 -6 -25 0 -10 -7 -18 -15 -18 -18 0 -20 -17
-3 -22 8 -3 13 -30 14 -80 0 -41 4 -80 8 -86 9 -15 66 -16 66 -1 0 6 -9 13
-20 16 -18 5 -20 14 -20 74 0 63 2 71 23 79 l22 9 -22 7 c-13 3 -23 14 -23 25
0 19 -13 32 -24 22z"/>
<path d="M1155 2715 c-20 -19 -25 -34 -25 -75 0 -65 30 -100 85 -100 55 0 85
35 85 100 0 41 -5 56 -25 75 -33 34 -87 34 -120 0z m101 -17 c4 -6 8 -30 9
-55 4 -54 -22 -88 -58 -77 -30 9 -35 14 -41 49 -9 45 3 85 27 94 24 9 54 4 63
-11z"/>
<path d="M1565 2715 c-20 -19 -25 -34 -25 -75 0 -41 5 -56 25 -75 31 -32 93
-34 120 -5 25 27 12 36 -26 18 -17 -9 -39 -13 -49 -11 -18 5 -45 51 -36 61 3
3 35 5 72 6 l66 1 -6 35 c-11 69 -92 95 -141 45z m108 -35 c5 -18 0 -20 -49
-20 -51 0 -53 1 -45 22 15 42 83 41 94 -2z"/>
<path d="M2163 2716 c-24 -21 -28 -31 -28 -76 0 -45 5 -56 28 -76 35 -30 86
-31 118 -4 20 16 22 21 10 29 -10 7 -18 5 -25 -4 -22 -28 -73 -22 -88 11 -16
34 -3 41 68 39 30 -1 57 1 59 5 2 4 0 23 -5 42 -17 59 -87 77 -137 34z m85
-12 c39 -27 28 -44 -28 -44 -37 0 -50 4 -50 14 0 13 36 46 50 46 3 0 16 -7 28
-16z"/>
<path d="M2349 2735 c0 -3 -1 -34 -1 -70 0 -117 1 -125 17 -125 12 0 15 14 15
68 0 87 27 124 73 100 14 -7 17 -23 17 -88 0 -70 2 -80 18 -80 15 0 17 9 16
73 -1 39 -2 77 -3 84 -2 22 -32 43 -61 43 -16 0 -36 -7 -44 -16 -15 -14 -16
-14 -16 0 0 14 -29 24 -31 11z"/>
<path d="M2582 2733 c-19 -7 -42 -58 -42 -93 0 -51 25 -88 65 -96 46 -8 82 2
95 26 13 25 -4 27 -46 5 -24 -12 -32 -12 -49 -1 -11 7 -21 24 -23 37 -3 23 -1
24 60 23 35 0 66 4 69 9 11 15 -11 66 -34 82 -21 15 -69 19 -95 8z m78 -33
c31 -31 24 -40 -30 -40 -33 0 -50 4 -50 13 0 17 12 33 30 40 25 9 29 8 50 -13z"/>
<path d="M2754 2640 c1 -88 3 -100 19 -100 14 0 17 10 17 66 0 74 12 104 40
104 11 0 20 7 20 15 0 20 -29 19 -52 -2 -18 -16 -18 -16 -12 0 4 12 1 17 -13
17 -18 0 -19 -8 -19 -100z"/>
<path d="M2897 2722 c-10 -10 -17 -22 -17 -25 0 -12 38 -8 42 4 5 16 58 14 68
-1 15 -24 -1 -39 -41 -38 -25 0 -47 -6 -59 -17 -24 -22 -26 -68 -4 -89 21 -22
70 -20 93 3 19 19 19 19 24 0 3 -11 14 -19 25 -19 26 0 38 18 18 26 -12 5 -16
21 -16 70 0 51 -4 68 -20 84 -26 26 -90 27 -113 2z m95 -107 c-7 -44 -62 -64
-84 -31 -11 16 -10 23 8 41 10 10 29 15 48 13 25 -2 30 -7 28 -23z"/>
<path d="M3185 2640 c0 -89 2 -100 18 -100 15 0 17 11 17 100 0 89 -2 100 -18
100 -15 0 -17 -11 -17 -100z"/>
<path d="M3285 2715 c-20 -19 -25 -34 -25 -75 0 -65 30 -100 85 -100 55 0 85
35 85 100 0 41 -5 56 -25 75 -33 34 -87 34 -120 0z m100 -16 c13 -13 12 -106
-2 -120 -15 -15 -61 -15 -76 0 -7 7 -12 35 -12 62 0 39 5 54 19 65 20 14 52
11 71 -7z"/>
<path d="M3470 2641 c0 -91 2 -101 18 -101 17 0 19 9 19 70 0 76 12 100 50
100 31 0 40 -25 38 -106 -1 -55 2 -64 17 -64 16 0 18 10 18 78 0 90 -15 122
-58 122 -15 0 -38 -7 -50 -16 -16 -11 -22 -12 -20 -3 2 7 -5 15 -14 17 -16 3
-18 -7 -18 -97z"/>
<path d="M4129 2738 c0 -2 -1 -47 -2 -101 -2 -86 0 -97 16 -97 15 0 17 11 17
100 0 82 -3 100 -15 100 -8 0 -15 -1 -16 -2z"/>
<path d="M4210 2639 c0 -88 2 -100 17 -97 13 2 17 16 18 73 1 81 7 95 40 95
33 0 37 -10 37 -96 0 -63 3 -75 16 -72 13 3 17 18 19 72 3 89 6 96 42 96 34 0
37 -9 36 -102 0 -58 2 -68 17 -68 16 0 18 10 18 78 0 86 -16 122 -53 122 -13
0 -32 -7 -44 -15 -18 -13 -22 -13 -33 0 -17 20 -59 19 -82 -2 -17 -15 -18 -15
-18 0 0 10 -7 17 -15 17 -12 0 -15 -18 -15 -101z"/>
<path d="M4519 2738 c-1 -2 -2 -65 -3 -140 -2 -127 -1 -138 16 -138 15 0 18 8
18 50 0 47 1 50 19 40 35 -18 68 -12 91 18 18 22 21 37 18 79 -7 80 -51 113
-108 83 -13 -7 -21 -7 -25 0 -6 9 -23 14 -26 8z m117 -42 c17 -50 5 -120 -23
-130 -9 -4 -26 1 -39 9 -31 20 -34 95 -5 124 20 20 59 18 67 -3z"/>
<path d="M4833 2728 c-47 -22 -53 -121 -11 -165 27 -29 86 -31 119 -4 33 27
17 37 -26 17 -33 -16 -38 -16 -61 -2 -25 17 -33 55 -11 57 6 1 35 2 64 3 28 1
54 4 57 7 3 3 1 21 -4 40 -15 52 -72 73 -127 47z m85 -31 c28 -22 13 -37 -38
-37 -55 0 -67 17 -29 44 21 14 42 12 67 -7z"/>
<path d="M5359 2738 c-1 -2 -2 -47 -3 -100 -1 -88 1 -98 16 -98 15 0 18 10 18
66 0 74 12 104 40 104 11 0 20 7 20 15 0 20 -29 19 -52 -2 -18 -16 -18 -16
-12 0 4 12 1 17 -10 17 -9 0 -17 -1 -17 -2z"/>
<path d="M5495 2715 c-20 -19 -25 -34 -25 -75 0 -65 30 -100 85 -100 55 0 85
35 85 100 0 41 -5 56 -25 75 -33 34 -87 34 -120 0z m105 -30 c16 -42 -2 -114
-28 -116 -63 -5 -73 15 -63 119 1 16 39 31 64 24 10 -3 22 -15 27 -27z"/>
<path d="M5700 2722 c-19 -16 -23 -29 -24 -79 -1 -92 38 -123 115 -89 14 6 16
2 10 -25 -8 -42 -41 -55 -73 -29 -34 26 -58 10 -29 -19 27 -27 81 -28 112 -2
22 18 24 27 27 141 4 114 3 122 -14 118 -11 -2 -18 -10 -16 -17 2 -9 -4 -8
-20 3 -30 21 -61 20 -88 -2z m95 -32 c11 -17 8 -90 -4 -104 -18 -21 -50 -26
-66 -9 -16 15 -21 99 -7 119 16 25 60 21 77 -6z"/>
<path d="M5889 2720 c0 -11 0 -40 0 -65 0 -106 1 -115 16 -115 12 0 15 13 15
58 0 78 8 101 36 108 13 3 24 12 24 20 0 20 -37 17 -49 -3 -10 -17 -10 -17
-11 0 0 24 -30 22 -31 -3z"/>
<path d="M6032 2724 c-13 -9 -21 -21 -19 -27 5 -15 37 -17 37 -2 0 27 64 25
74 -2 9 -24 -3 -33 -42 -33 -50 0 -82 -23 -82 -59 0 -53 60 -79 108 -45 20 14
23 14 28 0 3 -9 17 -16 30 -16 27 0 32 17 9 26 -11 5 -15 23 -15 75 0 59 -3
70 -22 83 -29 20 -77 20 -106 0z m92 -106 c-9 -31 -21 -45 -45 -51 -25 -7 -50
18 -42 41 9 24 23 32 61 32 30 0 33 -2 26 -22z"/>
<path d="M6215 2640 c0 -88 2 -100 17 -100 14 0 18 12 20 76 3 65 6 79 24 91
19 12 24 12 39 -3 13 -14 16 -32 13 -90 -3 -65 -1 -74 15 -74 15 0 17 10 17
74 0 80 11 100 52 94 22 -3 23 -8 26 -86 2 -72 5 -83 20 -80 25 5 20 167 -5
186 -22 16 -55 15 -78 -2 -16 -11 -21 -11 -33 0 -18 18 -52 18 -80 -1 -20 -14
-21 -14 -16 0 4 10 0 15 -13 15 -16 0 -18 -9 -18 -100z"/>
<path d="M6522 2640 c-2 -90 0 -100 16 -100 16 0 18 8 17 58 -1 84 11 112 46
112 32 0 31 3 33 -100 1 -52 4 -65 18 -68 15 -3 18 7 20 74 3 65 6 79 24 91
19 12 24 12 38 -2 12 -12 16 -36 16 -91 0 -59 3 -74 15 -74 24 0 21 161 -3
183 -23 21 -66 22 -82 2 -12 -14 -15 -14 -30 0 -20 18 -61 20 -79 3 -11 -10
-14 -10 -18 0 -3 6 -10 12 -17 12 -10 0 -13 -27 -14 -100z"/>
<path d="M6830 2639 c0 -89 2 -100 17 -97 14 3 16 16 16 91 -1 112 -1 107 -18
107 -12 0 -15 -18 -15 -101z"/>
<path d="M6910 2640 c0 -90 2 -100 18 -100 16 0 18 8 16 62 -2 73 7 103 35
111 40 10 54 -13 54 -96 0 -67 2 -77 17 -77 16 0 18 10 16 84 -1 53 -6 89 -15
100 -17 21 -69 21 -93 -1 -17 -15 -18 -15 -18 0 0 10 -7 17 -15 17 -12 0 -15
-18 -15 -100z"/>
<path d="M7130 2720 c-19 -19 -22 -31 -22 -80 0 -49 3 -61 23 -81 21 -21 50
-22 92 -4 15 6 17 3 13 -19 -2 -14 -7 -30 -10 -35 -12 -18 -46 -19 -69 -1 -34
27 -57 10 -26 -19 34 -31 91 -29 118 5 18 23 21 41 21 140 0 95 -3 114 -15
114 -8 0 -15 -7 -15 -16 0 -14 -2 -14 -22 0 -31 22 -64 20 -88 -4z m100 -40
c22 -42 -13 -125 -48 -113 -45 16 -58 97 -22 133 23 23 51 15 70 -20z"/>
<path d="M7644 2719 c-15 -17 -16 -22 -4 -29 9 -5 18 -4 24 4 26 31 76 21 82
-16 1 -11 -10 -15 -44 -17 -54 -2 -82 -23 -82 -62 0 -53 54 -76 104 -44 21 14
24 14 29 0 7 -17 42 -20 52 -5 3 6 -1 13 -9 16 -12 5 -16 21 -16 70 0 51 -4
68 -20 84 -27 27 -90 27 -116 -1z m99 -86 c9 -15 -13 -54 -35 -62 -45 -17 -75
20 -42 53 16 16 69 22 77 9z"/>
<path d="M7830 2641 c0 -90 2 -101 18 -101 15 0 17 11 19 70 1 77 13 100 49
100 32 0 38 -15 39 -95 0 -58 3 -70 18 -73 15 -3 17 6 17 75 0 91 -15 123 -58
123 -15 0 -38 -7 -50 -16 -16 -11 -22 -12 -20 -3 2 7 -5 15 -14 17 -16 3 -18
-7 -18 -97z"/>
<path d="M8055 2725 c-14 -12 -20 -31 -23 -79 -4 -55 -1 -67 17 -85 25 -25 68
-27 93 -4 17 15 18 15 18 -14 0 -48 -48 -75 -79 -44 -27 27 -52 10 -27 -18 44
-48 135 -13 137 52 5 166 2 202 -14 205 -10 2 -17 -3 -17 -13 0 -15 -1 -15
-16 -1 -19 20 -63 20 -89 1z m99 -54 c19 -66 -26 -128 -71 -96 -25 19 -25 111
1 130 26 20 59 4 70 -34z"/>
<path d="M8240 2662 c0 -54 5 -84 16 -100 17 -24 53 -29 87 -11 16 9 22 9 25
0 2 -6 10 -11 17 -11 10 0 13 23 13 100 0 90 -1 100 -18 100 -16 0 -18 -8 -16
-59 2 -69 -5 -96 -33 -111 -16 -8 -24 -7 -39 8 -14 14 -18 33 -17 90 0 62 -2
72 -17 72 -16 0 -18 -10 -18 -78z"/>
<path d="M8469 2720 c-20 -16 -22 -21 -10 -29 10 -6 18 -5 25 3 20 24 46 26
67 5 26 -26 18 -37 -32 -37 -49 -1 -79 -24 -79 -63 0 -53 54 -76 104 -44 21
14 24 14 29 0 4 -8 18 -15 32 -15 27 0 34 17 10 26 -11 5 -15 22 -15 70 0 51
-4 68 -20 84 -26 26 -81 26 -111 0z m94 -87 c9 -15 -13 -54 -35 -62 -45 -17
-75 20 -42 53 16 16 69 22 77 9z"/>
<path d="M8670 2722 c-21 -17 -25 -28 -25 -80 0 -91 40 -121 116 -88 14 6 16
2 12 -21 -9 -50 -43 -61 -83 -27 -9 8 -21 10 -29 5 -11 -7 -9 -13 8 -30 27
-27 81 -28 112 -2 22 18 24 27 27 140 4 118 3 121 -18 121 -14 0 -19 -4 -14
-12 5 -8 2 -9 -12 -3 -41 17 -70 16 -94 -3z m91 -28 c19 -24 13 -97 -10 -116
-42 -33 -75 -1 -73 71 2 60 49 85 83 45z"/>
<path d="M8875 2715 c-20 -19 -25 -34 -25 -75 0 -41 5 -56 25 -75 30 -31 83
-33 116 -6 28 23 19 39 -14 24 -39 -19 -52 -21 -68 -9 -18 13 -35 56 -22 57 4
0 35 1 68 2 57 2 60 3 63 29 8 67 -92 104 -143 53z m104 -31 c10 -24 10 -24
-44 -24 -47 0 -54 2 -48 18 15 45 72 49 92 6z"/>
<path d="M3687 2565 c-4 -8 -1 -17 4 -21 6 -3 8 -18 4 -32 -5 -22 -4 -24 9
-13 20 17 22 81 2 81 -8 0 -16 -7 -19 -15z"/>
<path d="M411 1968 c-16 -5 -40 -23 -52 -40 -21 -29 -23 -43 -24 -163 0 -143
7 -171 54 -202 23 -15 60 -17 321 -17 251 -1 299 1 330 15 54 24 67 67 65 212
-3 206 6 201 -372 202 -160 0 -305 -3 -322 -7z m641 -46 c21 -21 23 -33 26
-146 4 -135 -8 -179 -51 -195 -12 -5 -156 -8 -319 -7 -370 1 -341 -13 -346
177 -4 140 4 170 51 189 12 5 156 8 319 7 295 -2 298 -2 320 -25z"/>
<path d="M514 1819 c-15 -17 -16 -22 -4 -29 9 -5 18 -4 24 4 19 23 44 26 67 7
30 -24 18 -39 -32 -39 -49 -1 -79 -24 -79 -63 0 -55 64 -79 107 -40 21 20 21
20 26 0 3 -11 14 -19 25 -19 26 0 38 18 18 26 -12 5 -16 21 -16 70 0 51 -4 68
-20 84 -27 27 -90 27 -116 -1z m100 -101 c-9 -31 -21 -45 -45 -51 -19 -5 -49
15 -49 33 0 20 34 40 66 40 32 0 35 -2 28 -22z"/>
<path d="M1257 1800 c-6 -23 0 -30 25 -30 18 0 24 17 10 35 -12 17 -30 15 -35
-5z"/>
<path d="M1320 1795 c0 -17 -5 -17 125 -18 86 0 100 2 103 16 3 15 -9 17 -112
17 -96 0 -116 -3 -116 -15z"/>
<path d="M1257 1727 c-5 -14 5 -37 17 -40 11 -3 28 32 21 43 -9 14 -32 12 -38
-3z"/>
<path d="M1330 1732 c-5 -2 -10 -10 -10 -18 0 -11 22 -14 115 -14 96 0 115 3
115 15 0 8 -6 15 -12 16 -36 3 -199 4 -208 1z"/>
<path d="M2427 2223 c-2 -5 -4 -48 -5 -97 -1 -49 -5 -93 -10 -98 -4 -4 -24 4
-45 17 -52 36 -88 41 -110 17 -23 -25 -37 -114 -32 -198 8 -139 46 -174 127
-119 20 14 44 25 52 25 18 0 18 6 17 -270 0 -96 3 -183 5 -192 5 -17 209 -18
4095 -18 l4089 0 0 470 0 470 -4089 0 c-2250 0 -4092 -3 -4094 -7z m1083 -97
c0 -110 -1 -112 -69 -74 -63 35 -80 33 -108 -9 -28 -42 -26 -244 2 -291 18
-30 24 -33 53 -28 18 2 46 14 62 26 58 41 60 34 60 -210 l0 -220 -530 0 -530
0 0 221 c0 133 -4 228 -10 240 -14 26 -42 24 -90 -6 -77 -49 -93 -30 -96 113
-3 155 15 185 84 140 88 -58 112 -39 112 89 l0 83 530 0 530 0 0 -74z m7071
52 c1 -29 1 -829 0 -845 -1 -10 -712 -13 -3521 -13 l-3520 0 -1 205 c-1 113
-2 208 -3 213 -16 72 -32 78 -103 36 -51 -30 -75 -28 -84 6 -11 41 -10 205 2
239 10 28 15 32 36 26 14 -3 42 -17 62 -31 66 -43 91 -13 91 112 l0 74 3520 0
3520 0 1 -22z"/>
<path d="M2627 1965 c-17 -5 -42 -25 -54 -44 -21 -31 -23 -45 -23 -160 0 -137
12 -175 62 -202 26 -14 467 -19 517 -6 16 4 41 21 55 38 25 30 26 35 26 166 0
151 -10 182 -64 205 -38 16 -473 18 -519 3z m512 -30 c16 -8 33 -27 38 -42 13
-40 9 -253 -5 -280 -19 -34 -65 -41 -247 -40 l-170 2 -2 160 c-2 192 0 175
-18 175 -12 0 -14 -25 -14 -152 0 -84 0 -160 0 -169 -1 -27 -84 -19 -116 11
-24 23 -25 27 -25 151 0 135 8 170 44 187 12 6 115 11 254 11 186 1 239 -2
261 -14z"/>
<path d="M4908 2006 c-1 -52 -7 -98 -11 -102 -4 -5 -30 4 -58 19 -27 16 -59
27 -72 25 -37 -5 -58 -63 -58 -165 1 -131 11 -170 49 -184 21 -8 34 -5 74 21
27 16 53 30 57 30 13 0 21 -55 21 -146 l0 -84 367 2 366 3 0 335 0 335 -365 3
-366 2 -4 -94z m702 65 c3 -1 5 -140 5 -311 l0 -310 -341 0 -340 0 1 73 c1 78
-7 133 -24 150 -7 7 -31 0 -75 -23 -64 -33 -66 -34 -81 -15 -16 22 -18 44 -17
162 1 125 20 145 97 98 76 -47 96 -27 100 99 2 45 3 81 4 81 127 0 668 -3 671
-4z"/>
<path d="M5238 1879 c-16 -11 -28 -28 -28 -36 0 -14 3 -13 25 1 13 9 26 16 27
16 2 0 3 -42 3 -92 l0 -93 -33 -3 c-20 -2 -32 -9 -32 -18 0 -11 17 -14 80 -14
64 0 80 3 80 15 0 10 -10 15 -30 15 l-30 0 0 115 c0 103 -2 115 -17 115 -10 0
-30 -10 -45 -21z"/>
<path d="M6472 2003 c-1 -53 -5 -99 -8 -102 -3 -3 -29 7 -58 23 -91 49 -119
27 -131 -106 -9 -95 7 -187 36 -211 25 -20 47 -16 103 20 21 14 42 21 47 16 4
-4 9 -57 10 -116 l2 -107 369 0 368 0 0 340 0 340 -368 0 -368 0 -2 -97z m708
-240 l0 -313 -340 0 -340 0 0 93 c0 141 -21 160 -112 99 -21 -13 -44 -22 -52
-19 -25 10 -39 85 -33 177 8 131 16 140 96 95 82 -47 101 -30 101 93 0 43 2
81 4 83 2 2 155 4 340 4 l336 0 0 -312z"/>
<path d="M6791 1883 c-41 -34 -49 -138 -15 -204 23 -46 77 -53 121 -15 26 23
28 29 28 106 0 77 -2 83 -28 106 -33 28 -76 31 -106 7z m90 -29 c16 -20 17
-132 1 -161 -13 -24 -46 -30 -72 -13 -11 7 -15 29 -15 90 0 61 4 83 15 90 23
15 56 12 71 -6z"/>
<path d="M8050 2013 c0 -118 -5 -124 -69 -89 -28 15 -61 26 -74 24 -39 -5 -57
-60 -57 -171 0 -101 12 -150 45 -177 16 -13 24 -11 78 18 47 26 62 30 68 20 5
-7 9 -59 9 -116 l0 -102 368 2 367 3 1 338 0 337 -368 0 -368 0 0 -87z m702
58 c3 0 6 -140 6 -311 l0 -310 -339 0 c-264 0 -339 3 -340 13 0 6 -1 51 -3 99
-2 85 -14 118 -40 118 -7 0 -33 -13 -59 -30 -26 -16 -54 -30 -61 -30 -24 0
-38 58 -39 158 0 144 19 166 98 117 76 -46 97 -29 101 83 1 42 3 82 3 87 1 7
117 10 334 9 182 -1 335 -2 339 -3z"/>
<path d="M8378 1879 c-16 -11 -28 -28 -28 -36 0 -14 3 -13 25 1 13 9 26 16 28
16 2 0 4 -43 4 -95 l-1 -95 -33 0 c-23 0 -33 -5 -33 -15 0 -12 16 -15 80 -15
64 0 80 3 80 15 0 10 -10 15 -30 15 l-30 0 0 115 c0 103 -2 115 -17 115 -10 0
-30 -10 -45 -21z"/>
<path d="M9623 2004 c-1 -53 -4 -99 -8 -102 -4 -4 -29 5 -56 21 -100 56 -131
23 -133 -138 -1 -115 9 -161 39 -181 21 -13 27 -13 57 0 18 8 45 23 60 33 15
9 29 15 32 12 3 -3 6 -55 8 -117 l2 -112 368 0 368 0 0 340 0 340 -368 0 -368
0 -1 -96z m695 67 c9 -1 12 -70 12 -311 l0 -310 -340 0 -340 0 0 93 c0 68 -4
99 -16 115 -20 28 -24 28 -84 -9 -28 -17 -57 -28 -65 -25 -8 3 -18 20 -24 38
-10 37 -8 214 4 241 10 24 39 21 85 -8 78 -49 100 -27 100 100 0 40 4 75 10
77 9 3 625 2 658 -1z"/>
<path d="M9935 1875 c-14 -13 -26 -32 -26 -42 -5 -63 -4 -82 3 -118 16 -73 80
-98 135 -51 26 23 28 29 28 104 0 71 -3 83 -24 106 -33 35 -83 35 -116 1z m95
-20 c17 -21 21 -114 5 -152 -11 -27 -20 -33 -43 -33 -23 0 -32 6 -42 30 -16
39 -9 148 11 161 21 13 55 11 69 -6z"/>
<path d="M5969 1893 c-1 -10 -1 -23 0 -30 1 -6 -12 -21 -28 -32 -63 -45 -63
-154 0 -186 16 -9 28 -19 28 -23 -5 -31 3 -62 16 -62 11 0 15 11 15 40 0 28 4
40 14 40 27 0 56 50 56 96 0 57 -7 72 -41 90 -24 12 -29 21 -29 49 0 24 -5 35
-15 35 -8 0 -16 -8 -16 -17z m0 -153 c0 -70 -5 -80 -27 -58 -26 26 -7 128 23
128 2 0 4 -31 4 -70z m71 5 c0 -32 -17 -75 -30 -75 -6 0 -10 29 -10 73 l1 72
19 -24 c11 -13 20 -34 20 -46z"/>
<path d="M3863 1852 c-19 -12 -53 -96 -43 -106 13 -13 28 1 35 33 7 31 30 58
38 44 3 -4 10 -28 16 -53 20 -77 32 -100 57 -106 32 -8 49 8 68 62 14 42 14
44 -5 44 -10 0 -19 -7 -19 -15 0 -20 -22 -65 -32 -65 -10 0 -24 31 -38 88 -10
40 -40 82 -57 82 -5 0 -13 -4 -20 -8z"/>
<path d="M7590 1819 c-30 -35 -42 -36 -66 -4 -18 24 -44 34 -44 17 0 -5 11
-22 25 -38 31 -36 31 -35 0 -64 -14 -13 -25 -27 -25 -32 0 -16 24 -7 52 19
l28 26 28 -33 c38 -42 54 -22 17 21 -26 32 -23 49 13 72 13 9 16 33 5 40 -5 3
-19 -8 -33 -24z"/>
<path d="M9117 1815 c4 -37 -1 -40 -54 -35 -15 1 -23 -4 -23 -14 0 -12 10 -16
40 -16 l40 0 -3 -40 c-3 -33 0 -40 12 -38 12 2 16 14 14 41 -1 37 -1 37 38 37
53 0 55 28 2 32 -36 3 -38 5 -38 36 0 23 -4 32 -16 32 -13 0 -15 -8 -12 -35z"/>
<path d="M4340 1833 c0 -4 14 -50 32 -101 38 -108 56 -117 97 -44 42 77 48
152 12 152 -14 0 -16 -7 -13 -36 4 -36 -23 -124 -38 -124 -5 0 -20 35 -34 78
-15 49 -30 78 -40 80 -9 2 -16 0 -16 -5z"/>
<path d="M11739 2023 c-1 -84 -4 -111 -14 -121 -3 -4 -28 6 -56 21 -27 16 -59
27 -72 25 -38 -5 -57 -60 -57 -168 0 -115 12 -162 44 -180 22 -11 31 -9 81 19
32 18 60 29 63 26 4 -4 8 -56 10 -116 l4 -109 519 0 519 0 0 340 0 340 -520 0
-520 0 -1 -77z m1010 35 c5 -13 6 -529 2 -596 -1 -10 -103 -12 -493 -10 l-492
3 -1 90 c-2 88 -14 135 -37 135 -6 0 -34 -14 -63 -30 -29 -17 -60 -28 -68 -24
-22 8 -34 73 -31 171 4 126 23 145 99 98 76 -47 96 -30 98 87 1 55 6 85 14 88
7 3 227 5 489 5 440 0 477 -1 483 -17z"/>
<path d="M12059 1887 c-27 -21 -40 -55 -40 -110 -1 -91 28 -136 87 -137 34 0
67 29 79 69 20 66 -3 170 -40 185 -26 10 -69 6 -86 -7z m88 -47 c16 -32 16
-108 0 -140 -9 -18 -21 -25 -42 -25 -21 0 -33 7 -43 25 -16 31 -11 132 8 155
19 23 62 15 77 -15z"/>
<path d="M12380 1883 c-30 -20 -40 -34 -34 -45 3 -4 16 -1 29 8 l23 15 4 -68
c5 -110 2 -123 -33 -123 -19 0 -29 -5 -29 -15 0 -12 16 -15 80 -15 63 0 80 3
80 14 0 9 -12 16 -32 18 l-33 3 0 110 c0 120 -6 132 -55 98z"/>
<path d="M12240 1660 c0 -13 7 -20 19 -20 14 0 19 6 18 20 -1 12 -8 20 -19 20
-11 0 -18 -7 -18 -20z"/>
<path d="M10775 1962 c-53 -21 -65 -59 -65 -204 0 -133 7 -158 52 -191 26 -19
43 -20 320 -21 161 -1 307 2 323 6 17 4 42 22 56 39 26 30 27 35 28 162 1 143
-5 166 -52 201 -27 20 -40 21 -328 21 -229 0 -308 -3 -334 -13z m638 -23 c43
-19 49 -43 48 -183 -1 -126 -3 -132 -26 -156 l-25 -25 -293 -2 c-163 -1 -306
3 -323 8 -48 15 -58 45 -58 172 0 62 3 124 7 139 14 54 35 57 354 58 187 0
300 -4 316 -11z"/>
<path d="M10880 1827 c0 -7 11 -21 25 -31 32 -24 32 -39 -1 -65 -18 -14 -24
-26 -19 -38 6 -16 8 -16 18 -3 7 8 22 23 34 34 22 18 23 18 52 -13 16 -17 32
-27 35 -22 8 12 -3 41 -15 41 -4 0 -13 9 -19 19 -8 15 -5 24 15 43 14 12 25
29 25 36 0 20 -24 13 -44 -13 -10 -14 -24 -25 -31 -25 -7 0 -21 11 -31 25 -20
27 -44 33 -44 12z"/>
<path d="M510 725 c0 -58 3 -105 8 -105 4 0 54 20 112 43 139 57 139 66 1 123
-57 24 -108 44 -113 44 -4 0 -8 -47 -8 -105z m132 22 l52 -23 -75 -30 -75 -31
-2 60 c-3 59 -2 59 23 53 14 -4 48 -17 77 -29z"/>
<path d="M2619 1053 c0 -10 -2 -53 -3 -96 -2 -42 -6 -80 -10 -84 -4 -4 -29 5
-57 20 -96 54 -131 16 -131 -142 0 -157 27 -207 94 -177 18 8 45 23 60 33 15
9 30 14 34 10 4 -4 9 -49 10 -100 2 -50 3 -100 3 -109 1 -17 35 -18 571 -18
l570 0 0 340 0 340 -570 0 c-536 0 -570 -1 -571 -17z m1101 -12 c13 -1 15 -42
15 -308 l0 -308 -545 -3 -546 -2 0 67 c-2 116 -4 129 -19 149 -14 19 -16 18
-80 -16 -65 -34 -67 -34 -78 -15 -20 33 -23 56 -22 146 1 103 17 149 48 141
12 -3 37 -16 55 -29 70 -47 92 -24 95 95 1 49 6 79 14 82 10 4 1014 5 1063 1z"/>
<path d="M2948 782 c-32 -49 -58 -93 -58 -100 0 -8 20 -12 60 -12 l60 0 0 -30
c0 -20 5 -30 15 -30 10 0 15 10 15 30 0 24 4 30 21 30 12 0 19 5 16 13 -2 6
-12 11 -21 11 -14 -2 -16 11 -16 87 0 119 -15 119 -92 1z m62 -24 l0 -63 -40
0 c-29 0 -39 4 -35 13 5 15 68 112 72 112 2 0 3 -28 3 -62z"/>
<path d="M3150 780 c-33 -49 -60 -93 -60 -97 0 -5 28 -10 62 -13 61 -5 63 -6
62 -32 -1 -21 3 -28 18 -28 12 0 19 6 17 18 -3 32 1 42 16 42 21 0 19 27 -3
32 -15 4 -17 16 -15 86 2 75 0 82 -17 82 -13 0 -39 -29 -80 -90z m65 -16 c0
-48 -3 -58 -20 -63 -11 -4 -26 -6 -32 -5 -7 1 -18 2 -23 3 -9 1 64 121 73 121
1 0 2 -25 2 -56z"/>
<path d="M3349 857 c-28 -22 -41 -58 -41 -117 0 -70 23 -117 63 -125 71 -16
109 27 109 125 0 89 -26 129 -85 129 -16 0 -37 -5 -46 -12z m89 -47 c16 -30
10 -133 -9 -156 -18 -22 -61 -13 -77 16 -16 31 -11 132 8 155 19 23 62 15 78
-15z"/>
<path d="M4590 970 c0 -63 -4 -100 -10 -100 -6 0 -32 11 -58 25 -62 33 -88 32
-106 -3 -20 -39 -30 -138 -21 -218 5 -51 12 -72 31 -91 28 -28 48 -25 106 14
20 14 42 22 47 18 7 -4 11 -49 11 -116 l0 -109 370 0 370 0 0 340 0 340 -370
0 -370 0 0 -100z m708 -238 l2 -312 -340 0 -340 0 0 94 c0 78 -3 98 -19 117
-22 26 -14 29 -111 -28 -28 -17 -30 -17 -47 0 -23 23 -31 193 -11 252 16 46
29 47 89 9 75 -47 99 -22 99 100 0 40 2 75 4 77 2 2 154 4 338 4 l333 -1 3
-312z"/>
<path d="M4905 846 c-27 -27 -41 -97 -30 -152 19 -101 134 -114 165 -18 13 39
8 120 -9 153 -25 46 -88 55 -126 17z m94 -23 c20 -39 17 -145 -5 -167 -23 -23
-61 -20 -75 6 -15 29 -16 127 0 156 15 27 66 31 80 5z"/>
<path d="M6170 983 c0 -118 -6 -126 -70 -90 -63 35 -90 32 -113 -13 -15 -29
-18 -55 -15 -152 3 -112 4 -119 30 -145 l27 -27 62 33 c34 18 64 29 68 26 3
-4 8 -56 9 -116 l4 -109 509 0 509 0 0 340 0 340 -510 0 -510 0 0 -87z m986
55 c5 -6 10 -510 5 -600 -1 -17 -31 -18 -484 -18 l-482 0 1 73 c0 80 -9 134
-26 151 -8 8 -27 3 -73 -22 -34 -18 -65 -32 -68 -32 -33 1 -46 238 -16 284 19
28 30 27 86 -11 69 -47 93 -22 95 97 1 41 4 77 8 80 10 8 946 6 954 -2z"/>
<path d="M6367 935 c-59 -20 -70 -49 -72 -192 -3 -146 8 -184 59 -210 27 -14
74 -16 329 -16 329 0 334 1 364 62 15 30 18 60 17 159 -1 211 9 206 -372 207
-175 0 -306 -4 -325 -10z m647 -46 c22 -25 23 -36 23 -157 0 -120 -1 -132 -22
-158 l-23 -29 -299 -1 c-315 -2 -339 1 -363 45 -5 11 -10 75 -10 143 0 132 8
160 54 178 11 5 155 8 319 7 l299 -2 22 -26z"/>
<path d="M6483 798 c-13 -6 -23 -17 -23 -23 0 -18 27 -26 33 -11 9 23 47 26
68 5 26 -26 17 -38 -32 -37 -25 0 -47 -6 -59 -17 -24 -22 -26 -68 -4 -89 20
-21 68 -20 89 1 16 16 18 16 27 0 5 -9 20 -17 33 -17 27 0 34 17 10 26 -11 5
-15 22 -15 70 0 51 -4 68 -20 84 -22 22 -71 26 -107 8z m90 -95 c9 -15 -13
-54 -35 -62 -45 -17 -75 20 -42 53 16 16 69 22 77 9z"/>
<path d="M8030 975 c0 -112 -7 -120 -69 -81 -53 34 -86 34 -108 -1 -15 -22
-18 -49 -18 -149 0 -110 2 -125 21 -151 27 -35 57 -34 114 3 55 36 60 27 60
-104 l0 -102 368 2 367 3 1 338 2 337 -369 0 -369 0 0 -95z m698 66 c9 -1 12
-70 12 -311 l0 -310 -340 0 -340 0 -1 73 c-1 94 -7 129 -25 147 -13 13 -22 11
-76 -19 -84 -46 -92 -38 -96 112 -4 162 15 187 97 131 76 -52 99 -25 100 121
l1 60 328 -1 c180 -1 333 -2 340 -3z"/>
<path d="M8343 846 c-26 -23 -28 -29 -28 -106 0 -77 2 -83 28 -106 38 -32 81
-31 112 2 24 26 28 39 28 104 0 67 -4 82 -28 105 -31 32 -75 32 -112 1z m95
-31 c17 -37 15 -126 -4 -153 -18 -25 -56 -29 -74 -7 -18 22 -19 147 -1 168 21
27 66 22 79 -8z"/>
<path d="M4089 868 c-1 -7 -1 -23 -2 -35 0 -13 -8 -25 -17 -28 -30 -9 -50 -40
-54 -81 -4 -54 11 -92 45 -110 25 -13 29 -19 26 -49 -4 -29 -1 -35 15 -35 14
0 19 6 18 23 -4 42 0 57 14 57 25 0 56 50 56 91 0 53 -16 88 -45 99 -20 8 -25
16 -25 45 0 24 -5 35 -15 35 -8 0 -16 -6 -16 -12z m-2 -158 c1 -38 -2 -70 -6
-70 -32 0 -44 96 -15 124 8 9 16 16 18 16 1 0 2 -31 3 -70z m64 41 c1 -9 3
-30 5 -48 2 -29 -18 -74 -29 -63 -6 6 -10 58 -8 107 1 24 5 31 16 27 8 -4 16
-14 16 -23z"/>
<path d="M1561 809 c-10 -11 -24 -38 -29 -60 -9 -35 -8 -40 6 -37 9 2 19 17
24 34 4 17 14 37 22 43 15 13 26 -8 46 -86 25 -99 96 -96 116 4 4 22 2 32 -10
36 -11 5 -16 1 -16 -13 0 -25 -21 -70 -32 -70 -10 0 -24 31 -38 88 -11 42 -40
82 -60 82 -5 0 -18 -9 -29 -21z"/>
<path d="M7520 783 c0 -37 -1 -38 -35 -38 -45 0 -46 -19 0 -23 34 -3 35 -5 35
-43 0 -28 4 -39 15 -39 11 0 15 11 15 40 0 40 0 40 40 40 31 0 38 3 34 15 -4
9 -11 15 -18 14 -46 -6 -56 1 -56 36 0 24 -5 35 -15 35 -11 0 -15 -11 -15 -37z"/>
<path d="M2050 803 c0 -5 14 -50 32 -101 26 -79 34 -93 51 -90 53 8 110 198
59 198 -14 0 -17 -7 -14 -40 3 -27 -3 -54 -19 -87 l-23 -47 -29 87 c-18 55
-34 87 -43 87 -8 0 -14 -3 -14 -7z"/>
<path d="M5596 803 c-3 -4 8 -21 24 -38 l31 -32 -29 -30 c-43 -42 -26 -64 17
-22 l33 31 33 -32 c41 -39 60 -22 21 19 -32 34 -32 42 -1 71 14 13 25 27 25
32 0 16 -25 7 -49 -17 -29 -31 -32 -31 -61 0 -25 26 -32 29 -44 18z"/>
</g>
</svg>
