<?xml version="1.0" standalone="no"?>
<!DOCTYPE svg PUBLIC "-//W3C//DTD SVG 20010904//EN"
 "http://www.w3.org/TR/2001/REC-SVG-20010904/DTD/svg10.dtd">
<svg version="1.0" xmlns="http://www.w3.org/2000/svg"
 width="766.000000pt" height="844.000000pt" viewBox="0 0 766.000000 844.000000"
 preserveAspectRatio="xMidYMid meet">
<metadata>
Created by potrace 1.16, written by Peter Selinger 2001-2019
</metadata>
<g transform="translate(0.000000,844.000000) scale(0.100000,-0.100000)"
fill="#000000" stroke="none">
<path d="M285 8319 c-41 -11 -72 -42 -83 -81 -5 -19 -8 -1695 -8 -3998 1
-3221 4 -3970 14 -3990 8 -14 25 -34 40 -45 27 -20 44 -20 3214 -21 1753 -1
3193 -4 3200 -6 11 -5 12 59 10 333 l-3 339 -2414 0 -2415 0 1 175 c0 129 3
175 12 176 7 0 147 2 312 2 l300 2 0 180 0 180 530 5 530 5 0 180 0 180 1911
3 1912 2 -2 263 -1 262 -300 2 c-165 2 -311 3 -325 2 -247 -1 -300 0 -310 6
-7 5 -11 4 -7 -1 4 -7 -2739 -11 -2863 -5 -23 1 -23 339 0 345 8 2 901 3 1983
2 1303 -1 1971 2 1975 9 11 17 8 514 -3 518 -5 1 -990 2 -2187 2 -1970 -1
-2178 0 -2179 14 -3 63 0 341 4 348 3 4 -125 7 -284 5 -159 -1 -289 1 -290 5
-6 55 -2 243 6 243 7 0 7 3 0 8 -5 4 -10 30 -10 57 l0 50 -303 3 -303 2 1 163
c0 89 1 171 0 182 0 20 -6 21 -252 21 l-253 1 -2 177 -2 176 698 0 697 0 -2
68 c-1 41 3 70 10 74 7 5 8 8 0 8 -15 0 -17 70 -1 70 8 0 8 3 2 8 -16 11 -18
72 -3 72 9 0 10 2 2 8 -7 4 -11 18 -10 32 1 25 2 25 99 25 53 0 97 -3 97 -8 0
-4 6 -5 13 0 19 12 3297 11 3297 -2 0 -6 3 -6 8 1 5 7 56 11 150 10 79 -1 147
1 151 4 5 3 8 79 7 170 -1 91 2 173 6 182 5 9 5 19 0 21 -4 3 -6 37 -6 75 1
58 -1 71 -15 74 -9 2 -73 3 -143 3 l-128 -1 0 246 0 246 343 -1 342 0 3 265 2
265 -640 -3 -640 -2 0 255 0 255 -1672 2 -1673 3 0 70 c-1 39 3 75 7 82 5 6 5
14 1 16 -5 3 -8 47 -8 97 1 50 -2 93 -6 95 -3 3 -140 5 -303 5 -163 1 -296 4
-297 8 0 4 -1 81 -2 172 l-1 165 449 2 c248 1 530 2 628 3 l177 0 0 193 0 194
-1235 -1 c-830 -1 -1238 -4 -1243 -11 -13 -19 -61 -45 -83 -45 -12 0 -38 12
-57 27 -28 21 -48 27 -91 29 -31 1 -70 -2 -86 -7z m170 -39 c55 -38 76 -38
135 0 l47 30 1213 -2 1214 -3 0 -175 1 -176 -1220 3 -1220 2 -46 -29 c-25 -17
-52 -30 -60 -30 -8 0 -34 14 -59 30 -43 28 -50 30 -147 30 l-103 0 0 133 c0
114 3 136 20 165 25 41 49 51 123 51 49 1 65 -4 102 -29z m-5 -365 c56 -39 80
-39 134 -4 l46 31 280 0 c154 0 283 -3 288 -6 5 -3 7 -20 6 -38 -1 -18 -3 -39
-3 -46 -1 -10 -8 -9 -31 3 -41 21 -59 19 -70 -11 -21 -53 -4 -174 23 -174 7 0
25 7 41 15 16 9 32 13 35 10 3 -3 5 -650 5 -1438 l1 -1432 -289 -3 -288 -2
-43 -30 c-55 -38 -75 -38 -127 0 -39 29 -45 30 -145 30 l-103 0 0 1559 0 1560
28 3 c15 2 60 2 101 1 61 -2 81 -7 111 -28z m1353 25 c11 0 9 -448 -3 -455 -5
-3 -23 1 -39 10 -27 13 -31 13 -45 -1 -25 -25 -25 -159 0 -184 13 -13 18 -13
46 3 17 10 35 14 40 9 4 -4 7 -570 6 -1257 l-3 -1249 -180 1 c-99 0 -231 1
-292 2 l-113 1 0 1444 c0 1197 -2 1445 -13 1449 -8 3 -28 -2 -46 -11 -28 -13
-34 -13 -42 -1 -12 18 -9 142 4 150 5 4 22 0 37 -9 42 -25 60 -11 60 47 l0 50
43 3 c32 2 499 1 540 -2z m617 -592 c0 -136 -4 -229 -10 -233 -5 -3 -24 2 -41
10 -27 14 -33 15 -45 3 -23 -22 -23 -152 -1 -182 13 -17 15 -17 46 -2 17 9 36
14 41 11 13 -8 13 -342 1 -349 -5 -4 -23 2 -40 11 -28 17 -31 17 -47 1 -21
-20 -24 -141 -6 -175 12 -22 14 -22 49 -8 19 8 39 15 44 15 10 0 13 -343 3
-353 -3 -3 -21 2 -40 11 -30 14 -36 14 -49 1 -18 -18 -26 -111 -13 -156 10
-37 38 -44 75 -18 19 13 22 13 27 -1 8 -20 8 -339 0 -347 -3 -3 -21 2 -40 11
-30 14 -36 14 -49 1 -27 -28 -25 -176 4 -193 4 -3 24 3 44 13 20 10 39 16 42
13 7 -7 6 -347 -1 -355 -3 -3 -21 2 -40 11 -31 14 -36 15 -50 0 -18 -17 -24
-112 -11 -160 8 -32 39 -37 74 -13 19 13 22 13 27 -1 3 -9 6 -33 6 -55 0 -34
-3 -39 -22 -40 -114 -5 -560 0 -566 5 -4 4 -7 570 -7 1256 0 924 -3 1252 -11
1260 -9 9 -21 8 -48 -5 -20 -10 -39 -15 -43 -11 -10 10 -12 116 -3 142 9 24
10 24 45 7 42 -20 59 -9 61 40 1 18 2 39 3 47 1 13 40 15 296 15 l295 0 0
-227z m3337 -151 c4 -4 7 -116 8 -247 l0 -240 -1665 0 -1665 0 0 125 c-1 146
-7 159 -60 131 -19 -11 -38 -16 -43 -12 -9 10 -9 152 0 162 5 4 24 -1 43 -12
42 -23 57 -12 59 43 1 21 4 43 8 48 7 12 3303 13 3315 2z m1284 -516 c1 -20 1
-452 0 -468 -1 -10 -469 -13 -2304 -13 l-2302 0 0 125 c0 146 -6 158 -61 131
-20 -9 -39 -14 -43 -11 -9 10 -7 152 2 161 4 5 23 0 43 -11 43 -23 54 -14 59
46 2 24 4 47 4 50 1 3 1036 5 2301 5 2078 0 2300 -1 2301 -15z m-691 -737 c0
-185 -3 -243 -12 -246 -25 -8 -3887 -3 -3895 5 -4 5 -9 54 -9 110 -2 146 -2
147 -19 147 -9 0 -29 -7 -45 -15 -27 -14 -30 -14 -40 5 -12 23 -11 122 1 142
6 9 16 8 45 -5 45 -22 56 -14 58 45 0 24 4 46 9 49 4 3 885 5 1957 5 l1950 0
0 -242z m290 -514 l0 -247 -2102 1 -2103 1 0 121 c-1 147 -8 163 -61 132 l-34
-20 -11 29 c-10 27 -7 129 6 141 3 3 22 -2 42 -12 45 -22 56 -12 57 52 l1 49
2103 0 2102 0 0 -247z m-3824 -437 c2 -154 0 -173 -15 -174 -22 -1 -321 -1
-346 0 -17 1 -20 8 -21 57 -2 68 -15 79 -60 52 l-34 -20 -11 29 c-11 28 -8
127 4 140 4 4 24 -1 44 -11 44 -21 53 -13 56 45 1 24 6 47 11 50 4 4 90 6 190
5 l181 -1 1 -172z m-2361 -223 c55 -38 78 -38 135 0 38 25 55 30 108 30 l62 0
0 -50 0 -51 -30 16 c-16 8 -36 15 -45 15 -21 0 -35 -40 -35 -100 0 -90 28
-121 76 -85 10 8 22 15 27 15 4 0 7 -981 7 -2180 l0 -2181 -245 3 -245 3 -27
28 -28 27 -3 2270 -2 2270 101 0 c95 0 103 -2 144 -30z m969 -140 c-1 -91 -2
-196 -3 -234 l-1 -68 -25 16 c-36 24 -64 20 -75 -10 -22 -56 -5 -174 24 -174
6 0 24 7 40 15 15 8 30 15 32 15 2 0 4 -693 4 -1540 0 -847 -2 -1540 -5 -1540
-4 0 -20 7 -37 16 -31 16 -32 16 -51 -7 -16 -19 -18 -36 -15 -91 5 -87 21
-107 66 -84 17 9 33 16 37 16 3 0 5 -49 5 -110 0 -60 -2 -110 -5 -110 -4 0
-19 7 -35 15 -16 8 -35 12 -43 9 -29 -11 -38 -145 -11 -182 l15 -22 40 20 39
20 0 -200 0 -200 -320 0 -320 0 0 2178 c0 1624 -3 2181 -11 2189 -9 9 -21 7
-49 -7 -46 -23 -50 -18 -50 70 0 88 4 93 50 70 47 -24 60 -13 60 52 l0 48 323
-2 322 -3 -1 -165z m512 -424 c-1 -124 -4 -227 -7 -231 -3 -3 -22 1 -41 10
-51 21 -63 3 -63 -91 0 -94 15 -115 65 -89 17 9 35 14 38 10 7 -7 10 -2283 4
-2322 -4 -21 -6 -21 -27 -7 -38 25 -67 15 -78 -26 -12 -47 -4 -128 15 -147 14
-13 19 -13 48 2 17 9 34 14 37 11 3 -3 6 -26 7 -53 l1 -48 -247 -3 -248 -2 0
1484 c0 1233 -2 1485 -14 1495 -10 8 -21 7 -46 -5 -42 -21 -50 -10 -50 71 0
79 7 88 48 68 48 -23 62 -12 62 47 l0 50 249 0 248 0 -1 -224z m602 -374 c1
-127 1 -232 -2 -232 -2 0 -20 7 -41 16 -31 13 -40 13 -51 2 -22 -23 -23 -152
-1 -182 13 -17 15 -17 45 -2 17 9 36 16 42 16 7 0 10 -287 10 -930 l0 -930
-295 0 -295 0 0 1120 c0 1231 4 1151 -60 1113 -40 -23 -50 -10 -50 72 0 81 8
92 50 70 47 -24 60 -14 60 44 0 39 4 50 18 53 9 2 141 3 292 3 l275 0 3 -233z
m560 -141 c9 -1 12 -53 12 -224 0 -123 -3 -226 -6 -230 -3 -3 -22 2 -41 11
-33 16 -36 16 -49 -3 -14 -19 -19 -53 -15 -110 4 -78 18 -89 73 -61 15 8 29
12 32 8 7 -6 8 -362 1 -362 -2 0 -20 8 -40 17 -32 15 -37 15 -51 2 -16 -17
-23 -126 -10 -166 8 -27 41 -30 70 -8 10 8 23 12 27 9 5 -3 9 -52 9 -109 0
-57 -4 -106 -9 -109 -4 -3 -17 1 -27 9 -50 38 -76 9 -76 -86 0 -92 15 -111 66
-87 19 9 37 14 40 11 8 -8 8 -348 0 -356 -3 -3 -21 3 -39 14 -30 18 -34 18
-49 4 -16 -16 -21 -54 -17 -124 4 -66 33 -88 75 -56 28 21 36 10 36 -46 l0
-49 -277 2 -278 3 -1 915 c-1 503 -2 925 -3 938 -1 26 -22 28 -58 5 -24 -16
-26 -16 -39 1 -14 19 -14 139 -1 153 4 4 24 -1 44 -11 44 -21 57 -11 59 43 0
20 3 42 6 47 5 7 447 11 536 5z m4392 -611 l0 -247 -2172 1 c-1195 1 -2178 4
-2183 8 -6 4 -10 52 -9 120 0 62 -3 121 -8 131 -8 16 -11 16 -49 -3 l-39 -21
-10 25 c-9 25 -6 134 5 144 3 3 22 -2 42 -12 44 -21 54 -13 58 46 2 23 4 45 4
49 1 3 982 5 2181 5 l2180 0 0 -246z m-3982 -437 l2 -173 -190 0 c-104 0 -191
3 -191 8 -1 4 -2 28 -4 53 -3 67 -9 72 -55 49 -25 -13 -41 -16 -45 -10 -10 16
-15 99 -8 131 6 33 23 36 59 13 33 -22 45 -9 47 47 1 24 6 47 10 50 5 3 90 6
190 5 l182 -1 3 -172z m3822 -437 c0 -186 -3 -245 -12 -248 -23 -7 -4178 -1
-4185 6 -4 4 -7 60 -8 126 0 134 -8 154 -49 126 -33 -21 -53 -20 -58 2 -5 16
-4 93 0 130 3 16 28 15 55 -3 31 -20 49 -5 52 46 2 24 4 47 4 52 1 4 946 7
2101 7 l2100 0 0 -244z m-3820 -441 l0 -175 -193 0 -192 0 -1 55 c0 68 -13 85
-48 61 -41 -26 -54 -21 -61 27 -6 40 0 100 11 119 3 4 23 -1 44 -12 45 -23 51
-18 55 48 2 26 4 48 4 50 1 1 87 2 191 2 l190 0 0 -175z m-1060 -370 l0 -175
-250 0 -250 0 0 60 c0 69 -13 82 -54 55 -43 -29 -56 -15 -56 62 0 89 8 101 48
78 45 -27 62 -15 62 45 l0 50 250 0 250 0 0 -175z m-630 -197 c4 -5 5 -281 1
-335 -1 -10 -46 -13 -191 -13 l-190 0 0 53 c0 75 -10 86 -56 64 -20 -10 -39
-15 -42 -13 -17 18 -17 144 0 162 3 3 22 -3 42 -13 45 -21 56 -11 56 54 0 23
4 43 10 45 19 6 365 3 370 -4z m4830 -449 c1 -49 1 -191 1 -316 l0 -228 -2605
-3 -2606 -2 0 189 c0 104 -3 196 -6 205 -8 20 -21 20 -58 1 -24 -13 -31 -13
-38 -3 -11 18 -10 146 1 153 5 3 26 -2 46 -12 44 -21 55 -11 55 53 0 22 2 43
5 46 3 3 1175 5 2605 5 l2600 0 0 -88z"/>
<path d="M900 8186 c0 -19 -4 -23 -20 -19 -29 8 -50 -14 -50 -52 0 -40 16 -54
58 -53 l32 1 0 74 c0 42 -4 73 -10 73 -5 0 -10 -11 -10 -24z m0 -72 c0 -30 -3
-34 -25 -34 -21 0 -25 5 -25 28 0 15 5 33 11 39 20 20 39 3 39 -33z"/>
<path d="M1870 8200 c0 -5 5 -10 10 -10 6 0 10 5 10 10 0 6 -4 10 -10 10 -5 0
-10 -4 -10 -10z"/>
<path d="M357 8193 c-10 -9 -8 -43 2 -43 5 0 9 11 9 25 0 27 -1 28 -11 18z"/>
<path d="M388 8188 c-7 -16 7 -46 17 -37 3 4 2 16 -3 29 -7 18 -10 20 -14 8z"/>
<path d="M581 8175 c-54 -69 35 -152 100 -94 21 18 21 20 4 13 -49 -17 -72
-16 -87 5 -34 48 16 102 64 72 27 -17 38 -3 14 15 -31 22 -72 17 -95 -11z"/>
<path d="M1142 8184 c-16 -11 -22 -25 -22 -54 0 -45 26 -70 75 -70 39 0 52 9
56 40 4 22 0 25 -30 28 -21 2 -31 0 -26 -7 3 -6 15 -11 25 -11 13 0 17 -5 14
-15 -7 -18 -65 -20 -82 -3 -7 7 -12 24 -12 38 0 14 5 31 12 38 15 15 64 16 73
2 4 -6 11 -7 17 -4 16 10 -21 34 -52 34 -14 0 -36 -7 -48 -16z"/>
<path d="M1821 8188 c-1 -10 -5 -18 -11 -18 -6 0 -6 -9 -1 -23 5 -13 9 -30 9
-38 -2 -38 3 -49 25 -49 16 0 19 2 8 9 -17 11 -22 61 -8 79 7 9 7 16 0 20 -5
4 -13 14 -16 22 -4 12 -6 11 -6 -2z"/>
<path d="M2269 8188 c-5 -67 -2 -122 8 -125 7 -3 10 10 7 37 -5 51 9 51 30 0
9 -22 20 -40 25 -40 5 0 18 24 28 53 l18 52 3 -52 c4 -77 18 -65 19 17 0 59
-2 70 -15 68 -8 -2 -22 -24 -31 -50 -9 -26 -19 -49 -22 -52 -3 -3 -14 19 -24
49 -17 50 -44 74 -46 43z"/>
<path d="M731 8161 c-9 -6 -15 -25 -15 -46 0 -38 15 -55 50 -55 29 0 44 19 44
55 0 17 -5 36 -12 43 -14 14 -47 15 -67 3z m59 -41 c0 -38 -23 -56 -44 -35
-18 18 -16 53 4 65 22 13 40 0 40 -30z"/>
<path d="M956 8154 c-21 -21 -20 -57 2 -77 23 -21 42 -21 68 -2 22 17 15 19
-20 5 -21 -8 -27 -6 -36 10 -12 23 -4 29 38 26 24 -2 32 2 32 14 0 38 -55 54
-84 24z m64 -15 c0 -5 -11 -9 -25 -9 -24 0 -32 10 -19 22 8 8 44 -3 44 -13z"/>
<path d="M1292 8158 c-7 -7 -12 -26 -12 -43 0 -17 5 -36 12 -43 14 -14 47 -15
68 -2 21 13 5 24 -18 11 -13 -7 -22 -7 -30 1 -22 22 -13 35 26 35 31 -1 36 2
34 19 -7 33 -55 47 -80 22z m58 -19 c0 -5 -11 -9 -25 -9 -28 0 -34 16 -7 23
20 4 32 -1 32 -14z"/>
<path d="M1400 8113 c0 -29 5 -53 10 -53 6 0 10 20 10 44 0 32 5 46 17 50 22
9 33 -10 33 -57 0 -23 4 -36 10 -32 14 9 12 81 -3 93 -7 6 -27 10 -45 10 -32
-1 -32 -1 -32 -55z"/>
<path d="M1522 8158 c-7 -7 -12 -26 -12 -43 0 -36 15 -55 45 -55 25 0 52 16
42 26 -3 4 -13 1 -22 -6 -12 -10 -18 -10 -30 0 -24 20 -18 39 10 35 14 -1 32
3 41 10 15 10 15 13 -1 28 -19 20 -56 22 -73 5z m56 -16 c2 -7 -7 -12 -23 -12
-24 0 -26 2 -15 15 14 17 31 16 38 -3z"/>
<path d="M1630 8114 c0 -30 5 -54 10 -54 6 0 10 18 10 40 0 27 5 43 15 46 23
9 18 22 -10 22 -24 0 -25 -4 -25 -54z"/>
<path d="M1710 8160 c-8 -5 -11 -12 -7 -16 3 -4 13 -2 20 4 10 9 18 8 33 -3
18 -14 17 -14 -12 -15 -41 0 -59 -21 -44 -49 12 -23 44 -28 56 -9 5 7 2 9 -9
5 -23 -9 -41 17 -22 33 16 13 50 6 41 -9 -9 -14 4 -41 20 -41 15 0 19 16 5 24
-4 3 -7 16 -7 28 4 50 -33 74 -74 48z"/>
<path d="M1870 8115 c0 -30 5 -55 10 -55 6 0 10 25 10 55 0 30 -4 55 -10 55
-5 0 -10 -25 -10 -55z"/>
<path d="M1934 8162 c-38 -25 -18 -102 26 -102 34 0 50 17 50 55 0 17 -5 36
-12 43 -13 13 -47 16 -64 4z m44 -14 c19 -19 14 -56 -8 -68 -17 -9 -22 -7 -30
15 -7 18 -7 33 0 46 12 22 21 24 38 7z"/>
<path d="M2033 8114 c1 -60 21 -71 22 -11 0 39 16 64 34 53 6 -4 11 -27 11
-52 0 -24 5 -44 11 -44 6 0 9 21 7 53 l-3 52 -41 1 -41 2 0 -54z"/>
<path d="M2447 8163 c-14 -14 -6 -19 23 -15 18 3 30 0 30 -7 0 -6 -11 -11 -24
-11 -28 0 -49 -22 -44 -47 3 -14 14 -18 56 -19 37 -1 50 2 43 9 -6 6 -11 28
-11 48 0 24 -5 39 -16 43 -21 8 -49 8 -57 -1z m53 -56 c0 -19 -20 -36 -36 -30
-17 6 -18 30 -1 36 22 10 37 7 37 -6z"/>
<path d="M2562 8158 c-7 -7 -12 -26 -12 -43 0 -36 15 -55 46 -55 23 0 48 22
37 33 -3 4 -12 -1 -18 -10 -11 -15 -15 -15 -29 -4 -20 17 -21 67 -1 74 8 4 17
2 20 -3 4 -6 13 -10 22 -10 13 0 13 3 3 15 -15 18 -51 20 -68 3z"/>
<path d="M2655 8114 c0 -35 4 -54 12 -54 7 0 12 16 11 41 0 28 5 44 18 54 18
13 17 14 -11 13 -30 -1 -30 -2 -30 -54z"/>
<path d="M2736 8154 c-31 -31 -12 -94 29 -94 46 0 68 46 45 91 -13 23 -53 25
-74 3z m64 -38 c0 -32 -19 -47 -42 -35 -23 12 -24 55 -1 68 23 12 43 -4 43
-33z"/>
<path d="M2847 8164 c-16 -16 -6 -44 18 -50 13 -3 29 -12 35 -19 14 -17 -15
-28 -40 -15 -27 14 -34 12 -20 -6 8 -9 25 -14 44 -12 24 2 32 9 34 26 3 18 -3
26 -27 35 -17 6 -31 15 -31 19 0 15 20 19 41 7 17 -9 20 -8 17 3 -5 14 -59 24
-71 12z"/>
<path d="M2150 8073 c0 -10 19 -40 21 -33 0 3 2 13 4 23 2 9 -3 17 -11 17 -8
0 -14 -3 -14 -7z"/>
<path d="M290 6482 c-22 -18 -24 -27 -24 -101 0 -124 0 -124 215 -124 169 0
173 0 192 24 16 20 18 36 15 106 -2 50 -8 87 -16 95 -9 9 -61 14 -186 16 -158
3 -174 2 -196 -16z m367 -15 c20 -19 22 -162 4 -180 -8 -8 -66 -13 -173 -14
-206 -4 -208 -3 -208 100 0 39 4 77 8 84 15 23 52 28 202 27 124 -1 154 -4
167 -17z"/>
<path d="M365 6383 c16 -24 16 -28 1 -55 -10 -15 -13 -28 -7 -28 6 0 16 10 22
22 l12 22 19 -24 c24 -30 35 -19 13 13 -15 24 -15 27 0 51 10 15 13 26 7 26
-6 0 -16 -9 -23 -21 l-11 -21 -14 21 c-22 31 -39 26 -19 -6z"/>
<path d="M772 6389 c2 -6 8 -10 13 -10 5 0 11 4 13 10 2 6 -4 11 -13 11 -9 0
-15 -5 -13 -11z"/>
<path d="M810 6389 c0 -5 29 -9 65 -9 38 0 65 4 65 10 0 7 -26 10 -65 9 -36
-1 -65 -6 -65 -10z"/>
<path d="M775 6350 c-8 -13 -1 -24 14 -19 6 3 7 10 2 18 -6 10 -10 10 -16 1z"/>
<path d="M810 6340 c0 -6 28 -10 65 -10 37 0 65 4 65 10 0 6 -28 10 -65 10
-37 0 -65 -4 -65 -10z"/>
<path d="M1386 7815 c17 -25 16 -28 -4 -71 -25 -50 -26 -54 -13 -54 5 0 14 14
21 30 7 17 15 30 19 30 4 0 12 -13 18 -30 6 -16 16 -30 21 -30 17 0 -44 145
-63 148 -16 4 -16 2 1 -23z"/>
<path d="M1412 6168 c-16 -16 -15 -25 4 -32 8 -3 12 -2 9 4 -3 5 18 11 47 13
l53 3 -53 2 c-33 1 -51 6 -47 12 8 14 2 13 -13 -2z"/>
<path d="M2024 7423 c-5 -15 -17 -43 -42 -95 -2 -5 1 -8 7 -8 6 0 19 16 28 35
l18 35 19 -35 c11 -19 26 -35 33 -35 11 0 9 7 -6 26 -11 14 -23 41 -27 60 -7
37 -21 45 -30 17z"/>
<path d="M2119 7399 c-10 -28 5 -74 26 -77 18 -2 19 -2 3 8 -10 6 -18 17 -18
25 0 8 8 19 18 24 15 9 15 10 0 11 -9 0 -18 5 -20 12 -3 8 -6 7 -9 -3z"/>
<path d="M1980 6940 c0 -5 5 -10 10 -10 6 0 10 5 10 10 0 6 -4 10 -10 10 -5 0
-10 -4 -10 -10z"/>
<path d="M1969 6453 c17 -54 31 -83 41 -83 25 0 58 98 35 106 -5 2 -11 -7 -11
-21 -4 -63 -28 -73 -41 -18 -4 20 -14 38 -20 40 -9 3 -10 -4 -4 -24z"/>
<path d="M1997 5973 c-4 -4 12 -26 35 -50 34 -34 38 -43 23 -43 -14 0 -16 -3
-8 -11 19 -19 58 -6 61 20 2 13 -1 28 -7 34 -8 8 -11 6 -11 -8 0 -15 -9 -11
-43 23 -24 23 -46 39 -50 35z"/>
<path d="M1980 5454 c0 -4 7 -15 15 -24 14 -15 14 -18 0 -30 -8 -7 -15 -17
-15 -23 0 -5 9 -2 20 8 16 15 22 16 35 5 20 -17 32 -5 15 15 -10 12 -10 19 -2
27 19 19 14 32 -6 15 -16 -15 -20 -15 -40 -1 -12 8 -22 12 -22 8z"/>
<path d="M2010 5020 c0 -14 -7 -20 -22 -20 -12 0 -18 -3 -14 -7 4 -5 13 -8 19
-8 7 0 13 -10 15 -22 5 -32 22 -29 22 3 0 19 4 25 15 21 8 -4 17 -2 20 3 4 6
-3 10 -14 10 -14 0 -21 6 -21 20 0 11 -4 20 -10 20 -5 0 -10 -9 -10 -20z"/>
<path d="M3274 7104 c1 -62 -5 -69 -44 -49 -50 26 -65 5 -65 -90 0 -95 15
-116 65 -90 17 9 34 14 38 11 3 -3 6 -32 6 -63 l1 -58 295 0 295 0 0 193 1
192 -297 0 -296 0 1 -46z m571 -144 l0 -175 -277 -1 -278 -1 0 59 c0 68 -13
79 -60 51 -40 -23 -50 -10 -50 72 0 82 10 95 50 72 45 -27 60 -17 60 42 0 27
5 51 10 53 6 2 131 3 278 3 l267 0 0 -175z"/>
<path d="M3452 7007 c-34 -41 -15 -127 28 -127 43 0 66 71 40 121 -12 22 -52
25 -68 6z m58 -58 c0 -28 -5 -41 -20 -49 -17 -9 -22 -7 -31 17 -11 30 -4 74
14 85 20 12 37 -13 37 -53z"/>
<path d="M3629 7003 c-12 -15 -12 -16 4 -10 15 6 17 0 17 -43 0 -37 -4 -50
-14 -50 -8 0 -18 -4 -21 -10 -4 -6 12 -10 39 -10 25 0 46 5 46 10 0 6 -7 10
-15 10 -12 0 -15 13 -15 60 0 63 -13 77 -41 43z"/>
<path d="M3560 6890 c0 -5 5 -10 10 -10 6 0 10 5 10 10 0 6 -4 10 -10 10 -5 0
-10 -4 -10 -10z"/>
<path d="M4339 7143 c-1 -5 -2 -27 -4 -51 -1 -23 -4 -45 -8 -48 -3 -3 -20 2
-37 11 -50 26 -65 5 -65 -90 0 -95 15 -116 65 -90 17 9 34 14 37 11 3 -3 7
-29 8 -58 2 -29 3 -55 4 -58 1 -3 93 -6 206 -6 l205 0 0 193 0 193 -205 0
c-113 0 -205 -3 -206 -7z m391 -15 c3 -3 5 -82 5 -175 l0 -168 -190 0 -190 0
-3 58 c-3 67 -16 78 -61 51 -17 -10 -34 -15 -38 -10 -11 11 -15 139 -5 154 7
11 16 10 46 -4 44 -22 53 -14 57 46 2 25 6 47 10 50 11 8 363 6 369 -2z"/>
<path d="M4514 6999 c-19 -22 -19 -22 2 -11 20 10 21 8 21 -39 1 -45 -4 -54
-29 -50 -5 0 -8 -3 -8 -9 0 -5 20 -10 45 -10 26 0 45 5 45 11 0 6 -7 9 -15 5
-16 -6 -16 -5 -19 73 -1 51 -14 60 -42 30z"/>
<path d="M5220 7095 c0 -30 -2 -55 -5 -55 -4 0 -20 7 -37 16 -31 16 -32 16
-51 -7 -16 -19 -18 -36 -15 -91 5 -85 23 -110 62 -85 40 27 46 21 46 -43 0
-33 3 -61 8 -61 4 -1 98 -2 210 -3 l202 -2 0 193 0 193 -210 0 -210 0 0 -55z
m395 33 c5 -5 8 -176 6 -299 l-1 -46 -190 0 -190 0 0 59 c0 69 -15 81 -62 53
-39 -23 -48 -10 -48 70 0 82 7 91 54 68 45 -21 56 -11 56 53 0 22 2 43 4 45 6
6 365 4 371 -3z"/>
<path d="M5396 7004 c-19 -19 -20 -82 -2 -106 32 -43 86 -9 86 52 0 42 -20 70
-50 70 -10 0 -26 -7 -34 -16z m62 -49 c3 -28 -1 -43 -14 -52 -25 -18 -44 1
-44 47 0 43 7 52 35 48 16 -2 21 -12 23 -43z"/>
<path d="M2600 7025 c0 -8 7 -15 15 -15 8 0 15 7 15 15 0 8 -7 15 -15 15 -8 0
-15 -7 -15 -15z"/>
<path d="M2897 7012 c-14 -3 -17 -16 -17 -78 0 -41 3 -74 8 -75 4 0 40 -2 80
-2 l72 -2 0 78 c0 42 -3 77 -7 78 -27 3 -122 3 -136 1z m113 -42 c0 -5 -2 -10
-4 -10 -3 0 -8 5 -11 10 -3 6 -1 10 4 10 6 0 11 -4 11 -10z m-20 -20 c0 -5 -2
-10 -4 -10 -3 0 -8 5 -11 10 -3 6 -1 10 4 10 6 0 11 -4 11 -10z m35 -39 c-6
-5 -25 10 -25 20 0 5 6 4 14 -3 8 -7 12 -15 11 -17z m-15 -21 c0 -5 -2 -10 -4
-10 -3 0 -8 5 -11 10 -3 6 -1 10 4 10 6 0 11 -4 11 -10z"/>
<path d="M4939 6990 c-1 -8 -1 -18 0 -22 0 -5 -11 -8 -26 -8 -14 0 -23 -3 -19
-7 4 -4 15 -8 24 -8 9 0 19 -11 23 -25 6 -23 9 -20 13 12 0 6 9 12 19 14 31 4
32 14 3 14 -15 0 -25 4 -22 8 2 4 1 14 -5 22 -7 13 -9 13 -10 0z"/>
<path d="M4025 6970 c17 -19 17 -21 0 -40 -14 -16 -15 -20 -4 -20 8 0 20 5 27
12 9 9 16 7 32 -7 11 -10 20 -13 20 -8 0 6 -7 16 -15 23 -14 12 -14 15 1 31
10 11 14 22 10 27 -4 4 -14 -2 -22 -12 -13 -18 -15 -18 -32 -3 -26 24 -39 21
-17 -3z"/>
<path d="M2600 6915 c0 -8 7 -15 15 -15 8 0 15 7 15 15 0 8 -7 15 -15 15 -8 0
-15 -7 -15 -15z"/>
<path d="M2660 6855 c0 -8 7 -15 15 -15 8 0 15 7 15 15 0 8 -7 15 -15 15 -8 0
-15 -7 -15 -15z"/>
<path d="M3190 6585 c0 -30 -4 -55 -8 -55 -5 0 -24 7 -41 16 -43 22 -59 6 -62
-61 -3 -77 0 -100 14 -119 13 -17 15 -17 45 -2 48 25 52 21 52 -47 l0 -62 380
0 380 0 0 192 0 193 -380 0 -380 0 0 -55z m740 28 c4 -10 5 -267 1 -324 -1
-14 -41 -15 -363 -15 l-362 1 -2 53 c-2 69 -15 83 -56 59 -23 -13 -34 -15 -42
-7 -12 12 -15 145 -3 156 4 4 23 -1 42 -12 43 -23 58 -12 59 43 1 21 4 43 8
48 10 16 712 13 718 -2z"/>
<path d="M3372 6498 c-17 -17 -15 -33 3 -18 13 11 15 6 15 -35 0 -34 -5 -52
-17 -61 -16 -12 -12 -13 30 -14 30 0 46 4 42 10 -3 6 -13 10 -21 10 -11 0 -14
14 -14 60 0 61 -11 75 -38 48z"/>
<path d="M3482 6498 c-7 -7 -12 -16 -12 -22 0 -6 5 -5 12 2 15 15 45 16 54 1
3 -6 -12 -30 -35 -53 -23 -23 -38 -45 -35 -49 11 -10 94 -8 94 2 0 5 -6 9 -12
8 -7 0 -24 1 -37 1 -24 2 -24 3 12 36 20 18 37 40 37 48 0 20 -21 38 -45 38
-12 0 -26 -5 -33 -12z"/>
<path d="M3590 6491 c-15 -29 -12 -87 6 -105 34 -35 84 -2 84 54 0 58 -66 95
-90 51z m68 -33 c4 -45 -7 -70 -31 -66 -18 2 -23 11 -25 41 -4 46 12 71 37 58
9 -5 18 -20 19 -33z"/>
<path d="M3711 6497 c-37 -45 -15 -127 34 -127 28 0 45 26 45 70 0 17 -5 40
-10 51 -12 22 -52 25 -69 6z m59 -58 c0 -28 -5 -41 -20 -49 -26 -14 -44 19
-36 65 12 62 56 49 56 -16z"/>
<path d="M4380 6585 c0 -30 -2 -55 -5 -55 -2 0 -20 8 -40 17 -51 24 -60 11
-60 -93 0 -96 10 -112 56 -88 16 8 33 14 38 14 6 0 11 -28 13 -62 l3 -63 380
0 380 0 1 193 0 192 -383 0 -383 0 0 -55z m738 36 c10 -1 12 -39 10 -173 l-3
-173 -360 0 -360 0 -3 40 c-6 89 -18 101 -68 69 -19 -13 -28 -14 -36 -6 -14
14 -14 140 -1 153 7 7 23 4 47 -8 45 -21 56 -11 56 57 l0 45 352 -2 c194 0
359 -2 366 -2z"/>
<path d="M4563 6503 c-7 -2 -13 -12 -13 -21 0 -12 3 -13 12 -4 14 14 45 16 53
2 3 -5 -12 -29 -35 -53 -22 -24 -40 -47 -40 -51 0 -3 23 -6 51 -6 27 0 48 4
45 9 -3 5 -19 8 -36 7 -37 -3 -38 5 -2 35 37 31 45 55 26 74 -15 15 -38 18
-61 8z"/>
<path d="M4682 6458 c-36 -54 -33 -68 14 -62 15 1 24 -3 24 -12 0 -8 5 -14 10
-14 6 0 10 6 10 14 0 8 6 17 13 19 10 4 10 6 0 6 -9 1 -13 18 -13 51 0 65 -15
64 -58 -2z m38 -18 c0 -26 -4 -30 -26 -30 l-25 0 21 30 c12 17 23 30 26 30 2
0 4 -13 4 -30z"/>
<path d="M4787 6492 c-21 -23 -22 -86 -1 -106 24 -25 59 -20 72 9 35 77 -21
152 -71 97z m61 -31 c7 -43 -7 -73 -31 -69 -24 3 -33 33 -22 75 8 33 48 29 53
-6z"/>
<path d="M4900 6495 c-7 -9 -13 -33 -13 -55 0 -22 6 -46 13 -55 16 -19 54 -19
70 0 16 20 17 89 1 109 -17 20 -55 21 -71 1z m61 -21 c1 -8 1 -23 1 -34 0 -45
-2 -50 -27 -50 -17 0 -25 6 -26 18 -4 45 1 76 12 83 16 10 39 0 40 -17z"/>
<path d="M5619 6638 c-1 -2 -2 -24 -3 -50 -1 -26 -4 -50 -8 -53 -3 -4 -21 1
-38 10 -50 26 -65 5 -65 -89 0 -94 12 -112 63 -91 19 9 37 13 40 10 3 -3 6
-31 7 -63 l1 -57 194 -1 c107 0 201 2 208 4 9 3 12 51 12 193 l0 189 -205 0
c-113 0 -206 -1 -206 -2z m381 -17 c13 -1 15 -26 15 -173 l0 -173 -190 0 -190
0 -3 58 c-3 67 -16 78 -61 51 -17 -10 -34 -15 -38 -10 -12 11 -15 139 -4 156
9 13 14 13 41 -3 45 -27 60 -17 60 42 0 27 4 51 10 53 8 2 306 2 360 -1z"/>
<path d="M5795 6493 c-20 -15 -20 -15 1 -10 20 4 22 1 21 -44 0 -41 -3 -49
-19 -49 -10 0 -18 -4 -18 -10 0 -5 20 -10 45 -10 45 0 61 13 27 22 -14 4 -17
15 -16 61 2 61 -6 68 -41 40z"/>
<path d="M6500 6585 c0 -30 -2 -55 -5 -55 -4 0 -19 7 -35 15 -52 27 -70 4 -70
-90 0 -93 16 -115 65 -89 15 8 31 14 36 14 4 0 9 -28 11 -62 l3 -63 208 0 207
0 0 192 0 193 -210 0 -210 0 0 -55z m400 30 c1 -18 1 -299 1 -320 -1 -20 -7
-21 -191 -21 l-190 -1 0 48 c0 26 -3 54 -6 63 -8 20 -38 21 -54 1 -18 -21 -38
-19 -45 6 -10 30 -7 131 3 141 5 5 24 2 46 -9 45 -21 56 -11 56 57 l0 45 190
0 c120 0 190 -4 190 -10z"/>
<path d="M6676 6494 c-9 -9 -16 -32 -16 -54 0 -42 20 -70 50 -70 43 0 66 71
40 121 -13 23 -53 25 -74 3z m62 -57 c-3 -37 -6 -42 -28 -42 -22 0 -25 5 -28
38 -4 48 12 71 40 56 15 -8 18 -19 16 -52z"/>
<path d="M2910 6436 c0 -89 1 -95 20 -93 20 1 29 17 10 17 -6 0 -10 35 -10 85
0 50 -4 85 -10 85 -6 0 -10 -38 -10 -94z"/>
<path d="M4111 6513 c10 -13 14 -40 13 -91 -2 -68 8 -104 18 -64 3 14 3 137
-1 165 -1 4 -11 7 -23 7 -19 0 -20 -2 -7 -17z"/>
<path d="M2580 6445 l0 -76 77 3 77 3 1 73 1 72 -78 0 -78 0 0 -75z m138 0 l0
-55 -59 0 -59 0 0 55 0 55 59 0 59 0 0 -55z"/>
<path d="M2677 6484 c-8 -8 1 -24 14 -24 5 0 9 7 9 15 0 15 -12 20 -23 9z"/>
<path d="M2615 6419 c-4 -6 -5 -13 -2 -16 7 -7 27 6 27 18 0 12 -17 12 -25 -2z"/>
<path d="M6217 6470 c-3 -13 -14 -20 -28 -20 -25 0 -20 -10 7 -14 10 -2 22
-14 25 -27 4 -13 7 -18 8 -11 1 6 0 15 -1 19 -2 3 11 12 27 19 l30 13 -29 1
c-20 0 -27 4 -23 15 4 8 2 17 -2 20 -5 2 -11 -4 -14 -15z"/>
<path d="M5308 6457 l21 -23 -20 -12 c-27 -17 -17 -27 11 -12 18 9 25 8 41 -6
10 -9 19 -12 19 -6 0 6 -6 17 -14 24 -12 11 -12 16 2 31 20 22 9 33 -12 11
-16 -15 -18 -15 -35 0 -27 24 -37 19 -13 -7z"/>
<path d="M3190 6081 c0 -28 -4 -52 -9 -55 -5 -4 -23 2 -40 11 -27 16 -32 16
-45 3 -23 -24 -25 -154 -3 -184 13 -17 15 -17 45 -2 48 25 52 21 52 -47 l0
-62 203 1 c111 1 205 2 208 3 3 0 5 87 5 191 l0 190 -208 0 -208 0 0 -49z
m395 -141 l0 -175 -190 0 -190 0 -1 45 c-2 75 -3 80 -19 80 -9 0 -27 -8 -42
-17 -24 -16 -26 -16 -39 1 -14 19 -14 139 0 153 4 4 22 -1 42 -12 43 -23 54
-14 57 46 1 24 7 46 14 49 7 3 92 5 190 5 l178 0 0 -175z"/>
<path d="M3378 5989 c-10 -5 -18 -15 -18 -21 0 -7 5 -6 15 2 13 11 15 6 15
-39 0 -39 -4 -51 -15 -51 -8 0 -15 -4 -15 -10 0 -5 21 -10 48 -9 41 0 44 2 25
11 -20 10 -23 19 -23 70 0 60 -3 64 -32 47z"/>
<path d="M4039 6123 c0 -5 -2 -27 -4 -51 -1 -24 -5 -45 -7 -48 -3 -2 -19 3
-36 13 -30 17 -32 17 -49 0 -25 -25 -26 -158 -2 -183 15 -15 19 -15 49 1 17 9
35 14 38 10 4 -3 7 -30 8 -58 1 -29 2 -54 3 -57 0 -3 93 -5 206 -5 l205 0 0
192 0 193 -205 0 c-113 0 -205 -3 -206 -7z m396 -183 l0 -175 -170 -2 c-226
-2 -215 -5 -215 63 0 64 -13 75 -59 48 -17 -10 -34 -15 -38 -10 -12 11 -15
139 -4 156 9 12 15 12 46 -3 20 -10 41 -15 46 -12 5 4 9 28 9 54 0 26 2 50 4
52 2 2 89 4 193 4 l188 -1 0 -174z"/>
<path d="M4210 5985 c-18 -21 -5 -31 15 -12 18 18 45 12 45 -10 0 -8 -9 -17
-20 -20 -11 -3 -20 -9 -20 -14 0 -5 9 -9 20 -9 13 0 20 -7 20 -19 0 -25 -26
-34 -44 -16 -19 19 -26 19 -26 0 0 -17 40 -29 68 -21 25 8 34 42 16 56 -10 9
-11 16 -2 30 24 38 -43 70 -72 35z"/>
<path d="M4920 6075 c0 -30 -2 -55 -5 -55 -2 0 -20 8 -40 17 -50 24 -60 10
-60 -86 0 -96 13 -118 56 -96 45 24 49 20 49 -45 0 -50 3 -60 18 -61 9 -1 104
-2 209 -3 l193 -1 0 193 0 192 -210 0 -210 0 0 -55z m396 33 c5 -5 9 -256 5
-329 -1 -14 -24 -16 -188 -15 l-188 1 -3 40 c-6 89 -18 101 -68 68 -22 -14
-27 -14 -35 -2 -12 19 -12 146 0 154 5 3 26 -2 46 -12 44 -21 55 -11 55 57 l0
45 185 0 c101 -1 187 -4 191 -7z"/>
<path d="M5104 5985 c-19 -14 -19 -14 1 -15 18 0 21 -7 21 -45 0 -41 -6 -50
-28 -46 -5 0 -8 -3 -8 -9 0 -5 21 -10 46 -10 27 0 43 4 39 10 -3 6 -12 10 -19
10 -10 0 -12 16 -10 60 3 64 -5 73 -42 45z"/>
<path d="M5810 6075 c0 -30 -2 -55 -5 -55 -2 0 -21 8 -41 17 -35 17 -36 17
-51 -2 -11 -15 -14 -41 -11 -98 4 -89 15 -104 59 -81 44 22 49 18 49 -45 0
-38 4 -60 13 -63 10 -4 378 -3 400 1 4 0 7 87 7 191 l0 190 -210 0 -210 0 0
-55z m393 36 c4 -1 7 -79 7 -174 l0 -174 -190 0 -190 0 0 48 c0 81 -15 96 -66
63 -38 -25 -49 -7 -47 77 0 39 4 73 7 76 3 3 24 -2 46 -12 22 -10 43 -16 46
-12 3 3 8 25 11 49 2 24 6 48 8 53 2 8 318 13 368 6z"/>
<path d="M5986 5984 c-19 -19 -20 -82 -2 -106 32 -43 86 -9 86 52 0 42 -20 70
-50 70 -10 0 -26 -7 -34 -16z m64 -47 c0 -41 -13 -60 -36 -55 -23 4 -32 71
-14 93 20 24 50 0 50 -38z"/>
<path d="M2910 5925 c0 -76 3 -95 14 -95 8 0 18 5 21 10 3 6 1 10 -4 10 -7 0
-11 32 -11 85 0 50 -4 85 -10 85 -6 0 -10 -38 -10 -95z"/>
<path d="M3763 6006 c14 -11 17 -29 17 -95 0 -52 4 -80 10 -76 6 3 10 46 10
96 l0 89 -27 0 c-25 -1 -26 -2 -10 -14z"/>
<path d="M2580 5935 l0 -76 78 3 77 3 0 70 0 70 -77 3 -78 3 0 -76z m138 -1
l-2 -54 -58 0 -58 0 0 54 c0 61 6 65 82 57 l37 -3 -1 -54z"/>
<path d="M2675 5971 c-7 -12 12 -24 25 -16 11 7 4 25 -10 25 -5 0 -11 -4 -15
-9z"/>
<path d="M2616 5913 c-11 -11 -6 -23 9 -23 8 0 15 4 15 9 0 13 -16 22 -24 14z"/>
<path d="M5530 5978 c-1 -5 -3 -14 -4 -20 0 -7 -11 -14 -24 -16 -12 -2 -20 -7
-17 -12 3 -5 12 -7 20 -3 14 5 19 -6 16 -34 -3 -23 17 -14 21 9 2 11 11 22 21
24 30 4 33 14 4 14 -19 0 -27 6 -30 23 -2 12 -5 19 -7 15z"/>
<path d="M4615 5950 c17 -19 17 -21 0 -40 -16 -17 -16 -20 -2 -20 8 0 17 6 20
13 3 10 9 10 26 0 30 -18 37 -16 17 6 -16 17 -16 20 0 35 22 23 9 34 -15 12
-16 -15 -19 -15 -31 -1 -7 8 -17 15 -23 15 -5 0 -2 -9 8 -20z"/>
<path d="M3190 5571 c0 -57 -11 -69 -42 -47 -30 21 -45 20 -59 -5 -12 -23 -15
-124 -4 -158 8 -25 41 -28 73 -5 27 19 30 12 34 -66 l3 -55 203 0 c111 0 203
2 203 5 1 3 2 89 3 193 l2 187 -208 0 -208 0 0 -49z m398 -138 c1 -95 -1 -174
-5 -175 -5 0 -90 -2 -190 -3 -124 -1 -183 2 -184 9 -2 12 -6 58 -8 94 -1 27
-26 29 -60 5 -22 -15 -25 -15 -37 2 -14 18 -14 138 0 152 4 4 22 -1 42 -12 42
-23 56 -13 58 42 1 21 5 43 9 49 5 8 63 11 189 10 l183 -1 3 -172z"/>
<path d="M3362 5478 c-18 -18 -15 -94 4 -112 34 -35 84 -2 84 54 0 54 -55 91
-88 58z m64 -33 c11 -46 -17 -95 -43 -73 -16 13 -17 80 -2 95 16 16 38 5 45
-22z"/>
<path d="M4035 5576 c3 -63 -6 -73 -44 -50 -29 17 -32 17 -47 2 -19 -19 -28
-107 -16 -153 10 -36 40 -44 76 -19 29 18 27 23 30 -63 0 -23 5 -45 9 -50 5
-4 164 -8 353 -8 l344 0 0 192 0 193 -353 0 -354 0 2 -44z m686 20 c0 -6 1
-84 2 -174 2 -156 1 -163 -18 -167 -11 -2 -162 -3 -335 -2 l-315 2 -3 58 c-3
67 -15 76 -62 52 -18 -9 -35 -14 -38 -10 -11 11 -13 139 -3 155 9 13 14 13 41
-3 45 -27 60 -17 60 41 0 27 2 51 5 54 3 2 153 5 335 5 231 0 330 -4 331 -11z"/>
<path d="M4210 5475 c-16 -20 -17 -89 -1 -109 17 -20 55 -21 71 -1 7 9 13 33
13 55 0 22 -6 46 -13 55 -16 19 -54 19 -70 0z m61 -20 c6 -67 0 -85 -26 -85
-24 0 -27 6 -27 45 0 49 2 55 27 55 15 0 26 -6 26 -15z"/>
<path d="M4380 5471 c-5 -11 -10 -34 -10 -51 0 -44 17 -70 45 -70 28 0 55 34
55 70 0 58 -66 95 -90 51z m64 -17 c18 -47 -11 -107 -40 -83 -14 12 -20 80 -7
92 12 13 41 7 47 -9z"/>
<path d="M4490 5450 c0 -37 2 -39 23 -31 31 12 47 3 47 -25 0 -18 -5 -24 -23
-24 -13 0 -28 5 -35 12 -9 9 -12 8 -12 -5 0 -20 47 -34 69 -20 20 13 26 50 11
69 -7 7 -23 14 -37 14 -18 0 -24 5 -21 18 2 12 12 16 31 15 15 -1 27 2 27 7 0
6 -18 10 -40 10 -40 0 -40 0 -40 -40z"/>
<path d="M4320 5360 c0 -5 5 -10 10 -10 6 0 10 5 10 10 0 6 -4 10 -10 10 -5 0
-10 -4 -10 -10z"/>
<path d="M5210 5565 c0 -30 -2 -55 -5 -55 -2 0 -21 8 -41 17 -35 17 -36 17
-50 -2 -20 -27 -19 -144 2 -173 l15 -22 39 20 39 20 3 -67 3 -68 195 -1 c107
0 201 2 208 4 9 3 12 51 12 193 l0 189 -210 0 -210 0 0 -55z m400 -135 l0
-177 -190 1 -190 0 0 47 c0 81 -11 92 -64 64 -40 -21 -48 -10 -49 69 -1 82 8
93 57 69 46 -21 56 -11 56 58 l0 46 190 0 190 0 0 -177z"/>
<path d="M5395 5474 c-20 -15 -20 -15 0 -11 21 4 20 6 16 -79 0 -14 -5 -23
-10 -19 -5 3 -12 1 -16 -5 -4 -6 11 -10 40 -10 28 0 44 4 40 10 -3 6 -12 10
-19 10 -9 0 -12 17 -12 57 1 61 -9 72 -39 47z"/>
<path d="M6100 5565 c0 -59 -9 -67 -44 -40 -27 20 -43 19 -56 -5 -12 -23 -15
-127 -5 -160 8 -24 41 -27 71 -5 12 8 24 11 28 8 3 -3 6 -34 6 -67 l0 -61 208
0 207 0 2 193 2 192 -209 0 -210 0 0 -55z m398 -134 l-3 -176 -187 -1 c-185
-1 -188 -1 -189 20 -1 20 -5 66 -8 94 -1 16 -26 15 -62 -3 -28 -15 -30 -15
-38 7 -10 25 -7 135 3 145 3 4 23 -1 43 -11 45 -22 56 -12 57 52 l1 49 193 0
192 0 -2 -176z"/>
<path d="M6270 5471 c-5 -11 -10 -34 -10 -51 0 -44 17 -70 45 -70 28 0 55 34
55 70 0 58 -66 95 -90 51z m70 -52 c0 -36 -27 -64 -46 -48 -21 17 -18 86 4 98
22 13 42 -11 42 -50z"/>
<path d="M2910 5416 c0 -89 1 -95 20 -93 20 1 29 17 10 17 -6 0 -10 35 -10 85
0 50 -4 85 -10 85 -6 0 -10 -38 -10 -94z"/>
<path d="M3763 5499 c14 -8 17 -25 17 -95 0 -54 4 -83 10 -79 6 3 10 46 10 96
l0 89 -27 0 c-24 -1 -25 -2 -10 -11z"/>
<path d="M2580 5425 l0 -75 75 0 c41 0 76 3 76 8 1 4 2 37 3 75 l1 67 -77 0
-78 0 0 -75z m137 -1 l-1 -54 -58 0 -58 0 0 54 c0 61 3 63 75 58 l42 -4 0 -54z"/>
<path d="M2680 5455 c0 -8 5 -15 10 -15 6 0 10 7 10 15 0 8 -4 15 -10 15 -5 0
-10 -7 -10 -15z"/>
<path d="M2616 5402 c-3 -6 -1 -14 5 -17 15 -10 25 3 12 16 -7 7 -13 7 -17 1z"/>
<path d="M5810 5450 c0 -14 -7 -20 -21 -20 -11 0 -18 -4 -14 -10 3 -5 12 -7
20 -3 11 4 15 -2 15 -21 0 -14 5 -26 10 -26 6 0 10 12 10 26 0 14 4 23 8 20 4
-2 14 -1 22 5 12 7 10 9 -7 9 -16 0 -23 6 -23 20 0 11 -4 20 -10 20 -5 0 -10
-9 -10 -20z"/>
<path d="M4905 5436 c14 -21 14 -25 0 -36 -8 -7 -15 -17 -15 -23 0 -5 9 -2 19
7 15 14 24 15 40 7 30 -17 36 -13 16 9 -17 19 -17 21 0 40 10 11 13 20 8 20
-6 0 -16 -7 -23 -15 -12 -14 -15 -14 -30 0 -25 22 -33 18 -15 -9z"/>
<path d="M2589 5044 c-19 -23 -15 -95 7 -111 24 -18 49 -16 65 3 17 20 17 88
0 108 -17 21 -55 20 -72 0z m62 -15 c1 -5 2 -20 2 -34 0 -50 -3 -55 -28 -55
-19 0 -25 6 -26 23 -3 46 1 71 12 78 14 8 38 1 40 -12z"/>
<path d="M367 2498 c0 -24 2 -51 2 -60 1 -15 7 -14 59 8 31 14 61 30 66 35 9
8 -91 59 -117 59 -8 0 -11 -15 -10 -42z m58 6 c21 -8 34 -19 29 -23 -16 -13
-64 -31 -65 -23 -3 13 -5 62 -3 62 1 0 18 -7 39 -16z"/>
<path d="M950 4660 c-11 -11 -20 -30 -19 -42 1 -22 1 -21 10 3 22 59 99 63
124 6 12 -27 14 -28 15 -9 0 33 -34 62 -75 62 -22 0 -43 -8 -55 -20z"/>
<path d="M937 2903 c-3 -5 -5 -21 -5 -37 0 -17 3 -23 8 -15 5 6 6 18 3 25 -2
6 0 15 6 19 6 3 11 -1 11 -9 0 -9 5 -16 11 -16 5 0 8 4 4 9 -3 6 3 14 12 20
15 9 13 10 -14 11 -17 0 -34 -3 -36 -7z"/>
<path d="M1102 2899 c12 -7 16 -20 14 -44 -1 -19 1 -35 6 -35 4 0 8 18 8 39 0
29 5 41 18 44 9 3 -1 5 -23 6 -31 0 -36 -2 -23 -10z"/>
<path d="M1145 2814 c0 -41 -3 -78 -7 -80 -4 -3 -8 0 -8 5 0 6 -5 11 -11 11
-5 0 -8 -4 -4 -9 3 -5 -3 -12 -12 -14 -10 -3 -2 -5 17 -6 l36 -1 0 85 c1 47
-2 85 -5 85 -3 0 -6 -34 -6 -76z"/>
<path d="M963 2835 c0 -14 2 -25 6 -25 10 0 11 39 2 45 -5 2 -8 -7 -8 -20z"/>
<path d="M932 2775 l1 -55 34 0 c32 0 33 1 18 16 -9 9 -13 24 -10 34 3 10 1
21 -4 24 -6 4 -9 -7 -8 -25 1 -18 -3 -34 -9 -36 -8 -3 -11 13 -9 47 1 27 -1
50 -5 50 -5 0 -8 -25 -8 -55z"/>
<path d="M1035 2810 c3 -5 10 -10 16 -10 5 0 9 5 9 10 0 6 -7 10 -16 10 -8 0
-12 -4 -9 -10z"/>
<path d="M1113 2775 c0 -8 4 -15 9 -15 4 0 8 7 8 15 0 8 -4 15 -8 15 -5 0 -9
-7 -9 -15z"/>
<path d="M945 1040 c17 -19 17 -21 0 -40 -20 -23 -14 -26 15 -8 15 10 22 10
32 0 20 -20 32 -13 13 8 -17 19 -17 21 0 40 10 11 13 20 8 20 -6 0 -16 -7 -23
-15 -12 -14 -15 -14 -30 0 -24 22 -36 18 -15 -5z"/>
<path d="M970 542 c0 -17 -6 -22 -27 -23 l-28 -1 28 -10 c17 -6 27 -17 27 -31
0 -24 10 -17 14 10 2 10 9 19 17 19 31 3 33 6 9 13 -14 4 -25 12 -25 18 0 6
-3 15 -7 19 -5 4 -8 -2 -8 -14z"/>
<path d="M1594 4276 c1 -24 5 -48 9 -52 8 -8 8 -7 10 50 1 22 -3 41 -9 43 -7
2 -11 -12 -10 -41z"/>
<path d="M1590 4190 c0 -5 4 -10 9 -10 6 0 13 5 16 10 3 6 -1 10 -9 10 -9 0
-16 -4 -16 -10z"/>
<path d="M1605 2880 c18 -20 15 -35 -23 -122 -2 -5 1 -8 6 -8 5 0 15 14 22 30
7 17 15 30 19 30 4 0 12 -13 18 -30 6 -16 16 -30 21 -30 6 0 1 24 -9 53 -29
76 -41 97 -57 97 -12 0 -12 -4 3 -20z"/>
<path d="M1615 1440 c-3 -11 -14 -20 -23 -21 -11 0 -12 -3 -4 -6 13 -5 17 -43
3 -43 -4 0 -6 -12 -3 -27 5 -27 5 -27 15 -5 13 29 37 28 38 0 0 -15 2 -18 6
-8 3 8 12 21 21 28 10 7 11 12 4 12 -18 0 -14 28 6 39 10 7 12 11 4 11 -9 0
-11 7 -7 21 5 15 4 19 -4 15 -6 -4 -11 -14 -11 -22 0 -8 -9 -14 -19 -14 -14 0
-18 5 -14 20 3 11 3 20 0 20 -3 0 -9 -9 -12 -20z m35 -50 c0 -13 -7 -20 -20
-20 -22 0 -23 1 -14 24 9 23 34 20 34 -4z"/>
<path d="M2116 3934 c16 -24 16 -28 -4 -70 -25 -50 -26 -54 -13 -54 5 0 14 14
21 30 7 17 15 30 19 30 4 0 12 -13 18 -30 6 -16 16 -30 21 -30 6 0 1 24 -9 53
-28 75 -41 97 -56 97 -10 0 -10 -6 3 -26z"/>
<path d="M2138 2617 c-15 -12 -15 -14 4 -26 11 -7 17 -8 14 -2 -4 6 14 11 46
14 l53 3 -53 2 c-33 1 -51 6 -47 12 8 13 4 12 -17 -3z"/>
<path d="M2733 3548 c-16 -21 -23 -47 -14 -53 5 -2 12 6 15 20 9 37 22 31 38
-17 16 -52 43 -62 58 -22 6 15 9 32 7 38 -3 6 -10 -2 -16 -17 -11 -28 -31 -29
-31 -2 0 24 -23 65 -35 65 -7 0 -17 -6 -22 -12z"/>
<path d="M2700 3093 c15 -53 30 -83 39 -83 27 0 58 99 34 107 -7 3 -11 -3 -9
-14 2 -10 -1 -31 -8 -48 l-12 -29 -11 30 c-6 16 -14 37 -17 47 -9 29 -25 20
-16 -10z"/>
<path d="M2740 2702 c0 -9 -9 -23 -20 -30 -14 -8 -20 -23 -20 -47 0 -24 6 -37
20 -45 11 -6 20 -20 20 -30 0 -11 5 -20 10 -20 6 0 10 8 10 18 0 10 9 25 20
35 27 23 25 60 -5 93 -13 14 -22 30 -19 35 3 5 0 9 -5 9 -6 0 -11 -8 -11 -18z
m0 -78 c0 -21 -4 -33 -10 -29 -5 3 -10 19 -10 36 0 16 5 29 10 29 6 0 10 -16
10 -36z m40 1 c0 -13 -4 -26 -9 -29 -10 -6 -20 33 -13 52 6 19 22 3 22 -23z"/>
<path d="M2710 2231 c0 -5 7 -14 15 -21 13 -11 13 -14 0 -27 -23 -22 -18 -39
5 -18 16 14 23 16 32 7 7 -7 19 -12 28 -12 12 1 11 4 -5 16 -17 12 -18 17 -7
35 17 27 6 39 -12 14 -13 -18 -15 -18 -30 -2 -19 19 -26 21 -26 8z"/>
<path d="M2740 1790 c0 -14 -7 -20 -22 -20 -25 0 -19 -10 9 -14 12 -2 17 -10
15 -25 -2 -11 1 -21 7 -21 5 0 11 10 13 23 2 14 9 21 21 21 9 -1 17 2 17 7 0
5 -9 9 -20 9 -13 0 -20 7 -20 20 0 11 -4 20 -10 20 -5 0 -10 -9 -10 -20z"/>
<path d="M3884 3271 c-2 -2 -4 -28 -4 -58 0 -29 -2 -53 -5 -53 -2 0 -20 8 -40
17 -43 21 -56 11 -64 -49 -15 -105 14 -158 68 -126 16 9 32 14 35 10 3 -3 6
-32 6 -64 l0 -58 315 0 315 0 0 193 0 192 -311 0 c-171 0 -312 -2 -315 -4z
m607 -35 c3 -56 4 -303 1 -317 -3 -14 -36 -16 -298 -16 -290 1 -294 1 -295 21
-1 12 -2 30 -3 41 -1 11 -3 30 -4 43 -2 26 -27 29 -61 6 -17 -12 -26 -13 -34
-5 -12 12 -16 146 -4 157 4 4 24 0 44 -10 44 -21 56 -12 59 47 2 23 3 45 3 48
1 3 134 6 296 6 292 0 295 0 296 -21z"/>
<path d="M4068 3139 c-10 -5 -18 -15 -18 -21 0 -7 5 -6 15 2 13 11 15 6 15
-39 0 -39 -4 -51 -15 -51 -8 0 -15 -4 -15 -10 0 -5 21 -10 46 -10 27 0 43 4
39 10 -3 6 -13 10 -21 10 -11 0 -14 14 -14 60 0 62 -3 66 -32 49z"/>
<path d="M4162 3138 c-17 -17 -15 -33 3 -18 13 11 15 6 15 -39 0 -39 -4 -51
-15 -51 -8 0 -15 -4 -15 -10 0 -5 21 -10 47 -10 25 0 43 3 39 8 -4 4 -13 7
-19 7 -8 0 -13 23 -15 63 -3 63 -14 76 -40 50z"/>
<path d="M4266 3128 c-32 -46 -8 -118 39 -118 28 0 45 26 45 70 0 17 -5 40
-10 51 -14 26 -55 24 -74 -3z m64 -49 c0 -28 -5 -41 -20 -49 -15 -8 -21 -6
-30 9 -15 29 -12 67 6 86 23 23 44 2 44 -46z"/>
<path d="M4944 3271 c-2 -2 -4 -28 -4 -58 0 -57 -4 -61 -38 -37 -28 19 -58 11
-66 -19 -12 -44 -6 -132 10 -155 l15 -22 40 20 39 20 0 -65 0 -65 325 0 325 0
-2 193 -3 192 -318 0 c-175 0 -320 -1 -323 -4z m626 -191 l0 -177 -305 1 -305
0 0 47 c0 80 -19 98 -69 63 -19 -14 -25 -14 -32 -3 -15 24 -15 137 0 152 4 4
24 0 44 -9 20 -10 40 -15 44 -11 3 4 8 31 11 60 l4 54 304 0 304 0 0 -177z"/>
<path d="M5123 3143 c-7 -2 -13 -12 -13 -21 0 -12 3 -13 12 -4 14 14 45 16 53
2 3 -5 -12 -29 -35 -53 -22 -24 -40 -47 -40 -51 0 -3 23 -6 51 -6 32 0 48 4
44 10 -4 6 -12 10 -18 9 -7 -1 -21 -1 -32 0 -18 2 -17 5 11 29 39 34 47 57 28
77 -15 15 -38 18 -61 8z"/>
<path d="M5230 3135 c-7 -9 -9 -19 -5 -23 4 -4 10 -1 12 6 3 6 16 12 29 12 35
0 30 -26 -11 -63 -48 -42 -46 -57 10 -57 25 0 45 4 45 10 0 5 -13 8 -30 6 -16
-2 -30 1 -30 6 0 5 14 21 30 35 33 27 40 67 14 77 -27 10 -51 7 -64 -9z"/>
<path d="M5346 3134 c-9 -9 -16 -32 -16 -54 0 -66 64 -98 88 -45 26 56 6 115
-38 115 -10 0 -26 -7 -34 -16z m62 -33 c7 -43 -7 -73 -31 -69 -17 2 -23 11
-25 36 -5 47 4 64 30 60 15 -2 24 -11 26 -27z"/>
<path d="M6078 3272 c-15 -3 -18 -14 -18 -58 0 -30 -2 -54 -5 -54 -2 0 -21 8
-41 17 -35 17 -36 17 -50 -2 -20 -28 -19 -153 2 -176 16 -17 18 -17 55 2 l39
19 0 -65 0 -65 210 0 210 0 0 190 c0 105 -3 191 -7 191 -20 3 -380 4 -395 1z
m382 -192 l0 -177 -190 1 c-165 0 -190 2 -191 15 -2 38 -6 97 -8 104 -2 12
-36 8 -60 -9 -17 -12 -26 -13 -34 -5 -12 12 -15 146 -4 157 4 4 25 -1 47 -11
22 -10 43 -16 46 -12 8 7 12 35 13 78 l1 36 190 0 190 0 0 -177z"/>
<path d="M6248 3139 c-10 -5 -18 -15 -18 -21 0 -6 6 -6 16 2 13 12 15 7 12
-41 -2 -37 -7 -53 -15 -51 -7 1 -13 -2 -13 -8 0 -5 21 -10 46 -10 27 0 43 4
39 10 -3 6 -13 10 -21 10 -11 0 -14 14 -14 60 0 62 -3 66 -32 49z"/>
<path d="M6954 3271 c-2 -2 -4 -28 -4 -58 0 -29 -2 -53 -5 -53 -2 0 -20 8 -40
17 -32 15 -37 15 -51 1 -17 -17 -23 -112 -10 -162 7 -29 19 -31 84 -11 21 7
22 5 22 -54 l0 -61 208 2 207 3 0 187 c0 118 -4 189 -10 189 -27 4 -397 3
-401 0z m394 -190 l-3 -176 -190 0 -189 0 -2 53 c-1 69 -13 81 -59 59 -32 -15
-35 -15 -44 1 -11 22 -12 125 0 143 7 12 14 11 44 -5 43 -23 56 -14 60 41 1
21 3 43 4 49 1 8 58 11 191 11 l190 -1 -2 -175z"/>
<path d="M7119 3134 c-17 -20 -17 -88 0 -108 17 -20 55 -21 71 -1 16 20 17 89
1 109 -17 21 -55 21 -72 0z m62 -20 c6 -65 0 -84 -26 -84 -26 0 -29 8 -26 65
1 16 7 32 13 36 15 10 38 0 39 -17z"/>
<path d="M3602 3078 c3 -78 6 -92 21 -94 9 -1 17 2 17 7 0 5 -4 9 -10 9 -6 0
-10 35 -10 85 0 52 -4 85 -10 85 -7 0 -10 -33 -8 -92z"/>
<path d="M4671 3157 c12 -9 16 -30 17 -82 0 -93 1 -97 11 -91 5 3 8 46 8 96
l0 90 -26 0 c-23 -1 -24 -2 -10 -13z"/>
<path d="M3273 3085 l0 -75 78 0 77 0 0 75 0 75 -77 0 -77 0 -1 -75z m137 0
l0 -55 -60 0 -60 0 0 55 0 55 60 0 60 0 0 -55z"/>
<path d="M3370 3115 c0 -9 5 -15 11 -13 6 2 11 8 11 13 0 5 -5 11 -11 13 -6 2
-11 -4 -11 -13z"/>
<path d="M3307 3064 c-8 -8 1 -24 14 -24 5 0 9 7 9 15 0 15 -12 20 -23 9z"/>
<path d="M6660 3110 c0 -14 -7 -20 -22 -21 -21 -1 -21 -1 3 -10 20 -7 26 -15
22 -29 -3 -11 0 -20 6 -20 6 0 11 12 11 26 0 14 4 23 8 20 4 -2 14 -1 22 5 12
7 10 9 -7 9 -16 0 -23 6 -23 20 0 11 -4 20 -10 20 -5 0 -10 -9 -10 -20z"/>
<path d="M5753 3096 c14 -21 14 -26 2 -36 -8 -7 -15 -17 -15 -23 0 -5 9 -2 21
9 16 15 24 16 39 6 29 -18 35 -15 15 8 -17 19 -17 21 0 40 10 11 13 20 8 20
-6 0 -16 -7 -23 -15 -12 -14 -15 -14 -30 0 -25 23 -34 18 -17 -9z"/>
<path d="M3280 2691 c-15 -29 -12 -87 6 -105 47 -48 103 24 73 96 -14 34 -62
40 -79 9z m66 -26 c11 -46 -17 -95 -43 -73 -16 13 -17 80 -2 95 16 16 38 5 45
-22z"/>
<path d="M3880 2347 c0 -30 -3 -57 -6 -60 -4 -4 -20 1 -36 11 -53 31 -80 -18
-68 -127 6 -57 28 -72 69 -48 16 9 32 17 35 17 3 0 6 -29 6 -65 l0 -65 210 0
210 0 -2 193 -3 192 -207 3 -208 2 0 -53z m398 -144 l-3 -176 -188 -1 c-160
-1 -187 1 -188 14 -2 64 -8 103 -16 111 -5 5 -23 1 -45 -11 -21 -11 -40 -15
-43 -10 -9 15 -16 103 -9 133 7 31 28 35 63 10 22 -15 25 -15 36 1 7 9 12 37
11 61 l-2 45 193 0 193 0 -2 -177z"/>
<path d="M4056 2254 c-18 -18 -21 -76 -6 -105 14 -26 55 -24 74 3 44 63 -17
154 -68 102z m58 -20 c18 -47 -11 -107 -40 -83 -14 12 -20 80 -7 92 12 13 41
7 47 -9z"/>
<path d="M4729 2363 c-1 -21 -2 -42 -4 -48 -1 -5 -3 -16 -3 -22 -2 -9 -11 -8
-37 4 -33 16 -37 16 -52 1 -9 -10 -17 -37 -18 -67 -6 -100 21 -139 74 -108 28
16 30 16 35 0 2 -10 4 -39 3 -65 l-3 -48 353 0 353 0 0 195 0 195 -350 0 -350
0 -1 -37z m685 -155 c-1 -95 -2 -175 -3 -178 -1 -4 -578 -5 -652 -1 -12 1 -16
12 -16 50 -1 27 -5 56 -10 65 -8 14 -12 14 -46 -3 -36 -18 -38 -18 -47 -1 -13
23 -13 120 0 140 8 12 13 12 43 -2 46 -22 60 -11 60 51 l0 51 336 0 336 0 -1
-172z"/>
<path d="M4900 2255 c-16 -20 -17 -89 -1 -109 17 -20 55 -21 71 -1 7 9 13 33
13 55 0 22 -6 46 -13 55 -16 19 -54 19 -70 0z m62 -30 c9 -46 -2 -75 -28 -75
-23 0 -26 6 -26 45 0 49 3 55 26 55 17 0 25 -7 28 -25z"/>
<path d="M5070 2251 c-15 -29 -12 -87 6 -105 34 -35 84 -2 84 54 0 58 -66 95
-90 51z m67 -33 c7 -42 -6 -70 -30 -66 -18 2 -23 11 -25 43 -6 64 45 85 55 23z"/>
<path d="M5180 2234 c0 -31 3 -35 23 -34 39 4 47 0 47 -20 0 -26 -27 -37 -51
-22 -11 7 -20 8 -24 2 -3 -5 3 -14 14 -19 42 -23 81 -6 81 34 0 27 -18 45 -47
45 -14 0 -23 6 -23 15 0 15 10 19 43 16 9 -1 17 3 17 8 0 6 -18 11 -40 11 -39
0 -40 -1 -40 -36z"/>
<path d="M5010 2140 c0 -5 5 -10 10 -10 6 0 10 5 10 10 0 6 -4 10 -10 10 -5 0
-10 -4 -10 -10z"/>
<path d="M5907 2393 c-4 -3 -7 -30 -7 -60 0 -56 -4 -61 -34 -38 -48 36 -76 5
-76 -85 0 -90 28 -121 76 -85 31 23 34 19 34 -50 l0 -65 210 0 210 0 0 195 0
195 -203 0 c-112 0 -207 -3 -210 -7z m395 -55 c2 -24 1 -103 -2 -177 l-5 -135
-180 1 c-99 1 -183 2 -187 2 -5 1 -8 22 -8 47 0 25 -5 54 -10 65 -11 19 -11
19 -50 -1 -38 -20 -39 -20 -45 0 -8 26 -8 113 0 140 l7 21 35 -21 c47 -27 63
-14 63 51 l0 49 189 0 190 0 3 -42z"/>
<path d="M6088 2259 c-10 -5 -18 -15 -18 -21 0 -7 5 -7 14 1 12 10 15 4 18
-35 3 -39 0 -48 -14 -52 -34 -9 -18 -22 27 -22 25 0 45 4 45 10 0 5 -7 7 -15
4 -16 -7 -27 24 -24 71 4 58 0 63 -33 44z"/>
<path d="M6790 2340 c0 -64 -3 -68 -34 -45 -52 40 -78 5 -74 -97 4 -83 18
-101 65 -78 15 8 31 16 36 18 4 2 7 -26 7 -62 l0 -66 210 0 210 0 -2 193 -3
192 -207 3 -208 2 0 -60z m400 -135 c0 -160 -2 -175 -17 -176 -10 -1 -96 -2
-190 -3 -193 -1 -175 -8 -175 69 0 17 -4 38 -10 48 -8 16 -11 16 -48 -3 -45
-23 -50 -19 -55 48 -7 96 12 122 64 86 17 -12 25 -14 34 -5 12 12 13 19 16 81
l1 30 190 0 190 0 0 -175z"/>
<path d="M6960 2251 c-26 -50 -3 -121 39 -121 41 0 64 74 36 116 -19 29 -60
32 -75 5z m68 -33 c4 -45 -7 -70 -31 -66 -18 2 -23 11 -25 41 -4 46 12 71 37
58 9 -5 18 -20 19 -33z"/>
<path d="M3600 2196 c0 -89 1 -95 20 -93 20 1 29 17 10 17 -6 0 -10 35 -10 85
0 50 -4 85 -10 85 -6 0 -10 -38 -10 -94z"/>
<path d="M4450 2280 c0 -5 5 -10 10 -10 6 0 10 -35 10 -86 0 -54 4 -83 10 -79
6 3 10 46 10 96 0 82 -1 89 -20 89 -11 0 -20 -4 -20 -10z"/>
<path d="M3279 2278 c-1 -2 -3 -36 -4 -75 l-2 -73 77 0 77 0 0 75 0 75 -73 0
c-41 0 -75 -1 -75 -2z m131 -73 l0 -55 -60 0 -60 0 0 55 0 55 60 0 60 0 0 -55z"/>
<path d="M3370 2235 c0 -9 5 -15 11 -13 6 2 11 8 11 13 0 5 -5 11 -11 13 -6 2
-11 -4 -11 -13z"/>
<path d="M3306 2182 c-3 -6 -1 -14 5 -17 15 -10 25 3 12 16 -7 7 -13 7 -17 1z"/>
<path d="M6501 2243 c4 -22 -3 -32 -23 -36 l-23 -4 23 -2 c21 -1 26 -10 23
-38 -1 -7 3 -13 9 -13 5 0 10 12 10 26 0 14 4 23 8 20 4 -2 14 -1 22 5 12 7
10 9 -7 9 -16 0 -23 6 -23 20 0 11 -4 20 -10 20 -5 0 -9 -3 -9 -7z"/>
<path d="M5595 2220 c17 -19 17 -21 0 -40 -20 -23 -14 -26 15 -8 15 10 23 9
39 -6 12 -11 21 -14 21 -9 0 6 -7 16 -15 23 -14 11 -14 15 0 36 17 26 5 33
-15 9 -12 -14 -15 -14 -30 0 -24 22 -36 18 -15 -5z"/>
<path d="M3282 1818 c-18 -18 -15 -94 4 -112 33 -34 72 -13 80 44 10 58 -48
104 -84 68z m66 -40 c4 -45 -7 -70 -31 -66 -18 2 -23 11 -25 41 -4 46 12 71
37 58 9 -5 18 -20 19 -33z"/>
<path d="M2116 1444 c-21 -20 -20 -23 4 -17 18 5 20 1 19 -41 -2 -30 -7 -46
-15 -46 -7 0 -16 -4 -19 -10 -4 -6 12 -10 42 -10 44 1 46 2 29 15 -14 11 -18
27 -18 70 0 58 -12 69 -42 39z"/>
<path d="M2226 1438 c-32 -45 -12 -118 32 -118 23 0 52 25 52 44 0 27 -27 49
-53 44 -31 -6 -34 3 -11 27 13 12 19 13 30 4 8 -7 18 -9 21 -5 9 9 -16 26 -39
26 -9 0 -24 -10 -32 -22z m53 -52 c15 -18 3 -46 -20 -46 -25 0 -35 26 -19 45
15 19 24 19 39 1z"/>
<path d="M1606 1071 c-17 -19 -17 -19 1 -15 15 4 18 -2 21 -40 2 -40 0 -46
-18 -46 -11 0 -20 -4 -20 -10 0 -5 21 -10 46 -10 27 0 43 4 39 10 -3 6 -12 10
-18 10 -8 0 -12 19 -10 60 2 65 -9 76 -41 41z"/>
<path d="M2379 763 c-1 -10 -1 -29 0 -43 2 -44 -12 -55 -47 -34 -25 14 -34 15
-45 5 -22 -17 -31 -100 -17 -151 10 -38 14 -42 38 -37 73 15 67 22 69 -88 1
-55 2 -114 2 -130 l1 -30 1179 0 c649 0 1183 3 1187 8 5 5 9 419 5 505 -1 9
-245 12 -1186 12 -1122 0 -1185 -1 -1186 -17z m2357 -245 l1 -248 -1172 0
-1171 0 0 122 c1 146 -5 161 -58 136 -34 -17 -36 -17 -46 2 -12 23 -13 120 -1
139 8 12 15 11 46 -3 45 -22 56 -13 60 46 1 23 3 45 4 49 0 3 526 5 1169 5
l1167 -1 1 -247z"/>
<path d="M3050 661 c0 -28 -4 -53 -10 -56 -5 -3 -23 1 -40 10 -17 9 -35 13
-40 10 -29 -18 -33 -165 -6 -193 11 -12 19 -11 46 3 18 9 36 13 41 8 4 -4 9
-33 11 -63 l3 -55 265 -1 c146 0 272 1 280 3 13 4 15 32 15 191 l0 187 -283 3
-282 2 0 -49z m532 30 c14 -1 16 -20 17 -174 l0 -174 -268 0 -267 0 1 49 c1
27 -4 57 -11 66 -11 15 -15 15 -48 -3 -19 -10 -39 -16 -43 -11 -12 12 -10 143
3 156 8 8 19 6 42 -7 40 -23 53 -11 55 48 2 38 5 45 26 49 20 4 432 5 493 1z"/>
<path d="M3144 626 c-28 -21 -34 -171 -7 -204 18 -22 23 -23 192 -24 162 0
174 1 194 20 17 18 20 32 19 93 -2 90 -8 108 -39 120 -13 5 -95 9 -182 9 -120
0 -162 -3 -177 -14z m338 -5 c36 -2 46 -27 44 -106 -1 -44 -7 -80 -15 -88 -18
-18 -331 -19 -356 -1 -14 10 -19 28 -20 76 -2 73 10 116 33 120 13 2 256 2
314 -1z"/>
<path d="M3219 524 l21 -26 -21 -29 c-11 -16 -16 -29 -10 -29 5 0 17 10 25 21
l14 21 14 -21 c7 -11 19 -21 26 -21 8 0 5 10 -9 30 -22 29 -22 30 -4 50 10 11
15 23 12 27 -4 4 -14 -2 -22 -13 -14 -18 -16 -18 -29 -1 -7 9 -19 17 -25 17
-8 0 -4 -10 8 -26z"/>
<path d="M4080 655 c0 -59 -3 -62 -45 -41 -51 26 -68 3 -66 -91 1 -91 21 -118
64 -88 39 28 47 20 47 -48 l0 -63 265 1 265 0 0 192 0 193 -265 0 -265 0 0
-55z m510 33 c4 -5 5 -298 1 -334 -1 -8 -75 -11 -246 -11 -217 0 -245 2 -246
16 -1 23 -6 84 -8 99 -2 17 -27 15 -57 -4 -36 -24 -49 -6 -49 71 0 80 12 94
55 69 31 -19 32 -19 46 1 8 11 14 29 13 40 -3 40 1 54 18 57 33 6 468 3 473
-4z"/>
<path d="M4262 568 c-18 -18 -15 -33 4 -18 13 12 15 7 12 -41 -2 -33 -8 -54
-15 -54 -6 0 -15 -3 -19 -7 -4 -5 16 -8 45 -8 32 0 50 4 46 10 -3 6 -13 10
-21 10 -11 0 -14 14 -14 60 0 61 -11 75 -38 48z"/>
<path d="M4370 559 c-16 -28 -15 -86 0 -104 15 -18 51 -20 68 -3 30 30 2 85
-39 75 -15 -4 -19 -1 -17 11 2 11 13 17 31 17 34 -1 30 19 -6 23 -18 2 -29 -3
-37 -19z m60 -75 c0 -19 -5 -24 -25 -24 -20 0 -25 5 -25 24 0 13 6 26 13 29
22 7 37 -4 37 -29z"/>
<path d="M2753 572 c21 -24 21 -30 -3 -86 -10 -25 -15 -46 -10 -46 5 0 17 17
26 38 l16 37 12 -34 c7 -19 18 -37 24 -39 8 -2 3 22 -13 63 -30 82 -32 85 -52
85 -15 0 -14 -2 0 -18z"/>
<path d="M2549 575 c-1 -3 -1 -16 -1 -30 0 -53 2 -68 9 -61 11 10 12 96 2 96
-5 0 -9 -2 -10 -5z"/>
<path d="M3791 567 c0 -10 -11 -22 -23 -27 -17 -6 -19 -9 -6 -9 19 -1 14 -29
-6 -43 -8 -5 -7 -8 1 -8 6 0 9 -10 7 -22 l-5 -23 12 23 c7 12 18 22 26 22 7 0
13 -10 14 -22 0 -21 1 -21 8 -4 4 11 16 23 27 27 17 7 17 8 2 8 -10 1 -18 8
-18 16 0 7 8 19 18 24 9 6 12 11 5 11 -6 0 -9 9 -5 22 3 14 2 19 -6 14 -7 -4
-12 -14 -12 -22 0 -23 -28 -16 -33 9 -3 15 -5 17 -6 4z m29 -57 c0 -13 -7 -20
-19 -20 -14 0 -18 5 -14 20 3 11 12 20 19 20 8 0 14 -9 14 -20z"/>
<path d="M2545 450 c3 -5 10 -10 16 -10 5 0 9 5 9 10 0 6 -7 10 -16 10 -8 0
-12 -4 -9 -10z"/>
<path d="M5220 655 c0 -30 -2 -55 -5 -55 -4 0 -20 7 -37 16 -28 14 -32 14 -47
0 -23 -24 -23 -158 1 -182 16 -16 19 -16 42 -1 40 27 46 21 46 -42 0 -38 4
-60 13 -63 6 -2 100 -4 207 -4 l195 1 3 193 2 192 -210 0 -210 0 0 -55z m401
25 c1 -21 1 -290 0 -316 -1 -21 -5 -21 -191 -21 l-190 0 0 59 c0 68 -12 78
-60 53 -42 -22 -50 -11 -50 70 0 82 7 91 54 68 45 -21 56 -11 56 53 0 22 2 43
4 45 2 2 88 4 190 4 158 0 186 -2 187 -15z"/>
<path d="M5406 565 c-21 -22 -20 -28 2 -16 17 9 19 5 19 -40 1 -34 -3 -49 -12
-49 -8 0 -17 -4 -20 -10 -4 -6 12 -10 39 -10 26 0 46 5 46 11 0 5 -4 8 -9 4
-16 -9 -26 17 -26 69 0 53 -13 67 -39 41z"/>
<path d="M6110 655 c0 -30 -2 -55 -5 -55 -4 0 -19 7 -35 15 -52 27 -70 4 -70
-90 0 -91 20 -120 63 -90 38 27 46 19 49 -47 l3 -63 205 0 205 0 3 193 2 192
-210 0 -210 0 0 -55z m400 -136 l0 -175 -190 -1 -190 0 0 48 c0 81 -15 96 -66
63 -37 -25 -48 -7 -47 73 2 78 12 93 47 69 48 -31 66 -15 66 61 0 17 4 33 10
35 5 2 91 3 190 3 l180 0 0 -176z"/>
<path d="M6280 550 c-16 -40 -5 -97 20 -105 45 -14 70 12 70 77 0 59 -68 81
-90 28z m65 -40 c0 -41 -2 -45 -25 -45 -27 0 -37 26 -25 72 4 18 11 23 28 21
19 -3 22 -9 22 -48z"/>
<path d="M1918 588 c-2 -7 -3 -49 -3 -93 l1 -80 34 -2 c19 -1 29 0 23 3 -9 4
-13 32 -13 89 0 57 4 85 13 88 6 3 -2 6 -19 6 -18 1 -34 -5 -36 -11z m31 -88
c1 -48 -3 -80 -9 -80 -5 0 -10 20 -11 45 -3 105 -1 127 10 121 5 -3 9 -42 10
-86z"/>
<path d="M2081 593 c25 -6 26 -170 1 -176 -9 -3 0 -5 21 -6 l37 -1 0 95 0 95
-37 -1 c-21 -1 -31 -3 -22 -6z m49 -88 c0 -50 -4 -85 -10 -85 -6 0 -10 35 -10
85 0 50 4 85 10 85 6 0 10 -35 10 -85z"/>
<path d="M1610 548 c-11 -12 -20 -31 -20 -42 1 -16 4 -14 14 10 25 56 97 57
121 1 12 -27 14 -29 15 -9 1 56 -88 84 -130 40z"/>
<path d="M5830 558 c-1 -5 -3 -13 -4 -20 0 -7 -12 -15 -26 -19 -21 -6 -16 -11
7 -8 10 1 25 -30 18 -41 -3 -6 -2 -10 4 -10 5 0 11 10 13 23 2 12 8 22 15 22
6 0 15 3 19 8 4 4 -2 7 -14 7 -13 0 -22 8 -25 23 -2 12 -5 19 -7 15z"/>
<path d="M4915 530 c17 -19 17 -21 0 -40 -20 -22 -14 -26 17 -9 14 8 23 8 31
0 19 -19 31 -12 14 7 -15 16 -15 20 -1 40 17 25 3 30 -16 7 -12 -14 -15 -14
-30 0 -24 22 -36 18 -15 -5z"/>
<path d="M2020 500 c0 -5 5 -10 10 -10 6 0 10 5 10 10 0 6 -4 10 -10 10 -5 0
-10 -4 -10 -10z"/>
</g>
</svg>
