<?xml version="1.0" standalone="no"?>
<!DOCTYPE svg PUBLIC "-//W3C//DTD SVG 20010904//EN"
 "http://www.w3.org/TR/2001/REC-SVG-20010904/DTD/svg10.dtd">
<svg version="1.0" xmlns="http://www.w3.org/2000/svg"
 width="1302.000000pt" height="725.000000pt" viewBox="0 0 1302.000000 725.000000"
 preserveAspectRatio="xMidYMid meet">
<metadata>
Created by potrace 1.16, written by Peter Selinger 2001-2019
</metadata>
<g transform="translate(0.000000,725.000000) scale(0.100000,-0.100000)"
fill="#000000" stroke="none">
<path d="M302 7047 c-52 -16 -126 -96 -138 -149 -7 -31 -10 -1080 -10 -3284
l1 -3239 27 -46 c30 -51 76 -90 127 -107 33 -12 397 -13 2404 -12 l277 0 0
348 0 348 1103 -1 c606 0 1108 1 1115 3 9 3 12 82 12 351 l0 347 499 0 c315 0
498 -4 494 -10 -4 -5 -1 -6 8 0 20 13 480 13 472 1 -4 -6 -1 -7 8 -1 19 12
1440 13 1432 0 -4 -5 -1 -6 8 0 20 13 480 13 472 1 -4 -6 -1 -7 8 -1 19 12
1440 13 1432 0 -4 -5 -1 -6 8 0 20 13 480 13 472 1 -4 -6 -1 -7 8 -1 19 12
1440 13 1432 0 -4 -5 -1 -6 8 0 8 5 147 9 309 9 l295 1 0 484 c1 267 -1 491
-3 498 -3 9 -749 12 -3683 12 l-3679 0 0 335 0 335 3843 0 3843 0 1 63 c1 34
2 67 3 72 1 6 1 12 0 15 -6 16 -4 70 3 70 5 0 5 5 1 12 -9 14 -9 372 0 387 4
6 3 11 -1 11 -12 0 -10 64 2 72 7 5 7 8 0 8 -6 0 -9 54 -8 145 l1 145 -4223 0
-4223 0 0 313 c0 171 -1 328 -1 348 l-1 35 -537 0 -538 0 -5 349 -5 349 -567
0 c-384 0 -568 4 -569 11 -6 53 -2 425 4 425 5 0 5 6 0 12 -9 16 -11 188 -2
208 6 13 123 15 963 15 l956 -1 0 363 0 363 -1595 0 -1595 0 -83 -55 c-104
-70 -124 -69 -231 4 l-75 51 -123 -1 c-68 -1 -138 -6 -156 -12z m346 -69 c108
-73 136 -73 245 -2 l82 54 1578 0 1577 0 -2 -332 -3 -333 -1580 0 -1580 0 -76
-52 c-102 -72 -128 -72 -235 0 l-79 53 -197 -1 -198 0 0 246 c0 261 4 288 49
348 42 56 88 71 224 71 l118 0 77 -52z m-2 -696 c108 -73 144 -73 253 1 l76
51 128 1 127 0 0 -92 c0 -50 -4 -94 -8 -97 -4 -2 -29 9 -56 25 -62 39 -104 37
-126 -6 -23 -47 -21 -271 3 -308 28 -43 45 -44 111 -8 33 18 63 28 68 23 7 -7
10 -1926 8 -5219 l0 -413 -452 0 -451 0 -42 25 c-43 24 -70 56 -92 108 -10 23
-13 652 -13 2996 l0 2966 194 0 194 -1 78 -52z m1559 -362 c-1 -228 -3 -427
-4 -442 -1 -35 -20 -36 -69 -3 -20 14 -51 25 -69 25 -52 0 -67 -40 -68 -180 0
-123 12 -172 47 -191 16 -9 33 -4 84 22 35 17 68 29 72 25 9 -10 9 -4442 0
-4452 -4 -4 -37 8 -73 26 -61 31 -66 32 -89 17 -42 -28 -60 -180 -35 -297 18
-84 60 -96 139 -40 16 11 35 20 44 20 17 0 17 0 20 -132 l1 -78 -471 0 -471 0
0 2810 c0 2600 -2 2811 -17 2835 -21 32 -28 31 -93 -5 -29 -16 -57 -30 -63
-30 -5 0 -16 13 -25 29 -20 39 -17 246 4 278 16 24 25 22 91 -16 24 -14 50
-26 58 -27 27 -4 42 41 44 127 0 46 2 86 3 89 2 3 214 5 473 5 l469 0 -2 -415z
m1143 -723 c3 -488 6 -468 -66 -423 -61 38 -86 42 -110 15 -56 -59 -42 -355
17 -361 34 -3 52 3 92 28 22 14 47 23 55 20 12 -5 14 -263 14 -1771 0 -1405
-3 -1765 -12 -1766 -36 -4 -1094 3 -1098 8 -2 2 -5 952 -5 2111 -1 1670 -3
2112 -13 2130 -17 30 -45 28 -105 -9 -78 -48 -94 -28 -96 126 -1 89 11 154 30
166 8 5 33 -4 65 -22 96 -55 117 -38 118 94 l1 92 555 0 555 0 3 -438z m1082
-268 c10 -15 2 -861 -8 -871 -7 -7 -29 0 -67 22 -100 57 -126 28 -133 -145 -4
-121 8 -178 44 -202 18 -12 27 -10 80 17 32 16 65 30 72 30 16 0 18 -685 2
-695 -6 -4 -32 7 -59 24 -107 69 -147 17 -139 -181 5 -130 19 -163 69 -162 20
0 52 13 76 28 23 16 47 25 52 21 13 -8 15 -421 2 -429 -4 -3 -29 8 -55 24 -60
38 -100 39 -123 3 -26 -40 -26 -273 0 -320 22 -42 44 -42 114 -3 30 17 58 28
63 25 6 -4 10 -142 10 -351 0 -384 4 -367 -69 -319 -54 36 -88 37 -115 2 -19
-26 -21 -41 -21 -161 0 -110 3 -136 18 -159 27 -42 42 -43 108 -8 33 17 64 29
70 26 15 -10 12 -205 -3 -206 -7 -1 -244 -2 -525 -3 l-513 -1 0 1762 c0 1316
-3 1769 -12 1788 -15 33 -39 32 -103 -5 -43 -25 -54 -28 -69 -17 -40 29 -41
274 -1 307 11 9 25 6 70 -20 30 -17 63 -30 72 -28 29 5 43 49 43 134 l0 81
523 0 c287 0 524 -4 527 -8z m8450 -1159 l0 -470 -4210 0 -4209 0 0 218 c1
120 -2 233 -6 250 -11 52 -33 56 -107 17 -54 -29 -68 -32 -77 -21 -28 34 -29
268 -1 301 15 18 41 12 82 -16 14 -11 39 -22 55 -25 24 -5 31 -1 41 21 7 15
13 65 13 111 l1 84 4209 0 4209 0 0 -470z m-7690 -835 l0 -335 -365 0 -365 0
1 58 c2 124 -1 150 -20 173 l-19 23 -62 -32 c-35 -17 -69 -32 -76 -32 -21 0
-35 65 -35 161 1 101 14 159 37 159 9 0 42 -15 75 -32 l60 -33 19 24 c17 19
20 39 20 112 l0 89 365 0 365 0 0 -335z m7355 -364 c7 -1 11 -155 11 -465 0
-409 -2 -465 -16 -468 -13 -3 -6698 -2 -7696 1 l-381 1 -1 231 c0 193 -3 234
-16 255 -21 31 -35 30 -96 -7 -55 -34 -75 -33 -90 6 -13 35 -13 214 1 254 14
39 30 39 104 -1 l58 -31 19 22 c13 17 18 41 19 95 1 39 0 77 -1 85 -1 8 3 17
8 20 8 5 8036 7 8077 2z m-7360 -1301 l0 -335 -350 0 c-192 -1 -356 1 -362 3
-9 3 -13 32 -13 97 0 154 -17 171 -116 114 -30 -17 -59 -27 -64 -24 -22 13
-31 61 -31 156 0 93 17 169 38 169 4 0 31 -14 58 -30 58 -34 90 -38 104 -11 6
10 11 59 12 108 l1 90 362 -1 361 -1 0 -335z m-2224 -419 c0 -82 0 -390 0
-508 l-1 -103 -363 0 -363 0 -1 62 c-2 132 -3 146 -21 168 l-17 22 -66 -35
c-38 -20 -71 -32 -78 -28 -44 28 -40 301 5 318 8 3 32 -7 54 -21 22 -15 53
-29 69 -32 41 -8 53 20 56 126 1 47 3 86 4 86 0 1 163 1 361 1 l360 0 1 -56z"/>
<path d="M3180 6824 c0 -9 7 -14 17 -12 25 5 28 28 4 28 -12 0 -21 -6 -21 -16z"/>
<path d="M456 6814 c-3 -9 -6 -29 -6 -45 0 -22 5 -29 20 -29 22 0 29 35 9 42
-9 3 -9 10 0 26 10 18 9 22 -3 22 -7 0 -17 -7 -20 -16z"/>
<path d="M521 6813 c-14 -28 -8 -67 12 -71 19 -4 25 32 7 43 -7 4 -7 13 0 26
7 12 7 19 1 19 -6 0 -14 -8 -20 -17z"/>
<path d="M840 6815 c0 -11 12 -15 48 -15 l49 0 1 -107 c0 -139 0 -133 16 -133
19 0 22 20 21 138 l-1 102 48 0 c36 0 48 4 48 15 0 12 -19 15 -115 15 -96 0
-115 -3 -115 -15z"/>
<path d="M1907 6823 c-4 -6 -73 -173 -104 -250 -3 -8 3 -13 14 -13 14 0 25 12
36 40 l15 40 61 0 61 0 16 -40 c11 -27 22 -40 35 -40 18 0 18 2 2 43 -71 180
-92 222 -111 225 -11 2 -22 0 -25 -5z m51 -100 l20 -53 -48 0 -49 0 22 60 c12
32 25 56 29 52 3 -4 15 -31 26 -59z"/>
<path d="M2762 6808 c-7 -7 -12 -18 -12 -25 0 -7 -7 -13 -15 -13 -19 0 -20
-19 -1 -26 11 -4 14 -23 14 -73 -1 -91 6 -111 42 -111 37 0 48 17 18 29 -21 8
-24 16 -26 79 -2 62 0 70 18 75 27 7 26 27 -1 27 -16 0 -20 5 -16 20 6 24 -5
34 -21 18z"/>
<path d="M3093 6809 c-7 -7 -13 -19 -13 -26 0 -7 -7 -13 -15 -13 -19 0 -20
-16 -2 -23 10 -4 14 -29 15 -88 2 -86 8 -99 49 -99 32 0 38 19 9 29 -23 9 -24
14 -23 80 1 65 5 76 30 72 4 0 7 6 7 14 0 8 -9 15 -19 15 -14 0 -21 8 -23 26
-2 20 -5 23 -15 13z"/>
<path d="M1060 6765 c0 -2 17 -49 39 -104 32 -84 37 -104 27 -123 -6 -13 -22
-24 -34 -26 -30 -4 -29 -32 1 -32 36 0 61 36 107 155 23 61 44 116 47 123 3 7
-3 12 -15 12 -15 0 -24 -15 -42 -67 -12 -38 -25 -74 -29 -81 -4 -7 -19 22 -36
68 -22 59 -34 80 -47 80 -10 0 -18 -2 -18 -5z"/>
<path d="M1276 6628 c0 -126 2 -143 17 -146 14 -3 17 5 17 53 0 56 0 56 22 41
32 -23 65 -20 93 9 43 42 30 166 -19 179 -36 10 -59 7 -78 -11 -17 -15 -18
-15 -18 0 0 10 -8 17 -17 17 -16 0 -18 -13 -17 -142z m125 96 c19 -23 16 -99
-4 -122 -36 -40 -87 -1 -87 66 0 59 59 95 91 56z"/>
<path d="M1538 6764 c-42 -13 -66 -112 -38 -164 22 -41 101 -53 140 -22 30 25
18 49 -13 27 -26 -18 -71 -20 -84 -2 -6 6 -13 22 -16 35 -5 21 -3 22 69 22
l74 0 0 28 c-1 42 -30 73 -76 77 -21 2 -47 1 -56 -1z m90 -60 c2 -16 -3 -19
-40 -17 -73 2 -70 1 -58 24 24 44 91 39 98 -7z"/>
<path d="M2087 6673 c1 -54 2 -102 2 -106 1 -5 9 -7 18 -5 14 2 16 15 15 73
-1 76 13 105 53 105 36 0 45 -19 45 -102 0 -60 3 -78 14 -78 19 0 23 15 20 90
-3 89 -2 87 -20 104 -20 20 -63 20 -92 0 -20 -14 -22 -14 -22 0 0 9 -8 16 -17
16 -16 0 -18 -11 -16 -97z"/>
<path d="M2308 6763 c-3 -7 -2 -169 1 -195 1 -5 8 -8 16 -8 12 0 15 14 15 65
0 83 -1 77 17 98 21 23 60 22 73 -2 5 -11 10 -52 10 -91 0 -62 2 -71 17 -68
32 6 23 179 -10 200 -20 13 -61 9 -85 -8 -20 -14 -22 -14 -22 0 0 16 -26 23
-32 9z"/>
<path d="M2552 6755 c-44 -32 -46 -142 -2 -177 25 -21 87 -23 111 -5 48 37 56
131 14 172 -28 29 -88 34 -123 10z m112 -90 c0 -37 -4 -51 -22 -65 -45 -36
-92 3 -86 72 4 47 16 65 47 70 36 7 60 -24 61 -77z"/>
<path d="M2890 6763 c-8 -4 -20 -13 -27 -22 -9 -13 -8 -18 4 -24 9 -6 19 -3
27 8 15 21 65 23 77 4 17 -28 8 -37 -43 -41 -62 -6 -92 -34 -82 -77 12 -50 66
-67 113 -35 22 16 24 16 33 0 9 -16 39 -22 51 -9 4 3 0 11 -9 17 -11 9 -16 32
-18 80 -2 58 -5 71 -25 87 -22 18 -70 24 -101 12z m88 -112 c2 -6 -4 -23 -13
-37 -13 -20 -23 -25 -48 -22 -27 2 -32 7 -32 28 0 39 81 67 93 31z"/>
<path d="M3180 6665 c0 -96 2 -105 19 -105 17 0 18 9 17 105 0 94 -2 105 -18
105 -16 0 -18 -11 -18 -105z"/>
<path d="M3299 6757 c-25 -19 -39 -52 -39 -92 0 -67 33 -104 93 -105 44 0 86
34 88 72 4 69 -1 94 -26 116 -29 25 -89 30 -116 9z m102 -45 c12 -32 8 -86 -8
-107 -15 -21 -60 -23 -80 -3 -15 16 -21 97 -8 118 10 16 46 28 68 22 10 -3 23
-16 28 -30z"/>
<path d="M3490 6664 c0 -94 2 -105 17 -102 14 3 17 15 18 74 1 81 13 104 55
104 35 0 40 -13 40 -106 0 -66 2 -74 19 -74 18 0 19 7 17 91 -2 76 -5 94 -21
105 -25 18 -65 18 -93 -2 -20 -14 -22 -14 -22 0 0 9 -7 16 -15 16 -12 0 -15
-18 -15 -106z"/>
<path d="M3720 6750 c-40 -40 -15 -82 58 -96 37 -7 57 -27 48 -49 -7 -20 -79
-20 -96 -1 -14 17 -41 10 -34 -8 7 -18 49 -36 84 -36 43 0 78 19 83 47 6 34
-20 61 -73 76 -34 10 -46 18 -48 35 -2 15 2 22 15 23 33 2 58 -3 61 -12 5 -12
42 -12 42 0 0 19 -45 41 -82 41 -25 0 -45 -7 -58 -20z"/>
<path d="M475 3278 c0 -83 4 -113 13 -113 7 0 62 20 122 45 146 60 146 67 -14
132 -66 26 -120 48 -121 48 0 0 0 -51 0 -112z m165 10 l34 -14 -69 -28 c-39
-16 -76 -30 -82 -33 -10 -4 -13 12 -13 61 l0 66 48 -19 c26 -10 63 -25 82 -33z"/>
<path d="M1555 6058 c2 -40 4 -83 4 -95 1 -13 7 -23 16 -23 12 0 15 17 15 95
0 87 -2 95 -19 95 -17 0 -19 -7 -16 -72z"/>
<path d="M1550 5880 c0 -13 7 -20 20 -20 13 0 20 7 20 20 0 13 -7 20 -20 20
-13 0 -20 -7 -20 -20z"/>
<path d="M1546 3416 c3 -8 14 -16 24 -19 37 -10 35 -65 -5 -152 -21 -44 -39
-83 -42 -87 -2 -5 4 -8 15 -8 14 0 27 19 51 73 l32 72 25 -69 c13 -38 24 -71
24 -73 0 -2 9 -3 21 -3 16 0 19 4 14 18 -4 9 -25 64 -47 122 -22 58 -47 113
-55 123 -20 21 -65 24 -57 3z"/>
<path d="M1590 660 c-9 -33 -15 -40 -35 -40 -14 0 -25 -4 -25 -10 0 -5 8 -10
18 -10 27 0 32 -8 20 -41 -6 -18 -17 -29 -29 -29 -10 0 -19 -4 -19 -10 0 -5 9
-10 19 -10 17 0 18 -4 10 -37 -4 -21 -6 -39 -4 -41 8 -8 25 10 25 28 0 37 12
50 45 50 32 0 32 0 25 -40 -6 -31 -4 -40 6 -40 8 0 15 9 15 20 1 11 3 25 4 30
1 6 3 15 4 20 0 6 15 10 32 10 17 0 28 4 24 10 -3 6 -15 10 -26 10 -13 0 -19
7 -19 23 0 31 11 44 40 50 l25 4 -24 8 c-20 7 -22 12 -17 46 7 45 -10 54 -20
12 -11 -50 -13 -53 -48 -53 -24 0 -34 4 -32 13 13 39 15 67 7 67 -6 0 -15 -18
-21 -40z m71 -92 c-6 -28 -11 -33 -39 -36 -32 -3 -33 -2 -29 30 3 18 6 34 6
36 1 1 16 2 35 2 32 0 33 -1 27 -32z"/>
<path d="M2520 5425 c0 -8 7 -15 16 -15 8 0 22 -16 30 -35 13 -33 13 -37 -26
-116 -45 -91 -46 -99 -25 -99 9 0 28 29 47 71 l32 71 26 -68 c16 -43 32 -70
43 -72 9 -2 17 -2 17 1 0 9 -79 216 -91 238 -6 13 -17 27 -23 31 -19 13 -46 9
-46 -7z"/>
<path d="M2592 2887 l-22 -23 31 -23 c31 -23 31 -23 24 -2 -6 20 -3 21 84 21
50 0 91 4 91 8 0 5 -33 9 -72 9 -107 1 -108 1 -102 18 9 22 -10 18 -34 -8z"/>
<path d="M3717 4672 c-17 -19 -37 -65 -37 -88 0 -31 30 -12 40 26 6 21 15 42
20 45 14 8 36 -33 50 -92 12 -55 38 -87 66 -81 38 7 86 118 51 118 -9 0 -20
-17 -29 -42 -19 -63 -39 -56 -60 20 -28 105 -62 137 -101 94z"/>
<path d="M3640 3832 c0 -5 15 -52 34 -103 42 -117 57 -123 103 -47 46 76 53
158 14 158 -13 0 -16 -8 -13 -39 4 -41 -32 -140 -46 -127 -4 4 -19 42 -33 84
-17 50 -32 78 -42 80 -10 2 -17 -1 -17 -6z"/>
<path d="M3730 3045 c0 -28 -5 -37 -30 -50 -68 -35 -67 -157 2 -187 24 -11 28
-19 28 -50 0 -27 4 -38 15 -38 11 0 15 11 15 39 0 33 4 40 29 51 59 24 68 133
16 178 -15 12 -31 20 -36 17 -5 -4 -9 12 -9 34 0 30 -4 41 -15 41 -10 0 -15
-11 -15 -35z m66 -98 c16 -49 0 -117 -27 -117 -5 0 -9 34 -9 75 0 61 3 73 15
69 8 -3 17 -16 21 -27z m-66 -47 c0 -71 -10 -87 -31 -49 -22 42 -8 119 22 119
5 0 9 -31 9 -70z"/>
<path d="M3782 2144 l-33 -32 -29 30 c-19 20 -35 28 -46 24 -13 -5 -11 -11 15
-35 38 -35 38 -45 6 -73 -25 -21 -34 -48 -16 -48 5 0 23 13 41 30 l31 29 31
-29 c32 -31 43 -36 52 -21 3 4 -8 20 -24 35 -36 32 -37 40 -5 68 25 21 32 43
18 51 -5 2 -23 -10 -41 -29z"/>
<path d="M3735 1310 l2 -40 -43 0 c-34 0 -42 -3 -38 -14 3 -8 22 -16 42 -18
33 -3 36 -6 37 -35 1 -60 28 -58 28 2 0 33 2 34 40 37 56 4 60 26 5 30 -42 3
-43 4 -43 38 0 24 -5 36 -16 38 -12 2 -15 -6 -14 -38z"/>
<path d="M5998 4030 c-3 -121 -11 -129 -75 -86 -44 30 -83 33 -106 8 -21 -23
-34 -111 -30 -206 6 -148 44 -183 134 -127 28 17 54 31 59 31 14 0 20 -35 23
-145 l2 -100 608 0 c334 0 608 2 608 5 4 17 3 713 -1 718 -3 4 -278 7 -612 7
l-607 0 -3 -105z m1192 71 c3 -1 5 -150 5 -331 0 -286 -2 -331 -15 -334 -8 -2
-270 -4 -582 -3 l-568 0 0 96 c0 101 -13 143 -43 149 -9 2 -41 -10 -71 -27
-29 -17 -58 -31 -64 -31 -43 0 -51 275 -9 317 10 10 19 9 42 -4 108 -59 114
-60 132 -20 6 12 11 58 12 102 1 43 4 82 6 85 2 4 1136 5 1155 1z"/>
<path d="M6343 3890 c-18 -8 -43 -38 -43 -53 0 -12 36 0 48 16 15 20 62 23 80
5 29 -29 2 -68 -47 -68 -12 0 -21 -7 -21 -15 0 -9 9 -15 25 -15 27 0 65 -32
65 -54 0 -47 -79 -63 -106 -21 -18 27 -44 34 -44 11 0 -47 82 -80 140 -56 51
21 60 101 14 122 l-23 11 22 17 c70 55 -19 136 -110 100z"/>
<path d="M6563 3890 c-12 -5 -26 -18 -32 -28 -15 -29 17 -40 36 -12 16 22 62
27 81 8 29 -29 2 -68 -47 -68 -12 0 -21 -7 -21 -15 0 -10 10 -15 28 -15 32 0
62 -27 59 -52 -8 -49 -73 -66 -101 -26 -18 25 -46 33 -46 12 0 -30 47 -64 89
-64 42 0 88 30 92 60 4 41 -3 61 -25 71 l-23 11 24 24 c58 58 -28 128 -114 94z"/>
<path d="M6765 3875 c-14 -13 -25 -28 -25 -33 0 -16 34 -8 48 11 15 20 62 23
80 5 29 -29 2 -68 -47 -68 -12 0 -21 -7 -21 -15 0 -10 10 -15 28 -15 38 0 66
-31 57 -62 -10 -29 -23 -38 -57 -38 -18 0 -33 8 -44 25 -18 27 -44 34 -44 11
0 -47 82 -80 139 -56 50 20 61 101 17 122 l-23 10 23 24 c30 30 30 49 -1 79
-34 35 -96 35 -130 0z"/>
<path d="M8052 4125 c-4 -5 -7 -48 -8 -95 -1 -47 -2 -91 -3 -97 -2 -20 -28
-15 -71 12 -57 36 -95 33 -116 -7 -22 -42 -30 -186 -15 -260 20 -94 58 -108
140 -52 64 43 67 37 66 -118 0 -58 4 -99 10 -101 5 -2 280 -3 610 -3 l600 1 0
365 0 365 -603 0 c-392 0 -606 -3 -610 -10z m1188 -356 l0 -336 -582 1 -583 1
-1 100 c-1 102 -12 145 -40 145 -8 0 -42 -14 -75 -31 -41 -22 -64 -28 -70 -22
-39 39 -37 290 2 314 8 5 37 -6 74 -27 52 -28 64 -32 79 -21 22 16 33 65 31
142 0 33 2 62 6 65 4 3 266 5 583 5 l576 0 0 -336z"/>
<path d="M8359 3853 c0 -27 -2 -58 -5 -70 -3 -18 1 -23 16 -23 11 0 29 5 39
11 27 17 70 3 81 -27 24 -62 -54 -114 -97 -65 -19 23 -43 28 -43 9 1 -32 42
-58 93 -58 65 0 106 69 81 135 -11 26 -62 48 -101 40 -34 -6 -34 -6 -31 29 l2
36 63 0 c49 0 63 3 63 15 0 12 -16 15 -80 15 l-80 0 -1 -47z"/>
<path d="M8580 3883 c0 -10 -3 -42 -6 -70 -7 -58 1 -64 50 -42 53 25 104 -18
84 -71 -16 -44 -64 -54 -98 -20 -21 21 -52 17 -43 -6 7 -20 56 -44 87 -44 58
0 96 39 96 98 -1 51 -55 89 -112 77 -27 -6 -28 -5 -28 29 l0 35 63 3 c88 4 77
22 -15 26 -69 3 -78 1 -78 -15z"/>
<path d="M8799 3878 c0 -13 -2 -45 -5 -72 l-4 -48 27 6 c69 17 80 17 96 1 21
-21 22 -69 1 -89 -22 -23 -71 -20 -86 4 -16 25 -38 26 -38 1 0 -24 41 -51 79
-51 82 0 124 67 86 139 -15 31 -59 45 -101 35 -22 -6 -24 -3 -24 29 l0 36 62
3 c38 2 63 8 66 16 3 9 -17 12 -77 12 -77 0 -81 -1 -82 -22z"/>
<path d="M10174 4131 c-2 -2 -4 -41 -4 -85 0 -134 -10 -147 -78 -101 -20 14
-51 25 -68 25 -50 0 -68 -48 -68 -185 -1 -90 3 -117 19 -150 18 -35 24 -40 53
-38 18 0 50 13 71 27 66 46 71 38 71 -110 0 -57 3 -105 8 -105 4 -1 177 -2
385 -3 245 -1 381 2 385 9 9 13 11 696 3 710 -6 10 -767 16 -777 6z m751 -361
l0 -335 -362 -1 -363 -1 0 41 c-2 215 -16 235 -115 176 -27 -16 -56 -30 -63
-30 -21 0 -34 51 -37 148 -5 136 17 195 61 169 68 -39 101 -53 116 -50 24 6
35 47 36 133 0 41 1 77 1 80 1 3 164 5 363 5 l363 0 0 -335z"/>
<path d="M10523 3879 c-18 -12 -33 -27 -33 -35 0 -18 5 -18 35 2 l25 16 0
-101 0 -101 -35 0 c-24 0 -35 -5 -35 -15 0 -12 16 -15 85 -15 69 0 85 3 85 15
0 10 -10 15 -32 15 l-33 0 1 120 c2 134 -1 139 -63 99z"/>
<path d="M11854 4131 c-2 -2 -4 -50 -4 -106 0 -56 -3 -105 -7 -108 -3 -4 -30
7 -58 23 -113 64 -140 35 -140 -150 0 -196 26 -230 130 -170 33 19 60 29 65
24 5 -5 11 -61 12 -124 l3 -115 390 0 390 0 0 365 0 365 -388 0 c-214 0 -391
-2 -393 -4z m744 -30 c9 -1 12 -75 12 -335 l0 -334 -362 1 -363 2 -3 100 c-5
152 -26 171 -125 108 -45 -28 -67 -24 -78 18 -12 41 -9 212 4 249 14 40 32 42
87 6 55 -35 68 -38 90 -16 17 17 20 34 20 113 l0 92 352 -1 c194 -1 359 -2
366 -3z"/>
<path d="M12185 3874 c-14 -15 -26 -32 -26 -38 -12 -109 5 -175 47 -195 77
-35 134 16 134 119 0 60 -20 114 -48 129 -37 20 -81 13 -107 -15z m99 -20 c26
-26 26 -147 -1 -176 -23 -26 -64 -20 -80 12 -18 36 -16 131 3 158 18 26 56 29
78 6z"/>
<path d="M5465 3758 l1 -173 43 -3 c32 -2 42 0 39 10 -3 7 -15 14 -27 16 -21
3 -22 6 -21 135 1 195 2 187 -18 187 -16 0 -17 -15 -17 -172z"/>
<path d="M7517 3924 c-10 -11 3 -24 24 -24 18 0 19 -8 19 -160 0 -152 1 -160
19 -160 19 0 20 8 20 175 l-1 175 -37 0 c-21 0 -41 -3 -44 -6z"/>
<path d="M4764 3877 c16 -12 56 -99 56 -121 0 -8 -24 -39 -54 -70 l-54 -56 41
1 c23 0 36 3 30 6 -20 7 -15 25 17 62 l28 33 16 -30 c19 -37 20 -59 4 -65 -7
-3 12 -5 42 -5 30 0 48 2 39 5 -17 4 -31 29 -55 95 -10 29 -10 41 -1 51 7 7
31 33 55 58 l42 45 -35 1 c-27 0 -33 -2 -26 -11 7 -9 1 -24 -21 -50 -33 -40
-39 -39 -56 11 -9 26 -8 34 4 41 9 5 -4 9 -37 9 -41 1 -48 -1 -35 -10z"/>
<path d="M11310 3810 c0 -40 0 -40 -39 -40 -25 0 -41 -5 -45 -15 -4 -12 4 -15
39 -15 l45 0 0 -40 c0 -30 4 -40 16 -40 11 0 15 8 14 28 -4 49 -2 52 40 52 29
0 40 4 40 15 0 11 -11 15 -40 15 l-40 0 0 40 c0 29 -4 40 -15 40 -11 0 -15
-11 -15 -40z"/>
<path d="M9556 3833 c-3 -4 8 -22 26 -40 l32 -33 -33 -34 c-43 -45 -22 -61 23
-17 l32 31 29 -30 c28 -29 55 -39 55 -21 0 5 -14 24 -30 41 l-31 33 31 32 c16
17 30 34 30 38 0 16 -28 6 -50 -18 -13 -14 -29 -25 -35 -25 -6 0 -22 11 -35
25 -25 26 -32 29 -44 18z"/>
<path d="M4970 3720 l0 -90 90 0 90 0 0 90 0 90 -90 0 -90 0 0 -90z m164 61
c3 -9 4 -43 3 -76 l-3 -60 -75 -2 -75 -2 2 77 c1 42 2 78 3 79 1 1 32 2 71 1
55 -1 71 -5 74 -17z"/>
<path d="M5000 3766 c0 -10 9 -16 21 -16 24 0 21 23 -4 28 -10 2 -17 -3 -17
-12z"/>
<path d="M5090 3690 c-12 -7 -12 -12 -2 -22 9 -9 15 -9 24 0 16 16 -2 34 -22
22z"/>
<path d="M4766 3045 c-28 -30 -36 -62 -31 -132 4 -59 19 -87 52 -102 78 -35
133 19 133 129 0 56 -20 104 -49 120 -35 18 -80 12 -105 -15z m92 -13 c32 -21
37 -149 6 -183 -24 -27 -60 -24 -80 6 -20 30 -16 143 5 169 14 17 48 21 69 8z"/>
<path d="M5895 2382 c1 -144 -3 -150 -66 -108 -82 56 -120 42 -140 -53 -15
-71 -6 -219 16 -260 20 -39 46 -40 119 -4 31 15 59 24 63 20 4 -4 7 -58 8
-120 l1 -112 557 -3 557 -2 0 365 0 365 -557 0 -558 0 0 -88z m1085 -277 l0
-335 -527 2 -527 3 -2 102 c-1 109 -10 133 -48 133 -11 0 -36 -9 -55 -21 -62
-38 -79 -41 -92 -17 -26 49 -23 256 5 294 13 16 17 16 75 -15 97 -50 112 -36
116 109 2 41 3 76 4 78 0 1 237 2 526 2 l525 0 0 -335z"/>
<path d="M6243 2218 c-25 -12 -50 -77 -47 -125 1 -18 2 -42 3 -54 2 -32 55
-79 89 -79 73 0 108 72 89 187 -11 68 -72 101 -134 71z m90 -45 c17 -33 16
-128 -2 -160 -13 -26 -48 -30 -77 -9 -16 12 -19 27 -19 89 0 84 12 107 56 107
21 0 32 -7 42 -27z"/>
<path d="M6572 2204 c-37 -29 -34 -54 4 -30 13 9 25 16 26 16 2 0 3 -45 4
-100 l0 -100 -33 0 c-23 0 -33 -5 -33 -15 0 -12 16 -15 85 -15 69 0 85 3 85
15 0 10 -11 15 -35 15 l-35 0 0 120 c0 136 -5 143 -68 94z"/>
<path d="M6430 1980 c0 -13 7 -20 20 -20 13 0 20 7 20 20 0 13 -7 20 -20 20
-13 0 -20 -7 -20 -20z"/>
<path d="M7830 2366 c0 -60 -4 -108 -10 -111 -6 -4 -35 8 -66 25 -71 41 -96
36 -119 -24 -14 -35 -16 -69 -14 -158 6 -173 35 -200 144 -138 65 37 65 37 65
-111 l0 -109 560 0 560 0 0 365 0 365 -560 0 -560 0 0 -104z m1090 -261 l0
-335 -530 0 -530 0 0 94 c0 100 -9 140 -33 149 -8 3 -44 -10 -80 -29 -72 -37
-79 -35 -92 24 -10 49 -8 203 4 234 15 41 27 42 86 9 30 -17 61 -31 69 -31 32
0 46 41 46 132 l0 88 530 0 530 0 0 -335z"/>
<path d="M8177 2219 c-62 -36 -61 -215 1 -248 50 -27 114 0 132 55 14 40 8
130 -10 163 -19 37 -84 52 -123 30z m88 -43 c21 -32 22 -129 1 -161 -22 -34
-60 -33 -83 1 -21 33 -20 126 2 160 20 31 60 31 80 0z"/>
<path d="M8500 2217 c-14 -7 -26 -23 -28 -35 -4 -28 19 -29 36 -2 13 21 56 27
80 11 26 -16 10 -55 -28 -67 -41 -14 -45 -28 -10 -32 52 -8 76 -54 44 -86 -22
-23 -60 -20 -86 6 -27 27 -48 32 -48 12 0 -20 35 -52 65 -60 62 -16 109 11
121 69 5 26 -21 67 -43 67 -11 0 -8 6 11 21 72 57 -26 140 -114 96z"/>
<path d="M8370 1980 c0 -13 7 -20 20 -20 13 0 20 7 20 20 0 13 -7 20 -20 20
-13 0 -20 -7 -20 -20z"/>
<path d="M9849 2468 c-1 -2 -3 -49 -4 -106 -2 -57 -6 -106 -9 -109 -4 -4 -35
8 -69 27 -69 37 -86 36 -114 -7 -15 -22 -18 -48 -18 -153 0 -192 24 -220 139
-163 31 15 59 24 62 20 4 -4 7 -59 8 -122 l0 -115 393 0 393 0 0 365 0 365
-390 0 c-214 0 -391 -1 -391 -2z m751 -85 c1 -77 1 -562 0 -590 l0 -23 -363 0
-362 0 -1 106 c-1 91 -4 109 -21 125 -19 20 -20 20 -77 -11 -77 -40 -93 -39
-105 8 -26 92 -6 282 30 282 6 0 34 -14 62 -31 58 -36 93 -33 103 8 4 14 7 61
8 105 l1 78 363 0 362 0 0 -57z"/>
<path d="M10198 2207 c-36 -30 -39 -56 -3 -33 13 9 27 16 30 16 3 0 5 -45 5
-100 l0 -100 -35 0 c-24 0 -35 -5 -35 -15 0 -12 16 -15 85 -15 67 0 85 3 85
14 0 9 -12 16 -32 18 l-33 3 0 115 c0 108 -1 115 -20 117 -11 2 -32 -8 -47
-20z"/>
<path d="M11530 2376 c0 -95 -5 -126 -20 -126 -5 0 -31 14 -59 31 -90 56 -129
20 -134 -128 -8 -204 32 -260 139 -197 69 40 74 34 74 -101 l0 -115 394 0 394
0 -1 363 -2 362 -392 3 -393 2 0 -94z m757 -271 l0 -335 -363 0 -364 0 -1 90
c-2 97 -1 94 -12 127 -12 34 -37 33 -104 -4 l-62 -34 -17 26 c-34 53 -19 305
18 305 6 0 37 -15 69 -32 89 -49 106 -30 108 115 l1 77 364 0 363 0 0 -335z"/>
<path d="M11863 2206 c-27 -23 -28 -28 -28 -111 0 -83 1 -88 28 -111 47 -41
115 -26 139 30 16 38 15 124 -1 164 -23 54 -91 68 -138 28z m104 -36 c15 -30
17 -109 3 -145 -11 -30 -31 -39 -65 -31 -35 9 -49 74 -36 168 1 4 8 14 17 23
23 23 66 15 81 -15z"/>
<path d="M5360 2085 l0 -175 40 0 c30 0 40 4 40 16 0 10 -6 14 -15 11 -8 -4
-17 -2 -20 4 -4 5 -7 79 -7 164 -1 145 -2 155 -19 155 -18 0 -19 -11 -19 -175z"/>
<path d="M7302 2248 c3 -7 14 -14 26 -16 22 -3 22 -7 22 -163 0 -147 1 -160
17 -157 16 3 18 20 18 176 l1 172 -44 0 c-30 0 -42 -4 -40 -12z"/>
<path d="M4751 2230 c-4 -8 -7 -71 -6 -140 l0 -125 143 -3 142 -3 0 143 0 143
-136 0 c-111 0 -137 -3 -143 -15z m248 -129 l-1 -109 -109 -1 -109 -2 0 111 0
110 110 0 110 0 -1 -109z"/>
<path d="M4933 2183 c-19 -7 -15 -31 7 -43 15 -8 21 -7 28 7 17 33 -1 50 -35
36z"/>
<path d="M4806 2053 c-9 -23 22 -47 40 -32 10 8 11 16 3 30 -12 24 -35 25 -43
2z"/>
<path d="M10985 2153 c4 -43 -4 -53 -47 -53 -52 0 -46 -23 8 -30 37 -5 39 -7
39 -40 0 -23 5 -36 15 -38 12 -2 16 7 15 35 0 37 1 38 39 43 55 7 60 30 7 30
-23 0 -42 3 -42 8 -1 4 -2 20 -3 37 -1 19 -8 31 -18 33 -13 2 -16 -3 -13 -25z"/>
<path d="M9230 2163 c0 -4 14 -22 32 -40 l32 -33 -34 -35 c-23 -23 -31 -38
-24 -45 7 -7 21 2 44 25 l34 35 32 -31 c45 -44 66 -28 23 17 l-33 34 32 33
c18 18 32 36 32 40 0 17 -28 5 -55 -23 l-29 -30 -31 30 c-29 28 -55 39 -55 23z"/>
<path d="M4766 1374 c-14 -15 -27 -34 -27 -43 -1 -9 -3 -27 -5 -41 -15 -111
58 -192 137 -150 64 35 65 215 1 249 -36 19 -77 13 -106 -15z m98 -20 c17 -16
20 -38 17 -113 -1 -50 -23 -81 -57 -81 -35 0 -54 36 -54 105 0 69 19 105 55
105 13 0 31 -7 39 -16z"/>
<path d="M2553 690 c-19 -8 -43 -38 -43 -54 0 -15 37 -4 48 15 9 15 21 19 44
17 66 -6 59 -69 -13 -123 -40 -29 -79 -81 -79 -104 0 -7 30 -11 90 -11 73 0
90 3 90 15 0 12 -14 15 -70 15 -79 0 -82 7 -20 55 76 59 103 117 72 155 -19
24 -85 35 -119 20z"/>
</g>
</svg>
