<?xml version="1.0" standalone="no"?>
<!DOCTYPE svg PUBLIC "-//W3C//DTD SVG 20010904//EN"
 "http://www.w3.org/TR/2001/REC-SVG-20010904/DTD/svg10.dtd">
<svg version="1.0" xmlns="http://www.w3.org/2000/svg"
 width="865.000000pt" height="826.000000pt" viewBox="0 0 865.000000 826.000000"
 preserveAspectRatio="xMidYMid meet">
<metadata>
Created by potrace 1.16, written by Peter Selinger 2001-2019
</metadata>
<g transform="translate(0.000000,826.000000) scale(0.100000,-0.100000)"
fill="#000000" stroke="none">
<path d="M2425 8100 l-1750 -5 -56 -37 c-66 -44 -85 -43 -159 6 -53 35 -58 37
-135 35 -44 -1 -91 -6 -105 -11 -41 -15 -89 -69 -97 -107 -10 -52 -10 -7678 0
-7726 4 -22 20 -53 35 -68 56 -60 3 -57 1105 -54 l1012 2 3 140 c2 118 2 253
0 274 0 3 0 20 1 37 l1 31 113 -1 112 -1 0 240 0 240 2984 2 c1767 2 2987 7
2990 12 3 5 6 150 5 323 -1 213 3 318 10 327 9 12 8 13 -3 6 -11 -6 -13 -4 -8
8 6 16 -72 17 -1098 17 l-1105 0 0 335 0 335 -547 1 c-302 0 -605 0 -675 -1
l-128 -1 0 336 0 335 -1588 0 -1588 0 0 229 c0 200 2 230 15 233 9 2 1349 3
2979 2 l2962 -1 0 343 c0 265 -3 343 -12 346 -7 2 -1067 3 -2355 3 -1289 -1
-2343 1 -2344 4 0 3 -1 112 -2 241 l-2 235 -360 3 -360 2 1 218 c1 119 2 223
3 230 1 9 562 12 2771 12 l2770 0 0 345 0 345 -292 0 c-161 0 -1404 0 -2763 0
l-2470 0 40 27 39 26 1300 1 1301 1 1 346 1 347 -41 -2 c-23 -1 -47 2 -53 7
-7 5 -13 6 -13 1 0 -11 -452 -10 -469 0 -6 4 -11 4 -11 -1 0 -10 -452 -9 -468
1 -7 4 -12 4 -12 -1 0 -4 -343 -8 -763 -7 l-762 0 -1 230 -1 229 -45 5 -45 5
0 228 c1 199 3 227 16 228 9 0 424 1 924 2 599 1 907 -1 907 -8 0 -7 3 -7 8 0
4 6 20 10 36 10 l29 0 1 243 c1 134 -1 247 -4 251 -3 4 -12 9 -20 12 -8 2
-803 2 -1765 -1z m-1965 -60 c71 -47 107 -47 175 2 l50 36 1752 -1 1753 0 0
-232 0 -232 -1754 1 -1754 1 -57 -37 c-31 -21 -67 -38 -80 -38 -12 0 -47 17
-76 37 l-54 36 -137 1 c-76 1 -139 3 -139 6 -6 27 -3 323 4 350 19 76 71 106
185 107 72 0 80 -2 132 -37z m0 -483 l55 -37 -125 0 c-170 -1 -180 -10 -180
-164 0 -86 2 -98 24 -123 l24 -28 219 -1 c239 -2 263 3 280 53 5 15 9 70 8
121 -1 119 -14 135 -113 142 l-67 5 50 35 50 34 374 1 c357 0 374 -1 380 -19
4 -10 6 -28 5 -40 -1 -11 -3 -34 -3 -49 l-1 -29 -36 21 c-50 30 -82 28 -95 -6
-14 -37 -13 -174 2 -206 15 -33 36 -34 84 -6 20 12 38 19 42 16 3 -3 6 -37 7
-74 l1 -68 -383 -3 -383 -2 -52 -35 c-66 -45 -98 -45 -161 0 l-50 35 -138 0
-138 0 -1 38 c-2 157 0 412 4 419 3 5 63 8 134 8 l128 -1 55 -37z m1806 30 c6
-5 9 -293 5 -435 l-1 -22 -402 2 -402 3 -1 60 c-1 68 -11 105 -28 105 -7 0
-31 -10 -54 -22 -23 -12 -46 -19 -50 -14 -10 10 -17 158 -9 191 8 30 24 31 69
5 19 -11 42 -18 51 -14 17 6 18 12 19 92 1 26 4 49 8 52 11 8 787 6 795 -3z
m-1538 -111 c16 -21 18 -39 17 -122 -3 -138 10 -132 -264 -130 -266 1 -250 -7
-251 139 0 144 -12 137 259 137 l220 0 19 -24z m-268 -403 c69 -46 105 -46
174 2 l51 35 348 0 347 0 0 -65 c0 -36 -3 -65 -6 -65 -4 0 -22 9 -41 21 -43
27 -78 19 -88 -18 -8 -34 -8 -174 1 -196 12 -32 38 -38 77 -17 21 11 41 20 47
20 7 0 10 -261 10 -770 l0 -770 -353 0 -352 0 -52 -35 c-29 -19 -64 -35 -78
-35 -14 0 -49 16 -78 35 l-52 35 -137 0 c-76 0 -139 3 -139 8 -4 21 -4 1820
-1 1835 4 15 19 17 136 17 l131 0 55 -37z m1901 30 c3 -25 4 -420 1 -430 -7
-23 -99 -83 -125 -83 -15 0 -52 18 -84 41 -57 39 -59 40 -138 38 -86 -2 -116
-11 -153 -43 -54 -48 -56 -61 -56 -341 0 -253 1 -262 23 -301 24 -42 61 -70
102 -78 13 -3 115 -5 227 -5 l202 -1 0 -65 c0 -36 -3 -65 -6 -65 -4 0 -22 9
-40 21 -53 32 -77 23 -92 -36 -13 -53 -9 -154 9 -186 13 -25 49 -24 93 2 l36
21 0 -171 0 -171 -475 0 c-373 0 -475 3 -476 13 -1 6 -3 347 -4 757 -1 410 -3
755 -4 766 -2 31 -24 36 -67 13 -63 -32 -71 -25 -74 56 -3 78 0 111 14 130 13
18 14 18 50 -3 65 -38 76 -31 81 56 2 31 4 60 4 65 1 4 215 7 476 7 261 0 475
-3 476 -7z m-210 -497 c69 -46 99 -46 170 2 l57 37 1288 0 1289 0 1 -323 c0
-220 -3 -322 -10 -323 -6 -1 -587 -2 -1292 -3 l-1281 -1 -56 -37 c-31 -21 -68
-38 -82 -38 -14 0 -50 17 -81 37 -53 35 -60 37 -146 39 -79 2 -93 6 -124 29
-20 15 -40 39 -46 53 -12 33 -17 413 -5 464 18 74 79 106 198 103 58 -2 72 -7
120 -39z m-252 -616 c14 -7 64 -14 113 -16 75 -3 93 -7 125 -29 l38 -26 -130
3 c-141 3 -164 11 -199 70 -24 39 -20 55 7 31 12 -11 33 -26 46 -33z m5901
-415 l0 -325 -2707 2 -2708 3 -2 164 c-2 193 -8 208 -66 172 -62 -38 -77 -26
-79 69 -3 129 6 144 61 113 22 -13 47 -23 55 -23 19 0 32 44 31 103 l-1 47
2708 0 2708 0 0 -325z m-7342 -380 c70 -48 104 -48 174 -2 l55 37 387 0 386 0
0 -59 c0 -33 -4 -62 -8 -65 -5 -3 -23 4 -40 15 -48 29 -71 25 -88 -16 -14 -35
-18 -140 -5 -184 10 -37 35 -48 73 -32 76 30 68 99 66 -625 l-3 -649 -386 0
-386 0 -60 -37 c-34 -21 -69 -38 -80 -38 -10 0 -43 17 -73 37 l-55 37 -140 1
-140 0 0 800 c-1 440 0 803 3 808 2 4 63 7 135 7 l132 0 53 -35z m1796 -266
c-1 -165 -4 -303 -7 -306 -3 -3 -27 5 -52 17 -41 20 -48 21 -62 8 -47 -48 -32
-258 20 -258 6 0 27 9 45 20 18 11 37 20 42 20 11 0 14 -282 4 -293 -4 -4 -19
2 -34 13 -41 29 -78 26 -91 -7 -15 -38 -15 -183 0 -210 15 -28 46 -29 89 -3
18 11 35 20 37 20 3 0 5 -76 5 -168 l0 -169 -385 1 -385 1 0 646 c0 500 -3
649 -13 662 -11 16 -14 16 -52 -3 -69 -35 -78 -28 -81 73 -2 70 10 127 27 127
6 0 28 -10 50 -22 39 -23 40 -23 54 -4 9 12 15 43 15 78 l0 58 388 0 387 0 -1
-301z m722 -413 l-1 -231 -350 0 -349 0 -2 71 c-2 102 -12 111 -83 74 -33 -16
-41 -17 -51 -5 -15 19 -17 164 -1 193 l12 22 39 -20 c70 -36 81 -28 85 59 2
31 3 59 4 62 1 3 158 6 349 6 l348 -1 0 -230z m4707 -255 c4 -1 7 -146 7 -324
l0 -323 -2707 0 -2708 1 0 155 c-1 158 -7 200 -28 200 -7 0 -31 -10 -55 -22
-37 -20 -44 -21 -52 -8 -14 21 -17 137 -5 188 7 28 24 28 70 1 33 -20 38 -20
52 -7 9 10 16 39 18 74 2 33 4 61 4 64 1 4 5374 5 5404 1z m-7227 -704 c77
-46 107 -47 175 -2 30 19 60 36 69 36 69 6 160 2 163 -6 5 -14 -1 -116 -7
-122 -3 -3 -18 4 -34 16 -42 29 -76 27 -91 -5 -13 -29 -17 -153 -6 -197 10
-38 45 -45 91 -18 20 12 39 19 43 16 3 -4 6 -707 6 -1563 l0 -1557 -310 -1
c-231 -1 -316 2 -335 12 -33 16 -66 53 -76 84 -4 14 -8 772 -8 1685 l-1 1660
130 0 130 0 61 -38z m1271 30 c8 -8 7 -596 -1 -605 -3 -2 -22 5 -42 17 -44 26
-79 21 -90 -12 -11 -35 -13 -145 -3 -179 16 -56 30 -63 77 -39 23 12 46 21 52
21 7 0 10 -287 10 -910 0 -500 -3 -910 -6 -910 -4 0 -22 9 -41 21 -38 24 -76
20 -88 -8 -12 -29 -15 -149 -5 -185 17 -56 31 -63 78 -39 23 12 46 21 52 21 6
0 10 -51 10 -145 0 -87 -4 -145 -10 -145 -5 0 -28 10 -51 22 l-42 22 -18 -22
c-33 -41 -36 -185 -5 -234 14 -23 33 -23 74 2 18 11 37 20 42 20 6 0 10 -32
10 -73 l0 -74 -420 0 c-297 0 -420 3 -421 11 0 6 -2 709 -2 1563 -2 1247 -5
1555 -15 1565 -10 10 -21 8 -55 -10 -23 -12 -47 -22 -53 -22 -17 0 -24 35 -24
117 0 110 9 120 73 83 37 -22 66 -18 68 9 2 18 7 88 8 111 1 13 53 15 415 15
228 0 418 -4 423 -8z m1296 -541 c-1 -32 -4 -61 -7 -63 -2 -3 -22 6 -43 18
-68 39 -95 6 -95 -116 1 -71 12 -118 32 -130 6 -3 31 3 56 15 25 12 48 19 52
15 9 -8 9 -462 0 -471 -4 -3 -22 3 -41 15 -44 27 -63 27 -82 -3 -18 -28 -22
-165 -6 -208 15 -39 27 -42 77 -18 25 12 48 19 52 15 8 -8 9 -462 1 -470 -3
-3 -24 5 -46 17 -69 38 -94 6 -94 -117 0 -77 12 -122 35 -131 8 -3 33 4 55 17
23 12 44 19 48 15 4 -4 7 -78 8 -164 l0 -157 -636 -3 -635 -2 0 836 c0 800 -1
837 -19 850 -16 12 -24 11 -56 -8 -43 -24 -68 -19 -70 14 -5 90 -1 159 11 178
8 13 15 12 49 -7 22 -13 47 -23 55 -23 19 0 33 50 30 107 l-2 43 636 -2 637
-3 -2 -59z m1887 -261 l0 -325 -932 2 -933 3 0 168 c0 129 -4 170 -14 176 -17
11 -47 3 -62 -15 -16 -19 -55 -18 -63 2 -12 31 -6 170 8 189 13 18 14 18 50
-3 66 -39 78 -30 81 62 2 34 3 62 4 64 1 1 420 2 931 2 l930 0 0 -325z m1350
-670 l0 -325 -1605 0 c-883 0 -1605 3 -1606 8 0 4 -1 78 -2 164 -2 192 -7 201
-80 163 l-47 -26 -10 26 c-15 38 -12 168 3 189 12 17 15 17 61 -6 44 -21 49
-22 60 -6 7 10 12 44 12 78 l-1 60 1608 0 1607 0 0 -325z m2201 -357 c1 -18 1
-555 0 -600 l-1 -38 -2705 0 c-2157 0 -2705 3 -2706 13 0 6 -1 80 -2 164 -2
126 -5 155 -18 169 -16 15 -20 14 -63 -11 l-46 -27 -10 27 c-15 39 -13 168 4
190 13 18 14 18 50 -3 66 -39 78 -29 82 63 2 33 3 61 3 63 1 1 1218 2 2706 2
2157 0 2705 -3 2706 -12z m-5976 -878 c0 -118 -1 -222 -3 -230 -2 -12 -21 -15
-105 -14 -56 1 -220 3 -363 3 l-261 1 0 71 c0 94 -14 110 -70 78 -66 -37 -76
-25 -75 91 0 71 2 84 12 100 8 13 15 12 49 -7 70 -40 82 -29 83 72 l1 55 366
-2 365 -3 1 -215z m-230 -495 l0 -230 -250 0 -250 0 -1 45 c-1 25 -2 60 -3 78
-1 44 -23 50 -78 23 -25 -12 -48 -20 -50 -17 -21 21 -23 187 -2 212 9 11 20 9
57 -11 60 -32 73 -21 73 61 0 32 5 62 11 65 6 4 119 6 252 5 l241 -1 0 -230z"/>
<path d="M1246 7935 c4 -8 10 -12 15 -9 14 8 10 24 -6 24 -9 0 -12 -6 -9 -15z"/>
<path d="M1550 7913 c0 -29 -3 -34 -12 -25 -17 17 -53 15 -69 -5 -21 -25 -23
-80 -5 -109 17 -25 59 -33 72 -13 4 8 9 7 15 -2 16 -26 24 7 23 93 -2 100 -2
98 -14 98 -5 0 -10 -17 -10 -37z m-12 -45 c29 -29 3 -103 -34 -97 -14 3 -20
14 -22 43 -2 21 -1 44 2 52 7 17 38 18 54 2z"/>
<path d="M1610 7934 c0 -8 5 -12 10 -9 6 3 10 10 10 16 0 5 -4 9 -10 9 -5 0
-10 -7 -10 -16z"/>
<path d="M2570 7934 c0 -8 5 -12 10 -9 6 3 10 10 10 16 0 5 -4 9 -10 9 -5 0
-10 -7 -10 -16z"/>
<path d="M2913 7850 c0 -78 3 -100 13 -100 11 0 14 22 14 100 0 78 -3 100 -14
100 -10 0 -13 -22 -13 -100z"/>
<path d="M3670 7940 c0 -5 7 -10 15 -10 8 0 15 5 15 10 0 6 -7 10 -15 10 -8 0
-15 -4 -15 -10z"/>
<path d="M326 7918 c-9 -33 -8 -38 9 -38 10 0 14 9 12 30 -2 35 -12 39 -21 8z"/>
<path d="M370 7910 c0 -16 5 -30 10 -30 6 0 10 14 10 30 0 17 -4 30 -10 30 -5
0 -10 -13 -10 -30z"/>
<path d="M610 7845 l0 -95 59 0 c33 0 63 5 66 10 4 6 -13 10 -44 10 l-51 0 0
85 c0 69 -3 85 -15 85 -12 0 -15 -17 -15 -95z"/>
<path d="M920 7921 c0 -13 -7 -21 -16 -21 -13 0 -14 -3 -5 -14 7 -8 12 -34 12
-58 0 -24 3 -51 5 -60 6 -19 39 -24 49 -8 3 6 -1 10 -9 10 -13 0 -16 12 -16
55 0 46 3 55 18 55 16 1 16 1 0 14 -10 7 -18 18 -18 24 0 6 -4 14 -10 17 -5 3
-10 -3 -10 -14z"/>
<path d="M1069 7923 c-1 -10 -1 -52 -2 -93 l-1 -75 56 -3 c41 -2 60 1 72 13
20 21 21 59 1 75 -11 9 -13 16 -5 24 17 17 11 55 -9 66 -11 5 -40 10 -65 10
-37 0 -46 -4 -47 -17z m96 -19 c21 -22 3 -44 -37 -44 -30 0 -44 19 -34 45 7
20 50 19 71 -1z m13 -76 c6 -8 6 -22 1 -36 -7 -19 -15 -23 -45 -20 -33 3 -37
6 -40 36 -4 31 -3 32 35 32 21 0 43 -6 49 -12z"/>
<path d="M2130 7845 l0 -95 60 0 c33 0 60 4 60 10 0 6 -20 10 -45 10 -25 0
-45 5 -46 10 0 6 -1 44 -2 85 -1 55 -4 75 -14 75 -10 0 -13 -23 -13 -95z"/>
<path d="M3066 7921 c-28 -31 -6 -68 48 -82 57 -14 73 -31 51 -53 -21 -20 -54
-20 -83 0 -25 17 -38 13 -29 -10 7 -18 59 -30 103 -22 26 5 35 13 40 33 10 37
-6 56 -54 68 -49 12 -65 26 -56 48 8 21 57 23 74 3 6 -8 19 -12 27 -9 14 5 13
9 -7 25 -30 24 -92 24 -114 -1z"/>
<path d="M782 7892 c-33 -22 -32 -113 1 -134 20 -13 64 -9 77 7 18 21 6 29
-19 13 -24 -15 -54 -2 -59 26 -3 13 6 16 47 16 47 0 51 2 51 23 0 44 -59 73
-98 49z m68 -32 c10 -18 8 -20 -30 -20 -41 0 -49 7 -28 28 18 18 46 14 58 -8z"/>
<path d="M1245 7825 c-1 -55 3 -75 12 -75 9 0 13 21 13 75 0 53 -4 75 -13 75
-8 0 -12 -22 -12 -75z"/>
<path d="M1307 7893 c-9 -19 -1 -137 11 -141 8 -2 12 12 12 50 0 56 12 78 42
78 21 0 20 3 24 -69 3 -51 9 -70 19 -60 11 11 7 119 -5 134 -15 18 -51 20 -68
3 -9 -9 -12 -9 -12 0 0 13 -16 16 -23 5z"/>
<path d="M1609 7865 c0 -19 -1 -52 -1 -72 -1 -20 4 -39 10 -41 12 -4 14 11 14
83 1 53 -2 65 -12 65 -5 0 -10 -16 -11 -35z"/>
<path d="M1670 7823 c0 -55 3 -73 14 -73 10 0 13 14 12 50 -1 55 13 84 41 78
15 -3 19 -15 21 -66 2 -46 7 -62 17 -62 11 0 15 14 15 56 0 81 -10 94 -70 91
l-50 -2 0 -72z"/>
<path d="M1830 7885 c-19 -23 -21 -86 -4 -112 16 -25 53 -30 72 -11 9 9 12 8
12 -4 0 -43 -31 -63 -57 -37 -6 6 -17 9 -23 7 -20 -6 17 -38 44 -38 49 0 60
20 62 119 1 71 -2 91 -12 91 -8 0 -14 -5 -14 -12 0 -9 -3 -9 -12 0 -17 17 -53
15 -68 -3z m68 -17 c7 -7 12 -26 12 -43 0 -34 -15 -55 -41 -55 -19 0 -29 20
-29 55 0 51 29 72 58 43z"/>
<path d="M2286 7878 c-37 -53 -9 -128 48 -128 19 0 39 7 46 15 16 20 5 32 -14
16 -23 -19 -60 -10 -64 17 -3 20 0 22 48 22 52 0 52 0 46 28 -13 53 -81 72
-110 30z m74 -2 c0 -2 3 -11 6 -20 5 -13 -1 -16 -30 -16 -34 0 -47 15 -29 33
7 8 53 10 53 3z"/>
<path d="M2420 7895 c0 -3 10 -19 21 -35 l22 -29 -22 -36 c-24 -41 -25 -45
-11 -45 6 0 19 14 29 31 l19 31 18 -31 c10 -17 24 -31 32 -31 14 0 11 7 -19
51 -18 25 -17 27 7 62 29 44 11 51 -22 10 l-22 -28 -13 28 c-10 23 -39 39 -39
22z"/>
<path d="M2565 7825 c0 -54 3 -75 12 -75 9 0 13 21 13 75 0 54 -4 75 -13 75
-9 0 -12 -21 -12 -75z"/>
<path d="M2637 7882 c-10 -11 -17 -35 -17 -59 0 -48 25 -76 66 -71 28 3 54 31
40 45 -4 4 -12 0 -17 -10 -26 -45 -73 -2 -62 57 7 35 26 43 58 22 19 -13 25
-13 25 -3 0 37 -65 51 -93 19z"/>
<path d="M2774 7883 c-12 -12 -13 -18 -4 -21 6 -2 17 1 23 7 16 16 44 13 51
-5 9 -24 9 -24 -29 -24 -44 0 -73 -36 -55 -70 9 -16 19 -20 42 -18 39 4 48 24
11 23 -21 0 -28 5 -28 20 0 15 8 21 34 23 28 3 33 1 27 -13 -8 -21 10 -55 29
-55 16 0 20 12 8 24 -5 4 -9 28 -10 53 -1 24 -7 51 -14 59 -16 19 -64 18 -85
-3z"/>
<path d="M3246 7884 c-36 -36 -26 -116 16 -130 28 -8 65 3 72 22 10 26 -2 29
-25 9 -29 -27 -54 -9 -54 40 0 48 25 68 53 41 24 -21 39 -5 16 18 -20 20 -58
20 -78 0z"/>
<path d="M3374 7875 c-12 -18 -15 -37 -11 -63 15 -92 127 -81 127 13 0 46 -25
75 -65 75 -26 0 -39 -6 -51 -25z m86 -25 c10 -40 -3 -75 -30 -78 -26 -4 -40
12 -40 50 0 44 10 59 38 56 18 -2 28 -11 32 -28z"/>
<path d="M3520 7795 c0 -83 3 -105 14 -105 9 0 13 11 11 34 -2 33 -1 34 29 30
17 -3 37 -1 44 4 21 14 30 65 18 102 -9 28 -17 36 -39 38 -16 2 -36 -3 -45
-10 -11 -9 -14 -10 -8 0 4 7 1 12 -8 12 -14 0 -16 -17 -16 -105z m85 75 c24
-39 9 -100 -25 -100 -32 0 -44 46 -25 98 5 14 41 16 50 2z"/>
<path d="M3670 7826 c0 -55 4 -76 13 -76 18 0 17 142 0 148 -10 3 -13 -16 -13
-72z"/>
<path d="M3733 7825 c1 -55 4 -75 14 -75 9 0 13 16 13 53 0 55 12 77 42 77 18
0 20 -6 21 -92 0 -25 5 -38 14 -38 9 0 13 17 13 63 0 67 -10 87 -45 87 -12 0
-26 -5 -33 -12 -9 -9 -12 -9 -12 0 0 7 -6 12 -14 12 -10 0 -13 -18 -13 -75z"/>
<path d="M3896 7884 c-15 -14 -18 -28 -18 -69 0 -38 4 -46 27 -57 19 -8 31 -8
50 0 28 13 29 13 15 -22 -10 -27 -38 -34 -57 -15 -6 6 -17 9 -23 7 -22 -7 19
-38 49 -38 48 0 61 26 61 123 0 72 -3 87 -16 87 -8 0 -12 -5 -8 -11 5 -8 1 -8
-14 0 -28 15 -48 14 -66 -5z m62 -16 c17 -17 15 -73 -4 -89 -24 -20 -49 1 -50
42 -2 52 26 75 54 47z"/>
<path d="M1983 7750 c2 -17 6 -33 9 -36 8 -7 20 45 13 56 -13 20 -25 9 -22
-20z"/>
<path d="M880 7380 c0 -11 4 -20 9 -20 11 0 22 26 14 34 -12 12 -23 5 -23 -14z"/>
<path d="M937 7392 c-9 -2 -15 -8 -12 -13 8 -12 175 -12 175 1 0 6 -10 10 -22
11 -75 4 -125 4 -141 1z"/>
<path d="M876 7342 c-2 -4 -1 -14 4 -21 10 -17 31 -5 23 14 -6 16 -19 20 -27
7z"/>
<path d="M925 7328 c4 -9 28 -13 78 -11 98 2 97 2 97 13 0 6 -37 10 -90 10
-67 0 -88 -3 -85 -12z"/>
<path d="M1676 7444 c-30 -30 -16 -46 15 -18 22 20 59 10 59 -17 0 -10 -23
-41 -50 -69 -28 -28 -48 -55 -45 -60 8 -13 125 -13 125 0 0 6 -20 10 -45 10
-25 0 -45 3 -45 8 0 4 20 27 45 50 25 23 45 50 45 61 0 43 -72 68 -104 35z"/>
<path d="M1825 7446 c-25 -18 -25 -74 1 -93 11 -9 32 -12 50 -10 27 5 31 3 27
-13 -9 -34 -31 -45 -58 -30 -31 16 -47 4 -21 -16 56 -41 106 2 106 90 0 72
-54 109 -105 72z m59 -12 c22 -8 21 -63 0 -71 -36 -13 -68 33 -44 62 14 17 21
18 44 9z"/>
<path d="M1976 7444 c-31 -30 -16 -46 16 -17 15 13 23 14 43 5 30 -14 24 -39
-11 -48 -30 -8 -31 -22 -3 -26 31 -4 46 -32 30 -52 -19 -22 -47 -20 -65 6 -14
20 -16 20 -22 3 -14 -37 61 -61 100 -32 24 17 24 64 1 81 -16 12 -16 13 -1 19
22 9 20 54 -3 67 -29 15 -67 12 -85 -6z"/>
<path d="M342 7381 l23 -40 -23 -30 c-12 -17 -22 -33 -22 -36 0 -8 30 -6 30 3
0 4 7 16 16 27 14 19 15 19 38 -10 32 -39 45 -25 15 16 l-23 32 22 39 c17 28
19 38 9 38 -7 0 -20 -11 -27 -25 -7 -14 -16 -25 -20 -25 -4 0 -13 11 -20 25
-7 14 -20 25 -27 25 -10 0 -8 -11 9 -39z"/>
<path d="M249 6327 c-31 -23 -39 -56 -39 -152 0 -93 1 -98 29 -126 l29 -29
190 0 c187 0 189 0 216 25 14 13 27 30 27 37 6 61 3 178 -4 201 -18 53 -34 57
-242 57 -134 -1 -195 -4 -206 -13z m412 -26 c22 -17 23 -26 23 -121 0 -144 7
-140 -228 -140 -232 0 -226 -4 -226 140 0 144 -6 140 226 140 163 0 184 -2
205 -19z"/>
<path d="M340 6270 c-6 -11 -7 -20 -3 -20 4 0 2 -4 -6 -9 -9 -6 -10 -14 -5
-22 5 -8 9 -38 9 -68 0 -34 5 -56 13 -59 9 -3 12 14 12 62 0 52 3 66 15 66 8
0 15 5 15 10 0 6 -7 10 -15 10 -8 0 -15 5 -15 10 0 6 7 13 15 16 22 9 18 24
-5 24 -10 0 -24 -9 -30 -20z"/>
<path d="M817 6206 c-6 -16 19 -30 28 -16 7 11 -2 30 -15 30 -4 0 -10 -6 -13
-14z"/>
<path d="M870 6212 c-6 -2 -8 -8 -4 -13 7 -12 174 -12 174 1 0 6 -6 10 -12 11
-43 3 -149 4 -158 1z"/>
<path d="M823 6162 c-8 -5 -9 -13 -3 -22 6 -10 13 -11 19 -5 13 13 -1 36 -16
27z"/>
<path d="M867 6149 c7 -7 42 -11 80 -11 90 0 93 0 93 12 0 6 -37 10 -92 10
-68 0 -89 -3 -81 -11z"/>
<path d="M1600 6975 c0 -3 9 -14 20 -25 26 -26 25 -39 -5 -102 -27 -57 -30
-68 -15 -68 5 0 20 23 33 51 l23 50 18 -50 c10 -28 22 -51 27 -51 14 0 11 20
-12 80 -36 96 -50 120 -70 120 -11 0 -19 -2 -19 -5z"/>
<path d="M1595 6520 c-3 -5 1 -10 9 -10 9 0 16 5 16 10 0 6 -4 10 -9 10 -6 0
-13 -4 -16 -10z"/>
<path d="M1596 6472 c-3 -6 -1 -14 5 -17 15 -10 25 3 12 16 -7 7 -13 7 -17 1z"/>
<path d="M1596 6402 c-3 -6 -1 -14 5 -17 15 -10 25 3 12 16 -7 7 -13 7 -17 1z"/>
<path d="M1596 6342 c-3 -6 -1 -14 5 -17 15 -10 25 3 12 16 -7 7 -13 7 -17 1z"/>
<path d="M1657 5541 c-16 -17 -16 -19 5 -37 19 -16 21 -17 15 -2 -5 15 3 18
61 21 l67 3 -67 2 c-55 2 -66 5 -62 17 8 19 3 18 -19 -4z"/>
<path d="M2579 6560 c-3 -90 -6 -130 -10 -135 -3 -3 -24 5 -46 17 -71 39 -97
4 -91 -128 2 -63 7 -87 22 -103 l18 -20 48 24 49 25 5 -28 c3 -15 5 -45 5 -67
-1 -22 0 -48 0 -57 1 -17 26 -18 371 -18 l370 0 0 253 0 252 -370 0 c-322 0
-370 -2 -371 -15z m721 -240 l0 -230 -350 0 -350 0 -1 53 c-1 116 -12 131 -75
97 -45 -25 -46 -25 -60 -6 -19 27 -19 165 0 191 13 19 15 18 60 -5 62 -34 74
-21 75 83 l1 47 350 0 350 0 0 -230z"/>
<path d="M2714 6468 c-34 -16 -44 -52 -44 -154 0 -92 1 -97 29 -125 l29 -29
221 0 c216 0 220 0 247 24 27 22 28 27 29 132 2 106 1 109 -26 136 l-27 28
-219 -1 c-128 0 -227 -5 -239 -11z m474 -32 c15 -20 18 -40 17 -120 -1 -143
11 -136 -255 -136 -271 0 -260 -6 -260 140 0 146 -11 140 261 140 l218 0 19
-24z"/>
<path d="M2804 6343 c24 -35 25 -37 7 -62 -30 -44 -33 -51 -19 -51 8 0 22 14
32 31 l19 31 19 -31 c11 -17 26 -31 34 -31 10 0 7 11 -12 40 l-26 39 22 31
c29 40 16 54 -15 16 l-23 -29 -17 27 c-10 14 -24 26 -32 26 -10 0 -7 -10 11
-37z"/>
<path d="M3944 6571 c-2 -2 -4 -37 -4 -78 0 -40 -3 -73 -7 -73 -5 0 -21 9 -38
20 -39 26 -71 25 -85 -1 -19 -34 -23 -149 -8 -194 16 -48 43 -56 93 -27 18 11
36 18 39 15 3 -4 6 -42 6 -85 l0 -78 425 0 425 0 0 253 0 252 -421 0 c-231 0
-422 -2 -425 -4z m826 -251 l0 -230 -405 0 -405 0 0 74 c0 95 -10 105 -74 74
-63 -30 -70 -21 -70 92 1 113 8 123 69 91 61 -32 75 -20 75 65 l0 64 405 0
405 0 0 -230z"/>
<path d="M4183 6351 c-24 -38 -43 -71 -43 -75 0 -3 20 -6 45 -6 38 0 45 -3 45
-20 0 -11 7 -20 16 -20 8 0 13 4 9 9 -3 5 2 17 12 26 13 14 14 18 2 25 -9 6
-14 28 -14 67 0 81 -19 80 -72 -6z m44 -58 c-3 -2 -17 -3 -31 -1 l-25 3 27 42
27 43 3 -41 c2 -23 1 -43 -1 -46z"/>
<path d="M4337 6353 c-25 -36 -44 -70 -41 -75 3 -4 23 -8 45 -8 36 0 44 -7 40
-32 0 -5 6 -8 14 -8 8 0 15 9 15 20 0 12 7 20 18 20 16 1 16 1 0 14 -14 10
-18 28 -18 75 0 80 -14 79 -73 -6z m47 -26 c-1 -12 -3 -25 -3 -29 -1 -5 -15
-8 -31 -8 l-30 0 26 40 c27 41 43 40 38 -3z"/>
<path d="M4475 6400 c-27 -29 -27 -120 -1 -149 24 -26 60 -27 86 -1 21 21 23
32 20 90 -4 73 -63 107 -105 60z m78 -37 c20 -69 -18 -136 -58 -103 -19 15
-20 111 -3 128 22 22 52 10 61 -25z"/>
<path d="M2020 6330 c0 -75 3 -100 13 -100 9 0 13 25 13 100 0 75 -3 100 -13
100 -10 0 -13 -25 -13 -100z"/>
<path d="M2245 6405 c-5 -11 -13 -23 -19 -27 -8 -6 -8 -10 -1 -15 6 -5 10 -30
10 -58 -2 -55 8 -75 36 -75 23 0 25 16 4 24 -11 4 -15 20 -15 56 0 41 3 50 18
50 16 1 16 2 1 13 -9 7 -19 21 -21 32 -5 20 -5 20 -13 0z"/>
<path d="M2097 6366 c-32 -24 -27 -105 7 -128 19 -13 63 -9 76 7 18 21 6 29
-19 13 -24 -15 -54 -2 -59 26 -3 13 6 16 47 16 47 0 51 2 51 23 0 48 -62 73
-103 43z m73 -26 c10 -18 8 -20 -30 -20 -41 0 -49 7 -28 28 18 18 46 14 58 -8z"/>
<path d="M3510 6360 c0 -6 28 -10 65 -10 37 0 65 4 65 10 0 6 -28 10 -65 10
-37 0 -65 -4 -65 -10z"/>
<path d="M3510 6290 c0 -6 28 -10 65 -10 37 0 65 4 65 10 0 6 -28 10 -65 10
-37 0 -65 -4 -65 -10z"/>
<path d="M3400 5761 c0 -39 -5 -73 -10 -76 -6 -4 -25 3 -44 14 -45 28 -63 26
-81 -9 -31 -60 -11 -240 27 -240 7 0 30 9 51 20 21 11 42 18 47 15 6 -4 10
-42 10 -86 l0 -79 370 0 370 0 0 255 0 255 -370 0 -370 0 0 -69z m720 -186 l0
-232 -350 0 -350 -1 0 62 c0 111 -14 125 -87 86 -26 -14 -40 -17 -48 -9 -5 5
-10 53 -10 105 0 114 8 125 70 89 60 -36 73 -22 74 81 l1 50 350 1 350 0 0
-232z"/>
<path d="M3539 5723 c-39 -16 -49 -47 -49 -149 0 -92 15 -138 50 -149 28 -9
430 -10 458 -1 37 12 52 56 51 148 -1 106 -5 123 -37 145 -24 15 -54 17 -235
18 -144 0 -218 -3 -238 -12z m468 -31 c24 -21 25 -26 21 -122 -2 -75 -7 -103
-19 -116 -15 -14 -44 -16 -210 -16 -107 1 -206 1 -221 1 -53 2 -68 30 -68 132
0 95 9 126 41 137 11 4 112 7 225 7 198 0 206 -1 231 -23z"/>
<path d="M3624 5593 c24 -35 25 -37 7 -62 -30 -44 -33 -51 -19 -51 8 0 22 14
32 31 l18 31 19 -31 c10 -17 26 -31 35 -31 13 0 11 7 -10 34 -31 41 -31 44 -6
76 23 30 25 40 7 40 -8 0 -19 -12 -26 -27 l-13 -28 -22 28 c-33 41 -51 34 -22
-10z"/>
<path d="M4759 5828 c0 -2 -2 -33 -3 -70 -2 -38 -5 -71 -9 -74 -3 -4 -22 3
-42 15 -47 27 -61 27 -81 -4 -23 -35 -17 -206 8 -232 17 -16 20 -16 64 5 26
13 49 21 52 18 2 -3 6 -36 8 -73 1 -37 3 -74 3 -80 1 -10 62 -13 271 -13 l270
0 0 255 0 255 -270 0 c-148 0 -270 -1 -271 -2z m521 -253 l0 -232 -250 0 -250
0 -1 26 c-2 91 -7 121 -18 135 -12 14 -18 13 -59 -9 -44 -23 -48 -24 -59 -8
-16 21 -17 166 -3 194 11 19 11 19 50 -1 22 -11 46 -20 54 -20 19 0 36 30 34
61 0 13 0 38 1 55 l1 31 250 0 250 0 0 -232z"/>
<path d="M4984 5649 c-26 -28 -25 -120 1 -149 36 -40 91 -18 104 40 21 97 -50
170 -105 109z m64 -8 c18 -11 26 -80 13 -113 -12 -33 -45 -37 -61 -9 -22 42
-6 131 23 131 7 0 18 -4 25 -9z"/>
<path d="M5920 5755 c0 -41 -4 -75 -9 -75 -6 0 -26 9 -45 21 -21 12 -43 18
-55 14 -55 -17 -44 -265 12 -265 6 0 27 9 45 20 18 11 37 20 42 20 5 0 10 -37
12 -82 l3 -83 273 -3 272 -2 0 255 0 255 -275 0 -275 0 0 -75z m525 -180 l0
-230 -250 -1 -250 -1 -2 75 c-2 99 -13 110 -75 77 -62 -33 -70 -22 -70 90 0
110 8 121 67 93 49 -24 75 -19 76 14 1 35 7 113 8 114 0 1 112 1 249 0 l247
-1 0 -230z"/>
<path d="M6162 5650 c-12 -10 -18 -21 -13 -24 5 -4 12 -2 16 4 15 24 22 6 24
-60 2 -69 2 -70 -23 -70 -15 0 -26 -4 -26 -10 0 -6 27 -10 60 -10 58 0 84 15
38 22 -21 3 -23 8 -24 73 -1 39 -2 76 -3 83 -2 17 -22 14 -49 -8z"/>
<path d="M7090 5761 c0 -39 -5 -73 -10 -76 -6 -4 -25 3 -44 14 -47 30 -65 27
-82 -14 -26 -64 -12 -219 22 -232 7 -3 32 4 55 16 22 12 45 19 50 16 5 -4 9
-42 9 -86 l0 -79 273 2 272 3 1 253 1 252 -273 0 -274 0 0 -69z m525 -171 c1
-118 -1 -223 -3 -232 -4 -15 -28 -16 -253 -15 l-249 0 0 73 c0 99 -13 112 -77
78 -27 -14 -50 -21 -55 -16 -16 16 -20 157 -6 191 l13 32 40 -21 c73 -37 85
-27 85 69 l0 58 252 -1 253 -1 0 -215z"/>
<path d="M7320 5650 c-15 -15 -20 -33 -20 -75 0 -61 22 -95 63 -95 28 0 41 9
56 37 21 40 8 126 -22 145 -22 14 -57 8 -77 -12z m69 -14 c18 -21 16 -105 -2
-123 -20 -20 -57 -8 -59 20 -4 56 2 101 14 108 19 13 34 11 47 -5z"/>
<path d="M4380 5659 c0 -12 -11 -32 -25 -45 -19 -17 -25 -33 -25 -63 0 -30 6
-44 25 -59 16 -12 25 -30 25 -47 0 -17 5 -25 13 -22 6 2 12 12 12 23 0 10 13
31 28 46 39 39 33 128 -8 128 -15 0 -18 8 -18 43 0 9 -6 17 -13 17 -8 0 -14
-10 -14 -21z m0 -111 c-1 -48 -2 -51 -15 -34 -8 10 -13 28 -10 40 2 12 4 27 4
34 1 6 6 12 11 12 6 0 10 -24 10 -52z m52 30 c6 -31 -5 -70 -17 -66 -10 3 -15
65 -8 81 8 14 21 7 25 -15z"/>
<path d="M2624 5632 c-15 -10 -34 -47 -34 -66 0 -29 18 -17 30 19 6 19 15 33
20 30 5 -3 16 -30 24 -59 16 -53 33 -70 60 -60 13 5 36 54 36 76 0 19 -25 1
-30 -23 -9 -38 -33 -29 -45 17 -10 40 -30 74 -44 74 -3 0 -11 -4 -17 -8z"/>
<path d="M6719 5635 c-1 -5 -3 -14 -4 -20 -2 -5 -3 -16 -4 -22 0 -7 -12 -13
-26 -13 -34 0 -32 -18 3 -22 23 -2 27 -8 26 -31 -1 -16 3 -26 10 -24 6 2 11
16 10 30 0 23 4 27 28 27 15 0 28 5 28 10 0 6 -14 10 -31 10 -16 0 -28 4 -25
9 4 5 2 20 -3 33 -6 12 -11 19 -12 13z"/>
<path d="M2980 5622 c0 -16 40 -126 50 -136 22 -22 70 57 70 115 0 46 -25 35
-27 -11 -3 -44 -20 -86 -31 -75 -4 4 -14 30 -23 58 -9 28 -21 53 -27 55 -7 2
-12 -1 -12 -6z"/>
<path d="M5500 5623 c0 -4 9 -16 20 -28 l20 -22 -20 -23 c-26 -30 -26 -44 0
-28 11 7 20 16 20 20 0 15 27 8 45 -12 10 -11 22 -17 27 -14 5 3 0 16 -11 28
-25 27 -26 34 -4 58 24 27 7 35 -20 10 l-24 -22 -18 20 c-18 20 -35 26 -35 13z"/>
<path d="M236 4554 c-25 -25 -26 -32 -26 -130 0 -94 2 -105 24 -131 l24 -28
237 0 237 0 24 28 c22 26 24 37 24 131 0 98 -1 105 -26 130 l-27 26 -232 0
-232 0 -27 -26z m504 -14 c17 -17 20 -33 20 -119 0 -137 -1 -138 -190 -139
-108 -1 -139 2 -133 11 4 7 8 51 10 100 1 70 -1 87 -13 87 -8 0 -14 -5 -14
-12 0 -9 -3 -9 -12 0 -16 16 -53 15 -67 -2 -20 -23 -23 -87 -6 -113 17 -25 53
-31 73 -11 9 9 12 8 12 -4 0 -29 -12 -48 -30 -48 -11 0 -22 5 -25 10 -9 15
-35 12 -29 -4 8 -20 -61 -14 -86 9 -17 16 -20 30 -20 117 0 145 -13 138 265
138 212 0 226 -1 245 -20z m-332 -92 c16 -16 16 -70 0 -86 -17 -17 -45 -15
-52 4 -16 42 0 94 29 94 6 0 16 -5 23 -12z"/>
<path d="M890 4442 c0 -10 7 -19 15 -19 8 0 15 9 15 19 0 10 -7 18 -15 18 -8
0 -15 -8 -15 -18z"/>
<path d="M940 4443 c0 -10 24 -13 85 -13 61 0 85 3 85 13 0 9 -24 12 -85 12
-61 0 -85 -3 -85 -12z"/>
<path d="M903 4403 c-18 -7 -16 -33 2 -33 8 0 15 9 15 20 0 11 -1 20 -2 19 -2
0 -9 -3 -15 -6z"/>
<path d="M940 4390 c0 -11 7 -12 90 -12 75 0 80 1 80 12 0 6 -35 10 -85 10
-50 0 -85 -4 -85 -10z"/>
<path d="M1680 5090 c0 -5 4 -10 9 -10 5 0 14 -12 19 -27 7 -22 5 -37 -10 -66
-33 -67 -39 -87 -24 -87 7 0 21 20 30 45 10 25 21 45 26 45 4 0 13 -20 20 -45
7 -25 19 -45 26 -45 8 0 14 2 14 4 0 11 -64 172 -73 184 -11 14 -37 16 -37 2z"/>
<path d="M1682 4538 c-10 -37 -5 -87 10 -105 13 -16 42 -17 68 -3 13 7 21 7
25 0 9 -15 51 -12 65 5 27 32 15 135 -15 135 -9 0 -9 -13 -1 -50 8 -43 8 -53
-7 -67 -23 -24 -41 -5 -46 50 -2 19 -21 4 -21 -17 0 -13 -7 -30 -16 -37 -33
-27 -51 33 -29 101 4 14 2 20 -9 20 -9 0 -19 -14 -24 -32z"/>
<path d="M1735 3905 c-19 -15 -19 -16 4 -38 18 -17 22 -18 18 -5 -5 15 3 18
61 21 l67 3 -69 2 c-56 2 -67 5 -62 17 7 18 6 18 -19 0z"/>
<path d="M2418 4668 c-57 -11 -68 -37 -68 -152 0 -112 10 -138 57 -153 42 -13
424 -8 451 6 36 19 44 49 44 154 0 93 -2 101 -25 125 -25 25 -26 25 -226 26
-110 1 -215 -2 -233 -6z m429 -22 c29 -9 35 -31 35 -138 1 -135 10 -131 -254
-132 -270 -1 -262 -6 -260 139 2 99 9 121 44 134 23 8 408 6 435 -3z"/>
<path d="M2481 4530 l22 -39 -27 -36 c-19 -25 -23 -35 -12 -35 8 0 24 12 35
28 22 28 23 28 50 -17 4 -7 13 -12 20 -10 7 3 2 17 -13 40 l-25 36 25 37 c29
43 11 50 -22 9 l-22 -28 -13 28 c-7 15 -19 27 -26 27 -11 0 -9 -9 8 -40z"/>
<path d="M3290 4121 c0 -39 -5 -73 -10 -76 -6 -3 -23 3 -39 14 -34 25 -64 27
-81 6 -27 -32 -25 -201 4 -240 12 -17 15 -16 61 4 27 12 52 18 56 14 5 -5 9
-42 11 -83 l3 -75 355 -1 c195 0 361 2 368 4 9 3 12 63 12 253 l0 249 -370 0
-370 0 0 -69z m720 -181 c0 -126 -3 -231 -7 -231 -23 -4 -670 -4 -680 -1 -9 3
-13 26 -13 71 0 39 -5 75 -13 85 -12 17 -15 17 -61 -6 -46 -22 -48 -22 -61 -4
-17 23 -16 179 1 196 8 8 24 5 58 -12 47 -22 48 -23 62 -4 8 12 14 44 14 78
l0 58 350 0 350 0 0 -230z"/>
<path d="M3429 4086 c-36 -18 -49 -54 -49 -142 0 -96 12 -137 46 -153 34 -15
434 -15 468 0 38 18 48 56 44 164 -3 90 -5 98 -29 119 -26 22 -33 23 -242 24
-145 0 -222 -4 -238 -12z m467 -32 c22 -21 24 -32 24 -115 0 -81 -3 -96 -22
-116 -21 -23 -25 -23 -238 -23 -171 0 -220 3 -236 14 -16 12 -19 29 -21 116
-3 94 -1 103 21 124 22 23 26 24 236 24 210 0 213 0 236 -24z"/>
<path d="M3514 3953 c24 -35 25 -37 7 -62 -30 -44 -33 -51 -19 -51 8 0 22 14
32 31 l18 31 19 -31 c10 -17 26 -31 34 -31 12 0 9 9 -11 40 l-26 39 22 31 c29
40 16 54 -15 16 l-23 -29 -17 27 c-10 14 -24 26 -32 26 -10 0 -7 -10 11 -37z"/>
<path d="M4649 4188 c0 -2 -2 -33 -3 -71 -2 -37 -5 -70 -9 -73 -3 -3 -23 5
-44 17 -72 41 -97 5 -91 -133 4 -116 16 -130 83 -98 25 12 49 19 52 16 4 -4 7
-39 7 -79 1 -40 4 -74 8 -77 3 -3 125 -5 270 -5 l263 0 3 253 2 252 -270 0
c-148 0 -270 -1 -271 -2z m519 -250 l-3 -233 -245 0 -245 0 -3 40 c-5 82 -13
123 -26 128 -8 3 -30 -3 -50 -14 -47 -25 -62 -24 -70 4 -11 43 -6 163 8 182
13 18 14 18 50 -3 68 -40 83 -25 85 86 l1 42 250 0 250 0 -2 -232z"/>
<path d="M4874 4009 c-26 -29 -26 -120 1 -149 23 -26 59 -26 85 0 29 29 31
106 4 148 -19 29 -64 29 -90 1z m71 -10 c10 -15 16 -90 9 -111 -7 -22 -41 -33
-59 -18 -17 14 -20 92 -5 121 12 21 45 26 55 8z"/>
<path d="M5810 4115 c0 -41 -3 -75 -7 -75 -5 0 -21 9 -38 20 -44 29 -70 26
-86 -11 -25 -61 -17 -196 14 -226 13 -13 20 -12 55 6 23 12 46 21 52 21 6 0
10 -31 10 -79 0 -54 4 -80 13 -83 6 -2 129 -4 272 -4 l260 1 3 253 2 252 -275
0 -275 0 0 -75z m530 -174 c0 -174 -3 -230 -12 -233 -7 -2 -121 -3 -253 -3
l-240 1 -1 72 c-1 96 -16 114 -69 83 -47 -28 -63 -27 -71 5 -17 67 -5 194 18
194 5 0 26 -10 47 -22 64 -36 73 -24 74 95 l0 37 253 0 254 0 0 -229z"/>
<path d="M6052 4012 c-26 -20 -19 -36 9 -21 18 9 19 6 18 -61 -1 -67 -3 -70
-25 -70 -13 0 -24 -4 -24 -10 0 -6 27 -10 60 -10 33 0 60 4 60 10 0 6 -11 10
-24 10 -23 0 -24 3 -24 73 0 39 0 78 -1 85 -1 17 -22 15 -49 -6z"/>
<path d="M6980 4121 c0 -39 -5 -73 -10 -76 -6 -3 -24 3 -40 15 -68 49 -105 -4
-97 -138 3 -56 9 -78 24 -94 l20 -20 41 21 c23 12 46 21 52 21 6 0 10 -32 10
-83 l0 -82 273 0 272 0 2 253 1 252 -274 0 -274 0 0 -69z m525 -183 c0 -146
-3 -229 -10 -231 -9 -3 -468 -1 -487 2 -5 1 -8 32 -8 69 0 40 -5 75 -13 86
-12 17 -15 17 -60 -5 -64 -31 -72 -22 -72 91 0 110 9 123 64 92 69 -39 81 -29
81 69 l0 59 252 -2 253 -3 0 -227z"/>
<path d="M7210 4010 c-15 -15 -20 -33 -20 -75 0 -62 22 -95 64 -95 49 0 73 49
62 125 -10 65 -64 87 -106 45z m69 -14 c16 -19 16 -102 1 -121 -34 -41 -69 0
-64 74 4 56 36 80 63 47z"/>
<path d="M4270 4010 c0 -20 -5 -30 -15 -30 -20 0 -35 -32 -35 -74 0 -25 7 -40
25 -54 15 -12 25 -30 25 -46 0 -16 6 -26 14 -26 10 0 13 8 11 21 -3 14 6 31
25 49 45 42 39 115 -11 132 -6 2 -12 16 -12 31 -3 37 -27 35 -27 -3z m0 -102
c-1 -49 -2 -51 -15 -33 -15 19 -16 50 -2 73 14 21 17 14 17 -40z m52 3 c0 -17
-3 -35 -7 -41 -13 -22 -21 -8 -19 38 2 59 2 58 16 44 6 -6 11 -25 10 -41z"/>
<path d="M2514 3992 c-15 -10 -34 -47 -34 -68 0 -24 26 0 34 32 9 34 24 22 37
-31 6 -24 20 -52 30 -61 19 -17 21 -17 38 2 23 24 38 78 19 72 -7 -3 -15 -15
-18 -28 -10 -41 -28 -33 -46 22 -15 47 -29 68 -44 68 -3 0 -10 -4 -16 -8z"/>
<path d="M6609 3997 c-1 -4 -2 -17 -3 -29 -1 -17 -8 -24 -28 -26 -37 -4 -36
-22 1 -22 26 0 28 -3 25 -30 -2 -20 1 -30 10 -30 8 0 12 11 11 30 -2 27 1 30
27 30 36 0 37 18 1 22 -21 2 -28 8 -28 25 0 20 -13 45 -16 30z"/>
<path d="M2870 3984 c0 -26 46 -144 56 -144 22 0 56 60 62 106 4 36 2 44 -12
44 -9 0 -15 -7 -14 -17 3 -39 -3 -70 -16 -88 -12 -17 -15 -13 -33 40 -10 32
-25 61 -31 63 -7 2 -12 0 -12 -4z"/>
<path d="M5390 3983 c0 -4 9 -16 20 -28 l20 -22 -20 -23 c-11 -13 -20 -27 -20
-32 0 -14 37 10 44 28 6 15 10 14 34 -10 34 -31 52 -23 21 10 -21 22 -21 24
-5 49 23 35 12 44 -17 17 l-24 -22 -18 20 c-18 20 -35 26 -35 13z"/>
<path d="M340 1865 l0 -84 81 34 c44 19 83 35 85 35 2 0 4 7 4 15 0 8 -2 15
-4 15 -2 0 -41 16 -85 35 l-81 34 0 -84z m85 21 l50 -22 -50 -20 c-27 -10 -52
-18 -55 -16 -7 3 -8 82 -1 81 3 0 29 -10 56 -23z"/>
<path d="M1150 3439 c-38 -16 -70 -50 -70 -76 0 -14 4 -21 10 -18 6 3 10 15
10 26 0 28 58 61 95 54 32 -5 75 -46 75 -71 0 -8 4 -14 10 -14 10 0 6 19 -12
57 -8 17 -77 56 -91 52 -1 0 -13 -5 -27 -10z"/>
<path d="M1089 2213 c-1 -21 -1 -155 0 -199 1 -30 3 -31 41 -30 22 0 40 4 40
8 0 5 -6 8 -14 8 -12 0 -15 21 -15 109 1 91 3 109 15 104 8 -3 14 0 14 6 0 6
-17 11 -40 11 -31 0 -40 -4 -41 -17z m41 -109 c0 -86 -3 -104 -15 -104 -12 0
-15 18 -15 103 0 57 3 107 6 110 17 17 24 -13 24 -109z"/>
<path d="M1300 2220 c0 -5 6 -9 13 -7 9 1 13 -26 15 -105 2 -91 0 -108 -13
-108 -8 0 -15 -3 -15 -8 0 -4 18 -7 40 -7 45 0 41 -10 41 120 0 136 4 125 -41
125 -22 0 -40 -4 -40 -10z m69 -115 c-1 -78 -5 -105 -14 -105 -10 0 -13 26
-14 101 -1 55 1 105 5 110 15 26 24 -12 23 -106z"/>
<path d="M1220 2095 c0 -8 7 -15 15 -15 8 0 15 7 15 15 0 8 -7 15 -15 15 -8 0
-15 -7 -15 -15z"/>
<path d="M1086 906 c3 -8 12 -17 20 -20 20 -8 17 -30 -6 -51 -11 -10 -17 -22
-14 -27 3 -5 16 0 28 11 28 26 34 26 63 -1 29 -27 31 -6 2 23 l-21 21 23 24
c29 31 16 44 -15 15 l-24 -23 -21 21 c-24 24 -43 28 -35 7z"/>
<path d="M1130 420 c0 -27 -3 -30 -31 -30 -17 0 -28 -4 -24 -10 3 -5 17 -10
31 -10 20 0 24 -5 24 -30 0 -16 5 -30 10 -30 6 0 10 14 10 30 0 27 3 30 30 30
17 0 30 5 30 10 0 6 -13 10 -30 10 -27 0 -30 3 -30 30 0 17 -4 30 -10 30 -5 0
-10 -13 -10 -30z"/>
<path d="M1949 2927 c-11 -11 -18 -22 -15 -25 4 -3 12 3 20 13 10 14 26 19 65
19 28 0 51 4 51 8 0 16 -101 3 -121 -15z"/>
<path d="M2080 2942 c0 -5 7 -9 15 -9 8 0 15 4 15 9 0 4 -7 8 -15 8 -8 0 -15
-4 -15 -8z"/>
<path d="M2126 2941 c2 -3 15 -6 27 -8 32 -4 67 -25 61 -35 -3 -4 0 -8 5 -8
19 0 12 18 -15 39 -16 12 -39 20 -55 19 -15 -1 -26 -4 -23 -7z"/>
<path d="M2459 2883 c-3 -68 0 -215 5 -220 9 -9 76 -10 76 -1 0 4 -6 8 -14 8
-11 0 -14 21 -15 101 -1 86 1 104 16 115 16 12 13 13 -24 14 -34 0 -43 -4 -44
-17z m39 -108 c0 -85 -2 -105 -14 -105 -11 0 -14 20 -14 103 0 57 3 107 6 110
16 16 21 -10 22 -108z"/>
<path d="M2608 2882 c14 -14 17 -33 16 -107 -3 -113 -1 -105 -21 -105 -9 0
-13 -3 -9 -7 11 -11 75 -10 79 2 2 5 4 61 5 123 l1 112 -44 0 c-43 0 -44 -1
-27 -18z m56 -101 c-1 -96 -6 -122 -20 -108 -3 3 -6 47 -6 99 1 124 0 120 14
116 9 -3 12 -34 12 -107z"/>
<path d="M1923 2835 c1 -30 3 -55 7 -55 3 0 6 25 7 55 1 30 -2 55 -6 55 -5 0
-8 -25 -8 -55z"/>
<path d="M2221 2864 c2 -11 0 -25 -4 -31 -5 -7 -5 -13 0 -13 4 0 8 -20 8 -45
0 -25 -3 -45 -6 -45 -8 0 -4 -38 4 -46 8 -8 8 -2 10 109 1 44 -2 81 -6 84 -5
3 -7 -3 -6 -13z"/>
<path d="M2036 2828 c-18 -28 -16 -51 8 -77 17 -19 46 -19 46 1 0 5 -4 6 -10
3 -14 -8 -49 12 -46 27 5 33 28 60 47 55 10 -3 19 -1 19 4 0 19 -50 8 -64 -13z"/>
<path d="M2110 2828 c0 -10 4 -18 10 -18 5 0 6 -7 3 -17 -4 -11 -3 -14 5 -9
16 9 15 18 -3 42 -13 17 -14 17 -15 2z"/>
<path d="M1924 2730 c2 -41 35 -90 58 -90 7 0 0 13 -17 28 -24 21 -30 35 -29
65 1 20 -2 37 -7 37 -4 0 -6 -18 -5 -40z"/>
<path d="M2107 2763 c-12 -12 -7 -22 8 -17 8 4 15 10 15 15 0 11 -14 12 -23 2z"/>
<path d="M2180 2664 c-14 -8 -40 -13 -57 -11 -23 2 -33 -1 -33 -11 0 -7 4 -11
8 -8 5 3 27 6 50 7 24 2 44 9 47 17 2 7 10 10 16 6 8 -4 9 -3 5 4 -4 7 -8 12
-9 11 -1 -1 -13 -7 -27 -15z"/>
<path d="M2000 2648 c0 -5 11 -8 25 -8 14 0 25 3 25 8 0 4 -11 7 -25 7 -14 0
-25 -3 -25 -7z"/>
<path d="M2060 2650 c0 -5 5 -10 11 -10 5 0 7 5 4 10 -3 6 -8 10 -11 10 -2 0
-4 -4 -4 -10z"/>
<path d="M4060 2965 c0 -42 -4 -75 -10 -75 -5 0 -28 10 -50 21 l-42 22 -21
-22 c-19 -19 -22 -32 -22 -114 1 -134 22 -160 93 -117 18 11 37 18 43 15 5 -4
9 -42 9 -86 l0 -79 339 0 c262 0 340 3 343 13 3 10 2 465 -1 490 -1 4 -154 7
-341 7 l-340 0 0 -75z m660 9 c0 -24 1 -118 1 -209 0 -91 -1 -175 -1 -188 l0
-24 -320 0 -320 0 0 68 c0 37 -3 74 -6 83 -8 22 -36 20 -79 -5 -50 -30 -59
-18 -59 89 -1 117 8 130 71 96 62 -32 73 -22 73 66 l0 67 320 0 320 0 0 -43z"/>
<path d="M4239 2942 c-23 -2 -45 -12 -60 -28 -21 -23 -24 -34 -24 -123 0 -110
13 -148 53 -158 14 -3 101 -7 194 -7 239 -2 248 3 248 159 0 95 -9 129 -41
146 -20 10 -280 19 -370 11z m373 -42 c14 -18 18 -41 18 -117 0 -84 -2 -96
-22 -116 -22 -22 -29 -23 -193 -21 -93 1 -180 2 -192 3 -43 2 -53 54 -44 221
2 48 32 55 232 54 176 -2 184 -3 201 -24z"/>
<path d="M4293 2883 c-7 -2 -13 -13 -13 -23 0 -10 -6 -21 -12 -24 -10 -5 -10
-7 0 -12 8 -4 12 -28 12 -70 0 -47 4 -64 14 -64 10 0 13 16 12 64 -1 57 2 66
19 72 19 6 19 7 -2 11 -24 5 -21 33 4 33 8 0 11 5 8 10 -7 11 -22 12 -42 3z"/>
<path d="M3660 2880 c0 -5 4 -10 8 -10 5 0 14 -11 20 -25 10 -22 7 -34 -18
-87 -35 -71 -34 -68 -16 -68 7 0 22 24 33 53 l20 52 19 -52 c10 -29 24 -53 31
-53 7 0 13 1 13 3 0 11 -64 174 -72 184 -12 15 -38 17 -38 3z"/>
<path d="M3262 2807 c-28 -29 -28 -38 1 -65 27 -25 37 -28 37 -9 0 9 17 12 65
11 36 -1 67 2 70 7 4 5 -30 9 -79 9 -70 0 -86 3 -86 15 0 12 16 15 87 15 47 0
83 3 79 8 -4 4 -35 7 -69 8 -36 1 -63 6 -65 13 -6 17 -16 14 -40 -12z"/>
<path d="M3950 2295 c0 -42 -4 -75 -10 -75 -5 0 -27 9 -48 20 -65 34 -80 18
-89 -90 -6 -74 10 -148 34 -157 9 -4 33 3 54 15 21 12 43 22 48 22 7 0 11 -32
11 -85 l0 -85 380 0 380 0 0 255 0 255 -380 0 -380 0 0 -75z m738 -179 l-3
-231 -357 -1 -358 -1 0 68 c0 37 -3 74 -6 83 -8 22 -37 20 -76 -4 -18 -11 -36
-20 -40 -20 -15 0 -30 87 -24 143 8 87 12 90 71 61 46 -22 51 -23 63 -7 6 9
12 44 12 78 l0 62 360 0 360 0 -2 -231z"/>
<path d="M4097 2267 c-39 -13 -51 -45 -52 -142 -2 -105 7 -137 41 -156 36 -19
445 -20 485 -1 37 18 46 50 44 152 -3 156 2 154 -280 154 -118 1 -225 -2 -238
-7z m460 -21 c12 -4 25 -17 29 -29 11 -32 12 -179 1 -203 -14 -34 -42 -40
-181 -39 l-129 0 2 98 c1 63 -2 97 -8 97 -6 0 -11 -5 -11 -12 0 -9 -3 -9 -12
0 -17 17 -54 15 -72 -4 -18 -18 -21 -85 -6 -115 12 -21 41 -25 70 -9 16 9 18
7 15 -10 -2 -11 -7 -25 -10 -30 -9 -14 -38 -12 -54 3 -10 10 -14 9 -21 -4 -7
-11 -20 -15 -42 -13 -54 7 -62 23 -63 129 -1 113 5 132 45 142 37 10 417 9
447 -1z m-313 -104 c22 -37 8 -102 -23 -102 -32 0 -47 43 -31 86 9 23 43 33
54 16z"/>
<path d="M5249 2363 c0 -5 -2 -36 -3 -70 -1 -34 -5 -65 -9 -69 -4 -4 -27 4
-52 17 -43 23 -45 23 -62 6 -26 -26 -26 -218 -1 -244 17 -16 20 -16 64 5 26
13 49 20 53 17 3 -4 7 -39 8 -78 1 -40 2 -75 2 -79 1 -5 192 -8 425 -8 l424 0
-2 253 -1 252 -422 3 c-233 1 -423 -1 -424 -5z m827 -238 c0 -121 -2 -225 -3
-231 -3 -8 -123 -11 -403 -11 l-400 0 0 58 c0 69 -13 109 -36 109 -9 0 -32
-10 -51 -21 -26 -17 -37 -19 -46 -10 -16 16 -22 173 -8 200 l12 21 47 -24 c29
-15 53 -21 61 -16 8 4 15 36 18 77 l5 70 402 -1 401 -1 1 -220z"/>
<path d="M5478 2199 c-18 -10 -25 -39 -9 -39 5 0 14 7 21 15 19 23 54 15 58
-12 3 -17 -3 -24 -22 -29 -34 -8 -33 -17 3 -31 29 -10 34 -25 18 -50 -12 -19
-44 -16 -59 6 -9 13 -19 17 -27 12 -11 -7 -9 -13 8 -30 23 -23 61 -27 92 -11
23 13 26 62 4 80 -13 11 -13 14 0 27 44 44 -29 96 -87 62z"/>
<path d="M5619 2208 c0 -2 -2 -19 -5 -38 -6 -53 0 -61 35 -47 35 13 61 -3 61
-37 0 -44 -39 -59 -72 -29 -20 18 -34 12 -25 -11 15 -37 97 -32 115 8 22 49
-10 101 -59 94 -25 -4 -29 -1 -29 19 0 21 5 23 46 23 27 0 43 4 39 10 -5 8
-103 15 -106 8z"/>
<path d="M5775 2188 c-18 -27 -3 -37 21 -13 20 19 43 16 58 -7 9 -15 2 -27
-42 -71 -28 -29 -52 -58 -52 -65 0 -15 116 -17 125 -2 4 6 -14 10 -47 10 l-52
0 47 48 c32 33 47 56 47 74 0 49 -76 67 -105 26z"/>
<path d="M3550 2210 c0 -5 5 -10 10 -10 6 0 15 -11 20 -26 8 -19 5 -34 -10
-65 -35 -69 -41 -89 -26 -89 8 0 22 20 32 45 9 25 20 45 24 45 4 0 13 -20 20
-45 7 -25 19 -45 26 -45 8 0 14 1 14 3 0 11 -64 174 -72 184 -12 15 -38 17
-38 3z"/>
<path d="M3257 2132 l-27 -28 30 -29 c25 -24 33 -27 40 -15 6 10 27 14 69 13
34 -1 64 3 67 8 3 5 -32 9 -80 9 -70 0 -86 3 -86 15 0 12 16 15 87 15 97 0
106 13 10 16 -34 2 -63 7 -65 13 -6 17 -16 13 -45 -17z"/>
<path d="M4910 2095 c0 -8 7 -15 15 -15 8 0 15 7 15 15 0 8 -7 15 -15 15 -8 0
-15 -7 -15 -15z"/>
<path d="M4060 1625 c0 -41 -3 -75 -7 -75 -4 0 -27 10 -51 21 l-44 22 -20 -21
c-39 -39 -33 -233 7 -249 8 -3 33 4 56 16 22 12 45 19 50 16 5 -4 9 -42 9 -86
l0 -79 373 2 372 3 0 235 c0 129 -1 243 -3 253 -4 16 -30 17 -373 17 l-369 0
0 -75z m722 11 c1 -22 1 -127 -2 -231 l-5 -191 -347 0 -348 0 0 67 c0 37 -3
74 -6 83 -8 22 -36 20 -79 -6 -51 -29 -55 -22 -60 96 -2 51 11 116 23 116 4 0
26 -11 49 -24 38 -22 44 -23 58 -10 10 10 15 35 15 73 0 32 2 60 5 63 3 3 160
5 349 5 l344 1 4 -42z"/>
<path d="M4240 1602 c-72 -8 -87 -37 -85 -164 1 -97 15 -135 54 -145 49 -13
434 -8 459 6 33 18 42 50 42 157 0 87 -2 97 -25 119 -13 14 -30 25 -37 26 -42
2 -387 4 -408 1z m432 -42 c14 -18 18 -40 18 -115 0 -143 9 -138 -236 -139
-109 -1 -212 0 -227 3 -40 5 -54 41 -52 136 2 119 6 126 79 137 11 2 105 2
210 2 184 -1 190 -2 208 -24z"/>
<path d="M4270 1491 c0 -4 9 -20 21 -35 l21 -27 -26 -39 c-20 -30 -23 -40 -12
-40 8 0 23 13 33 30 l17 30 19 -30 c10 -17 26 -30 34 -30 15 0 13 6 -19 52
-19 28 -19 28 8 63 19 26 22 35 11 35 -8 0 -23 -12 -32 -27 l-18 -26 -19 26
c-19 26 -38 35 -38 18z"/>
<path d="M5420 1631 c0 -39 -4 -72 -9 -76 -5 -3 -27 4 -49 15 -21 11 -46 18
-55 14 -53 -20 -47 -264 7 -264 8 0 31 9 50 21 19 11 40 18 46 14 5 -3 10 -42
10 -86 l0 -79 269 0 c206 0 270 3 273 13 2 6 4 120 4 252 l-1 240 -272 3 -273
2 0 -69z m521 35 c1 -15 1 -428 0 -442 -1 -7 -81 -10 -248 -10 l-248 0 -5 75
c-6 94 -21 107 -81 73 -55 -32 -63 -21 -66 87 -3 118 5 128 72 96 46 -23 51
-24 63 -8 6 9 12 42 12 73 0 31 2 59 5 62 3 3 116 6 250 6 176 0 245 -4 246
-12z"/>
<path d="M5643 1514 c-39 -60 -10 -164 46 -164 43 0 65 32 65 95 0 38 -5 59
-18 74 -27 30 -71 27 -93 -5z m77 -13 c5 -11 10 -36 10 -56 0 -47 -15 -75 -41
-75 -21 0 -39 34 -39 75 0 64 46 101 70 56z"/>
<path d="M6589 1698 c-1 -2 -2 -33 -3 -71 -2 -37 -6 -70 -9 -74 -4 -3 -27 5
-52 18 -41 22 -46 22 -60 8 -34 -34 -35 -213 -1 -247 14 -15 20 -14 62 6 26
13 49 21 51 18 3 -3 6 -41 6 -85 l1 -81 273 0 273 0 0 255 0 255 -270 0 c-148
0 -271 -1 -271 -2z m521 -252 l0 -232 -250 -1 c-137 0 -250 3 -251 6 -1 3 -2
36 -4 72 -1 36 -5 71 -9 77 -11 18 -37 14 -75 -9 -33 -20 -35 -20 -48 -3 -16
22 -18 166 -3 195 11 19 11 19 50 -1 53 -27 80 -26 82 3 3 48 6 83 7 103 1 22
2 22 251 22 l250 0 0 -232z"/>
<path d="M6832 1524 c-28 -19 -30 -39 -2 -24 19 10 20 8 20 -60 0 -68 -1 -70
-25 -70 -14 0 -25 -4 -25 -10 0 -6 27 -10 60 -10 33 0 60 4 60 10 0 6 -8 10
-19 10 -23 0 -28 18 -26 103 2 72 -4 79 -43 51z"/>
<path d="M7750 1625 c0 -41 -3 -75 -7 -75 -4 0 -26 9 -50 21 -35 17 -46 19
-58 9 -33 -27 -42 -134 -19 -224 9 -35 38 -42 80 -17 19 12 39 21 45 21 5 0 9
-38 9 -85 l0 -85 275 0 275 0 -2 253 -3 252 -272 3 -273 2 0 -75z m527 -179
l0 -232 -251 0 -251 1 -1 57 c-3 113 -14 124 -85 87 -23 -11 -43 -18 -46 -15
-19 19 -24 179 -5 211 6 12 17 10 59 -10 64 -29 72 -22 74 61 1 32 3 62 5 65
2 4 116 7 253 7 l248 -1 0 -231z"/>
<path d="M7994 1532 c-49 -32 -43 -162 8 -178 31 -10 64 4 76 31 19 42 15 112
-8 135 -20 20 -56 26 -76 12z m55 -21 c18 -12 19 -104 1 -126 -30 -37 -65 -3
-63 62 2 63 26 87 62 64z"/>
<path d="M5042 1532 c2 -10 -9 -33 -25 -51 -36 -43 -35 -82 2 -122 18 -18 28
-38 26 -50 -2 -12 2 -19 11 -19 9 0 14 10 14 29 0 21 6 32 20 36 39 12 41 113
3 130 -22 9 -28 23 -24 53 1 6 -5 12 -14 12 -10 0 -15 -7 -13 -18z m2 -115
c-1 -17 -3 -36 -3 -40 -1 -5 -5 -5 -11 -2 -11 7 -14 78 -3 88 11 12 20 -11 17
-46z m47 46 c0 -5 3 -19 5 -33 2 -15 -2 -35 -11 -45 -13 -18 -14 -16 -15 33 0
28 5 52 10 52 6 0 10 -3 11 -7z"/>
<path d="M3277 1488 c-8 -13 -18 -34 -22 -47 -11 -37 17 -21 30 18 13 39 25
29 43 -35 14 -47 32 -67 54 -59 26 10 51 85 29 85 -5 0 -15 -16 -21 -36 -15
-43 -23 -37 -47 36 -20 61 -43 75 -66 38z"/>
<path d="M7378 1498 c0 -7 -1 -20 -2 -28 -1 -9 -13 -16 -28 -18 -34 -4 -37
-22 -4 -22 26 0 39 -21 29 -46 -4 -12 -2 -15 8 -12 8 3 14 16 14 29 0 19 6 25
28 27 37 4 35 22 -3 22 -27 0 -30 3 -26 25 3 13 0 27 -5 30 -5 4 -10 0 -11 -7z"/>
<path d="M3640 1493 c1 -26 50 -138 62 -141 15 -3 55 60 58 93 4 38 0 55 -14
55 -8 0 -12 -8 -9 -23 3 -13 -3 -41 -12 -63 l-17 -39 -14 30 c-7 17 -16 45
-20 63 -3 17 -12 32 -20 32 -8 0 -14 -3 -14 -7z"/>
<path d="M6160 1492 c0 -4 9 -15 20 -25 25 -21 25 -29 0 -52 -11 -10 -17 -22
-14 -27 3 -5 17 1 30 13 l24 22 23 -21 c30 -29 44 -16 15 15 -19 21 -20 25 -6
40 38 45 30 59 -13 22 l-24 -20 -16 20 c-17 21 -39 28 -39 13z"/>
<path d="M1966 947 c-19 -14 -32 -82 -22 -121 14 -56 69 -74 106 -34 28 31 28
120 0 148 -23 23 -58 26 -84 7z m71 -34 c26 -76 -16 -157 -57 -108 -16 20 -17
100 -1 119 21 25 48 19 58 -11z"/>
<path d="M2200 940 c-14 -10 -22 -22 -18 -26 4 -4 14 -1 23 6 18 15 17 18 19
-50 3 -68 -1 -80 -25 -80 -10 0 -19 -4 -19 -10 0 -6 27 -10 60 -10 33 0 60 4
60 10 0 6 -11 10 -25 10 -25 0 -25 1 -25 85 0 92 -5 100 -50 65z"/>
<path d="M2103 785 c0 -8 6 -15 14 -15 7 0 13 7 13 15 0 8 -6 15 -13 15 -8 0
-14 -7 -14 -15z"/>
<path d="M1966 467 c-19 -14 -32 -82 -22 -121 14 -56 69 -74 106 -34 28 31 28
120 0 148 -23 23 -58 26 -84 7z m71 -34 c26 -76 -16 -157 -57 -108 -16 20 -17
100 -1 119 21 25 48 19 58 -11z"/>
</g>
</svg>
