<?xml version="1.0" standalone="no"?>
<!DOCTYPE svg PUBLIC "-//W3C//DTD SVG 20010904//EN"
 "http://www.w3.org/TR/2001/REC-SVG-20010904/DTD/svg10.dtd">
<svg version="1.0" xmlns="http://www.w3.org/2000/svg"
 width="1278.000000pt" height="820.000000pt" viewBox="0 0 1278.000000 820.000000"
 preserveAspectRatio="xMidYMid meet">
<metadata>
Created by potrace 1.16, written by Peter Selinger 2001-2019
</metadata>
<g transform="translate(0.000000,820.000000) scale(0.100000,-0.100000)"
fill="#000000" stroke="none">
<path d="M710 8040 c-14 -8 -43 -26 -65 -40 -57 -36 -72 -35 -137 11 l-59 41
-104 -4 -104 -3 -40 -39 c-22 -22 -43 -53 -47 -70 -4 -17 -8 -350 -8 -741 -1
-396 -5 -716 -10 -724 -6 -9 -5 -12 0 -8 6 3 9 -1199 9 -3112 1 -2990 1 -3119
19 -3157 10 -21 32 -50 49 -64 l31 -25 713 -3 713 -2 0 245 c0 135 3 245 8
246 36 5 69 4 80 -4 6 -5 12 -6 12 -1 0 5 153 9 342 8 189 -1 349 1 356 3 9 4
12 65 12 259 l0 254 -356 2 -356 3 43 25 44 24 733 1 c402 0 732 -4 732 -8 0
-5 6 -5 12 -1 19 12 642 11 650 -1 4 -5 8 329 8 743 l0 752 4350 0 c2393 0
4351 3 4351 8 4 26 3 1072 -1 1073 -3 1 -1871 2 -4152 3 -2280 0 -4150 4
-4154 8 -4 4 -7 115 -8 245 l-1 238 -92 3 -93 3 0 247 0 247 -368 -1 -368 -1
0 246 1 246 -798 0 -797 0 -1 30 c-1 17 -1 123 -2 238 0 182 -2 207 -16 208
-9 1 -64 1 -123 1 l-108 -1 -1 37 c-1 60 -1 385 0 413 l1 25 238 0 c130 -1
243 -5 251 -10 9 -6 12 -5 8 1 -8 13 252 12 272 -1 9 -6 12 -5 8 1 -9 15 173
13 192 -1 11 -8 13 -8 8 0 -8 13 251 14 272 0 9 -6 12 -5 8 1 -9 15 173 13
192 -1 10 -7 13 -7 8 0 -8 13 931 13 952 0 9 -6 12 -5 8 1 -8 13 252 12 272
-1 9 -6 12 -5 8 1 -9 15 173 13 192 -1 11 -8 13 -8 8 0 -8 13 251 14 272 0 9
-6 12 -5 8 1 -9 15 173 13 192 -1 11 -8 13 -8 8 0 -8 13 251 14 272 0 9 -6 12
-5 8 1 -9 15 173 13 192 -1 11 -8 13 -8 8 0 -9 15 253 16 272 0 11 -8 13 -8 8
1 -9 15 132 14 152 -1 11 -8 13 -8 8 0 -9 16 172 15 192 0 11 -8 13 -8 8 0 -9
15 253 16 272 0 11 -8 13 -8 8 1 -9 15 132 14 152 -1 11 -8 13 -8 8 0 -9 16
172 15 192 0 11 -8 13 -8 8 0 -9 15 253 16 272 0 11 -8 13 -8 8 1 -9 15 132
14 152 -1 11 -8 13 -8 8 0 -9 16 172 15 192 0 11 -8 13 -8 8 0 -9 15 253 16
272 0 11 -8 13 -8 8 0 -9 16 172 15 192 0 11 -8 13 -8 8 0 -5 8 18 11 79 10
47 0 89 3 93 9 4 6 6 33 5 60 0 28 4 56 10 64 8 10 8 13 0 8 -8 -4 -11 102
-10 373 l1 380 -2907 0 -2908 0 0 252 c0 138 -3 248 -6 245 -4 -3 -15 -2 -25
4 -11 5 -19 6 -19 2 0 -10 -252 -9 -268 1 -6 3 -13 2 -16 -2 -6 -10 -36 -9
-51 0 -6 4 -10 99 -9 247 l1 241 -61 0 c-34 0 -281 1 -551 3 -420 2 -493 0
-515 -13z m-215 -46 c76 -50 102 -50 176 -3 l60 39 543 0 543 0 0 -235 -1
-235 -545 0 -546 -1 -60 -39 c-33 -22 -70 -40 -83 -40 -13 0 -50 18 -82 40
l-59 40 -138 0 -139 0 1 184 c2 178 2 186 26 220 34 50 67 63 165 65 82 2 86
1 139 -35z m-5 -494 l55 -35 -129 -5 c-125 -5 -128 -6 -152 -33 -22 -25 -24
-37 -24 -122 0 -51 4 -105 10 -119 17 -46 38 -49 288 -49 l233 -1 25 26 c24
24 26 32 26 119 0 126 1 124 -21 150 -15 19 -31 24 -97 28 l-79 6 52 35 52 35
393 0 393 0 3 -54 c5 -80 -1 -87 -44 -62 -78 46 -106 16 -106 -111 0 -79 13
-125 37 -134 8 -3 33 3 56 15 22 12 45 19 50 16 5 -4 9 -37 9 -76 l0 -69 -400
0 -401 0 -52 -35 c-66 -45 -98 -45 -164 0 l-51 34 -144 3 -143 3 0 235 0 235
136 0 135 0 54 -35z m1713 31 c4 0 7 -107 7 -236 l0 -235 -334 0 -334 0 -3 80
c-2 43 -9 84 -14 89 -7 7 -27 3 -60 -14 -33 -16 -53 -20 -60 -14 -17 17 -19
181 -2 204 14 19 15 19 61 -5 46 -25 47 -25 62 -6 8 12 14 43 14 76 0 31 2 59
4 61 4 4 634 4 659 0z m-1423 -109 c18 -15 22 -28 24 -103 2 -112 -6 -145 -42
-156 -15 -4 -115 -7 -222 -7 -254 3 -237 1 -260 24 -17 17 -20 33 -20 114 0
79 3 97 21 120 l20 26 229 0 c203 0 230 -2 250 -18z m-287 -417 c77 -51 104
-52 177 -4 l61 39 384 0 385 0 0 -65 c0 -36 -4 -65 -10 -65 -5 0 -24 9 -42 20
-49 29 -67 26 -85 -17 -18 -45 -14 -192 6 -217 18 -22 50 -20 86 4 17 11 33
20 38 20 4 0 7 -119 7 -265 l0 -265 -385 0 -384 0 -63 -40 c-35 -22 -73 -40
-86 -40 -13 0 -50 18 -82 40 l-59 40 -135 0 c-102 0 -136 3 -137 13 -3 38 -4
823 -1 830 2 4 64 7 138 7 l134 0 53 -35z m7527 -7 c2 -215 -1 -801 -4 -806
-3 -5 -6267 -8 -6451 -3 l-41 1 1 245 c0 135 -4 258 -8 275 -9 36 -26 38 -78
8 -26 -14 -43 -18 -49 -12 -13 13 -22 109 -14 160 10 66 15 69 70 40 64 -34
76 -23 78 68 l0 66 3248 0 3248 0 0 -42z m-7527 -868 c74 -51 104 -52 182 -2
45 30 72 39 108 41 l47 2 0 -65 c0 -36 -4 -67 -8 -70 -5 -3 -21 4 -38 15 -35
23 -67 24 -84 4 -18 -21 -25 -151 -11 -201 14 -52 33 -60 86 -34 23 11 44 20
48 20 4 0 7 -67 7 -150 0 -82 -2 -150 -5 -150 -2 0 -25 10 -50 22 -73 36 -91
12 -94 -120 -2 -118 35 -158 104 -112 17 11 33 20 38 20 4 0 7 -1064 7 -2365
l0 -2365 -50 0 c-42 0 -62 -7 -114 -40 -35 -22 -73 -40 -85 -40 -12 0 -49 18
-81 40 l-59 40 -138 0 -138 0 0 2773 0 2774 135 1 135 1 58 -39z m1093 -197
c1 -163 -2 -233 -10 -236 -6 -2 -171 -3 -366 -3 l-355 1 -1 73 c-1 101 -14
113 -80 78 l-49 -26 -12 27 c-12 29 -12 171 1 191 11 18 35 14 63 -8 50 -40
73 -19 77 72 2 35 4 64 5 65 1 1 164 1 364 0 l362 -2 1 -232z m248 -483 c-1
-121 -2 -224 -3 -230 -2 -16 -104 -80 -129 -80 -13 0 -50 18 -82 40 -55 37
-64 40 -127 40 -102 -1 -143 -13 -185 -58 -29 -32 -37 -50 -43 -93 -3 -30 -5
-909 -3 -1954 3 -2138 -4 -1943 80 -1998 l42 -27 223 0 223 0 0 -65 c0 -36 -3
-65 -7 -65 -4 0 -27 10 -51 21 l-44 22 -20 -21 c-15 -14 -22 -38 -25 -85 -7
-81 2 -132 28 -158 l20 -20 43 25 c24 14 46 22 50 19 12 -12 7 -141 -6 -145
-7 -2 -38 -3 -68 -2 -30 1 -244 2 -476 3 l-421 1 -1 2333 c0 1282 -1 2349 -1
2370 -1 50 -22 57 -77 26 -29 -16 -47 -20 -54 -13 -27 27 -23 210 5 221 8 2
28 -5 44 -16 31 -22 66 -27 76 -11 3 5 6 39 6 75 l1 65 491 0 492 0 -1 -220z
m-223 -290 c75 -52 104 -52 183 -1 l61 39 383 0 382 -1 0 -62 c0 -34 -3 -64
-6 -68 -4 -3 -27 5 -53 18 l-46 25 -20 -20 c-39 -39 -31 -238 11 -254 8 -3 33
3 54 14 22 11 44 20 50 20 7 0 9 -569 8 -1842 l-3 -1843 -386 0 -386 0 -56
-38 c-32 -20 -69 -37 -84 -37 -16 0 -52 16 -83 37 -50 34 -59 36 -139 39 -47
1 -97 6 -111 12 -34 14 -66 50 -78 92 -14 45 -14 3773 0 3810 25 68 79 96 185
98 72 1 78 0 134 -38z m1820 21 c1 -18 1 -372 0 -518 -1 -101 -6 -108 -51 -73
-63 49 -101 4 -99 -117 2 -127 21 -151 94 -115 25 12 48 22 50 22 7 0 6 -296
-1 -302 -3 -3 -25 5 -48 18 -24 13 -51 22 -59 18 -49 -18 -50 -249 -1 -268 9
-4 36 5 60 18 23 13 45 21 48 18 3 -3 6 -72 6 -154 0 -159 -2 -165 -50 -128
-30 24 -63 25 -80 4 -17 -19 -25 -157 -13 -203 13 -52 35 -60 86 -33 23 12 45
22 50 22 4 0 7 -196 7 -435 0 -294 -3 -435 -10 -435 -6 0 -28 9 -50 20 -21 11
-46 17 -54 14 -50 -19 -47 -254 3 -267 11 -2 37 6 59 18 23 13 43 20 46 17 11
-10 6 -291 -4 -297 -6 -3 -23 3 -39 14 -63 45 -92 21 -99 -82 -5 -79 11 -155
33 -164 8 -3 33 4 55 16 22 12 45 21 50 21 6 0 10 -60 10 -150 0 -98 -4 -150
-11 -150 -5 0 -28 10 -49 22 l-39 23 -23 -23 c-20 -19 -23 -34 -26 -110 -4
-132 27 -169 103 -122 43 27 47 19 43 -71 l-3 -64 -380 0 c-209 -1 -386 1
-392 3 -10 3 -13 382 -13 1848 0 1730 -1 1844 -17 1853 -13 7 -30 3 -65 -15
-36 -18 -49 -21 -55 -11 -15 23 -13 183 2 203 13 18 15 18 59 -5 61 -34 76
-21 76 64 0 34 2 64 5 67 3 3 181 5 395 5 348 0 390 -2 391 -16z m739 -716 l0
-235 -358 0 -359 0 -1 66 c-2 111 -12 122 -83 82 -56 -31 -64 -19 -64 97 0
114 8 127 60 96 68 -40 85 -27 87 65 0 27 2 52 5 57 2 4 164 7 359 7 l354 0 0
-235z m181 -264 c4 -15 6 -438 3 -451 -3 -13 -60 -15 -451 -15 l-448 0 -2 74
c-2 101 -14 111 -81 77 l-51 -26 -10 38 c-14 47 -14 133 -1 166 12 32 28 33
75 5 50 -30 65 -14 67 67 1 32 2 62 4 65 4 7 894 7 895 0z m8322 -998 c-1
-280 -2 -514 -2 -520 -1 -10 -930 -13 -4609 -13 l-4609 0 -1 333 c0 425 1 397
-18 404 -9 3 -37 -4 -61 -16 -34 -16 -49 -19 -57 -11 -16 16 -15 195 1 211 10
10 21 8 52 -9 69 -39 81 -29 83 72 l2 56 4610 0 4611 0 -2 -507z m-8703 -787
c0 -178 -3 -235 -12 -238 -11 -4 -481 -3 -499 1 -3 0 -6 33 -7 73 -2 96 -13
107 -75 77 -38 -18 -50 -20 -60 -10 -15 15 -17 178 -2 203 10 17 14 16 59 -8
64 -34 78 -22 78 70 l1 66 258 0 259 0 0 -234z m-7 -265 c4 0 7 -107 7 -236
l0 -235 -257 2 -258 3 -1 57 c-3 112 -19 129 -86 88 -18 -11 -36 -20 -39 -20
-27 0 -37 196 -12 221 10 10 22 7 57 -12 40 -21 47 -22 60 -9 9 9 16 36 17 65
2 87 -21 80 256 79 137 -1 251 -2 256 -3z m7 -725 c0 -178 -3 -235 -12 -238
-7 -2 -123 -4 -258 -3 l-245 1 -3 74 c-3 100 -16 113 -77 80 -36 -20 -47 -22
-57 -12 -18 18 -18 183 1 205 12 15 17 15 56 -9 39 -23 44 -23 59 -9 14 15 22
73 17 128 -2 16 16 17 258 17 l261 0 0 -234z m-2611 -246 c13 -7 64 -14 112
-15 72 -3 96 -8 127 -27 l37 -23 -120 -3 c-155 -4 -191 12 -226 106 l-10 27
28 -26 c15 -15 39 -32 52 -39z m1101 -325 c0 -217 -1 -235 -17 -236 -96 -7
-576 -2 -581 6 -4 6 -7 33 -8 60 -1 65 -11 105 -27 105 -6 0 -31 -10 -54 -22
-34 -18 -45 -20 -55 -10 -18 18 -17 183 1 205 12 15 17 14 58 -10 39 -22 46
-24 59 -11 8 8 16 40 18 74 2 32 4 62 5 67 1 4 136 7 301 7 l300 0 0 -235z
m-1965 -298 c74 -48 104 -48 177 1 55 37 59 38 145 37 l88 -1 3 -54 c5 -78 -1
-86 -42 -61 -40 25 -69 27 -87 5 -20 -25 -24 -172 -6 -217 18 -43 28 -45 80
-17 21 11 42 18 47 15 6 -4 10 -37 10 -76 l0 -69 -319 0 c-313 0 -319 0 -351
22 -70 48 -72 56 -74 262 -1 158 1 186 14 188 8 2 70 3 137 3 l122 -1 56 -37z
m1148 34 c4 0 7 -107 7 -236 l0 -235 -360 0 -360 0 0 69 c0 38 -3 76 -6 85 -8
22 -40 20 -81 -5 -50 -31 -58 -17 -58 96 0 118 8 129 69 95 61 -33 76 -20 76
65 0 34 2 64 4 66 4 3 685 4 709 0z"/>
<path d="M1280 7890 c0 -5 7 -10 15 -10 8 0 15 5 15 10 0 6 -7 10 -15 10 -8 0
-15 -4 -15 -10z"/>
<path d="M367 7883 c-13 -13 -7 -53 8 -53 17 0 20 16 5 25 -5 3 -7 12 -3 20 5
16 1 20 -10 8z"/>
<path d="M406 7868 c-9 -33 -8 -38 9 -38 10 0 14 9 12 30 -2 35 -12 39 -21 8z"/>
<path d="M655 7798 c0 -64 4 -93 13 -96 12 -4 13 6 13 103 0 78 -1 85 -14 85
-9 0 -12 -24 -12 -92z"/>
<path d="M726 7858 c-12 -13 -14 -23 -8 -27 6 -4 12 -33 14 -66 3 -53 5 -60
26 -63 23 -4 31 13 10 20 -18 6 -19 108 -1 108 7 0 13 5 13 10 0 6 -7 10 -16
10 -8 0 -13 4 -9 9 12 20 -12 19 -29 -1z"/>
<path d="M1206 7858 c-12 -13 -14 -23 -8 -27 6 -4 12 -33 14 -66 3 -53 5 -60
26 -63 23 -4 31 13 10 20 -18 6 -18 108 -1 108 7 0 13 5 13 10 0 6 -7 10 -16
10 -8 0 -13 4 -9 9 12 20 -12 19 -29 -1z"/>
<path d="M815 7830 c-41 -45 -8 -130 49 -130 27 0 64 25 53 36 -4 4 -13 2 -19
-4 -18 -18 -56 -14 -68 7 -15 30 -14 31 45 31 55 0 55 0 49 28 -12 52 -74 71
-109 32z m75 -4 c0 -2 3 -11 6 -20 5 -13 -1 -16 -30 -16 -34 0 -47 15 -29 33
7 8 53 10 53 3z"/>
<path d="M960 7774 c0 -55 3 -75 12 -72 8 3 13 26 14 58 0 30 5 55 10 57 23 8
38 23 31 30 -4 4 -17 2 -27 -5 -12 -7 -20 -8 -20 -2 0 5 -4 10 -10 10 -6 0
-10 -32 -10 -76z"/>
<path d="M1065 7834 c-22 -22 -11 -30 19 -14 28 15 56 8 56 -15 0 -10 -10 -15
-32 -15 -40 0 -53 -8 -62 -36 -13 -41 50 -73 83 -41 11 10 14 10 18 0 3 -7 14
-13 25 -13 17 0 18 3 8 15 -6 8 -12 31 -12 52 0 52 -21 83 -58 83 -15 0 -36
-7 -45 -16z m75 -77 c0 -18 -21 -37 -41 -37 -22 0 -33 16 -25 35 7 19 66 20
66 2z"/>
<path d="M1283 7775 c0 -56 4 -75 14 -75 10 0 13 19 13 75 0 57 -3 75 -14 75
-11 0 -14 -17 -13 -75z"/>
<path d="M1360 7830 c-29 -29 -27 -94 2 -114 51 -36 108 -4 108 59 0 42 -29
75 -65 75 -14 0 -34 -9 -45 -20z m80 -30 c10 -40 -3 -75 -29 -78 -31 -5 -43 9
-43 51 0 47 9 59 40 55 18 -2 28 -10 32 -28z"/>
<path d="M1500 7775 c0 -54 4 -75 13 -75 8 0 12 14 12 38 -1 60 13 92 41 92
25 0 26 -4 27 -92 0 -25 4 -38 13 -38 18 0 20 120 2 138 -15 15 -50 16 -65 1
-8 -8 -13 -8 -17 0 -17 27 -26 5 -26 -64z"/>
<path d="M946 7333 c-12 -12 -6 -33 9 -33 8 0 15 6 15 14 0 17 -14 28 -24 19z"/>
<path d="M990 7317 c0 -18 161 -18 168 1 3 9 -18 12 -82 12 -64 0 -86 -3 -86
-13z"/>
<path d="M940 7261 c0 -12 6 -21 16 -21 9 0 14 7 12 17 -5 25 -28 28 -28 4z"/>
<path d="M990 7258 c0 -12 28 -14 153 -9 9 1 17 6 17 11 0 6 -35 10 -85 10
-61 0 -85 -3 -85 -12z"/>
<path d="M1767 7372 c-23 -25 -21 -35 3 -22 19 10 20 8 20 -60 0 -68 -1 -70
-25 -70 -14 0 -25 -4 -25 -10 0 -6 27 -10 60 -10 58 0 84 15 38 22 -21 3 -23
8 -24 73 -1 39 -2 76 -3 83 -2 18 -25 15 -44 -6z"/>
<path d="M1910 7370 c-20 -20 -24 -39 -21 -95 6 -110 131 -94 131 17 0 86 -60
128 -110 78z m70 -15 c17 -20 15 -104 -3 -122 -24 -24 -55 -7 -63 32 -14 76
29 135 66 90z"/>
<path d="M368 7343 c-9 -23 -2 -137 10 -140 8 -3 12 10 12 44 0 56 17 87 46
81 16 -3 19 -13 22 -66 2 -44 7 -62 15 -59 12 4 17 83 9 120 -6 22 -49 33 -74
18 -11 -7 -18 -7 -18 -1 0 12 -17 14 -22 3z"/>
<path d="M289 6763 c-39 -16 -49 -47 -49 -159 0 -93 1 -96 30 -125 l30 -30
229 3 c285 4 274 -2 279 144 4 104 -7 147 -42 166 -30 17 -438 18 -477 1z
m482 -32 c16 -19 19 -40 19 -118 0 -86 -2 -96 -25 -118 l-24 -25 -217 0 c-273
0 -264 -5 -264 140 0 104 12 136 53 142 12 2 116 3 230 3 207 0 209 0 228 -24z"/>
<path d="M360 6664 c0 -3 9 -19 21 -35 l21 -30 -26 -39 c-19 -29 -22 -40 -12
-40 7 0 21 11 30 25 9 14 20 25 25 25 4 0 14 -11 21 -25 7 -14 19 -25 27 -25
18 0 17 7 -12 44 l-24 32 25 37 c18 27 21 37 11 37 -8 0 -23 -12 -32 -27 l-18
-26 -19 26 c-18 25 -38 36 -38 21z"/>
<path d="M927 6653 c-13 -12 -7 -33 8 -33 8 0 15 9 15 20 0 20 -11 26 -23 13z"/>
<path d="M970 6641 c0 -14 20 -18 95 -15 88 2 87 2 80 14 -8 12 -175 13 -175
1z"/>
<path d="M920 6581 c0 -12 6 -21 16 -21 9 0 14 7 12 17 -5 25 -28 28 -28 4z"/>
<path d="M970 6580 c0 -9 28 -12 100 -12 61 0 81 3 75 12 -3 6 -44 10 -91 10
-49 0 -84 -4 -84 -10z"/>
<path d="M2659 6963 c-1 -5 -3 -39 -4 -76 -2 -38 -5 -71 -8 -73 -3 -3 -20 4
-38 15 -43 26 -75 27 -89 1 -17 -32 -23 -141 -11 -186 17 -64 34 -73 87 -45
24 13 48 21 52 17 3 -4 7 -85 7 -179 l0 -172 1408 -3 1407 -2 0 355 0 355
-1405 0 c-773 0 -1405 -3 -1406 -7z m2789 -350 l2 -333 -1387 0 -1388 0 0 170
c0 205 -4 214 -77 175 -57 -31 -66 -23 -72 66 -6 70 8 139 27 139 7 0 31 -10
54 -22 30 -16 45 -20 53 -12 10 10 18 60 19 125 l1 26 1383 -1 1382 -1 3 -332z"/>
<path d="M3940 6801 c0 -39 -5 -73 -10 -76 -6 -3 -28 4 -49 16 -69 39 -91 9
-91 -124 0 -59 5 -89 16 -105 19 -27 34 -28 85 -2 47 25 48 24 51 -80 l3 -75
265 -1 c146 0 271 2 278 4 9 3 12 64 12 258 l0 254 -280 0 -280 0 0 -69z m534
-178 c-1 -126 -2 -233 -3 -238 -1 -7 -91 -10 -253 -10 l-253 0 -5 77 c-6 99
-16 109 -77 79 -45 -22 -48 -22 -61 -4 -16 22 -13 186 4 203 8 8 24 4 60 -15
46 -24 49 -25 61 -9 7 10 13 46 13 81 l0 63 258 0 257 0 -1 -227z"/>
<path d="M4178 6699 c-19 -11 -25 -39 -8 -39 6 0 10 4 10 9 0 13 30 22 51 16
28 -9 24 -42 -6 -49 -29 -7 -34 -26 -6 -26 29 0 45 -25 31 -49 -14 -27 -54
-27 -66 -1 -6 12 -14 17 -21 12 -10 -6 -9 -13 3 -30 18 -26 74 -30 98 -6 20
19 21 58 1 74 -13 11 -13 14 0 27 44 44 -29 96 -87 62z"/>
<path d="M4720 6795 c0 -42 -4 -75 -10 -75 -5 0 -24 9 -42 20 -48 29 -67 26
-84 -15 -17 -42 -18 -171 -1 -205 16 -33 49 -36 92 -10 42 26 44 24 47 -80 l3
-75 265 -1 c146 0 271 2 278 4 9 3 12 64 12 258 l0 254 -280 0 -280 0 0 -75z
m538 -182 l-3 -238 -245 -1 c-135 0 -250 2 -257 4 -7 2 -11 30 -12 75 -1 96
-14 109 -77 78 -34 -16 -50 -19 -58 -11 -15 15 -15 195 0 210 9 9 24 5 60 -14
45 -24 50 -25 62 -9 11 16 17 68 12 121 l-1 22 260 0 261 0 -2 -237z"/>
<path d="M4963 6702 c-19 -12 -31 -55 -22 -79 10 -28 55 -40 82 -23 18 11 19
10 14 -12 -4 -12 -7 -26 -7 -30 0 -13 -41 -19 -55 -8 -23 19 -41 7 -21 -13 38
-37 105 -6 107 51 5 82 -15 122 -59 122 -15 0 -32 -4 -39 -8z m67 -32 c22 -40
-26 -80 -58 -48 -25 25 -6 68 30 68 9 0 22 -9 28 -20z"/>
<path d="M2957 6783 c-4 -3 -7 -11 -7 -17 0 -6 5 -5 12 2 6 6 9 14 7 17 -3 3
-9 2 -12 -2z"/>
<path d="M3000 6781 l-25 -7 28 -6 c19 -4 27 -1 27 8 0 8 -1 14 -2 13 -2 -1
-14 -4 -28 -8z"/>
<path d="M3041 6774 c0 -11 3 -14 6 -6 3 7 2 16 -1 19 -3 4 -6 -2 -5 -13z"/>
<path d="M2900 6772 c0 -4 9 -8 20 -8 11 0 20 4 20 8 0 4 -9 8 -20 8 -11 0
-20 -4 -20 -8z"/>
<path d="M3070 6772 c0 -4 12 -8 27 -9 15 0 29 -6 31 -12 2 -6 8 -9 13 -5 10
6 12 -5 11 -93 0 -35 3 -63 8 -63 4 0 6 34 6 76 -2 66 -5 78 -24 93 -24 17
-72 26 -72 13z"/>
<path d="M2867 6747 c-18 -22 -22 -37 -9 -37 7 0 34 51 29 56 -1 2 -10 -7 -20
-19z"/>
<path d="M3397 6723 c-2 -5 -3 -60 -3 -123 l1 -114 43 -1 c23 0 42 3 42 7 0 4
-7 8 -15 8 -12 0 -15 19 -15 109 0 96 2 110 18 114 9 3 -2 5 -25 6 -23 0 -43
-2 -46 -6z m39 -116 c0 -83 -3 -107 -13 -107 -10 0 -13 26 -13 111 0 84 3 110
13 107 8 -3 12 -35 13 -111z"/>
<path d="M3543 6723 c20 -5 19 4 21 -117 2 -89 0 -99 -18 -105 -24 -9 -5 -18
39 -17 l30 1 3 123 3 122 -48 -1 c-26 -1 -40 -3 -30 -6z m62 -116 c0 -81 -3
-107 -12 -107 -10 0 -13 27 -13 111 0 82 3 110 12 107 8 -3 12 -37 13 -111z"/>
<path d="M2851 6670 c0 -33 1 -34 10 -11 6 16 6 28 -1 35 -7 7 -10 -1 -9 -24z"/>
<path d="M2970 6665 c-12 -15 0 -22 14 -7 4 4 19 7 32 7 26 1 42 -30 30 -60
-3 -8 -1 -15 4 -15 6 0 11 7 11 15 1 8 2 21 3 28 4 35 -70 61 -94 32z"/>
<path d="M2947 6626 c-7 -18 38 -65 60 -61 10 2 25 4 33 4 13 1 13 2 0 11 -9
6 -17 5 -21 -1 -3 -6 -9 -10 -13 -10 -14 1 -37 32 -39 51 -1 23 -12 26 -20 6z"/>
<path d="M2850 6593 c0 -43 7 -41 15 5 3 19 1 32 -5 32 -5 0 -10 -16 -10 -37z"/>
<path d="M3153 6548 c0 -20 -9 -39 -23 -50 -13 -10 -21 -21 -18 -24 3 -2 15 3
27 13 21 17 40 93 23 93 -4 0 -8 -14 -9 -32z"/>
<path d="M2850 6532 c0 -10 10 -28 23 -39 24 -22 67 -36 67 -22 0 5 -7 9 -15
9 -8 0 -17 0 -20 0 -14 0 -42 37 -39 53 2 9 -1 17 -7 17 -5 0 -9 -8 -9 -18z"/>
<path d="M2950 6470 c0 -3 34 -6 75 -6 41 0 75 3 75 6 0 3 -34 6 -75 6 -41 0
-75 -2 -75 -6z"/>
<path d="M6100 6795 c0 -42 -4 -75 -10 -75 -5 0 -24 9 -42 20 -18 11 -40 20
-48 20 -27 0 -44 -42 -46 -120 -4 -134 27 -176 100 -131 18 12 36 21 40 21 3
0 6 -38 6 -84 0 -58 4 -85 13 -88 6 -2 131 -4 277 -4 l265 1 3 258 2 257 -280
0 -280 0 0 -75z m540 -183 l0 -237 -252 1 c-139 1 -256 2 -260 3 -3 0 -5 25
-4 54 3 63 -10 117 -28 117 -8 0 -33 -10 -55 -22 -29 -15 -44 -19 -52 -11 -20
20 -17 198 4 220 3 2 27 -7 53 -21 63 -33 76 -22 79 66 2 35 4 64 4 66 1 1
116 2 256 2 l255 0 0 -238z"/>
<path d="M6352 6694 c-27 -19 -30 -39 -3 -25 24 13 27 4 26 -69 0 -53 -1 -55
-28 -58 -15 -2 -25 -8 -22 -13 8 -12 125 -12 125 1 0 6 -11 10 -25 10 -25 0
-25 1 -25 85 0 91 -5 99 -48 69z"/>
<path d="M7299 6868 c0 -2 -2 -33 -3 -70 -1 -37 -5 -70 -9 -74 -3 -4 -22 3
-42 15 -47 27 -61 27 -82 -5 -18 -28 -24 -152 -10 -206 10 -39 47 -46 93 -19
20 12 39 19 42 16 4 -3 7 -38 7 -78 1 -40 4 -77 7 -82 4 -7 105 -10 275 -9
147 1 270 2 273 3 4 1 5 459 1 499 -1 9 -63 12 -276 12 -151 0 -275 -1 -276
-2z m532 -25 c5 -48 3 -442 -2 -453 -6 -13 -44 -15 -256 -15 l-248 0 -6 76
c-9 110 -13 113 -86 77 -59 -30 -65 -20 -65 97 0 66 2 81 15 99 13 18 16 18
60 -8 l46 -27 16 24 c9 14 15 29 14 33 -1 5 -1 30 0 57 l1 47 255 0 c140 0
255 -3 256 -7z"/>
<path d="M7534 6696 c-15 -12 -19 -27 -19 -81 0 -72 15 -95 60 -95 41 0 58 23
63 88 4 51 1 63 -17 81 -24 24 -59 27 -87 7z m64 -19 c17 -20 23 -73 12 -102
-23 -59 -72 -35 -75 37 -2 61 35 99 63 65z"/>
<path d="M1744 6720 c0 -14 7 -20 23 -20 16 0 23 6 23 20 0 14 -7 20 -23 20
-16 0 -23 -6 -23 -20z"/>
<path d="M2123 6593 l2 -108 105 0 105 0 2 108 2 107 -110 0 -109 0 3 -107z
m197 81 c0 -8 -5 -12 -10 -9 -6 4 -8 11 -5 16 9 14 15 11 15 -7z m-160 2 c0
-3 -4 -8 -10 -11 -5 -3 -10 -1 -10 4 0 6 5 11 10 11 6 0 10 -2 10 -4z m50 -6
c0 -5 -2 -10 -4 -10 -3 0 -8 5 -11 10 -3 6 -1 10 4 10 6 0 11 -4 11 -10z m60
6 c0 -11 -19 -15 -25 -6 -3 5 1 10 9 10 9 0 16 -2 16 -4z m-85 -26 c3 -5 -1
-10 -9 -10 -9 0 -16 5 -16 10 0 6 4 10 9 10 6 0 13 -4 16 -10z m55 0 c0 -5 -4
-10 -10 -10 -5 0 -10 5 -10 10 0 6 5 10 10 10 6 0 10 -4 10 -10z m54 -11 c-3
-5 -10 -7 -15 -3 -5 3 -7 10 -3 15 3 5 10 7 15 3 5 -3 7 -10 3 -15z m-134 -19
c0 -5 -4 -10 -10 -10 -5 0 -10 5 -10 10 0 6 5 10 10 10 6 0 10 -4 10 -10z m50
0 c0 -5 -4 -10 -10 -10 -5 0 -10 5 -10 10 0 6 5 10 10 10 6 0 10 -4 10 -10z
m60 0 c0 -5 -7 -10 -16 -10 -8 0 -12 5 -9 10 3 6 10 10 16 10 5 0 9 -4 9 -10z
m50 0 c0 -5 -4 -10 -10 -10 -5 0 -10 5 -10 10 0 6 5 10 10 10 6 0 10 -4 10
-10z m-139 -33 c-13 -13 -26 -3 -16 12 3 6 11 8 17 5 6 -4 6 -10 -1 -17z m59
2 c0 -5 -4 -9 -10 -9 -5 0 -10 7 -10 16 0 8 5 12 10 9 6 -3 10 -10 10 -16z
m54 0 c-3 -5 -10 -7 -15 -3 -5 3 -7 10 -3 15 3 5 10 7 15 3 5 -3 7 -10 3 -15z
m-139 -18 c3 -5 1 -12 -5 -16 -5 -3 -10 1 -10 9 0 18 6 21 15 7z m51 -18 c-10
-10 -19 5 -10 18 6 11 8 11 12 0 2 -7 1 -15 -2 -18z m58 6 c-3 -5 -10 -7 -15
-3 -5 3 -7 10 -3 15 3 5 10 7 15 3 5 -3 7 -10 3 -15z m56 5 c0 -8 -5 -12 -10
-9 -6 4 -8 11 -5 16 9 14 15 11 15 -7z m-136 -35 c-3 -5 -10 -7 -15 -3 -5 3
-7 10 -3 15 3 5 10 7 15 3 5 -3 7 -10 3 -15z m56 12 c0 -6 -4 -13 -10 -16 -5
-3 -10 1 -10 9 0 9 5 16 10 16 6 0 10 -4 10 -9z m54 -12 c-3 -5 -10 -7 -15 -3
-5 3 -7 10 -3 15 3 5 10 7 15 3 5 -3 7 -10 3 -15z m-134 -19 c0 -5 -4 -10 -10
-10 -5 0 -10 5 -10 10 0 6 5 10 10 10 6 0 10 -4 10 -10z m50 0 c0 -5 -4 -10
-10 -10 -5 0 -10 5 -10 10 0 6 5 10 10 10 6 0 10 -4 10 -10z m60 0 c0 -5 -7
-10 -16 -10 -8 0 -12 5 -9 10 3 6 10 10 16 10 5 0 9 -4 9 -10z m50 0 c0 -5 -5
-10 -11 -10 -5 0 -7 5 -4 10 3 6 8 10 11 10 2 0 4 -4 4 -10z"/>
<path d="M6910 6650 c0 -27 -3 -30 -30 -30 -16 0 -30 -4 -30 -10 0 -5 14 -10
30 -10 27 0 30 -3 30 -30 0 -16 5 -30 10 -30 6 0 10 14 10 30 0 27 3 30 30 30
17 0 30 5 30 10 0 6 -13 10 -30 10 -27 0 -30 3 -30 30 0 17 -4 30 -10 30 -5 0
-10 -13 -10 -30z"/>
<path d="M5670 6663 c0 -4 10 -17 22 -30 l22 -23 -22 -21 c-13 -11 -20 -25
-16 -30 4 -6 14 -2 25 10 24 26 27 26 55 0 12 -11 24 -16 28 -11 3 5 -5 19
-19 32 l-24 22 26 24 c34 31 23 43 -13 15 l-27 -21 -22 20 c-22 20 -35 25 -35
13z"/>
<path d="M1749 6578 c-9 -30 -5 -38 17 -38 17 0 24 6 24 20 0 13 -7 20 -20 20
-11 0 -20 -1 -21 -2z"/>
<path d="M1826 6494 c-9 -23 -8 -24 19 -24 18 0 25 5 25 20 0 24 -35 28 -44 4z"/>
<path d="M407 6013 c-4 -3 -7 -15 -7 -26 0 -10 -9 -21 -20 -24 -11 -3 -20 -9
-20 -14 0 -5 3 -8 8 -6 8 2 12 -6 12 -28 0 -8 -7 -15 -15 -15 -8 0 -15 -5 -15
-11 0 -5 5 -7 10 -4 6 4 10 -8 11 -27 l1 -33 10 32 c9 26 16 32 35 31 20 -2
23 -6 18 -30 -4 -16 -2 -28 4 -28 5 0 11 12 13 27 2 16 10 27 21 29 28 4 34
14 9 14 -12 0 -22 6 -22 14 0 17 24 38 33 29 4 -3 7 -1 7 5 0 7 -6 12 -13 12
-9 0 -12 10 -10 33 3 24 2 29 -6 17 -6 -8 -11 -23 -11 -32 0 -12 -8 -18 -25
-18 -22 0 -24 3 -18 30 5 30 3 36 -10 23z m41 -87 c-4 -29 -48 -36 -48 -8 0
11 6 22 13 25 26 8 38 3 35 -17z"/>
<path d="M370 3240 c0 -5 4 -10 8 -10 5 0 14 -11 20 -25 10 -21 8 -33 -11 -74
-36 -73 -38 -81 -23 -81 8 0 22 20 33 45 10 25 21 45 24 45 3 0 12 -18 19 -41
13 -40 26 -56 37 -46 6 7 -43 141 -63 175 -15 22 -44 31 -44 12z"/>
<path d="M955 6065 c-24 -23 -25 -31 -25 -135 0 -104 1 -112 25 -135 13 -14
30 -25 37 -26 23 -1 392 -1 431 0 26 1 46 9 62 26 24 23 25 31 25 133 0 102
-2 111 -25 136 l-24 26 -241 0 -241 0 -24 -25z m515 -15 c17 -17 20 -33 20
-119 0 -151 16 -143 -270 -143 -285 -1 -270 -9 -270 143 0 146 -14 139 270
139 217 0 231 -1 250 -20z"/>
<path d="M1057 5973 c-2 -5 -4 -38 -4 -75 -1 -51 3 -68 13 -68 10 0 14 16 14
60 0 56 2 60 25 66 38 10 38 11 44 -108 1 -10 6 -18 11 -18 14 0 13 123 -2
138 -7 7 -21 12 -33 12 -12 0 -26 -5 -33 -12 -9 -9 -12 -9 -12 0 0 13 -16 16
-23 5z"/>
<path d="M1055 5530 c-3 -5 0 -10 8 -10 7 0 19 -11 25 -24 9 -20 6 -35 -19
-86 -16 -35 -27 -65 -25 -67 10 -10 27 10 43 48 8 21 18 39 22 39 4 0 13 -20
20 -45 8 -27 19 -45 28 -45 10 0 13 6 9 18 -36 97 -61 159 -69 170 -11 15 -33
16 -42 2z"/>
<path d="M1050 5065 c0 -8 5 -15 10 -15 6 0 10 7 10 15 0 8 -4 15 -10 15 -5 0
-10 -7 -10 -15z"/>
<path d="M1050 5005 c0 -8 5 -15 10 -15 6 0 10 7 10 15 0 8 -4 15 -10 15 -5 0
-10 -7 -10 -15z"/>
<path d="M1050 4935 c0 -8 5 -15 10 -15 6 0 10 7 10 15 0 8 -4 15 -10 15 -5 0
-10 -7 -10 -15z"/>
<path d="M1056 4881 c-4 -7 -5 -15 -2 -18 9 -9 19 4 14 18 -4 11 -6 11 -12 0z"/>
<path d="M1107 822 c-17 -19 -17 -20 7 -36 21 -13 24 -13 20 -2 -5 12 8 16 63
19 l68 3 -67 2 c-52 2 -67 5 -70 18 -3 14 -5 14 -21 -4z"/>
<path d="M1487 3350 c-121 -7 -127 -14 -127 -162 0 -102 1 -110 25 -133 l24
-25 231 0 232 0 27 28 c27 26 27 30 26 127 -1 115 -7 137 -38 154 -24 12 -257
19 -400 11z m389 -28 c23 -15 30 -50 29 -139 -2 -139 11 -133 -262 -133 -277
0 -263 -7 -263 142 0 147 -17 138 259 138 124 0 231 -4 237 -8z"/>
<path d="M1494 3213 c23 -34 24 -39 11 -58 -31 -43 -36 -55 -23 -55 7 0 22 13
33 30 l20 29 18 -29 c11 -17 25 -30 33 -30 10 0 7 11 -12 40 l-27 40 27 35
c19 25 23 35 13 35 -8 0 -23 -12 -32 -27 l-18 -27 -21 27 c-33 42 -51 33 -22
-10z"/>
<path d="M2040 3220 c0 -11 7 -20 15 -20 8 0 15 6 15 14 0 8 -7 16 -15 20 -10
4 -15 -1 -15 -14z"/>
<path d="M2090 3217 c0 -10 22 -13 85 -12 61 0 85 4 85 13 0 9 -24 12 -85 12
-63 0 -85 -3 -85 -13z"/>
<path d="M2040 3161 c0 -12 6 -21 16 -21 9 0 14 7 12 17 -5 25 -28 28 -28 4z"/>
<path d="M2085 3160 c-4 -6 27 -10 84 -10 54 0 91 4 91 10 0 6 -35 10 -84 10
-47 0 -88 -4 -91 -10z"/>
<path d="M2864 5061 c-2 -2 -4 -49 -4 -103 l0 -98 103 0 102 0 -1 93 c-1 50
-2 97 -3 102 -1 10 -188 15 -197 6z m186 -99 l0 -88 -87 0 -88 1 -1 80 c-1 44
1 83 3 88 2 4 42 7 89 7 l84 0 0 -88z"/>
<path d="M2845 4451 c-7 -12 12 -24 25 -16 11 7 4 25 -10 25 -5 0 -11 -4 -15
-9z"/>
<path d="M2845 3968 c0 -88 4 -123 13 -126 13 -4 14 8 14 151 0 58 3 77 13 77
8 0 17 5 20 10 4 6 -7 10 -27 10 l-33 0 0 -122z"/>
<path d="M2931 3908 l-1 -28 84 0 c79 0 85 1 83 21 -1 18 -3 18 -13 5 -8 -12
-29 -16 -77 -16 -60 0 -66 2 -70 23 -4 19 -4 18 -6 -5z"/>
<path d="M2820 3120 c0 -18 7 -20 85 -20 82 0 85 1 85 23 -1 20 -2 20 -11 5
-14 -25 -155 -27 -145 -3 3 8 1 15 -4 15 -6 0 -10 -9 -10 -20z"/>
<path d="M2866 2473 c-3 -4 19 -33 51 -65 49 -49 54 -58 35 -58 -12 0 -22 -6
-22 -12 0 -12 13 -13 76 -9 14 1 17 81 4 81 -5 0 -13 -7 -18 -17 -8 -14 -17
-9 -60 35 -55 55 -55 56 -66 45z"/>
<path d="M2863 1942 l27 -28 -25 -24 c-13 -12 -22 -27 -19 -32 4 -5 16 0 28
11 28 26 34 26 63 -1 18 -16 23 -18 23 -6 0 8 -9 23 -20 33 l-20 18 22 24 c28
30 15 43 -15 15 l-24 -22 -18 20 c-10 11 -25 20 -33 20 -11 0 -8 -8 11 -28z"/>
<path d="M2894 1462 c-6 -27 -11 -32 -36 -32 -17 0 -27 -4 -23 -10 3 -5 17
-10 31 -10 22 0 31 -17 25 -52 0 -5 4 -8 9 -8 10 0 14 13 11 43 -2 13 5 17 28
17 38 0 41 18 4 22 -21 2 -28 8 -28 25 0 35 -14 39 -21 5z"/>
<path d="M3590 4623 c-8 -3 -25 -15 -37 -26 -21 -19 -23 -29 -23 -123 0 -117
10 -149 53 -164 41 -14 415 -13 457 1 44 16 57 54 55 159 -3 160 -1 159 -281
158 -115 0 -216 -2 -224 -5z m443 -20 c32 -8 44 -52 42 -151 -2 -133 11 -127
-252 -129 -211 -2 -246 2 -265 31 -4 6 -8 56 -8 111 0 105 3 115 34 132 19 10
414 16 449 6z"/>
<path d="M3654 4498 c29 -40 30 -51 7 -90 -16 -28 -18 -38 -8 -38 7 0 20 11
27 25 7 14 17 25 21 25 3 0 14 -11 23 -25 9 -14 24 -25 32 -25 13 0 11 7 -10
34 -31 41 -31 44 -6 76 23 30 25 40 7 40 -8 0 -19 -11 -25 -25 -6 -14 -15 -25
-20 -25 -5 0 -14 11 -20 25 -6 14 -19 25 -28 25 -15 0 -15 -2 0 -22z"/>
<path d="M3664 4049 c-26 -29 -26 -120 1 -149 24 -26 67 -26 91 1 26 29 26
119 0 148 -24 27 -68 27 -92 0z m76 -18 c5 -11 10 -36 10 -56 0 -46 -15 -75
-40 -75 -25 0 -40 29 -40 75 0 46 15 75 40 75 11 0 24 -9 30 -19z"/>
<path d="M3896 4051 c-24 -26 -25 -111 -2 -145 20 -31 65 -35 90 -7 33 36 33
122 0 155 -21 22 -67 20 -88 -3z m74 -16 c17 -20 14 -105 -4 -123 -19 -19 -52
-7 -60 21 -21 80 23 151 64 102z"/>
<path d="M4042 4023 c3 -49 3 -49 49 -36 18 5 49 -21 49 -42 0 -18 -27 -45
-45 -45 -7 0 -20 7 -29 15 -16 16 -36 20 -36 7 0 -18 38 -42 67 -42 38 0 63
27 63 68 0 42 -25 65 -66 60 -29 -3 -33 -1 -30 17 2 16 12 21 44 23 62 5 51
22 -14 22 l-55 0 3 -47z"/>
<path d="M3810 3895 c0 -8 7 -15 15 -15 8 0 15 7 15 15 0 8 -7 15 -15 15 -8 0
-15 -7 -15 -15z"/>
<path d="M4330 3565 c0 -42 -4 -75 -10 -75 -5 0 -28 10 -50 21 l-42 22 -21
-22 c-20 -19 -22 -32 -22 -121 0 -88 2 -102 21 -121 l21 -21 41 21 c23 12 46
21 52 21 7 0 10 -91 10 -275 l0 -275 3495 0 3495 0 0 450 0 450 -3495 0 -3495
0 0 -75z m6970 -375 l0 -427 -3470 0 c-2549 0 -3470 3 -3471 11 -1 6 -2 124
-3 262 -2 295 -6 309 -80 261 -57 -37 -78 0 -71 121 5 88 15 97 73 66 59 -32
72 -21 77 67 2 35 4 64 4 65 1 0 1563 1 3471 1 l3470 0 0 -427z"/>
<path d="M5442 3540 c-4 -3 -7 -35 -8 -73 -1 -37 -4 -70 -7 -73 -3 -4 -22 4
-41 16 -52 31 -78 24 -92 -27 -15 -51 -10 -174 8 -202 16 -27 42 -27 85 0 19
12 37 18 41 14 4 -3 7 -85 7 -181 l0 -174 2848 0 2847 0 -2 352 -3 353 -2838
0 c-1562 0 -2842 -2 -2845 -5z m5668 -350 l0 -330 -2825 0 -2825 0 -1 143 c-2
238 -2 239 -87 195 -60 -32 -67 -19 -64 126 2 80 18 96 65 67 19 -11 42 -21
51 -21 16 0 38 40 35 64 -1 6 -1 28 0 49 l1 37 2825 0 2825 0 0 -330z"/>
<path d="M6470 3375 c0 -45 -4 -75 -10 -75 -6 0 -28 9 -50 20 -22 11 -43 20
-48 20 -35 0 -56 -166 -31 -238 14 -42 34 -46 85 -18 23 13 45 21 48 18 3 -3
6 -43 6 -89 l0 -83 280 0 280 0 0 260 0 260 -280 0 -280 0 0 -75z m538 -186
l2 -236 -257 1 -258 1 -3 77 c-4 95 -16 110 -67 79 -20 -12 -43 -21 -51 -21
-21 0 -34 42 -34 110 0 68 13 110 34 110 8 0 31 -9 51 -21 50 -30 65 -15 65
66 0 34 2 64 5 67 3 3 119 5 258 4 l252 -1 3 -236z"/>
<path d="M6704 3269 c-26 -29 -26 -119 0 -148 24 -27 68 -27 91 -1 26 29 27
120 1 149 -24 27 -68 27 -92 0z m76 -18 c5 -11 10 -36 10 -56 0 -46 -15 -75
-40 -75 -25 0 -40 29 -40 75 0 46 15 75 40 75 11 0 24 -9 30 -19z"/>
<path d="M7610 3375 c0 -84 -5 -89 -63 -55 -63 37 -87 3 -87 -121 0 -97 19
-144 53 -133 12 3 36 15 53 25 17 10 34 16 37 12 4 -3 7 -44 7 -90 l0 -83 473
2 472 3 0 255 0 255 -473 3 -472 2 0 -75z m921 41 c5 -74 3 -435 -3 -448 -7
-15 -48 -16 -453 -16 l-445 1 0 77 c0 101 -10 110 -78 76 l-49 -25 -12 25 c-6
14 -11 56 -11 94 0 38 5 80 11 94 l12 25 50 -26 c48 -24 51 -24 64 -7 7 10 13
44 13 79 l0 62 450 0 c317 0 450 -3 451 -11z"/>
<path d="M7846 3277 c-12 -9 -20 -30 -23 -63 -6 -77 28 -123 81 -110 29 7 55
52 51 90 -1 11 -3 29 -4 39 -3 45 -67 72 -105 44z m68 -23 c30 -29 11 -134
-24 -134 -27 0 -41 24 -43 73 -2 67 31 97 67 61z"/>
<path d="M8074 3269 c-13 -15 -18 -36 -18 -74 0 -62 22 -95 64 -95 42 0 64 32
64 94 1 39 -4 60 -18 75 -24 27 -68 27 -92 0z m76 -18 c5 -11 10 -36 10 -56 0
-46 -15 -75 -40 -75 -25 0 -40 29 -40 75 0 46 15 75 40 75 11 0 24 -9 30 -19z"/>
<path d="M8219 3260 c-1 -16 -2 -36 -3 -42 -2 -19 16 -28 31 -16 32 26 75 -10
65 -54 -5 -26 -52 -35 -67 -14 -13 17 -35 22 -35 8 0 -5 8 -16 18 -25 42 -38
112 -6 112 51 0 39 -31 66 -70 60 -26 -4 -30 -2 -30 19 0 21 5 23 45 23 25 0
45 5 45 10 0 6 -25 10 -55 10 -54 0 -55 0 -56 -30z"/>
<path d="M7990 3115 c0 -8 7 -15 15 -15 8 0 15 7 15 15 0 8 -7 15 -15 15 -8 0
-15 -7 -15 -15z"/>
<path d="M9190 3386 c0 -95 -3 -99 -54 -70 -50 28 -69 24 -86 -16 -18 -44 -10
-205 12 -226 16 -16 20 -16 67 8 27 15 52 24 55 20 3 -3 6 -43 6 -89 l0 -83
280 0 280 0 0 260 0 260 -280 0 -280 0 0 -64z m535 -197 l0 -237 -257 0 -258
0 0 72 c0 44 -5 79 -13 90 -13 17 -16 17 -64 -7 l-50 -26 -12 25 c-14 31 -15
159 -1 185 14 25 30 24 76 -3 36 -21 37 -21 50 -3 8 11 14 44 14 80 l0 62 258
-1 257 -1 0 -236z"/>
<path d="M9438 3276 c-10 -7 -18 -19 -18 -27 0 -10 3 -10 12 -1 23 23 28 12
28 -58 0 -68 -1 -70 -25 -70 -14 0 -25 -4 -25 -10 0 -6 27 -10 60 -10 33 0 60
4 60 10 0 6 -10 10 -23 10 -21 0 -22 3 -22 82 0 88 -10 103 -47 74z"/>
<path d="M10380 3375 c0 -42 -4 -75 -10 -75 -5 0 -27 9 -48 20 -22 11 -46 18
-55 14 -48 -18 -49 -250 -1 -268 8 -3 34 4 57 16 23 11 44 20 47 20 3 -1 7
-39 10 -84 l5 -83 278 -3 277 -2 0 260 0 260 -280 0 -280 0 0 -75z m540 -186
l0 -237 -258 0 -258 0 -1 75 c-2 73 -12 103 -36 99 -7 -2 -29 -11 -50 -21 -30
-15 -40 -16 -50 -6 -17 17 -16 183 2 204 12 15 17 14 58 -10 59 -34 72 -22 75
68 l2 66 258 0 258 0 0 -238z"/>
<path d="M10614 3269 c-26 -29 -25 -120 1 -149 23 -26 67 -26 90 0 27 29 27
120 1 149 -24 27 -68 27 -92 0z m76 -18 c5 -11 10 -36 10 -56 0 -46 -15 -75
-40 -75 -25 0 -40 29 -40 75 0 46 15 75 40 75 11 0 24 -9 30 -19z"/>
<path d="M5664 3298 c-2 -4 -5 -49 -6 -100 l-2 -93 102 -3 102 -3 0 101 c0 97
-1 100 -22 101 -128 4 -171 3 -174 -3z m172 -95 l-1 -78 -77 -1 -78 -1 0 78 0
79 79 0 78 0 -1 -77z"/>
<path d="M5784 3249 c-7 -12 15 -31 28 -23 4 3 8 12 8 20 0 17 -26 19 -36 3z"/>
<path d="M5703 3165 c-7 -20 2 -29 21 -22 9 4 13 13 10 22 -8 19 -23 19 -31 0z"/>
<path d="M6093 3188 l2 -123 28 -3 c15 -2 27 1 27 7 0 6 -7 11 -15 11 -12 0
-15 19 -15 115 0 93 -3 115 -14 115 -12 0 -14 -22 -13 -122z"/>
<path d="M7235 3300 c-3 -5 3 -10 13 -10 19 0 20 -7 19 -106 -2 -98 4 -137 17
-123 6 5 9 110 7 207 -1 38 -3 42 -25 42 -14 0 -28 -4 -31 -10z"/>
<path d="M9999 3246 c-1 -9 -2 -22 -3 -28 0 -7 -13 -14 -28 -16 -16 -2 -28 -7
-28 -12 0 -5 12 -10 28 -12 22 -2 27 -8 26 -30 -1 -18 4 -28 12 -28 9 0 14 11
14 30 0 27 3 30 31 30 17 0 28 4 24 10 -3 6 -19 10 -34 10 -24 0 -28 3 -24 24
3 13 0 27 -6 30 -6 4 -12 0 -12 -8z"/>
<path d="M8760 3243 c0 -4 9 -17 21 -29 l20 -22 -21 -20 c-12 -11 -20 -26 -18
-33 3 -9 10 -7 23 9 24 27 37 28 60 2 10 -11 22 -17 27 -14 5 4 -2 18 -16 33
-26 27 -26 27 -6 44 19 16 27 37 15 37 -3 0 -15 -9 -27 -20 -22 -20 -22 -20
-43 0 -22 20 -35 25 -35 13z"/>
<path d="M4562 3286 c35 -26 37 -56 6 -118 -32 -67 -32 -68 -15 -68 6 0 22 24
33 52 l22 53 18 -53 c10 -28 24 -52 31 -52 17 0 17 -4 -12 75 -39 104 -53 125
-78 125 -20 -1 -21 -2 -5 -14z"/>
<path d="M4931 3156 c-10 -12 -8 -17 8 -26 14 -7 21 -7 21 0 0 6 27 10 67 10
36 0 64 3 60 6 -3 4 -33 6 -67 6 -33 0 -60 4 -60 9 0 14 -16 11 -29 -5z"/>
<path d="M11949 3408 c-1 -24 0 -55 1 -70 2 -38 -15 -42 -67 -17 l-46 22 -19
-22 c-17 -22 -21 -44 -21 -121 0 -77 4 -99 22 -121 l19 -23 51 26 c45 24 51
25 53 10 1 -9 2 -24 4 -32 1 -8 2 -41 3 -72 l1 -58 274 0 c210 0 275 3 278 13
3 6 4 122 4 257 l-1 245 -277 3 -278 2 -1 -42z m532 -5 c3 -71 4 -430 1 -439
-2 -9 -75 -12 -258 -12 l-254 0 0 62 c0 114 -16 131 -85 90 l-44 -25 -11 21
c-13 24 -17 154 -6 188 9 27 25 28 72 3 57 -31 74 -14 74 80 0 25 2 48 5 51 3
3 118 5 255 5 l250 -1 1 -23z"/>
<path d="M12175 3268 c-18 -27 -3 -37 21 -13 20 19 43 16 58 -7 9 -15 2 -27
-42 -71 -28 -29 -52 -58 -52 -65 0 -8 21 -12 65 -12 37 0 65 4 65 10 0 6 -24
10 -52 10 l-53 0 48 46 c26 25 47 49 48 52 0 4 2 15 4 25 8 43 -82 64 -110 25z"/>
<path d="M3920 3290 c0 -5 5 -10 10 -10 6 0 15 -11 21 -24 10 -21 7 -35 -19
-90 -23 -49 -27 -66 -17 -66 8 0 24 23 37 52 l22 51 16 -48 c15 -44 40 -73 40
-46 0 20 -53 156 -68 174 -16 19 -42 23 -42 7z"/>
<path d="M3660 3221 c0 -41 4 -71 10 -71 6 0 10 15 11 33 1 17 2 47 3 66 0 20
-4 36 -12 39 -9 3 -12 -15 -12 -67z"/>
<path d="M11557 3283 c-4 -3 -7 -15 -7 -25 0 -10 -10 -23 -22 -28 -18 -7 -19
-9 -6 -9 24 -1 18 -42 -7 -51 -16 -6 -16 -7 -3 -12 11 -5 14 -15 11 -35 -4
-19 -2 -25 5 -18 5 6 12 19 14 30 2 13 12 20 27 21 20 1 22 -2 17 -27 -3 -16
-2 -29 3 -29 5 0 11 14 15 31 4 22 10 30 21 26 8 -4 17 -2 20 3 4 6 -2 10 -13
10 -29 0 -17 50 12 51 18 1 18 2 2 6 -14 4 -17 11 -12 34 3 16 1 29 -4 29 -6
0 -11 -4 -11 -10 -1 -5 -3 -14 -4 -20 -1 -5 -3 -14 -4 -20 0 -5 -12 -10 -26
-10 -22 0 -24 3 -18 30 5 30 3 36 -10 23z m41 -85 c-2 -15 -11 -24 -25 -26
-25 -4 -31 16 -11 36 20 20 40 14 36 -10z"/>
<path d="M3660 3115 c0 -9 5 -15 11 -13 6 2 11 8 11 13 0 5 -5 11 -11 13 -6 2
-11 -4 -11 -13z"/>
<path d="M3682 2494 c-28 -19 -30 -39 -2 -24 19 10 20 8 20 -60 0 -68 -1 -70
-25 -70 -14 0 -25 -4 -25 -10 0 -6 29 -10 66 -10 41 0 63 4 59 10 -3 6 -15 10
-26 10 -17 0 -19 8 -20 63 -1 34 0 72 1 85 2 26 -16 29 -48 6z"/>
<path d="M3682 1994 c-28 -19 -30 -39 -2 -24 19 10 20 8 20 -60 0 -63 -2 -70
-19 -70 -11 0 -23 -4 -26 -10 -4 -6 18 -10 60 -10 42 0 64 4 60 10 -3 6 -15
10 -26 10 -17 0 -19 8 -19 85 0 91 -5 99 -48 69z"/>
<path d="M3664 1499 c-26 -29 -26 -119 0 -148 24 -26 57 -27 87 -2 19 15 23
28 23 75 0 40 -6 61 -19 76 -24 26 -67 26 -91 -1z m74 -11 c15 -15 16 -92 2
-119 -6 -10 -19 -19 -30 -19 -25 0 -40 29 -40 75 0 64 35 96 68 63z"/>
<path d="M2103 940 c-41 -25 -56 -72 -37 -118 7 -18 10 -40 7 -50 -6 -14 -4
-15 8 -5 9 8 20 9 29 3 37 -24 123 3 135 41 14 43 13 63 -2 93 -10 17 -16 38
-14 45 2 12 0 13 -12 2 -10 -8 -17 -9 -22 -1 -10 16 -57 12 -92 -10z m90 -11
c26 -12 47 -47 47 -78 0 -33 -46 -71 -84 -71 -19 0 -38 5 -41 10 -4 6 11 32
33 58 21 26 42 54 46 62 7 14 -12 -6 -72 -74 -23 -27 -26 -28 -38 -12 -18 25
-8 67 22 94 28 24 51 27 87 11z"/>
<path d="M379 422 c-3 -26 -1 -144 3 -148 10 -9 168 60 168 73 0 7 -17 20 -37
29 -94 39 -133 53 -134 46z m86 -53 l48 -21 -34 -15 c-85 -37 -79 -37 -79 12
0 25 4 45 9 45 5 0 30 -10 56 -21z"/>
<path d="M1036 493 c-26 -26 -27 -28 -24 -142 l3 -115 31 -21 c29 -19 44 -21
253 -20 l222 2 26 25 c23 23 25 33 25 109 1 133 0 138 -28 164 l-27 25 -227 0
-227 0 -27 -27z m494 -11 c21 -17 22 -27 23 -121 0 -152 12 -146 -262 -146
-275 1 -261 -7 -261 142 0 150 -14 143 259 143 196 0 221 -2 241 -18z"/>
<path d="M1134 388 c29 -40 30 -51 7 -90 -15 -27 -18 -38 -8 -38 7 0 21 14 31
31 l19 31 19 -31 c11 -17 27 -31 35 -31 12 0 9 8 -11 34 -31 42 -32 46 -5 80
12 15 18 30 14 34 -4 4 -17 -6 -30 -23 -26 -31 -26 -31 -44 3 -6 12 -19 22
-28 22 -14 0 -14 -2 1 -22z"/>
</g>
</svg>
