<?xml version="1.0" standalone="no"?>
<!DOCTYPE svg PUBLIC "-//W3C//DTD SVG 20010904//EN"
 "http://www.w3.org/TR/2001/REC-SVG-20010904/DTD/svg10.dtd">
<svg version="1.0" xmlns="http://www.w3.org/2000/svg"
 width="1201.000000pt" height="822.000000pt" viewBox="0 0 1201.000000 822.000000"
 preserveAspectRatio="xMidYMid meet">
<metadata>
Created by potrace 1.16, written by Peter Selinger 2001-2019
</metadata>
<g transform="translate(0.000000,822.000000) scale(0.100000,-0.100000)"
fill="#000000" stroke="none">
<path d="M301 8029 c-44 -20 -75 -49 -98 -92 -17 -30 -18 -221 -19 -3774 0
-2058 1 -3755 4 -3772 5 -38 71 -114 114 -132 28 -12 240 -14 1283 -14 l1250
0 3 593 2 592 1118 0 1117 0 0 308 0 307 -93 3 -92 3 0 303 c0 330 3 315 -57
310 -20 -1 -33 2 -34 9 -6 64 -2 417 5 417 5 0 4 6 -1 13 -5 7 -9 174 -8 390
0 250 -3 377 -10 378 -5 1 -230 2 -500 2 l-490 2 0 580 0 579 338 1 c185 0
337 -4 337 -8 0 -5 5 -5 12 -1 7 4 210 8 453 8 l440 1 3 308 2 307 139 0 140
0 -2 308 -2 307 -1235 1 c-679 1 -1243 2 -1252 3 -17 1 -18 22 -18 296 l0 295
-477 2 -476 3 0 280 0 280 1091 3 1092 2 0 308 0 308 -1753 -1 -1754 0 -69
-46 c-85 -56 -110 -55 -196 4 l-61 42 -105 0 c-77 1 -114 -4 -141 -16z m301
-54 c52 -35 77 -45 107 -45 31 0 54 10 104 45 l65 45 1738 0 1739 0 0 -282 -1
-283 -1741 0 -1741 0 -69 -47 c-39 -27 -81 -48 -94 -48 -13 0 -56 21 -94 47
l-70 48 -165 0 -165 0 0 230 c0 230 0 230 25 263 42 57 81 71 195 72 l100 0
67 -45z m0 -591 c91 -62 123 -62 214 0 l66 46 109 0 109 0 0 -74 c0 -41 -4
-77 -9 -81 -6 -3 -32 7 -59 22 -57 32 -77 27 -97 -22 -20 -46 -20 -194 0 -240
19 -48 36 -52 95 -21 27 14 54 26 60 26 7 0 10 -1094 10 -3385 l0 -3385 -381
0 c-425 0 -424 0 -476 68 l-28 37 -3 3528 -2 3527 162 0 162 0 68 -46z m1568
-323 c0 -255 -3 -372 -11 -377 -6 -3 -33 6 -60 20 -38 21 -53 25 -68 16 -27
-14 -41 -69 -41 -160 0 -154 33 -190 121 -135 22 14 44 23 49 20 13 -8 14
-2742 0 -2750 -5 -3 -32 6 -60 21 -27 14 -57 23 -65 20 -9 -3 -23 -23 -32 -43
-22 -54 -14 -234 12 -263 23 -26 32 -25 89 5 26 14 52 23 57 20 13 -8 12 -962
-1 -970 -5 -3 -29 5 -53 19 -53 31 -68 32 -92 6 -28 -31 -34 -221 -8 -270 15
-28 23 -35 46 -33 15 1 41 11 57 23 62 44 60 59 60 -469 0 -305 -4 -482 -10
-486 -5 -3 -29 5 -53 19 -53 31 -68 32 -92 6 -23 -25 -33 -184 -16 -247 17
-62 40 -70 100 -37 27 14 54 23 60 20 12 -8 16 -321 5 -350 -5 -13 -14 -10
-58 14 -29 17 -58 30 -64 30 -7 0 -21 -14 -31 -31 -25 -40 -29 -200 -7 -253
21 -50 41 -55 98 -23 27 15 53 25 59 22 5 -4 9 -44 9 -91 l0 -84 -522 0 -523
0 0 3385 c0 3228 -1 3385 -18 3402 -17 17 -20 17 -66 -10 -65 -36 -77 -35 -88
11 -11 42 -10 150 1 200 9 39 21 40 88 6 67 -34 78 -24 83 77 2 41 4 77 4 82
1 4 235 7 521 7 l520 0 0 -369z m955 -589 c0 -199 -2 -369 -5 -377 -4 -12 -14
-10 -53 11 -27 14 -58 24 -70 22 -31 -4 -50 -51 -53 -133 -4 -89 10 -155 38
-178 20 -17 22 -16 75 12 48 26 55 28 61 13 11 -28 7 -951 -4 -962 -6 -6 -23
-1 -47 16 -49 33 -87 29 -107 -11 -22 -46 -21 -222 3 -258 22 -34 46 -34 103
-1 25 15 48 24 51 20 8 -8 8 -355 0 -363 -3 -3 -27 7 -52 21 -25 15 -56 26
-68 24 -32 -4 -50 -52 -53 -138 -4 -90 8 -146 35 -173 l20 -20 55 28 c31 16
59 26 62 22 9 -9 9 -156 0 -165 -8 -8 -915 -10 -917 -2 0 3 -1 581 -2 1285 -1
704 -6 1286 -10 1293 -12 19 -43 15 -95 -13 -25 -14 -50 -21 -54 -17 -4 4 -11
25 -16 47 -8 36 -8 63 -3 166 0 14 7 34 15 44 14 19 15 19 64 -8 58 -31 77
-34 87 -9 6 14 13 86 15 153 0 14 46 16 463 15 l462 -1 0 -363z m1585 -305 c0
-41 -3 -77 -6 -80 -4 -4 -28 5 -54 20 -89 50 -120 15 -120 -137 0 -90 14 -146
40 -160 14 -7 31 -3 73 19 46 24 57 27 61 14 3 -8 6 -93 6 -189 0 -193 -4
-204 -58 -166 -50 36 -78 38 -99 6 -15 -23 -18 -49 -18 -145 0 -101 3 -120 19
-138 25 -27 40 -26 93 5 24 14 48 22 53 19 6 -3 10 -44 10 -91 l0 -84 -780 0
-780 0 0 384 c0 226 -4 395 -10 410 -12 33 -36 33 -91 1 -24 -14 -47 -25 -51
-25 -25 0 -38 169 -17 243 9 33 13 37 32 31 12 -4 34 -15 49 -25 34 -24 65
-24 78 0 5 11 10 51 10 90 l0 71 780 0 780 0 0 -73z m921 36 c3 -142 0 -514
-5 -521 -6 -10 -871 -11 -881 0 -4 4 -8 42 -10 85 -4 124 -16 134 -101 87 -45
-25 -48 -26 -61 -8 -13 18 -15 33 -16 119 0 86 3 111 16 129 12 16 15 15 60
-9 27 -14 56 -25 67 -25 24 0 37 40 36 118 l-1 62 448 0 447 0 1 -37z m-276
-851 c0 -151 -3 -278 -6 -283 -3 -5 -132 -8 -308 -7 l-303 3 -2 87 c-3 121
-23 139 -98 87 -35 -25 -65 -24 -74 3 -19 61 -6 248 18 248 6 0 35 -12 65 -27
50 -26 54 -26 70 -10 12 12 18 37 19 94 2 43 3 78 3 79 1 0 139 0 308 0 l307
-1 1 -273z m-1597 -321 c9 -1 12 -64 12 -281 l0 -280 -310 0 -310 0 0 84 c0
65 -4 89 -17 105 l-18 21 -57 -30 c-56 -30 -57 -30 -71 -10 -18 26 -23 178 -7
226 13 38 25 39 84 3 64 -39 86 -15 86 96 0 52 3 64 17 67 15 3 561 2 591 -1z
m12 -870 c0 -214 -3 -280 -12 -283 -7 -2 -146 -4 -308 -4 l-295 1 -5 90 c-8
128 -16 135 -101 88 -66 -38 -73 -29 -77 103 -3 83 -1 110 12 129 l16 24 57
-30 58 -30 17 21 c14 17 18 40 18 96 l0 74 310 0 310 0 0 -279z m-16 -389 c-1
-40 -4 -76 -8 -79 -3 -3 -28 6 -56 21 -59 32 -82 28 -101 -17 -18 -42 -18
-201 0 -244 18 -45 43 -49 102 -18 28 14 54 23 58 20 8 -9 7 -372 -1 -380 -4
-4 -26 5 -51 19 -94 55 -121 25 -121 -133 0 -160 24 -189 117 -140 39 20 57
26 58 17 4 -49 4 -168 -1 -169 -3 -1 -351 -2 -773 -3 -487 -1 -771 2 -775 9
-3 5 -6 184 -6 397 -1 359 -2 389 -19 405 -17 17 -20 17 -67 -9 -28 -16 -57
-28 -65 -28 -21 0 -29 42 -29 148 1 73 4 97 17 110 16 15 21 14 72 -13 52 -28
55 -29 72 -13 12 13 17 37 19 90 1 40 2 76 3 79 1 3 351 5 779 5 l777 -1 -1
-73z m1016 -209 l0 -283 -495 0 -495 0 0 89 c0 68 -4 93 -16 105 -19 20 -14
21 -79 -11 -43 -21 -58 -24 -67 -15 -17 17 -24 194 -8 232 15 36 27 37 76 8
77 -45 94 -30 94 80 0 38 2 71 5 74 3 2 226 5 495 4 l490 0 0 -283z m0 -616
l0 -282 -495 0 -495 0 0 83 c0 127 -17 143 -98 96 l-45 -27 -18 22 c-15 18
-18 39 -16 125 3 137 10 146 84 107 31 -16 61 -27 68 -25 18 7 25 38 25 117
l0 67 495 0 495 0 0 -283z m-1015 -372 c1 -102 -5 -110 -55 -75 -16 11 -42 23
-58 26 -47 9 -65 -35 -66 -156 -1 -99 13 -154 42 -165 8 -3 40 7 69 22 40 20
56 24 62 15 6 -10 8 -308 2 -370 -1 -10 -14 -6 -47 12 -99 55 -129 25 -128
-129 0 -159 30 -192 124 -141 57 31 57 30 56 -84 l-1 -75 -779 0 -779 1 -1
396 c-1 367 -2 399 -19 415 -17 17 -20 17 -72 -12 -51 -27 -56 -28 -72 -13
-13 13 -16 37 -17 110 0 105 8 148 28 148 8 0 37 -12 66 -27 71 -37 83 -24 84
87 l1 80 780 -2 780 -3 0 -60z m1109 -218 l0 -282 -542 -3 -542 -2 0 86 c0
128 -16 146 -90 99 -50 -32 -68 -32 -80 1 -13 34 -13 173 1 213 13 38 27 39
83 6 70 -41 86 -23 86 98 l0 67 543 0 542 0 -1 -283z m174 -336 c9 -1 12 -65
12 -284 l0 -284 -632 1 -633 1 -5 90 c-7 127 -14 134 -99 90 -69 -34 -76 -23
-76 115 0 138 8 151 73 115 86 -48 102 -34 102 87 0 54 3 67 17 70 14 3 1205
2 1241 -1z m-2227 -613 c3 -13 4 -140 4 -283 l-1 -260 -308 0 -308 0 -2 88
c-3 120 -14 132 -92 94 -35 -18 -60 -25 -66 -19 -16 16 -25 73 -23 147 4 123
16 134 93 90 67 -38 84 -22 88 85 1 36 3 68 3 73 1 4 138 7 305 7 l304 0 3
-22z m1 -597 c1 -14 3 -141 3 -281 l-1 -255 -308 0 -309 0 -2 88 c-2 127 -17
137 -113 76 -50 -31 -72 21 -67 159 5 104 16 114 89 76 52 -27 57 -28 72 -12
11 11 18 38 20 85 1 37 3 73 3 79 1 7 94 11 305 11 l304 0 4 -26z"/>
<path d="M1390 7740 c0 -100 3 -120 15 -120 13 0 19 23 14 56 0 4 5 10 12 15
9 5 23 -5 42 -32 16 -21 35 -39 43 -39 20 0 18 4 -19 56 l-34 46 34 37 c23 25
29 37 19 39 -8 2 -32 -16 -54 -40 l-40 -42 0 54 c0 84 -1 90 -17 90 -12 0 -15
-20 -15 -120z"/>
<path d="M437 7823 c-3 -16 -3 -31 0 -35 8 -14 33 -8 33 7 0 8 -5 15 -11 15
-6 0 -8 9 -4 20 3 11 2 20 -3 20 -5 0 -12 -12 -15 -27z"/>
<path d="M497 7843 c-13 -12 -7 -61 8 -67 11 -4 14 3 12 34 -2 39 -7 47 -20
33z"/>
<path d="M775 7808 c8 -24 23 -76 35 -115 33 -116 64 -94 96 67 9 42 18 38 32
-17 7 -27 17 -65 23 -85 7 -27 15 -38 29 -38 16 0 24 17 45 88 15 48 30 99 35
115 8 23 6 27 -9 27 -14 0 -23 -18 -39 -79 -12 -43 -22 -87 -22 -97 -1 -32
-16 3 -41 94 -31 113 -47 111 -79 -8 -22 -83 -40 -115 -40 -73 0 9 -10 50 -22
90 -16 54 -26 73 -39 73 -16 0 -17 -3 -4 -42z"/>
<path d="M2591 7837 c-46 -27 -66 -104 -40 -160 31 -67 149 -75 191 -13 15 23
-12 30 -32 8 -26 -28 -79 -29 -111 -3 -31 25 -34 98 -5 130 23 25 81 28 107 5
10 -9 25 -14 34 -12 16 3 16 5 -2 27 -24 29 -105 39 -142 18z"/>
<path d="M3910 7825 c0 -7 -8 -19 -17 -25 -13 -8 -14 -13 -5 -16 8 -4 12 -29
12 -73 0 -39 5 -72 12 -79 16 -16 61 -16 55 1 -2 6 -9 11 -15 10 -13 -3 -21
37 -20 94 1 33 5 43 22 49 21 6 21 7 -1 11 -15 3 -23 12 -23 24 0 10 -4 19
-10 19 -5 0 -10 -7 -10 -15z"/>
<path d="M1116 7787 c-37 -27 -37 -124 1 -153 41 -31 120 -5 124 41 5 58 0 84
-21 105 -23 23 -77 27 -104 7z m78 -23 c24 -23 21 -100 -3 -114 -27 -14 -37
-13 -55 6 -33 33 -12 124 29 124 7 0 21 -7 29 -16z"/>
<path d="M1280 7710 c0 -73 3 -90 15 -90 12 0 15 13 15 56 0 60 13 94 35 94 8
0 15 7 15 15 0 18 -21 20 -38 3 -9 -9 -12 -9 -12 0 0 7 -7 12 -15 12 -12 0
-15 -17 -15 -90z"/>
<path d="M1566 7779 c-9 -13 -16 -27 -16 -31 0 -15 33 -38 71 -48 33 -9 40
-15 37 -33 -4 -26 -41 -31 -75 -10 -28 17 -33 16 -33 -2 0 -20 32 -35 72 -35
48 0 70 19 66 55 -2 24 -10 32 -45 45 -59 22 -71 35 -44 50 17 9 28 8 51 -4
31 -15 44 -9 31 13 -5 7 -29 15 -53 18 -39 5 -47 2 -62 -18z"/>
<path d="M1729 7788 c-1 -7 -2 -64 -3 -125 -1 -102 1 -113 17 -113 14 0 17 9
17 47 0 37 3 44 12 35 18 -18 63 -14 83 8 26 29 28 104 3 135 -21 27 -65 34
-86 13 -9 -9 -12 -9 -12 0 0 16 -30 16 -31 0z m99 -20 c28 -35 15 -122 -18
-124 -36 -1 -50 16 -50 61 0 60 40 97 68 63z"/>
<path d="M1931 7784 c-32 -23 -12 -41 22 -19 20 13 30 14 46 5 36 -19 26 -40
-19 -40 -27 0 -47 -7 -60 -20 -24 -24 -25 -38 -4 -68 18 -26 65 -30 84 -7 11
13 14 13 27 0 8 -8 21 -15 28 -15 20 0 27 17 10 24 -11 4 -15 21 -15 64 0 44
-5 63 -18 75 -24 22 -71 22 -101 1z m89 -89 c0 -19 -36 -55 -55 -55 -24 0 -37
36 -19 54 20 21 74 21 74 1z"/>
<path d="M2111 7774 c-48 -61 -14 -154 56 -154 30 0 63 26 63 48 0 18 -15 14
-34 -7 -31 -34 -76 -2 -76 53 0 56 34 76 74 45 18 -14 27 -16 32 -8 10 17 -33
49 -66 49 -19 0 -36 -9 -49 -26z"/>
<path d="M2282 7780 c-33 -31 -33 -102 1 -137 25 -27 72 -30 106 -7 33 23 11
41 -23 19 -24 -16 -28 -16 -51 -1 -14 9 -25 25 -25 36 0 16 7 19 38 18 91 -1
92 -1 81 35 -5 17 -17 38 -26 45 -26 19 -76 15 -101 -8z m88 -15 c6 -3 10 -13
10 -21 0 -10 -12 -14 -45 -14 -47 0 -55 9 -30 34 14 14 43 15 65 1z"/>
<path d="M2807 7787 c-38 -27 -38 -124 0 -152 41 -32 120 -5 124 42 5 54 0 82
-21 103 -23 23 -77 27 -103 7z m77 -23 c24 -23 21 -100 -3 -114 -27 -14 -37
-13 -55 6 -33 33 -12 124 29 124 7 0 21 -7 29 -16z"/>
<path d="M2970 7710 c0 -73 3 -90 15 -90 8 0 15 3 16 8 0 4 1 32 2 63 3 59 17
89 42 85 24 -4 28 -13 29 -83 2 -52 5 -68 16 -68 12 0 15 15 15 61 1 56 15 94
34 94 24 -1 36 -24 37 -75 3 -84 3 -85 19 -85 12 0 14 14 11 81 -2 55 -8 84
-17 90 -22 14 -55 11 -69 -6 -12 -14 -15 -14 -30 0 -21 19 -54 19 -74 -1 -15
-14 -16 -14 -16 0 0 9 -7 16 -15 16 -12 0 -15 -17 -15 -90z"/>
<path d="M3250 7710 c0 -73 3 -90 15 -90 12 0 15 14 15 64 0 78 22 111 58 87
9 -5 13 -31 13 -80 0 -60 3 -71 17 -71 14 0 17 10 15 65 -1 69 11 96 44 91 20
-3 28 -33 28 -104 -1 -42 2 -52 15 -50 12 3 15 18 14 76 -2 95 -27 122 -84 92
-14 -8 -25 -7 -40 2 -15 10 -27 10 -50 1 -16 -6 -30 -7 -30 -2 0 5 -7 9 -15 9
-12 0 -15 -17 -15 -90z"/>
<path d="M3543 7774 c-22 -22 -25 -32 -20 -72 6 -54 33 -82 79 -82 37 0 68 16
68 35 0 18 0 18 -38 -1 -35 -17 -72 -6 -72 21 0 8 0 18 0 23 0 4 23 8 50 9 28
0 55 1 60 2 17 2 11 37 -11 65 -28 36 -80 36 -116 0z m95 -21 c14 -23 14 -23
-37 -23 -53 0 -55 3 -28 38 15 19 47 11 65 -15z"/>
<path d="M3715 7710 c0 -75 2 -90 15 -88 11 2 15 20 17 68 1 48 6 68 19 77 41
30 62 2 60 -81 -1 -57 1 -66 17 -66 14 0 17 10 17 68 0 81 -17 112 -60 112
-16 0 -32 -5 -36 -11 -4 -8 -9 -8 -17 0 -26 26 -32 9 -32 -79z"/>
<path d="M3999 7779 c-18 -18 -19 -23 -6 -42 8 -12 32 -28 53 -35 47 -16 59
-33 37 -49 -23 -18 -43 -16 -65 4 -25 22 -47 3 -23 -21 24 -23 90 -21 115 4
11 11 20 24 20 29 0 19 -37 50 -70 59 -25 6 -35 14 -35 28 0 23 30 27 62 7 29
-17 44 4 18 24 -28 20 -82 16 -106 -8z"/>
<path d="M455 3841 c0 -49 3 -92 7 -96 8 -8 178 61 197 81 8 7 12 16 9 19 -7
7 -197 85 -207 85 -4 0 -7 -40 -6 -89z m118 -27 c-93 -41 -91 -42 -88 18 1 29
3 54 4 55 0 1 30 -10 66 -25 l65 -27 -47 -21z"/>
<path d="M1452 7209 c-5 -13 -15 -42 -22 -64 -7 -22 -25 -57 -42 -77 -27 -36
-28 -38 -8 -38 21 0 79 78 81 109 0 9 7 0 16 -19 24 -55 53 -90 74 -90 18 0
17 3 -9 38 -27 33 -50 87 -56 128 -1 8 -7 19 -14 26 -8 8 -13 5 -20 -13z"/>
<path d="M1370 5336 c0 -18 16 -29 30 -21 13 8 1 35 -16 35 -8 0 -14 -6 -14
-14z"/>
<path d="M1373 3230 c26 -75 35 -90 51 -88 29 4 79 110 71 148 -10 46 -31 37
-32 -14 -1 -24 -9 -59 -19 -78 l-17 -33 -26 78 c-18 56 -30 77 -42 77 -15 0
-14 -11 14 -90z"/>
<path d="M1365 2171 c-3 -7 2 -11 14 -11 18 0 21 -6 21 -50 0 -38 -4 -50 -15
-50 -8 0 -15 -4 -15 -10 0 -5 20 -10 45 -10 25 0 45 5 45 10 0 6 -8 10 -18 10
-15 0 -18 9 -17 58 0 54 -1 57 -27 60 -14 2 -29 -2 -33 -7z"/>
<path d="M1492 2058 c-67 -112 -79 -140 -53 -124 8 6 138 212 149 238 2 5 -2
8 -10 8 -7 0 -46 -55 -86 -122z"/>
<path d="M1630 2128 c-52 -36 -73 -71 -74 -123 -1 -38 3 -50 24 -67 l25 -20
-23 -18 c-12 -10 -22 -20 -22 -22 0 -1 30 -4 66 -5 44 -2 75 2 96 13 16 8 28
18 25 21 -3 2 -14 0 -24 -6 -12 -6 -34 -6 -58 -1 -21 5 -43 6 -48 3 -6 -3 -7
-1 -3 5 4 7 14 12 22 12 50 0 123 75 128 132 8 86 -61 125 -134 76z m84 -4
c29 -29 11 -116 -35 -165 -31 -33 -50 -36 -74 -13 -32 32 -3 144 47 178 28 20
42 20 62 0z"/>
<path d="M1370 1203 c0 -4 12 -19 26 -34 l26 -28 -26 -24 c-25 -23 -34 -47
-19 -47 4 0 20 12 35 27 l28 27 28 -27 c15 -15 31 -27 35 -27 15 0 6 24 -19
47 l-26 24 26 28 c43 45 30 58 -17 16 l-29 -24 -24 25 c-24 23 -44 31 -44 17z"/>
<path d="M1430 607 c0 -37 -2 -39 -44 -41 -37 -2 -30 -26 8 -26 34 0 36 -2 36
-35 0 -19 5 -35 10 -35 9 0 15 28 11 58 -1 8 11 12 34 12 25 0 35 4 32 13 -2
6 -17 12 -33 12 -25 0 -29 4 -32 30 -5 46 -22 55 -22 12z"/>
<path d="M2460 6675 c0 -20 5 -25 25 -25 20 0 25 5 25 25 0 20 -5 25 -25 25
-20 0 -25 -5 -25 -25z"/>
<path d="M2460 6495 c0 -20 5 -25 25 -25 20 0 25 5 25 25 0 20 -5 25 -25 25
-20 0 -25 -5 -25 -25z"/>
<path d="M2560 6395 c0 -20 5 -25 25 -25 20 0 25 5 25 25 0 20 -5 25 -25 25
-20 0 -25 -5 -25 -25z"/>
<path d="M2440 5629 l0 -129 130 0 130 0 0 130 0 131 -130 -2 -130 -1 0 -129z
m44 90 c-3 -5 -10 -7 -15 -3 -5 3 -7 10 -3 15 3 5 10 7 15 3 5 -3 7 -10 3 -15z
m66 12 c0 -17 -18 -21 -24 -6 -3 9 0 15 9 15 8 0 15 -4 15 -9z m61 -4 c-1 -12
-15 -9 -19 4 -3 6 1 10 8 8 6 -3 11 -8 11 -12z m69 -3 c0 -8 -4 -12 -10 -9 -5
3 -10 10 -10 16 0 5 5 9 10 9 6 0 10 -7 10 -16z m-168 -29 c0 -5 -5 -11 -11
-13 -6 -2 -11 4 -11 13 0 9 5 15 11 13 6 -2 11 -8 11 -13z m70 0 c0 -5 -5 -11
-11 -13 -6 -2 -11 4 -11 13 0 9 5 15 11 13 6 -2 11 -8 11 -13z m73 6 c7 -12
-12 -24 -25 -16 -11 7 -4 25 10 25 5 0 11 -4 15 -9z m-171 -42 c-8 -14 -24
-10 -24 6 0 9 6 12 15 9 8 -4 12 -10 9 -15z m70 0 c-7 -11 -34 -12 -34 -1 0
14 11 21 26 15 8 -3 11 -9 8 -14z m66 0 c0 -5 -7 -9 -15 -9 -15 0 -20 12 -9
23 8 8 24 -1 24 -14z m56 -6 c-10 -10 -19 5 -10 18 6 11 8 11 12 0 2 -7 1 -15
-2 -18z m-158 -24 c-2 -6 -8 -10 -13 -10 -5 0 -11 4 -13 10 -2 6 4 11 13 11 9
0 15 -5 13 -11z m70 0 c-2 -6 -8 -10 -13 -10 -5 0 -11 4 -13 10 -2 6 4 11 13
11 9 0 15 -5 13 -11z m67 2 c7 -12 -12 -24 -25 -16 -11 7 -4 25 10 25 5 0 11
-4 15 -9z m-173 -36 c0 -5 -5 -11 -11 -13 -6 -2 -11 4 -11 13 0 9 5 15 11 13
6 -2 11 -8 11 -13z m68 0 c0 -8 -4 -15 -9 -15 -13 0 -22 16 -14 24 11 11 23 6
23 -9z m61 -8 c-13 -13 -26 -3 -16 12 3 6 11 8 17 5 6 -4 6 -10 -1 -17z m65
-4 c-10 -10 -19 5 -10 18 6 11 8 11 12 0 2 -7 1 -15 -2 -18z m-161 -33 c-5 -8
-11 -8 -17 -2 -6 6 -7 16 -3 22 5 8 11 8 17 2 6 -6 7 -16 3 -22z m66 7 c-13
-13 -26 -3 -16 12 3 6 11 8 17 5 6 -4 6 -10 -1 -17z m73 2 c-9 -15 -34 -10
-28 5 3 8 12 12 20 9 8 -3 11 -9 8 -14z m-169 -29 c3 -5 -1 -10 -9 -10 -9 0
-16 5 -16 10 0 6 4 10 9 10 6 0 13 -4 16 -10z m65 0 c0 -5 -7 -10 -16 -10 -8
0 -12 5 -9 10 3 6 10 10 16 10 5 0 9 -4 9 -10z m65 0 c3 -5 -1 -10 -9 -10 -9
0 -16 5 -16 10 0 6 4 10 9 10 6 0 13 -4 16 -10z m65 0 c0 -5 -7 -10 -16 -10
-8 0 -12 5 -9 10 3 6 10 10 16 10 5 0 9 -4 9 -10z"/>
<path d="M2440 4803 c0 -4 11 -19 25 -33 l25 -26 -25 -30 c-42 -49 -30 -62 17
-17 l28 27 28 -27 c47 -45 62 -26 16 20 l-25 25 25 27 c43 45 27 59 -19 16
l-27 -24 -24 24 c-24 24 -44 32 -44 18z"/>
<path d="M2504 4228 c-4 -7 -8 -24 -8 -38 -1 -22 -5 -25 -33 -24 -22 1 -33 -3
-33 -12 0 -9 12 -14 36 -14 34 0 35 -1 32 -32 -2 -23 1 -34 13 -36 12 -2 14 5
11 33 -4 34 -4 35 32 35 23 0 36 5 36 13 0 8 -9 13 -22 12 -36 -3 -45 4 -46
37 -1 35 -7 44 -18 26z"/>
<path d="M3401 6129 c-17 -10 -32 -28 -32 -39 -2 -21 -5 -38 -9 -42 -6 -9 -4
-58 3 -58 4 0 5 -6 0 -12 -10 -18 -10 -70 1 -85 5 -8 4 -13 -3 -13 -7 0 -9 -4
-6 -10 16 -25 21 -2 21 94 0 112 11 150 48 161 11 3 72 7 133 8 82 2 114 -1
118 -10 2 -7 13 -13 23 -13 20 0 19 3 24 -135 2 -55 0 -114 -6 -132 -12 -42
-50 -60 -123 -58 -32 1 -61 -3 -65 -9 -5 -7 -8 -5 -8 4 0 13 -1 13 -10 0 -5
-8 -10 -10 -10 -4 0 6 -16 10 -35 9 -20 -1 -38 2 -41 7 -3 4 -9 6 -14 3 -4 -2
-13 9 -20 25 -13 31 -30 41 -26 15 4 -28 56 -65 94 -66 126 -4 172 -3 172 3 0
4 6 5 13 2 22 -8 69 15 74 36 3 11 9 20 13 20 11 0 7 261 -3 278 -5 6 -13 12
-18 12 -6 0 -17 6 -24 14 -10 10 -46 14 -133 14 -100 0 -124 -3 -151 -19z"/>
<path d="M4014 6076 c-3 -7 -3 -75 -2 -151 l3 -140 47 -2 c26 -1 50 3 53 8 4
5 -3 9 -14 9 -20 0 -21 5 -21 135 0 130 1 135 21 135 11 0 18 4 14 10 -8 13
-96 10 -101 -4z m46 -141 c0 -113 -2 -135 -15 -135 -13 0 -15 22 -15 135 0
113 2 135 15 135 13 0 15 -22 15 -135z"/>
<path d="M4185 6079 c-4 -5 3 -9 13 -9 18 0 20 -8 18 -132 -1 -118 -3 -133
-18 -136 -37 -7 -16 -18 34 -18 l51 1 1 135 c1 74 0 142 -2 150 -4 18 -87 25
-97 9z m81 -141 c-1 -111 -3 -133 -16 -133 -12 0 -15 20 -16 120 0 131 2 145
21 145 10 0 12 -31 11 -132z"/>
<path d="M3506 6008 c-29 -26 -37 -59 -17 -66 9 -3 11 0 7 7 -11 17 21 61 43
61 29 0 51 -11 51 -25 0 -7 5 -15 11 -17 18 -6 -12 -58 -33 -58 -11 0 -18 -7
-18 -17 0 -14 2 -15 9 -5 4 8 11 13 15 13 18 -3 24 1 34 24 17 36 15 48 -8 76
-28 32 -63 34 -94 7z"/>
<path d="M3490 5915 c7 -8 16 -13 20 -10 5 3 10 -1 13 -7 2 -7 8 -10 12 -5 10
8 -23 36 -44 37 -11 0 -11 -3 -1 -15z"/>
<path d="M4995 6048 c-25 -22 -32 -57 -26 -136 2 -33 45 -72 79 -72 55 0 89
70 75 156 -11 70 -76 96 -128 52z m90 -28 c4 -6 6 -35 6 -66 0 -63 -19 -95
-52 -87 -28 8 -40 36 -41 96 0 41 4 55 22 69 22 18 50 13 65 -12z"/>
<path d="M5272 6054 c-25 -17 -29 -44 -7 -44 8 0 15 5 15 10 0 17 43 29 63 18
28 -15 18 -52 -15 -56 -38 -4 -35 -26 5 -37 33 -10 45 -37 28 -64 -13 -21 -62
-16 -80 7 -11 15 -20 19 -30 13 -11 -7 -9 -14 12 -35 51 -51 137 -24 137 44 0
19 -7 33 -21 40 -18 10 -19 13 -6 23 67 53 -29 131 -101 81z"/>
<path d="M5170 5860 c0 -11 7 -20 15 -20 8 0 15 9 15 20 0 11 -7 20 -15 20 -8
0 -15 -9 -15 -20z"/>
<path d="M4992 5444 c-23 -16 -30 -44 -11 -44 7 0 17 7 24 16 14 20 64 22 75
3 12 -18 -6 -47 -32 -51 -30 -4 -36 -28 -6 -28 30 0 48 -17 48 -47 0 -42 -70
-51 -91 -12 -13 25 -29 24 -29 0 0 -26 37 -51 75 -51 47 0 75 25 75 65 0 23
-6 39 -19 46 -18 12 -18 12 0 30 24 24 24 44 -1 69 -24 24 -77 26 -108 4z"/>
<path d="M3423 4841 c-22 -18 -31 -41 -16 -41 3 0 15 7 25 17 17 15 18 13 18
-70 0 -70 -3 -87 -15 -88 -8 -1 -20 -2 -27 -3 -6 0 -13 -7 -15 -13 -4 -10 15
-13 72 -13 57 0 76 3 72 13 -2 6 -10 13 -18 13 -8 1 -20 2 -26 3 -10 1 -13 28
-13 101 0 89 -2 100 -17 100 -10 -1 -28 -9 -40 -19z"/>
<path d="M3422 4263 c-38 -15 -54 -115 -28 -178 24 -58 102 -61 131 -5 30 58
12 168 -30 184 -19 7 -54 7 -73 -1z m79 -50 c21 -56 5 -136 -30 -146 -44 -11
-71 50 -57 128 11 57 67 69 87 18z"/>
<path d="M2480 3750 c0 -8 -3 -10 -6 -7 -11 11 -42 -12 -57 -41 -10 -21 -14
-62 -12 -151 1 -112 3 -123 25 -146 13 -14 30 -23 37 -21 7 3 15 1 17 -3 3 -4
57 -8 120 -7 101 1 118 4 141 22 15 12 28 28 29 35 2 8 6 21 9 29 9 20 3 53
-11 58 -6 2 -8 -5 -5 -17 11 -44 -19 -98 -58 -107 -22 -5 -187 -5 -234 -1 -28
3 -65 66 -52 91 6 12 5 21 -2 25 -7 5 -8 17 -2 38 5 17 7 34 4 37 -8 8 -9 86
0 86 4 0 7 7 7 15 0 33 33 50 95 50 33 0 66 4 73 9 7 5 12 5 12 -1 0 -6 19 -9
43 -8 40 3 109 -20 104 -33 -2 -7 7 -12 18 -12 3 0 -2 11 -11 25 -9 14 -20 23
-24 20 -5 -3 -10 -1 -12 4 -4 13 -138 22 -138 9 0 -5 -5 -6 -12 -2 -17 10 -68
11 -68 0 0 -5 -7 -3 -15 4 -12 10 -15 10 -15 0z"/>
<path d="M3064 3692 c-10 -8 -12 -271 -1 -288 3 -6 27 -11 52 -11 46 0 60 11
26 20 -17 4 -18 16 -17 133 1 114 3 129 19 132 9 2 17 7 17 11 0 9 -83 12 -96
3z m42 -150 c0 -115 -2 -132 -16 -132 -14 0 -16 17 -14 133 0 72 2 134 3 135
0 2 7 2 14 0 9 -4 12 -40 13 -136z"/>
<path d="M3225 3690 c-4 -6 3 -10 14 -10 20 0 21 -5 21 -135 0 -130 -1 -135
-21 -135 -11 0 -18 -4 -14 -10 3 -5 27 -8 53 -7 l47 3 0 149 0 149 -47 3 c-26
1 -50 -2 -53 -7z m85 -145 c0 -113 -2 -135 -15 -135 -13 0 -15 22 -15 135 0
113 2 135 15 135 13 0 15 -22 15 -135z"/>
<path d="M2765 3600 c0 -40 4 -70 10 -70 6 0 10 30 11 70 0 43 -4 70 -10 70
-7 0 -11 -28 -11 -70z"/>
<path d="M2591 3632 c-1 -7 -6 -10 -12 -7 -13 9 -56 -38 -53 -57 5 -36 16 -58
30 -58 8 0 14 -4 14 -10 0 -5 10 -8 23 -6 12 3 27 5 32 5 17 1 50 64 37 69 -7
2 -10 8 -6 13 3 5 0 9 -6 9 -7 0 -9 -8 -5 -20 7 -21 -17 -65 -28 -53 -4 3 -7
2 -7 -4 0 -6 -9 -9 -20 -6 -11 3 -20 10 -20 15 0 5 -4 6 -10 3 -5 -3 -11 0
-11 7 -1 7 -3 23 -4 36 -1 12 2 22 6 22 5 0 9 6 9 14 0 14 19 14 75 1 30 -7
30 -7 7 10 -12 9 -26 14 -31 11 -5 -4 -12 0 -14 6 -4 10 -6 10 -6 0z"/>
<path d="M4031 3656 c-26 -27 -11 -48 17 -23 27 22 49 27 67 13 23 -16 15 -50
-12 -54 -12 -2 -27 -10 -33 -18 -10 -11 -8 -14 13 -14 24 0 57 -22 57 -39 0
-13 -24 -38 -43 -45 -12 -4 -27 3 -44 20 -30 30 -53 19 -32 -14 23 -37 93 -43
127 -12 28 26 28 64 0 89 -19 18 -19 21 -5 27 23 8 22 57 -1 77 -28 25 -84 22
-111 -7z"/>
<path d="M4220 3660 c-24 -24 -26 -40 -5 -40 8 0 15 5 15 10 0 14 40 28 61 23
42 -11 26 -62 -19 -66 -29 -2 -28 -27 1 -27 29 0 47 -18 47 -47 0 -42 -77 -52
-87 -11 -7 22 -22 23 -30 1 -9 -23 31 -53 71 -53 67 0 104 63 62 104 -20 20
-20 22 -3 39 9 9 17 24 17 32 0 27 -38 55 -75 55 -22 0 -43 -8 -55 -20z"/>
<path d="M4413 3665 c-23 -16 -31 -45 -13 -45 6 0 19 9 30 20 15 15 25 17 42
11 32 -12 36 -49 6 -60 -13 -5 -26 -7 -30 -4 -5 2 -8 -2 -8 -9 0 -8 15 -18 33
-23 33 -10 45 -37 28 -64 -13 -21 -62 -16 -80 7 -11 15 -20 19 -30 13 -23 -15
31 -61 71 -61 69 0 104 64 60 108 -16 16 -17 21 -5 28 19 12 24 49 9 69 -17
24 -86 30 -113 10z"/>
<path d="M4031 3034 c-12 -15 -21 -37 -21 -49 0 -56 62 -91 112 -64 18 10 19
8 13 -13 -4 -12 -16 -31 -27 -40 -19 -17 -22 -17 -49 -1 -35 21 -49 11 -24
-17 24 -26 68 -25 99 3 46 41 44 172 -4 197 -35 19 -77 12 -99 -16z m94 -49
c0 -30 -5 -39 -23 -46 -17 -6 -27 -4 -42 11 -35 35 -2 98 43 81 17 -7 22 -17
22 -46z"/>
<path d="M4220 3040 c-12 -12 -20 -33 -20 -55 0 -59 50 -92 101 -65 16 9 19 7
19 -10 0 -29 -34 -60 -59 -53 -12 3 -21 9 -21 14 0 5 -7 9 -16 9 -25 0 -12
-34 17 -44 66 -23 109 23 109 119 0 46 -4 60 -25 80 -30 31 -77 33 -105 5z
m98 -53 c6 -49 -69 -71 -84 -25 -9 29 3 66 24 71 26 6 57 -17 60 -46z"/>
<path d="M4409 3041 c-28 -23 -30 -82 -3 -112 19 -21 73 -26 92 -7 16 16 16
-2 1 -36 -15 -33 -30 -37 -68 -19 -39 20 -54 8 -22 -18 64 -52 131 0 131 102
0 93 -69 140 -131 90z m66 -7 c20 -8 37 -48 28 -70 -8 -21 -44 -34 -65 -22
-33 17 -19 91 19 98 1 0 9 -3 18 -6z"/>
<path d="M2485 2540 c-4 -6 -10 -8 -14 -5 -11 6 -51 -29 -51 -44 0 -6 -3 -11
-8 -11 -4 0 -8 -45 -9 -100 -1 -87 1 -100 15 -99 10 0 12 3 7 5 -6 2 -9 25 -7
52 4 61 3 113 -4 124 -3 4 -1 8 5 8 5 0 12 9 16 19 3 11 19 24 35 30 17 5 30
15 30 20 0 14 -7 14 -15 1z"/>
<path d="M2511 2531 c0 -11 2 -12 6 -3 2 6 9 9 15 6 15 -9 68 -11 68 -2 0 4
11 3 25 -2 14 -5 25 -6 25 -1 0 5 16 5 34 1 19 -4 37 -6 39 -3 3 2 13 -14 23
-36 17 -37 44 -56 44 -30 0 5 -5 7 -12 3 -8 -5 -9 -2 -5 9 3 10 2 17 -4 17 -6
0 -7 5 -3 12 4 7 3 8 -4 4 -7 -4 -12 -1 -12 8 0 22 -34 30 -142 31 -83 1 -98
-1 -97 -14z"/>
<path d="M3059 2466 c-3 -71 -4 -253 -1 -266 2 -11 17 -16 47 -17 45 -2 69 11
37 19 -17 5 -18 17 -17 129 2 147 1 139 20 139 8 0 15 4 15 9 0 4 -22 8 -50 8
-44 0 -50 -2 -51 -21z m47 -131 c-1 -115 -3 -135 -16 -135 -13 0 -15 18 -14
123 1 150 1 147 17 147 11 0 14 -28 13 -135z"/>
<path d="M3224 2478 c-3 -4 4 -8 15 -8 20 0 21 -5 21 -135 0 -130 -1 -135 -21
-135 -11 0 -17 -4 -14 -10 3 -5 27 -8 53 -7 l47 2 3 144 c2 109 -1 146 -10
152 -17 11 -87 8 -94 -3z m86 -143 c0 -111 -3 -135 -14 -135 -12 0 -15 22 -18
108 -4 133 -1 162 18 162 11 0 14 -24 14 -135z"/>
<path d="M2770 2395 c4 -25 4 -45 0 -45 -4 0 -4 -20 0 -45 4 -25 3 -45 -2 -45
-4 0 -7 -3 -6 -7 5 -19 -15 -53 -35 -60 -23 -8 -32 -9 -84 -12 -44 -2 -42 -17
2 -17 19 0 35 5 35 11 0 5 5 3 10 -5 9 -13 11 -13 19 0 6 8 13 11 17 7 4 -4
19 6 33 22 25 28 27 36 26 132 0 65 -4 104 -11 106 -7 2 -9 -11 -4 -42z"/>
<path d="M2566 2415 c-7 -8 -16 -12 -18 -9 -3 2 -9 -6 -15 -19 -13 -28 5 -92
27 -92 8 0 20 -3 25 -7 24 -14 68 19 78 60 11 45 -66 98 -97 67z m81 -64 c-5
-30 -24 -48 -49 -45 -13 1 -28 3 -34 3 -21 2 -26 51 -9 77 9 14 20 22 25 19 5
-3 12 0 16 6 10 16 55 -36 51 -60z"/>
<path d="M2406 2248 c9 -30 35 -70 41 -64 7 7 -30 85 -40 86 -5 0 -5 -10 -1
-22z"/>
<path d="M2460 2180 c0 -6 3 -10 8 -11 4 0 17 -2 30 -3 12 -2 22 1 22 6 0 4
-3 8 -7 9 -5 0 -18 2 -30 5 -13 2 -23 -1 -23 -6z"/>
<path d="M2548 2182 c-31 -6 -19 -19 17 -19 19 0 35 5 35 10 0 5 -6 7 -14 4
-8 -3 -16 -3 -18 1 -2 4 -11 6 -20 4z"/>
<path d="M4040 2452 c-30 -24 -40 -124 -16 -170 29 -56 103 -56 132 0 24 47
15 145 -15 169 -29 24 -72 24 -101 1z m90 -33 c13 -23 13 -90 1 -122 -11 -29
-44 -40 -68 -22 -13 10 -18 28 -20 71 -2 69 3 83 31 94 26 9 44 3 56 -21z"/>
<path d="M4315 2445 c-22 -21 -25 -33 -25 -90 0 -57 3 -69 25 -90 29 -30 73
-32 102 -6 42 39 37 177 -7 201 -32 17 -70 11 -95 -15z m94 -38 c18 -55 1
-132 -30 -140 -35 -9 -59 25 -59 86 0 53 12 81 40 89 25 8 38 -2 49 -35z"/>
<path d="M4502 2454 c-22 -15 -30 -44 -12 -44 6 0 18 8 29 19 34 34 100 1 70
-35 -6 -8 -22 -14 -35 -14 -35 0 -29 -24 9 -35 25 -8 33 -16 35 -38 3 -21 -2
-29 -20 -36 -29 -10 -48 -4 -70 23 -16 20 -17 20 -24 2 -17 -46 80 -75 126
-38 29 23 30 70 2 92 -19 16 -19 17 -1 28 43 27 5 92 -54 92 -18 0 -43 -7 -55
-16z"/>
<path d="M4217 2274 c-14 -14 -7 -34 12 -34 12 0 18 6 17 17 -3 19 -18 27 -29
17z"/>
<path d="M4041 1833 c-30 -24 -39 -114 -18 -165 26 -62 102 -65 133 -6 24 47
15 145 -15 169 -29 24 -72 24 -100 2z m90 -40 c21 -56 5 -136 -29 -145 -32 -9
-50 10 -57 56 -9 60 2 106 28 115 29 11 47 3 58 -26z"/>
<path d="M4315 1825 c-22 -21 -25 -33 -25 -90 0 -57 3 -69 25 -90 27 -27 70
-32 97 -11 36 27 48 103 27 165 -19 55 -82 69 -124 26z m94 -39 c19 -59 3
-131 -30 -139 -36 -9 -59 26 -59 88 0 41 5 60 19 74 27 27 58 16 70 -23z"/>
<path d="M4505 1825 c-23 -23 -27 -35 -27 -85 0 -58 4 -73 27 -96 34 -34 80
-30 109 9 30 41 28 138 -5 173 -30 32 -72 31 -104 -1z m91 -29 c11 -33 6 -116
-7 -132 -15 -18 -53 -18 -69 1 -7 8 -12 41 -12 72 0 46 4 60 21 74 26 21 58
14 67 -15z"/>
<path d="M4693 1838 c-22 -11 -39 -48 -21 -48 5 0 21 9 35 19 17 14 31 18 46
12 31 -12 35 -49 5 -60 -13 -5 -26 -7 -30 -4 -5 2 -8 -3 -8 -11 0 -9 8 -16 19
-16 20 0 51 -25 51 -41 0 -5 -9 -18 -19 -28 -22 -22 -54 -18 -74 8 -7 9 -18
17 -24 19 -21 4 -15 -23 10 -46 31 -30 89 -30 117 0 32 34 26 73 -15 96 -17
10 -18 11 -3 12 20 0 33 38 24 68 -10 31 -69 41 -113 20z"/>
<path d="M4217 1654 c-14 -14 -7 -35 11 -32 9 2 17 10 17 17 0 16 -18 25 -28
15z"/>
<path d="M2450 1240 c-44 -44 -13 -130 48 -130 15 0 33 5 40 12 9 9 12 8 12
-8 0 -44 -45 -71 -79 -47 -30 20 -45 12 -26 -15 18 -25 69 -30 96 -9 44 34 55
144 18 191 -26 33 -79 36 -109 6z m100 -59 c0 -24 -14 -41 -38 -46 -57 -11
-73 84 -17 97 22 6 55 -25 55 -51z"/>
<path d="M2451 644 c-20 -25 -23 -37 -23 -84 0 -58 4 -73 27 -96 33 -33 80
-30 107 6 39 53 23 181 -25 194 -42 11 -66 6 -86 -20z m94 -28 c18 -77 10
-127 -24 -145 -15 -8 -24 -7 -41 7 -31 25 -31 129 -1 153 26 21 60 14 66 -15z"/>
</g>
</svg>
