<?xml version="1.0" standalone="no"?>
<!DOCTYPE svg PUBLIC "-//W3C//DTD SVG 20010904//EN"
 "http://www.w3.org/TR/2001/REC-SVG-20010904/DTD/svg10.dtd">
<svg version="1.0" xmlns="http://www.w3.org/2000/svg"
 width="1129.000000pt" height="811.000000pt" viewBox="0 0 1129.000000 811.000000"
 preserveAspectRatio="xMidYMid meet">
<metadata>
Created by potrace 1.16, written by Peter Selinger 2001-2019
</metadata>
<g transform="translate(0.000000,811.000000) scale(0.100000,-0.100000)"
fill="#000000" stroke="none">
<path d="M245 7899 c-54 -26 -92 -65 -106 -108 -8 -24 -13 -122 -13 -286 -1
-137 -5 -256 -10 -264 -6 -9 -5 -12 1 -8 6 4 9 -1248 9 -3476 0 -2732 3 -3490
13 -3519 15 -46 78 -104 128 -117 21 -5 109 -10 196 -11 86 0 163 -1 170 -1 6
0 282 0 612 0 330 0 607 0 615 0 13 -1 637 0 695 0 11 0 161 0 333 0 171 0
312 4 313 8 0 5 1 271 2 593 l2 585 1108 1 c796 0 1110 3 1115 11 4 6 7 72 6
147 0 87 3 133 9 129 6 -4 7 -1 1 8 -5 8 -10 77 -11 154 -1 77 -2 146 -2 153
-1 9 -26 12 -91 12 l-90 0 -1 28 c0 15 -1 152 -1 304 0 263 -1 278 -19 283
-10 4 -28 4 -38 0 -11 -3 -23 0 -27 7 -13 20 -12 1181 1 1190 5 4 -82 8 -195
8 -113 0 -342 2 -510 3 l-305 2 0 308 c0 170 3 311 7 314 5 2 5 10 1 16 -12
18 -11 347 0 340 6 -4 7 -1 1 8 -5 8 -9 49 -10 91 l0 78 745 0 c410 0 766 0
791 0 l46 0 0 307 -1 308 140 0 140 0 0 308 0 307 -1251 0 -1251 0 1 293 1
292 -476 3 -476 2 0 293 0 292 451 5 450 5 0 305 0 305 -1322 3 -1322 2 -71
-47 c-39 -26 -80 -48 -92 -49 -20 -1 -75 21 -87 35 -3 3 -24 19 -48 34 -40 26
-49 28 -141 26 -73 -1 -107 -6 -136 -20z m303 -54 c48 -32 77 -45 102 -45 25
0 54 13 102 45 l67 45 1311 0 1310 0 -2 -282 -3 -283 -1307 3 -1306 4 -68 -46
c-90 -61 -117 -61 -206 -1 l-67 45 -166 0 -166 0 3 223 c3 219 3 224 28 261
40 60 79 75 198 76 l103 0 67 -45z m-4 -590 c51 -35 74 -45 105 -45 32 0 55
10 105 45 l65 45 110 0 111 0 0 -74 c0 -41 -4 -77 -10 -81 -5 -3 -27 6 -49 20
-41 25 -67 31 -87 17 -31 -20 -44 -172 -23 -258 15 -60 45 -68 112 -31 34 20
49 24 52 15 3 -7 4 -1533 3 -3392 l-3 -3378 -377 0 c-426 2 -428 2 -475 73
l-28 43 -3 3523 -2 3523 165 0 165 0 64 -45z m1994 -334 c-2 -209 -6 -383 -10
-387 -4 -4 -32 6 -62 22 l-56 29 -20 -21 c-47 -47 -46 -257 1 -300 20 -18 22
-18 75 10 30 16 58 26 62 22 9 -10 9 -2732 0 -2741 -4 -4 -32 5 -64 21 l-57
28 -23 -28 c-25 -28 -29 -58 -25 -181 2 -64 16 -102 42 -118 16 -10 42 -1 96
33 12 8 26 11 30 6 10 -9 11 -961 1 -971 -3 -4 -26 5 -51 19 -59 35 -83 33
-103 -5 -22 -43 -23 -200 -1 -252 20 -46 44 -48 111 -11 33 18 46 22 47 12 1
-7 2 -226 3 -487 2 -368 -1 -474 -10 -478 -7 -2 -33 7 -58 22 -80 47 -109 9
-108 -146 0 -102 17 -159 48 -159 9 0 39 12 66 27 37 20 51 24 57 15 6 -11 8
-263 3 -340 l-2 -23 -49 26 c-94 52 -125 19 -124 -132 0 -153 31 -189 119
-138 25 15 48 24 51 21 4 -3 7 -44 9 -91 l3 -85 -47 -1 c-300 -3 -1415 0
-1419 5 -4 3 -6 1521 -6 3373 0 2090 -4 3378 -10 3396 -11 34 -29 34 -91 1
-47 -25 -50 -26 -63 -8 -13 18 -15 32 -16 119 0 88 3 111 16 129 12 16 16 15
69 -13 77 -41 90 -32 94 75 1 43 3 80 3 82 1 1 332 2 737 2 l735 0 -3 -379z
m952 -602 c0 -254 -3 -370 -11 -375 -6 -3 -33 6 -60 20 -58 32 -81 25 -99 -30
-16 -48 -15 -196 2 -230 23 -47 40 -50 97 -20 29 14 56 24 61 21 13 -8 13
-945 1 -964 -7 -11 -17 -8 -53 13 -54 31 -69 32 -94 5 -15 -17 -19 -40 -22
-123 -5 -126 11 -176 55 -176 16 0 46 12 67 26 31 21 40 24 47 13 11 -18 11
-330 0 -348 -7 -12 -17 -9 -56 13 -87 52 -115 18 -115 -140 0 -91 13 -140 41
-155 15 -8 30 -4 68 17 27 14 54 23 60 20 7 -4 11 -42 11 -92 l0 -84 -465 0
-465 0 0 1284 c0 1154 -2 1286 -16 1300 -20 20 -21 20 -73 -9 -54 -31 -65 -31
-79 0 -15 33 -11 220 6 237 10 10 24 6 67 -15 82 -40 95 -28 95 94 l0 66 465
0 465 0 0 -368z m1580 -295 c0 -42 -5 -76 -11 -80 -6 -3 -33 6 -60 20 -38 21
-53 25 -68 17 -31 -17 -44 -74 -39 -181 3 -79 7 -103 22 -119 24 -27 33 -26
90 4 26 14 52 23 57 20 11 -7 12 -355 1 -373 -7 -10 -19 -7 -55 13 -88 50
-115 19 -116 -130 -1 -157 29 -193 120 -142 57 33 59 30 59 -83 l0 -77 -778 1
-778 1 0 380 c0 209 -4 392 -7 406 -10 38 -30 41 -82 13 -60 -32 -72 -30 -83
9 -14 50 -9 201 7 221 18 22 30 20 73 -9 68 -46 87 -28 92 88 2 39 4 72 5 73
0 0 350 1 776 1 l775 0 0 -73z m920 -211 l0 -283 -447 0 -448 0 -1 91 c-2 120
-12 131 -82 95 -63 -32 -79 -32 -88 -3 -10 33 -12 167 -3 201 14 48 23 51 78
22 28 -14 55 -26 60 -26 19 0 34 44 36 109 2 36 3 69 4 72 1 3 201 6 446 6
l445 0 0 -284z m-280 -617 l0 -284 -307 1 -308 2 -1 87 c-1 124 -18 140 -100
92 -31 -18 -49 -23 -55 -17 -16 16 -26 72 -24 131 3 97 5 108 18 125 11 16 15
15 59 -8 26 -14 56 -25 67 -25 25 0 37 38 36 118 l-1 62 308 0 308 0 0 -284z
m-1580 -589 l0 -282 -307 0 -308 0 -1 88 c-2 86 -12 117 -39 117 -7 0 -34 -12
-60 -26 -63 -36 -74 -25 -81 87 -10 143 17 187 86 140 39 -28 58 -31 75 -15
15 16 17 26 18 122 l0 52 309 0 308 0 0 -283z m0 -592 l0 -285 -308 0 -307 0
-2 91 c-1 124 -12 135 -88 94 -52 -27 -56 -28 -72 -12 -19 19 -27 169 -12 225
12 39 26 40 91 5 49 -27 50 -27 64 -8 14 19 16 33 17 123 l0 52 308 0 309 0 0
-285z m-10 -374 c0 -83 -10 -102 -42 -82 -79 50 -101 50 -126 -3 -18 -36 -18
-206 0 -242 23 -47 40 -51 99 -20 41 21 54 24 61 14 9 -15 11 -322 2 -356 l-6
-22 -45 25 c-66 36 -91 33 -110 -12 -20 -49 -20 -197 1 -247 18 -44 41 -46
104 -10 55 32 59 28 61 -77 l2 -79 -778 2 -778 3 -2 380 c-1 385 -6 435 -38
435 -9 0 -33 -11 -53 -25 -39 -26 -67 -32 -77 -15 -24 39 -15 247 11 257 8 3
37 -6 64 -21 75 -41 91 -25 92 87 0 34 2 65 4 68 2 4 353 7 779 7 l775 -1 0
-66z m1010 -217 l0 -284 -493 0 -493 0 -1 48 c-1 109 -4 129 -17 147 -13 18
-15 18 -66 -8 -28 -15 -58 -27 -66 -27 -20 0 -29 43 -29 135 0 90 9 135 28
135 7 0 33 -11 59 -25 73 -39 90 -22 90 89 0 34 2 64 4 67 2 4 224 6 494 6
l490 0 0 -283z m0 -614 l0 -280 -494 0 -494 0 0 58 c0 103 -2 120 -18 136 -14
15 -21 13 -72 -14 -80 -42 -87 -33 -87 110 0 88 3 112 16 126 16 15 20 14 61
-10 80 -47 99 -32 101 78 l1 76 493 0 493 0 0 -280z m-1011 -379 c-2 -94 -7
-99 -61 -67 -25 14 -55 26 -67 26 -35 0 -53 -56 -52 -166 0 -151 30 -182 122
-129 32 18 45 21 51 12 11 -16 10 -349 -1 -365 -6 -11 -19 -8 -61 14 -85 44
-111 11 -111 -141 0 -152 26 -185 111 -141 65 34 70 29 70 -76 l0 -78 -779 0
-778 0 -1 389 c0 395 -3 431 -38 431 -8 0 -37 -12 -65 -27 -42 -21 -52 -24
-60 -12 -25 41 -23 229 3 255 11 11 18 11 41 -1 89 -48 80 -46 100 -27 14 14
18 35 18 95 l0 77 780 0 780 0 -2 -69z m1104 -194 c-1 -144 -2 -272 -2 -283
l-1 -22 -537 2 -538 1 -2 89 c-3 123 -19 138 -101 90 -61 -36 -71 -24 -79 92
-4 69 -2 98 10 127 l16 38 59 -30 c58 -29 60 -30 77 -11 13 14 17 37 17 94 l0
76 542 0 541 0 -2 -263z m187 -633 l0 -284 -633 0 -633 0 -1 75 c-2 133 -14
149 -88 109 -63 -33 -72 -31 -85 18 -13 47 -11 172 4 206 12 28 20 28 78 -3
74 -39 87 -25 93 96 1 35 3 64 4 65 0 1 285 1 631 1 l630 0 0 -283z m-2230
-590 l0 -284 -310 0 -310 0 0 89 c0 68 -4 93 -16 105 -20 20 -18 21 -69 -10
-54 -31 -76 -28 -87 11 -11 38 -8 172 4 208 12 33 16 33 78 2 77 -39 93 -22
91 95 l-1 67 310 0 310 0 0 -283z m-2 -592 c2 -264 1 -282 -15 -283 -16 -1
-392 0 -545 1 l-58 0 0 87 c0 66 -4 91 -16 104 -16 17 -19 17 -74 -11 -52 -26
-59 -28 -71 -14 -18 22 -25 182 -9 228 13 41 25 41 88 5 65 -37 82 -18 82 93
l0 73 308 0 307 0 3 -283z"/>
<path d="M950 7610 c0 -100 3 -120 15 -120 13 0 15 20 15 120 0 100 -2 120
-15 120 -12 0 -15 -20 -15 -120z"/>
<path d="M1375 7613 c0 -96 3 -118 14 -118 9 0 16 11 16 28 3 49 19 51 50 7
16 -23 36 -40 47 -40 17 0 15 6 -17 50 -40 54 -40 51 8 105 13 14 14 21 6 24
-7 2 -30 -15 -51 -37 -21 -23 -39 -38 -39 -34 -1 4 -2 34 -3 67 -1 45 -5 60
-16 63 -13 2 -15 -15 -15 -115z"/>
<path d="M387 7713 c-13 -13 -7 -63 7 -63 10 0 14 10 13 35 -2 34 -7 42 -20
28z"/>
<path d="M436 7704 c-11 -28 -6 -54 8 -54 19 0 29 17 16 25 -6 4 -8 15 -5 26
8 23 -10 26 -19 3z"/>
<path d="M730 7605 l0 -115 60 0 c67 0 107 14 116 42 9 29 -4 66 -26 73 -19 6
-19 6 1 26 24 24 24 44 -1 69 -16 16 -33 20 -85 20 l-65 0 0 -115z m128 71
c22 -21 -14 -53 -58 -51 -27 1 -34 6 -37 25 -2 13 -2 29 1 35 6 16 76 9 94 -9z
m6 -92 c43 -42 -13 -80 -95 -65 -3 1 -6 19 -6 41 l-1 40 43 0 c26 0 50 -6 59
-16z"/>
<path d="M1690 7710 c-55 -22 -78 -112 -43 -171 17 -29 58 -49 100 -49 46 0
102 44 82 65 -7 7 -15 4 -24 -8 -7 -10 -26 -22 -43 -26 -78 -23 -135 80 -79
144 27 31 78 37 106 11 11 -10 27 -16 36 -14 16 3 16 5 -2 26 -21 27 -91 38
-133 22z"/>
<path d="M3000 7701 c0 -5 -8 -17 -17 -27 -13 -13 -14 -19 -5 -22 8 -2 12 -26
12 -70 0 -78 8 -95 41 -90 24 3 30 23 7 23 -9 0 -14 22 -16 68 -2 55 0 67 13
67 8 0 15 5 15 10 0 6 -7 10 -15 10 -8 0 -15 9 -15 20 0 11 -4 20 -10 20 -5 0
-10 -4 -10 -9z"/>
<path d="M1047 7658 c-34 -27 -42 -91 -16 -139 17 -32 77 -37 118 -10 8 5 16
32 19 64 4 47 1 57 -19 76 -25 24 -76 28 -102 9z m85 -32 c14 -20 8 -84 -8
-100 -19 -19 -35 -20 -58 -3 -25 18 -24 96 0 114 19 14 54 8 66 -11z"/>
<path d="M1229 7652 c-34 -28 -36 -106 -4 -138 29 -29 75 -31 98 -6 18 19 23
42 9 42 -4 0 -15 -9 -25 -20 -20 -23 -27 -24 -51 -7 -23 17 -29 79 -10 105 15
21 33 23 55 6 29 -22 39 -25 39 -10 0 43 -70 61 -111 28z"/>
<path d="M1896 7657 c-37 -27 -37 -124 1 -153 23 -17 73 -17 96 1 41 30 39
133 -3 155 -26 14 -73 12 -94 -3z m75 -17 c24 -14 27 -91 3 -114 -34 -35 -74
-6 -74 54 0 37 20 70 41 70 6 0 19 -5 30 -10z"/>
<path d="M2060 7580 c0 -73 3 -90 15 -90 12 0 15 13 15 58 0 55 18 102 40 102
25 0 36 -30 34 -94 -1 -55 2 -66 15 -66 13 0 16 11 15 55 -1 83 26 124 60 90
11 -12 15 -32 13 -80 -2 -56 0 -65 15 -65 15 0 17 9 15 74 -2 43 -8 81 -16 90
-17 20 -55 21 -74 1 -13 -13 -16 -13 -27 0 -15 17 -43 19 -71 5 -13 -7 -19 -7
-19 0 0 5 -7 10 -15 10 -12 0 -15 -17 -15 -90z"/>
<path d="M2340 7580 c0 -73 3 -90 15 -90 12 0 15 14 15 63 0 66 6 84 30 87 37
6 40 1 40 -75 0 -57 3 -75 14 -75 9 0 15 20 18 71 6 80 22 102 57 80 11 -7 14
-28 14 -75 -1 -63 11 -92 26 -67 11 17 4 141 -9 157 -16 18 -50 18 -77 -1 -19
-13 -22 -13 -27 0 -6 17 -39 20 -67 5 -13 -7 -19 -7 -19 0 0 5 -7 10 -15 10
-12 0 -15 -17 -15 -90z"/>
<path d="M2635 7645 c-32 -31 -34 -91 -4 -129 16 -20 29 -26 58 -26 34 0 71
22 71 43 0 12 -21 7 -36 -8 -20 -20 -37 -19 -65 3 -36 30 -20 51 38 51 75 -1
74 -2 67 29 -14 61 -85 82 -129 37z m83 -7 c25 -25 13 -38 -33 -38 -49 0 -53
4 -28 32 19 21 44 23 61 6z"/>
<path d="M2801 7580 c0 -72 3 -90 14 -90 16 0 18 11 16 76 -2 52 25 90 57 80
13 -5 22 -16 23 -29 1 -12 2 -44 3 -72 1 -37 5 -50 16 -50 12 0 15 14 14 72 0
43 -5 78 -13 87 -17 21 -65 21 -85 0 -15 -14 -16 -14 -16 0 0 9 -7 16 -14 16
-12 0 -15 -18 -15 -90z"/>
<path d="M3093 7658 c-33 -43 -18 -71 45 -88 31 -8 42 -16 42 -30 0 -26 -35
-34 -72 -16 -36 19 -38 19 -38 7 0 -21 34 -41 68 -41 49 1 74 21 70 57 -3 24
-11 31 -55 47 -59 21 -65 31 -28 48 19 9 29 8 48 -5 30 -20 43 -10 20 15 -19
21 -85 25 -100 6z"/>
<path d="M399 3788 c-2 -64 0 -171 5 -175 9 -9 206 78 206 92 0 7 -45 31 -100
54 -113 46 -110 45 -111 29z m149 -77 c10 -6 -6 -16 -49 -34 -35 -14 -66 -23
-68 -21 -3 3 -4 45 -2 86 1 16 5 16 53 -3 29 -11 59 -24 66 -28z"/>
<path d="M1430 7198 c0 -4 -6 -5 -14 -2 -8 3 -25 0 -37 -6 -32 -17 -89 -82
-89 -101 0 -9 -3 -19 -7 -23 -10 -10 -12 -86 -2 -86 5 0 6 -7 3 -15 -4 -8 -1
-15 6 -15 6 0 8 -5 5 -10 -13 -21 83 -99 130 -107 19 -3 28 -3 68 -2 37 1 86
30 117 68 17 23 29 45 26 50 -4 5 -2 11 3 13 13 4 18 32 7 36 -10 3 -13 -5
-18 -42 -3 -21 -47 -76 -61 -76 -5 0 -15 -7 -24 -15 -8 -8 -19 -13 -24 -10 -5
4 -9 2 -9 -3 0 -11 -70 -10 -87 1 -7 5 -13 5 -13 2 0 -3 -13 2 -30 12 -16 9
-30 21 -30 26 0 4 -4 5 -10 2 -5 -3 -10 1 -10 9 0 9 -4 16 -9 16 -8 0 -17 21
-26 55 -1 6 -3 15 -5 20 -4 18 2 60 11 71 5 6 6 14 3 17 -3 3 0 13 7 22 39 46
68 73 73 68 3 -3 12 0 21 7 8 7 15 10 15 6 0 -3 11 -1 24 4 13 5 27 6 30 3 3
-4 18 -8 32 -9 26 -3 97 -45 89 -53 -3 -2 3 -11 13 -20 9 -9 19 -27 21 -41 1
-14 8 -28 13 -31 6 -4 5 -9 -3 -12 -9 -4 -8 -6 5 -6 13 -1 16 3 11 17 -4 9 -8
23 -8 30 0 6 -4 12 -9 12 -4 0 -7 4 -5 9 3 15 -36 71 -50 71 -7 0 -13 4 -13 9
0 8 -30 23 -50 26 -3 0 -10 4 -17 8 -15 9 -73 6 -73 -5z"/>
<path d="M1992 7029 c-7 -28 -26 -71 -42 -95 -20 -30 -25 -44 -16 -44 18 0 64
55 72 86 3 13 10 24 14 24 4 0 11 -11 14 -24 8 -31 54 -86 72 -86 9 0 3 15
-17 44 -16 25 -35 68 -42 95 -16 69 -39 69 -55 0z"/>
<path d="M1314 5189 c-3 -6 -1 -16 5 -22 9 -9 14 -8 21 3 9 15 4 30 -10 30 -5
0 -12 -5 -16 -11z"/>
<path d="M1314 3090 c35 -101 51 -112 84 -57 42 73 51 147 17 147 -9 0 -12
-11 -10 -33 2 -19 -6 -54 -17 -78 l-20 -44 -19 55 c-33 90 -38 100 -53 100
-11 0 -7 -21 18 -90z"/>
<path d="M1310 2040 c-12 -8 -11 -10 8 -10 20 0 22 -5 22 -50 0 -38 -4 -50
-15 -50 -8 0 -15 -4 -15 -10 0 -5 20 -10 45 -10 25 0 45 5 45 10 0 6 -8 10
-18 10 -14 0 -17 9 -17 58 0 50 -3 57 -20 60 -11 1 -27 -2 -35 -8z"/>
<path d="M1432 1928 c-67 -111 -79 -140 -54 -124 8 5 117 180 149 239 2 4 -2
7 -9 7 -7 -1 -46 -55 -86 -122z"/>
<path d="M1574 2001 c-75 -46 -105 -151 -55 -192 l24 -20 -21 -22 -21 -22 72
0 c42 0 82 6 95 13 29 17 22 28 -7 12 -16 -8 -32 -8 -64 1 l-42 11 45 17 c72
26 126 123 98 175 -26 49 -72 59 -124 27z m80 -7 c40 -40 -9 -171 -70 -188
-49 -14 -69 50 -39 122 31 73 76 100 109 66z"/>
<path d="M1310 1073 c0 -4 11 -19 26 -34 l25 -26 -27 -32 c-34 -41 -23 -53 16
-16 l30 29 28 -27 c47 -45 59 -32 17 17 l-25 30 25 26 c43 45 29 56 -20 14
l-30 -25 -20 25 c-19 24 -45 35 -45 19z"/>
<path d="M1375 502 c-5 -4 -10 -20 -10 -37 0 -24 -5 -30 -23 -31 -38 -2 -42
-4 -42 -14 0 -5 16 -10 35 -10 33 0 35 -2 35 -35 0 -41 19 -48 21 -7 1 15 1
30 0 35 0 4 15 7 35 7 24 0 34 4 32 12 -3 7 -18 12 -34 13 -26 0 -30 4 -34 37
-3 23 -9 35 -15 30z"/>
<path d="M2827 6529 c-3 -12 0 -22 9 -26 23 -8 43 4 41 26 -2 29 -43 29 -50 0z"/>
<path d="M2830 6362 c0 -6 -3 -17 -6 -26 -5 -12 1 -16 24 -16 24 0 29 4 28 23
-1 15 -8 23 -23 25 -13 2 -23 -1 -23 -6z"/>
<path d="M2928 6264 c-3 -3 -3 -14 -1 -25 8 -29 48 -22 49 9 1 16 -4 22 -21
22 -12 0 -24 -3 -27 -6z"/>
<path d="M2809 5567 c0 -23 -2 -81 -2 -130 l-2 -88 130 3 130 3 0 125 0 125
-127 2 -128 2 -1 -42z m41 14 c0 -6 -4 -13 -10 -16 -5 -3 -10 1 -10 9 0 9 5
16 10 16 6 0 10 -4 10 -9z m63 3 c11 -11 -3 -24 -18 -18 -8 4 -12 10 -9 15 6
11 18 12 27 3z m72 -3 c10 -17 -12 -21 -25 -6 -10 12 -10 15 3 15 9 0 18 -4
22 -9z m59 -12 c-3 -5 -10 -7 -15 -3 -5 3 -7 10 -3 15 3 5 10 7 15 3 5 -3 7
-10 3 -15z m-159 -18 c7 -12 -12 -24 -25 -16 -11 7 -4 25 10 25 5 0 11 -4 15
-9z m65 1 c0 -13 -12 -22 -22 -16 -10 6 -1 24 13 24 5 0 9 -4 9 -8z m62 -7 c0
-5 -5 -11 -11 -13 -6 -2 -11 4 -11 13 0 9 5 15 11 13 6 -2 11 -8 11 -13z
m-170 -47 c-9 -9 -12 -7 -12 12 0 19 3 21 12 12 9 -9 9 -15 0 -24z m71 26 c9
-9 -4 -35 -14 -28 -5 3 -9 12 -9 20 0 14 12 19 23 8z m69 -16 c-12 -12 -35 -1
-27 12 3 5 13 6 21 3 10 -4 12 -9 6 -15z m63 -8 c-6 -9 -9 -9 -16 1 -10 17 0
34 13 21 6 -6 7 -16 3 -22z m-100 -30 c-5 -8 -11 -8 -17 -2 -6 6 -7 16 -3 22
5 8 11 8 17 2 6 -6 7 -16 3 -22z m68 -3 c-3 -5 -10 -4 -15 1 -6 6 -7 16 -3 22
6 9 9 9 16 -1 4 -7 5 -17 2 -22z m-133 15 c0 -13 -12 -22 -22 -16 -10 6 -1 24
13 24 5 0 9 -4 9 -8z m-30 -37 c0 -8 -4 -15 -10 -15 -5 0 -10 7 -10 15 0 8 5
15 10 15 6 0 10 -7 10 -15z m62 0 c0 -5 -5 -11 -11 -13 -6 -2 -11 4 -11 13 0
9 5 15 11 13 6 -2 11 -8 11 -13z m73 6 c7 -12 -12 -24 -25 -16 -11 7 -4 25 10
25 5 0 11 -4 15 -9z m59 -12 c-3 -5 -10 -7 -15 -3 -5 3 -7 10 -3 15 3 5 10 7
15 3 5 -3 7 -10 3 -15z m-169 -39 c-5 -8 -11 -8 -17 -2 -6 6 -7 16 -3 22 5 8
11 8 17 2 6 -6 7 -16 3 -22z m70 0 c-5 -8 -11 -8 -17 -2 -6 6 -7 16 -3 22 5 8
11 8 17 2 6 -6 7 -16 3 -22z m70 0 c-5 -8 -11 -8 -17 -2 -6 6 -7 16 -3 22 5 8
11 8 17 2 6 -6 7 -16 3 -22z m-165 -20 c0 -5 -4 -10 -10 -10 -5 0 -10 5 -10
10 0 6 5 10 10 10 6 0 10 -4 10 -10z m65 0 c3 -5 -1 -10 -9 -10 -9 0 -16 5
-16 10 0 6 4 10 9 10 6 0 13 -4 16 -10z m70 0 c3 -5 -3 -10 -15 -10 -12 0 -18
5 -15 10 3 6 10 10 15 10 5 0 12 -4 15 -10z m60 0 c-3 -5 -11 -10 -16 -10 -6
0 -7 5 -4 10 3 6 11 10 16 10 6 0 7 -4 4 -10z"/>
<path d="M2807 4663 c-4 -3 5 -16 18 -29 31 -29 31 -32 -1 -65 -33 -35 -16
-46 22 -14 29 25 41 23 71 -15 8 -11 15 -12 22 -4 8 7 4 17 -14 34 -31 29 -31
37 1 65 18 16 23 25 14 30 -7 4 -23 -4 -39 -19 l-27 -26 -24 25 c-24 26 -32
29 -43 18z"/>
<path d="M2860 4056 c0 -28 -4 -33 -22 -33 -40 -1 -48 -3 -48 -13 0 -5 16 -10
35 -10 33 0 35 -2 35 -35 0 -25 4 -35 16 -35 9 0 14 8 13 18 -4 45 0 52 36 52
19 0 35 5 35 10 0 10 -8 12 -47 13 -22 0 -27 11 -24 50 1 9 -4 17 -13 17 -11
0 -16 -10 -16 -34z"/>
<path d="M3810 5995 c0 -7 38 -10 103 -10 105 1 172 -16 162 -42 -2 -7 0 -15
5 -18 5 -3 7 -11 4 -19 -3 -7 1 -13 9 -13 7 0 14 6 14 14 0 7 -4 13 -9 13 -4
0 -8 8 -8 18 0 25 -29 50 -66 57 -55 11 -214 10 -214 0z"/>
<path d="M3778 5993 c-9 -2 -25 -16 -35 -31 -14 -22 -18 -49 -18 -155 l-1
-129 35 -28 c19 -16 37 -27 40 -24 7 6 -49 54 -63 54 -6 0 -4 5 4 10 8 5 11
10 5 10 -6 0 -9 44 -8 115 1 93 5 119 20 139 10 14 24 26 31 26 6 0 12 5 12
10 0 6 -1 9 -2 9 -2 -1 -11 -3 -20 -6z"/>
<path d="M4372 5796 l3 -151 48 -1 c26 0 50 3 53 8 3 4 -4 8 -15 8 -20 0 -21
5 -21 135 0 128 1 135 20 135 11 0 20 4 20 8 0 4 -25 8 -55 8 l-55 0 2 -150z
m48 -1 c0 -113 -2 -135 -15 -135 -13 0 -15 22 -15 135 0 113 2 135 15 135 13
0 15 -22 15 -135z"/>
<path d="M4540 5938 c0 -5 9 -8 20 -8 19 0 20 -7 20 -135 0 -128 -1 -135 -20
-135 -11 0 -20 -4 -20 -8 0 -5 24 -8 53 -8 l52 1 0 150 0 150 -52 0 c-29 0
-53 -3 -53 -7z m90 -143 c0 -113 -2 -135 -15 -135 -17 0 -17 -5 -17 125 0 143
0 145 17 145 13 0 15 -22 15 -135z"/>
<path d="M3886 5869 c3 -6 15 -9 25 -6 10 3 23 -1 30 -9 6 -8 15 -11 20 -8 5
3 7 -10 5 -28 -2 -18 -9 -34 -15 -36 -6 -2 -11 -11 -11 -20 1 -14 5 -12 20 7
27 32 26 75 -2 93 -28 17 -82 23 -72 7z"/>
<path d="M4083 5855 c0 -21 2 -23 14 -13 10 8 11 14 4 16 -6 2 -9 8 -5 13 3 5
1 9 -4 9 -5 0 -9 -11 -9 -25z"/>
<path d="M3851 5848 c-11 -28 -4 -68 14 -87 15 -15 65 -24 65 -11 0 5 -12 10
-26 12 -38 4 -51 30 -37 68 7 18 7 32 2 36 -5 3 -13 -5 -18 -18z"/>
<path d="M4085 5750 c0 -50 -3 -70 -12 -70 -7 0 -13 -4 -13 -10 0 -15 -43 -34
-72 -32 -16 1 -28 -2 -28 -7 0 -6 16 -9 35 -8 19 1 35 5 35 10 0 4 3 6 8 6 17
-3 35 1 29 7 -3 4 4 15 16 25 12 10 19 18 15 19 -4 0 -3 11 2 25 6 16 6 25 -1
25 -6 0 -6 7 1 20 8 15 8 20 -1 20 -8 0 -9 4 0 13 10 13 6 27 -9 27 -3 0 -6
-31 -5 -70z"/>
<path d="M3810 5631 c0 -4 32 -8 70 -8 39 1 70 4 70 7 0 4 -31 7 -70 8 -38 1
-70 -3 -70 -7z"/>
<path d="M5363 5922 c-33 -21 -42 -67 -34 -163 4 -47 75 -75 116 -45 46 34 49
162 4 199 -22 18 -65 22 -86 9z m75 -40 c17 -22 15 -113 -3 -139 -8 -12 -23
-20 -32 -18 -10 2 -21 4 -25 4 -3 1 -10 13 -15 29 -8 24 -9 42 -4 104 3 43 50
55 79 20z"/>
<path d="M5632 5914 c-25 -17 -29 -44 -7 -44 8 0 15 5 15 10 0 16 43 29 63 18
24 -13 21 -47 -5 -57 -13 -5 -26 -7 -30 -4 -5 2 -8 -2 -8 -9 0 -8 15 -18 33
-23 33 -10 45 -37 28 -64 -13 -21 -62 -16 -80 7 -11 15 -20 19 -30 13 -24 -15
31 -61 74 -61 65 0 99 67 55 108 -19 17 -19 18 -1 34 13 11 17 24 14 43 -9 43
-78 60 -121 29z"/>
<path d="M5531 5730 c-16 -9 -6 -30 15 -30 15 0 20 25 6 34 -4 2 -14 1 -21 -4z"/>
<path d="M5349 5291 c-18 -15 -21 -22 -12 -31 8 -9 16 -7 32 9 25 25 31 25 55
8 26 -19 17 -51 -17 -55 -30 -4 -38 -32 -9 -32 34 0 56 -24 48 -53 -5 -23 -12
-27 -40 -27 -22 0 -38 7 -47 20 -10 14 -18 17 -28 11 -11 -7 -9 -14 13 -36 24
-24 33 -27 69 -22 64 9 89 65 47 107 -17 17 -18 20 -3 28 21 12 20 60 -3 77
-27 20 -78 18 -105 -4z"/>
<path d="M3783 4696 c-15 -13 -25 -28 -21 -32 5 -4 17 1 28 11 22 20 22 22 22
-70 0 -93 0 -91 -24 -91 -13 1 -25 -3 -28 -9 -3 -6 24 -11 68 -13 57 -2 73 0
70 10 -3 7 -11 14 -19 14 -8 1 -19 2 -25 3 -7 1 -11 30 -10 84 3 127 -6 140
-61 93z"/>
<path d="M3772 4110 c-12 -12 -22 -26 -23 -33 0 -7 -2 -21 -5 -32 -8 -36 6
-102 27 -124 28 -29 73 -27 106 5 23 23 25 31 21 96 -3 59 -8 73 -27 89 -30
25 -72 24 -99 -1z m88 -31 c15 -27 12 -112 -5 -136 -8 -12 -23 -20 -32 -18
-10 2 -21 4 -24 4 -12 2 -25 48 -24 86 3 72 5 76 28 84 27 10 44 4 57 -20z"/>
<path d="M2866 3612 c-2 -1 -14 -5 -27 -7 -13 -3 -32 -14 -44 -25 -18 -18 -20
-35 -22 -151 -2 -129 -2 -130 26 -161 27 -30 32 -32 110 -34 49 -2 81 1 81 7
0 6 -4 7 -10 4 -5 -3 -10 -1 -10 5 0 7 -6 8 -17 2 -30 -14 -94 -4 -132 21
l-36 24 0 128 c1 91 5 130 13 133 7 2 10 7 7 11 -6 10 72 34 85 26 6 -3 10 0
10 7 0 8 3 9 8 3 9 -13 82 -13 82 1 0 9 -116 15 -124 6z"/>
<path d="M3004 3609 c-6 -10 -4 -11 49 -11 20 0 37 -4 37 -9 0 -5 8 -9 17 -9
9 0 13 -3 10 -6 -3 -4 -2 -16 4 -26 6 -11 11 -54 12 -94 0 -41 4 -74 8 -74 4
0 7 41 5 91 -1 86 -3 92 -29 115 -16 13 -33 22 -38 19 -5 -4 -9 -2 -9 2 0 11
-59 13 -66 2z"/>
<path d="M3425 3551 c-2 -4 -3 -72 -2 -151 l2 -145 48 -1 c26 0 50 3 53 8 3 4
-4 8 -15 8 -20 0 -21 5 -21 135 0 132 1 135 22 135 12 0 18 3 14 8 -9 9 -95
11 -101 3z m45 -146 c0 -113 -2 -135 -15 -135 -15 0 -17 16 -17 145 0 111 2
125 17 125 13 0 15 -22 15 -135z"/>
<path d="M3590 3549 c0 -5 8 -9 18 -9 17 0 18 -11 18 -132 -1 -118 -3 -133
-18 -136 -37 -7 -16 -19 32 -19 39 0 50 3 51 16 4 65 3 264 -1 274 -6 14 -100
19 -100 6z m86 -141 c-1 -115 -3 -133 -18 -136 -14 -3 -16 11 -15 132 1 118 3
136 17 136 14 0 16 -17 16 -132z"/>
<path d="M2913 3476 c-6 -8 -9 -17 -6 -20 4 -3 1 -6 -5 -6 -7 0 -12 -11 -12
-25 0 -14 5 -25 11 -25 5 0 8 -4 5 -9 -8 -13 18 -32 50 -35 54 -6 94 75 56
114 -21 20 -83 24 -99 6z m80 -8 c-2 -5 0 -8 5 -8 14 0 20 -55 7 -67 -22 -20
-55 -34 -55 -23 0 6 -6 10 -13 8 -7 -2 -14 2 -16 7 -1 6 -6 15 -11 20 -5 6 -2
24 5 41 11 27 18 31 48 30 19 0 33 -4 30 -8z"/>
<path d="M3132 3340 c3 -16 1 -30 -4 -30 -4 0 -8 -7 -8 -15 0 -20 -72 -56 -90
-45 -15 10 -30 4 -30 -11 0 -8 36 -7 80 3 21 5 57 27 45 28 -5 0 -3 5 5 10 17
10 24 90 8 90 -6 0 -8 -13 -6 -30z"/>
<path d="M4403 3528 c-13 -6 -23 -19 -23 -30 0 -20 15 -24 25 -7 11 18 49 27
68 17 28 -15 18 -52 -15 -56 -32 -4 -39 -32 -9 -32 20 0 51 -25 51 -41 0 -5
-9 -18 -19 -28 -22 -22 -55 -18 -74 10 -15 21 -41 10 -32 -13 8 -20 48 -38 83
-38 59 1 91 63 53 104 -19 20 -20 24 -6 36 8 7 15 25 15 40 0 43 -64 64 -117
38z"/>
<path d="M4580 3518 c-14 -16 -17 -25 -9 -32 7 -8 14 -5 24 8 15 20 60 25 77
8 17 -17 -1 -51 -29 -54 -36 -4 -41 -26 -7 -30 15 -2 33 -13 41 -25 13 -19 12
-24 -5 -41 -24 -24 -69 -19 -78 10 -6 20 -25 20 -31 1 -8 -23 36 -53 76 -53
70 0 101 68 51 111 -17 15 -17 16 1 27 10 7 19 23 19 37 0 52 -90 75 -130 33z"/>
<path d="M4772 3524 c-25 -17 -29 -44 -7 -44 8 0 15 5 15 10 0 16 43 29 63 18
24 -13 21 -47 -5 -57 -13 -5 -26 -7 -30 -4 -5 2 -8 -2 -8 -9 0 -8 15 -18 33
-23 33 -10 45 -37 28 -64 -14 -22 -62 -16 -82 10 -14 18 -21 21 -30 12 -19
-19 32 -63 76 -63 63 0 99 66 58 108 -17 16 -17 18 -1 34 14 14 16 23 7 45 -6
15 -16 31 -22 35 -20 13 -71 9 -95 -8z"/>
<path d="M4399 2901 c-50 -40 -17 -131 47 -131 12 0 26 5 29 10 4 6 10 8 15 5
14 -9 -2 -46 -27 -62 -21 -14 -25 -14 -42 1 -19 17 -41 21 -41 8 0 -17 37 -42
61 -42 14 0 34 7 46 15 46 32 53 155 12 196 -24 24 -70 24 -100 0z m92 -45 c6
-20 3 -32 -12 -47 -24 -24 -34 -24 -60 2 -14 14 -18 27 -14 42 16 52 73 54 86
3z"/>
<path d="M4593 2908 c-27 -13 -39 -62 -24 -100 12 -32 52 -46 87 -29 21 9 24
8 24 -9 0 -29 -34 -60 -59 -53 -12 3 -21 9 -21 14 0 5 -7 9 -16 9 -25 0 -12
-34 17 -44 67 -23 111 21 112 114 1 50 -3 64 -23 85 -25 27 -59 31 -97 13z
m79 -32 c17 -24 8 -67 -14 -75 -57 -21 -91 36 -48 79 20 20 47 18 62 -4z"/>
<path d="M4770 2902 c-16 -13 -22 -29 -22 -57 0 -60 51 -92 103 -65 22 12 24
3 8 -34 -15 -32 -36 -37 -71 -17 -34 19 -47 8 -23 -19 36 -39 108 -18 126 38
16 50 5 133 -22 155 -27 22 -71 22 -99 -1z m95 -49 c5 -22 2 -31 -15 -45 -28
-23 -36 -22 -59 1 -37 37 4 104 50 80 9 -5 20 -21 24 -36z"/>
<path d="M2816 2391 c-38 -23 -46 -55 -45 -184 1 -100 4 -121 21 -142 11 -14
24 -23 29 -20 5 4 9 1 9 -5 0 -6 4 -9 9 -6 5 4 11 1 13 -5 2 -7 9 -5 18 5 7
10 9 16 4 15 -24 -4 -45 3 -66 24 -22 21 -23 31 -23 143 1 109 3 123 23 149
12 15 22 24 22 19 0 -5 4 -3 9 5 8 12 13 12 24 3 9 -8 23 -9 38 -5 13 5 39 8
57 7 17 -1 32 2 32 6 0 14 -148 7 -174 -9z"/>
<path d="M3000 2399 c0 -6 10 -9 23 -8 45 4 117 -28 100 -45 -4 -3 -2 -6 3 -6
10 0 11 -214 0 -246 -8 -26 -58 -52 -92 -48 -16 1 -24 -3 -24 -13 0 -13 3 -13
15 -3 12 10 15 10 15 -1 0 -10 3 -10 11 -2 6 6 18 9 25 6 8 -3 14 0 14 7 0 6
4 8 10 5 5 -3 18 8 29 26 16 27 19 48 17 153 -3 132 -6 145 -37 165 -26 16
-109 24 -109 10z"/>
<path d="M3424 2336 c-3 -7 -3 -75 -2 -151 l3 -139 39 -3 c22 -1 47 2 55 7 13
8 12 9 -6 10 -23 0 -23 2 -23 135 0 128 1 135 20 135 11 0 20 3 20 8 0 13
-101 11 -106 -2z m46 -141 c0 -113 -2 -135 -15 -135 -15 0 -17 17 -17 155 0
102 2 115 17 115 13 0 15 -22 15 -135z"/>
<path d="M3590 2339 c0 -5 8 -9 18 -9 16 0 17 -13 18 -135 1 -125 0 -135 -17
-135 -11 0 -19 -4 -19 -9 0 -5 23 -9 52 -8 l52 2 0 150 0 150 -52 1 c-29 1
-52 -3 -52 -7z m86 -144 c0 -120 -1 -135 -16 -135 -15 0 -17 15 -17 135 1 117
3 135 17 135 14 0 16 -18 16 -135z"/>
<path d="M2940 2278 c0 -5 -5 -6 -11 -3 -6 4 -16 -1 -24 -11 -15 -21 -17 -77
-3 -67 6 3 8 16 5 29 -3 18 2 25 23 34 15 6 39 8 53 4 22 -5 27 -12 27 -38 0
-17 -4 -36 -8 -42 -12 -18 -50 -23 -71 -8 -13 9 -22 11 -26 4 -7 -12 31 -28
60 -26 30 3 56 17 49 27 -3 5 -1 9 4 9 15 0 8 59 -10 76 -17 17 -68 26 -68 12z"/>
<path d="M2890 2032 c0 -12 3 -12 15 -2 12 10 15 10 15 -1 0 -12 2 -12 9 0 6
9 10 10 16 2 5 -9 10 -9 21 0 11 9 14 9 14 0 0 -7 5 -9 11 -6 19 12 -2 20 -52
20 -36 1 -49 -3 -49 -13z"/>
<path d="M4407 2318 c-52 -40 -47 -191 8 -212 26 -10 59 -6 77 8 53 40 48 189
-7 210 -26 10 -60 7 -78 -6z m84 -45 c21 -56 5 -136 -30 -146 -44 -11 -71 50
-57 128 11 57 67 69 87 18z"/>
<path d="M4687 2318 c-49 -38 -47 -181 3 -208 82 -44 147 58 109 169 -17 48
-73 68 -112 39z m84 -45 c21 -56 5 -136 -30 -146 -40 -10 -56 15 -56 88 0 53
4 69 18 80 24 18 57 7 68 -22z"/>
<path d="M4860 2310 c-24 -24 -26 -40 -5 -40 8 0 15 5 15 10 0 14 40 28 61 23
10 -3 20 -12 24 -21 8 -20 -29 -54 -50 -45 -9 3 -15 -1 -15 -11 0 -10 9 -16
24 -16 53 0 63 -68 12 -81 -23 -6 -32 -3 -52 18 -21 23 -24 24 -30 8 -18 -45
81 -73 126 -37 28 23 30 70 4 91 -19 15 -19 17 -2 34 10 9 18 24 18 32 0 27
-38 55 -75 55 -22 0 -43 -8 -55 -20z"/>
<path d="M4576 2125 c-9 -24 -8 -25 15 -25 14 0 19 5 17 17 -4 23 -24 27 -32
8z"/>
<path d="M4412 1713 c-21 -8 -42 -60 -42 -103 0 -87 41 -132 106 -116 65 17
73 195 9 220 -19 7 -54 7 -73 -1z m79 -50 c21 -56 5 -136 -30 -146 -44 -11
-71 50 -57 128 11 57 67 69 87 18z"/>
<path d="M4692 1713 c-39 -15 -55 -128 -27 -183 27 -52 103 -53 128 -2 31 62
14 169 -28 186 -19 7 -54 7 -73 -1z m79 -50 c21 -56 5 -136 -30 -146 -40 -10
-56 15 -56 88 0 53 4 69 18 80 24 18 57 7 68 -22z"/>
<path d="M4865 1695 c-25 -24 -29 -39 -27 -109 2 -67 43 -105 98 -92 44 11 61
60 55 154 -2 31 -45 72 -76 72 -14 0 -37 -11 -50 -25z m81 -16 c20 -22 23
-121 5 -143 -19 -23 -49 -25 -66 -5 -12 12 -17 35 -16 75 1 81 38 116 77 73z"/>
<path d="M5052 1704 c-12 -8 -22 -22 -22 -30 0 -16 16 -19 25 -3 21 33 85 25
85 -11 0 -21 -14 -32 -41 -34 -30 -2 -23 -20 10 -28 40 -11 51 -46 21 -70 -29
-24 -36 -23 -67 8 -19 19 -28 23 -37 14 -17 -18 37 -60 78 -60 38 0 76 31 76
62 0 12 -9 31 -20 43 -18 20 -19 23 -5 35 37 31 1 90 -55 90 -14 0 -36 -7 -48
-16z"/>
<path d="M4575 1521 c-8 -15 3 -31 21 -31 9 0 14 7 12 17 -4 20 -24 28 -33 14z"/>
<path d="M2821 1113 c-32 -28 -36 -76 -7 -110 23 -26 26 -27 65 -17 40 11 41
11 35 -10 -15 -48 -49 -65 -76 -38 -15 15 -38 16 -38 1 0 -18 32 -38 60 -39
67 -1 95 60 81 178 -5 45 -81 67 -120 35z m89 -39 c9 -23 -5 -64 -22 -65 -27
-3 -43 3 -55 19 -18 22 -16 39 7 62 23 23 59 15 70 -16z"/>
<path d="M2827 528 c-56 -44 -44 -198 17 -214 40 -10 74 4 91 36 30 58 12 168
-30 184 -26 10 -60 7 -78 -6z m84 -45 c21 -56 5 -136 -30 -146 -40 -10 -56 15
-56 88 0 53 4 69 18 80 24 18 57 7 68 -22z"/>
</g>
</svg>
