<?xml version="1.0" standalone="no"?>
<!DOCTYPE svg PUBLIC "-//W3C//DTD SVG 20010904//EN"
 "http://www.w3.org/TR/2001/REC-SVG-20010904/DTD/svg10.dtd">
<svg version="1.0" xmlns="http://www.w3.org/2000/svg"
 width="1336.000000pt" height="737.000000pt" viewBox="0 0 1336.000000 737.000000"
 preserveAspectRatio="xMidYMid meet">
<metadata>
Created by potrace 1.16, written by Peter Selinger 2001-2019
</metadata>
<g transform="translate(0.000000,737.000000) scale(0.100000,-0.100000)"
fill="#000000" stroke="none">
<path d="M170 7153 c-14 -9 -30 -22 -36 -28 -39 -38 -38 81 -37 -3461 1 -3082
2 -3404 17 -3431 8 -17 31 -41 49 -52 l34 -21 4227 0 4226 0 2 293 3 292 2297
0 c1264 1 2300 4 2304 7 5 5 8 451 5 719 l-1 46 -2327 1 c-1281 0 -2333 1
-2339 1 -8 1 -11 82 -10 279 1 152 0 284 -2 293 -3 14 -27 16 -188 17 -101 0
-187 1 -191 2 -5 2 -12 1 -18 0 -12 -2 -446 -2 -460 0 -5 2 -14 1 -20 0 -12
-3 -446 -2 -460 0 -5 1 -14 1 -20 0 -12 -2 -446 -2 -460 0 -5 2 -14 2 -19 1
-10 -2 -102 -3 -148 -2 l-28 1 0 289 c0 222 -3 290 -12 293 -7 2 -933 3 -2058
3 l-2045 -1 0 413 c0 270 3 413 10 414 5 0 559 2 1230 3 671 2 1223 4 1226 4
4 1 6 136 5 300 l-1 297 -133 3 -133 3 1 207 c0 114 1 246 0 295 l0 87 -1099
0 c-870 0 -1100 3 -1103 13 -3 10 -3 367 1 389 0 4 15 6 31 4 17 -2 34 2 38 8
4 6 7 101 7 211 l0 200 2568 3 c2436 2 2567 3 2568 20 0 9 1 124 1 255 0 172
3 237 11 237 9 0 9 2 0 8 -8 5 -11 45 -11 125 1 64 -1 119 -4 122 -3 3 -1280
5 -2840 5 l-2834 0 1 198 c0 108 -1 205 -3 215 -3 12 -14 17 -43 17 l-39 0 0
210 0 210 -664 0 c-578 0 -665 -2 -676 -15 -7 -8 -18 -15 -25 -15 -7 0 -18 -7
-25 -15 -20 -24 -65 -18 -113 15 -41 27 -52 30 -129 30 -62 0 -90 -4 -108 -17z
m234 -33 c51 -38 86 -38 145 1 l46 32 650 1 650 1 0 -202 0 -203 -650 0 -650
0 -52 -35 c-29 -19 -59 -35 -68 -35 -9 0 -37 15 -63 33 -46 31 -51 32 -171 37
l-125 5 1 145 c1 80 2 153 2 162 1 26 67 86 98 90 15 2 55 2 87 0 47 -2 68 -9
100 -32z m-4 -424 c58 -42 89 -42 152 2 l47 32 305 0 306 0 0 -55 c0 -59 -10
-67 -46 -40 -33 25 -61 19 -73 -16 -12 -35 -13 -129 -2 -169 8 -31 43 -38 76
-16 13 9 29 16 35 16 7 0 9 -585 8 -1877 l-3 -1878 -305 0 -306 0 -50 -33
c-28 -17 -61 -32 -73 -32 -12 0 -43 15 -69 33 -48 32 -49 33 -158 32 -60 -1
-113 2 -119 6 -7 5 -9 683 -8 2006 1 1099 2 2004 2 2011 1 9 31 12 117 12
l117 0 47 -34z m1575 -231 c-1 -146 -4 -268 -7 -271 -3 -3 -23 4 -43 15 -58
31 -71 19 -81 -74 -7 -57 10 -133 31 -141 7 -3 31 4 54 16 l41 20 1 -27 c4
-104 0 -555 -5 -560 -3 -3 -17 2 -30 11 -31 20 -60 21 -76 1 -15 -19 -21 -129
-8 -173 11 -42 32 -50 74 -27 19 10 37 16 40 13 4 -5 8 -143 5 -226 l-1 -34
-34 21 c-41 26 -62 27 -75 2 -28 -51 -17 -203 15 -215 8 -3 31 3 51 14 20 11
39 17 41 15 6 -6 4 -246 -2 -252 -3 -3 -15 2 -28 11 -29 20 -62 20 -79 0 -17
-21 -18 -161 -1 -191 15 -27 32 -29 73 -7 17 8 34 13 37 10 7 -8 7 -405 -1
-412 -3 -4 -21 3 -40 15 -57 35 -76 17 -82 -80 -5 -64 10 -128 30 -135 7 -3
31 4 53 15 37 19 40 19 44 3 5 -24 1 -402 -5 -408 -2 -3 -20 4 -39 16 -20 11
-43 18 -52 14 -20 -8 -35 -66 -31 -119 1 -22 3 -49 4 -60 1 -11 8 -29 16 -39
15 -20 16 -20 60 2 l45 22 1 -28 c2 -99 1 -224 -4 -228 -2 -3 -20 3 -40 12
-45 22 -63 14 -76 -33 -14 -48 -14 -88 0 -136 13 -47 31 -55 76 -33 20 9 37
16 38 14 4 -4 7 -56 6 -93 l-1 -30 -370 0 -370 0 0 1872 c0 1029 -3 1878 -6
1887 -8 20 -34 21 -60 1 -29 -22 -53 -18 -60 10 -8 31 -1 151 9 162 4 4 27 -3
52 -15 44 -21 45 -21 55 -2 5 10 10 41 10 69 l0 51 373 0 373 0 -1 -265z
m5673 -172 c5 -8 8 -677 3 -716 -1 -4 -1273 -6 -2828 -5 l-2828 3 -1 215 c-1
118 -2 222 -3 231 -2 27 -28 30 -67 7 -27 -16 -38 -18 -47 -9 -15 15 -16 166
-2 180 7 7 24 3 53 -11 52 -27 60 -20 64 52 1 30 6 57 9 60 4 3 1275 5 2824 4
2021 0 2818 -3 2823 -11z m-5132 -940 c0 -109 -3 -200 -7 -203 -4 -3 -121 -4
-261 -2 l-254 3 -1 60 c-2 82 -14 95 -64 67 -49 -27 -60 -18 -64 54 -6 114 8
135 65 102 51 -31 62 -16 63 89 l0 27 262 0 261 0 0 -197z m-80 -430 l0 -203
-220 0 -221 0 -2 67 c-3 85 -12 95 -65 64 -46 -26 -53 -22 -62 43 -7 45 1 116
14 129 4 5 25 -1 46 -12 48 -26 61 -16 66 54 2 28 7 53 11 56 5 3 104 6 220 5
l212 -1 1 -202z m2204 -508 l0 -285 -1323 0 -1323 0 0 144 c-1 174 -6 187 -65
154 -29 -16 -42 -19 -50 -11 -16 16 -20 113 -8 157 l10 37 39 -22 c44 -25 70
-20 71 13 1 34 6 93 8 96 0 1 595 2 1321 2 l1320 0 0 -285z m238 -304 l32 -1
0 -283 0 -284 -1449 1 c-797 1 -1453 5 -1458 9 -4 5 -9 61 -9 125 -2 167 -3
169 -18 175 -8 3 -31 -3 -51 -14 -27 -15 -41 -17 -48 -10 -14 14 -15 167 -2
180 7 7 25 3 53 -11 53 -27 65 -18 65 54 1 29 4 55 8 58 6 4 2740 5 2877 1z
m-2447 -590 c3 -1 5 -91 6 -201 l0 -200 -221 2 -221 3 -2 35 c0 19 -2 46 -2
60 -2 49 -15 55 -61 31 -57 -29 -65 -20 -64 79 0 97 9 111 57 81 19 -11 39
-21 45 -21 14 0 30 57 25 89 -7 44 3 46 224 45 114 -1 211 -2 214 -3z m5 -623
c0 -109 -2 -199 -5 -199 -21 -4 -424 -3 -430 1 -5 3 -8 21 -8 40 0 103 -10
115 -68 84 -27 -14 -37 -16 -47 -6 -16 16 -18 148 -3 169 12 16 15 16 48 -1
58 -32 72 -16 68 82 l-1 32 223 -2 222 -3 1 -197z m-2035 -257 c55 -40 91 -39
151 2 l47 32 328 -1 328 0 3 -57 c2 -31 1 -57 -2 -57 -3 0 -20 9 -39 20 -36
21 -61 19 -71 -7 -22 -57 -13 -191 14 -208 5 -3 30 3 55 14 l45 20 0 -145 0
-144 -331 0 -331 0 -52 -35 c-29 -19 -62 -35 -72 -35 -11 0 -43 16 -71 35 -52
35 -52 35 -167 35 -82 0 -115 3 -118 13 -3 10 -2 413 1 522 l1 30 119 -1 c118
-1 121 -2 162 -33z m6132 30 c16 -1 17 -21 17 -281 l0 -280 -2634 0 -2634 0 0
113 c0 181 -1 184 -18 191 -9 4 -32 -3 -52 -14 -48 -29 -57 -16 -57 80 1 97
10 111 58 81 48 -30 67 -20 68 38 1 25 1 50 0 55 -1 5 2 12 8 15 7 5 5151 6
5244 2z m-6131 -618 c26 -18 58 -33 73 -33 15 0 47 15 73 33 l47 32 333 1 332
1 0 -59 0 -60 -36 21 c-45 27 -60 26 -75 -1 -24 -45 -17 -180 11 -211 6 -7 45
5 93 30 4 2 7 -61 7 -141 l0 -146 -330 0 -331 0 -52 -35 c-28 -19 -61 -35 -72
-35 -11 0 -44 16 -72 35 -52 35 -52 35 -168 35 -103 0 -115 2 -116 18 -1 22
-1 547 0 548 1 1 54 1 119 0 115 -1 118 -2 164 -33z m8163 -251 l0 -282 -3641
0 -3641 0 -1 146 c0 89 -5 151 -11 157 -8 8 -23 4 -53 -11 l-43 -22 -12 28
c-14 31 -11 148 4 163 7 7 23 3 49 -10 49 -27 64 -14 65 55 1 27 3 52 5 55 2
3 1640 5 3641 5 l3638 -1 0 -283z m-8168 -336 c61 -40 90 -40 157 3 l50 31
328 0 328 0 0 -55 c0 -30 -4 -55 -9 -55 -5 0 -22 8 -39 17 -39 22 -59 12 -73
-39 -12 -47 -5 -144 13 -165 14 -17 48 -16 72 2 11 8 24 15 28 15 5 0 7 -102
6 -227 l-3 -228 -330 0 -330 0 -51 -33 c-28 -17 -59 -32 -69 -32 -10 0 -41 15
-69 32 -49 32 -53 33 -164 33 -72 0 -116 5 -120 12 -5 8 -8 669 -3 716 1 4 52
7 114 7 111 0 113 0 164 -34z m12844 17 c1 -23 1 -706 0 -714 -1 -3 -2691 -5
-5979 -4 l-5977 1 -2 228 c-1 145 -6 233 -12 239 -8 8 -21 6 -46 -6 -49 -23
-62 -21 -68 11 -9 43 -1 142 11 154 9 9 22 6 51 -10 49 -28 61 -16 63 62 l2
56 5978 0 c5686 0 5978 -1 5979 -17z m-12843 -770 c65 -41 91 -41 150 -1 42
29 55 32 124 34 85 3 81 6 80 -61 0 -59 0 -58 -38 -36 -45 27 -60 26 -75 -1
-13 -25 -17 -139 -6 -179 9 -36 26 -40 73 -19 21 10 41 17 43 14 2 -2 5 -67 5
-144 1 -116 -1 -139 -14 -142 -8 -2 -133 -3 -276 -3 -364 1 -347 -14 -346 303
0 119 0 229 1 243 l1 26 113 0 c110 0 113 -1 165 -34z m8230 -252 l-3 -285
-3925 0 -3925 0 -1 134 c0 136 -6 180 -26 180 -6 0 -25 -9 -42 -19 -49 -31
-60 -16 -60 78 -1 100 8 111 63 80 52 -29 61 -21 65 57 2 32 4 59 5 60 1 0
1767 0 3926 0 l3925 0 -2 -285z"/>
<path d="M847 7043 c-4 -3 -7 -15 -7 -25 0 -10 -4 -18 -10 -18 -5 0 -10 -5
-10 -11 0 -5 5 -7 10 -4 6 4 10 -17 10 -54 0 -34 4 -61 10 -61 11 0 12 5 12
68 0 30 4 42 14 42 8 0 14 5 14 10 0 6 -7 10 -15 10 -8 0 -15 7 -15 15 0 8 7
15 16 15 8 0 12 5 9 10 -7 11 -28 13 -38 3z"/>
<path d="M280 7015 c0 -14 4 -25 9 -25 5 0 8 11 7 25 -1 33 -16 33 -16 0z"/>
<path d="M320 7020 c0 -11 0 -22 0 -25 0 -3 3 -5 8 -5 4 0 7 11 7 25 1 14 -3
25 -7 25 -4 0 -8 -9 -8 -20z"/>
<path d="M530 6955 c0 -63 3 -85 13 -85 8 0 13 12 12 33 0 27 4 32 26 35 20 2
29 -4 44 -33 11 -19 25 -35 32 -35 18 0 16 7 -7 40 -19 27 -19 27 0 45 47 42
13 85 -66 85 l-54 0 0 -85z m109 47 c7 -13 6 -23 -1 -30 -13 -13 -78 -16 -79
-4 -6 54 -7 52 32 52 27 0 41 -5 48 -18z"/>
<path d="M718 6989 c-12 -7 -18 -22 -18 -49 0 -57 34 -83 84 -64 28 11 17 24
-15 17 -21 -4 -34 -1 -40 8 -15 25 -10 29 36 29 38 0 45 3 45 19 0 42 -52 64
-92 40z m66 -24 c4 -12 -3 -15 -29 -15 -33 0 -43 8 -28 23 12 13 51 7 57 -8z"/>
<path d="M922 6991 c-20 -12 -30 -63 -19 -89 17 -38 97 -42 97 -4 0 12 -3 13
-12 4 -17 -17 -55 -15 -62 4 -9 24 -9 24 39 24 38 0 45 3 45 19 0 40 -53 65
-88 42z m62 -26 c4 -12 -3 -15 -29 -15 -33 0 -43 8 -28 23 12 13 51 7 57 -8z"/>
<path d="M1037 6991 c-9 -21 0 -115 11 -118 8 -3 12 10 12 45 0 40 4 52 23 65
22 15 22 15 -11 15 -18 -1 -34 -4 -35 -7z"/>
<path d="M1126 6984 c-22 -21 -20 -77 2 -97 10 -10 30 -17 44 -17 28 0 56 24
39 34 -5 4 -12 2 -16 -4 -11 -18 -52 -11 -58 10 -5 18 0 20 39 20 37 0 44 3
44 19 0 27 -26 51 -55 51 -13 0 -31 -7 -39 -16z m72 -21 c2 -9 -8 -13 -32 -13
-28 0 -34 3 -29 16 7 18 54 16 61 -3z"/>
<path d="M1250 6935 c0 -78 16 -87 22 -12 5 56 1 77 -13 77 -5 0 -9 -29 -9
-65z"/>
<path d="M1284 6988 c-5 -7 -2 -9 8 -5 25 9 38 -13 38 -65 0 -26 5 -48 10 -48
6 0 10 26 10 59 0 44 -4 60 -16 65 -24 9 -42 7 -50 -6z"/>
<path d="M1398 6989 c-23 -13 -24 -81 -2 -103 20 -20 58 -21 74 -1 16 19 5 34
-12 17 -32 -32 -67 3 -54 54 7 26 34 32 54 12 17 -17 28 -2 12 17 -14 17 -47
19 -72 4z"/>
<path d="M1518 6988 c-21 -17 -29 -55 -18 -84 10 -26 47 -39 79 -29 33 10 24
22 -16 21 -28 -1 -38 3 -41 17 -3 14 4 17 42 17 50 0 57 10 30 48 -17 24 -52
29 -76 10z m62 -23 c0 -10 -10 -15 -30 -15 -29 0 -38 9 -23 23 13 13 53 7 53
-8z"/>
<path d="M1639 6984 c-18 -22 -1 -46 40 -58 17 -5 30 -14 28 -20 -5 -15 -57
-20 -57 -6 0 6 -4 9 -10 5 -20 -12 3 -35 35 -35 63 0 74 55 15 75 -43 14 -37
31 9 28 28 -2 31 0 21 12 -16 20 -64 19 -81 -1z"/>
<path d="M201 4824 c-18 -23 -21 -41 -21 -116 0 -81 2 -91 25 -113 24 -25 27
-25 193 -25 155 0 170 2 190 20 25 23 24 19 26 115 3 80 -8 121 -34 135 -10 6
-95 10 -189 10 l-170 0 -20 -26z m382 -14 c19 -27 17 -180 -2 -204 -20 -24
-341 -24 -365 0 -20 19 -23 193 -4 212 8 8 64 12 184 12 162 0 174 -1 187 -20z"/>
<path d="M297 4803 c-4 -3 -7 -15 -7 -25 0 -10 -5 -18 -12 -18 -9 0 -9 -3 0
-12 7 -7 12 -36 12 -65 0 -29 5 -53 10 -53 11 0 13 8 11 64 0 26 5 44 17 52
15 12 15 13 1 14 -19 0 -21 30 -2 30 8 0 11 5 8 10 -7 11 -28 13 -38 3z"/>
<path d="M723 4743 c-16 -6 -17 -33 -3 -33 11 0 26 28 19 34 -2 2 -10 1 -16
-1z"/>
<path d="M755 4730 c3 -5 40 -10 81 -10 43 0 74 4 74 10 0 6 -34 10 -81 10
-51 0 -78 -4 -74 -10z"/>
<path d="M715 4690 c-4 -7 -1 -16 6 -21 17 -10 26 8 11 23 -6 6 -12 6 -17 -2z"/>
<path d="M755 4680 c3 -5 40 -10 81 -10 43 0 74 4 74 10 0 6 -34 10 -81 10
-51 0 -78 -4 -74 -10z"/>
<path d="M1424 6593 c-3 -16 -12 -50 -20 -77 -16 -57 -17 -76 -5 -76 4 0 16
33 25 73 10 39 20 80 22 90 3 9 1 17 -5 17 -6 0 -13 -12 -17 -27z"/>
<path d="M1611 6571 c-13 -51 -45 -88 -93 -109 -16 -6 -28 -16 -28 -22 0 -14
9 -12 49 8 47 24 89 79 97 130 9 58 -9 54 -25 -7z"/>
<path d="M1406 5915 c4 -8 10 -15 15 -15 5 0 9 7 9 15 0 8 -7 15 -15 15 -9 0
-12 -6 -9 -15z"/>
<path d="M1404 5338 l1 -103 30 -3 c27 -2 28 -1 13 11 -15 12 -18 30 -18 106
0 69 -3 91 -13 91 -11 0 -13 -23 -13 -102z"/>
<path d="M1405 4915 c0 -78 3 -105 12 -105 10 0 13 25 13 91 0 76 3 94 18 105
15 12 14 13 -13 14 l-30 0 0 -105z"/>
<path d="M1437 4503 c-2 -5 -3 -47 -2 -95 1 -67 -2 -88 -12 -88 -7 0 -13 -4
-13 -10 0 -5 11 -10 25 -10 l25 0 0 105 c0 91 -8 125 -23 98z"/>
<path d="M1410 3910 c0 -5 6 -10 13 -10 9 0 13 -23 12 -92 0 -64 4 -93 13 -95
9 -4 12 21 12 101 l0 106 -25 0 c-14 0 -25 -4 -25 -10z"/>
<path d="M1419 3346 l23 -25 -21 -22 c-25 -27 -19 -39 7 -16 23 21 36 21 52 2
7 -8 16 -12 21 -10 4 3 -1 15 -12 26 l-21 21 23 24 c24 26 11 34 -15 9 -8 -8
-17 -15 -21 -15 -4 0 -13 7 -21 15 -26 25 -39 17 -15 -9z"/>
<path d="M1449 2941 c-1 -6 -2 -17 -3 -23 0 -7 -11 -14 -23 -16 -28 -4 -30
-22 -3 -22 11 0 21 -4 21 -10 1 -5 2 -14 3 -20 2 -19 21 -15 21 5 0 13 8 21
23 23 30 4 28 22 -2 22 -19 0 -24 4 -21 20 2 11 0 22 -6 25 -5 4 -10 1 -10 -4z"/>
<path d="M3040 6175 c0 -36 -2 -65 -5 -65 -3 0 -23 9 -44 20 -33 16 -41 17
-57 5 -27 -19 -28 -185 -2 -212 17 -16 20 -16 53 0 20 9 40 17 45 17 6 0 10
-62 10 -155 l0 -155 1210 0 1210 0 0 305 0 305 -1210 0 -1210 0 0 -65z m2400
-240 l0 -285 -1190 0 -1190 0 0 144 c0 174 -6 187 -70 153 -35 -19 -42 -20
-50 -7 -13 20 -13 146 0 171 11 19 12 19 49 -3 53 -30 71 -16 71 58 l0 54
1190 0 1190 0 0 -285z"/>
<path d="M4140 6095 c0 -36 -4 -65 -9 -65 -5 0 -23 8 -40 18 -38 21 -61 10
-74 -39 -13 -47 -2 -148 17 -167 16 -17 19 -16 88 13 15 6 17 -2 20 -67 l3
-73 238 0 c231 0 237 0 238 20 1 25 1 395 0 413 -1 9 -56 12 -241 12 l-240 0
0 -65z m461 38 c4 -37 3 -387 -1 -392 -3 -4 -103 -8 -222 -8 l-218 0 0 69 c0
79 -13 93 -62 65 -42 -24 -55 -21 -62 14 -14 71 -2 159 21 159 8 0 27 -7 43
-16 45 -27 60 -14 60 56 l0 60 220 0 c121 0 220 -3 221 -7z"/>
<path d="M4358 6006 c-10 -7 -18 -19 -18 -26 0 -10 3 -10 14 -1 19 16 24 5 23
-56 0 -44 -3 -53 -18 -53 -10 0 -21 -4 -24 -10 -4 -6 15 -10 49 -10 31 0 56 5
56 10 0 6 -9 10 -20 10 -18 0 -20 7 -20 75 0 78 -7 88 -42 61z"/>
<path d="M4819 6158 c0 -2 -2 -29 -3 -61 -2 -31 -5 -60 -9 -63 -3 -3 -19 2
-36 10 -41 22 -58 20 -72 -6 -16 -29 -16 -157 0 -185 14 -27 31 -29 72 -7 17
8 33 13 36 10 3 -3 7 -34 8 -68 2 -35 3 -65 4 -68 1 -4 428 -5 469 -1 9 1 12
52 12 221 l0 220 -240 0 c-132 0 -240 -1 -241 -2z m458 -220 l-2 -203 -220 0
-220 0 -1 50 c-3 82 -3 85 -20 92 -8 3 -31 -3 -49 -13 -48 -26 -58 -12 -59 81
0 93 10 107 59 81 40 -22 64 -16 66 16 2 31 6 81 8 91 0 4 100 7 221 7 l219 0
-2 -202z"/>
<path d="M5014 6003 c-12 -12 -13 -18 -4 -21 6 -2 17 1 23 7 15 15 44 14 50
-3 6 -16 -11 -36 -30 -36 -21 0 -15 -14 10 -25 28 -13 30 -49 1 -53 -11 -2
-27 4 -34 13 -14 17 -30 20 -30 6 0 -33 72 -55 98 -29 15 15 15 51 0 66 -9 9
-9 15 0 24 18 18 14 46 -7 58 -29 15 -57 12 -77 -7z"/>
<path d="M3280 6081 c-48 -12 -63 -27 -70 -75 -4 -25 -3 -46 2 -46 4 0 8 16 8
35 0 42 29 75 65 75 14 0 25 5 25 10 0 6 -1 9 -2 9 -2 -1 -14 -4 -28 -8z"/>
<path d="M3320 6079 c0 -10 50 -18 55 -9 3 4 -9 10 -25 12 -17 3 -30 1 -30 -3z"/>
<path d="M3390 6079 c0 -5 8 -9 18 -9 11 0 28 -8 40 -18 17 -15 22 -32 25 -98
l3 -79 2 82 c2 72 -1 85 -19 102 -22 20 -69 34 -69 20z"/>
<path d="M3676 6031 c-1 -3 -2 -51 -2 -106 l1 -100 40 -2 c22 -1 33 1 25 5
-21 10 -22 179 -1 191 9 6 1 10 -23 13 -21 2 -38 2 -40 -1z m34 -106 c0 -57
-4 -95 -10 -95 -6 0 -10 38 -10 95 0 57 4 95 10 95 6 0 10 -38 10 -95z"/>
<path d="M3798 6028 c-10 -6 -8 -8 5 -8 15 0 17 -11 17 -94 0 -82 -2 -95 -17
-99 -10 -3 0 -5 22 -6 l41 -1 1 104 0 104 -28 4 c-16 3 -34 1 -41 -4z m56 -85
c-3 -111 -3 -117 -11 -109 -8 8 -13 166 -6 179 12 22 18 -1 17 -70z"/>
<path d="M3306 5975 c-19 -28 -20 -35 -6 -35 6 0 10 7 10 15 0 7 7 18 16 23
10 6 12 12 6 16 -5 3 -17 -5 -26 -19z"/>
<path d="M3350 5990 c0 -13 18 -22 24 -11 3 5 -1 11 -9 15 -8 3 -15 1 -15 -4z"/>
<path d="M3381 5950 c-1 -15 -7 -32 -13 -39 -11 -10 -10 -11 4 -6 21 8 27 25
17 50 -7 18 -8 17 -8 -5z"/>
<path d="M3205 5925 c0 -14 3 -25 8 -25 4 0 7 11 7 25 0 14 -3 25 -7 25 -5 0
-8 -11 -8 -25z"/>
<path d="M3302 5918 c5 -13 48 -31 48 -20 0 4 -12 12 -26 19 -17 8 -24 8 -22
1z"/>
<path d="M3205 5880 c3 -5 8 -10 11 -10 2 0 4 5 4 10 0 6 -5 10 -11 10 -5 0
-7 -4 -4 -10z"/>
<path d="M3465 5860 c3 -5 8 -10 11 -10 2 0 4 5 4 10 0 6 -5 10 -11 10 -5 0
-7 -4 -4 -10z"/>
<path d="M3210 5851 c0 -15 42 -41 65 -40 13 0 9 4 -12 10 -18 5 -33 16 -33
24 0 8 -4 15 -10 15 -5 0 -10 -4 -10 -9z"/>
<path d="M3450 5841 c0 -6 -15 -15 -32 -20 -29 -8 -30 -9 -8 -10 30 0 66 24
51 34 -6 3 -11 2 -11 -4z"/>
<path d="M3335 5821 c-22 -3 -35 -9 -30 -12 14 -9 75 1 75 12 0 5 -1 8 -2 8
-2 -1 -21 -5 -43 -8z"/>
<path d="M6001 6098 c-1 -34 -3 -63 -5 -65 -2 -2 -20 4 -40 14 -47 22 -67 11
-79 -43 -9 -44 -2 -126 14 -155 12 -23 38 -24 65 -4 37 28 44 19 44 -55 0 -38
3 -71 8 -71 18 -3 458 -5 467 -2 7 2 10 80 10 221 l0 217 -241 3 -241 2 -2
-62z m464 -160 l0 -203 -221 -1 -222 -1 0 41 c-1 88 -2 97 -18 103 -9 3 -32
-2 -51 -12 -45 -25 -56 -12 -58 66 -3 111 8 126 65 93 42 -26 60 -13 61 43 1
26 1 54 0 61 -2 9 49 12 221 12 l223 0 0 -202z"/>
<path d="M6218 6006 c-10 -7 -18 -19 -18 -27 0 -10 3 -10 12 -1 21 21 26 13
26 -48 0 -52 -3 -60 -18 -60 -11 0 -22 -4 -25 -10 -4 -6 15 -10 49 -10 31 0
56 5 56 10 0 6 -9 10 -20 10 -18 0 -20 7 -20 75 0 78 -7 88 -42 61z"/>
<path d="M7030 6095 c0 -69 -8 -78 -44 -50 -11 8 -30 15 -43 15 -31 0 -43 -33
-43 -115 0 -82 12 -115 42 -115 13 0 32 7 42 15 37 28 45 19 48 -57 l3 -73
238 0 237 0 0 222 0 223 -240 0 -240 0 0 -65z m460 -158 l0 -204 -220 0 -220
0 0 51 c0 98 -16 114 -79 79 -42 -24 -51 -10 -51 82 0 93 8 105 55 82 40 -19
64 -22 66 -7 1 6 3 15 4 20 1 6 3 30 4 55 l1 45 220 0 220 0 0 -203z"/>
<path d="M7224 5995 c-19 -29 -15 -104 6 -130 16 -19 50 -19 75 -1 28 20 28
122 0 142 -29 22 -63 17 -81 -11z m76 -30 c9 -45 -2 -89 -24 -93 -25 -5 -36 8
-40 49 -5 51 9 81 36 77 16 -2 24 -12 28 -33z"/>
<path d="M2270 5925 l0 -95 70 0 70 0 0 95 0 95 -70 0 -70 0 0 -95z m130 0 l0
-85 -60 0 -60 0 0 85 0 85 60 0 60 0 0 -85z"/>
<path d="M2313 5983 c-7 -2 -13 -9 -13 -14 0 -5 8 -4 19 2 22 14 51 6 51 -15
0 -9 -9 -20 -20 -26 -11 -6 -20 -15 -20 -21 0 -5 11 -2 25 7 52 34 17 91 -42
67z"/>
<path d="M2328 5858 c9 -9 15 -9 24 0 9 9 7 12 -12 12 -19 0 -21 -3 -12 -12z"/>
<path d="M6700 5966 c0 -21 -5 -26 -25 -26 -14 0 -25 -4 -25 -10 0 -5 11 -10
25 -10 20 0 25 -5 25 -25 0 -14 5 -25 10 -25 6 0 10 11 10 25 0 20 5 25 26 25
14 0 23 4 19 10 -3 6 -15 10 -26 10 -12 0 -19 7 -19 19 0 11 -4 23 -10 26 -6
4 -10 -5 -10 -19z"/>
<path d="M2672 5969 c3 -8 13 -38 22 -66 10 -29 24 -53 31 -53 16 0 58 83 53
106 -5 28 -29 30 -25 2 4 -25 -11 -78 -22 -78 -4 0 -14 21 -22 47 -8 25 -21
49 -28 51 -9 3 -12 -1 -9 -9z"/>
<path d="M5636 5965 c4 -8 10 -15 15 -15 14 0 10 -22 -8 -42 -9 -10 -13 -21
-10 -25 4 -3 15 1 25 10 23 21 29 21 49 2 22 -23 30 -9 8 15 -17 19 -17 21 0
40 10 11 15 23 12 27 -4 3 -16 -2 -27 -12 -19 -17 -21 -17 -38 -2 -23 21 -33
22 -26 2z"/>
<path d="M2217 5963 c-4 -3 -7 -18 -7 -31 0 -32 11 -23 14 12 3 28 3 30 -7 19z"/>
<path d="M2430 5915 c-15 -18 0 -21 18 -3 9 9 15 9 24 0 10 -10 5 -19 -20 -42
-18 -16 -32 -31 -32 -34 0 -3 19 -5 43 -5 29 2 34 3 15 6 -33 5 -35 13 -7 36
11 10 19 26 17 35 -4 22 -41 27 -58 7z"/>
<path d="M2268 5416 c-23 -17 -23 -29 0 -22 17 6 19 0 19 -54 0 -51 -3 -60
-18 -60 -10 0 -21 -4 -24 -10 -4 -6 15 -10 49 -10 31 0 56 5 56 10 0 6 -9 10
-20 10 -18 0 -20 7 -20 75 0 78 -7 88 -42 61z"/>
<path d="M2160 5320 c0 -5 14 -10 30 -10 17 0 30 5 30 10 0 6 -13 10 -30 10
-16 0 -30 -4 -30 -10z"/>
<path d="M2188 4996 c-24 -17 -23 -29 1 -21 17 5 19 1 18 -55 -1 -50 -4 -60
-19 -60 -9 0 -20 -4 -23 -10 -4 -6 15 -10 49 -10 31 0 56 5 56 10 0 6 -9 10
-20 10 -18 0 -20 7 -20 75 0 78 -7 88 -42 61z"/>
<path d="M3080 4581 c0 -33 -4 -62 -9 -65 -5 -3 -22 1 -37 9 -64 33 -84 9 -84
-100 0 -82 12 -115 42 -115 13 0 32 7 42 15 39 29 46 20 46 -60 l0 -75 305 0
305 0 0 225 0 225 -305 0 -305 0 0 -59z m593 -143 c-1 -101 -2 -192 -2 -204
-1 -21 -4 -21 -286 -21 l-284 0 -3 65 c-4 81 -19 95 -72 67 -19 -11 -38 -16
-42 -12 -20 20 -20 164 0 184 4 4 21 0 37 -10 61 -34 79 -18 79 71 l0 42 288
0 287 0 -2 -182z"/>
<path d="M3289 4479 l-24 -20 23 6 c21 6 22 4 22 -54 0 -54 -2 -61 -20 -61
-11 0 -20 -4 -20 -10 0 -5 25 -10 56 -10 34 0 53 4 49 10 -3 6 -14 10 -24 10
-15 0 -17 10 -16 75 2 82 -5 90 -46 54z"/>
<path d="M3423 4492 c-6 -4 -16 -19 -21 -32 -8 -22 -9 -35 -3 -87 2 -20 32
-43 56 -43 37 0 59 40 53 95 -3 25 -11 52 -18 60 -13 16 -47 20 -67 7z m52
-23 c11 -17 13 -83 3 -101 -11 -22 -44 -23 -52 -2 -8 21 -8 99 1 107 10 11 41
8 48 -4z"/>
<path d="M3881 4578 c-1 -34 -3 -64 -5 -65 -2 -2 -19 4 -39 13 -44 21 -64 14
-75 -28 -14 -49 -6 -158 12 -177 16 -16 19 -15 89 14 15 6 17 0 18 -54 1 -34
2 -67 3 -73 1 -10 71 -14 309 -16 l307 -2 0 225 0 225 -309 0 -308 0 -2 -62z
m599 -161 l0 -204 -287 1 -288 1 -1 30 c-1 17 -2 47 -3 68 -1 47 -22 57 -68
32 -48 -26 -58 -12 -57 80 0 92 10 106 57 80 48 -26 67 -15 68 37 1 24 1 51 0
61 -2 16 18 17 288 17 l291 0 0 -203z"/>
<path d="M4098 4486 c-10 -7 -18 -16 -18 -20 0 -4 8 -6 18 -4 14 3 17 -6 18
-54 2 -55 1 -58 -23 -58 -13 0 -21 -4 -18 -10 3 -5 28 -10 56 -10 27 0 49 5
49 10 0 6 -9 10 -20 10 -18 0 -20 7 -20 75 0 78 -7 88 -42 61z"/>
<path d="M4209 4488 c0 -7 -2 -28 -4 -46 -3 -32 -3 -32 38 -30 41 3 42 2 42
-27 0 -24 -5 -31 -23 -33 -13 -2 -30 2 -38 9 -19 16 -30 4 -14 -16 16 -19 74
-19 90 0 32 39 0 101 -47 92 -19 -3 -23 0 -23 19 0 21 5 24 35 24 19 0 35 5
35 10 0 15 -90 13 -91 -2z"/>
<path d="M2163 4534 c-25 -28 -29 -44 -12 -44 5 0 8 4 5 9 -3 4 5 17 17 29 18
17 36 20 109 21 115 2 123 -7 123 -116 -1 -109 -11 -131 -57 -124 -5 0 -8 -3
-8 -9 0 -16 26 -12 51 9 20 16 23 27 24 110 2 77 -1 96 -17 117 -18 22 -26 24
-116 24 -92 0 -98 -2 -119 -26z"/>
<path d="M2628 4512 c-16 -3 -18 -16 -18 -108 l0 -104 43 1 c23 1 34 3 25 6
-16 4 -18 17 -18 98 0 81 2 94 18 97 12 3 10 5 -8 9 -14 3 -33 3 -42 1z m18
-107 c0 -64 -4 -95 -11 -95 -8 0 -12 31 -12 95 -1 68 3 95 11 95 9 0 12 -27
12 -95z"/>
<path d="M2746 4512 c-14 -3 -16 -6 -6 -12 21 -13 22 -178 1 -190 -12 -7 -6
-9 22 -10 l37 0 0 104 c0 110 -4 119 -54 108z m44 -107 c0 -57 -4 -95 -10 -95
-6 0 -10 38 -10 95 0 57 4 95 10 95 6 0 10 -38 10 -95z"/>
<path d="M2143 4460 c1 -11 5 -20 9 -20 3 0 6 9 5 20 -1 11 -5 20 -9 20 -3 0
-6 -9 -5 -20z"/>
<path d="M2244 4459 c-19 -22 -19 -22 4 -10 12 6 22 16 22 21 0 15 -5 12 -26
-11z"/>
<path d="M2300 4462 c0 -12 19 -26 26 -19 2 2 -2 10 -11 17 -9 8 -15 8 -15 2z"/>
<path d="M2140 4420 c0 -5 5 -10 11 -10 5 0 7 5 4 10 -3 6 -8 10 -11 10 -2 0
-4 -4 -4 -10z"/>
<path d="M2231 4410 c23 -35 56 -43 79 -20 21 21 28 46 10 35 -5 -3 -10 -13
-10 -21 0 -8 -10 -14 -22 -14 -26 0 -50 13 -48 26 1 5 -4 10 -12 13 -9 3 -8
-2 3 -19z"/>
<path d="M2142 4378 c1 -40 19 -76 41 -83 23 -8 138 -7 146 0 2 3 -27 5 -65 5
-85 0 -107 13 -108 64 -1 20 -4 36 -8 36 -4 0 -7 -10 -6 -22z"/>
<path d="M3080 3991 c0 -33 -4 -62 -10 -66 -5 -3 -26 4 -47 15 l-38 20 -18
-22 c-16 -19 -18 -36 -15 -110 4 -103 13 -118 61 -99 60 24 62 22 67 -54 l5
-70 370 0 370 0 1 223 1 222 -373 0 -374 0 0 -59z m727 -161 c0 -138 -4 -200
-11 -201 -6 0 -165 -2 -353 -2 l-341 -2 -4 68 c-5 83 -17 94 -70 64 -49 -28
-58 -17 -58 78 0 93 8 105 55 82 20 -9 42 -17 49 -17 15 0 26 42 26 96 l0 34
353 0 354 0 0 -200z"/>
<path d="M3297 3857 c-20 -29 -37 -58 -37 -65 0 -6 17 -12 38 -14 24 -2 37 -8
37 -17 0 -8 6 -16 14 -19 10 -3 12 1 8 17 -3 14 0 21 9 21 16 0 19 17 3 22 -5
2 -11 25 -12 52 -1 27 -7 51 -13 53 -6 2 -27 -21 -47 -50z m39 -22 c1 -30 -2
-35 -23 -35 -28 0 -28 3 -6 41 22 38 28 37 29 -6z"/>
<path d="M3411 3896 c-18 -21 -20 -97 -5 -128 16 -32 63 -39 84 -13 21 26 25
101 6 130 -19 28 -66 34 -85 11z m65 -17 c12 -20 14 -68 4 -94 -10 -26 -43
-34 -56 -14 -8 13 -7 96 1 109 8 14 42 12 51 -1z"/>
<path d="M3547 3893 c-25 -29 -26 -112 -1 -137 22 -23 60 -20 78 6 23 32 21
110 -2 131 -24 22 -55 22 -75 0z m69 -38 c12 -66 -16 -114 -51 -85 -18 15 -20
91 -3 108 24 24 47 14 54 -23z"/>
<path d="M4020 3998 c0 -72 -10 -87 -44 -65 -65 43 -89 11 -84 -109 4 -99 13
-114 61 -95 60 24 62 22 67 -54 l5 -70 370 0 370 0 0 220 0 220 -372 3 -373 2
0 -52z m725 -172 l0 -200 -344 0 c-188 -1 -347 1 -352 5 -5 3 -11 33 -13 68
-4 77 -16 87 -67 58 -51 -29 -59 -18 -61 77 -2 95 7 106 62 81 58 -26 64 -17
69 103 1 10 75 12 354 10 l352 -3 0 -199z"/>
<path d="M4200 3900 c0 -5 20 -10 43 -10 l44 0 -29 -56 c-15 -31 -28 -65 -28
-75 0 -30 25 -22 28 9 1 15 13 49 27 75 14 27 25 53 25 58 0 5 -25 9 -55 9
-30 0 -55 -4 -55 -10z"/>
<path d="M4353 3898 c-18 -22 -24 -83 -12 -116 11 -33 44 -50 74 -38 34 13 47
105 19 144 -17 24 -65 30 -81 10z m62 -19 c13 -20 16 -66 5 -93 -7 -20 -16
-27 -33 -24 -18 2 -23 11 -28 45 -3 22 -2 51 3 62 8 22 42 29 53 10z"/>
<path d="M4492 3902 c-32 -21 -33 -133 0 -153 44 -29 88 9 88 76 0 67 -44 105
-88 77z m58 -31 c23 -43 5 -111 -29 -111 -22 0 -31 19 -31 65 0 18 3 40 6 49
8 22 41 20 54 -3z"/>
<path d="M2210 3968 c0 -5 17 -8 37 -8 20 0 33 3 30 7 -10 9 -67 10 -67 1z"/>
<path d="M2290 3968 c0 -4 17 -8 38 -8 21 0 47 -7 60 -15 19 -14 21 -14 16 -1
-8 21 -114 43 -114 24z"/>
<path d="M2168 3956 c-10 -7 -15 -16 -11 -19 3 -4 2 -7 -3 -7 -6 0 -10 -11
-10 -25 0 -14 4 -25 8 -25 5 0 8 6 7 13 -3 25 2 37 23 57 24 22 13 27 -14 6z"/>
<path d="M2730 3919 c0 -4 6 -9 13 -12 19 -7 17 -175 -3 -187 -11 -7 -5 -10
23 -10 l37 0 0 108 0 108 -35 -1 c-19 0 -35 -3 -35 -6z m60 -104 c0 -57 -4
-95 -10 -95 -6 0 -10 38 -10 95 0 57 4 95 10 95 6 0 10 -38 10 -95z"/>
<path d="M2405 3843 c0 -43 -3 -84 -8 -90 -6 -9 -5 -13 2 -13 6 0 12 3 12 8 5
26 3 172 -1 172 -4 0 -6 -35 -5 -77z"/>
<path d="M2610 3815 l0 -105 43 1 c23 1 34 3 25 6 -16 4 -18 17 -18 98 0 81 2
94 18 98 9 3 -2 5 -25 6 l-43 1 0 -105z m37 0 c0 -67 -3 -95 -11 -95 -9 0 -12
28 -12 95 0 63 3 95 11 95 7 0 11 -33 12 -95z"/>
<path d="M2245 3867 c-19 -27 -19 -37 0 -64 13 -19 19 -20 44 -12 16 6 32 17
35 24 3 9 0 12 -10 8 -7 -3 -14 -9 -14 -14 0 -16 -48 -9 -54 7 -17 45 32 79
59 41 8 -11 17 -18 21 -14 9 9 -22 37 -46 42 -12 2 -26 -5 -35 -18z"/>
<path d="M2142 3841 c1 -17 4 -31 8 -31 9 0 7 47 -2 56 -4 3 -6 -8 -6 -25z"/>
<path d="M2145 3768 c8 -47 38 -68 96 -68 27 0 49 4 49 8 0 5 -22 7 -50 6 -42
-3 -52 0 -69 22 -11 14 -18 34 -16 44 2 11 0 20 -6 20 -5 0 -7 -15 -4 -32z"/>
<path d="M2376 3722 c-2 -4 -19 -9 -37 -10 -45 -4 -50 -12 -8 -12 31 0 91 29
62 30 -6 0 -14 -4 -17 -8z"/>
<path d="M2188 3396 c-10 -7 -18 -19 -18 -27 0 -10 3 -10 12 -1 21 21 25 14
26 -44 0 -47 -3 -57 -19 -61 -37 -10 -19 -23 31 -23 28 0 50 5 50 10 0 6 -9
10 -20 10 -18 0 -20 7 -20 75 0 78 -7 88 -42 61z"/>
<path d="M2176 2964 c-16 -15 -20 -43 -16 -94 4 -54 60 -79 93 -42 22 24 22
100 1 130 -18 26 -56 29 -78 6z m64 -23 c15 -29 12 -87 -6 -102 -35 -29 -66
32 -50 97 8 29 41 32 56 5z"/>
<path d="M205 2505 c-23 -22 -25 -32 -25 -113 0 -75 3 -93 21 -116 l20 -26
200 0 c185 0 200 1 219 20 27 27 33 57 28 146 -5 115 -4 114 -245 114 -193 0
-194 0 -218 -25z m427 -12 c15 -13 18 -31 18 -97 0 -131 8 -126 -230 -126
-234 0 -220 -7 -220 121 0 123 -8 119 223 119 163 0 193 -2 209 -17z"/>
<path d="M289 2414 c-18 -22 -1 -46 39 -56 40 -11 43 -38 4 -38 -15 0 -33 5
-40 12 -9 9 -12 8 -12 -4 0 -29 68 -39 90 -13 18 22 3 51 -31 61 -40 12 -33
30 10 27 28 -2 31 0 21 12 -16 20 -64 19 -81 -1z"/>
<path d="M765 2410 c-4 -6 -3 -16 3 -22 6 -6 12 -6 17 2 4 6 3 16 -3 22 -6 6
-12 6 -17 -2z"/>
<path d="M810 2400 c0 -6 32 -10 75 -10 43 0 75 4 75 10 0 6 -32 10 -75 10
-43 0 -75 -4 -75 -10z"/>
<path d="M767 2364 c-9 -9 4 -35 14 -28 5 3 9 12 9 20 0 14 -12 19 -23 8z"/>
<path d="M810 2350 c0 -6 32 -10 75 -10 43 0 75 4 75 10 0 6 -32 10 -75 10
-43 0 -75 -4 -75 -10z"/>
<path d="M2140 2558 c0 -76 -8 -84 -55 -57 l-38 23 -18 -23 c-18 -22 -23 -56
-20 -126 5 -90 28 -111 86 -77 41 25 45 18 45 -69 l0 -59 300 0 300 0 0 220 0
220 -300 0 -300 0 0 -52z m573 33 c4 -1 6 -92 5 -203 l-3 -202 -273 1 c-150 0
-274 2 -277 5 -3 2 -7 33 -9 67 -4 77 -17 88 -69 58 -33 -18 -39 -19 -47 -7
-11 18 -15 65 -11 148 1 32 28 38 68 16 34 -18 35 -18 49 0 8 11 12 39 11 67
-1 27 1 50 5 51 7 3 530 1 551 -1z"/>
<path d="M2245 2505 c-23 -22 -25 -32 -25 -115 0 -83 2 -93 25 -115 24 -25 27
-25 195 -25 157 0 172 2 190 20 23 23 21 15 24 110 3 90 -7 123 -40 139 -15 7
-87 11 -185 11 -156 0 -160 -1 -184 -25z m374 -14 c15 -15 19 -34 19 -97 1
-127 5 -124 -198 -124 -207 0 -200 -4 -200 120 0 124 -6 120 196 120 148 0
166 -2 183 -19z"/>
<path d="M2337 2473 c-4 -3 -7 -15 -7 -25 0 -10 -5 -18 -12 -18 -9 0 -9 -3 0
-12 7 -7 12 -36 12 -65 0 -57 19 -75 21 -20 1 17 1 38 0 45 -1 8 5 23 15 33
16 17 16 19 1 19 -10 0 -17 7 -17 15 0 8 7 15 15 15 8 0 15 5 15 10 0 11 -33
14 -43 3z"/>
<path d="M3279 2608 c-1 -2 -2 -29 -3 -60 -1 -31 -4 -60 -8 -63 -3 -3 -22 4
-43 16 l-37 22 -20 -21 c-18 -18 -21 -33 -21 -100 1 -119 22 -143 88 -102 31
19 33 19 37 2 3 -10 5 -44 4 -75 l-1 -57 442 0 443 0 0 220 0 220 -440 0
c-242 0 -441 -1 -441 -2z m844 -17 c16 -1 17 -18 17 -201 0 -110 -3 -200 -7
-201 -5 0 -192 -1 -416 -2 -264 -1 -411 2 -415 8 -4 6 -7 36 -8 69 -2 72 -15
82 -66 54 -53 -30 -62 -18 -62 83 0 96 10 108 65 76 49 -28 62 -16 63 54 1 39
5 54 18 58 13 5 719 6 811 2z"/>
<path d="M3484 2449 c-19 -21 -19 -22 4 -15 21 7 22 5 22 -53 0 -54 -2 -61
-20 -61 -11 0 -20 -4 -20 -10 0 -5 23 -10 50 -10 28 0 50 5 50 10 0 6 -9 10
-20 10 -18 0 -20 7 -20 75 0 82 -10 94 -46 54z"/>
<path d="M3610 2455 c-17 -21 -23 -86 -11 -118 12 -32 31 -42 65 -33 46 11 59
123 19 154 -23 16 -58 15 -73 -3z m70 -40 c9 -45 -7 -95 -30 -95 -25 0 -33 15
-33 65 0 52 9 67 36 63 15 -2 23 -13 27 -33z"/>
<path d="M3746 2451 c-12 -13 -18 -36 -18 -66 0 -53 22 -85 58 -85 31 0 54 36
54 85 0 74 -53 111 -94 66z m64 -20 c14 -28 12 -74 -4 -97 -32 -42 -69 25 -52
92 8 29 41 32 56 5z"/>
<path d="M3876 2448 c-9 -12 -16 -41 -16 -63 0 -49 23 -85 55 -85 28 0 55 24
56 51 4 62 0 86 -17 103 -22 23 -60 20 -78 -6z m68 -14 c3 -9 6 -31 6 -49 0
-18 -3 -40 -6 -49 -8 -22 -41 -20 -54 3 -23 43 -5 111 29 111 11 0 22 -7 25
-16z"/>
<path d="M4700 2545 c0 -36 -2 -65 -5 -65 -2 0 -23 10 -45 21 -39 20 -43 21
-58 5 -25 -25 -24 -188 1 -213 17 -17 19 -17 57 3 21 12 41 19 44 16 4 -3 6
-36 6 -74 l0 -68 340 0 340 0 0 220 0 220 -340 0 -340 0 0 -65z m653 46 c4 -1
6 -92 5 -203 l-3 -202 -300 -1 c-165 0 -308 2 -317 4 -15 3 -18 14 -18 66 0
80 -12 92 -65 64 -37 -20 -39 -20 -52 -3 -15 21 -17 121 -3 158 l9 26 46 -22
c56 -27 65 -19 65 58 0 28 2 53 4 55 3 3 598 3 629 0z"/>
<path d="M4906 2457 c-33 -24 -27 -126 8 -149 23 -16 56 -7 72 17 19 29 15
104 -6 130 -15 19 -50 19 -74 2z m64 -32 c9 -24 7 -76 -5 -95 -8 -13 -42 -13
-51 1 -8 13 -7 96 1 109 12 19 45 10 55 -15z"/>
<path d="M5118 2459 c-22 -12 -24 -33 -3 -25 17 6 17 8 19 -61 2 -49 1 -53
-21 -53 -13 0 -23 -4 -23 -10 0 -5 25 -10 55 -10 30 0 55 5 55 10 0 6 -9 10
-20 10 -18 0 -20 7 -20 75 0 78 -5 86 -42 64z"/>
<path d="M5030 2315 c0 -8 5 -15 10 -15 6 0 10 7 10 15 0 8 -4 15 -10 15 -5 0
-10 -7 -10 -15z"/>
<path d="M5929 2608 c-1 -2 -2 -29 -4 -61 -1 -31 -4 -60 -7 -62 -3 -3 -21 3
-40 15 -20 11 -42 18 -51 15 -21 -9 -34 -70 -30 -139 6 -97 26 -114 88 -76 31
19 33 19 37 3 2 -10 4 -44 3 -75 l-1 -58 243 0 243 0 0 220 0 220 -240 0
c-132 0 -241 -1 -241 -2z m457 -217 c1 -143 -2 -201 -10 -202 -43 -4 -409 -3
-419 1 -7 3 -13 26 -13 55 -3 85 -3 85 -24 85 -12 0 -35 -7 -52 -16 -18 -9
-34 -12 -39 -7 -14 14 -17 138 -5 167 l11 26 43 -22 c52 -27 65 -18 66 49 1
26 4 53 8 58 4 6 87 10 220 9 l213 -1 1 -202z"/>
<path d="M6126 2448 c-9 -12 -16 -41 -16 -63 0 -49 23 -85 55 -85 28 0 55 24
56 51 4 62 0 86 -17 103 -22 23 -60 20 -78 -6z m68 -14 c3 -9 6 -31 6 -49 0
-18 -3 -40 -6 -49 -8 -22 -41 -20 -54 3 -23 43 -5 111 29 111 11 0 22 -7 25
-16z"/>
<path d="M1460 2390 c0 -69 3 -90 13 -90 11 0 14 21 14 90 -1 68 -4 90 -14 90
-10 0 -13 -22 -13 -90z"/>
<path d="M1510 2390 c0 -108 17 -121 22 -16 3 83 1 106 -13 106 -5 0 -9 -40
-9 -90z"/>
<path d="M1555 2393 c0 -60 4 -88 13 -90 9 -4 12 18 12 86 0 68 -3 91 -13 91
-9 0 -13 -23 -12 -87z"/>
<path d="M2936 2445 c-4 -14 -14 -25 -23 -25 -15 0 -15 -1 1 -13 20 -15 12
-47 -13 -48 -10 0 -11 -2 -3 -6 6 -2 12 -17 13 -31 l1 -27 11 27 c13 34 51 35
42 1 -3 -13 -1 -23 5 -23 5 0 10 8 10 18 0 11 10 24 23 30 18 9 19 11 4 11
-14 1 -17 6 -11 24 4 12 12 25 18 29 8 5 7 8 -2 8 -8 0 -10 8 -6 26 5 19 4 25
-5 20 -6 -4 -11 -16 -11 -27 0 -13 -7 -19 -21 -19 -17 0 -20 5 -17 25 3 14 2
25 -2 25 -4 0 -11 -11 -14 -25z m42 -57 c-4 -29 -38 -38 -38 -10 0 22 8 32 27
32 9 0 13 -8 11 -22z"/>
<path d="M5598 2434 c-3 -5 -4 -17 -3 -26 2 -13 -4 -18 -21 -18 -13 0 -24 -4
-24 -10 0 -5 11 -10 25 -10 15 0 25 -5 24 -12 -3 -24 1 -38 10 -38 5 0 8 11 6
25 -2 20 2 25 21 25 13 0 24 5 24 10 0 6 -12 10 -26 10 -14 0 -22 4 -19 10 3
5 2 17 -3 26 -5 9 -12 13 -14 8z"/>
<path d="M1772 2418 c3 -7 13 -37 22 -65 10 -31 24 -53 32 -53 17 0 54 71 54
105 0 14 -6 25 -13 25 -8 0 -13 -10 -12 -22 2 -27 -14 -78 -24 -78 -4 0 -15
23 -25 50 -10 28 -23 50 -28 50 -6 0 -8 -6 -6 -12z"/>
<path d="M4330 2423 c0 -3 7 -15 17 -25 15 -17 15 -19 -2 -38 -24 -26 -11 -39
15 -15 19 17 21 17 40 0 26 -24 39 -11 15 15 -17 19 -17 21 0 40 24 26 11 39
-15 15 -19 -17 -21 -17 -38 -2 -19 18 -32 22 -32 10z"/>
<path d="M202 1917 c-19 -20 -22 -35 -22 -116 0 -85 2 -94 25 -117 l25 -25
200 3 c247 4 235 -3 235 139 0 144 8 139 -244 139 -194 0 -198 0 -219 -23z
m400 4 c37 -2 48 -29 48 -118 0 -128 9 -123 -226 -123 -163 0 -195 2 -209 16
-13 13 -15 35 -13 113 l3 96 31 10 c24 8 267 12 366 6z"/>
<path d="M280 1841 c0 -5 7 -14 15 -21 19 -16 19 -41 0 -66 -17 -23 -19 -34
-5 -34 6 0 16 12 22 26 l12 26 23 -28 c29 -37 42 -24 14 14 l-21 30 21 26 c12
15 18 30 14 34 -4 4 -16 -4 -26 -17 l-20 -24 -15 21 c-15 22 -34 29 -34 13z"/>
<path d="M770 1830 c-12 -7 -12 -12 -3 -21 15 -15 26 -7 21 15 -2 11 -7 13
-18 6z"/>
<path d="M810 1820 c0 -6 32 -10 75 -10 43 0 75 4 75 10 0 6 -32 10 -75 10
-43 0 -75 -4 -75 -10z"/>
<path d="M765 1780 c-4 -6 -3 -16 3 -22 6 -6 12 -6 17 2 4 6 3 16 -3 22 -6 6
-12 6 -17 -2z"/>
<path d="M810 1770 c0 -6 32 -10 75 -10 43 0 75 4 75 10 0 6 -32 10 -75 10
-43 0 -75 -4 -75 -10z"/>
<path d="M2204 2021 c-2 -2 -4 -30 -4 -61 0 -31 -3 -59 -6 -63 -3 -3 -24 4
-46 15 l-41 22 -18 -23 c-27 -34 -27 -169 0 -202 l19 -24 40 22 c21 13 42 20
46 16 3 -3 6 -37 6 -75 l0 -68 405 0 405 0 0 220 c0 121 -3 221 -7 221 -22 4
-795 3 -799 0z m766 -20 l25 -1 -2 -147 c-1 -82 -2 -172 -3 -200 l0 -53 -385
0 -385 0 -1 48 c-1 100 -12 113 -69 81 -48 -27 -59 -19 -61 41 -4 129 7 149
63 118 39 -22 40 -22 54 -3 8 10 14 42 14 69 l0 51 363 -1 c199 -1 373 -2 387
-3z"/>
<path d="M2394 1865 c-19 -29 -15 -104 6 -130 15 -19 50 -19 74 -2 23 17 29
92 10 130 -19 37 -66 38 -90 2z m71 -7 c19 -52 5 -118 -25 -118 -11 0 -21 4
-24 9 -10 16 -13 76 -5 99 9 24 46 31 54 10z"/>
<path d="M2599 1873 c-8 -9 -14 -39 -14 -70 0 -43 4 -58 19 -69 63 -45 117 36
81 122 -11 28 -19 34 -43 34 -16 0 -36 -7 -43 -17z m66 -15 c19 -53 5 -118
-26 -118 -11 0 -23 10 -28 23 -8 22 -5 82 5 98 8 13 44 11 49 -3z"/>
<path d="M2748 1879 c-23 -13 -23 -31 -1 -27 14 2 17 -5 18 -42 2 -58 -3 -70
-26 -70 -10 0 -19 -4 -19 -10 0 -5 25 -10 55 -10 30 0 55 5 55 10 0 6 -9 10
-20 10 -18 0 -20 7 -20 75 0 78 -5 86 -42 64z"/>
<path d="M2530 1735 c0 -8 5 -15 10 -15 6 0 10 7 10 15 0 8 -4 15 -10 15 -5 0
-10 -7 -10 -15z"/>
<path d="M3520 2022 c-5 -2 -10 -30 -10 -61 0 -32 -2 -60 -5 -63 -3 -3 -24 4
-46 15 -38 19 -42 19 -57 3 -25 -24 -25 -188 0 -212 15 -16 19 -15 56 4 22 11
43 18 46 15 3 -4 6 -37 6 -75 l0 -68 340 0 340 0 -2 222 -3 223 -327 0 c-180
0 -332 -1 -338 -3z m638 -21 c9 -1 12 -48 12 -201 l0 -200 -320 0 -320 0 0 58
c0 33 -6 66 -13 77 -13 17 -15 17 -55 -5 -23 -13 -45 -20 -49 -16 -15 15 -15
160 0 180 14 19 15 19 45 -2 16 -12 35 -22 41 -22 17 0 31 36 31 83 0 24 2 46
4 48 4 3 586 4 624 0z"/>
<path d="M3711 1876 c-16 -19 -25 -79 -17 -110 12 -50 86 -60 102 -13 24 68 1
137 -45 137 -16 0 -34 -6 -40 -14z m65 -36 c4 -16 6 -32 6 -35 0 -36 -14 -65
-32 -65 -25 0 -39 33 -34 79 5 42 11 51 35 51 14 0 21 -9 25 -30z"/>
<path d="M3912 1878 c-7 -7 -12 -19 -12 -27 0 -11 4 -11 19 3 23 21 54 18 59
-5 2 -9 -18 -37 -43 -63 -25 -26 -45 -51 -45 -56 0 -6 27 -10 61 -10 37 0 58
4 54 10 -3 6 -25 10 -48 10 l-42 0 43 41 c58 57 55 109 -8 109 -14 0 -31 -5
-38 -12z"/>
<path d="M3840 1736 c0 -9 5 -16 10 -16 6 0 10 4 10 9 0 6 -4 13 -10 16 -5 3
-10 -1 -10 -9z"/>
<path d="M4664 2021 c-2 -2 -4 -33 -4 -68 0 -36 -3 -63 -7 -61 -69 36 -86 39
-102 23 -24 -24 -23 -187 1 -212 17 -16 20 -16 55 2 21 11 41 21 46 23 4 2 7
-30 7 -72 l0 -76 240 0 240 0 0 223 0 222 -236 0 c-129 0 -237 -2 -240 -4z
m451 -23 c4 -3 7 -93 7 -199 l1 -194 -221 -3 -222 -2 0 64 c0 83 -14 97 -66
65 -36 -22 -37 -22 -50 -4 -18 24 -19 145 -1 169 12 17 15 17 50 -4 50 -30 67
-16 67 55 0 43 4 54 17 57 31 6 412 2 418 -4z"/>
<path d="M4878 1879 c-21 -12 -24 -33 -4 -26 18 7 23 -7 21 -63 -1 -38 -4 -45
-23 -48 -44 -7 -21 -22 33 -22 30 0 55 5 55 10 0 6 -9 10 -20 10 -18 0 -20 7
-21 68 -1 37 -1 70 0 75 1 10 -21 8 -41 -4z"/>
<path d="M5690 1964 c0 -33 -2 -63 -5 -66 -3 -3 -24 4 -46 15 -38 19 -42 19
-57 3 -25 -25 -24 -188 0 -213 17 -16 20 -16 55 2 21 11 41 21 46 23 4 2 7
-30 7 -72 l0 -76 340 0 340 0 0 220 c0 121 -3 221 -7 221 -5 1 -158 2 -340 3
l-333 1 0 -61z m660 -161 l0 -203 -320 0 -320 0 0 64 c0 83 -14 97 -66 65 -36
-22 -37 -22 -50 -4 -19 25 -19 145 0 170 13 18 14 18 44 -3 16 -12 35 -22 41
-22 17 0 31 36 31 84 0 24 5 46 10 48 6 2 150 3 320 3 l310 0 0 -202z"/>
<path d="M5898 1878 c-23 -18 -29 -85 -13 -125 11 -27 20 -33 43 -33 38 0 53
19 60 75 8 75 -41 120 -90 83z m61 -26 c10 -19 8 -82 -3 -100 -12 -20 -44 -13
-52 11 -8 25 -7 83 1 97 10 16 44 11 54 -8z"/>
<path d="M6092 1878 c-14 -14 -16 -38 -3 -38 5 0 12 7 15 16 8 21 50 14 54
-10 3 -12 -11 -33 -37 -57 -57 -54 -55 -69 14 -69 30 0 55 5 55 10 0 6 -21 10
-47 10 l-47 0 42 39 c23 22 43 45 43 53 2 25 -3 43 -14 50 -18 12 -62 9 -75
-4z"/>
<path d="M6020 1735 c0 -8 5 -15 10 -15 6 0 10 7 10 15 0 8 -4 15 -10 15 -5 0
-10 -7 -10 -15z"/>
<path d="M6922 2020 c-4 -3 -8 -31 -9 -64 -1 -32 -4 -60 -6 -62 -3 -3 -20 4
-39 16 -61 35 -82 9 -82 -100 0 -110 19 -133 84 -100 45 23 47 20 45 -67 l-1
-63 242 0 243 0 -1 220 c0 156 -4 220 -12 221 -37 4 -459 3 -464 -1z m444 -19
c7 -1 11 -64 11 -201 l0 -200 -220 2 -220 3 -3 63 c-2 81 -12 91 -59 63 -48
-28 -53 -27 -63 12 -11 38 -7 146 5 158 5 5 27 -1 51 -13 52 -27 61 -20 65 53
1 31 7 56 14 59 10 4 378 5 419 1z"/>
<path d="M7124 1869 c-19 -21 -19 -22 4 -15 21 7 22 5 22 -53 0 -54 -2 -61
-20 -61 -11 0 -20 -4 -20 -10 0 -5 23 -10 50 -10 28 0 50 5 50 10 0 6 -9 10
-20 10 -18 0 -20 7 -20 75 0 82 -10 94 -46 54z"/>
<path d="M7944 2021 c-2 -2 -4 -33 -4 -68 0 -34 -2 -63 -6 -63 -3 0 -23 10
-44 23 -37 21 -40 21 -56 5 -12 -11 -19 -39 -22 -77 -9 -125 19 -170 82 -132
18 12 36 21 40 21 3 0 6 -34 6 -75 l0 -75 240 0 240 0 0 223 0 222 -236 0
c-129 0 -237 -2 -240 -4z m456 -218 l0 -203 -220 0 -220 0 0 64 c0 83 -14 97
-67 66 -35 -21 -38 -21 -50 -4 -18 24 -17 145 1 169 13 18 14 18 44 -3 16 -12
35 -22 41 -22 17 0 31 36 31 83 0 24 2 46 4 48 2 2 101 4 220 4 l216 0 0 -202z"/>
<path d="M8137 1863 c-7 -16 -13 -37 -12 -48 1 -11 2 -30 3 -42 4 -51 68 -71
96 -31 9 12 16 41 16 63 0 53 -23 85 -60 85 -22 0 -33 -7 -43 -27z m72 -10 c9
-19 7 -85 -4 -103 -11 -18 -43 -11 -51 13 -8 25 -7 83 1 97 10 16 44 11 54 -7z"/>
<path d="M1870 1795 l0 -105 25 0 c28 0 31 6 12 24 -9 9 -12 41 -12 100 2 66
-1 86 -12 86 -10 0 -13 -24 -13 -105z"/>
<path d="M3188 1893 c-2 -5 -4 -50 -4 -102 1 -66 5 -96 14 -98 9 -4 12 18 12
88 0 76 3 94 18 105 15 12 15 13 -10 14 -15 0 -28 -3 -30 -7z"/>
<path d="M1455 1879 c-4 -6 -5 -12 -2 -15 2 -3 7 2 10 11 7 17 1 20 -8 4z"/>
<path d="M4400 1871 c0 -4 -11 -20 -25 -35 -13 -14 -20 -26 -14 -26 5 0 7 -12
4 -27 -17 -86 -22 -98 -38 -95 -9 2 -17 -2 -17 -8 0 -18 29 -10 44 13 8 12 20
43 27 70 7 31 17 47 28 48 15 0 15 1 0 7 -12 5 -14 13 -8 30 9 24 25 29 32 10
3 -8 6 -6 6 5 1 11 -6 17 -19 17 -11 0 -20 -4 -20 -9z"/>
<path d="M5360 1840 c-12 -12 -20 -33 -20 -54 0 -25 -7 -39 -22 -50 -22 -16
-22 -16 9 -16 42 0 70 28 64 64 -4 19 22 65 37 69 10 3 2 5 -15 6 -21 1 -40
-6 -53 -19z m30 -16 c-6 -14 -10 -36 -10 -49 0 -14 -8 -29 -19 -34 -18 -10
-19 -8 -14 32 3 25 13 49 25 60 27 23 29 22 18 -9z"/>
<path d="M7610 1835 c0 -20 -5 -25 -25 -25 -14 0 -25 -4 -25 -10 0 -5 11 -10
25 -10 20 0 25 -5 25 -25 0 -14 5 -25 10 -25 6 0 10 11 10 25 0 20 5 25 25 25
14 0 25 5 25 10 0 6 -11 10 -25 10 -20 0 -25 5 -25 25 0 14 -4 25 -10 25 -5 0
-10 -11 -10 -25z"/>
<path d="M6558 1827 l22 -24 -21 -26 c-21 -28 -11 -39 11 -12 7 8 18 15 25 15
7 0 18 -7 25 -15 23 -27 32 -16 11 14 -20 28 -20 28 -1 46 27 24 18 31 -14 10
-23 -16 -27 -16 -41 -1 -26 25 -41 19 -17 -7z"/>
<path d="M1620 1805 c5 -14 9 -29 9 -33 -2 -14 14 -52 22 -52 13 0 20 18 9 25
-19 11 -11 56 10 62 11 3 20 9 20 14 0 14 -11 11 -32 -8 -17 -15 -18 -15 -18
0 0 10 -7 17 -15 17 -11 0 -12 -5 -5 -25z"/>
<path d="M1502 1795 c0 -16 2 -22 5 -12 2 9 2 23 0 30 -3 6 -5 -1 -5 -18z"/>
<path d="M1475 1801 c-3 -5 -2 -12 3 -15 5 -3 9 1 9 9 0 17 -3 19 -12 6z"/>
<path d="M1526 1777 c3 -10 9 -15 12 -12 3 3 0 11 -7 18 -10 9 -11 8 -5 -6z"/>
<path d="M1598 1743 c-10 -2 -18 -9 -18 -14 0 -14 16 -11 30 6 7 8 11 14 9 14
-2 -1 -12 -3 -21 -6z"/>
<path d="M201 1244 c-18 -23 -21 -41 -21 -116 0 -81 2 -91 25 -113 24 -25 26
-25 207 -25 101 0 193 3 206 6 36 10 52 54 52 144 0 73 -3 83 -25 105 -24 25
-25 25 -224 25 l-200 0 -20 -26z m376 6 c63 0 73 -17 73 -113 0 -128 1 -127
-182 -127 -119 0 -148 3 -141 13 5 6 22 45 36 85 20 54 23 72 13 72 -7 0 -19
-20 -26 -45 -7 -24 -16 -43 -19 -40 -4 2 -13 22 -21 44 -7 23 -19 41 -26 41
-10 0 -6 -19 12 -67 l26 -68 -22 -17 c-28 -22 -58 -23 -82 -1 -15 13 -18 32
-18 110 0 94 0 94 29 106 18 8 77 11 167 10 76 -1 158 -2 181 -3z"/>
<path d="M765 1160 c-4 -7 -1 -16 6 -21 17 -10 26 8 11 23 -6 6 -12 6 -17 -2z"/>
<path d="M810 1150 c0 -6 32 -10 75 -10 43 0 75 4 75 10 0 6 -32 10 -75 10
-43 0 -75 -4 -75 -10z"/>
<path d="M765 1110 c-8 -13 4 -32 16 -25 12 8 12 35 0 35 -6 0 -13 -4 -16 -10z"/>
<path d="M810 1100 c0 -6 32 -10 75 -10 43 0 75 4 75 10 0 6 -32 10 -75 10
-43 0 -75 -4 -75 -10z"/>
<path d="M2200 1386 c0 -83 -5 -91 -46 -65 -66 41 -90 4 -82 -126 5 -87 19
-100 75 -75 23 10 44 16 47 12 3 -3 6 -72 6 -154 l0 -148 1543 2 1542 3 0 300
0 300 -1543 3 -1542 2 0 -54z m3061 20 c1 -6 2 -132 3 -280 1 -244 0 -269 -16
-275 -13 -4 -2926 -7 -3010 -2 -14 1 -17 19 -20 146 -2 94 -7 148 -15 156 -9
9 -22 7 -55 -9 -49 -25 -57 -19 -59 44 -5 128 3 143 61 114 53 -27 62 -19 68
58 l4 59 1519 0 c1085 0 1519 -3 1520 -11z"/>
<path d="M3300 1287 c0 -38 -3 -67 -7 -65 -69 36 -86 39 -102 23 -23 -23 -23
-187 0 -211 15 -15 20 -14 63 4 l46 21 0 -75 0 -74 375 0 375 0 0 220 c0 169
-3 220 -12 221 -7 1 -176 2 -375 3 l-363 1 0 -68z m708 44 l22 -1 0 -200 0
-200 -355 0 -355 0 0 64 c0 81 -12 93 -64 65 -29 -15 -42 -17 -50 -9 -14 14
-18 148 -5 172 9 17 12 17 50 -3 54 -27 69 -15 69 56 0 30 4 55 10 57 8 2 601
2 678 -1z"/>
<path d="M3490 1210 c0 -5 18 -10 40 -10 l39 0 -24 -52 c-25 -54 -32 -98 -16
-98 5 0 14 21 21 48 6 26 20 61 31 78 10 17 19 34 19 38 0 3 -25 6 -55 6 -30
0 -55 -4 -55 -10z"/>
<path d="M3637 1202 c-22 -24 -22 -100 -1 -130 19 -27 55 -29 78 -3 16 18 20
43 17 98 -3 48 -62 70 -94 35z m69 -26 c17 -67 -20 -134 -52 -92 -16 23 -18
69 -4 97 15 27 48 24 56 -5z"/>
<path d="M3769 1204 c-19 -23 -21 -107 -3 -133 16 -23 44 -27 74 -11 26 14 35
79 16 124 -12 30 -20 36 -44 36 -16 0 -36 -7 -43 -16z m71 -39 c9 -45 -7 -95
-30 -95 -23 0 -28 8 -34 51 -5 50 9 81 36 77 16 -2 24 -12 28 -33z"/>
<path d="M4244 1351 c-2 -2 -4 -30 -4 -61 0 -31 -3 -59 -6 -63 -3 -3 -24 4
-46 15 -37 19 -41 20 -56 4 -25 -25 -24 -188 0 -213 17 -16 20 -16 53 0 20 9
40 17 45 17 6 0 10 -31 10 -70 l0 -70 440 0 440 0 0 223 0 222 -436 0 c-239 0
-437 -2 -440 -4z m844 -20 c9 -1 12 -48 12 -201 l0 -200 -420 0 -420 0 0 58
c0 33 -6 66 -13 76 -13 18 -15 18 -55 -5 -22 -13 -44 -20 -49 -16 -12 12 -13
158 -2 179 9 17 12 17 50 -3 54 -27 69 -15 69 56 0 42 4 54 17 57 14 2 770 2
811 -1z"/>
<path d="M4458 1209 c-23 -13 -23 -32 0 -25 15 5 17 -1 17 -52 0 -51 -2 -57
-22 -60 -45 -7 -22 -22 32 -22 30 0 55 5 55 10 0 6 -9 10 -20 10 -18 0 -20 7
-20 75 0 78 -5 86 -42 64z"/>
<path d="M4578 1209 c-10 -5 -18 -17 -18 -26 0 -14 2 -14 19 1 23 21 54 18 59
-7 2 -11 -6 -21 -25 -29 -26 -11 -26 -12 -6 -15 32 -6 49 -29 33 -48 -17 -20
-47 -19 -59 2 -5 10 -13 14 -17 10 -14 -13 11 -42 39 -45 38 -5 67 14 67 44 0
13 -7 27 -15 30 -13 5 -13 8 0 27 19 27 19 32 -1 51 -18 18 -51 20 -76 5z"/>
<path d="M4706 1198 c-9 -12 -16 -41 -16 -63 0 -49 23 -85 54 -85 43 0 62 40
57 117 -3 51 -67 71 -95 31z m70 -22 c17 -68 -20 -134 -52 -91 -16 21 -16 82
-1 103 16 20 46 14 53 -12z"/>
<path d="M4846 1207 c-21 -15 -29 -90 -13 -124 11 -25 47 -39 72 -29 34 13 47
105 19 144 -17 25 -51 29 -78 9z m59 -18 c11 -17 13 -83 3 -101 -13 -25 -45
-22 -54 5 -8 25 -7 83 1 97 8 13 42 13 50 -1z"/>
<path d="M2391 1256 c-20 -21 -38 -132 -20 -120 5 3 9 24 9 48 0 68 14 79 106
81 43 1 89 -1 101 -3 28 -5 45 -47 42 -105 -2 -26 1 -50 5 -54 5 -5 6 25 4 64
-5 101 -13 108 -133 109 -84 1 -96 -1 -114 -20z"/>
<path d="M2853 1232 c-23 -3 -34 -42 -13 -42 6 0 9 5 8 11 -2 6 3 14 10 16 9
4 12 -19 12 -91 0 -72 -3 -96 -13 -96 -10 0 -13 19 -11 75 0 41 -2 75 -6 75
-4 0 -8 -36 -9 -80 l-1 -80 42 1 c24 1 36 3 26 6 -24 6 -23 190 1 195 24 6
-18 15 -46 10z"/>
<path d="M2954 1229 c-3 -5 2 -9 10 -9 13 0 16 -16 16 -94 0 -82 -2 -95 -17
-99 -10 -3 0 -5 23 -6 l41 -1 -1 102 -1 102 -33 7 c-18 4 -35 3 -38 -2z m57
-31 c6 -126 3 -172 -10 -163 -11 6 -10 185 0 185 5 0 10 -10 10 -22z"/>
<path d="M2465 1170 c-10 -11 -13 -20 -8 -20 6 0 14 7 17 16 3 8 10 12 16 9 5
-3 10 -1 10 4 0 17 -15 13 -35 -9z"/>
<path d="M2510 1181 c0 -5 7 -11 15 -15 21 -8 19 -43 -4 -56 -23 -12 -51 -3
-51 16 0 8 -4 14 -9 14 -16 0 1 -40 18 -42 9 0 23 -2 31 -2 40 -4 56 65 20 84
-11 6 -20 7 -20 1z"/>
<path d="M2367 1083 c2 -21 11 -45 20 -53 14 -14 14 -13 4 7 -6 12 -11 35 -11
52 0 17 -4 31 -9 31 -4 0 -6 -17 -4 -37z"/>
<path d="M2614 1044 c-11 -16 -30 -26 -46 -27 -16 -1 -28 -6 -28 -11 0 -16 62
4 81 26 17 19 25 38 16 38 -2 0 -12 -12 -23 -26z"/>
<path d="M2416 1009 c3 -5 14 -9 25 -9 10 0 19 4 19 9 0 5 -11 9 -25 9 -13 0
-22 -4 -19 -9z"/>
<path d="M2470 1010 c0 -5 14 -8 30 -8 17 1 30 4 30 7 0 3 -13 7 -30 7 -16 1
-30 -2 -30 -6z"/>
<path d="M5780 1377 c0 -35 -2 -66 -6 -69 -3 -3 -22 4 -43 15 -32 18 -41 19
-54 8 -32 -26 -33 -175 -3 -217 13 -17 15 -16 55 4 23 12 44 22 46 22 3 0 5
-70 5 -155 l0 -155 1545 0 1545 0 0 305 0 305 -1545 0 -1545 0 0 -63z m3070
-244 c0 -156 -3 -283 -7 -284 -28 -3 -3021 -4 -3030 -1 -10 3 -13 40 -13 142
0 76 -3 145 -6 154 -8 20 -38 21 -53 2 -6 -8 -21 -16 -32 -19 -28 -7 -37 22
-36 105 2 85 14 98 62 68 49 -30 65 -16 65 60 l0 57 1525 0 1525 0 0 -284z"/>
<path d="M6897 1348 c-6 -4 -11 -31 -12 -62 0 -30 -3 -58 -7 -61 -3 -3 -21 3
-40 15 -20 11 -43 18 -51 14 -39 -15 -40 -213 -1 -228 8 -3 33 3 55 14 44 23
40 30 44 -70 l2 -55 442 -3 441 -2 0 220 c0 121 -3 221 -7 221 -32 5 -857 3
-866 -3z m826 -17 l27 -1 0 -200 0 -200 -421 2 -422 3 -3 64 c-2 35 -7 68 -13
74 -6 6 -24 1 -51 -14 -44 -25 -58 -19 -61 26 -5 79 -4 103 4 128 5 15 11 27
13 27 3 0 23 -10 44 -22 50 -29 62 -18 64 54 1 31 6 55 13 58 10 4 685 5 806
1z"/>
<path d="M7086 1204 c-22 -21 -9 -40 13 -20 21 19 51 21 52 4 3 -27 -3 -37
-41 -76 -22 -22 -40 -45 -40 -51 0 -7 21 -11 55 -11 30 0 55 5 55 10 0 6 -19
10 -41 10 l-42 0 42 45 c22 24 41 53 41 64 0 38 -65 55 -94 25z"/>
<path d="M7216 1198 c-30 -42 -15 -131 23 -143 52 -16 87 32 77 101 -10 63
-69 87 -100 42z m69 -10 c10 -30 11 -75 2 -95 -11 -24 -41 -31 -52 -12 -11 17
-13 83 -3 102 10 20 47 23 53 5z"/>
<path d="M7356 1201 c-12 -13 -18 -36 -18 -66 0 -53 22 -85 58 -85 31 0 54 36
54 85 0 74 -53 111 -94 66z m62 -13 c17 -17 15 -80 -2 -104 -32 -42 -69 25
-52 92 7 26 34 32 54 12z"/>
<path d="M7486 1198 c-9 -12 -16 -41 -16 -63 0 -49 23 -85 54 -85 42 0 61 39
57 117 -2 50 -67 71 -95 31z m68 -14 c3 -9 6 -31 6 -49 0 -46 -9 -65 -31 -65
-34 0 -49 53 -29 104 11 29 44 35 54 10z"/>
<path d="M7964 1351 c-2 -2 -4 -30 -4 -61 0 -31 -3 -59 -6 -63 -3 -3 -24 4
-46 15 -58 30 -72 13 -76 -95 -3 -70 -1 -86 15 -106 19 -24 21 -24 53 -8 56
28 60 25 60 -53 l0 -70 374 0 374 0 0 220 c0 121 -3 221 -7 221 -18 4 -733 4
-737 0z m712 -20 c7 -1 11 -64 11 -201 l0 -200 -354 0 -353 0 0 58 c0 33 -6
66 -13 77 -13 17 -15 17 -55 -5 -23 -13 -45 -20 -49 -16 -14 14 -16 165 -3
181 10 12 17 12 53 -6 39 -20 41 -21 54 -3 7 10 13 41 13 68 l0 51 342 -2
c189 -1 348 -2 354 -2z"/>
<path d="M8164 1198 c-19 -21 -19 -21 4 -16 21 6 22 3 22 -53 0 -52 -2 -59
-20 -59 -11 0 -20 -4 -20 -10 0 -13 97 -13 105 -1 3 5 -5 11 -17 13 -21 3 -23
9 -24 63 -1 33 -2 66 -3 73 -2 19 -26 14 -47 -10z"/>
<path d="M8303 1212 c-28 -18 -35 -74 -17 -134 6 -20 45 -33 69 -24 35 13 45
115 15 151 -13 16 -47 19 -67 7z m55 -29 c9 -19 8 -72 -2 -98 -7 -20 -42 -19
-50 1 -8 21 -8 99 1 107 12 13 42 7 51 -10z"/>
<path d="M8426 1198 c-9 -12 -16 -41 -16 -63 0 -49 23 -85 54 -85 43 0 62 40
57 117 -3 51 -67 71 -95 31z m68 -14 c3 -9 6 -31 6 -49 0 -46 -9 -65 -31 -65
-34 0 -49 53 -29 104 11 29 44 35 54 10z"/>
<path d="M5993 1265 c-17 -7 -33 -22 -36 -32 -8 -32 -7 -73 2 -73 4 0 7 11 6
25 -8 65 24 82 142 79 63 -1 75 -5 93 -25 10 -13 19 -19 20 -13 0 6 -9 19 -19
28 -26 24 -162 31 -208 11z"/>
<path d="M6422 1221 c-6 -13 -8 -127 -3 -188 1 -8 15 -13 39 -12 20 0 31 3 25
6 -9 3 -13 33 -13 98 0 66 4 95 13 98 6 2 -3 6 -21 9 -24 3 -35 0 -40 -11z
m29 -8 c1 -5 2 -47 3 -95 1 -65 -2 -88 -11 -88 -10 0 -13 25 -13 95 0 57 4 95
10 95 6 0 11 -3 11 -7z"/>
<path d="M6556 1230 c-16 -5 -17 -8 -5 -12 12 -5 15 -25 14 -93 0 -78 -2 -89
-20 -96 -15 -6 -9 -8 23 -8 l42 -1 0 104 c0 91 -2 104 -18 108 -9 3 -26 2 -36
-2z m44 -105 c0 -57 -4 -95 -10 -95 -6 0 -10 38 -10 95 0 57 4 95 10 95 6 0
10 -38 10 -95z"/>
<path d="M6213 1170 c0 -22 3 -38 6 -34 8 8 9 64 1 69 -4 2 -7 -14 -7 -35z"/>
<path d="M6049 1174 c-12 -14 -11 -16 5 -13 11 2 21 10 24 17 5 17 -13 15 -29
-4z"/>
<path d="M6105 1172 c30 -25 30 -50 0 -64 -19 -9 -28 -9 -37 0 -7 7 -17 12
-22 12 -18 -1 26 -30 44 -30 20 0 50 31 50 52 0 16 -31 48 -46 48 -5 -1 0 -8
11 -18z"/>
<path d="M5953 1096 c3 -33 11 -65 20 -73 17 -17 77 -28 77 -14 0 5 -8 8 -17
8 -56 0 -66 13 -68 85 -1 21 -5 41 -9 45 -4 5 -6 -18 -3 -51z"/>
<path d="M6210 1089 c0 -41 -16 -69 -40 -69 -11 0 -20 -4 -20 -10 0 -16 17
-11 44 13 24 22 44 97 25 97 -5 0 -9 -14 -9 -31z"/>
<path d="M6060 1008 c0 -4 9 -8 20 -8 11 0 20 4 20 8 0 4 -9 8 -20 8 -11 0
-20 -4 -20 -8z"/>
<path d="M6110 1010 c0 -5 7 -10 16 -10 8 0 12 5 9 10 -3 6 -10 10 -16 10 -5
0 -9 -4 -9 -10z"/>
<path d="M9344 1351 c-2 -2 -4 -33 -4 -68 0 -34 -2 -63 -5 -63 -2 0 -23 10
-45 21 -39 20 -43 21 -58 5 -25 -25 -24 -188 1 -213 17 -17 19 -17 57 3 21 12
41 19 44 16 4 -3 6 -36 6 -74 l0 -68 240 0 240 0 0 223 0 222 -236 0 c-129 0
-237 -2 -240 -4z m454 -219 l2 -202 -220 0 -220 0 0 64 c0 84 -14 96 -69 65
-23 -12 -44 -19 -48 -15 -13 13 -16 152 -4 175 l12 21 40 -21 c54 -27 69 -15
69 56 0 28 2 54 4 56 2 2 100 4 218 3 l213 -1 3 -201z"/>
<path d="M9558 1206 c-23 -17 -23 -29 0 -22 15 5 17 -1 17 -52 0 -51 -2 -57
-22 -60 -45 -7 -22 -22 32 -22 30 0 55 5 55 10 0 6 -9 10 -20 10 -18 0 -20 7
-21 58 -1 31 -1 65 0 75 3 20 -17 22 -41 3z"/>
<path d="M10370 1294 c0 -33 -3 -63 -6 -67 -3 -3 -24 4 -46 15 -58 30 -72 13
-76 -95 -3 -70 -1 -86 15 -106 19 -24 21 -24 53 -8 56 28 60 25 60 -53 l0 -70
340 0 340 0 0 220 c0 121 -3 221 -7 221 -5 1 -158 2 -340 3 l-333 1 0 -61z
m633 37 l27 -1 0 -200 0 -200 -320 0 -320 0 0 58 c0 33 -6 66 -14 77 -13 18
-14 18 -50 -4 -53 -33 -66 -18 -66 73 0 87 17 121 47 95 52 -47 83 -27 83 55
0 24 5 46 10 48 8 2 511 2 603 -1z"/>
<path d="M10570 1205 c-30 -36 -20 -138 15 -151 51 -20 93 38 79 111 -9 50
-65 75 -94 40z m66 -35 c4 -16 6 -32 6 -35 0 -35 -14 -65 -31 -65 -24 0 -29 8
-35 51 -5 46 9 79 34 79 15 0 22 -8 26 -30z"/>
<path d="M10772 1208 c-14 -14 -16 -38 -3 -38 5 0 12 7 15 16 8 20 50 15 54
-7 2 -9 -17 -37 -43 -62 -25 -25 -45 -50 -45 -56 0 -7 24 -11 61 -11 37 0 58
4 54 10 -3 6 -25 10 -48 10 l-42 0 43 40 c43 40 54 74 30 98 -15 15 -61 15
-76 0z"/>
<path d="M10706 1071 c-4 -7 -5 -15 -2 -18 9 -9 19 4 14 18 -4 11 -6 11 -12 0z"/>
<path d="M11598 1349 c-5 -3 -9 -17 -8 -30 1 -13 2 -41 1 -62 l-1 -37 -39 20
c-49 25 -68 18 -81 -28 -19 -71 -5 -174 26 -186 8 -3 33 3 55 14 45 23 41 29
42 -72 l0 -58 241 0 242 0 -2 218 c-1 119 -2 219 -3 222 -2 7 -461 6 -473 -1z
m448 -22 c5 -3 9 -90 9 -199 l0 -193 -220 0 -220 0 -1 30 c-5 121 -8 126 -64
96 -29 -15 -46 -19 -53 -12 -16 16 -17 157 -2 177 11 16 14 16 47 -4 41 -26
68 -20 69 14 0 13 1 39 2 57 0 23 6 33 19 37 26 7 403 5 414 -3z"/>
<path d="M11808 1206 c-10 -7 -18 -19 -18 -26 0 -10 3 -10 15 0 19 16 24 2 22
-60 -2 -39 -5 -45 -25 -48 -12 -2 -20 -8 -17 -13 8 -12 105 -12 105 1 0 6 -9
10 -20 10 -18 0 -20 7 -20 75 0 78 -7 88 -42 61z"/>
<path d="M12624 1351 c-2 -2 -4 -30 -4 -61 0 -31 -3 -59 -6 -63 -3 -3 -24 4
-46 15 -37 19 -41 20 -56 4 -13 -13 -17 -36 -17 -106 0 -70 4 -93 17 -106 15
-16 19 -15 56 4 22 11 43 18 46 15 3 -4 6 -37 6 -75 l0 -68 240 0 240 0 -2
222 -3 223 -233 0 c-128 0 -235 -2 -238 -4z m439 -20 c16 -1 17 -18 17 -201
l0 -200 -220 0 -220 0 0 58 c0 32 -6 66 -13 76 -13 17 -15 17 -56 -4 -24 -12
-46 -19 -49 -15 -12 12 -14 152 -2 174 l11 22 40 -23 c40 -22 41 -22 55 -3 8
10 14 40 14 65 0 26 2 49 4 51 4 3 354 3 419 0z"/>
<path d="M12814 1195 c-19 -29 -15 -104 6 -130 16 -19 50 -19 75 -1 15 11 19
26 19 71 0 45 -4 60 -19 71 -29 22 -63 17 -81 -11z m76 -25 c3 -14 3 -41 0
-60 -4 -27 -11 -36 -28 -38 -12 -2 -24 3 -27 10 -22 62 -8 121 27 116 14 -2
24 -12 28 -28z"/>
<path d="M1870 1126 l0 -106 25 0 c26 0 34 15 13 22 -9 3 -13 32 -13 93 0 61
-4 90 -13 93 -9 3 -12 -22 -12 -102z"/>
<path d="M5459 1215 c0 -8 -1 -44 -1 -80 0 -112 2 -126 12 -120 6 3 10 48 10
101 0 77 3 94 15 94 8 0 15 5 15 10 0 17 -50 12 -51 -5z"/>
<path d="M9068 1180 c-7 -16 -20 -30 -28 -30 -12 0 -12 -2 -1 -9 7 -5 11 -17
8 -27 -3 -11 -11 -38 -17 -61 -8 -31 -15 -41 -25 -37 -8 4 -15 1 -15 -5 0 -19
29 -12 44 12 8 12 20 43 27 70 8 32 17 47 28 47 13 0 13 2 3 9 -19 12 -10 46
11 45 9 -1 17 2 17 7 0 23 -39 7 -52 -21z"/>
<path d="M10042 1174 c-16 -11 -22 -25 -22 -54 0 -29 -6 -43 -22 -56 -23 -16
-22 -16 16 -10 50 7 55 12 60 64 2 24 6 45 7 46 2 2 13 8 24 14 18 10 17 11
-10 12 -17 0 -41 -7 -53 -16z m22 -41 c-7 -56 -11 -63 -28 -63 -27 0 4 108 32
110 1 0 0 -21 -4 -47z"/>
<path d="M12290 1165 c0 -20 -5 -25 -25 -25 -14 0 -25 -4 -25 -10 0 -5 11 -10
25 -10 20 0 25 -5 25 -25 0 -14 5 -25 10 -25 6 0 10 11 10 25 0 20 5 25 26 25
14 0 23 4 19 10 -3 6 -15 10 -26 10 -14 0 -19 7 -19 25 0 14 -4 25 -10 25 -5
0 -10 -11 -10 -25z"/>
<path d="M11230 1161 c5 -11 15 -21 21 -23 6 -2 2 -13 -10 -27 -25 -29 -19
-41 8 -17 18 17 21 17 45 1 29 -20 34 -11 9 17 -15 17 -15 19 2 38 24 26 11
39 -15 15 -19 -17 -21 -17 -38 -2 -25 23 -35 21 -22 -2z"/>
<path d="M1616 1115 c9 -25 14 -56 10 -68 -5 -21 -4 -21 14 3 10 13 15 27 11
30 -4 3 -12 20 -17 39 -5 19 -15 36 -21 38 -9 3 -8 -9 3 -42z"/>
<path d="M1667 1153 c-3 -5 -1 -17 4 -28 7 -17 8 -17 8 8 1 27 -4 34 -12 20z"/>
<path d="M1502 1125 c0 -16 2 -22 5 -12 2 9 2 23 0 30 -3 6 -5 -1 -5 -18z"/>
<path d="M1467 1127 c-3 -8 1 -14 8 -14 7 0 11 6 8 14 -3 7 -6 13 -8 13 -2 0
-5 -6 -8 -13z"/>
<path d="M1525 1121 c-3 -5 -2 -12 3 -15 5 -3 9 1 9 9 0 17 -3 19 -12 6z"/>
<path d="M1580 1010 c0 -5 4 -10 9 -10 6 0 13 5 16 10 3 6 -1 10 -9 10 -9 0
-16 -4 -16 -10z"/>
<path d="M299 515 c-6 -6 -1 -116 5 -123 6 -5 114 36 134 51 21 16 14 23 -56
50 -72 29 -76 30 -83 22z m90 -50 c23 -12 23 -12 -18 -28 -23 -10 -44 -17 -46
-17 -3 0 -5 16 -5 36 0 32 2 35 23 28 12 -3 33 -12 46 -19z"/>
<path d="M1794 681 c-2 -2 -4 -33 -4 -68 0 -36 -3 -63 -7 -61 -5 2 -26 12 -47
22 -38 17 -41 17 -53 1 -29 -40 -28 -171 2 -211 13 -18 15 -18 59 3 l46 23 1
-43 c1 -23 0 -57 -1 -75 l-2 -32 331 0 331 0 -2 223 -3 222 -323 0 c-178 0
-325 -2 -328 -4z m614 -20 l22 -1 0 -200 0 -200 -310 0 -310 0 0 63 c0 88 -8
97 -60 68 -32 -18 -45 -20 -53 -12 -15 15 -16 166 -1 181 7 7 23 4 52 -12 52
-28 62 -19 62 59 0 49 1 52 28 55 24 3 514 2 570 -1z"/>
<path d="M1906 584 c-27 -26 -32 -46 -31 -119 2 -93 10 -119 40 -133 27 -12
360 -17 402 -6 35 10 49 52 47 150 -2 127 4 124 -244 124 -168 0 -201 -2 -214
-16z m428 -26 c10 -17 14 -47 12 -107 -2 -69 -5 -86 -21 -97 -27 -20 -383 -20
-410 0 -17 12 -19 27 -19 104 0 60 5 96 13 106 11 14 43 16 212 16 195 0 199
0 213 -22z"/>
<path d="M1993 503 c-7 -2 -13 -15 -13 -29 0 -18 7 -25 28 -30 33 -8 54 -23
46 -35 -8 -13 -48 -11 -62 3 -9 9 -12 8 -12 -4 0 -29 68 -39 90 -13 18 22 3
53 -30 60 -17 4 -33 11 -36 17 -10 15 17 28 37 17 28 -15 44 -12 29 6 -12 14
-52 19 -77 8z"/>
<path d="M2974 681 c-2 -2 -4 -33 -4 -68 0 -36 -3 -63 -7 -61 -5 2 -25 12 -46
23 -35 18 -38 18 -55 2 -25 -26 -25 -188 0 -214 17 -16 20 -16 63 5 l45 22 0
-75 0 -75 329 0 328 0 0 220 c0 121 -2 221 -6 221 -18 4 -643 4 -647 0z m631
-219 l1 -202 -308 0 -308 0 0 64 c0 83 -15 97 -65 66 -28 -17 -39 -20 -48 -11
-15 15 -16 166 -1 181 7 7 23 4 52 -12 52 -28 62 -19 62 59 0 28 4 53 10 55 5
2 144 3 307 2 l298 -1 0 -201z"/>
<path d="M3080 582 c-19 -16 -22 -29 -24 -105 -3 -96 11 -141 47 -151 12 -3
104 -6 204 -6 175 0 183 1 207 23 23 20 25 30 26 102 2 112 2 109 -20 133 -20
21 -28 22 -219 22 -176 0 -201 -2 -221 -18z m429 -16 c10 -10 14 -36 14 -83
-1 -149 7 -143 -178 -143 l-144 0 26 68 c36 95 39 106 22 100 -7 -2 -17 -20
-22 -39 -13 -53 -22 -54 -41 -4 -10 25 -22 45 -28 45 -11 0 -9 -13 18 -81 22
-58 15 -76 -31 -85 -55 -10 -68 9 -72 103 -1 48 2 88 10 103 12 23 19 25 97
30 153 9 312 2 329 -14z"/>
<path d="M4240 682 c-5 -2 -10 -33 -10 -69 0 -35 -3 -63 -7 -61 -5 2 -25 12
-46 23 -35 18 -38 18 -55 2 -14 -14 -17 -36 -17 -107 0 -71 3 -93 17 -107 17
-16 20 -16 53 0 20 9 40 17 45 17 6 0 10 -31 10 -70 l0 -70 475 0 475 0 -2
223 -3 222 -462 0 c-254 0 -467 -1 -473 -3z m918 -220 l2 -202 -455 0 -455 0
0 64 c0 83 -14 96 -69 64 -22 -12 -43 -19 -47 -15 -15 14 -16 161 -2 180 13
17 15 17 56 -5 52 -28 62 -19 62 59 0 28 5 53 10 55 6 2 209 3 453 3 l442 0 3
-203z"/>
<path d="M4436 535 c-9 -9 -17 -22 -17 -28 -10 -83 8 -127 50 -127 16 0 34 7
41 15 18 22 23 96 8 125 -16 30 -59 38 -82 15z m59 -16 c12 -18 13 -83 3 -102
-6 -11 -18 -17 -31 -15 -19 3 -22 10 -25 52 -2 27 -1 55 2 62 6 17 42 19 51 3z"/>
<path d="M4629 528 c-29 -53 -13 -134 27 -144 13 -3 31 -4 39 0 34 13 47 105
19 144 -21 30 -69 30 -85 0z m71 -17 c11 -21 4 -90 -10 -104 -4 -5 -16 -7 -26
-5 -15 2 -20 14 -22 52 -2 27 -1 55 2 62 8 21 44 17 56 -5z"/>
<path d="M4772 541 c-31 -19 -31 -133 0 -152 44 -29 88 9 88 76 0 67 -44 105
-88 76z m56 -23 c15 -15 16 -72 2 -99 -13 -23 -46 -25 -54 -3 -18 47 -1 114
29 114 6 0 16 -5 23 -12z"/>
<path d="M4889 533 c-1 -10 -3 -31 -5 -47 -3 -27 -2 -28 30 -22 39 7 61 -12
51 -44 -7 -22 -44 -27 -63 -8 -17 17 -28 2 -12 -17 15 -19 60 -20 84 -2 42 31
9 103 -41 94 -19 -3 -23 0 -23 19 0 21 5 24 35 24 19 0 35 5 35 10 0 6 -20 10
-45 10 -36 0 -45 -4 -46 -17z"/>
<path d="M4560 395 c0 -8 5 -15 10 -15 6 0 10 7 10 15 0 8 -4 15 -10 15 -5 0
-10 -7 -10 -15z"/>
<path d="M5784 681 c-2 -2 -4 -33 -4 -68 0 -34 -2 -63 -4 -63 -3 0 -20 9 -39
20 -19 11 -42 18 -50 14 -32 -12 -47 -114 -26 -187 13 -48 27 -53 78 -27 l41
20 0 -75 0 -75 330 0 330 0 0 220 c0 121 -3 221 -7 221 -24 4 -645 4 -649 0z
m624 -20 c9 -1 12 -48 12 -201 l0 -200 -310 0 -310 0 0 64 c0 83 -15 97 -65
66 -28 -17 -39 -20 -48 -11 -15 15 -16 166 -1 181 7 7 23 4 52 -12 52 -28 62
-19 62 59 0 46 2 52 23 55 18 2 539 1 585 -1z"/>
<path d="M5892 580 c-23 -22 -24 -25 -25 -139 0 -69 2 -76 27 -98 26 -22 33
-23 209 -23 100 0 192 3 204 6 41 11 53 68 44 211 0 12 -11 31 -23 43 -20 19
-34 20 -218 20 -184 0 -198 -1 -218 -20z m430 -17 c18 -23 19 -177 1 -203 -13
-19 -25 -20 -207 -20 -239 0 -234 -3 -232 123 1 53 6 90 15 100 10 13 37 17
124 19 187 5 284 -1 299 -19z"/>
<path d="M5970 504 c0 -3 7 -18 16 -34 16 -26 16 -29 -5 -59 -16 -23 -19 -31
-8 -31 7 0 20 11 27 25 l14 26 22 -28 c30 -37 42 -23 14 16 l-21 31 20 27 c12
14 19 29 15 32 -3 3 -15 -5 -26 -19 l-20 -25 -15 23 c-14 20 -33 30 -33 16z"/>
<path d="M6985 681 c-3 -2 -5 -33 -5 -68 0 -36 -3 -63 -7 -61 -69 36 -86 39
-102 23 -24 -24 -23 -187 2 -212 17 -17 19 -17 57 3 21 12 41 19 44 16 4 -3 6
-36 6 -74 l0 -68 240 0 240 0 0 223 0 222 -235 0 c-130 1 -238 -1 -240 -4z
m450 -23 c4 -3 7 -94 8 -202 l2 -196 -222 0 -223 0 0 64 c0 83 -15 97 -65 66
-50 -31 -60 -18 -60 80 0 97 9 109 59 79 50 -29 66 -15 66 60 l0 56 215 -1
c118 0 217 -3 220 -6z"/>
<path d="M7198 539 c-22 -12 -24 -33 -3 -25 17 6 17 8 19 -61 2 -49 1 -53 -21
-53 -13 0 -23 -4 -23 -10 0 -5 25 -10 55 -10 30 0 55 5 55 10 0 6 -9 10 -20
10 -18 0 -20 7 -20 75 0 78 -5 86 -42 64z"/>
<path d="M8009 675 c-1 -5 -2 -32 -4 -60 -1 -27 -3 -53 -4 -58 0 -4 -20 2 -42
14 -37 19 -43 19 -57 6 -29 -30 -32 -166 -5 -212 11 -20 12 -20 56 2 53 26 54
24 53 -69 l-1 -58 243 0 242 0 -2 222 -3 223 -237 0 c-159 1 -238 -3 -239 -10z
m449 -14 c9 -1 12 -48 12 -201 l0 -200 -222 0 -223 0 -1 65 c-1 84 -10 94 -63
64 -22 -12 -44 -19 -48 -16 -18 19 -19 174 -1 193 4 3 24 -5 47 -18 51 -29 63
-19 65 54 0 31 6 55 13 58 10 4 373 5 421 1z"/>
<path d="M8206 528 c-9 -12 -16 -41 -16 -63 0 -49 23 -85 55 -85 28 0 55 24
56 51 4 62 0 86 -17 103 -22 23 -60 20 -78 -6z m68 -14 c3 -9 6 -31 6 -49 0
-18 -3 -40 -6 -49 -8 -22 -41 -20 -54 3 -23 43 -5 111 29 111 11 0 22 -7 25
-16z"/>
<path d="M1169 538 c-3 -56 4 -174 11 -178 16 -10 128 2 132 13 2 7 0 50 -3
97 -3 53 -6 67 -7 38 l-2 -48 -20 20 c-26 26 -55 25 -81 -1 l-22 -22 5 47 c3
25 2 46 -3 46 -5 0 -9 -6 -10 -12z m98 -56 c15 -10 33 -57 33 -88 0 -23 -3
-24 -60 -24 -67 0 -71 6 -48 71 16 46 43 61 75 41z"/>
<path d="M1277 415 c-8 -18 -57 -20 -77 -2 -12 10 -12 9 -1 -5 17 -22 64 -23
81 -3 7 9 11 18 8 21 -3 3 -8 -2 -11 -11z"/>
<path d="M1206 541 c7 -8 84 -9 84 -2 0 4 -20 7 -44 7 -25 0 -43 -3 -40 -5z"/>
<path d="M3880 510 c0 -5 8 -10 17 -10 12 0 2 -15 -32 -50 -27 -27 -46 -53
-42 -57 4 -4 30 15 57 42 35 34 50 44 50 32 0 -9 5 -17 10 -17 6 0 10 16 10
35 0 33 -2 35 -35 35 -19 0 -35 -4 -35 -10z"/>
<path d="M5370 511 c0 -5 20 -28 45 -52 44 -42 44 -44 22 -53 l-22 -9 25 -7
c43 -11 60 -1 60 36 0 19 -4 34 -10 34 -5 0 -10 -8 -10 -17 0 -12 -14 -3 -48
30 -47 46 -62 56 -62 38z"/>
<path d="M7675 495 c3 -21 -1 -25 -21 -25 -13 0 -24 -4 -24 -10 0 -5 11 -10
25 -10 15 0 25 -5 24 -12 -3 -24 1 -38 10 -38 5 0 8 11 6 25 -2 20 2 25 21 25
13 0 24 5 24 10 0 6 -12 10 -26 10 -14 0 -23 4 -20 9 7 11 -3 41 -14 41 -4 0
-6 -11 -5 -25z"/>
<path d="M2602 499 c3 -8 14 -38 24 -67 22 -61 38 -64 65 -12 23 42 25 90 4
90 -8 0 -12 -6 -9 -15 7 -16 -14 -85 -25 -85 -4 0 -14 21 -22 47 -8 26 -20 49
-28 51 -9 3 -12 0 -9 -9z"/>
<path d="M6610 503 c0 -3 7 -15 17 -25 15 -17 15 -19 -2 -38 -24 -26 -11 -39
15 -15 19 17 21 17 40 0 26 -24 39 -11 15 15 -17 19 -17 21 0 40 24 26 11 39
-15 15 -19 -17 -21 -17 -38 -2 -19 18 -32 22 -32 10z"/>
<path d="M1495 451 c-6 -11 9 -23 19 -14 9 9 7 23 -3 23 -6 0 -12 -4 -16 -9z"/>
<path d="M1084 431 c3 -5 -17 -9 -45 -9 -28 -1 -54 -3 -57 -6 -3 -3 20 -6 52
-6 36 0 55 -4 51 -10 -9 -14 8 -13 23 2 8 8 9 15 1 25 -13 15 -33 18 -25 4z"/>
</g>
</svg>
