<?xml version="1.0" standalone="no"?>
<!DOCTYPE svg PUBLIC "-//W3C//DTD SVG 20010904//EN"
 "http://www.w3.org/TR/2001/REC-SVG-20010904/DTD/svg10.dtd">
<svg version="1.0" xmlns="http://www.w3.org/2000/svg"
 width="1324.000000pt" height="231.000000pt" viewBox="0 0 1324.000000 231.000000"
 preserveAspectRatio="xMidYMid meet">
<metadata>
Created by potrace 1.16, written by Peter Selinger 2001-2019
</metadata>
<g transform="translate(0.000000,231.000000) scale(0.100000,-0.100000)"
fill="#000000" stroke="none">
<path d="M453 2106 c-52 -18 -129 -93 -149 -145 -16 -40 -18 -84 -20 -336 -1
-159 -3 -292 -4 -295 -1 -3 -1 -9 0 -15 7 -26 4 -457 -3 -462 -4 -2 -4 -9 -1
-15 4 -6 8 -101 9 -212 2 -221 6 -242 65 -310 18 -20 52 -47 74 -59 l41 -22
3136 -3 3135 -2 0 555 0 555 -1647 0 -1647 0 -4 48 c-1 26 -1 70 2 97 3 28 3
78 0 113 -3 34 -2 62 3 62 4 0 5 4 2 10 -8 12 -8 416 -1 429 3 5 -1 12 -10 15
-9 3 -516 6 -1128 6 l-1111 0 -54 -35 c-29 -19 -57 -35 -62 -35 -5 0 -9 -4 -9
-8 0 -16 -60 -42 -97 -42 -31 0 -56 12 -127 60 l-88 61 -136 -2 c-76 -1 -151
-7 -169 -13z m382 -76 c80 -53 96 -60 140 -60 44 0 60 7 140 60 l90 60 1102 0
1101 0 0 -375 1 -375 -1110 0 -1110 0 -89 -60 c-120 -80 -137 -80 -252 0 l-86
60 -223 2 -224 3 0 260 c-1 143 3 280 7 305 12 65 54 120 115 151 48 25 63 27
180 28 l128 1 90 -60z m0 -780 c80 -53 96 -60 140 -60 44 0 60 7 140 60 l90
60 143 0 142 0 0 -92 c0 -127 -4 -131 -80 -90 -79 44 -108 41 -135 -13 -17
-34 -20 -60 -20 -165 0 -105 3 -131 20 -165 27 -53 58 -57 131 -15 31 17 62
29 70 26 12 -4 14 -53 14 -271 l0 -265 -497 0 -498 0 -51 24 c-52 24 -93 67
-115 121 -9 22 -13 145 -14 468 l-2 437 216 0 216 0 90 -60z m5870 -465 l1
-525 -2592 0 -2591 0 -1 250 c0 137 -3 264 -7 281 -11 49 -40 53 -112 13 -34
-19 -68 -34 -76 -34 -27 0 -41 60 -41 175 -1 122 14 185 44 185 9 0 43 -15 74
-34 93 -56 116 -34 118 117 l1 97 2591 0 2591 0 0 -525z"/>
<path d="M1662 1863 c5 -26 38 -29 38 -4 0 15 -6 21 -21 21 -14 0 -19 -5 -17
-17z"/>
<path d="M1909 1858 c-1 -13 -1 -38 0 -57 3 -33 3 -33 -20 -17 -45 31 -111 13
-129 -37 -15 -43 -12 -113 5 -147 20 -38 75 -50 116 -26 26 15 29 15 29 2 0
-9 8 -16 18 -16 16 0 17 13 16 153 -2 180 0 167 -19 167 -8 0 -16 -10 -16 -22z
m-33 -96 c6 -4 15 -16 21 -27 9 -18 9 -32 4 -97 -2 -25 -29 -48 -56 -48 -33 0
-55 36 -55 90 0 70 43 111 86 82z"/>
<path d="M2396 1864 c-9 -8 -16 -26 -16 -40 0 -15 -6 -24 -15 -24 -8 0 -15 -7
-15 -15 0 -8 7 -15 15 -15 12 0 15 -18 15 -105 0 -98 1 -105 20 -105 19 0 20
7 20 104 0 100 1 105 22 108 32 5 35 28 4 28 -36 0 -36 37 0 50 14 6 22 14 19
20 -9 15 -52 12 -69 -6z"/>
<path d="M2494 1864 c3 -9 6 -18 6 -20 0 -11 29 -2 33 10 7 18 -1 26 -26 26
-13 0 -17 -5 -13 -16z"/>
<path d="M2592 1720 c-1 -151 0 -160 19 -160 18 0 19 9 19 160 0 151 -1 160
-19 160 -18 0 -19 -9 -19 -160z"/>
<path d="M623 1838 c-11 -53 -9 -63 15 -66 16 -3 22 2 22 16 0 11 -6 22 -12
24 -10 4 -10 10 -1 31 11 23 10 27 -2 27 -9 0 -18 -13 -22 -32z"/>
<path d="M696 1854 c-3 -9 -6 -31 -6 -50 0 -27 4 -34 20 -34 22 0 29 35 8 42
-10 4 -10 10 -1 31 10 22 10 27 -1 27 -8 0 -17 -7 -20 -16z"/>
<path d="M1141 1852 c-19 -10 -43 -34 -53 -53 -22 -41 -24 -119 -3 -163 31
-64 131 -94 208 -62 51 21 63 38 62 92 l-1 49 -62 3 c-55 3 -62 1 -62 -16 0
-15 7 -19 33 -17 46 2 57 -4 55 -32 -3 -31 -34 -53 -80 -57 -83 -8 -134 48
-125 137 6 63 38 98 93 102 41 2 89 -16 96 -36 2 -7 12 -9 27 -4 22 7 22 7 4
27 -45 50 -130 63 -192 30z"/>
<path d="M1419 1796 c-3 -3 -4 -49 -3 -103 3 -87 5 -100 25 -115 26 -22 67
-23 97 -2 20 14 27 12 23 -9 -1 -5 8 -7 20 -5 23 3 22 -10 20 183 -1 46 -4 55
-19 55 -16 0 -19 -10 -20 -86 -1 -93 -15 -124 -56 -124 -44 0 -50 13 -51 112
-1 74 -4 93 -16 96 -8 1 -17 0 -20 -2z"/>
<path d="M1660 1680 c0 -113 1 -120 20 -120 19 0 20 7 20 120 0 113 -1 120
-20 120 -19 0 -20 -7 -20 -120z"/>
<path d="M2055 1791 c-32 -14 -53 -43 -58 -84 -11 -85 32 -147 103 -147 36 0
90 30 90 51 0 14 -30 11 -46 -6 -34 -33 -97 -9 -106 40 -3 18 3 20 80 23 92 3
96 8 67 77 -19 48 -76 68 -130 46z m89 -43 c28 -40 21 -48 -44 -48 -49 0 -60
3 -60 17 0 49 76 72 104 31z"/>
<path d="M2495 1680 c0 -108 1 -120 17 -120 21 0 20 -9 21 128 1 99 -1 107
-19 110 -18 3 -19 -4 -19 -118z"/>
<path d="M2731 1786 c-52 -29 -68 -123 -31 -183 32 -54 133 -57 168 -5 13 20
13 22 -6 22 -11 0 -25 -7 -32 -15 -29 -36 -110 -3 -110 45 0 18 7 20 84 20 75
0 84 2 81 18 -2 9 -4 25 -4 35 -1 10 -14 32 -30 48 -33 32 -78 38 -120 15z
m93 -32 c9 -8 16 -24 16 -35 0 -17 -7 -19 -60 -19 -66 0 -77 13 -40 50 24 24
63 26 84 4z"/>
<path d="M2953 1785 c-25 -18 -34 -56 -18 -79 7 -9 36 -24 66 -34 60 -21 80
-42 60 -66 -17 -20 -75 -21 -95 -1 -26 26 -57 17 -38 -11 33 -50 149 -43 174
11 19 43 -2 72 -67 90 -57 17 -83 43 -63 63 17 17 73 15 88 -3 16 -19 40 -19
40 -1 0 40 -103 62 -147 31z"/>
<path d="M644 769 c0 -123 1 -129 19 -123 11 3 72 28 136 54 155 64 156 72 14
129 -59 24 -122 50 -138 57 l-31 13 0 -130z m124 39 c42 -17 80 -34 84 -37 4
-3 -33 -23 -82 -43 l-90 -37 0 75 c0 41 2 74 5 74 3 0 40 -14 83 -32z"/>
<path d="M3310 1083 c0 -143 -3 -147 -80 -105 -79 44 -108 41 -135 -13 -17
-34 -20 -60 -20 -165 0 -105 3 -131 20 -165 27 -54 56 -57 135 -13 52 28 62
31 70 18 5 -8 10 -70 10 -137 l0 -123 623 0 624 0 0 405 0 405 -624 0 -623 0
0 -107z m1215 -301 l0 -372 -591 0 -590 0 -1 106 c-1 106 -13 158 -39 168 -7
3 -43 -10 -79 -29 -36 -19 -71 -35 -79 -35 -24 0 -39 58 -41 163 -4 175 24
227 95 177 41 -29 94 -50 107 -42 24 16 35 59 36 148 l1 94 591 -2 590 -3 0
-373z"/>
<path d="M3703 930 c-12 -5 -29 -24 -39 -41 -22 -43 -22 -155 1 -202 36 -76
134 -75 171 2 21 43 23 145 5 190 -22 51 -82 73 -138 51z m87 -40 c11 -11 21
-35 21 -52 3 -73 2 -84 -4 -119 -8 -40 -42 -65 -75 -55 -39 13 -51 66 -43 189
1 24 37 57 61 57 11 0 29 -9 40 -20z"/>
<path d="M4073 914 c-18 -14 -33 -32 -33 -40 0 -16 16 -19 25 -4 3 5 14 14 24
19 16 9 17 2 15 -102 -1 -62 -2 -115 -3 -119 0 -4 -16 -6 -33 -5 -24 2 -34 -3
-36 -15 -3 -16 6 -18 92 -18 79 0 96 3 96 15 0 14 -24 20 -57 16 -15 -2 -15
-6 -18 139 -1 63 -3 121 -4 128 -2 20 -34 14 -68 -14z"/>
<path d="M3910 655 c0 -22 4 -26 23 -23 14 2 22 10 22 23 0 13 -8 21 -22 23
-19 3 -23 -1 -23 -23z"/>
<path d="M5560 1083 c0 -142 -4 -147 -79 -105 -91 49 -127 40 -149 -38 -13
-51 -15 -207 -2 -265 21 -93 55 -105 151 -53 51 28 61 31 69 18 5 -8 10 -70
10 -137 l0 -123 440 0 441 0 -1 405 -1 405 -440 0 -439 0 0 -107z m846 -298
l0 -375 -408 0 -408 0 -1 110 c-1 61 -2 113 -4 118 -14 52 -44 54 -124 10 -31
-17 -64 -29 -73 -26 -24 10 -38 88 -34 199 3 110 16 159 41 159 8 0 44 -16 80
-35 36 -19 71 -32 79 -29 25 10 36 55 36 149 l0 95 408 0 407 0 1 -375z"/>
<path d="M5953 930 c-40 -16 -57 -56 -57 -139 -1 -96 21 -141 77 -155 77 -20
123 32 126 143 4 126 -55 187 -146 151z m64 -26 c12 -3 27 -18 33 -34 15 -36
15 -134 0 -170 -19 -47 -87 -49 -105 -3 -24 63 -16 162 16 194 21 21 24 21 56
13z"/>
<path d="M1809 908 c0 -18 -1 -98 -1 -178 l0 -145 121 -3 c117 -3 140 -10 104
-31 -14 -8 -4 -10 41 -11 52 0 58 2 42 13 -16 11 -17 19 -9 43 6 16 16 28 24
26 65 -16 154 99 135 174 -9 35 -50 42 -88 14 -30 -22 -30 -22 -18 -1 11 21 9
21 -27 17 -21 -2 -42 -5 -48 -6 -5 0 -3 -5 6 -10 16 -9 16 -14 0 -72 l-16 -63
-3 133 -3 132 -129 0 -130 0 -1 -32z m245 -148 l0 -155 -115 -3 -114 -3 0 161
0 161 114 -3 114 -3 1 -155z m156 7 c0 -47 -40 -121 -67 -125 -13 -2 -23 -2
-23 0 1 20 32 115 44 134 24 35 46 31 46 -9z"/>
<path d="M1894 880 c-27 -10 -37 -26 -29 -41 5 -6 13 -3 22 10 30 43 113 21
113 -30 0 -23 -7 -34 -35 -50 -32 -19 -49 -59 -25 -59 6 0 10 7 10 15 0 8 9
19 19 25 58 30 69 85 25 119 -28 22 -64 26 -100 11z"/>
<path d="M1927 662 c-11 -2 -17 -11 -15 -20 4 -22 52 -23 56 -1 3 18 -14 27
-41 21z"/>
<path d="M4950 840 l0 -50 -45 0 c-33 0 -45 -4 -45 -15 0 -11 12 -15 45 -15
l45 0 0 -45 c0 -37 3 -45 18 -45 16 0 19 7 17 45 l-3 45 47 0 c36 0 48 4 48
15 0 11 -12 15 -47 15 l-46 0 1 50 c1 42 -2 50 -17 50 -15 0 -18 -9 -18 -50z"/>
<path d="M2634 866 c-5 -13 3 -27 30 -50 l36 -33 -35 -38 c-22 -23 -34 -44
-30 -53 4 -12 14 -7 45 23 l40 39 38 -37 c33 -32 41 -36 51 -23 10 11 9 16 -1
23 -7 4 -24 20 -37 36 l-25 27 39 40 c32 33 36 40 22 46 -11 4 -27 -5 -48 -25
-17 -17 -33 -31 -37 -31 -3 0 -23 17 -44 37 -32 32 -38 34 -44 19z"/>
</g>
</svg>
