<?xml version="1.0" standalone="no"?>
<!DOCTYPE svg PUBLIC "-//W3C//DTD SVG 20010904//EN"
 "http://www.w3.org/TR/2001/REC-SVG-20010904/DTD/svg10.dtd">
<svg version="1.0" xmlns="http://www.w3.org/2000/svg"
 width="1040.000000pt" height="561.000000pt" viewBox="0 0 1040.000000 561.000000"
 preserveAspectRatio="xMidYMid meet">
<metadata>
Created by potrace 1.16, written by Peter Selinger 2001-2019
</metadata>
<g transform="translate(0.000000,561.000000) scale(0.100000,-0.100000)"
fill="#000000" stroke="none">
<path d="M828 5152 l-208 -2 0 -105 c0 -58 1 -107 3 -108 1 -2 -4 -11 -11 -20
-12 -14 -20 -12 -82 20 -60 31 -73 35 -94 25 -38 -17 -58 -99 -55 -225 5 -193
50 -236 165 -156 44 30 74 30 72 1 -1 -10 0 -77 0 -150 l2 -133 1150 2 1150 3
0 421 0 422 -457 1 c-252 1 -676 3 -943 4 -267 2 -578 2 -692 0z m1210 -137
c1 -54 -2 -103 -7 -108 -6 -6 -31 4 -68 27 -32 20 -68 36 -80 36 -57 0 -83
-84 -78 -246 3 -99 11 -130 43 -166 23 -27 50 -22 115 18 48 29 61 34 68 23
14 -23 11 -259 -3 -260 -44 -3 -1337 -4 -1355 -1 -22 4 -23 8 -23 131 0 183
-22 204 -135 132 -82 -52 -100 -20 -99 170 1 163 22 188 108 132 22 -14 53
-26 70 -27 43 -2 56 29 56 141 l0 92 28 3 c15 2 326 3 692 2 l665 -1 3 -98z
m840 96 c9 -1 12 -85 12 -386 0 -212 -3 -385 -7 -386 -35 -5 -787 -3 -795 2
-6 4 -12 58 -13 130 -1 68 -5 132 -10 142 -14 33 -50 31 -118 -7 -35 -20 -67
-36 -71 -36 -21 0 -37 78 -37 182 0 186 19 210 118 147 88 -55 115 -32 119
101 2 47 3 92 3 100 1 13 51 15 393 13 216 0 399 -2 406 -2z"/>
<path d="M866 4989 c-15 -4 -37 -16 -48 -26 -43 -38 -48 -64 -48 -235 0 -180
8 -212 63 -252 27 -20 41 -21 380 -22 212 -1 364 3 382 9 36 12 81 60 88 92 2
14 3 98 3 187 -2 154 -3 165 -25 194 -42 58 -45 58 -421 59 -190 1 -358 -2
-374 -6z m732 -37 c48 -27 54 -51 56 -217 2 -173 -5 -204 -52 -232 -26 -16
-61 -18 -378 -17 -240 0 -356 4 -370 12 -44 24 -55 69 -53 234 1 181 10 207
78 225 53 14 692 9 719 -5z"/>
<path d="M1145 4908 c-2 -7 -23 -75 -46 -151 l-43 -138 -25 70 c-24 69 -26 71
-57 71 -25 0 -32 -4 -28 -15 3 -8 9 -14 12 -13 24 3 33 -11 57 -82 28 -84 37
-97 52 -77 11 14 103 315 103 335 0 6 -5 12 -10 12 -6 0 -13 -6 -15 -12z"/>
<path d="M2438 4873 c-36 -9 -60 -69 -59 -143 2 -116 35 -164 111 -156 34 3
50 11 67 32 47 59 38 213 -14 254 -24 19 -65 24 -105 13z m72 -33 c23 -12 38
-63 35 -116 -1 -21 -3 -48 -4 -60 -1 -27 -21 -50 -48 -59 -17 -4 -29 1 -48 19
-22 22 -25 33 -25 99 0 60 4 79 21 101 22 28 39 32 69 16z"/>
<path d="M624 3606 c-1 -6 -4 -59 -6 -118 -2 -58 -7 -110 -11 -114 -4 -5 -18
-2 -30 6 -111 70 -144 73 -174 17 -21 -41 -30 -222 -14 -297 12 -54 40 -90 71
-90 9 0 42 16 74 35 32 19 62 35 66 35 16 0 20 -71 20 -335 l0 -273 1940 0
1940 0 0 572 0 572 -1936 0 c-1373 1 -1937 -3 -1940 -10z m3834 -25 c9 -1 12
-116 12 -538 l0 -538 -1883 2 c-1035 0 -1894 2 -1909 2 l-28 1 0 273 c0 352
-3 358 -126 293 -36 -20 -71 -33 -76 -30 -29 18 -46 192 -27 289 15 79 26 84
98 41 103 -63 131 -40 131 110 0 50 2 93 4 95 4 3 3759 3 3804 0z"/>
<path d="M1098 3351 c-1 -66 -6 -123 -10 -127 -4 -4 -30 7 -57 23 -87 54 -119
54 -149 0 -25 -47 -25 -297 1 -344 27 -50 55 -51 132 -8 37 20 70 34 73 30 4
-4 8 -74 10 -156 l3 -149 440 0 439 0 -2 423 -3 422 -437 3 -436 2 -4 -119z
m843 69 c3 -35 5 -746 2 -755 -2 -6 -142 -10 -396 -9 -215 1 -398 2 -404 3
-10 1 -13 33 -13 124 0 127 -10 169 -42 175 -9 2 -48 -13 -85 -32 -78 -41 -90
-37 -103 35 -13 68 -6 230 11 264 18 36 35 35 103 -6 89 -55 116 -27 116 118
0 78 3 92 17 95 9 2 191 3 405 3 338 0 388 -2 389 -15z"/>
<path d="M1477 3180 c-44 -35 -60 -178 -27 -240 37 -69 139 -66 174 6 19 40
22 145 5 193 -20 57 -103 80 -152 41z m106 -41 c16 -20 18 -36 15 -100 -4
-101 -22 -122 -90 -110 -27 5 -46 138 -27 190 20 54 67 63 102 20z"/>
<path d="M3320 3351 c0 -70 -4 -122 -10 -126 -6 -4 -37 10 -69 29 -86 53 -115
46 -143 -31 -21 -60 -17 -260 6 -311 29 -64 60 -66 149 -10 26 17 51 27 55 23
4 -3 9 -73 12 -153 l5 -147 438 -3 437 -2 0 425 0 425 -440 0 -440 0 0 -119z
m833 80 c16 -1 17 -26 17 -386 0 -360 -1 -385 -17 -386 -10 -1 -192 -2 -406
-3 -338 -1 -387 1 -388 14 0 8 -2 67 -3 130 -3 172 -19 187 -129 126 -76 -43
-92 -37 -102 34 -11 77 -8 216 5 255 15 45 42 46 107 5 86 -55 115 -33 119 90
1 41 3 86 3 100 l1 25 387 -2 c214 -1 396 -2 406 -2z"/>
<path d="M3718 3193 c-9 -2 -27 -20 -39 -39 -24 -40 -28 -142 -7 -200 25 -69
125 -84 167 -25 44 62 35 211 -16 251 -24 19 -65 24 -105 13z m65 -32 c31 -12
45 -51 42 -122 -3 -75 -12 -98 -42 -110 -54 -20 -83 23 -83 125 0 49 5 69 21
90 23 29 27 30 62 17z"/>
<path d="M2194 3311 c-35 -10 -73 -45 -87 -81 -21 -54 -16 -344 6 -387 36 -67
40 -68 452 -68 347 0 372 1 398 19 54 37 61 65 63 246 1 144 -1 170 -17 202
-36 72 -40 72 -439 73 -195 1 -364 -1 -376 -4z m767 -59 c16 -18 29 -42 30
-55 1 -12 2 -85 3 -162 3 -242 25 -230 -437 -229 -314 1 -358 3 -381 17 -45
30 -49 51 -49 226 1 181 8 205 70 226 18 6 171 10 383 9 l353 0 28 -32z"/>
<path d="M2370 3101 l0 -51 -45 0 c-33 0 -45 -4 -45 -15 0 -11 12 -15 45 -15
l45 0 0 -45 c0 -37 3 -45 18 -45 15 0 18 8 18 43 l-1 42 45 5 c61 7 65 30 5
30 -48 0 -46 -2 -49 62 -1 23 -6 34 -18 36 -15 3 -18 -4 -18 -47z"/>
<path d="M618 1670 c-2 -65 -6 -121 -10 -125 -3 -4 -17 -1 -31 7 -103 57 -116
62 -141 50 -39 -18 -55 -85 -52 -227 2 -123 17 -178 51 -191 21 -8 85 15 124
45 58 44 61 30 61 -285 l0 -271 2932 1 2932 1 1 545 c0 300 -1 550 -3 556 -2
9 -765 12 -2932 11 l-2928 0 -4 -117z m5810 81 l22 -1 0 -522 0 -523 -2878 2
c-1582 0 -2887 1 -2899 2 l-23 1 0 254 c0 143 -4 266 -10 281 -15 39 -37 41
-99 9 -91 -46 -89 -46 -107 -19 -20 30 -28 208 -13 275 17 75 28 79 100 36
103 -62 129 -40 129 111 0 78 3 92 17 95 14 3 5698 2 5761 -1z"/>
<path d="M2469 1541 c-1 -156 -8 -168 -69 -127 -124 82 -161 51 -168 -144 -5
-126 7 -189 39 -221 26 -26 55 -20 123 24 47 30 49 30 62 12 10 -14 14 -53 14
-140 l0 -121 230 0 c153 0 230 3 233 10 2 6 3 189 3 406 l-1 395 -233 1 -232
0 -1 -95z m426 -311 l0 -374 -172 1 c-95 1 -184 2 -197 2 -24 1 -24 2 -27 119
-5 167 -21 180 -134 116 l-64 -35 -18 28 c-15 22 -18 48 -18 148 0 193 15 216
105 159 100 -63 130 -37 130 113 0 52 4 93 10 95 6 2 94 3 198 3 l187 0 0
-375z"/>
<path d="M4135 1631 c-1 -3 -3 -40 -3 -81 0 -140 -2 -150 -16 -156 -8 -3 -34
8 -58 24 -53 36 -97 46 -120 28 -46 -35 -61 -284 -22 -362 31 -62 45 -64 126
-21 93 51 88 59 91 -143 l2 -95 230 0 230 0 0 405 0 405 -228 1 c-125 0 -230
-2 -232 -5z m434 -398 c0 -205 -3 -373 -7 -374 -33 -4 -392 -3 -393 1 0 3 -2
53 -3 112 -3 116 -16 158 -49 158 -11 0 -48 -15 -82 -34 -33 -19 -66 -32 -72
-28 -24 15 -35 70 -35 173 0 111 13 173 37 183 8 3 15 1 15 -5 0 -6 4 -8 8 -5
5 3 28 -8 53 -25 95 -63 126 -30 124 128 -1 76 1 82 19 85 12 2 103 3 203 3
l182 0 0 -372z"/>
<path d="M5719 1616 c-3 -160 -7 -208 -17 -218 -8 -8 -24 -3 -59 20 -62 38
-87 46 -113 32 -38 -20 -50 -73 -50 -220 -1 -109 16 -169 51 -189 26 -15 56
-5 127 40 49 32 57 18 59 -114 1 -62 2 -119 2 -128 1 -13 28 -15 224 -14 122
1 227 2 232 3 7 1 9 139 8 395 -1 215 -2 397 -2 402 -1 7 -78 11 -231 11 -227
1 -230 1 -231 -20z m419 -15 c10 -1 12 -79 10 -373 l-3 -372 -170 1 c-93 1
-182 2 -196 2 l-27 1 -4 119 c-6 166 -20 179 -132 116 -33 -19 -67 -31 -73
-27 -23 14 -36 101 -31 213 4 92 8 113 24 130 20 19 20 19 78 -16 32 -19 71
-35 87 -35 24 0 30 5 38 38 6 20 11 74 11 119 0 77 1 82 23 85 19 3 332 2 365
-1z"/>
<path d="M3388 1410 c-63 -12 -132 -68 -141 -117 -6 -31 21 -31 33 1 23 61 98
97 186 90 59 -4 104 -31 129 -77 22 -40 45 -49 45 -17 0 26 -52 84 -95 104
-40 19 -105 26 -157 16z"/>
<path d="M1816 1375 c3 -8 14 -17 25 -20 10 -4 23 -22 30 -43 10 -35 7 -45
-35 -136 -25 -54 -46 -100 -46 -103 0 -2 9 -3 21 -1 14 2 29 23 52 75 18 40
35 73 38 73 4 0 18 -33 31 -72 19 -59 28 -74 46 -76 12 -2 22 -2 22 0 0 9 -93
255 -106 279 -14 28 -33 39 -65 39 -12 0 -16 -5 -13 -15z"/>
<path d="M5099 1316 l34 -12 -78 -78 c-78 -80 -92 -84 -96 -31 -1 11 -4 4 -8
-15 -3 -19 -5 -47 -2 -62 3 -27 5 -28 65 -27 l61 1 -38 12 -38 12 81 82 c65
68 81 80 86 65 18 -56 21 -55 23 5 l1 62 -62 -1 c-62 -1 -62 -1 -29 -13z"/>
<path d="M1083 1213 c-52 -35 -123 -100 -123 -112 0 -24 30 -15 66 18 51 48
98 81 117 81 8 0 20 -7 27 -15 11 -14 8 -21 -23 -50 -21 -19 -37 -39 -37 -45
0 -20 47 -10 70 15 13 14 29 25 35 25 6 0 22 -11 35 -25 21 -23 60 -35 60 -19
0 4 -13 20 -30 36 -35 33 -37 44 -11 58 33 17 42 12 102 -52 66 -71 81 -59 22
18 -67 89 -92 100 -152 63 -30 -18 -36 -19 -45 -7 -12 16 -49 38 -64 38 -5 0
-27 -12 -49 -27z"/>
</g>
</svg>
