<?xml version="1.0" standalone="no"?>
<!DOCTYPE svg PUBLIC "-//W3C//DTD SVG 20010904//EN"
 "http://www.w3.org/TR/2001/REC-SVG-20010904/DTD/svg10.dtd">
<svg version="1.0" xmlns="http://www.w3.org/2000/svg"
 width="1245.000000pt" height="221.000000pt" viewBox="0 0 1245.000000 221.000000"
 preserveAspectRatio="xMidYMid meet">
<metadata>
Created by potrace 1.16, written by Peter Selinger 2001-2019
</metadata>
<g transform="translate(0.000000,221.000000) scale(0.100000,-0.100000)"
fill="#000000" stroke="none">
<path d="M622 1622 c-45 -15 -119 -79 -140 -122 -7 -14 -17 -41 -22 -60 -10
-36 -14 -653 -5 -704 10 -52 33 -94 72 -133 65 -65 99 -76 253 -78 l136 -3 79
-53 c44 -29 82 -56 85 -60 3 -4 30 -6 61 -5 50 2 65 8 144 61 l89 59 2585 0
2586 1 0 555 0 555 -2593 1 -2594 0 -85 -58 c-117 -80 -144 -80 -260 0 l-85
57 -132 1 c-89 0 -145 -4 -174 -14z m299 -27 c8 -5 51 -33 97 -62 112 -74 141
-73 268 12 l90 60 545 0 544 -1 3 -89 c2 -62 -1 -96 -10 -108 -12 -16 -16 -16
-62 13 -124 79 -168 27 -161 -195 3 -124 15 -166 52 -186 23 -13 31 -11 93 23
49 26 71 33 79 25 13 -13 16 -526 4 -528 -5 -1 -253 -2 -553 -3 l-545 -1 -95
-61 c-124 -80 -134 -80 -252 -1 l-93 61 -135 1 c-146 2 -179 10 -234 61 -15
15 -39 49 -51 76 -23 49 -23 55 -22 396 2 335 3 348 24 387 54 100 121 131
285 129 63 0 121 -4 129 -9z m5595 -510 c1 -286 -2 -522 -7 -525 -5 -4 -3950
-5 -3995 -1 -7 1 -10 86 -11 261 -1 337 -4 342 -130 275 -56 -30 -69 -33 -80
-22 -19 19 -31 105 -28 197 6 155 23 178 100 129 108 -68 137 -46 137 105 0
89 2 95 22 98 11 2 914 3 2006 3 l1985 -1 1 -519z"/>
<path d="M679 1321 c-18 -9 -42 -29 -53 -44 -19 -26 -21 -42 -21 -195 0 -182
5 -199 63 -239 24 -16 54 -18 302 -19 285 -1 322 3 360 36 36 32 45 76 44 227
-1 162 -10 193 -63 225 -35 22 -44 23 -318 23 -235 1 -287 -2 -314 -14z m579
-20 c13 -1 37 -14 53 -30 l29 -29 0 -161 c0 -151 -1 -161 -22 -186 -13 -14
-39 -29 -58 -33 -19 -4 -151 -7 -293 -7 -344 2 -336 -4 -333 233 3 225 -8 218
348 215 139 0 263 -2 276 -2z"/>
<path d="M796 1225 c-6 -17 17 -31 34 -20 5 3 10 13 10 21 0 19 -36 18 -44 -1z"/>
<path d="M798 1148 c-3 -11 -3 -153 1 -210 1 -11 9 -18 20 -18 17 0 18 10 18
120 -1 106 -3 120 -18 120 -9 0 -19 -6 -21 -12z"/>
<path d="M1552 1103 c2 -20 9 -28 23 -28 14 0 21 8 23 28 3 23 0 27 -23 27
-23 0 -26 -4 -23 -27z"/>
<path d="M1630 1110 c0 -5 -1 -13 -2 -17 -2 -5 58 -9 132 -10 129 -2 159 4
144 29 -8 12 -274 10 -274 -2z"/>
<path d="M1552 1013 c2 -19 9 -27 26 -28 18 -1 22 3 22 27 0 23 -4 28 -26 28
-22 0 -25 -4 -22 -27z"/>
<path d="M1635 1027 c-8 -4 -12 -13 -9 -20 7 -18 272 -17 279 1 2 7 -1 15 -8
17 -21 9 -248 10 -262 2z"/>
<path d="M2950 1378 c0 -62 -4 -119 -9 -127 -8 -12 -18 -9 -61 17 -130 81
-165 43 -165 -178 0 -206 31 -242 151 -175 53 30 68 35 75 24 5 -8 9 -71 9
-142 l0 -127 538 2 537 3 0 405 0 405 -537 3 -538 2 0 -112z m1036 69 c5 -4 7
-382 5 -677 l-1 -65 -493 0 c-270 1 -497 4 -503 7 -6 4 -11 49 -11 113 -1 111
-15 155 -50 155 -9 0 -44 -15 -77 -34 -69 -39 -90 -36 -101 15 -19 87 -9 275
17 306 12 14 43 4 96 -32 81 -55 112 -23 115 117 1 81 4 94 20 98 26 7 976 5
983 -3z"/>
<path d="M3192 1326 c-19 -5 -45 -25 -60 -44 -26 -34 -27 -41 -30 -181 -5
-172 4 -209 55 -248 l36 -28 291 0 c285 0 292 0 327 23 55 33 63 63 63 236 0
169 -8 196 -68 232 -28 17 -56 19 -306 19 -151 0 -290 -4 -308 -9z m576 -25
c8 -1 27 -14 43 -30 l29 -29 0 -160 c0 -144 -2 -162 -20 -185 -11 -14 -32 -29
-47 -34 -22 -7 -456 -10 -555 -4 -10 1 -32 14 -50 30 l-33 29 -1 151 c-2 180
9 212 79 231 14 4 500 5 555 1z"/>
<path d="M3296 1232 c-9 -14 12 -35 28 -29 23 9 20 37 -3 37 -11 0 -22 -4 -25
-8z"/>
<path d="M3299 1153 c-3 -28 -4 -210 -1 -220 2 -7 12 -13 22 -13 17 0 18 10
17 117 -2 103 -4 118 -19 121 -10 2 -18 0 -19 -5z"/>
<path d="M5370 1378 c0 -62 -4 -119 -9 -127 -7 -11 -22 -6 -75 24 -81 45 -109
42 -134 -13 -22 -51 -27 -243 -7 -309 25 -83 60 -90 154 -32 44 27 54 30 62
18 5 -8 9 -71 9 -141 l0 -128 440 0 440 0 0 410 0 410 -440 0 -440 0 0 -112z
m836 73 c7 -1 11 -113 11 -373 l0 -373 -404 0 c-350 0 -404 2 -407 15 -2 8 -4
56 -4 105 0 97 -12 142 -39 152 -11 4 -42 -7 -84 -30 -54 -29 -69 -34 -83 -24
-22 16 -34 89 -31 189 5 163 22 186 100 137 108 -68 134 -50 137 99 2 80 5
102 17 104 12 3 757 1 787 -1z"/>
<path d="M5762 1202 c-18 -15 -32 -33 -32 -39 0 -18 7 -16 41 7 l28 21 -2
-118 -2 -118 -37 0 c-30 1 -38 -3 -38 -17 0 -16 10 -18 95 -18 85 0 95 2 95
18 0 14 -8 18 -32 18 l-33 -1 -3 138 c-3 134 -3 137 -25 137 -12 0 -37 -13
-55 -28z"/>
<path d="M4245 1332 c-37 -7 -84 -51 -95 -90 -5 -20 -10 -93 -10 -162 0 -154
9 -191 57 -227 l36 -28 366 0 c404 0 409 1 450 61 23 33 24 42 24 193 0 175
-7 201 -67 237 -29 17 -58 19 -386 19 -195 0 -364 -1 -375 -3z m732 -36 c12
-4 32 -19 43 -33 18 -23 20 -40 20 -185 l0 -160 -29 -29 c-16 -16 -40 -29 -53
-30 -13 -1 -174 -2 -358 -3 -444 -2 -424 -13 -426 212 -1 168 8 203 62 224 24
10 117 13 376 12 188 0 353 -4 365 -8z"/>
<path d="M4420 1129 c0 -49 -1 -50 -27 -49 -50 4 -63 0 -63 -15 0 -11 12 -15
45 -15 l45 0 0 -45 c0 -33 4 -45 15 -45 11 0 15 12 15 45 l0 45 44 0 c73 0 70
33 -3 34 -36 1 -36 1 -39 49 -2 33 -7 47 -18 47 -10 0 -14 -13 -14 -51z"/>
</g>
</svg>
