<?xml version="1.0" standalone="no"?>
<!DOCTYPE svg PUBLIC "-//W3C//DTD SVG 20010904//EN"
 "http://www.w3.org/TR/2001/REC-SVG-20010904/DTD/svg10.dtd">
<svg version="1.0" xmlns="http://www.w3.org/2000/svg"
 width="993.000000pt" height="837.000000pt" viewBox="0 0 993.000000 837.000000"
 preserveAspectRatio="xMidYMid meet">
<metadata>
Created by potrace 1.16, written by Peter Selinger 2001-2019
</metadata>
<g transform="translate(0.000000,837.000000) scale(0.100000,-0.100000)"
fill="#000000" stroke="none">
<path d="M535 8231 c-16 -9 -38 -24 -49 -33 -29 -26 -61 -22 -111 12 -40 27
-48 29 -114 25 -77 -4 -111 -21 -134 -67 -11 -22 -13 -703 -12 -4010 0 -3967
0 -3983 20 -4010 42 -55 19 -53 605 -56 300 -1 550 -2 555 -2 6 0 232 1 503 2
l492 1 1 156 c1 86 0 168 -1 182 0 15 5 28 12 31 7 2 309 3 671 3 656 -1 658
-1 662 19 2 12 4 93 2 181 l-2 160 145 5 145 5 0 360 c0 198 3 362 7 365 4 3
1292 5 2862 5 l2856 0 0 335 0 335 -143 0 -142 0 -2 314 c-1 173 -4 319 -7
326 -3 9 -690 12 -3055 12 -1678 0 -3054 2 -3057 5 -3 3 -5 86 -5 184 l1 179
-372 0 -373 0 0 183 0 182 -303 0 -302 0 2 178 3 177 198 0 197 -1 1 131 c0
71 0 154 -1 182 l-1 53 673 2 673 3 2 170 c0 94 2 176 2 183 1 10 21 13 89 10
l87 -3 0 185 0 185 56 -1 56 0 -1 183 c-1 101 1 183 4 184 3 0 1317 1 2920 2
l2915 2 0 238 c0 130 4 237 8 237 5 0 5 5 1 12 -4 6 -7 49 -7 95 l0 83 -203 0
-202 0 1 325 c1 209 -2 326 -8 328 -5 2 -94 3 -197 2 -104 0 -188 4 -188 9 0
4 -6 4 -12 -2 -15 -11 -57 -10 -75 1 -7 5 -13 4 -13 0 0 -11 -732 -10 -749 1
-9 6 -12 5 -8 -1 7 -12 -157 -12 -169 -1 -4 4 -16 2 -27 -3 -15 -8 -22 -8 -28
2 -5 8 -9 9 -9 4 0 -15 -1492 -16 -1502 -1 -5 8 -8 8 -8 0 0 -14 -512 -14
-522 0 -6 8 -8 8 -8 0 0 -12 -138 -13 -157 -1 -7 5 -13 5 -13 0 0 -4 -146 -8
-324 -9 -208 0 -323 3 -319 9 4 6 1 7 -8 1 -20 -13 -559 -12 -559 1 0 6 -3 6
-8 -1 -9 -13 -570 -13 -591 0 -9 6 -12 5 -8 -1 4 -6 -108 -9 -304 -9 l-309 0
-1 55 c-1 31 -1 59 0 63 3 26 2 240 -2 244 -2 3 -170 6 -373 7 l-369 2 -1 170
c-1 94 -2 176 -3 183 -1 9 -68 12 -301 12 l-300 0 0 175 0 175 400 0 c220 0
400 3 400 8 0 4 -482 8 -1071 9 l-1071 1 -48 -29 c-26 -16 -53 -29 -60 -29 -7
0 -35 14 -61 31 -41 26 -56 30 -111 28 -34 0 -80 -1 -101 0 l-38 1 2 144 1
144 28 27 c23 22 40 28 94 32 62 5 70 3 117 -26 28 -17 59 -31 69 -31 11 0 41
14 67 30 l47 30 1058 0 1058 0 0 -170 c0 -93 4 -170 8 -170 5 0 8 80 8 178 l0
179 -132 0 c-73 1 -138 4 -145 9 -7 4 -10 3 -6 -2 6 -10 -443 -10 -469 0 -8 3
-13 2 -10 -2 5 -8 -447 -7 -470 2 -8 3 -13 2 -10 -2 5 -8 -447 -7 -470 2 -8 3
-13 2 -10 -2 4 -7 -376 -8 -391 0 -4 3 -21 -2 -38 -11z m-157 -409 c56 -35 73
-35 128 0 26 17 57 27 85 28 91 4 89 5 89 -43 0 -53 -6 -61 -34 -42 -53 38
-80 0 -74 -102 5 -80 16 -92 63 -70 20 9 38 17 40 17 3 0 5 -1688 5 -3750 l0
-3751 -242 1 -241 1 -34 34 -33 33 0 3835 0 3836 33 3 c17 2 63 2 100 1 56 -1
76 -6 115 -31z m982 -14 c0 -53 0 -53 -48 -36 -30 11 -35 11 -48 -7 -19 -25
-19 -145 0 -170 14 -19 15 -19 50 -2 20 9 39 17 41 17 3 0 5 -839 5 -1865 0
-1026 -2 -1865 -4 -1865 -2 0 -20 7 -39 15 -34 14 -37 14 -51 -7 -21 -29 -22
-146 -2 -173 14 -19 15 -19 50 -2 20 9 39 17 41 17 3 0 5 -814 5 -1810 l0
-1810 -330 0 -330 0 0 3749 c0 3267 -2 3750 -15 3761 -11 9 -20 8 -44 -6 -23
-13 -34 -15 -42 -7 -12 12 -14 111 -4 144 6 18 7 18 44 -1 48 -24 61 -13 61
51 0 45 2 48 28 51 15 2 163 3 330 3 l302 0 0 -47z m509 33 c7 -11 5 -440 -2
-447 -2 -2 -20 3 -40 11 -34 14 -37 14 -51 -7 -28 -40 -14 -189 17 -188 7 1
23 7 37 15 14 8 28 14 33 15 4 0 7 -675 7 -1500 l0 -1501 -30 16 c-60 31 -80
11 -80 -79 0 -93 28 -127 76 -91 30 23 34 19 34 -40 l0 -55 -245 0 -245 0 0
1809 c0 1990 4 1853 -59 1815 -23 -14 -34 -15 -42 -7 -11 11 -14 137 -4 154 4
5 24 0 45 -11 39 -20 39 -20 50 -1 5 11 10 38 10 60 l0 41 163 2 c226 4 319 1
326 -11z m611 -583 c0 -140 -4 -229 -10 -233 -5 -3 -23 2 -40 12 -29 16 -31
16 -47 0 -24 -24 -25 -159 -1 -183 14 -14 18 -14 48 1 19 10 36 13 41 8 5 -5
8 -539 7 -1258 l-3 -1249 -80 1 c-44 0 -176 1 -292 2 l-213 1 0 1438 c0 863
-4 1443 -10 1452 -8 12 -14 12 -46 -3 -20 -10 -39 -15 -42 -13 -17 18 -17 144
0 162 3 3 22 -3 42 -13 45 -21 56 -11 56 54 0 23 5 43 10 45 6 2 138 3 295 3
l285 0 0 -227z m737 -151 c7 -7 6 -447 -1 -454 -2 -2 -20 4 -41 14 -36 17 -37
17 -51 -2 -20 -27 -19 -144 2 -173 l16 -23 33 20 c18 11 36 17 39 14 7 -7 8
-503 1 -503 -2 0 -21 8 -41 17 -35 17 -36 17 -50 -2 -17 -22 -19 -137 -4 -166
13 -23 31 -24 70 -4 l30 16 0 -256 c0 -140 -4 -255 -8 -255 -5 0 -24 7 -42 16
-31 16 -34 16 -47 -2 -17 -23 -14 -167 4 -185 9 -9 19 -7 44 5 18 9 36 16 41
16 4 0 8 -49 8 -110 0 -60 -2 -110 -5 -110 -2 0 -21 8 -41 17 -35 17 -36 17
-50 -2 -14 -19 -19 -120 -8 -162 7 -27 32 -29 74 -8 l30 16 0 -116 c0 -63 -3
-115 -7 -115 -5 0 -17 7 -27 15 -50 38 -76 8 -76 -85 0 -93 26 -123 76 -85 30
23 34 19 34 -42 l0 -58 -357 1 c-197 1 -360 2 -364 3 -3 0 -5 558 -5 1239 1
680 -1 1249 -3 1265 -4 31 -21 34 -62 10 -15 -9 -32 -13 -36 -9 -10 10 -10
152 -1 162 5 4 24 -1 44 -12 33 -18 36 -18 48 -2 7 9 11 32 10 50 -1 18 1 37
6 43 9 11 706 13 717 2z m6124 -371 c1 -6 2 -149 3 -318 l1 -308 -3052 0
-3053 0 0 191 c0 116 -4 198 -11 210 -10 20 -11 20 -46 -1 -26 -15 -39 -18
-47 -10 -11 11 -13 147 -2 157 3 4 23 -1 43 -11 35 -17 38 -17 50 0 7 10 13
36 13 59 l0 42 3050 0 c2236 0 3050 -3 3051 -11z m409 -958 l0 -318 -3255 0
-3255 0 0 189 c0 104 -3 196 -6 205 -8 20 -27 20 -64 1 -37 -19 -43 -10 -43
72 -1 79 8 90 57 66 46 -21 56 -11 56 58 l0 46 3255 0 3255 0 0 -319z m-5842
-509 l2 -175 -332 1 -333 0 -3 40 c-6 89 -18 101 -68 69 -36 -24 -48 -7 -48
71 0 78 12 95 48 71 49 -32 66 -18 66 57 l0 42 332 -1 333 -1 3 -174z m-117
-218 c3 -76 4 -298 1 -311 -2 -12 -17 -15 -68 -13 -35 0 -158 2 -274 2 l-210
1 0 55 c0 66 -14 76 -66 51 -33 -15 -35 -15 -42 2 -8 21 -7 141 2 149 3 4 22
-1 42 -11 48 -22 64 -9 64 53 l0 47 275 0 275 1 1 -26z m-173 -518 l-3 -177
-170 -1 c-93 0 -178 1 -187 3 -14 3 -18 15 -18 56 0 69 -12 80 -61 55 l-39
-19 -7 27 c-9 36 -9 113 0 137 7 17 9 17 42 -3 31 -18 36 -18 50 -5 9 9 15 33
15 60 l0 44 190 0 190 0 -2 -177z m-1344 -366 l-1 -172 -191 -3 -192 -2 0 54
c0 68 -15 84 -58 59 -23 -13 -34 -15 -42 -7 -12 12 -16 111 -5 144 6 20 7 20
44 0 48 -24 61 -13 61 52 l0 48 193 0 192 0 -1 -173z m-409 -199 c11 -6 12
-445 2 -455 -3 -2 -19 3 -36 11 -16 9 -34 16 -39 16 -29 0 -44 -143 -19 -187
15 -27 20 -27 57 -8 16 8 31 15 35 15 3 0 5 -673 5 -1495 0 -1024 -3 -1495
-10 -1495 -6 0 -22 8 -37 17 -25 16 -26 16 -44 -6 -33 -40 -20 -192 15 -191 6
1 22 7 36 15 38 22 40 19 40 -40 l0 -55 -245 0 -245 0 -2 1814 c-2 998 -6
1818 -11 1822 -4 4 -24 0 -44 -10 -23 -11 -39 -14 -46 -7 -12 12 -10 142 2
154 6 6 19 4 35 -7 49 -31 66 -17 66 54 0 28 5 39 17 42 31 6 458 2 468 -4z
m613 -583 c1 -121 0 -225 -2 -232 -4 -10 -13 -9 -41 4 -32 15 -37 15 -51 1
-21 -20 -29 -108 -14 -152 13 -40 39 -47 74 -21 16 12 22 12 28 2 4 -6 8 -573
8 -1259 l0 -1248 -295 0 -295 0 0 1434 c0 789 -3 1441 -6 1450 -8 20 -28 20
-60 0 -13 -9 -27 -14 -31 -10 -19 19 -19 144 1 163 3 3 22 -2 41 -13 31 -17
37 -17 45 -4 5 8 10 34 10 57 0 23 4 43 10 45 5 2 137 3 292 2 l283 0 3 -219z
m745 -378 c-2 -127 -5 -232 -7 -235 -3 -2 -15 3 -28 12 -53 37 -78 11 -78 -84
0 -93 26 -123 76 -85 10 8 22 15 27 15 4 0 7 -115 7 -255 0 -140 -4 -255 -8
-255 -5 0 -17 7 -28 15 -49 37 -74 8 -74 -85 0 -93 26 -123 76 -85 10 8 22 15
27 15 4 0 7 -115 7 -255 0 -140 -2 -255 -5 -255 -2 0 -21 8 -41 17 -35 17 -36
17 -50 -2 -20 -27 -19 -144 2 -173 l15 -22 40 20 39 20 0 -115 c0 -63 -3 -115
-7 -115 -5 0 -17 7 -27 15 -50 38 -76 8 -76 -85 0 -93 26 -123 76 -85 10 8 22
15 27 15 4 0 7 -52 7 -115 l0 -116 -30 16 c-65 33 -80 17 -80 -88 0 -90 26
-118 74 -82 31 24 36 18 36 -40 l0 -55 -362 2 -363 3 0 1257 c-1 820 -4 1261
-11 1268 -6 6 -22 3 -47 -10 l-36 -20 -12 22 c-12 21 -8 132 4 145 4 3 24 -1
44 -11 20 -9 40 -13 44 -9 5 5 11 31 13 58 2 28 4 50 5 51 1 0 164 0 364 0
l362 0 -2 -229z m6122 -454 c0 -172 -2 -314 -5 -314 -3 -1 -1376 -2 -3052 -3
l-3048 -1 0 188 c0 111 -4 196 -10 208 -11 19 -11 19 -50 -1 l-40 -20 -7 27
c-9 35 -9 113 0 136 6 17 9 16 46 -3 51 -25 57 -18 60 60 l1 40 3053 -2 3052
-3 0 -312z m291 -643 c0 -168 -1 -310 -3 -316 -3 -8 -906 -10 -3196 -10
l-3192 1 -5 197 c-3 116 -9 201 -15 207 -8 8 -22 5 -48 -9 -45 -25 -50 -18
-51 71 -1 74 13 90 55 65 42 -25 59 -9 59 55 l0 49 3198 -2 3197 -3 1 -305z
m-5728 -517 l2 -173 -335 0 -335 0 0 46 c0 25 -5 54 -10 65 -11 19 -11 19 -51
-1 -37 -20 -40 -20 -46 -3 -11 29 -7 133 6 146 8 8 18 7 42 -7 40 -24 59 -8
59 49 0 23 2 44 5 47 3 3 153 5 333 4 l327 -1 3 -172z m2 -370 l0 -178 -242 2
c-134 1 -285 2 -335 2 l-93 1 0 46 c0 25 -5 54 -10 65 -10 18 -13 18 -40 4
-56 -29 -62 -23 -62 60 0 93 7 101 62 70 35 -19 50 -3 50 56 l0 49 335 0 335
0 0 -177z m-402 -192 l112 -1 0 -175 0 -175 -189 0 -189 0 -4 60 c-2 33 -7 62
-10 65 -3 3 -24 -2 -47 -11 -23 -9 -44 -14 -48 -11 -8 9 -9 129 0 150 6 17 9
17 46 -3 40 -20 40 -20 51 -1 5 11 10 39 10 63 l0 43 77 -2 c43 -1 129 -2 191
-2z m-1238 -386 c1 -37 1 -280 1 -307 l-1 -28 -190 0 -190 0 0 53 c0 75 -10
86 -56 64 -24 -12 -40 -15 -47 -8 -12 12 -10 142 2 154 6 6 22 2 39 -8 45 -27
62 -15 62 44 0 27 4 51 10 53 5 2 91 3 190 3 173 0 180 -1 180 -20z"/>
<path d="M283 3975 c0 -34 4 -55 11 -55 23 0 116 44 116 55 0 11 -93 55 -116
55 -7 0 -11 -21 -11 -55z m65 -17 c-18 -9 -37 -17 -41 -18 -6 0 -5 51 2 67 1
2 17 -5 36 -14 l36 -17 -33 -18z"/>
<path d="M796 2157 c-32 -11 -43 -46 -41 -131 2 -104 6 -106 220 -106 216 0
218 1 220 111 1 83 -8 116 -39 125 -30 10 -331 11 -360 1z m367 -24 c13 -13
17 -32 17 -88 0 -111 5 -109 -205 -109 -210 0 -205 -3 -205 110 0 102 -1 101
208 102 138 0 170 -3 185 -15z"/>
<path d="M890 2088 c-1 -5 -3 -13 -4 -20 0 -7 -12 -15 -26 -19 -21 -6 -11 -14
13 -10 7 1 11 -14 8 -36 -1 -7 3 -13 9 -13 5 0 10 12 10 26 0 14 3 23 8 21 4
-3 16 -1 27 4 18 7 17 8 -7 8 -19 1 -28 7 -31 24 -2 12 -5 19 -7 15z"/>
<path d="M1530 7690 c0 -27 5 -50 10 -50 6 0 10 23 10 50 0 28 -4 50 -10 50
-5 0 -10 -22 -10 -50z"/>
<path d="M1530 5981 c0 -6 4 -11 9 -11 19 0 20 -33 1 -70 -22 -42 -25 -60 -11
-60 4 0 15 17 23 38 l14 37 14 -37 c16 -43 36 -52 25 -11 -16 66 -75 155 -75
114z"/>
<path d="M1550 4210 c0 -12 -7 -20 -17 -21 -11 0 -13 -3 -5 -6 19 -7 15 -43
-5 -44 -11 0 -13 -3 -5 -6 6 -2 12 -14 13 -26 0 -22 0 -22 9 1 5 12 16 22 25
22 9 0 15 -9 16 -22 0 -15 2 -18 6 -8 3 8 12 21 21 28 10 7 11 12 4 12 -20 0
-14 40 6 41 10 0 12 3 5 6 -7 2 -13 14 -14 26 0 22 0 22 -9 0 -12 -29 -45 -32
-37 -3 3 11 1 20 -4 20 -5 0 -9 -9 -9 -20z m40 -45 c0 -15 -26 -32 -36 -23 -2
3 -2 13 2 22 8 20 34 21 34 1z"/>
<path d="M2056 7355 c15 -23 15 -28 -5 -70 -24 -51 -25 -55 -12 -55 5 0 15 16
23 36 11 32 14 33 25 18 7 -10 13 -26 13 -36 0 -10 7 -18 15 -18 12 0 11 9 -6
53 -12 28 -25 62 -30 75 -5 12 -15 22 -24 22 -14 0 -14 -3 1 -25z"/>
<path d="M2081 5706 c-9 -10 -7 -17 6 -27 10 -8 14 -9 10 -2 -5 9 8 13 45 16
l53 3 -53 2 c-33 1 -51 6 -47 12 9 15 -1 12 -14 -4z"/>
<path d="M2800 6919 c0 -45 4 -79 10 -80 6 0 40 -1 78 -2 l67 -1 3 80 3 80
-81 1 -80 0 0 -78z m147 -9 l0 -60 -65 0 -66 0 59 60 c33 33 62 60 65 60 4 0
7 -27 7 -60z"/>
<path d="M2686 6946 c-4 -19 -16 -46 -28 -61 -14 -18 -17 -26 -7 -23 8 2 24
19 37 38 12 18 22 27 22 19 1 -18 37 -66 44 -58 4 3 -3 23 -14 45 -10 21 -21
47 -24 57 -9 28 -23 20 -30 -17z"/>
<path d="M2645 6410 c-3 -5 1 -10 9 -10 9 0 16 5 16 10 0 6 -4 10 -9 10 -6 0
-13 -4 -16 -10z"/>
<path d="M2633 5796 c3 -8 11 -32 18 -55 14 -48 28 -52 52 -12 19 32 23 81 7
81 -5 0 -10 -11 -10 -24 0 -29 -9 -56 -19 -56 -5 0 -13 18 -20 40 -6 22 -17
40 -22 40 -6 0 -9 -6 -6 -14z"/>
<path d="M2651 5333 c15 -17 13 -54 -3 -64 -16 -10 15 -17 37 -8 11 4 14 8 8
8 -8 1 -13 16 -13 41 0 34 -3 40 -21 40 -19 0 -20 -2 -8 -17z"/>
<path d="M2723 5276 c-24 -40 -43 -76 -43 -80 0 -14 19 5 33 32 8 15 27 48 41
75 15 26 24 47 19 47 -4 0 -27 -33 -50 -74z"/>
<path d="M2789 5301 c-32 -33 -39 -80 -14 -105 14 -13 13 -16 -2 -24 -14 -8
-7 -12 31 -17 39 -6 51 -4 64 10 16 16 16 17 -3 8 -11 -6 -31 -7 -45 -3 l-25
7 26 11 c57 23 87 93 53 126 -23 24 -52 19 -85 -13z m74 5 c16 -42 -36 -122
-70 -109 -19 8 -10 79 14 105 19 22 49 23 56 4z"/>
<path d="M2655 4920 c17 -19 17 -21 0 -40 -16 -18 -16 -20 -2 -20 10 0 17 5
17 10 0 15 21 12 42 -7 10 -9 18 -11 18 -6 0 6 -7 16 -15 23 -14 12 -14 15 1
31 10 11 14 22 11 26 -4 3 -15 -1 -26 -11 -16 -15 -19 -15 -31 -1 -7 8 -17 15
-23 15 -5 0 -2 -9 8 -20z"/>
<path d="M2680 4560 c0 -14 -7 -20 -21 -20 -11 0 -18 -4 -14 -10 3 -5 12 -7
20 -3 11 4 15 -2 15 -21 0 -14 5 -26 10 -26 6 0 10 11 10 24 0 18 7 26 23 29
l22 4 -22 2 c-16 1 -23 7 -23 21 0 11 -4 20 -10 20 -5 0 -10 -9 -10 -20z"/>
<path d="M3914 6691 c-2 -2 -4 -28 -4 -58 0 -29 -2 -53 -5 -53 -2 0 -21 8 -41
17 -35 17 -36 17 -50 -2 -17 -22 -19 -137 -4 -166 13 -23 31 -24 70 -4 l29 15
3 -137 3 -138 1150 0 1150 0 0 265 0 265 -1148 0 c-632 0 -1151 -2 -1153 -4z
m2286 -261 l0 -247 -1135 0 -1135 0 0 118 c0 64 -3 124 -6 133 -8 21 -33 20
-63 0 -19 -14 -25 -14 -32 -3 -14 23 -14 137 0 152 5 4 25 0 45 -10 46 -21 56
-11 56 58 l0 46 1135 -1 1135 0 0 -246z"/>
<path d="M4770 6565 c0 -30 -2 -55 -5 -55 -2 0 -21 8 -41 17 -35 17 -36 17
-50 -2 -18 -24 -18 -141 -1 -173 l13 -22 37 19 c44 22 45 21 49 -59 l3 -55
205 0 205 0 3 193 2 192 -210 0 -210 0 0 -55z m400 -135 l0 -177 -190 0 -190
0 0 48 c0 81 -13 93 -70 64 -37 -19 -42 -11 -43 71 -1 80 8 91 56 68 20 -10
40 -15 44 -11 3 4 8 31 11 60 l4 54 189 0 189 0 0 -177z"/>
<path d="M4958 6476 c-23 -17 -23 -29 0 -17 16 9 18 5 17 -37 -1 -35 -6 -48
-18 -50 -35 -7 -15 -22 29 -22 27 0 43 4 39 10 -3 6 -12 10 -18 10 -9 0 -12
19 -12 60 1 62 -6 70 -37 46z"/>
<path d="M5660 6565 c0 -30 -4 -55 -9 -55 -5 0 -23 8 -40 17 -23 14 -33 15
-42 6 -28 -28 -27 -176 2 -193 9 -6 25 -2 47 10 38 23 40 20 44 -60 l3 -55
205 0 205 0 0 190 0 190 -207 3 -208 2 0 -55z m398 -136 l2 -175 -190 -1
c-104 0 -190 3 -191 6 0 3 -2 29 -4 56 -1 28 -3 53 -4 58 -2 13 -36 8 -60 -9
-17 -12 -25 -14 -34 -5 -13 13 -17 145 -5 157 4 4 26 -1 48 -11 22 -10 43 -15
47 -12 3 4 7 30 9 59 1 29 3 53 3 54 1 0 85 0 189 0 l187 -1 3 -176z"/>
<path d="M5830 6471 c-5 -11 -10 -34 -10 -51 0 -44 17 -70 45 -70 36 0 59 40
50 87 -4 21 -12 41 -18 45 -22 14 -56 8 -67 -11z m64 -24 c9 -36 7 -55 -10
-72 -12 -12 -19 -13 -30 -4 -18 14 -19 96 -1 102 20 7 35 -3 41 -26z"/>
<path d="M4224 6492 c-7 -4 -15 -25 -18 -46 -9 -56 -16 -57 -16 -3 l0 47 -65
0 -65 0 0 -80 0 -80 65 0 c37 0 65 4 65 10 0 6 9 10 20 10 12 0 32 11 46 25
31 31 30 70 -1 69 -17 0 -20 5 -17 28 5 30 3 32 -14 20z m-45 -82 l0 -70 -55
0 -54 0 0 70 0 70 55 0 54 0 0 -70z m71 2 c0 -21 -26 -60 -34 -51 -8 8 14 69
25 69 5 0 9 -8 9 -18z"/>
<path d="M4095 6460 c-4 -6 -4 -14 -1 -17 3 -4 6 -1 6 5 0 7 11 12 25 12 18 0
25 -5 25 -19 0 -10 -7 -21 -15 -25 -8 -3 -15 -10 -15 -16 0 -6 9 -2 21 9 28
25 21 55 -13 59 -14 2 -29 -2 -33 -8z"/>
<path d="M4110 6360 c0 -5 4 -10 9 -10 6 0 13 5 16 10 3 6 -1 10 -9 10 -9 0
-16 -4 -16 -10z"/>
<path d="M5370 6450 c0 -14 -7 -20 -22 -20 -18 0 -20 -2 -8 -9 8 -6 18 -7 22
-5 4 3 8 -6 8 -20 0 -14 5 -26 10 -26 6 0 10 11 10 24 0 19 4 24 20 21 11 -2
20 0 20 6 0 5 -9 9 -20 9 -13 0 -20 7 -20 20 0 11 -4 20 -10 20 -5 0 -10 -9
-10 -20z"/>
<path d="M4463 6436 c14 -21 14 -26 2 -36 -8 -7 -15 -17 -15 -23 0 -5 9 -2 19
7 15 14 24 15 40 7 30 -17 36 -13 16 9 -17 19 -17 21 0 40 10 11 13 20 8 20
-6 0 -16 -7 -23 -15 -12 -14 -15 -14 -30 0 -25 23 -34 18 -17 -9z"/>
<path d="M6740 6565 c0 -30 -4 -55 -9 -55 -5 0 -23 8 -41 18 -30 16 -32 16
-45 -2 -15 -20 -20 -120 -8 -164 6 -25 21 -26 80 -7 21 7 22 4 25 -56 l3 -64
350 0 350 0 1 193 1 192 -353 0 -354 0 0 -55z m688 -136 l2 -175 -335 -1 -335
0 0 48 c0 82 -13 93 -71 64 -27 -15 -30 -14 -36 2 -9 22 -9 141 0 150 4 3 25
-2 48 -12 49 -23 59 -14 59 56 l0 46 333 -1 332 -1 3 -176z"/>
<path d="M6916 6474 c-19 -19 -20 -82 -2 -106 7 -10 23 -18 36 -18 13 0 29 8
36 18 16 21 18 76 4 103 -13 23 -53 25 -74 3z m62 -51 c2 -33 -1 -44 -17 -52
-16 -9 -22 -8 -31 8 -11 22 -14 74 -3 85 4 4 16 6 28 4 16 -2 21 -12 23 -45z"/>
<path d="M7083 6468 c-6 -14 -7 -32 -2 -47 8 -19 15 -22 39 -19 32 5 35 1 21
-21 -6 -9 -18 -11 -35 -7 -15 4 -26 2 -26 -4 0 -20 50 -23 70 -5 25 22 27 87
4 109 -23 23 -59 20 -71 -6z m65 -24 c4 -25 -24 -40 -43 -24 -7 6 -11 20 -8
31 7 27 47 22 51 -7z"/>
<path d="M7202 6478 c-7 -7 -12 -21 -12 -32 0 -35 15 -49 47 -44 26 3 29 1 25
-15 -4 -16 -11 -18 -39 -14 -29 5 -33 4 -23 -8 16 -20 54 -19 71 1 17 20 17
88 0 108 -16 19 -52 21 -69 4z m56 -35 c-4 -34 -33 -43 -43 -14 -8 27 1 41 26
41 16 0 20 -6 17 -27z"/>
<path d="M7025 6360 c3 -5 10 -10 16 -10 5 0 9 5 9 10 0 6 -7 10 -16 10 -8 0
-12 -4 -9 -10z"/>
<path d="M7919 6613 c0 -5 -1 -27 -1 -50 0 -24 -3 -45 -8 -48 -5 -3 -22 3 -39
12 -28 17 -31 17 -47 1 -18 -18 -26 -95 -15 -149 8 -40 38 -50 77 -25 18 13
24 13 26 4 2 -21 6 -71 7 -98 l1 -25 203 0 c111 -1 204 2 207 6 4 6 5 338 1
372 -1 4 -93 7 -206 7 -113 0 -205 -3 -206 -7z m396 -183 l0 -175 -190 0 -190
0 -1 53 c-1 69 -13 81 -60 58 -20 -9 -39 -14 -42 -11 -11 11 -13 140 -3 155 9
13 15 13 46 -4 45 -24 56 -15 60 51 2 26 3 48 4 49 1 1 85 1 189 0 l187 -1 0
-175z"/>
<path d="M8102 6478 c-17 -17 -15 -33 3 -18 13 11 15 6 15 -39 0 -38 -4 -51
-14 -51 -8 0 -18 -4 -21 -10 -4 -6 12 -10 39 -10 27 0 46 5 46 11 0 6 -7 9
-15 5 -12 -4 -15 6 -15 59 0 66 -10 81 -38 53z"/>
<path d="M8800 6565 c0 -30 -2 -55 -5 -55 -4 0 -20 7 -37 16 -31 16 -32 16
-51 -7 -16 -19 -18 -36 -15 -91 5 -90 19 -105 71 -78 l37 20 1 -37 c1 -21 1
-42 0 -47 -1 -6 0 -19 3 -31 5 -20 11 -20 208 -20 l203 0 3 193 2 192 -210 0
-210 0 0 -55z m385 40 c19 -4 20 -12 19 -177 l-1 -173 -191 -1 -192 -1 0 59
c0 68 -12 78 -60 53 -42 -22 -50 -11 -50 70 0 82 10 95 50 72 46 -28 60 -17
60 46 l0 54 173 1 c94 0 181 -1 192 -3z"/>
<path d="M8976 6468 c-44 -63 17 -154 68 -102 18 18 21 76 6 105 -14 26 -55
24 -74 -3z m62 -51 c-2 -32 -8 -43 -22 -45 -33 -7 -45 33 -26 83 8 22 13 24
30 15 17 -9 21 -19 18 -53z"/>
<path d="M6420 6482 c-54 -17 -68 -86 -25 -120 21 -17 32 -19 58 -11 17 5 33
9 34 9 10 0 18 69 10 87 -11 24 -53 43 -77 35z m50 -32 c25 -25 25 -45 -1 -71
-20 -20 -51 -19 -73 1 -15 15 -9 63 10 77 25 18 41 16 64 -7z"/>
<path d="M6400 6441 c0 -6 5 -13 10 -16 7 -4 7 -13 0 -26 -11 -20 3 -28 15 -9
5 8 11 7 21 -1 18 -15 31 -4 16 14 -9 10 -9 16 0 25 16 16 2 28 -16 13 -10 -8
-16 -9 -21 -1 -8 13 -25 13 -25 1z"/>
<path d="M3407 6448 c-31 -23 -35 -57 -9 -81 24 -22 55 -21 75 1 25 27 21 58
-11 80 -27 20 -28 20 -55 0z m19 -85 c-3 -3 -12 0 -21 7 -20 17 -19 57 3 69
15 8 17 5 20 -31 2 -22 1 -43 -2 -45z m50 51 c6 -24 -9 -54 -27 -54 -5 0 -9
20 -9 45 0 35 3 43 15 39 8 -4 18 -17 21 -30z"/>
<path d="M8521 6453 c-1 -18 -7 -23 -28 -23 -29 0 -26 -10 4 -14 10 -2 19 -13
21 -24 5 -30 20 -28 17 2 -2 19 1 24 16 21 10 -2 21 0 24 6 4 5 -3 9 -15 9
-12 0 -24 9 -30 23 l-9 22 0 -22z"/>
<path d="M7605 6440 c17 -19 17 -21 0 -40 -14 -16 -15 -20 -4 -20 8 0 20 5 27
12 8 8 15 8 27 -2 8 -7 18 -10 22 -6 4 3 -2 12 -11 19 -17 13 -17 14 -1 31 23
22 11 34 -14 12 -16 -15 -19 -15 -31 -1 -7 8 -17 15 -23 15 -5 0 -2 -9 8 -20z"/>
<path d="M3981 5990 c2 -27 0 -52 -3 -56 -4 -3 -20 2 -36 10 -17 9 -38 13 -46
10 -32 -12 -34 -161 -2 -192 13 -13 17 -13 40 1 14 10 30 17 36 17 6 0 10 -47
10 -130 0 -71 3 -131 8 -131 21 -4 2279 -5 2290 -1 9 3 12 65 12 263 l0 259
-1155 0 -1156 0 2 -50z m2282 31 c4 -1 7 -111 7 -246 l0 -245 -1135 0 -1135 0
0 130 c0 146 -4 154 -60 125 -42 -22 -50 -11 -50 70 0 82 8 92 53 70 20 -9 41
-14 46 -10 6 3 11 28 11 55 0 37 4 49 17 52 14 2 2224 2 2246 -1z"/>
<path d="M4840 5915 c0 -30 -2 -55 -5 -55 -4 0 -19 7 -35 15 -38 20 -58 10
-66 -31 -9 -51 1 -144 16 -154 8 -5 28 -3 48 6 19 8 36 14 38 14 2 0 4 -28 6
-62 l3 -63 205 0 205 0 3 193 2 192 -210 0 -210 0 0 -55z m396 33 c7 -7 7
-325 0 -337 -3 -4 -89 -8 -191 -8 l-185 0 0 51 c0 74 -10 85 -55 63 -20 -10
-41 -15 -46 -12 -5 4 -9 39 -9 80 0 41 4 76 9 80 5 3 26 -2 46 -12 44 -21 55
-11 55 54 0 31 4 42 17 45 30 6 352 2 359 -4z"/>
<path d="M5028 5829 c-10 -5 -18 -15 -18 -21 0 -7 5 -6 15 2 12 10 15 10 16
-1 0 -8 2 -27 3 -43 1 -18 -6 -36 -18 -48 -19 -18 -19 -18 28 -18 29 0 45 4
41 10 -3 6 -12 10 -20 10 -11 0 -13 14 -12 60 2 61 -3 68 -35 49z"/>
<path d="M5730 5915 c0 -30 -2 -55 -4 -55 -2 0 -20 7 -39 15 -32 13 -37 13
-52 -2 -14 -13 -16 -32 -13 -94 4 -94 13 -108 59 -85 18 9 36 16 41 16 4 0 8
-28 8 -63 l0 -62 203 1 c111 1 205 2 210 3 4 0 7 87 7 191 l0 190 -210 0 -210
0 0 -55z m378 36 c22 -1 22 -2 22 -174 l0 -173 -190 -1 -190 0 0 41 c0 85 -16
102 -66 70 -36 -24 -49 -6 -48 71 0 78 12 95 48 71 48 -31 66 -15 66 61 0 17
5 33 10 35 9 3 282 2 348 -1z"/>
<path d="M5906 5824 c-18 -18 -21 -76 -6 -105 23 -43 90 -8 90 48 0 62 -47 94
-84 57z m60 -29 c2 -11 1 -33 -2 -48 -5 -22 -11 -27 -27 -25 -17 2 -23 11 -25
36 -2 19 -1 41 2 49 8 21 49 12 52 -12z"/>
<path d="M4295 5842 c-6 -4 -11 -16 -13 -27 -1 -11 -6 -34 -11 -50 -8 -27 -9
-25 -10 23 l-1 52 -65 0 c-56 0 -65 -3 -64 -17 0 -11 3 -13 6 -5 3 7 25 12 59
12 l54 0 0 -70 0 -70 -56 0 c-46 0 -55 3 -50 15 3 8 1 15 -5 15 -6 0 -9 -8 -7
-17 3 -15 16 -19 66 -21 38 -2 62 1 62 8 0 5 10 10 23 10 34 0 67 35 67 72 0
26 -3 30 -21 25 -18 -5 -20 -2 -16 19 5 26 -3 37 -18 26z m25 -86 c0 -23 -22
-51 -32 -40 -8 7 14 64 24 64 4 0 8 -11 8 -24z"/>
<path d="M4165 5809 c-4 -6 -4 -13 -1 -16 3 -4 6 -1 6 5 0 16 47 15 56 0 4 -7
-2 -18 -14 -26 -12 -8 -22 -19 -22 -24 0 -5 12 2 27 16 22 21 24 27 14 40 -15
18 -57 21 -66 5z"/>
<path d="M5442 5803 c2 -12 -4 -19 -20 -21 -12 -2 -20 -7 -17 -12 3 -5 12 -7
20 -3 14 5 19 -6 16 -34 -1 -7 3 -13 9 -13 5 0 10 12 10 26 0 14 4 23 8 20 4
-2 14 -1 22 5 12 7 10 9 -7 9 -16 0 -23 6 -23 20 0 11 -5 20 -10 20 -6 0 -10
-8 -8 -17z"/>
<path d="M4535 5790 c17 -19 17 -21 0 -40 -20 -22 -14 -26 17 -9 14 8 23 8 31
0 19 -19 31 -12 14 7 -15 16 -15 20 -1 40 17 25 3 30 -16 7 -12 -14 -15 -14
-30 0 -24 22 -36 18 -15 -5z"/>
<path d="M4180 5710 c0 -5 7 -10 15 -10 8 0 15 5 15 10 0 6 -7 10 -15 10 -8 0
-15 -4 -15 -10z"/>
<path d="M6740 5915 c0 -30 -2 -55 -5 -55 -4 0 -20 7 -37 16 -31 16 -33 16
-50 -6 -13 -16 -18 -39 -18 -79 0 -99 20 -127 66 -96 37 24 43 19 46 -47 l3
-63 265 0 265 0 0 190 0 190 -267 3 -268 2 0 -55z m499 36 c18 -1 19 -10 18
-173 l-2 -173 -247 -1 -248 -1 0 48 c0 81 -15 96 -66 63 -17 -12 -28 -14 -35
-7 -13 13 -13 143 -1 155 5 5 24 2 46 -9 45 -21 56 -11 56 53 0 22 2 43 4 45
4 3 408 3 475 0z"/>
<path d="M6923 5833 c-7 -2 -13 -12 -13 -20 0 -14 2 -14 19 1 17 16 20 16 36
0 15 -16 14 -19 -24 -58 -23 -23 -41 -45 -41 -49 0 -4 23 -7 50 -7 28 0 50 4
50 9 0 4 -16 7 -35 6 -42 -2 -44 7 -7 35 33 26 43 49 30 73 -8 16 -39 21 -65
10z"/>
<path d="M7030 5825 c-7 -9 -13 -33 -13 -55 0 -22 6 -46 13 -55 16 -20 54 -19
71 1 16 20 15 89 -1 109 -16 19 -54 19 -70 0z m62 -30 c9 -46 -2 -75 -28 -75
-23 0 -26 6 -26 45 0 49 3 55 26 55 17 0 25 -7 28 -25z"/>
<path d="M7744 5919 c1 -28 -2 -53 -6 -55 -4 -3 -22 3 -39 11 -49 26 -64 4
-64 -90 0 -95 15 -116 65 -90 17 9 34 14 37 11 3 -3 6 -30 6 -61 1 -30 4 -56
7 -56 3 -1 148 -2 323 -3 l317 -1 0 192 0 193 -324 0 -323 0 1 -51z m616 32
c13 -1 15 -26 14 -168 -1 -93 -2 -171 -3 -174 0 -3 -137 -5 -303 -5 l-303 1
-3 58 c-4 67 -16 78 -62 50 -40 -23 -50 -10 -50 72 0 81 8 92 50 70 47 -24 60
-14 60 44 0 38 4 50 17 53 14 3 543 2 583 -1z"/>
<path d="M7922 5832 c-7 -5 -12 -22 -10 -38 1 -16 -1 -35 -6 -42 -4 -6 -2 -21
4 -32 8 -16 19 -20 42 -18 38 4 58 30 42 55 -8 13 -8 23 -1 35 21 33 -33 63
-71 40z m58 -27 c0 -15 -27 -28 -41 -19 -13 8 -11 32 4 37 18 6 37 -3 37 -18z
m-16 -41 c23 -9 20 -41 -4 -47 -25 -6 -45 24 -28 41 14 14 12 14 32 6z"/>
<path d="M8030 5821 c-5 -11 -10 -34 -10 -51 0 -69 52 -96 86 -45 19 29 14 93
-8 107 -23 14 -57 9 -68 -11z m54 -7 c34 -33 5 -122 -30 -93 -17 14 -18 81 -2
97 15 15 13 15 32 -4z"/>
<path d="M8150 5825 c-16 -20 -17 -89 -1 -109 17 -20 55 -21 72 0 17 20 17 88
0 108 -17 20 -55 21 -71 1z m61 -20 c1 -8 1 -24 1 -35 0 -45 -3 -50 -26 -50
-27 0 -34 21 -27 73 2 21 9 27 27 27 14 0 24 -6 25 -15z"/>
<path d="M8860 5915 c0 -30 -2 -55 -5 -55 -4 0 -19 7 -35 15 -16 8 -35 12 -43
9 -17 -6 -27 -48 -27 -108 0 -85 20 -107 70 -81 16 8 31 15 34 15 3 0 6 -28 8
-62 l3 -63 370 -1 c204 0 376 2 383 4 9 3 12 51 12 193 l0 189 -385 0 -385 0
0 -55z m743 36 c4 -1 7 -79 7 -174 l0 -174 -365 0 -365 0 0 59 c0 68 -12 78
-59 53 -18 -9 -36 -13 -41 -10 -13 8 -13 152 -1 160 5 3 26 -2 46 -12 44 -21
55 -11 55 57 l0 45 357 -2 c197 0 361 -1 366 -2z"/>
<path d="M9051 5826 c-9 -10 -8 -15 4 -19 10 -5 14 -19 13 -47 -1 -32 -5 -40
-20 -40 -10 0 -18 -4 -18 -10 0 -5 20 -10 45 -10 25 0 45 5 45 10 0 6 -7 10
-15 10 -16 0 -16 1 -18 73 0 48 -14 60 -36 33z"/>
<path d="M9150 5821 c-5 -11 -10 -34 -10 -51 0 -44 17 -70 45 -70 36 0 59 40
50 87 -4 21 -12 41 -18 45 -22 14 -56 8 -67 -11z m64 -24 c9 -36 7 -55 -10
-72 -23 -23 -44 -2 -44 44 0 58 40 79 54 28z"/>
<path d="M9266 5818 c-36 -50 -4 -127 47 -114 55 14 51 127 -5 134 -18 2 -31
-4 -42 -20z m62 -52 c-2 -33 -7 -42 -25 -44 -25 -4 -38 26 -28 66 15 61 58 43
53 -22z"/>
<path d="M9380 5821 c-5 -11 -10 -34 -10 -51 0 -17 5 -40 10 -51 13 -23 53
-25 71 -2 19 22 18 101 -1 113 -25 16 -59 11 -70 -9z m60 -11 c6 -11 8 -36 4
-56 -5 -28 -10 -35 -28 -32 -29 4 -36 76 -10 95 23 16 21 17 34 -7z"/>
<path d="M3393 5824 c-2 -6 -3 -42 -1 -80 l3 -69 65 0 c36 0 71 1 78 3 8 3 12
28 12 81 l0 78 -76 -1 c-48 0 -78 -4 -81 -12z m82 -74 l59 -60 -65 0 -65 0 -1
60 c0 33 2 60 6 60 4 0 33 -27 66 -60z"/>
<path d="M8578 5814 c-4 -3 -4 -12 -1 -20 4 -10 -3 -14 -23 -15 l-29 -1 28
-11 c17 -7 27 -18 27 -31 0 -16 2 -18 9 -7 5 8 7 21 3 29 -4 12 0 14 16 10 12
-4 25 -2 28 3 3 5 -4 9 -16 9 -12 0 -24 9 -28 20 -4 12 -11 18 -14 14z"/>
<path d="M6420 5808 c0 -20 42 -103 51 -103 18 0 51 68 43 89 -10 25 -19 19
-21 -14 -1 -17 -6 -37 -11 -46 -7 -12 -13 -5 -26 30 -10 25 -22 46 -27 46 -5
0 -9 -1 -9 -2z"/>
<path d="M7435 5790 c17 -19 17 -21 0 -40 -16 -18 -16 -20 -2 -20 10 0 17 5
17 10 0 15 26 12 40 -5 7 -9 15 -13 18 -10 3 3 -2 13 -12 24 -15 16 -15 19 -1
31 24 20 17 34 -9 17 -21 -14 -26 -14 -36 -2 -7 8 -17 15 -23 15 -5 0 -2 -9 8
-20z"/>
<path d="M3730 5754 c0 -8 5 -12 10 -9 6 3 10 10 10 16 0 5 -4 9 -10 9 -5 0
-10 -7 -10 -16z"/>
<path d="M3390 5311 c-14 -27 -12 -82 4 -103 32 -43 86 -9 86 52 0 22 -7 45
-16 54 -21 22 -61 20 -74 -3z m70 -51 c0 -28 -5 -42 -18 -49 -26 -14 -42 5
-42 49 0 44 16 63 42 49 13 -7 18 -21 18 -49z"/>
<path d="M3565 5313 c-33 -82 17 -159 69 -107 18 18 21 76 6 105 -14 25 -65
26 -75 2z m63 -57 c-2 -31 -8 -42 -22 -44 -36 -7 -51 62 -20 93 25 25 46 1 42
-49z"/>
<path d="M3698 5319 c-10 -5 -18 -15 -18 -21 0 -7 5 -6 15 2 13 11 15 5 15
-43 0 -44 -3 -55 -14 -51 -8 3 -17 1 -21 -5 -4 -7 12 -11 46 -11 29 0 49 3 45
8 -4 4 -13 7 -19 7 -8 0 -13 23 -15 63 -3 64 -5 68 -34 51z"/>
<path d="M3505 5200 c3 -5 10 -10 16 -10 5 0 9 5 9 10 0 6 -7 10 -16 10 -8 0
-12 -4 -9 -10z"/>
<path d="M3396 4954 c-19 -19 -20 -82 -2 -106 31 -42 86 -7 86 55 0 39 -21 67
-50 67 -10 0 -26 -7 -34 -16z m62 -57 c-2 -32 -8 -43 -22 -45 -33 -7 -48 47
-26 89 9 16 15 17 31 8 16 -8 19 -19 17 -52z"/>
<path d="M3583 4963 c-7 -2 -13 -12 -13 -20 0 -12 3 -13 15 -3 12 10 14 4 12
-42 -2 -44 -5 -53 -20 -50 -9 2 -17 -2 -17 -8 0 -5 21 -10 48 -10 43 1 46 2
28 15 -15 12 -20 27 -19 70 0 54 -5 60 -34 48z"/>
<path d="M3505 4840 c-3 -5 1 -10 9 -10 9 0 16 5 16 10 0 6 -4 10 -9 10 -6 0
-13 -4 -16 -10z"/>
<path d="M3396 4584 c-9 -9 -16 -32 -16 -54 0 -42 20 -70 50 -70 43 0 66 71
40 121 -13 23 -53 25 -74 3z m62 -57 c-3 -37 -6 -42 -28 -42 -22 0 -25 5 -28
38 -4 48 12 71 40 56 15 -8 18 -19 16 -52z"/>
<path d="M2053 4223 c-7 -2 -13 -12 -13 -21 0 -12 3 -13 12 -4 14 14 45 16 53
2 3 -5 -12 -29 -35 -53 -22 -24 -40 -47 -40 -51 0 -3 23 -6 52 -6 28 0 48 3
44 8 -8 7 -13 9 -48 11 -23 2 -23 2 3 25 15 13 32 34 39 46 11 20 10 25 -6 37
-18 13 -39 15 -61 6z"/>
<path d="M1530 3810 c0 -27 5 -50 10 -50 6 0 10 23 10 50 0 28 -4 50 -10 50
-5 0 -10 -22 -10 -50z"/>
<path d="M1530 2110 c0 -5 4 -10 9 -10 18 0 17 -35 -1 -72 -19 -40 -23 -58
-10 -58 4 0 14 16 21 35 14 40 26 39 34 -5 6 -27 27 -43 27 -20 0 26 -54 140
-66 140 -8 0 -14 -4 -14 -10z"/>
<path d="M1550 330 c0 -12 -7 -20 -17 -21 -11 0 -13 -3 -5 -6 19 -7 15 -43 -5
-43 -15 0 -15 -2 -4 -9 8 -5 11 -16 8 -25 -4 -9 -3 -16 2 -16 5 0 11 9 14 20
3 11 13 20 22 20 12 0 16 -6 12 -20 -3 -11 -1 -20 4 -20 5 0 9 9 9 20 0 12 7
20 18 21 10 0 12 3 5 6 -19 7 -16 30 5 42 9 6 11 11 5 11 -7 0 -13 10 -14 23
l0 22 -9 -22 c-12 -29 -45 -32 -37 -3 3 11 1 20 -4 20 -5 0 -9 -9 -9 -20z m40
-45 c0 -16 -27 -32 -37 -22 -3 4 -3 13 0 22 8 20 37 20 37 0z"/>
<path d="M2056 3474 c16 -24 16 -28 -4 -70 -25 -50 -26 -54 -13 -54 5 0 14 14
21 30 7 17 16 30 20 30 5 0 11 -13 15 -30 4 -16 13 -30 21 -30 11 0 9 11 -7
53 -12 28 -25 62 -30 75 -5 12 -15 22 -24 22 -14 0 -13 -3 1 -26z"/>
<path d="M2081 1826 c-9 -10 -7 -17 6 -27 10 -8 14 -9 10 -2 -5 9 8 13 45 16
l53 3 -53 2 c-33 1 -51 6 -47 12 9 15 -1 12 -14 -4z"/>
<path d="M2802 3047 l3 -80 78 -1 77 -1 0 81 0 81 -80 0 -81 0 3 -80z m146 -2
l0 -65 -66 0 -66 0 64 65 c35 36 65 65 66 65 1 0 2 -29 2 -65z"/>
<path d="M2686 3076 c-4 -19 -16 -46 -27 -60 -15 -19 -17 -26 -6 -26 7 0 22
16 33 35 l19 35 18 -35 c9 -19 22 -35 28 -35 6 0 9 3 7 8 -25 52 -37 80 -42
95 -9 28 -23 20 -30 -17z"/>
<path d="M2645 2540 c-3 -5 1 -10 9 -10 9 0 16 5 16 10 0 6 -4 10 -9 10 -6 0
-13 -4 -16 -10z"/>
<path d="M2633 1926 c3 -8 11 -32 18 -55 7 -23 18 -41 25 -41 17 0 52 69 46
93 -5 25 -17 21 -20 -9 -1 -14 -7 -35 -13 -47 -11 -20 -13 -18 -26 26 -7 26
-18 47 -24 47 -6 0 -9 -6 -6 -14z"/>
<path d="M2640 1469 c0 -5 5 -7 10 -4 6 3 11 -2 11 -12 2 -30 -2 -48 -14 -55
-7 -4 4 -7 23 -7 19 0 29 3 23 6 -8 2 -13 22 -13 44 0 32 -3 39 -20 39 -11 0
-20 -5 -20 -11z"/>
<path d="M2721 1404 c-24 -41 -41 -77 -38 -80 4 -5 97 140 97 151 0 20 -22 -7
-59 -71z"/>
<path d="M2843 1453 c17 -4 20 -9 20 -38 0 -37 -5 -47 -28 -71 -21 -21 -29
-23 -40 -14 -21 17 -19 49 5 88 24 38 10 43 -19 6 -25 -31 -27 -76 -6 -94 14
-11 14 -15 1 -29 -13 -14 -10 -16 33 -19 35 -2 52 2 62 14 13 16 12 16 -6 7
-11 -5 -31 -7 -45 -3 l-25 7 26 11 c34 14 69 58 69 88 0 27 -25 54 -48 53 -15
-1 -15 -2 1 -6z"/>
<path d="M2655 1040 c17 -19 17 -21 0 -40 -16 -18 -16 -20 -2 -20 10 0 17 5
17 10 0 15 26 12 40 -5 7 -9 15 -13 18 -10 3 3 -2 13 -12 24 -15 16 -15 19 -1
31 24 20 17 34 -9 17 -21 -14 -26 -14 -36 -2 -7 8 -17 15 -23 15 -5 0 -2 -9 8
-20z"/>
<path d="M2680 680 c0 -14 -7 -20 -22 -20 -18 0 -20 -2 -8 -9 8 -6 18 -7 22
-5 4 3 8 -6 8 -20 0 -14 5 -26 10 -26 6 0 10 12 10 26 0 21 4 25 20 21 11 -3
20 -1 20 4 0 5 -9 9 -20 9 -13 0 -20 7 -20 20 0 11 -4 20 -10 20 -5 0 -10 -9
-10 -20z"/>
<path d="M3920 2812 c-5 -2 -10 -28 -10 -58 0 -57 -4 -62 -34 -39 -50 38 -76
8 -76 -85 0 -93 26 -123 76 -85 10 8 22 15 27 15 4 0 7 -61 7 -135 l0 -135
1155 0 1155 0 0 260 c0 143 -3 261 -7 261 -19 3 -2284 4 -2293 1z m2280 -259
l0 -248 -1117 1 c-615 1 -1126 2 -1135 3 -16 1 -18 14 -18 124 0 141 -5 154
-56 129 -46 -21 -56 -9 -55 68 0 78 9 89 55 68 43 -21 56 -9 56 54 l0 48 1135
0 1135 0 0 -247z"/>
<path d="M4774 2741 c-2 -2 -4 -28 -4 -58 0 -29 -2 -53 -5 -53 -2 0 -21 8 -41
17 -35 17 -36 17 -50 -2 -17 -22 -19 -137 -4 -166 13 -23 39 -25 66 -4 31 23
34 19 34 -50 l0 -65 210 0 210 0 0 190 c0 145 -3 190 -12 191 -35 4 -400 3
-404 0z m394 -188 c1 -95 -1 -173 -5 -174 -29 -3 -350 -4 -360 -1 -8 3 -13 24
-13 57 0 67 -15 81 -57 56 -45 -28 -56 -15 -56 64 0 82 10 94 58 71 20 -10 39
-15 42 -12 4 3 8 30 11 59 l4 54 187 -1 186 -1 3 -172z"/>
<path d="M4958 2609 c-10 -5 -18 -15 -18 -21 0 -7 5 -6 15 2 8 7 15 11 16 9 3
-18 4 -77 1 -86 -2 -7 -10 -13 -18 -13 -8 0 -14 -4 -14 -10 0 -5 21 -10 46
-10 27 0 43 4 39 10 -3 6 -12 10 -19 10 -9 0 -13 17 -12 57 1 59 -7 69 -36 52z"/>
<path d="M5664 2741 c-2 -2 -4 -28 -4 -58 0 -29 -2 -53 -5 -53 -2 0 -20 8 -40
17 -50 24 -65 7 -67 -78 -2 -107 14 -127 78 -94 l29 15 3 -65 3 -65 210 0 210
0 -2 184 c-1 101 -4 188 -8 193 -6 8 -398 13 -407 4z m394 -191 l2 -175 -182
2 c-101 1 -188 2 -193 2 -6 1 -10 22 -9 49 0 26 -3 55 -8 65 -8 16 -11 16 -48
-3 -37 -19 -40 -19 -48 -3 -8 15 -9 82 -4 138 2 19 19 19 57 -1 27 -14 30 -14
42 2 7 10 11 35 10 55 -2 21 1 40 7 42 6 2 92 4 191 3 l180 -1 3 -175z"/>
<path d="M5830 2601 c-5 -11 -10 -34 -10 -51 0 -44 17 -70 45 -70 28 0 55 34
55 70 0 58 -66 95 -90 51z m68 -44 c3 -43 -22 -74 -44 -56 -17 14 -19 80 -2
97 19 19 44 -3 46 -41z"/>
<path d="M4216 2623 c-10 -3 -14 -8 -9 -12 7 -4 6 -18 -3 -41 l-12 -35 -1 43
-1 42 -65 0 -65 0 0 -80 0 -80 65 0 c37 0 65 4 65 10 0 6 11 10 24 10 15 0 33
11 46 27 26 33 23 68 -5 67 -17 0 -20 5 -17 28 2 15 3 27 1 27 -2 -1 -13 -4
-23 -6z m-36 -83 l0 -70 -55 0 -55 0 0 70 0 70 55 0 55 0 0 -70z m70 2 c0 -21
-26 -60 -34 -51 -8 8 14 69 25 69 5 0 9 -8 9 -18z"/>
<path d="M4095 2590 c-4 -6 -4 -14 -1 -17 3 -4 6 -1 6 5 0 7 11 12 25 12 18 0
25 -5 25 -19 0 -10 -7 -21 -15 -25 -8 -3 -15 -10 -15 -16 0 -6 9 -2 21 9 28
25 21 55 -13 59 -14 2 -29 -2 -33 -8z"/>
<path d="M4110 2490 c0 -5 7 -10 15 -10 8 0 15 5 15 10 0 6 -7 10 -15 10 -8 0
-15 -4 -15 -10z"/>
<path d="M5370 2580 c0 -14 -7 -20 -22 -20 -12 0 -18 -3 -14 -7 4 -5 13 -8 19
-8 7 0 13 -10 15 -22 2 -13 7 -23 12 -23 5 0 10 10 12 23 2 14 9 21 21 21 9
-1 17 2 17 7 0 5 -9 9 -20 9 -13 0 -20 7 -20 20 0 11 -4 20 -10 20 -5 0 -10
-9 -10 -20z"/>
<path d="M4450 2581 c0 -5 7 -14 15 -21 14 -12 14 -15 -1 -31 -20 -22 -13 -24
17 -6 17 10 23 10 26 0 3 -7 12 -13 20 -13 14 0 14 3 -2 20 -17 19 -17 21 0
40 10 11 13 20 8 20 -6 0 -16 -7 -23 -15 -12 -14 -15 -14 -30 0 -19 17 -30 19
-30 6z"/>
<path d="M6744 2741 c-2 -2 -4 -28 -4 -58 0 -29 -2 -53 -5 -53 -2 0 -21 8 -41
17 -35 17 -36 17 -50 -2 -14 -19 -19 -120 -8 -162 7 -27 39 -30 70 -8 29 20
34 11 34 -57 l0 -58 353 0 354 0 0 190 c0 105 -3 191 -6 191 -17 4 -693 4
-697 0z m681 -190 l0 -174 -330 -1 -330 -1 -6 56 c-8 78 -14 84 -54 61 -18
-11 -38 -16 -45 -12 -12 7 -20 95 -12 137 5 27 28 30 60 7 33 -23 52 -3 52 56
l0 47 333 -1 332 -1 0 -174z"/>
<path d="M6916 2604 c-18 -18 -21 -60 -6 -98 7 -18 17 -26 34 -26 36 0 56 26
56 70 0 42 -20 70 -50 70 -10 0 -26 -7 -34 -16z m64 -54 c0 -29 -5 -42 -20
-50 -15 -8 -21 -6 -30 9 -13 26 -13 74 2 89 21 21 48 -5 48 -48z"/>
<path d="M7085 2596 c-24 -36 -4 -70 36 -64 31 5 34 1 20 -21 -6 -9 -18 -11
-35 -7 -15 4 -26 2 -26 -4 0 -5 11 -12 25 -16 37 -9 65 19 65 67 0 65 -54 93
-85 45z m62 -12 c3 -8 -1 -23 -10 -31 -20 -21 -47 -2 -40 27 6 24 41 27 50 4z"/>
<path d="M7202 2608 c-29 -29 7 -96 44 -81 9 3 14 -2 14 -12 0 -15 -6 -17 -36
-12 -30 5 -34 4 -24 -8 16 -20 54 -19 71 1 17 20 17 88 0 108 -16 19 -52 21
-69 4z m56 -39 c-4 -28 -26 -31 -42 -6 -9 15 -7 21 8 33 24 17 39 5 34 -27z"/>
<path d="M7919 2730 c-2 -45 -6 -95 -8 -98 0 -1 -14 4 -31 13 -16 8 -36 15
-44 15 -20 0 -34 -48 -32 -106 5 -94 19 -109 76 -79 33 17 31 21 36 -55 1 -19
2 -41 3 -47 1 -10 49 -13 205 -13 154 0 205 3 208 13 7 22 1 357 -6 365 -4 4
-97 7 -207 7 -170 0 -199 -2 -200 -15z m392 -9 c1 -3 3 -81 4 -173 1 -144 -1
-167 -14 -170 -9 -2 -95 -3 -191 -3 l-175 1 -1 52 c0 28 -7 58 -14 67 -11 13
-16 13 -46 -5 -33 -21 -33 -21 -43 -1 -13 24 -14 121 -1 141 8 12 14 12 46 -3
46 -22 54 -15 56 50 l2 49 188 1 c103 0 189 -3 189 -6z"/>
<path d="M8102 2608 c-17 -17 -15 -33 3 -18 13 11 15 5 15 -43 0 -44 -3 -55
-14 -51 -8 3 -17 1 -21 -5 -4 -7 10 -11 39 -11 27 0 46 5 46 11 0 6 -7 9 -15
5 -12 -4 -15 6 -15 59 0 66 -10 81 -38 53z"/>
<path d="M8805 2740 c-2 -3 -3 -27 -3 -54 0 -26 -2 -50 -5 -52 -2 -2 -18 3
-36 12 -17 9 -38 13 -46 11 -25 -10 -33 -150 -11 -186 10 -15 31 -14 66 4 l30
16 1 -53 c1 -29 1 -59 0 -65 -2 -10 46 -13 209 -13 l210 0 -2 193 -3 192 -203
0 c-112 0 -205 -2 -207 -5z m396 -29 c0 -9 1 -88 2 -176 l0 -159 -179 -1 c-98
-1 -185 1 -191 3 -8 3 -13 23 -13 56 0 69 -12 80 -58 55 -45 -23 -52 -15 -52
66 0 84 9 95 55 71 45 -24 55 -14 55 55 l0 46 190 0 c166 0 190 -2 191 -16z"/>
<path d="M8974 2595 c-17 -27 -14 -76 7 -102 15 -18 44 -17 63 3 19 18 22 94
4 112 -20 20 -56 14 -74 -13z m66 -40 c0 -34 -5 -47 -20 -55 -17 -9 -22 -7
-30 15 -19 50 -9 85 26 85 22 0 24 -4 24 -45z"/>
<path d="M6386 2588 c-34 -49 -7 -108 49 -108 39 0 76 38 70 72 -11 57 -88 80
-119 36z m84 -8 c11 -11 20 -27 20 -35 0 -16 -35 -55 -49 -55 -5 0 -17 3 -25
6 -15 6 -15 8 1 19 13 10 22 10 31 3 17 -14 28 -2 14 15 -9 10 -9 16 0 25 15
15 2 28 -14 14 -9 -7 -18 -7 -31 3 -14 10 -15 14 -5 18 25 10 38 7 58 -13z
m-61 -47 c-14 -17 -31 1 -22 24 4 10 9 11 19 2 11 -9 12 -15 3 -26z"/>
<path d="M3407 2578 c-41 -30 -34 -71 19 -101 18 -10 64 32 64 58 0 14 -11 31
-28 43 -27 20 -28 20 -55 0z m19 -85 c-3 -3 -12 0 -21 7 -20 17 -19 57 3 69
15 8 17 5 20 -31 2 -22 1 -43 -2 -45z m49 56 c7 -20 -10 -59 -25 -59 -6 0 -10
20 -10 45 0 35 3 43 15 39 8 -3 17 -14 20 -25z"/>
<path d="M8517 2580 c-3 -13 -13 -20 -28 -20 -12 0 -19 -3 -15 -7 4 -4 15 -8
24 -8 9 0 19 -11 23 -25 7 -24 10 -22 13 10 0 8 7 16 14 16 32 4 35 7 12 13
-14 4 -25 12 -25 18 0 21 -12 24 -18 3z"/>
<path d="M7605 2570 c17 -19 17 -21 0 -40 -14 -16 -15 -20 -4 -20 8 0 20 5 27
12 9 9 16 7 32 -7 24 -22 27 -9 3 17 -15 17 -15 19 3 32 10 8 16 18 12 22 -5
4 -16 0 -27 -10 -16 -15 -19 -15 -31 -1 -7 8 -17 15 -23 15 -5 0 -2 -9 8 -20z"/>
<path d="M3655 2540 c3 -5 10 -10 16 -10 5 0 9 5 9 10 0 6 -7 10 -16 10 -8 0
-12 -4 -9 -10z"/>
<path d="M3986 2160 c-2 -3 -4 -27 -5 -55 -2 -27 -4 -52 -6 -54 -2 -1 -14 4
-27 13 -33 24 -57 20 -69 -11 -14 -36 -7 -146 10 -167 12 -14 17 -14 52 4 l39
20 0 -135 c0 -74 3 -136 8 -136 4 -1 523 -2 1155 -3 l1147 -1 -2 265 -3 265
-1148 0 c-632 0 -1150 -2 -1151 -5z m2284 -260 l0 -247 -1132 1 -1133 1 -3
124 c-1 69 -7 130 -13 137 -9 11 -18 9 -47 -6 -45 -24 -52 -16 -52 65 0 83 9
94 56 72 44 -22 54 -13 54 49 0 22 2 43 5 45 2 3 513 5 1135 5 l1130 0 0 -246z"/>
<path d="M4850 2092 c-5 -2 -10 -28 -10 -58 0 -57 -5 -63 -36 -39 -48 36 -74
5 -74 -91 0 -90 28 -115 85 -78 l25 16 0 -66 0 -66 210 0 210 0 0 193 0 192
-200 0 c-110 0 -204 -1 -210 -3z m386 -23 c7 -12 8 -325 0 -337 -3 -5 -84 -9
-191 -9 l-185 1 0 58 c0 68 -13 79 -62 55 -42 -20 -48 -11 -48 76 0 76 12 90
54 62 40 -26 56 -14 56 43 0 27 2 51 5 54 9 8 365 6 371 -3z"/>
<path d="M5024 1955 c-17 -13 -17 -14 -1 -15 17 0 19 -4 19 -40 0 -52 -2 -59
-17 -54 -8 4 -15 1 -15 -5 0 -6 19 -11 46 -11 27 0 43 4 39 10 -3 6 -12 10
-20 10 -10 0 -13 15 -12 60 2 63 -5 71 -39 45z"/>
<path d="M5734 2091 c-2 -2 -4 -28 -4 -58 0 -29 -2 -53 -5 -53 -2 0 -21 8 -41
17 -35 17 -36 17 -50 -2 -16 -21 -19 -151 -5 -174 9 -13 24 -12 79 4 21 7 22
5 22 -54 l0 -61 210 0 210 0 -2 192 -3 193 -203 0 c-112 0 -205 -2 -208 -4z
m396 -191 l0 -176 -190 -1 -190 0 0 41 c0 85 -20 104 -69 70 -17 -12 -26 -13
-34 -5 -12 12 -15 147 -3 158 3 4 22 -1 42 -11 48 -22 64 -9 64 54 l0 47 190
0 190 0 0 -177z"/>
<path d="M5900 1951 c-5 -11 -10 -34 -10 -51 0 -44 17 -70 45 -70 28 0 55 34
55 70 0 58 -66 95 -90 51z m64 -24 c9 -36 7 -55 -10 -72 -23 -23 -44 -2 -44
44 0 58 40 79 54 28z"/>
<path d="M4295 1972 c-6 -4 -12 -18 -13 -31 -2 -13 -8 -33 -12 -45 -7 -16 -9
-10 -9 27 l-1 47 -65 0 c-62 0 -65 -1 -63 -24 1 -14 6 -22 10 -20 4 3 5 11 1
19 -4 12 6 15 51 15 l56 0 0 -70 0 -70 -56 0 c-34 0 -53 4 -49 10 3 6 1 10 -5
10 -7 0 -10 -6 -8 -12 6 -16 128 -24 128 -8 0 5 10 10 23 10 53 0 94 85 46 97
-14 4 -19 12 -16 24 6 21 -4 31 -18 21z m24 -104 c-10 -19 -28 -32 -35 -25 -3
2 3 21 13 41 14 31 18 34 24 19 4 -10 3 -26 -2 -35z"/>
<path d="M4165 1939 c-4 -6 -4 -13 -1 -16 3 -4 6 -1 6 6 0 9 10 12 29 9 17 -2
28 -1 25 4 -7 12 -52 10 -59 -3z"/>
<path d="M5450 1948 c-1 -5 -3 -13 -4 -20 0 -7 -12 -15 -26 -19 -21 -6 -11
-14 13 -10 4 0 8 -3 8 -9 1 -5 2 -14 3 -19 3 -23 16 -22 16 2 0 20 4 25 20 22
11 -2 20 0 20 6 0 5 -9 9 -19 9 -12 0 -21 8 -24 23 -2 12 -5 19 -7 15z"/>
<path d="M4520 1934 c0 -4 8 -13 17 -19 17 -13 17 -14 0 -33 -11 -11 -14 -23
-9 -26 6 -3 12 1 16 9 7 20 25 19 48 -2 10 -9 18 -11 18 -6 0 6 -7 16 -15 23
-14 11 -14 15 0 36 17 26 5 33 -15 9 -12 -14 -15 -14 -30 0 -17 16 -30 19 -30
9z"/>
<path d="M4206 1899 c-28 -28 -15 -31 14 -3 13 13 20 24 15 23 -6 0 -19 -9
-29 -20z"/>
<path d="M4185 1840 c3 -5 10 -10 16 -10 5 0 9 5 9 10 0 6 -7 10 -16 10 -8 0
-12 -4 -9 -10z"/>
<path d="M6744 2091 c-2 -2 -4 -28 -4 -58 0 -29 -2 -53 -5 -53 -2 0 -20 8 -40
17 -48 23 -58 10 -63 -76 -6 -103 22 -135 83 -95 l25 16 0 -66 0 -66 268 0
267 0 1 190 c0 105 -2 191 -5 191 -17 4 -523 4 -527 0z m513 -190 l-2 -176
-247 -1 -248 -1 0 59 c0 68 -12 79 -63 55 -18 -9 -36 -12 -41 -7 -12 12 -10
140 3 153 8 8 20 6 42 -7 41 -24 59 -8 59 54 l0 47 250 0 249 0 -2 -176z"/>
<path d="M6928 1959 c-10 -5 -18 -15 -18 -21 0 -7 5 -7 14 1 11 10 14 5 17
-27 6 -53 0 -72 -17 -65 -8 3 -14 0 -14 -6 0 -6 19 -11 46 -11 27 0 43 4 39
10 -3 6 -12 10 -19 10 -10 0 -13 16 -13 57 1 59 -6 69 -35 52z"/>
<path d="M7042 1919 c-36 -55 -35 -68 3 -63 16 1 28 -3 32 -12 7 -18 23 -18
23 0 0 8 6 17 13 19 10 4 10 6 0 6 -9 1 -13 18 -13 51 0 65 -15 64 -58 -1z
m38 -14 c0 -31 -3 -35 -25 -35 l-25 0 22 35 c13 19 24 35 26 35 1 0 2 -16 2
-35z"/>
<path d="M7745 2090 c-1 -3 -2 -26 -2 -53 0 -58 -5 -64 -35 -43 -38 27 -56 20
-69 -26 -11 -41 -7 -127 6 -148 9 -15 43 -12 70 6 27 18 27 19 28 -83 l0 -33
323 0 324 0 0 193 0 192 -321 0 c-176 0 -322 -2 -324 -5z m631 -180 c0 -91 -1
-170 -3 -176 -3 -7 -102 -10 -308 -10 l-305 0 0 58 c0 67 -15 81 -60 55 -38
-23 -50 -6 -50 68 0 82 10 95 50 72 45 -27 60 -17 60 41 0 27 2 51 5 54 3 3
142 5 308 4 l302 -1 1 -165z"/>
<path d="M7931 1920 c-36 -59 -38 -70 -11 -65 26 5 52 -4 44 -16 -10 -17 12
-9 29 11 12 14 13 20 4 20 -9 0 -13 15 -12 50 1 65 -14 65 -54 0z m34 -17 c-1
-21 -7 -29 -24 -31 l-23 -4 18 31 c23 38 31 39 29 4z"/>
<path d="M8030 1951 c-5 -11 -10 -34 -10 -51 0 -69 52 -96 86 -45 19 29 14 93
-8 107 -23 14 -57 9 -68 -11z m66 -26 c11 -46 -17 -95 -43 -73 -16 13 -17 80
-2 95 16 16 38 5 45 -22z"/>
<path d="M8151 1956 c-17 -20 -18 -91 -2 -110 17 -20 55 -21 72 0 19 23 15 95
-7 111 -23 17 -49 17 -63 -1z m58 -28 c16 -44 -4 -93 -35 -81 -16 6 -22 32
-16 71 5 39 38 45 51 10z"/>
<path d="M8870 2092 c-5 -2 -10 -28 -10 -58 0 -58 -4 -62 -38 -38 -46 32 -72
2 -72 -88 0 -91 29 -119 85 -82 l25 16 0 -66 0 -66 325 0 325 0 -2 192 -3 193
-312 0 c-172 0 -317 -1 -323 -3z m621 -36 c6 -126 2 -326 -6 -328 -5 -1 -144
-2 -307 -3 l-298 -1 0 49 c0 26 -5 57 -10 68 -10 18 -11 18 -47 -1 -28 -15
-39 -17 -45 -7 -12 18 -10 145 3 153 6 3 26 -2 45 -12 30 -17 36 -17 44 -4 5
8 10 36 10 61 l0 46 305 0 c302 0 305 0 306 -21z"/>
<path d="M9030 1930 c0 -38 1 -39 24 -30 18 6 28 5 36 -5 26 -32 -19 -62 -48
-33 -9 9 -12 8 -12 -5 0 -20 47 -34 69 -20 38 24 20 83 -25 83 -17 0 -24 6
-24 18 0 15 6 18 30 14 18 -3 30 0 30 7 0 6 -17 11 -40 11 -40 0 -40 0 -40
-40z"/>
<path d="M9150 1951 c-14 -27 -13 -94 2 -109 19 -19 55 -14 72 10 19 27 20 58
4 93 -14 31 -62 35 -78 6z m66 -26 c11 -46 -17 -95 -43 -73 -16 13 -17 80 -2
95 16 16 38 5 45 -22z"/>
<path d="M9271 1961 c-19 -12 -20 -93 -2 -114 18 -23 58 -21 71 2 14 27 13 94
-2 109 -14 14 -47 15 -67 3z m59 -55 c0 -53 -20 -75 -44 -50 -10 10 -15 26
-12 42 2 15 5 33 5 40 1 6 12 12 26 12 23 0 25 -4 25 -44z"/>
<path d="M3390 1890 c0 -54 4 -79 13 -82 6 -2 41 -3 77 -3 l65 1 0 79 0 80
-77 1 -78 2 0 -78z m85 -10 l59 -60 -65 0 -65 0 -1 60 c0 33 2 60 6 60 4 0 33
-27 66 -60z"/>
<path d="M8579 1939 c-1 -8 -1 -17 0 -21 0 -5 -11 -8 -26 -9 l-28 -1 25 -7
c15 -4 26 -15 28 -29 2 -12 8 -22 13 -22 6 0 7 4 4 10 -7 11 8 42 18 41 23 -3
28 2 7 8 -14 4 -25 12 -25 18 0 17 -15 28 -16 12z"/>
<path d="M6426 1918 c17 -54 36 -89 46 -86 33 11 56 108 26 108 -6 0 -8 -7 -4
-15 6 -18 -9 -65 -22 -65 -5 0 -14 18 -21 40 -6 22 -16 40 -22 40 -6 0 -7 -9
-3 -22z"/>
<path d="M7435 1920 c17 -19 17 -21 0 -40 -16 -18 -16 -20 -2 -20 10 0 17 5
17 10 0 15 26 12 40 -5 7 -9 15 -13 18 -10 3 3 -3 14 -13 25 -18 20 -18 21 1
34 10 8 16 18 12 22 -5 4 -16 0 -27 -10 -16 -15 -19 -15 -31 -1 -7 8 -17 15
-23 15 -5 0 -2 -9 8 -20z"/>
<path d="M3395 1443 c-20 -20 -16 -100 6 -114 40 -25 79 5 79 61 0 62 -47 91
-85 53z m63 -43 c2 -19 -3 -43 -11 -54 -12 -17 -14 -17 -30 -1 -17 16 -23 75
-10 89 4 4 16 6 28 4 15 -2 21 -12 23 -38z"/>
<path d="M3566 1438 c-36 -50 -4 -127 47 -114 55 14 51 127 -5 134 -18 2 -31
-4 -42 -20z m62 -45 c-3 -41 -6 -48 -25 -51 -17 -3 -24 3 -29 22 -11 44 3 76
32 76 24 0 25 -3 22 -47z"/>
<path d="M3680 1445 c-7 -9 -9 -19 -5 -23 4 -4 10 -1 12 6 3 6 16 12 29 12 30
0 33 -30 4 -37 -11 -3 -20 -10 -20 -16 0 -6 3 -7 6 -4 12 11 43 -13 38 -28 -7
-18 -51 -20 -57 -2 -2 6 -8 9 -12 5 -13 -12 15 -38 41 -38 22 0 54 23 54 40 0
5 -7 16 -16 24 -8 9 -11 16 -5 16 17 0 13 47 -5 54 -27 10 -51 7 -64 -9z"/>
<path d="M3396 1074 c-19 -19 -20 -82 -2 -106 7 -10 23 -18 36 -18 31 0 49 27
50 72 0 40 -21 68 -50 68 -10 0 -26 -7 -34 -16z m59 -54 c0 -41 -2 -45 -25
-45 -21 0 -26 5 -28 33 -5 47 4 64 30 60 20 -3 23 -9 23 -48z"/>
<path d="M3567 1069 c-17 -24 -16 -82 3 -104 16 -19 44 -19 64 1 19 18 22 94
4 112 -19 19 -55 14 -71 -9z m58 -49 c0 -38 -3 -45 -21 -48 -25 -4 -38 32 -28
74 5 18 12 24 28 22 18 -3 21 -10 21 -48z"/>
<path d="M3686 1068 c-33 -46 -12 -118 34 -118 16 0 50 24 50 35 0 2 -5 16
-10 30 -9 23 -15 27 -40 23 -32 -5 -35 -1 -21 21 6 9 18 11 35 7 28 -7 36 8
10 18 -28 11 -42 7 -58 -16z m64 -63 c0 -33 -43 -48 -54 -19 -10 25 12 46 35
33 10 -5 19 -11 19 -14z"/>
<path d="M3505 960 c-3 -5 1 -10 9 -10 9 0 16 5 16 10 0 6 -4 10 -9 10 -6 0
-13 -4 -16 -10z"/>
<path d="M3390 701 c-15 -29 -12 -87 6 -105 37 -37 84 -7 84 54 0 22 -7 45
-16 54 -21 22 -61 20 -74 -3z m68 -54 c-3 -37 -6 -42 -28 -42 -22 0 -25 5 -28
38 -4 48 12 71 40 56 15 -8 18 -19 16 -52z"/>
<path d="M2045 337 c-11 -9 -14 -16 -7 -21 6 -3 13 -2 17 4 8 13 42 13 50 0 4
-6 -12 -29 -34 -52 -23 -23 -41 -45 -41 -50 0 -4 23 -8 51 -8 31 0 48 4 44 10
-3 6 -17 8 -30 6 -34 -6 -40 9 -12 31 13 10 28 27 34 38 24 43 -28 73 -72 42z"/>
<path d="M740 8047 l0 -74 33 -1 c46 -2 59 10 59 53 0 41 -15 57 -49 52 -19
-3 -23 0 -23 19 0 13 -4 24 -10 24 -6 0 -10 -31 -10 -73z m73 -13 c6 -32 -19
-60 -39 -43 -28 23 -10 84 21 73 7 -3 15 -17 18 -30z"/>
<path d="M858 8113 c-2 -5 -4 -37 -3 -73 l1 -65 33 -2 c43 -4 61 11 61 52 0
38 -21 60 -50 52 -19 -5 -24 3 -21 31 2 13 -15 17 -21 5z m70 -84 c3 -28 -17
-52 -35 -41 -10 7 -17 32 -14 60 1 8 10 12 24 10 15 -2 23 -11 25 -29z"/>
<path d="M970 8045 c0 -43 4 -75 10 -75 6 0 10 32 10 75 0 43 -4 75 -10 75 -6
0 -10 -32 -10 -75z"/>
<path d="M1350 8047 l0 -74 39 -1 c34 -2 40 2 48 26 5 15 7 38 3 52 -5 20 -12
25 -38 25 -27 0 -32 4 -32 22 0 13 -4 23 -10 23 -6 0 -10 -31 -10 -73z m70
-22 c0 -35 -20 -51 -39 -32 -25 25 -5 82 25 70 8 -3 14 -19 14 -38z"/>
<path d="M1770 8045 c0 -43 4 -75 10 -75 6 0 10 12 10 28 l1 27 24 -27 c31
-36 53 -37 26 -2 -25 32 -26 47 -6 64 9 7 13 15 10 18 -3 3 -16 -5 -30 -18
l-25 -23 0 41 c0 23 -4 42 -10 42 -6 0 -10 -32 -10 -75z"/>
<path d="M1946 8095 c-31 -46 -13 -165 25 -165 6 0 3 10 -5 22 -20 29 -20 100
-1 138 19 36 4 40 -19 5z"/>
<path d="M2486 8095 c8 -13 16 -45 16 -70 0 -25 -8 -57 -16 -70 -9 -14 -12
-25 -6 -25 19 0 42 50 42 95 0 45 -23 95 -42 95 -6 0 -3 -11 6 -25z"/>
<path d="M277 8103 c-10 -9 -8 -43 2 -43 5 0 9 11 9 25 0 27 -1 28 -11 18z"/>
<path d="M306 8094 c-8 -22 -7 -34 3 -34 5 0 9 11 9 25 0 29 -3 31 -12 9z"/>
<path d="M490 8040 l0 -71 46 3 c52 3 73 23 59 54 -5 11 -9 33 -9 49 -1 29 -3
30 -48 33 l-48 3 0 -71z m78 31 c-2 -9 -15 -17 -31 -19 -21 -3 -27 1 -27 17 0
10 6 21 13 24 22 7 48 -5 45 -22z m5 -40 c17 -2 5 -32 -15 -40 -29 -11 -48 -4
-48 18 0 24 6 28 32 25 13 -1 26 -3 31 -3z"/>
<path d="M2030 8102 c0 -6 4 -12 10 -14 10 -3 14 -27 12 -70 -2 -20 -7 -28
-21 -28 -11 0 -21 6 -24 13 -2 6 -8 9 -13 4 -4 -4 -1 -15 8 -24 23 -22 68 -10
69 20 5 92 4 102 -19 105 -12 2 -22 -1 -22 -6z"/>
<path d="M635 8069 c-11 -16 3 -23 19 -10 8 7 20 10 26 6 18 -11 11 -25 -14
-25 -30 0 -50 -23 -42 -48 5 -16 16 -20 56 -19 34 1 47 4 40 12 -5 6 -8 24 -8
41 1 17 -2 36 -6 43 -9 14 -63 15 -71 0z m53 -56 c-4 -23 -48 -31 -48 -10 0 9
6 18 13 20 25 11 38 7 35 -10z"/>
<path d="M1020 8025 c0 -30 5 -55 10 -55 6 0 10 25 10 55 0 30 -4 55 -10 55
-5 0 -10 -25 -10 -55z"/>
<path d="M1062 8024 c2 -61 21 -70 23 -11 2 74 45 75 45 1 0 -24 5 -44 11 -44
6 0 9 21 7 53 l-3 52 -42 1 -42 2 1 -54z"/>
<path d="M1179 8052 c-7 -17 -7 -36 -2 -52 7 -20 15 -25 41 -24 34 2 39 -5 20
-24 -8 -8 -17 -8 -30 -1 -23 13 -39 2 -18 -11 25 -16 59 -11 70 9 5 11 10 44
10 74 l0 54 -40 1 c-36 2 -42 -1 -51 -26z m61 -2 c13 -24 5 -56 -15 -64 -26
-10 -41 40 -22 72 12 18 25 15 37 -8z"/>
<path d="M1470 8024 c0 -30 5 -54 10 -54 6 0 10 20 10 45 0 33 4 45 15 45 8 0
15 4 15 9 0 5 -11 9 -25 9 -24 0 -25 -4 -25 -54z"/>
<path d="M1538 8055 c-8 -18 -9 -35 -2 -53 8 -22 15 -27 44 -27 29 0 36 5 44
27 15 42 -6 78 -44 78 -23 0 -33 -6 -42 -25z m60 3 c30 -30 -1 -94 -33 -68
-25 20 -13 80 15 80 3 0 11 -5 18 -12z"/>
<path d="M1660 8065 c-7 -8 -12 -26 -12 -40 0 -53 57 -75 86 -34 16 23 12 69
-7 81 -20 13 -54 9 -67 -7z m61 -24 c3 -43 -12 -64 -38 -54 -17 7 -17 70 0 76
19 6 37 -3 38 -22z"/>
<path d="M2100 8024 c0 -30 5 -54 10 -54 6 0 10 17 10 38 0 20 5 44 10 52 16
23 38 -11 35 -55 -2 -22 2 -35 9 -35 8 0 12 13 11 35 -3 44 19 78 35 55 5 -8
10 -32 10 -52 0 -21 5 -38 10 -38 15 0 12 87 -2 97 -7 4 -41 8 -75 9 l-63 2 0
-54z"/>
<path d="M2282 8068 c-7 -7 -12 -26 -12 -43 0 -17 5 -36 12 -43 16 -16 53 -15
67 1 16 20 2 29 -16 11 -12 -11 -18 -12 -29 -3 -31 25 -6 89 26 69 23 -15 34
-12 20 5 -15 18 -51 20 -68 3z"/>
<path d="M2385 8056 c-19 -29 -11 -73 16 -81 26 -9 59 3 59 21 0 12 -4 12 -24
-1 -23 -15 -25 -15 -33 2 -5 10 -8 24 -7 31 1 6 2 17 3 23 1 7 12 9 31 6 31
-7 42 6 14 17 -28 11 -43 6 -59 -18z"/>
</g>
</svg>
