<?xml version="1.0" standalone="no"?>
<!DOCTYPE svg PUBLIC "-//W3C//DTD SVG 20010904//EN"
 "http://www.w3.org/TR/2001/REC-SVG-20010904/DTD/svg10.dtd">
<svg version="1.0" xmlns="http://www.w3.org/2000/svg"
 width="1253.000000pt" height="198.000000pt" viewBox="0 0 1253.000000 198.000000"
 preserveAspectRatio="xMidYMid meet">
<metadata>
Created by potrace 1.16, written by Peter Selinger 2001-2019
</metadata>
<g transform="translate(0.000000,198.000000) scale(0.100000,-0.100000)"
fill="#000000" stroke="none">
<path d="M704 1525 c0 -60 -3 -122 -7 -137 -8 -31 -19 -30 -83 12 -123 82
-165 37 -170 -181 -3 -135 6 -189 40 -227 27 -30 64 -25 135 18 28 18 58 29
66 26 18 -7 17 20 20 -361 1 -171 3 -315 3 -320 2 -8 666 -11 2132 -11 l2130
0 1 21 c0 24 0 1233 -1 1255 0 13 -244 15 -2133 15 l-2133 0 0 -110z m4236
-535 c0 -481 -3 -610 -12 -611 -63 -2 -4180 0 -4183 3 -2 2 -5 143 -6 314 -1
320 -6 366 -43 380 -9 3 -50 -13 -91 -35 -91 -50 -110 -46 -121 27 -19 121 -7
291 22 323 16 18 19 18 91 -22 123 -68 141 -49 142 154 l1 77 2100 0 2100 0 0
-610z"/>
<path d="M1230 1351 c0 -121 -4 -151 -22 -151 -6 0 -36 16 -68 36 -75 46 -115
45 -144 -6 -17 -29 -21 -57 -24 -165 -4 -140 5 -195 39 -239 18 -23 26 -26 52
-20 17 3 49 17 70 31 59 37 84 45 91 27 3 -9 6 -92 6 -185 l0 -169 484 0 484
0 0 480 0 480 -484 0 -484 0 0 -119z m924 78 c5 -5 8 -409 6 -840 l0 -46 -445
0 c-245 0 -445 3 -446 6 0 3 -2 74 -3 157 -3 214 -24 240 -136 169 -69 -45
-94 -45 -110 -2 -15 41 -21 227 -9 292 16 83 26 86 120 37 116 -60 130 -47
135 128 1 47 3 90 3 95 1 11 874 15 885 4z"/>
<path d="M1676 1150 c-35 -11 -62 -35 -69 -61 -7 -28 26 -25 57 6 55 55 127
13 100 -59 -4 -9 -23 -19 -45 -22 -29 -5 -39 -11 -39 -25 0 -15 7 -19 34 -19
42 0 66 -22 66 -60 0 -59 -83 -75 -125 -24 -21 24 -55 33 -55 13 0 -41 57 -79
117 -79 103 0 153 110 72 159 l-29 18 24 11 c17 8 27 22 32 47 8 47 -14 81
-63 94 -43 12 -38 12 -77 1z"/>
<path d="M3680 1366 c0 -117 -7 -166 -24 -166 -7 0 -36 16 -66 35 -121 77
-167 33 -174 -166 -6 -150 19 -250 65 -264 15 -5 45 5 100 34 58 30 80 37 86
28 4 -6 10 -90 11 -184 l4 -173 479 0 c376 0 479 3 480 13 1 16 1 872 0 915
l-1 32 -480 0 -480 0 0 -104z m925 -376 l0 -445 -445 0 -445 0 -2 152 c-2 216
-23 247 -126 183 -118 -73 -132 -57 -132 155 0 128 3 155 18 178 22 34 32 34
93 -4 55 -36 96 -50 112 -40 22 13 33 66 33 160 1 53 3 98 4 101 2 3 203 5
447 5 l443 0 0 -445z"/>
<path d="M4107 1034 c-53 -79 -75 -120 -68 -128 5 -6 38 -11 80 -10 70 1 71 1
72 -25 1 -14 1 -32 0 -38 -1 -7 7 -13 19 -13 11 0 20 6 21 13 1 6 2 23 2 37 1
14 8 25 15 26 6 1 17 2 22 3 22 2 9 31 -13 31 -24 0 -24 1 -23 108 1 107 1
107 -24 110 -22 2 -35 -14 -103 -114z m85 -25 c0 -39 -3 -73 -5 -75 -3 -3 -28
-4 -55 -2 l-51 3 52 76 c29 42 54 75 56 73 2 -2 3 -35 3 -75z"/>
<path d="M2470 1300 c-52 -7 -76 -18 -107 -52 -33 -36 -39 -78 -37 -273 1
-204 8 -232 70 -275 l37 -25 386 0 c212 -1 402 3 421 8 45 12 88 52 101 97 6
21 9 114 7 232 -3 181 -5 199 -24 225 -49 65 -48 65 -447 67 -199 0 -382 -1
-407 -4z m779 -43 c13 -6 34 -25 45 -40 20 -27 21 -41 21 -234 l0 -205 -37
-34 -38 -34 -395 0 c-434 0 -439 1 -470 60 -12 23 -15 69 -15 221 0 175 2 194
20 225 12 18 33 37 48 43 42 15 791 14 821 -2z"/>
<path d="M2630 1047 l0 -54 -37 2 c-47 3 -63 -3 -63 -21 0 -10 14 -14 50 -14
l50 0 0 -50 c0 -42 3 -50 19 -50 13 0 18 7 19 28 0 73 -1 71 50 74 34 2 47 7
47 18 0 11 -12 15 -47 14 -37 -1 -48 3 -49 15 0 9 -2 32 -2 51 -2 24 -7 36
-19 38 -15 3 -18 -5 -18 -51z"/>
</g>
</svg>
