<?xml version="1.0" standalone="no"?>
<!DOCTYPE svg PUBLIC "-//W3C//DTD SVG 20010904//EN"
 "http://www.w3.org/TR/2001/REC-SVG-20010904/DTD/svg10.dtd">
<svg version="1.0" xmlns="http://www.w3.org/2000/svg"
 width="1577.000000pt" height="1144.000000pt" viewBox="0 0 1577.000000 1144.000000"
 preserveAspectRatio="xMidYMid meet">
<metadata>
Created by potrace 1.16, written by Peter Selinger 2001-2019
</metadata>
<g transform="translate(0.000000,1144.000000) scale(0.100000,-0.100000)"
fill="#000000" stroke="none">
<path d="M350 11200 c-65 -11 -121 -70 -136 -143 -6 -32 -5 -10686 1 -10722
10 -55 60 -110 120 -131 21 -7 510 -10 1620 -10 l1590 1 3 793 2 792 3615 0
c3436 0 3615 1 3616 18 0 9 1 178 2 374 l2 356 -25 4 c-14 2 -1552 3 -3417 2
-1866 0 -3393 1 -3393 2 0 1 20 14 44 28 l45 26 4225 0 4226 0 0 23 c1 32 1
699 1 717 -1 14 -296 16 -2971 15 -1634 0 -2976 2 -2983 5 -17 7 -19 750 -2
750 7 0 7 3 -1 8 -7 5 -10 137 -10 403 l0 395 4561 0 4560 0 3 377 2 377 -938
0 -937 0 1 343 c1 188 2 348 3 355 1 8 24 12 81 12 l80 0 0 378 0 377 -3992 0
-3993 0 -1 253 -2 252 3304 0 3304 0 0 415 c1 513 1 550 0 838 l0 232 -232 -1
c-159 -1 -238 2 -247 10 -10 7 -13 8 -8 0 9 -16 -932 -16 -952 0 -11 8 -13 8
-8 0 9 -16 -932 -16 -952 0 -11 8 -13 8 -8 0 9 -16 -932 -16 -952 0 -11 8 -13
8 -8 0 9 -16 -932 -16 -952 0 -11 8 -13 8 -8 0 4 -8 -461 -11 -1676 -11
l-1682 0 -5 21 c-4 12 -6 125 -5 251 l0 230 -410 5 -410 5 0 260 0 260 -535 5
-535 5 0 260 0 260 -425 0 c-234 0 -427 3 -430 7 -3 3 -5 123 -4 265 l0 259
-646 -1 -646 0 -53 -39 c-76 -54 -95 -55 -172 -4 -60 40 -68 42 -139 43 -41 1
-91 -2 -110 -5z m239 -60 c38 -25 72 -40 91 -40 20 0 53 15 90 40 l59 40 633
0 633 0 0 -247 -1 -248 -633 -3 -632 -2 -59 -40 c-76 -52 -106 -52 -185 0
l-60 40 -146 0 -146 0 -1 178 c0 193 6 233 41 274 34 39 60 47 164 47 91 1 92
1 152 -39z m-7 -524 c32 -21 72 -40 90 -41 34 -3 45 2 118 50 42 29 51 31 130
29 47 -1 91 -2 98 -3 8 -1 12 -19 12 -55 0 -85 -4 -90 -57 -62 -24 13 -52 23
-61 22 -29 -4 -44 -53 -44 -140 -1 -134 32 -172 108 -125 30 18 38 19 45 8 5
-8 9 -2154 9 -5046 l0 -5033 -342 0 c-390 0 -394 1 -434 77 l-21 41 -1 5154
c0 2834 2 5155 3 5158 2 3 68 5 147 5 l143 -1 57 -38z m1428 -27 c0 -36 -3
-68 -6 -71 -3 -4 -28 6 -56 20 l-50 26 -19 -22 c-23 -29 -33 -98 -25 -174 10
-100 36 -120 104 -78 18 11 37 20 42 20 7 0 10 -1772 10 -5045 l0 -5045 -480
0 -480 0 0 5038 c-1 3965 -3 5042 -13 5059 l-12 22 -53 -27 c-71 -36 -77 -29
-77 104 0 125 5 132 76 95 49 -26 50 -26 64 -7 10 13 15 44 15 85 l0 66 480 0
480 0 0 -66z m943 51 c5 -23 -1 -630 -7 -646 -4 -10 -14 -8 -48 11 -58 33 -76
32 -93 -7 -17 -41 -15 -203 3 -235 16 -28 47 -29 87 -3 17 11 36 20 43 20 9 0
12 -821 12 -4070 0 -2542 -4 -4070 -9 -4070 -6 0 -26 9 -45 21 -51 30 -78 23
-94 -26 -14 -40 -12 -181 3 -217 12 -30 43 -31 89 -4 24 14 46 22 50 19 9 -10
7 -323 -3 -323 -5 0 -29 11 -54 26 -46 25 -46 25 -66 5 -40 -40 -42 -224 -3
-264 l21 -20 50 25 c27 15 52 24 55 20 8 -7 8 -322 1 -322 -3 0 -27 11 -52 25
-57 30 -78 22 -94 -38 -15 -55 -7 -179 14 -211 18 -27 40 -26 92 6 17 10 33
18 38 18 4 0 7 -36 7 -80 l0 -80 -457 2 -458 3 0 5042 c0 4506 -2 5044 -15
5058 -14 13 -20 12 -62 -10 -56 -30 -65 -31 -73 -6 -9 30 -14 138 -8 177 8 46
27 53 74 26 21 -12 45 -22 53 -22 19 0 29 32 31 95 0 28 3 55 7 60 4 6 167 10
457 10 392 0 450 -2 454 -15z m1067 -846 c0 -261 -3 -334 -12 -334 -7 0 -28 9
-46 20 -48 30 -71 26 -88 -15 -18 -45 -18 -175 0 -220 17 -40 32 -43 86 -15
22 11 44 20 50 20 6 0 10 -29 10 -72 l0 -73 -61 -37 c-33 -21 -69 -38 -80 -38
-10 0 -50 20 -87 44 l-67 44 -92 -3 c-107 -4 -153 -23 -193 -82 l-25 -37 0
-3180 0 -3181 23 -37 c24 -39 73 -75 113 -82 13 -3 124 -5 247 -5 l222 -1 0
-70 c0 -78 -6 -83 -55 -50 -46 31 -73 26 -91 -15 -26 -63 -13 -243 19 -246 28
-3 54 4 83 22 17 10 34 16 37 12 4 -3 7 -87 7 -185 l0 -178 -522 2 -523 3 0
3987 c0 3715 -1 3988 -17 4004 -15 16 -20 15 -63 -11 -41 -23 -49 -25 -61 -13
-17 17 -26 95 -18 164 9 78 14 81 73 48 48 -26 53 -26 68 -11 12 11 17 36 19
79 1 35 2 66 3 70 0 4 235 7 521 7 l520 -1 0 -334z m821 -211 c1 -23 1 -433 0
-455 -1 -15 -33 -16 -398 -15 l-398 2 -2 69 c-2 96 -15 107 -84 72 -32 -16
-57 -22 -62 -17 -24 24 -14 241 12 241 3 0 27 -11 52 -25 66 -35 80 -22 82 73
l1 72 398 0 c372 0 398 -1 399 -17z m-1056 -533 c80 -53 113 -53 193 0 l60 40
421 0 421 0 0 -64 c0 -36 -5 -68 -10 -71 -6 -4 -25 3 -44 14 -77 48 -107 16
-107 -116 0 -92 12 -137 39 -148 8 -3 36 6 63 19 40 22 48 23 53 10 3 -9 6
-92 6 -185 l0 -169 -427 0 -428 0 -60 -40 c-33 -22 -71 -40 -85 -40 -14 0 -52
18 -85 40 l-60 40 -146 0 c-109 0 -148 3 -151 13 -2 6 -4 141 -3 298 1 266 2
288 21 320 37 62 74 79 178 79 89 0 92 -1 151 -40z m8753 -315 l-1 -355 -3818
0 -3819 0 0 184 c0 218 -3 225 -76 187 -24 -13 -50 -21 -58 -18 -20 8 -29 63
-24 147 5 93 15 102 78 67 44 -25 50 -26 64 -11 12 11 16 35 16 85 l0 69 3819
0 3819 0 0 -355z m-8753 -415 c79 -53 111 -53 190 0 l60 39 423 1 422 0 0 -64
c0 -36 -5 -68 -10 -71 -6 -4 -26 3 -45 15 -74 46 -106 8 -106 -124 1 -139 26
-168 105 -122 38 22 45 23 50 10 3 -9 6 -92 6 -185 l0 -169 -427 0 -428 0 -60
-40 c-33 -22 -71 -40 -85 -40 -14 0 -50 17 -80 38 l-55 37 -155 5 -155 5 -1
345 c0 190 2 348 4 353 2 4 67 7 145 7 l142 0 60 -40z m8752 -315 l0 -355
-3818 0 -3819 0 0 184 c0 220 -3 226 -80 183 l-49 -27 -15 21 c-11 17 -15 45
-13 115 3 118 10 127 76 91 45 -25 51 -26 65 -11 12 11 16 35 16 85 l0 69
3819 0 3818 0 0 -355z m-8770 -405 c101 -68 125 -70 211 -12 l61 42 420 0 421
0 0 -59 c0 -90 -3 -93 -59 -63 -79 42 -103 14 -103 -123 1 -134 24 -165 98
-126 23 13 47 20 53 16 8 -4 11 -585 11 -1966 l0 -1959 -422 0 -422 0 -65 -42
c-36 -24 -77 -43 -91 -44 -15 0 -50 17 -87 43 l-62 43 -148 0 -148 0 1 2133
c1 1172 2 2135 3 2140 0 4 64 7 142 7 140 0 141 0 186 -30z m2163 -305 c0
-243 -3 -335 -11 -335 -7 0 -27 9 -45 21 -42 25 -75 22 -91 -11 -16 -31 -17
-190 -2 -224 17 -37 37 -39 89 -12 26 14 50 22 54 19 10 -10 7 -511 -3 -518
-5 -3 -28 4 -50 16 -76 39 -101 10 -101 -119 0 -91 18 -152 46 -152 10 0 36
11 59 25 23 13 45 21 49 18 3 -3 6 -120 6 -260 0 -281 0 -281 -61 -244 -19 12
-42 21 -51 21 -31 0 -48 -52 -48 -145 0 -93 17 -145 48 -145 9 0 32 9 51 21
61 37 61 36 61 -240 0 -144 -4 -252 -9 -256 -5 -3 -30 4 -54 16 -77 37 -97 11
-97 -127 0 -92 17 -144 48 -144 9 0 32 9 51 21 58 35 61 27 61 -140 0 -82 -4
-152 -9 -156 -5 -3 -30 4 -54 16 -77 37 -97 11 -97 -127 0 -90 17 -144 46
-144 8 0 35 11 58 25 24 14 46 22 49 18 11 -11 8 -311 -3 -318 -6 -4 -26 3
-45 15 -74 46 -105 11 -105 -122 0 -138 22 -165 101 -124 26 13 50 22 53 18 3
-3 6 -38 6 -79 l0 -73 -515 0 -515 0 0 1963 c0 1615 -2 1966 -13 1981 -13 18
-16 17 -68 -7 -36 -18 -57 -23 -64 -16 -14 14 -13 215 1 229 9 9 25 5 64 -15
40 -20 55 -24 65 -15 8 7 14 15 13 18 0 4 0 37 1 75 l1 67 515 0 515 0 0 -335z
m7990 -550 l0 -355 -3984 0 -3985 0 -1 182 c-1 217 -4 227 -73 190 -23 -12
-47 -22 -54 -22 -25 0 -35 42 -31 131 4 114 12 123 78 86 44 -25 50 -26 64
-11 11 11 16 34 16 78 0 34 3 66 7 69 3 4 1797 7 3985 7 l3978 0 0 -355z
m-166 -698 c-1 -177 -2 -337 -3 -354 l-1 -33 -3899 0 -3899 0 -1 182 c-1 221
-3 226 -83 185 l-52 -27 -12 22 c-16 29 -14 202 2 218 9 9 25 5 62 -14 68 -35
82 -22 82 75 l0 69 3903 0 3902 0 -1 -323z m1875 -762 l1 -355 -4841 0 -4840
0 1 83 c3 198 0 274 -13 291 -13 18 -16 17 -68 -7 -36 -18 -57 -23 -64 -16
-22 22 -14 208 10 237 2 2 27 -9 55 -24 51 -27 53 -27 66 -9 9 12 14 45 14 87
l0 68 4839 0 4839 0 1 -355z m-9129 -631 l0 -254 -275 0 -275 0 0 76 c0 116
-19 134 -92 83 -37 -26 -56 -15 -64 37 -8 58 -1 171 13 185 7 7 26 3 63 -17
51 -27 53 -27 66 -9 8 11 14 44 14 80 0 34 2 64 5 67 3 3 127 5 275 5 l270 0
0 -253z m-2 -526 l-3 -253 -270 0 -270 0 -2 79 c-3 109 -14 120 -86 83 -65
-33 -72 -27 -76 77 -2 73 12 146 29 146 4 0 29 -12 55 -27 46 -25 48 -26 61
-8 9 12 14 45 14 87 l0 68 275 0 275 0 -2 -252z m2 -528 l0 -250 -275 0 -275
0 0 79 c0 102 -12 115 -76 82 -24 -13 -50 -21 -58 -18 -20 8 -29 63 -24 147 5
90 16 102 68 72 46 -26 75 -28 84 -6 3 9 6 45 6 80 l0 64 275 0 275 0 0 -250z
m-2713 -318 c82 -55 111 -55 189 0 l59 42 423 1 422 0 0 -66 c0 -36 -3 -68 -6
-72 -4 -3 -24 3 -45 13 -63 32 -94 25 -104 -25 -9 -48 -7 -168 3 -196 18 -47
34 -51 87 -24 27 13 52 22 57 19 4 -3 8 -85 8 -184 l0 -178 -424 0 -425 0 -65
-41 c-36 -22 -75 -41 -86 -41 -12 0 -49 18 -82 40 -34 22 -64 40 -67 40 -4 1
-46 2 -96 4 -106 3 -135 15 -172 69 l-27 39 -1 297 c0 163 3 298 7 301 4 3 69
5 145 5 l138 0 62 -43z m8681 -313 l2 -356 -3782 1 -3783 1 -5 184 c-6 217 -9
223 -86 181 -43 -23 -46 -24 -58 -8 -7 10 -14 50 -15 90 -2 127 19 160 78 119
58 -42 81 -22 81 70 0 37 4 69 10 71 5 2 1708 3 3782 3 l3773 0 3 -356z
m-9018 -309 c0 -6 20 -23 45 -39 40 -25 54 -29 137 -30 79 -2 99 -6 136 -27
23 -14 42 -26 42 -28 0 -2 -60 -3 -132 -2 -118 1 -137 4 -168 23 -36 22 -54
45 -70 89 -6 15 -6 24 0 24 6 0 10 -5 10 -10z m7310 -505 l0 -355 -3358 0
-3358 0 -1 181 c0 154 -3 183 -17 197 -15 16 -19 15 -59 -6 -73 -39 -80 -32
-83 87 -2 80 9 131 28 131 5 0 29 -11 52 -25 61 -36 76 -22 79 73 l2 72 3357
0 3358 0 0 -355z m-7234 -622 c0 -137 -3 -250 -7 -253 -4 -3 -128 -5 -275 -5
l-268 0 -1 70 c-3 122 -14 134 -89 90 -38 -22 -45 -24 -56 -10 -15 18 -21 156
-8 203 10 39 17 39 74 6 41 -24 47 -25 61 -11 10 10 17 38 18 84 2 37 3 69 4
71 1 1 124 2 274 2 l273 0 0 -247z m0 -533 l0 -250 -275 2 -275 3 -2 74 c-2
52 -7 78 -18 90 -15 14 -20 14 -61 -8 -72 -38 -77 -31 -80 104 -1 64 11 115
26 115 5 0 32 -11 58 -25 62 -31 73 -21 76 68 2 34 3 65 4 70 1 4 124 7 274 7
l273 0 0 -250z m-1 -525 l0 -250 -275 0 -275 0 -1 65 c0 36 -4 75 -8 88 -9 28
-42 29 -76 2 -56 -44 -78 -11 -75 110 3 111 21 132 75 90 56 -44 88 -14 85 80
-1 25 2 50 6 55 5 7 105 10 276 10 l268 0 0 -250z"/>
<path d="M930 11024 c0 -9 5 -14 12 -12 18 6 21 28 4 28 -9 0 -16 -7 -16 -16z"/>
<path d="M438 10996 c-7 -33 8 -57 21 -36 6 9 6 17 0 21 -5 3 -7 13 -3 22 3 9
2 17 -4 17 -5 0 -12 -11 -14 -24z"/>
<path d="M486 10995 c-7 -27 -1 -45 14 -45 4 0 8 16 7 35 -1 41 -12 46 -21 10z"/>
<path d="M750 10920 c0 -82 3 -100 15 -100 11 0 15 11 15 40 l0 40 62 0 c48 0
59 3 50 12 -6 6 -33 12 -59 12 l-48 1 -3 37 c-3 37 -2 38 30 37 61 -2 88 1 88
11 0 6 -32 10 -75 10 l-75 0 0 -100z"/>
<path d="M1700 11001 c-14 -11 -21 -23 -17 -27 4 -4 13 -2 19 4 21 21 25 13
24 -60 -1 -72 -1 -73 -29 -76 -52 -6 -16 -22 51 -22 61 0 77 13 27 22 -18 3
-20 11 -20 88 0 94 -9 106 -55 71z"/>
<path d="M930 10900 c0 -59 3 -80 13 -80 9 0 13 21 13 80 1 60 -3 80 -13 80
-10 0 -13 -20 -13 -80z"/>
<path d="M1007 10962 c-22 -24 -23 -105 -1 -126 19 -19 55 -21 73 -3 10 10 12
6 9 -18 -2 -24 -8 -31 -30 -33 -16 -2 -28 1 -28 7 0 6 -7 11 -15 11 -18 0 -19
-12 -3 -28 18 -18 73 -14 91 6 13 15 17 39 17 110 0 90 -5 103 -27 81 -8 -8
-13 -8 -17 0 -11 17 -51 13 -69 -7z m71 -14 c7 -7 12 -28 12 -48 0 -39 -14
-60 -41 -60 -24 0 -32 15 -32 62 0 51 32 75 61 46z"/>
<path d="M1160 10912 c0 -74 10 -92 50 -92 14 0 31 5 38 12 9 9 12 9 12 0 0
-7 6 -12 13 -12 18 0 18 151 -1 158 -8 2 -12 -11 -12 -48 0 -60 -13 -90 -40
-90 -26 0 -36 25 -34 88 2 39 -1 52 -12 52 -11 0 -14 -16 -14 -68z"/>
<path d="M1328 10943 c-5 -60 3 -123 16 -123 7 0 11 21 12 56 0 47 4 60 24 76
27 22 18 38 -10 20 -12 -7 -20 -8 -20 -2 0 5 -4 10 -9 10 -6 0 -11 -17 -13
-37z"/>
<path d="M1440 10960 c-13 -13 -20 -33 -20 -60 0 -68 64 -104 116 -66 27 20
10 32 -22 16 -30 -17 -57 -4 -62 29 -3 19 1 21 53 21 55 0 55 0 50 27 -9 53
-76 72 -115 33z m78 -12 c21 -21 13 -28 -35 -28 -45 0 -46 0 -28 20 20 23 45
26 63 8z"/>
<path d="M1847 10844 c-9 -10 2 -24 19 -24 8 0 14 7 14 15 0 15 -21 21 -33 9z"/>
<path d="M459 5508 c-7 -22 -2 -168 6 -168 29 2 170 68 173 82 2 11 -21 25
-80 49 -45 19 -86 36 -90 37 -4 2 -8 2 -9 0z m105 -69 c35 -15 38 -19 21 -25
-11 -4 -39 -15 -62 -25 l-43 -18 0 50 c0 56 -1 56 84 18z"/>
<path d="M1180 5597 c-39 -20 -50 -53 -50 -160 0 -115 13 -150 62 -166 20 -6
127 -10 268 -9 316 1 310 -2 310 178 0 110 0 112 -29 141 l-29 29 -254 0
c-183 0 -260 -4 -278 -13z m551 -36 c16 -19 19 -40 19 -126 0 -86 -3 -107 -19
-126 l-19 -24 -249 -1 c-136 0 -256 1 -266 4 -32 8 -47 55 -47 146 0 97 10
133 42 146 13 5 135 8 271 7 248 -2 249 -2 268 -26z"/>
<path d="M1260 5516 c0 -8 16 -28 35 -45 19 -17 35 -34 35 -39 0 -4 -16 -23
-35 -42 -54 -52 -48 -60 45 -60 60 0 78 3 74 13 -3 8 -24 12 -65 11 l-61 -2
36 37 c43 44 44 53 11 79 -37 30 -31 41 22 39 29 -1 48 3 51 11 3 9 -17 12
-72 12 -58 0 -76 -3 -76 -14z"/>
<path d="M2314 10384 c-35 -24 -74 -61 -74 -71 0 -10 29 -1 46 15 46 42 76 61
90 55 22 -8 17 -29 -12 -48 -20 -13 -23 -19 -13 -25 8 -5 24 -1 41 12 27 19
30 19 47 4 29 -26 48 -19 22 8 -13 14 -20 29 -16 35 13 21 44 10 74 -26 17
-20 34 -34 37 -30 8 8 -43 75 -69 91 -13 8 -24 7 -46 -5 -23 -14 -30 -14 -46
-3 -26 19 -37 18 -81 -12z"/>
<path d="M2250 6075 c0 -3 9 -14 20 -25 25 -25 25 -50 0 -101 -35 -68 -41 -89
-26 -89 7 0 25 26 38 58 l25 57 18 -57 c10 -32 25 -58 32 -58 16 0 17 -6 -11
77 -37 108 -56 143 -77 143 -11 0 -19 -2 -19 -5z"/>
<path d="M2305 1632 c-33 -21 -49 -38 -58 -64 -10 -28 12 -21 25 8 27 58 133
74 187 28 17 -14 31 -32 31 -40 0 -8 5 -14 10 -14 6 0 10 8 10 18 0 20 -31 52
-67 71 -33 17 -104 13 -138 -7z"/>
<path d="M2373 1063 c25 -7 22 -14 -31 -66 -53 -52 -59 -55 -65 -29 -3 9 -5 0
-6 -20 -1 -34 2 -38 23 -38 13 0 33 -3 43 -6 15 -5 15 -3 -2 7 -11 6 -22 13
-24 15 -5 4 91 103 101 104 4 0 9 -10 11 -22 2 -13 5 -4 6 20 l1 42 -37 -1
c-21 -1 -30 -3 -20 -6z"/>
<path d="M2285 555 c-3 -8 -7 -22 -10 -30 -2 -8 -11 -12 -20 -9 -8 3 -15 1
-15 -5 0 -6 7 -11 16 -11 12 0 15 -6 10 -22 -3 -13 -6 -26 -6 -30 0 -4 -7 -5
-15 -2 -8 4 -15 1 -15 -5 0 -6 6 -11 13 -11 9 0 12 -10 9 -30 -3 -18 0 -30 7
-30 6 0 10 3 10 8 -6 37 3 52 29 52 26 0 28 -3 25 -32 -3 -25 -2 -30 6 -18 6
8 11 23 11 33 0 10 8 17 20 17 11 0 20 5 20 10 0 6 -7 10 -15 10 -24 0 -18 40
8 49 18 7 19 10 6 15 -11 5 -14 15 -11 33 3 18 1 24 -7 19 -6 -4 -11 -15 -11
-25 0 -22 -36 -35 -47 -18 -4 7 -6 20 -5 30 4 21 -7 23 -13 2z m55 -75 c0 -22
-39 -44 -53 -30 -5 4 -6 17 -2 29 9 29 55 29 55 1z"/>
<path d="M3190 9985 c0 -3 9 -14 20 -25 25 -25 25 -50 0 -101 -35 -68 -41 -89
-26 -89 7 0 24 25 38 56 l24 56 19 -56 c11 -31 25 -56 32 -56 17 0 17 1 -13
84 -39 108 -54 136 -75 136 -11 0 -19 -2 -19 -5z"/>
<path d="M3196 9378 c-8 -32 -7 -101 2 -115 4 -6 20 -16 34 -22 21 -8 31 -7
42 5 14 13 18 13 38 0 48 -30 94 19 83 87 -9 53 -16 67 -31 67 -12 0 -14 -7
-8 -32 10 -44 9 -87 -4 -100 -18 -18 -39 -1 -46 36 -7 39 -26 50 -26 15 0 -47
-40 -79 -54 -43 -9 25 -7 83 4 105 9 16 7 19 -8 19 -12 0 -22 -9 -26 -22z"/>
<path d="M3182 8951 c4 -13 18 -16 19 -4 0 4 -5 9 -11 12 -7 2 -11 -2 -8 -8z"/>
<path d="M3185 8889 c-10 -15 3 -25 16 -12 7 7 7 13 1 17 -6 3 -14 1 -17 -5z"/>
<path d="M3185 8819 c-10 -15 3 -25 16 -12 7 7 7 13 1 17 -6 3 -14 1 -17 -5z"/>
<path d="M3182 8751 c4 -13 18 -16 19 -4 0 4 -5 9 -11 12 -7 2 -11 -2 -8 -8z"/>
<path d="M3248 2113 c-17 -18 -16 -20 2 -36 17 -14 20 -14 20 -2 0 12 14 15
65 15 36 0 65 4 65 8 0 5 -29 7 -64 6 -51 -1 -66 1 -68 13 -2 13 -6 12 -20 -4z"/>
<path d="M4173 9508 c-38 -18 -50 -59 -49 -174 l1 -106 33 -29 32 -29 245 0
c134 0 255 4 269 10 47 17 58 49 58 165 -1 116 -12 148 -58 165 -35 14 -503
12 -531 -2z m543 -34 c22 -21 24 -31 24 -132 0 -156 18 -147 -289 -148 -144 0
-255 3 -268 9 -30 13 -36 36 -38 137 -2 98 7 133 38 148 13 6 117 10 266 10
243 0 244 0 267 -24z"/>
<path d="M4264 9425 c-4 -11 -12 -23 -18 -27 -8 -6 -8 -10 0 -15 6 -5 12 -34
13 -66 0 -33 3 -63 7 -68 7 -12 41 -11 49 1 3 6 -1 10 -9 10 -18 0 -17 -2 -21
60 -2 32 2 49 13 58 14 11 14 13 0 25 -9 6 -18 19 -21 27 -4 12 -6 11 -13 -5z"/>
<path d="M4340 9320 c0 -58 3 -80 13 -80 8 0 13 19 15 57 2 49 7 61 30 80 26
22 26 22 5 23 -13 0 -23 -5 -23 -12 0 -9 -3 -9 -12 0 -23 23 -28 11 -28 -68z"/>
<path d="M3558 8895 c-15 -8 -30 -25 -34 -37 -11 -32 -12 -208 -2 -238 17 -51
33 -54 298 -56 319 -1 315 -3 318 166 1 99 -10 142 -43 164 -34 23 -496 23
-537 1z m534 -30 c23 -23 25 -31 23 -122 -2 -118 -8 -139 -43 -150 -15 -5
-132 -9 -259 -8 -288 1 -276 -5 -277 137 0 113 7 142 36 156 15 7 110 11 259
11 l236 1 25 -25z"/>
<path d="M3660 8768 c-44 -48 -13 -138 48 -138 34 0 68 23 58 39 -5 8 -11 7
-22 -4 -29 -28 -74 -12 -74 27 0 15 9 18 55 18 48 0 55 2 55 20 0 54 -81 79
-120 38z m78 -10 c21 -21 13 -28 -28 -28 -22 0 -40 4 -40 8 0 14 23 32 40 32
9 0 21 -5 28 -12z"/>
<path d="M4260 8752 c0 -10 7 -19 15 -19 8 0 15 9 15 19 0 10 -7 18 -15 18 -8
0 -15 -8 -15 -18z"/>
<path d="M4321 8762 c-6 -2 -11 -8 -11 -13 0 -5 43 -9 95 -9 72 0 93 3 89 13
-3 9 -29 13 -83 13 -44 0 -84 -2 -90 -4z"/>
<path d="M4260 8689 c0 -24 23 -21 28 4 2 10 -3 17 -12 17 -10 0 -16 -9 -16
-21z"/>
<path d="M4310 8693 c0 -10 25 -13 95 -13 75 0 93 3 89 13 -7 19 -184 18 -184
0z"/>
<path d="M6233 8935 c0 -42 -3 -78 -7 -82 -3 -4 -24 4 -46 16 -59 33 -82 26
-97 -29 -23 -88 -11 -202 23 -231 13 -10 24 -8 70 14 l54 27 1 -33 c1 -17 2
-59 3 -92 l1 -60 298 -3 297 -2 0 275 0 275 -298 0 -298 0 -1 -75z m574 -197
l-2 -253 -272 -1 -273 -1 -1 51 c-3 145 -14 159 -91 110 -40 -25 -42 -26 -55
-8 -14 20 -17 46 -15 144 2 89 15 100 78 66 69 -37 81 -20 83 107 l1 37 274 0
275 0 -2 -252z"/>
<path d="M6489 8811 c-20 -16 -24 -28 -24 -79 0 -70 21 -102 67 -102 52 0 81
59 66 135 -14 64 -62 84 -109 46z m69 -14 c18 -22 24 -90 10 -117 -30 -57 -78
-26 -78 50 0 66 38 103 68 67z"/>
<path d="M7450 8936 c0 -41 -4 -77 -10 -81 -5 -3 -26 4 -47 15 -77 41 -96 22
-101 -104 -3 -68 0 -101 11 -129 19 -44 35 -46 92 -12 23 13 45 21 49 18 3 -3
6 -46 6 -95 l0 -88 380 0 380 0 0 275 0 275 -380 0 -380 0 0 -74z m738 -198
l-3 -253 -355 0 -355 0 -2 79 c-2 74 -13 106 -36 106 -5 0 -26 -10 -46 -22
-19 -12 -41 -23 -48 -24 -20 -3 -32 52 -30 141 3 110 11 119 79 81 49 -28 52
-28 65 -11 14 20 17 44 14 113 l-2 42 361 0 360 0 -2 -252z"/>
<path d="M7710 8810 c-29 -22 -22 -37 9 -20 20 10 21 9 21 -65 0 -73 -1 -75
-24 -75 -14 0 -28 -4 -31 -10 -4 -6 20 -10 64 -10 41 0 71 4 71 10 0 6 -11 10
-25 10 -27 0 -26 -4 -28 113 0 74 -11 83 -57 47z"/>
<path d="M7866 8814 c-9 -8 -16 -22 -16 -29 0 -18 26 -9 34 11 11 29 66 9 66
-24 0 -7 -25 -38 -56 -67 -31 -30 -53 -59 -49 -65 8 -13 135 -13 135 0 0 6
-22 10 -50 10 -27 0 -50 3 -50 8 0 4 20 24 44 45 54 45 63 69 42 102 -19 29
-75 34 -100 9z"/>
<path d="M8964 8935 c0 -41 -3 -77 -6 -81 -3 -3 -24 4 -47 15 -81 42 -100 22
-106 -106 -4 -77 6 -128 30 -152 13 -14 21 -12 70 12 l55 27 1 -23 c1 -12 2
-53 3 -92 l1 -70 423 -3 422 -2 0 275 0 275 -423 0 -422 0 -1 -75z m823 -182
c1 -131 -1 -245 -3 -254 -4 -14 -46 -16 -399 -16 l-395 0 0 68 c0 38 1 70 2
72 1 1 -4 12 -11 25 -14 27 -34 28 -69 4 -64 -44 -81 -32 -84 60 -2 88 1 123
15 142 13 18 16 17 62 -8 65 -34 78 -23 83 74 l4 70 398 0 397 0 0 -237z"/>
<path d="M9099 8881 c-29 -29 -29 -31 -29 -146 0 -116 0 -117 29 -144 l29 -27
259 1 c287 1 296 3 313 65 10 39 7 206 -5 233 -18 42 -51 47 -315 47 l-252 0
-29 -29z m546 3 c30 -12 41 -56 40 -157 -1 -149 14 -141 -301 -142 l-256 0
-19 24 c-16 19 -19 40 -19 128 0 97 2 106 25 128 l24 25 245 0 c134 0 252 -3
261 -6z"/>
<path d="M9210 8816 c0 -8 -7 -19 -16 -24 -11 -6 -13 -11 -5 -16 6 -4 11 -33
11 -65 0 -59 11 -81 42 -81 22 0 24 16 3 24 -11 4 -15 21 -15 61 0 42 3 55 15
55 8 0 15 5 15 10 0 6 -7 10 -15 10 -8 0 -15 6 -15 14 0 8 -4 18 -10 21 -5 3
-10 -1 -10 -9z"/>
<path d="M9280 8710 c0 -64 3 -80 15 -80 12 0 15 13 15 60 0 48 4 61 19 69 10
6 21 7 25 4 3 -3 6 -1 6 5 0 18 -20 25 -35 12 -11 -9 -15 -9 -15 -1 0 6 -7 11
-15 11 -12 0 -15 -16 -15 -80z"/>
<path d="M10490 8943 c0 -92 -7 -100 -58 -74 -54 27 -68 26 -89 -5 -23 -36
-23 -203 1 -239 20 -31 30 -31 87 0 l47 24 6 -22 c3 -12 6 -55 6 -94 l0 -73
295 0 295 0 1 28 c0 38 0 472 0 500 l-1 22 -295 0 -295 0 0 -67z m570 -207 l0
-253 -275 0 -275 0 0 68 c0 113 -21 140 -78 101 -46 -32 -50 -33 -66 -16 -21
20 -23 191 -3 218 13 17 16 17 63 -7 68 -34 78 -27 82 67 l4 76 274 0 274 0 0
-254z"/>
<path d="M10750 8811 c-14 -11 -21 -23 -17 -27 4 -4 13 -2 19 4 21 21 25 13
24 -60 -1 -72 -1 -73 -29 -76 -49 -6 -17 -22 44 -22 57 0 83 15 37 22 -22 3
-23 8 -23 88 -1 94 -10 105 -55 71z"/>
<path d="M11760 8936 c0 -41 -4 -77 -10 -81 -5 -3 -26 4 -47 15 -21 11 -46 20
-55 20 -30 0 -48 -52 -48 -138 0 -140 27 -173 104 -128 24 14 46 22 50 19 3
-3 6 -46 6 -95 l0 -88 300 0 300 0 0 275 0 275 -300 0 -300 0 0 -74z m571 47
c1 -5 2 -119 3 -254 l1 -246 -275 1 -275 1 -2 80 c-4 108 -16 120 -82 82 -45
-25 -50 -25 -62 -10 -18 20 -22 175 -7 209 14 30 19 30 73 -1 39 -24 44 -24
59 -10 16 16 18 28 18 113 l1 42 273 0 c151 0 275 -3 275 -7z"/>
<path d="M12030 8823 c-29 -10 -40 -37 -40 -95 0 -67 22 -98 68 -98 46 0 67
32 67 100 0 82 -34 115 -95 93z m54 -29 c35 -35 13 -144 -28 -144 -24 0 -40
31 -40 80 0 70 32 101 68 64z"/>
<path d="M5830 8726 l0 -136 30 0 c17 0 30 5 30 10 0 6 -7 10 -15 10 -18 0
-16 -11 -18 129 -2 81 -6 116 -14 119 -10 3 -13 -28 -13 -132z"/>
<path d="M7050 8851 c0 -5 8 -11 18 -13 15 -3 17 -17 17 -122 1 -85 4 -121 13
-124 7 -2 12 5 13 15 1 20 1 234 0 246 -1 10 -61 9 -61 -2z"/>
<path d="M5363 8738 l-1 -108 109 0 110 0 -3 107 -3 108 -106 0 -106 0 0 -107z
m188 57 c1 -14 1 -41 1 -60 0 -86 7 -80 -82 -80 l-80 -1 0 83 0 83 80 0 c78 0
80 -1 81 -25z"/>
<path d="M5500 8780 c0 -23 25 -27 33 -6 7 16 -1 26 -20 26 -7 0 -13 -9 -13
-20z"/>
<path d="M5406 8702 c-2 -4 -1 -14 4 -22 7 -11 11 -11 24 -1 9 7 13 17 10 22
-7 11 -31 12 -38 1z"/>
<path d="M5235 8802 c-5 -4 -17 -16 -25 -27 -14 -19 -14 -19 3 -6 16 12 17 10
17 -27 0 -37 -17 -65 -36 -61 -24 4 -54 -2 -54 -11 0 -5 20 -10 44 -10 58 0
69 13 75 94 1 13 6 16 18 12 13 -5 11 0 -6 18 -14 15 -25 26 -25 26 -1 0 -5
-4 -11 -8z"/>
<path d="M8521 8785 c-24 -23 -24 -24 -3 -18 20 5 22 1 22 -30 0 -41 -14 -55
-53 -53 -15 1 -33 -4 -39 -11 -8 -10 -1 -13 35 -13 64 0 80 19 80 93 0 14 5
17 19 13 19 -4 19 -3 -3 20 -27 29 -28 29 -58 -1z"/>
<path d="M11358 8804 c-5 -4 -8 -20 -8 -36 0 -24 -4 -28 -30 -28 -16 0 -30 -4
-30 -10 0 -5 14 -10 30 -10 27 0 30 -3 30 -30 0 -16 5 -30 10 -30 10 0 14 13
11 43 -2 13 6 17 35 17 41 0 37 16 -6 22 -20 2 -26 10 -30 36 -3 19 -8 30 -12
26z"/>
<path d="M10036 8768 c10 -13 24 -26 29 -30 6 -5 -2 -19 -19 -35 -19 -17 -25
-28 -17 -31 7 -2 24 6 37 19 l25 23 23 -27 c16 -18 27 -24 31 -17 4 6 -3 22
-16 36 l-22 24 23 25 c13 14 20 28 17 32 -4 3 -18 -4 -32 -17 l-25 -23 -23 21
c-32 30 -56 30 -31 0z"/>
<path d="M3564 8168 c-12 -5 -28 -21 -35 -35 -18 -34 -20 -209 -2 -245 27 -56
37 -58 289 -58 243 0 286 6 306 44 7 11 13 66 15 121 5 185 4 185 -314 184
-142 0 -247 -5 -259 -11z m513 -21 c30 -14 36 -36 38 -142 2 -98 -6 -128 -39
-142 -11 -6 -126 -10 -255 -10 -294 0 -281 -7 -285 147 -2 101 -1 106 24 131
l26 26 234 0 c138 0 244 -4 257 -10z"/>
<path d="M3749 8103 c-1 -10 -2 -26 -2 -35 0 -15 -6 -17 -37 -12 -32 5 -40 3
-54 -17 -20 -30 -21 -88 0 -117 16 -24 44 -28 75 -12 13 7 19 7 19 0 0 -5 6
-10 13 -10 9 0 12 25 10 97 -1 54 -2 104 -2 111 -1 19 -21 14 -22 -5z m-10
-84 c4 -12 6 -31 5 -43 -1 -11 -3 -26 -3 -33 -1 -18 -40 -26 -56 -13 -18 15
-20 81 -3 98 19 19 48 14 57 -9z"/>
<path d="M4260 8019 c0 -24 23 -21 28 4 2 10 -3 17 -12 17 -10 0 -16 -9 -16
-21z"/>
<path d="M4310 8023 c0 -10 24 -13 95 -13 57 0 95 4 95 10 0 13 2 12 -102 14
-66 1 -88 -2 -88 -11z"/>
<path d="M4257 7966 c-3 -8 1 -17 9 -20 23 -9 24 -8 24 14 0 23 -25 27 -33 6z"/>
<path d="M4310 7963 c0 -10 25 -13 95 -13 72 0 93 3 89 13 -6 18 -184 18 -184
0z"/>
<path d="M6239 8278 c-1 -2 -3 -36 -5 -77 -2 -41 -6 -77 -10 -80 -3 -3 -23 4
-44 17 -21 12 -46 22 -54 22 -63 0 -75 -246 -14 -284 14 -8 28 -5 63 14 32 18
48 22 53 13 4 -6 7 -48 6 -92 l-1 -81 299 0 298 0 0 275 0 275 -295 0 c-162 0
-296 -1 -296 -2z m570 -260 c0 -134 -3 -248 -7 -254 -5 -7 -94 -10 -276 -10
l-269 1 0 73 c0 54 -4 78 -16 94 l-17 21 -49 -27 c-63 -33 -75 -23 -77 65 -2
98 1 124 15 143 13 18 16 18 61 -9 44 -26 49 -27 64 -11 15 14 19 42 21 129
l1 27 274 0 275 0 0 -242z"/>
<path d="M6499 8081 c-13 -11 -21 -23 -17 -27 4 -4 14 -1 22 5 19 16 22 7 21
-69 -1 -63 -2 -65 -28 -68 -53 -6 -26 -22 38 -22 37 0 65 4 65 10 0 6 -11 10
-25 10 -25 0 -25 1 -25 90 0 98 -7 107 -51 71z"/>
<path d="M7450 8200 c0 -89 -4 -93 -58 -60 -48 30 -71 26 -88 -15 -19 -47 -19
-187 1 -225 18 -35 48 -39 85 -10 14 11 33 20 43 20 15 0 17 -11 17 -90 l0
-90 380 0 380 0 0 275 0 275 -380 0 -380 0 0 -80z m740 -193 l0 -254 -357 1
-358 1 -2 79 c-3 108 -14 119 -83 82 -28 -15 -53 -26 -54 -24 -25 29 -34 179
-13 225 12 28 27 29 58 4 35 -27 64 -34 78 -18 6 8 12 46 14 86 l2 71 358 0
357 0 0 -253z"/>
<path d="M7710 8080 c-29 -22 -22 -37 9 -20 20 10 21 9 21 -65 0 -55 -3 -75
-12 -74 -24 3 -38 -1 -38 -11 0 -6 28 -10 65 -10 66 0 87 13 38 23 -28 5 -28
6 -27 91 0 95 -7 104 -56 66z"/>
<path d="M7866 8081 c-27 -29 -15 -46 13 -22 28 25 44 26 61 6 18 -21 5 -47
-44 -87 -24 -20 -46 -46 -49 -57 -5 -20 -1 -21 64 -21 39 0 69 4 69 10 0 10
-32 14 -77 10 -13 -1 -23 1 -23 4 0 3 23 27 50 54 28 27 50 58 50 69 0 48 -80
72 -114 34z"/>
<path d="M8964 8204 c-1 -41 -5 -78 -9 -82 -3 -4 -24 3 -45 16 -50 28 -66 28
-86 -3 -20 -31 -27 -165 -10 -214 17 -53 38 -60 91 -32 25 13 48 21 52 17 4
-4 7 -45 7 -91 l1 -85 422 0 423 0 0 275 0 275 -422 0 -423 0 -1 -76z m822
-196 l-1 -253 -397 -1 -398 -1 0 62 c0 65 -15 125 -31 125 -6 0 -31 -11 -57
-25 -66 -35 -74 -23 -74 110 0 67 2 81 15 99 13 18 16 18 59 -8 25 -14 52 -24
61 -21 17 7 27 48 27 116 l0 49 398 0 399 0 -1 -252z"/>
<path d="M9124 8170 c-45 -18 -54 -47 -54 -167 0 -104 2 -114 24 -140 l24 -28
266 0 266 0 27 27 c26 26 27 32 29 135 2 118 -9 152 -53 172 -29 13 -497 14
-529 1z m517 -21 c37 -15 46 -42 44 -144 -2 -102 -8 -130 -33 -141 -9 -4 -129
-9 -266 -10 -249 -2 -249 -2 -273 22 -21 21 -23 31 -23 129 0 98 2 108 23 129
24 24 26 24 263 24 142 1 250 -3 265 -9z"/>
<path d="M9210 8085 c0 -8 -7 -18 -15 -21 -11 -4 -12 -10 -6 -18 5 -6 11 -36
12 -66 3 -72 7 -80 35 -80 27 0 32 15 9 24 -11 4 -15 21 -15 61 0 42 3 55 15
55 8 0 15 5 15 10 0 6 -7 10 -15 10 -8 0 -15 6 -15 14 0 8 -4 18 -10 21 -5 3
-10 -1 -10 -10z"/>
<path d="M9282 7980 c0 -62 3 -80 14 -80 10 0 14 14 14 51 0 58 15 93 36 85
16 -6 19 10 4 19 -6 4 -17 1 -25 -5 -11 -9 -15 -9 -15 -1 0 6 -6 11 -14 11
-11 0 -14 -18 -14 -80z"/>
<path d="M10490 8213 c0 -94 -7 -103 -63 -73 -75 40 -99 9 -99 -125 0 -134 24
-165 99 -125 55 29 64 20 62 -65 0 -33 0 -68 0 -77 1 -17 22 -18 296 -18 l295
0 1 38 c0 51 0 473 0 495 -1 16 -22 17 -296 17 l-295 0 0 -67z m570 -206 l0
-254 -275 0 -275 1 0 77 c0 112 -22 127 -105 73 -41 -27 -50 -8 -50 111 0 128
6 138 69 101 69 -40 86 -24 86 87 l0 57 275 0 275 0 0 -253z"/>
<path d="M10750 8081 c-14 -11 -21 -23 -17 -27 4 -4 13 -2 19 4 22 22 25 13
24 -60 -1 -72 -1 -73 -29 -76 -15 -2 -25 -8 -22 -13 8 -12 122 -12 130 1 6 10
-6 14 -36 11 -13 -1 -15 12 -15 86 1 97 -8 109 -54 74z"/>
<path d="M11760 8200 c0 -89 -4 -93 -58 -60 -48 30 -71 26 -88 -15 -31 -75
-10 -255 31 -255 9 0 33 9 55 20 22 11 44 20 50 20 6 0 10 -34 10 -90 l0 -90
299 0 299 0 1 275 1 275 -300 0 -300 0 0 -80z m575 -192 c0 -156 -4 -249 -10
-251 -5 -2 -129 -3 -275 -3 l-265 1 -2 79 c-3 106 -13 116 -81 82 -69 -35 -77
-24 -77 105 0 111 10 133 48 109 12 -7 35 -20 50 -28 43 -22 57 -2 59 86 l3
72 275 -2 275 -3 0 -247z"/>
<path d="M12016 8087 c-38 -28 -37 -147 1 -174 26 -19 68 -16 89 8 26 29 26
129 0 158 -22 24 -63 27 -90 8z m74 -26 c26 -50 4 -141 -34 -141 -40 0 -58
108 -25 141 24 24 46 24 59 0z"/>
<path d="M5830 7996 l0 -136 30 0 c17 0 30 5 30 10 0 6 -7 10 -15 10 -16 0
-16 1 -19 149 -1 66 -5 96 -13 98 -10 4 -13 -27 -13 -131z"/>
<path d="M7050 8121 c0 -5 8 -11 17 -13 16 -3 18 -17 19 -121 1 -111 5 -139
20 -124 7 7 12 234 6 255 -5 14 -62 17 -62 3z"/>
<path d="M5365 8110 c-1 -3 -3 -51 -3 -107 l0 -103 109 0 108 0 -2 108 -2 107
-103 0 c-57 0 -105 -2 -107 -5z m186 -27 c0 -5 1 -42 1 -83 l1 -75 -81 -1 -82
0 0 83 0 83 80 0 c44 0 80 -3 81 -7z"/>
<path d="M5497 8064 c-9 -9 4 -34 18 -34 14 0 27 25 18 34 -4 3 -12 6 -18 6
-6 0 -14 -3 -18 -6z"/>
<path d="M5410 7960 c0 -23 25 -27 33 -6 7 16 -1 26 -20 26 -7 0 -13 -9 -13
-20z"/>
<path d="M5214 8048 c-16 -18 -22 -27 -14 -20 23 20 30 14 30 -22 0 -39 -12
-51 -54 -52 -50 -1 -43 -24 7 -24 50 0 70 16 73 58 3 53 4 54 21 48 13 -5 11
0 -6 18 -14 15 -25 26 -26 26 -1 0 -14 -15 -31 -32z"/>
<path d="M8520 8053 c-25 -25 -25 -25 -2 -18 20 6 22 3 22 -29 0 -39 -12 -50
-55 -53 -46 -2 -47 -2 -40 -13 3 -5 24 -10 46 -10 47 0 73 25 74 73 0 25 4 32
18 30 17 -1 16 1 -4 23 -27 29 -28 29 -59 -3z"/>
<path d="M11356 8073 c-3 -3 -6 -19 -6 -35 0 -24 -4 -28 -30 -28 -16 0 -30 -4
-30 -10 0 -5 14 -10 30 -10 27 0 30 -3 30 -30 0 -38 18 -40 22 -2 2 20 9 28
28 30 42 6 48 22 8 22 -34 0 -36 2 -34 31 2 30 -5 44 -18 32z"/>
<path d="M10031 8043 c8 -10 20 -24 27 -32 11 -11 9 -18 -14 -42 -33 -35 -12
-40 24 -6 l24 22 18 -22 c17 -22 40 -31 40 -16 0 4 -10 17 -22 30 l-21 23 23
25 c29 31 18 46 -13 17 -29 -27 -39 -27 -55 -2 -7 11 -19 20 -28 20 -14 0 -15
-2 -3 -17z"/>
<path d="M3559 5645 c-37 -20 -45 -54 -44 -173 1 -98 2 -104 28 -130 l27 -27
249 0 c258 0 290 5 307 44 12 26 14 203 3 238 -19 60 -32 63 -301 63 -192 -1
-249 -4 -269 -15z m532 -26 c22 -19 24 -28 24 -127 1 -102 0 -108 -24 -132
l-26 -26 -243 1 c-297 1 -283 -5 -286 133 -2 110 7 150 37 162 12 5 128 9 258
9 225 1 237 0 260 -20z"/>
<path d="M3660 5520 c-13 -13 -20 -33 -20 -60 0 -49 27 -80 70 -80 43 0 70 31
70 80 0 49 -27 80 -70 80 -17 0 -39 -9 -50 -20z m79 -14 c17 -21 10 -87 -11
-100 -28 -17 -52 5 -56 48 -4 41 11 66 38 66 10 0 23 -6 29 -14z"/>
<path d="M4257 5505 c-7 -16 8 -29 23 -20 15 9 12 35 -4 35 -8 0 -16 -7 -19
-15z"/>
<path d="M4310 5503 c0 -11 21 -13 93 -11 120 4 118 23 -3 23 -68 1 -90 -2
-90 -12z"/>
<path d="M4260 5439 c0 -24 23 -21 28 4 2 10 -3 17 -12 17 -10 0 -16 -9 -16
-21z"/>
<path d="M4310 5444 c0 -11 21 -14 90 -14 66 0 90 3 90 13 0 9 -25 13 -90 13
-70 1 -90 -2 -90 -12z"/>
<path d="M5165 7470 c2 -13 -7 -30 -25 -48 -26 -25 -34 -48 -31 -95 1 -10 13
-29 29 -43 15 -14 27 -35 27 -47 0 -11 6 -22 13 -24 8 -3 12 6 12 26 0 24 6
34 25 43 46 21 46 119 0 140 -18 8 -25 19 -25 40 0 18 -5 28 -14 28 -9 0 -13
-7 -11 -20z m0 -121 c1 -51 -8 -62 -23 -31 -10 20 -9 63 2 81 13 20 20 3 21
-50z m55 1 c0 -21 -7 -43 -15 -50 -13 -11 -15 -4 -15 50 0 54 2 61 15 50 8 -7
15 -29 15 -50z"/>
<path d="M5306 7400 c-20 -49 -20 -50 -1 -50 8 0 15 8 15 18 0 10 6 27 14 37
13 18 14 18 24 -1 6 -11 13 -36 17 -57 8 -39 45 -75 65 -62 9 5 40 69 40 81 0
2 -6 4 -13 4 -7 0 -18 -13 -24 -30 -16 -42 -30 -37 -43 13 -18 71 -28 87 -54
87 -19 0 -27 -9 -40 -40z"/>
<path d="M5100 6791 c0 -5 12 -42 26 -81 31 -82 46 -87 81 -25 25 45 31 115
10 115 -9 0 -14 -13 -14 -39 0 -22 -8 -52 -18 -67 l-18 -28 -21 64 c-12 35
-27 65 -34 68 -6 2 -12 -1 -12 -7z"/>
<path d="M5338 6771 c8 -4 13 -12 12 -17 -1 -5 3 -10 9 -12 6 -2 11 0 11 5 0
12 -22 33 -34 33 -6 0 -5 -4 2 -9z"/>
<path d="M5276 6739 c-28 -33 -32 -50 -16 -80 11 -19 54 -27 64 -11 3 5 -5 8
-17 8 -31 -1 -36 47 -8 85 29 39 10 37 -23 -2z"/>
<path d="M5104 6046 c16 -64 49 -136 61 -136 8 0 26 20 40 43 28 49 35 117 11
117 -11 0 -15 -12 -14 -40 0 -22 -8 -52 -18 -67 l-17 -28 -22 65 c-12 35 -27
66 -35 68 -9 3 -11 -2 -6 -22z"/>
<path d="M5315 6018 l-26 -31 7 27 c4 19 2 26 -9 26 -9 0 -17 -15 -21 -42 -4
-24 -9 -53 -13 -65 -8 -34 13 -28 26 7 14 41 50 92 61 85 5 -3 2 -28 -6 -56
-15 -51 -14 -66 4 -55 10 6 22 50 28 98 5 39 -21 42 -51 6z"/>
<path d="M5398 6028 c-13 -13 -16 -17 -6 -9 25 19 28 12 18 -34 -18 -75 -12
-89 26 -60 19 15 19 15 0 8 -16 -5 -18 -3 -13 11 14 36 19 94 9 100 -6 3 -21
-4 -34 -16z"/>
<path d="M5123 5335 c-3 -9 -3 -19 1 -22 3 -4 6 2 6 11 0 15 7 17 39 14 22 -2
37 0 35 4 -9 15 -74 9 -81 -7z"/>
<path d="M5210 5309 c0 -8 59 -9 64 -1 2 4 -11 7 -30 7 -19 0 -34 -2 -34 -6z"/>
<path d="M5434 5292 c-25 -26 -26 -26 -20 -4 6 18 4 22 -13 22 -13 0 -19 -5
-15 -14 3 -8 -1 -37 -10 -65 -11 -39 -12 -51 -2 -51 6 0 18 17 25 38 13 36 47
82 62 82 4 0 1 -24 -7 -52 -16 -63 -17 -68 -5 -68 11 0 32 53 37 96 6 43 -17
50 -52 16z"/>
<path d="M5518 5298 c-13 -13 -17 -17 -8 -10 27 20 29 15 14 -40 -16 -64 -5
-84 29 -48 12 13 14 18 5 11 -22 -16 -23 -6 -6 51 15 52 0 68 -34 36z"/>
<path d="M5251 5281 c-8 -5 -9 -11 -3 -15 5 -3 12 1 16 9 6 17 6 18 -13 6z"/>
<path d="M5230 5238 c0 -4 4 -8 9 -8 6 0 12 4 15 8 3 5 -1 9 -9 9 -8 0 -15 -4
-15 -9z"/>
<path d="M5165 4750 c2 -13 -7 -30 -25 -48 -26 -25 -34 -48 -31 -95 1 -10 13
-29 29 -43 15 -14 27 -35 27 -47 0 -11 6 -22 13 -24 8 -3 12 6 12 26 0 24 6
34 25 43 46 21 46 119 0 140 -18 8 -25 19 -25 40 0 18 -5 28 -14 28 -9 0 -13
-7 -11 -20z m0 -121 c1 -51 -8 -62 -23 -31 -10 20 -9 63 2 81 13 20 20 3 21
-50z m55 1 c0 -21 -7 -43 -15 -50 -13 -11 -15 -4 -15 50 0 54 2 61 15 50 8 -7
15 -29 15 -50z"/>
<path d="M5339 4662 l-24 -27 24 20 24 20 -8 -40 c-4 -22 -9 -50 -11 -62 -7
-35 12 -27 26 10 31 83 13 129 -31 79z"/>
<path d="M5285 4670 c3 -5 -1 -34 -9 -65 -12 -47 -12 -55 0 -55 8 0 14 4 14 9
0 5 5 22 11 38 6 15 13 40 14 56 2 21 -2 27 -17 27 -10 0 -16 -4 -13 -10z"/>
<path d="M5404 4658 l-19 -23 23 19 c22 19 22 19 22 -7 0 -14 -5 -38 -10 -53
-16 -41 4 -55 33 -24 15 17 16 20 3 9 -21 -15 -21 -21 -1 69 7 28 5 32 -12 32
-11 0 -28 -10 -39 -22z"/>
<path d="M5120 4173 c0 -4 10 -17 22 -30 l21 -23 -22 -24 c-13 -14 -20 -29
-17 -35 5 -7 16 0 31 17 l23 27 24 -22 c36 -34 57 -28 24 6 l-28 29 21 23 c37
40 24 54 -16 17 l-23 -21 -23 21 c-24 22 -37 28 -37 15z"/>
<path d="M5178 3664 c-5 -4 -8 -20 -8 -36 0 -24 -4 -28 -30 -28 -16 0 -30 -4
-30 -10 0 -5 14 -10 30 -10 27 0 30 -3 30 -30 0 -28 19 -44 21 -17 1 6 2 19 3
27 0 9 15 17 36 21 35 6 29 14 -15 21 -14 2 -21 13 -25 37 -3 18 -8 29 -12 25z"/>
<path d="M7283 6944 c-1 -42 -4 -79 -7 -82 -4 -3 -24 5 -47 17 -56 32 -83 23
-97 -31 -16 -61 -9 -181 12 -212 21 -33 36 -33 92 0 l44 26 1 -29 c1 -15 2
-57 3 -93 l1 -65 298 -3 297 -2 0 275 0 275 -297 0 -298 0 -2 -76z m575 -196
l-3 -253 -272 -1 -273 -1 0 57 c0 126 -21 150 -91 103 -40 -26 -42 -27 -55 -8
-14 19 -17 36 -16 115 0 74 1 85 15 104 13 18 16 17 61 -7 52 -27 75 -26 77 4
1 10 3 24 4 29 1 6 3 33 4 60 l1 50 275 0 276 0 -3 -252z"/>
<path d="M7534 6819 c-14 -16 -19 -36 -19 -81 1 -51 4 -63 24 -79 45 -37 97
-16 111 45 10 45 -3 106 -26 123 -27 19 -69 16 -90 -8z m76 -14 c20 -24 21
-102 2 -125 -21 -25 -58 -17 -66 13 -22 84 22 162 64 112z"/>
<path d="M8500 6940 c0 -89 -4 -93 -58 -60 -45 28 -69 25 -87 -10 -20 -38 -20
-178 -1 -225 18 -42 41 -45 95 -11 21 14 42 22 45 19 3 -4 6 -46 6 -95 l0 -88
545 0 c300 0 545 3 546 8 0 4 2 127 2 275 l2 267 -547 0 -548 0 0 -80z m1070
-194 l0 -254 -523 1 -523 0 -2 80 c-2 109 -13 120 -84 84 -31 -16 -56 -23 -61
-18 -15 15 -21 165 -7 205 6 20 15 36 20 36 4 0 28 -11 52 -25 64 -36 78 -22
81 73 l1 72 523 0 523 0 0 -254z"/>
<path d="M8749 6819 c-16 -16 -18 -23 -9 -29 8 -5 19 0 30 12 11 14 23 19 37
14 41 -13 36 -36 -22 -93 -74 -74 -73 -83 15 -83 40 0 70 4 70 10 0 11 -7 12
-70 11 l-45 -2 53 50 c55 54 65 86 36 115 -22 23 -70 20 -95 -5z"/>
<path d="M8920 6820 c-11 -11 -21 -26 -21 -32 -1 -7 -3 -26 -5 -42 -11 -96 96
-147 131 -62 12 27 13 49 6 109 -2 17 -43 47 -66 47 -14 0 -34 -9 -45 -20z
m76 -24 c29 -45 7 -136 -32 -136 -27 0 -47 48 -41 96 7 66 43 85 73 40z"/>
<path d="M9081 6814 c-47 -60 -15 -174 49 -174 41 0 70 41 70 97 0 44 -13 82
-34 95 -24 17 -65 8 -85 -18z m78 -8 c6 -7 12 -37 12 -66 1 -41 -3 -56 -17
-67 -22 -16 -26 -16 -47 0 -15 11 -22 48 -18 99 1 20 28 48 45 48 8 0 19 -6
25 -14z"/>
<path d="M9251 6823 c-27 -22 -35 -95 -16 -141 26 -61 106 -53 124 13 21 77
-9 145 -64 145 -13 0 -32 -8 -44 -17z m68 -12 c22 -14 26 -96 7 -126 -20 -31
-40 -32 -60 -3 -19 27 -21 77 -4 113 11 25 32 32 57 16z"/>
<path d="M10345 6946 c0 -41 -4 -78 -8 -83 -5 -4 -26 3 -49 16 -55 31 -85 23
-95 -27 -13 -67 -7 -190 11 -217 21 -31 38 -31 92 0 l43 25 5 -32 c3 -18 5
-55 5 -83 -1 -27 -1 -56 0 -62 1 -10 92 -13 421 -13 l420 0 0 275 0 275 -422
0 -423 0 0 -74z m825 -199 l0 -254 -400 0 -400 -1 0 69 c0 72 -14 119 -37 119
-7 0 -32 -12 -54 -27 -28 -18 -43 -23 -50 -16 -26 26 -26 210 -1 235 6 6 27 1
57 -15 71 -38 85 -25 85 86 l0 57 400 0 400 0 0 -253z"/>
<path d="M10479 6891 c-29 -29 -29 -31 -29 -143 0 -120 8 -142 56 -166 28 -15
479 -15 522 -1 47 15 62 57 62 168 0 172 2 171 -330 171 l-252 0 -29 -29z
m568 -14 c14 -13 18 -37 20 -115 2 -107 -7 -144 -40 -159 -17 -8 -485 -12
-519 -5 -23 5 -38 67 -38 157 0 88 2 98 25 120 l24 25 255 -3 c228 -2 257 -4
273 -20z"/>
<path d="M10595 6825 c-5 -11 -12 -23 -17 -26 -5 -3 -5 -17 1 -30 5 -14 8 -40
6 -59 -4 -48 10 -70 43 -69 l27 0 -22 16 c-19 13 -23 25 -23 69 0 41 4 54 15
54 8 0 15 5 15 10 0 6 -6 10 -14 10 -8 0 -16 10 -19 23 -3 21 -4 21 -12 2z"/>
<path d="M10665 6720 c0 -57 4 -80 12 -80 9 0 13 17 13 53 0 57 6 70 33 80 20
7 23 27 4 27 -7 0 -18 -5 -25 -12 -9 -9 -12 -9 -12 0 0 7 -6 12 -13 12 -9 0
-12 -22 -12 -80z"/>
<path d="M11870 6946 c0 -41 -4 -77 -9 -81 -5 -3 -30 4 -54 16 -76 37 -97 10
-98 -125 -1 -139 23 -167 102 -123 57 32 59 29 59 -84 l0 -79 294 0 c226 0
295 3 298 13 2 6 4 129 4 272 l-1 260 -297 3 -298 2 0 -74z m570 -200 l0 -254
-275 1 -275 0 0 77 c0 51 -5 83 -14 96 -15 19 -16 18 -66 -10 -70 -38 -75 -31
-75 99 0 131 6 139 76 100 50 -27 53 -27 66 -10 8 12 13 46 13 87 l0 68 275 0
275 0 0 -254z"/>
<path d="M12130 6821 c-14 -11 -21 -23 -17 -27 4 -4 13 -2 19 4 22 22 27 12
25 -60 -2 -64 -4 -73 -22 -76 -50 -9 -34 -22 28 -22 49 0 67 4 67 13 0 8 -10
13 -22 13 -22 -1 -23 2 -23 84 0 94 -9 106 -55 71z"/>
<path d="M13140 6940 c0 -89 -4 -93 -58 -60 -48 30 -71 26 -88 -15 -16 -40
-19 -153 -4 -207 15 -54 49 -59 111 -17 14 10 29 16 33 12 3 -3 6 -46 6 -95
l0 -88 300 0 300 0 0 275 0 275 -300 0 -300 0 0 -80z m574 -187 c-1 -137 -2
-251 -3 -254 0 -3 -123 -6 -273 -5 l-272 1 -1 78 c-1 58 -6 82 -19 95 -15 16
-19 15 -65 -11 -67 -37 -76 -25 -76 99 0 123 11 136 80 99 65 -34 78 -22 79
74 l1 71 275 0 275 0 -1 -247z"/>
<path d="M13404 6832 c-33 -22 -45 -107 -22 -157 21 -46 95 -46 116 0 23 50
11 135 -22 157 -6 4 -22 8 -36 8 -14 0 -30 -4 -36 -8z m66 -27 c19 -23 14
-117 -7 -132 -21 -16 -25 -16 -47 0 -25 18 -25 116 0 134 23 17 39 16 54 -2z"/>
<path d="M6880 6736 l0 -136 30 0 c17 0 30 5 30 10 0 6 -7 10 -15 10 -16 0
-16 1 -19 149 -1 66 -5 96 -13 98 -10 4 -13 -27 -13 -131z"/>
<path d="M8100 6861 c0 -5 8 -11 18 -13 16 -4 18 -18 17 -117 -1 -110 7 -149
23 -124 5 8 8 208 3 256 -1 10 -61 9 -61 -2z"/>
<path d="M6422 6850 c-4 -3 -7 -51 -7 -107 l0 -103 107 0 108 0 0 105 c0 58
-3 106 -7 106 -25 4 -195 4 -201 -1z m183 -105 l0 -80 -82 0 -83 0 0 83 0 83
82 -3 83 -3 0 -80z"/>
<path d="M6552 6793 c4 -21 33 -25 33 -3 0 8 -8 16 -18 18 -14 3 -18 -1 -15
-15z"/>
<path d="M6462 6703 c2 -10 10 -18 18 -18 22 0 18 29 -3 33 -14 3 -18 -1 -15
-15z"/>
<path d="M6264 6788 c-16 -18 -22 -27 -14 -20 23 19 30 14 30 -22 0 -34 -18
-59 -42 -55 -27 3 -48 -1 -48 -11 0 -5 20 -10 44 -10 51 0 68 16 71 66 3 44
10 50 32 33 10 -7 5 1 -11 19 -17 18 -30 32 -31 32 -1 0 -14 -15 -31 -32z"/>
<path d="M9904 6787 c-16 -18 -22 -26 -14 -19 23 19 30 14 30 -22 0 -40 -19
-59 -56 -54 -16 2 -29 -2 -31 -9 -3 -9 9 -13 41 -13 37 0 48 4 62 24 8 14 15
33 14 43 -4 34 0 45 14 40 21 -8 10 16 -13 30 -16 10 -23 7 -47 -20z"/>
<path d="M12730 6785 c0 -32 -2 -35 -30 -35 -16 0 -30 -4 -30 -10 0 -5 14 -10
30 -10 27 0 30 -3 30 -31 0 -20 4 -29 13 -26 7 2 11 15 9 30 -3 25 -1 27 33
27 22 0 34 4 30 10 -3 6 -19 10 -36 10 -16 0 -28 3 -28 8 1 4 1 19 0 35 -2 40
-21 33 -21 -8z"/>
<path d="M11410 6793 c0 -4 10 -17 22 -30 l21 -23 -23 -25 c-31 -32 -17 -46
15 -15 l25 23 25 -23 c32 -31 46 -17 15 15 l-23 25 23 25 c31 32 17 46 -15 15
l-25 -23 -23 21 c-24 22 -37 28 -37 15z"/>
<path d="M7284 6215 c0 -41 -3 -78 -7 -81 -4 -4 -28 3 -54 16 -54 27 -72 21
-90 -31 -17 -49 -10 -181 11 -213 20 -32 37 -32 87 -4 21 12 42 19 45 15 4 -4
8 -44 8 -89 l1 -83 298 -3 297 -2 0 275 0 275 -298 0 -298 0 0 -75z m573 -202
l2 -253 -273 0 -274 0 -3 85 c-5 111 -18 122 -93 76 -37 -24 -39 -24 -52 -6
-13 18 -16 33 -17 100 0 70 4 102 16 118 11 16 15 15 59 -8 58 -31 65 -31 74
-2 11 32 11 32 13 91 l1 54 273 -2 272 -1 2 -252z"/>
<path d="M7537 6092 c-22 -24 -32 -99 -18 -135 20 -52 95 -62 119 -15 11 21
17 66 13 111 -3 49 -81 75 -114 39z m73 -17 c21 -25 20 -105 -1 -126 -23 -23
-33 -24 -53 -3 -10 10 -16 33 -16 64 0 67 38 103 70 65z"/>
<path d="M8500 6210 c0 -49 -4 -80 -10 -80 -6 0 -28 9 -50 20 -22 11 -46 20
-55 20 -25 0 -45 -62 -45 -143 0 -131 26 -165 99 -127 22 11 45 20 51 20 6 0
10 -34 10 -90 l0 -90 465 0 465 0 0 275 0 275 -465 0 -465 0 0 -80z m905 -195
l0 -250 -441 -3 -440 -2 -1 81 c-2 111 -14 123 -81 86 -46 -25 -51 -26 -63
-10 -19 22 -19 193 -1 216 13 15 18 14 64 -9 65 -33 76 -23 82 71 2 39 5 71 5
71 1 1 198 1 438 0 l438 -1 0 -250z"/>
<path d="M8750 6090 c-24 -24 -25 -34 -5 -53 13 -13 13 -16 0 -27 -21 -17 -19
-64 3 -83 58 -52 160 24 106 78 -13 12 -14 19 -5 28 6 6 11 21 11 34 0 43 -74
59 -110 23z m75 -30 c0 -35 -50 -42 -60 -9 -8 25 9 41 40 37 14 -2 20 -11 20
-28z m3 -62 c16 -16 15 -43 -3 -58 -20 -17 -61 -5 -68 20 -10 38 43 66 71 38z"/>
<path d="M8921 6093 c-43 -36 -30 -163 19 -178 60 -19 101 30 94 115 -4 50
-30 80 -69 80 -13 0 -32 -8 -44 -17z m68 -12 c22 -14 26 -96 7 -126 -20 -31
-40 -32 -60 -3 -30 42 -11 138 27 138 7 0 18 -4 26 -9z"/>
<path d="M9094 6102 c-20 -13 -34 -50 -34 -92 0 -67 24 -100 72 -100 39 0 68
42 68 97 0 69 -23 103 -70 103 -14 0 -30 -4 -36 -8z m59 -25 c19 -13 26 -76
13 -114 -17 -52 -75 -33 -77 26 -4 89 20 121 64 88z"/>
<path d="M10180 6210 c0 -49 -4 -80 -10 -80 -6 0 -28 9 -50 20 -54 28 -69 25
-86 -15 -31 -75 -10 -255 31 -255 9 0 33 9 55 20 22 11 44 20 50 20 6 0 10
-34 10 -90 l0 -90 423 0 424 0 -1 275 -1 275 -422 0 -423 0 0 -80z m816 49 c4
-7 8 -377 5 -477 l-1 -22 -397 2 -398 3 -2 79 c-3 107 -15 119 -80 83 -71 -38
-78 -30 -78 92 0 131 10 144 79 105 62 -34 73 -24 80 71 2 39 5 71 5 71 4 7
783 0 787 -7z"/>
<path d="M10328 6172 c-16 -9 -32 -30 -37 -47 -13 -40 -8 -215 7 -241 21 -39
63 -44 320 -44 l245 1 28 29 c29 28 31 40 31 140 0 111 -2 122 -31 151 l-29
29 -254 0 c-221 0 -257 -3 -280 -18z m549 -28 c21 -21 23 -32 23 -129 0 -98
-2 -108 -23 -129 -24 -24 -26 -24 -263 -24 -143 -1 -250 3 -266 9 -35 14 -44
46 -43 149 1 100 8 124 37 137 13 5 130 10 267 10 243 0 245 0 268 -23z"/>
<path d="M10430 6101 c0 -5 -7 -17 -17 -26 -10 -10 -12 -19 -6 -23 5 -4 10
-33 11 -64 0 -32 3 -62 7 -68 8 -13 42 -13 50 0 3 6 -1 10 -9 10 -9 0 -16 3
-17 8 -9 59 -5 98 9 110 16 12 16 14 -1 23 -9 6 -15 14 -12 19 3 5 1 11 -5 15
-5 3 -10 2 -10 -4z"/>
<path d="M10500 5990 c0 -63 3 -80 14 -80 9 0 14 10 14 28 -2 78 2 91 28 105
19 10 23 16 15 22 -7 4 -18 2 -24 -4 -14 -14 -30 -15 -22 -1 3 6 -1 10 -9 10
-13 0 -16 -14 -16 -80z"/>
<path d="M11700 6210 c0 -45 -4 -80 -10 -80 -5 0 -30 10 -55 22 l-45 22 -23
-22 c-20 -20 -22 -33 -22 -115 0 -151 19 -178 96 -138 22 12 44 21 49 21 6 0
10 -39 10 -90 l0 -90 300 0 300 0 0 275 0 275 -300 0 -300 0 0 -80z m576 -197
l1 -253 -273 0 c-151 0 -274 3 -275 8 -1 4 -2 40 -3 80 -4 101 -16 113 -85 77
-29 -15 -54 -25 -57 -22 -23 23 -26 205 -4 232 10 12 19 11 62 -11 46 -23 52
-24 66 -10 9 9 16 37 18 73 1 32 3 63 3 69 1 9 76 11 274 10 l272 -1 1 -252z"/>
<path d="M11966 6089 c-31 -24 -28 -36 3 -19 20 10 21 9 21 -65 0 -73 -1 -75
-25 -75 -14 0 -25 -4 -25 -10 0 -6 28 -10 65 -10 37 0 65 4 65 10 0 6 -11 10
-25 10 -25 0 -25 1 -25 90 0 99 -6 107 -54 69z"/>
<path d="M12979 6283 c0 -5 -1 -38 -2 -75 -1 -36 -5 -69 -9 -73 -4 -4 -27 2
-51 14 -56 27 -63 26 -84 -5 -24 -37 -24 -201 1 -238 20 -32 37 -32 87 -4 21
12 42 18 46 14 4 -4 8 -39 10 -79 1 -40 2 -78 2 -84 1 -10 67 -13 296 -13
l295 0 0 275 0 275 -295 0 c-162 0 -295 -3 -296 -7z m571 -269 l0 -254 -275 0
-275 0 0 68 c0 121 -13 135 -86 96 -30 -16 -50 -22 -56 -16 -24 24 -25 209 -2
232 7 7 25 2 57 -15 72 -38 87 -23 87 86 l0 57 275 0 275 0 0 -254z"/>
<path d="M13231 6091 c-42 -42 -33 -151 14 -173 61 -27 110 29 100 114 -9 70
-71 102 -114 59z m68 -10 c7 -5 16 -32 19 -60 5 -53 -14 -91 -44 -91 -27 0
-47 48 -41 96 6 57 31 77 66 55z"/>
<path d="M6880 6006 l0 -136 30 0 c17 0 30 5 30 10 0 6 -7 10 -15 10 -17 0
-16 -4 -18 139 -2 73 -6 106 -14 109 -10 3 -13 -28 -13 -132z"/>
<path d="M8100 6130 c0 -5 7 -10 15 -10 18 0 17 9 19 -127 2 -107 9 -141 24
-116 5 9 8 217 3 256 -1 11 -61 8 -61 -3z"/>
<path d="M6421 6115 c-4 -5 -7 -53 -7 -105 l1 -95 108 -3 107 -3 0 108 0 108
-101 0 c-57 0 -104 -4 -108 -10z m184 -97 l0 -82 -83 -1 -82 -1 0 83 0 83 83
0 82 0 0 -82z"/>
<path d="M6552 6063 c2 -10 10 -18 18 -18 22 0 18 29 -3 33 -14 3 -18 -1 -15
-15z"/>
<path d="M6462 5973 c2 -10 10 -18 18 -18 22 0 18 29 -3 33 -14 3 -18 -1 -15
-15z"/>
<path d="M6273 6071 c-28 -23 -29 -29 -5 -27 13 1 16 -5 14 -29 -5 -36 -20
-56 -41 -54 -32 3 -51 -1 -51 -11 0 -16 86 -12 100 5 6 8 14 33 17 55 5 32 9
40 22 35 10 -4 7 3 -8 19 -14 15 -25 26 -25 26 -1 -1 -11 -9 -23 -19z"/>
<path d="M9739 6064 l-24 -26 23 7 c21 6 22 4 19 -30 -6 -49 -8 -51 -67 -54
-48 -2 -35 -21 14 -21 58 0 76 18 76 77 l0 45 28 -17 27 -18 -29 32 c-17 17
-33 31 -36 31 -4 0 -17 -12 -31 -26z"/>
<path d="M12569 6081 c-1 -6 -2 -21 -3 -33 -1 -18 -8 -24 -34 -26 -39 -4 -33
-22 7 -22 20 0 28 -5 28 -17 0 -34 3 -43 13 -43 6 0 10 14 10 30 0 27 3 30 30
30 17 0 30 5 30 10 0 6 -13 10 -30 10 -27 0 -30 3 -30 29 0 28 -18 55 -21 32z"/>
<path d="M11240 6062 c0 -5 11 -19 24 -31 l25 -23 -26 -26 c-17 -17 -22 -27
-14 -30 7 -2 22 6 33 18 l20 21 23 -21 c34 -31 55 -21 23 11 l-25 25 25 29
c29 34 13 46 -20 16 -27 -26 -35 -26 -50 -1 -13 20 -38 28 -38 12z"/>
<path d="M7499 5553 c-1 -5 -3 -33 -4 -63 -1 -30 -3 -65 -4 -77 l-1 -23 -56
28 -56 27 -18 -22 c-49 -61 -29 -273 26 -273 8 0 33 10 54 22 21 13 42 19 46
15 4 -4 8 -45 8 -92 l1 -85 298 0 297 0 0 275 0 275 -295 0 c-162 0 -296 -3
-296 -7z m571 -269 l0 -254 -275 0 -275 0 -1 38 c-1 88 -6 124 -21 138 -14 15
-20 14 -63 -12 -46 -26 -48 -27 -61 -9 -21 28 -23 179 -4 216 10 18 13 18 65
-8 70 -34 78 -27 83 71 l4 74 274 -1 274 0 0 -253z"/>
<path d="M7745 5360 c-22 -24 -30 -96 -16 -133 20 -52 95 -62 119 -15 13 23
16 50 13 101 -3 58 -78 89 -116 47z m83 -30 c14 -27 8 -95 -10 -117 -30 -37
-67 1 -68 69 0 74 48 104 78 48z"/>
<path d="M8849 5558 c-1 -2 -3 -30 -4 -63 -2 -33 -3 -70 -4 -82 l-1 -23 -56
28 -56 27 -18 -23 c-34 -41 -39 -180 -9 -246 15 -32 38 -33 89 -4 21 13 42 19
46 15 4 -4 8 -44 8 -90 l1 -82 413 -3 412 -2 0 275 0 275 -410 0 c-225 0 -411
-1 -411 -2z m801 -274 l0 -254 -390 0 -390 0 0 74 c0 57 -4 79 -19 97 l-18 23
-48 -29 c-46 -26 -49 -27 -62 -9 -13 18 -16 37 -16 109 1 74 3 91 16 109 12
16 15 16 59 -9 49 -27 77 -25 79 6 1 10 3 24 4 29 1 6 3 32 4 59 l1 48 390 1
390 0 0 -254z"/>
<path d="M8992 5440 c-17 -10 -33 -28 -37 -39 -5 -18 -8 -106 -6 -204 1 -18
12 -40 31 -58 l29 -30 255 3 c314 4 299 -3 304 144 5 124 -2 157 -36 180 -24
17 -52 19 -269 20 -217 2 -245 0 -271 -16z m539 -30 c17 -22 19 -38 17 -133
-4 -155 12 -147 -288 -147 -303 0 -290 -6 -290 146 0 111 8 140 42 153 11 4
128 7 260 6 l240 -1 19 -24z"/>
<path d="M9090 5313 c-39 -50 -8 -133 50 -133 15 0 38 9 51 20 28 23 19 25
-29 8 -30 -11 -35 -11 -48 7 -26 36 -18 45 41 45 48 0 55 2 55 20 0 57 -83 80
-120 33z m74 1 c33 -13 17 -34 -24 -34 -41 0 -49 7 -28 28 13 13 28 15 52 6z"/>
<path d="M10473 5508 c0 -29 -1 -68 -2 -85 l-1 -33 -55 27 -55 27 -22 -22
c-20 -20 -23 -33 -23 -115 0 -103 16 -157 47 -157 10 0 37 10 58 22 21 13 41
20 44 17 4 -3 7 -45 8 -92 l1 -87 414 0 413 0 0 275 0 275 -413 0 -414 0 0
-52z m805 -225 l2 -253 -390 0 c-305 0 -390 3 -391 13 0 6 -1 42 -3 79 -1 48
-7 73 -18 84 -15 16 -20 15 -63 -11 -29 -16 -51 -23 -56 -18 -17 17 -26 68
-23 142 3 99 13 109 81 74 66 -34 76 -26 79 64 2 38 3 71 3 74 1 4 175 6 389
5 l387 -1 3 -252z"/>
<path d="M10633 5449 c-44 -16 -54 -49 -55 -170 l-1 -113 32 -28 32 -29 256 3
255 3 24 28 c22 26 24 37 24 133 0 110 -12 154 -47 170 -24 10 -493 13 -520 3z
m514 -29 c29 -18 33 -37 33 -148 0 -85 -2 -95 -25 -117 l-24 -25 -239 0 c-305
0 -292 -6 -292 146 0 111 8 140 42 153 11 4 124 7 252 6 180 -1 236 -4 253
-15z"/>
<path d="M10810 5360 c0 -37 -2 -39 -18 -29 -28 18 -71 3 -83 -29 -12 -31 -6
-87 12 -108 14 -17 61 -18 77 -2 9 9 12 9 12 -1 0 -7 6 -11 13 -9 18 7 20 218
1 218 -10 0 -14 -13 -14 -40z m-12 -52 c16 -16 15 -70 -2 -93 -12 -17 -18 -18
-40 -7 -21 9 -26 18 -26 50 0 40 14 62 40 62 9 0 21 -5 28 -12z"/>
<path d="M12059 5553 c-1 -5 -3 -33 -4 -63 -1 -30 -3 -65 -4 -77 l-1 -23 -56
28 -56 27 -18 -22 c-34 -43 -37 -198 -4 -250 18 -29 36 -29 86 -1 50 29 55 21
53 -82 l-2 -80 424 0 423 0 0 275 0 275 -420 0 c-231 0 -421 -3 -421 -7z m817
-270 l1 -253 -399 0 -398 0 0 74 c0 57 -4 79 -18 96 l-19 23 -48 -28 c-46 -27
-48 -28 -61 -10 -13 17 -18 50 -16 115 1 75 3 90 17 104 14 14 21 13 65 -12
63 -35 73 -26 78 72 l4 73 397 -1 396 -1 1 -252z"/>
<path d="M12223 5452 c-13 -2 -32 -15 -43 -29 -17 -22 -20 -40 -20 -140 0
-113 0 -115 29 -144 l29 -29 252 0 c333 0 329 -2 325 180 -4 172 11 164 -305
165 -135 1 -255 -1 -267 -3z m514 -25 c30 -11 39 -48 38 -153 0 -65 -5 -98
-16 -115 l-16 -24 -257 -3 -256 -3 -25 25 c-23 23 -25 32 -25 126 0 106 8 136
41 148 26 10 487 8 516 -1z"/>
<path d="M12300 5366 c0 -8 -7 -19 -16 -24 -11 -6 -13 -11 -5 -16 6 -4 11 -33
11 -65 0 -59 11 -81 42 -81 22 0 24 16 3 24 -11 4 -15 21 -15 61 0 42 3 55 15
55 8 0 15 5 15 10 0 6 -7 10 -15 10 -8 0 -15 6 -15 14 0 8 -4 18 -10 21 -5 3
-10 -1 -10 -9z"/>
<path d="M12370 5259 c0 -64 3 -79 15 -79 12 0 15 13 15 60 0 55 2 62 25 72
36 16 31 25 -15 25 l-40 0 0 -78z"/>
<path d="M13580 5491 c0 -103 -2 -105 -61 -75 -27 15 -56 24 -64 20 -25 -9
-37 -56 -37 -141 0 -135 24 -165 99 -125 57 30 63 22 63 -82 l0 -78 295 0 295
0 1 23 c1 28 1 509 0 520 -1 4 -134 7 -296 7 l-295 0 0 -69z m570 -207 l0
-254 -275 0 -275 0 0 79 c0 59 -4 84 -16 95 -20 20 -17 21 -70 -10 -35 -21
-48 -24 -57 -15 -18 18 -22 201 -5 223 12 17 16 16 66 -10 52 -26 54 -27 68
-8 9 13 14 45 14 86 l0 67 275 0 275 0 0 -253z"/>
<path d="M13840 5361 c-14 -11 -21 -23 -17 -27 4 -4 13 -2 19 4 22 22 25 13
24 -60 -1 -64 -3 -73 -21 -76 -11 -2 -24 -8 -29 -13 -6 -5 20 -9 64 -9 44 0
70 4 65 9 -6 5 -19 11 -30 13 -18 3 -20 11 -20 88 0 94 -9 106 -55 71z"/>
<path d="M14850 5482 c0 -43 -3 -82 -6 -85 -4 -3 -26 5 -50 19 -76 45 -104 12
-104 -123 0 -81 20 -143 45 -143 9 0 33 9 55 20 22 11 44 20 50 20 6 0 10 -34
10 -90 l0 -90 300 0 301 0 -1 275 -1 275 -300 0 -299 0 0 -78z m572 39 c2 -9
3 -122 3 -251 l0 -235 -276 -3 -276 -2 0 79 c0 107 -18 130 -71 92 -15 -10
-37 -21 -48 -25 -31 -9 -42 30 -40 138 2 107 11 116 79 79 62 -34 75 -23 81
67 2 36 5 68 5 72 1 3 122 6 270 6 240 0 270 -2 273 -17z"/>
<path d="M15107 5368 c-22 -17 -34 -64 -27 -110 10 -72 62 -99 111 -59 20 16
24 28 24 79 0 45 -5 65 -19 81 -21 23 -63 27 -89 9z m67 -24 c33 -33 14 -144
-25 -144 -26 0 -46 38 -44 84 4 69 34 95 69 60z"/>
<path d="M9952 5355 c-72 -60 -32 -165 63 -165 69 0 113 75 81 135 -32 58 -95
71 -144 30z m58 4 c3 7 14 9 23 5 9 -3 15 -10 12 -14 -3 -4 2 -7 10 -6 7 0 15
-3 16 -9 2 -5 9 -16 17 -24 10 -10 11 -16 2 -21 -9 -6 -9 -9 0 -12 9 -3 8 -9
-4 -21 -10 -9 -14 -17 -10 -17 3 0 1 -7 -6 -15 -7 -8 -16 -12 -21 -9 -5 3 -9
1 -9 -5 0 -17 -60 -10 -61 8 0 11 -2 12 -6 3 -4 -10 -8 -10 -19 -1 -8 6 -11
15 -8 20 3 5 1 9 -4 9 -6 0 -10 16 -10 35 0 20 4 32 10 29 5 -3 8 2 6 12 -2
13 3 19 14 18 10 -1 16 2 13 6 -3 5 1 10 7 13 7 2 15 0 17 -6 2 -5 6 -4 11 2z"/>
<path d="M9985 5290 c16 -10 32 -17 35 -14 7 8 -31 34 -49 34 -10 0 -4 -8 14
-20z"/>
<path d="M6264 5328 c-16 -18 -22 -27 -14 -20 23 20 30 14 30 -22 0 -39 -12
-51 -54 -51 -16 0 -31 -6 -34 -13 -6 -18 82 -16 98 3 7 8 14 31 16 51 4 45 9
50 31 33 10 -7 5 1 -11 19 -17 18 -30 32 -31 32 -1 0 -14 -15 -31 -32z"/>
<path d="M11614 5334 c-26 -23 -27 -25 -6 -19 20 6 22 3 22 -28 0 -42 -17 -58
-58 -53 -20 2 -33 -2 -36 -10 -4 -11 5 -14 37 -14 57 0 77 16 81 65 2 31 6 40
20 38 15 -1 15 2 -5 23 -12 13 -23 24 -24 24 -1 0 -15 -12 -31 -26z"/>
<path d="M14447 5353 c-4 -3 -7 -19 -7 -35 0 -24 -4 -28 -30 -28 -16 0 -30 -4
-30 -10 0 -5 14 -10 30 -10 27 0 30 -3 30 -30 0 -19 5 -30 14 -30 9 0 12 10
10 30 -3 29 -2 30 33 30 40 0 35 16 -7 22 -19 2 -25 9 -27 32 -2 32 -6 39 -16
29z"/>
<path d="M13116 5333 c-3 -4 5 -17 20 -29 l26 -23 -26 -28 c-31 -33 -15 -45
19 -13 l24 22 22 -21 c40 -37 54 -24 17 16 l-21 23 23 25 c31 32 17 46 -15 15
l-25 -23 -23 21 c-25 24 -30 26 -41 15z"/>
<path d="M6930 5290 c-22 -22 -20 -57 4 -72 21 -14 55 -8 69 13 11 15 25 20
49 19 63 -4 109 0 104 8 -3 5 -35 8 -71 7 -52 -1 -69 2 -78 15 -21 29 -54 33
-77 10z m64 -23 c9 -15 7 -21 -9 -33 -22 -16 -34 -14 -49 8 -7 12 -6 21 4 33
16 19 39 16 54 -8z"/>
<path d="M8441 5297 c-7 -9 -31 -13 -71 -12 -40 1 -64 -3 -71 -12 -9 -11 2
-13 65 -13 42 0 76 -4 76 -9 0 -13 34 -23 53 -16 19 8 27 37 15 59 -11 19 -51
21 -67 3z m49 -20 c0 -8 -3 -17 -7 -20 -9 -9 -34 13 -27 24 8 14 34 11 34 -4z"/>
<path d="M6395 5260 c-4 -6 47 -10 144 -10 94 0 151 4 151 10 0 6 -55 10 -144
10 -86 0 -147 -4 -151 -10z"/>
<path d="M6186 4737 c-25 -18 -35 -74 -22 -127 9 -35 17 -47 38 -54 36 -13 75
5 89 41 14 37 6 109 -16 133 -21 23 -63 26 -89 7z m74 -26 c16 -30 12 -107 -6
-125 -36 -37 -67 -7 -67 64 0 27 5 56 12 64 18 22 48 20 61 -3z"/>
<path d="M6190 4200 c-14 -10 -21 -22 -17 -26 4 -4 13 -2 19 4 23 23 28 11 28
-63 0 -73 -1 -75 -25 -75 -14 0 -25 -4 -25 -10 0 -6 28 -10 65 -10 70 0 81 6
38 21 -28 9 -28 10 -27 94 1 94 -7 103 -56 65z"/>
<path d="M6186 3677 c-21 -15 -34 -70 -26 -114 11 -67 63 -93 111 -54 20 16
24 28 24 79 0 45 -5 65 -19 81 -21 24 -63 27 -90 8z m68 -23 c10 -10 16 -33
16 -62 0 -54 -6 -67 -36 -76 -31 -9 -47 16 -47 74 -1 70 31 101 67 64z"/>
<path d="M3553 3122 c-33 -26 -40 -57 -38 -170 2 -111 11 -132 63 -149 21 -7
374 -10 480 -4 13 0 36 14 51 29 27 27 28 31 28 132 1 111 -10 150 -46 170
-12 6 -116 10 -268 10 -220 0 -251 -2 -270 -18z m538 -21 c21 -17 23 -27 25
-125 2 -98 1 -109 -20 -133 l-23 -26 -192 -1 c-106 -1 -196 1 -199 4 -4 3 -8
15 -9 28 -3 20 0 22 36 16 33 -5 41 -3 55 17 20 30 21 88 0 117 -17 24 -44 28
-76 11 -15 -8 -19 -8 -14 0 4 6 0 11 -8 11 -17 0 -17 -1 -18 -120 0 -83 -10
-95 -60 -78 -44 16 -50 32 -52 136 -2 97 9 144 36 155 7 3 122 6 254 6 222 1
244 -1 265 -18z m-353 -113 c14 -14 16 -77 3 -97 -12 -19 -61 -6 -62 17 -7 77
23 116 59 80z"/>
<path d="M4257 2986 c-3 -8 1 -17 9 -20 23 -9 24 -8 24 14 0 23 -25 27 -33 6z"/>
<path d="M4310 2983 c0 -10 24 -13 95 -13 57 0 95 4 95 10 0 12 0 12 -107 14
-62 2 -83 -1 -83 -11z"/>
<path d="M4257 2926 c-3 -8 1 -17 9 -20 23 -9 24 -8 24 14 0 23 -25 27 -33 6z"/>
<path d="M4310 2923 c0 -10 24 -13 95 -13 71 0 93 3 90 13 -7 18 -185 18 -185
0z"/>
<path d="M6238 3240 c-1 -6 -5 -73 -7 -122 -1 -43 -14 -47 -51 -18 -33 26 -76
26 -90 0 -15 -28 -24 -130 -16 -183 4 -26 15 -56 25 -69 l18 -22 52 26 c62 31
63 30 65 -80 l1 -77 348 -3 347 -2 -2 277 -3 278 -342 0 c-189 0 -344 -2 -345
-5z m668 -272 l-1 -253 -322 0 -323 0 -1 25 c-1 14 0 40 1 58 2 47 -18 102
-38 102 -9 0 -30 -9 -47 -20 -64 -42 -79 -21 -79 113 1 59 5 82 17 94 15 15
20 15 65 -10 71 -38 75 -32 81 131 1 9 73 12 325 12 l323 0 -1 -252z"/>
<path d="M6596 3039 c-31 -24 -28 -36 3 -19 20 10 21 9 21 -65 0 -73 -1 -75
-25 -75 -14 0 -25 -4 -25 -10 0 -6 28 -10 65 -10 62 0 91 15 43 22 -22 3 -23
8 -26 91 -3 96 -9 103 -56 66z"/>
<path d="M6478 2952 c-34 -7 -18 -22 23 -22 27 0 39 4 37 12 -4 12 -30 16 -60
10z"/>
<path d="M7554 3241 c-2 -2 -4 -37 -4 -77 0 -40 -5 -76 -10 -79 -6 -4 -25 3
-44 14 -40 25 -69 27 -87 5 -18 -22 -25 -195 -9 -233 17 -42 36 -45 90 -17 26
14 50 22 54 19 3 -4 6 -46 6 -95 l0 -88 298 2 297 3 0 273 c1 149 -2 273 -5
273 -15 4 -582 3 -586 0z m566 -48 c3 -153 0 -465 -4 -471 -2 -4 -125 -7 -273
-7 l-268 0 -5 80 c-3 44 -9 86 -13 93 -12 17 -38 15 -67 -8 -59 -47 -80 -18
-77 108 3 117 11 127 77 90 66 -37 80 -24 80 73 l0 69 275 0 275 0 0 -27z"/>
<path d="M7810 3040 c-14 -10 -21 -22 -17 -26 4 -4 13 -2 19 4 23 23 28 11 28
-63 0 -55 -3 -75 -12 -74 -24 3 -38 -1 -38 -11 0 -6 29 -10 66 -10 41 0 63 4
59 10 -3 6 -15 10 -26 10 -21 0 -22 3 -21 108 1 80 -9 90 -58 52z"/>
<path d="M8900 3168 c0 -42 -5 -80 -10 -83 -6 -4 -26 3 -45 15 -74 46 -107 8
-107 -122 0 -84 14 -133 39 -143 9 -3 37 6 64 19 57 31 59 28 59 -85 l0 -79
420 0 420 0 1 43 c3 154 -1 500 -6 506 -4 3 -193 6 -421 6 l-414 0 0 -77z
m818 -200 l-3 -253 -397 0 -398 0 0 73 c0 109 -24 136 -80 92 -59 -46 -83 -10
-78 117 4 107 12 115 80 80 49 -26 54 -26 65 -10 8 9 13 46 13 85 l0 68 400 0
400 0 -2 -252z"/>
<path d="M9033 3116 c-27 -23 -28 -29 -32 -122 -4 -119 9 -170 47 -186 32 -13
494 -18 533 -6 46 15 59 54 59 173 0 104 -1 107 -29 136 l-29 29 -261 0 -260
0 -28 -24z m566 -22 c18 -23 21 -41 21 -120 0 -101 -10 -137 -44 -151 -11 -5
-131 -8 -265 -7 l-245 1 -22 26 c-20 23 -22 37 -22 127 -1 95 1 104 23 126
l24 24 255 0 255 0 20 -26z"/>
<path d="M9145 3045 c-5 -11 -13 -23 -19 -27 -8 -6 -8 -10 -1 -15 6 -5 10 -30
9 -58 -1 -60 10 -85 36 -85 24 0 25 6 5 26 -9 10 -15 34 -15 65 0 37 4 49 15
49 8 0 15 5 15 10 0 6 -6 10 -14 10 -8 0 -16 10 -19 23 -3 21 -4 21 -12 2z"/>
<path d="M9219 3008 c0 -4 0 -30 0 -58 0 -84 1 -90 14 -90 8 0 12 18 13 57 1
45 5 60 22 74 12 9 22 19 22 22 0 9 -70 3 -71 -5z"/>
<path d="M10420 3163 c0 -47 -4 -83 -10 -83 -5 0 -24 9 -42 20 -40 24 -71 26
-89 4 -18 -22 -25 -181 -10 -227 16 -48 42 -54 95 -23 24 14 46 22 50 19 3 -3
6 -46 6 -95 l0 -88 298 2 297 3 2 273 c2 208 -1 272 -10 273 -7 1 -141 2 -299
3 l-288 1 0 -82z m575 -198 l0 -250 -275 0 -275 0 -2 79 c-3 105 -27 130 -83
86 -29 -22 -55 -26 -66 -8 -12 20 -13 179 -1 205 13 29 17 29 75 -2 44 -23 48
-24 60 -8 12 16 16 52 13 121 l-1 32 278 -2 277 -3 0 -250z"/>
<path d="M10681 3039 c-28 -23 -22 -36 8 -19 20 10 21 9 21 -66 0 -76 0 -76
-25 -72 -17 4 -25 1 -25 -8 0 -10 17 -14 65 -14 37 0 65 4 65 10 0 6 -9 10
-20 10 -28 0 -36 26 -34 108 3 80 -8 90 -55 51z"/>
<path d="M11696 3240 c-2 -3 -3 -38 -4 -78 0 -41 -3 -76 -6 -80 -4 -3 -24 4
-45 16 -74 42 -97 26 -107 -76 -8 -76 2 -145 25 -174 l18 -22 54 27 c29 14 55
25 57 23 1 -2 4 -44 5 -92 l2 -89 298 -3 297 -2 0 275 c0 151 -3 276 -7 276
-27 4 -585 3 -587 -1z m574 -270 c0 -193 -3 -250 -12 -251 -7 -1 -131 -2 -275
-3 -228 -1 -263 1 -263 14 -6 175 -17 195 -85 150 -60 -40 -76 -23 -80 85 -2
71 12 135 30 135 7 0 33 -11 57 -25 39 -22 47 -23 57 -11 12 14 19 62 20 129
l1 27 275 0 275 0 0 -250z"/>
<path d="M11944 3039 c-14 -16 -19 -36 -19 -79 0 -68 21 -100 66 -100 31 0 68
33 70 62 5 67 -1 98 -21 118 -26 26 -72 26 -96 -1z m76 -15 c18 -20 18 -107 1
-128 -33 -39 -71 -5 -71 64 0 68 38 103 70 64z"/>
<path d="M5830 2956 l0 -136 30 0 c17 0 30 5 30 10 0 6 -7 10 -15 10 -17 0
-17 -6 -19 134 -1 78 -5 111 -13 114 -10 3 -13 -28 -13 -132z"/>
<path d="M7150 3080 c0 -5 7 -10 15 -10 9 0 15 -10 16 -22 0 -13 1 -68 2 -122
1 -69 6 -101 15 -104 9 -3 12 28 12 132 l0 136 -30 0 c-16 0 -30 -4 -30 -10z"/>
<path d="M5366 3070 c-2 -3 -3 -51 -4 -107 l0 -103 108 0 109 0 0 105 c0 74
-4 105 -12 106 -42 4 -199 4 -201 -1z m186 -72 c1 -29 2 -67 0 -84 l-3 -31
-80 1 -79 0 0 83 0 83 79 0 79 0 4 -52z"/>
<path d="M5496 3022 c-2 -4 -1 -14 4 -22 7 -11 11 -11 24 -1 9 7 13 17 10 22
-7 11 -31 12 -38 1z"/>
<path d="M5407 2926 c-7 -18 24 -31 34 -14 4 6 5 16 3 20 -8 13 -31 9 -37 -6z"/>
<path d="M5212 3013 c-22 -23 -22 -24 -2 -18 17 6 20 2 20 -28 0 -42 -15 -56
-58 -53 -21 1 -32 -2 -32 -11 0 -19 84 -17 101 3 7 8 14 30 15 47 1 18 3 36 3
41 1 4 9 5 18 2 13 -5 11 0 -6 18 -29 31 -30 31 -59 -1z"/>
<path d="M8459 3014 c-23 -25 -23 -26 -3 -20 20 6 22 4 18 -30 -2 -20 -6 -39
-9 -42 -5 -5 -31 -9 -67 -11 -10 -1 -18 -5 -18 -11 0 -5 20 -10 44 -10 53 0
76 24 76 78 0 26 3 33 15 28 20 -7 19 0 -5 24 -25 25 -22 25 -51 -6z"/>
<path d="M11280 3000 c0 -27 -3 -30 -30 -30 -16 0 -30 -4 -30 -10 0 -5 14 -10
30 -10 17 0 31 -6 31 -12 1 -7 2 -19 3 -27 0 -8 7 -16 15 -19 10 -3 12 0 8 12
-11 27 3 46 34 46 16 0 29 5 29 10 0 6 -13 10 -29 10 -30 0 -45 19 -35 45 4 9
0 15 -10 15 -11 0 -16 -9 -16 -30z"/>
<path d="M9960 3013 c0 -4 10 -17 22 -30 l21 -23 -21 -23 c-37 -40 -19 -54 19
-16 l21 21 22 -21 c35 -33 54 -25 22 8 l-28 29 21 23 c37 40 24 54 -16 17
l-23 -21 -23 21 c-24 22 -37 28 -37 15z"/>
<path d="M5290 2350 c0 -88 -5 -93 -55 -60 -70 46 -105 7 -105 -117 0 -141 31
-178 108 -129 22 14 43 22 46 19 3 -4 6 -46 6 -95 l0 -88 415 0 415 0 0 275 0
275 -415 0 -415 0 0 -80z m807 -194 l1 -254 -392 2 -391 1 -1 78 c0 59 -4 81
-17 95 -17 16 -20 15 -68 -12 -28 -15 -52 -26 -55 -23 -26 25 -27 208 -2 234
14 14 20 12 63 -12 42 -25 48 -26 62 -12 11 11 16 36 17 86 l1 71 391 0 391 0
0 -254z"/>
<path d="M5438 2315 c-35 -19 -41 -41 -43 -155 -2 -178 -1 -179 310 -178 311
0 311 0 313 167 1 107 -15 156 -55 172 -13 5 -131 9 -261 9 -188 -1 -243 -4
-264 -15z m522 -20 c17 -9 31 -21 31 -28 7 -64 6 -188 -2 -213 -5 -17 -20 -35
-32 -41 -12 -6 -123 -9 -259 -9 -293 1 -280 -5 -282 138 -2 107 6 141 37 156
13 6 111 11 250 11 186 1 233 -2 257 -14z"/>
<path d="M5540 2190 c-13 -13 -20 -33 -20 -60 0 -49 27 -80 70 -80 43 0 70 31
70 80 0 49 -27 80 -70 80 -17 0 -39 -9 -50 -20z m79 -14 c7 -8 11 -31 9 -52
-6 -72 -70 -72 -76 0 -4 41 11 66 38 66 10 0 23 -6 29 -14z"/>
<path d="M6790 2350 c0 -89 -4 -93 -58 -60 -48 30 -71 26 -88 -15 -17 -41 -18
-166 -1 -215 15 -44 36 -48 92 -17 24 14 46 22 49 19 3 -3 6 -45 6 -94 l0 -88
415 0 415 0 0 275 0 275 -415 0 -415 0 0 -80z m807 -193 l0 -254 -391 1 -390
1 -2 79 c-2 57 -7 83 -18 95 -15 14 -21 13 -67 -13 -42 -23 -53 -26 -60 -15
-25 41 -22 201 5 228 12 11 21 9 61 -14 42 -25 48 -26 62 -13 10 10 16 40 18
84 2 38 4 70 4 72 1 1 176 2 389 2 l388 0 1 -253z"/>
<path d="M6938 2313 c-37 -23 -45 -52 -43 -163 3 -171 -2 -168 310 -169 129 0
241 4 256 10 46 18 57 53 54 169 -1 58 -6 113 -10 123 -18 42 -52 47 -302 47
-206 0 -242 -3 -265 -17z m515 -14 c36 -16 43 -43 42 -144 -1 -101 -8 -130
-33 -141 -9 -4 -105 -8 -212 -9 l-195 -1 -1 32 c-1 29 2 32 17 23 48 -25 89 7
89 71 0 48 -24 80 -60 80 -16 0 -32 -5 -36 -11 -5 -8 -9 -8 -14 1 -17 28 -25
-3 -23 -91 2 -100 -2 -110 -46 -103 -51 10 -63 33 -65 132 -2 109 6 145 36
160 32 15 469 16 501 1z m-335 -121 c7 -7 12 -28 12 -48 0 -54 -32 -77 -63
-45 -10 10 -13 27 -10 52 7 50 34 68 61 41z"/>
<path d="M8300 2355 c0 -87 -9 -97 -61 -66 -74 45 -103 12 -102 -118 1 -144
25 -173 104 -128 l47 26 6 -22 c3 -12 6 -55 6 -94 l0 -73 505 0 505 0 0 275 0
275 -505 0 -505 0 0 -75z m984 -192 c-1 -137 -2 -251 -3 -254 -1 -3 -217 -6
-480 -6 l-479 -1 -4 84 c-4 109 -13 118 -79 80 -68 -38 -74 -31 -74 99 0 129
6 137 71 101 55 -31 49 -30 68 -10 12 11 16 35 16 85 l0 69 483 0 483 0 -2
-247z"/>
<path d="M8558 2240 c-51 -31 -42 -168 13 -185 37 -12 69 3 85 42 39 92 -25
185 -98 143z m60 -18 c16 -11 27 -72 18 -106 -3 -14 -16 -31 -28 -37 -32 -17
-60 21 -57 75 4 59 33 89 67 68z"/>
<path d="M8799 2231 c-20 -16 -24 -28 -24 -79 0 -70 21 -102 66 -102 55 0 88
72 67 147 -14 53 -66 69 -109 34z m75 -23 c28 -44 4 -138 -35 -138 -22 0 -39
35 -39 80 0 73 43 106 74 58z"/>
<path d="M8949 2238 c0 -7 -2 -32 -4 -55 -3 -31 -1 -41 10 -39 8 1 18 5 21 9
11 11 49 8 62 -5 19 -19 14 -56 -8 -68 -22 -12 -60 -5 -60 11 0 5 -7 9 -15 9
-20 0 -19 -15 2 -35 21 -22 89 -14 108 12 36 47 -1 108 -61 101 -30 -3 -34 -1
-34 18 0 25 17 34 66 34 19 0 34 5 34 10 0 15 -120 13 -121 -2z"/>
<path d="M8707 2073 c-12 -11 -8 -23 8 -23 8 0 15 7 15 15 0 16 -12 20 -23 8z"/>
<path d="M9983 2354 c-1 -42 -5 -79 -8 -82 -3 -4 -24 4 -47 17 -59 34 -83 24
-98 -40 -15 -62 -7 -172 15 -205 20 -31 41 -30 87 1 25 17 39 21 44 14 3 -6 7
-49 7 -95 l1 -84 298 0 298 0 0 275 0 275 -298 0 -297 0 -2 -76z m572 -199 l0
-250 -272 -1 -273 -1 -1 36 c-1 20 -1 51 0 70 1 36 -21 81 -40 81 -6 0 -23 -8
-37 -18 -65 -45 -83 -30 -84 71 -1 94 1 112 15 131 12 17 16 16 60 -8 50 -26
76 -25 78 3 3 29 7 96 8 119 l1 22 273 -2 272 -3 0 -250z"/>
<path d="M10239 2231 c-21 -16 -24 -28 -24 -81 0 -53 3 -65 24 -81 68 -55 137
25 109 128 -14 53 -66 69 -109 34z m75 -24 c28 -42 4 -137 -35 -137 -22 0 -39
35 -39 80 0 73 43 106 74 57z"/>
<path d="M4491 2223 c-1 -7 -16 -27 -35 -45 l-34 -33 34 -25 c18 -14 34 -32
35 -40 0 -11 2 -12 6 -2 7 19 52 62 64 62 5 0 -6 15 -25 34 -18 19 -36 40 -39
48 -4 9 -6 9 -6 1z m-1 -52 c0 -12 -20 -25 -27 -18 -7 7 6 27 18 27 5 0 9 -4
9 -9z m30 -6 c0 -8 -4 -15 -10 -15 -5 0 -10 7 -10 15 0 8 5 15 10 15 6 0 10
-7 10 -15z m-30 -35 c0 -5 -4 -10 -9 -10 -6 0 -13 5 -16 10 -3 6 1 10 9 10 9
0 16 -4 16 -10z m40 6 c0 -2 -7 -9 -15 -16 -12 -10 -15 -10 -15 4 0 9 7 16 15
16 8 0 15 -2 15 -4z"/>
<path d="M6391 2222 c-1 -7 -17 -26 -36 -43 l-35 -31 35 -27 c19 -14 35 -33
35 -41 1 -11 3 -12 7 -2 7 19 52 62 64 62 5 0 -6 15 -25 34 -18 19 -36 40 -39
48 -4 10 -6 10 -6 0z m-1 -51 c0 -12 -20 -25 -27 -18 -7 7 6 27 18 27 5 0 9
-4 9 -9z m32 -6 c0 -5 -5 -11 -11 -13 -6 -2 -11 4 -11 13 0 9 5 15 11 13 6 -2
11 -8 11 -13z m-32 -35 c0 -5 -4 -10 -9 -10 -6 0 -13 5 -16 10 -3 6 1 10 9 10
9 0 16 -4 16 -10z m40 6 c0 -2 -7 -9 -15 -16 -12 -10 -15 -10 -15 4 0 9 7 16
15 16 8 0 15 -2 15 -4z"/>
<path d="M9578 2224 c0 -5 -2 -13 -3 -19 -2 -5 -3 -18 -4 -27 -1 -13 -10 -18
-31 -18 -16 0 -30 -4 -30 -10 0 -5 14 -10 30 -10 29 0 37 -14 31 -52 0 -5 5
-8 13 -8 8 0 13 10 12 28 -1 23 3 27 32 30 40 4 42 22 2 22 -16 0 -31 5 -31
10 -1 6 -2 19 -3 29 -1 21 -15 40 -18 25z"/>
<path d="M7840 2200 c0 -5 9 -18 21 -29 l21 -20 -25 -27 c-34 -37 -23 -53 13
-19 l28 27 21 -21 c38 -38 56 -24 19 16 l-21 23 23 25 c31 32 17 46 -15 15
l-25 -23 -23 21 c-25 24 -37 28 -37 12z"/>
<path d="M4250 2190 c0 -11 3 -12 55 -12 78 0 95 2 95 12 0 6 -32 10 -75 10
-43 0 -75 -4 -75 -10z"/>
<path d="M4930 2135 c0 -8 7 -15 15 -15 8 0 15 7 15 15 0 8 -7 15 -15 15 -8 0
-15 -7 -15 -15z"/>
<path d="M4607 2133 c-15 -14 -6 -22 13 -11 15 10 22 10 32 0 10 -10 5 -19
-25 -47 -20 -19 -37 -36 -37 -39 0 -4 21 -6 47 -6 51 0 55 8 6 12 l-32 2 37
32 c32 27 35 33 23 48 -13 16 -52 22 -64 9z"/>
<path d="M4250 2110 c0 -6 32 -10 75 -10 43 0 75 4 75 10 0 6 -32 10 -75 10
-43 0 -75 -4 -75 -10z"/>
<path d="M3222 1604 c-28 -19 -30 -39 -2 -24 19 10 20 8 20 -65 0 -73 -1 -75
-25 -75 -14 0 -25 -4 -25 -10 0 -6 28 -10 65 -10 37 0 65 4 65 10 0 6 -11 10
-25 10 -25 0 -25 1 -25 90 0 96 -5 104 -48 74z"/>
<path d="M3198 1068 c-27 -27 -6 -39 23 -12 16 14 23 15 45 6 34 -16 25 -41
-37 -101 -27 -26 -49 -53 -49 -59 0 -8 23 -12 70 -12 40 0 70 4 70 10 0 6 -22
10 -50 10 -27 0 -50 4 -50 10 0 5 16 22 36 37 46 36 68 77 55 102 -20 37 -80
42 -113 9z"/>
<path d="M3180 560 c0 -10 22 -13 77 -10 l32 1 -29 -53 c-36 -67 -49 -128 -27
-128 10 0 17 14 21 44 4 24 20 64 36 90 17 26 30 51 30 56 0 6 -31 10 -70 10
-40 0 -70 -4 -70 -10z"/>
</g>
</svg>
