<?xml version="1.0" standalone="no"?>
<!DOCTYPE svg PUBLIC "-//W3C//DTD SVG 20010904//EN"
 "http://www.w3.org/TR/2001/REC-SVG-20010904/DTD/svg10.dtd">
<svg version="1.0" xmlns="http://www.w3.org/2000/svg"
 width="1111.000000pt" height="245.000000pt" viewBox="0 0 1111.000000 245.000000"
 preserveAspectRatio="xMidYMid meet">
<metadata>
Created by potrace 1.16, written by Peter Selinger 2001-2019
</metadata>
<g transform="translate(0.000000,245.000000) scale(0.100000,-0.100000)"
fill="#000000" stroke="none">
<path d="M2043 1674 c3 -5 -282 -9 -700 -9 l-706 0 -1 -128 c-2 -144 -9 -160
-58 -126 -44 32 -117 61 -137 54 -24 -7 -46 -41 -56 -84 -12 -57 -13 -213 -1
-272 23 -110 65 -135 140 -84 66 45 94 56 103 42 4 -6 8 -88 9 -180 1 -92 5
-171 9 -175 11 -11 2514 -9 2518 3 2 6 4 220 4 478 0 420 -2 467 -16 468 -9 0
-257 1 -551 2 -297 1 -541 6 -549 11 -8 5 -12 5 -8 0z m159 -78 c1 -17 1 -67
-2 -111 -6 -97 -13 -100 -95 -50 -68 41 -94 43 -123 12 -30 -32 -43 -104 -41
-227 1 -110 18 -184 48 -207 24 -20 74 -9 126 27 67 46 79 39 85 -45 3 -39 4
-112 2 -162 l-3 -93 -765 0 -764 0 0 159 c0 145 -2 161 -21 185 -11 14 -27 26
-34 26 -14 0 -78 -33 -100 -50 -6 -5 -23 -13 -38 -19 -23 -9 -29 -7 -43 14
-36 56 -36 305 1 361 17 26 29 23 118 -30 89 -53 117 -20 117 139 0 50 3 94 6
97 3 4 347 6 764 6 l758 0 4 -32z m929 17 c1 -23 1 -797 0 -840 l-1 -33 -445
0 c-349 0 -445 3 -445 13 -1 6 -2 77 -3 157 -2 90 -7 153 -15 167 -21 38 -48
38 -110 0 -69 -42 -85 -47 -101 -37 -49 30 -47 374 2 393 12 4 28 -3 115 -50
53 -29 68 -29 89 3 16 25 18 47 23 232 0 9 96 12 445 12 417 0 445 -1 446 -17z"/>
<path d="M895 1486 c-48 -21 -82 -68 -89 -123 -3 -26 -4 -125 -3 -219 2 -163
3 -172 27 -207 43 -63 37 -62 463 -65 374 -3 390 -2 431 18 76 36 84 64 86
289 1 177 -1 197 -20 236 -16 32 -33 49 -64 64 -40 20 -59 21 -422 21 -292 -1
-386 -4 -409 -14z m812 -30 c12 -4 33 -21 45 -39 22 -30 23 -40 23 -228 0
-212 -5 -233 -54 -266 -23 -15 -65 -17 -410 -18 -425 -1 -424 -1 -458 63 -18
34 -20 54 -18 227 2 161 5 195 19 217 34 52 43 53 452 53 209 -1 389 -5 401
-9z"/>
<path d="M1215 1388 c-2 -7 -23 -76 -46 -153 -23 -77 -45 -144 -49 -148 -4 -5
-19 24 -32 65 -23 69 -26 73 -56 76 -23 2 -32 -1 -32 -12 0 -8 10 -16 21 -18
18 -2 28 -21 54 -91 44 -125 48 -123 99 43 77 256 76 250 60 250 -8 0 -17 -6
-19 -12z"/>
<path d="M2628 1342 c-94 -48 -60 -207 43 -204 17 0 42 8 56 18 l26 16 -6 -38
c-11 -69 -72 -100 -117 -59 -9 8 -24 15 -34 15 -15 0 -15 -3 -2 -29 35 -66
145 -51 181 26 37 78 18 224 -33 252 -34 18 -81 19 -114 3z m101 -48 c27 -35
27 -78 -1 -104 -47 -43 -112 -10 -110 56 3 70 71 99 111 48z"/>
</g>
</svg>
