<?xml version="1.0" standalone="no"?>
<!DOCTYPE svg PUBLIC "-//W3C//DTD SVG 20010904//EN"
 "http://www.w3.org/TR/2001/REC-SVG-20010904/DTD/svg10.dtd">
<svg version="1.0" xmlns="http://www.w3.org/2000/svg"
 width="1199.000000pt" height="1150.000000pt" viewBox="0 0 1199.000000 1150.000000"
 preserveAspectRatio="xMidYMid meet">
<metadata>
Created by potrace 1.16, written by Peter Selinger 2001-2019
</metadata>
<g transform="translate(0.000000,1150.000000) scale(0.100000,-0.100000)"
fill="#000000" stroke="none">
<path d="M372 11283 c-38 -19 -76 -66 -86 -106 -8 -35 -9 -10852 0 -10894 9
-46 59 -101 102 -113 24 -6 378 -10 1012 -10 l975 0 3 470 2 470 378 0 377 0
-1 235 -1 235 3444 0 3443 0 0 335 0 335 -2947 2 -2948 3 0 455 0 455 110 1
110 0 0 245 0 244 -103 0 c-66 1 -106 5 -110 12 -4 7 -7 108 -7 225 l0 213
3080 1 c1694 1 3082 2 3085 3 3 1 5 191 5 424 l0 424 -1927 -1 c-1277 -1
-1929 2 -1932 9 -3 7 -5 7 -5 0 -1 -7 -338 -9 -993 -8 -546 1 -999 2 -1005 2
-10 1 -13 55 -12 227 0 124 -3 229 -6 233 -4 3 -75 6 -159 7 -84 0 -157 4
-163 7 -7 4 -14 3 -18 -3 -4 -7 -12 -7 -26 0 -12 7 -19 7 -19 1 0 -7 -8 -7
-24 -1 -13 5 -27 6 -30 3 -3 -3 -84 -6 -181 -7 l-175 -1 -1 25 c-3 151 0 412
5 417 3 3 1843 7 4088 7 l4083 1 0 425 0 424 -4585 1 -4585 0 0 235 0 234
-378 0 -377 0 2 225 3 224 495 0 495 0 0 701 0 701 2243 3 2242 2 0 325 0 325
550 0 550 0 0 335 0 335 -3045 0 -3045 0 -1 23 c0 12 -1 117 -2 232 l-2 210
-187 3 -188 2 -1 53 c0 28 -1 134 -1 235 l-1 182 -581 -2 -581 -3 -47 -34
c-26 -18 -58 -33 -71 -33 -30 0 -79 31 -70 45 3 6 1 7 -5 3 -7 -4 -22 0 -34 8
-31 22 -171 21 -216 -1z m245 -42 c68 -46 92 -46 167 5 l51 34 556 0 c522 0
557 -1 561 -17 2 -10 4 -110 3 -223 l0 -205 -570 -5 -571 -5 -44 -32 c-57 -42
-88 -42 -149 2 l-48 35 -137 0 -137 0 1 172 c2 182 6 203 52 245 29 26 45 30
136 32 69 1 75 -1 129 -38z m-4 -467 c34 -24 61 -36 84 -36 22 0 51 12 86 36
l52 36 383 0 382 0 0 -49 c0 -76 -5 -84 -43 -60 -41 24 -73 24 -87 -1 -14 -26
-19 -146 -8 -185 13 -49 34 -58 80 -34 21 11 43 17 48 14 12 -7 14 -2834 3
-2836 -5 -1 -179 -2 -388 -3 l-381 -1 -52 -37 c-29 -21 -62 -38 -75 -38 -12 0
-47 17 -78 38 l-56 38 -119 -1 c-66 -1 -125 1 -132 3 -9 3 -12 328 -12 1578
l0 1574 131 0 132 0 50 -36z m1723 -254 c-1 -159 -5 -293 -9 -296 -3 -4 -25 3
-49 15 -42 20 -43 20 -62 2 -23 -24 -33 -137 -17 -198 10 -36 16 -43 37 -43
14 0 39 8 55 17 15 9 32 14 35 10 9 -9 10 -1094 1 -1103 -3 -4 -25 3 -49 15
-42 20 -43 20 -62 2 -23 -24 -33 -137 -17 -198 10 -37 16 -43 38 -43 14 0 41
9 59 21 l34 21 1 -39 c3 -127 1 -244 -4 -250 -4 -4 -26 4 -48 16 l-41 23 -20
-20 c-25 -25 -36 -136 -19 -199 10 -36 16 -43 36 -43 13 0 40 9 59 21 l36 21
1 -34 c3 -101 0 -250 -5 -255 -3 -4 -24 3 -45 15 -21 12 -46 19 -55 16 -24 -9
-39 -80 -33 -156 7 -100 31 -119 101 -77 34 20 36 20 37 2 1 -10 2 -34 3 -53
2 -19 0 -44 -4 -55 -7 -19 -17 -20 -359 -21 l-351 0 0 1422 c0 1603 7 1472
-75 1432 -59 -29 -67 -19 -68 74 0 122 11 136 79 96 36 -21 37 -21 50 -3 8 11
14 44 14 77 l0 58 359 0 359 0 -2 -290z m854 -240 c0 -33 -4 -60 -10 -60 -6 0
-26 9 -47 20 -67 36 -89 -2 -81 -145 5 -98 17 -111 77 -85 24 11 47 20 52 20
5 0 9 -102 9 -230 0 -244 -1 -249 -46 -215 -10 8 -31 15 -45 15 -39 0 -52 -40
-48 -145 3 -71 7 -89 23 -100 16 -12 24 -11 57 5 21 11 43 20 49 20 6 0 10
-56 10 -160 l0 -160 -417 2 -417 3 -1 482 c0 431 -2 484 -16 499 -15 15 -20
14 -57 -7 -32 -19 -44 -21 -53 -12 -15 15 -23 100 -15 157 8 53 22 58 75 25
30 -18 36 -19 49 -6 8 9 15 39 17 73 2 33 3 60 4 62 1 1 188 2 416 2 l415 0 0
-60z m5240 -255 l0 -315 -2610 0 -2610 0 0 164 c0 190 -5 203 -65 167 -64 -37
-75 -25 -75 84 0 109 11 121 77 85 51 -27 63 -14 63 66 l0 64 2610 0 2610 0 0
-315z m-1100 -650 l0 -315 -2060 0 -2060 0 0 164 c0 190 -5 203 -65 167 -65
-38 -75 -28 -75 77 0 117 10 128 77 92 51 -27 63 -14 63 66 l0 64 2060 0 2060
0 0 -315z m-4489 -347 c4 -53 3 -422 -2 -429 -3 -5 -106 -8 -245 -7 l-239 3
-1 45 c-3 128 -7 134 -69 100 -44 -24 -47 -24 -60 -7 -13 18 -18 137 -8 178 7
24 20 24 74 -1 24 -10 48 -15 52 -11 5 5 10 37 12 72 2 35 3 65 4 67 1 1 109
2 241 2 185 0 240 -3 241 -12z m2 -673 c-1 -115 -2 -214 -2 -220 -1 -14 -481
-14 -482 0 -1 5 -2 33 -3 60 -3 59 -13 95 -27 95 -6 0 -28 -10 -49 -22 -30
-18 -42 -20 -51 -11 -28 28 -22 203 7 203 8 0 31 -9 51 -20 50 -27 65 -12 69
67 1 32 3 59 3 61 1 1 110 1 243 0 l242 -3 -1 -210z m1 -455 c1 -107 0 -206
-2 -221 l-4 -25 -241 0 -241 1 -1 60 c-1 66 -11 105 -27 105 -6 0 -28 -10 -49
-22 -55 -31 -64 -18 -64 93 0 108 8 117 70 83 37 -21 44 -22 55 -9 7 8 14 38
15 67 2 29 4 56 4 61 1 4 110 6 243 5 l242 -3 0 -195z m-2231 -303 c31 -20 70
-37 85 -37 15 0 52 17 82 37 52 35 59 37 142 38 l88 1 0 -51 c0 -73 -8 -81
-59 -55 -49 26 -65 18 -80 -37 -12 -44 -7 -152 8 -181 15 -27 47 -28 86 -2 22
14 31 16 37 7 4 -7 8 -1615 8 -3575 l0 -3563 -309 3 c-295 3 -311 4 -338 24
-15 11 -36 36 -45 55 -17 32 -18 230 -18 3704 l0 3670 127 0 128 -1 58 -37z
m1105 34 l132 -1 0 -289 c0 -169 -4 -292 -9 -296 -5 -3 -28 4 -51 16 -37 19
-43 20 -56 7 -22 -22 -32 -75 -28 -147 6 -102 29 -122 96 -82 17 11 35 18 40
15 10 -7 11 -5871 0 -5878 -5 -3 -21 4 -38 15 -37 24 -70 24 -84 -1 -25 -48
-17 -197 13 -227 13 -13 19 -12 55 6 23 12 46 21 52 21 11 0 15 -246 4 -274
-5 -13 -10 -12 -37 5 -42 25 -73 24 -88 -3 -19 -35 -15 -182 5 -213 16 -25 17
-25 54 -9 64 28 67 26 70 -48 l3 -68 -411 0 -410 0 -2 3575 c-3 2911 -5 3576
-16 3587 -11 11 -20 9 -52 -10 -21 -12 -43 -22 -49 -22 -27 0 -36 175 -11 206
11 13 17 12 47 -6 65 -38 83 -23 83 72 0 25 5 48 10 50 9 3 310 2 678 -1z
m883 -470 c7 -1 3 -581 -5 -588 -3 -3 -20 4 -39 16 -19 11 -42 21 -51 21 -25
0 -46 -60 -46 -134 0 -115 26 -145 91 -108 21 12 40 22 43 22 4 0 6 -146 6
-325 0 -179 -3 -325 -7 -325 -5 0 -23 9 -41 20 -18 11 -39 20 -47 20 -26 0
-45 -55 -44 -127 2 -126 23 -153 91 -115 23 12 43 21 45 19 2 -3 5 -2533 3
-3339 l0 -128 -44 22 c-50 24 -72 20 -86 -17 -22 -59 -3 -225 26 -225 4 0 27
10 51 21 24 12 46 20 48 18 5 -6 7 -97 6 -296 l-1 -173 -45 22 c-73 36 -92 12
-94 -115 -1 -85 19 -132 52 -121 12 4 31 13 42 20 38 27 45 18 45 -56 l0 -70
-365 0 -365 0 0 2863 c0 2475 -2 2866 -14 2883 -15 19 -16 19 -61 -5 -63 -33
-71 -20 -67 123 2 69 15 82 59 56 65 -38 83 -23 83 72 0 25 4 48 10 50 8 2
704 2 721 -1z m9162 -470 c16 -1 17 -25 15 -403 l-3 -403 -4560 -1 c-2508 0
-4567 1 -4575 3 -14 4 -16 37 -16 254 -1 176 -4 253 -12 261 -9 9 -23 7 -59
-11 -44 -21 -48 -22 -59 -6 -16 22 -14 179 2 195 9 9 22 6 51 -11 23 -13 47
-20 56 -16 16 6 18 15 20 95 0 20 4 39 8 42 6 4 9069 5 9132 1z m-8172 -830
c8 -1 6 -577 -2 -585 -3 -3 -24 4 -46 16 -21 12 -47 19 -56 15 -35 -13 -50
-157 -23 -222 17 -41 36 -44 85 -14 18 11 36 18 39 14 8 -7 9 -263 2 -275 -4
-6 -22 -2 -46 12 -22 12 -48 19 -57 15 -35 -13 -50 -157 -23 -222 17 -41 35
-44 83 -14 19 12 37 18 41 15 8 -9 10 -623 2 -637 -4 -5 -23 0 -46 13 -22 12
-48 19 -57 15 -48 -18 -48 -236 0 -254 9 -4 35 3 56 15 22 12 43 20 46 17 7
-8 8 -272 0 -279 -3 -3 -24 4 -46 16 -21 12 -47 19 -56 15 -46 -17 -48 -236
-2 -253 7 -3 32 4 55 16 23 12 45 19 48 15 8 -8 9 -272 1 -280 -3 -3 -24 5
-46 17 -49 27 -69 20 -82 -29 -19 -68 -8 -191 19 -208 5 -3 31 3 56 15 26 11
49 18 52 15 7 -7 10 -243 4 -268 -4 -16 -7 -16 -39 3 -70 41 -92 23 -100 -83
-6 -79 7 -141 33 -151 8 -3 34 4 56 15 25 13 43 17 47 11 3 -6 6 -36 6 -69 l0
-58 -485 -3 -485 -2 -1 1660 c0 1266 -3 1663 -12 1672 -9 9 -23 7 -58 -11 -34
-16 -50 -19 -58 -11 -15 15 -15 185 0 200 9 9 22 6 51 -11 64 -37 80 -18 75
91 -1 13 2 27 7 30 7 4 936 5 962 1z m807 -689 l2 -222 -390 0 c-365 0 -390 1
-390 18 -2 72 -10 126 -19 135 -9 9 -24 5 -57 -12 -59 -32 -68 -22 -71 76 -1
64 5 101 22 121 1 2 23 -7 49 -20 57 -27 67 -20 72 57 2 31 5 59 8 63 2 4 177
7 388 7 l383 0 3 -223z m5873 -251 c1 -3 2 -185 3 -403 1 -259 -2 -399 -9
-401 -20 -6 -6635 0 -6641 6 -4 4 -7 116 -8 249 -1 134 -5 249 -9 256 -12 17
-31 15 -72 -9 -51 -31 -60 -18 -60 91 0 109 9 122 60 91 63 -37 77 -27 81 54
1 27 3 55 3 61 1 11 6650 16 6652 5z m-6170 -835 c1 -6 2 -107 3 -223 l1 -213
-242 0 c-134 0 -243 3 -244 8 0 4 -2 34 -3 68 -4 91 -16 101 -81 63 -51 -31
-60 -18 -60 91 0 109 9 122 60 91 65 -38 77 -28 81 63 2 34 3 62 3 62 1 1 109
1 241 1 169 0 240 -3 241 -11z m224 -683 c0 -142 -4 -223 -10 -224 -32 -3
-690 3 -694 6 -2 3 -4 33 -5 67 -3 95 -18 107 -83 67 -26 -17 -37 -19 -46 -10
-15 15 -16 186 -1 201 8 8 24 5 58 -11 57 -28 68 -20 72 53 1 29 3 58 3 64 1
8 98 11 354 10 l352 -1 0 -222z m-224 -257 c1 -6 2 -107 3 -223 l1 -213 -242
0 c-134 0 -243 3 -244 8 0 4 -2 34 -3 67 -3 91 -13 99 -82 66 -25 -13 -42 -16
-49 -10 -15 14 -13 185 2 200 10 10 22 7 57 -12 56 -30 67 -21 72 56 2 31 6
60 9 65 8 13 475 9 476 -4z m1 -468 c2 -7 4 -107 4 -223 l-1 -210 -244 0 -244
0 -2 66 c-3 97 -13 106 -86 69 -37 -20 -40 -20 -47 -3 -12 30 -8 181 6 195 10
10 22 7 57 -12 56 -31 66 -22 71 62 1 34 3 64 3 66 1 1 109 2 240 2 182 0 240
-3 243 -12z m5898 -773 l0 -315 -3685 0 c-2027 0 -3686 3 -3686 8 -1 4 -3 76
-3 160 -2 124 -5 155 -18 168 -15 15 -19 14 -53 -9 -60 -41 -75 -23 -75 94 0
38 5 73 13 83 12 17 16 17 43 3 59 -30 71 -30 81 0 5 15 8 49 8 76 l-2 47
3689 0 3688 0 0 -315z m-6885 -558 l-1 -222 -244 0 -245 0 -1 68 c-1 37 -7 74
-14 82 -11 13 -18 12 -56 -9 -64 -36 -74 -22 -71 94 1 48 5 92 10 96 4 4 27
-2 52 -14 70 -34 77 -26 78 86 l0 42 246 0 246 0 0 -223z m-755 -472 l0 -225
-245 0 -245 0 0 68 c0 39 -5 76 -13 85 -11 16 -14 16 -52 -3 -21 -11 -45 -20
-51 -20 -17 0 -30 47 -28 105 4 112 8 117 70 86 45 -23 48 -23 61 -6 7 11 13
44 13 77 l0 58 245 0 245 0 0 -225z m0 -470 l0 -225 -245 0 -245 0 0 64 c0 35
-3 71 -6 80 -8 20 -44 21 -70 1 -45 -34 -73 0 -68 85 1 19 2 50 3 68 1 44 23
50 73 22 40 -22 42 -22 55 -5 7 11 13 44 13 77 l0 58 245 0 245 0 0 -225z"/>
<path d="M920 11140 c0 -5 5 -10 10 -10 6 0 10 5 10 10 0 6 -4 10 -10 10 -5 0
-10 -4 -10 -10z"/>
<path d="M487 11133 c-13 -13 -7 -53 8 -53 17 0 20 16 5 25 -8 5 -7 11 1 21
11 14 -1 20 -14 7z"/>
<path d="M527 11118 c-6 -23 -1 -38 13 -38 5 0 8 13 7 30 -2 35 -12 39 -20 8z"/>
<path d="M760 11050 c0 -73 3 -90 15 -90 10 0 15 11 15 35 l0 35 50 0 c28 0
50 5 50 10 0 6 -22 10 -50 10 l-50 0 0 35 0 35 50 0 c28 0 50 5 50 10 0 6 -28
10 -65 10 l-65 0 0 -90z"/>
<path d="M1612 11079 c-23 -33 -42 -65 -42 -70 0 -5 20 -9 45 -9 25 0 44 -3
44 -7 -3 -19 2 -33 11 -33 6 0 10 9 10 20 0 12 7 20 18 20 16 1 16 1 0 14 -14
10 -18 28 -18 70 0 74 -15 73 -68 -5z m45 -19 c0 -37 -2 -40 -29 -40 -21 0
-27 4 -22 13 13 21 45 67 48 67 2 0 3 -18 3 -40z"/>
<path d="M920 11029 c0 -52 3 -70 12 -67 18 6 18 138 1 138 -9 0 -13 -20 -13
-71z"/>
<path d="M989 11084 c-7 -9 -14 -33 -14 -54 0 -21 7 -45 14 -54 16 -19 52 -21
69 -4 13 13 16 1 6 -26 -7 -18 -49 -22 -59 -6 -4 6 -11 8 -16 4 -16 -10 11
-34 38 -34 55 0 63 14 63 105 0 50 -4 85 -10 85 -5 0 -10 -5 -10 -12 0 -9 -3
-9 -12 0 -17 17 -53 15 -69 -4z m73 -29 c16 -36 -4 -78 -35 -73 -17 2 -23 11
-25 36 -2 19 -1 40 2 48 9 23 45 16 58 -11z"/>
<path d="M1123 11048 c-2 -76 7 -88 67 -85 l50 2 -1 68 c-1 48 -5 67 -15 67
-9 0 -14 -18 -16 -57 -3 -55 -4 -58 -30 -61 -28 -3 -28 -3 -28 57 0 44 -4 61
-13 61 -9 0 -14 -16 -14 -52z"/>
<path d="M1272 11028 c1 -49 5 -68 15 -68 9 0 13 14 13 44 0 54 8 76 26 76 8
0 14 4 14 9 0 5 -16 9 -35 8 l-34 -1 1 -68z"/>
<path d="M1376 11081 c-23 -25 -23 -76 -1 -101 24 -26 67 -26 91 2 19 21 19
21 -1 14 -47 -19 -58 -19 -71 -1 -22 30 -17 35 36 35 42 0 50 3 50 18 0 46
-72 69 -104 33z m72 -18 c2 -9 -8 -13 -32 -13 -28 0 -34 3 -29 16 7 18 54 16
61 -3z"/>
<path d="M1736 10975 c-3 -9 0 -15 9 -15 8 0 15 7 15 15 0 8 -4 15 -9 15 -5 0
-11 -7 -15 -15z"/>
<path d="M434 9382 c-44 -6 -59 -38 -63 -134 -3 -96 8 -142 41 -159 17 -9 112
-11 391 -10 80 1 90 3 112 26 23 22 25 31 25 124 0 91 -2 102 -24 128 l-24 28
-219 0 c-120 0 -228 -1 -239 -3z m470 -37 c11 -15 15 -46 16 -116 0 -134 9
-129 -221 -130 -269 -1 -266 -2 -289 21 -17 17 -20 33 -20 106 0 92 9 121 42
133 12 4 120 7 239 7 206 -1 219 -2 233 -21z"/>
<path d="M494 9293 c-8 -19 -6 -105 2 -135 6 -19 39 -24 49 -8 3 6 -1 10 -9
10 -9 0 -16 7 -17 15 -3 58 -1 78 12 87 11 7 11 11 2 15 -7 2 -13 11 -13 19 0
20 -16 18 -26 -3z"/>
<path d="M561 9208 c1 -52 4 -68 15 -68 10 0 14 14 14 54 0 46 3 56 20 61 32
10 23 23 -15 22 l-34 -1 0 -68z"/>
<path d="M1050 9250 c0 -13 5 -20 13 -17 6 2 12 10 12 17 0 7 -6 15 -12 18 -8
2 -13 -5 -13 -18z"/>
<path d="M1090 9250 c0 -6 35 -10 85 -10 50 0 85 4 85 10 0 6 -35 10 -85 10
-50 0 -85 -4 -85 -10z"/>
<path d="M1050 9200 c0 -13 5 -20 13 -17 6 2 12 10 12 17 0 7 -6 15 -12 18 -8
2 -13 -5 -13 -18z"/>
<path d="M1090 9200 c0 -10 19 -12 100 -12 65 0 70 1 70 12 0 6 -35 10 -85 10
-50 0 -85 -4 -85 -10z"/>
<path d="M1900 10598 l0 -88 -27 -1 c-16 -1 -33 -1 -40 0 -6 1 -14 -3 -18 -9
-4 -6 27 -10 89 -10 55 0 96 4 96 10 0 5 -15 9 -33 8 -19 -1 -38 1 -43 5 -5 3
-9 36 -8 74 1 37 -2 75 -7 83 -5 9 -9 -20 -9 -72z"/>
<path d="M1800 9723 c37 -121 54 -136 88 -74 24 43 30 101 9 101 -8 0 -12 -11
-11 -27 1 -25 -20 -83 -31 -83 -2 0 -12 25 -21 55 -10 30 -23 55 -30 55 -9 0
-10 -8 -4 -27z"/>
<path d="M1850 8900 c0 -12 -11 -31 -25 -42 -38 -29 -30 -118 10 -118 10 0 15
-10 15 -30 0 -20 5 -30 15 -30 8 0 12 6 9 15 -3 8 5 25 21 39 14 13 28 40 32
59 5 30 1 40 -23 62 -16 15 -29 34 -29 42 0 9 -6 18 -12 20 -8 3 -13 -4 -13
-17z m0 -95 c0 -47 -14 -61 -23 -24 -6 20 7 69 18 69 3 0 5 -20 5 -45z m48 -2
c2 -27 -1 -42 -11 -46 -10 -4 -13 7 -13 44 1 59 20 60 24 2z"/>
<path d="M1810 8392 c0 -4 9 -16 21 -26 l21 -18 -23 -24 c-28 -30 -16 -46 13
-16 l21 21 29 -20 c23 -17 28 -18 28 -5 0 8 -9 20 -21 27 l-21 11 23 24 c29
31 16 44 -14 16 l-24 -22 -18 20 c-18 20 -35 26 -35 12z"/>
<path d="M1860 7910 c0 -27 -3 -30 -30 -30 -16 0 -30 -4 -30 -10 0 -5 14 -10
30 -10 25 0 30 -4 30 -25 0 -14 5 -25 10 -25 6 0 10 11 10 25 0 20 5 25 25 25
14 0 25 5 25 10 0 6 -11 10 -25 10 -21 0 -25 5 -25 30 0 17 -4 30 -10 30 -5 0
-10 -13 -10 -30z"/>
<path d="M2455 9505 c-14 -13 -25 -32 -26 -42 -8 -168 1 -216 46 -233 15 -6
120 -10 235 -10 206 0 209 0 237 24 26 23 28 30 32 116 3 102 -8 142 -45 159
-16 7 -101 11 -240 11 -215 0 -215 0 -239 -25z m485 -17 c19 -21 21 -32 18
-120 -3 -83 -6 -99 -23 -112 -16 -13 -59 -15 -231 -16 -265 0 -256 -5 -258
129 -2 78 1 97 17 117 18 24 19 24 237 24 214 0 220 0 240 -22z"/>
<path d="M2585 9430 c-3 -5 1 -10 9 -10 9 0 16 5 16 10 0 6 -4 10 -9 10 -6 0
-13 -4 -16 -10z"/>
<path d="M2530 9380 c0 -6 28 -10 65 -10 37 0 65 4 65 10 0 6 -28 10 -65 10
-37 0 -65 -4 -65 -10z"/>
<path d="M2590 9336 c0 -9 5 -16 10 -16 6 0 10 4 10 9 0 6 -4 13 -10 16 -5 3
-10 -1 -10 -9z"/>
<path d="M4172 10228 c0 -24 -1 -57 -1 -75 l-1 -32 -47 25 -47 25 -20 -21
c-18 -18 -21 -33 -21 -115 0 -81 3 -97 20 -115 l20 -20 43 21 c24 12 45 19 48
16 3 -3 6 -40 7 -81 l1 -76 375 2 376 3 1 243 1 242 -378 0 -377 0 0 -42z
m729 10 c1 -7 2 -109 3 -226 l1 -212 -354 2 -355 3 -2 67 c-2 92 -13 103 -70
75 -61 -29 -69 -18 -69 88 0 106 10 119 66 88 22 -12 47 -19 55 -16 14 5 16
15 17 101 l1 42 353 0 c275 0 353 -3 354 -12z"/>
<path d="M4395 10100 c-25 -28 -25 -112 0 -140 23 -26 59 -26 85 0 25 25 27
105 4 138 -19 28 -65 29 -89 2z m76 -27 c13 -34 5 -93 -13 -104 -33 -21 -58 5
-58 61 0 67 50 98 71 43z"/>
<path d="M4609 10108 c-6 -63 -3 -83 11 -79 54 14 60 13 71 -13 9 -20 9 -29
-1 -41 -16 -19 -44 -19 -60 0 -10 12 -16 13 -24 5 -15 -15 19 -40 55 -40 28 0
58 22 60 43 5 50 -20 79 -63 74 -24 -3 -28 0 -28 20 0 21 5 23 46 23 27 0 43
4 39 10 -9 15 -105 13 -106 -2z"/>
<path d="M4536 9955 c-3 -9 0 -15 9 -15 8 0 15 7 15 15 0 8 -4 15 -9 15 -5 0
-11 -7 -15 -15z"/>
<path d="M5479 10263 c-1 -5 -3 -28 -4 -53 -1 -25 -2 -55 -3 -68 l-2 -24 -34
21 c-76 48 -101 22 -101 -104 0 -124 24 -150 96 -108 39 23 45 13 44 -77 l-1
-70 266 2 265 3 1 243 1 242 -264 0 c-144 0 -264 -3 -264 -7z m506 -240 l0
-223 -242 0 c-187 0 -243 3 -244 13 0 6 -2 37 -3 69 -1 31 -8 63 -15 72 -11
13 -17 13 -57 -7 -61 -29 -69 -18 -69 88 0 107 9 117 71 86 57 -27 66 -21 70
51 1 29 3 59 3 66 1 10 53 12 244 10 l242 -3 0 -222z"/>
<path d="M5712 10104 c-28 -19 -30 -39 -2 -24 21 11 22 10 22 -45 0 -68 -2
-75 -22 -75 -11 0 -20 -4 -20 -10 0 -5 25 -10 55 -10 30 0 55 5 55 10 0 6 -9
10 -20 10 -18 0 -20 7 -20 80 0 86 -6 94 -48 64z"/>
<path d="M6610 10218 c0 -29 -3 -62 -6 -74 l-5 -21 -46 24 c-35 17 -49 20 -59
12 -37 -30 -42 -185 -9 -235 15 -24 16 -24 53 -8 66 28 67 27 70 -58 l3 -78
264 0 265 0 0 245 0 245 -265 0 -265 0 0 -52z m507 -193 l0 -225 -243 0 -244
0 0 58 c0 79 -8 102 -34 102 -12 0 -31 -7 -42 -15 -23 -17 -50 -19 -59 -4 -4
5 -8 39 -9 75 -5 122 9 142 76 104 56 -31 65 -20 67 88 l1 42 243 0 244 0 0
-225z"/>
<path d="M6848 10106 c-10 -7 -18 -19 -18 -26 0 -10 3 -10 14 -1 19 16 22 7
21 -59 0 -49 -2 -55 -22 -58 -47 -7 -21 -22 38 -22 37 0 58 4 54 10 -3 6 -15
10 -26 10 -17 0 -19 7 -19 80 0 84 -6 94 -42 66z"/>
<path d="M7740 10211 c0 -87 -5 -94 -43 -70 -42 25 -74 24 -87 -2 -15 -28 -16
-179 -1 -207 13 -25 44 -28 81 -7 46 26 50 21 50 -65 l0 -80 265 0 265 0 0
245 0 245 -265 0 -265 0 0 -59z m510 -186 l0 -225 -245 0 -245 0 0 69 c0 95
-14 109 -76 78 -39 -18 -46 -19 -54 -7 -10 15 -13 64 -10 130 3 77 15 84 76
48 36 -21 37 -21 50 -3 8 11 14 44 14 77 l0 58 245 0 245 0 0 -225z"/>
<path d="M7960 10100 c-36 -36 -22 -142 20 -155 56 -18 90 20 86 93 -4 73 -62
106 -106 62z m68 -12 c7 -7 12 -33 12 -58 0 -49 -13 -70 -42 -70 -26 0 -41 67
-26 113 10 28 36 35 56 15z"/>
<path d="M3443 10132 l-43 -3 0 -95 0 -94 98 0 97 0 -1 90 c0 49 -3 92 -6 95
-7 7 -90 11 -145 7z m127 -97 l0 -75 -73 0 -72 0 -1 75 -1 75 74 0 73 0 0 -75z"/>
<path d="M3520 10074 c0 -9 7 -14 17 -12 25 5 28 28 4 28 -12 0 -21 -6 -21
-16z"/>
<path d="M3447 10013 c-4 -3 -7 -12 -7 -20 0 -15 26 -18 34 -4 7 11 -18 33
-27 24z"/>
<path d="M3812 10023 l3 -118 28 -3 c15 -2 27 1 27 7 0 6 -7 11 -15 11 -10 0
-15 10 -16 28 0 15 -1 63 -2 106 -1 54 -6 81 -15 84 -10 3 -12 -22 -10 -115z"/>
<path d="M5120 10131 c0 -6 7 -11 15 -11 11 0 15 -21 17 -107 4 -147 23 -138
23 10 l0 112 -27 3 c-16 2 -28 -1 -28 -7z"/>
<path d="M7378 10079 c0 -8 -1 -21 -2 -29 -1 -9 -13 -16 -28 -18 -34 -4 -37
-22 -4 -22 24 0 41 -24 30 -42 -4 -6 -1 -9 7 -6 8 3 13 15 13 26 -1 18 4 22
27 22 37 0 38 18 2 22 -21 2 -28 8 -28 25 0 24 -14 44 -17 22z"/>
<path d="M6200 10072 c0 -5 9 -17 20 -27 l21 -19 -25 -21 c-33 -28 -21 -40 14
-15 27 19 28 19 45 0 10 -11 22 -17 27 -14 5 3 0 16 -11 28 l-21 22 21 23 c28
30 15 41 -14 13 l-24 -22 -18 20 c-19 21 -35 26 -35 12z"/>
<path d="M4410 9550 c0 -75 -5 -81 -50 -55 -40 23 -69 19 -81 -12 -12 -33 -15
-125 -5 -175 9 -51 31 -61 78 -37 20 10 42 19 48 19 6 0 10 -31 10 -80 l0 -80
265 0 265 0 0 245 0 245 -265 0 -265 0 0 -70z m510 -175 l0 -225 -245 0 -245
0 0 68 c0 42 -5 75 -14 87 -13 18 -14 18 -50 -3 -66 -39 -78 -26 -78 83 0 109
14 124 79 84 48 -30 63 -15 63 67 l0 64 245 0 245 0 0 -225z"/>
<path d="M4638 9459 c-10 -5 -18 -17 -18 -24 0 -19 8 -19 26 0 17 17 33 19 53
6 18 -12 7 -41 -19 -48 -28 -7 -25 -20 6 -27 19 -5 25 -12 22 -29 -4 -27 -39
-34 -62 -12 -23 23 -42 8 -20 -16 23 -26 76 -25 100 2 17 19 18 22 2 50 -10
16 -13 31 -7 34 13 9 11 49 -3 63 -15 15 -57 15 -80 1z"/>
<path d="M5150 9550 c0 -38 -4 -70 -8 -70 -4 0 -25 9 -46 19 -45 24 -61 19
-75 -21 -15 -41 -14 -161 1 -193 13 -29 51 -33 82 -10 39 30 46 20 46 -65 l0
-80 265 0 265 0 1 33 c0 39 0 415 -1 440 0 16 -19 17 -265 17 l-265 0 0 -70z
m510 -175 l0 -225 -243 0 -243 0 -1 71 c-2 93 -16 111 -66 80 -64 -39 -77 -25
-77 84 0 109 14 124 79 84 47 -28 61 -12 63 69 l2 62 243 0 243 0 0 -225z"/>
<path d="M5367 9463 c-2 -5 -5 -25 -6 -47 l-3 -38 40 7 c33 5 42 3 50 -12 23
-44 -26 -83 -62 -48 -18 19 -26 19 -26 0 0 -34 76 -47 103 -17 38 41 5 110
-48 100 -21 -4 -25 -1 -25 18 0 21 5 24 40 24 22 0 40 5 40 10 0 11 -97 14
-103 3z"/>
<path d="M5899 9618 c-1 -2 -2 -31 -3 -65 -1 -35 -5 -66 -9 -69 -3 -4 -25 3
-49 15 l-43 21 -20 -20 c-17 -18 -20 -34 -20 -115 0 -81 3 -97 20 -115 l20
-20 43 21 c24 12 46 19 49 15 4 -4 8 -39 8 -79 l1 -72 265 -3 266 -2 0 245 0
245 -263 0 c-145 0 -265 -1 -265 -2z m506 -243 l0 -225 -244 2 -244 3 -2 65
c-1 36 -3 70 -4 76 -2 23 -33 23 -71 1 -31 -17 -42 -19 -51 -10 -13 13 -21
130 -12 176 6 32 21 34 72 8 53 -28 65 -16 65 63 l1 66 245 0 245 0 0 -225z"/>
<path d="M6100 9460 c0 -5 20 -10 45 -10 25 0 45 -2 45 -4 0 -2 -11 -26 -25
-53 -31 -61 -39 -103 -19 -103 8 0 14 10 14 24 0 13 13 50 30 82 16 32 30 62
30 67 0 4 -27 7 -60 7 -33 0 -60 -4 -60 -10z"/>
<path d="M6640 9556 c0 -36 -4 -68 -10 -71 -5 -3 -23 1 -39 10 -65 33 -89 13
-96 -78 -5 -69 9 -138 30 -153 15 -11 24 -10 56 6 21 11 43 20 49 20 6 0 10
-31 10 -80 l0 -80 265 0 265 0 0 245 0 245 -265 0 -265 0 0 -64z m510 -181 l0
-225 -245 0 -245 0 0 58 c0 103 -19 128 -70 92 -31 -22 -55 -26 -66 -9 -11 19
-7 180 5 192 8 8 23 5 56 -11 59 -29 75 -15 75 69 l0 59 245 0 245 0 0 -225z"/>
<path d="M6856 9448 c-22 -30 -20 -54 5 -79 16 -16 29 -20 50 -15 32 6 34 4
19 -25 -12 -21 -40 -25 -58 -7 -17 17 -28 2 -12 -17 20 -24 67 -19 86 10 23
35 22 110 -1 135 -24 27 -70 26 -89 -2z m78 -20 c14 -23 -3 -52 -32 -56 -16
-2 -23 3 -28 22 -3 14 -3 33 0 42 8 20 45 15 60 -8z"/>
<path d="M3437 9532 c-46 -6 -60 -39 -60 -152 0 -83 3 -104 18 -120 20 -22 35
-26 35 -9 0 5 -4 7 -10 4 -5 -3 -10 1 -10 10 0 9 -4 13 -10 10 -15 -9 -12 195
3 220 15 25 23 27 122 28 135 1 143 -8 140 -151 -2 -51 0 -90 4 -87 3 4 7 48
8 98 2 96 -14 146 -47 148 -47 3 -169 4 -193 1z"/>
<path d="M3890 9372 l0 -117 36 1 c34 2 63 14 32 14 -12 0 -15 18 -15 101 0
93 1 101 21 109 16 7 10 9 -26 9 l-48 1 0 -118z m40 3 c0 -79 -3 -105 -13
-105 -10 0 -12 25 -11 103 2 115 1 107 14 107 6 0 10 -42 10 -105z"/>
<path d="M4041 9480 c24 -14 25 -210 1 -210 -24 0 -7 -11 21 -14 51 -6 51 -8
48 182 l-1 52 -42 0 c-32 -1 -39 -3 -27 -10z m59 -111 c0 -81 -3 -99 -15 -99
-12 0 -15 18 -15 98 0 54 3 102 6 105 17 17 24 -13 24 -104z"/>
<path d="M3490 9420 c-11 -11 -20 -27 -20 -35 0 -8 9 -24 20 -35 21 -21 60
-27 60 -9 0 6 -7 9 -15 5 -27 -10 -45 5 -45 39 0 25 5 34 21 38 35 9 60 -13
54 -48 l-6 -30 15 25 c13 23 13 27 -6 48 -26 27 -52 28 -78 2z"/>
<path d="M3632 9258 c-6 -6 -42 -11 -87 -11 -41 1 -75 -2 -75 -6 0 -15 145 -5
175 12 17 9 23 16 15 17 -9 0 -21 -5 -28 -12z"/>
<path d="M3445 9240 c3 -5 8 -10 11 -10 2 0 4 5 4 10 0 6 -5 10 -11 10 -5 0
-7 -4 -4 -10z"/>
<path d="M2554 8889 c-25 -27 -24 -111 1 -139 23 -26 60 -25 85 0 15 15 20 33
20 70 0 37 -5 55 -20 70 -26 26 -62 26 -86 -1z m80 -36 c19 -68 -27 -133 -61
-87 -16 22 -17 78 -2 105 16 31 51 21 63 -18z"/>
<path d="M2572 8424 c-12 -8 -22 -20 -22 -27 0 -8 3 -8 12 1 22 22 28 12 28
-53 0 -58 -2 -65 -19 -65 -11 0 -23 -4 -26 -10 -4 -6 17 -10 54 -10 58 0 85
15 39 22 -21 3 -23 8 -23 77 0 41 -5 76 -10 78 -6 2 -20 -4 -33 -13z"/>
<path d="M2556 7951 c-25 -28 -26 -114 -1 -141 23 -26 59 -26 85 0 25 25 27
105 4 138 -19 28 -64 29 -88 3z m78 -38 c19 -68 -27 -133 -61 -87 -16 23 -17
96 -1 112 22 22 52 10 62 -25z"/>
<path d="M500 3906 c0 -45 4 -76 10 -76 20 0 160 63 160 72 0 8 -99 57 -148
72 -21 7 -22 5 -22 -68z m90 14 l35 -18 -48 -21 c-27 -12 -50 -21 -51 -21 -5
0 -5 64 0 72 8 12 26 9 64 -12z"/>
<path d="M1252 7465 c-16 -14 -32 -36 -34 -50 -7 -35 8 -32 20 4 11 32 55 60
85 55 31 -4 66 -33 73 -59 8 -31 24 -33 19 -2 -3 12 -18 34 -35 50 -39 35 -87
36 -128 2z"/>
<path d="M1220 4135 c0 -63 3 -115 8 -116 4 0 16 -2 28 -3 11 -1 29 1 40 5 18
7 18 8 -1 8 -19 1 -21 8 -22 102 -1 94 0 101 20 109 17 7 12 9 -25 9 l-48 1 0
-115z m40 -1 c0 -80 -3 -105 -12 -101 -9 2 -13 30 -14 88 0 92 4 119 17 119 5
0 9 -48 9 -106z"/>
<path d="M1443 4243 c15 -4 17 -18 17 -109 0 -88 -2 -104 -16 -104 -8 0 -13
-4 -10 -8 4 -7 17 -7 71 -3 6 1 10 46 10 116 l0 115 -45 -1 c-25 -1 -37 -3
-27 -6z m57 -108 c0 -80 -3 -105 -13 -105 -10 0 -13 23 -12 103 3 115 2 107
15 107 6 0 10 -42 10 -105z"/>
<path d="M1353 4125 c0 -8 6 -15 14 -15 7 0 13 7 13 15 0 8 -6 15 -13 15 -8 0
-14 -7 -14 -15z"/>
<path d="M1239 891 c20 -28 20 -29 1 -46 -11 -10 -17 -22 -14 -27 3 -5 16 0
28 11 l23 21 23 -20 c12 -11 27 -17 32 -14 5 4 -2 16 -16 27 l-26 21 22 23
c28 30 15 43 -15 15 l-24 -22 -18 20 c-27 30 -39 24 -16 -9z"/>
<path d="M1269 453 c-1 -10 -1 -24 0 -30 1 -8 -10 -13 -29 -13 -16 0 -30 -4
-30 -10 0 -5 14 -10 31 -10 25 0 30 -3 27 -22 -2 -11 3 -23 10 -25 7 -3 12 5
12 21 0 21 5 26 25 26 14 0 25 5 25 10 0 6 -11 10 -25 10 -21 0 -25 5 -25 30
0 31 -19 43 -21 13z"/>
<path d="M2060 6920 l0 -100 33 -1 c36 -1 146 -1 163 0 8 1 11 34 11 101 l0
100 -104 0 -103 0 0 -100z m190 -4 l0 -83 -80 0 c-44 1 -80 3 -80 6 0 6 152
161 157 161 2 0 3 -38 3 -84z"/>
<path d="M2062 6278 c6 -18 28 -21 28 -4 0 9 -7 16 -16 16 -9 0 -14 -5 -12
-12z"/>
<path d="M2040 4098 c2 -24 52 -134 62 -136 8 -1 24 15 36 37 26 45 30 101 7
101 -8 0 -12 -6 -9 -15 6 -16 -13 -82 -26 -90 -5 -3 -17 19 -26 50 -10 30 -24
55 -31 55 -7 0 -13 -1 -13 -2z"/>
<path d="M2060 1947 c0 -2 9 -14 20 -27 l20 -23 -20 -22 c-27 -28 -13 -41 16
-14 l22 21 21 -21 c12 -12 26 -19 32 -15 6 3 2 13 -11 24 -24 21 -25 28 -3 52
23 26 7 35 -20 11 -22 -20 -22 -20 -41 -2 -17 17 -36 25 -36 16z"/>
<path d="M2110 1370 c0 -27 -3 -30 -30 -30 -16 0 -30 -4 -30 -10 0 -5 14 -10
30 -10 17 0 29 -3 29 -7 -1 -5 -1 -16 0 -26 1 -24 21 -11 21 14 0 14 7 19 25
19 14 0 25 5 25 10 0 6 -11 10 -25 10 -21 0 -25 5 -25 30 0 17 -4 30 -10 30
-5 0 -10 -13 -10 -30z"/>
<path d="M3700 6558 c0 -37 -4 -69 -9 -72 -5 -3 -27 4 -50 17 l-42 22 -20 -24
c-38 -47 -25 -241 18 -241 7 0 31 9 52 20 21 10 41 16 45 13 3 -4 6 -82 6
-175 l0 -168 3393 2 3392 3 3 333 c1 182 -1 333 -5 333 -5 1 -1532 2 -3395 3
l-3388 1 0 -67z m6756 40 c7 -5 10 -107 10 -315 l-1 -308 -3372 -1 -3373 -1 0
162 c0 194 -4 202 -77 166 -63 -30 -69 -17 -64 124 3 70 17 81 68 53 56 -31
73 -17 73 62 0 32 5 60 10 62 19 6 6715 2 6726 -4z"/>
<path d="M4749 6525 c0 -5 -1 -36 -2 -67 -1 -31 -5 -59 -8 -63 -4 -3 -24 3
-45 14 -21 12 -43 21 -49 21 -51 0 -59 -238 -8 -257 8 -3 35 4 59 15 l44 22 2
-23 c1 -12 3 -42 4 -67 1 -25 3 -53 3 -63 1 -16 24 -17 374 -15 l372 3 3 243
c2 190 0 242 -10 243 -7 1 -176 2 -375 3 -239 1 -363 -2 -364 -9z m717 -14
c11 -1 17 -440 5 -442 -3 -1 -162 -2 -354 -2 -341 -2 -347 -2 -348 18 0 11 -2
44 -3 72 -3 74 -15 82 -72 54 -33 -16 -50 -19 -58 -11 -6 6 -10 49 -10 101 0
106 10 119 62 89 18 -11 40 -20 48 -20 19 0 34 41 32 89 0 21 1 42 4 47 5 7
632 12 694 5z"/>
<path d="M4913 6442 c-57 -6 -73 -39 -73 -153 0 -89 2 -101 24 -125 l23 -28
219 -1 c121 -1 231 3 247 8 40 13 50 41 52 142 2 103 -11 141 -52 151 -27 7
-381 12 -440 6z m455 -36 c14 -13 17 -37 17 -116 0 -142 15 -134 -256 -135
-280 -1 -269 -6 -269 133 1 108 9 128 55 134 17 1 122 2 233 2 176 -1 206 -4
220 -18z"/>
<path d="M4960 6356 c0 -8 -6 -17 -12 -19 -9 -4 -10 -8 -2 -14 6 -4 11 -29 11
-55 1 -25 4 -51 7 -57 9 -14 46 -14 46 -1 0 6 -7 10 -15 10 -11 0 -15 12 -15
50 0 38 4 50 15 50 8 0 15 5 15 10 0 6 -7 10 -15 10 -8 0 -15 7 -15 15 0 8 -4
15 -10 15 -5 0 -10 -6 -10 -14z"/>
<path d="M5030 6270 c0 -50 4 -70 13 -70 8 0 12 14 11 43 -1 49 11 77 31 77 8
0 15 5 15 10 0 14 -23 12 -39 -2 -11 -10 -13 -10 -7 0 4 7 1 12 -8 12 -13 0
-16 -13 -16 -70z"/>
<path d="M6169 6515 c-1 -11 -1 -38 0 -60 1 -63 -9 -71 -59 -45 -42 22 -43 22
-62 2 -40 -39 -32 -223 9 -239 9 -4 35 3 56 15 22 12 43 20 46 17 5 -5 7 -40
10 -143 l1 -22 263 2 262 3 3 243 c1 133 -1 243 -5 243 -5 1 -124 2 -265 3
-253 2 -258 1 -259 -19z m501 -4 c9 -2 7 -435 -1 -441 -4 -3 -112 -5 -241 -4
l-233 0 -6 72 c-7 94 -17 104 -75 73 -35 -19 -47 -22 -57 -12 -17 17 -16 173
2 195 12 15 16 15 46 -4 18 -11 40 -20 49 -20 21 0 36 39 36 95 0 24 5 45 10
47 9 3 456 2 470 -1z"/>
<path d="M6386 6364 c-18 -17 -21 -34 -7 -34 5 0 14 7 21 15 20 25 55 15 55
-15 0 -18 -6 -26 -22 -28 -28 -4 -31 -22 -4 -22 28 0 47 -26 31 -45 -16 -20
-39 -19 -62 2 -10 9 -21 13 -24 10 -12 -12 5 -36 31 -43 63 -16 111 30 75 71
-16 17 -16 22 -4 33 31 28 3 72 -46 72 -16 0 -36 -7 -44 -16z"/>
<path d="M7372 6530 c-4 -3 -8 -33 -8 -68 -1 -34 -4 -65 -7 -68 -3 -3 -23 4
-45 15 -23 12 -48 18 -56 15 -22 -8 -36 -59 -35 -123 3 -124 24 -150 91 -113
23 12 43 20 46 17 3 -3 6 -33 8 -67 1 -35 2 -71 3 -80 1 -17 24 -18 336 -18
l335 0 0 248 0 247 -331 0 c-181 0 -333 -2 -337 -5z m631 -19 c16 -1 17 -17
15 -223 l-3 -223 -308 0 c-170 0 -311 3 -314 8 -2 4 -5 37 -7 72 -3 86 -13 95
-72 66 -34 -16 -50 -19 -58 -11 -14 14 -15 185 -1 199 7 7 24 3 52 -11 22 -11
48 -18 56 -15 16 6 27 56 24 104 -2 22 2 33 12 35 13 3 563 2 604 -1z"/>
<path d="M7585 6360 c-23 -26 -11 -39 14 -16 11 10 28 16 38 14 33 -6 26 -38
-21 -88 -25 -27 -46 -54 -46 -60 0 -6 25 -10 60 -10 33 0 60 4 60 10 0 6 -21
10 -47 10 l-48 0 48 46 c26 25 47 54 47 64 0 47 -71 67 -105 30z"/>
<path d="M7720 6370 c0 -5 20 -10 45 -10 25 0 45 -2 45 -4 0 -2 -11 -23 -24
-47 -33 -60 -43 -109 -22 -109 11 0 16 9 16 28 0 15 14 51 30 81 17 30 30 58
30 63 0 4 -27 8 -60 8 -33 0 -60 -4 -60 -10z"/>
<path d="M8650 6530 c-4 -3 -8 -33 -8 -68 1 -34 -2 -65 -5 -68 -3 -3 -23 4
-45 15 -23 12 -48 18 -56 15 -22 -8 -36 -60 -35 -128 2 -119 24 -145 91 -108
23 12 43 20 45 18 2 -2 5 -39 6 -82 l2 -79 265 0 265 0 0 238 c0 131 -2 242
-5 246 -6 8 -507 9 -520 1z m495 -19 c6 -1 9 -80 9 -218 -1 -120 -2 -220 -3
-223 -2 -10 -481 -5 -482 5 0 5 -2 39 -4 74 -5 83 -13 91 -71 62 -34 -16 -50
-19 -58 -11 -14 14 -15 185 -1 199 7 7 24 3 52 -11 22 -11 48 -18 57 -15 15 6
18 19 19 97 1 19 7 37 14 40 10 4 433 5 468 1z"/>
<path d="M8877 6362 c-23 -25 -21 -35 3 -22 19 10 20 8 20 -55 0 -58 -2 -65
-19 -65 -11 0 -23 -4 -26 -10 -4 -6 17 -10 54 -10 59 0 85 15 39 22 -22 3 -23
8 -23 78 0 60 -3 75 -16 78 -8 1 -23 -6 -32 -16z"/>
<path d="M9783 6533 c-4 -2 -7 -29 -6 -61 2 -81 -4 -88 -56 -61 l-43 22 -20
-20 c-40 -40 -33 -224 9 -240 9 -4 35 3 56 15 22 12 42 20 45 17 3 -3 6 -35 8
-72 1 -38 3 -74 3 -81 1 -10 57 -12 264 -10 l262 3 0 245 0 245 -257 0 c-141
0 -261 -1 -265 -2z m492 -22 c11 -1 16 -440 5 -442 -3 0 -110 -2 -239 -2 -150
-2 -235 1 -237 8 -1 5 -5 38 -7 73 -6 84 -15 92 -73 63 -30 -14 -50 -19 -56
-13 -12 12 -19 119 -11 167 4 27 10 35 27 35 11 0 30 -7 40 -15 47 -35 71 -12
75 70 2 27 4 52 6 55 3 4 435 5 470 1z"/>
<path d="M9996 6358 c-9 -12 -16 -43 -16 -68 0 -57 22 -90 59 -90 41 0 62 29
63 89 1 36 -4 56 -17 71 -24 27 -70 26 -89 -2z m74 -17 c24 -46 5 -121 -31
-121 -20 0 -39 34 -39 70 0 60 47 94 70 51z"/>
<path d="M5788 6352 c-26 -5 -22 -22 4 -22 19 0 15 -7 -30 -50 -48 -45 -63
-70 -45 -70 4 0 31 23 60 52 46 45 53 49 53 30 0 -12 5 -22 11 -22 6 0 9 17 7
42 -3 43 -14 50 -60 40z"/>
<path d="M3930 6343 c0 -4 23 -31 52 -60 45 -46 49 -53 30 -53 -12 0 -22 -4
-22 -10 0 -5 6 -10 14 -10 8 0 21 -3 29 -6 21 -8 44 20 43 52 -2 34 -26 46
-26 13 0 -21 -6 -17 -53 29 -50 50 -67 61 -67 45z"/>
<path d="M6900 6345 c0 -2 23 -28 52 -57 40 -41 48 -54 35 -56 -9 -2 -17 -8
-17 -13 0 -9 6 -11 40 -11 11 0 25 0 30 1 6 1 10 19 10 41 0 22 -4 40 -10 40
-10 0 -14 -15 -11 -35 1 -5 -22 14 -51 43 -46 44 -78 64 -78 47z"/>
<path d="M9410 6320 c0 -25 -4 -30 -25 -30 -14 0 -25 -4 -25 -10 0 -5 11 -10
25 -10 20 0 25 -5 25 -25 0 -14 5 -25 10 -25 6 0 10 11 10 25 0 21 5 25 30 25
17 0 30 5 30 10 0 6 -13 10 -30 10 -27 0 -30 3 -30 30 0 17 -4 30 -10 30 -5 0
-10 -13 -10 -30z"/>
<path d="M8250 6315 l23 -25 -21 -23 c-12 -13 -19 -27 -15 -30 3 -4 17 3 30
15 l23 21 23 -21 c13 -12 27 -19 30 -15 4 3 -3 17 -15 30 l-21 23 23 25 c28
29 9 34 -22 5 -21 -19 -21 -19 -38 0 -10 11 -23 20 -30 20 -8 0 -4 -10 10 -25z"/>
<path d="M4420 6275 c0 -9 5 -15 11 -13 6 2 11 8 11 13 0 5 -5 11 -11 13 -6 2
-11 -4 -11 -13z"/>
<path d="M4137 6273 c-4 -3 -7 -11 -7 -17 0 -6 5 -5 12 2 7 7 18 12 25 12 23
0 14 -30 -19 -60 l-33 -29 45 1 c31 1 36 2 16 5 l-28 5 27 28 c32 33 28 60 -8
60 -13 0 -27 -3 -30 -7z"/>
<path d="M11090 6468 c0 -37 -4 -69 -9 -73 -5 -3 -28 4 -51 16 -37 19 -43 20
-56 7 -22 -22 -33 -79 -28 -148 4 -67 17 -100 40 -100 8 0 32 9 53 20 21 10
41 16 45 13 3 -4 6 -42 6 -85 l0 -78 265 0 265 0 0 245 c0 135 -3 246 -7 246
-5 1 -124 2 -265 3 l-258 1 0 -67z m498 43 c9 -1 12 -53 12 -223 l0 -223 -242
1 -243 0 -3 71 c-4 94 -17 106 -79 73 -61 -33 -67 -22 -65 114 2 81 12 91 69
63 44 -21 45 -22 59 -3 8 11 14 43 14 72 0 29 5 54 10 56 9 3 435 2 468 -1z"/>
<path d="M11314 6366 c-15 -12 -19 -27 -19 -76 0 -49 4 -64 19 -76 67 -49 134
46 93 131 -19 38 -58 46 -93 21z m64 -18 c17 -17 15 -103 -3 -118 -8 -6 -23
-9 -35 -5 -20 6 -23 19 -22 84 0 45 33 66 60 39z"/>
<path d="M2793 6360 c1 -23 17 -28 17 -5 0 12 14 15 64 15 l64 0 4 -74 c5
-109 7 -106 -68 -106 -72 0 -68 -6 -66 93 0 26 -3 47 -7 47 -4 0 -7 -34 -7
-75 l1 -75 73 0 c65 0 92 -10 60 -23 -7 -3 5 -6 27 -6 24 0 35 3 27 7 -20 13
-4 39 28 46 32 6 60 48 60 91 0 30 -24 43 -45 25 -8 -7 -15 -8 -15 -3 0 5 -13
8 -29 5 -27 -4 -29 -2 -27 27 l2 31 -82 0 c-77 0 -83 -1 -81 -20z m177 -70 c0
-11 -4 -20 -10 -20 -5 0 -10 9 -10 20 0 11 5 20 10 20 6 0 10 -9 10 -20z m70
5 c0 -25 -28 -85 -39 -85 -15 0 -14 24 3 65 15 36 36 47 36 20z"/>
<path d="M2843 6343 c-7 -2 -13 -9 -13 -15 0 -6 6 -6 15 2 19 15 65 5 65 -15
0 -8 -9 -20 -20 -27 -11 -7 -20 -18 -20 -25 0 -8 10 -4 25 9 51 44 11 97 -52
71z"/>
<path d="M10723 6333 c0 -37 -4 -43 -28 -43 -14 0 -25 -4 -25 -10 0 -5 14 -10
30 -10 27 0 30 -3 26 -25 -3 -18 0 -25 10 -25 8 0 13 4 10 9 -11 18 6 41 30
41 13 0 24 5 24 10 0 6 -11 10 -25 10 -24 0 -27 4 -29 39 -2 21 -23 25 -23 4z"/>
<path d="M3290 6332 c0 -5 9 -17 20 -27 l20 -18 -22 -24 c-28 -30 -15 -44 14
-15 l22 22 23 -22 c30 -28 43 -15 15 15 l-22 23 22 22 c29 29 15 42 -15 14
l-24 -22 -18 20 c-19 21 -35 26 -35 12z"/>
<path d="M2860 6216 c0 -9 7 -16 16 -16 17 0 14 22 -4 28 -7 2 -12 -3 -12 -12z"/>
<path d="M2902 5690 c-24 -23 -31 -40 -8 -21 17 14 27 2 21 -28 -6 -35 -14
-41 -51 -41 -19 0 -34 -4 -34 -10 0 -5 17 -10 38 -10 47 0 72 24 72 68 0 26 3
30 18 25 15 -6 15 -4 -2 15 -23 27 -27 27 -54 2z"/>
<path d="M3020 5620 c0 -6 50 -10 130 -10 80 0 130 4 130 10 0 6 -50 10 -130
10 -80 0 -130 -4 -130 -10z"/>
<path d="M2822 5178 c-19 -19 -14 -46 12 -63 25 -17 51 -12 60 11 4 10 23 14
71 14 82 0 86 15 4 17 -39 1 -67 7 -78 17 -21 19 -52 21 -69 4z m55 -9 c16
-16 4 -49 -18 -49 -10 0 -23 9 -29 19 -8 16 -6 22 7 30 23 13 27 13 40 0z"/>
<path d="M2938 4536 c-10 -7 -40 -12 -73 -11 -30 1 -58 -2 -61 -6 -6 -11 -4
-11 64 -14 29 -2 59 -8 67 -15 23 -19 60 -8 63 19 6 37 -28 52 -60 27z m42
-21 c0 -8 -7 -15 -15 -15 -16 0 -20 12 -8 23 11 12 23 8 23 -8z"/>
<path d="M2905 3953 c-66 -16 -82 -107 -27 -149 42 -33 123 -2 136 51 9 36
-17 81 -55 94 -18 6 -32 10 -33 10 -1 -1 -10 -4 -21 -6z m55 -25 c0 -5 4 -7 9
-4 5 3 16 -5 25 -19 12 -18 13 -25 4 -25 -10 0 -10 -2 0 -9 11 -7 11 -11 -2
-23 -8 -9 -12 -18 -9 -22 4 -3 -1 -6 -10 -6 -9 0 -17 -4 -17 -9 0 -5 -13 -9
-30 -9 -16 1 -30 5 -30 10 0 5 -4 7 -10 3 -5 -3 -16 8 -25 25 -10 18 -11 30
-5 30 6 0 9 4 6 9 -10 15 5 41 32 55 26 14 62 11 62 -6z"/>
<path d="M2905 3881 c16 -11 31 -18 34 -15 7 7 -12 21 -39 29 -23 6 -23 5 5
-14z"/>
<path d="M2899 3443 c-13 -15 -16 -21 -6 -14 14 12 17 11 18 -3 1 -9 2 -22 3
-28 4 -23 -16 -38 -50 -38 -19 0 -34 -4 -34 -10 0 -5 19 -10 41 -10 49 0 68
19 69 67 0 27 3 31 18 26 15 -6 15 -4 -2 15 -24 28 -28 28 -57 -5z"/>
<path d="M2820 2972 c0 -5 9 -17 20 -27 20 -18 20 -18 -1 -36 -12 -10 -19 -23
-17 -29 2 -7 13 -3 27 9 l24 21 22 -20 c12 -11 25 -17 28 -13 4 3 -2 16 -13
28 l-20 22 20 23 c11 13 20 25 20 27 0 9 -18 1 -37 -16 -21 -20 -21 -20 -39 0
-18 20 -34 25 -34 11z"/>
<path d="M2860 2490 c0 -25 -4 -30 -25 -30 -14 0 -25 -4 -25 -10 0 -5 11 -10
25 -10 20 0 25 -5 25 -26 0 -16 5 -24 13 -21 6 2 11 14 9 25 -3 19 2 22 27 22
17 0 31 5 31 10 0 6 -13 10 -30 10 -27 0 -30 3 -30 30 0 17 -4 30 -10 30 -5 0
-10 -13 -10 -30z"/>
<path d="M3816 5244 c-18 -17 -21 -34 -7 -34 5 0 14 7 21 15 19 23 54 15 58
-12 3 -17 -3 -24 -22 -29 -30 -7 -35 -24 -7 -24 28 0 47 -26 31 -45 -7 -8 -20
-15 -30 -15 -10 0 -23 7 -30 15 -16 19 -30 19 -30 0 0 -31 83 -48 108 -23 17
17 15 65 -4 72 -14 5 -14 7 0 22 32 31 6 74 -44 74 -16 0 -36 -7 -44 -16z"/>
<path d="M3965 5240 c-25 -28 -26 -112 -1 -139 24 -27 60 -27 86 -1 25 25 27
105 4 138 -19 28 -64 29 -89 2z m76 -27 c15 -40 0 -107 -25 -111 -39 -8 -62
70 -36 119 16 28 49 24 61 -8z"/>
<path d="M4124 5252 c-20 -13 -32 -47 -30 -89 3 -75 62 -108 106 -60 18 18 21
31 17 76 -3 37 -10 58 -22 67 -20 15 -54 18 -71 6z m55 -26 c28 -34 15 -126
-18 -126 -28 0 -41 22 -41 70 0 62 30 91 59 56z"/>
<path d="M3886 4852 c-2 -4 -4 -36 -4 -70 1 -34 -1 -65 -4 -68 -3 -3 -21 4
-39 15 -49 30 -68 27 -85 -14 -30 -73 -9 -225 32 -225 9 0 32 10 51 21 19 12
37 19 40 15 3 -3 6 -80 6 -170 -1 -116 2 -166 11 -168 6 -3 1008 -4 2226 -4
l2215 1 0 335 0 335 -2222 3 c-1222 1 -2224 -2 -2227 -6z m4429 -329 l0 -311
-25 -4 c-21 -3 -4328 -2 -4370 1 -14 1 -16 23 -15 150 0 83 -3 159 -7 170 -9
27 -32 26 -75 0 -26 -17 -37 -19 -46 -10 -16 16 -16 186 -1 201 8 8 24 5 58
-11 58 -29 67 -21 69 63 l2 65 2205 -1 2205 -1 0 -312z"/>
<path d="M5107 4763 c-4 -3 -7 -37 -7 -75 0 -37 -3 -68 -6 -68 -4 0 -23 10
-44 21 -66 37 -90 8 -90 -111 0 -119 25 -150 91 -112 21 12 40 22 43 22 4 0 6
-36 6 -80 0 -69 2 -80 18 -81 50 -4 489 -5 500 -1 9 3 12 62 12 248 l0 244
-258 0 c-142 0 -262 -3 -265 -7z m503 -240 c0 -171 -3 -223 -12 -224 -87 -7
-461 -2 -467 6 -5 6 -8 33 -9 62 -1 98 -14 109 -78 71 -36 -21 -37 -21 -51 -2
-18 23 -15 176 4 195 8 8 21 6 51 -11 63 -36 77 -22 73 75 0 17 1 35 4 42 3 8
70 11 244 11 l241 -1 0 -224z"/>
<path d="M5326 4594 c-18 -17 -21 -34 -7 -34 5 0 14 7 21 15 19 23 54 15 58
-12 3 -17 -3 -24 -22 -29 -30 -7 -35 -24 -8 -24 28 0 43 -20 31 -42 -12 -22
-42 -23 -64 -2 -18 18 -30 13 -22 -10 8 -21 54 -31 86 -20 32 11 39 48 15 75
-9 10 -12 19 -7 19 19 0 24 32 8 56 -18 28 -65 32 -89 8z"/>
<path d="M5849 4768 c-1 -2 -3 -34 -4 -71 -1 -37 -4 -70 -7 -72 -3 -3 -23 5
-45 17 -21 12 -47 19 -56 15 -35 -13 -50 -157 -23 -222 17 -41 36 -44 85 -14
18 11 36 18 38 15 3 -3 7 -38 8 -78 2 -40 3 -75 4 -78 1 -3 119 -5 264 -5
l262 0 0 245 0 245 -262 3 c-145 1 -264 1 -264 0z m502 -26 c4 -23 3 -442 -1
-443 -29 -6 -473 -2 -477 4 -3 5 -6 37 -8 72 -4 94 -15 102 -80 64 -51 -31
-60 -18 -60 91 0 110 8 121 63 90 43 -24 71 -22 73 7 1 10 3 41 4 68 2 28 3
50 4 51 8 5 481 1 482 -4z"/>
<path d="M6067 4592 c-23 -25 -21 -65 4 -87 17 -16 25 -17 50 -8 33 13 33 13
17 -22 -11 -25 -41 -34 -53 -15 -9 15 -25 12 -25 -4 0 -31 61 -35 90 -6 25 25
27 105 4 138 -19 27 -64 29 -87 4z m71 -19 c14 -26 -3 -63 -28 -63 -25 0 -42
37 -28 63 5 9 17 17 28 17 11 0 23 -8 28 -17z"/>
<path d="M6590 4702 c0 -38 -3 -71 -6 -75 -4 -3 -24 3 -46 14 -54 27 -74 18
-86 -37 -12 -56 -7 -151 9 -181 15 -28 34 -29 78 -2 44 26 51 16 51 -76 l0
-70 338 0 337 0 0 245 0 245 -337 3 -338 2 0 -68z m635 43 c19 -4 20 -12 20
-220 0 -152 -3 -218 -12 -223 -6 -4 -148 -7 -315 -7 l-303 1 -5 72 c-7 93 -16
103 -77 73 -63 -30 -67 -23 -65 118 1 75 16 88 71 59 41 -23 42 -23 56 -4 9
12 15 43 15 77 l0 57 298 0 c163 0 306 -1 317 -3z"/>
<path d="M6832 4603 c-7 -2 -17 -14 -23 -25 -9 -18 -8 -18 10 -9 11 6 21 11
23 11 3 0 3 -88 -1 -117 0 -7 -10 -13 -21 -13 -11 0 -20 -4 -20 -10 0 -6 27
-10 61 -10 37 0 58 4 54 10 -3 6 -15 10 -26 10 -17 0 -19 7 -19 80 0 80 -3 87
-38 73z"/>
<path d="M6956 4591 c-12 -13 -14 -21 -6 -26 6 -4 17 1 24 10 16 23 50 15 54
-12 2 -14 -11 -34 -42 -64 -63 -58 -60 -69 14 -69 33 0 60 4 60 10 0 6 -21 10
-47 10 l-48 0 48 46 c26 26 47 55 47 64 0 46 -71 67 -104 31z"/>
<path d="M7480 4702 c0 -38 -3 -71 -6 -75 -4 -3 -24 3 -46 14 -73 37 -94 6
-91 -135 1 -55 5 -72 22 -89 l21 -21 45 22 c53 26 53 26 57 -73 l3 -70 325 -1
c179 0 330 1 336 3 7 3 10 78 9 241 -1 130 -3 240 -4 245 0 4 -152 7 -336 7
l-335 0 0 -68z m655 -179 c0 -190 -2 -222 -15 -225 -13 -3 -537 -2 -597 1 -21
1 -23 6 -23 64 0 39 -5 71 -14 83 -14 19 -15 18 -62 -4 -63 -31 -67 -26 -67
110 0 81 13 93 70 65 44 -21 45 -22 59 -3 8 12 14 44 14 77 l0 57 317 -1 318
-2 0 -222z"/>
<path d="M7710 4589 l-25 -20 25 3 c24 3 25 0 26 -47 1 -63 -4 -75 -27 -75
-10 0 -19 -4 -19 -10 0 -6 27 -10 60 -10 33 0 60 4 60 10 0 6 -11 10 -25 10
-25 0 -25 1 -25 80 0 87 -6 95 -50 59z"/>
<path d="M7839 4598 c-6 -84 -7 -83 37 -72 38 10 61 -17 46 -51 -13 -29 -33
-32 -67 -9 -28 18 -34 4 -9 -20 16 -17 61 -21 81 -8 19 12 31 55 22 79 -9 24
-48 39 -74 29 -11 -4 -15 1 -15 19 0 22 4 25 39 25 22 0 43 5 46 10 4 6 -15
10 -49 10 -38 0 -56 -4 -57 -12z"/>
<path d="M4115 4671 c-26 -11 -49 -54 -42 -80 3 -11 1 -22 -4 -25 -5 -2 -4 -3
2 -2 7 1 13 16 14 33 2 35 20 63 41 63 8 0 14 5 14 10 0 6 -1 10 -2 9 -2 0
-12 -4 -23 -8z"/>
<path d="M4150 4672 c0 -5 7 -9 15 -9 8 0 15 4 15 9 0 4 -7 8 -15 8 -8 0 -15
-4 -15 -8z"/>
<path d="M4190 4672 c0 -4 16 -7 35 -7 19 0 35 3 35 8 0 4 -16 7 -35 7 -19 0
-35 -4 -35 -8z"/>
<path d="M4270 4671 c0 -5 11 -8 24 -7 12 2 31 -3 42 -11 16 -12 19 -28 20
-122 l1 -109 -29 -16 c-15 -10 -28 -22 -28 -27 0 -11 14 -4 46 24 19 17 22 29
23 121 2 85 -1 106 -16 125 -18 22 -83 40 -83 22z"/>
<path d="M4581 4518 c1 -62 6 -115 10 -119 5 -3 26 -3 46 -1 30 4 34 6 18 12
-18 6 -20 16 -20 106 0 90 2 100 20 106 12 4 2 6 -28 7 l-47 1 1 -112z m39 -3
c0 -63 -4 -105 -10 -105 -11 0 -11 2 -14 115 -3 84 -1 95 15 95 5 0 9 -46 9
-105z"/>
<path d="M4733 4623 c15 -4 17 -18 17 -109 0 -92 -2 -104 -17 -105 -15 0 -14
-2 3 -9 11 -4 31 -6 45 -3 24 4 25 5 24 116 l0 112 -45 2 c-25 1 -37 -1 -27
-4z m57 -108 c0 -63 -4 -105 -10 -105 -13 0 -12 -3 -15 105 -2 94 0 105 16
105 5 0 9 -46 9 -105z"/>
<path d="M4215 4580 c-3 -5 1 -10 9 -10 8 0 21 -7 30 -15 20 -20 2 -65 -26
-65 -10 0 -18 -5 -18 -11 0 -6 7 -8 16 -5 9 3 19 6 23 6 16 0 31 51 21 70 -14
26 -47 43 -55 30z"/>
<path d="M4179 4562 c-8 -9 -15 -21 -16 -27 -2 -15 16 -45 27 -45 6 0 5 9 -2
20 -10 16 -10 24 0 41 17 26 11 34 -9 11z"/>
<path d="M4070 4528 c0 -12 3 -18 7 -14 11 10 12 36 2 36 -5 0 -9 -10 -9 -22z"/>
<path d="M4070 4466 c0 -67 59 -99 160 -85 53 7 38 11 -44 10 -72 0 -108 28
-102 78 2 17 -1 31 -5 31 -5 0 -9 -15 -9 -34z"/>
<path d="M9147 4763 c-4 -3 -7 -37 -7 -75 0 -37 -2 -68 -6 -68 -3 0 -23 10
-44 23 -66 37 -88 8 -88 -113 0 -121 22 -150 88 -112 21 12 41 22 44 22 4 0 6
-35 6 -79 0 -67 3 -79 18 -83 14 -3 936 -3 953 1 3 0 6 110 5 244 l-1 242
-481 3 c-264 1 -484 -1 -487 -5z m948 -235 c0 -154 -3 -221 -12 -226 -15 -9
-901 -8 -910 2 -5 4 -9 29 -10 54 -1 26 -2 57 -2 70 -1 33 -27 38 -73 12 -30
-17 -43 -19 -51 -11 -16 16 -16 186 -1 201 8 8 24 5 58 -11 30 -15 49 -20 56
-13 5 5 11 37 12 69 1 33 3 63 4 66 2 3 211 6 466 6 l463 1 0 -220z"/>
<path d="M9377 4592 c-23 -25 -21 -35 3 -22 19 10 20 8 20 -55 0 -58 -2 -65
-19 -65 -11 0 -23 -4 -26 -10 -4 -6 17 -10 54 -10 58 0 85 15 39 22 -20 3 -22
9 -22 78 -1 59 -4 75 -17 78 -8 1 -23 -6 -32 -16z"/>
<path d="M9516 4595 c-47 -48 -20 -165 39 -165 44 0 60 24 60 90 0 49 -4 64
-19 76 -26 18 -61 18 -80 -1z m69 -15 c3 -6 7 -30 8 -55 2 -54 -22 -87 -51
-69 -21 13 -29 98 -11 120 13 16 45 19 54 4z"/>
<path d="M9660 4590 c-15 -15 -20 -33 -20 -70 0 -57 24 -90 64 -90 47 0 75 57
60 122 -12 57 -66 76 -104 38z m68 -12 c7 -7 12 -33 12 -58 0 -25 -5 -51 -12
-58 -16 -16 -47 -15 -53 1 -28 74 11 157 53 115z"/>
<path d="M9806 4588 c-23 -33 -21 -113 4 -138 29 -29 66 -26 87 7 23 34 22
107 -2 133 -25 27 -70 26 -89 -2z m74 -17 c24 -45 5 -121 -30 -121 -23 0 -31
12 -37 54 -9 68 40 117 67 67z"/>
<path d="M8461 4668 c-45 -12 -58 -47 -56 -148 3 -156 -1 -154 274 -154 114 1
219 4 234 8 41 10 54 48 52 151 -3 119 -1 112 -32 132 -23 15 -54 18 -234 18
-114 0 -221 -3 -238 -7z m469 -35 c14 -18 17 -40 16 -119 -2 -133 8 -128 -255
-129 -113 0 -216 3 -228 9 -30 12 -36 35 -38 134 -1 90 10 118 48 124 12 2
116 3 231 3 202 -1 209 -1 226 -22z"/>
<path d="M8530 4562 c0 -5 9 -17 20 -27 20 -18 20 -18 0 -35 -19 -17 -27 -40
-14 -40 4 0 15 10 25 22 l19 21 25 -23 c32 -30 46 -18 16 14 l-23 24 21 21
c35 35 20 45 -16 12 -21 -20 -21 -20 -39 0 -18 20 -34 25 -34 11z"/>
<path d="M3817 3942 c-21 -23 -21 -32 -3 -32 8 0 17 7 20 16 9 23 50 14 54
-13 3 -17 -3 -24 -22 -29 -30 -7 -35 -24 -7 -24 28 0 47 -26 31 -45 -16 -20
-39 -19 -62 2 -20 18 -34 12 -25 -11 8 -21 54 -31 86 -20 32 12 42 59 15 78
-15 12 -15 13 0 19 20 8 21 41 0 61 -21 22 -67 20 -87 -2z"/>
<path d="M3739 3548 c-42 -14 -53 -48 -52 -156 1 -91 3 -98 28 -119 26 -22 32
-23 260 -23 293 0 275 -10 279 155 2 83 -8 121 -38 138 -25 14 -436 19 -477 5z
m476 -32 c20 -20 22 -31 20 -120 -1 -84 -4 -101 -20 -112 -22 -17 -3 -15 -250
-16 -110 -1 -210 2 -222 6 -29 9 -37 40 -36 145 1 122 -7 119 266 119 213 0
221 -1 242 -22z"/>
<path d="M3810 3466 c0 -8 -6 -17 -12 -19 -9 -4 -10 -8 -2 -14 6 -4 11 -29 11
-55 1 -55 7 -68 34 -68 23 0 25 15 4 24 -10 4 -15 20 -15 51 0 33 4 45 15 45
8 0 15 5 15 10 0 6 -7 10 -15 10 -8 0 -15 7 -15 15 0 8 -4 15 -10 15 -5 0 -10
-6 -10 -14z"/>
<path d="M3879 3413 c-5 -53 1 -103 12 -103 5 0 9 18 9 41 0 48 15 79 37 79
13 0 14 3 5 12 -8 8 -15 8 -27 -2 -10 -8 -15 -9 -15 -1 0 6 -4 11 -9 11 -5 0
-10 -17 -12 -37z"/>
<path d="M3832 3004 c-28 -19 -30 -39 -2 -24 11 6 20 9 21 8 0 -2 1 -31 2 -66
2 -58 1 -62 -20 -62 -13 0 -23 -4 -23 -10 0 -5 25 -10 55 -10 30 0 55 5 55 10
0 6 -9 10 -20 10 -18 0 -20 7 -20 80 0 86 -6 94 -48 64z"/>
<path d="M3816 2528 c-23 -33 -21 -113 4 -138 48 -48 102 -11 102 70 0 35 -5
57 -17 70 -25 27 -70 26 -89 -2z m74 -17 c24 -46 5 -121 -31 -121 -12 0 -23
10 -29 26 -10 25 -7 84 5 104 10 17 44 11 55 -9z"/>
<path d="M3810 2091 c0 -89 -5 -96 -47 -71 -69 41 -93 20 -98 -88 -3 -72 7
-118 29 -140 13 -13 20 -12 56 7 23 12 46 19 51 16 5 -4 9 -40 9 -81 l0 -74
450 0 450 0 0 245 0 245 -450 0 -450 0 0 -59z m876 -186 l-1 -225 -427 0 -428
0 0 58 c0 106 -16 122 -83 82 -49 -29 -59 -12 -60 95 0 108 7 117 69 85 45
-22 48 -22 61 -5 7 11 13 44 13 77 l0 58 428 0 429 0 -1 -225z"/>
<path d="M4038 1979 c-21 -12 -32 -67 -24 -114 8 -41 40 -61 79 -51 47 11 61
121 21 161 -18 17 -51 19 -76 4z m60 -21 c17 -17 15 -103 -3 -118 -21 -18 -55
-3 -56 26 -1 13 -2 30 -3 37 -7 47 33 84 62 55z"/>
<path d="M4256 1977 c-40 -29 -28 -149 16 -163 53 -17 87 22 83 96 -3 47 -3
46 -21 64 -19 19 -54 21 -78 3z m63 -21 c18 -22 10 -107 -11 -120 -29 -18 -53
15 -51 71 2 58 34 83 62 49z"/>
<path d="M4389 1978 c-8 -84 -9 -80 31 -73 40 7 64 -10 58 -41 -6 -32 -35 -40
-68 -21 -32 19 -40 9 -14 -17 29 -29 97 -13 105 24 2 8 0 27 -4 42 -8 29 -43
45 -72 34 -11 -4 -15 1 -15 19 0 22 4 25 40 25 22 0 40 5 40 10 0 15 -100 13
-101 -2z"/>
<path d="M4170 1825 c0 -8 7 -15 15 -15 8 0 15 7 15 15 0 8 -7 15 -15 15 -8 0
-15 -7 -15 -15z"/>
<path d="M5259 2123 c-1 -16 0 -34 1 -42 1 -8 -1 -30 -5 -48 l-6 -34 -35 20
c-75 45 -98 19 -99 -111 0 -77 3 -90 22 -109 l21 -22 43 22 c53 28 60 19 57
-69 l-3 -65 450 0 450 0 1 230 c0 127 -2 236 -4 243 -3 9 -102 12 -448 12
l-444 0 -1 -27z m874 -210 c-1 -120 -2 -221 -2 -225 -1 -5 -192 -8 -425 -8
l-423 0 -5 76 c-3 41 -9 79 -15 85 -6 6 -26 1 -55 -15 -42 -22 -48 -23 -60 -9
-16 20 -16 179 0 195 8 8 24 5 57 -12 58 -30 68 -21 73 65 l4 65 427 0 426 0
-2 -217z"/>
<path d="M5476 1968 c-23 -33 -21 -113 4 -138 25 -25 62 -26 84 -1 25 28 26
114 1 141 -24 27 -70 26 -89 -2z m74 -17 c24 -46 5 -121 -31 -121 -20 0 -39
34 -39 70 0 60 47 94 70 51z"/>
<path d="M5711 1971 c-14 -11 -20 -21 -13 -25 6 -3 13 -2 17 4 14 23 20 7 20
-52 0 -58 -2 -63 -22 -66 -45 -7 -22 -22 32 -22 30 0 55 5 55 10 0 6 -9 10
-20 10 -18 0 -20 7 -20 80 0 87 -6 94 -49 61z"/>
<path d="M5839 1988 c0 -2 -3 -23 -5 -46 l-4 -44 39 7 c32 5 41 3 49 -12 24
-45 -27 -83 -63 -47 -20 20 -33 10 -19 -14 15 -24 71 -28 95 -6 41 37 8 112
-46 102 -21 -4 -25 -1 -25 18 0 21 5 24 40 24 22 0 40 5 40 10 0 8 -98 16
-101 8z"/>
<path d="M5620 1825 c0 -8 6 -15 13 -15 8 0 14 7 14 15 0 8 -6 15 -14 15 -7 0
-13 -7 -13 -15z"/>
<path d="M6820 2075 l0 -75 -45 22 c-73 36 -92 12 -94 -115 -1 -67 18 -127 40
-127 5 0 27 9 49 20 22 11 42 20 45 20 3 0 5 -36 5 -80 l0 -80 378 2 377 3 0
240 0 240 -378 3 -377 2 0 -75z m731 43 c0 -7 1 -107 2 -223 l1 -210 -355 0
-354 0 -2 68 c-2 93 -13 104 -68 73 -62 -34 -70 -25 -70 83 0 111 9 124 64 93
21 -12 46 -19 55 -16 16 6 17 15 19 102 l0 42 354 0 c275 0 353 -3 354 -12z"/>
<path d="M6942 2035 c-26 -23 -27 -26 -26 -130 0 -105 1 -108 28 -131 27 -24
30 -24 257 -24 l230 0 24 25 c16 15 25 36 26 57 0 18 0 61 1 95 0 131 -5 134
-292 133 -216 -1 -221 -2 -248 -25z m498 -13 c20 -16 22 -27 23 -115 1 -144
15 -137 -264 -137 -194 0 -230 2 -243 16 -19 19 -18 9 -20 119 -2 81 0 92 20
112 23 23 28 23 242 23 197 0 222 -2 242 -18z"/>
<path d="M7040 1966 c0 -8 -6 -17 -12 -19 -10 -4 -10 -8 -2 -14 6 -4 10 -25 9
-46 -4 -57 4 -77 31 -77 13 0 24 5 24 10 0 6 -7 10 -15 10 -19 0 -22 95 -2
104 10 5 10 7 0 12 -7 3 -13 12 -13 20 0 8 -4 14 -10 14 -5 0 -10 -6 -10 -14z"/>
<path d="M7106 1888 c2 -78 2 -78 14 -78 6 0 10 22 10 50 0 39 4 53 20 62 11
7 20 16 20 20 0 13 -28 9 -33 -4 -4 -10 -6 -10 -6 0 -1 6 -7 12 -14 12 -9 0
-12 -17 -11 -62z"/>
<path d="M8179 2148 c0 -2 -2 -30 -4 -63 -1 -33 -3 -66 -4 -73 -1 -10 -11 -7
-40 8 -50 29 -73 23 -88 -20 -24 -71 -10 -201 24 -214 9 -4 34 3 56 14 22 12
42 18 45 15 3 -3 6 -38 7 -78 l0 -72 268 -3 267 -2 -2 242 -3 243 -262 3
c-145 1 -263 1 -264 0z m506 -243 l0 -220 -242 -3 c-227 -2 -243 -1 -244 15
-6 158 -10 166 -74 128 -60 -35 -69 -24 -69 84 -1 114 7 125 69 91 62 -34 69
-23 74 113 1 16 17 17 243 15 l243 -3 0 -220z"/>
<path d="M8412 1974 c-28 -19 -30 -39 -2 -24 22 12 22 11 22 -40 0 -75 -2 -80
-22 -80 -11 0 -20 -4 -20 -10 0 -5 25 -10 55 -10 30 0 55 5 55 10 0 6 -9 10
-20 10 -18 0 -20 7 -20 80 0 86 -6 94 -48 64z"/>
<path d="M9310 2091 c0 -89 -5 -96 -47 -71 -69 40 -94 19 -99 -87 -3 -68 8
-119 30 -141 13 -13 20 -12 57 7 53 28 59 20 59 -71 l0 -68 265 0 265 0 0 245
0 245 -265 0 -265 0 0 -59z m507 -183 l-2 -223 -241 -3 -242 -2 -4 75 c-2 41
-8 79 -13 84 -7 7 -27 2 -60 -14 -46 -22 -51 -22 -59 -7 -14 25 -12 180 3 195
9 9 22 6 57 -12 57 -31 67 -22 72 64 l4 65 243 0 243 0 -1 -222z"/>
<path d="M9538 1979 c-40 -23 -34 -142 7 -161 55 -25 94 15 90 92 -3 47 -3 46
-21 64 -17 18 -51 20 -76 5z m60 -21 c7 -7 12 -33 12 -58 0 -49 -13 -70 -41
-70 -28 0 -42 63 -26 113 9 28 34 36 55 15z"/>
<path d="M3057 2002 c-18 -4 -19 -8 -19 -107 0 -36 1 -69 1 -75 1 -6 40 -10
96 -10 l95 0 0 95 0 95 -27 1 c-16 0 -51 1 -79 2 -28 1 -58 1 -67 -1z m149
-94 l-1 -73 -72 -3 -73 -3 0 76 0 75 73 0 73 0 0 -72z"/>
<path d="M3157 1954 c-9 -10 2 -24 19 -24 8 0 14 7 14 15 0 15 -21 21 -33 9z"/>
<path d="M3077 1874 c-9 -10 2 -24 19 -24 8 0 14 7 14 15 0 15 -21 21 -33 9z"/>
<path d="M3449 1960 c-3 -185 -2 -190 25 -190 14 0 28 5 31 10 3 6 -3 10 -13
10 -18 0 -20 8 -20 78 0 123 -1 142 -12 142 -5 0 -10 -22 -11 -50z"/>
<path d="M4900 2001 c0 -6 7 -11 15 -11 11 0 15 -21 17 -107 4 -145 23 -134
23 12 l0 110 -27 3 c-16 2 -28 -1 -28 -7z"/>
<path d="M2895 1942 c-15 -21 -15 -24 -2 -13 9 7 17 12 18 10 12 -58 -1 -79
-46 -79 -19 0 -35 -4 -35 -10 0 -5 19 -10 41 -10 49 0 68 19 69 67 0 26 3 31
16 26 14 -5 13 -3 -2 15 -24 28 -35 27 -59 -6z"/>
<path d="M6430 1949 c-23 -18 -23 -20 -4 -14 19 5 21 2 19 -24 -3 -42 -12 -51
-51 -51 -19 0 -34 -4 -34 -10 0 -5 19 -10 41 -10 49 0 68 19 69 67 0 27 3 31
18 26 15 -6 15 -4 -2 15 -23 27 -25 27 -56 1z"/>
<path d="M8940 1930 c0 -25 -4 -30 -25 -30 -14 0 -25 -4 -25 -10 0 -5 11 -10
25 -10 20 0 25 -5 25 -26 0 -16 5 -24 13 -21 6 2 11 14 9 25 -3 19 2 22 27 22
17 0 31 5 31 10 0 6 -13 10 -30 10 -27 0 -30 3 -30 30 0 17 -4 30 -10 30 -5 0
-10 -13 -10 -30z"/>
<path d="M7770 1942 c0 -5 9 -17 19 -26 20 -18 20 -18 0 -39 -33 -36 -23 -51
12 -16 l21 21 22 -21 c30 -28 42 -14 14 16 l-21 23 21 19 c12 10 22 21 22 25
0 12 -16 6 -37 -13 -21 -20 -21 -20 -39 0 -18 20 -34 25 -34 11z"/>
<path d="M2825 1410 c-25 -28 -26 -112 -1 -139 24 -27 60 -27 86 -1 15 15 20
33 20 70 0 37 -5 55 -20 70 -25 25 -62 26 -85 0z m74 -17 c10 -20 8 -94 -3
-112 -11 -18 -44 -13 -56 8 -14 27 -13 94 2 109 17 17 46 15 57 -5z"/>
<path d="M2079 939 l-24 -20 26 5 c25 5 25 5 25 -57 -1 -56 -3 -62 -24 -65
-12 -2 -22 -8 -22 -13 0 -12 107 -12 115 1 4 6 -5 10 -19 10 -26 0 -26 1 -26
80 0 88 -8 97 -51 59z"/>
<path d="M2074 486 c-28 -21 -28 -131 0 -152 48 -35 98 -1 102 69 4 82 -47
123 -102 83z m64 -18 c17 -17 15 -103 -3 -118 -8 -6 -23 -9 -35 -5 -20 6 -25
26 -21 90 2 41 33 59 59 33z"/>
</g>
</svg>
