<?xml version="1.0" standalone="no"?>
<!DOCTYPE svg PUBLIC "-//W3C//DTD SVG 20010904//EN"
 "http://www.w3.org/TR/2001/REC-SVG-20010904/DTD/svg10.dtd">
<svg version="1.0" xmlns="http://www.w3.org/2000/svg"
 width="1245.000000pt" height="144.000000pt" viewBox="0 0 1245.000000 144.000000"
 preserveAspectRatio="xMidYMid meet">
<metadata>
Created by potrace 1.16, written by Peter Selinger 2001-2019
</metadata>
<g transform="translate(0.000000,144.000000) scale(0.100000,-0.100000)"
fill="#000000" stroke="none">
<path d="M785 1191 c-1 -3 -3 -46 -4 -96 -1 -112 -5 -152 -14 -162 -5 -4 -35
8 -67 26 -84 46 -115 53 -134 33 -34 -38 -46 -95 -47 -219 0 -142 18 -210 63
-234 18 -9 33 -5 99 30 102 53 98 60 100 -156 l1 -143 779 0 c735 0 779 1 780
18 1 23 1 313 0 329 -1 7 -37 31 -81 53 -44 22 -80 44 -80 48 0 13 130 73 142
66 6 -4 8 -3 5 2 -3 6 46 36 109 67 63 31 114 60 113 64 0 5 -46 31 -102 58
l-102 51 -1 77 c-1 43 -4 81 -8 85 -9 8 -1545 11 -1551 3z m1525 -109 l5 -83
84 -39 84 -39 -31 -18 c-16 -10 -102 -54 -191 -98 -88 -44 -160 -83 -161 -86
0 -3 47 -30 105 -59 l105 -53 0 -148 0 -149 -747 0 -748 0 -1 139 c-1 201 -21
224 -135 155 -68 -41 -88 -41 -109 1 -20 40 -21 275 -2 322 20 46 38 48 103 9
31 -19 65 -37 76 -40 44 -14 64 33 67 153 1 53 5 101 8 106 4 7 267 10 745 10
l738 0 5 -83z"/>
<path d="M1351 918 c-5 -18 -24 -80 -42 -138 -52 -172 -47 -167 -78 -80 -25
71 -28 75 -58 78 -25 2 -33 -1 -33 -12 0 -10 9 -16 23 -16 19 0 26 -8 37 -42
28 -97 51 -147 64 -142 8 3 20 29 29 57 8 29 31 106 51 172 20 66 39 128 42
138 3 11 0 17 -10 17 -8 0 -19 -15 -25 -32z"/>
<path d="M1624 899 c-50 -14 -69 -43 -69 -104 0 -42 5 -59 23 -78 30 -32 75
-38 118 -16 40 20 43 11 19 -46 -22 -54 -66 -64 -110 -24 -27 24 -52 11 -36
-19 23 -43 87 -55 140 -27 79 40 85 265 8 303 -36 18 -60 21 -93 11z m75 -46
c49 -41 22 -133 -38 -133 -57 0 -87 77 -49 125 23 29 57 32 87 8z"/>
</g>
</svg>
