<?xml version="1.0" standalone="no"?>
<!DOCTYPE svg PUBLIC "-//W3C//DTD SVG 20010904//EN"
 "http://www.w3.org/TR/2001/REC-SVG-20010904/DTD/svg10.dtd">
<svg version="1.0" xmlns="http://www.w3.org/2000/svg"
 width="1454.000000pt" height="233.000000pt" viewBox="0 0 1454.000000 233.000000"
 preserveAspectRatio="xMidYMid meet">
<metadata>
Created by potrace 1.16, written by Peter Selinger 2001-2019
</metadata>
<g transform="translate(0.000000,233.000000) scale(0.100000,-0.100000)"
fill="#000000" stroke="none">
<path d="M786 1691 c-1 -3 -4 -55 -5 -116 -1 -60 -5 -113 -10 -118 -6 -6 -29
2 -58 20 -65 40 -86 46 -116 32 -35 -16 -50 -78 -51 -203 -1 -115 17 -192 45
-201 11 -4 17 -10 14 -15 -9 -15 57 11 108 43 40 24 51 27 58 16 10 -16 10
-25 11 -340 l0 -226 2787 -1 c1532 0 2800 -1 2816 -1 23 -1 1233 -1 1295 -1 8
0 843 1 1855 3 l1840 2 2 65 c1 36 2 70 3 75 2 6 1 15 0 20 -3 11 -2 777 1
785 1 3 0 10 -1 15 -2 6 -3 42 -4 80 l-1 70 -5293 1 c-2911 0 -5294 -2 -5296
-5z m10550 -34 c4 -4 7 -239 8 -522 1 -451 -1 -515 -14 -516 -8 -1 -2376 -2
-5262 -3 -3493 -1 -5248 2 -5249 9 0 6 -1 125 -3 265 -2 328 -6 335 -131 265
-58 -33 -64 -34 -79 -20 -9 9 -16 19 -17 23 0 4 -2 16 -5 27 -2 11 -4 67 -5
125 -1 102 10 157 34 172 6 4 39 -9 72 -28 34 -19 71 -34 81 -34 32 0 46 38
50 135 1 49 3 93 3 97 1 3 9 8 18 10 33 6 10493 1 10499 -5z"/>
<path d="M2450 1438 c0 -62 -4 -119 -9 -127 -8 -12 -18 -9 -58 17 -121 78
-160 46 -170 -138 -6 -110 9 -202 39 -232 26 -26 58 -20 127 23 44 27 54 30
62 18 5 -8 9 -71 9 -141 l0 -128 1000 0 1000 0 0 410 0 410 -1000 0 -1000 0 0
-112z m1957 69 c3 -4 7 -171 7 -372 l1 -365 -25 -1 c-14 0 -448 -1 -966 -2
l-940 -2 -2 119 c-1 96 -4 122 -18 137 -24 26 -38 24 -109 -15 -36 -21 -66
-32 -73 -27 -51 31 -49 335 2 354 7 3 39 -10 70 -29 63 -38 87 -42 107 -18 17
21 19 33 21 134 0 47 4 87 9 90 11 8 1908 5 1916 -3z"/>
<path d="M2894 1276 c-37 -16 -64 -51 -64 -82 0 -14 14 -34 35 -51 31 -26 34
-33 27 -59 -16 -60 8 -100 64 -108 16 -2 22 -1 14 1 -45 14 -43 61 6 152 55
103 146 179 161 135 8 -23 -44 -80 -96 -106 -67 -34 -46 -37 26 -3 56 26 94
73 86 105 -14 53 -107 19 -193 -70 -52 -54 -61 -60 -79 -50 -12 6 -22 15 -22
20 -1 6 -2 16 -3 23 -5 36 37 80 93 97 l26 8 -25 1 c-14 0 -39 -6 -56 -13z"/>
<path d="M3522 1258 c-11 -18 -43 -69 -71 -112 -27 -43 -48 -83 -45 -88 3 -4
36 -8 75 -8 l69 0 0 -35 c0 -28 4 -35 20 -35 16 0 20 7 20 35 0 28 4 35 20 35
11 0 20 7 20 15 0 8 -9 15 -20 15 -19 0 -20 7 -20 105 0 104 0 105 -24 105
-16 0 -30 -10 -44 -32z m25 -175 c-3 -2 -26 -3 -51 -1 l-46 3 48 72 47 72 3
-71 c2 -39 1 -72 -1 -75z"/>
<path d="M3720 1184 c-39 -58 -70 -112 -70 -120 0 -11 17 -14 73 -14 l74 0 -2
-35 c-2 -28 1 -35 16 -35 17 0 26 27 20 63 0 4 10 7 22 7 14 0 24 6 24 15 0 9
-10 15 -23 15 -21 0 -22 4 -22 78 0 133 0 132 -22 132 -15 0 -40 -29 -90 -106z
m74 -17 c-1 -34 -2 -68 -3 -74 -1 -9 -18 -13 -51 -13 l-51 0 51 75 c28 41 52
75 53 75 1 0 1 -28 1 -63z"/>
<path d="M3948 1270 c-45 -35 -58 -153 -25 -231 30 -72 131 -78 171 -10 40 69
20 222 -33 251 -31 16 -86 12 -113 -10z m92 -20 c15 0 34 -64 33 -116 -1 -96
-34 -137 -89 -112 -27 13 -39 55 -37 133 2 74 29 111 71 99 8 -2 17 -4 22 -4z"/>
<path d="M3000 1090 c-11 -11 -20 -32 -19 -47 l1 -28 14 32 c7 17 24 39 36 47
18 13 19 16 5 16 -9 0 -26 -9 -37 -20z"/>
<path d="M3065 1090 c3 -5 8 -10 11 -10 2 0 4 5 4 10 0 6 -5 10 -11 10 -5 0
-7 -4 -4 -10z"/>
<path d="M3068 1040 c-5 -17 -23 -37 -39 -46 -16 -8 -29 -17 -29 -20 0 -3 14
3 32 13 27 15 69 83 53 83 -4 0 -11 -14 -17 -30z"/>
<path d="M5440 1438 c0 -62 -4 -119 -9 -127 -8 -12 -18 -9 -61 17 -98 61 -130
53 -156 -35 -13 -43 -15 -83 -12 -168 8 -189 45 -221 166 -144 67 42 72 33 72
-122 l0 -129 440 0 440 0 0 410 0 410 -440 0 -440 0 0 -112z m840 73 c3 -1 5
-165 5 -366 0 -265 -3 -368 -12 -373 -8 -5 -726 -8 -788 -3 -7 1 -12 40 -12
104 -2 109 -12 154 -39 164 -10 4 -46 -9 -88 -30 -81 -43 -90 -40 -104 35 -12
60 -7 225 7 261 14 35 44 35 93 2 97 -66 126 -41 132 111 2 54 4 99 5 99 110
0 798 -4 801 -4z"/>
<path d="M5818 1270 c-63 -49 -55 -244 11 -280 48 -25 120 0 140 48 31 74 15
198 -30 235 -29 23 -90 22 -121 -3z m109 -39 c14 -18 18 -58 15 -138 -3 -46
-40 -86 -73 -78 -37 9 -52 43 -52 120 0 69 15 111 42 118 23 6 54 -4 68 -22z"/>
<path d="M7320 1436 c0 -138 -6 -147 -71 -107 -119 75 -156 43 -166 -139 -9
-164 25 -259 87 -246 16 3 52 20 80 37 42 26 54 29 61 18 5 -8 9 -71 9 -142
l0 -127 938 2 937 3 0 405 0 405 -937 3 -938 2 0 -114z m1836 71 c11 -11 10
-728 -1 -735 -12 -8 -1795 -9 -1796 -2 0 3 -2 53 -3 111 -1 81 -6 113 -19 133
-23 34 -38 33 -113 -9 -57 -32 -64 -34 -78 -19 -9 8 -16 18 -17 22 0 4 -3 16
-5 27 -10 40 -10 201 0 240 16 67 26 70 100 30 37 -19 75 -35 85 -35 28 0 44
51 46 148 2 80 4 87 24 92 31 7 1770 4 1777 -3z"/>
<path d="M7764 1276 c-36 -16 -64 -51 -64 -81 0 -21 38 -65 55 -65 5 0 1 6 -9
13 -23 17 -24 56 -2 89 16 25 46 41 91 51 13 3 9 5 -10 5 -16 1 -44 -5 -61
-12z"/>
<path d="M7930 1268 c-52 -26 -145 -115 -160 -153 -16 -42 -12 -100 8 -118 9
-8 31 -18 47 -21 26 -6 27 -5 8 3 -13 6 -24 16 -24 23 -7 61 23 119 66 129
105 21 185 114 131 151 -17 12 -28 10 -76 -14z m75 2 c18 -30 -84 -130 -132
-130 l-24 0 30 44 c51 73 109 113 126 86z"/>
<path d="M8337 1279 c-65 -38 -70 -230 -6 -281 24 -21 86 -23 110 -5 38 29 52
68 52 140 0 77 -18 128 -52 147 -25 13 -81 12 -104 -1z m77 -30 c43 -20 55
-158 18 -208 -50 -67 -111 -9 -106 102 3 81 14 101 61 116 1 1 13 -4 27 -10z"/>
<path d="M8713 1267 c-18 -12 -33 -30 -33 -39 0 -22 13 -23 30 -3 29 35 36 17
34 -92 -1 -60 -2 -110 -3 -113 -1 -3 -16 -6 -33 -5 -23 0 -34 -5 -36 -17 -3
-16 6 -18 92 -18 79 0 96 3 96 15 0 8 -6 16 -12 16 -7 1 -17 2 -23 4 -5 1 -17
3 -25 3 -14 2 -16 22 -15 137 1 129 0 135 -20 134 -11 0 -35 -10 -52 -22z"/>
<path d="M7870 1090 c-11 -11 -20 -32 -19 -47 l1 -28 13 31 c21 47 42 61 68
44 20 -12 21 -12 8 3 -18 23 -47 21 -71 -3z"/>
<path d="M7938 1043 c-7 -15 -28 -38 -47 -50 -19 -13 -30 -23 -25 -23 26 0 79
50 87 83 7 25 0 21 -15 -10z"/>
<path d="M8550 1005 c0 -19 5 -25 23 -25 18 0 23 6 23 25 0 19 -5 25 -23 25
-18 0 -23 -6 -23 -25z"/>
<path d="M10199 1453 c-1 -162 -4 -167 -85 -118 -110 67 -145 32 -152 -151 -6
-162 18 -244 73 -244 11 0 48 16 80 35 42 26 61 33 69 25 6 -6 12 -66 14 -140
l4 -130 439 0 439 0 -2 408 -3 407 -437 3 -438 2 -1 -97z m837 54 c11 -11 10
-728 0 -735 -7 -4 -709 -7 -788 -3 -16 1 -18 13 -18 109 0 66 -5 117 -13 132
-13 26 -50 38 -70 22 -7 -5 -33 -21 -59 -35 -58 -32 -77 -22 -89 49 -13 80 -4
240 15 269 18 27 28 26 90 -13 22 -13 53 -25 70 -26 43 -2 56 30 56 140 0 50
2 93 4 95 7 7 795 3 802 -4z"/>
<path d="M10577 1270 c-60 -48 -64 -199 -7 -260 47 -50 124 -37 154 26 18 38
22 147 7 187 -25 65 -102 88 -154 47z m99 -36 c24 -24 26 -30 22 -106 -3 -70
-6 -82 -27 -99 -46 -38 -86 -6 -96 75 -9 68 9 134 38 146 33 13 36 12 63 -16z"/>
<path d="M4832 1268 c0 -53 -1 -56 -27 -62 -33 -8 -58 -59 -57 -114 1 -51 22
-88 58 -104 24 -11 27 -19 26 -70 0 -21 4 -28 19 -28 16 0 19 7 19 44 0 40 3
45 29 54 81 28 81 202 1 219 -28 5 -30 9 -30 49 0 37 -3 44 -19 44 -15 0 -19
-7 -19 -32z m1 -160 c-1 -29 -2 -64 -3 -78 l-1 -25 -20 25 c-17 20 -20 35 -17
78 3 31 11 58 19 62 19 13 24 -1 22 -62z m74 41 c23 -44 9 -121 -23 -133 -11
-4 -14 12 -14 80 0 90 11 105 37 53z"/>
<path d="M1195 1216 c-24 -24 -53 -101 -42 -112 13 -14 35 6 42 38 8 35 22 58
36 58 5 0 20 -38 34 -85 14 -47 33 -92 41 -100 21 -21 50 -19 73 6 20 22 48
106 38 116 -15 14 -35 -9 -46 -52 -18 -71 -40 -58 -71 43 -23 76 -46 112 -72
112 -5 0 -20 -11 -33 -24z"/>
<path d="M9590 1189 l0 -51 -45 4 c-38 3 -45 0 -45 -14 0 -15 9 -18 45 -18
l45 0 0 -45 c0 -37 3 -45 18 -45 15 0 18 7 15 44 l-3 45 45 3 c59 4 62 22 5
28 -47 5 -46 4 -49 73 -1 17 -7 27 -16 27 -11 0 -15 -12 -15 -51z"/>
<path d="M6644 1216 c-5 -12 3 -28 25 -50 17 -17 31 -35 31 -39 0 -4 -14 -20
-31 -37 -21 -20 -29 -35 -25 -46 6 -15 13 -11 46 21 l40 39 38 -37 c30 -29 41
-34 50 -25 9 9 4 20 -25 50 l-37 38 37 38 c29 30 34 41 25 50 -9 9 -20 4 -50
-25 l-38 -37 -40 39 c-34 33 -40 36 -46 21z"/>
<path d="M1770 1213 c1 -5 18 -57 39 -118 40 -115 55 -132 91 -100 10 9 30 43
44 76 33 73 33 142 1 147 -18 2 -20 -2 -17 -37 4 -41 -23 -134 -43 -151 -8 -6
-21 23 -44 90 -26 81 -36 100 -52 100 -10 0 -19 -3 -19 -7z"/>
</g>
</svg>
