<?xml version="1.0" standalone="no"?>
<!DOCTYPE svg PUBLIC "-//W3C//DTD SVG 20010904//EN"
 "http://www.w3.org/TR/2001/REC-SVG-20010904/DTD/svg10.dtd">
<svg version="1.0" xmlns="http://www.w3.org/2000/svg"
 width="1421.000000pt" height="419.000000pt" viewBox="0 0 1421.000000 419.000000"
 preserveAspectRatio="xMidYMid meet">
<metadata>
Created by potrace 1.16, written by Peter Selinger 2001-2019
</metadata>
<g transform="translate(0.000000,419.000000) scale(0.100000,-0.100000)"
fill="#000000" stroke="none">
<path d="M1348 3245 c-26 -6 -55 -18 -65 -26 -56 -44 -85 -80 -103 -127 -19
-51 -20 -74 -17 -800 l2 -747 22 -41 c25 -48 82 -100 132 -123 33 -14 519 -16
5839 -17 4208 -1 5802 2 5802 10 3 201 -1 1089 -4 1095 -3 4 -2025 7 -4494 7
l-4488 -1 1 391 0 391 -952 0 -953 0 -87 -59 c-119 -81 -138 -82 -258 -3 l-90
60 -120 1 c-66 1 -141 -4 -167 -11z m365 -82 c83 -56 92 -60 141 -58 45 2 64
9 141 61 l90 60 920 -2 c506 -1 923 -2 928 -3 4 -1 7 -167 7 -371 l0 -370
-932 0 -933 0 -90 -60 c-122 -81 -142 -81 -267 0 l-92 60 -218 0 -218 0 0 278
c1 295 5 322 51 380 29 37 84 69 134 80 20 4 85 7 144 6 l106 -1 88 -60z m-3
-779 c84 -56 97 -61 144 -59 44 1 62 9 139 60 l87 58 136 1 c75 1 141 -2 146
-5 13 -8 5 -186 -9 -200 -6 -6 -31 3 -68 26 -65 39 -81 42 -112 20 -29 -20
-43 -87 -43 -202 0 -144 24 -213 75 -213 11 0 48 16 80 35 42 26 61 33 69 25
7 -7 11 -99 11 -273 l0 -262 -500 1 c-553 1 -535 -1 -604 66 -68 67 -66 47
-69 535 -3 412 -2 442 14 445 10 2 106 3 215 3 l197 -1 92 -60z m11213 57 c4
-1 7 -235 7 -521 0 -286 -3 -520 -7 -521 -5 -1 -2374 -2 -5266 -3 l-5257 -1 0
258 c0 341 -4 350 -130 283 -35 -19 -69 -32 -76 -29 -37 14 -45 284 -11 337
19 28 25 27 99 -17 89 -53 118 -25 118 119 0 50 2 93 4 95 4 3 10492 3 10519
0z"/>
<path d="M2220 2990 c0 -13 7 -20 20 -20 13 0 20 7 20 20 0 13 -7 20 -20 20
-13 0 -20 -7 -20 -20z"/>
<path d="M1500 2981 c-5 -11 -10 -33 -10 -50 0 -24 4 -31 19 -31 21 0 36 26
20 36 -6 3 -8 19 -5 35 6 33 -8 39 -24 10z"/>
<path d="M1572 2983 c-5 -10 -10 -33 -10 -50 -1 -26 4 -33 18 -33 21 0 34 26
19 36 -6 3 -8 19 -5 35 6 32 -8 39 -22 12z"/>
<path d="M1960 2845 c0 -148 1 -155 20 -155 18 0 20 7 20 63 l0 63 73 -1 c82
-2 97 2 97 21 0 11 -19 14 -85 14 l-86 0 3 57 3 58 75 0 c41 0 81 4 88 8 28
18 -5 27 -104 27 l-104 0 0 -155z"/>
<path d="M3361 2974 c-34 -28 -46 -69 -44 -150 2 -95 47 -142 122 -130 48 7
72 35 78 89 5 41 2 49 -25 77 -35 34 -78 40 -116 14 l-24 -15 8 38 c9 38 40
73 66 73 8 0 23 -9 34 -20 15 -15 25 -18 37 -12 14 9 13 13 -10 36 -35 35 -85
35 -126 0z m89 -124 c38 -20 31 -118 -9 -122 -54 -5 -80 17 -81 66 0 53 44 81
90 56z"/>
<path d="M2220 2810 c0 -113 1 -120 20 -120 19 0 20 7 20 120 0 113 -1 120
-20 120 -19 0 -20 -7 -20 -120z"/>
<path d="M2340 2910 c-26 -26 -33 -59 -28 -127 4 -43 10 -61 28 -75 27 -22 69
-23 96 -3 28 21 33 19 27 -17 -7 -53 -49 -73 -89 -43 -21 16 -54 20 -54 7 0
-5 9 -18 20 -30 30 -31 99 -30 137 2 l27 24 1 138 c0 124 -2 139 -17 142 -13
2 -18 -3 -18 -17 l0 -21 -20 20 c-26 26 -83 27 -110 0z m99 -28 c48 -38 22
-162 -34 -162 -33 0 -55 36 -55 90 0 78 41 111 89 72z"/>
<path d="M2560 2830 c0 -116 13 -140 75 -140 22 0 43 8 55 20 l20 20 0 -20 c0
-13 7 -20 20 -20 19 0 20 7 20 120 0 113 -1 120 -20 120 -14 0 -20 -7 -21 -22
-3 -147 -5 -158 -24 -172 -26 -20 -50 -20 -69 0 -12 12 -16 37 -16 105 0 82
-1 89 -20 89 -19 0 -20 -7 -20 -100z"/>
<path d="M2805 2810 c0 -116 1 -120 21 -120 20 0 22 5 23 81 2 94 12 119 46
119 18 0 25 5 25 20 0 24 -31 27 -53 5 -13 -13 -16 -13 -21 0 -3 8 -13 15 -23
15 -16 0 -18 -12 -18 -120z"/>
<path d="M2979 2902 c-25 -23 -32 -37 -34 -76 -7 -111 77 -171 166 -119 33 20
38 43 9 43 -11 0 -20 -4 -20 -10 0 -5 -16 -12 -35 -16 -42 -8 -75 15 -75 53 0
22 3 23 80 23 74 0 80 2 80 20 0 96 -101 144 -171 82z m103 -14 c9 -7 19 -23
23 -35 6 -22 4 -23 -54 -23 -33 0 -62 4 -65 9 -3 5 4 20 15 35 22 28 55 34 81
14z"/>
<path d="M3577 2721 c-6 -24 0 -31 25 -31 13 0 18 7 18 25 0 31 -35 35 -43 6z"/>
<path d="M1520 1900 c0 -71 2 -130 5 -130 3 0 66 25 139 56 171 71 172 77 21
137 -49 20 -107 43 -127 52 l-38 15 0 -130z m121 39 c41 -17 77 -34 82 -38 4
-4 -29 -22 -74 -40 -44 -18 -82 -31 -84 -30 -8 9 -9 139 -1 139 2 0 37 -14 77
-31z"/>
<path d="M4034 2215 c0 -64 -5 -120 -11 -126 -7 -7 -29 1 -69 25 -67 40 -93
44 -118 17 -28 -30 -37 -80 -37 -196 0 -116 10 -166 37 -196 25 -27 51 -23
118 17 37 22 62 32 68 26 6 -6 11 -69 12 -141 l1 -131 998 0 997 0 0 410 0
410 -997 0 -998 0 -1 -115z m1959 76 c4 -1 6 -168 5 -373 l-3 -372 -958 -1
c-528 0 -960 3 -962 6 -2 3 -5 50 -6 105 -2 116 -17 164 -51 164 -13 0 -50
-16 -82 -36 l-59 -35 -21 21 c-19 19 -21 32 -21 159 0 198 12 213 116 149 51
-31 67 -34 92 -15 19 14 25 47 26 149 1 63 4 77 18 80 14 3 1884 2 1906 -1z"/>
<path d="M4466 2050 c-17 -8 -36 -29 -42 -46 -11 -27 -10 -35 6 -62 11 -18 25
-32 31 -32 6 0 3 7 -5 16 -35 34 -5 102 58 128 28 13 28 14 6 13 -13 -1 -38
-8 -54 -17z"/>
<path d="M4643 2047 c-60 -32 -153 -123 -161 -158 -15 -61 -13 -76 13 -107 18
-22 35 -32 53 -31 l27 1 -25 7 c-14 4 -26 15 -28 25 -6 28 19 105 37 116 9 5
12 10 8 10 -12 0 53 91 87 123 17 15 38 27 47 27 52 0 0 -88 -74 -125 -28 -14
-44 -25 -36 -25 8 0 38 11 66 25 58 29 95 83 77 113 -16 25 -43 25 -91 -1z"/>
<path d="M5060 1964 c-38 -59 -70 -113 -70 -120 0 -11 18 -14 70 -14 72 0 72
0 73 -47 0 -16 6 -23 18 -23 15 0 19 8 19 35 0 31 3 35 25 35 18 0 23 4 19 15
-4 8 -15 15 -25 15 -17 0 -19 9 -19 105 0 98 -1 105 -20 105 -14 0 -40 -30
-90 -106z m74 -26 c-1 -35 -2 -66 -3 -70 0 -5 -24 -8 -51 -8 l-50 0 46 70 c26
39 50 70 54 70 3 0 6 -28 4 -62z"/>
<path d="M5306 1969 c-38 -56 -69 -109 -71 -118 -2 -13 11 -17 69 -21 46 -3
71 -9 72 -17 1 -7 2 -22 3 -33 1 -12 8 -20 19 -20 14 0 18 7 18 33 -1 26 3 33
22 35 27 4 30 32 2 32 -23 0 -22 -3 -24 115 -1 83 -3 90 -22 93 -16 2 -34 -18
-88 -99z m72 -34 l1 -75 -49 0 c-28 0 -50 2 -50 5 0 5 91 145 95 145 1 0 2
-34 3 -75z"/>
<path d="M5533 2052 c-31 -24 -45 -67 -44 -140 1 -103 37 -152 112 -152 53 0
99 70 99 153 0 53 -22 117 -48 137 -31 25 -89 26 -119 2z m90 -21 c28 -3 43
-135 22 -200 -10 -32 -52 -46 -81 -26 -31 20 -38 51 -32 136 6 75 23 101 63
94 11 -2 24 -4 28 -4z"/>
<path d="M4591 1873 c-23 -20 -35 -59 -20 -68 5 -4 9 2 9 12 1 22 18 45 45 61
16 9 17 11 4 12 -9 0 -26 -8 -38 -17z"/>
<path d="M4658 1854 c3 -16 -3 -37 -17 -57 l-22 -32 25 28 c25 27 35 71 17 81
-4 3 -6 -6 -3 -20z"/>
<path d="M4590 1760 c-9 -6 -10 -10 -3 -10 6 0 15 5 18 10 8 12 4 12 -15 0z"/>
<path d="M7027 2323 c-2 -5 -5 -57 -5 -117 -1 -60 -6 -114 -11 -119 -6 -6 -27
1 -58 21 -123 79 -164 39 -166 -162 -1 -120 6 -165 34 -200 27 -35 53 -33 122
10 38 23 62 33 68 27 6 -6 11 -68 12 -139 l2 -129 438 -3 437 -2 0 37 c1 48 1
637 0 721 l0 62 -434 0 c-239 0 -437 -3 -439 -7z m838 -403 l0 -374 -400 0
-400 0 -6 114 c-6 121 -18 160 -48 160 -10 0 -47 -15 -83 -34 -36 -20 -69 -31
-76 -27 -22 14 -32 75 -31 185 2 179 18 198 116 135 91 -57 117 -32 122 118 1
48 4 90 6 93 2 3 182 5 402 4 l398 0 0 -374z"/>
<path d="M7413 2058 c-47 -23 -70 -158 -39 -232 39 -93 159 -85 186 12 24 86
5 183 -41 216 -26 18 -73 20 -106 4z m96 -43 c17 -17 25 -91 17 -150 -12 -79
-78 -98 -112 -33 -12 23 -15 50 -12 101 3 58 8 72 27 88 25 20 54 18 80 -6z"/>
<path d="M8907 2323 c-2 -5 -4 -57 -5 -117 0 -60 -5 -113 -10 -118 -6 -6 -29
3 -61 22 -105 65 -148 39 -160 -99 -4 -45 -4 -116 0 -158 13 -132 57 -157 160
-93 34 20 55 28 61 22 6 -6 11 -66 13 -134 1 -67 3 -126 3 -130 1 -5 423 -8
937 -8 l935 0 0 410 0 410 -934 0 c-514 0 -937 -3 -939 -7z m1830 -36 c10 -6
17 -691 7 -727 -3 -13 -112 -15 -904 -15 l-900 0 -1 100 c0 55 -6 116 -12 135
-11 31 -16 35 -44 34 -18 -1 -44 -11 -60 -21 -15 -11 -42 -25 -59 -31 -29 -9
-33 -8 -45 16 -7 16 -14 73 -15 142 -4 182 20 219 106 165 51 -32 92 -41 107
-23 14 17 22 75 23 160 0 61 2 67 23 70 43 6 1764 1 1774 -5z"/>
<path d="M9375 2063 c-68 -15 -101 -59 -80 -109 7 -17 21 -34 31 -38 17 -6 17
-6 1 12 -35 39 -11 92 57 123 39 18 36 22 -9 12z"/>
<path d="M9505 2041 c-51 -29 -147 -124 -153 -151 -14 -59 -13 -76 8 -103 29
-36 40 -34 33 7 -10 62 106 241 174 267 13 6 14 8 3 8 -8 1 -37 -12 -65 -28z"/>
<path d="M9924 2058 c-12 -5 -27 -22 -34 -37 -18 -39 -24 -130 -11 -178 29
-106 157 -111 191 -8 15 44 11 142 -6 177 -27 52 -87 72 -140 46z m90 -41 c45
-45 30 -198 -21 -218 -52 -20 -84 24 -82 114 1 72 11 100 39 114 34 17 37 16
64 -10z"/>
<path d="M10293 2044 c-18 -14 -33 -32 -33 -40 0 -19 7 -18 39 6 l28 19 -1
-117 -1 -117 -30 -1 c-44 -3 -45 -3 -45 -19 0 -12 17 -15 96 -15 86 0 95 2 92
18 -2 12 -12 17 -36 15 l-32 -2 0 140 c0 138 0 139 -22 139 -13 0 -38 -12 -55
-26z"/>
<path d="M9587 2032 c-7 -36 -51 -80 -102 -103 -22 -10 -33 -19 -25 -19 52 0
150 79 150 120 0 31 -17 32 -23 2z"/>
<path d="M9463 1875 c-24 -17 -34 -47 -22 -66 7 -11 9 -9 9 6 1 24 17 47 45
63 15 8 16 11 5 12 -9 0 -25 -7 -37 -15z"/>
<path d="M9528 1850 c3 -23 -3 -36 -26 -60 -17 -16 -27 -30 -22 -30 4 0 20 14
34 31 25 30 34 73 18 83 -5 3 -6 -8 -4 -24z"/>
<path d="M10139 1803 c0 -5 -2 -16 -4 -25 -2 -13 3 -18 21 -18 19 0 24 5 24
25 0 18 -5 25 -20 25 -11 0 -20 -3 -21 -7z"/>
<path d="M9423 1753 c9 -2 23 -2 30 0 6 3 -1 5 -18 5 -16 0 -22 -2 -12 -5z"/>
<path d="M11787 2323 c-4 -3 -7 -54 -7 -112 0 -137 -4 -143 -67 -103 -98 63
-141 49 -161 -51 -16 -77 -9 -245 13 -290 28 -59 58 -60 148 -4 40 24 51 27
58 16 5 -8 9 -71 9 -141 l0 -128 440 0 440 0 0 410 0 410 -433 0 c-239 0 -437
-3 -440 -7z m836 -32 c4 -1 7 -167 7 -371 0 -289 -3 -370 -12 -371 -48 -4
-798 -3 -799 1 -1 3 -2 53 -3 111 -2 82 -6 113 -19 133 -23 34 -38 33 -113 -9
-34 -19 -65 -35 -69 -35 -3 0 -13 17 -22 38 -19 46 -22 230 -4 284 14 42 30
51 58 35 82 -48 107 -58 129 -53 30 8 37 36 38 144 1 50 6 86 13 90 8 5 757 8
796 3z"/>
<path d="M12174 2061 c-32 -14 -55 -73 -55 -143 -1 -76 11 -108 47 -137 43
-34 107 -24 136 21 36 55 33 184 -5 232 -24 30 -85 43 -123 27z m86 -41 c11
-11 21 -26 21 -32 6 -61 5 -118 -3 -146 -15 -56 -80 -64 -108 -12 -5 10 -10
51 -10 90 0 62 3 74 25 95 29 30 49 31 75 5z"/>
<path d="M6420 2040 c0 -34 -4 -42 -25 -50 -81 -31 -85 -187 -6 -219 28 -12
31 -18 31 -58 0 -37 3 -44 18 -41 13 3 17 13 16 44 -1 36 2 42 26 51 41 15 63
56 63 113 0 57 -22 97 -58 106 -24 6 -27 12 -29 64 -1 15 -8 26 -18 28 -15 3
-18 -4 -18 -38z m0 -167 l0 -87 -22 22 c-37 36 -26 152 13 152 5 0 9 -39 9
-87z m70 68 c17 -33 12 -106 -10 -132 -10 -13 -20 -19 -21 -14 -4 26 -5 141
-1 153 6 18 20 15 32 -7z"/>
<path d="M2792 2013 c-15 -6 -46 -65 -56 -105 -5 -23 -3 -28 13 -28 15 0 23
12 33 48 19 65 39 61 61 -13 31 -103 48 -130 82 -130 24 0 34 7 51 40 29 52
34 89 13 93 -11 2 -19 -11 -30 -45 -21 -71 -44 -69 -64 4 -25 88 -36 112 -59
128 -22 16 -24 16 -44 8z"/>
<path d="M11173 1983 c-1 -64 0 -63 -48 -63 -33 0 -45 -4 -45 -15 0 -11 12
-15 48 -15 l49 0 -2 -45 c-2 -38 0 -45 16 -45 16 0 19 8 19 45 l0 45 45 0 c33
0 45 4 45 15 0 11 -12 15 -45 15 -48 0 -51 5 -45 78 1 16 -4 22 -18 22 -16 0
-19 -7 -19 -37z"/>
<path d="M8352 1974 c-18 -19 -36 -34 -40 -34 -5 0 -21 14 -37 30 -29 30 -55
39 -55 20 0 -6 16 -26 35 -46 l35 -35 -35 -37 c-37 -40 -41 -47 -25 -57 6 -4
26 10 45 31 37 41 40 40 93 -16 19 -20 25 -22 32 -10 7 11 -1 25 -27 52 l-37
38 37 38 c30 30 35 41 25 49 -10 7 -22 1 -46 -23z"/>
<path d="M3394 1880 c39 -113 42 -121 66 -118 20 2 32 17 58 69 47 91 52 169
13 169 -15 0 -18 -9 -18 -53 0 -54 -39 -156 -54 -140 -4 5 -19 50 -35 101 -24
80 -31 92 -50 92 -22 0 -21 -2 20 -120z"/>
</g>
</svg>
