<?xml version="1.0" standalone="no"?>
<!DOCTYPE svg PUBLIC "-//W3C//DTD SVG 20010904//EN"
 "http://www.w3.org/TR/2001/REC-SVG-20010904/DTD/svg10.dtd">
<svg version="1.0" xmlns="http://www.w3.org/2000/svg"
 width="1069.000000pt" height="494.000000pt" viewBox="0 0 1069.000000 494.000000"
 preserveAspectRatio="xMidYMid meet">
<metadata>
Created by potrace 1.16, written by Peter Selinger 2001-2019
</metadata>
<g transform="translate(0.000000,494.000000) scale(0.100000,-0.100000)"
fill="#000000" stroke="none">
<path d="M666 4391 c-2 -3 -4 -55 -5 -116 -1 -60 -6 -114 -11 -119 -6 -6 -29
3 -59 21 -53 34 -99 47 -117 35 -33 -22 -47 -78 -48 -192 -1 -135 14 -201 50
-221 22 -11 32 -9 96 25 82 43 87 41 89 -44 0 -30 1 -788 2 -1685 l2 -1630
697 -1 c384 0 700 -3 704 -6 3 -4 16 -3 28 0 11 4 163 7 336 7 l315 -1 5 390
5 390 180 0 180 1 0 390 c1 215 -1 397 -3 406 -3 13 -28 15 -180 15 l-177 0 0
374 0 374 240 0 240 1 0 405 0 405 -651 1 c-359 1 -658 3 -666 7 -13 4 -15 59
-14 374 1 202 0 375 -2 384 -3 14 -65 16 -618 16 -338 -1 -616 -3 -618 -6z
m1201 -511 c2 -282 -1 -491 -6 -499 -8 -12 -18 -9 -62 18 -69 43 -101 49 -127
23 -56 -56 -56 -338 0 -394 26 -26 58 -20 127 23 28 18 55 29 59 25 11 -11 14
-459 3 -475 -8 -12 -18 -10 -61 17 -131 81 -165 44 -165 -183 0 -104 4 -136
18 -162 29 -54 61 -54 148 0 27 16 53 27 57 23 10 -11 14 -459 3 -475 -7 -11
-22 -6 -75 24 -122 68 -151 32 -151 -185 0 -117 3 -139 20 -168 29 -49 54 -50
131 -7 53 30 68 35 75 24 12 -19 11 -450 0 -468 -8 -12 -18 -10 -59 16 -90 56
-119 55 -148 -5 -25 -52 -30 -238 -9 -310 25 -83 59 -90 155 -30 27 17 54 28
58 24 10 -11 16 -236 5 -237 -30 -4 -1163 -3 -1164 1 -1 3 -2 754 -3 1671 -1
1574 -2 1667 -19 1692 -10 15 -25 27 -33 27 -9 0 -45 -16 -80 -36 -35 -19 -68
-33 -73 -30 -21 13 -35 86 -34 181 0 146 22 199 70 172 67 -39 104 -57 117
-57 31 0 47 45 51 146 2 55 4 99 4 99 1 0 263 0 584 0 l582 0 2 -485z m1338
-668 c0 -242 -3 -373 -10 -375 -5 -2 -102 -2 -215 -1 -113 1 -401 2 -641 3
l-436 1 -1 103 c-1 110 -11 154 -38 164 -10 4 -46 -9 -88 -30 -81 -43 -90 -40
-105 36 -11 60 -6 223 7 259 17 41 30 42 84 8 111 -68 137 -50 140 101 1 52 2
96 4 99 1 3 294 5 651 5 l648 -1 0 -372z m-494 -412 c1 -3 3 -170 4 -372 l1
-368 -406 0 -407 0 -1 103 c-1 110 -11 154 -38 164 -10 4 -45 -8 -87 -30 -38
-20 -74 -34 -79 -31 -42 26 -46 310 -5 351 11 11 24 8 80 -22 36 -19 73 -35
81 -35 33 0 48 45 48 144 0 79 2 95 16 98 27 5 792 3 793 -2z m370 -815 c2
-207 0 -696 -4 -702 -3 -5 -79 -8 -169 -7 -90 1 -353 2 -584 3 l-421 1 -1 111
c0 116 -14 159 -49 159 -9 0 -45 -16 -81 -36 -75 -42 -86 -38 -101 39 -11 61
-6 223 7 259 17 41 30 42 84 8 111 -68 137 -50 140 101 1 52 2 96 4 99 1 3
266 5 588 5 l586 0 1 -40z m-370 -744 c3 0 5 -169 5 -373 l-1 -373 -390 0
c-214 0 -397 1 -405 3 -13 3 -16 23 -18 114 -2 116 -15 158 -49 158 -9 0 -45
-16 -80 -36 -35 -19 -68 -32 -74 -29 -44 28 -48 310 -5 354 14 13 21 11 67
-18 113 -70 138 -51 141 102 1 79 4 97 17 99 14 3 779 2 792 -1z"/>
<path d="M1078 4071 c-22 -17 -48 -78 -48 -110 0 -6 8 -11 19 -11 13 0 20 10
24 36 6 36 22 64 38 64 5 0 20 -38 34 -84 14 -46 34 -91 45 -101 41 -37 89 6
107 95 5 28 3 32 -13 28 -12 -2 -23 -19 -32 -51 -14 -51 -36 -62 -52 -24 -5
12 -16 48 -25 80 -15 54 -43 97 -64 97 -4 0 -19 -9 -33 -19z"/>
<path d="M984 3273 c11 -28 76 -216 76 -220 0 -1 10 -3 23 -3 49 0 123 180 93
228 -4 7 -16 12 -26 12 -16 0 -17 -4 -11 -28 10 -32 -8 -108 -34 -148 l-18
-27 -31 99 c-28 85 -36 99 -56 102 -19 3 -22 0 -16 -15z"/>
<path d="M1082 2558 c1 -51 -1 -58 -17 -58 -9 0 -27 -12 -40 -26 -21 -22 -25
-37 -25 -86 0 -52 4 -63 28 -87 15 -15 33 -30 41 -32 8 -3 14 -21 14 -47 1
-34 4 -42 19 -42 15 0 18 8 18 44 0 39 3 45 31 57 85 34 73 217 -13 219 -15 0
-18 9 -18 45 0 38 -3 45 -20 45 -16 0 -19 -6 -18 -32z m-1 -95 c4 -41 2 -156
-3 -159 -4 -2 -14 6 -22 18 -19 27 -21 100 -4 128 13 20 27 26 29 13z m73 -15
c28 -39 16 -128 -18 -141 -14 -6 -16 5 -16 78 0 88 8 101 34 63z"/>
<path d="M1022 1729 c-10 -11 -5 -21 25 -51 l37 -38 -37 -38 c-29 -30 -34 -41
-25 -50 9 -9 20 -4 50 25 l38 37 40 -39 c33 -32 40 -36 46 -22 4 11 -4 27 -25
46 -17 16 -31 33 -31 37 0 4 14 23 31 40 22 22 30 38 25 50 -6 15 -12 12 -44
-19 -21 -20 -41 -37 -45 -37 -4 0 -21 16 -39 36 -27 28 -35 33 -46 23z"/>
<path d="M1090 921 l0 -51 -45 0 c-33 0 -45 -4 -45 -15 0 -11 12 -15 45 -15
l45 0 0 -46 c0 -38 3 -45 18 -42 13 3 17 13 16 46 l0 42 48 0 c35 0 48 4 48
14 0 11 -14 16 -47 18 l-48 3 0 45 c0 35 -4 45 -17 48 -15 3 -18 -4 -18 -47z"/>
<path d="M2267 3257 c-37 -57 -67 -111 -67 -120 0 -14 12 -17 70 -17 l70 0 0
-35 c0 -28 4 -35 20 -35 16 0 20 7 20 35 0 28 4 35 20 35 11 0 20 7 20 15 0 8
-9 15 -20 15 -19 0 -20 7 -20 105 0 103 -1 105 -23 105 -18 0 -37 -22 -90
-103z m70 -104 c-3 -2 -25 -3 -51 -1 l-46 3 48 74 47 74 3 -73 c2 -40 1 -74
-1 -77z"/>
<path d="M2510 3253 c-39 -59 -70 -113 -70 -120 0 -8 22 -13 73 -15 64 -3 72
-5 73 -23 2 -40 4 -45 18 -45 9 0 16 12 18 33 2 24 8 33 25 35 27 4 20 32 -9
32 -17 0 -19 7 -18 63 3 135 2 147 -20 147 -15 0 -39 -29 -90 -107z m74 -20
c-1 -38 -2 -71 -3 -75 0 -5 -24 -8 -51 -8 l-51 0 51 75 c28 41 52 75 53 75 1
0 2 -30 1 -67z"/>
<path d="M2753 3350 c-12 -5 -30 -24 -39 -42 -21 -40 -24 -150 -5 -195 34 -82
139 -84 177 -4 21 43 23 145 5 190 -23 53 -80 74 -138 51z m73 -28 c36 -24 51
-156 24 -207 -15 -29 -53 -40 -79 -23 -33 20 -46 116 -26 196 7 30 56 51 81
34z"/>
<path d="M2254 2562 c-35 -28 -47 -63 -48 -138 0 -90 23 -135 76 -148 52 -13
96 8 115 53 19 45 21 148 4 189 -24 58 -101 82 -147 44z m97 -29 c14 -14 26
-87 22 -133 -7 -82 -62 -122 -104 -77 -19 21 -22 36 -22 112 1 67 2 74 23 95
20 20 63 21 81 3z"/>
<path d="M2263 1790 c-12 -5 -29 -23 -38 -41 -21 -40 -24 -152 -6 -197 35 -83
154 -80 182 5 16 49 15 144 -1 183 -21 50 -82 72 -137 50z m74 -28 c40 -26 50
-165 15 -212 -34 -45 -83 -31 -99 30 -10 37 -10 102 1 143 8 33 56 56 83 39z"/>
<path d="M2635 1778 c-36 -27 -45 -39 -38 -51 2 -4 16 -1 29 7 13 9 27 16 32
16 4 0 7 -46 6 -102 -2 -138 -1 -131 -25 -125 -27 7 -49 -1 -49 -19 0 -11 20
-14 95 -14 78 0 95 3 95 15 0 13 -31 21 -62 16 -11 -1 -10 -4 -12 144 -1 122
-2 130 -21 132 -11 2 -33 -7 -50 -19z"/>
<path d="M2477 1534 c-4 -4 -7 -16 -7 -26 0 -14 6 -19 23 -16 14 2 22 10 22
23 0 20 -25 32 -38 19z"/>
<path d="M2254 1002 c-12 -9 -27 -28 -34 -41 -16 -32 -17 -151 -1 -189 27 -65
107 -83 154 -36 57 56 53 221 -5 266 -29 22 -87 23 -114 0z m88 -24 c38 -30
44 -162 10 -208 -19 -25 -50 -34 -72 -20 -33 21 -46 156 -19 207 17 31 55 41
81 21z"/>
</g>
</svg>
