<?xml version="1.0" standalone="no"?>
<!DOCTYPE svg PUBLIC "-//W3C//DTD SVG 20010904//EN"
 "http://www.w3.org/TR/2001/REC-SVG-20010904/DTD/svg10.dtd">
<svg version="1.0" xmlns="http://www.w3.org/2000/svg"
 width="1542.000000pt" height="284.000000pt" viewBox="0 0 1542.000000 284.000000"
 preserveAspectRatio="xMidYMid meet">
<metadata>
Created by potrace 1.16, written by Peter Selinger 2001-2019
</metadata>
<g transform="translate(0.000000,284.000000) scale(0.100000,-0.100000)"
fill="#000000" stroke="none">
<path d="M1282 2125 c-3 -5 -7 -77 -7 -160 -1 -153 -6 -189 -28 -198 -7 -2
-42 14 -78 38 -156 101 -209 79 -244 -100 -7 -38 -7 -245 0 -305 7 -61 24
-109 48 -144 18 -26 24 -28 66 -24 32 4 69 20 121 52 41 25 80 46 86 46 23 0
28 -44 29 -250 l1 -205 29 -2 c64 -4 4239 2 4255 6 9 2 4 393 -5 416 -4 11
-11 32 -17 48 -18 46 -57 41 -161 -20 -43 -26 -86 -48 -94 -49 -15 -3 -64 42
-61 55 1 3 -2 29 -7 56 -12 69 -9 282 5 348 13 63 38 92 70 82 12 -4 58 -28
103 -54 96 -55 120 -55 150 2 16 31 19 62 22 202 2 146 0 165 -14 166 -9 1
-972 2 -2139 3 -1424 1 -2126 -2 -2130 -9z m2174 -60 c7 -29 -1 -269 -10 -283
-13 -21 -42 -13 -111 33 -81 53 -124 64 -160 41 -33 -22 -51 -59 -65 -135 -10
-58 -15 -261 -6 -306 2 -11 7 -38 11 -60 11 -61 41 -112 73 -123 35 -12 76 1
152 50 113 72 114 70 117 -174 1 -170 0 -188 -15 -189 -83 -6 -2100 -3 -2108
3 -8 6 -12 63 -12 173 0 90 -3 179 -7 197 -10 43 -31 75 -55 81 -22 6 -83 -21
-142 -61 -118 -80 -153 -26 -152 233 1 184 23 275 66 275 22 0 70 -23 113 -55
17 -13 46 -28 67 -35 31 -12 40 -11 62 3 35 24 47 78 48 221 0 66 2 123 3 126
2 3 481 5 1065 5 1055 0 1061 0 1066 -20z m2059 -126 c0 -196 -4 -201 -115
-131 -84 53 -113 63 -148 51 -69 -24 -92 -114 -88 -334 3 -170 15 -229 58
-275 30 -32 86 -23 168 27 125 76 124 78 128 -169 3 -151 1 -188 -10 -189 -7
0 -458 -2 -1001 -2 -650 -1 -991 1 -995 8 -4 6 -7 88 -8 182 -2 181 -12 233
-46 257 -26 18 -65 7 -132 -37 -110 -71 -134 -69 -161 14 -26 76 -24 353 1
426 10 27 35 53 52 53 8 0 50 -20 93 -46 43 -25 93 -48 112 -51 33 -5 37 -3
57 37 19 36 22 62 25 184 1 77 3 141 4 142 0 0 452 0 1004 0 l1002 -1 0 -146z"/>
<path d="M1656 1903 c-34 -9 -93 -51 -113 -80 -37 -53 -41 -84 -39 -334 1
-266 4 -280 64 -337 59 -55 52 -54 642 -54 611 0 603 -1 658 71 52 66 54 79
50 347 -3 239 -4 251 -26 289 -26 45 -72 81 -123 95 -34 10 -1075 12 -1113 3z
m1100 -47 c40 -11 82 -43 101 -79 13 -27 16 -70 17 -257 1 -124 -2 -241 -7
-262 -11 -47 -59 -95 -106 -107 -21 -6 -263 -9 -573 -8 -527 2 -537 2 -565 23
-15 11 -38 36 -51 55 -23 33 -23 36 -20 289 3 249 4 256 26 285 36 45 61 58
126 64 85 8 1018 5 1052 -3z"/>
<path d="M1790 1702 c0 -23 17 -45 84 -108 l83 -80 -30 -35 c-17 -19 -54 -60
-84 -92 -29 -32 -53 -61 -54 -65 0 -4 -2 -17 -5 -29 l-4 -23 175 0 175 0 0 25
0 25 -135 0 c-74 0 -135 3 -135 8 1 4 32 41 71 82 38 41 72 85 75 97 5 18 -8
36 -65 92 -39 38 -71 72 -71 75 0 3 54 6 120 6 l120 0 0 25 0 25 -160 0 -160
0 0 -28z"/>
<path d="M3826 1895 c-57 -20 -87 -46 -116 -96 -24 -43 -25 -48 -26 -280 -1
-264 6 -308 57 -359 63 -63 55 -62 589 -62 431 -1 489 1 525 16 50 21 98 74
113 124 16 52 16 472 1 527 -15 52 -82 119 -134 134 -64 18 -958 14 -1009 -4z
m986 -39 c41 -8 85 -42 105 -79 13 -26 16 -69 17 -247 2 -296 -6 -329 -89
-369 -38 -19 -65 -20 -515 -19 -442 0 -478 2 -512 19 -20 10 -47 33 -60 51
-22 32 -23 40 -26 278 -3 207 -1 250 13 280 21 46 76 83 134 90 61 7 896 4
933 -4z"/>
<path d="M3946 1742 c-10 -16 12 -34 40 -32 68 5 64 14 64 -140 l0 -140 24 0
24 0 -1 140 -2 140 53 0 c45 0 52 3 52 20 0 19 -7 20 -124 20 -69 0 -127 -4
-130 -8z"/>
</g>
</svg>
