<?xml version="1.0" standalone="no"?>
<!DOCTYPE svg PUBLIC "-//W3C//DTD SVG 20010904//EN"
 "http://www.w3.org/TR/2001/REC-SVG-20010904/DTD/svg10.dtd">
<svg version="1.0" xmlns="http://www.w3.org/2000/svg"
 width="1435.000000pt" height="270.000000pt" viewBox="0 0 1435.000000 270.000000"
 preserveAspectRatio="xMidYMid meet">
<metadata>
Created by potrace 1.16, written by Peter Selinger 2001-2019
</metadata>
<g transform="translate(0.000000,270.000000) scale(0.100000,-0.100000)"
fill="#000000" stroke="none">
<path d="M935 1902 c-3 -3 -5 -53 -5 -111 0 -138 -4 -144 -71 -102 -71 44
-101 49 -128 20 -11 -12 -21 -28 -22 -33 0 -6 -3 -20 -5 -31 -10 -42 -11 -206
-2 -252 6 -26 19 -57 29 -69 11 -11 16 -23 13 -27 -17 -16 74 18 118 45 27 17
52 27 56 23 4 -3 9 -133 12 -288 l5 -282 4668 -1 4667 0 0 556 0 556 -4665 0
c-2566 0 -4667 -2 -4670 -4z m9290 -31 c12 -1 15 -1033 4 -1041 -4 -3 -2090
-5 -4635 -4 l-4629 0 0 267 c-1 244 -3 268 -20 287 -25 27 -37 26 -109 -15
-52 -29 -65 -33 -79 -22 -29 21 -41 171 -23 289 10 69 29 75 100 32 103 -62
127 -43 129 107 1 52 5 96 9 99 5 4 9211 5 9253 1z"/>
<path d="M2600 1648 c0 -62 -4 -119 -9 -127 -8 -12 -18 -9 -61 17 -63 39 -92
47 -119 33 -63 -34 -70 -342 -9 -403 26 -26 58 -20 127 23 28 18 55 29 59 25
4 -4 8 -68 10 -142 l4 -134 684 0 684 0 0 410 0 410 -685 0 -685 0 0 -112z
m1326 70 c6 -4 9 -145 9 -369 l0 -363 -25 -5 c-19 -5 -1185 -6 -1260 -2 -12 1
-15 21 -17 112 -2 116 -16 159 -50 159 -9 0 -45 -16 -81 -36 -55 -31 -66 -34
-78 -22 -21 20 -33 109 -28 209 6 147 25 165 116 109 91 -56 117 -34 121 109
1 55 7 95 14 99 14 8 1265 8 1279 0z"/>
<path d="M3042 1468 c-11 -18 -43 -69 -71 -112 -27 -43 -48 -83 -45 -88 3 -4
36 -8 75 -8 l69 0 0 -35 c0 -28 4 -35 20 -35 16 0 20 7 20 35 0 28 4 35 20 35
11 0 20 7 20 15 0 8 -9 15 -20 15 -19 0 -20 7 -20 105 0 104 0 105 -24 105
-16 0 -30 -10 -44 -32z m25 -175 c-3 -2 -26 -3 -51 -1 l-46 3 48 72 47 72 3
-71 c2 -39 1 -72 -1 -75z"/>
<path d="M3240 1394 c-38 -59 -70 -113 -70 -120 0 -9 21 -14 73 -16 l72 -3 -2
-32 c-1 -27 2 -33 18 -33 18 0 24 15 20 48 -1 6 10 17 24 22 32 12 33 30 1 30
-23 0 -23 1 -23 103 1 97 0 102 -21 105 -17 3 -34 -16 -92 -104z m75 -36 l-1
-63 -52 -3 -52 -3 47 74 c27 40 50 70 53 66 3 -4 5 -36 5 -71z"/>
<path d="M3468 1480 c-30 -23 -45 -76 -42 -148 4 -95 39 -142 106 -142 61 1
96 46 102 134 9 109 -31 176 -102 176 -24 0 -49 -8 -64 -20z m92 -20 c14 0 32
-58 33 -112 3 -105 -48 -157 -101 -105 -21 21 -24 34 -25 95 -1 96 24 139 71
126 8 -2 17 -4 22 -4z"/>
<path d="M4958 1641 c-1 -66 -6 -123 -10 -126 -4 -4 -30 7 -57 24 -98 60 -131
52 -157 -36 -21 -73 -16 -262 9 -310 28 -54 62 -54 149 -1 27 17 52 27 56 23
4 -3 8 -67 10 -141 l4 -134 439 0 439 0 0 410 0 410 -439 0 -439 0 -4 -119z
m832 80 c13 -1 15 -49 16 -371 0 -203 -2 -370 -5 -371 -8 -1 -783 -1 -797 0
-6 1 -11 42 -12 112 -2 168 -22 188 -132 122 -53 -31 -63 -34 -75 -22 -22 21
-32 96 -30 201 5 155 24 175 117 118 92 -57 118 -34 120 113 2 76 5 97 17 99
13 3 743 2 781 -1z"/>
<path d="M5353 1490 c-56 -23 -79 -178 -37 -250 38 -65 125 -67 164 -4 44 70
26 224 -29 254 -23 12 -68 12 -98 0z m78 -30 c28 0 42 -143 20 -199 -20 -47
-77 -50 -101 -6 -17 31 -17 149 0 180 13 25 35 36 58 29 8 -2 18 -4 23 -4z"/>
<path d="M6840 1648 c0 -62 -4 -119 -9 -127 -7 -11 -19 -8 -61 18 -101 62
-139 49 -160 -56 -16 -76 -8 -239 15 -287 28 -58 58 -58 147 -3 41 26 51 28
59 16 5 -8 9 -71 9 -142 l0 -127 623 2 622 3 0 405 0 405 -622 3 -623 2 0
-112z m1211 62 c0 -8 1 -174 2 -369 2 -295 0 -354 -12 -359 -11 -4 -1083 -7
-1151 -3 -12 1 -15 20 -17 99 -1 114 -4 135 -22 156 -19 23 -37 20 -107 -19
-34 -19 -65 -35 -68 -35 -3 0 -13 15 -22 32 -24 46 -24 260 0 306 15 28 19 30
42 21 15 -5 38 -18 53 -28 60 -43 106 -38 117 12 4 18 8 66 8 107 1 41 4 80 8
85 4 6 211 10 587 10 509 0 581 -2 582 -15z"/>
<path d="M7218 1480 c-31 -24 -46 -79 -42 -153 4 -68 26 -114 60 -127 90 -35
146 20 147 142 1 78 -17 129 -52 148 -31 16 -86 12 -113 -10z m92 -20 c20 0
35 -75 31 -157 -2 -47 -39 -86 -73 -78 -35 9 -53 54 -51 129 1 83 27 122 71
110 8 -2 17 -4 22 -4z"/>
<path d="M7603 1477 c-34 -23 -50 -57 -28 -57 8 0 17 4 20 10 3 5 14 14 23 19
16 9 17 0 16 -102 -2 -138 0 -126 -26 -125 -39 2 -48 -2 -48 -17 0 -12 17 -15
96 -15 86 0 95 2 92 18 -2 12 -12 17 -33 16 -17 -1 -32 2 -35 6 -3 5 -5 67 -4
139 1 127 0 131 -20 130 -12 0 -35 -10 -53 -22z"/>
<path d="M7440 1216 c0 -21 5 -26 25 -26 20 0 24 4 21 23 -2 13 -11 23 -24 25
-18 3 -22 -2 -22 -22z"/>
<path d="M9089 1641 c-2 -66 -7 -122 -11 -126 -3 -4 -36 10 -73 30 -121 68
-150 34 -150 -180 0 -124 2 -144 21 -175 17 -30 26 -35 55 -34 20 1 56 15 87
34 29 18 56 30 60 26 4 -4 8 -68 10 -142 l4 -134 439 0 439 0 0 410 0 410
-439 0 -439 0 -3 -119z m837 76 c5 -3 9 -159 9 -368 l0 -363 -25 -5 c-19 -5
-716 -6 -777 -2 -10 1 -13 31 -13 114 0 86 -4 118 -16 135 -20 30 -34 28 -111
-13 -57 -30 -69 -33 -81 -22 -21 21 -29 73 -27 172 3 137 4 144 25 165 l21 21
63 -36 c35 -19 70 -35 79 -35 34 0 47 40 47 142 0 93 1 97 23 100 39 5 774 1
783 -5z"/>
<path d="M9468 1480 c-31 -24 -46 -77 -42 -152 5 -102 54 -152 132 -132 46 12
71 52 76 127 9 110 -30 177 -102 177 -24 0 -49 -8 -64 -20z m92 -20 c28 0 43
-143 20 -199 -24 -60 -96 -45 -107 23 -20 115 9 196 65 180 8 -2 17 -4 22 -4z"/>
<path d="M4352 1478 c0 -53 -1 -56 -27 -62 -32 -8 -57 -57 -57 -113 0 -51 20
-86 60 -107 25 -13 28 -19 25 -55 -3 -35 0 -41 17 -41 17 0 20 7 20 44 0 40 3
45 29 54 79 28 82 180 5 217 -30 14 -34 20 -34 55 0 33 -4 40 -19 40 -15 0
-19 -7 -19 -32z m2 -167 c-1 -20 -3 -49 -3 -66 l-2 -30 -19 24 c-26 31 -28
112 -3 137 17 16 18 16 23 -6 3 -13 5 -39 4 -59z m70 57 c28 -39 14 -129 -20
-142 -11 -4 -14 12 -14 79 0 88 8 101 34 63z"/>
<path d="M1347 1432 c-19 -21 -47 -85 -47 -107 0 -8 9 -15 20 -15 13 0 20 7
20 20 0 26 27 80 40 80 5 0 21 -38 35 -85 14 -47 33 -92 41 -100 36 -36 83 -4
104 71 7 25 11 47 8 50 -14 13 -35 -11 -46 -52 -19 -70 -41 -57 -72 44 -31
104 -66 135 -103 94z"/>
<path d="M8480 1400 l0 -50 -45 0 c-33 0 -45 -4 -45 -15 0 -11 12 -15 45 -15
l45 0 0 -46 c0 -38 3 -45 17 -42 14 2 18 13 18 46 l0 42 47 0 c36 0 48 4 48
15 0 10 -11 15 -32 16 -63 2 -63 3 -64 39 -2 55 -3 60 -19 60 -11 0 -15 -12
-15 -50z"/>
<path d="M6164 1426 c-5 -13 4 -28 28 -53 l36 -35 -39 -38 c-29 -28 -35 -40
-27 -48 9 -9 21 -3 50 25 l38 37 38 -37 c30 -29 41 -34 50 -25 9 9 4 20 -25
50 l-37 38 37 38 c29 30 34 41 25 50 -9 9 -20 4 -50 -25 l-38 -37 -40 39 c-34
33 -40 36 -46 21z"/>
<path d="M1920 1425 c0 -5 63 -188 75 -217 4 -10 15 -18 25 -18 63 0 136 229
75 238 -18 2 -20 -3 -21 -60 0 -48 -6 -73 -24 -102 l-24 -39 -34 101 c-27 82
-37 102 -53 102 -10 0 -19 -2 -19 -5z"/>
<path d="M13753 465 c0 -8 4 -12 9 -9 5 3 6 10 3 15 -9 13 -12 11 -12 -6z"/>
</g>
</svg>
