<?xml version="1.0" standalone="no"?>
<!DOCTYPE svg PUBLIC "-//W3C//DTD SVG 20010904//EN"
 "http://www.w3.org/TR/2001/REC-SVG-20010904/DTD/svg10.dtd">
<svg version="1.0" xmlns="http://www.w3.org/2000/svg"
 width="1169.000000pt" height="227.000000pt" viewBox="0 0 1169.000000 227.000000"
 preserveAspectRatio="xMidYMid meet">
<metadata>
Created by potrace 1.16, written by Peter Selinger 2001-2019
</metadata>
<g transform="translate(0.000000,227.000000) scale(0.100000,-0.100000)"
fill="#000000" stroke="none">
<path d="M2020 1715 c0 -6 -69 -10 -187 -9 l-188 1 -88 -59 c-121 -81 -144
-81 -263 -2 l-87 59 -131 -1 c-160 -1 -201 -11 -258 -67 -84 -82 -83 -73 -83
-487 l0 -365 30 -54 c30 -54 63 -85 125 -116 27 -14 64 -19 166 -20 142 -3
137 -1 252 -76 68 -45 79 -49 123 -46 38 3 65 15 117 49 37 25 78 51 92 58 20
11 187 14 898 14 575 1 872 -2 872 -9 0 -7 3 -7 8 0 9 13 305 13 314 0 5 -7 8
-7 8 0 0 7 324 10 952 10 l953 0 2 552 c1 506 0 553 -15 557 -10 2 -176 3
-370 3 -229 -1 -352 1 -352 8 0 7 -3 7 -8 0 -4 -6 -175 -10 -477 -10 -302 0
-473 4 -477 10 -5 7 -8 7 -8 0 0 -7 -165 -10 -475 -10 -310 0 -475 3 -475 10
0 7 -3 7 -8 0 -4 -6 -175 -10 -477 -10 -302 0 -473 4 -477 10 -5 7 -8 7 -8 0z
m-734 -102 c79 -53 94 -60 139 -60 45 1 60 7 140 61 l90 61 1970 -2 c1084 -1
1975 -2 1980 -2 12 -1 14 -1025 2 -1037 -4 -4 -897 -8 -1986 -8 l-1978 -1 -88
-59 c-121 -80 -142 -80 -261 0 l-89 59 -136 1 c-116 1 -141 5 -176 22 -58 30
-109 93 -120 150 -5 26 -8 196 -8 377 1 361 1 361 64 428 54 59 109 73 271 71
l97 -1 89 -60z"/>
<path d="M1980 1558 c-1 -2 -2 -54 -4 -116 -1 -66 -7 -117 -14 -124 -8 -8 -23
-2 -59 21 -81 54 -114 53 -142 -5 -34 -67 -29 -305 7 -353 28 -38 59 -37 126
4 41 24 63 32 70 25 5 -5 11 -65 12 -133 2 -67 3 -125 3 -129 1 -5 269 -8 596
-8 l595 0 0 93 c1 99 1 433 0 615 l0 112 -595 0 c-327 0 -595 -1 -595 -2z
m1148 -37 c9 -1 12 -82 12 -371 0 -345 -1 -370 -17 -371 -56 -3 -1090 -4
-1100 -1 -9 3 -13 33 -13 103 0 110 -16 169 -47 169 -10 -1 -47 -16 -82 -35
-35 -18 -69 -31 -76 -29 -23 9 -35 79 -32 201 2 110 4 125 24 144 l21 22 61
-37 c35 -22 71 -36 83 -34 32 4 47 54 47 154 1 44 3 83 5 85 4 3 1070 3 1114
0z"/>
<path d="M2196 1405 c-71 -38 -85 -80 -84 -265 0 -171 12 -206 85 -244 28 -14
78 -16 379 -16 333 0 348 1 384 21 68 38 75 62 75 250 0 159 -1 167 -24 201
-45 65 -31 63 -426 66 -308 2 -364 0 -389 -13z m728 -55 c14 -5 30 -19 37 -32
15 -28 20 -279 6 -321 -18 -54 -35 -57 -391 -57 -181 0 -336 4 -350 10 -42 16
-50 44 -51 190 -2 145 4 175 38 202 20 16 55 18 354 18 186 0 343 -4 357 -10z"/>
<path d="M2322 1198 c59 -80 59 -82 34 -119 -62 -93 -61 -89 -37 -89 15 0 30
14 49 45 15 24 30 45 34 45 3 0 18 -20 32 -45 17 -29 34 -45 46 -45 27 0 25 9
-15 66 -19 27 -35 53 -35 57 0 4 16 31 35 60 35 51 35 52 13 55 -12 2 -24 0
-25 -5 -2 -4 -14 -25 -26 -47 l-24 -38 -29 46 c-21 33 -35 46 -53 46 l-23 0
24 -32z"/>
<path d="M4179 1553 c-1 -5 -2 -57 -3 -116 -2 -60 -8 -113 -14 -119 -7 -7 -27
0 -69 26 -66 40 -92 44 -117 17 -27 -30 -37 -80 -37 -196 0 -115 9 -165 37
-196 25 -27 51 -23 118 17 40 24 62 32 69 25 6 -6 11 -65 13 -133 1 -68 2
-126 3 -131 0 -4 263 -6 584 -5 l582 3 3 408 2 407 -585 0 c-322 0 -585 -3
-586 -7z m1131 -32 c4 -1 5 -724 1 -741 0 -3 -247 -5 -549 -4 l-547 0 -6 115
c-3 63 -9 122 -14 132 -13 31 -48 30 -103 -2 -50 -29 -65 -35 -88 -32 -39 4
-47 299 -10 340 20 22 30 20 97 -21 52 -31 67 -34 93 -15 15 11 20 32 23 113
2 54 6 104 7 109 2 7 192 9 547 8 299 0 546 -1 549 -2z"/>
<path d="M4399 1387 c-61 -30 -72 -65 -72 -242 0 -168 7 -195 67 -231 28 -17
58 -18 361 -19 362 0 378 2 417 58 20 28 23 45 25 184 3 172 -6 206 -59 245
-33 23 -33 23 -367 23 -306 1 -338 -1 -372 -18z m678 -16 c13 0 37 -14 55 -30
l32 -28 1 -153 c0 -88 -4 -161 -10 -173 -6 -12 -24 -31 -40 -42 -29 -19 -45
-20 -350 -19 -176 0 -330 4 -342 8 -12 4 -32 20 -43 37 -20 27 -21 40 -18 188
3 175 9 193 70 209 22 5 543 8 645 3z"/>
<path d="M4580 1158 c-49 -32 -82 -100 -68 -138 5 -16 18 -32 29 -35 30 -10
75 4 95 28 l19 21 -27 -17 c-34 -21 -64 -22 -76 -1 -16 28 -2 52 33 58 50 10
87 43 83 75 -4 35 -43 39 -88 9z m60 -5 c0 -23 -9 -35 -40 -56 -49 -34 -56 -6
-11 42 32 35 51 40 51 14z"/>
<path d="M1080 1150 c0 -153 1 -160 20 -160 19 0 20 7 20 160 0 153 -1 160
-20 160 -19 0 -20 -7 -20 -160z"/>
<path d="M1437 1273 c-4 -3 -7 -15 -7 -25 0 -10 -7 -18 -15 -18 -18 0 -20 -27
-3 -32 8 -3 13 -34 13 -97 2 -100 7 -111 58 -111 21 0 27 5 27 21 0 11 -4 17
-10 14 -25 -15 -36 15 -34 87 2 94 1 88 24 88 11 0 20 7 20 15 0 9 -10 15 -26
15 -14 0 -23 4 -20 9 7 11 -3 41 -13 41 -4 0 -11 -3 -14 -7z"/>
<path d="M1205 1207 c-31 -26 -44 -76 -34 -132 10 -53 47 -85 100 -85 43 0 89
24 89 46 0 18 -20 17 -44 -1 -41 -31 -106 -3 -106 45 0 18 7 20 81 20 l82 0
-6 42 c-11 81 -101 118 -162 65z m105 -27 c37 -37 26 -50 -40 -50 -47 0 -60 3
-60 15 0 22 37 55 60 55 11 0 29 -9 40 -20z"/>
<path d="M3498 1212 c-19 -2 -25 -8 -21 -18 8 -21 213 -21 213 1 0 8 -7 15
-15 16 -50 3 -154 4 -177 1z"/>
<path d="M3498 1102 c-9 -2 -19 -10 -22 -18 -4 -12 13 -14 104 -14 91 0 110 3
110 15 0 8 -8 15 -17 16 -130 3 -162 4 -175 1z"/>
</g>
</svg>
