<?xml version="1.0" standalone="no"?>
<!DOCTYPE svg PUBLIC "-//W3C//DTD SVG 20010904//EN"
 "http://www.w3.org/TR/2001/REC-SVG-20010904/DTD/svg10.dtd">
<svg version="1.0" xmlns="http://www.w3.org/2000/svg"
 width="1454.000000pt" height="602.000000pt" viewBox="0 0 1454.000000 602.000000"
 preserveAspectRatio="xMidYMid meet">
<metadata>
Created by potrace 1.16, written by Peter Selinger 2001-2019
</metadata>
<g transform="translate(0.000000,602.000000) scale(0.100000,-0.100000)"
fill="#000000" stroke="none">
<path d="M1945 5740 l-770 -5 -86 -57 c-113 -76 -138 -76 -261 5 l-87 57 -130
0 c-119 0 -135 -2 -184 -26 -65 -30 -101 -66 -132 -130 l-23 -48 -1 -2488 c-1
-2151 1 -2493 13 -2523 8 -19 13 -35 10 -35 -7 0 49 -74 63 -83 7 -4 18 -13
25 -20 20 -20 88 -43 133 -46 22 -1 83 -3 135 -4 l95 -2 85 -57 c75 -52 90
-58 135 -58 44 0 60 7 140 60 l90 60 2593 0 c1427 0 2597 2 2601 4 3 2 6 117
6 255 0 163 3 251 10 251 7 0 6 3 0 8 -14 9 -14 225 0 234 6 5 6 8 -2 8 -7 0
-10 10 -7 25 l4 25 -656 0 -656 0 63 42 64 43 615 2 c338 0 1556 2 2706 2
l2091 1 1 555 0 555 -402 0 -402 0 1 33 c0 17 5 38 9 46 6 8 5 12 0 8 -6 -3
-9 194 -9 494 l0 499 -2296 0 -2297 0 1 370 c0 204 -2 372 -5 375 -3 3 -358 5
-789 5 l-784 0 0 390 1 390 -183 0 -183 0 0 390 0 389 -287 3 c-159 2 -634 1
-1058 -2z m-1120 -90 l90 -60 -190 0 c-209 0 -238 -7 -279 -63 -19 -26 -21
-43 -22 -183 -1 -175 6 -202 65 -241 34 -23 37 -23 381 -23 344 0 347 0 381
23 59 39 67 67 65 240 -1 127 -5 158 -19 180 -32 50 -63 62 -174 67 l-103 5
86 58 86 57 610 -2 611 -3 0 -65 c-2 -123 -3 -131 -18 -136 -9 -4 -34 6 -57
21 -48 32 -109 44 -125 24 -46 -59 -52 -318 -8 -385 26 -40 57 -36 152 21 24
14 36 16 44 8 9 -9 14 -116 10 -210 l-1 -23 -615 0 -616 0 -89 -60 c-119 -80
-137 -80 -254 0 l-88 60 -221 2 -222 3 -1 280 c-1 269 0 282 21 330 23 53 69
99 120 121 20 9 75 13 160 13 l130 0 90 -59z m2435 -315 l0 -375 -407 0 -408
0 0 98 c1 194 -20 210 -162 122 -53 -33 -75 15 -75 165 0 119 9 163 34 179 17
11 28 6 102 -38 74 -45 98 -15 102 124 1 52 3 96 3 98 1 1 183 2 406 2 l405 0
0 -375z m-2029 209 c47 -24 57 -61 55 -220 -1 -153 -11 -185 -62 -204 -34 -13
-675 -13 -708 0 -53 20 -63 55 -62 218 1 159 10 192 59 212 12 5 172 9 355 9
284 1 337 -1 363 -15z m-406 -674 c80 -53 96 -60 140 -60 44 0 60 7 139 60
l90 60 608 0 608 0 0 -100 c0 -118 -6 -125 -71 -85 -23 15 -59 30 -79 32 -31
4 -39 1 -53 -20 -22 -35 -36 -126 -32 -218 8 -176 46 -213 156 -148 28 16 58
28 65 25 12 -5 14 -329 14 -2026 l0 -2020 -612 0 -613 0 -90 -60 c-120 -80
-140 -80 -255 -2 l-85 57 -145 5 c-135 5 -148 7 -191 32 -59 35 -105 103 -113
166 -3 26 -5 1018 -5 2205 l1 2157 217 0 216 0 90 -60z m2799 -345 c-2 -594
-2 -575 -19 -581 -8 -3 -38 8 -66 26 -70 43 -107 39 -133 -14 -29 -59 -29
-273 -1 -331 27 -54 63 -58 133 -16 56 35 67 37 76 15 5 -12 10 -2503 6 -3171
l0 -83 -585 0 c-322 0 -586 3 -586 8 -1 4 -2 909 -3 2012 -1 1103 -6 2015 -10
2028 -14 42 -44 43 -118 3 -60 -32 -69 -34 -82 -21 -32 32 -41 260 -14 318 19
38 38 38 102 -1 96 -58 119 -35 120 116 l1 97 590 -2 590 -3 -1 -400z m1577
-472 c0 -92 0 -563 -1 -609 0 -15 -24 -37 -85 -77 -114 -76 -131 -76 -250 3
l-90 60 -131 0 c-93 0 -144 -5 -175 -15 -51 -18 -112 -73 -142 -130 l-22 -40
0 -971 0 -971 30 -48 c35 -57 100 -110 153 -125 22 -6 173 -10 375 -10 l337 0
0 -92 c0 -127 -4 -131 -82 -89 -80 42 -106 39 -133 -14 -29 -59 -29 -271 0
-330 27 -53 58 -57 131 -15 31 17 62 29 70 26 11 -4 14 -31 14 -121 l0 -115
-773 0 -772 0 1 1618 c0 1538 -1 1619 -18 1654 -21 44 -33 44 -114 -2 -61 -35
-79 -34 -95 7 -14 36 -14 250 0 286 16 41 35 42 94 9 29 -17 64 -32 77 -34 35
-5 52 38 55 141 2 47 3 89 4 94 1 4 348 7 771 7 l770 0 1 -97z m-347 -713 c80
-53 95 -60 139 -60 44 0 60 7 139 60 l89 60 2287 0 2287 0 0 -522 -1 -523
-2292 -3 -2293 -2 -89 -60 c-119 -80 -135 -80 -255 0 l-90 60 -222 0 -222 0 1
434 c0 408 1 437 20 477 26 59 54 87 111 114 42 20 66 23 175 24 l127 1 89
-60z m1 -1080 c78 -52 96 -60 138 -60 42 0 60 8 140 60 l92 60 608 0 c571 0
607 -1 608 -17 1 -34 1 -89 0 -136 -1 -61 -18 -68 -73 -32 -22 15 -58 30 -79
32 -31 5 -39 2 -52 -18 -23 -36 -36 -124 -31 -218 9 -189 45 -220 167 -144 51
32 67 25 68 -29 1 -55 1 -447 0 -470 -1 -17 -37 -18 -613 -18 l-613 0 -91 -59
c-120 -78 -144 -78 -267 2 l-86 56 -128 2 c-76 1 -142 7 -165 15 -53 18 -103
67 -127 125 -19 48 -20 69 -21 479 l0 430 217 0 218 -1 90 -59z m5741 -462
l-1 -523 -2060 -3 -2060 -2 0 250 c0 137 -3 263 -8 279 -13 51 -35 54 -108 16
-35 -19 -72 -34 -81 -35 -27 0 -41 64 -41 185 0 116 13 167 44 173 8 1 42 -13
74 -33 67 -40 65 -39 89 -22 23 17 32 65 31 160 l-1 77 2062 0 2061 0 -1 -522z
m-6225 -474 c34 -36 97 -71 144 -80 22 -4 87 -8 145 -8 105 -1 105 -1 169 -41
l65 -40 -179 -3 c-210 -3 -255 7 -315 70 -35 36 -79 128 -61 128 4 0 18 -12
32 -26z m1994 -581 l0 -373 -566 0 -566 0 0 111 c-1 111 -11 152 -39 163 -7 3
-44 -11 -82 -31 -39 -20 -77 -33 -85 -30 -23 9 -36 91 -32 202 5 149 29 182
95 135 41 -29 94 -50 107 -42 24 16 34 59 35 148 l1 94 566 -2 566 -3 0 -372z"/>
<path d="M1496 5375 c-8 -22 3 -43 22 -41 10 2 18 14 20 29 3 21 -1 27 -16 27
-11 0 -22 -7 -26 -15z"/>
<path d="M1570 5361 c0 -17 10 -18 137 -17 121 1 136 3 139 19 2 15 -10 17
-137 17 -129 0 -139 -1 -139 -19z"/>
<path d="M1499 5298 c-11 -38 -7 -48 16 -48 20 0 25 5 25 25 0 18 -5 25 -20
25 -11 0 -20 -1 -21 -2z"/>
<path d="M1622 5292 c-44 -3 -53 -6 -50 -20 3 -15 19 -17 138 -17 124 0 135 2
135 19 0 16 -10 18 -85 19 -47 1 -109 1 -138 -1z"/>
<path d="M2807 5465 c-20 -14 -37 -32 -37 -40 0 -20 6 -19 41 6 l29 20 0 -119
0 -119 -27 -1 c-48 0 -53 -2 -53 -17 0 -12 18 -15 99 -15 92 0 99 1 94 19 -4
14 -12 17 -39 14 l-34 -3 0 140 c0 159 -2 162 -73 115z"/>
<path d="M606 5408 c4 -7 20 -32 36 -55 15 -23 28 -45 28 -50 0 -5 -16 -32
-35 -60 -40 -60 -41 -63 -17 -63 9 0 29 20 45 45 16 25 32 45 35 45 4 0 19
-21 34 -45 18 -30 34 -45 48 -45 24 0 24 -1 -27 74 -18 26 -30 53 -26 60 3 6
19 30 35 53 33 49 34 53 11 53 -10 0 -31 -20 -47 -46 l-29 -46 -30 46 c-18 29
-37 46 -49 46 -13 0 -17 -4 -12 -12z"/>
<path d="M499 2888 c-62 -27 -73 -60 -75 -228 -3 -174 9 -215 73 -246 36 -18
62 -19 379 -19 334 1 340 1 376 23 56 35 66 72 64 242 -2 163 -13 197 -69 227
-28 15 -71 17 -371 18 -298 0 -344 -2 -377 -17z m716 -22 c58 -14 68 -43 71
-205 2 -167 -7 -201 -59 -222 -24 -10 -98 -14 -284 -14 -248 0 -270 2 -244 31
9 10 101 251 101 265 0 5 -8 9 -18 9 -14 0 -25 -20 -47 -90 -26 -80 -45 -113
-45 -77 0 6 -13 46 -29 87 -23 59 -34 76 -52 78 -15 3 -20 0 -16 -10 92 -230
95 -243 53 -277 -21 -17 -108 -19 -139 -2 -47 25 -55 61 -54 222 2 113 5 150
17 165 18 23 39 37 64 44 29 8 647 5 681 -4z"/>
<path d="M1499 2698 c-8 -29 -6 -47 7 -52 22 -9 34 1 34 30 0 17 -5 24 -20 24
-11 0 -20 -1 -21 -2z"/>
<path d="M1570 2671 c0 -18 8 -19 133 -18 122 1 146 6 147 30 0 4 -63 7 -140
7 -131 0 -140 -1 -140 -19z"/>
<path d="M1494 2588 c2 -44 46 -45 46 -2 0 19 -5 24 -24 24 -18 0 -23 -5 -22
-22z"/>
<path d="M1642 2602 c-63 -2 -73 -5 -70 -20 3 -15 19 -17 138 -17 113 0 135 3
135 15 0 18 -85 27 -203 22z"/>
<path d="M2790 4585 c-48 -49 -49 -45 16 -111 22 -22 35 -29 42 -22 6 6 8 17
5 24 -4 11 16 14 106 14 84 0 111 3 111 13 0 10 -28 13 -121 12 -120 -1 -160
8 -145 33 5 8 50 12 137 12 100 0 129 3 129 13 0 10 -23 13 -97 12 -103 -1
-126 2 -118 15 3 4 -1 13 -8 19 -10 8 -24 0 -57 -34z"/>
<path d="M2760 2410 c0 -5 9 -14 21 -20 11 -7 27 -27 35 -46 14 -34 13 -38
-31 -131 -25 -53 -45 -100 -45 -104 0 -5 9 -9 20 -9 11 0 20 4 20 9 0 4 15 42
33 82 l34 74 29 -83 c25 -70 32 -82 52 -82 18 0 20 3 13 18 -6 9 -31 73 -56
142 -25 68 -53 132 -62 142 -17 19 -63 25 -63 8z"/>
<path d="M3970 3926 c0 -7 9 -16 20 -19 11 -3 27 -21 35 -41 15 -36 15 -38
-34 -141 -49 -104 -49 -105 -25 -105 13 0 24 4 24 9 0 4 15 41 33 82 l34 73
29 -82 c21 -61 33 -82 46 -82 10 0 18 4 18 9 0 21 -102 277 -117 293 -19 21
-63 24 -63 4z"/>
<path d="M3962 3193 c2 -10 10 -18 18 -18 8 0 16 8 18 18 2 12 -3 17 -18 17
-15 0 -20 -5 -18 -17z"/>
<path d="M3967 3114 c-14 -15 -6 -34 14 -34 14 0 19 5 17 17 -3 18 -20 27 -31
17z"/>
<path d="M3962 2993 c2 -10 10 -18 18 -18 8 0 16 8 18 18 2 12 -3 17 -18 17
-15 0 -20 -5 -18 -17z"/>
<path d="M3962 2893 c2 -10 10 -18 18 -18 8 0 16 8 18 18 2 12 -3 17 -18 17
-15 0 -20 -5 -18 -17z"/>
<path d="M4057 685 l-28 -25 28 -25 c34 -30 47 -32 33 -5 -10 19 -8 20 95 20
63 0 105 4 105 10 0 6 -42 10 -105 10 -103 0 -105 1 -95 20 14 27 1 25 -33 -5z"/>
<path d="M5549 3278 c-1 -2 -3 -48 -4 -103 -4 -138 -3 -135 -20 -135 -8 0 -37
14 -63 30 -112 68 -155 17 -154 -181 0 -94 14 -172 34 -196 18 -22 71 -14 118
17 78 52 83 45 86 -110 1 -63 2 -118 3 -122 0 -5 269 -8 596 -8 l595 0 0 405
0 405 -595 0 c-327 0 -596 -1 -596 -2z m1161 -403 l0 -375 -567 0 -568 0 0
113 c-1 166 -22 190 -115 132 -102 -64 -123 -36 -122 161 1 100 19 164 47 164
10 0 43 -16 75 -36 47 -29 62 -34 78 -25 32 17 39 51 41 209 l1 32 565 0 565
0 0 -375z"/>
<path d="M5763 3111 c-56 -35 -64 -64 -65 -235 -2 -174 7 -203 72 -237 32 -17
62 -19 373 -19 370 0 381 2 422 58 18 24 20 46 23 184 4 173 -4 205 -56 243
-26 19 -45 20 -382 23 -338 2 -356 1 -387 -17z m759 -40 l33 -29 0 -167 0
-167 -33 -29 -32 -29 -340 0 c-235 0 -347 4 -364 12 -51 23 -58 48 -58 204 0
142 5 178 26 199 32 33 54 34 393 35 l343 0 32 -29z"/>
<path d="M5903 2913 c18 -27 37 -53 40 -59 4 -7 -8 -34 -26 -60 -51 -74 -50
-74 -27 -74 14 0 29 15 48 45 15 25 30 45 34 45 3 0 19 -20 35 -45 16 -25 36
-45 46 -45 23 0 22 3 -18 63 -19 28 -35 57 -35 62 0 6 12 27 26 46 44 59 47
69 24 69 -13 0 -30 -16 -49 -47 l-29 -47 -29 47 c-20 35 -34 47 -51 47 -23 0
-23 -1 11 -47z"/>
<path d="M7747 3273 c-2 -5 -4 -49 -3 -100 2 -97 -5 -133 -26 -133 -7 0 -33
14 -58 30 -60 40 -104 40 -124 1 -22 -41 -33 -124 -29 -211 8 -176 46 -213
153 -150 28 17 57 30 65 30 16 0 16 -2 20 -160 1 -47 2 -91 3 -97 2 -10 187
-13 891 -13 l889 0 0 405 1 405 -889 0 c-489 0 -891 -3 -893 -7z m1744 -35 c1
-17 1 -709 0 -725 -1 -8 -218 -11 -856 -11 -470 0 -855 3 -856 7 0 3 -2 58 -4
121 -3 103 -5 116 -24 132 -24 19 -51 13 -100 -22 -38 -26 -77 -35 -87 -19
-28 46 -36 217 -14 301 13 48 34 57 74 33 132 -79 147 -68 152 100 1 50 2 91
3 93 1 1 386 2 856 2 677 0 855 -3 856 -12z"/>
<path d="M7963 3110 c-57 -34 -66 -66 -66 -236 0 -132 3 -157 19 -186 41 -70
17 -68 719 -68 704 0 678 -2 719 70 18 31 21 52 20 186 0 131 -3 155 -20 185
-41 71 -16 69 -724 69 -612 0 -636 -1 -667 -20z m1327 -25 c46 -24 52 -46 54
-202 2 -160 -6 -193 -55 -219 -41 -21 -1266 -21 -1307 0 -47 24 -55 54 -56
199 -1 156 7 193 49 218 28 18 64 19 658 19 541 0 632 -2 657 -15z"/>
<path d="M8135 3018 c-41 -22 -61 -68 -29 -68 9 0 24 10 33 22 36 44 101 24
101 -31 0 -19 -17 -42 -64 -86 -70 -66 -101 -109 -91 -125 8 -14 192 -13 200
1 12 18 -1 21 -80 22 -41 1 -75 4 -75 8 0 5 27 32 61 61 94 82 113 137 63 183
-29 27 -83 33 -119 13z"/>
<path d="M8346 2953 c-3 -4 10 -24 31 -45 l37 -38 -37 -38 c-27 -27 -34 -41
-27 -52 8 -12 16 -8 45 23 19 20 39 37 43 37 4 0 23 -16 42 -35 23 -23 37 -32
44 -25 7 7 -3 23 -28 49 l-38 39 36 38 c50 53 30 72 -22 21 l-38 -37 -32 35
c-33 35 -43 41 -56 28z"/>
<path d="M8580 2941 c0 -14 6 -17 25 -13 27 5 28 3 25 -67 -2 -43 -4 -59 -16
-113 -5 -23 -2 -28 14 -28 26 0 31 16 39 121 l6 89 43 0 43 0 0 -91 c1 -97 9
-119 46 -119 33 0 39 12 14 31 -18 13 -21 26 -21 85 0 96 -1 94 25 94 14 0 24
6 24 15 0 13 -22 15 -134 15 -123 0 -133 -1 -133 -19z"/>
<path d="M4649 2995 c-6 -241 -4 -270 16 -270 19 0 20 8 20 158 1 144 -1 157
-17 157 -14 0 -18 -9 -19 -45z"/>
<path d="M5000 2985 c0 -16 -6 -25 -15 -25 -8 0 -15 -7 -15 -15 0 -8 6 -15 13
-15 9 0 12 -24 11 -91 -1 -100 9 -122 54 -117 33 4 40 25 10 30 -22 3 -23 8
-25 90 -2 80 -1 87 18 90 28 4 29 22 2 26 -17 3 -23 10 -23 28 0 15 -6 24 -15
24 -9 0 -15 -9 -15 -25z"/>
<path d="M4769 2931 c-16 -16 -30 -35 -30 -43 -8 -82 4 -125 42 -152 33 -22
91 -20 123 5 14 11 26 25 26 30 0 14 -30 11 -46 -6 -34 -33 -97 -9 -106 40 -3
18 3 20 80 23 71 2 82 5 82 21 0 96 -106 147 -171 82z m115 -23 c28 -40 21
-48 -43 -48 -33 0 -62 4 -65 9 -3 5 4 20 15 35 26 33 71 35 93 4z"/>
<path d="M7054 2937 c-32 -18 2 -27 102 -27 86 0 104 3 104 15 0 11 -12 15
-47 16 -27 0 -70 1 -96 2 -27 1 -55 -2 -63 -6z"/>
<path d="M7047 2824 c-17 -17 13 -24 109 -24 86 0 104 3 104 15 0 12 -18 15
-103 15 -57 0 -107 -3 -110 -6z"/>
<path d="M4524 2033 c-59 -29 -69 -61 -72 -228 -3 -170 5 -201 67 -242 34 -23
37 -23 380 -23 325 0 348 1 378 20 62 37 67 55 67 235 1 179 -4 197 -67 235
-30 19 -52 20 -377 19 -290 0 -350 -3 -376 -16z m746 -33 c40 -29 46 -58 45
-215 -1 -153 -8 -175 -55 -200 -43 -22 -677 -22 -720 0 -51 27 -58 54 -56 222
1 135 3 154 21 173 11 12 29 26 40 31 11 4 172 8 358 8 323 1 340 0 367 -19z"/>
<path d="M4636 1868 c4 -7 20 -32 36 -55 15 -23 28 -45 28 -50 0 -5 -16 -32
-35 -60 -40 -60 -41 -63 -17 -63 9 0 29 20 45 45 16 25 32 45 35 45 4 0 19
-21 34 -45 19 -31 34 -45 49 -45 21 0 21 1 4 28 -10 15 -29 42 -42 60 l-25 33
36 54 c41 63 42 65 19 65 -10 0 -31 -20 -47 -46 l-29 -46 -28 46 c-19 31 -36
46 -50 46 -13 0 -18 -4 -13 -12z"/>
<path d="M5527 1843 c-19 -18 3 -56 26 -47 24 9 22 54 -1 54 -10 0 -22 -3 -25
-7z"/>
<path d="M5602 1823 c3 -16 18 -18 133 -19 124 -2 153 4 139 28 -3 4 -66 8
-140 8 -124 0 -135 -2 -132 -17z"/>
<path d="M5524 1738 c2 -44 46 -45 46 -2 0 19 -5 24 -24 24 -18 0 -23 -5 -22
-22z"/>
<path d="M5602 1733 c3 -16 18 -18 137 -18 120 0 134 2 137 18 2 15 -10 17
-138 17 -127 0 -139 -2 -136 -17z"/>
<path d="M6922 2118 c1 -148 0 -158 -19 -158 -9 0 -38 14 -64 31 -65 42 -107
38 -131 -12 -35 -70 -29 -300 8 -356 21 -33 67 -30 126 8 79 51 81 48 80 -163
l0 -78 599 0 599 0 0 405 0 405 -599 0 -600 0 1 -82z m1167 -323 l0 -375 -566
2 -567 3 -1 105 c-3 173 -17 189 -118 135 -36 -19 -73 -35 -81 -35 -24 0 -39
75 -39 191 1 111 14 161 44 167 9 2 43 -13 77 -33 50 -30 64 -35 81 -26 27 15
32 37 36 144 2 51 4 93 4 95 1 1 255 2 566 2 l565 0 -1 -375z"/>
<path d="M7154 2036 c-17 -8 -42 -29 -55 -47 -22 -31 -23 -41 -23 -194 -1
-152 1 -162 23 -193 44 -62 45 -62 423 -62 325 0 345 1 376 20 62 38 71 66 71
232 0 163 -8 196 -57 233 -26 19 -45 20 -377 22 -279 2 -356 0 -381 -11z m726
-29 c48 -24 60 -67 59 -217 0 -151 -12 -190 -66 -211 -16 -6 -154 -9 -367 -7
-334 3 -342 3 -365 25 -31 29 -37 66 -36 219 1 139 9 164 57 191 33 18 682 18
718 0z"/>
<path d="M7288 1822 l39 -57 -38 -58 c-22 -32 -39 -60 -39 -63 0 -2 9 -4 20
-4 12 0 29 16 46 45 14 25 29 45 32 45 4 0 20 -20 35 -45 18 -28 36 -45 48
-45 10 0 19 2 19 5 0 2 -18 30 -40 61 l-39 56 40 59 c38 56 39 59 17 59 -16
-1 -31 -14 -51 -47 l-28 -46 -29 47 c-20 30 -37 46 -50 46 -19 0 -17 -5 18
-58z"/>
<path d="M9450 2093 c0 -143 -3 -147 -82 -104 -77 40 -105 39 -132 -9 -18 -31
-21 -52 -21 -170 0 -118 3 -139 21 -170 27 -48 55 -49 132 -9 53 29 64 32 72
19 5 -8 10 -70 10 -137 l0 -123 440 0 440 0 0 405 0 405 -440 0 -440 0 0 -107z
m846 -295 l-1 -373 -407 -3 -406 -2 0 106 c0 107 -12 158 -38 168 -7 3 -43
-10 -79 -29 -36 -19 -71 -35 -79 -35 -27 0 -41 62 -41 180 0 124 14 180 45
180 10 0 43 -15 74 -34 93 -56 116 -32 117 120 l0 94 408 0 408 0 -1 -372z"/>
<path d="M9845 1940 c-23 -9 -39 -26 -48 -52 -5 -14 -1 -18 18 -18 15 0 25 6
25 15 0 16 30 35 54 35 23 0 55 -36 51 -57 -2 -10 -4 -21 -4 -24 -1 -4 -35
-40 -76 -81 -47 -47 -75 -83 -75 -96 0 -21 4 -22 101 -22 90 0 100 2 97 17 -3
15 -14 17 -76 16 -43 0 -72 3 -72 9 0 6 32 40 70 77 63 59 71 70 72 105 2 67
-67 105 -137 76z"/>
<path d="M8313 2034 c-64 -32 -73 -63 -74 -238 -1 -145 1 -159 22 -192 38 -62
49 -64 434 -64 383 0 398 2 435 62 18 29 20 50 20 193 0 182 -10 213 -75 241
-54 22 -716 20 -762 -2z m750 -25 c48 -22 57 -55 57 -214 0 -159 -9 -192 -57
-214 -16 -7 -142 -11 -369 -11 -305 0 -349 2 -374 17 -44 25 -50 52 -50 209 0
156 9 191 54 213 30 14 708 14 739 0z"/>
<path d="M8507 1884 c-9 -10 4 -34 19 -34 8 0 14 9 14 20 0 19 -19 27 -33 14z"/>
<path d="M8416 1785 c5 -12 27 -15 110 -15 86 0 104 3 104 15 0 12 -19 15
-110 15 -93 0 -109 -2 -104 -15z"/>
<path d="M8505 1720 c-8 -14 3 -30 21 -30 8 0 14 9 14 20 0 21 -24 28 -35 10z"/>
<path d="M5423 980 c-61 -37 -68 -58 -70 -224 -2 -163 5 -193 52 -236 l27 -25
351 -3 c320 -2 355 -1 386 15 68 35 75 55 76 229 2 175 -5 202 -64 241 -34 23
-37 23 -380 23 -325 0 -348 -1 -378 -20z m737 -25 c16 -8 35 -25 41 -38 18
-31 20 -292 3 -334 -24 -61 -36 -63 -412 -63 -325 0 -340 1 -365 20 -38 30
-46 70 -44 220 4 222 -20 210 410 210 282 0 343 -3 367 -15z"/>
<path d="M5536 818 c4 -7 20 -32 36 -55 15 -23 28 -45 28 -50 0 -5 -16 -32
-35 -60 -40 -60 -41 -63 -17 -63 9 0 29 20 45 45 16 25 32 45 35 45 4 0 19
-21 34 -45 19 -31 34 -45 49 -45 24 0 25 -4 -37 89 -13 19 -20 39 -17 45 4 6
19 30 35 53 33 49 34 53 11 53 -10 0 -31 -20 -47 -46 l-29 -46 -30 46 c-18 29
-37 46 -49 46 -13 0 -17 -4 -12 -12z"/>
</g>
</svg>
