<?xml version="1.0" standalone="no"?>
<!DOCTYPE svg PUBLIC "-//W3C//DTD SVG 20010904//EN"
 "http://www.w3.org/TR/2001/REC-SVG-20010904/DTD/svg10.dtd">
<svg version="1.0" xmlns="http://www.w3.org/2000/svg"
 width="957.000000pt" height="199.000000pt" viewBox="0 0 957.000000 199.000000"
 preserveAspectRatio="xMidYMid meet">
<metadata>
Created by potrace 1.16, written by Peter Selinger 2001-2019
</metadata>
<g transform="translate(0.000000,199.000000) scale(0.100000,-0.100000)"
fill="#000000" stroke="none">
<path d="M637 1552 c-9 -2 -17 -11 -17 -20 -2 -144 -7 -213 -16 -222 -7 -7
-27 1 -64 25 -60 39 -99 44 -122 18 -16 -18 -36 -76 -36 -103 0 -8 -1 -49 -2
-90 -3 -199 44 -250 160 -175 37 24 57 32 65 24 5 -5 11 -61 12 -123 1 -63 3
-127 3 -142 1 -16 1 -89 0 -163 -1 -73 1 -135 3 -138 6 -5 5969 -4 5974 1 6 5
6 1096 1 1101 -4 5 -5937 11 -5961 7z m1403 -133 c0 -119 -7 -126 -79 -79 -69
44 -109 40 -136 -15 -29 -59 -29 -271 0 -330 30 -60 58 -60 163 1 28 17 34 17
42 4 6 -9 10 -124 10 -272 l0 -258 -695 0 -695 0 -1 33 c0 17 -1 136 -2 262
-2 204 -4 234 -20 258 -21 33 -37 31 -108 -14 -55 -35 -74 -36 -90 -7 -15 27
-19 62 -19 158 1 97 5 131 19 158 16 29 35 28 90 -7 66 -41 84 -45 106 -21 14
15 19 39 21 102 1 46 3 93 3 105 l1 21 695 0 695 0 0 -99z m4530 -424 l0 -525
-2249 0 -2248 0 -1 253 c-1 138 -3 259 -5 267 -15 60 -46 65 -122 20 -27 -16
-57 -30 -66 -30 -30 0 -44 58 -44 180 0 170 24 210 95 160 41 -29 94 -50 107
-42 24 16 34 58 35 148 l0 94 2249 0 2249 0 0 -525z"/>
<path d="M845 1234 c-63 -32 -70 -52 -73 -234 -2 -152 -1 -168 18 -198 37 -60
51 -62 442 -62 332 0 355 1 385 20 57 34 66 66 66 236 -1 169 -9 200 -66 234
-30 19 -52 20 -387 20 -297 0 -360 -3 -385 -16z m754 -29 c16 -8 33 -27 40
-42 10 -24 15 -172 12 -304 -1 -14 -12 -39 -26 -55 l-25 -29 -357 -3 c-469 -4
-443 -17 -443 223 0 155 6 182 48 208 24 14 69 16 375 17 285 0 353 -3 376
-15z"/>
<path d="M1147 1183 c-3 -5 -24 -71 -47 -148 -23 -77 -43 -141 -45 -143 -1 -1
-14 28 -27 65 -23 62 -28 68 -57 71 -24 3 -30 0 -25 -12 3 -9 9 -14 13 -12 15
10 29 -12 56 -87 28 -79 39 -95 50 -77 7 11 105 331 105 343 0 4 -4 7 -9 7 -6
0 -12 -3 -14 -7z"/>
<path d="M2520 1294 c0 -58 -4 -114 -10 -124 -9 -17 -13 -17 -67 16 -74 45
-109 43 -138 -6 -17 -30 -20 -52 -20 -165 0 -110 3 -136 20 -170 27 -53 53
-56 133 -14 53 29 64 32 72 19 5 -8 10 -70 10 -137 l0 -123 640 0 640 0 0 405
0 405 -640 0 -640 0 0 -106z m1250 -299 l0 -375 -609 0 -608 0 -2 108 c-1 108
-11 156 -37 166 -7 3 -43 -10 -79 -29 -36 -19 -71 -35 -79 -35 -27 0 -41 62
-41 180 0 120 14 180 42 180 8 0 42 -15 76 -33 34 -19 69 -32 79 -30 26 7 39
54 40 151 l0 92 609 0 609 0 0 -375z"/>
<path d="M2739 1228 c-60 -41 -69 -71 -66 -243 3 -168 9 -188 70 -225 30 -19
53 -20 415 -20 419 0 425 1 467 58 18 24 20 46 23 181 4 170 -4 208 -56 246
-26 19 -45 20 -423 23 l-395 3 -35 -23z m848 -41 c28 -27 28 -28 31 -188 l3
-160 -34 -34 -35 -35 -380 0 c-218 0 -391 4 -406 10 -51 19 -61 51 -63 209 -1
156 5 185 49 216 20 14 70 15 415 13 l393 -3 27 -28z"/>
<path d="M2856 1065 c-4 -11 2 -15 25 -15 l31 0 -7 -82 c-4 -45 -11 -92 -16
-105 -7 -20 -5 -23 16 -23 21 0 24 5 31 56 4 32 7 79 8 105 l1 49 43 0 c37 0
42 -3 43 -22 0 -13 1 -56 2 -96 3 -77 11 -92 55 -92 27 0 29 26 2 33 -18 5
-20 14 -20 91 0 85 0 86 25 86 16 0 25 6 25 15 0 13 -21 15 -129 15 -105 0
-130 -3 -135 -15z"/>
<path d="M5130 1285 c0 -90 -3 -117 -14 -121 -8 -3 -39 9 -70 26 -73 42 -104
38 -131 -15 -29 -59 -29 -271 0 -330 18 -37 23 -40 60 -39 26 0 55 10 82 28
68 45 73 37 73 -114 l0 -130 585 0 585 0 0 23 c1 12 1 193 1 402 l1 380 -586
3 -586 2 0 -115z m1140 -290 l0 -375 -553 0 -553 0 -2 112 c-2 168 -18 186
-119 131 -34 -18 -68 -33 -76 -33 -27 0 -41 60 -41 175 0 126 14 185 46 185
11 0 40 -13 65 -30 24 -17 57 -30 74 -30 40 0 50 30 51 148 l1 92 553 0 554 0
0 -375z"/>
<path d="M5349 1227 c-59 -39 -67 -68 -65 -241 2 -170 8 -189 69 -226 30 -19
53 -20 359 -20 190 0 338 4 353 10 72 27 85 65 85 252 0 134 -2 154 -20 183
-39 63 -52 65 -418 65 -325 0 -329 0 -363 -23z m721 -24 c44 -25 50 -52 50
-209 0 -158 -9 -191 -57 -213 -30 -14 -651 -15 -687 -1 -52 19 -61 50 -62 212
-1 127 1 152 17 178 11 17 29 35 42 40 12 5 168 9 345 9 285 1 327 -1 352 -16z"/>
<path d="M5560 1022 c-66 -30 -111 -101 -94 -150 12 -35 52 -49 93 -32 39 16
41 32 2 17 -23 -8 -33 -8 -45 2 -21 18 -20 50 2 58 84 28 120 61 105 99 -5 15
-37 18 -63 6z m37 -19 c4 -11 -4 -25 -27 -45 -53 -43 -77 -37 -43 12 33 48 60
61 70 33z"/>
<path d="M3991 1232 c-61 -33 -71 -67 -71 -234 0 -183 13 -221 85 -248 16 -6
170 -10 373 -10 320 0 350 1 382 19 64 34 73 62 72 236 0 133 -3 159 -19 187
-38 66 -48 68 -438 68 -320 0 -353 -2 -384 -18z m757 -26 c48 -25 55 -52 55
-211 1 -105 -3 -152 -13 -171 -29 -52 -40 -54 -415 -54 -377 0 -389 2 -414 57
-14 31 -14 305 0 336 25 55 34 56 412 57 281 0 353 -3 375 -14z"/>
<path d="M4190 1070 c0 -13 7 -20 18 -20 11 0 18 7 18 20 0 13 -7 20 -18 20
-11 0 -18 -7 -18 -20z"/>
<path d="M4100 985 c0 -12 18 -15 105 -15 87 0 105 3 105 15 0 12 -18 15 -105
15 -87 0 -105 -3 -105 -15z"/>
<path d="M4190 911 c0 -14 6 -21 19 -21 24 0 22 34 -2 38 -12 2 -17 -3 -17
-17z"/>
</g>
</svg>
