<?xml version="1.0" standalone="no"?>
<!DOCTYPE svg PUBLIC "-//W3C//DTD SVG 20010904//EN"
 "http://www.w3.org/TR/2001/REC-SVG-20010904/DTD/svg10.dtd">
<svg version="1.0" xmlns="http://www.w3.org/2000/svg"
 width="954.000000pt" height="320.000000pt" viewBox="0 0 954.000000 320.000000"
 preserveAspectRatio="xMidYMid meet">
<metadata>
Created by potrace 1.16, written by Peter Selinger 2001-2019
</metadata>
<g transform="translate(0.000000,320.000000) scale(0.100000,-0.100000)"
fill="#000000" stroke="none">
<path d="M569 2745 c-3 -185 -4 -188 -74 -144 -27 17 -62 33 -79 35 -63 9 -83
-37 -84 -199 -1 -118 13 -191 41 -209 25 -16 63 -7 117 27 37 24 57 32 64 25
6 -6 12 -68 14 -138 2 -70 5 -128 6 -130 2 -1 232 -2 512 -2 280 0 795 0 1146
0 l636 0 0 405 0 405 -442 1 c-242 0 -759 1 -1149 2 l-707 2 -1 -80z m1421
-55 c0 -73 -4 -102 -13 -106 -7 -2 -43 11 -81 31 -76 40 -93 37 -123 -18 -28
-49 -26 -276 2 -332 27 -54 56 -57 135 -13 77 42 80 38 80 -104 l0 -108 -695
0 c-382 0 -695 3 -696 8 0 4 -1 58 -3 121 -2 104 -4 115 -25 132 -25 21 -48
15 -109 -26 -79 -54 -102 -20 -102 155 0 174 23 209 102 155 61 -41 84 -47
109 -26 21 17 25 42 29 209 l0 22 695 0 695 0 0 -100z m847 -275 l0 -375 -409
0 -408 0 0 110 c0 108 -10 154 -36 164 -8 3 -43 -10 -79 -29 -79 -42 -92 -43
-107 -7 -15 35 -15 268 0 305 15 35 28 34 107 -8 36 -19 71 -32 79 -29 25 10
36 55 36 149 l0 95 408 0 409 0 0 -375z"/>
<path d="M791 2653 c-63 -31 -71 -58 -71 -237 0 -142 2 -162 20 -191 39 -63
50 -65 435 -65 384 0 398 2 436 64 16 27 19 52 19 191 0 139 -3 164 -19 191
-38 62 -51 64 -438 64 -304 0 -352 -3 -382 -17z m765 -33 c42 -26 46 -48 46
-218 0 -223 22 -212 -426 -212 -227 0 -353 4 -369 11 -49 22 -57 54 -57 216 1
158 7 185 51 209 19 10 103 13 373 14 334 0 350 -1 382 -20z"/>
<path d="M1097 2603 c-2 -5 -17 -48 -31 -98 -15 -49 -35 -114 -44 -142 -8 -29
-18 -51 -21 -48 -2 3 -14 33 -26 68 -20 58 -24 62 -54 65 -24 3 -32 0 -29 -10
3 -7 10 -14 16 -14 7 -1 16 -2 20 -3 5 0 14 -19 21 -41 23 -76 51 -134 61
-124 9 9 110 328 110 347 0 4 -4 7 -9 7 -6 0 -12 -3 -14 -7z"/>
<path d="M2359 2541 c-57 -57 -30 -156 45 -168 24 -4 44 0 61 11 24 16 25 16
25 -4 0 -23 -26 -79 -38 -81 -36 -7 -54 -4 -68 12 -10 11 -23 19 -31 19 -18 0
-17 -25 2 -44 40 -39 113 -31 147 17 20 28 23 44 23 120 0 87 0 89 -33 118
-44 40 -93 40 -133 0z m87 -7 c23 -6 44 -42 44 -74 0 -27 -35 -60 -62 -60 -56
0 -82 92 -36 124 25 18 25 18 54 10z"/>
<path d="M569 1313 c0 -5 -1 -56 -2 -115 -1 -59 -7 -112 -13 -118 -7 -7 -25
-1 -60 21 -119 77 -167 24 -165 -182 2 -132 27 -199 77 -199 13 0 49 16 81 35
38 23 61 31 68 24 5 -5 10 -60 11 -122 1 -62 3 -120 3 -129 1 -17 76 -18 1431
-18 l1430 0 2 395 c2 217 2 400 0 405 -4 12 -2862 14 -2863 3z m1985 -105 c-2
-126 -3 -128 -19 -128 -8 0 -37 14 -63 30 -28 17 -63 30 -81 30 -28 0 -34 -5
-52 -45 -15 -34 -20 -68 -20 -152 -2 -211 39 -263 153 -193 52 32 77 38 79 18
1 -7 2 -61 3 -120 l2 -108 -978 0 c-538 0 -978 3 -978 8 -1 4 -2 58 -4 121 -2
104 -4 115 -25 132 -25 21 -48 15 -109 -26 -49 -34 -70 -32 -87 8 -17 40 -18
237 -2 287 16 46 37 48 99 10 65 -40 82 -43 104 -19 17 19 21 60 24 217 0 9
202 12 978 12 l978 0 -2 -82z m846 -293 l0 -375 -405 0 -405 0 -1 88 c-1 123
-6 155 -29 174 -24 19 -35 16 -101 -24 -93 -56 -104 -40 -104 152 0 187 15
211 95 157 19 -13 50 -29 68 -35 29 -10 34 -9 48 13 18 28 22 56 23 153 l1 72
405 0 405 0 0 -375z"/>
<path d="M791 1153 c-63 -31 -71 -58 -71 -236 0 -101 4 -166 12 -180 14 -28
47 -57 76 -68 13 -5 308 -9 655 -9 609 0 633 1 664 20 62 37 68 57 69 232 1
176 -6 200 -68 238 -32 19 -52 20 -668 20 -572 0 -638 -2 -669 -17z m1327 -29
c42 -29 49 -61 50 -210 1 -122 -2 -145 -19 -173 -10 -17 -31 -36 -45 -41 -15
-6 -170 -10 -369 -10 l-344 0 2 155 c2 143 1 155 -16 155 -10 0 -20 -7 -23
-15 -5 -13 -8 -13 -27 0 -25 17 -60 19 -86 5 -49 -26 -60 -162 -16 -205 29
-30 73 -32 106 -6 l24 19 -1 -47 c-1 -25 -2 -49 -3 -53 -1 -5 -118 -8 -262 -8
-353 0 -339 -9 -339 233 1 161 4 175 55 205 15 8 194 11 655 12 560 0 638 -2
658 -16z m-785 -171 c33 -38 25 -133 -14 -154 -29 -15 -68 -3 -74 24 -12 59
-8 112 11 131 21 21 57 20 77 -1z"/>
<path d="M958 1054 c-50 -26 -50 -103 0 -127 15 -8 50 -20 77 -27 86 -22 108
-78 39 -100 -44 -15 -95 -6 -116 20 -22 27 -50 27 -46 -1 7 -50 124 -76 193
-44 31 15 53 47 49 73 -1 6 -2 19 -3 27 -2 21 -42 45 -108 62 -32 8 -64 19
-70 25 -19 15 -16 51 5 64 29 19 102 11 121 -13 11 -13 23 -18 35 -13 17 6 17
8 -7 35 -22 26 -32 30 -84 32 -35 1 -69 -4 -85 -13z"/>
<path d="M1610 1030 c0 -10 -10 -25 -22 -31 -20 -11 -20 -13 -5 -24 14 -10 17
-29 17 -98 0 -95 13 -120 58 -115 33 4 40 25 10 30 -22 3 -23 8 -26 91 -3 82
-2 87 18 87 11 0 20 7 20 15 0 8 -9 15 -20 15 -15 0 -20 7 -20 25 0 16 -6 25
-15 25 -8 0 -15 -9 -15 -20z"/>
<path d="M1451 880 c0 -113 1 -120 19 -120 18 0 20 7 20 69 0 90 14 131 46
131 17 0 24 6 24 20 0 28 -35 26 -54 -2 l-16 -22 0 22 c0 15 -6 22 -19 22 -17
0 -19 -9 -20 -120z"/>
<path d="M2939 1055 c-28 -15 -50 -61 -44 -92 2 -10 4 -24 4 -31 1 -7 12 -24
26 -37 27 -28 66 -32 108 -11 30 17 32 13 15 -35 -20 -59 -62 -75 -98 -39 -22
22 -36 25 -45 10 -3 -5 5 -21 19 -35 52 -52 133 -22 160 59 16 47 12 136 -9
176 -25 48 -84 63 -136 35z m94 -34 c4 -4 11 -22 16 -39 17 -59 -45 -104 -94
-68 -27 20 -27 90 0 111 19 14 61 12 78 -4z"/>
</g>
</svg>
