<?xml version="1.0" standalone="no"?>
<!DOCTYPE svg PUBLIC "-//W3C//DTD SVG 20010904//EN"
 "http://www.w3.org/TR/2001/REC-SVG-20010904/DTD/svg10.dtd">
<svg version="1.0" xmlns="http://www.w3.org/2000/svg"
 width="954.000000pt" height="185.000000pt" viewBox="0 0 954.000000 185.000000"
 preserveAspectRatio="xMidYMid meet">
<metadata>
Created by potrace 1.16, written by Peter Selinger 2001-2019
</metadata>
<g transform="translate(0.000000,185.000000) scale(0.100000,-0.100000)"
fill="#000000" stroke="none">
<path d="M381 1473 c-39 -21 -119 -83 -108 -83 2 0 -6 -21 -18 -47 -22 -45
-23 -54 -23 -399 0 -349 1 -354 24 -401 12 -26 31 -57 41 -69 25 -29 102 -72
138 -78 17 -2 30 -5 30 -6 0 -1 54 -3 120 -4 l120 -2 88 -59 c116 -78 143 -78
266 3 l86 57 615 2 c338 0 1302 2 2143 2 l1527 1 0 555 0 555 -2143 0 -2143 0
-84 -56 c-124 -83 -148 -83 -267 -5 l-91 61 -139 -1 c-127 -1 -142 -3 -182
-26z m401 -63 c128 -82 152 -82 280 0 l92 60 608 0 608 0 0 -100 c0 -77 -3
-102 -14 -106 -8 -3 -38 8 -68 25 -94 53 -127 38 -146 -65 -11 -65 -7 -224 8
-269 23 -69 64 -74 153 -18 68 42 67 45 67 -252 l0 -265 -612 0 -613 0 -90
-58 c-124 -81 -142 -81 -263 -2 l-93 60 -117 0 c-64 0 -135 5 -157 11 -53 15
-111 62 -138 113 -21 40 -22 49 -22 391 0 193 3 363 7 378 13 54 78 122 139
146 13 5 81 10 151 10 l128 1 92 -60z m4616 -465 l0 -525 -1496 2 -1496 3 -1
260 c-1 176 -5 267 -13 281 -19 35 -46 34 -108 -3 -65 -39 -83 -39 -102 0 -25
51 -18 281 9 314 17 20 31 16 93 -21 94 -57 117 -35 121 113 2 53 3 97 4 99 1
1 673 2 1495 2 l1494 0 0 -525z"/>
<path d="M465 1190 c-27 -11 -61 -49 -73 -81 -6 -14 -10 -89 -10 -166 0 -160
9 -191 67 -230 34 -23 37 -23 380 -23 325 0 348 1 378 20 62 37 67 55 67 234
1 180 -4 198 -67 236 -30 19 -52 20 -377 19 -190 0 -354 -4 -365 -9z m719 -30
c51 -19 60 -50 61 -207 1 -162 -7 -193 -54 -218 -27 -14 -76 -15 -376 -13
l-345 3 -27 28 c-28 27 -28 30 -31 167 -4 155 5 198 45 230 25 19 40 20 364
20 190 0 349 -4 363 -10z"/>
<path d="M566 1018 c4 -7 20 -32 36 -55 15 -23 28 -45 28 -50 0 -5 -16 -32
-35 -60 -40 -60 -41 -63 -17 -63 9 0 29 20 45 45 16 25 32 45 35 45 4 0 19
-21 34 -45 18 -30 34 -45 48 -45 24 0 23 3 -28 73 l-34 48 36 54 c41 63 42 65
18 65 -10 0 -29 -20 -45 -47 l-29 -46 -30 46 c-19 29 -38 47 -50 47 -13 0 -17
-4 -12 -12z"/>
<path d="M1456 985 c-8 -22 3 -43 22 -41 10 2 18 14 20 29 3 21 -1 27 -16 27
-11 0 -22 -7 -26 -15z"/>
<path d="M1530 972 c0 -17 11 -19 118 -20 136 -1 159 2 159 23 0 13 -21 15
-139 15 -127 0 -138 -1 -138 -18z"/>
<path d="M1454 885 c0 -19 5 -25 23 -25 18 0 23 6 23 25 0 19 -5 25 -23 25
-18 0 -23 -6 -23 -25z"/>
<path d="M1532 883 c3 -15 18 -18 128 -19 116 -1 150 5 150 27 0 5 -63 9 -141
9 -127 0 -140 -2 -137 -17z"/>
<path d="M4117 1343 c-4 -3 -7 -55 -7 -115 0 -84 -3 -110 -14 -114 -8 -3 -39
9 -70 26 -74 42 -104 38 -131 -15 -28 -58 -28 -272 1 -330 18 -37 22 -40 59
-39 26 0 55 10 82 28 68 45 73 37 73 -114 l0 -130 510 0 510 0 0 405 0 405
-503 0 c-277 0 -507 -3 -510 -7z m981 -398 l0 -375 -477 2 -476 3 -1 102 c-2
176 -15 192 -117 138 -36 -19 -73 -35 -81 -35 -25 0 -40 69 -39 186 0 114 13
166 44 172 8 1 41 -13 72 -32 95 -56 119 -32 121 118 l1 96 477 0 476 0 0
-375z"/>
<path d="M4540 1077 c-73 -48 -96 -147 -52 -219 19 -31 20 -37 7 -48 -8 -7
-15 -17 -15 -23 0 -6 10 -2 21 10 21 20 24 20 46 6 13 -9 45 -16 71 -17 127
-2 206 146 132 246 -12 17 -20 38 -17 49 6 21 -3 25 -20 8 -8 -8 -17 -8 -31 0
-35 19 -106 13 -142 -12z m136 -19 c6 -9 -17 -42 -98 -140 -57 -67 -73 -66
-83 7 -7 45 7 86 41 117 35 31 124 42 140 16z m71 -96 c3 -24 0 -55 -7 -72
-26 -63 -112 -95 -173 -63 -26 13 -27 16 -14 31 7 9 44 54 82 100 67 82 68 83
87 64 11 -10 22 -38 25 -60z"/>
<path d="M2720 1100 c0 -5 9 -14 21 -20 11 -7 27 -27 35 -46 14 -34 13 -38
-31 -131 -25 -53 -45 -100 -45 -104 0 -5 9 -9 20 -9 11 0 20 4 20 9 0 4 15 42
33 82 l34 74 29 -83 c21 -60 34 -82 47 -82 9 0 17 4 17 8 0 22 -101 276 -116
293 -18 20 -64 26 -64 9z"/>
<path d="M3328 886 l-26 -24 29 -28 c29 -28 53 -27 29 1 -11 13 0 15 94 15 64
0 106 4 106 10 0 6 -42 10 -105 10 -103 0 -105 1 -95 20 14 27 1 25 -32 -4z"/>
</g>
</svg>
