<?xml version="1.0" standalone="no"?>
<!DOCTYPE svg PUBLIC "-//W3C//DTD SVG 20010904//EN"
 "http://www.w3.org/TR/2001/REC-SVG-20010904/DTD/svg10.dtd">
<svg version="1.0" xmlns="http://www.w3.org/2000/svg"
 width="1182.000000pt" height="321.000000pt" viewBox="0 0 1182.000000 321.000000"
 preserveAspectRatio="xMidYMid meet">
<metadata>
Created by potrace 1.16, written by Peter Selinger 2001-2019
</metadata>
<g transform="translate(0.000000,321.000000) scale(0.100000,-0.100000)"
fill="#000000" stroke="none">
<path d="M851 2698 c-54 -9 -110 -45 -146 -92 -56 -73 -55 -67 -55 -863 l1
-732 26 -51 c29 -56 64 -90 127 -122 34 -18 64 -22 180 -26 122 -4 143 -7 170
-26 17 -11 33 -24 34 -28 2 -5 8 -8 12 -8 5 0 29 -13 54 -28 72 -46 120 -39
228 32 l87 57 95 -1 c53 -1 102 -1 109 -1 62 0 455 0 467 0 35 -1 526 0 540 1
8 0 223 1 478 3 303 1 462 -1 462 -8 0 -7 3 -7 8 0 10 14 952 14 952 0 0 -7 3
-7 8 0 4 7 207 10 582 10 l575 0 3 555 2 556 -1802 -1 -1803 0 -1 390 -1 390
-339 1 -339 1 -55 -36 c-30 -19 -70 -46 -89 -60 -56 -42 -105 -34 -209 36
l-87 57 -115 1 c-63 1 -135 -2 -159 -7z m355 -85 c82 -54 96 -59 140 -58 42 1
62 10 139 61 l90 60 305 -2 c168 -1 311 -2 318 -3 9 -1 12 -82 12 -371 0 -289
-3 -370 -12 -371 -7 0 -153 -1 -325 -1 l-311 0 -88 -59 c-120 -80 -141 -80
-265 1 l-91 60 -218 0 -217 0 0 273 c0 149 4 287 9 306 23 81 88 141 174 159
21 4 86 7 144 7 l105 -2 91 -60z m-5 -777 c88 -57 101 -62 146 -61 42 2 63 11
138 61 l88 59 606 0 606 0 5 -35 c6 -43 -2 -166 -12 -175 -4 -4 -29 6 -56 23
-90 55 -124 50 -152 -23 -15 -40 -20 -188 -8 -261 17 -109 61 -126 161 -62 62
39 66 33 68 -87 2 -229 -3 -420 -11 -425 -4 -3 -280 -5 -612 -5 l-603 0 -88
-57 c-75 -50 -94 -58 -135 -58 -41 0 -59 8 -132 57 l-85 57 -115 1 c-172 2
-195 8 -255 69 -35 35 -55 64 -62 93 -10 40 -17 868 -8 883 3 4 98 8 212 8
l207 0 97 -62z m4616 -466 l0 -525 -1496 0 -1496 0 0 261 c-1 231 -3 264 -18
287 -23 35 -40 34 -110 -8 -70 -43 -92 -37 -102 27 -11 61 -7 212 5 259 15 53
35 55 107 8 55 -34 74 -36 97 -10 14 16 18 40 20 116 1 58 6 99 13 103 6 4
679 7 1495 7 l1485 0 0 -525z"/>
<path d="M1760 2440 c0 -13 7 -20 20 -20 13 0 20 7 20 20 0 13 -7 20 -20 20
-13 0 -20 -7 -20 -20z"/>
<path d="M1860 2300 c0 -153 1 -160 20 -160 19 0 20 7 20 160 0 153 -1 160
-20 160 -19 0 -20 -7 -20 -160z"/>
<path d="M994 2438 c-4 -6 -8 -28 -10 -50 -2 -32 0 -38 17 -38 23 0 37 29 19
40 -8 5 -10 17 -6 34 6 26 -7 36 -20 14z"/>
<path d="M1062 2429 c-15 -40 -9 -74 16 -77 17 -3 22 2 22 17 0 12 -4 21 -10
21 -14 0 -13 33 2 48 9 9 8 12 -5 12 -10 0 -21 -9 -25 -21z"/>
<path d="M1450 2296 c0 -149 1 -156 20 -156 18 0 20 8 22 125 l3 126 75 -126
c67 -111 78 -125 102 -125 l28 0 -1 155 c0 146 -1 155 -19 155 -18 0 -20 -9
-22 -127 l-3 -126 -76 124 c-63 104 -80 125 -102 127 l-27 3 0 -155z"/>
<path d="M1760 2260 c0 -113 1 -120 20 -120 19 0 20 7 20 120 0 113 -1 120
-20 120 -19 0 -20 -7 -20 -120z"/>
<path d="M875 1605 c-64 -32 -75 -66 -75 -225 0 -164 9 -201 57 -237 l36 -28
351 0 c331 0 353 2 385 20 56 33 67 72 66 236 0 165 -9 198 -64 231 -35 22
-42 23 -376 23 -322 0 -342 -1 -380 -20z m730 -22 c54 -30 58 -43 60 -198 2
-161 -6 -194 -53 -223 -27 -16 -60 -17 -368 -17 -370 1 -371 1 -398 60 -20 43
-19 289 0 331 14 28 37 47 72 56 36 9 669 1 687 -9z"/>
<path d="M986 1438 c4 -7 20 -32 36 -55 15 -23 28 -44 28 -48 0 -3 -16 -29
-35 -58 -40 -59 -42 -67 -17 -67 9 0 29 20 45 45 16 25 32 45 36 45 3 0 17
-20 31 -45 19 -34 30 -45 48 -45 27 0 29 -5 -34 89 -13 19 -20 39 -17 45 4 6
19 30 35 53 33 49 34 53 9 53 -12 0 -29 -17 -46 -46 l-27 -47 -29 47 c-19 30
-36 46 -50 46 -13 0 -18 -4 -13 -12z"/>
<path d="M1874 1393 c1 -22 6 -28 24 -29 18 -1 22 4 22 27 0 24 -4 29 -24 29
-19 0 -23 -5 -22 -27z"/>
<path d="M1950 1391 c0 -19 7 -20 138 -18 114 2 137 4 137 17 0 12 -23 15
-137 18 -132 2 -138 2 -138 -17z"/>
<path d="M1873 1308 c2 -44 47 -45 47 -2 0 19 -5 24 -24 24 -19 0 -24 -5 -23
-22z"/>
<path d="M1967 1322 c-17 -3 -24 -31 -9 -33 4 -1 64 -2 134 -3 102 -1 129 1
133 13 3 8 3 16 1 18 -5 6 -235 10 -259 5z"/>
<path d="M4537 1773 c-4 -3 -7 -54 -7 -112 0 -137 -4 -143 -67 -103 -69 44
-105 50 -132 21 -28 -31 -36 -74 -35 -204 0 -123 13 -176 48 -195 28 -15 53
-8 119 33 40 24 51 27 58 16 5 -8 9 -71 9 -141 l0 -128 510 0 510 0 0 410 0
410 -503 0 c-277 0 -507 -3 -510 -7z m974 -32 c8 -1 8 -741 0 -742 -16 -3
-918 -5 -931 -1 -13 2 -15 21 -15 95 1 179 -20 203 -127 143 -66 -37 -77 -36
-97 2 -15 29 -20 176 -9 251 13 82 27 88 105 45 106 -60 124 -44 129 115 1 48
2 88 3 91 1 4 922 5 942 1z"/>
<path d="M4975 1506 c-82 -36 -117 -150 -69 -224 12 -19 14 -30 6 -47 -14 -30
-3 -41 15 -15 13 18 16 18 36 6 93 -61 236 20 237 133 0 38 -36 121 -52 121
-6 0 -5 6 2 15 16 20 5 32 -14 16 -11 -9 -20 -10 -35 -2 -27 15 -89 13 -126
-3z m120 -26 c6 -9 -107 -162 -139 -189 -12 -10 -17 -7 -30 18 -44 84 21 181
121 181 23 0 45 -4 48 -10z m55 -52 c68 -111 -55 -240 -169 -178 -20 10 -21
14 -8 28 7 9 44 54 81 100 37 45 70 82 72 82 2 0 13 -15 24 -32z"/>
<path d="M3140 1516 c0 -7 9 -16 20 -19 11 -3 27 -21 35 -41 15 -35 14 -38
-30 -132 -25 -53 -45 -101 -45 -105 0 -18 39 -8 45 11 4 12 19 48 34 82 l28
61 28 -82 c22 -61 33 -81 47 -81 10 0 18 4 18 10 0 22 -100 274 -116 291 -20
22 -64 26 -64 5z"/>
<path d="M3747 1305 l-28 -25 28 -25 c15 -13 31 -25 36 -25 11 0 8 15 -5 28
-9 9 12 12 95 12 65 0 107 4 107 10 0 6 -42 10 -107 10 -83 0 -104 3 -95 12
13 13 16 28 5 28 -5 0 -21 -12 -36 -25z"/>
</g>
</svg>
