<?xml version="1.0" standalone="no"?>
<!DOCTYPE svg PUBLIC "-//W3C//DTD SVG 20010904//EN"
 "http://www.w3.org/TR/2001/REC-SVG-20010904/DTD/svg10.dtd">
<svg version="1.0" xmlns="http://www.w3.org/2000/svg"
 width="1100.000000pt" height="207.000000pt" viewBox="0 0 1100.000000 207.000000"
 preserveAspectRatio="xMidYMid meet">
<metadata>
Created by potrace 1.16, written by Peter Selinger 2001-2019
</metadata>
<g transform="translate(0.000000,207.000000) scale(0.100000,-0.100000)"
fill="#000000" stroke="none">
<path d="M1507 1533 c-4 -3 -216 -6 -472 -6 l-465 0 -1 -26 c-1 -14 -2 -65 -2
-113 -2 -104 -13 -122 -54 -91 -41 30 -89 53 -111 53 -47 0 -73 -76 -73 -208
0 -112 8 -160 33 -194 26 -37 51 -35 121 8 45 28 62 33 70 25 9 -9 12 -89 14
-269 0 -141 2 -266 2 -278 l1 -21 2480 0 c2266 0 2480 1 2481 16 1 22 1 1040
0 1073 l-1 27 -77 0 c-43 -1 -82 0 -88 1 -5 1 -14 1 -20 0 -12 -3 -1565 -2
-1580 0 -5 2 -14 1 -20 0 -12 -3 -286 -2 -300 0 -5 1 -14 1 -20 0 -12 -3
-1565 -2 -1580 0 -5 2 -14 1 -20 0 -25 -5 -293 -3 -302 3 -6 4 -13 4 -16 0z
m3991 -561 c2 -492 1 -522 -15 -523 -56 -3 -4860 -4 -4870 -1 -10 3 -13 63
-13 253 0 318 -10 349 -95 303 -63 -35 -107 -55 -111 -52 -44 44 -45 332 -1
360 13 8 44 -4 92 -37 47 -32 85 -30 102 5 7 15 13 63 13 117 0 52 4 93 10 95
5 2 1107 3 2447 2 l2438 0 3 -522z"/>
<path d="M1049 1373 c-1 -5 -2 -56 -3 -115 -1 -62 -6 -112 -12 -118 -8 -8 -27
-1 -70 24 -32 20 -68 36 -80 36 -50 0 -76 -73 -76 -215 0 -142 26 -215 76
-215 12 0 48 16 80 36 39 23 62 32 69 25 5 -5 11 -65 13 -133 1 -68 3 -126 3
-130 1 -5 253 -8 561 -8 l560 0 0 410 0 410 -560 0 c-308 0 -560 -3 -561 -7z
m1077 -32 c12 -1 17 -740 5 -742 -3 -1 -241 -2 -529 -3 l-522 -1 0 103 c0 164
-28 203 -110 149 -51 -33 -85 -46 -99 -38 -42 27 -40 348 3 352 23 3 39 -3 83
-32 94 -59 116 -38 121 110 l4 106 517 -1 c284 -1 521 -2 527 -3z"/>
<path d="M1435 1111 c-27 -11 -52 -58 -39 -71 7 -7 21 -1 42 20 36 34 48 36
80 14 41 -28 29 -61 -47 -134 -71 -67 -97 -103 -86 -120 3 -6 51 -10 106 -10
81 0 99 3 99 15 0 9 -10 15 -22 16 -13 0 -46 2 -75 2 -28 1 -54 5 -58 8 -3 4
21 31 55 60 90 79 111 131 72 179 -20 24 -92 36 -127 21z"/>
<path d="M1675 1108 c-40 -23 -60 -68 -30 -68 8 0 25 11 39 25 41 41 96 27 96
-25 0 -31 -22 -50 -60 -50 -30 0 -22 -32 8 -37 43 -6 62 -22 62 -52 0 -32 -13
-46 -53 -56 -22 -6 -32 -2 -57 25 -35 38 -69 36 -49 -2 20 -40 51 -58 99 -58
81 0 127 66 89 129 -10 17 -27 31 -36 31 -14 0 -11 5 9 17 45 28 40 100 -9
122 -31 14 -82 14 -108 -1z"/>
<path d="M3500 1281 c0 -55 -5 -112 -10 -126 l-10 -27 -35 22 c-19 12 -48 28
-66 37 -78 39 -118 -29 -118 -202 0 -123 21 -195 60 -209 27 -9 44 -3 121 43
l38 23 10 -27 c5 -14 10 -78 10 -141 l0 -114 868 2 867 3 1 395 c0 217 -2 401
-4 408 -3 9 -186 12 -868 12 l-864 0 0 -99z m1698 -311 l2 -376 -832 1 -833 0
-5 121 c-6 136 -15 159 -62 150 -15 -3 -45 -16 -65 -30 -54 -35 -75 -36 -90
-5 -31 63 -24 293 10 326 11 11 24 7 81 -22 37 -20 75 -35 84 -33 29 6 42 49
42 145 0 53 4 93 10 95 6 2 380 3 833 3 l822 0 3 -375z"/>
<path d="M3885 1108 c-25 -13 -45 -38 -45 -55 0 -18 37 -16 44 2 8 23 52 36
81 25 19 -7 25 -17 25 -39 0 -32 -22 -51 -59 -51 -14 0 -21 -6 -21 -18 0 -13
9 -18 32 -20 43 -3 60 -20 56 -56 -6 -58 -101 -70 -115 -15 -3 11 -12 19 -22
17 -27 -5 -24 -36 6 -64 25 -23 34 -25 82 -22 66 6 91 31 91 89 0 33 -5 42
-31 58 -28 17 -29 20 -11 25 28 9 45 59 31 90 -19 42 -97 60 -144 34z"/>
<path d="M4263 1098 c-51 -36 -58 -77 -9 -44 14 9 28 16 31 16 3 0 4 -51 3
-112 -3 -113 -3 -113 -28 -114 -43 -2 -47 -4 -47 -19 0 -12 18 -15 99 -15 89
0 99 2 96 17 -2 13 -13 18 -38 18 -40 0 -38 -10 -39 183 -1 104 -8 112 -68 70z"/>
<path d="M4508 1017 c-38 -57 -68 -111 -68 -120 0 -14 11 -17 70 -17 l70 0 0
-35 c0 -28 4 -35 20 -35 16 0 20 7 20 35 0 28 4 35 20 35 11 0 20 7 20 15 0 8
-9 15 -20 15 -19 0 -20 7 -20 105 0 102 -1 105 -22 105 -18 0 -38 -24 -90
-103z m69 -104 c-3 -2 -25 -3 -51 -1 l-45 3 47 75 47 75 3 -74 c2 -40 1 -75
-1 -78z"/>
<path d="M4749 1096 c-20 -14 -36 -32 -36 -40 0 -22 17 -20 44 6 l23 21 0
-119 0 -120 -36 -1 c-39 -1 -49 -7 -39 -22 4 -7 45 -11 101 -11 77 0 94 3 94
15 0 16 -1 16 -45 19 l-30 1 -2 120 c-1 66 -2 128 -2 138 -1 24 -30 21 -72 -7z"/>
<path d="M4100 835 c0 -18 5 -25 20 -25 15 0 20 7 20 25 0 18 -5 25 -20 25
-15 0 -20 -7 -20 -25z"/>
<path d="M2385 1218 c-37 -10 -56 -25 -80 -62 -16 -25 -19 -48 -18 -186 1
-180 9 -206 74 -238 34 -17 67 -18 390 -17 243 0 360 4 374 12 11 6 31 23 45
38 24 26 25 31 28 190 4 185 -4 216 -61 250 -30 19 -54 20 -377 21 -190 0
-358 -3 -375 -8z m739 -42 c40 -25 46 -54 46 -206 0 -154 -5 -178 -46 -205
-26 -17 -56 -18 -369 -20 -187 0 -352 3 -368 8 -15 5 -36 20 -47 34 -18 23
-20 41 -20 184 0 150 1 159 23 184 12 15 37 30 55 33 18 4 183 7 366 6 300 0
337 -2 360 -18z"/>
<path d="M2557 1054 c-9 -10 4 -34 19 -34 8 0 14 9 14 20 0 19 -19 27 -33 14z"/>
<path d="M2528 972 c-54 -2 -66 -6 -61 -17 8 -21 213 -22 213 -1 0 16 -51 22
-152 18z"/>
<path d="M2557 894 c-9 -10 4 -34 19 -34 8 0 14 9 14 20 0 19 -19 27 -33 14z"/>
</g>
</svg>
