<?xml version="1.0" standalone="no"?>
<!DOCTYPE svg PUBLIC "-//W3C//DTD SVG 20010904//EN"
 "http://www.w3.org/TR/2001/REC-SVG-20010904/DTD/svg10.dtd">
<svg version="1.0" xmlns="http://www.w3.org/2000/svg"
 width="645.000000pt" height="517.000000pt" viewBox="0 0 645.000000 517.000000"
 preserveAspectRatio="xMidYMid meet">
<metadata>
Created by potrace 1.16, written by Peter Selinger 2001-2019
</metadata>
<g transform="translate(0.000000,517.000000) scale(0.100000,-0.100000)"
fill="#000000" stroke="none">
<path d="M170 5049 c0 -54 -2 -60 -17 -54 -82 33 -88 31 -99 -25 -8 -45 -6
-97 7 -137 11 -33 26 -36 68 -14 36 20 41 13 41 -54 l0 -65 220 0 220 0 0 205
0 205 -220 0 -220 0 0 -61z m425 -129 c0 -91 -1 -173 -3 -182 -4 -16 -22 -18
-203 -18 l-199 0 -1 45 c-1 25 -3 50 -4 55 -1 6 -3 15 -4 20 -2 14 -31 12 -61
-5 -38 -21 -50 -3 -50 74 0 91 7 100 59 76 23 -10 44 -15 48 -12 3 4 8 32 11
62 l5 55 201 -2 201 -3 0 -165z"/>
<path d="M356 4964 c-23 -22 -21 -96 2 -117 23 -21 56 -22 72 -2 19 23 15 107
-6 122 -24 17 -49 16 -68 -3z m59 -59 c0 -47 -2 -50 -25 -50 -20 0 -26 6 -28
29 -6 49 6 78 31 74 19 -3 22 -9 22 -53z"/>
<path d="M170 4300 c0 -33 -2 -60 -4 -60 -2 0 -20 7 -39 15 -49 20 -53 19 -67
-15 -15 -37 -9 -152 9 -174 12 -14 17 -14 48 -1 20 8 39 15 44 15 5 0 9 -29 9
-65 l0 -65 203 -1 c219 -1 230 -1 237 11 3 4 4 96 2 204 l-3 196 -219 0 -220
0 0 -60z m421 28 c1 -7 2 -91 3 -186 l1 -172 -202 0 -203 0 0 49 c0 84 -13 96
-72 65 -40 -21 -48 -9 -48 76 0 86 10 101 51 78 56 -32 69 -21 69 58 l0 44
200 0 c153 0 200 -3 201 -12z"/>
<path d="M368 4219 c-23 -13 -23 -27 -2 -25 13 1 17 -9 18 -47 1 -38 -2 -47
-16 -47 -10 0 -18 -4 -18 -10 0 -5 20 -10 45 -10 25 0 45 5 45 10 0 6 -7 10
-15 10 -16 0 -17 3 -19 74 -1 52 -10 62 -38 45z"/>
<path d="M383 3612 l-213 -2 0 -60 c0 -33 -2 -60 -5 -60 -2 0 -21 8 -41 17
-36 18 -36 17 -56 -7 -17 -21 -20 -35 -16 -98 6 -95 19 -109 73 -82 22 11 41
20 42 20 2 0 3 -31 3 -70 l0 -70 153 0 c269 -1 481 1 484 4 2 2 5 94 6 204 l2
201 -110 3 c-60 2 -206 2 -322 0z m408 -34 c1 -7 2 -91 3 -185 l1 -173 -302 0
-303 0 0 53 c0 29 -6 61 -12 70 -12 16 -16 16 -52 -4 -49 -26 -56 -17 -56 71
0 89 8 99 59 75 23 -10 44 -15 48 -12 3 4 8 32 11 62 l4 55 299 0 c232 0 299
-3 300 -12z"/>
<path d="M292 3529 c-37 -14 -46 -38 -45 -125 0 -130 -6 -127 240 -128 l198
-1 27 26 c24 24 27 34 27 90 -1 91 -15 129 -48 135 -39 8 -379 10 -399 3z
m411 -28 c13 -10 17 -31 17 -97 0 -116 6 -114 -237 -111 -138 1 -196 6 -204
14 -8 8 -15 47 -17 92 -5 121 -10 118 230 117 149 -1 199 -4 211 -15z"/>
<path d="M340 3441 c0 -5 6 -11 14 -14 10 -4 11 -17 6 -51 -4 -25 -3 -46 1
-46 12 0 17 12 20 50 2 19 7 40 12 47 12 16 38 5 36 -16 -1 -9 -1 -31 0 -48 1
-27 5 -33 23 -33 17 0 19 3 10 12 -16 16 -16 80 0 96 9 9 -3 12 -55 12 -37 0
-67 -4 -67 -9z"/>
<path d="M608 2862 l-438 -2 0 -60 c0 -33 -2 -60 -4 -60 -2 0 -20 7 -39 15
-20 8 -40 15 -45 15 -29 0 -43 -126 -21 -189 12 -34 28 -35 75 -5 12 7 24 10
28 7 3 -4 6 -35 6 -70 l0 -63 38 0 c652 -7 852 -4 853 10 5 87 0 392 -7 398
-5 4 -206 6 -446 4z m437 -205 c0 -98 -3 -181 -8 -184 -6 -4 -666 -7 -819 -4
-27 1 -28 3 -28 50 0 27 -3 56 -6 65 -8 21 -38 20 -70 -1 -35 -22 -44 -7 -44
77 0 88 8 99 55 77 49 -24 65 -10 65 54 l0 49 427 -2 428 -3 0 -178z"/>
<path d="M272 2765 c-22 -19 -24 -29 -25 -108 -1 -137 -26 -128 365 -129 358
-1 363 0 374 60 11 60 -1 161 -22 177 -23 18 -5 17 -369 18 -289 2 -301 1
-323 -18z m681 -14 c25 -20 24 -172 0 -193 -15 -13 -67 -15 -341 -14 -380 1
-353 -8 -349 118 2 64 6 83 21 93 26 20 646 16 669 -4z"/>
<path d="M354 2716 c-10 -8 -16 -18 -11 -22 4 -4 13 -2 19 4 17 17 48 15 55
-4 4 -11 -8 -28 -36 -54 -22 -21 -41 -43 -41 -49 0 -7 20 -11 50 -11 28 0 50
5 50 10 0 6 -17 10 -37 10 l-37 0 37 38 c20 21 37 45 37 53 0 37 -49 51 -86
25z"/>
<path d="M476 2685 c4 -8 10 -15 15 -15 14 0 11 -20 -6 -37 -9 -8 -13 -18 -10
-21 3 -3 13 1 22 10 14 15 18 15 39 1 26 -17 33 -3 9 17 -14 12 -14 15 1 31
22 24 11 37 -12 15 -15 -15 -18 -15 -33 -1 -22 19 -32 19 -25 0z"/>
<path d="M590 2691 c0 -5 6 -11 14 -14 10 -4 12 -16 6 -46 -4 -23 -3 -44 1
-47 11 -7 18 11 21 56 3 38 14 51 35 43 8 -3 13 -22 13 -54 0 -44 2 -49 22
-49 17 0 19 3 10 12 -16 16 -16 80 0 96 9 9 -3 12 -55 12 -37 0 -67 -4 -67 -9z"/>
<path d="M174 2111 c-2 -2 -4 -31 -4 -63 0 -32 -3 -58 -7 -58 -5 1 -19 7 -33
15 -57 33 -78 8 -78 -95 0 -107 19 -125 85 -84 12 8 25 14 28 14 3 0 5 -31 5
-70 l0 -70 70 0 c39 0 153 0 255 0 102 0 203 0 225 0 l40 0 0 205 0 204 -291
3 c-160 2 -293 1 -295 -1z m566 -206 l0 -185 -275 0 -275 0 0 60 c0 71 -13 82
-67 56 -46 -22 -53 -13 -53 74 0 89 8 99 59 75 23 -10 44 -15 48 -12 3 4 8 32
11 62 l4 55 274 0 274 0 0 -185z"/>
<path d="M304 2032 c-43 -6 -56 -34 -57 -127 -2 -127 -1 -127 199 -129 167 -2
208 4 224 34 6 10 10 55 10 99 0 96 -16 120 -77 122 -142 3 -281 4 -299 1z
m339 -26 c19 -9 19 -8 22 -99 2 -53 -1 -72 -16 -91 -19 -24 -21 -24 -189 -23
-123 2 -173 6 -182 15 -13 13 -22 151 -11 179 3 8 15 18 26 22 26 10 326 7
350 -3z"/>
<path d="M361 1909 c-31 -29 -26 -73 9 -76 15 -1 18 0 7 3 -14 4 -17 13 -13
36 5 33 22 56 32 45 4 -4 1 -13 -6 -22 -7 -8 -8 -15 -2 -15 15 0 35 28 27 40
-10 16 -29 12 -54 -11z"/>
<path d="M208 1362 l-38 -3 0 -60 c0 -32 -3 -59 -7 -59 -5 1 -19 7 -33 15 -38
22 -56 18 -70 -15 -16 -39 -9 -155 11 -175 13 -13 19 -13 54 5 22 11 41 20 42
20 2 0 3 -31 3 -70 l0 -70 325 0 325 0 1 118 c1 155 -2 286 -5 290 -4 4 -563
8 -608 4z m592 -207 l0 -185 -305 0 -305 0 0 54 c0 36 -5 60 -15 70 -14 14
-19 13 -47 -4 -46 -28 -58 -13 -58 69 0 91 7 100 59 76 23 -10 44 -15 48 -12
3 4 8 32 11 62 l4 55 304 0 304 0 0 -185z"/>
<path d="M309 1282 c-49 -6 -62 -32 -61 -128 0 -129 -5 -127 224 -126 100 0
193 1 206 1 46 2 62 33 62 125 0 132 4 129 -221 130 -101 1 -196 0 -210 -2z
m402 -29 c23 -23 15 -199 -9 -204 -4 -1 -97 -3 -206 -4 -235 -2 -234 -2 -235
92 -1 82 7 113 32 123 35 13 404 7 418 -7z"/>
<path d="M357 1178 c-40 -22 -8 -90 32 -68 15 8 26 7 41 -2 18 -11 23 -10 36
6 18 26 18 41 -2 61 -15 14 -18 14 -40 0 -13 -8 -24 -11 -24 -6 0 14 -25 20
-43 9z m37 -24 c3 -9 4 -20 0 -25 -8 -13 -32 -11 -37 4 -11 32 25 53 37 21z
m64 -12 c3 -17 -2 -22 -17 -22 -14 0 -21 6 -21 18 0 38 33 41 38 4z"/>
<path d="M154 609 c-4 -8 -3 -9 4 -5 9 5 12 -10 12 -53 0 -34 -3 -61 -7 -61
-5 1 -19 7 -33 15 -34 19 -56 19 -66 -2 -11 -26 -21 -143 -12 -143 5 0 8 -8 8
-19 0 -34 23 -42 63 -22 20 10 39 16 42 13 3 -3 5 -34 5 -69 l0 -63 558 0
c306 0 667 0 802 -1 452 0 442 0 437 14 -2 6 0 20 5 29 5 10 5 18 1 18 -10 0
-9 212 1 228 4 7 4 12 -1 12 -4 0 -8 25 -7 55 l1 55 -91 0 c-50 0 -437 0 -861
0 -831 -2 -835 -1 -846 6 -4 2 -11 -1 -15 -7z m1154 -19 c20 0 22 -5 22 -50 0
-54 -3 -56 -40 -35 -38 22 -56 18 -70 -15 -16 -39 -9 -155 11 -175 13 -13 19
-13 51 4 21 10 40 16 43 13 3 -3 5 -29 5 -59 l0 -53 -569 0 -569 0 -4 61 c-5
72 -18 84 -64 57 -32 -19 -33 -19 -43 1 -14 24 -14 131 -1 151 8 13 14 12 46
-5 35 -19 36 -19 50 0 8 10 14 38 14 61 l0 43 53 3 c38 2 755 1 1065 -2z m575
1 l67 -1 0 -185 0 -185 -300 0 -300 0 0 44 c0 25 -4 56 -10 71 l-10 26 -41
-22 c-52 -26 -59 -18 -59 71 0 89 9 101 56 75 35 -19 36 -19 50 0 8 10 14 38
14 62 l0 42 93 3 c50 2 155 2 232 1 77 -1 170 -2 208 -2z"/>
<path d="M292 529 c-36 -14 -45 -38 -45 -125 -1 -137 -37 -127 453 -128 486 0
451 -9 453 119 2 59 -2 85 -15 106 -17 28 -20 29 -100 30 -593 3 -732 3 -746
-2z m832 -34 c22 -30 16 -173 -8 -190 -13 -10 -107 -13 -409 -13 -216 -1 -399
1 -408 4 -25 7 -38 51 -37 123 1 104 -30 97 441 97 394 -1 407 -2 421 -21z"/>
<path d="M417 493 c-4 -3 -7 -20 -7 -36 0 -24 -3 -27 -14 -18 -20 17 -46 -12
-46 -52 0 -44 10 -56 48 -55 l32 1 0 84 c0 83 -1 89 -13 76z m-9 -103 c4 -37
-12 -60 -29 -43 -15 15 -18 45 -7 66 14 27 33 15 36 -23z"/>
<path d="M450 410 l0 -80 28 0 c15 0 33 5 40 12 15 15 16 54 2 63 -7 4 -7 13
0 26 16 29 -4 59 -40 59 l-30 0 0 -80z m58 42 c2 -15 -2 -22 -12 -22 -9 0 -19
-1 -23 -2 -8 -4 -14 33 -6 44 10 17 38 3 41 -20z m-1 -53 c20 -20 -6 -62 -32
-53 -12 5 -16 29 -9 52 4 15 26 16 41 1z"/>
<path d="M790 441 c0 -5 7 -14 15 -21 14 -12 14 -15 -1 -31 -22 -25 -10 -37
15 -15 16 15 19 15 31 1 20 -24 34 -17 17 9 -14 21 -14 25 1 39 22 23 7 34
-17 13 -17 -15 -20 -15 -34 -1 -17 17 -27 19 -27 6z"/>
<path d="M695 380 c4 -6 -17 -11 -52 -12 l-58 -2 53 -3 c28 -2 52 -9 52 -15 0
-7 5 -6 15 2 19 16 19 26 -1 34 -8 3 -12 2 -9 -4z"/>
<path d="M1593 473 c-15 -6 -17 -33 -3 -33 6 0 10 5 10 10 0 17 40 11 47 -7 4
-11 -5 -27 -29 -48 -57 -52 -56 -65 2 -65 28 0 50 5 50 10 0 6 -17 10 -37 10
l-38 0 38 36 c38 36 46 61 25 82 -12 12 -43 15 -65 5z"/>
<path d="M1723 432 c-41 -60 -41 -70 -2 -67 24 2 33 -2 36 -16 7 -25 23 -24
23 2 0 11 5 17 10 14 6 -3 10 -1 10 4 0 6 -4 11 -10 11 -5 0 -10 23 -10 50 0
64 -15 64 -57 2z m37 -17 c0 -31 -3 -35 -25 -35 l-25 0 22 35 c13 19 24 35 26
35 1 0 2 -16 2 -35z"/>
<path d="M1500 390 c0 -5 11 -10 25 -10 14 0 25 5 25 10 0 6 -11 10 -25 10
-14 0 -25 -4 -25 -10z"/>
</g>
</svg>
