<?xml version="1.0" standalone="no"?>
<!DOCTYPE svg PUBLIC "-//W3C//DTD SVG 20010904//EN"
 "http://www.w3.org/TR/2001/REC-SVG-20010904/DTD/svg10.dtd">
<svg version="1.0" xmlns="http://www.w3.org/2000/svg"
 width="1207.000000pt" height="226.000000pt" viewBox="0 0 1207.000000 226.000000"
 preserveAspectRatio="xMidYMid meet">
<metadata>
Created by potrace 1.16, written by Peter Selinger 2001-2019
</metadata>
<g transform="translate(0.000000,226.000000) scale(0.100000,-0.100000)"
fill="#000000" stroke="none">
<path d="M516 1707 c0 -57 -3 -113 -7 -125 -8 -22 -10 -22 -39 -7 -17 9 -39
24 -48 33 -20 20 -87 28 -97 13 -3 -6 -11 -9 -16 -5 -5 3 -9 2 -7 -3 1 -4 -4
-27 -11 -51 -14 -50 -16 -223 -2 -270 5 -18 10 -36 10 -40 1 -4 8 -15 16 -24
19 -23 62 -22 100 2 78 50 85 52 93 33 4 -10 7 -208 7 -440 l0 -423 5121 0
c4870 0 5122 1 5125 18 2 9 4 325 3 702 l-1 685 -5124 3 -5124 2 1 -103z
m10214 -602 l0 -675 -5090 0 -5090 0 -1 388 c0 213 -2 402 -4 420 -7 70 -46
79 -125 31 -60 -37 -81 -35 -97 11 -15 45 -15 235 0 280 15 44 38 48 88 15 63
-41 85 -47 109 -27 23 19 28 45 29 160 l1 72 5090 0 5090 0 0 -675z"/>
<path d="M999 1648 c-1 -7 -2 -49 -4 -93 -3 -131 -4 -135 -20 -135 -8 0 -37
14 -63 30 -114 70 -154 22 -154 -184 0 -169 35 -232 110 -200 18 7 46 23 62
34 32 23 59 26 61 8 1 -7 2 -133 3 -280 1 -147 5 -270 8 -274 4 -3 325 -6 715
-6 389 1 1696 1 2904 1 l2195 1 0 553 -1 552 -2907 3 c-2323 2 -2908 0 -2909
-10z m1551 -100 c0 -96 -7 -128 -26 -128 -8 0 -36 14 -64 31 -59 37 -95 35
-124 -4 -18 -25 -21 -45 -24 -151 -7 -224 35 -280 151 -206 56 36 73 37 80 9
3 -12 6 -133 7 -270 l1 -249 -103 0 c-450 -2 -1412 0 -1414 3 -2 2 -4 114 -4
249 -1 136 -5 259 -9 274 -4 15 -16 33 -27 41 -18 12 -28 9 -87 -22 -76 -40
-83 -42 -96 -17 -21 40 -29 181 -16 267 7 42 31 88 43 82 4 -2 35 -21 69 -41
99 -59 120 -35 122 142 l1 72 760 0 760 0 0 -82z m4232 70 c3 -11 2 -1006 -1
-1030 -1 -5 -946 -8 -2101 -8 l-2100 0 -1 248 c-1 274 -2 289 -27 315 -18 17
-21 16 -90 -19 -39 -20 -78 -34 -86 -31 -25 10 -34 65 -32 192 2 171 18 191
105 136 66 -42 84 -45 107 -20 16 17 20 40 22 125 l4 104 2098 0 c1669 0 2099
-3 2102 -12z"/>
<path d="M1224 1346 c-17 -8 -41 -29 -52 -49 -20 -31 -22 -48 -22 -193 0 -180
10 -213 75 -240 53 -22 843 -21 888 1 66 32 72 51 72 240 0 154 -2 173 -20
197 -42 58 -45 58 -497 58 -324 -1 -420 -4 -444 -14z m898 -45 l33 -29 3 -161
3 -162 -34 -34 -35 -35 -416 0 c-273 0 -423 4 -438 11 -52 24 -58 46 -59 207
0 98 4 158 12 176 25 55 28 55 481 56 l418 0 32 -29z"/>
<path d="M1413 1195 c-11 -8 -28 -36 -37 -62 -20 -59 -20 -63 3 -63 15 0 21
10 26 39 7 44 30 70 46 54 5 -5 18 -39 28 -76 31 -112 66 -142 110 -98 28 28
53 121 32 121 -14 0 -28 -23 -35 -57 -4 -17 -13 -36 -20 -42 -20 -16 -33 5
-53 83 -14 60 -49 116 -70 116 -5 0 -18 -7 -30 -15z"/>
<path d="M3030 1421 c0 -105 -8 -151 -26 -151 -7 0 -35 14 -62 31 -60 37 -96
36 -126 -4 -19 -26 -21 -42 -21 -165 0 -75 3 -149 8 -164 18 -65 67 -75 140
-28 26 16 54 30 61 30 19 0 26 -46 26 -166 l0 -104 640 0 640 0 0 405 0 405
-640 0 -640 0 0 -89z m1245 -316 l0 -370 -606 -3 -607 -2 -4 119 c-6 168 -23
184 -129 119 -87 -53 -102 -37 -107 120 -4 126 8 199 35 209 9 4 30 -2 47 -12
137 -82 154 -70 155 113 l1 82 608 -2 607 -3 0 -370z"/>
<path d="M3251 1342 c-61 -33 -71 -67 -71 -234 0 -183 13 -221 85 -248 16 -6
179 -10 401 -10 414 0 422 1 465 61 23 32 24 41 23 196 0 148 -2 165 -20 190
-46 62 -51 63 -469 63 -349 0 -383 -1 -414 -18z m819 -27 c16 -8 35 -25 42
-38 17 -32 19 -303 1 -339 -28 -57 -37 -58 -448 -58 -410 0 -419 1 -444 57
-14 31 -14 305 0 336 25 56 31 56 442 57 318 0 383 -2 407 -15z"/>
<path d="M3367 1183 c-14 -13 -6 -22 21 -25 24 -3 27 -7 27 -38 0 -40 -11
-121 -20 -150 -5 -15 -2 -20 14 -20 11 0 22 4 25 8 7 11 16 94 18 154 l1 48
43 0 44 0 0 -93 c0 -102 7 -117 52 -117 33 0 39 25 8 33 -18 5 -20 14 -20 91
0 85 0 86 25 86 16 0 25 6 25 15 0 13 -21 15 -128 15 -71 0 -132 -3 -135 -7z"/>
<path d="M5639 1433 c-1 -43 -1 -82 1 -88 4 -24 -12 -75 -25 -75 -8 0 -36 14
-62 30 -114 73 -154 19 -150 -200 2 -113 5 -132 23 -157 30 -40 66 -41 126 -4
54 34 77 39 79 16 1 -8 3 -19 4 -25 1 -5 3 -60 4 -120 l1 -110 438 2 437 3 1
403 1 402 -439 0 -438 0 -1 -77z m845 -320 c-1 -203 -2 -371 -3 -375 0 -5
-183 -8 -405 -8 l-404 0 -4 119 c-4 168 -22 185 -130 118 -58 -35 -80 -32 -94
13 -15 47 -18 219 -4 270 17 63 27 63 128 6 23 -13 52 -22 62 -19 27 7 40 60
40 161 l0 82 408 0 407 0 -1 -367z"/>
<path d="M6010 1232 c-16 -17 -30 -35 -30 -41 0 -20 32 -11 56 14 17 18 31 24
49 21 38 -7 45 -15 45 -50 0 -28 -10 -43 -58 -87 -66 -62 -92 -96 -92 -121 0
-16 11 -18 100 -18 82 0 100 3 100 15 0 16 -7 17 -97 18 -29 0 -53 5 -53 11 0
5 32 40 70 77 64 60 70 70 70 106 0 51 -25 75 -85 80 -39 4 -48 1 -75 -25z"/>
<path d="M4501 1343 c-68 -35 -74 -54 -76 -225 -2 -173 9 -212 68 -248 30 -19
52 -20 384 -20 193 0 362 4 375 9 32 12 61 41 76 74 8 18 12 80 12 173 0 160
-8 193 -58 229 -26 19 -45 20 -387 23 -328 2 -363 1 -394 -15z m771 -42 l33
-29 0 -167 0 -167 -33 -29 -32 -29 -351 0 c-376 0 -393 2 -420 53 -15 26 -19
276 -7 325 6 21 21 40 41 52 30 19 52 20 384 20 l353 0 32 -29z"/>
<path d="M4690 1180 c0 -13 7 -20 20 -20 13 0 20 7 20 20 0 13 -7 20 -20 20
-13 0 -20 -7 -20 -20z"/>
<path d="M4602 1098 c3 -9 37 -14 111 -16 91 -2 107 0 107 13 0 13 -18 15
-111 15 -84 0 -110 -3 -107 -12z"/>
<path d="M4690 1020 c0 -13 7 -20 20 -20 13 0 20 7 20 20 0 13 -7 20 -20 20
-13 0 -20 -7 -20 -20z"/>
<path d="M8347 1512 l-188 -2 1 -83 c3 -173 0 -178 -79 -127 -69 44 -109 40
-136 -15 -29 -58 -29 -271 0 -330 18 -37 23 -40 60 -39 26 0 55 10 82 28 68
45 73 37 73 -114 l0 -130 1150 0 c913 0 1150 3 1151 13 1 6 2 187 3 401 1 251
-3 390 -9 392 -12 5 -1848 10 -2108 6z m1238 -122 c1 -136 -3 -140 -82 -90
-111 71 -155 20 -154 -181 1 -202 42 -250 154 -179 80 51 83 46 82 -110 l0
-95 -697 -3 -698 -2 1 57 c2 154 -1 183 -21 203 -19 19 -23 19 -56 5 -19 -8
-48 -24 -65 -35 -66 -47 -92 -4 -93 154 -1 121 14 186 42 186 9 0 42 -15 72
-33 103 -62 122 -40 122 143 0 30 2 58 4 61 2 3 315 5 696 5 l693 -1 0 -85z
m845 -285 l0 -375 -407 0 -408 0 0 119 c0 100 -3 122 -18 139 -22 24 -42 20
-110 -20 -88 -52 -100 -38 -105 126 -4 133 9 198 41 204 10 2 36 -8 58 -23 64
-42 85 -47 110 -27 21 18 26 53 29 210 l0 22 405 0 405 0 0 -375z"/>
<path d="M8379 1337 c-59 -39 -66 -66 -65 -240 2 -170 7 -190 69 -228 31 -18
49 -19 399 -17 l366 3 27 25 c47 43 55 77 55 227 0 116 -3 143 -20 178 -36 74
-41 75 -444 75 -350 0 -353 0 -387 -23z m788 -40 l28 -27 0 -166 0 -166 -33
-29 -32 -29 -353 0 c-328 0 -354 1 -383 19 -17 11 -36 32 -41 48 -15 41 -10
302 5 330 28 51 40 53 424 50 l358 -2 27 -28z"/>
<path d="M8667 1217 c-14 -45 -33 -109 -42 -142 -10 -33 -20 -63 -24 -68 -4
-4 -17 24 -30 63 -21 66 -24 70 -52 70 -19 0 -29 -5 -29 -14 0 -9 7 -13 19
-11 15 3 24 -11 47 -81 16 -46 34 -86 41 -88 8 -4 23 29 43 97 17 56 42 134
55 174 18 56 20 73 10 77 -9 3 -21 -20 -38 -77z"/>
<path d="M9970 1247 c-34 -27 -48 -58 -44 -100 8 -75 79 -110 140 -70 l25 16
-6 -29 c-16 -71 -67 -102 -104 -65 -27 27 -51 28 -44 1 12 -46 86 -66 131 -34
34 23 54 72 57 134 2 69 -10 108 -42 138 -27 25 -87 30 -113 9z m89 -31 c7 -8
16 -28 21 -45 7 -24 4 -35 -12 -56 -46 -59 -122 -5 -101 73 9 35 71 54 92 28z"/>
<path d="M7011 1343 c-69 -36 -75 -55 -77 -229 -1 -175 6 -202 66 -242 l34
-23 376 3 c358 3 376 4 398 23 48 41 55 69 55 230 0 165 -7 192 -56 229 -27
20 -41 21 -395 24 -335 2 -370 1 -401 -15z m767 -27 c48 -25 56 -53 55 -211 0
-104 -4 -152 -13 -171 -29 -53 -40 -54 -425 -54 -458 0 -433 -13 -430 230 0
74 5 145 9 158 4 13 22 32 39 43 30 18 54 19 385 19 285 0 358 -3 380 -14z"/>
<path d="M7141 1187 c-8 -10 -2 -21 24 -47 19 -19 35 -37 35 -41 0 -4 -16 -22
-35 -40 -27 -26 -32 -36 -23 -46 9 -11 18 -7 50 24 l38 37 38 -37 c35 -34 52
-39 52 -15 0 5 -16 24 -35 43 l-35 33 35 35 c19 19 35 40 35 46 0 21 -26 11
-60 -24 l-33 -34 -37 39 c-30 32 -40 37 -49 27z"/>
</g>
</svg>
