<?xml version="1.0" standalone="no"?>
<!DOCTYPE svg PUBLIC "-//W3C//DTD SVG 20010904//EN"
 "http://www.w3.org/TR/2001/REC-SVG-20010904/DTD/svg10.dtd">
<svg version="1.0" xmlns="http://www.w3.org/2000/svg"
 width="1288.000000pt" height="218.000000pt" viewBox="0 0 1288.000000 218.000000"
 preserveAspectRatio="xMidYMid meet">
<metadata>
Created by potrace 1.16, written by Peter Selinger 2001-2019
</metadata>
<g transform="translate(0.000000,218.000000) scale(0.100000,-0.100000)"
fill="#000000" stroke="none">
<path d="M820 1581 c0 -122 -4 -151 -22 -151 -6 0 -34 14 -62 31 -89 55 -122
55 -150 1 -42 -82 -37 -328 8 -394 28 -42 59 -40 137 8 31 19 61 34 67 34 19
0 22 -47 22 -373 l0 -327 2512 2 2511 3 1 610 c1 336 -1 625 -3 643 l-3 32
-2509 0 -2509 0 0 -119z m4983 80 c4 0 6 -274 5 -608 l-3 -608 -2472 0 c-1360
0 -2474 2 -2474 5 -1 3 -2 145 -3 315 -2 249 -5 316 -17 340 -21 44 -56 44
-121 1 -103 -70 -123 -42 -123 174 0 113 3 140 18 163 22 34 32 34 92 -4 28
-17 66 -34 86 -36 33 -5 37 -2 49 27 8 19 14 73 15 124 0 50 3 96 7 101 4 7
835 10 2470 9 1354 -1 2466 -2 2471 -3z"/>
<path d="M1350 1434 c0 -122 -7 -164 -28 -164 -8 0 -37 14 -64 30 -68 42 -101
47 -126 22 -30 -30 -44 -93 -47 -200 -2 -113 10 -186 37 -225 18 -25 26 -28
53 -24 17 3 54 19 82 36 89 55 90 53 93 -173 0 -82 2 -152 4 -155 2 -3 303 -6
668 -6 l663 0 3 478 c1 262 -1 478 -5 478 -5 1 -306 2 -670 3 l-663 1 0 -101z
m1306 -369 c0 -236 -2 -436 -4 -443 -3 -9 -140 -12 -637 -12 l-632 0 -1 151
c-1 223 -21 252 -127 185 -74 -48 -95 -50 -116 -9 -20 39 -24 246 -6 313 16
60 43 63 117 15 103 -66 129 -40 132 130 l2 105 635 -2 636 -3 1 -430z"/>
<path d="M1605 1356 c-34 -15 -66 -49 -81 -86 -6 -15 -10 -109 -10 -226 l1
-201 29 -38 c51 -66 51 -66 491 -63 382 3 394 4 422 24 62 47 67 68 67 290 -1
221 -5 242 -67 288 -28 20 -39 21 -425 23 -316 2 -403 0 -427 -11z m832 -42
c49 -37 53 -54 53 -259 0 -207 -4 -225 -55 -260 -30 -19 -45 -20 -410 -20
-412 0 -427 2 -458 54 -14 25 -17 59 -17 225 0 125 4 204 11 220 7 14 28 33
48 43 33 17 71 18 418 18 371 0 383 -1 410 -21z"/>
<path d="M1730 1138 c-1 -7 -2 -88 -3 -181 l-2 -167 23 0 c21 0 22 4 22 64 l0
65 28 -15 c43 -22 80 -17 113 15 29 29 34 51 30 126 -3 66 -38 105 -92 105
-23 0 -61 -18 -71 -34 -5 -6 -8 -1 -8 12 0 15 -6 22 -20 22 -11 0 -20 -6 -20
-12z m152 -47 c12 -15 18 -39 18 -71 0 -111 -106 -141 -126 -35 -19 103 53
173 108 106z"/>
<path d="M4174 1531 c-2 -2 -4 -55 -4 -117 0 -160 -5 -166 -86 -115 -133 85
-180 26 -172 -218 6 -208 43 -248 162 -176 51 30 81 42 88 33 1 -2 4 -84 7
-183 l6 -180 660 -1 c363 0 665 3 670 7 6 5 10 173 9 476 -1 257 -2 470 -3
473 -1 6 -1331 7 -1337 1z m1306 -476 l0 -445 -635 0 c-501 0 -635 3 -636 13
0 6 -1 77 -3 157 -1 89 -7 153 -14 167 -21 38 -48 38 -113 -2 -83 -51 -97 -52
-116 -7 -12 28 -16 70 -16 167 0 199 16 221 124 162 37 -20 74 -37 83 -37 33
0 49 46 52 158 2 59 3 108 3 110 1 1 287 2 636 2 l635 0 0 -445z"/>
<path d="M4445 1363 c-32 -8 -74 -42 -90 -73 -12 -23 -15 -73 -15 -238 0 -201
1 -210 23 -243 46 -68 47 -68 481 -68 380 0 391 0 428 21 68 39 78 75 78 293
0 218 -10 254 -78 293 -37 21 -48 21 -423 20 -211 0 -393 -2 -404 -5z m811
-46 c51 -27 58 -59 58 -268 0 -202 -4 -224 -53 -256 -23 -15 -65 -17 -411 -18
-427 -1 -430 0 -462 65 -15 29 -18 64 -18 215 0 151 3 186 18 215 32 65 35 65
457 65 333 -1 384 -3 411 -18z"/>
<path d="M4587 1139 c-61 -36 -60 -205 1 -238 29 -15 75 -14 98 4 10 8 21 15
24 15 3 0 5 -29 4 -65 -2 -61 0 -65 21 -65 l23 0 -1 181 c0 177 0 180 -21 177
-12 -2 -20 -9 -18 -16 3 -16 -8 -15 -32 3 -23 17 -73 19 -99 4z m103 -39 c19
-19 24 -44 21 -100 -4 -59 -48 -93 -91 -70 -25 13 -34 44 -32 105 1 38 7 54
23 68 28 22 54 22 79 -3z"/>
<path d="M2893 1345 c-68 -41 -75 -74 -71 -311 3 -216 5 -222 67 -270 25 -18
45 -19 443 -19 405 0 417 1 445 21 15 11 37 38 48 60 18 35 20 57 19 234 -1
217 -7 239 -66 282 l-33 23 -405 3 -405 2 -42 -25z m864 -31 c49 -37 53 -54
53 -259 0 -207 -4 -225 -56 -260 -29 -20 -43 -20 -425 -20 -349 0 -399 2 -421
17 -48 32 -54 61 -53 270 1 185 2 195 23 226 13 17 37 35 53 39 16 5 203 8
414 8 373 0 385 -1 412 -21z"/>
<path d="M3128 1156 c0 -6 -1 -29 -2 -51 -1 -40 -1 -40 -41 -40 -22 0 -46 -4
-53 -8 -23 -15 -2 -27 47 -27 l48 0 -1 -50 c-1 -42 1 -50 16 -50 15 0 18 9 18
50 l0 50 50 0 c42 0 50 3 50 18 0 16 -8 18 -50 17 l-50 -2 0 52 c0 39 -4 52
-15 52 -8 0 -16 -5 -17 -11z"/>
</g>
</svg>
