<?xml version="1.0" standalone="no"?>
<!DOCTYPE svg PUBLIC "-//W3C//DTD SVG 20010904//EN"
 "http://www.w3.org/TR/2001/REC-SVG-20010904/DTD/svg10.dtd">
<svg version="1.0" xmlns="http://www.w3.org/2000/svg"
 width="1316.000000pt" height="805.000000pt" viewBox="0 0 1316.000000 805.000000"
 preserveAspectRatio="xMidYMid meet">
<metadata>
Created by potrace 1.16, written by Peter Selinger 2001-2019
</metadata>
<g transform="translate(0.000000,805.000000) scale(0.100000,-0.100000)"
fill="#000000" stroke="none">
<path d="M380 7641 c0 -109 -5 -118 -52 -86 -45 31 -84 41 -102 26 -18 -15
-29 -75 -31 -161 -1 -81 10 -130 37 -152 18 -16 23 -16 56 -2 20 8 44 22 54
30 9 9 22 13 27 9 8 -4 11 -1051 11 -3526 l0 -3519 890 0 890 1 0 347 c0 191
0 476 0 635 l-1 287 521 0 520 0 0 83 c1 45 2 188 3 317 l2 235 873 -1 c479 0
873 3 873 6 1 3 2 57 3 120 1 63 5 120 9 127 4 6 4 14 0 16 -6 4 -10 304 -4
352 1 8 1010 11 3311 10 1820 0 3310 2 3311 5 4 24 3 874 -2 881 -3 5 -1336 9
-3315 9 l-3309 0 1 292 c1 161 2 299 3 306 1 9 811 12 4014 12 l4013 0 -1 368
c-1 211 3 372 8 380 6 7 6 12 0 12 -6 0 -9 29 -8 64 1 40 -2 66 -9 68 -6 2
-1560 3 -3453 3 -2236 -1 -3440 2 -3436 8 4 6 1 7 -8 1 -8 -5 -390 -9 -899
-10 l-885 0 0 315 0 316 -460 1 c-253 1 -466 2 -472 3 -10 1 -13 71 -13 316
l0 315 -500 0 -500 0 0 318 0 317 -423 0 -422 0 -5 316 -5 316 -557 0 -558 1
0 -87z m1095 -330 c-1 -213 -5 -393 -9 -399 -5 -8 -19 -4 -44 11 -71 45 -93
44 -118 -5 -20 -39 -22 -214 -3 -254 25 -49 43 -52 104 -20 30 17 57 27 61 23
8 -8 8 -5282 0 -5296 -5 -7 -20 -3 -44 13 -57 35 -81 40 -102 21 -22 -20 -33
-77 -32 -165 2 -80 7 -106 27 -136 20 -31 36 -30 95 3 27 15 52 24 56 21 3 -4
6 -69 6 -145 -1 -286 3 -272 -54 -232 -17 12 -46 22 -66 23 -34 1 -37 -2 -50
-39 -19 -57 -17 -207 4 -250 20 -42 37 -44 105 -9 28 14 53 23 55 21 7 -7 10
-188 3 -198 -6 -11 -1046 -15 -1057 -4 -3 3 -6 1579 -7 3503 -1 1923 -5 3505
-9 3515 -11 23 -33 22 -88 -8 -26 -14 -51 -25 -56 -25 -17 0 -29 46 -31 122
-3 93 7 148 26 155 9 3 39 -7 69 -23 50 -27 55 -28 70 -12 11 11 17 37 19 85
2 37 4 74 4 81 1 9 115 12 534 12 l534 0 -2 -389z m849 -634 c-1 -235 -5 -392
-11 -398 -6 -6 -25 -1 -54 16 -93 53 -120 20 -120 -146 0 -157 31 -190 127
-134 29 17 45 22 50 14 8 -14 8 -4018 -1 -4027 -3 -4 -29 6 -56 22 -93 52
-122 17 -121 -148 1 -155 25 -184 116 -136 43 23 58 27 62 17 2 -7 3 -56 2
-108 l-3 -94 -70 1 c-38 1 -222 2 -407 3 l-338 1 0 2548 c0 2309 -1 2550 -16
2570 -18 26 -37 23 -95 -14 -20 -13 -41 -19 -48 -15 -32 20 -38 238 -7 269 14
14 20 13 64 -11 28 -15 57 -27 66 -27 24 0 36 41 36 121 l0 69 413 -2 412 -3
-1 -388z m997 -249 c7 -10 2 -778 -5 -785 -3 -4 -31 6 -62 22 -62 32 -79 28
-103 -19 -19 -41 -18 -214 3 -254 9 -17 21 -34 27 -38 6 -3 38 6 70 21 32 16
61 26 64 23 4 -4 8 -2304 5 -3140 l0 -68 -485 0 -485 0 0 28 c0 15 -1 881 -3
1924 -2 1704 -4 1899 -18 1913 -14 14 -21 13 -73 -16 -74 -39 -85 -31 -93 69
-7 85 3 156 23 177 13 13 21 11 68 -15 73 -42 87 -31 94 76 2 43 8 81 13 84
12 8 954 6 960 -2z m949 -1015 c0 -214 -4 -393 -8 -400 -6 -9 -19 -6 -51 12
-96 55 -126 23 -126 -135 0 -161 32 -201 116 -146 45 30 55 32 63 10 8 -21 8
-588 0 -608 -5 -14 -14 -12 -60 15 -52 29 -56 30 -79 15 -33 -21 -40 -52 -40
-166 0 -102 15 -152 48 -158 10 -2 40 8 68 23 27 14 54 23 59 20 12 -8 13
-365 1 -384 -7 -11 -17 -8 -53 13 -96 56 -123 25 -123 -139 0 -164 27 -195
123 -139 36 21 46 24 53 13 11 -18 11 -600 0 -617 -7 -11 -17 -9 -49 12 -94
59 -127 24 -127 -134 0 -162 34 -203 119 -145 59 40 66 31 66 -85 l0 -100
-460 0 -460 0 0 1595 c0 1188 -3 1601 -12 1620 -14 31 -31 31 -87 0 -23 -14
-49 -25 -56 -25 -22 0 -33 53 -30 151 3 140 10 148 93 104 26 -14 52 -25 58
-25 19 0 34 57 34 126 l0 64 460 0 460 0 0 -387z m1781 -255 c7 -11 2 -135 -6
-148 -4 -6 -24 0 -50 16 -97 56 -129 14 -123 -163 3 -82 7 -105 22 -122 25
-27 38 -26 97 6 27 14 52 23 56 19 4 -4 7 -105 8 -224 l0 -217 -880 0 -879 0
-1 215 c-1 277 -4 283 -107 226 l-46 -27 -16 23 c-12 16 -16 46 -16 109 0 156
13 176 84 134 82 -48 98 -33 100 96 l1 66 875 1 c543 0 877 -4 881 -10z m6907
-412 l-3 -421 -3437 -1 -3438 -1 0 211 c0 116 -3 221 -6 233 -9 34 -31 35 -92
3 -53 -28 -58 -29 -69 -13 -14 18 -15 24 -18 128 -2 71 7 121 24 138 6 6 27 0
57 -17 25 -14 55 -26 66 -26 26 0 38 38 38 119 l0 68 3440 0 3440 0 -2 -421z
m-8028 -751 l0 -305 -317 0 -318 0 -1 105 c0 86 -4 109 -18 123 -16 16 -20 15
-66 -10 -62 -35 -78 -35 -91 -1 -22 59 -10 239 17 250 8 3 34 -7 58 -21 79
-46 96 -32 101 81 2 43 4 79 4 81 1 1 143 2 316 2 l315 0 0 -305z m6625 -750
l0 -420 -3630 0 -3630 0 0 210 c-1 116 -5 220 -9 233 -10 29 -35 28 -94 -3
l-47 -25 -17 21 c-14 17 -18 40 -18 114 0 80 13 155 26 155 2 0 29 -13 60 -30
80 -43 95 -31 99 85 2 33 3 65 4 71 1 8 965 11 3629 10 l3627 -1 0 -420z
m-6625 -751 l0 -304 -317 2 -317 3 -2 104 c-2 138 -10 147 -93 103 -79 -41
-85 -34 -89 107 -3 93 -1 110 15 130 l19 23 56 -31 c51 -29 57 -30 72 -16 9 9
17 28 17 43 1 15 3 47 4 72 1 25 3 50 4 57 1 8 82 12 316 12 l315 0 0 -305z
m-1760 -333 c4 -1 6 -547 1 -591 -1 -13 -52 -15 -405 -15 -223 0 -408 3 -412
7 -4 4 -6 42 -5 83 3 89 -12 145 -39 145 -9 0 -39 -12 -65 -26 -41 -23 -48
-25 -61 -12 -32 32 -29 253 3 265 8 3 40 -6 71 -21 47 -24 57 -25 69 -13 14
14 21 61 22 142 l1 40 408 -1 c224 -1 409 -2 412 -3z m-1033 -936 l0 -305
-319 0 -318 0 0 84 c0 100 -8 146 -26 153 -8 3 -36 -7 -64 -21 -85 -44 -91
-38 -95 98 -4 148 15 179 84 133 78 -52 101 -30 101 94 l0 69 318 0 319 0 0
-305z m-4 -339 c2 -6 4 -143 3 -305 l-1 -293 -280 1 c-154 0 -296 1 -317 1
l-36 0 -4 105 c-4 138 -11 146 -92 105 -33 -16 -63 -27 -67 -24 -39 24 -31
284 9 284 4 0 25 -11 47 -25 48 -30 81 -32 95 -6 5 11 10 53 10 94 l0 74 315
0 c218 0 315 -4 318 -11z"/>
<path d="M715 7482 c-16 -11 -36 -26 -42 -34 -18 -21 -28 -78 -14 -78 6 0 11
9 11 20 0 11 13 34 29 52 26 29 35 33 81 33 46 0 55 -4 81 -33 16 -18 29 -41
29 -52 0 -11 5 -20 11 -20 16 0 3 59 -19 83 -43 48 -115 60 -167 29z"/>
<path d="M662 4298 l3 -153 48 -1 c26 0 50 3 53 8 3 4 -5 8 -18 8 -23 0 -23 1
-22 129 1 126 6 157 24 146 5 -3 11 -1 15 5 4 6 -14 10 -50 10 l-56 0 3 -152z
m48 -4 c0 -112 -2 -134 -15 -134 -18 0 -17 -6 -17 137 -1 115 5 149 22 138 6
-4 10 -61 10 -141z"/>
<path d="M920 4439 c0 -5 5 -7 10 -4 27 17 35 -15 35 -141 -1 -127 -1 -128
-25 -135 -14 -4 -23 -8 -20 -9 15 -7 100 -8 104 -1 4 6 9 246 7 289 -1 15
-111 17 -111 1z m94 -136 c-2 -153 -1 -143 -19 -143 -13 0 -15 22 -15 135 0
122 2 135 18 135 16 0 17 -12 16 -127z"/>
<path d="M830 4280 c0 -23 25 -27 33 -6 7 16 -1 26 -20 26 -7 0 -13 -9 -13
-20z"/>
<path d="M660 1290 c0 -5 12 -21 27 -34 l27 -25 -29 -31 c-19 -20 -26 -33 -19
-40 7 -7 20 0 39 20 l28 29 27 -31 c19 -21 29 -27 35 -19 4 8 -4 24 -20 41
l-26 28 25 25 c46 46 31 65 -16 20 l-28 -27 -28 27 c-29 28 -42 33 -42 17z"/>
<path d="M719 675 c-1 -6 0 -25 1 -42 1 -31 0 -33 -34 -33 -25 0 -36 -5 -36
-14 0 -10 10 -14 33 -13 30 2 32 0 35 -35 2 -21 7 -38 13 -38 10 0 12 12 9 48
-1 22 5 25 53 25 9 0 17 6 17 13 0 9 -12 14 -33 14 -31 0 -34 3 -35 31 -1 29
-21 66 -23 44z"/>
<path d="M1756 6808 c1 -40 3 -82 3 -92 1 -15 4 -17 12 -9 6 6 13 48 15 92 4
73 2 81 -14 81 -17 0 -18 -8 -16 -72z"/>
<path d="M1759 6677 c-8 -25 -5 -37 12 -37 22 0 26 25 4 34 -8 3 -15 4 -16 3z"/>
<path d="M1750 4435 c0 -8 6 -15 14 -15 8 0 19 -14 25 -30 9 -27 5 -42 -24
-110 -40 -89 -40 -90 -22 -90 8 0 27 30 42 67 l29 67 21 -65 c14 -40 28 -65
38 -67 10 -2 17 -2 17 0 0 9 -73 204 -85 229 -16 31 -55 41 -55 14z"/>
<path d="M1784 1945 c-5 -28 -11 -35 -30 -35 -13 0 -24 -4 -24 -10 0 -5 9 -10
20 -10 35 0 24 -48 -15 -65 -20 -8 -20 -9 1 -12 19 -4 21 -8 14 -39 -6 -24 -4
-34 4 -34 6 0 13 12 14 26 3 37 10 44 42 44 27 0 28 -1 20 -35 -10 -44 6 -46
18 -2 6 22 15 33 30 35 28 4 29 22 1 22 -15 0 -19 4 -15 16 3 9 6 22 6 30 0 8
9 14 20 14 11 0 20 5 20 10 0 6 -7 10 -16 10 -13 0 -15 7 -10 35 4 20 3 35 -2
35 -6 0 -13 -16 -16 -35 -6 -31 -11 -35 -37 -35 -29 0 -30 1 -23 35 4 22 2 35
-4 35 -6 0 -14 -16 -18 -35z m66 -69 c0 -32 -13 -46 -42 -46 -23 0 -29 4 -24
16 3 9 6 22 6 30 0 9 11 14 30 14 19 0 30 -5 30 -14z"/>
<path d="M2596 6261 c-3 -5 1 -11 9 -14 7 -3 21 -19 29 -35 14 -26 12 -33 -24
-115 -33 -74 -36 -87 -22 -87 12 0 25 19 41 60 13 33 27 60 30 60 4 0 15 -26
26 -57 13 -37 26 -59 37 -61 15 -3 12 13 -23 110 -22 62 -47 121 -56 130 -17
19 -39 23 -47 9z"/>
<path d="M2662 3957 l-23 -24 25 -17 c31 -20 42 -21 26 -1 -11 13 -2 15 69 15
44 0 81 4 81 8 0 4 -33 7 -72 7 -63 -1 -74 2 -78 18 -5 17 -7 17 -28 -6z"/>
<path d="M3637 5557 c-8 -12 -18 -37 -22 -56 -10 -45 14 -38 30 10 18 52 36
42 60 -34 25 -75 24 -74 45 -77 30 -5 38 1 54 34 20 43 20 66 1 66 -8 0 -15
-6 -15 -14 0 -8 -5 -27 -10 -41 -14 -37 -34 -19 -50 43 -22 88 -61 118 -93 69z"/>
<path d="M3604 4728 c39 -115 57 -121 99 -38 31 61 34 123 6 128 -12 2 -14 -5
-11 -32 2 -21 -4 -52 -18 -82 l-22 -49 -26 83 c-19 62 -29 82 -43 82 -15 0
-14 -10 15 -92z"/>
<path d="M3654 4109 c2 -24 -4 -34 -26 -47 -15 -9 -31 -25 -35 -37 -17 -53 8
-135 42 -135 14 0 21 -30 16 -67 -1 -7 5 -13 14 -13 16 0 19 9 15 47 -1 16 6
26 24 32 33 13 46 40 46 94 0 33 -6 49 -23 65 -13 12 -29 22 -35 22 -7 0 -12
15 -12 35 0 23 -5 35 -14 35 -9 0 -13 -10 -12 -31z m0 -137 c1 -34 -1 -62 -4
-62 -25 0 -40 72 -24 115 13 33 27 7 28 -53z m54 56 c23 -23 9 -118 -17 -118
-5 0 -9 29 -10 65 -1 65 5 75 27 53z"/>
<path d="M3600 3303 c0 -4 12 -20 27 -35 l27 -28 -29 -30 c-19 -20 -26 -33
-19 -40 7 -7 19 0 38 19 l28 29 30 -26 c28 -25 34 -28 41 -18 1 2 -10 18 -25
34 l-26 30 29 28 c19 19 26 31 19 38 -7 7 -20 0 -40 -19 l-30 -28 -24 26 c-24
26 -46 35 -46 20z"/>
<path d="M3660 2536 c0 -34 -2 -36 -35 -36 -23 0 -35 -5 -35 -14 0 -9 11 -13
33 -12 30 1 32 -1 35 -36 2 -24 8 -38 17 -38 10 0 12 10 9 35 -4 36 -4 36 45
39 41 2 38 26 -3 26 -27 0 -36 4 -37 18 -3 40 -5 45 -16 49 -9 3 -13 -7 -13
-31z"/>
<path d="M4454 4950 c-12 -4 -31 -21 -43 -36 -19 -24 -21 -39 -21 -170 0 -134
1 -145 23 -169 12 -14 36 -29 52 -33 17 -5 298 -8 625 -8 471 1 602 4 627 15
48 20 60 63 58 206 -2 137 -5 152 -43 180 -26 19 -44 20 -642 22 -338 1 -625
-2 -636 -7z m1273 -44 c22 -26 23 -35 23 -162 0 -130 -1 -136 -25 -159 l-24
-25 -618 0 c-653 1 -636 -1 -661 47 -15 26 -16 241 -2 277 19 52 13 51 671 50
l612 -1 24 -27z"/>
<path d="M4602 4753 c-2 -66 -4 -72 -24 -75 -15 -2 -23 -10 -23 -22 0 -24 16
-30 38 -13 15 10 17 25 14 97 l-3 85 -2 -72z"/>
<path d="M5210 4812 c0 -28 61 -177 73 -180 31 -6 88 112 79 166 -6 40 -32 26
-32 -18 0 -43 -23 -110 -38 -110 -5 0 -19 34 -31 75 -14 48 -28 75 -37 75 -8
0 -14 -4 -14 -8z"/>
<path d="M5084 4712 c6 -17 1 -19 -69 -17 -42 1 -78 -2 -81 -7 -3 -4 34 -8 82
-8 76 0 85 -2 74 -15 -18 -22 4 -19 23 3 22 24 22 27 -9 47 -25 16 -26 16 -20
-3z"/>
<path d="M7337 5073 c-4 -3 -7 -46 -7 -95 0 -60 -4 -88 -12 -88 -6 0 -35 12
-65 26 -51 26 -54 26 -73 9 -46 -42 -46 -263 0 -309 l20 -21 53 28 c29 15 58
27 64 27 9 0 13 -34 15 -117 l3 -118 438 0 437 0 0 332 0 333 -433 0 c-239 0
-437 -3 -440 -7z m849 -328 l0 -305 -413 0 -413 0 -1 88 c-1 98 -1 99 -12 130
-11 28 -32 28 -82 -3 -57 -35 -72 -32 -85 15 -12 46 -11 158 2 208 8 30 12 33
35 27 15 -3 40 -15 55 -27 40 -28 73 -18 82 23 3 17 6 58 6 90 l0 59 413 0
413 0 0 -305z"/>
<path d="M7622 4854 c-12 -8 -22 -22 -22 -30 0 -19 26 -18 34 1 3 9 18 15 40
15 27 0 36 -5 42 -22 7 -24 -17 -48 -48 -48 -10 0 -18 -7 -18 -15 0 -9 9 -15
23 -15 41 0 62 -30 45 -62 -13 -26 -74 -24 -88 2 -14 25 -30 26 -30 1 0 -41
74 -65 120 -41 32 17 43 48 30 81 -7 16 -19 29 -28 29 -12 0 -11 5 6 20 62 58
-34 135 -106 84z"/>
<path d="M7822 4847 c-24 -26 -37 -91 -28 -142 14 -71 84 -98 131 -50 31 30
32 73 4 109 -21 27 -71 36 -84 16 -9 -15 -25 -12 -25 5 0 9 11 27 25 41 25 25
26 25 55 8 35 -22 50 -12 25 16 -25 27 -76 26 -103 -3z m90 -110 c4 -36 4 -43
-4 -58 -12 -26 -46 -30 -67 -7 -11 11 -18 27 -16 36 2 9 4 23 4 30 2 32 79 31
83 -1z"/>
<path d="M8930 4991 c0 -50 -5 -93 -10 -96 -6 -4 -34 5 -63 20 -30 14 -61 23
-69 20 -29 -11 -43 -66 -43 -165 0 -156 29 -193 111 -145 68 40 73 34 76 -97
l3 -113 425 -1 c234 0 431 2 438 4 9 3 12 79 12 333 l0 329 -440 0 -440 0 0
-89z m853 -246 l0 -300 -411 -3 c-227 -1 -412 1 -413 5 -1 5 -2 52 -3 106 -2
77 -6 102 -20 115 -16 16 -20 15 -69 -11 -65 -34 -75 -34 -88 -1 -13 37 -13
176 1 219 14 42 22 43 75 10 77 -47 98 -29 99 86 l1 79 414 -2 413 -3 1 -300z"/>
<path d="M9196 4856 c4 -9 20 -14 47 -14 82 1 80 3 53 -40 -27 -43 -56 -122
-56 -152 0 -11 7 -20 15 -20 8 0 15 9 15 20 0 11 0 22 0 25 0 13 36 94 57 127
39 63 34 68 -57 68 -64 0 -78 -3 -74 -14z"/>
<path d="M9412 4850 c-12 -12 -22 -25 -22 -30 0 -19 24 -15 47 8 22 22 26 23
46 9 37 -25 32 -44 -32 -109 -34 -34 -61 -71 -61 -81 0 -16 8 -18 78 -15 85 3
103 22 22 24 -28 0 -53 4 -57 7 -3 4 19 31 50 60 42 39 57 60 57 80 0 60 -82
90 -128 47z"/>
<path d="M10597 5073 c-4 -3 -7 -46 -7 -95 0 -101 -2 -102 -74 -62 -44 24 -48
25 -71 10 -51 -33 -55 -260 -6 -309 l20 -21 60 31 c33 17 62 28 65 25 3 -3 6
-56 6 -119 0 -83 3 -113 13 -114 6 -1 162 -2 345 -3 l332 -1 0 332 0 333 -338
0 c-186 0 -342 -3 -345 -7z m658 -325 l0 -303 -318 -3 -317 -2 -1 90 c-2 97
-1 94 -13 128 -10 28 -31 28 -81 -3 -48 -29 -70 -31 -80 -7 -12 27 -14 193 -3
230 8 30 12 33 35 27 15 -3 39 -15 54 -26 36 -26 66 -24 76 4 10 29 11 32 12
105 l1 62 318 0 317 0 0 -302z"/>
<path d="M10898 4849 c-30 -22 -38 -45 -13 -35 8 3 21 9 29 12 11 4 14 -11 14
-80 -1 -86 -3 -90 -39 -87 -9 1 -19 -5 -23 -14 -5 -14 4 -15 72 -13 45 2 76 7
74 13 -1 6 -11 10 -22 10 -10 0 -21 3 -24 6 -3 3 -6 51 -7 107 -1 113 -7 121
-61 81z"/>
<path d="M12068 5073 c-1 -5 -2 -37 -4 -73 -1 -36 -2 -75 -3 -87 -1 -28 -23
-30 -59 -5 -88 61 -122 23 -122 -133 0 -99 16 -160 44 -171 9 -3 40 7 70 22
31 15 58 25 62 22 3 -4 6 -56 7 -117 0 -92 3 -110 16 -113 9 -2 162 -4 341 -3
l325 0 3 333 2 332 -340 0 c-187 0 -341 -3 -342 -7z m658 -328 l0 -305 -318 0
-318 0 0 94 c0 99 -11 146 -32 146 -7 0 -34 -11 -60 -25 -63 -34 -74 -32 -85
14 -13 51 -10 190 6 219 15 28 28 28 73 -3 74 -50 98 -26 98 96 l0 69 318 0
318 0 0 -305z"/>
<path d="M12355 4845 c-25 -24 -29 -46 -26 -124 2 -65 47 -102 107 -87 46 12
69 110 43 185 -19 55 -82 69 -124 26z m94 -31 c22 -48 10 -135 -22 -155 -15
-10 -47 2 -57 21 -12 23 -15 98 -6 128 8 24 42 43 62 35 6 -2 16 -15 23 -29z"/>
<path d="M6869 4888 c-7 -20 -1 -291 6 -296 19 -12 65 -9 65 5 0 7 -9 13 -20
13 -19 0 -20 7 -20 140 0 118 -2 140 -15 140 -8 0 -15 -1 -16 -2z"/>
<path d="M8466 4876 c3 -8 12 -12 20 -9 16 6 15 15 17 -154 2 -115 9 -152 25
-126 4 7 7 76 7 155 l0 143 -37 3 c-30 3 -37 0 -32 -12z"/>
<path d="M6325 4758 l0 -123 123 -3 c111 -2 122 -1 123 15 1 20 1 188 0 216
-1 15 -14 17 -124 17 l-122 0 0 -122z m220 -3 l0 -95 -95 0 -96 0 0 95 0 95
96 0 95 0 0 -95z"/>
<path d="M6483 4814 c-3 -8 -1 -20 5 -26 15 -15 43 8 35 28 -7 19 -32 18 -40
-2z"/>
<path d="M6381 4717 c-14 -17 3 -41 23 -34 9 4 16 13 16 21 0 19 -26 28 -39
13z"/>
<path d="M11590 4795 c0 -33 -2 -35 -35 -35 -24 0 -35 -5 -35 -14 0 -10 10
-14 33 -13 30 2 32 0 35 -35 2 -24 8 -38 17 -38 8 0 12 10 10 27 -4 39 3 50
28 48 12 -1 28 3 36 9 11 9 6 12 -25 16 -37 5 -39 7 -38 38 0 20 -4 32 -13 32
-8 0 -13 -13 -13 -35z"/>
<path d="M10060 4812 c0 -4 12 -20 26 -35 l26 -29 -32 -32 c-24 -26 -28 -35
-17 -39 8 -3 26 7 42 23 l27 28 29 -29 c16 -17 34 -27 40 -23 7 4 -1 19 -21
39 l-32 33 26 25 c46 46 31 65 -16 20 l-28 -27 -28 27 c-28 27 -42 33 -42 19z"/>
<path d="M4559 4094 c-20 -21 -24 -36 -24 -88 0 -98 33 -139 100 -122 34 9 55
44 56 97 3 75 0 89 -26 114 -32 33 -74 33 -106 -1z m91 -19 c15 -18 15 -133 0
-150 -19 -23 -67 -19 -75 5 -20 63 -16 128 10 154 16 16 48 11 65 -9z"/>
<path d="M5560 3572 c-5 -2 -10 -36 -11 -75 -1 -40 -4 -82 -7 -94 l-7 -22 -58
29 c-33 16 -65 26 -72 24 -27 -11 -40 -68 -40 -174 0 -85 4 -111 18 -133 22
-34 37 -34 98 0 27 14 52 23 56 20 9 -9 11 -37 12 -144 l1 -93 580 0 c545 0
580 1 581 18 5 87 2 627 -3 635 -5 9 -158 12 -572 12 -311 0 -570 -1 -576 -3z
m1130 -327 l0 -305 -559 0 -560 0 1 68 c0 118 -2 138 -16 157 -13 19 -16 18
-75 -13 l-61 -32 -14 23 c-31 46 -23 251 9 263 8 3 33 -6 58 -20 79 -47 97
-30 99 89 l1 75 559 0 558 0 0 -305z"/>
<path d="M5852 3353 c-39 -16 -56 -137 -27 -193 28 -54 103 -52 131 2 25 48
16 154 -15 179 -22 18 -61 23 -89 12z m76 -41 c6 -9 12 -42 12 -74 0 -45 -5
-63 -20 -78 -17 -17 -24 -18 -45 -8 -31 14 -39 42 -33 110 7 72 48 96 86 50z"/>
<path d="M6125 3335 c-25 -24 -29 -45 -26 -119 4 -71 37 -103 96 -92 25 5 37
15 49 40 30 64 14 173 -29 190 -33 12 -66 5 -90 -19z m93 -30 c15 -32 8 -135
-9 -146 -24 -15 -58 -10 -69 10 -18 35 -12 129 9 150 24 24 55 18 69 -14z"/>
<path d="M6298 3315 c-2 -25 0 -55 4 -66 7 -18 10 -19 36 -5 53 27 101 -20 73
-72 -15 -28 -47 -33 -75 -11 -25 19 -46 25 -46 12 0 -14 15 -30 37 -42 58 -30
123 6 123 68 0 55 -31 85 -82 78 -39 -5 -39 -5 -36 26 3 31 4 32 56 31 38 -1
52 2 52 12 0 11 -17 14 -69 14 l-69 0 -4 -45z"/>
<path d="M6020 3140 c0 -11 7 -20 15 -20 8 0 15 9 15 20 0 11 -7 20 -15 20 -8
0 -15 -9 -15 -20z"/>
<path d="M7440 3572 c-6 -2 -10 -40 -10 -91 0 -48 -3 -90 -6 -94 -4 -3 -31 7
-61 23 -90 48 -115 18 -117 -140 -1 -103 13 -155 46 -165 11 -4 39 4 69 20 27
14 54 23 59 20 6 -4 10 -58 10 -121 l0 -114 488 2 487 3 1 328 c0 180 -2 328
-5 328 -15 3 -952 4 -961 1z m940 -327 l0 -305 -460 0 c-253 0 -460 3 -461 8
0 4 -2 51 -3 105 -3 130 -12 141 -89 102 -30 -16 -61 -25 -69 -22 -41 15 -35
277 5 277 7 0 30 -11 52 -25 43 -26 80 -32 91 -14 3 6 8 46 9 88 2 42 4 79 4
84 1 4 208 7 461 7 l460 0 0 -305z"/>
<path d="M7734 3346 c-45 -32 -55 -144 -17 -194 43 -58 125 -29 138 48 8 47
-1 108 -20 133 -18 25 -75 32 -101 13z m86 -55 c21 -81 -15 -165 -61 -140 -27
14 -32 31 -32 97 0 44 4 59 21 73 32 25 60 14 72 -30z"/>
<path d="M8028 3342 c-16 -9 -28 -22 -28 -29 0 -18 10 -16 32 4 18 16 19 14
16 -78 l-3 -94 -27 3 c-20 3 -28 -1 -28 -12 0 -13 13 -16 75 -16 60 0 75 3 75
15 0 10 -10 15 -30 15 l-30 0 0 105 c0 114 -3 118 -52 87z"/>
<path d="M7900 3140 c0 -11 6 -20 13 -20 19 0 27 10 20 26 -8 21 -33 17 -33
-6z"/>
<path d="M9200 3572 c-6 -2 -10 -36 -10 -82 0 -114 -1 -115 -68 -80 -60 32
-81 29 -104 -13 -16 -31 -20 -186 -5 -238 18 -63 36 -70 102 -36 29 16 59 26
64 22 7 -4 11 -51 11 -121 l0 -114 343 2 342 3 0 330 0 330 -332 0 c-183 0
-337 -1 -343 -3z m650 -327 l0 -305 -317 2 -318 3 -1 85 c-2 114 -2 114 -17
135 -13 17 -16 17 -69 -10 -31 -15 -62 -25 -71 -22 -41 16 -36 278 6 277 7 0
30 -12 52 -25 75 -47 96 -29 100 83 2 42 4 78 4 80 1 1 143 2 316 2 l315 0 0
-305z"/>
<path d="M9493 3336 c-15 -13 -25 -28 -20 -32 4 -4 13 -2 19 4 26 26 33 11 33
-73 0 -68 -3 -85 -15 -86 -8 -1 -21 -2 -29 -3 -8 0 -16 -7 -18 -13 -4 -10 15
-13 71 -13 62 0 76 3 76 16 0 9 -8 14 -17 13 -37 -3 -39 0 -38 106 1 94 -1
105 -16 105 -10 0 -31 -11 -46 -24z"/>
<path d="M10670 3572 c-6 -2 -10 -41 -10 -91 0 -48 -3 -91 -7 -94 -3 -4 -26 5
-50 19 -56 33 -93 29 -112 -11 -21 -43 -19 -208 2 -257 19 -46 35 -47 101 -12
26 14 52 22 57 17 4 -4 10 -58 11 -118 l3 -110 343 -3 342 -2 -2 332 -3 333
-332 0 c-183 0 -337 -1 -343 -3z m651 -39 c1 -24 1 -565 0 -580 -1 -10 -71
-13 -316 -13 -173 0 -315 3 -315 8 -1 4 -2 51 -3 104 -2 75 -6 101 -19 114
-17 18 -14 19 -103 -29 -48 -27 -60 -6 -62 113 -2 100 9 160 30 160 7 0 30
-11 52 -25 57 -35 82 -33 93 9 6 19 10 56 10 82 0 27 1 55 1 62 1 9 71 12 316
12 293 0 315 -1 316 -17z"/>
<path d="M10954 3337 c-25 -22 -28 -31 -28 -90 -1 -52 4 -72 20 -94 29 -38 73
-42 110 -9 27 22 29 29 29 96 0 66 -2 74 -28 96 -35 30 -68 31 -103 1z m94
-35 c13 -37 8 -117 -8 -137 -16 -20 -54 -19 -71 1 -16 20 -16 129 1 149 7 8
25 15 40 15 22 0 30 -6 38 -28z"/>
<path d="M5082 3228 l3 -153 29 0 c16 0 31 6 34 13 2 7 -5 12 -17 12 -20 0
-21 5 -21 140 0 119 -2 140 -15 140 -13 0 -15 -21 -13 -152z"/>
<path d="M6960 3370 c0 -5 10 -10 23 -10 23 0 23 0 24 -140 0 -77 3 -143 6
-146 20 -20 27 19 27 157 l0 149 -40 0 c-22 0 -40 -4 -40 -10z"/>
<path d="M4540 3245 l0 -125 125 0 125 0 0 125 0 125 -125 0 -125 0 0 -125z
m220 0 l0 -95 -95 0 -95 0 0 95 0 95 95 0 95 0 0 -95z"/>
<path d="M4696 3311 c-3 -4 0 -15 7 -24 15 -21 43 -6 34 17 -7 17 -32 22 -41
7z"/>
<path d="M4601 3211 c-17 -11 -7 -41 13 -41 22 0 30 20 15 36 -9 8 -19 10 -28
5z"/>
<path d="M10184 3288 c1 -31 -1 -33 -36 -36 -26 -2 -35 -7 -32 -16 3 -8 17
-12 35 -11 29 3 30 1 33 -49 2 -37 26 -30 26 8 0 20 5 37 10 37 6 1 20 2 32 3
38 2 33 26 -6 26 -34 0 -36 2 -36 35 0 23 -5 35 -14 35 -9 0 -13 -11 -12 -32z"/>
<path d="M8657 3304 c-3 -3 7 -20 23 -37 l29 -32 -30 -31 c-39 -40 -22 -53 19
-15 l30 29 28 -29 c19 -19 31 -26 38 -19 7 7 0 20 -19 40 l-29 30 27 28 c15
15 27 31 27 35 0 16 -24 5 -46 -20 l-23 -27 -29 27 c-30 28 -35 31 -45 21z"/>
<path d="M4561 2588 c-62 -66 -26 -218 51 -218 33 0 77 39 79 70 6 88 0 120
-26 145 -31 32 -77 33 -104 3z m95 -29 c11 -18 7 -114 -5 -137 -12 -22 -45
-29 -68 -14 -18 12 -27 108 -13 142 17 40 63 45 86 9z"/>
<path d="M2625 1956 c-34 -28 -28 -47 8 -23 l23 15 0 -86 -1 -87 -29 -5 c-55
-9 -32 -25 42 -28 62 -2 72 0 72 14 0 12 -6 15 -25 12 -28 -6 -27 -10 -26 135
0 88 -10 96 -64 53z"/>
<path d="M2803 1955 c-22 -19 -25 -27 -15 -33 9 -6 21 -2 37 14 24 24 51 24
67 0 17 -24 5 -47 -52 -104 -83 -82 -81 -92 20 -92 59 0 80 3 80 13 0 9 -17
13 -55 14 -31 0 -58 3 -61 6 -3 2 20 29 50 59 44 43 56 62 56 86 0 60 -76 82
-127 37z"/>
<path d="M1775 1324 c-32 -30 -26 -44 10 -20 l25 16 0 -90 c0 -94 -1 -97 -47
-91 -7 1 -13 -5 -13 -14 0 -12 14 -15 76 -15 56 0 75 3 71 13 -2 6 -10 13 -18
13 -8 1 -20 2 -26 3 -10 1 -13 29 -13 106 0 96 -2 105 -19 105 -10 0 -30 -11
-46 -26z"/>
<path d="M1770 692 c-45 -36 -43 -175 3 -207 26 -18 66 -19 89 -1 51 38 49
189 -2 216 -28 15 -65 12 -90 -8z m89 -38 c23 -52 6 -148 -29 -157 -44 -11
-73 51 -59 127 12 65 64 83 88 30z"/>
</g>
</svg>
