<?xml version="1.0" standalone="no"?>
<!DOCTYPE svg PUBLIC "-//W3C//DTD SVG 20010904//EN"
 "http://www.w3.org/TR/2001/REC-SVG-20010904/DTD/svg10.dtd">
<svg version="1.0" xmlns="http://www.w3.org/2000/svg"
 width="1292.000000pt" height="195.000000pt" viewBox="0 0 1292.000000 195.000000"
 preserveAspectRatio="xMidYMid meet">
<metadata>
Created by potrace 1.16, written by Peter Selinger 2001-2019
</metadata>
<g transform="translate(0.000000,195.000000) scale(0.100000,-0.100000)"
fill="#000000" stroke="none">
<path d="M508 1658 c-116 -8 -178 -35 -233 -102 -62 -76 -65 -102 -65 -547 0
-386 2 -421 33 -489 16 -36 87 -103 133 -126 38 -19 106 -19 3477 -24 1890 -3
3442 -4 3447 -2 7 3 10 227 10 648 l0 644 -3049 0 -3048 0 -96 -65 c-87 -59
-101 -65 -147 -65 -38 0 -60 7 -90 26 -22 15 -37 31 -33 37 3 6 1 7 -5 3 -7
-4 -33 8 -59 26 -56 39 -120 47 -275 36z m312 -101 c90 -61 105 -67 150 -67
46 0 61 7 152 67 l102 67 158 1 158 0 0 -95 c0 -104 -6 -140 -24 -140 -6 0
-36 16 -66 35 -125 80 -172 27 -172 -193 -1 -133 11 -188 46 -221 22 -20 28
-22 58 -12 18 6 53 25 78 41 25 16 50 30 57 30 20 0 24 -73 21 -375 l-3 -290
-546 0 -545 1 -58 28 c-67 33 -121 98 -132 161 -10 52 -12 766 -3 826 9 56 46
118 92 153 49 38 119 51 255 50 l122 -1 100 -66z m6440 64 c13 -1 15 -74 15
-598 0 -329 -3 -602 -7 -608 -7 -12 -5672 -14 -5685 -2 -4 5 -8 147 -8 316 -1
402 -6 413 -131 340 -36 -21 -72 -39 -80 -39 -7 0 -22 12 -31 27 -15 23 -18
49 -18 168 1 206 17 231 113 172 75 -46 99 -49 124 -16 17 23 21 44 22 130 0
57 4 106 8 109 5 4 5623 5 5678 1z"/>
<path d="M609 1134 c-1 -33 3 -269 5 -272 2 -1 68 24 147 57 122 51 144 63
147 83 2 21 -11 28 -130 76 -157 63 -168 67 -169 56z m141 -90 c49 -20 90 -38
90 -41 0 -5 -57 -31 -137 -62 l-53 -21 0 80 c0 44 2 80 5 80 3 0 45 -16 95
-36z"/>
<path d="M3547 1493 c-4 -3 -7 -57 -7 -119 0 -163 -2 -165 -96 -109 -32 19
-68 35 -81 35 -56 0 -86 -87 -85 -245 2 -147 31 -225 84 -225 11 0 51 17 89
37 38 20 72 33 76 29 4 -4 10 -87 13 -184 l5 -177 683 -1 682 -1 -2 481 -3
481 -676 3 c-371 1 -679 -1 -682 -5z m1324 -41 c1 -4 2 -204 3 -444 l1 -438
-646 0 -647 0 -3 164 c-4 146 -6 166 -24 186 -23 26 -50 21 -115 -20 -43 -27
-61 -34 -87 -31 -23 2 -37 76 -36 201 0 193 22 219 128 155 68 -40 85 -43 110
-15 14 15 19 43 23 134 l5 115 643 0 c354 0 645 -3 645 -7z"/>
<path d="M3993 1182 c-31 -5 -71 -55 -79 -98 -11 -62 1 -159 25 -193 36 -50
118 -55 161 -9 55 59 53 224 -2 275 -24 22 -66 32 -105 25z m69 -44 c23 -18
35 -73 32 -140 -3 -66 -16 -96 -47 -107 -52 -19 -88 20 -93 102 -4 67 10 128
32 144 23 16 56 17 76 1z"/>
<path d="M4378 1154 c-24 -15 -38 -32 -38 -45 0 -21 10 -19 42 9 9 7 20 12 25
9 10 -6 9 -225 -1 -234 -4 -4 -22 -6 -41 -5 -29 2 -35 -1 -35 -18 0 -19 6 -20
106 -20 95 0 105 2 102 18 -2 9 -12 18 -23 18 -11 1 -28 2 -37 3 -16 1 -18 15
-18 146 0 144 0 145 -22 144 -13 0 -40 -11 -60 -25z"/>
<path d="M4202 875 c2 -19 8 -25 25 -25 18 0 23 6 23 25 0 20 -5 25 -25 25
-20 0 -24 -4 -23 -25z"/>
<path d="M6020 1490 c-4 -3 -8 -34 -8 -70 -1 -213 0 -211 -84 -159 -67 41
-113 44 -139 9 -54 -72 -52 -345 3 -416 27 -33 63 -29 137 16 67 41 81 36 82
-32 0 -29 1 -109 2 -178 l2 -125 480 0 480 0 0 480 0 480 -473 0 c-261 0 -477
-2 -482 -5z m921 -42 c1 -7 2 -208 3 -445 l1 -433 -447 0 -448 0 -1 138 c-1
159 -5 191 -26 214 -23 25 -42 22 -98 -13 -60 -38 -88 -49 -102 -41 -36 23
-49 283 -19 357 14 34 19 37 45 32 16 -3 50 -20 77 -37 57 -36 74 -37 100 -9
16 17 20 40 23 135 l3 114 444 0 c348 0 444 -3 445 -12z"/>
<path d="M6470 1182 c-62 -9 -97 -89 -86 -193 7 -72 29 -114 68 -130 35 -14
94 -6 119 17 34 31 49 125 35 211 -7 40 -46 92 -70 94 -6 0 -18 2 -26 3 -8 1
-26 0 -40 -2z m60 -42 c26 -14 39 -60 36 -133 -3 -94 -38 -137 -94 -116 -35
13 -49 69 -44 175 3 62 55 99 102 74z"/>
<path d="M1890 1133 c-1 -27 -2 -112 -3 -191 l-2 -142 133 0 c109 0 132 -3
132 -15 0 -7 -8 -19 -17 -24 -17 -10 -16 -11 2 -12 21 -1 84 -1 99 0 6 1 2 7
-8 14 -14 11 -16 19 -9 47 8 30 13 35 36 32 35 -4 77 21 107 65 19 28 25 49
25 92 0 51 -2 56 -27 65 -23 8 -33 6 -57 -12 -28 -20 -29 -20 -24 -2 5 18 1
19 -28 14 -58 -10 -66 -14 -49 -24 12 -7 12 -18 -2 -72 l-16 -63 -1 138 -1
137 -145 0 -145 0 0 -47z m270 -143 l0 -170 -125 0 -125 0 0 170 0 170 125 0
125 0 0 -170z m170 18 c0 -69 -51 -157 -83 -145 -13 5 -14 12 -6 44 24 92 42
123 70 123 13 0 19 -7 19 -22z"/>
<path d="M1978 1118 c-20 -7 -28 -17 -28 -34 0 -13 5 -24 10 -24 6 0 10 7 10
15 0 33 70 46 108 19 35 -24 28 -60 -18 -92 -36 -25 -57 -70 -27 -59 6 2 11 9
10 15 -2 6 6 13 16 17 30 9 64 52 64 81 0 58 -73 89 -145 62z"/>
<path d="M2004 875 c-8 -21 4 -35 31 -35 26 0 42 29 23 42 -20 12 -48 9 -54
-7z"/>
<path d="M5349 1118 c-1 -7 -2 -26 -3 -43 -2 -45 -12 -54 -55 -50 -26 2 -41
-2 -45 -10 -7 -20 3 -25 54 -25 l46 0 -1 -50 c-1 -42 2 -50 17 -50 15 0 18 9
18 50 l0 50 50 0 c41 0 50 3 50 18 0 15 -8 18 -47 17 l-48 0 -3 53 c-2 37 -7
52 -18 52 -7 0 -15 -6 -15 -12z"/>
<path d="M2794 1106 c-5 -12 5 -29 32 -57 l38 -39 -37 -38 c-64 -65 -40 -89
25 -25 l38 37 38 -37 c21 -20 43 -37 49 -37 27 0 21 21 -18 60 l-41 42 41 42
c32 33 38 45 29 54 -9 9 -21 3 -55 -30 l-43 -42 -45 44 c-38 37 -45 41 -51 26z"/>
</g>
</svg>
