<?xml version="1.0" standalone="no"?>
<!DOCTYPE svg PUBLIC "-//W3C//DTD SVG 20010904//EN"
 "http://www.w3.org/TR/2001/REC-SVG-20010904/DTD/svg10.dtd">
<svg version="1.0" xmlns="http://www.w3.org/2000/svg"
 width="1186.000000pt" height="609.000000pt" viewBox="0 0 1186.000000 609.000000"
 preserveAspectRatio="xMidYMid meet">
<metadata>
Created by potrace 1.16, written by Peter Selinger 2001-2019
</metadata>
<g transform="translate(0.000000,609.000000) scale(0.100000,-0.100000)"
fill="#000000" stroke="none">
<path d="M629 5546 c0 -6 -1 -57 -2 -113 -1 -62 -7 -107 -14 -114 -8 -8 -26
-2 -73 27 -52 32 -65 36 -88 28 -43 -15 -56 -56 -60 -187 -5 -136 8 -200 44
-224 30 -19 56 -13 117 28 37 24 51 29 60 20 9 -9 12 -536 14 -2234 1 -1222 2
-2225 3 -2228 0 -3 513 -6 1140 -6 l1140 0 0 779 0 778 305 0 c237 0 305 3
306 13 4 45 3 805 -1 805 -3 0 -31 0 -63 1 l-57 1 2 372 3 371 1747 1 c960 1
1750 4 1754 8 5 5 9 1045 5 1099 -1 3 -1086 5 -2411 5 -1326 -1 -2416 1 -2423
4 -9 4 -12 98 -12 390 l0 385 -717 1 c-519 1 -718 -2 -719 -10z m1402 -25 c10
-2 2 -972 -9 -983 -7 -7 -29 1 -70 26 -63 38 -87 43 -113 23 -55 -42 -62 -319
-10 -387 26 -34 68 -31 132 11 41 26 52 30 60 18 5 -8 9 -66 9 -129 2 -392 -1
-635 -9 -643 -6 -6 -33 5 -68 27 -66 41 -92 45 -118 16 -58 -64 -52 -364 8
-402 23 -15 52 -8 110 28 38 23 62 33 68 27 12 -12 13 -463 1 -475 -4 -4 -21
0 -37 9 -113 61 -122 64 -148 35 -27 -29 -38 -72 -41 -162 -7 -173 24 -258 88
-246 16 4 52 20 79 38 40 26 50 29 58 17 13 -20 12 -466 -1 -474 -6 -4 -32 7
-58 23 -95 58 -131 52 -153 -27 -17 -58 -17 -244 0 -294 26 -78 57 -84 144
-31 48 29 61 34 68 23 13 -20 11 -466 -1 -474 -6 -4 -32 7 -59 24 -56 36 -100
46 -122 29 -54 -44 -62 -319 -11 -388 28 -37 57 -36 124 5 34 22 63 34 69 28
9 -9 15 -216 6 -230 -4 -6 -1319 -10 -1359 -4 -5 1 -8 991 -8 2201 0 2360 2
2270 -47 2270 -10 0 -48 -16 -84 -34 -35 -19 -69 -32 -75 -28 -44 29 -45 326
-1 354 13 8 44 -4 92 -36 81 -55 108 -31 113 103 2 53 5 101 6 106 2 7 237 10
682 9 374 -1 682 -2 685 -3z m4847 -1301 l2 -525 -1727 1 c-951 1 -2034 2
-2408 3 l-680 1 0 258 c0 339 -4 347 -130 277 -58 -33 -64 -34 -79 -20 -9 9
-16 19 -17 23 0 4 -3 16 -5 27 -9 41 -5 228 6 261 16 48 35 48 110 2 56 -34
94 -33 106 5 4 12 8 62 10 111 1 49 7 91 12 95 6 3 1087 6 2404 6 l2393 0 3
-525z m-3520 -559 c9 -1 12 -82 12 -371 l0 -370 -651 2 -652 3 -1 110 c-3 165
-21 181 -130 120 -33 -19 -67 -31 -73 -27 -23 15 -34 67 -34 171 0 114 16 183
42 186 9 2 40 -13 69 -31 97 -61 120 -42 126 104 1 52 7 98 13 101 7 5 1231 7
1279 2z m127 -1152 l0 -374 -703 0 c-393 0 -706 4 -709 9 -3 4 -6 57 -7 116
-1 91 -5 112 -20 129 -25 28 -43 26 -99 -8 -71 -46 -91 -45 -107 5 -15 46 -16
216 -1 272 16 56 35 58 108 11 55 -34 74 -36 98 -9 14 15 18 40 20 117 2 78 6
98 19 102 8 4 327 6 708 5 l693 0 0 -375z m-605 -779 l0 -370 -406 2 -406 3
-3 113 c-2 92 -5 116 -20 132 -25 27 -37 25 -109 -15 -33 -19 -67 -31 -73 -27
-24 15 -34 69 -35 172 0 112 17 185 42 185 8 0 41 -15 73 -34 64 -37 101 -36
113 2 4 12 9 56 10 97 1 41 3 83 3 93 1 16 27 17 406 17 l405 0 0 -370z m-7
-409 c4 0 7 -169 7 -373 l0 -373 -402 1 c-222 1 -405 2 -408 3 -3 1 -5 50 -5
110 0 117 -13 161 -48 161 -10 0 -47 -16 -81 -35 -35 -19 -66 -35 -70 -35 -4
0 -14 16 -22 36 -30 72 -16 314 19 327 6 3 40 -11 75 -30 107 -58 125 -41 126
119 1 68 4 88 15 90 13 3 777 2 794 -1z"/>
<path d="M1087 5243 c-2 -5 -10 -33 -17 -63 -15 -65 -39 -115 -75 -159 -25
-29 -26 -31 -6 -31 28 0 58 34 92 105 16 33 29 54 29 47 0 -20 30 -82 58 -119
16 -22 33 -33 49 -33 24 0 24 0 -11 44 -36 43 -76 139 -76 181 0 13 -7 26 -16
29 -20 8 -22 8 -27 -1z"/>
<path d="M980 4180 c0 -11 7 -23 15 -27 19 -7 22 -4 27 22 2 14 -3 21 -19 23
-18 3 -23 -2 -23 -18z"/>
<path d="M983 3250 c35 -100 45 -120 62 -120 37 0 110 144 100 197 -2 10 -4
24 -4 31 -1 6 -9 12 -20 12 -15 0 -18 -8 -18 -54 0 -53 -39 -155 -53 -139 -4
5 -20 50 -36 100 -25 79 -32 93 -51 93 -21 0 -20 -3 20 -120z"/>
<path d="M1238 2677 c-18 -18 -188 -309 -188 -322 0 -5 5 -10 11 -10 10 0 141
208 194 307 16 29 5 46 -17 25z"/>
<path d="M983 2673 c-22 -8 -14 -23 12 -23 24 0 25 -2 25 -64 0 -57 -2 -65
-20 -68 -12 -2 -22 -7 -23 -13 -2 -9 86 -15 110 -7 18 6 5 22 -18 22 -17 0
-19 7 -19 80 l0 80 -27 -1 c-16 0 -34 -3 -40 -6z"/>
<path d="M1329 2617 c-110 -58 -147 -216 -61 -261 l24 -12 -35 -31 -35 -30 42
0 c22 0 62 -3 87 -7 49 -9 112 11 123 39 4 11 0 10 -22 -1 -33 -17 -50 -17
-109 -2 -42 10 -44 12 -28 25 11 7 27 13 37 13 29 0 85 42 112 84 46 71 46
137 1 182 -31 31 -78 31 -136 1z m113 -20 c14 -27 4 -107 -21 -155 -33 -65
-90 -98 -128 -74 -56 35 -5 215 70 247 37 15 64 9 79 -18z"/>
<path d="M984 1806 c-5 -12 3 -28 25 -50 17 -17 31 -35 31 -39 0 -3 -14 -20
-31 -38 -19 -19 -28 -37 -24 -47 4 -12 14 -8 45 23 l40 39 38 -37 c30 -29 41
-34 50 -25 9 9 4 20 -25 50 l-37 38 39 40 c33 34 36 40 21 46 -13 5 -27 -2
-48 -25 -16 -17 -32 -31 -36 -31 -3 0 -23 17 -44 37 -32 31 -38 34 -44 19z"/>
<path d="M1055 1003 l0 -48 -47 -3 c-33 -2 -48 -8 -48 -17 0 -9 15 -15 48 -17
l47 -3 0 -40 c0 -30 4 -41 18 -43 11 -2 18 2 16 10 -1 7 -1 28 0 46 1 31 2 32
46 32 33 0 45 4 45 15 0 11 -12 15 -45 15 -29 0 -45 4 -46 13 0 6 -1 28 -2 47
-1 22 -7 36 -17 38 -13 2 -16 -7 -15 -45z"/>
<path d="M3857 4623 c-4 -3 -7 -57 -7 -119 0 -65 -4 -115 -10 -119 -6 -3 -37
10 -69 30 -34 21 -68 35 -82 33 -53 -8 -80 -98 -74 -249 6 -130 36 -188 92
-174 16 3 50 20 76 37 29 19 52 27 57 22 5 -5 11 -68 12 -139 l3 -130 438 -3
437 -2 0 410 0 410 -433 0 c-239 0 -437 -3 -440 -7z m836 -32 c4 0 7 -167 7
-371 0 -203 -3 -370 -7 -371 -52 -6 -796 -2 -800 5 -3 5 -7 54 -8 110 -1 55
-5 111 -9 123 -12 38 -46 38 -118 -1 -35 -20 -68 -36 -72 -36 -33 0 -52 225
-27 318 16 56 35 58 108 11 91 -57 114 -36 118 109 1 52 7 97 13 101 8 5 764
7 795 2z"/>
<path d="M4247 4345 c-20 -14 -37 -32 -37 -40 0 -20 6 -19 41 6 l29 20 0 -119
0 -119 -37 0 c-28 1 -39 -3 -41 -16 -3 -15 7 -17 91 -17 51 0 96 3 100 6 15
15 -6 30 -38 28 l-35 -3 0 139 c0 159 -2 162 -73 115z"/>
<path d="M5734 4514 c-1 -64 -7 -121 -12 -126 -7 -7 -29 1 -69 26 -32 20 -68
36 -80 36 -30 0 -61 -43 -69 -98 -11 -68 -8 -210 5 -258 22 -83 62 -91 154
-32 36 23 51 28 60 19 7 -7 11 -57 12 -138 l0 -128 434 -3 c255 -1 437 2 440
7 5 7 6 768 2 804 -1 4 -198 7 -438 7 l-438 0 -1 -116z m839 77 c4 0 7 -169 7
-373 l0 -373 -405 0 -405 0 -1 25 c0 14 -1 57 -1 95 0 155 -25 178 -129 121
-35 -19 -69 -32 -76 -28 -25 15 -33 66 -30 192 2 117 4 131 24 151 l21 21 59
-36 c109 -67 131 -45 132 139 l1 70 398 -1 c218 -1 400 -2 405 -3z"/>
<path d="M6121 4354 c-31 -22 -51 -73 -51 -131 0 -103 39 -163 104 -163 67 0
106 58 106 155 0 97 -39 155 -105 155 -17 0 -41 -7 -54 -16z m90 -33 c20 -16
24 -30 27 -92 2 -60 -1 -80 -17 -106 -15 -24 -26 -31 -46 -28 -41 4 -56 27
-62 91 -7 76 6 126 38 141 31 16 33 16 60 -6z"/>
<path d="M2350 4190 l0 -180 120 0 c116 0 141 -7 103 -29 -14 -8 -4 -10 41
-11 50 0 57 2 44 13 -12 9 -13 19 -7 43 7 25 13 30 31 27 75 -13 164 139 112
191 -20 21 -38 20 -71 -1 -26 -17 -27 -17 -20 0 7 20 -10 22 -59 8 l-31 -9 2
64 1 64 -133 0 -133 0 0 -180z m246 -2 l0 -158 -113 0 -113 0 0 160 0 161 112
-3 113 -3 1 -157z m48 44 c6 -9 -15 -102 -23 -102 -5 0 -7 76 -2 103 1 9 18 9
25 -1z m109 -14 c6 -19 -22 -110 -41 -130 -8 -10 -22 -18 -30 -18 -11 0 -13 9
-8 41 13 79 64 148 79 107z"/>
<path d="M2433 4310 c-16 -6 -23 -18 -23 -35 0 -15 4 -24 10 -20 6 3 10 13 10
20 0 36 95 29 109 -8 11 -29 -2 -53 -39 -72 -28 -15 -43 -55 -20 -55 6 0 10 6
10 13 0 6 16 22 35 35 34 21 40 34 35 77 -4 44 -71 67 -127 45z"/>
<path d="M2467 4092 c-28 -6 -16 -37 16 -40 21 -3 27 1 27 16 0 22 -15 30 -43
24z"/>
<path d="M5129 4303 c-1 -10 -2 -33 -2 -50 -1 -32 -2 -33 -43 -33 -28 0 -44
-5 -48 -15 -4 -12 4 -15 43 -15 l49 0 -2 -45 c-1 -37 1 -45 16 -45 15 0 18 8
18 45 l0 45 45 0 c33 0 45 4 45 15 0 11 -12 15 -45 15 l-45 0 0 50 c0 38 -4
50 -15 50 -8 0 -16 -8 -16 -17z"/>
<path d="M3177 4304 c-12 -13 -8 -23 28 -58 l35 -36 -36 -40 c-26 -29 -34 -44
-27 -51 8 -8 21 0 44 25 18 20 35 36 38 36 3 0 23 -17 44 -37 31 -28 41 -33
48 -22 6 10 -3 25 -28 51 l-37 38 37 38 c30 31 35 41 25 50 -10 8 -20 2 -43
-24 -16 -19 -34 -34 -39 -34 -6 0 -26 16 -46 35 -20 20 -39 32 -43 29z"/>
<path d="M2424 3430 c-60 -24 -73 -112 -25 -161 33 -33 67 -37 111 -14 l28 15
-10 -38 c-10 -38 -40 -72 -64 -72 -8 0 -23 9 -35 21 -19 19 -49 20 -49 2 2
-43 91 -68 136 -39 74 49 77 243 4 281 -32 17 -64 18 -96 5z m70 -31 c23 -11
36 -35 36 -71 0 -24 -35 -58 -60 -58 -29 0 -60 36 -60 70 0 29 29 70 50 70 5
0 20 -5 34 -11z"/>
<path d="M2658 3425 c-27 -15 -42 -44 -41 -77 0 -10 1 -27 2 -38 3 -56 89 -90
139 -54 20 14 22 14 22 -1 0 -27 -31 -85 -45 -85 -7 0 -20 -3 -29 -6 -8 -3
-22 3 -33 15 -22 26 -43 27 -43 1 0 -52 110 -66 150 -19 55 63 51 213 -7 259
-30 23 -77 25 -115 5z m93 -33 c46 -38 21 -121 -37 -122 -52 0 -77 88 -33 122
27 23 41 23 70 0z"/>
<path d="M2914 3430 c-71 -28 -72 -152 -3 -181 28 -11 55 -9 93 6 17 8 19 5
13 -26 -7 -35 -38 -69 -63 -69 -8 0 -23 9 -34 20 -22 22 -50 27 -50 8 1 -27
30 -50 69 -55 75 -10 122 45 123 145 2 130 -56 189 -148 152z m93 -48 c7 -9
13 -32 13 -49 0 -64 -88 -85 -111 -26 -12 33 -3 80 19 93 22 13 62 3 79 -18z"/>
<path d="M2423 2648 c-33 -16 -54 -70 -54 -142 0 -104 37 -156 112 -156 79 0
124 140 81 251 -20 52 -84 74 -139 47z m77 -28 c31 -17 41 -69 31 -182 -2 -24
-38 -55 -63 -54 -37 2 -59 45 -59 117 0 90 15 121 64 128 5 0 17 -3 27 -9z"/>
<path d="M2793 2650 c-35 -14 -56 -67 -56 -141 -1 -108 33 -159 105 -159 39 0
84 37 95 78 11 43 7 137 -7 172 -21 50 -82 72 -137 50z m64 -26 c29 -8 46 -54
46 -123 0 -63 -13 -95 -44 -111 -46 -25 -79 15 -81 95 -2 86 1 104 22 125 22
22 25 23 57 14z"/>
<path d="M3040 2635 c-19 -14 -35 -32 -36 -40 -3 -20 8 -19 40 6 l26 20 1 -30
c0 -17 0 -60 0 -96 0 -127 2 -118 -30 -112 -29 6 -59 -12 -44 -26 3 -4 48 -7
100 -7 76 0 93 3 93 15 0 8 -8 15 -17 16 -63 4 -58 -7 -60 129 -1 69 -2 131
-2 138 -1 20 -35 14 -71 -13z"/>
<path d="M2634 2378 c1 -16 8 -24 24 -26 20 -3 23 0 20 20 -4 33 -46 38 -44 6z"/>
<path d="M2427 1855 c-20 -14 -37 -32 -37 -40 0 -20 13 -19 44 6 l26 20 0
-120 0 -120 -27 1 c-46 1 -53 -1 -53 -17 0 -12 17 -15 94 -15 59 0 97 4 102
11 9 16 -10 26 -46 23 l-30 -2 0 139 c0 158 -2 161 -73 114z"/>
<path d="M2418 1085 c-42 -23 -60 -106 -44 -200 11 -64 46 -95 106 -95 80 0
125 139 82 251 -21 55 -87 74 -144 44z m84 -24 c28 -3 44 -123 26 -188 -15
-56 -80 -65 -107 -15 -9 18 -14 61 -12 123 1 47 34 90 64 85 12 -3 25 -5 29
-5z"/>
</g>
</svg>
