<?xml version="1.0" standalone="no"?>
<!DOCTYPE svg PUBLIC "-//W3C//DTD SVG 20010904//EN"
 "http://www.w3.org/TR/2001/REC-SVG-20010904/DTD/svg10.dtd">
<svg version="1.0" xmlns="http://www.w3.org/2000/svg"
 width="1090.000000pt" height="626.000000pt" viewBox="0 0 1090.000000 626.000000"
 preserveAspectRatio="xMidYMid meet">
<metadata>
Created by potrace 1.16, written by Peter Selinger 2001-2019
</metadata>
<g transform="translate(0.000000,626.000000) scale(0.100000,-0.100000)"
fill="#000000" stroke="none">
<path d="M995 5472 c-56 -10 -92 -29 -135 -71 -88 -86 -80 142 -80 -2284 l0
-2152 24 -50 c28 -60 88 -117 142 -136 32 -11 304 -14 1581 -14 l1543 -1 2
390 3 390 180 2 c99 0 182 2 185 3 3 0 3 182 0 403 l-5 403 -50 0 c-27 0 -53
5 -57 10 -5 7 -8 7 -8 0 0 -8 -153 -12 -237 -6 -18 1 -18 737 0 743 6 2 117 3
245 3 l232 -1 0 406 0 406 -665 -1 -665 0 -1 45 c-1 62 -1 671 0 690 1 13 21
15 124 14 67 0 128 -3 135 -8 7 -4 12 -4 12 1 0 10 651 10 668 -1 6 -4 12 -4
12 1 0 10 151 10 168 -1 7 -4 12 -4 12 1 0 4 97 8 215 7 l215 0 0 406 0 406
-1552 0 -1553 -1 -90 -60 c-114 -76 -134 -77 -230 -15 -39 25 -76 50 -83 57
-7 7 -16 14 -20 15 -15 3 -248 4 -267 0z m331 -87 c82 -55 93 -59 144 -59 49
0 63 6 130 51 41 27 84 54 95 60 15 7 2953 12 3046 4 15 -1 16 -38 15 -373
l-1 -373 -1530 3 -1530 3 -90 -61 c-123 -82 -147 -82 -269 0 l-90 60 -219 0
-218 0 3 293 3 292 28 47 c30 52 96 98 156 108 20 3 82 5 137 5 l101 0 89 -60z
m-35 -755 c30 -19 69 -45 88 -59 27 -20 45 -25 90 -25 51 1 64 6 144 60 l88
58 132 1 c73 1 137 -2 143 -7 14 -10 10 -186 -5 -201 -7 -7 -25 0 -58 21 -92
59 -132 51 -154 -32 -14 -53 -15 -230 0 -282 22 -83 60 -91 155 -33 36 22 52
27 60 19 8 -8 11 -467 12 -1673 0 -914 -1 -1667 -3 -1672 -2 -7 -173 -10 -501
-9 -557 1 -538 -1 -612 75 -28 29 -42 54 -49 90 -8 35 -11 614 -11 1877 l0
1827 213 0 213 -1 55 -34z m1895 31 c16 -2 12 -967 -3 -982 -9 -9 -24 -4 -62
21 -101 64 -147 38 -161 -91 -15 -133 2 -249 40 -284 24 -22 58 -15 123 27 36
23 51 28 59 20 16 -16 16 -458 0 -474 -8 -8 -24 -2 -59 20 -89 57 -129 51
-153 -23 -15 -44 -20 -178 -10 -249 16 -114 65 -137 161 -76 37 24 53 30 61
22 15 -15 15 -459 0 -474 -7 -7 -29 1 -70 27 -68 41 -96 42 -124 4 -34 -46
-45 -252 -18 -334 24 -74 64 -80 153 -23 36 23 51 28 59 20 16 -16 16 -458 0
-474 -8 -8 -24 -2 -59 20 -125 80 -166 37 -166 -173 -1 -210 41 -253 166 -173
34 22 51 28 59 20 9 -9 14 -151 9 -222 -1 -13 -73 -15 -586 -15 l-585 0 0
1655 c0 1100 -4 1667 -10 1692 -14 48 -39 56 -93 27 -23 -12 -53 -28 -66 -35
-33 -17 -49 -8 -61 34 -12 46 -13 213 0 266 14 63 26 64 112 13 88 -53 116
-22 117 129 1 44 3 83 5 85 4 3 1130 4 1162 0z m1342 -1149 c2 -294 0 -372
-10 -373 -30 -3 -1283 3 -1287 6 -2 2 -4 52 -5 112 -2 115 -14 153 -46 153
-11 0 -48 -16 -82 -35 -70 -38 -83 -36 -98 16 -14 45 -14 219 0 269 15 54 33
56 110 8 56 -34 94 -33 106 5 4 12 9 56 10 97 1 41 3 84 3 95 1 20 7 20 649
20 l647 0 3 -373z m-488 -779 l0 -373 -405 0 c-223 0 -405 3 -406 8 0 4 -1 52
-3 107 -3 114 -15 155 -47 155 -11 0 -49 -16 -83 -35 -33 -19 -67 -31 -73 -27
-24 15 -35 70 -34 172 1 58 3 114 5 125 3 11 5 23 5 27 1 4 8 13 16 22 18 17
28 14 98 -28 54 -32 91 -30 103 7 4 12 8 61 9 108 2 48 5 91 8 95 3 5 186 9
406 9 l401 0 0 -372z m366 -781 c1 -332 -1 -372 -15 -373 -41 -3 -1156 3
-1160 6 -2 2 -4 53 -6 112 -1 59 -6 116 -10 126 -14 33 -50 31 -119 -8 -36
-20 -70 -34 -75 -30 -19 11 -32 85 -32 186 0 107 12 163 37 173 9 3 41 -9 73
-29 101 -62 123 -44 126 101 1 51 5 96 8 100 3 5 267 9 589 9 l583 0 1 -373z
m-368 -782 l-3 -375 -398 0 c-229 0 -401 4 -404 9 -4 5 -7 57 -8 115 -1 113
-13 151 -45 151 -11 0 -48 -16 -82 -35 -70 -38 -83 -36 -99 16 -14 47 -13 231
1 274 16 49 35 50 110 3 90 -56 117 -27 116 124 -1 68 2 88 13 90 8 2 192 3
408 3 l393 0 -2 -375z"/>
<path d="M3089 5208 c0 -13 -1 -84 -2 -158 -1 -127 1 -135 19 -135 18 0 19 9
19 158 1 144 -1 157 -17 157 -12 0 -18 -8 -19 -22z"/>
<path d="M1116 5198 c-12 -47 -7 -78 13 -78 16 0 19 7 18 50 -2 52 -20 68 -31
28z"/>
<path d="M1190 5201 c-5 -11 -10 -33 -10 -50 0 -24 4 -31 19 -31 26 0 36 17
21 35 -7 8 -9 26 -6 40 8 30 -9 34 -24 6z"/>
<path d="M1576 5073 c1 -81 2 -151 3 -155 2 -11 229 -10 235 1 12 19 -22 27
-106 26 l-88 -1 0 53 0 53 84 0 c47 0 87 4 90 9 12 18 -21 27 -97 26 l-78 -1
3 51 3 50 90 0 c73 0 90 3 90 15 0 12 -21 16 -115 18 l-115 3 1 -148z"/>
<path d="M3318 5178 c-2 -24 -2 -94 0 -155 3 -104 5 -113 23 -113 18 0 19 8
19 155 0 147 -1 155 -19 155 -16 0 -20 -8 -23 -42z"/>
<path d="M2096 5175 c-4 -14 -13 -25 -21 -25 -8 0 -15 -7 -15 -15 0 -8 7 -15
15 -15 12 0 15 -17 15 -93 0 -101 7 -117 51 -117 34 0 47 27 16 32 -20 3 -22
9 -25 91 -3 82 -2 87 18 87 27 0 26 28 -2 32 -17 2 -22 9 -20 26 5 31 -24 29
-32 -3z"/>
<path d="M4177 5194 c-4 -4 -7 -16 -7 -26 0 -10 -7 -18 -15 -18 -18 0 -20 -27
-3 -32 9 -3 13 -34 14 -98 2 -100 7 -110 57 -110 17 0 27 5 27 15 0 8 -9 15
-20 15 -24 0 -22 -6 -24 98 -1 79 -1 82 21 82 30 0 30 28 1 32 -15 2 -23 10
-23 22 0 20 -16 31 -28 20z"/>
<path d="M1850 5145 c0 -3 16 -30 36 -59 l36 -54 -41 -61 c-40 -59 -41 -61
-18 -61 17 0 30 11 46 40 12 22 26 42 31 45 6 3 22 -14 37 -39 20 -33 34 -46
51 -46 22 0 21 3 -18 59 -22 33 -40 62 -40 65 0 3 16 28 35 55 40 56 42 61 16
61 -11 0 -30 -18 -48 -46 l-30 -46 -27 46 c-17 30 -34 46 -46 46 -11 0 -20 -2
-20 -5z"/>
<path d="M2236 5128 c-77 -66 -35 -218 60 -218 42 0 94 25 94 45 0 19 -19 19
-44 0 -41 -31 -106 -3 -106 45 0 18 7 20 80 20 l80 0 0 34 c0 51 -35 87 -91
93 -38 4 -50 1 -73 -19z m108 -30 c28 -40 21 -48 -44 -48 -65 0 -72 8 -44 48
10 14 26 22 44 22 18 0 34 -8 44 -22z"/>
<path d="M2450 5030 c0 -113 1 -120 20 -120 18 0 20 7 20 74 0 95 11 126 45
126 18 0 25 5 25 20 0 32 -50 24 -63 -10 -4 -10 -6 -8 -6 8 -1 15 -7 22 -21
22 -19 0 -20 -7 -20 -120z"/>
<path d="M2599 5136 c0 -9 0 -36 0 -61 0 -160 0 -165 20 -165 16 0 18 9 19 88
1 76 4 89 23 105 12 9 29 17 39 17 33 0 43 -27 44 -121 1 -84 2 -90 21 -87 18
3 20 10 18 103 -2 89 -5 102 -24 118 -26 21 -68 22 -95 2 -23 -18 -35 -19 -31
-3 1 6 -6 14 -15 16 -11 2 -18 -3 -19 -12z"/>
<path d="M2866 5129 c-14 -11 -26 -24 -26 -29 0 -17 35 -15 52 2 33 33 88 17
88 -24 0 -14 -8 -18 -34 -18 -46 0 -94 -18 -106 -40 -42 -78 46 -143 120 -90
l28 20 5 -21 c4 -16 12 -20 33 -17 32 4 44 25 17 30 -15 3 -18 14 -19 76 -1
80 -15 117 -48 126 -42 11 -84 6 -110 -15z m114 -124 c0 -47 -67 -84 -98 -53
-32 32 3 78 60 78 34 0 38 -3 38 -25z"/>
<path d="M3430 5030 c0 -113 1 -120 20 -120 18 0 20 7 20 85 0 94 16 125 65
125 33 0 43 -27 43 -115 0 -95 0 -95 21 -95 17 0 19 7 16 93 -3 127 -2 122
-30 135 -35 16 -66 15 -93 -4 -20 -14 -22 -14 -22 0 0 9 -9 16 -20 16 -19 0
-20 -7 -20 -120z"/>
<path d="M3674 4985 c0 -161 1 -166 21 -163 17 3 20 10 19 60 -1 56 0 57 20
42 24 -16 69 -18 96 -4 38 21 54 135 25 190 -20 38 -76 51 -117 27 -24 -14
-28 -14 -28 -2 0 8 -8 15 -18 15 -17 0 -18 -12 -18 -165z m140 113 c9 -12 16
-43 16 -68 0 -71 -33 -104 -84 -84 -18 7 -37 61 -31 89 2 11 4 28 4 37 2 46
69 64 95 26z"/>
<path d="M3918 5138 c-3 -7 -4 -53 -2 -101 2 -68 6 -93 20 -108 21 -23 71 -25
102 -3 20 14 23 14 28 0 3 -9 14 -16 23 -16 14 0 16 14 13 120 -3 111 -5 120
-23 120 -17 0 -19 -8 -19 -83 0 -92 -15 -127 -54 -127 -38 0 -49 24 -51 113
-2 45 -3 85 -4 90 -2 12 -29 8 -33 -5z"/>
<path d="M4310 5137 c-17 -8 -26 -22 -28 -42 -3 -42 8 -55 69 -74 29 -10 57
-25 63 -34 26 -41 -65 -66 -101 -28 -21 22 -47 14 -38 -11 16 -40 116 -51 159
-17 51 40 29 92 -49 115 -58 16 -83 42 -63 62 17 17 60 15 84 -3 25 -19 44
-19 44 -1 0 39 -88 60 -140 33z"/>
<path d="M1140 2709 c0 -99 3 -129 13 -129 7 0 17 4 23 8 5 5 61 30 125 56 88
36 116 52 115 64 -3 16 -97 62 -228 112 l-48 18 0 -129z m130 36 c36 -15 68
-30 73 -34 8 -8 -149 -75 -160 -68 -5 3 -7 34 -6 69 2 77 1 71 16 65 6 -3 41
-17 77 -32z"/>
<path d="M2403 4375 c-11 -8 -28 -36 -37 -62 -20 -59 -20 -63 2 -63 12 0 22
15 32 48 22 70 40 61 70 -35 29 -96 47 -119 85 -109 44 11 91 143 48 134 -10
-2 -19 -12 -21 -23 -2 -11 -8 -33 -14 -48 -19 -49 -40 -29 -65 58 -14 50 -30
86 -43 97 -27 22 -30 22 -57 3z"/>
<path d="M2343 3470 c39 -112 44 -120 66 -118 60 7 130 238 73 238 -16 0 -19
-8 -19 -53 0 -53 -37 -156 -52 -142 -3 4 -19 48 -36 98 -25 75 -34 93 -52 95
-21 3 -20 -1 20 -118z"/>
<path d="M2407 2883 c-2 -5 -3 -23 -1 -41 2 -26 -2 -35 -19 -41 -38 -15 -60
-48 -65 -99 -5 -60 17 -109 57 -123 22 -8 27 -15 26 -42 -1 -42 4 -57 21 -57
10 0 14 13 14 45 0 33 4 45 14 45 8 0 27 10 42 23 21 18 28 35 32 75 6 68 -12
110 -55 128 -30 13 -33 18 -33 54 0 28 -4 40 -14 40 -8 0 -17 -3 -19 -7z m-1
-193 c0 -58 -3 -80 -13 -80 -33 0 -45 98 -17 138 8 12 19 22 23 22 4 0 7 -36
7 -80z m62 71 c16 -10 27 -80 18 -115 -3 -14 -15 -30 -25 -35 -17 -10 -18 -5
-19 74 -1 85 1 92 26 76z"/>
<path d="M2344 2026 c-5 -12 3 -28 25 -50 17 -17 31 -35 31 -39 0 -4 -14 -21
-31 -38 -20 -19 -29 -36 -25 -46 6 -13 14 -9 46 22 l40 39 38 -37 c30 -29 41
-34 50 -25 9 9 4 20 -25 50 l-37 38 39 40 c34 35 36 40 20 46 -12 5 -24 1 -34
-12 -42 -49 -49 -50 -91 -9 -34 33 -40 36 -46 21z"/>
<path d="M2419 1258 c-1 -7 -3 -24 -4 -38 -1 -14 -3 -30 -4 -36 0 -7 -19 -12
-42 -12 -45 -1 -54 -5 -44 -21 3 -6 25 -11 49 -11 l43 0 -2 -45 c-2 -38 0 -45
17 -45 15 0 18 7 17 33 -3 55 -2 57 46 57 33 0 45 4 45 15 0 11 -12 15 -45 15
l-45 0 -1 43 c-1 23 -1 45 0 50 0 4 -6 7 -14 7 -8 0 -16 -6 -16 -12z"/>
<path d="M3588 3554 c-38 -58 -68 -112 -68 -120 0 -11 16 -14 70 -14 l70 0 0
-35 c0 -28 4 -35 20 -35 16 0 20 7 20 35 0 28 4 35 20 35 11 0 20 7 20 15 0 8
-9 15 -20 15 -19 0 -20 7 -20 105 0 102 -1 105 -22 105 -18 0 -38 -24 -90
-106z m69 -101 c-3 -2 -25 -3 -50 -1 l-46 3 47 74 47 73 3 -72 c2 -40 1 -74
-1 -77z"/>
<path d="M3834 3555 c-37 -57 -69 -111 -70 -120 -2 -12 11 -15 72 -15 41 0 73
-3 73 -7 -6 -35 3 -63 19 -63 14 0 18 7 18 33 -1 26 3 33 22 35 12 2 22 10 22
17 0 7 -10 15 -22 17 -22 3 -23 7 -23 106 0 98 0 102 -21 102 -17 0 -38 -25
-90 -105z m76 -30 l0 -75 -50 0 c-27 0 -50 3 -50 6 0 7 91 144 96 144 2 0 4
-34 4 -75z"/>
<path d="M4073 3648 c-33 -16 -54 -70 -54 -141 0 -75 11 -108 47 -136 32 -25
64 -27 105 -6 48 25 70 118 49 206 -19 77 -80 109 -147 77z m87 -38 c11 -11
20 -26 21 -32 0 -7 2 -24 4 -38 7 -47 -7 -122 -26 -141 -24 -24 -58 -19 -82
13 -13 18 -18 42 -18 91 0 73 11 104 44 117 32 13 35 12 57 -10z"/>
<path d="M3583 2868 c-33 -16 -54 -69 -54 -142 -1 -114 47 -171 129 -150 64
16 94 102 72 208 -17 84 -77 118 -147 84z m79 -27 c27 -5 44 -124 27 -184 -17
-60 -67 -72 -102 -24 -32 42 -22 184 15 208 8 5 32 5 60 0z"/>
<path d="M3584 2090 c-51 -20 -75 -169 -39 -244 24 -50 88 -71 136 -46 68 37
76 230 12 280 -27 21 -73 25 -109 10z m86 -40 c11 -11 20 -28 21 -37 0 -10 2
-27 5 -38 6 -30 -6 -111 -19 -129 -7 -9 -24 -19 -39 -21 -44 -8 -68 33 -68
116 0 95 15 123 68 128 6 0 21 -8 32 -19z"/>
<path d="M3952 2072 c-18 -15 -32 -33 -32 -39 0 -18 7 -16 41 8 l30 21 -3
-119 c-3 -128 2 -118 -60 -122 -10 -1 -18 -8 -18 -16 0 -12 17 -15 95 -15 78
0 95 3 95 15 0 15 -16 19 -52 16 -16 -2 -18 10 -18 138 0 140 0 141 -22 141
-13 0 -38 -13 -56 -28z"/>
<path d="M3795 1818 c1 -16 9 -24 24 -26 19 -3 22 0 19 20 -4 32 -45 38 -43 6z"/>
<path d="M3583 1308 c-51 -25 -74 -167 -38 -242 32 -67 130 -73 166 -11 41 70
30 207 -18 245 -28 22 -75 25 -110 8z m80 -30 c24 -18 36 -68 32 -132 -5 -85
-37 -122 -84 -96 -36 19 -44 47 -42 141 2 76 49 119 94 87z"/>
</g>
</svg>
