<?xml version="1.0" standalone="no"?>
<!DOCTYPE svg PUBLIC "-//W3C//DTD SVG 20010904//EN"
 "http://www.w3.org/TR/2001/REC-SVG-20010904/DTD/svg10.dtd">
<svg version="1.0" xmlns="http://www.w3.org/2000/svg"
 width="1334.000000pt" height="391.000000pt" viewBox="0 0 1334.000000 391.000000"
 preserveAspectRatio="xMidYMid meet">
<metadata>
Created by potrace 1.16, written by Peter Selinger 2001-2019
</metadata>
<g transform="translate(0.000000,391.000000) scale(0.100000,-0.100000)"
fill="#000000" stroke="none">
<path d="M2346 3032 c-3 -5 -20 -8 -38 -6 -26 3 -50 -8 -125 -57 -125 -82
-141 -83 -262 -2 l-92 61 -137 -3 c-155 -2 -188 -12 -251 -70 -39 -37 -68 -85
-77 -128 -2 -12 -4 -349 -4 -749 -1 -540 2 -738 11 -768 20 -68 103 -149 171
-167 13 -4 2348 -7 5191 -8 l5167 -2 0 557 0 557 -1459 0 c-802 0 -1463 3
-1470 7 -6 4 -11 4 -11 -1 0 -6 -4643 -9 -4770 -4 -14 1 -16 46 -16 389 l1
387 -100 0 c-55 1 -105 4 -112 8 -6 4 -14 4 -16 0 -6 -10 -1089 -9 -1104 0 -5
4 -13 4 -17 0 -9 -10 -449 -10 -463 0 -6 4 -14 4 -17 -1z m-436 -98 c72 -50
92 -58 136 -61 48 -2 56 1 140 59 l89 61 910 1 c501 1 920 -1 933 -3 l22 -3 0
-369 0 -369 -934 0 -934 0 -88 -60 c-76 -52 -94 -60 -134 -60 -40 0 -58 8
-134 60 l-88 60 -220 0 -219 0 3 293 c3 321 3 321 69 387 54 53 107 66 274 64
l91 -1 84 -59z m0 -780 c76 -52 90 -59 137 -60 49 -1 60 3 143 60 l90 61 138
-2 c75 0 140 -2 143 -2 9 -2 2 -192 -8 -202 -7 -7 -30 2 -69 25 -32 20 -68 36
-80 36 -51 0 -76 -73 -75 -218 0 -114 10 -163 37 -193 25 -27 51 -23 117 17
43 26 62 33 70 25 7 -7 11 -96 11 -273 l1 -262 -470 0 c-259 -1 -492 2 -519 6
-62 9 -120 49 -154 107 l-27 46 -3 442 c-3 410 -2 442 14 445 10 2 108 3 218
2 l201 -1 85 -59z m9953 57 c4 -1 6 -236 5 -523 l-3 -521 -4630 0 -4630 0 -5
264 c-5 279 -10 309 -52 309 -11 0 -42 -13 -67 -28 -59 -36 -75 -42 -90 -33
-42 26 -41 326 2 353 13 8 44 -4 92 -36 81 -56 111 -24 114 119 1 49 6 92 11
95 6 4 9221 5 9253 1z"/>
<path d="M2420 2759 c0 -25 33 -22 38 4 2 12 -3 17 -17 17 -15 0 -21 -6 -21
-21z"/>
<path d="M1700 2751 c-5 -11 -10 -34 -10 -51 0 -27 3 -31 23 -28 14 2 20 9 17
18 -2 8 -4 30 -4 48 1 36 -10 42 -26 13z"/>
<path d="M1770 2751 c-5 -11 -10 -33 -10 -50 0 -26 4 -31 23 -31 16 0 23 6 23
20 0 11 -4 20 -9 20 -5 0 -7 14 -3 30 6 34 -8 40 -24 11z"/>
<path d="M2155 2618 c1 -149 1 -153 22 -156 20 -3 22 2 25 60 l3 63 75 0 c68
0 89 6 90 28 0 4 -38 7 -85 7 l-85 0 0 58 0 57 82 0 c71 0 83 3 86 18 3 15 -7
17 -105 17 l-108 0 0 -152z"/>
<path d="M3554 2758 c-12 -5 -27 -21 -33 -34 -15 -34 15 -46 38 -15 23 31 66
36 91 11 11 -11 20 -24 20 -30 0 -19 -40 -50 -66 -50 -37 0 -29 -34 9 -37 39
-3 57 -20 57 -54 0 -59 -88 -76 -112 -23 -14 30 -48 32 -48 4 0 -45 61 -77
127 -67 49 8 75 36 76 82 1 30 -5 42 -27 60 -28 22 -28 23 -9 34 29 15 35 39
22 78 -16 49 -88 69 -145 41z"/>
<path d="M2420 2580 c0 -113 1 -120 20 -120 19 0 20 7 20 120 0 113 -1 120
-20 120 -19 0 -20 -7 -20 -120z"/>
<path d="M2535 2675 c-15 -14 -26 -37 -26 -55 -4 -90 0 -110 26 -135 28 -29
70 -32 103 -9 21 15 22 14 22 -15 0 -53 -45 -77 -86 -46 -27 20 -56 19 -52 -2
9 -46 114 -58 153 -18 27 26 26 23 29 197 1 107 1 108 -22 108 -13 0 -21 -4
-17 -9 10 -17 -12 -21 -25 -6 -20 24 -77 19 -105 -10z m105 -25 c15 -15 20
-33 20 -70 0 -54 -23 -90 -59 -90 -36 0 -51 27 -51 90 0 84 42 118 90 70z"/>
<path d="M2762 2594 c3 -91 6 -108 22 -120 26 -19 71 -18 101 2 23 15 25 15
25 0 0 -9 8 -16 20 -16 19 0 20 7 20 120 0 111 -1 120 -19 120 -16 0 -19 -10
-23 -90 -3 -74 -8 -93 -24 -105 -25 -19 -49 -19 -68 1 -12 12 -16 37 -16 105
0 84 -1 89 -21 89 -20 0 -21 -4 -17 -106z"/>
<path d="M3009 2693 c0 -11 0 -182 0 -210 1 -16 7 -23 21 -23 18 0 20 7 20 83
0 90 11 117 48 120 14 1 22 8 22 19 0 25 -35 23 -59 -4 l-20 -21 4 21 c3 17
-1 22 -16 22 -10 0 -19 -3 -20 -7z"/>
<path d="M3192 2690 c-47 -19 -66 -113 -35 -177 26 -55 106 -72 157 -32 47 37
24 54 -31 22 -42 -24 -80 -12 -91 30 l-8 32 84 3 84 3 -6 31 c-3 17 -6 34 -6
38 0 4 -12 19 -26 34 -28 28 -76 34 -122 16z m84 -28 c16 -10 34 -48 27 -56
-8 -8 -123 -8 -123 0 0 11 23 49 34 56 6 4 20 8 31 8 11 0 25 -4 31 -8z"/>
<path d="M3779 2508 c-1 -2 -3 -13 -4 -25 -2 -18 3 -23 21 -23 19 0 24 5 24
25 0 18 -5 25 -20 25 -11 0 -21 -1 -21 -2z"/>
<path d="M1720 1670 c0 -72 2 -130 5 -130 3 0 119 47 262 107 11 5 12 27 0 39
-5 5 -126 57 -244 104 l-23 10 0 -130z m130 35 c36 -15 69 -30 73 -34 4 -4
-29 -22 -74 -40 -44 -18 -82 -31 -84 -29 -6 6 -7 32 -6 87 1 38 4 52 14 48 6
-3 41 -17 77 -32z"/>
<path d="M4239 2098 c-1 -2 -3 -54 -5 -117 -2 -63 -8 -119 -13 -124 -6 -6 -26
1 -58 21 -126 81 -166 38 -166 -177 1 -116 10 -160 40 -193 24 -26 51 -22 116
18 40 25 62 33 69 26 6 -6 11 -66 12 -139 l1 -128 683 -3 682 -2 0 410 0 410
-680 0 c-374 0 -681 -1 -681 -2z m1329 -406 c1 -205 -1 -372 -5 -373 -30 -4
-1286 -3 -1288 1 -2 3 -5 52 -6 108 -3 115 -17 162 -48 162 -12 0 -51 -16 -87
-35 -41 -22 -71 -32 -76 -27 -26 26 -38 223 -18 306 14 63 26 64 113 12 72
-43 105 -27 113 54 1 14 2 57 3 95 l1 70 648 0 647 -1 3 -372z"/>
<path d="M4630 1733 c-39 -59 -70 -113 -70 -120 0 -9 19 -13 69 -13 72 0 80
-5 76 -47 -1 -16 4 -23 17 -23 18 0 22 8 18 48 -1 16 4 22 18 22 11 0 22 7 26
15 4 11 -2 15 -20 15 -24 0 -25 2 -23 63 3 132 1 147 -21 147 -15 0 -39 -29
-90 -107z m75 -25 l0 -73 -53 -3 -53 -3 51 75 c28 42 52 76 53 76 2 0 3 -33 2
-72z"/>
<path d="M4876 1739 c-93 -139 -93 -139 0 -139 41 0 73 -3 73 -7 -6 -35 3 -63
19 -63 14 0 18 8 17 33 0 26 4 33 23 35 29 4 29 32 -1 32 -22 0 -23 3 -22 93
1 50 0 98 -3 105 -11 33 -42 7 -106 -89z m71 -34 l0 -75 -49 0 c-26 0 -48 2
-48 5 0 6 92 145 96 145 1 0 2 -34 1 -75z"/>
<path d="M5114 1830 c-75 -30 -73 -254 3 -289 70 -32 126 2 143 85 31 149 -39
247 -146 204z m73 -29 c32 -2 51 -116 31 -188 -17 -61 -86 -65 -108 -7 -6 14
-10 54 -10 88 0 70 25 117 58 111 9 -2 22 -4 29 -4z"/>
<path d="M6597 2093 c-2 -5 -4 -57 -5 -117 0 -60 -5 -113 -11 -119 -6 -6 -26
0 -58 21 -116 74 -155 44 -167 -128 -7 -90 8 -198 32 -229 28 -38 56 -37 124
4 40 25 63 34 70 27 6 -6 10 -60 10 -124 0 -62 2 -121 5 -130 4 -17 33 -18
438 -18 l434 0 3 103 c2 56 2 240 0 410 l-3 307 -434 0 c-238 0 -436 -3 -438
-7z m841 -401 c2 -294 0 -372 -10 -373 -50 -4 -791 -3 -793 2 -2 3 -5 51 -6
107 -3 114 -17 162 -48 162 -12 0 -50 -16 -87 -35 -36 -19 -70 -33 -75 -30
-18 12 -30 91 -28 193 3 176 19 194 116 131 92 -57 114 -36 121 116 l4 100
402 0 401 -1 3 -372z"/>
<path d="M6984 1828 c-30 -14 -50 -64 -53 -131 -4 -103 35 -167 103 -167 67 0
106 58 106 155 0 121 -70 185 -156 143z m86 -36 c17 -14 23 -32 27 -85 9 -107
-26 -163 -84 -135 -34 16 -47 63 -40 143 4 45 11 64 27 77 28 23 42 23 70 0z"/>
<path d="M8479 2098 c0 -2 -2 -54 -4 -116 -1 -63 -7 -118 -12 -123 -7 -7 -31
2 -69 25 -67 40 -93 44 -118 17 -28 -30 -37 -80 -37 -196 0 -116 9 -166 37
-196 25 -27 51 -23 118 17 40 24 62 32 69 25 6 -6 11 -67 12 -138 l1 -128 622
-3 622 -2 0 410 0 410 -620 0 c-341 0 -620 -1 -621 -2z m1199 -37 c9 -1 12
-82 12 -370 0 -343 -1 -369 -17 -373 -10 -2 -274 -3 -588 -3 l-570 0 -5 115
c-8 166 -27 188 -119 132 -64 -39 -78 -43 -95 -26 -21 21 -29 90 -24 209 4 81
9 109 22 124 20 22 27 20 98 -22 89 -53 116 -22 117 133 l1 85 578 -1 c317 -1
583 -2 590 -3z"/>
<path d="M8849 1812 c-28 -25 -32 -35 -36 -99 -9 -115 29 -183 101 -183 85 0
130 109 96 232 -22 77 -103 102 -161 50z m101 -20 c44 -36 36 -197 -11 -223
-31 -16 -71 9 -82 51 -15 58 -2 152 23 172 12 10 28 18 35 18 7 0 23 -8 35
-18z"/>
<path d="M9232 1812 c-51 -43 -41 -72 12 -31 l26 20 0 -119 0 -119 -27 1 c-29
1 -53 -10 -53 -25 0 -11 187 -12 194 -1 9 15 -9 28 -39 27 l-30 0 -3 138 c-3
134 -3 137 -25 137 -12 0 -37 -13 -55 -28z"/>
<path d="M9080 1555 c0 -18 5 -25 20 -25 15 0 20 7 20 25 0 18 -5 25 -20 25
-15 0 -20 -7 -20 -25z"/>
<path d="M10727 2093 c-4 -3 -7 -57 -7 -119 0 -67 -4 -115 -10 -119 -6 -4 -32
7 -58 23 -26 17 -59 34 -75 37 -56 14 -88 -47 -93 -180 -5 -148 22 -235 75
-243 14 -2 48 12 83 33 34 22 63 34 69 28 4 -4 10 -67 11 -138 l3 -130 438 -3
437 -2 0 410 0 410 -433 0 c-239 0 -437 -3 -440 -7z m841 -401 c1 -205 -1
-373 -5 -373 -37 -6 -796 -2 -799 3 -3 4 -7 56 -9 115 -2 60 -6 116 -10 126
-13 33 -50 31 -117 -7 -35 -19 -69 -32 -75 -28 -24 15 -35 70 -34 178 0 116
16 184 43 180 7 -1 39 -16 71 -35 64 -37 101 -36 113 2 4 12 9 60 10 107 1 47
3 90 3 95 1 6 142 10 403 10 l403 -1 3 -372z"/>
<path d="M11114 1830 c-75 -30 -73 -254 3 -289 67 -31 124 1 143 79 12 52 7
138 -10 170 -24 44 -83 62 -136 40z m85 -39 c30 -30 37 -124 16 -192 -9 -26
-50 -42 -75 -29 -31 17 -40 44 -40 120 0 62 3 74 25 95 29 30 49 31 74 6z"/>
<path d="M5990 1807 c0 -38 -3 -44 -30 -54 -77 -29 -78 -180 -1 -214 28 -12
31 -18 31 -56 0 -30 4 -43 14 -43 17 0 23 16 21 53 -2 23 4 32 31 44 38 19 57
57 57 117 0 55 -17 84 -57 101 -30 13 -32 17 -31 54 1 34 -2 41 -17 41 -15 0
-18 -8 -18 -43z m0 -162 c0 -70 -3 -83 -15 -79 -34 13 -43 115 -14 151 23 27
29 11 29 -72z m74 54 c7 -18 11 -48 9 -68 -5 -35 -29 -74 -42 -67 -5 4 -7 154
-2 164 6 11 24 -4 35 -29z"/>
<path d="M2987 1779 c-20 -12 -42 -52 -52 -96 -6 -28 -4 -33 13 -33 15 0 22
11 31 44 20 82 48 70 71 -31 26 -120 84 -149 128 -63 27 54 29 89 5 86 -12 -2
-21 -18 -28 -47 -7 -26 -17 -45 -27 -47 -17 -3 -27 19 -52 109 -15 52 -41 89
-62 89 -5 0 -17 -5 -27 -11z"/>
<path d="M10119 1763 c-3 -68 -2 -68 -39 -70 -19 -1 -40 -2 -47 -2 -7 -1 -10
-8 -7 -16 4 -10 20 -15 50 -15 36 0 43 -3 42 -17 -3 -46 3 -73 17 -73 11 0 15
12 15 45 l0 45 45 0 c33 0 45 4 45 15 0 10 -11 15 -37 16 -21 1 -41 1 -45 0
-5 0 -8 22 -8 49 0 38 -4 50 -15 50 -9 0 -15 -10 -16 -27z"/>
<path d="M7797 1774 c-12 -12 -8 -20 28 -59 l34 -38 -34 -36 c-37 -37 -41 -46
-25 -56 5 -3 25 11 44 31 37 40 45 39 85 -8 19 -23 26 -26 38 -17 12 10 8 18
-24 51 -22 23 -34 42 -28 46 6 4 23 22 39 39 25 28 27 33 13 39 -11 4 -27 -4
-46 -25 -16 -17 -33 -31 -37 -31 -5 0 -24 16 -44 35 -20 20 -39 32 -43 29z"/>
<path d="M3593 1650 c39 -114 43 -121 67 -118 60 7 130 238 72 238 -15 0 -18
-9 -18 -52 -1 -54 -40 -157 -54 -141 -3 4 -20 50 -36 100 -25 79 -32 93 -51
93 -21 0 -21 -3 20 -120z"/>
</g>
</svg>
