<?xml version="1.0" standalone="no"?>
<!DOCTYPE svg PUBLIC "-//W3C//DTD SVG 20010904//EN"
 "http://www.w3.org/TR/2001/REC-SVG-20010904/DTD/svg10.dtd">
<svg version="1.0" xmlns="http://www.w3.org/2000/svg"
 width="1445.000000pt" height="275.000000pt" viewBox="0 0 1445.000000 275.000000"
 preserveAspectRatio="xMidYMid meet">
<metadata>
Created by potrace 1.16, written by Peter Selinger 2001-2019
</metadata>
<g transform="translate(0.000000,275.000000) scale(0.100000,-0.100000)"
fill="#000000" stroke="none">
<path d="M2277 2384 c-4 -4 -247 -7 -539 -7 -524 1 -534 0 -568 -20 -19 -12
-36 -25 -38 -29 -2 -4 -8 -8 -14 -8 -6 0 -27 -14 -49 -31 -31 -24 -48 -30 -89
-31 -37 0 -58 6 -73 19 -12 11 -51 38 -87 61 l-65 41 -136 -3 c-117 -2 -143
-6 -183 -25 -56 -28 -118 -96 -134 -149 -17 -57 -17 -1487 0 -1545 18 -60 101
-141 164 -160 42 -12 781 -14 5206 -14 l5158 0 0 557 0 557 -3322 -1 c-1828
-1 -3330 0 -3339 2 -14 3 -16 20 -15 108 0 63 5 104 11 104 7 0 6 3 0 8 -6 4
-11 16 -11 27 0 11 5 23 11 27 6 5 6 8 0 8 -6 0 -10 86 -10 238 0 130 -1 242
-3 248 -2 8 -260 11 -933 10 -511 -1 -930 3 -932 7 -1 5 -6 5 -10 1z m-1436
-101 c85 -57 94 -61 142 -59 45 2 64 10 141 61 l88 59 1454 1 1454 0 0 -372 0
-373 -1457 0 -1458 0 -90 -60 c-123 -82 -147 -82 -269 0 l-88 60 -219 0 -220
0 1 280 c1 296 4 315 52 383 23 32 88 68 137 76 19 3 80 6 137 6 l103 0 92
-62z m-4 -778 c75 -50 96 -59 139 -61 48 -3 57 1 143 59 l91 62 133 -2 c72 0
137 -2 143 -2 15 -1 11 -188 -5 -204 -8 -8 -18 -6 -38 10 -41 30 -89 53 -111
53 -49 0 -74 -74 -73 -217 0 -114 10 -164 37 -194 25 -27 51 -23 117 17 44 27
62 33 70 25 15 -15 18 -529 3 -534 -22 -7 -982 0 -1006 7 -46 15 -101 59 -128
105 l-27 46 -3 442 c-3 411 -2 442 14 445 10 2 106 3 215 2 l198 0 88 -59z
m9963 -465 l0 -525 -4632 0 -4633 1 -5 270 c-5 284 -9 304 -51 304 -10 0 -40
-13 -66 -28 -60 -36 -77 -42 -90 -34 -23 16 -33 79 -30 197 2 103 5 126 20
143 21 23 31 21 99 -21 88 -53 116 -22 117 130 1 45 5 83 11 85 5 2 2091 3
4635 3 l4625 0 0 -525z"/>
<path d="M2450 1970 c0 -153 1 -160 20 -160 19 0 20 7 20 160 0 153 -1 160
-20 160 -19 0 -20 -7 -20 -160z"/>
<path d="M630 2101 c-5 -11 -10 -33 -10 -50 0 -24 4 -31 19 -31 10 0 21 9 24
20 3 11 0 20 -5 20 -6 0 -8 12 -4 30 6 34 -8 40 -24 11z"/>
<path d="M696 2089 c-11 -57 -8 -69 18 -69 24 0 28 13 12 38 -4 7 -5 24 -2 38
5 17 2 24 -8 24 -7 0 -16 -14 -20 -31z"/>
<path d="M1090 1965 c0 -148 1 -155 20 -155 19 0 20 7 20 155 0 148 -1 155
-20 155 -19 0 -20 -7 -20 -155z"/>
<path d="M2680 1965 c0 -148 1 -155 20 -155 11 0 20 5 21 10 0 6 0 66 0 135 0
175 2 165 -21 165 -19 0 -20 -7 -20 -155z"/>
<path d="M1460 2080 c0 -11 -8 -24 -17 -28 -23 -9 -28 -32 -8 -32 12 0 15 -17
15 -94 0 -103 8 -120 56 -114 34 4 43 25 12 30 -22 3 -23 8 -26 91 -3 82 -2
87 18 87 11 0 20 7 20 15 0 8 -9 15 -20 15 -15 0 -20 7 -20 25 0 16 -6 25 -15
25 -8 0 -15 -9 -15 -20z"/>
<path d="M3540 2080 c0 -11 -8 -24 -17 -28 -23 -9 -28 -32 -8 -32 12 0 15 -16
15 -88 0 -102 11 -125 55 -120 35 4 45 25 13 30 -22 3 -23 8 -26 91 -3 82 -2
87 18 87 11 0 20 7 20 15 0 8 -9 15 -20 15 -15 0 -20 7 -20 25 0 16 -6 25 -15
25 -8 0 -15 -9 -15 -20z"/>
<path d="M1200 1930 c0 -113 1 -120 20 -120 22 0 22 0 20 87 -2 80 19 122 62
123 37 0 48 -27 48 -121 0 -84 1 -89 21 -89 20 0 21 4 17 106 -3 91 -6 108
-22 120 -29 21 -82 18 -106 -6 l-20 -20 0 20 c0 13 -7 20 -20 20 -19 0 -20 -7
-20 -120z"/>
<path d="M1614 2040 c-39 -15 -57 -57 -52 -122 6 -75 27 -99 96 -106 45 -4 53
-1 79 24 24 24 25 29 11 32 -10 2 -28 -4 -40 -12 -44 -31 -91 -14 -104 37 l-6
27 85 0 c95 0 89 -7 71 73 -10 46 -82 71 -140 47z m88 -37 c10 -9 18 -24 18
-35 0 -15 -8 -18 -60 -18 -66 0 -77 13 -40 50 24 24 57 26 82 3z"/>
<path d="M1814 1930 c1 -113 2 -120 21 -120 18 0 20 7 21 85 1 91 12 115 49
115 16 0 22 5 21 18 -4 26 -42 27 -60 0 l-16 -22 0 22 c0 15 -6 22 -18 22 -16
0 -18 -11 -18 -120z"/>
<path d="M1960 1930 c0 -113 1 -120 20 -120 18 0 20 7 20 76 0 98 18 134 67
134 33 0 43 -29 43 -124 0 -79 2 -86 20 -86 19 0 20 7 20 100 0 116 -13 140
-75 140 -22 0 -43 -8 -55 -20 l-20 -20 0 20 c0 13 -7 20 -20 20 -19 0 -20 -7
-20 -120z"/>
<path d="M2238 2034 c-16 -8 -28 -21 -28 -28 0 -23 27 -26 46 -5 21 23 57 25
78 3 30 -29 19 -41 -40 -46 -66 -6 -95 -29 -96 -78 -2 -62 72 -92 124 -51 24
19 24 19 36 0 14 -22 62 -26 62 -5 0 8 -7 16 -15 20 -12 4 -15 23 -15 81 0 67
-3 79 -25 100 -28 29 -84 33 -127 9z m108 -131 c-9 -37 -43 -65 -75 -61 -20 2
-27 9 -29 33 -5 37 19 55 71 55 38 0 39 -1 33 -27z"/>
<path d="M2790 1930 c0 -113 1 -120 20 -120 11 0 20 3 20 8 0 4 2 44 3 89 2
89 16 112 64 113 33 0 43 -29 43 -124 0 -79 2 -86 20 -86 19 0 20 7 20 91 0
86 -9 125 -34 141 -22 15 -76 8 -96 -12 l-20 -20 0 20 c0 13 -7 20 -20 20 -19
0 -20 -7 -20 -120z"/>
<path d="M3038 2043 c-3 -7 -2 -254 1 -305 1 -11 9 -18 21 -18 19 0 21 5 17
51 -3 51 6 70 26 50 16 -16 69 -14 95 5 20 13 38 71 35 112 0 6 -1 23 -2 37
-2 38 -43 75 -84 75 -19 0 -40 -7 -48 -16 -11 -14 -13 -14 -21 0 -9 17 -34 22
-40 9z m134 -40 c23 -21 25 -109 2 -141 -18 -26 -50 -28 -76 -5 -24 22 -25
118 -1 145 20 22 51 23 75 1z"/>
<path d="M3280 1950 c0 -116 13 -140 75 -140 22 0 43 8 55 20 l20 20 0 -20 c0
-13 7 -20 20 -20 19 0 20 7 20 120 0 113 -1 120 -20 120 -17 0 -20 -7 -21 -42
-1 -24 0 -49 1 -57 3 -27 -11 -80 -26 -96 -21 -21 -61 -19 -74 4 -5 11 -10 58
-10 105 0 79 -2 86 -20 86 -19 0 -20 -7 -20 -100z"/>
<path d="M3680 2043 c-39 -16 -52 -69 -22 -95 9 -9 40 -23 69 -32 56 -19 70
-37 47 -61 -21 -21 -66 -19 -96 4 -33 27 -56 13 -30 -19 22 -28 103 -38 141
-18 61 32 37 106 -41 127 -62 16 -76 26 -62 48 13 20 86 23 92 4 4 -13 42 -15
42 -1 0 5 -10 18 -22 30 -21 20 -82 26 -118 13z"/>
<path d="M650 1019 c0 -152 -21 -143 160 -67 153 64 154 72 5 131 -49 19 -107
43 -127 51 l-38 16 0 -131z m164 22 c27 -12 47 -23 45 -25 -15 -15 -163 -65
-168 -57 -5 7 -6 118 -2 128 1 3 69 -22 125 -46z"/>
<path d="M3167 1443 c-2 -5 -4 -57 -5 -117 0 -60 -5 -113 -11 -119 -6 -6 -30
4 -68 27 -69 43 -95 45 -122 10 -24 -31 -35 -92 -35 -199 1 -101 9 -146 35
-179 27 -35 53 -33 122 10 38 23 62 33 68 27 6 -6 10 -61 11 -124 0 -63 2
-122 5 -131 4 -17 45 -18 684 -18 l679 0 0 410 0 410 -679 0 c-374 0 -682 -3
-684 -7z m1333 -403 l0 -375 -645 1 c-354 0 -647 2 -650 5 -2 3 -6 54 -8 115
-4 112 -16 154 -44 154 -9 0 -47 -15 -83 -34 -37 -20 -71 -31 -78 -27 -7 4
-17 23 -22 42 -13 45 -13 224 1 272 14 51 33 52 109 5 89 -55 118 -26 117 121
0 47 5 86 11 90 5 3 299 6 651 6 l641 0 0 -375z"/>
<path d="M3560 1083 c-39 -59 -70 -113 -70 -120 0 -9 21 -13 74 -13 l74 0 -3
-31 c-2 -19 3 -33 12 -36 18 -7 24 -1 26 33 2 18 9 30 22 34 30 8 29 30 0 30
l-25 0 0 105 c0 99 -1 105 -20 105 -15 0 -39 -29 -90 -107z m74 -25 c-1 -35
-3 -66 -3 -70 -1 -5 -24 -8 -51 -8 l-50 0 46 70 c26 39 50 70 53 70 3 0 6 -28
5 -62z"/>
<path d="M3809 1093 c-36 -54 -68 -108 -71 -120 -6 -21 -3 -22 66 -25 l71 -3
3 -32 c2 -24 8 -33 22 -33 14 0 17 7 15 35 -2 31 1 35 22 35 14 0 23 6 23 15
0 8 -9 15 -20 15 -23 0 -22 -3 -24 115 -1 83 -3 90 -22 93 -16 2 -34 -18 -85
-95z m69 -38 l0 -75 -49 0 c-27 0 -49 2 -49 5 0 6 92 145 95 145 2 0 3 -34 3
-75z"/>
<path d="M4033 1172 c-30 -24 -44 -67 -45 -137 0 -103 35 -155 105 -155 31 0
45 7 68 31 16 17 30 39 30 48 1 9 3 27 5 41 2 14 1 49 -2 79 -8 71 -44 111
-101 111 -21 0 -48 -8 -60 -18z m87 -22 c26 -14 39 -60 35 -129 -4 -73 -16
-97 -51 -105 -20 -5 -33 -2 -48 13 -40 40 -31 213 12 224 28 8 33 7 52 -3z"/>
<path d="M5527 1443 c-2 -5 -4 -57 -5 -117 0 -60 -5 -113 -10 -118 -7 -7 -31
3 -70 27 -68 41 -96 42 -124 4 -47 -63 -45 -312 3 -373 27 -35 53 -33 122 10
37 23 62 33 68 27 6 -6 11 -68 12 -139 l2 -129 438 -3 437 -2 0 32 c1 42 1
618 0 716 l0 72 -434 0 c-239 0 -437 -3 -439 -7z m836 -32 c4 -1 7 -167 7
-371 0 -203 -3 -370 -7 -371 -5 0 -185 -2 -402 -2 -258 -1 -395 1 -397 8 -3 6
-6 57 -8 115 -2 58 -7 113 -11 123 -14 33 -50 31 -117 -7 -70 -39 -83 -37 -98
15 -13 45 -13 224 1 272 14 51 33 52 109 5 53 -33 92 -33 105 -1 4 10 9 61 11
113 3 52 9 97 13 100 7 4 763 5 794 1z"/>
<path d="M5913 1178 c-47 -23 -70 -158 -39 -232 39 -93 159 -85 186 12 24 86
5 183 -41 216 -26 18 -73 20 -106 4z m87 -36 c43 -35 40 -189 -5 -218 -52 -34
-96 20 -94 113 1 68 11 96 39 110 32 16 34 16 60 -5z"/>
<path d="M7409 1448 c-1 -2 -2 -54 -4 -116 -2 -63 -7 -118 -13 -124 -6 -6 -30
4 -68 26 -70 43 -96 45 -123 10 -47 -60 -47 -318 0 -378 27 -35 53 -33 123 10
39 23 62 32 69 25 5 -5 11 -65 12 -133 2 -68 3 -126 4 -130 1 -5 280 -8 621
-8 l620 0 0 410 0 410 -620 0 c-341 0 -620 -1 -621 -2z m1189 -37 l22 -1 0
-370 c0 -345 -1 -370 -17 -371 -56 -3 -1140 -4 -1150 -1 -9 3 -13 33 -14 101
0 53 -6 112 -12 131 -11 30 -17 35 -43 34 -17 -1 -48 -13 -70 -26 -74 -47 -90
-44 -104 18 -13 56 -12 225 2 265 19 56 29 57 107 7 89 -56 117 -29 120 117 1
49 6 92 11 95 6 4 1064 5 1148 1z"/>
<path d="M7791 1174 c-32 -23 -51 -74 -51 -139 0 -97 39 -155 105 -155 66 0
105 58 105 155 0 97 -39 155 -105 155 -17 0 -41 -7 -54 -16z m88 -31 c43 -36
40 -190 -4 -219 -58 -38 -99 20 -93 129 3 58 8 73 27 88 29 24 43 24 70 2z"/>
<path d="M8162 1162 c-51 -43 -41 -72 12 -31 l26 20 0 -120 0 -120 -27 1 c-46
1 -53 -1 -53 -17 0 -12 17 -15 93 -15 52 0 96 3 100 6 15 15 -7 31 -38 29
l-35 -3 0 139 c0 138 0 139 -22 139 -13 0 -38 -13 -56 -28z"/>
<path d="M8008 918 c-8 -21 2 -38 23 -38 14 0 19 7 19 25 0 18 -5 25 -19 25
-10 0 -21 -6 -23 -12z"/>
<path d="M9657 1443 c-4 -3 -7 -57 -7 -119 0 -65 -4 -115 -10 -119 -6 -3 -37
10 -69 30 -66 41 -95 42 -123 5 -52 -71 -42 -356 15 -392 23 -15 52 -8 110 28
32 20 61 33 65 29 4 -4 9 -66 12 -138 l5 -132 438 -3 437 -2 0 410 0 410 -433
0 c-239 0 -437 -3 -440 -7z m841 -401 c2 -294 0 -372 -10 -373 -82 -6 -791 -2
-796 5 -3 5 -6 55 -7 110 -1 56 -5 111 -9 123 -12 38 -46 38 -117 -1 -35 -19
-69 -32 -76 -28 -24 15 -35 69 -35 174 0 107 14 177 35 179 25 3 39 -3 84 -32
91 -57 115 -34 118 107 1 50 5 95 8 100 3 5 184 9 404 8 l398 0 3 -372z"/>
<path d="M10033 1172 c-12 -9 -27 -30 -33 -47 -14 -38 -15 -141 -2 -176 25
-63 105 -88 154 -49 28 22 48 86 44 140 -1 19 -3 48 -4 63 -3 44 -52 87 -99
87 -21 0 -48 -8 -60 -18z m87 -22 c34 -18 48 -128 25 -199 -10 -32 -52 -45
-81 -26 -30 19 -37 49 -32 132 3 54 8 69 27 84 27 22 35 23 61 9z"/>
<path d="M4920 1156 c0 -38 -3 -45 -21 -48 -30 -4 -59 -47 -66 -94 -7 -55 17
-108 56 -125 28 -12 31 -18 31 -57 0 -36 3 -43 17 -40 13 2 18 13 18 41 1 31
6 41 32 57 42 25 54 50 55 112 0 57 -25 101 -61 106 -20 3 -23 9 -25 62 -1 15
-8 26 -18 28 -15 3 -18 -4 -18 -42z m0 -161 c0 -70 -3 -83 -15 -79 -33 13 -42
115 -13 152 22 26 28 9 28 -73z m71 63 c17 -31 13 -107 -7 -129 -9 -10 -19
-17 -23 -15 -5 3 -7 127 -2 159 2 15 21 6 32 -15z"/>
<path d="M1923 1130 c-24 -10 -47 -48 -58 -97 -6 -29 -4 -33 13 -33 14 0 21 9
26 33 3 19 13 42 21 53 13 18 14 18 27 1 8 -10 22 -49 32 -87 9 -37 25 -75 36
-85 41 -37 90 4 106 88 6 34 4 39 -11 35 -12 -2 -22 -18 -29 -48 -7 -27 -17
-46 -27 -48 -18 -3 -28 18 -53 109 -9 30 -24 63 -34 72 -21 19 -19 19 -49 7z"/>
<path d="M9049 1123 c-1 -10 -2 -31 -3 -48 -1 -28 -3 -30 -48 -33 -36 -2 -46
-6 -41 -18 3 -9 20 -14 49 -14 44 0 45 0 43 -32 -3 -50 0 -58 16 -58 11 0 15
12 15 45 l0 45 45 0 c33 0 45 4 45 15 0 11 -12 15 -45 15 l-45 0 0 50 c0 38
-4 50 -15 50 -8 0 -15 -8 -16 -17z"/>
<path d="M6726 1115 c-4 -10 7 -28 31 -52 l36 -37 -37 -33 c-37 -34 -43 -47
-26 -58 5 -3 26 11 45 32 l34 37 28 -24 c15 -14 33 -32 40 -40 11 -13 14 -13
22 0 8 11 1 24 -26 52 l-37 38 37 36 c28 28 34 40 26 50 -9 11 -18 6 -44 -21
-18 -19 -36 -35 -41 -35 -4 0 -25 16 -45 36 -30 29 -37 33 -43 19z"/>
<path d="M2523 1000 c39 -113 43 -121 66 -118 18 2 33 18 56 61 47 85 55 177
15 177 -14 0 -17 -9 -17 -52 0 -50 -38 -157 -51 -144 -2 3 -19 47 -36 98 -26
76 -36 94 -53 96 -21 3 -21 -1 20 -118z"/>
</g>
</svg>
