<?xml version="1.0" standalone="no"?>
<!DOCTYPE svg PUBLIC "-//W3C//DTD SVG 20010904//EN"
 "http://www.w3.org/TR/2001/REC-SVG-20010904/DTD/svg10.dtd">
<svg version="1.0" xmlns="http://www.w3.org/2000/svg"
 width="1334.000000pt" height="238.000000pt" viewBox="0 0 1334.000000 238.000000"
 preserveAspectRatio="xMidYMid meet">
<metadata>
Created by potrace 1.16, written by Peter Selinger 2001-2019
</metadata>
<g transform="translate(0.000000,238.000000) scale(0.100000,-0.100000)"
fill="#000000" stroke="none">
<path d="M686 1691 c-1 -3 -2 -52 -1 -109 1 -67 -2 -108 -10 -119 -11 -15 -17
-14 -62 15 -27 17 -63 35 -80 38 -47 9 -75 -37 -81 -132 -3 -51 -8 -71 -16
-67 -7 4 -7 2 1 -8 6 -8 13 -41 14 -74 4 -101 39 -155 92 -139 12 3 44 20 70
36 37 24 51 28 60 19 9 -9 12 -89 13 -284 1 -150 2 -275 3 -278 1 -3 1251 -5
2779 -5 1527 1 2794 -2 2815 -5 20 -4 39 -4 41 0 5 8 1238 6 1259 -2 9 -3 18
-3 21 1 2 4 148 7 324 6 287 -1 321 1 324 15 2 9 3 259 3 556 l-1 540 -3782 1
c-2081 0 -3784 -2 -3786 -5z m7527 -30 c4 -1 7 -235 7 -521 0 -409 -3 -520
-12 -521 -42 -3 -7465 -4 -7475 -1 -10 3 -13 61 -13 246 0 340 -7 355 -130
292 -61 -31 -71 -34 -84 -21 -34 34 -35 297 -1 335 19 21 30 19 94 -22 91 -57
114 -36 119 111 l4 106 3742 -2 c2057 -1 3744 -2 3749 -2z"/>
<path d="M2887 1543 c-4 -3 -7 -54 -7 -112 0 -58 -4 -112 -9 -120 -7 -11 -21
-7 -69 23 -33 20 -68 36 -79 36 -56 0 -91 -116 -79 -265 7 -95 11 -111 39
-142 28 -31 50 -29 118 13 32 19 63 33 69 29 6 -4 10 -61 10 -141 l0 -134 685
0 685 0 0 410 0 410 -678 0 c-373 0 -682 -3 -685 -7z m1326 -32 c4 -1 6 -168
5 -373 l-3 -372 -643 -1 c-354 0 -646 4 -649 9 -3 4 -6 52 -8 105 -3 170 -20
187 -128 127 -60 -34 -66 -35 -81 -21 -9 9 -16 19 -17 23 0 4 -3 16 -5 27 -3
11 -5 68 -5 126 -1 128 15 181 53 172 13 -3 30 -11 38 -18 25 -20 78 -45 97
-45 32 0 45 39 48 137 2 51 6 96 8 100 4 6 1245 9 1290 4z"/>
<path d="M3278 1185 c-38 -57 -68 -111 -68 -119 0 -13 13 -16 70 -16 l70 0 0
-35 c0 -28 4 -35 20 -35 16 0 20 7 20 35 0 28 4 35 19 35 10 0 21 7 25 15 4
11 -1 15 -19 15 -25 0 -25 0 -25 105 0 102 -1 105 -22 105 -18 0 -38 -24 -90
-105z m69 -102 c-3 -2 -25 -3 -49 -1 l-45 3 46 72 46 72 3 -71 c2 -39 1 -72
-1 -75z"/>
<path d="M3528 1192 c-36 -54 -68 -108 -72 -120 -7 -21 -5 -22 69 -22 55 0 75
-3 74 -12 -5 -39 2 -59 19 -56 11 2 17 13 17 33 1 23 6 31 23 33 29 4 29 32
-1 32 -22 0 -23 2 -22 105 1 101 1 105 -20 105 -17 0 -38 -24 -87 -98z m70
-37 l0 -75 -49 0 c-27 0 -49 2 -49 5 0 6 92 145 95 145 2 0 3 -34 3 -75z"/>
<path d="M3758 1275 c-33 -18 -49 -65 -49 -144 -1 -98 37 -151 107 -151 40 0
64 18 85 63 33 75 19 190 -29 228 -29 22 -76 24 -114 4z m92 -35 c11 -11 21
-28 21 -37 1 -10 3 -29 5 -43 11 -79 -24 -153 -69 -144 -42 8 -52 30 -52 118
0 68 4 88 19 105 24 26 50 27 76 1z"/>
<path d="M4609 1548 c0 -2 -2 -54 -3 -115 -1 -64 -6 -117 -12 -123 -8 -8 -28
-1 -70 24 -32 20 -68 36 -80 36 -51 0 -75 -70 -75 -217 1 -115 10 -164 37
-194 25 -27 53 -23 119 16 41 25 62 32 69 25 6 -6 11 -64 12 -133 2 -67 3
-125 3 -129 1 -5 196 -8 435 -8 406 0 435 1 439 18 3 9 4 193 3 407 l-1 390
-437 3 c-241 1 -438 1 -439 0z m834 -37 c4 -1 7 -169 7 -373 l0 -373 -388 1
c-213 1 -395 2 -404 3 -16 1 -18 13 -18 106 0 116 -15 165 -50 165 -10 0 -41
-13 -67 -28 -60 -36 -77 -42 -90 -34 -21 14 -31 74 -31 177 0 103 10 163 31
177 13 8 31 1 88 -34 91 -55 112 -36 117 106 3 55 8 103 12 106 6 4 762 5 793
1z"/>
<path d="M4993 1278 c-47 -23 -70 -158 -39 -232 39 -93 159 -85 186 12 24 86
5 183 -41 216 -26 18 -73 20 -106 4z m87 -36 c16 -13 23 -32 27 -78 7 -77 -10
-132 -44 -145 -55 -21 -88 34 -81 137 3 55 8 70 27 85 29 24 43 24 71 1z"/>
<path d="M5840 1438 c0 -62 -4 -119 -9 -127 -8 -12 -18 -9 -62 18 -98 61 -137
49 -158 -48 -24 -113 -8 -284 31 -323 26 -26 58 -20 127 23 44 27 54 30 62 18
5 -8 9 -71 9 -141 l0 -128 440 0 440 0 0 410 0 410 -440 0 -440 0 0 -112z
m836 73 c15 -1 15 -741 0 -742 -68 -5 -781 -2 -789 3 -7 4 -12 45 -13 105 -2
104 -13 149 -41 160 -10 4 -41 -6 -77 -26 -34 -17 -69 -31 -79 -31 -28 0 -40
47 -40 160 -1 190 16 221 98 169 107 -68 136 -46 138 103 2 80 4 94 20 98 14
4 739 5 783 1z"/>
<path d="M6233 1267 c-18 -12 -32 -30 -33 -39 0 -23 6 -23 40 2 l28 20 -1
-117 -2 -118 -35 0 c-25 0 -36 -5 -38 -17 -3 -16 7 -18 93 -18 86 0 96 2 93
18 -2 12 -13 17 -33 17 l-30 0 -3 138 c-3 134 -3 137 -25 136 -12 0 -36 -11
-54 -22z"/>
<path d="M7079 1548 c0 -2 -2 -54 -4 -116 -1 -62 -7 -118 -12 -123 -7 -7 -30
2 -69 25 -67 40 -93 44 -118 17 -28 -30 -37 -80 -37 -196 0 -116 9 -166 37
-196 25 -27 51 -23 118 17 38 22 62 32 68 26 6 -6 11 -68 12 -139 l2 -128 440
0 439 0 0 405 0 405 -438 3 c-240 1 -437 1 -438 0z m836 -408 l0 -374 -390 -1
c-214 0 -396 1 -402 3 -9 3 -13 31 -13 96 0 176 -23 201 -131 142 -38 -20 -70
-32 -77 -27 -23 14 -32 73 -29 197 2 102 5 125 20 142 21 23 31 21 98 -20 91
-55 112 -36 117 108 4 96 6 103 26 106 11 2 192 3 401 2 l380 0 0 -374z"/>
<path d="M7464 1278 c-49 -23 -72 -156 -40 -232 37 -88 145 -88 182 0 16 39
18 114 4 166 -18 65 -86 96 -146 66z m86 -36 c18 -15 23 -31 27 -88 7 -113
-40 -172 -99 -125 -21 18 -23 27 -23 106 0 79 2 88 24 106 29 24 43 24 71 1z"/>
<path d="M1327 1294 c-10 -11 5 -34 22 -34 10 0 17 9 18 20 2 19 -25 29 -40
14z"/>
<path d="M1095 1283 c-36 -9 -55 -34 -55 -73 0 -48 14 -59 109 -90 67 -22 76
-28 79 -51 4 -36 -20 -52 -79 -53 -41 0 -55 4 -69 22 -24 29 -60 30 -53 2 13
-49 116 -76 192 -49 57 20 75 94 32 133 -9 8 -42 22 -73 30 -78 20 -98 33 -98
60 0 46 94 60 133 20 12 -12 28 -19 39 -16 24 6 23 14 -7 42 -18 17 -39 24
-77 26 -29 2 -62 0 -73 -3z"/>
<path d="M1755 1282 c-65 -22 -95 -68 -95 -149 0 -93 59 -153 153 -153 154 0
205 223 67 292 -35 18 -87 22 -125 10z m100 -36 c33 -11 57 -53 58 -106 2 -80
-34 -123 -104 -122 -51 1 -73 14 -93 56 -52 110 28 209 139 172z"/>
<path d="M1325 1100 c0 -115 1 -121 20 -118 19 3 20 11 20 121 1 111 0 117
-20 117 -19 0 -20 -6 -20 -120z"/>
<path d="M1425 1103 c0 -111 1 -118 20 -118 18 0 20 7 20 84 1 75 4 86 24 102
13 11 31 19 40 19 33 0 41 -22 41 -117 0 -86 1 -93 20 -93 19 0 20 7 20 100 0
87 -3 103 -20 120 -24 24 -82 27 -104 5 -8 -8 -17 -15 -20 -15 -3 0 -6 7 -6
15 0 8 -8 15 -18 15 -15 0 -17 -12 -17 -117z"/>
<path d="M2040 1213 c-40 -17 -52 -69 -22 -96 9 -8 36 -20 59 -26 36 -10 73
-33 73 -46 0 -2 -7 -11 -16 -19 -21 -21 -70 -20 -92 2 -12 12 -25 16 -37 12
-18 -6 -17 -9 9 -35 25 -25 33 -27 82 -23 62 5 87 23 87 62 0 38 -25 60 -88
80 -30 9 -55 23 -55 30 0 35 65 49 94 21 15 -16 46 -21 46 -7 0 4 -7 16 -15
26 -15 20 -95 32 -125 19z"/>
<path d="M2253 1196 c-26 -22 -28 -30 -28 -96 0 -66 2 -74 28 -96 36 -31 94
-32 125 -4 12 12 22 25 22 30 0 6 0 13 0 18 0 14 -25 7 -47 -15 -45 -46 -84
-20 -91 59 -4 47 -1 59 17 77 26 26 57 27 73 1 7 -11 23 -20 36 -20 22 0 22 1
8 29 -25 47 -98 56 -143 17z"/>
</g>
</svg>
