<?xml version="1.0" standalone="no"?>
<!DOCTYPE svg PUBLIC "-//W3C//DTD SVG 20010904//EN"
 "http://www.w3.org/TR/2001/REC-SVG-20010904/DTD/svg10.dtd">
<svg version="1.0" xmlns="http://www.w3.org/2000/svg"
 width="986.000000pt" height="373.000000pt" viewBox="0 0 986.000000 373.000000"
 preserveAspectRatio="xMidYMid meet">
<metadata>
Created by potrace 1.16, written by Peter Selinger 2001-2019
</metadata>
<g transform="translate(0.000000,373.000000) scale(0.100000,-0.100000)"
fill="#000000" stroke="none">
<path d="M1079 3028 c-1 -2 -3 -50 -4 -108 -1 -58 -6 -113 -11 -123 -9 -16
-14 -15 -59 14 -67 42 -106 48 -134 18 -11 -12 -21 -30 -22 -38 0 -9 -3 -25
-5 -36 -14 -64 -10 -181 10 -270 4 -20 21 -42 41 -52 20 -12 67 6 126 48 55
39 53 74 53 -865 l0 -866 806 2 805 3 -1 127 c-1 187 -20 207 -135 135 -54
-33 -74 -31 -90 10 -11 31 -14 210 -4 265 12 63 27 67 105 24 107 -58 122 -41
125 137 l2 107 -341 1 c-188 0 -353 2 -367 4 -44 6 -93 31 -128 66 -58 57 -64
84 -64 275 0 160 2 174 24 218 27 54 88 103 142 116 19 4 85 8 146 9 l111 2
92 -60 c82 -55 97 -61 142 -61 46 0 61 6 146 63 l95 64 0 386 1 387 -803 0
c-442 0 -804 -1 -804 -2z m1576 -392 l0 -359 -85 -58 c-115 -79 -133 -79 -256
2 l-93 61 -143 -4 c-162 -4 -198 -16 -257 -85 -59 -69 -64 -90 -64 -288 0
-195 5 -220 58 -283 15 -18 48 -45 74 -60 l46 -27 360 -5 360 -5 -2 -99 c-1
-64 -6 -102 -14 -106 -6 -5 -36 7 -68 26 -65 39 -93 42 -120 13 -48 -52 -47
-334 2 -379 28 -27 55 -25 108 8 69 44 78 45 85 15 4 -14 7 -69 8 -122 l1 -96
-775 0 -775 0 0 840 c-1 462 -5 850 -9 863 -14 42 -45 43 -112 6 -33 -19 -66
-34 -73 -34 -25 0 -43 72 -43 170 0 139 13 190 48 190 7 0 38 -15 69 -34 94
-56 117 -35 121 114 1 52 2 96 3 98 1 1 349 1 773 0 l773 -3 0 -359z"/>
<path d="M1420 2776 c0 -7 9 -16 20 -19 11 -3 27 -21 35 -41 15 -36 15 -38
-30 -132 -25 -53 -45 -100 -45 -105 0 -18 39 -8 45 11 4 12 19 48 34 82 l28
61 29 -82 c21 -60 33 -81 46 -81 10 0 18 4 18 9 0 22 -100 274 -116 292 -20
22 -64 26 -64 5z"/>
<path d="M1412 2043 c2 -10 10 -18 18 -18 8 0 16 8 18 18 2 12 -3 17 -18 17
-15 0 -20 -5 -18 -17z"/>
<path d="M1417 1964 c-14 -15 -6 -34 14 -34 14 0 19 5 17 17 -3 18 -20 27 -31
17z"/>
<path d="M1412 1843 c2 -10 10 -18 18 -18 8 0 16 8 18 18 2 12 -3 17 -18 17
-15 0 -20 -5 -18 -17z"/>
<path d="M1412 1743 c2 -10 10 -18 18 -18 8 0 16 8 18 18 2 12 -3 17 -18 17
-15 0 -20 -5 -18 -17z"/>
<path d="M1507 1095 l-28 -25 28 -25 c34 -30 47 -32 33 -5 -10 19 -8 20 95 20
63 0 105 4 105 10 0 6 -42 10 -107 10 -83 0 -104 3 -95 12 13 13 16 28 5 28
-5 0 -21 -12 -36 -25z"/>
</g>
</svg>
