<?xml version="1.0" standalone="no"?>
<!DOCTYPE svg PUBLIC "-//W3C//DTD SVG 20010904//EN"
 "http://www.w3.org/TR/2001/REC-SVG-20010904/DTD/svg10.dtd">
<svg version="1.0" xmlns="http://www.w3.org/2000/svg"
 width="1230.000000pt" height="266.000000pt" viewBox="0 0 1230.000000 266.000000"
 preserveAspectRatio="xMidYMid meet">
<metadata>
Created by potrace 1.16, written by Peter Selinger 2001-2019
</metadata>
<g transform="translate(0.000000,266.000000) scale(0.100000,-0.100000)"
fill="#000000" stroke="none">
<path d="M1696 2263 c-4 -5 -80 -8 -169 -9 l-162 0 -87 -58 c-90 -58 -124 -69
-168 -54 -25 9 -124 73 -148 96 -15 14 -16 14 -167 16 -66 1 -130 -4 -157 -12
-58 -16 -126 -76 -157 -137 l-23 -47 -1 -736 c0 -522 4 -749 12 -778 14 -51
77 -124 133 -155 l43 -24 3108 -1 c2238 -1 3107 2 3108 10 0 6 1 256 1 556 l1
545 -1507 0 c-1330 0 -1507 2 -1510 15 -2 8 -3 184 -3 391 l2 376 -153 -1
c-85 -1 -156 2 -159 7 -2 4 -9 4 -15 0 -17 -10 -1087 -9 -1081 1 4 5 0 5 -8 0
-18 -11 -712 -13 -720 -2 -3 5 -9 5 -13 1z m-692 -95 c49 -32 87 -58 85 -59
-2 -1 -87 -2 -189 -3 -200 -1 -231 -8 -265 -54 -18 -25 -20 -43 -20 -202 0
-159 2 -177 20 -202 38 -51 53 -53 419 -53 380 -1 393 2 429 68 16 29 18 55
15 200 l-3 166 -30 31 c-36 37 -77 48 -177 46 -43 0 -78 1 -78 4 0 3 37 30 83
60 l82 55 610 0 610 0 0 -102 c0 -56 -3 -104 -6 -108 -4 -3 -38 11 -78 31 -61
32 -74 36 -95 26 -41 -18 -59 -101 -54 -237 5 -138 24 -181 79 -179 20 0 55
14 84 32 46 29 51 30 63 15 8 -11 12 -53 12 -120 l0 -103 -615 0 -614 0 -89
-60 c-122 -82 -144 -82 -267 0 l-90 60 -217 0 -218 0 0 280 c0 302 2 316 56
387 48 64 99 79 259 78 l110 0 89 -57z m2804 -316 l2 -372 -590 0 -590 0 0
108 c0 111 -12 154 -42 160 -9 2 -47 -13 -84 -33 -79 -41 -91 -37 -105 40 -13
72 -4 241 15 271 9 13 20 24 24 24 4 0 33 -16 66 -36 100 -60 126 -37 126 112
0 50 2 93 4 95 2 2 267 4 588 4 l583 -1 3 -372z m-2391 210 c45 -25 53 -60 53
-221 l0 -149 -30 -30 c-16 -16 -39 -31 -52 -34 -13 -2 -168 -3 -345 -3 -350 1
-361 3 -389 57 -10 20 -14 66 -14 170 0 125 3 147 20 175 11 19 31 35 47 39
15 3 31 6 35 7 5 1 153 2 330 1 235 0 329 -3 345 -12z m-408 -678 c84 -56 95
-60 144 -59 47 2 62 9 137 60 l85 58 130 2 c71 0 137 -2 145 -6 13 -6 15 -25
13 -100 -2 -51 -7 -97 -12 -102 -5 -5 -29 4 -57 22 -95 58 -133 50 -155 -33
-15 -53 -15 -229 0 -282 22 -83 62 -91 154 -32 35 22 51 28 59 20 10 -10 19
-481 10 -522 -3 -13 -66 -15 -501 -14 l-499 0 -48 25 c-30 16 -61 43 -84 74
l-35 49 -3 440 c-1 242 -1 444 1 450 3 7 74 11 215 11 l210 -1 91 -60z m5809
57 c10 -1 12 -109 10 -523 l-3 -522 -2560 0 -2560 0 -5 264 c-3 146 -10 273
-14 283 -15 33 -51 31 -118 -7 -67 -37 -81 -36 -96 4 -14 36 -15 232 -2 279
15 55 33 57 110 9 35 -22 56 -29 74 -24 35 9 44 44 45 171 l1 70 2553 -1
c1403 -1 2558 -2 2565 -3z"/>
<path d="M1682 1873 c2 -20 9 -28 23 -28 14 0 21 8 23 28 3 23 0 27 -23 27
-23 0 -26 -4 -23 -27z"/>
<path d="M1757 1872 c4 -17 17 -19 131 -19 119 -1 159 7 146 28 -3 5 -67 9
-144 9 -129 0 -138 -1 -133 -18z"/>
<path d="M1680 1787 c0 -30 6 -36 31 -30 12 3 19 14 19 29 0 19 -5 24 -25 24
-20 0 -25 -5 -25 -23z"/>
<path d="M1770 1802 c-6 -2 -10 -11 -10 -21 0 -15 14 -17 135 -16 74 1 136 3
139 6 3 2 1 11 -3 18 -6 10 -41 13 -130 15 -66 0 -126 0 -131 -2z"/>
<path d="M2970 1972 c-47 -47 -52 -183 -9 -243 41 -58 132 -47 163 18 20 41
23 143 6 187 -26 69 -109 89 -160 38z m110 -29 c19 -24 21 -38 18 -104 -3 -82
-23 -120 -56 -114 -9 2 -22 4 -29 4 -54 4 -54 209 0 231 35 14 44 12 67 -17z"/>
<path d="M3360 1975 c-19 -14 -36 -34 -36 -45 -1 -19 0 -19 28 1 16 12 31 20
33 18 4 -5 7 -91 6 -171 -1 -48 -4 -56 -18 -54 -10 2 -28 0 -41 -5 -45 -17
-10 -29 83 -29 83 0 93 2 91 18 -2 12 -12 17 -37 17 l-34 0 -1 135 c-1 125 -3
135 -20 138 -11 1 -35 -9 -54 -23z"/>
<path d="M3200 1715 c0 -18 5 -25 20 -25 15 0 20 7 20 25 0 18 -5 25 -20 25
-15 0 -20 -7 -20 -25z"/>
<path d="M819 1871 l40 -58 -23 -34 c-62 -93 -61 -89 -37 -89 15 0 30 14 49
45 15 24 30 45 34 45 4 0 19 -20 34 -45 19 -34 32 -45 51 -45 24 0 24 1 -16
57 -23 31 -41 60 -41 65 0 5 13 28 28 51 45 66 45 67 22 67 -13 0 -30 -15 -50
-46 l-29 -46 -28 46 c-20 33 -34 46 -51 46 -22 0 -21 -2 17 -59z"/>
<path d="M819 1012 c-4 -73 -3 -242 2 -242 4 0 64 24 135 53 160 67 168 80 67
122 -37 15 -87 37 -110 47 -87 38 -93 39 -94 20z m124 -75 c43 -19 79 -36 82
-39 5 -5 -148 -68 -164 -68 -6 0 -7 122 -2 138 2 4 8 2 84 -31z"/>
<path d="M3489 1328 c-1 -2 -2 -54 -4 -116 -1 -62 -7 -118 -12 -123 -7 -7 -30
2 -69 25 -70 43 -96 45 -123 10 -47 -60 -47 -318 0 -378 27 -35 53 -33 122 10
41 25 62 33 69 26 6 -6 11 -64 12 -139 l2 -128 597 -3 597 -2 0 410 0 410
-595 0 c-327 0 -595 -1 -596 -2z m1159 -406 c2 -349 1 -372 -15 -373 -10 -1
-264 -2 -565 -3 l-548 -1 -1 100 c0 111 -14 168 -43 173 -10 2 -48 -12 -85
-31 -38 -20 -73 -32 -79 -28 -7 4 -17 23 -22 42 -13 45 -13 224 1 272 14 51
33 52 109 5 89 -55 115 -28 119 122 1 46 4 87 6 90 2 3 254 5 562 5 l558 -1 3
-372z"/>
<path d="M3711 1159 c-64 -29 -73 -59 -73 -240 0 -151 1 -161 23 -194 41 -59
49 -60 429 -60 384 0 378 -1 420 68 18 28 20 51 20 187 0 136 -2 159 -20 187
-42 69 -36 68 -418 68 -300 1 -349 -1 -381 -16z m735 -29 c46 -25 54 -56 54
-210 0 -102 -4 -149 -14 -168 -28 -54 -40 -56 -389 -57 -177 0 -335 3 -352 7
-16 4 -40 19 -52 33 -22 25 -23 35 -23 185 0 151 1 160 23 185 12 15 37 30 55
33 18 4 177 7 352 6 253 0 325 -3 346 -14z"/>
<path d="M3849 942 l40 -59 -40 -59 c-33 -50 -36 -60 -22 -63 17 -3 25 5 69
65 l21 28 27 -47 c21 -35 34 -47 52 -47 24 0 23 1 -16 59 -22 32 -40 62 -40
65 0 4 13 26 28 49 45 66 45 67 22 67 -13 0 -30 -15 -49 -45 l-29 -46 -28 46
c-21 32 -36 45 -52 45 -22 0 -21 -2 17 -58z"/>
<path d="M5689 1328 c-1 -2 -3 -54 -5 -117 -1 -63 -7 -118 -13 -124 -7 -7 -26
1 -59 21 -71 46 -104 50 -130 17 -49 -62 -49 -318 -1 -379 27 -35 53 -33 122
10 40 25 62 33 69 26 6 -6 11 -66 13 -134 1 -67 3 -126 4 -130 0 -5 197 -8
436 -8 239 0 435 3 436 8 1 9 1 772 0 795 -1 16 -29 17 -436 17 -239 0 -436
-1 -436 -2z m836 -408 l0 -375 -403 0 -402 0 -1 85 c-1 47 -1 89 0 93 1 5 -3
26 -9 48 -15 56 -41 59 -121 15 -71 -39 -84 -37 -99 15 -13 45 -13 224 1 272
14 51 33 52 109 5 89 -55 120 -23 120 127 0 45 2 84 4 86 2 2 184 4 403 4
l398 0 0 -375z"/>
<path d="M6072 1054 c-49 -34 -66 -127 -42 -216 27 -97 147 -105 186 -12 16
39 18 114 4 166 -19 68 -95 100 -148 62z m98 -40 c11 -11 15 -37 15 -100 0
-78 -2 -87 -24 -105 -29 -24 -43 -24 -72 0 -22 18 -24 27 -24 106 0 79 2 88
24 106 25 21 54 18 81 -7z"/>
<path d="M1980 890 l0 -180 120 0 c76 0 120 -4 120 -10 0 -6 -8 -14 -17 -18
-13 -5 -7 -8 22 -12 22 -3 48 -4 58 -2 15 4 15 6 4 16 -11 8 -12 19 -6 42 8
26 13 31 34 26 54 -10 125 76 125 152 0 29 -5 39 -26 48 -20 10 -30 9 -54 -6
-26 -15 -29 -15 -24 -1 5 13 -1 15 -42 13 l-49 -3 2 58 2 57 -135 0 -134 0 0
-180z m250 0 l0 -160 -115 0 -115 0 0 160 0 160 115 0 115 0 0 -160z m44 42
c3 -5 -1 -30 -9 -58 -13 -48 -15 -46 -18 29 -2 34 13 51 27 29z m99 -76 c-16
-55 -38 -86 -60 -86 -31 0 6 137 41 150 31 11 36 -6 19 -64z"/>
<path d="M2063 1010 c-23 -9 -33 -50 -13 -50 6 0 10 6 10 14 0 35 83 36 105 2
20 -30 9 -57 -34 -82 -18 -11 -27 -23 -24 -34 4 -13 11 -10 44 20 51 46 58 82
25 115 -26 26 -71 32 -113 15z"/>
<path d="M2096 784 c-20 -20 -12 -34 19 -34 30 0 40 27 15 40 -14 7 -23 6 -34
-6z"/>
<path d="M5079 1013 c0 -5 -1 -26 -2 -48 -2 -40 -2 -40 -47 -45 -25 -3 -45 -9
-45 -15 0 -5 20 -12 45 -15 42 -5 45 -7 47 -35 0 -16 2 -36 2 -42 1 -7 8 -13
16 -13 11 0 15 12 15 45 l0 45 45 0 c33 0 45 4 45 15 0 11 -12 15 -45 15 l-45
0 0 50 c0 38 -4 50 -15 50 -8 0 -15 -3 -16 -7z"/>
<path d="M2807 1004 c-13 -13 -7 -24 29 -59 l35 -35 -35 -36 c-38 -39 -42 -49
-27 -59 5 -3 26 11 45 31 36 37 36 37 58 18 12 -10 30 -28 40 -39 15 -17 19
-18 27 -5 8 11 1 24 -26 52 l-37 38 39 40 c32 33 36 40 22 46 -11 4 -27 -4
-46 -25 -16 -17 -33 -31 -37 -31 -5 0 -24 16 -44 35 -20 20 -39 32 -43 29z"/>
</g>
</svg>
