<?xml version="1.0" standalone="no"?>
<!DOCTYPE svg PUBLIC "-//W3C//DTD SVG 20010904//EN"
 "http://www.w3.org/TR/2001/REC-SVG-20010904/DTD/svg10.dtd">
<svg version="1.0" xmlns="http://www.w3.org/2000/svg"
 width="917.000000pt" height="212.000000pt" viewBox="0 0 917.000000 212.000000"
 preserveAspectRatio="xMidYMid meet">
<metadata>
Created by potrace 1.16, written by Peter Selinger 2001-2019
</metadata>
<g transform="translate(0.000000,212.000000) scale(0.100000,-0.100000)"
fill="#000000" stroke="none">
<path d="M600 1286 c0 -61 -4 -117 -9 -125 -7 -11 -22 -6 -75 24 -121 68 -151
32 -150 -180 0 -212 29 -247 149 -180 37 20 70 34 73 30 4 -4 9 -66 12 -139
l5 -132 675 0 675 1 0 405 0 405 -677 1 -678 0 0 -110z m1327 -294 c2 -205 -1
-373 -5 -373 -20 -4 -1269 -5 -1279 -1 -9 3 -13 34 -13 111 0 111 -12 153 -43
159 -10 2 -47 -13 -83 -33 -77 -43 -88 -39 -103 38 -11 60 -6 223 7 259 17 42
29 42 93 4 33 -20 69 -36 79 -36 36 0 50 40 51 141 1 52 3 96 4 99 2 3 293 5
647 5 l643 -1 2 -372z"/>
<path d="M829 1231 c-17 -7 -40 -28 -52 -45 -20 -28 -22 -45 -25 -183 -4 -171
5 -205 62 -246 31 -22 32 -22 461 -22 469 1 466 0 509 58 19 25 21 45 24 175
4 173 -4 210 -55 249 l-36 28 -430 0 c-350 0 -435 -2 -458 -14z m898 -36 c44
-26 52 -57 52 -205 -1 -155 -8 -183 -57 -207 -35 -17 -69 -18 -452 -18 -440 1
-440 1 -471 49 -17 27 -23 310 -7 341 13 23 44 48 71 55 10 3 202 5 425 5 385
0 409 -1 439 -20z"/>
<path d="M1099 1133 c0 -4 -1 -68 -2 -140 l-1 -133 -68 0 c-54 0 -68 -3 -68
-15 0 -13 24 -15 156 -15 120 0 155 3 152 13 -3 7 -31 14 -74 17 l-69 5 0 134
c0 99 -3 135 -12 139 -7 2 -13 0 -14 -5z"/>
</g>
</svg>
