<?xml version="1.0" standalone="no"?>
<!DOCTYPE svg PUBLIC "-//W3C//DTD SVG 20010904//EN"
 "http://www.w3.org/TR/2001/REC-SVG-20010904/DTD/svg10.dtd">
<svg version="1.0" xmlns="http://www.w3.org/2000/svg"
 width="1156.000000pt" height="175.000000pt" viewBox="0 0 1156.000000 175.000000"
 preserveAspectRatio="xMidYMid meet">
<metadata>
Created by potrace 1.16, written by Peter Selinger 2001-2019
</metadata>
<g transform="translate(0.000000,175.000000) scale(0.100000,-0.100000)"
fill="#000000" stroke="none">
<path d="M515 1305 c0 -65 -5 -119 -11 -125 -7 -7 -26 0 -60 22 -33 21 -62 32
-89 32 -40 1 -40 1 -58 -54 -21 -62 -25 -221 -8 -279 6 -19 9 -36 7 -39 -3 -2
5 -13 16 -24 18 -18 74 -23 88 -8 11 13 82 50 96 50 17 0 17 8 20 -295 1 -137
2 -257 3 -265 1 -13 504 -15 4473 -13 2460 1 4477 4 4483 6 7 3 10 183 9 553
l0 549 -4485 3 -4484 2 0 -115z m8935 -25 c0 -60 1 -292 1 -515 0 -223 -1
-409 -1 -415 0 -7 -1490 -10 -4450 -10 l-4450 0 0 33 c-2 390 -6 505 -19 520
-20 25 -55 21 -109 -13 -96 -59 -107 -43 -107 150 0 193 12 210 106 150 106
-68 126 -41 129 168 l0 42 4450 0 4450 0 0 -110z"/>
<path d="M2182 1178 c-1 -137 -1 -138 -17 -144 -9 -4 -34 6 -57 21 -48 32
-109 44 -125 24 -47 -60 -52 -318 -7 -386 21 -33 67 -30 126 8 26 17 55 29 63
25 17 -6 16 -6 17 -158 l1 -108 683 0 684 0 0 405 0 405 -683 0 -684 0 -1 -92z
m1338 -313 l0 -375 -652 2 -652 3 -2 112 c-1 134 -15 167 -62 154 -16 -5 -48
-21 -71 -35 -50 -32 -71 -30 -88 5 -25 53 -19 282 9 316 16 20 31 16 97 -23
49 -29 63 -34 80 -25 27 15 34 41 36 141 2 47 3 88 4 93 1 4 294 7 651 7 l650
0 0 -375z"/>
<path d="M2580 915 c-38 -57 -70 -111 -70 -120 0 -12 14 -15 70 -15 l70 0 0
-35 c0 -28 4 -35 20 -35 16 0 20 7 20 35 0 28 4 35 20 35 11 0 20 7 20 15 0 8
-9 15 -20 15 -19 0 -20 7 -20 105 0 98 -1 105 -20 105 -14 0 -40 -31 -90 -105z
m72 -44 l-4 -61 -50 0 -50 0 18 28 c90 138 92 139 86 33z"/>
<path d="M2859 968 c-95 -151 -109 -174 -109 -180 0 -5 34 -8 76 -8 66 0 75
-2 73 -17 -3 -37 1 -53 16 -53 15 0 17 3 19 43 1 15 8 23 24 25 12 2 22 10 22
17 0 7 -10 15 -22 17 -22 3 -23 8 -24 93 -2 119 -1 115 -23 115 -12 0 -31 -19
-52 -52z m39 -80 l-3 -73 -53 -3 -53 -3 52 75 c29 42 54 76 56 76 2 0 2 -33 1
-72z"/>
<path d="M3044 989 c-28 -29 -29 -34 -29 -126 0 -94 0 -95 33 -124 52 -47 126
-31 153 33 19 46 17 155 -5 196 -31 60 -105 70 -152 21z m90 -5 c59 -23 59
-209 0 -236 -18 -9 -30 -8 -49 2 -25 13 -35 44 -37 105 -1 68 3 87 27 110 25
26 33 29 59 19z"/>
<path d="M4542 1168 c0 -57 -1 -109 -1 -116 -2 -26 -32 -23 -79 7 -59 38 -105
41 -126 9 -20 -31 -34 -126 -31 -212 6 -183 48 -225 157 -155 26 17 55 29 63
25 17 -6 16 -1 17 -153 l0 -113 439 0 439 0 0 405 0 405 -438 0 -439 0 -1
-102z m848 -303 l0 -375 -407 0 -408 0 -1 114 c-1 137 -14 170 -62 157 -16 -5
-47 -20 -70 -35 -47 -29 -65 -32 -81 -13 -28 34 -34 263 -8 317 17 35 38 35
95 0 102 -62 123 -45 127 107 2 54 4 99 4 101 1 1 183 2 406 2 l405 0 0 -375z"/>
<path d="M4933 1008 c-77 -37 -71 -243 9 -287 40 -23 97 -5 121 37 22 38 29
114 15 176 -15 71 -82 105 -145 74z m80 -27 c31 -5 45 -159 19 -208 -26 -49
-95 -36 -108 21 -16 75 -3 167 28 187 8 5 29 5 61 0z"/>
<path d="M6425 1173 c1 -160 -4 -167 -85 -113 -108 72 -151 21 -153 -178 0
-106 13 -173 39 -199 21 -21 66 -15 114 17 25 16 53 30 63 30 19 0 19 -4 20
-172 l1 -98 438 0 c410 0 438 1 439 18 1 18 0 758 -1 780 0 9 -94 12 -438 12
l-437 0 0 -97z m845 -308 l0 -375 -405 0 c-223 0 -405 3 -405 8 -1 4 -2 55 -4
114 -4 162 -23 180 -127 116 -25 -15 -53 -28 -61 -28 -36 0 -50 53 -50 182 1
176 23 208 106 152 101 -69 129 -47 133 105 1 53 2 97 2 99 1 1 183 2 406 2
l405 0 0 -375z"/>
<path d="M6823 997 c-18 -12 -35 -27 -37 -34 -9 -22 11 -23 38 -2 l26 20 1
-28 c0 -15 1 -68 2 -118 l0 -90 -28 -2 c-39 -3 -57 -11 -50 -23 8 -14 182 -13
190 1 10 15 1 20 -37 22 l-33 2 -3 138 c-3 153 -5 157 -69 114z"/>
<path d="M8309 1263 c0 -5 -2 -48 -3 -98 -4 -132 -5 -135 -21 -135 -8 0 -36
14 -62 30 -111 71 -154 20 -154 -180 0 -201 43 -251 154 -180 26 16 54 30 62
30 17 0 17 1 21 -135 1 -55 3 -108 3 -118 1 -16 27 -17 438 -15 l438 3 0 400
0 400 -437 3 c-241 1 -438 -1 -439 -5z m843 -378 c-1 -192 -1 -360 -1 -372
l-1 -23 -405 0 -405 0 0 23 c-4 196 -6 216 -23 235 -22 24 -44 20 -108 -20
-58 -35 -75 -35 -92 0 -18 36 -21 244 -4 292 15 45 38 48 89 15 110 -73 135
-49 137 128 l1 77 406 -2 406 -3 0 -350z"/>
<path d="M8687 1000 c-70 -55 -60 -238 15 -279 35 -20 94 -5 120 29 24 33 35
144 19 193 -24 71 -100 99 -154 57z m103 -37 c16 -21 19 -38 17 -105 -2 -70
-5 -83 -26 -99 -29 -24 -43 -24 -72 0 -22 17 -24 27 -24 104 0 68 4 89 18 105
25 27 63 25 87 -5z"/>
<path d="M3940 987 c0 -38 -3 -44 -30 -54 -81 -30 -74 -191 10 -218 16 -5 20
-15 20 -51 0 -31 4 -44 14 -44 17 0 23 15 21 57 -1 27 4 34 26 42 38 13 60 51
61 103 1 61 -16 97 -55 113 -31 13 -34 17 -32 54 2 34 -1 41 -17 41 -15 0 -18
-8 -18 -43z m0 -162 c0 -70 -3 -83 -15 -79 -34 13 -43 115 -14 151 23 27 29
11 29 -72z m74 53 c8 -17 12 -47 10 -66 -3 -33 -30 -76 -43 -68 -5 4 -7 154
-2 164 6 12 24 -4 35 -30z"/>
<path d="M926 945 c-23 -24 -52 -102 -42 -112 12 -12 34 7 39 34 3 15 13 37
21 48 15 19 17 19 30 2 7 -9 19 -44 26 -76 16 -77 47 -116 83 -107 29 7 52 42
62 97 5 29 4 36 -9 36 -9 0 -19 -12 -23 -26 -3 -14 -12 -39 -20 -55 -13 -24
-17 -26 -28 -15 -8 8 -21 39 -29 69 -21 82 -33 108 -55 119 -27 15 -29 14 -55
-14z"/>
<path d="M7700 920 l0 -50 -45 0 c-33 0 -45 -4 -45 -15 0 -11 12 -15 45 -15
l45 0 0 -45 c0 -33 4 -45 15 -45 11 0 15 12 15 45 l0 45 44 0 c29 0 46 5 49
14 5 12 -5 16 -41 18 l-47 3 -3 48 c-2 33 -7 47 -18 47 -10 0 -14 -13 -14 -50z"/>
<path d="M1542 831 c53 -155 73 -159 134 -28 35 78 35 147 -1 147 -10 0 -13
-13 -13 -47 1 -52 -39 -160 -53 -146 -5 5 -21 49 -37 98 -23 74 -32 91 -50 93
-21 3 -20 -1 20 -117z"/>
<path d="M5740 942 c0 -4 16 -25 35 -47 l36 -38 -38 -39 c-25 -25 -34 -41 -27
-48 7 -7 21 2 44 25 19 19 38 35 42 35 5 0 23 -15 42 -34 25 -26 36 -32 45
-23 8 8 2 21 -26 49 l-37 38 38 39 c25 26 34 41 26 46 -11 7 -39 -12 -70 -48
-14 -17 -17 -16 -49 17 -33 34 -61 47 -61 28z"/>
</g>
</svg>
