<?xml version="1.0" standalone="no"?>
<!DOCTYPE svg PUBLIC "-//W3C//DTD SVG 20010904//EN"
 "http://www.w3.org/TR/2001/REC-SVG-20010904/DTD/svg10.dtd">
<svg version="1.0" xmlns="http://www.w3.org/2000/svg"
 width="1044.000000pt" height="190.000000pt" viewBox="0 0 1044.000000 190.000000"
 preserveAspectRatio="xMidYMid meet">
<metadata>
Created by potrace 1.16, written by Peter Selinger 2001-2019
</metadata>
<g transform="translate(0.000000,190.000000) scale(0.100000,-0.100000)"
fill="#000000" stroke="none">
<path d="M693 1222 c0 -63 -5 -118 -10 -123 -6 -6 -37 5 -80 28 -68 36 -70 37
-96 20 -32 -21 -46 -69 -51 -171 -5 -131 18 -227 60 -243 9 -3 47 11 86 31 48
25 74 34 81 27 6 -6 10 -66 10 -138 l1 -129 1015 2 c559 0 1021 2 1026 2 8 2
11 131 11 405 l0 403 -1025 0 -1026 0 -2 -114z m2017 76 c3 -3 5 -172 5 -375
l0 -368 -996 0 -995 0 1 90 c2 188 -19 212 -128 151 -35 -20 -66 -36 -69 -36
-3 0 -13 16 -23 36 -13 27 -17 64 -18 143 0 109 13 175 38 185 8 3 41 -10 73
-29 66 -40 82 -43 107 -15 14 16 18 39 19 122 l1 103 990 0 c545 0 992 -3 995
-7z"/>
<path d="M933 1174 c-39 -14 -71 -46 -80 -83 -9 -35 -9 -289 0 -323 10 -37 50
-75 89 -86 18 -4 375 -8 793 -7 722 0 762 1 791 19 59 35 67 63 68 230 1 173
-7 204 -63 238 l-36 23 -764 0 c-557 0 -773 -3 -798 -11z m1580 -37 c45 -29
50 -51 50 -208 -1 -156 -6 -178 -50 -206 -25 -16 -83 -18 -787 -19 -820 0
-797 -2 -833 52 -13 21 -16 52 -16 174 -1 163 7 190 63 213 20 9 227 12 787
12 705 0 761 -1 786 -18z"/>
<path d="M1554 930 c0 -157 0 -161 20 -158 20 3 21 9 21 148 0 163 -1 170 -24
170 -14 0 -16 -18 -17 -160z"/>
<path d="M1045 928 c1 -152 1 -153 24 -156 17 -3 22 1 21 15 -1 10 -2 39 -1
64 l1 45 75 -1 c79 -1 102 5 91 24 -4 7 -39 11 -86 11 l-78 0 -4 51 c-1 28 2
54 7 57 6 4 44 7 85 7 63 0 75 3 78 18 3 15 -7 17 -105 17 l-108 0 0 -152z"/>
<path d="M1345 998 c-37 -21 -45 -43 -17 -50 12 -3 24 2 31 13 22 36 91 19 91
-22 0 -12 -13 -18 -57 -22 -43 -4 -63 -12 -75 -28 -38 -46 -8 -119 48 -119 27
0 65 16 75 33 4 5 12 0 18 -12 7 -12 21 -21 36 -21 32 0 40 16 15 30 -17 9
-20 21 -20 86 0 66 -3 78 -25 99 -27 27 -84 33 -120 13z m105 -127 c0 -26 -38
-71 -60 -71 -33 0 -50 12 -50 35 0 35 26 55 71 55 31 0 39 -4 39 -19z"/>
<path d="M1670 992 c-24 -19 -30 -66 -12 -84 6 -6 35 -19 64 -29 64 -21 82
-43 54 -65 -27 -20 -72 -18 -95 5 -21 21 -47 12 -38 -13 14 -37 131 -47 162
-15 43 44 15 98 -61 118 -52 14 -72 35 -54 56 7 8 25 15 41 15 15 0 34 -7 43
-15 17 -17 46 -20 46 -5 0 6 -9 19 -20 30 -26 26 -99 27 -130 2z"/>
<path d="M1909 995 c-46 -25 -62 -105 -35 -169 17 -40 62 -61 112 -53 35 6 74
31 74 49 0 14 -37 9 -50 -7 -24 -29 -100 -10 -100 25 0 5 -3 15 -6 24 -5 14 6
16 81 16 l86 0 -5 33 c-8 53 -16 67 -47 82 -35 19 -76 18 -110 0z m87 -23 c11
-7 34 -45 34 -56 0 -3 -29 -6 -64 -6 -52 0 -64 3 -62 15 6 41 60 69 92 47z"/>
</g>
</svg>
