<?xml version="1.0" standalone="no"?>
<!DOCTYPE svg PUBLIC "-//W3C//DTD SVG 20010904//EN"
 "http://www.w3.org/TR/2001/REC-SVG-20010904/DTD/svg10.dtd">
<svg version="1.0" xmlns="http://www.w3.org/2000/svg"
 width="1145.000000pt" height="640.000000pt" viewBox="0 0 1145.000000 640.000000"
 preserveAspectRatio="xMidYMid meet">
<metadata>
Created by potrace 1.16, written by Peter Selinger 2001-2019
</metadata>
<g transform="translate(0.000000,640.000000) scale(0.100000,-0.100000)"
fill="#000000" stroke="none">
<path d="M509 5906 c-1 -1 -3 -52 -4 -115 -2 -63 -8 -118 -14 -124 -6 -6 -21
-2 -43 12 -67 42 -100 53 -125 42 -41 -19 -56 -73 -55 -206 0 -120 9 -164 39
-197 23 -26 44 -22 113 18 46 27 65 33 73 25 8 -8 12 -662 13 -2474 1 -1354 2
-2465 3 -2468 2 -11 2254 -5 2258 7 2 6 4 532 6 1169 l2 1159 205 2 c113 0
210 2 215 2 11 2 12 196 1 254 -10 56 -39 59 -120 14 -58 -33 -66 -35 -80 -21
-35 35 -42 246 -11 328 11 28 31 26 89 -9 81 -49 107 -45 123 16 5 19 8 69 7
110 0 41 2 77 7 80 4 3 275 5 603 4 328 0 597 2 597 5 1 3 2 186 3 407 l2 401
-606 0 -605 -1 -1 50 c-1 27 4 55 10 63 7 10 7 13 0 8 -7 -4 -10 91 -10 327
l1 332 -637 0 c-417 -1 -639 2 -641 9 -2 6 -3 181 -3 391 l1 380 -707 0 c-390
0 -708 0 -709 0z m1378 -516 c2 -267 -1 -491 -6 -499 -7 -11 -22 -6 -75 24
-80 44 -105 42 -132 -12 -15 -31 -19 -62 -19 -163 0 -221 35 -259 166 -178 42
25 53 28 60 17 12 -19 11 -2010 0 -2028 -8 -12 -18 -9 -62 18 -71 44 -101 49
-127 20 -30 -32 -40 -88 -37 -214 2 -121 19 -178 54 -190 27 -8 53 0 114 38
40 24 51 27 58 16 12 -19 11 -450 0 -468 -8 -12 -18 -9 -62 18 -71 44 -101 49
-127 21 -30 -32 -42 -100 -38 -220 4 -147 34 -205 97 -185 11 4 43 21 71 38
41 26 51 28 59 16 11 -18 11 -450 0 -468 -8 -12 -18 -10 -59 16 -28 17 -60 34
-72 38 -31 10 -67 -12 -81 -49 -17 -46 -20 -242 -4 -300 22 -85 59 -94 154
-35 68 42 72 36 69 -106 l-3 -110 -673 0 c-441 0 -672 3 -673 10 0 6 -2 1108
-3 2450 -2 2609 1 2495 -48 2495 -11 0 -48 -16 -82 -35 -35 -19 -66 -35 -70
-35 -21 0 -37 79 -37 179 0 109 11 169 33 182 8 5 38 -6 76 -27 70 -40 105
-40 118 -1 4 12 8 61 9 108 1 47 5 90 8 95 3 5 295 9 674 9 l668 0 2 -485z
m1280 -780 c2 -282 -1 -491 -6 -499 -8 -12 -18 -10 -59 16 -90 56 -119 55
-147 -4 -23 -48 -31 -209 -15 -286 21 -105 59 -118 159 -56 44 27 54 30 62 18
11 -18 12 -449 0 -467 -6 -10 -24 -5 -80 25 -82 43 -94 40 -126 -23 -16 -32
-19 -60 -19 -159 0 -134 15 -187 58 -206 22 -10 33 -7 86 25 69 41 75 42 84
20 12 -31 7 -222 -6 -226 -7 -2 -96 -3 -198 -2 -102 1 -377 2 -611 3 l-426 1
-1 890 c0 807 -1 892 -16 915 -22 33 -37 32 -112 -10 -57 -32 -64 -34 -78 -19
-24 23 -30 58 -30 169 0 110 6 146 30 169 14 15 21 13 78 -19 35 -19 70 -35
79 -35 33 0 47 42 48 146 l2 99 621 0 621 0 2 -485z m1211 -307 c5 -8 8 -703
3 -733 -1 -4 -1130 -5 -1166 -1 -6 1 -11 46 -12 112 -2 114 -15 159 -48 159
-8 0 -45 -16 -82 -35 -55 -30 -69 -34 -80 -23 -19 19 -29 91 -28 188 3 163 22
189 100 139 107 -68 136 -47 138 103 0 51 4 95 8 98 4 3 267 5 584 5 417 0
578 -4 583 -12z m-1657 -1552 c15 -1 16 -38 16 -371 l1 -370 -408 0 -408 0 1
110 c0 85 -4 115 -17 135 -22 33 -33 32 -112 -10 -73 -39 -88 -37 -99 16 -11
49 -13 171 -4 234 12 86 26 93 104 50 34 -19 69 -35 78 -35 33 0 49 45 50 142
1 51 4 95 8 98 6 4 738 5 790 1z m5 -780 c8 -1 11 -105 11 -371 l0 -370 -406
0 -407 0 -1 111 c-2 114 -15 159 -48 159 -8 0 -45 -16 -81 -35 -74 -39 -88
-37 -100 18 -10 48 -12 194 -2 245 14 75 24 79 101 37 78 -40 88 -42 111 -16
14 16 18 39 19 118 0 54 4 100 8 103 6 4 758 5 795 1z m0 -780 c12 -1 17 -740
5 -742 -16 -3 -787 -5 -797 -2 -6 2 -11 45 -11 113 -1 84 -5 116 -17 135 -22
33 -33 32 -112 -10 -92 -49 -102 -38 -109 122 -4 98 10 184 32 200 14 11 27 7
79 -22 34 -19 69 -35 78 -35 32 0 48 46 49 142 1 51 4 95 8 98 6 4 753 5 795
1z"/>
<path d="M986 5495 c-35 -19 -146 -114 -146 -126 0 -22 43 -5 85 34 73 66 111
81 134 54 8 -10 1 -22 -29 -52 -21 -21 -37 -42 -34 -47 10 -15 43 -8 72 17 17
14 33 25 36 25 4 0 19 -11 34 -25 26 -24 52 -33 52 -18 0 4 -14 21 -31 39
l-31 32 26 18 c35 22 57 11 110 -56 42 -53 68 -58 39 -8 -32 54 -98 118 -122
118 -13 0 -36 -9 -52 -21 l-29 -21 -31 26 c-35 30 -44 31 -83 11z"/>
<path d="M850 4086 c0 -7 9 -16 20 -19 11 -3 27 -21 35 -41 14 -34 14 -37 -30
-132 -25 -53 -45 -100 -45 -105 0 -5 8 -9 18 -9 13 0 27 21 51 80 19 44 35 80
36 80 2 0 16 -36 31 -80 24 -66 32 -80 50 -80 20 0 19 7 -32 141 -29 77 -60
149 -70 160 -20 22 -64 26 -64 5z"/>
<path d="M981 2559 c-57 -12 -118 -65 -133 -116 -11 -38 18 -27 39 14 57 110
289 101 317 -13 8 -29 36 -32 36 -4 0 26 -54 86 -95 106 -38 18 -115 24 -164
13z"/>
<path d="M1033 1687 l38 -12 -80 -79 c-44 -44 -82 -78 -84 -75 -2 2 -9 18 -15
34 -9 27 -10 23 -9 -30 l2 -60 60 -2 c54 -2 57 -1 30 9 -16 6 -32 13 -34 15
-3 2 31 40 74 83 l80 80 12 -32 c11 -32 11 -32 12 25 l1 57 -62 -1 -63 -1 38
-11z"/>
<path d="M900 921 c-10 -45 -14 -50 -37 -48 -15 1 -28 -4 -30 -10 -3 -8 5 -13
21 -13 22 0 26 -5 26 -27 0 -31 -12 -55 -26 -52 -19 3 -34 -1 -34 -11 0 -5 10
-10 21 -10 20 0 21 -4 14 -46 -5 -36 -4 -45 7 -42 7 3 14 13 16 24 9 61 11 64
48 64 l36 0 -7 -46 c-5 -36 -4 -45 7 -42 7 3 14 13 16 24 9 59 12 64 42 64 17
0 30 5 30 10 0 9 -21 15 -42 11 -9 -1 -10 25 -2 57 4 15 14 22 30 22 14 0 24
6 24 14 0 9 -7 13 -20 11 -22 -4 -24 3 -11 58 7 28 6 37 -4 37 -7 0 -16 -15
-20 -32 -13 -63 -14 -65 -51 -65 l-35 0 6 49 c9 64 -9 63 -25 -1z m86 -83 c-3
-7 -7 -25 -10 -40 -5 -23 -11 -27 -41 -25 -36 2 -41 10 -29 55 5 18 13 22 45
22 26 0 37 -4 35 -12z"/>
<path d="M2240 4866 c0 -8 8 -17 18 -21 21 -6 42 -45 42 -76 0 -11 -13 -45
-29 -77 -16 -31 -36 -74 -44 -94 -15 -36 -15 -38 4 -38 15 0 28 19 56 81 l37
80 29 -80 c22 -63 33 -81 48 -81 10 0 19 4 19 8 0 16 -98 262 -114 287 -18 28
-66 35 -66 11z"/>
<path d="M2254 3983 c-19 -45 -20 -123 -2 -160 18 -39 57 -56 96 -42 17 6 33
17 36 25 4 11 11 8 30 -11 18 -18 32 -23 53 -19 31 5 72 45 74 72 1 9 3 28 5
42 1 14 -4 49 -12 78 -12 44 -18 52 -38 52 -24 0 -24 0 -9 -47 26 -87 -1 -184
-45 -157 -9 6 -22 32 -27 58 -6 26 -14 47 -18 47 -4 -1 -11 -1 -17 -1 -5 0
-10 -12 -10 -27 0 -46 -11 -72 -32 -79 -55 -17 -72 86 -31 192 3 9 -2 14 -16
14 -16 0 -26 -11 -37 -37z"/>
<path d="M2326 3096 l-29 -24 29 -26 c35 -31 49 -33 34 -6 -10 19 -8 20 95 20
63 0 105 4 105 10 0 6 -42 10 -105 10 -103 0 -105 1 -95 20 14 26 2 25 -34 -4z"/>
<path d="M3422 4189 c-80 -16 -102 -68 -102 -241 0 -162 9 -199 57 -235 l36
-28 366 -1 c410 -1 424 1 463 64 20 32 22 49 23 185 1 170 -9 207 -67 242 -31
18 -56 19 -388 20 -195 1 -370 -2 -388 -6z m761 -42 c46 -30 53 -59 52 -213
-1 -152 -9 -179 -57 -206 -34 -18 -717 -18 -763 0 -53 21 -60 47 -60 218 l0
153 29 30 c16 16 40 31 55 33 14 2 182 3 372 3 312 0 348 -2 372 -18z"/>
<path d="M3530 4049 c0 -12 -8 -23 -20 -26 -24 -6 -26 -21 -5 -29 12 -5 15
-25 15 -93 0 -101 11 -124 55 -119 35 4 45 25 13 30 -22 3 -23 8 -26 91 -3 82
-2 87 18 87 11 0 20 7 20 15 0 8 -9 15 -20 15 -15 0 -20 7 -20 25 0 16 -6 25
-15 25 -9 0 -15 -9 -15 -21z"/>
<path d="M3640 3900 c0 -113 1 -120 20 -120 18 0 20 7 20 74 0 95 11 126 45
126 18 0 25 5 25 20 0 24 -32 27 -51 4 -11 -14 -13 -14 -21 0 -5 9 -16 16 -23
16 -12 0 -15 -22 -15 -120z"/>
<path d="M2287 2427 c-37 -57 -67 -111 -67 -120 0 -14 12 -17 70 -17 l70 0 0
-35 c0 -28 4 -35 20 -35 16 0 20 7 20 35 0 28 4 35 20 35 11 0 20 7 20 15 0 8
-9 15 -20 15 -19 0 -20 7 -20 105 0 103 -1 105 -23 105 -18 0 -37 -22 -90
-103z m73 -32 l0 -75 -51 0 c-28 0 -49 3 -47 8 8 17 91 142 94 142 2 0 4 -34
4 -75z"/>
<path d="M2288 1647 c-38 -57 -68 -111 -68 -120 0 -14 11 -17 70 -17 l70 0 0
-35 c0 -28 4 -35 20 -35 16 0 20 7 20 35 0 28 4 35 20 35 11 0 20 7 20 15 0 8
-9 15 -20 15 -21 0 -21 -4 -22 173 0 31 -4 37 -22 37 -16 0 -38 -27 -88 -103z
m69 -104 c-3 -2 -26 -3 -52 -1 l-46 3 48 74 48 74 3 -73 c2 -40 1 -74 -1 -77z"/>
<path d="M2283 960 c-12 -5 -30 -21 -39 -35 -15 -23 -15 -28 -3 -35 10 -7 22
0 41 20 29 33 35 34 71 21 26 -10 38 -36 28 -64 -4 -10 -39 -51 -79 -91 -44
-45 -72 -81 -72 -95 0 -20 4 -21 100 -21 89 0 100 2 100 18 0 15 -9 17 -75 15
-41 -1 -75 2 -75 7 0 4 27 34 61 66 83 80 93 103 75 161 -12 37 -81 54 -133
33z"/>
</g>
</svg>
