<?xml version="1.0" standalone="no"?>
<!DOCTYPE svg PUBLIC "-//W3C//DTD SVG 20010904//EN"
 "http://www.w3.org/TR/2001/REC-SVG-20010904/DTD/svg10.dtd">
<svg version="1.0" xmlns="http://www.w3.org/2000/svg"
 width="1077.000000pt" height="169.000000pt" viewBox="0 0 1077.000000 169.000000"
 preserveAspectRatio="xMidYMid meet">
<metadata>
Created by potrace 1.16, written by Peter Selinger 2001-2019
</metadata>
<g transform="translate(0.000000,169.000000) scale(0.100000,-0.100000)"
fill="#000000" stroke="none">
<path d="M489 1413 c0 -5 -1 -56 -3 -116 -1 -59 -7 -112 -12 -117 -7 -7 -28 2
-64 25 -96 61 -137 44 -155 -64 -9 -53 -9 -179 -1 -218 4 -16 8 -39 11 -52 9
-50 66 -65 120 -31 82 52 84 53 94 27 5 -13 9 -142 9 -286 0 -144 2 -264 5
-267 6 -6 7548 -6 7555 0 3 4 6 986 3 1089 -1 16 -188 17 -3781 17 -2079 0
-3780 -3 -3781 -7z m7531 -548 l0 -525 -3750 0 -3750 0 0 28 c-2 476 -4 513
-28 532 -26 21 -36 19 -104 -23 -26 -16 -56 -27 -65 -25 -27 5 -43 70 -43 172
-1 179 22 215 100 163 67 -44 88 -49 110 -27 11 11 21 28 21 38 5 53 7 102 8
145 l1 47 3750 0 3750 0 0 -525z"/>
<path d="M2682 1193 c0 -180 -2 -184 -81 -133 -69 44 -109 40 -135 -15 -29
-58 -29 -273 0 -331 26 -54 66 -58 135 -14 80 52 83 47 81 -162 l-1 -78 684 0
685 0 0 405 0 405 -684 0 -684 0 0 -77z m1338 -328 l0 -375 -652 2 -652 3 -2
101 c-2 177 -16 193 -117 139 -36 -19 -73 -35 -81 -35 -25 0 -39 69 -39 186 1
166 24 199 103 149 68 -43 87 -48 110 -25 11 11 21 35 22 53 0 17 2 61 3 97 1
36 3 68 4 73 0 4 294 7 651 7 l650 0 0 -375z"/>
<path d="M3142 1008 c-31 -38 -132 -201 -132 -213 0 -12 15 -15 70 -15 73 0
74 -1 70 -47 -1 -17 4 -23 19 -23 17 0 21 6 21 35 0 28 4 35 20 35 11 0 20 7
20 15 0 8 -9 15 -20 15 -19 0 -20 7 -20 105 0 96 -2 105 -19 105 -10 0 -23 -6
-29 -12z m11 -114 c-1 -42 -4 -78 -6 -81 -3 -2 -26 -3 -51 -1 l-46 3 51 78
c29 42 52 77 53 77 0 0 0 -34 -1 -76z"/>
<path d="M3333 928 c-81 -126 -87 -137 -71 -143 7 -2 40 -6 73 -7 60 -3 60 -3
63 -36 4 -44 36 -41 37 3 0 24 5 31 23 33 27 4 24 26 -5 30 -18 3 -20 10 -19
105 1 96 0 102 -20 105 -16 2 -33 -16 -81 -90z m66 -48 l-1 -70 -53 0 -53 0
46 70 c26 39 50 70 54 70 4 0 7 -31 7 -70z"/>
<path d="M3563 1008 c-12 -6 -29 -25 -37 -43 -19 -39 -21 -145 -4 -191 27 -76
132 -84 172 -14 41 70 21 221 -33 250 -25 13 -69 12 -98 -2z m77 -28 c10 -5
23 -23 28 -39 11 -31 9 -134 -3 -164 -19 -46 -86 -44 -105 3 -15 36 -15 134 0
171 11 25 23 34 53 38 5 0 17 -3 27 -9z"/>
<path d="M4409 1228 c0 -41 -4 -128 -7 -175 -3 -31 -28 -29 -81 7 -60 41 -101
40 -126 -2 -17 -29 -20 -52 -20 -178 0 -126 3 -149 20 -177 25 -43 64 -44 128
-3 54 34 76 38 79 13 3 -33 7 -127 7 -190 l1 -63 438 0 437 0 0 405 0 405
-437 0 -438 0 -1 -42z m842 -15 c1 -36 1 -682 0 -705 -1 -17 -27 -18 -406 -18
l-405 0 -1 93 c-2 126 -5 148 -27 169 -18 19 -20 18 -87 -16 -80 -42 -90 -43
-107 -13 -18 33 -23 243 -6 292 16 50 38 55 90 20 79 -52 126 -49 130 8 0 12
2 27 3 32 2 6 3 45 4 88 l1 77 405 0 405 0 1 -27z"/>
<path d="M4803 1010 c-42 -17 -58 -57 -58 -145 0 -119 41 -170 122 -149 49 12
73 48 80 120 12 135 -51 211 -144 174z m83 -41 c15 -17 19 -37 19 -106 0 -77
-2 -87 -24 -104 -13 -10 -29 -19 -36 -19 -7 0 -23 9 -36 19 -22 17 -24 27 -24
104 0 66 4 89 17 104 24 26 62 27 84 2z"/>
<path d="M5640 1155 c0 -90 -3 -117 -14 -121 -8 -3 -39 9 -70 26 -73 42 -104
38 -131 -15 -29 -58 -29 -271 0 -330 27 -53 57 -57 131 -15 31 17 62 29 70 26
11 -4 14 -33 14 -136 l0 -130 440 0 440 0 0 405 0 405 -440 0 -440 0 0 -115z
m847 -287 l-2 -373 -406 -3 -405 -2 -1 112 c-2 111 -11 151 -39 162 -8 3 -43
-10 -79 -29 -36 -19 -71 -35 -79 -35 -27 0 -41 62 -41 180 1 169 25 210 93
161 116 -81 147 -56 145 114 -1 38 1 73 3 77 3 5 187 8 409 8 l403 0 -1 -372z"/>
<path d="M6032 992 c-18 -15 -32 -33 -32 -39 0 -18 7 -16 41 8 l30 21 -3 -119
c-3 -128 2 -118 -60 -122 -10 -1 -18 -8 -18 -16 0 -12 17 -15 95 -15 84 0 95
2 95 18 0 14 -8 17 -35 16 -40 -2 -37 -17 -36 179 1 94 0 97 -22 97 -12 0 -37
-13 -55 -28z"/>
<path d="M6875 1178 c0 -165 -2 -168 -83 -118 -65 40 -106 40 -127 0 -38 -73
-38 -287 0 -360 21 -40 61 -40 127 0 26 17 55 30 63 30 17 0 17 -4 19 -155 l1
-110 434 -3 c255 -1 437 2 440 7 3 5 6 186 5 403 l-1 393 -439 3 -439 2 0 -92z
m845 -15 c1 -72 1 -501 0 -620 l0 -53 -405 0 -405 0 -1 83 c-1 160 -9 187 -55
187 -14 0 -42 -11 -63 -25 -22 -13 -51 -27 -65 -31 -23 -5 -28 -2 -41 30 -18
42 -21 221 -4 279 16 60 27 60 128 3 49 -28 74 -23 87 16 11 31 11 32 12 126
l2 82 405 0 405 0 0 -77z"/>
<path d="M7273 1010 c-35 -14 -55 -55 -60 -124 -9 -108 30 -176 101 -176 65 0
106 58 106 147 0 126 -60 188 -147 153z m78 -39 c22 -18 24 -27 24 -106 0 -79
-2 -88 -24 -106 -13 -10 -29 -19 -36 -19 -7 0 -23 9 -36 19 -22 18 -24 27 -24
106 0 79 2 88 24 106 13 10 29 19 36 19 7 0 23 -9 36 -19z"/>
<path d="M1130 1009 c0 -14 5 -19 17 -17 24 4 26 38 2 38 -13 0 -19 -7 -19
-21z"/>
<path d="M878 1004 c-47 -24 -50 -101 -6 -125 12 -6 48 -19 81 -28 75 -20 97
-47 68 -82 -27 -33 -115 -34 -142 -1 -9 12 -27 22 -38 22 -18 0 -19 -3 -10
-23 15 -33 44 -48 104 -54 66 -7 119 16 134 58 21 60 -12 93 -114 118 -58 14
-75 26 -75 52 0 31 26 47 76 45 33 -2 51 -8 62 -23 12 -14 23 -19 36 -14 17 7
17 9 -7 36 -22 26 -32 30 -84 32 -35 1 -69 -4 -85 -13z"/>
<path d="M1555 1012 c-85 -28 -120 -134 -75 -227 45 -94 188 -101 251 -14 32
46 34 144 3 186 -38 52 -115 75 -179 55z m114 -41 c28 -15 41 -42 45 -94 9
-104 -77 -164 -165 -116 -27 14 -49 62 -49 107 0 92 88 146 169 103z"/>
<path d="M1129 941 c0 -6 -1 -54 -1 -106 0 -128 0 -125 20 -125 16 0 18 11 17
117 0 104 -2 118 -17 121 -10 2 -18 -1 -19 -7z"/>
<path d="M1225 830 c0 -113 1 -120 20 -120 18 0 20 7 20 84 1 92 17 126 60
126 38 0 45 -19 45 -117 0 -86 1 -93 20 -93 19 0 20 7 20 100 0 87 -3 103 -20
120 -27 27 -77 26 -107 -2 l-23 -21 0 21 c0 14 -6 22 -17 22 -16 0 -18 -12
-18 -120z"/>
<path d="M1833 938 c-12 -6 -24 -22 -28 -35 -10 -39 17 -69 75 -84 60 -15 84
-44 54 -66 -25 -19 -71 -16 -92 5 -11 11 -26 16 -36 12 -31 -11 11 -50 61 -57
56 -7 99 11 112 48 14 40 -11 68 -80 88 -55 17 -76 44 -47 62 21 14 65 10 82
-6 21 -22 45 -19 39 4 -9 36 -90 53 -140 29z"/>
<path d="M2067 939 c-44 -26 -61 -122 -32 -180 17 -31 49 -49 91 -49 28 0 89
54 80 69 -8 13 -46 1 -46 -14 0 -17 -34 -28 -61 -20 -38 12 -54 110 -23 153
19 28 60 29 76 2 17 -26 58 -28 51 -2 -10 40 -94 66 -136 41z"/>
</g>
</svg>
