<?xml version="1.0" standalone="no"?>
<!DOCTYPE svg PUBLIC "-//W3C//DTD SVG 20010904//EN"
 "http://www.w3.org/TR/2001/REC-SVG-20010904/DTD/svg10.dtd">
<svg version="1.0" xmlns="http://www.w3.org/2000/svg"
 width="1008.000000pt" height="1051.000000pt" viewBox="0 0 1008.000000 1051.000000"
 preserveAspectRatio="xMidYMid meet">
<metadata>
Created by potrace 1.16, written by Peter Selinger 2001-2019
</metadata>
<g transform="translate(0.000000,1051.000000) scale(0.100000,-0.100000)"
fill="#000000" stroke="none">
<path d="M2510 10370 c0 -40 -4 -70 -10 -70 -6 0 -26 9 -46 19 -20 11 -42 17
-49 14 -32 -12 -47 -145 -24 -212 12 -35 41 -41 75 -16 10 8 27 15 37 15 15 0
17 -14 17 -165 l0 -165 1623 2 1622 3 1 310 c0 171 -2 316 -4 323 -3 9 -337
12 -1623 12 l-1619 0 0 -70z m3226 -255 l0 -305 -1603 0 -1603 0 0 153 c0 185
-5 198 -65 167 -49 -25 -62 -25 -70 0 -9 28 -4 151 7 173 8 16 11 16 48 -3 68
-35 80 -24 80 73 l0 47 1603 0 1603 0 0 -305z"/>
<path d="M4350 10296 c0 -85 -4 -89 -56 -63 -42 20 -45 20 -62 4 -13 -13 -18
-38 -20 -100 -6 -133 19 -163 94 -116 19 12 35 16 35 10 1 -6 3 -15 4 -21 1
-5 3 -38 4 -73 l1 -62 253 0 252 0 3 238 2 237 -255 0 -255 0 0 -54z m488
-183 l-3 -218 -228 0 c-126 0 -231 3 -234 7 -2 5 -5 37 -7 73 -3 85 -11 92
-70 63 -41 -19 -48 -20 -57 -8 -10 16 -8 184 2 195 4 3 27 -4 53 -17 61 -29
73 -15 75 85 l1 37 235 0 235 0 -2 -217z"/>
<path d="M4578 10186 c-10 -7 -18 -19 -18 -27 0 -10 3 -10 12 -1 21 21 24 14
24 -53 1 -61 -1 -65 -23 -65 -13 0 -23 -4 -23 -10 0 -5 25 -10 55 -10 30 0 55
5 55 10 0 6 -9 10 -20 10 -18 0 -20 7 -20 80 0 84 -6 94 -42 66z"/>
<path d="M5068 10285 c-2 -35 -6 -67 -9 -70 -3 -3 -24 5 -47 17 -40 22 -42 22
-59 5 -14 -13 -19 -37 -21 -100 -6 -133 19 -163 94 -116 19 12 35 16 35 10 1
-6 3 -15 4 -21 1 -5 3 -38 4 -73 l1 -62 253 0 252 0 3 238 2 237 -254 0 -254
0 -4 -65z m490 -172 l-3 -218 -228 0 c-126 0 -231 3 -233 7 -3 4 -6 37 -8 73
-3 85 -11 92 -70 63 -40 -19 -48 -20 -56 -8 -14 23 -12 163 3 184 12 16 15 15
54 -6 59 -32 68 -20 72 105 1 16 19 17 236 17 l235 0 -2 -217z"/>
<path d="M5286 10184 c-33 -32 -32 -116 0 -149 21 -20 57 -19 76 3 32 35 28
133 -5 154 -20 13 -55 9 -71 -8z m63 -18 c18 -22 10 -107 -11 -120 -36 -22
-66 48 -45 107 10 30 37 36 56 13z"/>
<path d="M3765 10200 c3 -5 10 -10 16 -10 5 0 9 5 9 10 0 6 -7 10 -16 10 -8 0
-12 -4 -9 -10z"/>
<path d="M2715 10113 l1 -88 46 -3 c26 -2 56 2 68 8 24 13 27 52 5 70 -11 9
-13 16 -5 24 14 14 13 49 -2 64 -7 7 -35 12 -63 12 l-50 0 0 -87z m95 52 c18
-21 -4 -45 -41 -45 -26 0 -29 4 -29 30 0 26 3 30 29 30 16 0 34 -7 41 -15z
m10 -80 c19 -22 -5 -45 -46 -45 -31 0 -34 3 -34 30 0 27 3 30 34 30 18 0 39
-7 46 -15z"/>
<path d="M3442 10110 c1 -57 6 -89 13 -87 6 2 10 32 9 70 0 36 3 64 6 62 4 -3
25 -34 46 -70 24 -40 46 -65 57 -65 15 0 17 11 17 90 0 69 -3 90 -13 90 -11 0
-14 -17 -12 -70 0 -38 0 -70 -2 -70 -2 0 -23 32 -48 70 -62 97 -75 94 -73 -20z"/>
<path d="M2880 10088 c0 -51 3 -68 14 -68 9 0 13 12 11 43 -2 48 9 77 30 77 8
0 15 4 15 9 0 5 -16 9 -35 8 l-35 -1 0 -68z"/>
<path d="M2979 10139 c-16 -16 -19 -28 -14 -57 15 -98 128 -76 119 23 -5 54
-65 74 -105 34z m77 -24 c10 -42 -3 -75 -30 -75 -26 0 -36 17 -36 59 0 34 7
41 36 41 17 0 25 -7 30 -25z"/>
<path d="M3104 10128 c15 -75 28 -108 41 -108 8 0 15 3 15 8 1 4 7 30 14 57
l13 50 13 -58 c18 -77 38 -73 63 12 10 34 16 65 13 68 -11 11 -25 -9 -31 -47
-6 -38 -25 -66 -25 -38 0 31 -22 88 -34 88 -7 0 -18 -24 -26 -57 l-13 -58 -15
58 c-15 60 -39 82 -28 25z"/>
<path d="M3299 10155 c0 -3 -1 -30 -1 -60 0 -74 1 -75 12 -75 6 0 10 22 10 48
0 51 12 72 42 72 15 0 18 -9 18 -60 0 -43 4 -60 13 -60 16 0 20 95 6 123 -11
20 -49 23 -67 5 -9 -9 -12 -9 -12 0 0 11 -19 18 -21 7z"/>
<path d="M3636 10144 c-22 -22 -21 -87 2 -107 44 -40 102 -6 102 59 0 55 -67
86 -104 48z m74 -29 c13 -34 -3 -75 -29 -75 -23 0 -33 13 -37 49 -6 51 48 72
66 26z"/>
<path d="M3768 10153 c-10 -20 -1 -127 10 -131 9 -3 12 16 12 67 0 39 -4 71
-9 71 -6 0 -11 -3 -13 -7z"/>
<path d="M3832 10148 c-23 -23 -13 -45 28 -62 48 -19 54 -46 10 -46 -16 0 -30
5 -30 10 0 6 -4 10 -10 10 -5 0 -10 -7 -10 -15 0 -31 92 -31 104 0 9 25 -3 42
-47 59 -32 12 -38 19 -29 28 9 9 19 10 42 1 24 -9 30 -9 30 2 0 25 -66 35 -88
13z"/>
<path d="M3973 10152 c-22 -14 -33 -60 -22 -89 6 -15 16 -31 22 -35 20 -13 64
-9 77 7 18 21 6 29 -19 13 -24 -15 -54 -2 -59 26 -3 13 6 16 48 16 49 0 51 1
45 23 -12 40 -59 60 -92 39z m65 -29 c2 -9 -8 -13 -32 -13 -28 0 -34 3 -29 16
7 18 54 16 61 -3z"/>
<path d="M490 10400 c0 -5 5 -10 10 -10 6 0 10 -32 10 -75 0 -43 -4 -75 -10
-75 -5 0 -10 -4 -10 -10 0 -5 17 -10 38 -10 33 1 35 2 20 14 -14 10 -18 28
-17 77 l0 64 28 -75 c16 -41 33 -76 38 -77 6 -2 22 30 38 72 15 41 29 75 31
75 2 0 4 -29 4 -65 0 -51 -3 -65 -15 -65 -8 0 -15 -4 -15 -10 0 -5 16 -10 35
-10 19 0 35 5 35 10 0 6 -6 10 -12 10 -17 0 -16 142 0 148 23 7 12 23 -14 20
-22 -3 -30 -14 -56 -82 l-31 -80 -24 70 c-13 38 -26 75 -28 82 -5 14 -55 17
-55 2z"/>
<path d="M880 10391 c0 -11 -7 -27 -16 -35 -14 -15 -14 -17 0 -22 12 -4 16
-20 16 -55 0 -37 4 -51 17 -56 19 -7 57 33 46 50 -4 7 -10 2 -16 -11 -16 -35
-27 -26 -27 23 0 38 3 45 20 45 11 0 20 5 20 10 0 6 -9 10 -20 10 -15 0 -20 7
-20 24 0 14 -4 28 -10 31 -5 3 -10 -3 -10 -14z"/>
<path d="M755 10336 c-13 -9 -19 -26 -19 -51 0 -41 22 -65 60 -65 24 0 51 26
39 38 -4 4 -10 1 -12 -5 -6 -18 -38 -16 -57 3 -23 22 -11 34 35 34 31 0 39 4
39 18 0 39 -48 55 -85 28z m65 -15 c0 -11 -49 -21 -55 -11 -2 4 -2 10 2 14 10
9 53 7 53 -3z"/>
<path d="M987 10343 c-15 -14 -6 -21 24 -19 18 0 34 -5 36 -11 3 -8 -5 -13
-20 -13 -27 0 -57 -23 -57 -44 0 -23 23 -33 80 -33 46 -1 51 1 37 12 -11 8
-17 26 -17 52 0 21 -5 44 -12 51 -13 13 -60 16 -71 5z m59 -88 c-7 -19 -47
-17 -54 3 -5 15 39 33 52 22 5 -5 6 -16 2 -25z"/>
<path d="M516 9944 c-26 -27 -35 -79 -20 -119 8 -20 56 -45 88 -45 31 0 82 42
71 59 -5 9 -11 6 -19 -11 -8 -17 -21 -24 -48 -26 -62 -5 -97 53 -67 111 16 30
28 37 65 37 23 0 34 -7 44 -25 19 -35 30 -31 30 11 0 29 -3 34 -13 26 -8 -7
-18 -7 -27 -2 -29 19 -76 11 -104 -16z"/>
<path d="M1116 9955 c-4 -11 -12 -28 -18 -39 -7 -13 -7 -21 0 -25 6 -4 12 -29
14 -56 3 -43 6 -50 25 -53 24 -4 49 30 37 50 -5 7 -10 3 -16 -11 -12 -33 -28
-16 -28 30 0 32 3 39 20 39 11 0 20 5 20 10 0 6 -9 10 -19 10 -15 0 -21 8 -23
33 -3 27 -5 29 -12 12z"/>
<path d="M1510 9952 c0 -11 -7 -25 -15 -32 -13 -11 -14 -15 -2 -29 8 -9 13
-27 12 -41 -3 -34 11 -70 29 -70 20 0 38 26 33 47 -4 16 -6 15 -12 -4 -7 -22
-24 -32 -26 -15 -7 64 -5 74 20 85 l26 11 -26 3 c-21 3 -25 8 -22 27 3 13 0
27 -6 30 -7 4 -11 -1 -11 -12z"/>
<path d="M707 9898 c-26 -20 -30 -75 -6 -99 19 -19 55 -25 76 -11 6 4 17 20
22 35 23 61 -41 112 -92 75z m74 -40 c9 -35 -10 -61 -40 -56 -28 4 -42 34 -30
66 13 34 60 27 70 -10z"/>
<path d="M820 9900 c0 -4 6 -10 14 -13 18 -7 18 -87 -1 -87 -7 0 -13 -4 -13
-10 0 -5 16 -10 35 -10 38 0 42 4 21 25 -21 21 -6 79 21 83 18 3 21 -3 25 -37
4 -46 0 -63 -13 -55 -5 3 -9 0 -9 -5 0 -6 16 -11 35 -11 33 0 48 14 23 22 -6
2 -13 22 -15 44 -1 21 -5 44 -7 51 -5 13 -116 17 -116 3z"/>
<path d="M989 9894 c-16 -19 -2 -47 27 -53 25 -4 45 -21 38 -32 -9 -15 -44
-10 -50 6 -9 23 -24 18 -24 -8 0 -24 20 -30 68 -21 42 8 25 67 -22 75 -30 6
-32 29 -2 29 14 0 26 -4 26 -10 0 -5 5 -10 10 -10 6 0 10 8 10 18 0 24 -62 29
-81 6z"/>
<path d="M1217 9903 c-15 -14 -6 -21 24 -19 18 0 34 -5 36 -11 3 -8 -5 -13
-20 -13 -27 0 -57 -23 -57 -44 0 -23 23 -33 80 -33 46 -1 51 1 37 12 -11 8
-17 26 -17 52 0 21 -5 44 -12 51 -13 13 -60 16 -71 5z m63 -73 c0 -27 -34 -44
-50 -25 -14 17 -14 17 15 33 28 16 35 15 35 -8z"/>
<path d="M1334 9899 c-3 -5 1 -9 9 -9 9 0 14 -14 15 -45 1 -25 -2 -45 -8 -45
-5 0 -10 -4 -10 -10 0 -5 14 -10 30 -10 17 0 30 5 30 10 0 6 -5 10 -11 10 -6
0 -9 17 -7 43 3 37 6 42 28 42 23 0 25 -4 26 -42 1 -31 -2 -43 -12 -43 -8 0
-14 -4 -14 -10 0 -5 16 -10 35 -10 19 0 35 5 35 10 0 6 -6 10 -12 10 -9 0 -13
13 -12 37 2 60 -9 72 -66 71 -28 0 -53 -4 -56 -9z"/>
<path d="M1602 9893 c-14 -26 -5 -41 33 -53 23 -8 32 -16 28 -26 -7 -19 -39
-18 -47 1 -9 24 -26 18 -24 -8 2 -20 8 -24 40 -25 32 -2 40 2 47 21 10 26 -9
54 -40 59 -24 4 -26 22 -4 26 9 2 23 -5 30 -15 13 -17 14 -16 15 10 0 24 -3
27 -35 27 -23 0 -37 -6 -43 -17z"/>
<path d="M1135 9530 c-17 -7 -18 -9 -4 -15 13 -5 17 -20 17 -68 0 -103 -1
-102 30 -104 49 -4 70 6 81 38 17 50 -4 84 -52 84 -38 0 -41 3 -38 42 3 26 -8
33 -34 23z m100 -125 c0 -38 -2 -40 -30 -40 -26 0 -30 4 -33 28 -5 44 4 59 35
55 25 -3 28 -7 28 -43z"/>
<path d="M1297 9532 c-15 -3 -16 -6 -5 -19 19 -24 18 -145 -2 -160 -12 -10 -9
-12 23 -13 36 0 50 13 24 23 -8 3 -12 29 -11 86 0 45 -2 83 -5 85 -3 1 -14 1
-24 -2z"/>
<path d="M480 9521 c0 -5 5 -11 11 -13 6 -2 26 -39 43 -83 17 -43 36 -80 41
-82 6 -2 23 32 39 74 16 43 35 83 43 89 20 17 16 24 -17 24 -29 0 -42 -14 -20
-22 7 -2 5 -18 -6 -43 -9 -22 -21 -51 -26 -65 -9 -24 -11 -22 -34 34 -13 33
-22 68 -18 78 4 15 0 18 -25 18 -17 0 -31 -4 -31 -9z"/>
<path d="M927 9524 c-8 -8 1 -24 14 -24 5 0 9 7 9 15 0 15 -12 20 -23 9z"/>
<path d="M687 9463 c-15 -15 -5 -22 22 -17 20 4 30 2 34 -10 5 -12 0 -16 -16
-16 -35 0 -59 -22 -55 -51 3 -22 7 -24 61 -25 31 0 57 3 57 8 0 4 -6 8 -13 8
-10 0 -13 12 -11 40 1 25 -3 46 -13 55 -15 15 -54 20 -66 8z m56 -89 c-5 -13
-39 -25 -47 -16 -13 12 -5 33 17 41 24 9 39 -3 30 -25z"/>
<path d="M800 9460 c0 -6 5 -10 10 -10 6 0 10 -20 10 -45 0 -25 -4 -45 -10
-45 -5 0 -10 -4 -10 -10 0 -5 16 -10 35 -10 19 0 35 5 35 10 0 6 -7 10 -15 10
-10 0 -14 9 -14 28 3 48 10 63 29 60 11 -2 19 2 20 7 0 6 -20 11 -45 12 -25 1
-45 -2 -45 -7z"/>
<path d="M921 9461 c-9 -6 -10 -10 -2 -12 17 -6 20 -80 4 -86 -24 -9 -14 -23
17 -23 17 0 30 5 30 10 0 6 -4 10 -9 10 -5 0 -9 23 -8 52 2 52 -7 65 -32 49z"/>
<path d="M1007 9456 c-5 -12 1 -13 29 -9 27 4 34 2 34 -11 0 -10 -9 -16 -24
-16 -32 0 -59 -36 -46 -61 8 -13 22 -17 65 -17 51 1 55 2 41 17 -9 10 -15 33
-14 55 1 23 -4 41 -13 47 -22 14 -66 11 -72 -5z m63 -71 c0 -20 -5 -25 -25
-25 -29 0 -34 24 -7 39 26 16 32 13 32 -14z"/>
<path d="M1381 9456 c-6 -8 -13 -28 -16 -46 -4 -37 23 -70 59 -70 25 0 54 26
41 38 -4 4 -10 1 -12 -5 -7 -18 -50 -16 -57 3 -11 29 -6 34 34 34 32 0 40 4
40 18 0 10 -5 23 -12 30 -16 16 -63 15 -77 -2z m69 -15 c0 -11 -49 -21 -55
-11 -2 4 -2 10 2 14 10 9 53 7 53 -3z"/>
<path d="M1503 9463 c-31 -12 -8 -57 32 -65 28 -5 33 -38 5 -38 -11 0 -23 7
-26 15 -9 23 -24 18 -24 -7 0 -19 6 -23 32 -25 64 -5 81 48 23 73 -19 8 -35
19 -35 24 0 16 40 12 46 -5 9 -22 23 -9 17 15 -5 20 -39 26 -70 13z"/>
<path d="M2510 9320 c0 -40 -4 -70 -10 -70 -6 0 -26 9 -46 19 -20 11 -42 17
-49 15 -24 -9 -34 -54 -32 -134 3 -99 18 -122 70 -101 73 29 67 42 67 -143 l0
-166 1555 0 1555 0 0 325 0 325 -1555 0 -1555 0 0 -70z m3090 -255 l0 -305
-1535 0 -1535 0 0 153 c0 184 -5 198 -62 167 -49 -26 -64 -25 -72 3 -9 36 -7
147 4 167 10 19 12 19 56 -3 45 -21 46 -22 60 -3 8 11 14 43 14 73 l0 53 1535
0 1535 0 0 -305z"/>
<path d="M3490 9230 c0 -38 -2 -70 -6 -70 -3 0 -22 10 -43 22 -21 12 -45 19
-54 15 -24 -9 -40 -83 -33 -156 8 -95 25 -107 96 -71 l39 20 3 -82 3 -83 253
0 c161 0 253 3 254 10 1 5 2 112 3 238 l1 227 -258 0 -258 0 0 -70z m495 -170
l0 -215 -220 0 c-121 0 -228 1 -237 3 -15 4 -18 16 -18 72 0 88 -13 101 -70
69 -31 -17 -43 -20 -52 -11 -16 16 -19 166 -4 188 12 15 16 15 53 -7 56 -32
73 -18 73 62 l0 59 238 -2 237 -3 0 -215z"/>
<path d="M3706 9131 c-22 -25 -24 -103 -2 -136 18 -28 52 -33 80 -12 27 20 34
108 12 142 -20 30 -65 34 -90 6z m71 -18 c9 -23 9 -84 0 -106 -9 -23 -44 -22
-57 2 -23 44 -4 121 30 121 11 0 24 -8 27 -17z"/>
<path d="M4210 9230 c0 -38 -2 -70 -6 -70 -3 0 -22 10 -43 22 -21 12 -45 19
-54 15 -24 -9 -40 -83 -33 -156 7 -82 23 -101 69 -82 70 28 66 31 69 -55 l3
-79 245 -1 c135 0 250 1 256 3 7 3 11 79 11 238 l0 235 -259 0 -258 0 0 -70z
m491 43 c3 -18 5 -409 2 -418 -3 -8 -384 -13 -460 -6 -9 1 -13 22 -13 70 0 89
-13 102 -70 70 -56 -32 -65 -20 -65 86 0 104 9 115 63 84 55 -32 72 -18 72 62
l0 59 235 0 c129 0 236 -3 236 -7z"/>
<path d="M4437 9132 c-19 -21 -24 -43 -5 -24 22 22 28 12 28 -53 0 -63 -1 -65
-26 -65 -14 0 -23 -4 -19 -10 3 -5 31 -10 61 -10 30 0 54 5 54 10 0 6 -9 10
-20 10 -22 0 -22 -1 -24 90 -1 71 -17 88 -49 52z"/>
<path d="M4930 9230 c0 -38 -2 -70 -6 -70 -3 0 -22 10 -43 22 -21 12 -45 19
-54 15 -24 -9 -40 -83 -33 -156 8 -95 25 -107 96 -71 l39 20 3 -82 3 -83 255
0 255 0 1 238 1 237 -258 0 -259 0 0 -70z m495 -170 l0 -215 -225 -1 c-124 0
-231 2 -237 4 -9 3 -13 27 -13 72 0 88 -13 101 -70 69 -56 -32 -65 -20 -65 86
0 104 8 115 63 84 55 -32 72 -18 72 62 l0 59 238 -2 237 -3 0 -215z"/>
<path d="M5146 9131 c-23 -25 -23 -103 -2 -136 18 -28 52 -32 81 -11 12 9 20
30 23 68 4 47 1 59 -17 77 -26 26 -62 27 -85 2z m74 -36 c9 -26 9 -44 0 -70
-20 -62 -70 -37 -70 35 0 72 50 97 70 35z"/>
<path d="M2718 9138 c-2 -7 -4 -47 -3 -88 l0 -75 39 -3 c70 -6 116 30 116 89
0 25 -18 60 -39 76 -21 17 -108 17 -113 1z m100 -24 c16 -11 22 -25 22 -54 0
-45 -26 -70 -72 -70 -28 0 -28 0 -28 70 0 70 0 70 28 70 15 0 38 -7 50 -16z"/>
<path d="M3175 9131 c-3 -6 -3 -11 1 -11 4 0 -1 -7 -12 -15 -10 -8 -14 -15 -7
-15 8 0 13 -21 15 -57 3 -51 6 -58 26 -61 23 -4 31 13 10 20 -18 6 -18 98 -1
98 18 0 16 7 -6 31 -12 13 -21 17 -26 10z"/>
<path d="M2896 9049 c3 -70 9 -77 68 -77 l41 1 1 69 c0 49 -4 68 -13 68 -9 0
-13 -15 -13 -47 0 -56 -10 -76 -36 -71 -16 3 -20 14 -22 61 -2 38 -7 57 -16
57 -9 0 -12 -17 -10 -61z"/>
<path d="M3046 9094 c-22 -22 -5 -51 37 -62 17 -5 32 -15 32 -23 0 -18 -42
-24 -61 -8 -19 16 -30 4 -14 -16 17 -21 79 -16 94 8 15 24 -3 49 -42 59 -38
10 -43 38 -8 38 14 0 28 -5 31 -10 4 -6 11 -8 16 -4 17 10 -12 34 -42 34 -15
0 -35 -7 -43 -16z"/>
<path d="M997 9092 c-14 -3 -15 -7 -7 -17 14 -17 15 -148 1 -153 -25 -8 -8
-22 27 -22 32 1 35 2 20 14 -11 8 -16 23 -14 42 2 16 4 35 5 42 0 6 12 12 26
12 23 0 25 -4 25 -45 0 -25 -4 -45 -10 -45 -5 0 -10 -4 -10 -10 0 -5 17 -10
38 -10 33 1 35 2 20 14 -12 9 -18 27 -18 52 0 54 -12 68 -47 61 -28 -6 -30 -4
-31 30 -2 41 -1 41 -25 35z"/>
<path d="M490 9080 c0 -5 5 -10 10 -10 6 0 10 -32 10 -75 0 -43 -4 -75 -10
-75 -5 0 -10 -4 -10 -10 0 -5 17 -10 38 -10 33 1 35 2 20 14 -14 10 -18 28
-17 77 l0 64 28 -75 c16 -41 33 -76 39 -78 5 -1 20 25 31 60 32 95 40 101 40
32 0 -40 -6 -65 -16 -76 -15 -17 -14 -18 20 -18 40 0 44 4 24 24 -16 16 -14
139 2 144 22 7 10 23 -16 20 -23 -3 -29 -12 -52 -75 -14 -40 -29 -73 -33 -73
-4 0 -10 10 -14 23 -30 98 -46 127 -70 127 -13 0 -24 -4 -24 -10z"/>
<path d="M896 9075 c-4 -11 -12 -29 -18 -40 -8 -14 -8 -20 1 -23 6 -2 11 -25
11 -52 0 -27 5 -52 10 -55 15 -9 47 4 54 22 9 23 -4 31 -15 10 -15 -27 -29
-11 -29 34 0 32 3 39 20 39 11 0 20 5 20 10 0 6 -9 10 -19 10 -15 0 -21 8 -23
33 -3 27 -5 29 -12 12z"/>
<path d="M750 9015 c0 -11 8 -13 30 -8 42 8 40 -20 -2 -32 -28 -8 -33 -15 -33
-40 0 -30 0 -30 58 -31 31 0 57 3 57 8 0 4 -6 8 -13 8 -9 0 -12 13 -11 41 1
24 -4 46 -13 55 -19 19 -73 19 -73 -1z m64 -60 c7 -19 -20 -46 -39 -39 -20 8
-19 31 3 43 23 14 29 13 36 -4z"/>
<path d="M493 8646 c13 -10 17 -28 17 -81 0 -53 -4 -71 -17 -81 -16 -11 -7
-13 58 -14 l77 0 4 40 c4 47 -10 54 -18 10 -6 -27 -10 -30 -45 -30 l-39 0 1
75 c1 56 5 75 15 75 8 0 14 5 14 10 0 6 -19 10 -42 10 -38 -1 -41 -2 -25 -14z"/>
<path d="M670 8645 c0 -9 5 -15 11 -13 6 2 11 8 11 13 0 5 -5 11 -11 13 -6 2
-11 -4 -11 -13z"/>
<path d="M857 8623 c-12 -28 -13 -39 -5 -44 7 -4 13 -23 13 -41 3 -63 5 -68
24 -68 26 0 45 26 35 47 -7 16 -8 15 -11 -4 -3 -13 -9 -23 -14 -23 -10 0 -10
1 -13 53 -2 30 1 37 16 37 10 0 18 5 18 10 0 6 -9 10 -19 10 -14 0 -19 6 -16
18 7 38 -11 41 -28 5z"/>
<path d="M655 8590 c-3 -5 0 -10 5 -12 20 -6 23 -68 4 -89 -17 -18 -16 -19 22
-19 32 1 36 3 24 13 -10 8 -15 30 -15 61 0 39 -4 50 -17 52 -10 1 -20 -1 -23
-6z"/>
<path d="M741 8578 c-10 -27 3 -48 29 -48 20 0 43 -23 33 -33 -12 -12 -41 -7
-47 8 -8 21 -26 19 -26 -4 0 -34 73 -42 90 -10 9 16 8 24 -5 39 -10 11 -26 20
-36 22 -24 4 -26 22 -4 26 9 2 23 -5 30 -15 14 -17 14 -16 15 7 0 23 -5 26
-35 28 -29 2 -37 -2 -44 -20z"/>
<path d="M2510 8270 c0 -40 -4 -70 -10 -70 -6 0 -26 9 -46 19 -20 11 -42 17
-50 14 -30 -11 -45 -148 -23 -212 12 -35 37 -40 79 -16 49 28 50 27 50 -150
l0 -165 1625 0 c1437 0 1625 2 1626 15 0 8 0 139 0 290 0 151 0 291 0 310 l-1
35 -1625 0 -1625 0 0 -70z m3231 38 c0 -7 1 -145 2 -306 l2 -292 -1607 0
-1608 0 0 154 c0 129 -3 157 -16 171 -15 14 -19 14 -51 -5 -43 -25 -60 -25
-68 0 -9 28 -4 151 7 173 8 16 11 16 48 -3 68 -35 80 -24 80 73 l0 47 1605 0
c1277 0 1605 -3 1606 -12z"/>
<path d="M3632 8184 c0 -36 -3 -68 -5 -71 -3 -2 -20 5 -38 16 -70 43 -92 18
-93 -104 0 -123 24 -148 98 -104 l36 21 1 -54 c1 -29 2 -66 3 -83 l1 -30 255
0 255 0 3 238 2 237 -258 0 -259 0 -1 -66z m496 -171 l-3 -218 -228 0 c-126 0
-232 2 -236 5 -4 3 -7 25 -8 50 -1 87 -3 98 -19 104 -9 3 -34 -4 -55 -16 -31
-17 -42 -19 -51 -10 -16 16 -15 179 0 194 8 8 21 4 47 -11 20 -11 42 -21 50
-21 17 0 31 45 30 98 l0 42 237 0 238 0 -2 -217z"/>
<path d="M3855 8086 c-12 -9 -20 -30 -23 -68 -4 -47 -1 -59 17 -77 49 -49 104
-9 103 76 -2 71 -48 105 -97 69z m69 -38 c21 -58 -22 -134 -56 -100 -14 14
-18 93 -6 115 14 27 51 18 62 -15z"/>
<path d="M4353 8184 c-1 -37 -4 -68 -6 -70 -2 -2 -22 6 -45 18 l-41 23 -22
-22 c-19 -18 -22 -33 -22 -105 -1 -126 22 -151 97 -107 21 12 36 16 37 10 0
-6 1 -42 2 -81 0 -40 5 -71 11 -73 6 -2 121 -3 256 -3 l245 1 3 238 2 237
-257 0 -258 0 -2 -66z m497 -169 c0 -118 -3 -215 -7 -216 -53 -7 -456 -2 -461
6 -4 6 -7 33 -8 60 -3 80 -3 83 -20 89 -9 3 -34 -4 -55 -16 -29 -16 -42 -19
-51 -10 -22 22 -13 202 10 202 4 0 22 -9 40 -20 18 -11 39 -20 46 -20 18 0 32
44 31 98 l0 42 237 0 238 0 0 -215z"/>
<path d="M4582 8084 c-28 -19 -30 -39 -2 -24 11 6 20 7 21 3 0 -4 1 -33 1 -63
1 -49 -1 -55 -20 -58 -44 -7 -20 -22 33 -22 30 0 55 5 55 10 0 6 -9 10 -20 10
-18 0 -20 7 -20 80 0 86 -6 94 -48 64z"/>
<path d="M5073 8185 c0 -36 -2 -68 -5 -71 -3 -2 -22 5 -41 16 -69 41 -91 12
-91 -115 1 -113 26 -137 98 -94 20 12 36 17 37 12 0 -4 1 -42 2 -83 l2 -75
245 -1 c135 0 251 2 258 4 9 3 12 60 12 238 l0 234 -258 0 -259 0 0 -65z m497
-170 c0 -118 -3 -215 -7 -216 -31 -4 -456 -3 -461 1 -4 3 -8 36 -8 73 -2 88
-10 96 -69 67 -58 -28 -67 -20 -68 57 0 134 4 143 61 114 23 -12 45 -21 51
-21 13 0 28 50 26 90 -1 19 0 38 2 43 2 4 110 7 239 7 l234 0 0 -215z"/>
<path d="M5290 8085 c-21 -26 -25 -111 -6 -140 23 -35 69 -34 92 1 21 31 20
98 -1 131 -18 27 -66 31 -85 8z m74 -42 c17 -61 -22 -129 -55 -96 -13 13 -18
84 -8 111 13 35 51 26 63 -15z"/>
<path d="M2715 8013 l1 -88 28 -3 c59 -7 96 7 113 42 36 76 -7 136 -99 136
l-43 0 0 -87z m103 51 c16 -11 22 -25 22 -54 0 -45 -26 -70 -72 -70 -28 0 -28
0 -28 70 0 70 0 70 28 70 15 0 38 -7 50 -16z"/>
<path d="M3258 8089 c-10 -5 -18 -17 -18 -24 0 -19 8 -19 26 0 21 21 41 19 54
-6 10 -17 6 -25 -28 -57 -22 -20 -45 -47 -51 -59 -12 -23 -11 -23 49 -23 33 0
60 4 60 10 0 6 -21 10 -47 10 l-48 0 48 44 c48 45 55 63 37 97 -12 21 -53 25
-82 8z"/>
<path d="M3168 8071 c-9 -11 -12 -23 -8 -27 5 -5 10 -34 12 -64 3 -48 6 -55
26 -58 22 -3 31 13 11 20 -17 6 -19 89 -2 95 18 7 17 23 -3 23 -8 0 -13 4 -9
9 11 19 -12 20 -27 2z"/>
<path d="M2897 8053 c-9 -19 1 -115 13 -123 7 -4 32 -8 54 -8 l41 1 1 69 c0
48 -4 68 -13 68 -8 0 -13 -20 -15 -57 -3 -54 -5 -58 -28 -58 -23 0 -25 4 -28
58 -3 50 -13 72 -25 50z"/>
<path d="M3041 8042 c-13 -25 3 -48 45 -62 19 -7 33 -17 31 -23 -5 -17 -45
-21 -63 -6 -19 16 -30 4 -14 -16 17 -21 79 -16 94 8 15 24 -3 49 -42 59 -38
10 -43 38 -8 38 14 0 28 -5 31 -10 4 -6 11 -8 16 -4 19 11 -13 34 -47 34 -22
0 -37 -6 -43 -18z"/>
<path d="M1023 8216 c-4 -5 -1 -12 5 -14 8 -2 12 -32 12 -86 l0 -82 44 -2 c27
-1 48 4 55 12 20 24 23 67 6 93 -14 20 -23 24 -51 21 -33 -4 -34 -3 -34 32 0
26 -4 37 -15 37 -9 0 -19 -5 -22 -11z m106 -98 c13 -36 -2 -63 -35 -63 -24 0
-30 5 -32 28 -5 42 4 57 33 57 17 0 28 -7 34 -22z"/>
<path d="M1278 8222 c-19 -4 -25 -22 -8 -22 6 0 10 -11 10 -24 0 -22 -3 -24
-33 -19 -41 6 -59 -13 -59 -62 0 -53 14 -63 85 -63 51 0 59 2 45 12 -14 10
-17 29 -17 95 0 46 -1 84 -3 85 -2 1 -11 1 -20 -2z m0 -124 c3 -33 0 -38 -22
-44 -34 -8 -46 2 -46 40 0 40 7 48 40 44 21 -3 25 -9 28 -40z"/>
<path d="M493 8206 c14 -11 17 -29 17 -90 0 -45 -4 -75 -9 -71 -5 3 -12 1 -16
-5 -4 -6 21 -10 69 -10 l76 0 0 40 c0 22 -4 40 -10 40 -6 0 -9 -3 -9 -7 7 -42
-2 -53 -41 -53 l-40 0 0 75 c0 60 3 75 15 75 8 0 15 5 15 10 0 6 -19 10 -42
10 -38 -1 -41 -2 -25 -14z"/>
<path d="M670 8147 c0 -9 9 -12 29 -9 19 3 30 -1 34 -12 5 -12 0 -16 -16 -16
-35 0 -59 -22 -55 -51 3 -22 8 -24 61 -26 31 -1 57 2 57 7 0 5 -4 10 -9 12 -5
2 -12 23 -14 47 -2 23 -10 47 -18 52 -22 14 -69 11 -69 -4z m70 -67 c0 -16
-31 -39 -45 -34 -32 13 -7 55 26 47 10 -3 19 -9 19 -13z"/>
<path d="M790 8149 c0 -5 5 -9 10 -9 6 0 10 -20 10 -45 0 -25 -4 -45 -10 -45
-5 0 -10 -4 -10 -10 0 -5 17 -10 38 -10 32 1 35 2 20 13 -14 11 -18 45 -9 90
0 4 12 7 26 7 23 0 25 -4 25 -45 0 -25 -4 -45 -10 -45 -5 0 -10 -4 -10 -10 0
-5 17 -10 38 -10 33 1 35 2 20 14 -19 14 -24 61 -9 84 5 8 17 12 27 10 14 -2
20 -13 22 -46 2 -25 -1 -42 -7 -42 -6 0 -11 -4 -11 -10 0 -5 14 -10 30 -10 17
0 30 5 30 10 0 6 -4 10 -10 10 -5 0 -10 20 -10 44 0 25 -6 48 -12 53 -18 11
-188 13 -188 2z"/>
<path d="M1355 8150 c-7 -11 -1 -13 38 -10 19 1 27 -3 27 -14 0 -9 -8 -16 -19
-16 -10 0 -29 -8 -41 -18 -19 -15 -21 -22 -11 -39 9 -18 20 -21 66 -21 30 0
55 5 55 9 0 5 -6 9 -13 9 -9 0 -14 15 -14 46 -1 28 -6 50 -14 55 -19 12 -66
11 -74 -1z m54 -101 c-16 -10 -52 8 -43 22 3 6 16 14 28 18 17 7 22 4 24 -12
2 -11 -2 -23 -9 -28z"/>
<path d="M493 7766 c13 -10 17 -28 17 -81 0 -53 -4 -71 -17 -81 -16 -12 -13
-13 25 -14 23 0 42 5 42 10 0 6 -6 10 -13 10 -10 0 -14 21 -15 75 -2 61 1 75
13 75 8 0 15 5 15 10 0 6 -19 10 -42 10 -38 -1 -41 -2 -25 -14z"/>
<path d="M600 7761 c0 -11 -7 -26 -15 -35 -8 -8 -15 -17 -15 -20 0 -3 7 -6 15
-6 11 0 15 -12 15 -50 0 -36 4 -52 15 -56 21 -8 45 14 44 40 0 21 0 21 -11 -1
-17 -36 -28 -27 -28 22 0 38 3 45 20 45 11 0 20 5 20 10 0 6 -9 10 -20 10 -15
0 -20 7 -20 24 0 14 -4 28 -10 31 -5 3 -10 -3 -10 -14z"/>
<path d="M707 7702 c-22 -25 -21 -75 1 -95 25 -23 55 -21 77 3 10 11 13 20 7
20 -6 0 -14 -4 -17 -10 -10 -17 -44 -11 -55 9 -15 29 -14 31 34 31 32 0 44 4
42 14 -6 44 -60 60 -89 28z m63 -16 c0 -8 -8 -13 -17 -11 -10 2 -21 4 -25 4
-21 2 -5 21 17 21 15 0 25 -6 25 -14z"/>
<path d="M810 7709 c0 -5 5 -9 10 -9 6 0 10 -20 10 -45 0 -25 -4 -45 -10 -45
-5 0 -10 -4 -10 -10 0 -5 16 -10 35 -10 19 0 35 5 35 10 0 6 -7 10 -15 10 -9
0 -15 10 -15 26 0 35 19 67 36 60 8 -3 14 1 14 8 0 8 -15 13 -45 14 -25 0 -45
-4 -45 -9z"/>
<path d="M530 7323 c-14 -9 -28 -22 -32 -27 -15 -21 -8 -91 12 -116 17 -22 27
-25 84 -26 l66 0 0 33 c0 18 5 33 11 33 5 0 7 5 4 10 -3 6 -19 10 -35 10 -16
0 -32 -4 -35 -10 -3 -5 3 -10 14 -10 22 0 27 -16 13 -37 -20 -32 -105 -10
-116 31 -17 62 12 106 69 106 28 0 37 -5 50 -30 9 -16 18 -30 20 -30 3 0 5 19
5 41 0 33 -3 39 -13 31 -8 -7 -18 -7 -27 -2 -23 15 -63 12 -90 -7z"/>
<path d="M1376 7325 c-4 -11 -12 -29 -18 -40 -8 -14 -8 -20 1 -23 6 -2 11 -25
11 -52 0 -52 9 -65 39 -55 22 7 34 32 24 48 -4 6 -10 1 -15 -12 -12 -33 -28
-16 -28 30 0 32 3 39 20 39 11 0 20 5 20 10 0 6 -9 10 -19 10 -15 0 -21 8 -23
33 -3 27 -5 29 -12 12z"/>
<path d="M2510 7220 c0 -40 -4 -70 -10 -70 -6 0 -26 9 -46 19 -20 11 -42 17
-50 14 -37 -14 -46 -195 -11 -230 15 -15 21 -16 50 -4 73 29 67 42 67 -143 l0
-166 1535 0 1535 0 1 33 c3 103 4 594 1 605 -3 9 -320 12 -1538 12 l-1534 0 0
-70z m3055 -240 c0 -157 -1 -293 -3 -302 -4 -17 -85 -18 -1518 -18 l-1514 0 0
154 c0 128 -3 157 -16 171 -15 14 -19 14 -49 -5 -42 -26 -61 -25 -69 3 -9 35
-7 133 4 161 l9 26 47 -22 c45 -22 46 -23 60 -4 8 11 14 43 14 73 l0 53 1517
-2 1518 -3 0 -285z"/>
<path d="M4179 7188 c-2 -13 -5 -63 -8 -106 l-1 -22 -41 20 c-71 37 -90 15
-90 -109 -1 -118 23 -143 95 -100 41 24 37 32 40 -81 l2 -65 244 -1 c135 0
251 2 258 4 9 3 12 60 12 238 l0 234 -255 0 c-197 0 -255 -3 -256 -12z m491
-223 c0 -118 -3 -215 -7 -216 -5 -1 -110 -2 -236 -3 -145 0 -227 3 -228 9 0 6
-2 33 -4 60 -1 28 -3 57 -4 66 -2 28 -30 30 -71 7 -21 -13 -42 -19 -46 -15
-19 19 -21 184 -2 202 3 3 26 -4 52 -17 57 -27 68 -19 72 54 1 29 3 56 3 61 1
4 107 7 236 7 l235 0 0 -215z"/>
<path d="M4408 7039 c-10 -5 -18 -17 -18 -26 0 -13 3 -14 12 -5 22 22 26 13
25 -50 -2 -57 -4 -63 -24 -66 -45 -7 -22 -22 32 -22 30 0 55 5 55 10 0 6 -9
10 -20 10 -18 0 -20 7 -20 80 0 83 -5 91 -42 69z"/>
<path d="M4899 7193 c-1 -5 -2 -34 -4 -66 -2 -32 -5 -60 -8 -63 -3 -3 -20 4
-38 15 -45 28 -63 26 -78 -6 -15 -33 -16 -175 -1 -203 14 -26 44 -25 86 1 39
24 37 29 38 -81 l1 -65 245 -1 c135 0 251 2 258 4 9 3 12 60 12 238 l0 234
-255 0 c-140 0 -255 -3 -256 -7z m491 -228 c0 -118 -3 -215 -7 -216 -5 -1
-110 -2 -236 -3 -145 0 -227 3 -228 9 0 6 -1 38 -3 73 -3 83 -14 93 -71 62
-24 -13 -47 -21 -51 -17 -20 19 -20 184 -1 203 4 4 27 -4 52 -17 56 -30 67
-21 71 58 1 32 3 59 3 61 1 1 107 2 236 2 l235 0 0 -215z"/>
<path d="M5116 7034 c-22 -21 -29 -57 -22 -99 18 -93 114 -84 120 12 3 42 -9
84 -27 95 -20 13 -55 9 -71 -8z m62 -16 c15 -15 16 -82 2 -109 -14 -26 -47
-24 -55 3 -24 75 12 147 53 106z"/>
<path d="M3600 7050 c0 -5 5 -10 10 -10 6 0 10 5 10 10 0 6 -4 10 -10 10 -5 0
-10 -4 -10 -10z"/>
<path d="M2735 7025 c-55 -54 -18 -155 57 -155 52 0 82 20 85 58 3 31 2 32
-37 32 -22 0 -40 -4 -40 -10 0 -5 11 -10 25 -10 33 0 35 -35 3 -44 -61 -16
-98 13 -93 72 5 57 55 80 102 47 13 -9 24 -11 28 -6 9 15 -37 41 -73 41 -22 0
-41 -8 -57 -25z"/>
<path d="M3270 6961 c0 -54 4 -91 10 -91 12 0 13 8 11 83 0 31 1 57 3 57 2 0
24 -32 48 -70 59 -96 73 -92 73 23 0 62 -3 87 -12 87 -8 0 -13 -23 -15 -70
l-3 -71 -41 68 c-22 37 -48 69 -57 71 -15 3 -17 -7 -17 -87z"/>
<path d="M2910 6940 c0 -53 3 -70 14 -70 10 0 14 13 13 48 0 54 7 72 29 72 8
0 14 5 14 10 0 14 -23 12 -39 -2 -11 -10 -13 -10 -7 0 4 7 1 12 -8 12 -13 0
-16 -13 -16 -70z"/>
<path d="M3005 6990 c-16 -17 -16 -20 -2 -20 9 0 19 5 22 10 8 13 42 13 51 -1
7 -13 -15 -31 -28 -22 -14 8 -58 -26 -58 -45 0 -10 5 -23 12 -30 14 -14 54
-16 63 -2 4 6 13 5 25 -2 22 -14 36 -6 24 14 -5 7 -9 30 -10 50 -1 21 -7 44
-14 53 -18 21 -64 19 -85 -5z m75 -63 c0 -19 -21 -37 -42 -37 -18 0 -25 29
-11 43 12 12 53 7 53 -6z"/>
<path d="M3146 6950 c29 -73 31 -100 4 -107 -25 -7 -26 -23 -1 -23 26 0 36 15
70 108 23 60 27 82 17 82 -7 0 -19 -20 -26 -45 -7 -25 -16 -47 -20 -50 -3 -2
-14 18 -24 46 -10 27 -24 49 -31 49 -10 0 -7 -16 11 -60z"/>
<path d="M3467 6992 c-23 -25 -22 -85 1 -105 44 -40 102 -8 102 55 0 60 -65
92 -103 50z m68 -12 c23 -37 8 -90 -25 -90 -32 0 -49 45 -30 81 11 20 45 26
55 9z"/>
<path d="M3598 7003 c-2 -5 -3 -24 -2 -43 1 -19 2 -47 3 -62 1 -16 6 -28 11
-28 6 0 10 30 10 70 0 39 -4 70 -9 70 -6 0 -11 -3 -13 -7z"/>
<path d="M3662 7001 c-26 -16 -9 -53 28 -66 19 -7 35 -18 35 -26 0 -18 -42
-24 -60 -9 -8 7 -15 7 -19 1 -8 -12 25 -31 55 -31 31 0 58 27 52 50 -3 13 -20
24 -45 30 -23 7 -38 16 -35 23 5 17 48 21 58 6 4 -8 11 -10 15 -6 4 3 1 13 -6
22 -14 16 -57 20 -78 6z"/>
<path d="M3802 7002 c-31 -20 -31 -104 1 -124 20 -13 64 -9 77 7 18 21 6 29
-19 13 -24 -15 -54 -2 -59 26 -3 13 6 16 48 16 49 0 51 1 45 23 -12 40 -59 60
-93 39z m66 -29 c2 -9 -8 -13 -32 -13 -28 0 -34 3 -29 16 7 18 54 16 61 -3z"/>
<path d="M716 7258 c-44 -63 26 -145 79 -92 9 9 13 19 10 22 -3 3 -11 0 -17
-6 -18 -18 -46 -14 -58 7 -15 30 -14 31 35 31 49 0 59 15 29 44 -22 23 -60 20
-78 -6z m68 -7 c7 -10 -23 -20 -41 -14 -7 3 -13 9 -13 14 0 12 47 12 54 0z"/>
<path d="M820 7270 c0 -5 6 -10 12 -12 17 -6 18 -88 1 -88 -7 0 -13 -4 -13
-10 0 -5 16 -10 35 -10 19 0 35 5 35 10 0 6 -6 10 -14 10 -10 0 -13 9 -10 33
7 49 12 57 34 57 15 0 20 -7 21 -27 2 -40 -2 -58 -12 -61 -23 -9 -5 -22 29
-22 32 1 35 2 20 13 -11 9 -15 24 -13 42 1 16 -1 39 -6 51 -7 19 -15 22 -63
22 -31 0 -56 -4 -56 -8z"/>
<path d="M996 7258 c-44 -63 26 -145 79 -92 9 9 13 19 10 22 -3 3 -11 0 -17
-6 -18 -18 -46 -14 -58 7 -15 30 -14 31 35 31 49 0 59 15 29 44 -22 23 -60 20
-78 -6z m67 -13 c-2 -5 -12 -9 -23 -8 -30 1 -32 2 -25 14 8 13 51 8 48 -6z"/>
<path d="M1106 7271 c-3 -5 1 -12 9 -15 21 -8 18 -86 -3 -86 -7 0 -10 -4 -7
-10 3 -5 23 -10 43 -10 34 1 35 2 19 14 -13 10 -17 25 -15 53 3 32 6 38 26 37
12 0 21 4 19 10 -4 13 -84 19 -91 7z"/>
<path d="M1237 7273 c-15 -14 -6 -21 24 -19 18 0 34 -5 36 -11 3 -8 -4 -13
-19 -13 -39 0 -62 -23 -54 -53 6 -25 10 -26 61 -25 30 1 55 5 55 10 0 4 -4 8
-10 8 -5 0 -10 19 -10 43 0 24 -5 48 -12 55 -13 13 -60 16 -71 5z m63 -77 c0
-22 -22 -36 -42 -25 -24 13 -23 28 5 38 25 10 37 6 37 -13z"/>
<path d="M1480 7260 c-24 -24 -26 -57 -4 -88 27 -40 102 -21 105 26 5 71 -55
108 -101 62z m76 -24 c10 -41 -4 -68 -34 -64 -33 4 -53 48 -32 72 20 25 59 20
66 -8z"/>
<path d="M1600 7269 c0 -5 5 -9 10 -9 6 0 10 -20 10 -45 0 -25 -4 -45 -10 -45
-5 0 -10 -4 -10 -10 0 -5 16 -10 35 -10 19 0 35 5 35 10 0 6 -7 10 -15 10 -10
0 -15 10 -15 34 0 35 21 63 40 51 5 -3 10 0 10 9 0 10 -12 14 -45 14 -25 0
-45 -4 -45 -9z"/>
<path d="M1360 6909 c-12 -8 -12 -12 -2 -16 15 -6 17 -153 2 -153 -5 0 -10 -4
-10 -10 0 -5 14 -10 30 -10 17 0 30 5 30 10 0 6 -4 10 -10 10 -6 0 -10 35 -10
84 0 87 -5 102 -30 85z"/>
<path d="M1429 6910 c-11 -7 -11 -10 2 -15 22 -8 22 -145 -1 -162 -12 -10 -9
-12 23 -13 35 0 51 14 25 22 -7 3 -11 33 -11 86 0 82 -8 100 -38 82z"/>
<path d="M849 6881 c-38 -39 -39 -87 -3 -130 33 -40 89 -43 130 -7 23 19 28
32 28 71 1 39 -4 51 -27 71 -40 34 -90 32 -128 -5z m115 -10 c23 -25 24 -86 1
-111 -23 -25 -76 -26 -98 -2 -31 34 -28 101 7 124 21 14 73 8 90 -11z"/>
<path d="M1280 6895 c0 -9 5 -15 11 -13 6 2 11 8 11 13 0 5 -5 11 -11 13 -6 2
-11 -4 -11 -13z"/>
<path d="M1666 6895 c-4 -11 -12 -29 -18 -40 -8 -14 -8 -20 1 -23 6 -2 11 -25
11 -53 0 -53 17 -72 48 -53 18 12 24 41 11 50 -5 3 -9 -4 -9 -16 0 -40 -25
-14 -28 28 -3 37 -1 42 17 42 12 0 21 5 21 10 0 6 -9 10 -19 10 -15 0 -21 8
-23 33 -3 27 -5 29 -12 12z"/>
<path d="M1039 6834 c-17 -20 -2 -46 32 -54 31 -8 39 -40 9 -40 -11 0 -23 7
-26 15 -9 23 -24 18 -24 -8 0 -24 20 -30 68 -21 24 5 31 41 11 61 -8 8 -8 13
0 17 6 4 11 15 11 25 0 23 -62 28 -81 5z m61 -20 c0 -10 -7 -14 -22 -12 -32 5
-35 28 -4 28 17 0 26 -5 26 -16z"/>
<path d="M1168 6838 c-10 -7 -21 -27 -24 -44 -11 -56 52 -96 91 -58 9 9 13 19
10 22 -3 3 -11 0 -17 -6 -34 -34 -81 15 -57 60 9 16 17 19 46 15 24 -4 33 -2
30 6 -5 17 -59 20 -79 5z"/>
<path d="M1281 6841 c-9 -6 -10 -11 -2 -15 18 -11 13 -77 -6 -92 -16 -12 -14
-13 20 -14 20 0 37 5 37 10 0 6 -4 10 -10 10 -5 0 -10 25 -10 55 0 56 -4 62
-29 46z"/>
<path d="M1527 6843 c-15 -15 -5 -22 23 -16 42 8 40 -20 -2 -32 -28 -8 -33
-15 -33 -40 0 -30 0 -30 58 -31 51 -1 75 8 46 18 -6 2 -12 23 -13 47 -1 24 -8
46 -17 52 -17 10 -53 12 -62 2z m59 -81 c-4 -23 -56 -30 -56 -7 0 15 38 37 52
29 3 -2 5 -12 4 -22z"/>
<path d="M1767 6832 c-22 -25 -21 -75 1 -95 42 -38 102 -8 102 51 0 54 -68 83
-103 44z m79 -26 c3 -13 1 -34 -6 -45 -20 -37 -70 -20 -70 24 0 47 65 65 76
21z"/>
<path d="M1890 6839 c0 -5 5 -9 10 -9 6 0 10 -20 10 -45 0 -25 -4 -45 -10 -45
-5 0 -10 -4 -10 -10 0 -5 16 -10 35 -10 19 0 35 5 35 10 0 6 -7 10 -15 10 -10
0 -15 10 -15 33 0 41 13 62 34 54 10 -4 16 -1 16 7 0 10 -13 14 -45 14 -25 0
-45 -4 -45 -9z"/>
<path d="M820 6461 c0 -5 4 -11 10 -13 15 -5 18 -148 3 -148 -7 0 -13 -4 -13
-10 0 -6 30 -10 70 -10 60 0 70 3 71 18 0 9 2 27 5 40 2 12 0 22 -5 22 -5 0
-11 -13 -14 -30 -6 -27 -11 -30 -42 -30 -19 0 -36 3 -36 8 -1 4 -2 37 -3 75
-1 47 2 67 11 67 6 0 15 5 18 10 4 6 -10 10 -34 10 -23 0 -41 -4 -41 -9z"/>
<path d="M1022 6458 c-6 -6 -12 -20 -12 -29 0 -10 -6 -20 -12 -23 -10 -5 -10
-7 0 -12 19 -9 15 -84 -5 -100 -16 -12 -13 -13 27 -13 40 0 43 1 28 13 -23 17
-25 96 -3 96 8 0 15 5 15 10 0 6 -7 10 -15 10 -8 0 -15 9 -15 21 0 14 5 19 20
17 10 -2 20 2 22 7 4 15 -35 18 -50 3z"/>
<path d="M1097 6398 c-27 -21 -31 -74 -7 -98 52 -52 133 8 99 73 -21 39 -59
49 -92 25z m68 -53 c0 -37 -2 -40 -29 -40 -33 0 -48 27 -35 63 7 18 15 23 36
20 25 -3 28 -7 28 -43z"/>
<path d="M2510 6170 c0 -40 -4 -70 -10 -70 -6 0 -26 9 -46 19 -20 11 -42 17
-49 14 -32 -12 -47 -145 -24 -212 12 -35 37 -40 79 -16 49 28 50 27 50 -150
l0 -165 1508 0 1509 0 -1 323 -1 322 -1507 3 -1508 2 0 -70z m3000 -255 l0
-305 -1490 0 -1490 0 0 153 c0 185 -5 198 -65 167 -47 -24 -61 -25 -69 -4 -10
25 -7 140 4 169 l10 26 39 -21 c69 -35 81 -24 81 73 l0 47 1490 0 1490 0 0
-305z"/>
<path d="M4120 6087 c0 -35 -3 -67 -6 -70 -4 -4 -24 3 -45 15 -65 36 -89 6
-89 -112 0 -115 27 -143 97 -101 17 11 34 17 37 14 3 -4 6 -40 6 -82 l0 -76
255 0 255 0 1 35 c0 36 0 392 -1 423 0 16 -19 17 -255 17 l-255 0 0 -63z m490
-171 c0 -162 -3 -215 -12 -218 -7 -2 -112 -4 -233 -3 l-220 1 -5 71 c-6 93
-14 100 -73 72 -26 -13 -50 -19 -54 -15 -5 4 -9 44 -11 89 -3 60 0 87 11 101
14 19 15 19 52 -4 28 -17 42 -21 54 -13 18 11 18 12 20 83 l1 50 235 0 235 0
0 -214z"/>
<path d="M4348 5986 c-10 -7 -18 -19 -18 -27 0 -10 3 -10 12 -1 22 22 28 12
28 -53 0 -63 -1 -65 -26 -65 -14 0 -23 -4 -19 -10 3 -5 31 -10 61 -10 30 0 54
5 54 10 0 6 -11 10 -24 10 -23 0 -24 3 -22 57 4 99 -7 119 -46 89z"/>
<path d="M4840 6087 c0 -35 -3 -67 -6 -70 -4 -4 -24 3 -45 15 -65 36 -89 6
-89 -112 0 -114 28 -144 94 -101 17 11 33 18 38 15 4 -3 8 -40 8 -82 l0 -77
255 0 255 0 0 25 c1 61 2 417 1 433 -1 16 -20 17 -256 17 l-255 0 0 -63z m490
1 c2 -196 -2 -383 -9 -388 -5 -3 -110 -5 -233 -5 l-223 0 -5 72 c-6 93 -17
104 -71 73 -41 -22 -43 -22 -56 -5 -17 25 -18 155 0 179 13 18 15 18 56 -5 41
-24 42 -24 56 -5 9 12 15 42 15 73 l0 53 235 0 235 0 0 -42z"/>
<path d="M5056 5984 c-16 -16 -20 -34 -18 -93 3 -88 98 -97 117 -11 8 37 -2
85 -22 105 -19 20 -57 19 -77 -1z m71 -31 c21 -59 -9 -129 -45 -107 -21 13
-29 98 -11 120 19 23 46 17 56 -13z"/>
<path d="M2880 6000 c0 -5 4 -10 9 -10 6 0 13 5 16 10 3 6 -1 10 -9 10 -9 0
-16 -4 -16 -10z"/>
<path d="M3080 5915 c0 -80 3 -95 16 -95 10 0 13 6 10 18 -7 21 11 52 22 36
33 -47 42 -56 51 -53 7 3 0 20 -16 42 l-26 37 28 30 c21 22 25 30 13 30 -9 0
-28 -14 -41 -30 -30 -35 -34 -31 -32 33 1 33 -3 47 -12 47 -10 0 -13 -23 -13
-95z"/>
<path d="M3540 6000 c0 -5 5 -10 10 -10 6 0 10 5 10 10 0 6 -4 10 -10 10 -5 0
-10 -4 -10 -10z"/>
<path d="M2718 5988 c-10 -31 -2 -162 10 -166 8 -2 12 8 12 32 0 35 1 36 39
36 39 0 70 19 72 43 5 48 -19 67 -82 67 -29 0 -48 -5 -51 -12z m103 -24 c20
-24 -1 -48 -45 -52 -35 -3 -36 -2 -36 32 0 34 2 36 34 36 18 0 39 -7 47 -16z"/>
<path d="M3218 5988 c-10 -29 -2 -162 10 -166 9 -3 12 16 12 69 l0 73 43 -69
c24 -39 51 -71 60 -73 15 -3 17 8 17 87 0 54 -4 91 -10 91 -11 0 -12 -8 -12
-87 0 -29 -2 -53 -4 -53 -1 0 -22 31 -46 70 -42 68 -61 84 -70 58z"/>
<path d="M2880 5890 c0 -50 4 -70 13 -70 9 0 12 20 13 70 0 51 -4 70 -13 70
-9 0 -13 -19 -13 -70z"/>
<path d="M2940 5890 c0 -52 3 -70 13 -70 10 0 13 12 11 42 -1 23 2 50 7 60 11
20 48 25 50 6 1 -7 2 -31 4 -53 4 -54 4 -55 15 -55 14 0 12 114 -2 128 -7 7
-21 12 -33 12 -12 0 -26 -5 -33 -12 -9 -9 -12 -9 -12 0 0 7 -4 12 -10 12 -6 0
-10 -30 -10 -70z"/>
<path d="M3406 5938 c-49 -69 32 -161 87 -100 21 23 22 86 1 106 -23 24 -70
20 -88 -6z m74 -17 c19 -36 2 -81 -31 -81 -20 0 -40 34 -33 58 2 6 6 19 9 27
6 21 42 19 55 -4z"/>
<path d="M3540 5890 c0 -40 4 -70 10 -70 11 0 12 3 12 65 0 68 -1 75 -12 75
-6 0 -10 -30 -10 -70z"/>
<path d="M3600 5940 c-14 -26 -7 -36 37 -58 20 -9 36 -21 37 -27 2 -15 -43
-18 -60 -4 -19 16 -30 4 -14 -16 25 -31 100 -11 100 26 0 15 -11 25 -40 36
-45 18 -54 43 -15 43 14 0 25 -4 25 -10 0 -5 5 -10 10 -10 16 0 11 27 -6 34
-31 12 -63 6 -74 -14z"/>
<path d="M3737 5942 c-23 -25 -22 -85 1 -105 23 -21 66 -22 82 -2 17 21 7 29
-18 14 -24 -15 -48 -7 -55 20 -5 19 -1 21 44 21 53 0 60 10 33 48 -19 27 -64
29 -87 4z m71 -19 c2 -9 -8 -13 -33 -13 -33 0 -36 2 -25 15 15 18 51 16 58 -2z"/>
<path d="M1308 6032 c-22 -4 -23 -18 -4 -25 8 -3 13 -14 12 -24 -2 -14 -10
-17 -33 -15 -38 4 -63 -20 -63 -59 0 -56 13 -67 80 -67 33 0 60 4 60 9 0 5 -6
9 -14 9 -11 0 -13 17 -11 79 2 87 -1 99 -27 93z m0 -99 c15 -31 -1 -68 -30
-71 -30 -4 -44 23 -34 64 8 29 50 34 64 7z"/>
<path d="M1505 6030 c-18 -7 -19 -8 -2 -15 14 -6 17 -20 17 -77 0 -56 -4 -74
-17 -84 -16 -12 -14 -13 20 -14 20 0 37 5 37 10 0 6 -4 10 -10 10 -6 0 -10 35
-10 84 0 47 -3 87 -7 89 -5 3 -17 1 -28 -3z"/>
<path d="M820 6021 c0 -6 6 -11 13 -11 16 0 16 -142 -1 -148 -26 -8 -10 -22
26 -22 32 1 35 2 20 13 -12 10 -16 29 -16 78 0 62 0 63 13 34 8 -16 21 -51 31
-77 9 -27 20 -48 25 -48 4 0 17 26 28 58 37 101 40 103 40 33 1 -50 -3 -67
-16 -77 -16 -12 -14 -13 20 -14 20 0 37 5 37 10 0 6 -4 10 -10 10 -6 0 -10 32
-10 75 0 43 4 75 10 75 6 0 10 5 10 10 0 6 -11 10 -24 10 -21 0 -28 -10 -54
-82 l-29 -81 -30 79 c-26 69 -34 79 -57 82 -14 2 -26 -1 -26 -7z"/>
<path d="M1087 5953 c-39 -45 -16 -113 39 -113 31 0 64 33 64 65 0 53 -69 85
-103 48z m72 -21 c19 -35 2 -72 -34 -72 -12 0 -26 7 -29 16 -8 21 -8 59 1 67
13 14 53 6 62 -11z"/>
<path d="M1386 5948 c-44 -63 26 -145 79 -92 9 9 13 19 10 22 -3 3 -11 0 -17
-6 -18 -18 -46 -14 -58 7 -15 30 -14 31 35 31 49 0 59 15 29 44 -22 23 -60 20
-78 -6z m68 -7 c3 -5 -6 -11 -19 -14 -25 -4 -40 4 -28 17 9 9 41 7 47 -3z"/>
<path d="M0 5440 l0 -250 1120 0 1120 0 0 250 0 250 -1120 0 -1120 0 0 -250z
m2210 0 l0 -220 -1090 0 -1090 0 0 220 0 220 1090 0 1090 0 0 -220z"/>
<path d="M850 5550 c0 -5 6 -10 13 -10 16 0 16 -142 -1 -148 -26 -8 -10 -22
26 -22 33 1 35 2 20 14 -14 10 -18 28 -18 77 l1 64 44 -70 c25 -38 46 -74 49
-80 10 -27 19 13 19 85 0 60 4 80 14 80 7 0 13 5 13 10 0 6 -16 10 -35 10 -19
0 -35 -4 -35 -10 0 -5 6 -10 13 -10 9 0 13 -18 14 -60 1 -33 0 -60 -2 -60 -2
0 -23 31 -47 70 -33 53 -48 70 -65 70 -13 0 -23 -4 -23 -10z"/>
<path d="M1207 5554 c-8 -8 1 -24 14 -24 5 0 9 7 9 15 0 15 -12 20 -23 9z"/>
<path d="M1070 5480 c-39 -39 -11 -110 43 -110 32 0 57 30 57 67 0 56 -60 83
-100 43z m76 -24 c9 -39 -4 -66 -32 -66 -32 0 -51 38 -35 69 17 30 59 28 67
-3z"/>
<path d="M1202 5493 c-9 -3 -10 -9 -3 -17 15 -18 18 -79 3 -84 -26 -8 -10 -22
26 -22 32 1 35 2 21 13 -9 7 -17 21 -17 32 2 82 -2 90 -30 78z"/>
<path d="M1283 5493 c-7 -2 -13 -15 -13 -29 0 -18 7 -25 32 -32 38 -10 52 -42
18 -42 -11 0 -23 7 -26 15 -9 23 -24 18 -24 -7 0 -19 6 -23 37 -26 62 -4 76
50 18 74 -19 8 -35 19 -35 24 0 16 38 11 48 -6 8 -14 10 -13 14 8 4 22 1 25
-26 25 -17 1 -37 -1 -43 -4z"/>
<path d="M1397 5482 c-22 -25 -21 -75 1 -95 25 -23 55 -21 77 3 10 11 13 20 7
20 -6 0 -14 -4 -17 -10 -10 -17 -44 -11 -55 9 -15 30 -14 31 36 31 42 0 45 1
38 23 -13 41 -59 51 -87 19z m63 -16 c0 -8 -8 -13 -17 -11 -10 2 -24 4 -31 4
-24 2 -1 21 24 21 14 0 24 -6 24 -14z"/>
<path d="M2510 5120 c0 -40 -4 -70 -10 -70 -6 0 -26 9 -47 20 -65 35 -83 6
-80 -127 2 -91 19 -114 70 -94 73 29 67 42 67 -143 l0 -166 1588 0 1587 0 -2
317 c0 175 -2 321 -2 326 -1 4 -714 7 -1586 7 l-1585 0 0 -70z m3155 -257 l0
-303 -1567 0 -1567 0 -3 160 c-2 92 -7 163 -13 169 -8 8 -22 5 -48 -9 -48 -26
-63 -25 -71 3 -9 35 -7 133 4 161 l9 26 47 -22 c45 -22 46 -23 60 -4 8 11 14
43 14 73 l0 53 1568 -2 1567 -3 0 -302z"/>
<path d="M4279 5098 c0 -2 -2 -31 -4 -66 -2 -35 -5 -65 -8 -68 -3 -3 -20 4
-38 15 -44 27 -55 26 -75 -3 -11 -18 -16 -48 -16 -105 0 -121 22 -144 96 -100
41 24 38 29 40 -76 l1 -70 245 -1 c135 0 251 2 258 4 9 3 12 60 12 238 l0 234
-255 0 c-140 0 -255 -1 -256 -2z m489 -235 l-3 -218 -232 0 c-148 0 -233 4
-234 10 -1 6 -2 35 -4 65 -2 30 -3 60 -4 66 -2 23 -33 23 -72 1 -34 -19 -41
-20 -49 -7 -16 25 -17 163 -1 188 6 11 17 9 54 -9 58 -28 69 -20 73 53 1 29 3
56 3 61 1 4 107 7 236 7 l235 0 -2 -217z"/>
<path d="M4508 4936 c-10 -7 -18 -19 -18 -27 0 -10 3 -10 12 -1 21 21 25 13
24 -50 -1 -57 -3 -63 -23 -66 -13 -2 -23 -8 -23 -13 0 -12 107 -12 115 1 4 6
-5 10 -19 10 -26 0 -26 1 -26 80 0 84 -6 94 -42 66z"/>
<path d="M4999 5098 c0 -2 -2 -31 -4 -66 -1 -35 -5 -65 -7 -68 -3 -3 -22 5
-41 16 -68 40 -90 11 -89 -121 1 -109 25 -130 96 -88 l36 21 1 -29 c1 -15 2
-48 3 -73 1 -25 4 -50 8 -55 4 -7 97 -10 255 -10 l248 0 3 238 2 237 -255 0
c-140 0 -255 -1 -256 -2z m491 -233 c0 -165 -3 -215 -12 -216 -50 -4 -430 -3
-445 1 -15 4 -18 16 -19 73 -2 89 -12 98 -70 67 -39 -22 -46 -23 -54 -10 -14
21 -17 129 -5 178 7 27 22 28 55 2 29 -22 55 -26 66 -8 5 7 9 37 10 68 1 30 3
56 3 58 1 1 107 2 236 2 l235 0 0 -215z"/>
<path d="M5216 4934 c-20 -20 -28 -52 -22 -90 2 -16 5 -32 5 -36 2 -16 34 -38
55 -38 37 0 59 34 59 90 1 76 -54 118 -97 74z m62 -16 c7 -7 12 -33 12 -58 0
-49 -13 -70 -41 -70 -28 0 -41 67 -24 120 7 22 35 26 53 8z"/>
<path d="M2958 4948 c-10 -28 -3 -171 9 -175 8 -3 13 14 15 54 3 54 5 58 28
58 23 0 25 -4 28 -57 2 -38 7 -58 15 -58 9 0 12 19 12 61 -1 67 -13 83 -57 75
-25 -5 -28 -3 -28 24 0 30 -14 41 -22 18z"/>
<path d="M3100 4950 c0 -5 5 -10 10 -10 6 0 10 5 10 10 0 6 -4 10 -10 10 -5 0
-10 -4 -10 -10z"/>
<path d="M3695 4950 c-3 -5 1 -10 9 -10 9 0 16 5 16 10 0 6 -4 10 -9 10 -6 0
-13 -4 -16 -10z"/>
<path d="M2701 4938 c0 -7 10 -47 23 -88 30 -102 47 -104 73 -8 l20 73 17 -73
c26 -104 45 -99 78 18 19 67 22 90 12 90 -7 0 -20 -26 -29 -57 -28 -102 -24
-104 -56 20 -15 58 -35 46 -54 -33 -10 -39 -19 -69 -22 -67 -2 3 -12 33 -22
68 -9 34 -23 65 -29 67 -7 2 -12 -2 -11 -10z"/>
<path d="M3370 4861 c0 -66 3 -91 13 -91 9 0 12 20 11 70 -1 39 -1 70 1 70 2
0 23 -32 47 -70 58 -95 73 -91 73 19 0 57 -4 86 -12 88 -9 3 -13 -17 -15 -67
l-3 -71 -41 68 c-22 37 -48 69 -57 71 -15 3 -17 -7 -17 -87z"/>
<path d="M3160 4926 c0 -8 -6 -16 -12 -19 -10 -3 -10 -7 -1 -18 6 -8 10 -30 9
-49 -1 -19 2 -43 6 -52 9 -19 48 -25 48 -8 0 6 -7 10 -15 10 -23 0 -21 88 3
106 16 13 16 13 0 14 -10 0 -18 7 -18 15 0 8 -4 15 -10 15 -5 0 -10 -6 -10
-14z"/>
<path d="M3097 4853 c2 -83 2 -83 13 -83 6 0 10 30 10 70 0 49 -4 70 -12 70
-9 0 -13 -17 -11 -57z"/>
<path d="M3237 4892 c-23 -25 -22 -85 1 -105 23 -21 66 -22 82 -2 16 19 5 34
-12 17 -18 -18 -46 -14 -58 7 -15 30 -14 31 40 31 42 0 50 3 50 18 0 46 -72
69 -103 34z m71 -19 c2 -9 -8 -13 -33 -13 -33 0 -36 2 -25 15 15 18 51 16 58
-2z"/>
<path d="M3568 4898 c-26 -20 -27 -87 -2 -112 20 -21 68 -20 85 0 21 25 17 93
-6 110 -23 17 -56 18 -77 2z m67 -58 c0 -42 -2 -45 -27 -48 -22 -3 -29 2 -34
22 -3 14 -3 38 0 52 5 20 12 25 34 22 25 -3 27 -6 27 -48z"/>
<path d="M3695 4843 c0 -43 5 -68 13 -71 9 -3 12 16 12 67 0 50 -4 71 -12 71
-9 0 -13 -20 -13 -67z"/>
<path d="M3762 4901 c-26 -16 -9 -53 28 -66 19 -7 35 -18 35 -26 0 -18 -45
-25 -55 -9 -4 7 -13 9 -20 5 -10 -6 -9 -11 5 -22 27 -19 69 -16 90 7 17 19 17
21 1 39 -10 11 -31 23 -47 26 -16 4 -29 11 -29 16 0 17 32 23 52 10 25 -15 35
-7 18 14 -14 16 -57 20 -78 6z"/>
<path d="M3903 4902 c-32 -20 -32 -104 -1 -124 21 -13 65 -9 78 7 18 21 6 29
-19 13 -24 -15 -54 -2 -59 26 -3 13 6 16 48 16 49 0 51 1 44 23 -3 12 -11 28
-16 35 -11 13 -56 16 -75 4z m65 -29 c2 -9 -8 -13 -32 -13 -28 0 -34 3 -29 16
7 18 54 16 61 -3z"/>
<path d="M820 5091 c0 -5 5 -11 10 -13 14 -4 15 -141 1 -146 -6 -2 -11 -8 -11
-13 0 -5 31 -9 69 -9 l69 0 5 33 c6 42 -9 58 -18 17 -6 -29 -10 -31 -43 -28
l-37 3 -1 73 c0 51 3 72 12 72 7 0 16 5 19 10 4 6 -10 10 -34 10 -23 0 -41 -4
-41 -9z"/>
<path d="M1022 5088 c-7 -7 -12 -20 -12 -29 0 -10 -6 -20 -12 -22 -10 -4 -10
-7 0 -15 17 -12 12 -84 -8 -99 -12 -10 -7 -12 30 -12 40 0 43 1 28 13 -23 17
-25 96 -3 96 8 0 15 5 15 10 0 6 -7 10 -15 10 -9 0 -15 9 -15 21 0 16 5 20 20
16 13 -3 20 0 20 9 0 17 -32 18 -48 2z"/>
<path d="M1080 5091 c0 -5 5 -11 10 -13 16 -5 18 -148 3 -148 -7 0 -13 -4 -13
-10 0 -5 17 -10 38 -10 33 1 35 2 20 14 -14 10 -18 28 -18 77 l0 64 45 -70
c24 -38 46 -74 49 -80 11 -24 21 19 20 86 -1 57 2 77 15 86 14 10 10 12 -21
13 -21 0 -38 -5 -38 -11 0 -5 5 -7 10 -4 6 3 10 3 11 -2 3 -21 5 -123 3 -123
-2 0 -22 31 -46 70 -33 53 -48 70 -65 70 -13 0 -23 -4 -23 -9z"/>
<path d="M1437 5093 c-12 -11 -8 -23 8 -23 8 0 15 7 15 15 0 16 -12 20 -23 8z"/>
<path d="M1297 5022 c-22 -25 -21 -75 1 -95 40 -36 102 -9 102 44 0 60 -66 92
-103 51z m71 -14 c28 -28 3 -84 -34 -76 -43 8 -44 88 -1 88 13 0 28 -5 35 -12z"/>
<path d="M1425 5032 c-9 -10 -5 -23 5 -17 6 4 10 -12 10 -39 0 -25 -4 -46 -10
-46 -5 0 -10 -4 -10 -10 0 -5 14 -10 30 -10 17 0 30 5 30 10 0 6 -4 10 -10 10
-5 0 -10 24 -10 53 0 41 -4 54 -15 54 -8 0 -17 -3 -20 -5z"/>
<path d="M1513 5033 c-31 -12 -8 -57 32 -65 28 -5 33 -38 5 -38 -11 0 -23 7
-26 15 -9 23 -24 18 -24 -8 0 -17 6 -23 23 -24 48 -3 67 6 67 33 0 19 -8 28
-35 40 -19 8 -35 19 -35 24 0 14 38 12 42 -2 2 -6 9 -8 16 -4 33 20 -24 46
-65 29z"/>
<path d="M1627 5022 c-22 -25 -21 -75 1 -95 25 -23 55 -21 77 3 21 23 14 26
-15 8 -23 -15 -53 -2 -58 26 -3 13 5 16 43 16 43 0 46 1 39 23 -13 41 -59 51
-87 19z m67 -11 c3 -5 -8 -11 -24 -13 -20 -3 -30 0 -30 9 0 14 46 18 54 4z"/>
<path d="M1030 4659 c-21 -5 -22 -7 -8 -14 14 -6 17 -20 17 -81 0 -41 -5 -74
-10 -74 -5 0 -9 -4 -9 -10 0 -5 14 -10 30 -10 17 0 30 5 30 10 0 6 -5 10 -11
10 -6 0 -9 17 -7 43 2 35 7 43 26 45 12 2 22 0 23 -5 6 -52 4 -71 -9 -85 -14
-17 -12 -18 23 -18 33 0 36 2 24 16 -7 9 -12 33 -11 53 3 45 -16 66 -52 57
-23 -6 -25 -3 -28 32 -3 35 -5 38 -28 31z"/>
<path d="M849 4631 c-75 -75 11 -198 104 -150 26 14 37 28 37 49 -1 9 -8 5
-21 -12 -44 -59 -136 -17 -125 56 10 62 98 90 121 39 14 -34 25 -28 25 13 0
29 -3 34 -13 26 -8 -7 -18 -7 -27 -2 -29 19 -71 11 -101 -19z"/>
<path d="M1471 4635 c-7 -16 -17 -33 -24 -37 -8 -5 -6 -9 6 -14 13 -5 17 -18
17 -54 0 -53 9 -65 40 -55 14 4 20 15 19 33 0 26 -1 26 -9 5 -15 -37 -30 -26
-30 22 0 38 3 45 20 45 11 0 20 5 20 10 0 6 -9 10 -19 10 -15 0 -21 8 -23 33
l-4 32 -13 -30z"/>
<path d="M1577 4653 c-12 -11 -8 -23 8 -23 8 0 15 7 15 15 0 16 -12 20 -23 8z"/>
<path d="M1195 4589 c-10 -16 3 -23 18 -11 10 9 18 8 33 -2 19 -14 19 -15 -1
-21 -60 -20 -66 -25 -63 -53 3 -26 6 -27 61 -28 54 -1 73 8 43 19 -9 4 -12 17
-10 40 3 23 -1 41 -12 51 -18 18 -60 21 -69 5z m58 -86 c-7 -19 -53 -17 -53 2
0 19 42 37 52 22 3 -6 4 -16 1 -24z"/>
<path d="M1327 4582 c-22 -25 -21 -75 1 -95 42 -38 102 -8 102 50 0 55 -67 85
-103 45z m79 -26 c8 -34 -12 -68 -38 -64 -28 4 -42 29 -34 61 5 22 12 27 36
27 23 0 31 -5 36 -24z"/>
<path d="M1571 4591 c-9 -6 -10 -11 -2 -15 18 -11 13 -77 -6 -92 -16 -12 -14
-13 20 -14 20 0 37 5 37 10 0 6 -4 10 -10 10 -5 0 -10 25 -10 55 0 56 -4 62
-29 46z"/>
<path d="M1656 4578 c-44 -63 26 -145 79 -92 9 9 13 19 10 22 -3 3 -11 0 -17
-6 -34 -34 -80 9 -59 55 10 22 16 24 42 19 22 -4 29 -2 27 7 -3 6 -18 13 -35
15 -23 2 -35 -3 -47 -20z"/>
<path d="M1349 4219 c-12 -8 -12 -10 0 -18 17 -11 18 -144 1 -149 -23 -8 -8
-22 25 -22 19 0 35 5 35 10 0 6 -6 10 -14 10 -10 0 -14 11 -14 33 1 38 14 57
39 57 16 0 19 -8 19 -45 0 -25 -4 -45 -10 -45 -5 0 -10 -4 -10 -10 0 -5 17
-10 38 -10 32 1 35 2 20 13 -11 9 -18 31 -20 63 -3 49 -3 49 -38 50 -33 0 -35
2 -35 32 0 34 -13 46 -36 31z"/>
<path d="M836 4204 c-33 -33 -10 -74 49 -88 35 -9 44 -21 38 -47 -8 -30 -57
-25 -82 9 l-20 27 -1 -35 0 -35 52 0 c45 0 54 3 64 23 17 34 7 59 -29 72 -53
19 -62 26 -62 46 0 32 44 30 71 -3 l23 -28 1 31 c0 27 -4 32 -31 38 -46 9 -56
8 -73 -10z"/>
<path d="M991 4193 c-7 -18 -18 -33 -24 -33 -7 0 -4 -6 5 -13 11 -9 18 -31 20
-63 3 -43 6 -49 26 -52 17 -3 25 2 29 17 6 25 5 31 -4 31 -5 0 -8 -5 -8 -12 0
-6 -6 -13 -12 -15 -9 -3 -13 9 -13 41 0 39 3 46 20 46 11 0 20 5 20 10 0 6 -9
10 -19 10 -15 0 -21 8 -24 33 l-3 32 -13 -32z"/>
<path d="M1758 4183 c-13 -28 -14 -35 -3 -40 9 -3 13 -17 10 -41 -4 -41 9 -72
29 -72 20 0 38 26 33 47 -4 16 -6 15 -12 -4 -7 -22 -24 -32 -26 -15 -6 62 -3
75 21 85 l25 10 -25 6 c-18 5 -24 13 -22 28 5 35 -12 33 -30 -4z"/>
<path d="M1870 4206 c0 -9 7 -16 16 -16 9 0 14 5 12 12 -6 18 -28 21 -28 4z"/>
<path d="M1097 4142 c-22 -25 -21 -75 1 -95 40 -36 102 -8 102 47 0 58 -66 89
-103 48z m73 -16 c28 -35 -11 -93 -47 -70 -22 14 -29 64 -11 75 20 13 44 11
58 -5z"/>
<path d="M1247 4142 c-22 -24 -22 -75 1 -95 22 -20 53 -22 70 -5 19 19 14 29
-8 16 -25 -16 -54 -1 -58 31 -5 34 17 54 51 47 20 -4 27 -2 25 7 -7 20 -62 20
-81 -1z"/>
<path d="M1517 4153 c-15 -14 -6 -21 24 -19 18 0 34 -5 36 -11 3 -8 -5 -13
-20 -13 -27 0 -57 -23 -57 -44 0 -24 24 -34 80 -34 45 0 51 2 37 13 -11 8 -17
26 -17 52 0 21 -5 44 -12 51 -13 13 -60 16 -71 5z m53 -98 c-9 -11 -17 -12
-32 -4 -24 13 -19 32 13 39 27 7 38 -12 19 -35z"/>
<path d="M1647 4154 c-4 -4 -7 -17 -7 -30 0 -17 9 -25 36 -34 38 -13 41 -33 6
-38 -15 -2 -22 2 -22 12 0 19 -16 21 -23 3 -8 -21 5 -32 39 -35 60 -6 72 63
13 75 -16 3 -29 12 -29 19 0 20 30 17 46 -3 12 -17 13 -16 14 7 0 22 -5 26
-33 28 -18 1 -36 -1 -40 -4z"/>
<path d="M1862 4151 c-11 -7 -11 -9 2 -14 22 -9 23 -87 0 -87 -8 0 -12 -4 -9
-10 3 -5 19 -10 36 -10 16 0 29 5 29 10 0 6 -4 10 -10 10 -5 0 -10 25 -10 55
0 55 -8 65 -38 46z"/>
<path d="M1957 4147 c-26 -19 -27 -85 -2 -103 10 -8 29 -14 41 -14 23 0 51 26
40 37 -4 4 -11 1 -15 -6 -6 -9 -18 -11 -35 -7 -20 5 -26 13 -26 34 0 43 14 56
50 49 23 -5 30 -3 28 6 -6 17 -60 20 -81 4z"/>
<path d="M2510 4070 c0 -40 -4 -70 -10 -70 -6 0 -26 9 -46 19 -20 11 -42 17
-50 14 -30 -11 -44 -132 -23 -205 12 -44 35 -49 86 -19 17 11 34 17 37 14 3
-4 6 -80 6 -170 l0 -163 2400 0 2400 0 0 325 0 325 -2400 0 -2400 0 0 -70z
m4780 -255 l0 -305 -2380 0 -2380 0 0 153 c0 113 -4 158 -14 172 -13 18 -14
18 -48 -3 -40 -25 -64 -28 -70 -9 -10 25 -9 144 1 170 l11 28 39 -21 c69 -35
81 -24 81 73 l0 47 2380 0 2380 0 0 -305z"/>
<path d="M4250 3996 c0 -85 -4 -89 -56 -63 -42 20 -45 20 -62 4 -13 -13 -18
-38 -20 -100 -6 -131 21 -165 92 -118 17 11 33 18 36 16 4 -2 8 -37 9 -77 1
-39 4 -74 6 -77 2 -5 671 -7 711 -2 8 1 11 71 11 236 l-1 235 -363 0 -363 0 0
-54z m705 -183 c0 -136 -3 -214 -10 -216 -9 -2 -629 -1 -662 2 -9 1 -13 21
-13 64 0 37 -6 71 -13 82 -13 17 -16 17 -61 -6 -40 -20 -49 -21 -57 -9 -11 16
-8 184 3 195 4 4 27 -3 53 -16 57 -29 67 -20 73 61 l4 60 342 -2 341 -3 0
-212z"/>
<path d="M4467 3885 c-20 -20 -30 -68 -22 -105 13 -59 64 -79 101 -39 24 27
24 112 -2 140 -20 23 -57 25 -77 4z m61 -17 c7 -7 12 -33 12 -58 0 -49 -13
-70 -42 -70 -11 0 -21 11 -26 33 -20 71 17 134 56 95z"/>
<path d="M4692 3884 c-12 -8 -22 -20 -22 -27 0 -8 3 -8 12 1 22 22 28 12 28
-53 0 -58 -2 -65 -20 -65 -11 0 -20 -4 -20 -10 0 -5 25 -10 55 -10 30 0 55 5
55 10 0 6 -9 10 -20 10 -22 0 -22 0 -24 89 -1 70 -9 80 -44 55z"/>
<path d="M4600 3735 c0 -8 7 -15 15 -15 9 0 12 6 9 15 -4 8 -10 15 -15 15 -5
0 -9 -7 -9 -15z"/>
<path d="M5180 3980 c0 -38 -2 -70 -6 -70 -3 0 -22 10 -43 22 -21 12 -45 19
-54 15 -24 -9 -40 -83 -33 -156 8 -93 30 -110 93 -72 17 11 34 17 37 14 3 -4
6 -41 6 -82 l0 -76 253 1 c138 1 255 2 258 3 3 0 6 107 6 236 l0 235 -259 0
-258 0 0 -70z m496 -164 c0 -185 -2 -215 -16 -218 -12 -3 -429 -2 -452 1 -5 1
-8 32 -8 70 0 89 -13 102 -70 70 -56 -32 -65 -20 -65 86 0 103 9 116 60 86 63
-37 75 -27 75 65 l0 54 238 0 238 0 0 -214z"/>
<path d="M5412 3884 c-28 -19 -30 -39 -2 -24 19 10 20 8 20 -55 0 -58 -2 -65
-20 -65 -11 0 -20 -4 -20 -10 0 -5 25 -10 55 -10 30 0 55 5 55 10 0 6 -9 10
-19 10 -25 0 -28 12 -26 93 2 72 -4 79 -43 51z"/>
<path d="M5900 3980 c0 -38 -2 -70 -6 -70 -3 0 -22 10 -43 22 -21 12 -45 19
-54 15 -20 -8 -37 -69 -36 -132 2 -106 26 -133 89 -99 21 12 41 19 44 16 4 -3
6 -40 6 -81 l0 -76 253 1 c138 1 255 2 258 3 4 0 7 107 7 236 l0 235 -259 0
-259 0 0 -70z m496 -167 c0 -143 -3 -213 -10 -214 -36 -3 -443 -4 -453 -1 -9
3 -13 27 -13 72 0 88 -13 101 -70 69 -41 -23 -42 -23 -56 -5 -16 23 -14 170 3
187 8 8 21 6 52 -11 55 -32 71 -18 71 61 l0 59 238 -2 237 -3 1 -212z"/>
<path d="M6132 3884 c-28 -19 -30 -39 -2 -24 19 10 20 8 20 -55 0 -58 -2 -65
-20 -65 -11 0 -20 -4 -20 -10 0 -5 25 -10 55 -10 54 0 77 15 33 22 -21 3 -23
8 -23 77 0 41 -5 76 -10 78 -6 2 -20 -4 -33 -13z"/>
<path d="M6620 3980 c0 -38 -2 -70 -6 -70 -3 0 -22 10 -43 22 -21 12 -45 19
-54 15 -24 -9 -40 -83 -33 -156 8 -93 30 -110 93 -72 17 11 34 17 37 14 3 -4
6 -39 6 -79 0 -60 3 -72 18 -76 14 -3 455 -3 489 1 8 1 11 63 11 236 l0 235
-259 0 -259 0 0 -70z m497 -162 c0 -117 -3 -215 -8 -218 -4 -3 -110 -5 -236
-5 l-228 0 -3 72 c-4 91 -15 102 -72 73 -57 -29 -65 -19 -65 85 0 103 9 116
60 86 63 -37 75 -27 75 65 l0 54 238 0 238 0 1 -212z"/>
<path d="M6836 3881 c-23 -25 -23 -103 -2 -136 20 -31 58 -33 86 -5 25 25 27
105 4 138 -19 28 -64 29 -88 3z m71 -18 c13 -33 8 -104 -7 -113 -25 -16 -40
-11 -50 16 -21 55 -5 114 31 114 11 0 23 -8 26 -17z"/>
<path d="M2715 3813 l0 -88 29 -3 c53 -6 91 7 109 37 45 76 1 141 -95 141
l-43 0 0 -87z m103 51 c16 -11 22 -25 22 -54 0 -45 -26 -70 -72 -70 -28 0 -28
0 -28 70 0 70 0 70 28 70 15 0 38 -7 50 -16z"/>
<path d="M3242 3810 c1 -69 4 -90 14 -90 9 0 14 12 14 35 0 31 3 35 25 35 17
0 32 -10 47 -35 13 -19 29 -35 36 -35 17 0 15 7 -8 40 -19 27 -19 27 0 45 11
10 20 28 20 40 0 37 -31 55 -92 55 l-56 0 0 -90z m113 35 c0 -28 -3 -30 -42
-33 l-43 -3 0 36 0 36 43 -3 c39 -3 42 -5 42 -33z"/>
<path d="M3174 3873 c-6 -11 -8 -45 -5 -83 5 -58 8 -65 29 -68 22 -3 31 13 11
20 -19 6 -19 87 0 98 14 9 14 11 -2 21 -9 5 -15 14 -12 20 4 5 2 9 -2 9 -5 0
-13 -8 -19 -17z"/>
<path d="M2898 3848 c-9 -28 0 -110 13 -119 19 -12 59 -11 59 0 0 5 -10 11
-22 13 -20 3 -23 10 -26 61 -3 53 -14 74 -24 45z"/>
<path d="M2978 3800 c-3 -68 -1 -80 16 -80 8 0 12 22 12 70 0 90 -23 98 -28
10z"/>
<path d="M3053 3852 c-6 -4 -13 -16 -15 -27 -2 -15 7 -25 40 -40 23 -11 41
-24 39 -30 -5 -15 -46 -18 -63 -4 -19 16 -30 4 -14 -16 15 -18 71 -20 88 -3
24 24 13 49 -28 66 -22 9 -40 23 -40 30 0 14 46 16 55 2 4 -6 11 -8 16 -4 6 4
6 11 -2 20 -12 15 -56 19 -76 6z"/>
<path d="M3443 3853 c-15 -5 -18 -33 -4 -33 6 0 13 5 16 10 9 15 42 12 49 -5
4 -10 -1 -15 -14 -15 -50 0 -70 -15 -70 -50 0 -24 5 -31 27 -36 14 -4 33 -2
42 3 11 7 21 7 33 -1 9 -5 21 -6 25 -2 4 5 2 11 -4 13 -8 3 -13 23 -13 52 0
26 -5 52 -12 59 -12 12 -52 15 -75 5z m58 -85 c-10 -28 -46 -36 -55 -12 -8 20
9 34 41 34 19 0 21 -3 14 -22z"/>
<path d="M3569 3848 c-1 -16 -1 -110 0 -120 1 -5 5 -8 10 -8 9 0 20 106 13
128 -2 6 -8 12 -13 12 -5 0 -9 -6 -10 -12z"/>
<path d="M3605 3850 c-4 -6 5 -10 19 -10 25 0 26 -2 26 -60 0 -44 4 -60 14
-60 10 0 13 14 12 58 -1 31 -5 63 -9 70 -10 14 -53 16 -62 2z"/>
<path d="M3714 3835 c-11 -17 -14 -35 -10 -59 9 -45 27 -59 66 -51 30 7 31 6
21 -14 -12 -22 -45 -28 -56 -11 -4 6 -11 8 -16 4 -17 -10 11 -34 41 -34 46 0
60 27 60 113 0 63 -3 77 -16 77 -9 0 -12 -5 -8 -12 6 -10 4 -10 -7 0 -22 20
-57 14 -75 -13z m71 -45 c0 -41 -2 -45 -25 -45 -21 0 -26 5 -28 33 -5 47 4 64
30 60 20 -3 23 -9 23 -48z"/>
<path d="M3873 3852 c-22 -14 -33 -60 -22 -89 6 -15 16 -31 22 -35 20 -13 64
-9 77 7 18 21 6 29 -19 13 -24 -15 -54 -2 -59 26 -3 13 6 16 47 16 46 0 50 2
46 23 -8 38 -59 60 -92 39z m65 -29 c2 -9 -8 -13 -32 -13 -28 0 -34 3 -29 16
7 18 54 16 61 -3z"/>
<path d="M490 3770 c0 -5 5 -10 10 -10 6 0 10 -34 10 -81 0 -47 -4 -78 -9 -74
-5 3 -12 1 -16 -5 -4 -6 9 -10 34 -10 23 0 41 5 41 10 0 6 -6 10 -13 10 -9 0
-14 12 -15 30 -1 28 2 30 37 30 65 0 100 51 62 89 -17 17 -34 21 -81 21 -33 0
-60 -4 -60 -10z m125 -45 c0 -28 -3 -30 -42 -33 l-43 -3 0 36 0 36 43 -3 c39
-3 42 -5 42 -33z"/>
<path d="M670 3709 c0 -5 5 -9 10 -9 6 0 10 -20 10 -45 0 -25 -4 -45 -10 -45
-5 0 -10 -4 -10 -10 0 -5 16 -10 35 -10 19 0 35 5 35 10 0 6 -7 10 -15 10 -9
0 -15 10 -15 26 0 35 19 67 36 60 8 -3 14 1 14 8 0 8 -15 13 -45 14 -25 0 -45
-4 -45 -9z"/>
<path d="M797 3702 c-22 -25 -21 -75 1 -95 42 -38 102 -8 102 50 0 55 -67 85
-103 45z m71 -14 c28 -28 3 -84 -34 -76 -43 8 -44 88 -1 88 13 0 28 -5 35 -12z"/>
<path d="M951 3701 c-25 -25 -27 -58 -5 -89 19 -27 55 -28 79 -2 10 11 13 20
7 20 -6 0 -14 -4 -17 -10 -11 -17 -44 -11 -56 11 -8 16 -8 28 0 46 10 22 16
24 42 19 22 -4 29 -2 27 7 -8 21 -55 20 -77 -2z"/>
<path d="M1066 3698 c-44 -63 26 -145 79 -92 9 9 13 19 10 22 -3 3 -11 0 -17
-6 -18 -18 -46 -14 -58 7 -15 30 -14 31 35 31 49 0 59 15 29 44 -22 23 -60 20
-78 -6z m68 -7 c3 -5 -6 -11 -19 -14 -25 -4 -40 4 -28 17 9 9 41 7 47 -3z"/>
<path d="M1187 3714 c-4 -4 -7 -17 -7 -30 0 -17 9 -25 35 -34 19 -6 35 -18 35
-26 0 -19 -34 -18 -50 1 -17 20 -29 19 -25 -2 2 -10 4 -20 4 -23 2 -12 70 -9
81 5 18 22 2 55 -31 62 -16 3 -29 12 -29 19 0 20 30 17 46 -3 12 -17 13 -16
14 7 0 22 -5 26 -33 28 -18 1 -36 -1 -40 -4z"/>
<path d="M1297 3714 c-4 -4 -7 -17 -7 -30 0 -17 9 -25 35 -34 19 -6 35 -18 35
-26 0 -19 -37 -18 -48 2 -12 21 -32 10 -25 -15 3 -13 13 -18 40 -17 63 2 73
60 13 72 -16 4 -30 13 -30 20 0 20 30 17 46 -3 12 -17 13 -16 14 7 0 22 -5 26
-33 28 -18 1 -36 -1 -40 -4z"/>
<path d="M1423 3712 c-32 -20 -32 -94 0 -114 38 -24 97 11 97 57 0 46 -59 81
-97 57z m68 -34 c7 -13 11 -25 10 -28 -2 -3 -7 -13 -12 -22 -12 -22 -55 -23
-63 -2 -8 21 -8 59 1 67 15 15 53 6 64 -15z"/>
<path d="M1535 3710 c-3 -6 0 -10 7 -10 9 0 14 -15 15 -45 1 -34 -2 -45 -13
-45 -8 0 -12 -4 -9 -10 3 -5 23 -10 43 -10 34 1 35 2 19 14 -23 18 -21 91 3
91 8 0 16 5 18 10 3 13 -75 18 -83 5z"/>
<path d="M489 3348 c-7 -21 -8 -68 0 -68 5 0 11 10 13 23 2 16 11 23 31 25
l27 3 0 -75 c0 -61 -3 -76 -15 -76 -8 0 -15 -4 -15 -10 0 -5 20 -10 45 -10 25
0 45 5 45 10 0 6 -8 10 -18 10 -16 0 -18 9 -18 75 l1 75 27 0 c16 0 29 -4 29
-10 1 -5 2 -15 3 -21 0 -6 9 -16 19 -23 19 -14 25 -96 7 -96 -5 0 -10 -4 -10
-10 0 -5 16 -10 35 -10 19 0 35 5 35 10 0 6 -7 10 -15 10 -10 0 -15 10 -15 34
0 35 21 63 40 51 5 -3 10 1 10 10 0 11 -8 16 -22 15 -59 -5 -68 -1 -68 30 l0
30 -85 0 c-47 0 -85 -1 -86 -2z"/>
<path d="M787 3343 c-12 -11 -8 -23 8 -23 8 0 15 7 15 15 0 16 -12 20 -23 8z"/>
<path d="M777 3283 c-11 -10 -8 -25 3 -18 6 4 10 -12 10 -39 0 -25 -4 -46 -10
-46 -5 0 -10 -4 -10 -10 0 -5 14 -10 30 -10 17 0 30 5 30 10 0 6 -4 10 -10 10
-5 0 -10 25 -10 55 0 39 -4 55 -13 55 -8 0 -17 -3 -20 -7z"/>
<path d="M872 3277 c-5 -7 -12 -44 -15 -84 -6 -79 -3 -83 57 -83 36 0 56 15
56 42 0 17 -15 24 -68 30 -12 2 -21 8 -20 13 2 6 7 9 12 7 19 -6 57 29 54 51
-2 17 1 21 16 19 10 -2 15 1 12 6 -9 14 -93 13 -104 -1z m52 -16 c10 -16 -6
-42 -23 -39 -9 2 -17 13 -19 26 -3 16 2 22 17 22 11 0 22 -4 25 -9z m23 -118
c2 -6 -4 -13 -14 -15 -30 -6 -63 4 -63 19 0 18 71 14 77 -4z"/>
<path d="M1012 3277 c-5 -7 -12 -44 -15 -84 -5 -67 -4 -71 16 -77 58 -15 97
-1 97 36 0 17 -15 24 -68 30 -33 4 -32 20 2 24 33 3 46 18 41 46 -3 13 2 18
16 18 11 0 18 4 15 9 -9 13 -93 11 -104 -2z m50 -32 c-5 -26 -8 -29 -27 -22
-8 4 -15 16 -15 27 0 16 5 21 23 18 16 -2 21 -9 19 -23z m25 -102 c2 -6 -4
-13 -14 -15 -30 -6 -63 4 -63 19 0 18 71 14 77 -4z"/>
<path d="M1147 3272 c-52 -57 24 -150 78 -96 21 21 13 29 -14 12 -24 -15 -54
-2 -59 26 -3 13 5 16 43 16 43 0 46 1 39 23 -13 41 -59 51 -87 19z m66 -15 c3
-9 -2 -13 -16 -11 -12 1 -25 3 -29 3 -5 1 -8 6 -8 11 0 15 47 12 53 -3z"/>
<path d="M1250 3280 c0 -4 5 -10 12 -12 18 -6 19 -88 2 -88 -8 0 -14 -4 -14
-10 0 -5 16 -10 35 -10 34 0 35 1 21 23 -20 32 -8 90 18 85 8 -2 16 2 17 7 2
6 -18 11 -44 12 -26 1 -47 -2 -47 -7z"/>
<path d="M1437 2911 c-17 -6 -17 -8 -4 -19 8 -7 14 -20 13 -30 -2 -13 -11 -16
-39 -14 -27 3 -38 -1 -46 -17 -15 -28 -14 -77 3 -94 16 -16 126 -21 126 -6 0
5 -6 9 -14 9 -10 0 -13 18 -11 80 2 89 -2 100 -28 91z m2 -103 c17 -46 -21
-86 -54 -58 -18 15 -19 52 -3 68 19 19 48 14 57 -10z"/>
<path d="M490 2901 c0 -6 5 -11 10 -11 6 0 10 -32 10 -75 0 -43 -4 -75 -10
-75 -5 0 -10 -4 -10 -10 0 -6 27 -10 63 -10 80 1 107 19 114 81 4 38 1 50 -20
75 -24 28 -32 31 -92 33 -40 1 -65 -2 -65 -8z m126 -19 c35 -23 40 -106 8
-129 -10 -7 -35 -13 -56 -13 l-38 0 0 75 0 75 38 0 c20 0 42 -4 48 -8z"/>
<path d="M717 2838 c-21 -16 -28 -57 -14 -83 13 -26 27 -35 53 -35 23 0 51 26
40 37 -4 4 -11 1 -15 -6 -13 -21 -61 -6 -61 19 0 17 7 20 40 20 41 0 47 8 30
41 -12 22 -48 25 -73 7z m53 -28 c-7 -4 -21 -5 -31 -3 -15 4 -17 8 -8 19 8 10
16 11 31 3 15 -8 17 -13 8 -19z"/>
<path d="M820 2839 c0 -5 5 -9 10 -9 6 0 10 -20 10 -45 0 -25 -4 -45 -10 -45
-5 0 -10 -4 -10 -10 0 -5 14 -10 30 -10 17 0 30 5 30 10 0 6 -4 10 -10 10 -12
0 -13 60 -1 78 5 8 17 12 27 10 27 -5 32 -74 7 -94 -16 -12 -8 -13 60 -14 45
0 77 4 77 10 0 6 -4 10 -10 10 -5 0 -10 17 -10 38 0 21 -6 47 -14 58 -13 17
-18 18 -45 7 -17 -6 -31 -8 -31 -3 0 5 -25 8 -55 8 -30 0 -55 -5 -55 -9z m174
-31 c11 -61 -2 -86 -39 -72 -15 6 -22 74 -8 87 15 15 43 6 47 -15z"/>
<path d="M1077 2843 c-14 -13 -6 -21 21 -19 39 2 39 -16 0 -28 -28 -9 -33 -16
-33 -41 0 -30 0 -30 58 -31 51 -1 75 8 46 18 -6 2 -12 23 -13 47 -1 24 -8 46
-17 52 -17 10 -53 12 -62 2z m57 -68 c7 -19 -20 -46 -39 -39 -20 8 -19 31 3
43 23 14 29 13 36 -4z"/>
<path d="M1190 2839 c0 -5 5 -9 10 -9 6 0 10 -20 10 -45 0 -25 -4 -45 -10 -45
-5 0 -10 -4 -10 -10 0 -5 17 -10 38 -10 33 1 35 2 20 14 -19 14 -24 61 -9 84
5 8 17 12 27 10 14 -2 20 -13 22 -46 2 -25 -1 -42 -7 -42 -6 0 -11 -4 -11 -10
0 -5 14 -10 30 -10 17 0 30 5 30 10 0 6 -4 10 -10 10 -5 0 -10 19 -10 43 0 23
-4 47 -8 53 -8 14 -112 16 -112 3z"/>
<path d="M490 2460 c0 -5 5 -10 10 -10 6 0 10 -32 10 -75 0 -43 -4 -75 -10
-75 -5 0 -10 -4 -10 -10 0 -5 16 -10 35 -10 19 0 35 5 35 10 0 6 -7 10 -15 10
-10 0 -15 10 -15 30 0 25 4 30 25 30 16 0 25 -6 25 -15 0 -8 5 -15 10 -15 6 0
10 18 10 40 0 22 -4 40 -10 40 -5 0 -10 -7 -10 -15 0 -9 -9 -15 -25 -15 -22 0
-25 4 -25 35 0 35 0 35 45 35 36 0 45 -3 45 -17 0 -10 5 -25 10 -33 8 -11 10
-4 8 28 l-2 42 -73 0 c-42 0 -73 -4 -73 -10z"/>
<path d="M670 2460 c0 -5 5 -10 10 -10 6 0 10 -30 10 -71 0 -57 -4 -75 -17
-85 -16 -12 -13 -13 25 -14 23 0 42 5 42 10 0 6 -6 10 -14 10 -10 0 -14 10
-14 30 1 25 5 30 25 30 14 0 23 -6 23 -15 0 -8 5 -15 10 -15 6 0 10 18 10 40
0 22 -4 40 -10 40 -5 0 -10 -7 -10 -15 0 -9 -9 -15 -24 -15 -21 0 -24 5 -24
35 0 35 0 35 44 35 35 0 44 -4 44 -17 0 -10 5 -25 10 -33 7 -11 10 -4 10 28
l0 42 -75 0 c-43 0 -75 -4 -75 -10z"/>
<path d="M849 2453 c0 -10 -2 -26 -4 -36 -2 -10 2 -16 8 -14 7 2 12 12 12 23
0 14 7 19 30 19 l30 0 0 -69 c1 -58 -2 -70 -17 -74 -34 -9 -18 -22 27 -22 25
0 45 5 45 10 0 6 -6 10 -14 10 -20 0 -22 10 -18 85 4 65 4 66 30 63 18 -2 28
-10 32 -28 4 -16 8 -21 13 -13 4 7 5 24 1 38 -6 24 -9 25 -90 25 -73 0 -84 -2
-85 -17z"/>
<path d="M1089 2030 c-11 -7 -10 -10 4 -16 25 -9 25 -141 0 -160 -16 -12 -14
-13 20 -14 20 0 37 5 37 10 0 6 -4 10 -10 10 -6 0 -10 35 -10 84 0 86 -9 105
-41 86z"/>
<path d="M490 2020 c0 -5 5 -10 10 -10 6 0 10 -30 10 -71 0 -57 -4 -75 -17
-85 -16 -11 -6 -13 63 -14 66 0 83 3 88 16 9 25 7 64 -4 64 -5 0 -10 -13 -10
-30 0 -29 -1 -30 -48 -30 -49 0 -49 0 -50 35 -1 31 1 35 23 35 16 0 25 -6 25
-15 0 -8 5 -15 10 -15 6 0 10 18 10 40 0 22 -4 40 -10 40 -5 0 -9 -6 -7 -12 1
-8 -10 -14 -25 -16 -25 -3 -28 0 -28 27 0 30 2 31 44 31 38 0 45 -3 50 -25 4
-14 11 -25 17 -25 6 0 8 7 5 16 -3 9 -6 24 -6 35 0 17 -8 19 -75 19 -43 0 -75
-4 -75 -10z"/>
<path d="M670 1959 c0 -5 5 -9 10 -9 6 0 10 -20 10 -45 0 -25 -4 -45 -10 -45
-5 0 -10 -4 -10 -10 0 -5 16 -10 35 -10 19 0 35 5 35 10 0 6 -6 10 -14 10 -13
0 -15 14 -7 78 0 6 12 12 26 12 23 0 25 -4 25 -45 0 -25 -4 -45 -10 -45 -5 0
-10 -4 -10 -10 0 -5 17 -10 38 -10 32 1 35 2 20 13 -11 9 -18 31 -20 63 l-3
49 -57 2 c-32 1 -58 -3 -58 -8z"/>
<path d="M827 1951 c11 -10 26 -40 33 -65 7 -25 18 -46 25 -46 6 0 20 27 30
59 13 45 21 58 33 53 10 -3 13 -1 8 6 -4 7 -17 12 -30 12 -19 0 -22 -6 -23
-36 -2 -51 -18 -63 -32 -23 -8 24 -8 35 0 45 9 11 4 14 -27 14 -38 0 -38 0
-17 -19z"/>
<path d="M976 1948 c-22 -31 -20 -64 4 -88 24 -24 53 -26 75 -4 21 21 13 29
-13 13 -24 -15 -48 -7 -55 20 -5 19 -1 21 39 21 48 0 57 15 28 44 -22 23 -60
20 -78 -6z m68 -7 c4 -5 0 -11 -6 -14 -19 -6 -49 4 -42 14 7 12 41 12 48 0z"/>
<path d="M1187 1958 c-26 -20 -30 -75 -6 -99 41 -41 100 -16 102 45 2 57 -51
86 -96 54z m68 -53 c0 -38 -2 -40 -30 -40 -26 0 -30 4 -33 28 -5 44 4 59 35
55 25 -3 28 -7 28 -43z"/>
<path d="M1300 1960 c0 -4 6 -10 13 -13 16 -6 16 -129 -1 -135 -25 -8 -10 -22
24 -22 32 0 35 2 23 16 -24 30 -20 44 12 37 40 -8 69 19 69 63 0 47 -21 63
-85 63 -30 0 -55 -4 -55 -9z m108 -22 c27 -27 7 -78 -30 -78 -28 0 -43 48 -25
78 10 15 39 16 55 0z"/>
<path d="M1487 1952 c-34 -38 -9 -112 38 -112 24 0 61 28 50 38 -3 3 -11 0
-17 -6 -18 -18 -46 -14 -58 7 -15 30 -14 31 35 31 49 0 53 5 29 38 -18 27 -55
29 -77 4z m66 -16 c4 -9 0 -13 -11 -11 -9 2 -23 4 -29 4 -7 1 -13 6 -13 11 0
15 47 12 53 -4z"/>
<path d="M493 1586 c13 -10 17 -28 17 -81 0 -53 -4 -71 -17 -81 -16 -12 -13
-13 27 -13 37 0 42 2 30 12 -8 7 -16 24 -18 40 -3 25 -1 27 35 27 67 0 103 50
64 89 -17 17 -34 21 -88 21 -59 -1 -66 -2 -50 -14z m122 -41 c0 -28 -3 -30
-42 -33 l-43 -3 0 36 0 36 43 -3 c39 -3 42 -5 42 -33z"/>
<path d="M675 1530 c-7 -11 -1 -13 38 -10 19 1 27 -3 27 -14 0 -9 -8 -16 -18
-16 -24 0 -61 -27 -58 -42 4 -30 18 -36 71 -35 30 1 55 5 55 9 0 4 -6 8 -13 8
-9 0 -14 15 -14 46 -1 28 -6 50 -14 55 -19 12 -66 11 -74 -1z m54 -100 c-18
-12 -39 -1 -39 20 0 26 44 31 48 6 2 -10 -2 -22 -9 -26z"/>
<path d="M800 1529 c0 -5 5 -9 10 -9 6 0 10 -20 10 -45 0 -25 -4 -45 -10 -45
-5 0 -10 -4 -10 -10 0 -5 14 -10 30 -10 17 0 30 5 30 10 0 6 -4 10 -10 10 -12
0 -13 60 -1 78 5 8 17 12 27 10 27 -5 32 -74 7 -94 -16 -12 -14 -13 20 -14 20
0 37 5 37 10 0 6 -4 10 -10 10 -5 0 -10 19 -10 43 0 23 -4 47 -8 53 -8 14
-112 16 -112 3z"/>
<path d="M1065 1160 c-18 -7 -19 -8 -2 -15 9 -4 17 -18 17 -31 0 -21 -3 -23
-30 -17 -58 11 -91 -52 -55 -104 12 -18 25 -21 70 -21 30 0 55 5 55 9 0 5 -4
9 -10 9 -6 0 -10 35 -10 84 0 47 -3 87 -7 89 -5 3 -17 1 -28 -3z m3 -92 c26
-33 -5 -89 -41 -75 -22 8 -32 53 -17 72 15 18 44 19 58 3z"/>
<path d="M486 1151 c-4 -6 0 -11 8 -11 13 0 16 -14 16 -75 0 -43 -4 -75 -10
-75 -5 0 -10 -4 -10 -10 0 -5 17 -10 38 -10 33 1 35 2 20 14 -11 8 -18 26 -18
45 0 28 3 31 29 31 32 0 48 -14 53 -49 5 -36 33 -50 55 -28 17 17 17 18 -7 15
-20 -2 -26 2 -28 22 -2 14 -8 31 -14 37 -7 9 -6 15 6 19 17 7 21 41 7 63 -12
19 -135 29 -145 12z m128 -26 c11 -29 -5 -45 -45 -45 -37 0 -39 2 -39 30 0 28
2 30 39 30 25 0 41 -5 45 -15z"/>
<path d="M707 1093 c-15 -14 -6 -21 24 -19 18 0 34 -5 36 -11 3 -8 -4 -13 -19
-13 -36 0 -60 -22 -56 -51 3 -22 7 -24 61 -25 31 0 57 3 57 8 0 4 -4 8 -10 8
-5 0 -10 16 -10 36 0 50 -15 74 -49 74 -15 0 -31 -3 -34 -7z m63 -77 c0 -20
-20 -34 -41 -29 -26 7 -24 32 4 42 25 10 37 6 37 -13z"/>
<path d="M824 1089 c-3 -5 1 -9 9 -9 19 0 17 -71 -2 -94 -12 -14 -9 -16 23
-16 20 0 36 5 36 10 0 6 -6 10 -13 10 -9 0 -12 11 -11 35 4 44 10 55 33 55 24
0 34 -65 14 -85 -20 -21 -16 -25 25 -25 31 1 34 3 22 13 -8 7 -16 29 -16 50
-3 61 -8 66 -63 65 -28 0 -54 -4 -57 -9z"/>
<path d="M1163 1092 c-32 -20 -32 -94 0 -114 38 -24 97 11 97 57 0 46 -59 81
-97 57z m64 -24 c21 -35 4 -78 -31 -78 -13 0 -27 7 -30 16 -8 21 -8 59 1 67
11 12 51 8 60 -5z"/>
<path d="M1283 1086 c11 -9 17 -27 17 -51 0 -24 -6 -43 -17 -51 -16 -12 -14
-13 20 -14 20 0 37 5 37 10 0 6 -5 10 -11 10 -6 0 -9 17 -7 43 3 37 6 42 28
42 22 0 24 -4 25 -40 1 -26 -4 -44 -14 -52 -13 -10 -10 -12 22 -13 20 0 37 5
37 10 0 6 -4 10 -9 10 -12 0 -19 56 -9 74 9 16 47 22 49 9 6 -50 3 -83 -8 -83
-7 0 -13 -4 -13 -10 0 -5 17 -10 38 -10 31 1 34 3 22 13 -9 7 -15 27 -15 47 1
19 -3 43 -7 53 -9 19 -53 23 -63 7 -4 -7 -11 -7 -18 -2 -7 5 -37 10 -67 10
-47 1 -53 -1 -37 -12z"/>
<path d="M485 710 c-3 -5 1 -10 9 -10 13 0 16 -14 16 -75 0 -43 -4 -75 -10
-75 -5 0 -10 -4 -10 -10 0 -13 116 -13 141 0 24 13 26 65 2 78 -16 9 -16 11 0
27 22 21 21 31 -3 55 -16 16 -33 20 -79 20 -33 0 -63 -4 -66 -10z m130 -41 c0
-21 -5 -24 -42 -27 -42 -3 -43 -2 -43 27 0 33 17 42 60 31 18 -5 25 -13 25
-31z m3 -61 c17 -17 15 -45 -4 -52 -9 -3 -31 -6 -50 -6 -32 0 -34 2 -34 35 0
34 1 35 38 35 21 0 43 -5 50 -12z"/>
<path d="M872 704 c-12 -8 -22 -21 -22 -29 0 -7 -6 -16 -12 -18 -10 -4 -9 -8
2 -16 18 -13 21 -81 3 -88 -26 -10 -12 -23 23 -23 33 0 35 2 23 16 -16 19 -20
86 -6 95 5 4 18 4 28 2 15 -4 19 -15 19 -49 0 -24 -4 -44 -10 -44 -5 0 -10 -4
-10 -10 0 -5 16 -10 35 -10 19 0 35 5 35 10 0 6 -7 10 -15 10 -11 0 -15 12
-15 45 0 33 4 45 15 45 8 0 15 5 15 10 0 6 -7 10 -16 10 -9 0 -14 7 -12 18 2
9 12 17 23 17 11 0 20 4 20 10 0 17 -99 16 -123 -1z m58 -24 c0 -16 -7 -20
-30 -20 -32 0 -33 1 -24 24 9 24 54 21 54 -4z"/>
<path d="M680 650 c0 -5 5 -10 10 -10 6 0 10 -18 10 -39 0 -22 3 -46 6 -55 7
-18 49 -22 59 -6 4 6 -5 10 -19 10 -25 0 -26 3 -26 55 0 48 -2 55 -20 55 -11
0 -20 -4 -20 -10z"/>
<path d="M755 650 c-3 -5 1 -10 10 -10 13 0 16 -9 15 -42 -2 -24 -2 -49 -1
-55 1 -15 41 -18 41 -3 0 6 -4 10 -10 10 -5 0 -10 25 -10 55 0 48 -3 55 -19
55 -11 0 -23 -4 -26 -10z"/>
<path d="M1016 644 c-9 -8 -16 -30 -16 -48 0 -56 58 -87 95 -50 21 21 13 29
-14 12 -24 -15 -54 -2 -59 26 -3 13 5 16 43 16 43 0 46 1 39 23 -4 12 -12 25
-18 29 -19 13 -54 9 -70 -8z m68 -13 c6 -10 -33 -20 -52 -13 -7 2 -10 8 -6 13
7 12 51 12 58 0z"/>
<path d="M1120 649 c0 -5 5 -9 10 -9 6 0 10 -20 10 -45 0 -25 -4 -45 -10 -45
-5 0 -10 -4 -10 -10 0 -5 16 -10 35 -10 19 0 35 5 35 10 0 6 -7 10 -15 10 -10
0 -15 10 -15 33 0 37 15 58 36 50 8 -3 14 1 14 9 0 11 -13 15 -45 16 -25 0
-45 -4 -45 -9z"/>
<path d="M493 266 c25 -19 25 -143 0 -162 -16 -12 -13 -13 25 -14 23 0 42 5
42 10 0 6 -6 9 -12 8 -10 -2 -14 19 -15 75 -2 62 1 77 12 77 8 0 15 5 15 10 0
6 -19 10 -42 10 -38 -1 -41 -2 -25 -14z"/>
<path d="M597 202 c-22 -25 -21 -75 1 -95 40 -36 102 -9 102 44 0 60 -66 92
-103 51z m79 -29 c9 -33 -7 -58 -36 -58 -29 0 -45 25 -36 58 5 22 12 27 36 27
24 0 31 -5 36 -27z"/>
</g>
</svg>
