<?xml version="1.0" encoding="UTF-8" standalone="no"?>
<svg
   version="1.0"
   width="1159.000000pt"
   height="1102.000000pt"
   viewBox="0 0 1159.000000 1102.000000"
   preserveAspectRatio="xMidYMid meet"
   id="svg340"
   sodipodi:docname="Toolbox.svg"
   inkscape:version="1.2.2 (b0a8486541, 2022-12-01)"
   xmlns:inkscape="http://www.inkscape.org/namespaces/inkscape"
   xmlns:sodipodi="http://sodipodi.sourceforge.net/DTD/sodipodi-0.dtd"
   xmlns="http://www.w3.org/2000/svg"
   xmlns:svg="http://www.w3.org/2000/svg">
  <defs
     id="defs344" />
  <sodipodi:namedview
     id="namedview342"
     pagecolor="#ffffff"
     bordercolor="#666666"
     borderopacity="1.0"
     inkscape:showpageshadow="2"
     inkscape:pageopacity="0.0"
     inkscape:pagecheckerboard="0"
     inkscape:deskcolor="#d1d1d1"
     inkscape:document-units="pt"
     showgrid="false"
     inkscape:zoom="0.59686933"
     inkscape:cx="773.20106"
     inkscape:cy="734.66667"
     inkscape:window-width="2560"
     inkscape:window-height="1436"
     inkscape:window-x="1920"
     inkscape:window-y="4"
     inkscape:window-maximized="1"
     inkscape:current-layer="g338" />
  <metadata
     id="metadata2">
Created by potrace 1.16, written by Peter Selinger 2001-2019
</metadata>
  <g
     transform="translate(0.000000,1102.000000) scale(0.100000,-0.100000)"
     fill="#000000"
     stroke="none"
     id="g338">
    <path
       d="M173 10902 l-103 -3 0 -5329 0 -5330 883 -2 c485 -2 1104 -2 1375 0 l492 2 0 5330 0 5330 -67 0 c-951 3 -2504 4 -2580 2z m2627 -5332 l0 -5310 -1355 0 -1355 0 0 5310 0 5310 1355 0 1355 0 0 -5310z"
       id="path4" />
    <path
       d="M790 10735 c0 -9 6 -12 15 -8 14 5 15 -10 13 -113 -2 -89 -6 -118 -15 -116 -7 1 -13 -5 -13 -13 0 -11 12 -15 46 -15 32 0 44 4 41 13 -2 6 -10 11 -16 10 -13 -3 -13 -5 -15 114 -1 51 1 89 5 85 3 -4 24 -55 45 -114 21 -60 43 -108 49 -108 10 0 85 194 85 220 0 6 3 9 8 6 4 -2 7 -46 7 -96 -1 -75 -4 -95 -18 -105 -27 -20 -20 -25 33 -25 39 0 48 3 44 14 -3 8 -12 12 -20 9 -12 -4 -14 16 -14 116 0 67 3 120 8 120 19 -3 33 2 27 11 -3 6 -21 10 -39 10 l-33 0 -43 -121 -43 -122 -34 94 c-19 52 -39 106 -45 122 -9 22 -17 27 -44 27 -23 0 -34 -5 -34 -15z"
       id="path6" />
    <path
       d="M1346 10704 c-4 -19 -14 -38 -22 -41 -19 -7 -18 -20 4 -27 15 -5 18 -18 18 -77 1 -73 9 -89 46 -89 20 0 48 37 48 62 0 10 -7 18 -15 18 -9 0 -15 -6 -14 -12 3 -26 -1 -38 -15 -38 -18 0 -22 14 -21 80 0 54 1 55 28 54 16 -1 27 4 27 12 0 7 -12 14 -27 16 -25 3 -28 7 -27 41 0 48 -21 49 -30 1z"
       id="path8" />
    <path
       d="M1179 10647 c-57 -44 -49 -142 13 -168 34 -14 75 -4 92 23 16 26 -2 34 -24 11 -23 -25 -54 -21 -75 10 -27 39 -19 47 45 47 57 0 60 1 60 25 0 51 -69 84 -111 52z m69 -23 c30 -21 19 -34 -29 -34 -42 0 -54 20 -21 39 23 14 24 14 50 -5z"
       id="path10" />
    <path
       d="M1503 10653 c-18 -7 -16 -33 1 -33 8 0 17 4 21 9 5 10 37 7 55 -4 22 -13 8 -33 -26 -38 -46 -8 -74 -33 -74 -67 0 -46 43 -65 92 -39 14 8 23 8 31 0 14 -14 47 -14 47 -1 0 6 -7 13 -15 16 -11 5 -15 22 -15 65 0 46 -5 64 -20 79 -19 19 -67 26 -97 13z m87 -106 c0 -39 -16 -51 -62 -48 -23 1 -24 39 -2 55 8 7 26 13 40 14 19 1 24 -3 24 -21z"
       id="path12" />
    <path
       d="M490 9965 l0 -275 970 0 970 0 0 275 0 275 -970 0 -970 0 0 -275z m1920 0 l0 -255 -950 0 -950 0 0 255 0 255 950 0 950 0 0 -255z"
       id="path14" />
    <path
       d="M675 10112 c-41 -26 -53 -42 -63 -88 -23 -107 62 -195 163 -170 33 8 75 52 75 77 0 29 -16 23 -30 -10 -11 -28 -48 -49 -77 -45 -7 1 -20 2 -29 3 -8 0 -29 14 -45 30 -24 25 -29 38 -29 79 0 76 52 126 119 115 32 -5 46 -17 61 -53 19 -46 30 -36 30 28 -1 51 -2 55 -14 39 -13 -17 -16 -17 -45 -3 -40 21 -79 20 -116 -2z"
       id="path16" />
    <path
       d="M1496 10086 c-4 -20 -14 -40 -24 -45 -17 -10 -10 -26 11 -26 8 0 12 -21 13 -60 0 -33 4 -70 8 -82 9 -29 39 -30 66 -3 24 24 27 60 5 60 -9 0 -15 -6 -14 -12 3 -26 -1 -38 -15 -38 -17 0 -22 21 -22 85 1 48 2 50 29 49 16 0 27 5 27 13 0 8 -12 13 -28 13 -25 0 -28 3 -27 37 0 48 -21 54 -29 9z"
       id="path18" />
    <path
       d="M2067 10113 c-4 -3 -7 -16 -7 -28 0 -13 -7 -28 -15 -35 -18 -15 -20 -41 -2 -37 8 1 14 -20 17 -70 3 -40 10 -77 17 -84 27 -27 89 21 76 59 -7 19 -23 14 -23 -7 0 -21 -23 -45 -33 -34 -4 3 -7 36 -7 73 0 65 1 67 24 66 33 -1 34 18 1 22 -22 3 -25 8 -25 43 0 37 -8 48 -23 32z"
       id="path20" />
    <path
       d="M932 10030 c-24 -10 -52 -63 -47 -89 2 -9 4 -22 4 -29 2 -27 49 -62 83 -62 80 1 116 95 62 159 -27 32 -57 38 -102 21z m77 -25 c31 -19 17 -124 -18 -126 -52 -4 -73 16 -73 67 0 56 47 87 91 59z"
       id="path22" />
    <path
       d="M1093 10033 c-19 -7 -16 -20 6 -26 16 -4 19 -14 19 -66 -1 -50 -4 -62 -19 -66 -36 -12 -19 -25 31 -25 28 0 50 5 50 10 0 6 -7 10 -15 10 -15 0 -18 15 -18 75 1 52 2 55 26 64 41 16 57 -3 57 -69 0 -50 -3 -60 -20 -65 -37 -12 -21 -25 30 -25 28 0 50 5 50 10 0 6 -7 10 -15 10 -10 0 -15 10 -16 28 -1 72 -8 113 -19 127 -14 17 -66 20 -75 5 -3 -5 -11 -10 -16 -10 -6 0 -7 5 -4 10 6 10 -30 13 -52 3z"
       id="path24" />
    <path
       d="M1327 10022 c-33 -36 -10 -76 52 -88 27 -6 32 -10 29 -33 -3 -24 -10 -28 -46 -22 -5 0 -14 13 -20 27 -16 33 -32 22 -32 -23 0 -29 2 -33 14 -24 10 8 16 9 21 1 10 -15 62 -12 79 6 35 34 11 84 -47 98 -32 8 -47 34 -26 47 21 13 28 11 54 -17 l25 -27 0 34 c0 33 -1 34 -43 37 -32 2 -48 -2 -60 -16z"
       id="path26" />
    <path
       d="M1653 10033 c-18 -7 -16 -33 1 -33 8 0 17 4 21 9 5 10 37 7 55 -4 22 -13 8 -33 -26 -38 -63 -10 -89 -50 -64 -98 12 -21 50 -25 82 -8 14 8 23 8 31 0 14 -14 47 -14 47 -1 0 6 -7 13 -15 16 -11 5 -15 22 -15 65 0 46 -5 64 -20 79 -19 19 -67 26 -97 13z m87 -106 c0 -41 -30 -62 -62 -45 -24 12 -23 47 3 56 41 15 59 12 59 -11z"
       id="path28" />
    <path
       d="M1827 10033 c-12 -11 -8 -23 8 -23 12 0 15 -14 15 -70 0 -47 -4 -69 -11 -67 -6 1 -14 -4 -16 -10 -6 -16 83 -18 92 -3 6 9 -8 14 -27 11 -11 -1 -10 111 1 128 8 13 56 19 66 9 3 -3 6 -31 6 -63 1 -44 -2 -61 -15 -70 -26 -19 -19 -25 29 -25 33 0 45 4 45 15 0 8 -6 14 -12 13 -9 -2 -14 18 -16 70 -3 67 -5 74 -28 84 -19 9 -33 9 -55 1 -16 -6 -29 -7 -29 -2 0 10 -43 12 -53 2z"
       id="path30" />
    <path
       d="M2206 10025 c-33 -34 -17 -69 39 -88 46 -16 60 -51 25 -60 -21 -6 -60 22 -60 43 0 6 -4 10 -10 10 -5 0 -10 -17 -10 -37 l0 -38 47 -3 c49 -3 83 17 83 47 0 25 -29 61 -48 61 -10 0 -28 7 -40 16 -18 13 -21 19 -11 30 16 20 36 17 56 -6 24 -27 33 -25 33 8 0 25 -3 27 -44 30 -30 2 -49 -2 -60 -13z"
       id="path32" />
    <path
       d="M1728 9503 c-16 -2 -28 -11 -28 -19 0 -8 6 -13 13 -11 9 1 13 -30 15 -125 2 -107 5 -128 18 -128 9 0 12 5 8 12 -5 8 -2 9 12 3 65 -27 108 -11 125 44 24 82 -32 150 -101 124 l-30 -11 -1 46 c-1 26 -1 53 0 60 1 6 1 11 -1 11 -2 -1 -15 -4 -30 -6z m116 -129 c24 -14 28 -87 5 -109 -43 -44 -89 -15 -89 55 0 39 4 49 23 57 25 12 35 11 61 -3z"
       id="path34" />
    <path
       d="M1943 9499 c-21 -8 -33 -31 -15 -28 26 4 29 -6 28 -113 -1 -83 -4 -113 -13 -113 -7 0 -14 -4 -15 -10 -2 -5 19 -11 46 -13 32 -2 47 0 44 8 -2 6 -7 11 -12 10 -18 -3 -21 22 -21 139 0 74 -3 122 -10 124 -5 3 -20 1 -32 -4z"
       id="path36" />
    <path
       d="M770 9492 c0 -5 8 -12 18 -14 14 -4 32 -41 64 -129 27 -75 51 -125 60 -127 11 -2 23 20 43 75 59 169 66 182 81 176 8 -3 14 1 14 11 0 12 -10 16 -45 16 -35 0 -43 -3 -39 -15 4 -8 10 -12 15 -9 14 8 11 -5 -21 -94 -45 -126 -42 -125 -83 -14 -40 107 -42 113 -28 110 5 -2 11 2 13 7 1 6 -18 11 -44 13 -27 2 -48 -1 -48 -6z"
       id="path38" />
    <path
       d="M1415 9491 c-8 -15 3 -31 21 -31 9 0 14 7 12 17 -4 20 -24 28 -33 14z"
       id="path40" />
    <path
       d="M1073 9403 c-17 -6 -17 -33 0 -33 7 0 18 5 24 11 14 14 49 3 57 -18 4 -9 5 -17 4 -19 -3 -2 -44 -10 -70 -13 -18 -2 -46 -45 -42 -64 7 -41 29 -52 76 -40 27 7 47 8 53 2 12 -12 45 -12 45 1 0 5 -8 14 -18 19 -14 7 -17 21 -16 65 1 67 -20 96 -69 95 -18 0 -38 -3 -44 -6z m85 -110 c6 -40 -58 -63 -80 -29 -10 16 10 44 34 49 34 6 43 3 46 -20z"
       id="path42" />
    <path
       d="M1237 9403 c-12 -11 -8 -20 11 -25 16 -5 18 -14 17 -59 -4 -80 -4 -79 -20 -79 -8 0 -15 -4 -15 -10 0 -6 26 -10 58 -10 52 1 55 2 38 15 -11 8 -24 15 -29 15 -14 0 0 112 15 121 7 5 20 6 29 3 22 -6 34 25 13 33 -8 3 -26 1 -40 -5 -15 -7 -24 -8 -24 -2 0 11 -43 14 -53 3z"
       id="path44" />
    <path
       d="M1413 9403 c-28 -5 -30 -19 -5 -27 26 -9 26 -123 0 -132 -34 -10 -18 -24 27 -24 44 0 60 15 30 26 -12 5 -15 24 -15 85 0 43 -3 78 -7 78 -5 -1 -18 -4 -30 -6z"
       id="path46" />
    <path
       d="M1531 9396 c-16 -19 3 -30 29 -16 14 8 26 8 40 0 32 -17 24 -37 -17 -45 -46 -8 -73 -31 -73 -61 0 -45 47 -67 90 -44 14 7 25 7 38 -1 11 -7 27 -9 38 -5 18 8 18 9 -3 19 -20 9 -23 17 -23 73 0 54 -3 65 -22 78 -28 20 -82 21 -97 2z m89 -106 c0 -36 -30 -56 -60 -40 -11 6 -20 17 -20 25 0 17 32 40 59 42 17 1 21 -4 21 -27z"
       id="path48" />
    <path
       d="M2065 9385 c-36 -35 -35 -106 1 -140 16 -15 39 -25 55 -25 28 0 69 30 69 50 0 15 -18 12 -27 -4 -22 -38 -93 -11 -93 35 0 17 7 19 60 19 56 0 60 2 60 23 0 61 -80 88 -125 42z m74 -5 c10 -5 21 -16 24 -24 5 -11 -4 -14 -43 -13 -43 1 -48 3 -39 18 7 14 20 24 37 28 2 1 11 -3 21 -9z"
       id="path50" />
    <path
       d="M2231 9391 c-30 -30 -15 -62 40 -81 44 -16 61 -41 37 -56 -25 -16 -39 -12 -57 16 -25 41 -42 21 -32 -37 2 -12 81 -14 101 -3 49 26 27 93 -34 104 -42 8 -54 23 -33 43 17 18 57 9 57 -13 0 -8 7 -14 16 -14 11 0 14 8 12 27 -3 24 -8 28 -45 31 -32 3 -46 -1 -62 -17z"
       id="path52" />
    <path
       d="M790 8871 c0 -5 7 -12 15 -15 13 -5 15 -25 13 -118 -2 -84 -6 -112 -15 -110 -7 1 -13 -5 -13 -13 0 -11 12 -15 46 -15 32 0 44 4 42 13 -3 6 -11 12 -19 12 -11 0 -14 21 -14 102 0 57 2 103 5 103 3 0 11 -19 18 -42 34 -111 66 -188 76 -188 7 0 30 50 51 111 22 61 42 112 45 114 4 2 5 -170 1 -197 0 -5 -6 -7 -12 -5 -6 1 -14 -4 -16 -10 -6 -16 83 -18 92 -3 6 9 -8 14 -27 11 -5 0 -8 53 -8 120 0 100 2 120 14 116 8 -3 17 1 20 9 4 11 -4 14 -34 14 -35 0 -40 -3 -49 -32 -12 -40 -70 -201 -74 -205 -2 -1 -14 28 -27 65 -62 179 -58 172 -96 172 -19 0 -34 -4 -34 -9z"
       id="path54" />
    <path
       d="M1490 8864 c0 -10 6 -14 15 -10 13 5 15 -12 15 -114 0 -84 -3 -119 -11 -117 -6 1 -14 -4 -16 -10 -3 -9 10 -13 47 -13 45 0 51 2 40 15 -7 8 -16 12 -21 9 -5 -3 -9 22 -9 55 0 53 3 63 24 76 36 24 54 11 58 -45 4 -57 -3 -92 -17 -90 -5 1 -11 -3 -13 -9 -2 -7 16 -11 48 -11 45 0 51 2 40 15 -7 8 -16 12 -21 9 -5 -3 -9 29 -9 71 0 71 -1 76 -26 87 -19 9 -33 9 -55 1 l-29 -11 0 54 c0 53 0 54 -30 54 -21 0 -30 -5 -30 -16z"
       id="path56" />
    <path
       d="M1364 8838 c-3 -18 -13 -38 -22 -44 -16 -11 -8 -39 9 -29 5 4 9 -2 10 -12 3 -91 7 -131 13 -141 9 -16 38 -15 60 1 22 16 29 67 10 67 -8 0 -14 -11 -14 -26 0 -19 -5 -25 -17 -22 -15 3 -19 16 -21 69 -2 58 -1 66 15 66 33 0 43 3 43 13 0 6 -13 10 -30 10 -28 0 -30 2 -30 40 0 48 -16 53 -26 8z"
       id="path58" />
    <path
       d="M1173 8783 c-18 -7 -16 -33 2 -33 8 0 15 5 15 10 0 14 51 4 62 -12 13 -21 10 -25 -30 -31 -50 -9 -74 -28 -74 -60 0 -51 44 -73 94 -46 14 8 23 8 31 0 13 -13 47 -15 47 -2 0 5 -8 12 -17 15 -15 5 -18 18 -19 71 0 52 -4 68 -20 80 -18 14 -66 19 -91 8z m85 -110 c6 -39 -57 -63 -80 -30 -10 15 2 38 26 47 32 13 51 7 54 -17z"
       id="path60" />
    <path
       d="M780 8240 c0 -9 14 -14 33 -11 4 0 7 -51 7 -115 0 -107 -1 -116 -20 -121 -11 -3 -20 -9 -20 -14 0 -11 197 -12 204 -1 9 15 9 97 0 100 -5 2 -13 -15 -17 -37 -5 -23 -14 -41 -20 -42 -7 -1 -31 -2 -54 -4 l-43 -2 0 118 c0 66 3 118 8 118 22 -4 42 2 37 11 -3 6 -31 10 -61 10 -30 0 -54 -4 -54 -10z"
       id="path62" />
    <path
       d="M1047 8244 c-9 -9 4 -34 18 -34 14 0 27 25 18 34 -4 3 -12 6 -18 6 -6 0 -14 -3 -18 -6z"
       id="path64" />
    <path
       d="M1324 8208 c-3 -18 -13 -38 -22 -44 -16 -11 -8 -39 9 -29 5 4 9 0 10 -7 0 -7 2 -40 3 -73 2 -68 9 -85 35 -85 25 0 48 21 55 53 5 20 3 27 -9 27 -9 0 -15 -9 -15 -26 0 -19 -4 -25 -17 -22 -15 3 -18 14 -18 68 0 51 3 65 15 66 8 1 21 2 28 3 26 2 10 21 -18 21 -28 0 -30 2 -30 40 0 48 -16 53 -26 8z"
       id="path66" />
    <path
       d="M1040 8150 c-13 -9 -13 -12 2 -20 12 -8 16 -25 16 -71 -1 -51 -4 -62 -19 -66 -37 -10 -18 -24 29 -21 26 2 46 8 45 13 -2 6 -9 10 -15 10 -9 0 -13 21 -12 75 0 84 -11 103 -46 80z"
       id="path68" />
    <path
       d="M1156 8145 c-33 -34 -17 -68 39 -87 25 -8 41 -20 43 -32 8 -41 -52 -41 -70 0 -17 36 -28 29 -28 -17 0 -35 2 -39 14 -30 10 8 16 9 21 1 9 -15 47 -12 73 6 42 29 20 84 -40 99 -36 9 -53 29 -36 42 20 16 50 11 56 -9 7 -29 32 -22 32 10 0 25 -3 27 -44 30 -30 2 -49 -2 -60 -13z"
       id="path70" />
    <path
       d="M1568 7632 c-16 -2 -28 -10 -28 -18 0 -8 3 -13 8 -13 25 4 27 -8 27 -122 0 -113 7 -148 25 -119 6 9 13 9 28 1 57 -30 112 10 112 82 0 78 -58 120 -120 87 -17 -9 -19 -5 -19 46 0 31 -1 57 -3 58 -2 1 -15 0 -30 -2z m130 -140 c6 -9 12 -30 12 -47 0 -38 -18 -64 -47 -69 -35 -7 -55 16 -58 67 -2 39 1 50 18 62 24 17 56 11 75 -13z"
       id="path72" />
    <path
       d="M780 7620 c0 -5 9 -10 20 -10 19 0 20 -7 20 -116 0 -107 -1 -116 -20 -121 -49 -13 -12 -23 84 -23 l104 0 4 51 c5 78 -15 99 -25 26 -3 -21 -8 -41 -11 -44 -3 -3 -28 -7 -56 -8 l-50 -2 0 118 c0 66 3 118 8 118 22 -4 42 2 37 11 -3 6 -31 10 -61 10 -30 0 -54 -4 -54 -10z"
       id="path74" />
    <path
       d="M1890 7615 c0 -8 6 -14 13 -12 8 1 13 -13 15 -40 l3 -42 -31 10 c-46 17 -79 4 -96 -37 -37 -87 17 -163 96 -136 18 7 30 7 30 1 0 -5 14 -9 30 -9 20 0 30 5 30 15 0 8 -6 14 -12 13 -10 -2 -14 29 -16 125 l-3 127 -29 0 c-20 0 -30 -5 -30 -15z m20 -120 c6 -8 10 -33 8 -57 -2 -33 -8 -45 -27 -54 -64 -32 -110 58 -57 111 25 25 55 25 76 0z"
       id="path76" />
    <path
       d="M1050 7520 c-8 -16 -8 -20 4 -20 8 0 17 4 21 9 5 10 37 7 55 -4 22 -13 8 -33 -26 -38 -45 -7 -74 -32 -74 -63 0 -45 47 -67 90 -44 14 7 25 7 38 -1 11 -7 27 -9 38 -5 18 8 18 9 -3 17 -21 7 -23 15 -23 73 0 56 -3 67 -22 80 -32 23 -85 21 -98 -4z m90 -100 c0 -35 -32 -54 -62 -38 -27 14 -22 45 10 56 44 17 52 14 52 -18z"
       id="path78" />
    <path
       d="M1227 7533 c-12 -11 -8 -23 8 -23 12 0 15 -15 15 -71 0 -59 -3 -70 -15 -65 -9 3 -15 0 -15 -9 0 -11 12 -15 46 -15 32 0 44 4 41 13 -2 6 -10 11 -16 10 -12 -3 -16 105 -3 123 9 14 47 23 61 15 6 -4 12 -36 13 -71 2 -50 -1 -65 -11 -65 -8 0 -16 -6 -18 -12 -3 -9 9 -13 41 -13 48 0 69 14 36 25 -17 5 -20 15 -20 60 0 46 4 57 24 70 24 16 55 11 57 -9 6 -73 2 -121 -10 -121 -8 0 -16 -6 -18 -12 -3 -9 10 -13 47 -13 37 0 50 4 48 13 -3 6 -11 12 -19 12 -11 0 -14 17 -16 68 0 37 -7 74 -13 82 -14 17 -53 20 -79 5 -12 -6 -29 -5 -49 2 -23 9 -37 9 -56 0 -16 -7 -26 -8 -26 -2 0 11 -43 14 -53 3z"
       id="path80" />
    <path
       d="M2030 7520 c-8 -16 -8 -20 4 -20 8 0 17 4 21 9 5 10 37 7 55 -4 22 -13 8 -33 -26 -38 -45 -7 -74 -32 -74 -63 0 -45 47 -67 90 -44 14 7 25 7 38 -1 11 -7 27 -9 38 -5 18 8 18 9 -3 19 -20 9 -23 17 -23 73 0 54 -3 65 -22 78 -32 23 -85 21 -98 -4z m90 -100 c0 -36 -30 -56 -60 -40 -29 16 -25 46 8 58 44 17 52 14 52 -18z"
       id="path82" />
    <path
       d="M780 6991 c0 -5 9 -11 20 -14 18 -5 20 -14 20 -117 0 -103 -2 -112 -20 -117 -39 -10 -19 -23 35 -23 30 0 55 5 55 10 0 9 -14 14 -32 11 -5 0 -8 53 -8 119 0 66 3 119 8 119 18 -3 32 2 32 11 0 6 -25 10 -55 10 -30 0 -55 -4 -55 -9z"
       id="path84" />
    <path
       d="M946 6955 c-4 -20 -14 -39 -22 -42 -19 -7 -18 -23 1 -23 18 0 17 4 20 -81 2 -77 8 -89 40 -89 26 0 55 33 55 63 0 20 -24 19 -26 -1 -1 -7 -2 -17 -3 -23 0 -6 -9 -9 -18 -7 -14 2 -17 15 -18 61 -2 61 4 71 45 76 23 3 8 21 -18 21 -26 0 -28 3 -28 37 1 48 -20 54 -28 8z"
       id="path86" />
    <path
       d="M1103 6886 c-23 -20 -28 -32 -28 -71 0 -39 5 -51 28 -71 36 -31 77 -31 106 0 28 29 11 46 -18 17 -31 -31 -71 -13 -84 36 -5 21 -1 22 57 25 58 3 61 4 58 28 -3 31 -36 60 -68 60 -12 0 -36 -11 -51 -24z m80 -10 c29 -22 19 -33 -28 -33 -50 0 -62 21 -22 37 29 12 29 12 50 -4z"
       id="path88" />
    <path
       d="M1257 6903 c-12 -11 -8 -23 8 -23 12 0 15 -15 15 -71 0 -38 -4 -68 -9 -65 -5 3 -14 -1 -21 -9 -11 -13 -5 -15 45 -15 41 0 55 3 52 13 -2 6 -11 11 -21 9 -13 -2 -16 7 -16 56 0 65 15 88 50 77 14 -5 20 -2 20 10 0 21 -29 31 -51 16 -12 -7 -19 -7 -19 -1 0 11 -43 14 -53 3z"
       id="path90" />
    <path
       d="M849 6357 c-43 -29 -59 -60 -59 -117 0 -57 16 -88 59 -117 35 -24 96 -30 136 -14 11 5 25 4 33 -1 9 -8 12 1 12 41 0 39 4 51 15 51 16 0 21 19 5 21 -5 1 -26 1 -45 1 -50 0 -55 -1 -55 -12 0 -5 11 -10 25 -10 21 0 25 -5 25 -30 0 -36 -25 -50 -80 -43 -49 6 -83 34 -94 76 -19 73 19 140 84 150 39 7 69 -9 87 -48 9 -19 20 -35 25 -35 4 0 8 26 8 58 -1 50 -2 55 -14 39 -12 -16 -16 -16 -42 -2 -41 21 -86 19 -125 -8z"
       id="path92" />
    <path
       d="M2052 6343 c-1 -15 -12 -37 -24 -50 l-21 -23 21 0 c20 0 22 -5 22 -66 0 -72 12 -104 38 -104 27 0 42 14 51 48 8 25 7 32 -4 32 -7 0 -15 -10 -17 -22 -2 -13 -11 -24 -21 -26 -16 -3 -18 3 -15 65 2 52 7 68 18 69 8 1 21 2 28 3 26 2 10 21 -18 21 -28 0 -30 2 -30 40 0 46 -24 57 -28 13z"
       id="path94" />
    <path
       d="M1132 6280 c-40 -17 -54 -87 -27 -140 19 -37 73 -50 110 -26 14 9 25 23 25 31 0 20 -6 19 -30 -5 -28 -28 -90 0 -90 42 0 15 8 18 60 18 57 0 60 1 60 25 0 51 -52 77 -108 55z m76 -38 c13 -20 12 -20 -32 -20 -48 0 -63 18 -29 36 24 14 45 8 61 -16z"
       id="path96" />
    <path
       d="M1274 6275 c-19 -14 -18 -14 4 -15 21 0 22 -4 22 -66 0 -57 -3 -67 -20 -71 -34 -9 -11 -23 36 -23 32 0 44 4 41 13 -2 6 -10 11 -16 10 -12 -3 -16 105 -3 123 11 17 35 22 55 12 13 -7 17 -22 17 -73 0 -43 -4 -64 -11 -62 -6 1 -14 -4 -16 -10 -3 -9 9 -13 41 -13 45 0 61 12 31 24 -11 4 -15 22 -15 70 0 87 -32 117 -91 86 -13 -7 -19 -7 -19 0 0 15 -33 12 -56 -5z"
       id="path98" />
    <path
       d="M1518 6260 c-27 -28 -30 -36 -25 -73 11 -77 88 -114 136 -63 28 29 11 46 -18 17 -31 -31 -70 -14 -85 36 -7 21 -4 22 56 25 61 3 63 4 60 28 -3 31 -36 60 -69 60 -14 0 -38 -13 -55 -30z m94 -12 c14 -23 9 -26 -37 -26 -47 0 -57 12 -28 33 20 15 53 11 65 -7z"
       id="path100" />
    <path
       d="M1670 6275 c-10 -13 -9 -15 9 -15 19 0 21 -5 21 -70 0 -58 -3 -68 -15 -64 -9 4 -15 0 -15 -10 0 -13 11 -16 50 -16 28 0 50 5 50 10 0 9 -14 14 -32 11 -15 -2 -12 93 4 122 7 14 16 17 34 13 18 -5 24 -2 24 9 0 21 -29 31 -51 17 -23 -15 -32 -15 -24 -2 10 16 -41 12 -55 -5z"
       id="path102" />
    <path
       d="M1850 6275 c-16 -19 -7 -30 17 -20 26 12 36 12 56 3 30 -15 19 -35 -23 -42 -47 -7 -76 -42 -66 -81 8 -30 47 -42 82 -26 18 8 29 8 43 -1 10 -6 27 -8 37 -4 18 8 18 9 -3 19 -20 9 -23 17 -23 73 0 54 -3 65 -22 78 -29 20 -82 20 -98 1z m90 -105 c0 -35 -25 -52 -58 -39 -30 11 -26 39 8 56 39 20 50 16 50 -17z"
       id="path104" />
    <path
       d="M2206 6265 c-36 -39 -36 -106 -1 -140 56 -57 145 -16 145 67 -1 58 -25 88 -77 95 -36 5 -45 2 -67 -22z m94 -15 c45 -45 13 -133 -44 -123 -33 7 -48 33 -44 81 2 27 9 40 28 49 33 17 37 16 60 -7z"
       id="path106" />
    <path
       d="M2375 6281 c-3 -6 4 -15 15 -21 18 -10 21 -19 18 -73 -2 -40 -7 -61 -15 -60 -6 1 -14 -4 -17 -12 -4 -12 5 -15 49 -15 30 0 55 5 55 10 0 6 -4 11 -10 11 -5 1 -16 2 -22 3 -17 1 -14 102 2 121 7 8 21 13 32 12 12 -1 23 4 25 10 7 19 -27 28 -50 13 -15 -9 -22 -10 -25 -1 -4 13 -48 15 -57 2z"
       id="path108" />
    <path
       d="M780 5740 c0 -9 14 -14 33 -11 4 0 7 -53 7 -119 0 -66 -3 -119 -7 -119 -19 3 -33 -2 -33 -11 0 -5 22 -10 49 -10 28 0 53 5 56 10 6 9 -8 14 -27 11 -5 0 -8 22 -8 49 0 48 1 50 28 49 96 -5 132 17 132 82 0 61 -32 79 -141 79 -53 0 -89 -4 -89 -10z m185 -30 c23 -19 19 -66 -7 -84 -12 -9 -42 -16 -65 -16 l-43 0 0 59 0 58 50 -2 c28 -1 57 -8 65 -15z"
       id="path110" />
    <path
       d="M1045 5650 c-3 -6 3 -14 13 -18 17 -6 20 -16 18 -72 -1 -53 -4 -65 -17 -64 -9 1 -16 -5 -16 -12 0 -10 15 -14 55 -14 38 0 52 4 50 12 -3 7 -13 13 -24 13 -17 0 -19 7 -17 53 1 57 29 105 44 80 7 -10 11 -10 21 0 9 9 9 15 0 24 -9 9 -19 10 -42 1 -17 -6 -30 -7 -30 -2 0 12 -47 11 -55 -1z"
       id="path112" />
    <path
       d="M1252 5650 c-24 -10 -52 -63 -47 -89 2 -9 4 -22 4 -29 2 -23 49 -62 75 -62 86 0 127 92 70 159 -27 32 -57 38 -102 21z m86 -38 c24 -31 5 -111 -27 -113 -52 -4 -73 16 -73 67 0 65 62 94 100 46z"
       id="path114" />
    <path
       d="M1445 5636 c-35 -35 -35 -106 0 -141 31 -32 77 -33 105 -3 35 38 24 51 -17 18 -20 -16 -29 -17 -47 -8 -29 15 -36 28 -36 64 0 55 33 78 88 60 20 -7 23 -5 20 11 -2 13 -14 19 -45 21 -35 3 -48 -2 -68 -22z"
       id="path116" />
    <path
       d="M1633 5648 c-49 -23 -52 -122 -6 -158 37 -29 77 -26 103 7 25 32 10 43 -19 14 -31 -31 -70 -14 -85 36 -7 21 -4 22 56 25 60 3 63 4 60 27 -6 53 -55 75 -109 49z m71 -24 c26 -25 19 -34 -29 -34 -34 0 -45 4 -45 15 0 9 10 20 23 25 31 12 34 12 51 -6z"
       id="path118" />
    <path
       d="M1787 5642 c-31 -34 -13 -70 43 -87 35 -10 50 -24 44 -40 -13 -34 -60 -26 -75 11 -13 37 -29 28 -29 -16 0 -22 5 -40 10 -40 6 0 10 5 10 12 0 9 3 9 12 0 17 -17 64 -15 82 4 35 35 12 81 -49 101 -37 12 -44 39 -14 48 18 6 27 2 37 -14 20 -29 32 -26 32 7 0 25 -3 27 -43 30 -32 2 -48 -2 -60 -16z"
       id="path120" />
    <path
       d="M1946 5647 c-12 -9 -17 -23 -14 -42 2 -25 10 -32 48 -46 51 -19 67 -52 29 -62 -15 -4 -29 3 -50 26 l-29 31 0 -39 0 -40 47 -3 c101 -6 116 90 18 114 -43 10 -46 13 -35 35 14 25 46 24 60 -1 15 -29 30 -25 30 8 0 27 -3 29 -43 30 -24 1 -51 -4 -61 -11z"
       id="path122" />
    <path
       d="M2133 5650 c-30 -12 -45 -45 -45 -94 1 -31 7 -46 27 -63 65 -56 156 -2 142 84 -11 67 -63 98 -124 73z m60 -19 c31 -12 44 -60 27 -102 -12 -27 -25 -34 -60 -29 -46 6 -59 90 -20 122 26 21 22 20 53 9z"
       id="path124" />
    <path
       d="M2287 5653 c-12 -11 -8 -23 8 -23 17 0 17 2 19 -67 2 -53 -4 -76 -20 -73 -5 1 -10 -3 -12 -9 -5 -14 94 -15 103 -1 3 6 1 11 -4 11 -6 1 -17 2 -23 3 -16 1 -20 79 -7 114 7 19 14 23 34 18 27 -7 38 3 25 24 -7 12 -15 13 -40 3 -16 -6 -30 -7 -30 -2 0 10 -43 12 -53 2z"
       id="path126" />
    <path
       d="M789 5128 c0 -2 -3 -27 -5 -56 -6 -60 11 -65 22 -7 3 19 9 36 13 36 45 8 71 4 72 -10 1 -24 1 -162 0 -193 -1 -16 -4 -27 -8 -27 -22 4 -43 -2 -43 -11 0 -6 28 -10 65 -10 52 0 65 3 65 16 0 10 -6 13 -19 9 -25 -8 -27 3 -27 125 l1 105 32 1 c43 2 51 -5 55 -46 2 -25 10 -38 26 -45 20 -9 22 -17 22 -77 0 -45 -4 -67 -11 -65 -6 1 -14 -4 -16 -10 -3 -9 10 -13 46 -13 28 0 51 5 51 10 0 9 -14 14 -32 11 -12 -2 -9 98 3 121 8 15 17 18 35 14 18 -5 24 -2 24 9 0 21 -29 31 -51 16 -11 -6 -19 -7 -19 -2 0 5 -12 11 -27 13 -20 2 -28 9 -29 23 -4 71 9 65 -124 65 -66 0 -120 -1 -121 -2z"
       id="path128" />
    <path
       d="M1217 5124 c-14 -15 -6 -34 14 -34 14 0 19 5 17 17 -3 18 -20 27 -31 17z"
       id="path130" />
    <path
       d="M1197 5028 c-9 -6 -7 -11 6 -19 13 -8 17 -24 17 -74 0 -43 -4 -64 -11 -62 -6 1 -14 -4 -16 -10 -3 -9 9 -13 42 -13 33 0 45 4 42 13 -2 6 -10 11 -16 10 -7 -2 -11 24 -11 81 0 79 -1 85 -20 83 -12 -1 -26 -5 -33 -9z"
       id="path132" />
    <path
       d="M1335 5020 c-8 -9 -15 -27 -15 -41 0 -13 0 -42 0 -64 0 -22 -5 -52 -11 -67 -22 -54 21 -86 104 -75 95 13 88 97 -9 103 -27 2 -52 3 -56 3 -5 1 -8 9 -8 19 0 15 6 18 30 14 43 -6 70 21 70 69 0 32 3 36 20 32 13 -4 20 0 20 10 0 22 -124 21 -145 -3z m61 -8 c16 -11 23 -47 12 -66 -12 -22 -45 -20 -58 3 -14 27 -13 37 6 55 17 18 24 19 40 8z m38 -168 c46 -18 -12 -60 -66 -49 -32 7 -42 20 -34 40 6 15 69 21 100 9z"
       id="path134" />
    <path
       d="M1530 5013 c-11 -14 -17 -33 -14 -46 8 -35 5 -96 -6 -117 -14 -27 -13 -37 10 -60 36 -36 142 -21 155 21 9 26 -12 59 -38 61 -12 1 -31 3 -42 4 -11 1 -28 2 -37 3 -10 1 -18 8 -18 16 0 10 10 15 33 15 44 0 67 26 67 74 0 33 2 37 20 31 14 -4 20 -2 20 8 0 11 -15 15 -65 15 -57 0 -68 -4 -85 -25z m71 -2 c12 -2 16 -36 8 -59 -11 -30 -46 -29 -60 2 -14 30 3 66 28 61 10 -2 21 -4 24 -4z m38 -170 c16 -10 8 -41 -11 -42 -7 -1 -25 -2 -41 -3 -35 -4 -62 16 -54 38 7 18 81 23 106 7z"
       id="path136" />
    <path
       d="M1729 5014 c-36 -38 -34 -107 4 -140 35 -30 66 -31 101 -3 20 16 25 24 16 33 -8 8 -14 6 -21 -6 -12 -21 -62 -24 -77 -5 -5 6 -13 22 -16 35 -7 21 -5 22 59 22 l65 0 -6 28 c-14 62 -82 82 -125 36z m92 -16 c12 -19 3 -25 -41 -26 -29 -1 -40 2 -40 13 0 31 64 41 81 13z"
       id="path138" />
    <path
       d="M1887 5033 c-12 -11 -8 -23 8 -23 12 0 15 -14 15 -70 0 -47 -4 -69 -11 -67 -6 1 -14 -4 -16 -10 -3 -9 10 -13 46 -13 37 0 51 4 51 14 0 8 -8 13 -17 12 -15 -1 -19 9 -21 52 -4 62 10 86 45 77 17 -4 23 -1 23 10 0 21 -29 31 -51 17 -11 -7 -20 -8 -24 -2 -7 11 -38 13 -48 3z"
       id="path140" />
    <path
       d="M2148 4502 c-32 -4 -36 -17 -10 -31 12 -6 18 -19 16 -33 -1 -13 -3 -28 -3 -35 -1 -8 -8 -8 -29 -1 -61 24 -104 -12 -104 -87 0 -75 43 -111 104 -87 16 6 28 6 28 1 0 -13 57 -11 65 2 4 6 -2 13 -14 16 -19 5 -21 13 -23 132 l-3 126 -27 -3z m-13 -129 c15 -9 18 -20 16 -54 -2 -50 -12 -65 -46 -71 -33 -7 -55 20 -57 67 -1 28 4 43 20 56 24 19 37 19 67 2z"
       id="path142" />
    <path
       d="M786 4485 c3 -8 11 -13 17 -12 9 1 12 -31 12 -113 0 -85 -3 -115 -12 -115 -7 0 -14 -4 -15 -10 -4 -15 150 -18 184 -4 65 27 92 120 57 198 -24 55 -63 71 -168 71 -67 0 -79 -3 -75 -15z m182 -24 c31 -16 44 -47 44 -101 0 -82 -30 -112 -114 -115 l-48 -2 0 118 0 117 49 -3 c26 -1 58 -8 69 -14z"
       id="path144" />
    <path
       d="M1105 4384 c-44 -47 -28 -132 27 -155 34 -14 75 -4 92 23 14 22 0 36 -17 16 -22 -28 -47 -29 -73 -3 -41 41 -32 55 36 55 60 0 60 0 60 29 0 60 -81 82 -125 35z m83 -10 c34 -24 26 -34 -28 -33 -44 1 -48 3 -40 19 9 16 23 27 40 29 3 1 16 -6 28 -15z"
       id="path146" />
    <path
       d="M1260 4400 c-12 -8 -11 -11 8 -16 21 -6 23 -11 20 -73 -2 -45 -7 -66 -15 -66 -7 0 -14 -4 -15 -10 -2 -5 19 -11 46 -13 36 -2 47 0 43 10 -2 7 -10 12 -16 11 -18 -5 -14 112 5 131 18 19 20 19 45 6 16 -9 19 -22 19 -76 0 -36 -4 -63 -9 -60 -5 3 -14 -1 -21 -9 -11 -13 -5 -15 39 -15 40 0 51 3 51 16 0 10 -6 14 -15 10 -12 -4 -15 5 -15 52 0 60 6 76 30 84 36 12 50 -10 50 -77 0 -43 -4 -64 -11 -62 -6 1 -14 -4 -16 -10 -3 -10 10 -13 49 -12 51 0 52 1 31 16 -20 13 -23 24 -23 79 0 44 -5 67 -16 78 -19 20 -54 21 -79 2 -16 -11 -21 -11 -33 0 -16 16 -46 18 -72 4 -13 -7 -21 -7 -25 0 -8 13 -36 13 -55 0z"
       id="path148" />
    <path
       d="M1623 4404 c-17 -7 -17 -34 0 -34 7 0 18 5 23 10 14 14 64 -5 64 -23 0 -9 -15 -17 -36 -20 -47 -8 -74 -33 -74 -69 0 -38 38 -57 82 -40 22 8 35 8 48 0 9 -6 26 -8 36 -4 18 8 18 9 -3 17 -20 7 -23 15 -23 67 0 32 -6 66 -13 76 -13 17 -81 30 -104 20z m87 -114 c0 -23 -6 -33 -22 -39 -49 -18 -81 35 -35 57 41 20 57 15 57 -18z"
       id="path150" />
    <path
       d="M1790 4395 c0 -8 7 -15 15 -15 12 0 15 -14 15 -70 0 -58 -3 -68 -15 -64 -10 4 -15 0 -15 -10 0 -14 9 -17 48 -14 26 2 46 8 44 13 -2 6 -10 9 -18 7 -11 -2 -14 10 -14 57 0 53 3 63 24 76 42 28 56 11 56 -66 0 -46 -4 -68 -11 -66 -6 1 -14 -4 -16 -10 -3 -9 10 -13 46 -13 41 0 49 3 44 16 -3 8 -12 13 -19 10 -11 -4 -14 10 -14 70 0 70 -1 75 -26 86 -19 9 -33 9 -55 1 -16 -6 -29 -7 -29 -2 0 5 -13 9 -30 9 -20 0 -30 -5 -30 -15z"
       id="path152" />
    <path
       d="M786 3865 c3 -8 11 -13 17 -12 9 1 13 -33 15 -115 3 -114 2 -117 -18 -113 -14 3 -20 0 -17 -8 2 -7 27 -13 63 -15 54 -2 57 -1 40 13 -10 8 -23 12 -27 9 -5 -3 -9 19 -9 49 l0 54 33 -1 c25 -1 33 -6 35 -24 2 -12 9 -22 16 -22 17 0 16 112 -1 118 -8 2 -13 -6 -13 -22 0 -23 -4 -26 -35 -26 l-35 0 0 54 0 53 55 -2 c63 -2 65 -3 74 -45 5 -28 28 -45 25 -20 -1 6 -2 28 -2 50 l-2 40 -110 0 c-92 0 -108 -2 -104 -15z"
       id="path154" />
    <path
       d="M1046 3865 c3 -8 11 -13 17 -12 9 1 12 -31 12 -113 0 -82 -3 -114 -12 -113 -6 1 -14 -4 -17 -12 -4 -12 5 -15 49 -15 29 0 57 5 60 10 6 10 -7 14 -32 11 -9 -1 -13 15 -13 53 l0 56 33 -3 c25 -2 33 -8 35 -25 2 -13 9 -21 15 -19 17 5 17 117 0 117 -7 0 -13 -11 -13 -25 0 -22 -4 -25 -35 -25 l-35 0 0 53 0 54 54 -1 c62 -1 66 -4 75 -46 6 -31 27 -44 25 -15 -1 8 -2 31 -3 50 l-1 35 -110 0 c-92 0 -108 -2 -104 -15z"
       id="path156" />
    <path
       d="M1302 3823 c-2 -52 -1 -56 12 -40 8 11 13 27 11 38 -5 23 7 30 51 35 l34 3 0 -120 c0 -90 -3 -119 -12 -118 -24 3 -38 -1 -38 -11 0 -6 28 -10 65 -10 37 0 65 4 65 10 0 10 -3 11 -32 14 -10 1 -13 31 -13 115 l0 114 32 3 c36 3 50 -9 55 -49 3 -28 24 -40 22 -12 -1 8 -2 31 -3 50 l-1 35 -123 0 -124 0 -1 -57z"
       id="path158" />
    <path
       d="M1663 3252 c-13 -2 -23 -10 -23 -18 0 -8 6 -13 13 -11 15 3 23 -63 19 -161 -3 -59 -7 -72 -18 -68 -8 3 -14 -1 -14 -9 0 -11 12 -15 45 -15 35 0 45 4 45 16 0 10 -6 14 -15 10 -13 -5 -15 13 -15 124 0 71 -3 130 -7 132 -5 2 -18 2 -30 0z"
       id="path160" />
    <path
       d="M780 3240 c0 -9 14 -14 33 -11 4 0 7 -51 7 -115 0 -107 -1 -116 -20 -121 -50 -13 -10 -23 94 -23 l114 0 7 51 c9 63 -9 91 -20 30 -4 -22 -11 -44 -17 -47 -6 -4 -37 -8 -69 -9 l-59 -3 0 54 0 54 35 0 c19 0 36 -4 36 -10 1 -5 2 -15 3 -22 0 -6 7 -13 14 -15 9 -4 12 12 12 56 0 62 -14 80 -29 39 -6 -17 -17 -23 -40 -24 l-32 -1 3 51 3 51 50 1 c68 1 72 -1 79 -47 8 -53 28 -51 25 4 -1 23 -5 48 -7 55 -5 15 -222 18 -222 2z"
       id="path162" />
    <path
       d="M1050 3145 c0 -8 7 -15 15 -15 12 0 15 -14 15 -66 0 -57 -3 -67 -20 -71 -34 -9 -11 -23 36 -23 32 0 44 4 41 13 -2 6 -10 11 -16 10 -12 -3 -16 105 -3 123 11 17 35 22 55 12 13 -7 17 -22 17 -73 0 -43 -4 -64 -11 -62 -6 1 -14 -4 -16 -10 -3 -9 9 -13 41 -13 45 0 61 12 31 24 -11 4 -15 22 -15 70 0 92 -28 113 -104 81 -14 -6 -17 -5 -12 3 5 8 -3 12 -23 12 -21 0 -31 -5 -31 -15z"
       id="path164" />
    <path
       d="M1256 3145 c3 -8 11 -13 17 -12 6 1 24 -35 40 -80 16 -46 35 -83 41 -83 7 0 25 38 40 84 21 59 33 83 42 79 8 -3 14 2 14 11 0 12 -10 16 -41 16 -28 0 -39 -4 -36 -12 2 -7 9 -12 15 -11 6 1 5 -15 -4 -42 -24 -81 -30 -84 -49 -26 -13 39 -14 56 -6 64 20 20 12 27 -34 27 -35 0 -43 -3 -39 -15z"
       id="path166" />
    <path
       d="M1489 3134 c-36 -38 -34 -107 4 -140 15 -13 38 -24 50 -24 28 0 67 26 67 46 0 19 -6 18 -29 -5 -31 -31 -70 -14 -85 36 -7 21 -4 22 56 25 61 3 63 4 60 28 -6 58 -81 79 -123 34z m93 -16 c13 -22 9 -25 -37 -26 -34 -2 -45 2 -45 12 0 32 63 42 82 14z"
       id="path168" />
    <path
       d="M1785 3138 c-18 -16 -27 -36 -31 -66 -4 -37 -1 -46 25 -72 37 -37 79 -39 118 -6 23 20 27 32 27 71 0 39 -4 51 -27 71 -35 30 -78 31 -112 2z m97 -17 c12 -11 17 -62 8 -86 -30 -79 -121 -30 -103 56 8 42 63 60 95 30z"
       id="path170" />
    <path
       d="M1950 3145 c0 -8 7 -15 15 -15 15 0 17 -10 17 -95 0 -103 -3 -125 -13 -122 -6 1 -14 -4 -16 -10 -3 -9 9 -13 41 -13 45 0 62 15 31 26 -9 4 -15 19 -15 40 0 31 2 34 19 24 30 -15 66 -12 92 9 20 16 24 29 24 74 0 84 -38 114 -109 87 -17 -6 -26 -6 -26 0 0 6 -13 10 -30 10 -20 0 -30 -5 -30 -15z m162 -50 c14 -32 3 -71 -27 -91 -23 -15 -27 -15 -51 0 -22 15 -25 23 -22 64 2 38 8 49 27 59 30 14 57 2 73 -32z"
       id="path172" />
    <path
       d="M2215 3135 c-29 -28 -34 -97 -10 -132 28 -41 104 -41 126 -1 15 29 2 35 -21 10 -17 -18 -25 -20 -47 -11 -31 12 -43 26 -43 52 0 14 9 17 60 17 56 0 60 1 60 23 0 31 -40 67 -74 67 -15 0 -37 -10 -51 -25z m76 -5 c34 -19 22 -37 -26 -38 -42 -2 -45 -1 -36 17 9 16 22 26 39 30 2 1 12 -4 23 -9z"
       id="path174" />
    <path
       d="M780 2621 c0 -6 9 -11 20 -11 20 0 21 -5 18 -117 -2 -83 -6 -117 -15 -116 -6 1 -14 -4 -17 -12 -4 -12 5 -15 50 -15 40 0 54 4 52 13 -3 6 -11 12 -19 12 -10 0 -15 14 -17 46 l-3 46 36 -2 c41 -2 104 18 116 37 15 23 10 75 -10 99 -17 22 -29 24 -115 27 -65 3 -96 0 -96 -7z m187 -37 c35 -48 -1 -94 -74 -94 l-43 0 0 53 c0 30 3 56 6 59 13 14 98 0 111 -18z"
       id="path176" />
    <path
       d="M1061 2526 c-17 -20 1 -28 34 -16 33 13 31 13 49 -6 19 -19 12 -34 -15 -34 -31 0 -77 -28 -84 -50 -4 -13 0 -31 10 -47 15 -22 21 -24 53 -18 44 8 49 8 85 -1 30 -7 39 11 9 20 -15 5 -19 18 -20 67 -1 75 -19 99 -72 99 -21 0 -43 -6 -49 -14z m95 -96 c2 -42 -41 -69 -72 -45 -22 15 -13 42 18 55 31 12 53 8 54 -10z"
       id="path178" />
    <path
       d="M1243 2533 c-18 -7 -16 -23 2 -23 17 0 16 2 20 -68 1 -43 -2 -56 -17 -65 -30 -19 -21 -27 33 -27 32 0 49 4 47 11 -2 6 -7 10 -12 9 -31 -6 -36 100 -6 130 38 38 61 19 65 -53 2 -55 -4 -80 -21 -77 -5 1 -10 -3 -12 -9 -2 -7 15 -11 47 -11 28 0 51 5 51 10 0 6 -7 10 -15 10 -18 0 -17 -2 -19 77 -1 34 -8 68 -15 77 -15 18 -53 21 -82 6 -13 -7 -19 -7 -19 0 0 10 -25 12 -47 3z"
       id="path180" />
    <path
       d="M798 1983 c21 -14 22 -23 22 -130 0 -64 -4 -112 -9 -109 -5 3 -14 -1 -21 -9 -11 -13 -6 -15 38 -15 28 0 54 5 57 10 6 9 -8 14 -27 11 -5 0 -8 24 -8 54 l0 55 39 0 c48 0 71 -21 71 -64 0 -62 80 -94 89 -36 3 24 3 25 -17 7 -20 -18 -21 -18 -31 2 -6 11 -11 29 -11 41 0 12 -5 30 -10 41 -8 15 -6 26 12 49 21 29 21 33 7 58 -22 40 -55 52 -144 51 -76 0 -79 -1 -57 -16z m161 -27 c20 -18 18 -48 -4 -66 -8 -6 -34 -13 -59 -15 l-46 -3 0 53 0 52 45 -2 c26 -1 53 -9 64 -19z"
       id="path182" />
    <path
       d="M1600 1990 c0 -6 7 -13 15 -16 10 -4 15 -20 15 -44 0 -38 0 -38 -28 -28 -78 30 -134 -49 -98 -136 17 -41 50 -54 96 -38 18 7 30 7 30 1 0 -5 14 -9 30 -9 20 0 30 5 30 15 0 8 -6 14 -12 13 -10 -2 -14 29 -16 125 l-3 127 -29 0 c-17 0 -30 -5 -30 -10z m22 -124 c12 -18 9 -81 -4 -98 -13 -17 -28 -21 -60 -19 -15 1 -27 22 -35 61 -4 24 17 68 35 73 22 6 55 -3 64 -17z"
       id="path184" />
    <path
       d="M1103 1903 c-7 -2 -13 -11 -13 -19 0 -16 26 -19 35 -4 12 19 64 -7 65 -31 0 -4 -17 -9 -37 -13 -21 -3 -46 -13 -57 -21 -23 -17 -24 -61 -2 -83 13 -14 22 -14 58 -5 27 7 47 8 53 2 14 -14 47 -11 42 4 -2 6 -10 11 -16 10 -12 -3 -12 -1 -16 72 -3 65 -2 61 -21 79 -15 15 -65 20 -91 9z m83 -108 c4 -27 -23 -54 -49 -49 -41 7 -43 48 -3 64 31 13 49 8 52 -15z"
       id="path186" />
    <path
       d="M1265 1901 c-3 -6 3 -15 14 -20 16 -9 19 -21 18 -72 -1 -51 -4 -63 -19 -67 -36 -9 -17 -22 33 -22 32 0 49 4 47 11 -2 6 -7 10 -12 9 -16 -3 -23 21 -20 71 3 57 7 65 34 72 35 9 51 -19 48 -82 -2 -36 -7 -55 -15 -54 -6 1 -14 -4 -17 -12 -4 -12 5 -15 45 -15 36 0 49 4 46 13 -2 6 -10 11 -16 10 -6 -2 -11 3 -12 10 0 6 -2 41 -3 76 -2 40 -8 66 -17 72 -19 12 -63 11 -76 -2 -8 -8 -13 -8 -17 0 -9 14 -53 15 -61 2z"
       id="path188" />
    <path
       d="M1757 1899 c-49 -28 -56 -119 -12 -156 69 -59 160 4 140 97 -12 55 -80 87 -128 59z m82 -24 c17 -10 23 -66 11 -95 -25 -61 -101 -37 -103 34 -2 57 47 89 92 61z"
       id="path190" />
    <path
       d="M1914 1901 c-9 -9 -3 -19 15 -24 17 -4 19 -13 17 -68 -1 -40 -6 -63 -13 -62 -6 1 -14 -4 -17 -12 -4 -12 5 -15 44 -15 50 0 67 13 31 25 -15 5 -18 14 -15 61 3 61 9 72 42 79 29 5 39 -16 41 -86 1 -41 -2 -56 -11 -55 -7 0 -15 -3 -18 -9 -3 -6 15 -11 44 -13 36 -2 47 0 44 10 -3 7 -11 13 -18 13 -14 0 -15 11 -11 100 1 30 36 48 64 33 13 -7 17 -22 17 -73 0 -36 -3 -64 -7 -64 -20 3 -34 -2 -28 -11 9 -15 98 -13 92 3 -2 6 -10 11 -16 10 -7 -2 -11 17 -11 55 0 31 -3 67 -6 80 -8 28 -45 38 -83 22 -23 -9 -33 -9 -49 1 -16 10 -29 10 -56 2 -20 -6 -36 -7 -36 -2 0 9 -47 9 -56 0z"
       id="path192" />
    <path
       d="M786 1372 c-3 -5 3 -12 14 -15 19 -5 20 -14 20 -120 0 -86 -3 -114 -12 -113 -7 0 -15 -3 -18 -9 -6 -11 140 -20 177 -10 34 8 53 33 53 71 0 28 -6 38 -32 54 -18 11 -28 20 -21 20 21 0 43 31 43 59 0 49 -31 66 -130 69 -50 2 -90 0 -94 -6z m179 -32 c19 -16 19 -54 0 -70 -9 -7 -38 -14 -65 -15 l-50 -2 0 53 0 52 50 -3 c28 -2 57 -9 65 -15z m9 -126 c20 -20 20 -58 0 -74 -8 -8 -40 -14 -70 -15 l-54 -2 0 53 0 54 54 0 c36 0 60 -5 70 -16z"
       id="path194" />
    <path
       d="M1360 1372 c-28 -9 -50 -35 -50 -59 0 -14 -6 -23 -15 -23 -8 0 -15 -7 -15 -15 0 -9 6 -12 15 -9 13 5 15 -6 15 -70 0 -51 -4 -75 -11 -73 -6 1 -14 -4 -16 -10 -3 -9 9 -13 42 -13 33 0 45 4 42 13 -2 6 -10 11 -16 9 -8 -2 -11 19 -9 70 l3 73 38 1 38 1 -3 -71 c-2 -50 -7 -70 -15 -69 -7 2 -13 -4 -13 -12 0 -11 12 -15 50 -15 28 0 50 5 50 10 0 9 -14 14 -32 11 -5 0 -8 33 -8 74 0 41 3 74 8 74 4 -1 15 -1 25 0 27 2 20 21 -9 21 -22 0 -25 4 -22 28 2 21 8 27 28 27 24 0 30 5 30 23 0 9 -126 12 -150 4z m61 -35 c-1 -4 -1 -16 -1 -27 0 -17 -7 -20 -40 -20 -36 0 -40 2 -40 25 0 17 7 28 23 34 22 8 59 1 58 -12z"
       id="path196" />
    <path
       d="M1060 1280 c-13 -8 -11 -11 8 -16 20 -6 22 -12 22 -73 0 -39 5 -72 12 -79 15 -15 53 -16 79 -2 13 7 19 7 19 0 0 -5 14 -10 30 -10 32 0 40 14 15 24 -12 4 -15 24 -15 86 l0 81 -27 -3 c-28 -3 -45 -28 -19 -28 24 0 22 -101 -2 -123 -17 -15 -45 -18 -57 -5 -3 3 -6 40 -6 82 0 72 -1 76 -22 76 -12 0 -29 -5 -37 -10z"
       id="path198" />
    <path
       d="M1545 1265 c-24 -23 -27 -33 -27 -70 0 -37 3 -47 27 -70 30 -31 73 -32 103 -5 22 21 29 40 14 40 -5 0 -16 -8 -26 -19 -23 -25 -63 -16 -81 19 -8 15 -11 30 -8 34 4 3 33 6 65 6 50 0 58 3 58 19 0 10 -9 30 -21 45 -27 34 -71 35 -104 1z m77 -4 c4 -1 12 -9 17 -20 9 -17 6 -18 -39 -18 -28 0 -50 3 -50 8 0 15 30 37 47 34 10 -2 21 -4 25 -4z"
       id="path200" />
    <path
       d="M1690 1275 c0 -8 6 -15 14 -15 7 0 15 -12 17 -27 6 -43 -5 -118 -16 -115 -5 2 -11 -1 -13 -7 -2 -7 15 -11 47 -11 28 0 51 5 51 10 0 9 -14 14 -32 11 -12 -2 -9 98 3 121 8 14 17 18 34 14 29 -7 40 7 20 24 -12 10 -21 10 -40 2 -15 -7 -25 -8 -25 -2 0 6 -13 10 -30 10 -20 0 -30 -5 -30 -15z"
       id="path202" />
    <path
       d="M780 740 c0 -9 14 -14 33 -11 4 0 7 -51 7 -115 0 -107 -1 -116 -20 -121 -39 -10 -19 -23 36 -23 40 0 55 3 52 13 -3 6 -11 12 -19 12 -11 0 -15 24 -17 113 -3 107 -1 114 18 119 39 10 20 23 -35 23 -30 0 -55 -4 -55 -10z"
       id="path204" />
    <path
       d="M945 635 c-32 -31 -35 -101 -6 -136 28 -35 104 -34 131 1 35 46 21 127 -27 149 -38 18 -72 13 -98 -14z m103 -23 c15 -19 16 -66 2 -93 -7 -13 -21 -19 -45 -19 -40 0 -55 20 -55 74 0 59 62 83 98 38z"
       id="path206" />
    <path
       d="M3218 10809 c-5 -3 -11 -44 -12 -90 -5 -110 -4 -109 -16 -109 -6 0 -28 11 -49 24 -54 34 -80 36 -102 6 -38 -52 -40 -251 -4 -307 20 -31 56 -27 112 12 26 17 40 22 48 14 5 -5 10 -55 11 -110 1 -54 4 -102 7 -106 5 -4 657 -8 713 -4 12 1 14 654 2 667 -9 8 -696 12 -710 3z m690 -333 l-3 -311 -335 0 -335 0 -2 92 c-3 141 -22 159 -110 103 l-48 -31 -17 22 c-19 22 -21 35 -21 134 0 100 2 120 17 140 13 18 16 17 74 -13 34 -18 65 -32 70 -32 17 0 31 54 34 125 1 39 3 73 4 76 2 3 154 6 339 6 l335 0 -2 -311z"
       id="path208" />
    <path
       d="M3521 10593 c-27 -22 -39 -64 -36 -124 5 -90 50 -135 113 -113 54 19 79 123 48 199 -23 55 -82 73 -125 38z m89 -28 c17 -20 18 -133 1 -162 -12 -23 -45 -30 -69 -15 -30 20 -31 164 0 183 21 14 54 10 68 -6z"
       id="path210" />
    <path
       d="M3209 9550 c0 -8 -2 -51 -4 -95 -1 -44 -3 -83 -4 -87 -2 -14 -22 -9 -52 13 -88 62 -126 37 -137 -92 -9 -98 0 -170 23 -206 14 -21 22 -24 47 -19 16 3 42 14 56 24 66 46 71 38 69 -106 l-2 -92 35 -1 c45 -1 660 -1 681 0 14 1 16 37 16 336 0 233 -4 335 -11 336 -6 0 -170 1 -364 2 -307 2 -352 0 -353 -13z m701 -326 l0 -314 -337 3 -338 2 -2 92 c-1 51 -7 101 -13 112 -13 26 -44 27 -78 2 -61 -42 -70 -43 -88 -16 -19 29 -27 187 -12 241 12 46 33 49 95 13 54 -31 55 -31 74 -12 15 15 19 34 21 98 0 44 2 83 4 86 2 3 154 6 339 6 l335 0 0 -313z"
       id="path212" />
    <path
       d="M3540 9343 c-30 -21 -40 -34 -33 -46 3 -4 13 -1 22 7 10 9 21 16 24 16 4 0 7 -43 7 -95 l0 -95 -30 0 c-20 0 -30 -5 -30 -15 0 -12 16 -15 81 -15 60 0 80 3 77 13 -3 6 -18 14 -34 17 l-29 5 0 110 c0 120 -6 132 -55 98z"
       id="path214" />
    <path
       d="M3245 8310 l-40 -5 1 -85 c1 -123 -2 -126 -64 -86 -56 37 -82 37 -107 0 -30 -44 -35 -231 -8 -284 15 -29 23 -35 49 -34 18 1 49 13 70 28 26 18 41 23 49 15 5 -5 10 -55 11 -109 0 -55 3 -103 7 -106 5 -6 885 -9 1035 -5 l22 1 0 335 0 335 -62 1 c-459 3 -931 3 -963 -1z m1000 -335 l0 -310 -505 0 -505 0 -2 93 c-3 137 -20 155 -98 107 -59 -36 -81 -33 -92 13 -8 32 -10 108 -4 203 0 14 7 34 15 44 13 18 16 17 74 -13 90 -47 102 -37 104 89 0 41 2 77 4 81 2 3 230 6 507 5 l502 -2 0 -310z"
       id="path280" />
    <path
       d="M3393 8174 c-50 -25 -61 -62 -62 -198 -1 -88 3 -126 15 -151 29 -61 45 -64 388 -64 418 -1 408 -6 411 205 3 138 -7 173 -55 203 -29 17 -55 19 -348 19 -267 1 -322 -1 -349 -14z m618 -14 c47 0 61 -4 83 -26 25 -26 26 -29 26 -159 0 -130 -1 -133 -26 -159 -26 -25 -31 -26 -138 -26 -382 -2 -539 1 -557 10 -40 22 -45 59 -40 279 1 16 10 39 20 52 17 21 30 25 113 29 51 3 176 4 278 3 102 -1 210 -2 241 -3z"
       id="path282" />
    <path
       d="M3485 8040 c-6 -10 -3 -12 25 -14 16 -1 19 -64 6 -139 -5 -33 -4 -38 11 -35 19 4 31 52 32 129 1 45 1 46 36 46 l35 0 0 -77 c0 -81 9 -100 47 -100 28 0 30 16 5 29 -16 8 -18 21 -17 78 1 44 5 68 13 69 7 1 17 2 22 3 6 0 10 6 10 11 0 6 -43 10 -109 10 -63 0 -112 -4 -116 -10z"
       id="path284" />
    <path
       d="M3209 7045 c-8 -209 -4 -188 -31 -179 -13 3 -34 14 -48 24 -85 58 -123 6 -119 -162 2 -97 18 -154 46 -165 9 -4 39 6 69 21 29 16 59 26 66 24 9 -3 13 -33 14 -107 0 -61 5 -106 11 -109 8 -5 1423 -8 1466 -3 4 1 7 152 7 336 0 261 -3 335 -12 336 -7 0 -340 1 -741 2 -721 2 -727 2 -728 -18z m1441 -11 c13 -3 15 -44 13 -301 -1 -164 -2 -303 -2 -309 -1 -8 -206 -11 -713 -10 l-713 1 -5 100 c-3 55 -9 106 -14 114 -11 17 -58 8 -96 -19 -66 -47 -89 -9 -85 142 3 128 16 151 71 121 71 -39 83 -43 97 -37 19 7 26 38 28 114 1 30 3 62 5 71 4 15 69 16 702 17 383 0 704 -1 712 -4z"
       id="path286" />
    <path
       d="M3405 6930 c-11 -4 -31 -20 -45 -35 -23 -25 -25 -34 -28 -155 -4 -139 6 -180 50 -210 34 -22 1060 -28 1112 -6 59 24 68 51 70 186 2 138 -4 167 -40 201 l-26 24 -536 2 c-295 0 -546 -2 -557 -7z m1091 -31 c12 -6 27 -22 33 -36 14 -31 14 -245 0 -276 -22 -49 -23 -49 -577 -49 -285 0 -528 3 -540 6 -41 13 -54 50 -54 159 0 151 0 153 21 178 16 21 31 25 98 29 154 10 997 1 1019 -11z"
       id="path288" />
    <path
       d="M3516 6837 c-14 -14 -26 -31 -26 -37 0 -18 29 -11 40 10 12 23 59 27 78 8 24 -24 11 -51 -53 -114 -37 -36 -65 -73 -65 -84 0 -18 7 -20 85 -20 71 0 83 2 79 15 -5 11 -22 15 -65 15 -32 0 -59 3 -59 7 0 3 27 31 60 62 48 45 60 63 60 87 0 44 -20 65 -67 71 -35 5 -45 2 -67 -20z"
       id="path290" />
    <path
       d="M3706 6793 c-3 -4 7 -21 24 -38 l31 -32 -32 -34 c-38 -41 -20 -53 22 -13 l29 28 34 -33 c45 -43 61 -22 17 23 l-31 32 30 29 c16 16 30 32 30 37 0 17 -27 7 -48 -17 -12 -14 -26 -25 -30 -25 -5 0 -19 11 -32 25 -25 26 -32 29 -44 18z"
       id="path292" />
    <path
       d="M3900 6784 c0 -10 7 -14 23 -12 25 3 25 -1 14 -112 -6 -49 -4 -60 8 -60 8 0 17 10 19 23 7 32 15 98 16 128 0 22 4 25 33 25 l32 -1 5 -79 c5 -84 19 -106 56 -92 18 7 18 8 -3 24 -18 15 -21 26 -20 82 1 43 6 65 14 65 7 0 18 6 25 13 10 10 -11 12 -105 12 -99 0 -117 -2 -117 -16z"
       id="path294" />
    <path
       d="M3238 5812 c-16 -2 -28 -6 -29 -10 -1 -4 -2 -41 -4 -82 -3 -106 -4 -110 -15 -110 -6 0 -28 11 -49 24 -55 35 -80 36 -104 4 -38 -50 -38 -249 -1 -306 19 -29 55 -25 111 13 26 17 40 22 48 14 5 -5 11 -55 11 -110 1 -55 4 -103 8 -106 4 -5 888 -8 954 -4 9 1 12 75 12 336 0 312 -1 335 -17 336 -67 2 -904 3 -925 1z m915 -36 c2 -6 3 -146 3 -311 l-1 -300 -462 -1 -462 -1 1 92 c0 96 -11 135 -39 135 -8 0 -40 -14 -69 -30 l-53 -31 -17 26 c-28 43 -25 248 4 277 8 8 29 1 73 -22 l63 -32 18 22 c16 20 24 71 18 124 -1 10 1 28 4 40 l6 23 454 0 c322 0 456 -3 459 -11z"
       id="path296" />
    <path
       d="M3393 5674 c-53 -27 -65 -67 -61 -212 3 -138 15 -171 68 -190 40 -14 562 -13 590 1 14 7 34 27 46 44 20 29 21 44 20 167 -1 146 -6 160 -68 192 -42 22 -550 20 -595 -2z m548 -13 c25 -1 44 -9 63 -27 25 -26 26 -30 26 -151 0 -130 -11 -174 -47 -187 -21 -8 -556 -8 -577 0 -36 14 -48 53 -48 162 0 59 1 117 1 128 1 33 32 65 69 72 26 6 310 7 513 3z"
       id="path298" />
    <path
       d="M3543 5501 c-34 -21 -63 -67 -63 -99 0 -24 31 -52 57 -52 12 0 29 8 40 18 10 9 14 14 9 10 -6 -5 -23 -8 -38 -8 -15 0 -28 3 -29 8 0 4 -2 15 -4 24 -2 13 7 20 34 28 44 12 74 41 69 67 -5 25 -37 27 -75 4z m52 -1 c9 -15 -15 -46 -46 -57 -36 -14 -37 -4 -3 36 27 32 39 38 49 21z"
       id="path300" />
    <path
       d="M3229 4560 c-22 -5 -23 -11 -25 -85 -2 -133 0 -131 -63 -91 -54 34 -80 36 -102 6 -38 -51 -40 -251 -4 -307 20 -31 55 -27 112 12 26 17 40 22 48 14 5 -5 11 -49 12 -97 1 -48 2 -96 2 -107 1 -20 8 -20 536 -20 l535 0 0 338 c0 185 -3 337 -7 338 -42 4 -1028 3 -1044 -1z m1022 -29 c4 -25 3 -605 -1 -611 -3 -4 -232 -7 -510 -7 l-505 2 -2 92 c-3 137 -25 160 -101 108 -54 -37 -78 -33 -89 13 -20 82 -3 262 26 262 5 0 34 -13 65 -30 31 -16 63 -27 71 -24 18 7 28 54 27 129 0 33 4 63 10 66 13 8 1008 8 1009 0z"
       id="path302" />
    <path
       d="M3393 4424 c-54 -27 -65 -67 -61 -212 3 -84 9 -134 17 -148 31 -48 37 -49 378 -52 433 -3 425 -7 428 199 1 139 -8 175 -53 206 -33 21 -39 22 -355 22 -270 0 -327 -3 -354 -15z m682 -18 c41 -10 55 -55 55 -180 0 -120 -8 -154 -41 -174 -26 -16 -659 -18 -689 -2 -33 18 -40 44 -41 162 -1 148 -2 142 20 169 18 23 27 24 168 29 173 6 498 3 528 -4z"
       id="path304" />
    <path
       d="M3509 4261 c-23 -18 -28 -65 -10 -99 16 -30 64 -30 85 0 l16 22 16 -22 c18 -26 65 -30 84 -6 17 19 17 78 1 97 -21 26 -52 27 -77 2 -22 -22 -23 -22 -39 -5 -24 26 -52 30 -76 11z m66 -31 c17 -18 17 -21 1 -45 -21 -32 -47 -29 -60 7 -7 19 -6 31 4 42 17 21 33 20 55 -4z m103 8 c17 -17 15 -53 -3 -68 -33 -28 -75 22 -49 58 17 25 34 28 52 10z"
       id="path306" />
    <path
       d="M3213 3306 c-3 -4 -6 -48 -7 -96 -1 -49 -5 -92 -9 -96 -7 -7 -24 0 -86 35 -69 40 -99 -9 -99 -158 0 -105 7 -141 32 -167 20 -20 33 -18 92 16 40 22 55 26 61 17 4 -6 8 -59 9 -116 l1 -104 1474 1 c811 0 1483 1 1494 1 20 1 20 8 20 330 0 181 -3 333 -8 337 -10 10 -2968 11 -2974 0z m1925 -101 c-1 -46 -6 -86 -9 -89 -3 -4 -34 8 -69 26 l-62 32 -23 -27 c-29 -33 -39 -93 -33 -202 5 -91 24 -135 59 -135 12 0 43 12 70 28 63 34 69 27 69 -89 l0 -86 -953 0 -953 -1 -2 88 c-3 143 -24 167 -100 115 -72 -49 -94 -26 -97 105 -3 147 15 187 68 156 113 -67 128 -57 129 87 0 34 2 65 4 69 2 3 432 6 955 6 l951 0 -4 -83z m1032 -229 l0 -313 -487 -1 c-269 0 -495 2 -503 4 -12 3 -15 23 -16 99 -2 133 -20 150 -106 96 -37 -24 -49 -27 -62 -18 -43 33 -38 297 6 297 6 0 34 -14 63 -30 81 -47 97 -31 101 100 1 41 2 76 3 77 1 1 226 2 501 2 l500 0 0 -313z"
       id="path308" />
    <path
       d="M3387 3172 c-44 -27 -55 -65 -56 -195 -2 -136 11 -176 62 -200 47 -23 1328 -25 1381 -3 55 23 66 56 66 202 0 145 -14 184 -73 203 -21 7 -266 10 -693 10 -590 -1 -663 -3 -687 -17z m1396 -31 c26 -21 34 -67 32 -190 -2 -111 -2 -115 -29 -138 -25 -22 -35 -23 -159 -23 -73 0 -373 -1 -668 -2 -389 0 -541 2 -557 11 -38 20 -45 49 -45 178 0 115 7 147 36 175 6 6 966 12 1158 8 161 -4 220 -8 232 -19z"
       id="path310" />
    <path
       d="M3610 3068 c0 -40 -3 -49 -12 -40 -17 17 -63 15 -78 -3 -21 -26 -24 -107 -6 -143 13 -24 23 -32 44 -32 16 0 33 5 40 12 9 9 12 9 12 0 0 -7 6 -12 14 -12 10 0 13 28 13 135 0 107 -3 135 -13 135 -10 0 -14 -15 -14 -52z m-10 -67 c5 -11 10 -36 10 -56 0 -66 -38 -98 -71 -59 -16 19 -15 99 1 119 17 21 47 19 60 -4z"
       id="path312" />
    <path
       d="M3669 3083 c-2 -142 0 -225 5 -230 14 -14 91 -2 110 16 27 27 26 89 -2 111 -19 16 -19 18 -5 33 22 22 21 76 -2 93 -10 8 -38 14 -62 14 -43 0 -43 0 -44 -37z m89 3 c33 -20 -5 -88 -46 -82 -17 3 -29 54 -18 81 5 14 43 14 64 1z m6 -122 c35 -35 6 -94 -46 -94 -27 0 -28 1 -28 55 0 54 0 55 29 55 16 0 37 -7 45 -16z"
       id="path314" />
    <path
       d="M4236 3042 c-3 -5 8 -22 24 -37 l30 -29 -31 -32 c-44 -45 -28 -66 17 -23 l34 33 34 -33 c43 -42 57 -24 17 22 l-30 34 29 28 c17 16 30 32 30 37 0 16 -25 7 -52 -19 l-28 -27 -28 27 c-30 29 -38 32 -46 19z"
       id="path316" />
    <path
       d="M4076 2935 c5 -13 -8 -15 -82 -15 -104 0 -104 -14 -1 -17 94 -2 90 -1 83 -18 -7 -20 -1 -19 28 6 l25 22 -24 18 c-28 23 -36 24 -29 4z"
       id="path318" />
    <path
       d="M5585 3098 c-23 -13 -35 -28 -35 -45 0 -20 24 -15 38 7 15 24 67 27 76 4 13 -33 4 -51 -59 -116 -88 -91 -86 -98 20 -98 69 0 85 3 85 15 0 12 -14 15 -67 15 l-68 0 50 49 c67 64 75 75 81 105 10 54 -67 95 -121 64z"
       id="path320" />
    <path
       d="M5790 3019 c-33 -50 -57 -95 -54 -100 3 -5 29 -9 59 -9 55 0 71 -13 59 -45 -4 -10 0 -15 16 -15 14 0 21 6 19 18 -3 32 1 42 16 42 8 0 15 7 15 15 0 10 -7 15 -17 13 -16 -3 -18 7 -17 85 0 118 -16 118 -96 -4z m64 -11 c-1 -29 -3 -58 -3 -63 -1 -8 -59 -12 -79 -6 -3 1 77 121 81 121 1 0 1 -24 1 -52z"
       id="path322" />
    <path
       d="M5420 2945 c0 -11 12 -15 45 -15 33 0 45 4 45 15 0 11 -12 15 -45 15 -33 0 -45 -4 -45 -15z"
       id="path324" />
    <path
       d="M3227 2062 c-9 -2 -17 -9 -18 -15 0 -7 -2 -49 -3 -94 -1 -45 -5 -85 -8 -89 -4 -3 -28 6 -55 20 -67 35 -82 36 -107 3 -18 -25 -21 -44 -23 -141 -3 -159 24 -210 94 -173 16 8 41 21 58 30 16 9 31 14 34 11 3 -3 6 -52 8 -111 1 -58 4 -107 7 -110 3 -4 1064 -7 1113 -4 9 1 12 83 12 336 0 184 -3 335 -7 336 -23 2 -1091 3 -1105 1z m1083 -243 c1 -120 1 -257 1 -304 0 -47 0 -89 -1 -93 0 -9 -1030 -14 -1061 -6 -12 3 -15 22 -17 94 -1 95 -12 130 -39 130 -8 0 -39 -13 -67 -29 -28 -17 -57 -27 -63 -23 -18 11 -30 79 -28 152 4 108 5 116 19 135 13 18 16 17 77 -14 l63 -33 18 22 c10 12 18 37 19 56 0 19 1 53 1 77 0 23 2 45 4 48 1 3 244 6 538 6 l536 1 0 -219z"
       id="path326" />
    <path
       d="M3394 1924 c-50 -24 -58 -48 -62 -186 -4 -146 7 -186 62 -212 45 -21 715 -22 756 -1 53 27 60 52 60 200 0 148 -7 173 -59 199 -39 20 -716 20 -757 0z m753 -29 c36 -24 41 -49 39 -183 -1 -117 -2 -123 -27 -148 l-27 -26 -354 0 c-250 -1 -361 3 -376 11 -36 19 -44 49 -44 155 1 148 1 149 22 176 25 33 61 36 439 33 258 -2 307 -5 328 -18z"
       id="path328" />
    <path
       d="M3503 1848 c2 -8 23 -13 58 -13 l54 0 2 -100 c2 -136 2 -135 13 -135 5 0 11 50 12 118 l3 117 54 0 c35 0 56 5 58 13 4 9 -26 12 -127 12 -101 0 -131 -3 -127 -12z"
       id="path330" />
    <path
       d="M3240 812 l-35 -3 1 -88 c1 -49 -2 -95 -6 -101 -6 -9 -20 -6 -56 13 -68 36 -83 37 -107 5 -38 -50 -38 -249 -1 -306 19 -29 55 -25 111 13 26 17 40 22 48 14 5 -5 11 -55 11 -110 1 -55 4 -103 8 -106 4 -5 973 -8 1098 -4 l27 1 0 335 -1 335 -21 1 c-66 2 -1048 4 -1077 1z m1070 -99 c1 -40 1 -111 1 -158 0 -47 0 -154 -1 -239 l0 -154 -539 1 -538 1 -1 93 c-2 141 -16 155 -106 104 -29 -17 -57 -27 -64 -22 -16 10 -32 105 -28 166 2 28 5 62 5 76 1 14 7 34 15 44 13 19 16 18 76 -14 61 -31 64 -32 81 -14 14 14 19 36 20 98 1 44 3 83 5 86 2 3 244 6 539 6 l535 0 0 -74z"
       id="path332" />
    <path
       d="M3405 680 c-11 -4 -31 -20 -45 -35 -24 -25 -25 -34 -28 -155 -4 -140 6 -181 50 -210 33 -21 729 -25 770 -4 52 27 58 46 58 200 0 161 -9 185 -78 203 -44 12 -698 13 -727 1z m682 -19 c29 -1 50 -8 70 -25 28 -24 28 -25 29 -156 2 -130 1 -133 -25 -162 l-26 -29 -357 0 c-369 0 -387 2 -408 41 -9 16 -14 153 -11 258 1 27 44 70 74 74 17 2 420 2 654 -1z"
       id="path334" />
    <path
       d="M3619 588 c0 -13 -1 -66 -2 -118 l-2 -95 -30 -1 c-16 -1 -42 -2 -57 -3 -16 -1 -28 -5 -28 -11 0 -6 50 -10 130 -10 100 0 130 3 130 13 0 10 -16 12 -60 9 l-60 -4 0 121 c0 74 -4 121 -10 121 -5 0 -10 -10 -11 -22z"
       id="path336" />
  </g>
</svg>
