<?xml version="1.0" standalone="no"?>
<!DOCTYPE svg PUBLIC "-//W3C//DTD SVG 20010904//EN"
 "http://www.w3.org/TR/2001/REC-SVG-20010904/DTD/svg10.dtd">
<svg version="1.0" xmlns="http://www.w3.org/2000/svg"
 width="964.000000pt" height="228.000000pt" viewBox="0 0 964.000000 228.000000"
 preserveAspectRatio="xMidYMid meet">
<metadata>
Created by potrace 1.16, written by Peter Selinger 2001-2019
</metadata>
<g transform="translate(0.000000,228.000000) scale(0.100000,-0.100000)"
fill="#000000" stroke="none">
<path d="M665 1560 c-11 -4 -37 -6 -57 -3 l-38 4 0 -113 c0 -62 -4 -119 -9
-126 -6 -10 -24 -5 -78 24 -119 61 -146 32 -149 -164 -3 -142 9 -200 47 -221
26 -14 45 -8 143 45 41 23 46 10 46 -138 l0 -127 668 0 c367 0 1006 -1 1421
-1 477 -1 758 3 764 9 11 11 12 193 2 243 -15 70 -41 74 -126 21 -53 -32 -62
-35 -75 -22 -24 24 -29 57 -29 184 1 176 16 193 122 131 31 -19 63 -31 70 -29
29 11 43 61 44 155 1 51 1 100 0 109 -1 13 -21 15 -153 14 -84 0 -159 3 -165
8 -7 5 -13 6 -13 1 0 -5 -52 -9 -115 -9 -63 0 -115 4 -115 8 0 5 -5 5 -12 1
-13 -8 -878 -12 -878 -4 0 3 -24 4 -52 2 -29 -1 -100 -2 -158 -2 -58 1 -112 1
-120 1 -8 0 -62 0 -120 0 -58 0 -112 0 -120 0 -8 -1 -62 -1 -120 0 -58 0 -112
0 -120 0 -8 0 -62 0 -120 0 -58 0 -112 0 -120 0 -56 -3 -232 -1 -238 2 -4 3
-16 1 -27 -3z m1338 -39 c15 -1 17 -13 17 -101 0 -93 -1 -100 -20 -100 -10 0
-41 14 -67 30 -106 67 -146 17 -147 -185 -1 -84 3 -121 17 -158 26 -67 51 -71
138 -24 81 44 79 46 79 -98 0 -73 -4 -104 -12 -107 -11 -3 -1337 -2 -1390 1
-16 1 -18 13 -18 109 0 129 -11 158 -58 155 -18 0 -47 -12 -65 -25 -83 -63
-107 -38 -112 116 -3 111 7 182 29 204 11 12 19 11 47 -4 19 -9 46 -26 60 -36
34 -25 70 -20 86 12 7 15 13 63 13 117 l0 92 43 3 c35 2 1305 1 1360 -1z
m1385 0 c11 -1 13 -22 10 -96 -4 -119 -11 -128 -75 -87 -85 54 -118 51 -144
-10 -22 -52 -19 -293 3 -335 27 -48 48 -49 128 -9 86 44 89 42 87 -104 l-2
-105 -655 0 c-360 -1 -662 1 -670 3 -12 2 -15 22 -15 100 1 183 -24 204 -151
122 -17 -11 -39 -18 -48 -14 -50 19 -52 338 -3 357 8 3 42 -10 77 -29 35 -19
71 -34 80 -34 30 0 44 46 44 143 1 80 3 93 19 97 14 4 1260 5 1315 1z"/>
<path d="M795 1387 c-66 -33 -75 -62 -75 -232 0 -165 9 -200 63 -239 27 -20
41 -21 400 -22 420 0 424 0 463 72 19 35 21 54 20 194 -1 168 -4 177 -61 222
-29 22 -30 23 -402 23 -342 1 -375 -1 -408 -18z m757 -16 c10 0 32 -14 50 -29
l31 -29 2 -141 c1 -157 -7 -195 -48 -226 -27 -20 -40 -21 -390 -22 -396 0
-403 1 -433 58 -19 37 -20 285 -1 331 13 29 39 49 75 59 11 3 672 2 714 -1z"/>
<path d="M910 1283 c0 -10 25 -43 56 -74 l56 -57 -43 -48 c-24 -27 -50 -55
-56 -62 -7 -7 -13 -22 -13 -33 0 -18 8 -19 115 -19 104 0 115 2 115 18 0 16
-10 18 -90 17 -49 0 -90 2 -90 5 1 3 23 30 50 60 28 30 50 60 50 65 0 6 -20
31 -45 55 -25 24 -45 47 -45 50 0 3 30 5 68 5 63 -2 92 7 92 26 0 5 -49 9
-110 9 -97 0 -110 -2 -110 -17z"/>
<path d="M2259 1393 c-71 -30 -82 -60 -84 -231 -1 -145 7 -196 38 -227 39 -39
71 -42 409 -40 313 1 329 2 355 21 54 39 63 74 63 237 0 165 -7 189 -62 229
-33 23 -34 23 -361 23 -240 0 -337 -3 -358 -12z m699 -33 c45 -29 54 -69 50
-223 -3 -123 -6 -146 -23 -169 -11 -15 -29 -31 -40 -34 -37 -13 -644 -11 -675
3 -55 23 -62 48 -63 213 -1 136 1 153 20 178 11 15 34 32 51 37 18 6 155 10
344 10 254 -1 317 -4 336 -15z"/>
<path d="M2350 1296 c0 -11 10 -14 35 -12 l35 4 0 -99 c0 -80 3 -99 15 -99 11
0 15 20 17 97 l3 97 29 1 c16 0 31 6 34 13 3 9 -18 12 -82 12 -68 0 -86 -3
-86 -14z"/>
</g>
</svg>
