<?xml version="1.0" standalone="no"?>
<!DOCTYPE svg PUBLIC "-//W3C//DTD SVG 20010904//EN"
 "http://www.w3.org/TR/2001/REC-SVG-20010904/DTD/svg10.dtd">
<svg version="1.0" xmlns="http://www.w3.org/2000/svg"
 width="1672.000000pt" height="1115.000000pt" viewBox="0 0 1672.000000 1115.000000"
 preserveAspectRatio="xMidYMid meet">
<metadata>
Created by potrace 1.16, written by Peter Selinger 2001-2019
</metadata>
<g transform="translate(0.000000,1115.000000) scale(0.100000,-0.100000)"
fill="#000000" stroke="none">
<path d="M443 10849 c-84 -15 -173 -104 -190 -188 -3 -20 -7 -91 -7 -158 0
-73 -4 -119 -10 -116 -5 4 -6 1 0 -8 12 -19 13 -160 1 -152 -6 4 -7 1 -1 -8
12 -19 13 -799 0 -792 -5 4 -6 1 0 -8 12 -19 13 -160 1 -152 -6 4 -7 1 -1 -8
12 -19 13 -799 0 -792 -5 4 -6 1 0 -8 12 -19 13 -160 1 -152 -6 4 -7 1 -1 -8
12 -19 13 -799 0 -792 -5 4 -6 1 0 -8 12 -19 13 -160 1 -152 -6 4 -7 1 -1 -8
12 -19 13 -799 0 -792 -5 4 -6 1 0 -8 12 -19 13 -160 1 -152 -6 4 -7 1 -1 -8
12 -19 13 -799 0 -792 -5 4 -6 1 0 -8 12 -19 13 -160 1 -152 -6 4 -7 1 -1 -8
12 -19 13 -799 0 -792 -5 4 -6 1 0 -8 12 -19 13 -160 1 -152 -6 4 -7 1 -1 -8
12 -19 13 -799 0 -792 -5 4 -6 1 0 -8 12 -19 13 -160 1 -152 -6 4 -7 1 -1 -8
12 -19 13 -799 0 -792 -5 4 -6 1 0 -8 12 -19 13 -160 1 -152 -6 4 -7 1 -1 -8
12 -19 13 -799 0 -792 -5 4 -6 1 0 -8 12 -19 13 -160 1 -152 -6 4 -7 1 -1 -8
12 -19 13 -799 0 -792 -5 4 -6 1 0 -8 13 -21 13 -159 0 -152 -6 3 -5 0 1 -8
18 -19 16 -49 -4 -65 -14 -11 -15 -13 -2 -9 13 5 16 -3 17 -41 3 -61 30 -122
76 -166 59 -58 96 -71 208 -72 54 0 98 -5 98 -9 0 -5 5 -5 12 -1 17 11 381 11
396 1 6 -5 12 -6 12 -1 0 11 452 10 469 0 6 -4 11 -4 11 1 0 10 1092 9 1108
-1 7 -4 12 -4 12 1 0 10 452 9 468 -1 7 -4 12 -4 12 1 0 10 132 9 148 -1 7 -4
12 -4 12 1 0 10 452 9 468 -1 15 -9 13 -153 14 1192 l1 1152 26 1 c14 1 97 1
184 1 l157 0 0 122 c0 66 0 417 0 779 l0 657 47 1 c27 0 233 1 458 1 l410 1
-1 388 c-1 284 1 389 10 390 6 0 88 1 181 2 l170 2 3 388 c2 359 3 387 20 388
9 1 36 1 60 1 l42 -1 0 95 c0 52 1 226 1 388 0 221 3 295 12 298 21 7 274 1
286 -6 6 -4 11 -4 11 1 0 10 132 9 148 -1 7 -4 12 -4 12 1 0 4 89 7 197 5 109
-1 203 -2 208 -2 294 3 374 2 383 -4 7 -4 12 -4 12 1 0 10 132 9 148 -1 7 -4
12 -4 12 1 0 4 80 7 177 5 98 -1 189 -2 203 -1 135 5 398 2 408 -5 7 -5 12 -5
12 0 0 11 131 11 148 0 7 -4 12 -4 12 1 0 4 89 7 197 5 109 -1 203 -2 208 -2
294 3 374 2 383 -4 7 -4 12 -4 12 1 0 10 132 9 148 -1 7 -4 12 -4 12 1 0 4 80
7 177 5 98 -1 189 -2 203 -1 135 5 398 2 408 -5 7 -5 12 -5 12 0 0 11 131 11
148 0 7 -4 12 -4 12 1 0 4 89 7 197 5 109 -1 203 -2 208 -2 294 3 374 2 383
-4 7 -4 12 -4 12 1 0 10 132 9 148 -1 7 -4 12 -4 12 1 0 4 80 7 177 5 98 -1
189 -2 203 -1 135 5 398 2 408 -5 7 -5 12 -5 12 0 0 11 131 11 148 0 7 -4 12
-4 12 1 0 4 89 7 197 5 109 -1 203 -2 208 -2 294 3 374 2 383 -4 7 -4 12 -4
12 1 0 10 132 9 148 -1 7 -4 12 -4 12 1 0 4 80 7 177 5 98 -1 189 -2 203 -1
135 5 398 2 408 -5 7 -5 12 -5 12 0 0 11 131 11 148 0 7 -4 12 -4 12 1 0 4 89
7 197 5 109 -1 203 -2 208 -2 294 3 374 2 383 -4 7 -4 12 -4 12 1 0 10 132 9
148 -1 7 -4 12 -4 12 1 0 4 80 7 177 5 98 -1 189 -2 203 -1 14 0 345 1 735 2
l710 2 0 705 0 705 -733 0 -732 0 0 30 c-1 17 -1 326 -1 687 l0 658 -22 4
c-12 3 -2432 5 -5377 5 -2945 -1 -5365 0 -5377 0 l-23 1 0 388 0 389 -637 0
-638 0 -5 389 -5 389 -885 1 -885 1 -88 -59 c-67 -45 -98 -60 -125 -60 -38 -1
-92 19 -92 34 0 4 -5 8 -11 8 -5 0 -36 17 -67 38 l-57 39 -115 0 c-63 -1 -134
-4 -157 -8z m353 -85 c77 -51 96 -58 139 -59 45 -1 59 5 140 59 l90 61 135 -2
c74 0 138 -2 143 -2 10 -1 9 -183 -2 -200 -7 -11 -18 -8 -58 16 -60 37 -87 46
-112 38 -31 -10 -53 -81 -57 -180 -7 -223 43 -284 167 -204 41 26 52 30 60 18
5 -8 8 -2086 6 -5014 l-2 -4999 -496 0 -496 1 -54 29 c-33 18 -65 46 -84 72
l-30 44 -2 5106 -2 5107 22 45 c28 54 100 108 157 118 23 4 88 7 144 6 l102
-1 90 -59z m2098 46 c2 -8 3 -228 2 -488 -1 -330 -5 -475 -13 -483 -8 -8 -27
-2 -70 25 -65 40 -92 44 -116 18 -30 -33 -39 -77 -39 -197 0 -120 8 -163 39
-197 24 -26 51 -22 117 18 41 24 62 32 69 25 15 -15 15 -5557 0 -5572 -8 -8
-28 -1 -70 25 -69 43 -95 45 -122 10 -26 -33 -34 -74 -34 -188 -1 -111 7 -156
34 -190 27 -35 53 -33 123 10 39 23 62 32 69 25 13 -13 14 -458 0 -472 -7 -7
-29 1 -69 25 -66 40 -93 44 -117 18 -30 -33 -39 -77 -39 -197 0 -120 8 -163
39 -197 24 -26 51 -22 116 18 42 26 62 33 70 25 14 -14 14 -458 0 -472 -7 -7
-29 1 -69 25 -70 43 -96 45 -123 10 -26 -33 -34 -77 -35 -179 0 -106 11 -168
35 -199 27 -35 53 -33 122 10 42 26 62 33 69 26 14 -14 15 -459 1 -473 -7 -7
-30 2 -69 25 -70 43 -96 45 -123 10 -27 -34 -35 -78 -35 -189 1 -111 9 -156
35 -189 27 -35 53 -33 122 10 41 26 62 33 69 26 15 -15 15 -459 0 -474 -7 -7
-27 0 -69 26 -69 43 -95 45 -122 10 -27 -34 -35 -78 -35 -189 1 -111 9 -156
35 -189 27 -35 53 -33 122 10 37 23 62 33 68 27 11 -11 18 -208 8 -225 -5 -8
-183 -12 -703 -12 -383 -1 -697 1 -697 4 -1 3 -2 2255 -3 5005 -1 4369 -3
5003 -16 5023 -19 29 -45 28 -100 -4 -84 -48 -89 -49 -107 -6 -11 26 -15 69
-15 147 1 107 11 162 35 177 6 4 40 -8 73 -27 72 -40 84 -42 109 -15 14 16 18
38 19 117 1 67 5 100 13 103 7 3 323 5 703 5 605 0 691 -2 694 -15z m1276
-772 c11 -14 4 -968 -7 -979 -7 -7 -29 1 -69 25 -66 40 -93 44 -117 18 -27
-30 -37 -71 -41 -166 -5 -151 25 -246 78 -246 11 0 47 16 79 36 41 25 62 33
69 26 15 -15 14 -1060 0 -1074 -8 -8 -25 -2 -59 20 -90 57 -129 51 -154 -26
-13 -40 -17 -195 -6 -264 9 -55 40 -98 70 -98 12 0 48 16 80 36 42 26 62 33
69 26 15 -15 15 -1059 1 -1073 -7 -7 -26 -1 -59 20 -121 74 -160 41 -168 -140
-6 -151 20 -239 73 -247 14 -2 48 12 83 33 41 26 63 34 70 27 14 -14 14 -460
0 -474 -8 -8 -26 -1 -59 20 -123 79 -165 38 -166 -162 -1 -121 7 -165 34 -200
27 -35 53 -33 122 10 41 25 62 33 69 26 14 -14 14 -460 1 -473 -6 -6 -32 3
-71 26 -34 21 -70 35 -83 33 -53 -8 -80 -100 -73 -252 8 -176 49 -209 167
-134 29 19 52 27 57 22 5 -5 11 -60 12 -122 l3 -112 -623 2 -623 3 0 2645 c0
2001 -3 2654 -12 2680 -16 48 -43 49 -121 5 -58 -32 -66 -34 -79 -20 -22 21
-30 87 -25 209 3 83 7 108 22 125 20 22 31 20 95 -21 62 -39 88 -37 107 7 8
19 14 38 13 42 -1 5 -1 43 0 85 1 71 3 77 24 80 47 7 1212 3 1217 -4z m10800
-780 c3 -3 5 -305 5 -670 l0 -663 -5382 -3 -5383 -2 0 102 c-1 533 -4 698 -12
725 -13 50 -44 52 -120 9 -35 -19 -69 -32 -75 -28 -24 15 -32 66 -30 191 2
111 5 132 21 150 l19 21 63 -35 c34 -19 72 -35 84 -35 31 0 48 50 48 146 -1
45 2 85 5 90 6 10 10749 13 10757 2z m1465 -2048 l0 -674 -6108 1 c-3359 0
-6110 3 -6113 5 -2 3 -5 182 -5 399 -1 420 -5 461 -46 467 -12 2 -51 -13 -85
-32 -72 -40 -85 -37 -98 20 -13 53 -12 221 1 267 14 51 34 52 106 6 90 -56
114 -35 120 106 2 49 6 95 7 100 2 7 2048 10 6112 9 l6109 0 0 -674z m-10930
-1079 l0 -373 -645 2 c-354 0 -645 2 -647 3 -1 2 -3 43 -3 93 -3 177 -23 199
-132 139 -59 -32 -67 -34 -81 -20 -35 34 -37 296 -3 334 20 22 27 20 99 -23
87 -52 113 -24 115 123 0 46 5 87 10 90 6 3 297 6 649 5 l638 0 0 -373z m-134
-410 c15 -1 16 -36 16 -371 l0 -370 -26 -1 c-66 -2 -1146 3 -1149 5 -1 2 -4
52 -5 112 -5 166 -21 181 -132 119 -58 -33 -64 -34 -79 -20 -9 9 -16 22 -17
28 0 7 -3 21 -5 32 -8 38 -4 208 6 246 15 53 34 55 110 7 35 -22 56 -29 74
-24 35 9 43 38 45 171 l1 70 572 -2 c315 0 580 -2 589 -2z m-368 -780 c16 -1
17 -26 17 -371 0 -203 -3 -370 -7 -371 -5 0 -187 -2 -406 -2 l-397 -2 0 45
c-1 89 -8 185 -15 203 -14 33 -50 31 -118 -7 -58 -33 -67 -35 -80 -21 -21 20
-30 105 -25 220 3 74 8 98 22 114 l19 21 63 -35 c107 -60 123 -48 131 104 3
53 9 98 13 101 7 4 720 5 783 1z m-896 -1149 l2 -372 -589 0 -590 0 -1 93 c-1
50 -1 95 0 100 1 4 -5 23 -13 42 -19 45 -43 45 -116 2 -30 -18 -61 -32 -69
-32 -24 0 -39 66 -40 175 -1 188 17 212 116 149 96 -60 121 -33 122 136 l1 80
587 -1 588 -1 2 -371z m-10 -411 c9 -1 12 -89 10 -373 l-2 -372 -585 3 c-322
1 -585 3 -586 4 -1 1 -4 52 -6 112 -5 115 -17 155 -47 155 -10 0 -43 -13 -73
-29 -77 -42 -87 -42 -104 -3 -10 24 -13 69 -11 162 2 108 5 131 20 148 21 23
28 22 100 -22 87 -52 114 -23 115 121 0 45 2 85 5 90 4 6 1098 10 1164 4z
m-369 -780 c9 -1 12 -82 12 -371 l0 -370 -405 0 -405 0 0 53 c-1 165 -13 217
-50 217 -11 0 -50 -16 -86 -35 -41 -22 -71 -32 -76 -27 -26 26 -38 223 -18
306 14 63 29 65 109 14 62 -39 88 -37 107 7 8 19 14 38 13 42 -1 5 -1 43 0 85
1 71 3 77 24 80 18 2 736 2 775 -1z m-10 -780 l22 -1 0 -370 0 -370 -406 2
-407 3 1 95 c2 111 -13 164 -46 168 -12 2 -48 -11 -80 -30 -31 -18 -64 -33
-72 -33 -28 0 -42 72 -38 202 3 100 7 125 22 142 20 22 31 20 95 -21 98 -62
119 -31 121 177 l0 40 383 -1 c210 -1 392 -2 405 -3z m15 -780 c4 -1 7 -167 7
-371 0 -203 -3 -370 -7 -371 -5 0 -187 -2 -406 -2 l-397 -2 -1 90 c-1 139 -13
185 -48 185 -10 0 -49 -16 -86 -35 -38 -20 -72 -32 -77 -27 -19 19 -27 82 -25
197 2 103 5 126 20 143 21 23 31 21 96 -20 94 -59 119 -31 120 137 l1 80 397
-2 c219 0 401 -2 406 -2z"/>
<path d="M609 5667 c-5 -9 -2 -257 2 -257 4 0 40 14 80 31 41 16 97 39 126 50
57 22 76 39 64 57 -6 10 -269 125 -272 119z m119 -89 c42 -17 79 -33 81 -35 8
-6 -6 -14 -86 -47 l-79 -33 0 74 c0 40 1 73 3 73 2 0 38 -14 81 -32z"/>
<path d="M1859 10568 c0 -18 -1 -54 -1 -80 1 -51 3 -50 -65 -51 -12 0 -23 -8
-26 -18 -5 -18 8 -19 304 -19 295 0 309 1 309 19 0 15 -7 18 -41 17 -22 -1
-43 2 -46 8 -4 5 -6 43 -6 83 1 71 0 73 -23 73 -23 0 -24 -2 -24 -79 0 -79 -7
-94 -37 -84 -9 3 -13 30 -13 85 0 77 -1 79 -22 76 -22 -3 -23 -8 -23 -78 1
-77 -5 -91 -34 -83 -14 4 -17 17 -17 81 1 72 0 77 -21 80 -22 3 -23 1 -23 -77
0 -45 -3 -81 -7 -82 -5 0 -16 -2 -25 -4 -16 -3 -18 6 -18 82 0 82 -1 84 -22
81 -21 -3 -23 -8 -24 -74 -1 -80 -6 -94 -34 -87 -16 4 -19 14 -19 57 2 100 0
106 -21 106 -16 0 -20 -7 -21 -32z"/>
<path d="M1810 7075 c0 -18 5 -25 20 -25 15 0 20 7 20 25 0 18 -5 25 -20 25
-15 0 -20 -7 -20 -25z"/>
<path d="M1828 3962 c-16 -3 -18 -21 -18 -198 0 -187 1 -194 20 -194 19 0 20
7 20 180 l0 180 25 0 c34 0 32 27 -2 32 -16 2 -36 2 -45 0z"/>
<path d="M1940 3665 l0 -35 134 0 134 0 0 35 c0 19 -4 35 -9 35 -5 0 -9 -11
-9 -25 l0 -25 -115 0 -115 0 0 25 c0 14 -4 25 -10 25 -5 0 -10 -16 -10 -35z"/>
<path d="M1770 2885 l0 -36 133 3 132 3 -1 25 c-1 14 -2 29 -3 34 -2 15 -16
-4 -16 -22 0 -15 -15 -17 -112 -20 l-113 -3 0 26 c0 14 -4 25 -10 25 -5 0 -10
-16 -10 -35z"/>
<path d="M1836 2313 c-3 -4 35 -49 86 -100 91 -91 92 -93 61 -93 -27 0 -43
-14 -43 -36 0 -3 30 -4 68 -2 l67 3 3 67 c3 63 2 66 -18 61 -15 -4 -20 -14
-20 -36 0 -31 -2 -30 -88 56 -84 84 -101 95 -116 80z"/>
<path d="M1812 1528 c-10 -10 -4 -20 25 -50 l37 -38 -37 -38 c-29 -30 -34 -41
-25 -50 9 -9 20 -4 50 25 l38 37 38 -37 c28 -27 41 -34 49 -26 8 8 2 20 -23
45 -19 19 -34 38 -34 41 0 4 14 22 31 39 22 22 30 38 25 50 -6 15 -12 12 -44
-19 -21 -20 -41 -37 -44 -37 -4 0 -22 16 -40 35 -26 28 -36 33 -46 23z"/>
<path d="M1880 720 l0 -50 -45 0 c-33 0 -45 -4 -45 -15 0 -11 12 -15 45 -15
l45 0 0 -46 c0 -38 3 -45 18 -42 13 2 17 13 17 46 l0 42 48 0 c61 0 60 24 -1
28 -23 2 -42 8 -43 15 -5 51 -6 64 -7 75 -1 6 -9 12 -17 12 -11 0 -15 -12 -15
-50z"/>
<path d="M3220 9812 c-6 -2 -10 -69 -10 -173 l0 -169 135 0 134 0 0 170 c-1
120 -4 170 -13 171 -35 3 -238 3 -246 1z m238 -170 l3 -152 -36 -1 c-19 0 -51
-1 -70 -1 -19 0 -55 1 -80 1 l-45 1 0 153 0 152 112 -1 113 0 3 -152z"/>
<path d="M3294 9719 c-28 -14 -54 -61 -54 -98 0 -20 10 -42 29 -63 25 -28 36
-33 76 -33 40 0 51 5 76 33 78 87 -21 212 -127 161z m116 -37 c45 -57 7 -142
-65 -142 -73 0 -111 84 -65 143 33 42 97 42 130 -1z"/>
<path d="M3253 8550 c36 -104 45 -120 64 -120 17 0 30 15 56 63 52 93 59 177
17 177 -16 0 -18 -8 -18 -54 1 -56 -37 -156 -52 -139 -4 4 -20 50 -36 101 -25
80 -32 92 -51 92 -21 0 -21 -2 20 -120z"/>
<path d="M3475 8546 c-21 -32 -22 -100 -1 -131 20 -31 67 -34 96 -5 25 25 27
105 4 138 -22 32 -78 30 -99 -2z m72 -4 c16 -10 22 -71 10 -104 -12 -36 -53
-39 -66 -5 -9 24 -7 89 4 107 7 12 35 13 52 2z"/>
<path d="M3532 7325 c-11 -13 -25 -38 -32 -55 -8 -19 -20 -30 -32 -30 -10 0
-16 -5 -13 -10 4 -6 11 -7 17 -4 13 8 6 -52 -17 -150 -24 -103 -46 -133 -59
-84 -4 17 -8 20 -17 11 -19 -19 -2 -45 27 -41 40 5 65 47 93 159 20 80 30 103
44 105 28 4 34 14 8 14 -20 0 -22 3 -16 33 10 45 24 69 38 64 7 -3 11 -9 10
-15 -3 -13 25 -24 32 -12 3 4 2 15 -1 24 -10 25 -59 20 -82 -9z"/>
<path d="M3253 7170 c35 -99 45 -120 62 -120 36 0 110 142 101 192 -3 13 -5
29 -5 36 -1 6 -9 12 -20 12 -15 0 -18 -8 -18 -54 0 -36 -8 -68 -24 -100 l-23
-48 -17 40 c-10 22 -25 68 -35 101 -14 52 -20 61 -40 61 l-23 0 42 -120z"/>
<path d="M3517 6192 c-32 -33 -34 -46 -7 -37 19 6 20 2 20 -71 0 -61 -3 -75
-12 -66 -13 13 -28 16 -28 5 0 -5 12 -21 26 -37 l25 -29 29 34 c32 38 32 46 0
29 -20 -11 -21 -10 -19 69 2 76 3 80 21 70 29 -16 29 -8 -1 28 l-27 33 -27
-28z"/>
<path d="M3253 6090 c39 -113 44 -121 67 -118 60 7 130 238 72 238 -15 0 -18
-9 -19 -54 0 -53 -37 -151 -53 -141 -4 2 -20 47 -35 100 -25 84 -31 95 -51 95
-23 0 -23 0 19 -120z"/>
<path d="M3254 5426 c-5 -12 3 -28 25 -50 17 -17 31 -35 31 -38 0 -3 -16 -22
-35 -40 -26 -27 -31 -38 -22 -47 8 -8 20 -2 49 26 l38 37 38 -37 c30 -29 41
-34 50 -25 9 9 4 20 -25 50 l-37 38 37 38 c29 30 34 41 25 50 -9 9 -20 4 -50
-25 l-38 -37 -40 39 c-34 33 -40 36 -46 21z"/>
<path d="M3327 4663 c-3 -5 -4 -23 -2 -40 3 -37 -15 -58 -44 -50 -20 5 -51 -9
-51 -23 0 -6 20 -10 45 -10 47 0 47 0 49 -55 1 -20 7 -31 19 -33 14 -3 17 4
17 42 l0 46 45 0 c33 0 45 4 45 15 0 15 -13 19 -62 15 -27 -1 -28 0 -28 49 0
38 -4 51 -14 51 -8 0 -17 -3 -19 -7z"/>
<path d="M6140 9038 c0 -62 -4 -119 -9 -127 -8 -12 -18 -9 -62 18 -98 61 -137
49 -158 -48 -24 -113 -8 -284 31 -323 26 -26 58 -20 127 23 28 18 55 29 59 25
4 -4 8 -136 10 -292 l3 -284 2402 2 2402 3 0 555 0 555 -2402 3 -2403 2 0
-112z m4770 73 c11 -2 3 -1033 -7 -1039 -8 -5 -4656 -8 -4719 -3 -7 1 -10 85
-11 260 0 226 -2 263 -17 285 -22 34 -37 33 -111 -9 -75 -42 -91 -35 -103 41
-12 72 -5 230 11 262 16 33 34 31 100 -9 91 -56 117 -34 119 102 0 52 5 99 9
104 5 7 803 9 2366 8 1297 -1 2360 -2 2363 -2z"/>
<path d="M8169 8998 c0 -2 -2 -54 -3 -116 -2 -62 -8 -118 -13 -123 -7 -7 -29
2 -69 25 -67 40 -93 44 -118 17 -28 -30 -37 -80 -37 -196 0 -116 10 -166 37
-196 25 -27 51 -23 118 17 40 24 62 32 69 25 6 -6 11 -63 13 -128 1 -65 3
-124 3 -131 1 -10 92 -12 438 -10 l438 3 0 405 0 405 -438 3 c-240 1 -437 1
-438 0z m839 -409 l2 -374 -404 0 -404 0 -4 121 c-4 164 -23 184 -118 125 -78
-48 -94 -46 -110 16 -13 55 -11 235 4 275 15 39 37 39 97 2 100 -63 122 -46
127 102 4 84 7 104 20 106 9 2 189 3 401 2 l386 0 3 -375z"/>
<path d="M8557 8713 c-20 -14 -37 -32 -37 -40 0 -17 11 -17 38 3 13 9 26 14
29 10 3 -3 5 -51 5 -107 -2 -108 -7 -122 -49 -114 -20 3 -38 -16 -26 -29 11
-11 182 -7 188 5 10 15 0 22 -37 23 l-33 1 -1 120 c-1 66 -2 128 -3 138 -1 25
-31 21 -74 -10z"/>
<path d="M9400 8888 c0 -62 -4 -119 -9 -127 -8 -12 -18 -9 -62 18 -69 43 -101
49 -127 23 -41 -41 -57 -239 -26 -341 23 -79 47 -86 137 -38 38 21 73 35 76
31 3 -3 7 -66 9 -140 l4 -134 621 2 622 3 0 405 0 405 -622 3 -623 2 0 -112z
m1193 73 c16 -1 17 -26 17 -370 0 -286 -3 -370 -12 -373 -11 -3 -1079 -2
-1143 1 -20 1 -21 8 -22 111 0 84 -4 115 -17 135 -22 33 -34 32 -113 -10 -78
-41 -88 -37 -102 37 -12 68 -6 230 11 264 16 34 36 34 91 -2 97 -63 128 -38
130 108 1 51 5 95 8 98 6 4 1079 5 1152 1z"/>
<path d="M9793 8730 c-35 -14 -56 -67 -56 -140 -1 -108 34 -160 105 -160 67 1
100 52 101 153 0 77 -18 128 -52 147 -23 12 -68 12 -98 0z m77 -30 c28 0 44
-155 20 -199 -25 -47 -80 -48 -99 -2 -16 37 -19 109 -8 154 10 39 38 60 65 51
8 -2 17 -4 22 -4z"/>
<path d="M10112 8723 c3 -15 15 -17 79 -17 l76 0 -29 -49 c-38 -61 -65 -132
-72 -185 -4 -38 -2 -42 17 -42 18 0 22 7 25 35 3 49 35 137 71 196 48 77 47
79 -70 79 -90 0 -100 -2 -97 -17z"/>
<path d="M10000 8455 c0 -22 4 -26 23 -23 14 2 22 10 22 23 0 13 -8 21 -22 23
-19 3 -23 -1 -23 -23z"/>
<path d="M6542 8848 c-7 -7 -12 -8 -12 -3 0 5 -7 0 -16 -11 -8 -10 -12 -12 -8
-4 4 8 -5 4 -19 -10 -29 -29 -48 -77 -26 -66 8 4 6 1 -3 -7 -21 -16 -24 -32
-5 -21 9 6 9 4 2 -7 -13 -18 -13 -51 1 -56 6 -2 11 13 12 36 1 21 6 51 12 66
13 34 13 38 -2 29 -7 -4 -8 -3 -4 5 4 6 12 9 17 6 5 -4 23 3 39 15 21 15 30
17 31 8 0 -7 4 -4 9 7 5 11 9 15 9 8 1 -15 251 -17 251 -2 0 5 9 0 20 -11 11
-11 24 -20 29 -20 17 0 43 -53 44 -91 1 -23 5 -36 11 -32 6 3 6 0 -1 -7 -9 -9
-9 -19 -2 -33 7 -11 7 -17 1 -13 -11 7 -9 -105 3 -124 5 -9 4 -11 -3 -6 -7 4
-12 1 -12 -9 0 -10 5 -14 13 -9 10 6 10 4 0 -7 -7 -7 -13 -17 -13 -22 0 -4 6
-5 13 -1 6 4 -1 -5 -16 -19 -16 -15 -25 -32 -21 -39 4 -7 3 -8 -5 -4 -6 4 -18
2 -26 -4 -9 -8 -56 -12 -130 -12 -65 0 -113 -4 -109 -9 3 -5 0 -9 -5 -9 -6 0
-11 6 -11 13 0 8 -4 7 -10 -3 -6 -10 -10 -11 -10 -2 0 6 -12 12 -27 12 -64 1
-95 60 -95 184 0 55 -4 86 -11 89 -14 5 -17 -120 -4 -140 5 -8 4 -13 -2 -13
-6 0 -11 -5 -11 -11 0 -5 6 -7 13 -3 9 6 9 5 0 -7 -13 -17 6 -65 37 -94 24
-22 80 -37 80 -22 0 9 2 9 8 0 5 -7 33 -11 74 -11 42 1 65 5 61 11 -4 6 -1 7
8 1 22 -14 60 -16 74 -4 10 8 15 7 19 -2 5 -10 7 -10 12 0 3 6 10 12 15 12 6
0 7 -5 3 -11 -4 -7 -1 -10 7 -7 8 3 13 11 11 17 -1 7 2 9 8 6 14 -8 47 21 65
56 17 32 18 329 2 329 -6 0 -8 3 -4 6 3 4 -1 20 -9 36 -9 17 -18 28 -21 25 -2
-3 -13 2 -23 11 -24 20 -52 24 -62 9 -6 -9 -8 -9 -8 0 0 8 -28 12 -95 11 -53
0 -92 -4 -89 -9 3 -5 0 -9 -5 -9 -6 0 -11 6 -11 13 0 8 -4 7 -10 -3 -6 -10
-10 -11 -10 -2 0 15 -32 16 -48 0z m195 -4 c-3 -3 -12 -4 -19 -1 -8 3 -5 6 6
6 11 1 17 -2 13 -5z"/>
<path d="M7319 8762 c-12 -2 -15 -35 -15 -197 l0 -195 68 0 c39 0 68 4 68 10
0 10 -14 14 -37 11 -10 -1 -13 39 -13 174 l0 175 26 0 c15 0 24 5 22 11 -4 11
-84 18 -119 11z m47 -194 c-1 -147 -3 -173 -16 -173 -13 0 -15 27 -18 173 -2
163 -1 172 16 172 18 0 19 -10 18 -172z"/>
<path d="M7531 8762 c-20 -7 -11 -21 16 -24 l27 -3 -1 -165 c-1 -91 -2 -169
-2 -173 -1 -5 -11 -7 -23 -5 -11 2 -23 -3 -25 -9 -4 -10 14 -13 66 -13 l71 0
0 195 0 195 -22 1 c-13 0 -40 2 -60 3 -20 1 -41 0 -47 -2z m104 -196 c1 -134
-2 -169 -13 -174 -24 -9 -27 12 -25 155 2 206 1 195 21 191 15 -3 17 -19 17
-172z"/>
<path d="M6670 8689 c0 -5 -4 -8 -9 -5 -11 7 -47 -34 -54 -61 -3 -13 -1 -26 4
-29 5 -3 7 -10 4 -15 -10 -16 6 -33 17 -18 7 10 7 7 3 -8 -5 -19 -1 -23 34
-33 46 -12 74 -3 103 34 32 39 15 115 -30 136 -18 8 -22 7 -16 -2 6 -10 4 -11
-7 0 -16 15 -49 16 -49 1z m47 -21 c12 -3 24 -1 27 6 2 6 5 1 5 -11 1 -13 6
-23 12 -23 5 0 8 -4 4 -9 -3 -5 0 -13 6 -17 8 -4 7 -9 -2 -15 -12 -8 -11 -11
1 -19 13 -8 12 -10 -4 -10 -11 0 -16 -5 -13 -14 4 -10 0 -12 -14 -9 -14 4 -19
0 -19 -13 0 -12 -3 -15 -8 -8 -4 6 -19 10 -34 10 -14 -1 -25 1 -23 5 2 3 -3
16 -12 29 -19 27 -24 69 -8 67 5 -1 9 6 9 15 -1 10 2 15 7 13 4 -3 14 1 21 9
7 7 15 11 18 7 3 -4 15 -10 27 -13z"/>
<path d="M11948 8881 c-1 -66 -6 -122 -10 -126 -3 -4 -36 10 -72 30 -36 20
-76 35 -88 33 -13 -2 -31 -18 -42 -38 -19 -31 -21 -52 -21 -175 0 -123 2 -144
21 -175 11 -20 29 -36 42 -38 12 -2 52 13 87 33 l65 36 10 -26 c6 -15 10 -78
10 -141 l0 -114 440 0 440 0 -2 408 -3 407 -437 3 -436 2 -4 -119z m843 79 c1
-3 2 -170 3 -372 l1 -366 -25 -4 c-20 -2 -757 -2 -782 1 -5 1 -8 49 -8 109 0
111 -12 154 -42 160 -9 2 -48 -13 -85 -32 -77 -40 -88 -37 -103 30 -14 59 -6
234 11 269 17 35 36 35 92 -1 98 -64 127 -39 127 108 l0 97 28 3 c45 5 782 3
783 -2z"/>
<path d="M12333 8730 c-44 -18 -55 -72 -23 -113 17 -21 18 -27 7 -34 -42 -25
-43 -94 -1 -130 42 -38 150 -24 168 22 13 34 6 76 -16 98 -22 21 -22 23 -5 40
27 27 22 81 -9 106 -28 22 -82 27 -121 11z m88 -30 c12 -7 19 -21 19 -40 0
-46 -55 -67 -92 -33 -49 44 12 105 73 73z m19 -152 c13 -25 13 -31 0 -55 -31
-56 -113 -36 -113 27 0 63 82 83 113 28z"/>
<path d="M13828 8881 c-1 -66 -6 -123 -10 -127 -4 -4 -30 7 -57 23 -87 54
-119 54 -149 0 -14 -26 -17 -58 -17 -172 0 -124 2 -144 21 -175 17 -30 26 -35
55 -34 20 1 55 14 84 33 46 29 51 30 62 14 9 -11 13 -57 13 -140 l0 -123 438
2 437 3 3 408 2 407 -439 0 -439 0 -4 -119z m842 80 c3 -1 6 -167 6 -371 l0
-370 -26 -1 c-75 -3 -767 -4 -776 -1 -7 2 -12 40 -13 107 -1 110 -11 152 -37
162 -10 4 -46 -9 -88 -30 -57 -30 -73 -35 -83 -24 -19 19 -30 95 -28 189 4
161 22 186 100 137 107 -68 133 -48 136 101 1 52 3 97 5 100 2 4 781 5 804 1z"/>
<path d="M14214 8729 c-49 -25 -60 -119 -19 -163 28 -30 78 -35 113 -10 26 18
29 7 11 -45 -16 -45 -54 -59 -90 -31 -33 24 -49 26 -49 5 0 -28 38 -55 78 -55
74 0 112 54 112 159 0 64 -11 103 -36 128 -19 19 -92 26 -120 12z m93 -45 c20
-20 24 -31 19 -57 -11 -56 -59 -74 -96 -37 -34 34 -22 98 20 113 26 9 30 8 57
-19z"/>
<path d="M4550 8702 c0 -50 1 -52 28 -51 21 1 22 3 6 6 -17 3 -21 12 -22 45
-3 60 -12 60 -12 0z"/>
<path d="M4710 8560 l0 -181 133 3 132 3 3 178 2 177 -135 0 -135 0 0 -180z
m250 0 l0 -160 -115 0 -115 0 0 160 0 160 115 0 115 0 0 -160z"/>
<path d="M4793 8680 c-23 -9 -33 -50 -13 -50 6 0 10 6 10 14 0 34 83 36 105 2
19 -29 11 -51 -29 -79 -30 -21 -42 -48 -21 -46 6 1 9 5 8 9 -2 5 6 11 16 15
10 3 26 14 35 24 63 69 -18 148 -111 111z"/>
<path d="M4825 8456 c-22 -16 -12 -36 20 -36 29 0 40 26 16 39 -13 7 -24 6
-36 -3z"/>
<path d="M13220 8641 l0 -51 -45 0 c-33 0 -45 -4 -45 -15 0 -11 12 -15 45 -15
l45 0 0 -45 c0 -37 3 -45 18 -45 14 0 18 8 17 33 -2 51 3 57 51 57 59 0 54 23
-6 30 l-45 5 0 45 c0 35 -4 45 -17 48 -15 3 -18 -4 -18 -47z"/>
<path d="M11272 8668 c-9 -9 -4 -20 25 -50 l37 -38 -39 -40 c-33 -34 -37 -42
-25 -50 11 -7 25 0 52 27 l38 37 38 -37 c29 -28 41 -34 50 -25 9 9 7 15 -6 27
-9 9 -26 26 -36 39 -19 22 -19 22 14 57 22 23 31 39 26 51 -6 15 -12 12 -46
-21 l-40 -39 -38 37 c-30 29 -41 34 -50 25z"/>
<path d="M5460 8663 c1 -4 18 -57 39 -118 47 -134 63 -144 111 -68 55 87 68
185 25 191 -18 2 -20 -2 -17 -37 4 -42 -11 -101 -37 -140 -15 -24 -16 -23 -47
75 -26 80 -36 100 -53 102 -12 2 -21 0 -21 -5z"/>
<path d="M4611 8588 c0 -37 3 -47 8 -33 5 11 7 23 4 28 -2 4 6 7 19 8 l23 1
-23 6 c-13 4 -23 12 -23 17 0 6 10 13 23 17 22 6 21 6 -4 7 -27 1 -28 0 -27
-51z"/>
<path d="M5019 8549 c-18 -18 -21 -30 -17 -77 5 -61 23 -82 70 -82 35 0 58 34
61 88 3 80 -63 122 -114 71z m83 -34 c19 -69 -21 -131 -59 -92 -18 18 -20 92
-2 113 20 24 52 13 61 -21z"/>
<path d="M6140 7658 c0 -62 -4 -119 -9 -127 -7 -11 -19 -8 -63 19 -31 20 -67
33 -88 34 -31 1 -37 -3 -54 -37 -24 -50 -33 -210 -16 -290 21 -105 59 -118
159 -56 28 18 55 29 59 25 4 -4 8 -136 10 -292 l3 -284 2402 2 2402 3 0 555 0
555 -2402 3 -2403 2 0 -112z m4771 62 c1 -19 1 -1012 0 -1025 -1 -7 -791 -9
-2353 -8 -1294 0 -2360 2 -2369 2 -14 1 -16 31 -16 260 0 226 -2 263 -17 285
-22 34 -34 33 -113 -9 -56 -30 -69 -33 -80 -22 -19 18 -31 103 -28 195 5 160
21 179 109 126 31 -18 66 -34 76 -34 37 0 52 42 53 144 1 88 2 95 21 98 12 2
1077 3 2368 3 2080 0 2348 -2 2349 -15z"/>
<path d="M8169 7613 c-1 -5 -2 -57 -4 -116 -1 -60 -7 -113 -12 -118 -7 -7 -31
2 -69 25 -70 43 -96 45 -123 10 -47 -60 -47 -318 0 -378 27 -35 53 -33 123 10
41 24 62 32 69 25 6 -6 12 -65 13 -133 1 -68 3 -126 3 -131 1 -4 198 -6 438
-5 l438 3 0 405 0 405 -438 3 c-240 1 -437 -1 -438 -5z m829 -32 c9 -1 12 -82
12 -370 0 -286 -3 -370 -12 -373 -7 -2 -188 -4 -403 -3 l-390 0 -5 115 c-6
118 -18 160 -47 160 -9 0 -47 -15 -83 -34 -36 -19 -71 -32 -76 -28 -31 20 -46
216 -24 304 15 60 34 64 101 22 100 -64 122 -46 127 105 l4 106 392 -1 c215
-1 397 -2 404 -3z"/>
<path d="M8559 7335 c-19 -14 -35 -34 -35 -45 -1 -19 0 -19 28 1 16 12 31 20
33 18 4 -5 7 -84 6 -166 l-1 -62 -29 4 c-17 2 -34 -2 -41 -10 -18 -22 3 -26
101 -23 67 2 84 6 84 18 0 10 -11 15 -35 15 l-35 0 -1 120 c-1 66 -2 128 -3
138 -1 24 -31 21 -72 -8z"/>
<path d="M9400 7508 c0 -62 -4 -119 -9 -127 -8 -12 -18 -9 -62 18 -69 43 -101
49 -127 23 -41 -41 -57 -239 -26 -341 23 -79 47 -86 137 -38 38 21 73 35 76
31 3 -3 7 -66 9 -140 l4 -134 621 2 622 3 0 405 0 405 -622 3 -623 2 0 -112z
m1210 -13 c3 -49 3 -218 0 -375 l-5 -285 -578 0 c-319 0 -582 2 -585 5 -4 3
-8 54 -9 114 -4 160 -26 184 -120 127 -66 -40 -84 -42 -101 -9 -28 58 -20 295
12 326 14 14 21 12 67 -17 113 -70 139 -51 144 106 1 54 3 98 4 98 0 0 263 0
584 0 l582 0 5 -90z"/>
<path d="M9793 7350 c-34 -14 -56 -67 -57 -140 -1 -78 17 -126 55 -145 57 -30
116 -10 140 47 18 44 15 158 -5 197 -24 46 -79 63 -133 41z m89 -38 c25 -27
30 -140 8 -193 -12 -27 -19 -31 -55 -31 -29 0 -33 2 -45 31 -22 54 -17 164 9
190 19 19 66 21 83 3z"/>
<path d="M10110 7341 c0 -16 8 -18 75 -16 41 2 75 0 75 -4 0 -3 -12 -26 -26
-51 -36 -62 -61 -129 -69 -179 -6 -40 -5 -42 16 -39 16 2 23 11 26 33 6 53 34
129 69 186 53 87 51 89 -66 89 -91 0 -100 -2 -100 -19z"/>
<path d="M10000 7075 c0 -22 4 -26 23 -23 14 2 22 10 22 23 0 13 -8 21 -22 23
-19 3 -23 -1 -23 -23z"/>
<path d="M6547 7473 c-11 -11 4 -23 29 -23 13 0 24 6 24 13 0 9 2 9 8 0 5 -8
44 -11 125 -10 64 1 117 -1 117 -4 0 -4 13 -12 29 -19 20 -8 31 -21 35 -41 4
-20 10 -28 17 -23 8 5 9 3 4 -7 -11 -17 -12 -50 -1 -67 4 -7 2 -12 -5 -12 -8
0 -7 -5 2 -17 8 -9 9 -14 4 -11 -13 8 -13 -51 0 -71 5 -8 4 -12 -1 -8 -5 3 -9
-10 -9 -29 0 -19 5 -34 10 -34 6 0 3 -5 -5 -10 -13 -9 -13 -11 0 -20 13 -9 7
-14 -12 -11 -5 0 -8 -8 -8 -19 0 -11 -5 -20 -11 -20 -6 0 -17 -7 -25 -15 -9
-8 -28 -15 -44 -15 -16 0 -32 -4 -35 -10 -3 -5 -12 -10 -18 -10 -7 0 -6 4 3
10 13 8 13 10 -2 10 -9 0 -20 -4 -23 -10 -3 -5 -12 -10 -18 -10 -7 0 -6 4 3
10 12 8 11 10 -7 10 -12 0 -24 -6 -26 -12 -4 -10 -6 -10 -6 0 -1 6 -9 12 -19
12 -10 0 -24 -6 -31 -12 -11 -11 -12 -10 -7 0 6 10 -3 12 -43 9 -29 -2 -52 1
-55 7 -2 6 -5 5 -5 -2 -1 -14 -48 36 -49 52 0 5 -6 12 -12 16 -12 8 -18 225
-6 237 3 4 -1 17 -10 31 -9 13 -11 21 -5 18 6 -4 13 4 17 19 3 14 19 36 36 50
16 14 26 29 23 35 -4 6 -11 8 -16 4 -5 -3 -6 -10 -3 -16 5 -7 1 -9 -8 -5 -20
7 -52 -27 -45 -47 3 -8 1 -16 -6 -19 -7 -2 -12 -30 -12 -74 0 -42 3 -69 9 -66
5 3 6 1 2 -6 -12 -19 -15 -82 -4 -75 7 4 7 0 0 -12 -10 -20 -6 -75 6 -84 4 -3
8 -12 10 -20 5 -22 33 -50 43 -44 5 3 9 0 9 -6 0 -7 7 -10 15 -6 8 3 15 1 15
-5 0 -5 16 -9 35 -7 19 1 35 7 35 13 0 5 4 5 8 -2 9 -14 52 -13 52 2 0 5 4 4
9 -4 12 -18 168 -12 180 7 5 8 12 14 17 15 5 1 8 6 6 10 -1 5 2 6 8 2 5 -3 18
8 29 26 17 28 19 51 19 183 0 156 -12 216 -44 216 -8 0 -14 5 -14 11 0 6 -7 9
-15 5 -8 -3 -14 0 -12 6 1 6 -19 12 -51 14 -34 2 -50 0 -46 -7 3 -6 -3 -5 -15
3 -17 11 -25 11 -42 0 -12 -8 -18 -9 -14 -3 3 6 1 11 -4 11 -6 0 -11 -6 -11
-12 0 -9 -3 -9 -8 -2 -10 14 -82 15 -82 0 0 -7 -3 -7 -8 -1 -9 12 -27 16 -35
8z m-42 -453 c3 -6 -1 -7 -9 -4 -18 7 -21 14 -7 14 6 0 13 -4 16 -10z"/>
<path d="M7330 7382 l-25 -3 0 -194 0 -195 68 0 c38 0 67 4 67 10 0 10 -14 14
-37 11 -10 -1 -13 39 -13 174 l0 175 25 0 c25 0 36 19 13 21 -38 3 -76 4 -98
1z m40 -192 c1 -147 -2 -171 -15 -176 -9 -4 -18 -4 -21 -2 -4 5 -7 160 -5 296
1 44 4 52 20 52 18 0 19 -10 21 -170z"/>
<path d="M7524 7381 c-11 -11 -1 -21 21 -21 29 0 27 12 27 -175 0 -188 1 -177
-24 -173 -11 2 -23 -3 -25 -9 -4 -10 14 -13 66 -13 l71 0 0 195 0 195 -27 1
c-72 4 -105 4 -109 0z m111 -197 c1 -164 0 -170 -20 -172 -19 -1 -20 3 -18
166 1 92 2 171 2 175 1 5 9 7 19 5 15 -3 17 -20 17 -174z"/>
<path d="M6648 7302 c-22 -15 -25 -21 -15 -31 9 -10 8 -11 -5 -6 -10 4 -18 3
-18 -3 0 -6 -3 -18 -7 -28 -4 -12 -3 -15 5 -10 8 5 10 2 6 -9 -9 -22 13 -61
43 -74 37 -17 73 -14 73 7 0 14 2 15 10 2 9 -14 14 -7 11 13 -1 5 3 6 8 2 12
-7 30 25 24 43 -3 6 0 12 6 12 16 0 -7 55 -31 77 -15 12 -19 13 -14 3 4 -8 1
-7 -7 3 -11 14 -16 15 -20 5 -4 -10 -6 -10 -6 0 -1 17 -32 15 -63 -6z m62 -12
c10 0 21 -4 25 -10 3 -5 11 -8 18 -6 7 1 9 1 5 -1 -4 -2 -4 -11 -1 -19 5 -13
7 -13 15 -2 6 8 7 4 2 -12 -4 -14 -7 -33 -6 -43 0 -9 -3 -15 -8 -12 -5 3 -18
-7 -29 -21 -12 -15 -21 -22 -21 -15 0 15 -30 14 -31 -1 0 -7 -4 -3 -9 10 -5
12 -15 22 -22 22 -9 0 -9 -3 2 -11 13 -9 13 -10 0 -6 -8 2 -16 18 -17 37 -2
18 -5 35 -7 37 -2 3 10 19 27 36 18 18 34 29 35 25 2 -5 12 -8 22 -8z"/>
<path d="M11949 7501 c-2 -66 -7 -123 -11 -127 -4 -4 -31 7 -59 25 -67 42
-104 49 -129 26 -28 -25 -43 -114 -38 -234 4 -118 24 -173 66 -179 12 -2 52
13 87 33 l65 36 10 -26 c6 -15 10 -78 10 -141 l0 -114 805 0 805 0 0 410 0
410 -804 0 -804 0 -3 -119z m1578 -286 c1 -203 -2 -372 -7 -375 -6 -4 -1469
-5 -1527 -1 -10 1 -13 30 -13 109 0 162 -27 192 -118 134 -66 -42 -83 -43
-101 -7 -17 34 -24 195 -11 264 13 73 25 77 103 36 36 -19 73 -35 81 -35 33 0
46 41 46 141 0 52 2 98 5 100 2 3 350 5 772 4 l768 0 2 -370z"/>
<path d="M12346 7259 c-38 -56 -69 -109 -71 -118 -2 -13 11 -17 69 -21 l71 -5
0 -30 c0 -23 4 -30 20 -30 13 0 20 7 21 20 2 41 4 45 24 45 11 0 20 7 20 15 0
9 -9 15 -23 15 -22 0 -22 3 -22 103 0 96 -1 102 -21 105 -16 2 -34 -18 -88
-99z m71 -34 l-1 -75 -52 0 -53 0 52 75 c28 41 52 75 53 75 0 0 1 -34 1 -75z"/>
<path d="M12578 7345 c-33 -18 -49 -65 -49 -144 -1 -100 37 -151 112 -151 79
0 124 140 81 251 -21 55 -87 74 -144 44z m98 -41 c24 -30 28 -122 8 -187 -8
-25 -50 -40 -75 -26 -28 15 -39 50 -39 125 0 56 3 68 25 90 27 27 59 26 81 -2z"/>
<path d="M12810 7332 c-52 -52 -52 -196 0 -252 48 -52 135 -31 161 39 16 40
12 146 -6 184 -29 62 -107 77 -155 29z m105 -27 c21 -21 25 -33 25 -89 0 -104
-29 -147 -83 -127 -31 12 -38 31 -42 105 -4 64 7 104 32 124 25 18 41 15 68
-13z"/>
<path d="M13068 7345 c-67 -37 -67 -231 1 -282 9 -7 33 -13 54 -13 31 0 45 7
68 31 16 17 29 39 30 48 0 9 3 27 5 41 3 14 2 49 -1 79 -12 94 -81 137 -157
96z m100 -43 c12 -16 13 -22 17 -97 2 -41 -9 -93 -22 -106 -5 -4 -20 -10 -35
-13 -44 -8 -62 23 -67 114 -3 74 -1 80 23 105 28 28 60 27 84 -3z"/>
<path d="M14567 7613 c-4 -3 -7 -54 -7 -112 0 -126 -4 -137 -45 -114 -114 62
-122 64 -150 33 -29 -32 -43 -107 -39 -215 3 -102 13 -146 41 -177 22 -25 42
-23 106 12 88 47 86 50 89 -102 l3 -133 805 0 805 0 0 405 0 405 -801 3 c-440
1 -804 -1 -807 -5z m1571 -400 c2 -295 0 -373 -10 -374 -68 -5 -1513 -2 -1521
3 -7 4 -12 48 -12 117 -1 92 -5 114 -20 131 -25 27 -49 25 -99 -9 -92 -64
-114 -40 -118 124 -2 114 8 171 34 189 18 13 25 11 69 -15 66 -39 92 -44 113
-24 17 18 18 23 20 135 1 41 4 80 8 85 4 7 259 10 770 10 l763 0 3 -372z"/>
<path d="M15018 7343 c-30 -35 -128 -194 -128 -208 0 -12 15 -15 70 -15 l70 0
0 -35 c0 -28 4 -35 20 -35 16 0 20 7 20 34 0 27 4 35 20 38 12 2 21 8 21 13 0
6 -9 11 -21 13 -19 3 -20 10 -20 108 0 94 -2 104 -18 104 -11 0 -26 -8 -34
-17z m9 -190 c-3 -2 -25 -3 -50 -1 l-45 3 47 72 46 73 3 -71 c2 -39 1 -73 -1
-76z"/>
<path d="M15180 7332 c-32 -33 -46 -102 -34 -178 12 -85 77 -125 147 -93 83
38 76 270 -8 293 -44 13 -77 6 -105 -22z m112 -31 c20 -26 25 -130 8 -176 -18
-48 -86 -53 -105 -8 -12 29 -14 134 -4 162 20 53 67 64 101 22z"/>
<path d="M15438 7345 c-33 -18 -51 -70 -50 -147 1 -98 39 -148 111 -148 69 0
110 85 96 197 -12 96 -80 139 -157 98z m77 -25 c34 0 54 -108 35 -181 -20 -74
-101 -70 -116 6 -16 90 15 195 54 180 7 -3 20 -5 27 -5z"/>
<path d="M15670 7332 c-16 -17 -30 -39 -31 -49 0 -10 -3 -29 -5 -43 -3 -14 -2
-49 1 -79 12 -98 92 -143 159 -90 37 29 48 62 47 135 -1 106 -25 144 -96 152
-39 4 -48 1 -75 -26z m105 -27 c21 -21 25 -33 25 -89 0 -104 -29 -147 -84
-126 -31 11 -46 60 -41 133 3 65 12 86 39 97 31 13 35 12 61 -15z"/>
<path d="M4552 7323 c-2 -52 -1 -53 26 -52 22 1 23 2 5 6 -18 4 -23 12 -26 51
l-3 47 -2 -52z"/>
<path d="M4710 7240 c0 -73 4 -120 10 -120 6 0 10 43 10 110 l0 110 116 0 115
0 -1 -67 c-3 -118 0 -153 10 -153 6 0 10 47 10 120 l0 120 -135 0 -135 0 0
-120z"/>
<path d="M4793 7300 c-23 -9 -33 -50 -13 -50 6 0 10 6 10 14 0 17 22 26 61 26
19 0 34 -8 45 -25 15 -23 15 -27 -1 -51 -9 -15 -26 -29 -36 -31 -10 -3 -19 -8
-20 -12 0 -3 -2 -14 -4 -23 -2 -10 3 -18 11 -18 7 0 11 6 8 14 -3 8 3 17 14
20 26 9 49 36 57 68 14 56 -63 96 -132 68z"/>
<path d="M13959 7303 c-2 -8 -5 -43 -8 -76 0 -11 -8 -18 -18 -16 -46 4 -73 -2
-73 -16 0 -11 12 -15 44 -15 48 0 53 -6 51 -57 -1 -25 3 -33 17 -33 15 0 18 8
18 45 l0 45 45 0 c33 0 45 4 45 15 0 16 -7 18 -57 15 l-33 -2 0 51 c0 39 -4
51 -15 51 -8 0 -16 -3 -16 -7z"/>
<path d="M11272 7289 c-10 -11 -5 -21 25 -51 l37 -38 -37 -38 c-29 -30 -34
-41 -25 -50 9 -9 20 -4 50 25 l38 37 38 -37 c29 -28 41 -34 50 -25 9 9 7 15
-6 27 -9 9 -26 26 -36 39 -19 22 -19 22 14 57 22 23 31 39 26 51 -6 15 -12 12
-44 -19 -21 -20 -41 -37 -45 -37 -4 0 -21 16 -39 36 -27 28 -35 33 -46 23z"/>
<path d="M5462 7278 c2 -7 15 -45 28 -85 16 -48 30 -73 42 -76 23 -6 23 3 -6
93 -20 61 -28 76 -46 78 -16 3 -21 -1 -18 -10z"/>
<path d="M5618 7251 c2 -22 -2 -57 -9 -78 -8 -21 -14 -46 -15 -55 -1 -15 1
-15 21 -2 45 30 61 166 20 172 -18 2 -20 -2 -17 -37z"/>
<path d="M4610 7210 c0 -27 4 -50 9 -50 6 0 8 9 6 20 -3 15 3 24 18 30 l22 9
-22 0 c-13 1 -23 6 -23 11 0 6 10 15 23 20 21 8 21 9 -5 9 -27 1 -28 -1 -28
-49z"/>
<path d="M5020 7170 c-24 -24 -26 -50 -5 -50 8 0 15 6 15 14 0 21 27 38 50 31
11 -3 20 -15 20 -25 0 -21 27 -35 33 -17 2 7 -5 24 -15 40 -24 33 -69 36 -98
7z"/>
<path d="M4956 7064 c-7 -18 -8 -90 -1 -83 2 3 7 16 9 30 2 13 5 24 6 24 1 0
3 8 5 17 4 23 -11 33 -19 12z"/>
<path d="M4402 7028 c-2 -46 -1 -48 26 -47 22 1 23 2 5 6 -18 3 -23 13 -26 46
l-4 42 -1 -47z"/>
<path d="M4468 7058 c-2 -7 -1 -29 3 -48 4 -21 7 -26 8 -13 1 14 9 23 24 26
l22 4 -22 2 c-33 2 -29 29 5 34 26 4 26 4 -4 6 -18 0 -34 -5 -36 -11z"/>
<path d="M4541 7023 l2 -48 6 39 6 39 17 -36 c22 -46 38 -48 37 -4 -1 28 -2
29 -8 8 -6 -23 -7 -23 -26 13 -11 20 -23 36 -27 36 -5 0 -7 -21 -7 -47z"/>
<path d="M4595 7060 c-3 -5 -1 -10 4 -10 6 0 11 5 11 10 0 6 -2 10 -4 10 -3 0
-8 -4 -11 -10z"/>
<path d="M4853 7063 c-16 -6 -17 -55 -1 -71 29 -29 56 4 44 54 -6 23 -18 28
-43 17z m32 -39 c0 -37 -30 -41 -31 -4 0 32 5 42 19 37 7 -2 12 -17 12 -33z"/>
<path d="M4920 7051 c-15 -28 -12 -64 6 -87 15 -18 15 -18 5 3 -11 22 -9 71 3
92 4 6 5 11 2 11 -3 0 -10 -9 -16 -19z"/>
<path d="M5160 7058 c14 -17 13 -81 -2 -96 -9 -9 -9 -12 0 -12 13 0 27 45 23
75 -1 11 -9 26 -17 33 -9 8 -10 8 -4 0z"/>
<path d="M5270 7052 c0 -11 11 -24 25 -30 37 -17 32 -36 -7 -29 -29 5 -30 4
-11 -5 12 -6 29 -8 37 -5 24 10 19 36 -9 47 -34 13 -33 34 1 26 17 -5 23 -3
19 4 -11 18 -55 12 -55 -8z"/>
<path d="M5348 7053 c-2 -4 -3 -14 -2 -20 1 -7 2 -22 3 -33 2 -35 16 -21 15
15 -1 36 -8 53 -16 38z"/>
<path d="M4627 7028 c-8 -28 15 -53 38 -44 25 9 16 60 -11 64 -15 2 -23 -4
-27 -20z m43 -7 c0 -24 -18 -37 -31 -24 -13 13 -1 43 17 43 8 0 14 -9 14 -19z"/>
<path d="M4693 7015 c0 -22 2 -30 4 -17 2 12 2 30 0 40 -3 9 -5 -1 -4 -23z"/>
<path d="M4716 7041 c-4 -5 6 -19 21 -31 l28 -21 -30 6 c-23 5 -27 4 -19 -5
15 -15 46 -10 52 8 2 7 -5 16 -17 19 -12 3 -21 10 -21 15 0 6 7 8 15 4 8 -3
15 -1 15 4 0 13 -37 13 -44 1z"/>
<path d="M4781 7032 c-17 -31 25 -73 43 -43 4 5 -3 7 -14 4 -11 -3 -20 0 -20
6 0 6 9 11 20 11 13 0 20 7 20 20 0 25 -35 27 -49 2z m39 -2 c0 -5 -7 -10 -15
-10 -8 0 -15 5 -15 10 0 6 7 10 15 10 8 0 15 -4 15 -10z"/>
<path d="M4988 7026 c-3 -14 -1 -31 3 -38 6 -8 9 -2 9 19 0 17 6 34 13 36 7 4
6 6 -4 6 -10 1 -19 -9 -21 -23z"/>
<path d="M5025 7031 c-8 -26 4 -51 26 -51 10 0 19 4 19 10 0 5 -6 7 -14 4 -8
-3 -17 -1 -21 5 -4 7 5 11 23 11 18 0 32 -6 36 -16 3 -9 13 -14 20 -11 10 4
16 -2 19 -16 2 -12 5 2 6 31 1 45 -1 52 -19 52 -10 0 -23 -8 -29 -17 -9 -17
-10 -17 -16 0 -9 23 -42 22 -50 -2z m40 -1 c3 -5 -3 -10 -15 -10 -12 0 -18 5
-15 10 3 6 10 10 15 10 5 0 12 -4 15 -10z m63 -12 c-4 -27 -28 -36 -28 -10 0
20 8 32 22 32 5 0 8 -10 6 -22z"/>
<path d="M5381 7028 c-5 -14 -5 -28 1 -35 12 -15 34 -17 42 -4 4 5 -3 7 -14 4
-11 -3 -20 0 -20 6 0 6 9 11 21 11 14 0 19 5 17 17 -5 27 -37 28 -47 1z m39 2
c0 -5 -7 -10 -15 -10 -8 0 -15 5 -15 10 0 6 7 10 15 10 8 0 15 -4 15 -10z"/>
<path d="M5445 7025 c1 -12 4 -26 8 -32 4 -6 1 -13 -5 -16 -10 -3 -10 -8 1
-18 10 -11 12 -11 6 -1 -4 9 0 15 13 19 41 10 39 74 -1 71 -16 -1 -22 -8 -22
-23z m39 6 c8 -12 -3 -41 -15 -41 -5 0 -9 11 -9 25 0 25 14 34 24 16z"/>
<path d="M5549 7048 c-5 -17 -4 -48 3 -48 4 0 8 10 8 21 0 16 5 20 20 16 11
-3 18 -1 14 4 -4 8 -43 13 -45 7z"/>
<path d="M5617 7043 c-11 -10 -8 -51 3 -58 18 -11 46 5 47 27 3 30 -31 50 -50
31z m35 -28 c-5 -25 -8 -29 -21 -20 -19 11 -13 47 7 43 11 -2 16 -11 14 -23z"/>
<path d="M5683 7015 c0 -22 2 -30 4 -17 2 12 2 30 0 40 -3 9 -5 -1 -4 -23z"/>
<path d="M5707 7044 c-9 -10 4 -34 19 -34 8 0 14 -5 14 -11 0 -7 -9 -9 -21 -6
-16 4 -19 3 -11 -5 6 -6 18 -8 26 -5 20 8 21 37 2 37 -8 0 -18 5 -22 12 -5 8
0 9 14 6 12 -4 20 -2 16 3 -6 10 -28 12 -37 3z"/>
<path d="M5771 7036 c-9 -11 -10 -20 -1 -35 11 -22 35 -28 44 -12 4 5 -3 7
-14 4 -11 -3 -20 0 -20 6 0 6 9 11 21 11 15 0 19 4 15 16 -3 9 -6 18 -6 20 0
10 -29 3 -39 -10z m34 -6 c3 -5 -1 -10 -9 -10 -9 0 -16 5 -16 10 0 6 4 10 9
10 6 0 13 -4 16 -10z"/>
<path d="M5580 7013 c0 -5 5 -15 10 -23 7 -12 9 -10 7 8 -1 19 -17 33 -17 15z"/>
<path d="M4563 6270 c-21 -9 -43 -38 -43 -59 0 -18 31 -12 48 9 36 43 102 24
102 -29 0 -18 -18 -42 -64 -85 -70 -67 -101 -110 -91 -126 8 -13 205 -14 205
0 0 17 -34 27 -93 25 -32 -1 -60 2 -63 6 -2 4 23 32 57 61 93 81 112 136 64
183 -25 26 -78 33 -122 15z"/>
<path d="M4813 6270 c-36 -15 -57 -67 -56 -146 0 -117 46 -169 130 -148 54 13
75 55 76 147 1 127 -58 184 -150 147z m78 -30 c27 0 42 -156 19 -200 -25 -46
-77 -49 -100 -6 -13 26 -17 139 -5 176 7 23 42 42 63 34 8 -2 18 -4 23 -4z"/>
<path d="M5054 6270 c-47 -19 -72 -150 -44 -233 21 -64 119 -88 163 -39 36 40
46 177 17 232 -24 44 -83 62 -136 40z m76 -30 c50 -27 47 -228 -3 -231 -7 0
-20 -2 -29 -4 -35 -7 -58 41 -58 122 0 65 3 77 25 98 27 28 37 30 65 15z"/>
<path d="M4565 5489 c-33 -16 -48 -49 -53 -120 -8 -111 31 -179 102 -179 85 0
130 109 96 232 -18 65 -86 96 -145 67z m86 -38 c18 -14 23 -31 27 -78 8 -106
-26 -165 -83 -143 -35 13 -48 53 -42 134 4 57 9 73 27 88 28 23 42 23 71 -1z"/>
<path d="M4925 5488 c-25 -13 -45 -38 -45 -55 0 -18 37 -16 44 2 15 40 98 37
108 -3 8 -29 -8 -50 -45 -57 -17 -4 -35 -9 -39 -11 -12 -7 4 -36 16 -31 7 3
26 -1 44 -9 26 -10 32 -19 32 -42 0 -34 -14 -49 -54 -56 -21 -4 -34 1 -54 22
-37 36 -61 39 -54 7 12 -63 124 -88 176 -40 45 42 29 133 -25 136 -8 0 -4 5 8
11 21 10 33 31 39 67 2 8 -10 27 -26 42 -31 31 -86 39 -125 17z"/>
<path d="M4778 5234 c-12 -11 5 -44 23 -44 14 0 19 7 19 25 0 18 -5 25 -18 25
-10 0 -21 -3 -24 -6z"/>
<path d="M4561 4704 c-32 -23 -51 -74 -51 -139 0 -97 39 -155 105 -155 66 0
105 58 105 155 0 97 -39 155 -105 155 -17 0 -41 -7 -54 -16z m89 -32 c28 -23
40 -134 20 -183 -26 -63 -100 -56 -114 12 -16 81 -1 158 34 176 32 16 34 16
60 -5z"/>
<path d="M3268 3911 c-31 -28 -33 -32 -35 -111 -3 -116 30 -170 102 -170 66 0
105 58 105 155 0 31 -6 71 -14 89 -29 70 -102 87 -158 37z m103 -20 c18 -14
23 -31 27 -78 8 -106 -26 -165 -83 -143 -35 13 -48 53 -42 134 4 57 9 73 27
88 28 23 42 23 71 -1z"/>
<path d="M3629 3911 c-16 -16 -29 -34 -29 -40 0 -20 39 -11 64 14 14 14 31 25
39 25 23 0 47 -24 52 -52 4 -22 -6 -37 -69 -100 -42 -41 -78 -85 -82 -100 l-6
-28 101 0 c90 0 101 2 101 18 0 16 -9 18 -75 16 -41 0 -75 2 -75 6 0 4 31 36
69 72 73 68 89 99 74 145 -20 59 -115 73 -164 24z"/>
<path d="M3498 3674 c-12 -11 5 -44 23 -44 14 0 19 7 19 25 0 18 -5 25 -18 25
-10 0 -21 -3 -24 -6z"/>
<path d="M3281 3144 c-32 -23 -51 -74 -51 -139 0 -97 39 -155 105 -155 66 0
105 58 105 155 0 97 -39 155 -105 155 -17 0 -41 -7 -54 -16z m95 -35 c22 -24
31 -138 14 -179 -17 -42 -43 -54 -77 -38 -31 15 -41 42 -41 113 0 68 10 98 36
111 31 15 50 13 68 -7z"/>
<path d="M3654 3150 c-25 -10 -56 -49 -48 -62 9 -15 33 -8 58 17 14 14 31 25
39 25 23 0 47 -24 52 -51 4 -21 -8 -39 -75 -107 -48 -48 -80 -89 -80 -101 0
-20 6 -21 104 -21 95 0 104 2 99 18 -4 16 -15 18 -79 17 -41 -1 -74 2 -74 6 0
3 29 34 65 67 75 70 94 107 75 153 -19 44 -80 62 -136 39z"/>
<path d="M3498 2894 c-12 -11 5 -44 23 -44 14 0 19 7 19 25 0 18 -5 25 -18 25
-10 0 -21 -3 -24 -6z"/>
<path d="M3289 2356 c-20 -14 -36 -32 -36 -40 0 -20 8 -20 33 -1 10 8 22 15
27 15 4 0 7 -52 7 -115 0 -112 0 -114 -22 -113 -43 2 -55 -2 -55 -17 0 -12 18
-15 99 -15 54 0 98 3 98 8 -1 18 -18 29 -46 27 l-32 -1 0 115 c-1 167 0 161
-20 161 -9 0 -33 -11 -53 -24z"/>
<path d="M3287 1573 c-20 -14 -37 -32 -37 -40 0 -17 11 -17 36 2 10 8 22 15
27 15 4 0 7 -51 7 -113 l0 -113 -35 1 c-31 2 -52 -14 -38 -29 4 -3 48 -6 100
-6 76 0 93 3 93 15 0 16 -1 16 -45 19 l-30 1 -2 115 c-1 63 -2 125 -2 138 -1
30 -27 28 -74 -5z"/>
<path d="M3270 793 c-27 -25 -32 -36 -37 -99 -9 -116 28 -184 101 -184 67 0
106 58 106 155 0 31 -6 71 -14 89 -29 69 -102 87 -156 39z m108 -28 c19 -18
27 -125 12 -169 -8 -24 -21 -41 -37 -47 -56 -21 -89 35 -80 138 4 54 10 71 27
85 24 19 54 17 78 -7z"/>
</g>
</svg>
