<?xml version="1.0" standalone="no"?>
<!DOCTYPE svg PUBLIC "-//W3C//DTD SVG 20010904//EN"
 "http://www.w3.org/TR/2001/REC-SVG-20010904/DTD/svg10.dtd">
<svg version="1.0" xmlns="http://www.w3.org/2000/svg"
 width="1161.000000pt" height="841.000000pt" viewBox="0 0 1161.000000 841.000000"
 preserveAspectRatio="xMidYMid meet">
<metadata>
Created by potrace 1.16, written by Peter Selinger 2001-2019
</metadata>
<g transform="translate(0.000000,841.000000) scale(0.100000,-0.100000)"
fill="#000000" stroke="none">
<path d="M480 7995 c0 -52 -4 -85 -10 -85 -6 0 -29 9 -51 21 -57 29 -81 23
-97 -26 -17 -51 -12 -201 9 -232 18 -29 35 -29 92 2 26 13 49 20 51 16 3 -4 5
-1683 5 -3731 0 -2047 2 -3724 4 -3726 2 -3 1332 -6 1642 -4 20 0 20 7 19 870
l0 870 131 0 132 0 0 575 c0 317 2 577 4 580 6 5 51 6 234 6 83 0 210 -1 283
-1 l132 0 0 63 c1 34 1 166 1 292 l-1 230 133 -1 132 0 0 284 c0 182 3 286 10
290 5 4 25 7 44 7 l34 0 -1 286 0 287 26 3 c15 2 1779 4 3920 4 l3892 -1 0
518 0 518 -525 0 -525 0 0 505 0 505 -412 0 c-227 0 -1970 0 -3873 0 l-3460 0
1 290 0 290 -458 0 -458 0 0 290 0 290 -530 0 -530 0 0 -85z m1034 -297 c0
-197 -4 -361 -7 -365 -4 -3 -25 3 -46 15 -53 30 -85 29 -100 -5 -32 -69 -25
-216 12 -259 l22 -25 52 27 c29 15 56 24 60 21 8 -8 9 -4114 1 -4122 -3 -3
-27 6 -53 20 -60 32 -70 31 -92 -2 -26 -39 -26 -217 0 -256 22 -33 32 -34 92
-2 26 14 50 23 53 21 7 -7 6 -356 -1 -363 -3 -3 -28 8 -56 24 -61 34 -79 27
-99 -38 -17 -57 -10 -190 12 -224 21 -32 38 -31 93 1 25 14 47 23 50 20 7 -6
7 -356 0 -362 -3 -3 -28 6 -56 21 -39 19 -56 23 -70 16 -37 -20 -54 -175 -28
-250 19 -54 37 -59 96 -28 33 17 53 22 57 15 8 -12 8 -347 1 -354 -3 -3 -30 8
-62 23 l-57 28 -18 -23 c-36 -44 -39 -216 -5 -268 20 -30 39 -30 94 1 24 14
46 23 49 21 6 -7 6 -355 0 -362 -3 -2 -29 7 -58 20 -29 13 -58 22 -65 19 -41
-15 -57 -223 -22 -277 22 -32 40 -32 95 -1 36 20 44 22 49 9 5 -13 7 -115 4
-166 -1 -17 -32 -18 -504 -18 l-504 0 0 3721 c0 3474 -1 3721 -17 3737 -16 16
-20 15 -69 -11 -29 -15 -55 -27 -59 -27 -23 0 -34 193 -13 243 10 23 24 22 80
-10 46 -25 48 -26 61 -8 15 20 16 31 16 113 l-1 52 507 -2 507 -3 -1 -357z
m917 -252 c4 -107 -1 -690 -6 -694 -3 -4 -25 4 -48 16 -53 28 -78 28 -96 0
-19 -30 -26 -172 -12 -225 16 -60 38 -68 95 -38 26 14 51 25 57 25 5 0 9 -153
9 -395 0 -267 -3 -395 -10 -395 -6 0 -28 9 -50 20 -82 42 -102 19 -108 -120
-2 -77 0 -102 15 -130 21 -40 45 -42 99 -9 17 10 36 19 43 19 8 0 11 -107 11
-393 0 -217 -3 -396 -6 -399 -3 -3 -24 5 -47 18 -79 45 -107 24 -115 -87 -6
-86 4 -152 28 -181 l19 -23 53 28 c29 15 57 27 61 27 9 0 10 -354 1 -363 -4
-4 -28 5 -54 20 -28 16 -54 24 -64 20 -56 -22 -63 -253 -10 -298 14 -11 24 -9
67 14 27 14 54 24 58 21 10 -6 12 -347 3 -357 -4 -3 -28 6 -55 20 -27 14 -56
22 -64 19 -32 -12 -48 -75 -43 -174 5 -79 9 -97 27 -115 l22 -22 51 27 c29 16
56 24 60 20 5 -5 8 -48 6 -96 l-3 -87 -439 1 c-242 0 -441 2 -443 4 -2 1 -3
887 -3 1969 -1 1868 -1 1966 -18 1987 l-18 22 -54 -27 c-51 -26 -54 -26 -67
-9 -14 20 -18 64 -14 180 1 16 7 39 15 49 13 18 15 18 67 -9 l53 -28 17 20
c11 14 16 40 17 81 0 33 3 64 6 69 3 5 193 9 446 9 l440 0 1 -31z m7745 -1044
l0 -492 -3860 2 -3861 3 0 307 c0 365 2 356 -88 312 -31 -15 -59 -25 -63 -22
-25 25 -26 220 -1 245 12 13 21 11 65 -14 48 -26 52 -27 68 -11 11 11 17 37
19 85 2 37 3 71 4 74 1 3 1737 5 3859 5 l3857 -1 1 -493z m1052 -1009 l2 -493
-4385 0 c-2412 0 -4386 3 -4386 8 -1 4 -2 143 -3 309 -2 357 0 351 -84 309
-28 -14 -56 -26 -61 -26 -33 0 -36 219 -3 252 6 6 28 -1 60 -19 47 -26 52 -27
67 -12 12 12 18 38 20 90 2 41 3 74 4 75 1 0 1973 0 4384 0 l4382 -1 3 -492z
m-7840 -796 l2 -277 -465 0 c-256 0 -466 3 -466 8 -1 4 -2 47 -3 96 -2 73 -6
91 -21 102 -16 12 -24 10 -61 -11 -74 -44 -86 -32 -89 90 -2 68 7 121 23 137
4 4 31 -4 60 -19 48 -25 54 -26 69 -11 11 12 17 38 18 90 2 40 4 73 4 73 1 0
209 0 464 0 l462 0 3 -278z m-93 -582 l0 -280 -415 3 c-228 2 -417 6 -419 8
-3 2 -6 45 -7 95 -3 118 -12 128 -76 94 -58 -31 -75 -31 -84 -2 -10 32 -12
157 -3 191 13 47 23 50 68 22 75 -48 92 -33 97 79 1 33 2 62 3 65 1 3 189 5
419 5 l417 0 0 -280z m-260 -580 l0 -279 -283 -1 c-179 0 -286 4 -290 10 -3 5
-7 48 -7 96 -1 47 -5 91 -9 97 -11 18 -47 14 -81 -8 -62 -41 -76 -23 -80 95
-2 68 7 121 23 137 4 4 29 -3 54 -17 26 -14 54 -25 62 -25 19 0 29 32 30 100
1 30 4 60 8 65 4 7 109 10 290 10 l283 0 0 -280z m-654 -312 c0 -5 2 -128 2
-276 l2 -267 -422 0 -423 0 -1 73 c-1 141 -15 160 -87 117 -50 -31 -70 -27
-78 17 -17 88 -4 213 22 213 8 0 32 -9 54 -20 75 -38 87 -24 89 98 l1 52 420
0 c231 0 420 -3 421 -7z m0 -595 c3 -67 4 -505 1 -519 -3 -15 -45 -16 -423
-15 l-419 1 -1 80 c-2 138 -16 155 -93 112 -48 -26 -59 -25 -71 11 -11 36 -8
173 4 205 l11 29 54 -31 c75 -42 89 -31 94 73 l4 76 419 0 419 0 1 -22z m-261
-836 l0 -277 -290 0 -290 0 -1 80 c-2 139 -16 156 -99 111 l-47 -26 -12 24
c-14 26 -19 142 -7 199 8 43 31 49 75 18 63 -45 91 -19 91 87 l0 62 290 0 290
0 0 -278z m-2 -579 l-3 -278 -285 0 -285 0 -6 95 c-3 53 -9 101 -13 108 -10
16 -37 15 -63 -3 -11 -8 -33 -19 -47 -25 -24 -9 -28 -7 -37 17 -12 32 -15 145
-5 196 8 44 19 46 82 12 68 -36 81 -19 83 108 l1 47 290 0 290 0 -2 -277z m2
-583 l0 -280 -290 0 -290 0 0 85 c0 83 -13 135 -34 135 -6 0 -33 -12 -60 -26
-47 -25 -50 -26 -63 -8 -12 17 -15 39 -15 119 0 74 2 92 16 111 15 19 16 18
66 -10 46 -25 54 -27 67 -13 15 15 21 48 22 125 l1 42 290 0 290 0 0 -280z"/>
<path d="M770 7835 c0 -37 -4 -55 -12 -56 -7 -1 -19 -2 -27 -3 -8 0 -16 -7
-18 -13 -4 -10 44 -13 216 -13 187 0 220 2 215 14 -3 8 -13 13 -23 11 -34 -6
-45 11 -42 65 2 45 0 51 -16 48 -15 -3 -18 -13 -17 -55 1 -42 -2 -52 -17 -56
-17 -5 -19 1 -19 54 0 46 -3 59 -15 59 -15 0 -18 -10 -17 -70 0 -34 -14 -54
-30 -44 -4 3 -8 30 -8 60 0 41 -4 54 -15 54 -11 0 -15 -13 -15 -54 0 -37 -4
-56 -14 -59 -22 -8 -26 2 -26 60 0 40 -4 53 -15 53 -10 0 -15 -15 -17 -57 -2
-43 -7 -57 -19 -59 -12 -1 -16 6 -17 30 -1 77 -2 86 -17 86 -12 0 -15 -13 -15
-55z"/>
<path d="M737 5304 c-9 -10 2 -24 19 -24 8 0 14 7 14 15 0 15 -21 21 -33 9z"/>
<path d="M739 2968 c0 -7 -1 -69 -2 -138 -1 -104 1 -125 13 -125 12 0 15 21
16 115 2 145 1 140 19 140 8 0 15 5 15 10 0 15 -60 12 -61 -2z"/>
<path d="M831 2768 l-1 -28 95 0 95 0 0 27 c0 14 -3 23 -7 19 -5 -4 -8 -13 -8
-19 0 -8 -26 -12 -80 -12 -72 -1 -81 1 -87 20 -5 17 -6 16 -7 -7z"/>
<path d="M709 2200 c-13 -34 1 -40 95 -40 84 0 92 2 93 20 1 11 -2 22 -8 25
-5 4 -9 -2 -9 -13 0 -17 -8 -19 -77 -19 -71 0 -79 2 -83 21 -5 16 -7 17 -11 6z"/>
<path d="M757 1753 c-4 -3 20 -33 53 -65 62 -61 71 -77 44 -74 -9 0 -19 -5
-21 -12 -4 -10 7 -12 43 -10 l49 3 0 43 c0 44 -16 59 -25 22 -5 -20 -11 -15
-63 39 -58 61 -68 67 -80 54z"/>
<path d="M737 1163 c-4 -3 5 -17 19 -30 l26 -24 -27 -29 c-18 -19 -23 -30 -15
-35 6 -4 20 2 31 14 24 26 30 26 57 0 34 -31 48 -12 16 22 l-27 29 26 23 c15
12 27 26 27 30 0 14 -24 7 -47 -15 l-23 -21 -23 21 c-25 24 -30 26 -40 15z"/>
<path d="M790 576 c0 -34 -2 -36 -35 -36 -37 0 -50 -19 -15 -21 11 -1 26 -2
33 -3 6 0 13 -16 15 -33 4 -44 22 -42 22 2 0 19 3 34 8 34 4 -1 19 -1 35 0 40
2 33 21 -8 21 -32 0 -35 2 -35 29 0 17 -4 33 -10 36 -6 4 -10 -8 -10 -29z"/>
<path d="M1747 7303 c-4 -3 -7 -60 -7 -125 l0 -118 95 0 95 0 0 125 0 125 -88
0 c-49 0 -92 -3 -95 -7z m171 -119 l3 -111 -83 1 -83 1 0 43 -1 42 24 -30 c17
-22 32 -30 56 -30 71 0 104 86 50 129 -35 28 -66 26 -97 -4 -14 -14 -27 -22
-29 -18 -4 7 -3 64 1 83 1 3 36 5 79 5 l77 0 3 -111z m-44 35 c31 -25 33 -57
6 -87 -28 -30 -64 -28 -89 4 -27 34 -26 50 4 79 29 30 45 31 79 4z"/>
<path d="M1770 6379 c16 -46 30 -84 30 -86 0 -2 7 -3 15 -3 31 0 82 111 70
151 -11 33 -31 22 -27 -15 4 -38 -32 -122 -42 -96 -3 8 -14 40 -24 70 -12 33
-25 56 -36 58 -14 3 -12 -9 14 -79z"/>
<path d="M1936 6374 c-19 -18 -21 -85 -4 -102 17 -17 53 -15 68 3 16 19 16 81
0 100 -16 19 -45 19 -64 -1z m56 -27 c8 -52 -20 -93 -45 -68 -13 13 -11 69 3
86 15 18 38 8 42 -18z"/>
<path d="M1974 5475 c-13 -13 -24 -31 -24 -40 0 -9 -10 -20 -22 -25 -19 -7
-20 -9 -4 -9 11 -1 16 -6 13 -15 -3 -8 -11 -41 -18 -75 -10 -55 -38 -114 -39
-83 0 6 -8 12 -17 12 -16 0 -16 -2 -2 -15 33 -33 68 11 90 113 11 51 17 62 34
63 18 1 18 2 1 6 -14 4 -17 11 -12 36 7 35 29 55 34 32 4 -19 22 -20 22 -1 0
26 -30 27 -56 1z"/>
<path d="M1771 5368 c16 -45 32 -85 35 -87 10 -10 38 16 57 53 25 48 28 109 6
114 -13 2 -15 -3 -11 -23 5 -27 -26 -121 -37 -110 -3 4 -15 34 -27 68 -13 39
-27 63 -37 65 -14 3 -12 -9 14 -80z"/>
<path d="M1956 4642 c-17 -22 -17 -25 -3 -19 15 5 17 -1 17 -48 0 -46 -2 -53
-16 -48 -15 5 -14 3 1 -21 17 -25 19 -26 36 -10 20 18 26 40 9 29 -11 -7 -12
-6 -15 57 -1 35 1 45 12 41 19 -7 16 11 -4 30 -17 14 -20 13 -37 -11z"/>
<path d="M1770 4580 c16 -45 30 -83 30 -86 0 -2 7 -4 15 -4 43 0 95 160 54
168 -13 2 -15 -3 -11 -23 5 -27 -26 -121 -37 -110 -3 4 -15 34 -27 68 -13 39
-27 63 -37 65 -15 3 -13 -9 13 -78z"/>
<path d="M1770 4072 c0 -5 9 -17 20 -27 25 -23 25 -33 -2 -62 -31 -33 -13 -42
20 -10 l28 27 27 -27 c14 -15 30 -24 34 -20 4 4 -5 20 -20 34 l-27 27 27 28
c32 33 23 51 -10 20 -29 -27 -39 -27 -62 -2 -19 21 -35 26 -35 12z"/>
<path d="M1827 3503 c-4 -3 -7 -19 -7 -35 0 -25 -4 -28 -31 -28 -20 0 -29 -4
-26 -12 2 -8 15 -12 30 -10 25 3 27 1 27 -32 0 -24 5 -36 14 -36 8 0 13 8 11
18 -4 28 14 52 40 52 37 0 30 18 -7 22 -28 3 -32 7 -33 30 0 29 -8 42 -18 31z"/>
<path d="M3850 6812 c-6 -2 -10 -39 -10 -82 0 -43 -4 -81 -9 -85 -5 -3 -30 6
-56 19 -25 14 -53 22 -61 19 -28 -10 -41 -57 -42 -143 -2 -151 27 -186 112
-136 24 14 46 22 50 19 3 -3 6 -102 6 -220 l0 -213 1723 2 1722 3 3 408 c1
224 -1 408 -5 408 -19 3 -3424 4 -3433 1z m3411 -44 c4 -126 0 -740 -5 -745
-8 -8 -3374 -11 -3385 -3 -3 3 -7 93 -7 201 0 244 -8 260 -95 202 -36 -24 -41
-25 -56 -11 -18 19 -26 175 -10 221 11 34 26 34 77 2 32 -20 44 -23 60 -15 11
6 21 18 21 28 1 9 2 44 4 77 1 33 3 61 4 63 0 1 764 2 1696 2 l1695 0 1 -22z"/>
<path d="M5297 6703 c-4 -3 -7 -44 -7 -90 0 -45 -2 -83 -5 -83 -3 0 -28 12
-56 27 -61 31 -77 26 -97 -33 -18 -52 -10 -195 12 -229 21 -31 38 -31 91 0 23
13 45 21 49 18 3 -3 6 -53 6 -110 l0 -103 314 0 c242 0 315 3 318 13 3 10 2
564 -1 590 -1 9 -615 10 -624 0z m603 -301 l0 -279 -286 0 c-203 0 -287 3
-290 11 -2 6 -6 50 -7 97 -2 47 -7 90 -11 97 -11 18 -35 14 -84 -14 -43 -26
-46 -26 -59 -8 -14 19 -16 39 -15 137 0 111 17 128 84 87 37 -22 63 -26 74 -8
7 10 12 64 13 131 l1 27 290 0 290 0 0 -278z"/>
<path d="M5573 6491 c-32 -27 -30 -48 2 -27 l26 17 -3 -83 c-2 -57 -7 -83 -15
-84 -7 -1 -20 -2 -28 -3 -8 0 -15 -5 -15 -11 0 -6 30 -10 71 -10 52 0 70 3 67
12 -3 7 -13 13 -24 13 -17 0 -19 9 -22 98 -2 84 -5 97 -20 97 -9 -1 -27 -9
-39 -19z"/>
<path d="M6180 6633 c0 -106 -5 -111 -67 -77 -45 25 -53 27 -68 14 -27 -23
-36 -58 -36 -146 0 -93 19 -154 48 -154 10 0 38 12 62 25 34 20 46 23 53 13 4
-7 8 -57 8 -110 l0 -98 445 0 445 0 0 305 0 305 -445 0 -445 0 0 -77z m870
-227 c0 -253 -1 -275 -17 -279 -10 -3 -200 -5 -423 -4 l-405 2 -5 99 c-6 124
-16 134 -89 94 -43 -24 -50 -26 -61 -13 -29 35 -24 230 6 242 8 3 37 -6 64
-21 67 -36 80 -23 80 80 l0 74 425 0 425 0 0 -274z"/>
<path d="M6445 6490 c-57 -63 -23 -200 51 -200 54 0 89 89 64 164 -18 57 -79
76 -115 36z m65 -10 c38 -20 38 -140 0 -160 -10 -5 -26 -7 -35 -4 -15 6 -30
50 -29 84 2 48 6 60 20 74 18 19 20 19 44 6z"/>
<path d="M6685 6500 c-7 -11 1 -13 68 -12 l48 1 -27 -46 c-28 -48 -56 -138
-46 -147 14 -15 28 -3 30 27 1 17 18 64 37 102 19 39 35 73 35 78 0 11 -138 8
-145 -3z"/>
<path d="M6616 6323 c-12 -12 -6 -33 9 -33 8 0 15 6 15 14 0 17 -14 28 -24 19z"/>
<path d="M4128 6588 c-7 -7 -20 -14 -28 -16 -17 -4 -32 -24 -24 -31 3 -3 8 -1
12 5 8 12 43 28 55 26 4 -1 7 5 7 13 0 18 -5 19 -22 3z"/>
<path d="M4169 6589 c-7 -4 -4 -9 7 -13 11 -4 20 -2 22 4 3 8 8 7 18 -1 11 -9
14 -8 14 3 0 14 -41 20 -61 7z"/>
<path d="M4240 6588 c0 -5 23 -9 50 -9 65 -2 62 -1 91 -24 23 -18 25 -26 24
-92 -1 -55 1 -70 12 -66 7 3 10 10 6 16 -3 6 -6 37 -6 69 0 53 -3 61 -29 83
-16 14 -35 26 -41 26 -46 5 -107 3 -107 -3z"/>
<path d="M4063 6445 c-1 -47 1 -85 5 -85 4 0 8 38 9 85 1 47 -1 85 -5 85 -4 0
-8 -38 -9 -85z"/>
<path d="M4679 6528 c-1 -2 -2 -65 -3 -140 l-1 -138 47 0 c27 0 48 5 48 11 0
5 -4 8 -9 5 -19 -12 -26 23 -25 119 3 141 2 135 19 129 8 -4 15 -1 15 5 0 9
-87 17 -91 9z m39 -140 c-4 -161 -22 -159 -26 2 -2 103 0 120 13 120 13 0 15
-17 13 -122z"/>
<path d="M4835 6520 c3 -5 13 -10 21 -10 11 0 14 -22 14 -118 0 -113 -1 -119
-22 -130 -20 -9 -16 -11 30 -11 l52 -1 0 140 0 140 -51 0 c-31 0 -48 -4 -44
-10z m80 -126 c0 -82 -3 -118 -12 -126 -16 -13 -15 -16 -17 122 -2 95 7 141
23 125 3 -4 6 -58 6 -121z"/>
<path d="M4196 6461 c-24 -28 -27 -55 -8 -81 21 -31 78 -41 88 -16 3 9 10 13
15 10 5 -3 9 0 9 5 0 14 -6 14 -33 -2 -23 -14 -32 -15 -59 -3 -20 9 -26 66 -7
66 5 0 8 4 5 9 -3 5 9 11 28 13 35 4 56 -14 56 -47 0 -8 5 -15 10 -15 16 0 12
26 -9 51 -23 28 -74 33 -95 10z"/>
<path d="M4404 6343 c2 -28 -4 -45 -22 -65 -14 -15 -29 -25 -34 -22 -4 3 -8 2
-8 -3 0 -9 -77 -9 -86 0 -3 3 -16 2 -28 -3 -13 -4 -29 -4 -36 0 -8 5 -18 6
-23 3 -31 -19 -103 49 -90 86 5 12 3 13 -6 5 -13 -12 -5 -64 10 -64 5 0 9 -7
9 -16 0 -8 4 -13 9 -10 5 4 11 1 13 -5 6 -18 214 -20 256 -3 18 8 31 18 28 23
-4 5 -1 11 5 13 14 5 23 98 10 98 -5 0 -8 -17 -7 -37z"/>
<path d="M8009 6708 c0 -2 -2 -40 -4 -86 -1 -46 -5 -85 -8 -88 -3 -3 -28 7
-55 21 -65 34 -86 25 -101 -42 -13 -63 -5 -191 14 -220 20 -30 38 -29 92 3 25
14 47 23 50 20 4 -3 7 -53 7 -111 l0 -105 317 0 316 0 -1 303 -1 302 -312 3
c-172 1 -313 1 -314 0z m601 -306 l0 -279 -290 0 -290 0 0 83 c0 130 -23 161
-88 116 -46 -32 -59 -33 -71 -6 -12 26 -15 173 -5 212 8 27 36 29 72 4 68 -47
92 -26 92 80 l0 68 290 0 290 0 0 -278z"/>
<path d="M8272 6494 c-25 -17 -28 -42 -8 -69 12 -17 12 -21 -1 -30 -21 -16
-19 -61 2 -85 23 -25 75 -26 105 -2 26 21 30 65 7 90 -13 15 -13 19 -1 30 33
31 -1 82 -56 82 -14 0 -36 -7 -48 -16z m79 -20 c17 -21 0 -49 -31 -49 -31 0
-48 28 -31 49 8 9 21 16 31 16 10 0 23 -7 31 -16z m-2 -83 c7 -5 14 -21 14
-36 0 -47 -53 -60 -79 -20 -26 39 24 81 65 56z"/>
<path d="M9357 6703 c-2 -5 -4 -43 -5 -87 -1 -43 -3 -81 -6 -83 -2 -2 -26 7
-52 21 -61 32 -69 32 -91 -1 -26 -39 -26 -217 0 -256 22 -34 39 -34 94 -1 25
14 47 23 50 20 3 -3 6 -52 7 -108 l1 -103 315 0 315 0 0 300 0 300 -312 3
c-171 1 -313 -1 -316 -5z m603 -301 l0 -279 -290 0 -290 1 -1 75 c-1 116 -8
141 -40 141 -11 0 -33 -8 -47 -18 -43 -30 -57 -32 -71 -10 -16 26 -17 182 -2
221 l11 27 59 -29 c77 -40 88 -28 90 97 l1 52 290 0 290 0 0 -278z"/>
<path d="M9622 6494 c-16 -11 -22 -25 -22 -53 0 -59 48 -89 100 -61 15 8 17 6
13 -13 -7 -26 -32 -57 -46 -57 -6 0 -18 7 -28 16 -10 9 -23 13 -29 9 -18 -11
19 -45 50 -45 56 0 91 60 80 137 -11 74 -64 105 -118 67z m63 -14 c22 -8 26
-15 23 -41 -4 -38 -30 -59 -55 -43 -26 16 -33 49 -17 73 18 24 15 24 49 11z"/>
<path d="M2704 6486 c1 -26 6 -41 16 -43 10 -3 11 -2 3 4 -6 4 -13 24 -16 43
-4 34 -4 33 -3 -4z"/>
<path d="M2837 6502 c-9 -2 -17 -9 -18 -15 -3 -44 0 -207 4 -214 4 -6 115 -9
173 -4 12 1 18 81 6 81 -5 0 -8 -10 -7 -22 4 -44 -3 -48 -86 -48 l-79 0 0 105
0 105 79 0 c89 0 88 1 85 -77 -1 -29 2 -53 6 -53 4 0 8 32 7 70 -1 68 -1 70
-26 71 -14 0 -49 1 -77 2 -28 1 -58 1 -67 -1z"/>
<path d="M8928 6474 c-5 -4 -8 -20 -8 -36 0 -25 -3 -28 -35 -28 -37 0 -50 -19
-15 -21 11 -1 26 -2 33 -3 6 0 13 -16 15 -33 4 -43 22 -42 22 1 0 28 4 33 23
33 39 1 47 3 47 13 0 6 -15 10 -34 10 -33 0 -35 2 -38 36 -2 20 -6 32 -10 28z"/>
<path d="M2873 6463 c-7 -2 -13 -12 -13 -20 0 -14 2 -14 18 -1 9 8 23 13 30
12 6 -1 18 -2 26 -3 27 -2 28 -35 2 -54 -15 -10 -26 -25 -26 -32 0 -7 13 -1
30 15 34 31 37 51 14 74 -15 15 -55 20 -81 9z"/>
<path d="M3380 6379 c17 -45 33 -85 36 -88 10 -10 38 16 57 53 25 48 28 109 6
114 -13 2 -15 -3 -11 -23 5 -27 -26 -121 -37 -110 -3 4 -15 34 -27 68 -13 38
-27 63 -37 65 -14 3 -12 -10 13 -79z"/>
<path d="M7520 6450 c0 -5 9 -18 20 -28 23 -22 18 -47 -12 -63 -15 -8 -17 -14
-9 -22 8 -8 17 -5 34 11 29 27 38 27 60 2 16 -20 37 -27 37 -13 0 4 -11 19
-25 33 l-25 26 25 24 c14 13 25 27 25 32 0 15 -26 8 -40 -12 -8 -11 -19 -20
-26 -20 -6 0 -19 9 -29 20 -19 21 -35 26 -35 10z"/>
<path d="M2740 6415 c0 -18 4 -23 16 -18 13 5 13 7 2 14 -11 7 -10 11 2 19 13
8 12 10 -2 10 -12 0 -18 -8 -18 -25z"/>
<path d="M3036 6368 c-21 -30 -20 -61 2 -88 40 -49 97 6 76 72 -13 43 -54 51
-78 16z m64 -43 c0 -42 -22 -62 -44 -40 -33 33 -4 112 30 84 8 -6 14 -26 14
-44z"/>
<path d="M2892 6308 c7 -19 38 -22 38 -4 0 10 -9 16 -21 16 -12 0 -19 -5 -17
-12z"/>
<path d="M3840 5715 c0 -94 -3 -98 -58 -65 -78 48 -109 14 -110 -120 -2 -148
24 -183 107 -141 22 12 45 21 51 21 6 0 10 -73 10 -215 l0 -215 1725 0 1725 0
0 410 0 410 -1725 0 -1725 0 0 -85z m3421 48 c1 -22 1 -710 0 -738 -1 -20 -8
-20 -1689 -20 -928 0 -1692 3 -1697 7 -7 4 -10 72 -10 185 1 184 -6 243 -30
243 -7 0 -36 -12 -64 -27 -28 -14 -54 -23 -57 -20 -26 26 -26 219 0 245 14 15
19 15 39 2 12 -7 35 -20 50 -28 43 -21 57 -2 61 84 2 38 5 72 5 77 1 4 764 7
1696 7 1607 0 1695 -1 1696 -17z"/>
<path d="M5294 5691 c-2 -2 -4 -42 -4 -88 0 -45 -2 -83 -4 -83 -2 0 -30 12
-61 27 l-58 26 -18 -22 c-35 -43 -37 -217 -4 -268 20 -29 38 -29 90 2 23 13
45 21 49 18 3 -3 6 -53 6 -110 l0 -103 318 0 317 0 0 300 c0 165 -2 301 -5
301 -15 4 -622 4 -626 0z m606 -299 l0 -279 -290 0 -290 0 0 26 c-2 105 -7
168 -14 179 -11 19 -39 14 -89 -14 -45 -24 -46 -25 -56 -5 -15 26 -19 157 -8
204 11 44 24 46 85 11 41 -24 45 -25 60 -10 12 11 17 38 19 89 1 39 2 73 3 75
0 1 131 2 290 2 l290 0 0 -278z"/>
<path d="M5573 5483 c-13 -8 -23 -22 -23 -29 0 -12 5 -11 25 2 l26 17 -3 -84
c-2 -58 -7 -84 -15 -85 -7 -1 -20 -2 -28 -3 -8 0 -15 -5 -15 -11 0 -6 30 -10
71 -10 52 0 70 3 66 13 -2 6 -14 11 -26 10 -20 -3 -21 1 -21 97 0 89 -2 100
-17 99 -10 0 -28 -7 -40 -16z"/>
<path d="M6180 5620 c0 -102 -5 -107 -68 -74 -57 30 -75 25 -94 -25 -15 -42
-11 -196 7 -231 19 -36 32 -37 94 -5 l49 24 6 -22 c3 -12 6 -61 6 -109 l0 -88
445 0 445 0 0 300 c0 165 -3 301 -7 301 -5 1 -205 2 -445 3 l-438 1 0 -75z
m870 -228 l0 -279 -422 1 -423 1 -5 95 c-7 132 -16 141 -94 95 -40 -23 -44
-24 -57 -9 -16 20 -23 186 -9 222 12 29 31 28 85 -3 61 -36 75 -20 75 81 l0
74 425 0 425 0 0 -278z"/>
<path d="M6458 5493 c-40 -11 -55 -136 -20 -182 25 -34 73 -40 101 -12 26 26
36 99 21 145 -16 49 -47 64 -102 49z m56 -26 c12 -9 20 -30 23 -63 5 -62 -14
-100 -47 -96 -30 3 -31 4 -39 44 -9 42 3 108 20 119 19 12 22 11 43 -4z"/>
<path d="M6686 5491 c-8 -12 20 -18 71 -16 l43 2 -31 -55 c-37 -67 -50 -142
-25 -142 12 0 16 9 16 34 0 20 15 63 35 102 19 37 35 71 35 75 0 12 -137 12
-144 0z"/>
<path d="M6623 5313 c-18 -7 -16 -33 2 -33 8 0 15 9 15 20 0 11 -1 20 -2 19
-2 0 -9 -3 -15 -6z"/>
<path d="M4140 5579 c0 -5 -4 -8 -9 -4 -5 3 -22 -6 -38 -19 -28 -24 -28 -26
-29 -144 -1 -102 1 -125 17 -149 10 -15 22 -28 26 -28 5 0 13 -3 18 -6 13 -8
228 -8 235 0 3 3 14 11 25 18 11 6 19 16 17 22 -1 6 2 11 6 11 5 0 10 28 11
62 1 34 4 65 7 70 3 4 1 8 -5 8 -7 0 -7 8 -1 24 8 22 5 36 -9 36 -4 0 -7 -39
-7 -87 0 -49 -2 -97 -5 -108 -8 -37 -52 -50 -160 -49 -110 1 -143 12 -155 53
-12 44 -10 207 3 237 7 16 12 25 13 19 0 -5 5 -2 11 7 5 10 16 15 24 12 9 -4
15 0 15 10 0 9 -2 16 -5 16 -3 0 -5 -5 -5 -11z"/>
<path d="M4220 5575 c0 -6 13 -10 29 -10 44 1 48 12 7 17 -22 2 -36 0 -36 -7z"/>
<path d="M4300 5574 c0 -8 6 -11 15 -8 8 4 15 9 15 13 0 4 -7 8 -15 8 -8 0
-15 -6 -15 -13z"/>
<path d="M4164 5571 c7 -10 31 -9 42 2 4 4 -5 7 -20 7 -15 0 -25 -4 -22 -9z"/>
<path d="M4340 5570 c0 -5 7 -10 15 -10 8 0 26 -17 40 -37 16 -25 25 -32 25
-20 0 9 -13 31 -29 47 -28 30 -51 39 -51 20z"/>
<path d="M4677 5513 c-2 -5 -3 -66 -3 -138 l1 -130 53 -3 c37 -2 52 0 47 8 -3
6 -11 8 -16 5 -15 -10 -21 21 -23 123 -2 109 0 122 20 122 8 0 14 5 14 10 0
11 -87 14 -93 3z m41 -135 c-4 -161 -22 -159 -26 2 -2 103 0 120 13 120 13 0
15 -17 13 -122z"/>
<path d="M4834 5513 c4 -5 13 -8 19 -8 9 0 12 -36 12 -125 0 -89 -3 -125 -12
-125 -6 0 -15 -3 -19 -7 -4 -5 16 -8 44 -8 l52 0 0 140 0 140 -52 0 c-28 0
-48 -3 -44 -7z m81 -133 c-1 -66 -4 -123 -8 -126 -16 -16 -21 14 -22 126 -1
103 2 120 15 120 14 0 16 -16 15 -120z"/>
<path d="M4212 5464 c-17 -8 -43 -60 -34 -69 7 -6 8 -10 11 -36 0 -5 6 -7 11
-4 6 3 10 1 10 -4 0 -19 59 -12 77 9 22 26 24 66 4 84 -19 17 -60 27 -79 20z
m50 -18 c31 -13 34 -18 30 -46 -8 -55 -80 -62 -97 -10 -6 19 -2 33 20 57 13
15 7 15 47 -1z"/>
<path d="M8011 5690 c-4 -3 -7 -40 -8 -83 0 -43 -3 -80 -6 -83 -3 -3 -28 6
-55 20 -59 30 -75 27 -93 -17 -20 -48 -17 -208 4 -241 22 -32 40 -33 96 -1 24
14 46 23 49 21 3 -3 5 -53 6 -111 l1 -105 578 0 577 0 -2 303 -3 302 -568 0
c-313 0 -572 -2 -576 -5z m1127 -297 l-3 -278 -552 -1 -553 -1 0 83 c0 91 -11
134 -35 134 -9 0 -37 -11 -63 -25 -32 -17 -50 -21 -57 -14 -5 5 -12 54 -13
108 -5 142 13 166 85 116 28 -18 41 -22 55 -14 10 5 19 14 19 19 1 6 3 15 4
20 1 6 3 37 4 70 l1 60 555 0 555 0 -2 -277z"/>
<path d="M8288 5425 c-27 -41 -48 -79 -48 -85 0 -5 22 -10 50 -10 47 0 50 -2
50 -25 0 -16 6 -25 15 -25 9 0 15 9 15 25 0 16 6 25 15 25 8 0 15 5 15 10 0 6
-7 10 -15 10 -12 0 -15 15 -15 75 0 100 -18 100 -82 0z m49 -72 c-3 -2 -19 -3
-35 -1 l-31 3 32 51 32 51 3 -49 c2 -28 1 -52 -1 -55z"/>
<path d="M8449 5481 c-21 -17 -24 -28 -24 -91 0 -63 3 -74 24 -91 13 -10 33
-19 46 -19 13 0 33 9 46 19 21 17 24 28 24 91 0 63 -3 74 -24 91 -13 10 -33
19 -46 19 -13 0 -33 -9 -46 -19z m75 -23 c22 -32 21 -110 -3 -139 -18 -22 -19
-22 -45 -6 -23 16 -26 24 -26 77 0 50 4 61 22 74 29 21 34 20 52 -6z"/>
<path d="M8625 5475 c-48 -47 -31 -172 25 -190 58 -18 103 33 99 113 -5 93
-69 133 -124 77z m81 -20 c12 -19 15 -39 12 -77 -10 -94 -74 -106 -88 -16 -11
73 5 109 52 117 4 0 15 -10 24 -24z"/>
<path d="M8808 5490 c-42 -25 -47 -151 -7 -191 26 -26 65 -24 94 6 25 24 28
38 25 110 -3 67 -60 105 -112 75z m66 -26 c19 -19 23 -71 11 -130 -7 -30 -42
-37 -66 -13 -27 27 -27 111 1 139 24 24 34 25 54 4z"/>
<path d="M9880 5613 c0 -45 -4 -84 -8 -87 -5 -3 -31 7 -59 21 -29 14 -57 22
-63 18 -24 -15 -40 -76 -40 -153 0 -142 26 -172 109 -128 27 14 51 22 55 19 3
-4 6 -53 6 -110 l0 -103 580 0 580 0 0 300 c0 165 -3 301 -7 301 -5 1 -266 2
-580 3 l-573 1 0 -82z m1131 45 c1 -18 1 -499 0 -524 -1 -21 -1 -21 -553 -21
l-553 0 -1 93 c-1 129 -18 146 -98 99 -36 -21 -45 -23 -55 -12 -28 35 -23 233
7 244 8 4 37 -6 63 -20 43 -25 49 -26 63 -11 9 8 17 25 17 37 1 12 3 42 4 67
1 25 3 48 4 53 0 4 249 7 551 7 433 0 550 -3 551 -12z"/>
<path d="M10167 5430 c-26 -38 -48 -75 -49 -82 -2 -9 14 -15 46 -18 38 -4 50
-9 52 -23 5 -37 24 -36 27 1 0 12 10 24 22 27 20 6 20 6 -2 15 -19 8 -21 16
-21 67 0 32 0 64 -1 71 -3 29 -31 7 -74 -58z m49 -27 c-1 -46 -2 -48 -33 -51
-18 -2 -33 1 -33 6 0 9 57 92 64 92 2 0 3 -21 2 -47z"/>
<path d="M10320 5480 c-19 -19 -25 -50 -22 -115 3 -63 41 -95 95 -81 38 9 55
59 49 147 -4 60 -80 91 -122 49z m93 -39 c10 -38 -2 -115 -19 -128 -22 -16
-26 -16 -48 0 -20 15 -30 95 -16 132 15 40 72 37 83 -4z"/>
<path d="M10494 5479 c-15 -17 -19 -36 -19 -91 0 -61 3 -72 24 -89 13 -10 33
-19 46 -19 13 0 33 9 46 19 21 17 24 28 24 91 0 63 -3 74 -24 91 -31 25 -73
24 -97 -2z m80 -21 c32 -46 11 -160 -28 -154 -33 5 -46 28 -46 82 0 41 5 59
20 74 26 26 35 25 54 -2z"/>
<path d="M10671 5474 c-21 -27 -24 -42 -21 -104 3 -64 42 -99 96 -86 47 12 70
116 39 175 -25 49 -82 56 -114 15z m79 -14 c33 -33 23 -139 -14 -153 -37 -14
-56 12 -58 78 -1 51 2 63 18 79 20 21 30 20 54 -4z"/>
<path d="M2704 5476 c1 -26 6 -41 16 -43 10 -3 11 -2 3 4 -6 4 -13 24 -16 43
-4 34 -4 33 -3 -4z"/>
<path d="M2833 5489 c-15 -5 -18 -44 -14 -204 l1 -30 87 2 c49 1 91 2 94 2 9
1 8 171 -1 171 -4 0 -7 -36 -6 -80 l2 -80 -83 0 -83 0 0 105 0 105 84 0 c79 0
85 -1 81 -20 -2 -11 1 -20 6 -20 6 0 9 12 7 26 -3 26 -5 27 -81 28 -43 0 -85
-2 -94 -5z"/>
<path d="M2873 5453 c-7 -2 -13 -12 -13 -20 0 -15 2 -15 18 -1 17 15 59 15 75
-1 12 -12 -1 -37 -28 -51 -13 -7 -21 -18 -19 -25 6 -16 64 37 64 58 0 36 -54
58 -97 40z"/>
<path d="M9444 5433 c1 -24 -3 -28 -31 -31 -18 -2 -33 -9 -33 -15 0 -7 14 -12
33 -12 29 0 32 -3 32 -29 0 -16 6 -31 13 -33 8 -3 12 7 12 30 0 31 3 34 27 33
14 0 28 5 30 12 3 8 -6 12 -26 12 -28 0 -31 3 -31 30 0 19 -5 30 -14 30 -8 0
-13 -10 -12 -27z"/>
<path d="M3381 5368 c17 -45 32 -85 35 -87 10 -10 38 16 57 53 25 48 28 109 6
114 -12 2 -14 -5 -12 -30 2 -18 -5 -51 -15 -73 l-19 -40 -22 60 c-12 33 -24
66 -26 73 -2 6 -11 12 -19 12 -13 0 -10 -16 15 -82z"/>
<path d="M7520 5435 c0 -8 4 -15 10 -15 5 0 14 -10 21 -21 9 -18 7 -25 -15
-44 -18 -15 -23 -26 -16 -30 6 -4 22 2 34 14 28 26 37 26 59 1 16 -20 37 -27
37 -13 0 4 -11 19 -25 33 l-25 26 25 24 c14 13 25 27 25 32 0 15 -26 8 -40
-12 -8 -11 -19 -20 -26 -20 -6 0 -19 9 -29 20 -22 24 -35 26 -35 5z"/>
<path d="M2741 5382 c1 -16 3 -20 6 -10 2 9 12 18 21 20 13 3 12 5 -5 10 -20
5 -23 2 -22 -20z"/>
<path d="M3043 5373 c-22 -8 -27 -70 -9 -98 31 -48 85 -22 86 41 0 46 -37 74
-77 57z m57 -58 c0 -43 -33 -67 -50 -36 -24 46 -4 99 32 80 12 -6 18 -21 18
-44z"/>
<path d="M2892 5298 c7 -19 38 -22 38 -4 0 10 -9 16 -21 16 -12 0 -19 -5 -17
-12z"/>
<path d="M2702 4694 c-23 -16 -30 -44 -11 -44 7 0 17 7 23 15 18 24 54 27 66
4 14 -25 1 -48 -54 -99 -24 -23 -46 -49 -49 -60 -5 -19 0 -20 70 -20 55 0 74
3 71 12 -3 8 -25 13 -54 14 -27 1 -51 2 -54 3 -3 1 19 23 49 49 45 40 54 54
54 81 0 56 -61 81 -111 45z"/>
<path d="M2875 4690 c-36 -40 -36 -140 0 -180 23 -25 69 -26 94 -1 46 46 36
176 -15 195 -30 11 -61 6 -79 -14z m83 -30 c18 -35 10 -120 -14 -137 -21 -15
-24 -16 -42 -4 -19 12 -29 68 -21 115 11 60 51 74 77 26z"/>
<path d="M3051 4691 c-24 -24 -36 -79 -27 -127 14 -72 84 -100 125 -48 16 20
21 41 21 84 0 43 -5 64 -21 84 -25 32 -70 35 -98 7z m77 -15 c11 -11 18 -83
11 -115 -6 -30 -22 -50 -40 -51 -3 0 -14 6 -25 14 -15 11 -19 27 -19 74 0 65
15 93 47 87 11 -3 23 -7 26 -9z"/>
<path d="M2701 4111 c-24 -24 -36 -79 -27 -127 13 -67 69 -94 116 -56 40 33
43 140 5 182 -23 25 -69 26 -94 1z m73 -17 c16 -15 20 -35 18 -84 -3 -62 -22
-87 -58 -73 -37 14 -47 120 -14 153 24 24 34 25 54 4z"/>
<path d="M2962 4114 c-23 -16 -30 -44 -11 -44 7 0 17 7 23 15 15 21 52 26 66
10 18 -22 2 -53 -31 -60 -35 -8 -31 -20 11 -28 23 -5 30 -12 30 -31 0 -44 -41
-57 -78 -23 -22 20 -32 22 -32 4 0 -43 92 -64 123 -29 23 25 22 69 -2 83 -18
12 -18 12 0 30 24 24 24 44 -1 69 -24 24 -67 26 -98 4z"/>
<path d="M2860 3928 c0 -13 6 -18 17 -16 24 5 27 25 3 31 -15 4 -20 0 -20 -15z"/>
<path d="M2708 3530 c-36 -22 -47 -126 -19 -179 22 -41 89 -39 116 3 23 35 22
122 -3 155 -20 28 -65 38 -94 21z m74 -34 c9 -13 13 -54 9 -105 -1 -21 -26
-51 -42 -51 -26 0 -49 42 -49 88 0 59 22 96 53 86 12 -4 25 -12 29 -18z"/>
<path d="M1780 2938 c-20 -22 -23 -35 -23 -101 1 -71 38 -108 96 -93 40 10 55
59 49 152 -5 57 -82 84 -122 42z m84 -18 c6 -6 11 -38 11 -72 -1 -47 -5 -63
-20 -74 -23 -17 -27 -17 -50 0 -15 11 -19 26 -19 74 1 34 6 68 13 76 13 16 48
13 65 -4z"/>
<path d="M2040 2938 c-11 -12 -20 -25 -20 -30 0 -13 28 -9 37 6 19 32 73 22
73 -15 0 -12 -23 -43 -55 -74 -76 -72 -74 -85 14 -85 39 0 72 4 75 9 8 13 -13
18 -61 16 -24 -1 -43 2 -43 6 0 4 23 29 50 55 55 52 64 88 32 117 -26 24 -77
21 -102 -5z"/>
<path d="M1947 2765 c-7 -15 1 -25 20 -25 7 0 13 6 13 14 0 19 -27 28 -33 11z"/>
<path d="M1780 2358 c-20 -22 -24 -42 -22 -108 3 -68 39 -100 95 -86 56 14 73
144 25 195 -25 28 -72 27 -98 -1z m74 -11 c32 -24 27 -136 -7 -159 -18 -11
-51 8 -58 35 -11 42 -2 110 17 124 22 16 26 16 48 0z"/>
<path d="M2040 2358 c-11 -12 -20 -25 -20 -30 0 -13 28 -9 37 6 20 33 73 22
73 -16 0 -12 -23 -42 -55 -73 -75 -73 -73 -85 14 -85 39 0 73 5 76 10 7 11 2
12 -57 14 -20 0 -39 4 -42 7 -3 3 17 27 44 54 36 35 50 57 50 77 0 54 -80 78
-120 36z"/>
<path d="M1947 2184 c-9 -10 2 -24 19 -24 8 0 14 7 14 15 0 15 -21 21 -33 9z"/>
<path d="M1796 1779 c-33 -26 -34 -47 -1 -25 l26 17 -3 -83 c-2 -65 -6 -83
-18 -84 -8 -1 -21 -2 -28 -3 -7 0 -10 -5 -7 -11 10 -15 138 -13 133 2 -3 7
-13 13 -24 13 -17 0 -19 9 -22 98 -3 106 -8 113 -56 76z"/>
<path d="M1796 1199 c-33 -26 -34 -47 -1 -25 l26 17 -3 -83 c-2 -57 -7 -83
-15 -84 -7 -1 -20 -2 -29 -3 -8 0 -12 -5 -9 -11 10 -16 135 -13 135 4 0 8 -9
12 -25 11 l-25 -3 0 99 c0 109 -5 116 -54 78z"/>
<path d="M1780 620 c-19 -19 -22 -31 -23 -85 -1 -76 23 -115 72 -115 54 0 80
55 73 156 -5 56 -82 84 -122 44z m74 -13 c11 -8 18 -29 20 -62 5 -72 -19 -114
-58 -99 -36 14 -43 137 -10 161 22 16 26 16 48 0z"/>
</g>
</svg>
