<?xml version="1.0" standalone="no"?>
<!DOCTYPE svg PUBLIC "-//W3C//DTD SVG 20010904//EN"
 "http://www.w3.org/TR/2001/REC-SVG-20010904/DTD/svg10.dtd">
<svg version="1.0" xmlns="http://www.w3.org/2000/svg"
 width="1592.000000pt" height="1121.000000pt" viewBox="0 0 1592.000000 1121.000000"
 preserveAspectRatio="xMidYMid meet">
<metadata>
Created by potrace 1.16, written by Peter Selinger 2001-2019
</metadata>
<g transform="translate(0.000000,1121.000000) scale(0.100000,-0.100000)"
fill="#000000" stroke="none">
<path d="M513 10938 c-59 -13 -136 -84 -157 -145 -15 -42 -16 -517 -16 -5211
0 -4056 3 -5174 12 -5206 8 -25 32 -61 63 -92 41 -43 59 -54 103 -63 51 -11
315 -12 2710 -11 l442 0 0 1105 0 1105 173 0 172 0 0 735 c0 404 2 735 5 736
3 0 196 1 430 2 l425 2 2 355 c1 195 2 361 2 368 1 9 42 12 171 12 129 0 170
3 171 13 0 6 2 172 2 367 l2 355 55 0 55 1 3 366 c2 338 4 366 20 370 9 2
2331 3 5160 3 l5142 -1 0 666 0 667 -686 -1 c-407 -1 -688 3 -692 8 -3 5 -5
299 -5 653 l0 643 -5099 0 -5098 0 -2 368 -3 367 -595 2 c-327 1 -598 2 -602
2 -5 1 -8 159 -8 351 l0 350 67 0 c36 0 63 3 60 7 -4 3 -2 12 4 20 6 7 8 13 3
13 -5 0 -9 163 -8 365 l0 365 -899 0 -900 0 -33 -25 c-18 -14 -35 -25 -38 -25
-3 0 -26 -14 -51 -32 -68 -48 -104 -44 -208 26 l-84 56 -114 -1 c-63 -1 -133
-5 -156 -11z m343 -74 c118 -81 145 -81 266 -2 l89 58 877 -2 877 -3 0 -340
c1 -187 -1 -346 -3 -352 -3 -10 -189 -13 -886 -13 l-881 0 -82 -55 c-66 -44
-91 -55 -122 -55 -32 0 -56 11 -121 55 l-81 55 -209 0 -210 0 0 270 c0 255 1
273 21 316 24 50 71 93 121 110 18 6 84 12 147 13 l114 2 83 -57z m5 -739
c115 -75 143 -75 259 0 l85 55 137 0 138 0 0 -88 c0 -112 -7 -120 -75 -81
-117 66 -149 31 -149 -166 0 -197 31 -235 142 -173 33 18 64 29 69 25 4 -5 9
-2135 11 -4733 l2 -4724 -463 0 c-312 1 -475 4 -500 12 -51 16 -101 60 -126
111 l-21 43 0 4887 0 4887 204 0 203 0 84 -55z m1979 -405 c0 -385 -2 -462
-14 -466 -8 -3 -39 9 -70 26 -99 56 -135 20 -141 -143 -4 -110 6 -170 33 -206
26 -34 54 -32 122 10 42 26 54 29 61 18 10 -17 7 -5254 -3 -5264 -4 -4 -29 6
-56 23 -75 49 -112 47 -138 -6 -24 -51 -25 -259 -1 -314 26 -62 50 -60 171 9
16 9 22 9 28 0 11 -17 9 -419 -2 -437 -8 -13 -18 -10 -70 18 -75 42 -99 39
-125 -13 -28 -59 -28 -266 1 -316 27 -47 60 -49 130 -8 46 26 58 29 65 18 11
-18 11 -420 0 -438 -7 -11 -19 -8 -65 18 -74 43 -104 39 -131 -14 -28 -58 -28
-252 0 -310 29 -59 50 -58 153 1 28 17 34 17 42 4 10 -16 14 -408 4 -434 -5
-12 -17 -8 -73 21 -115 60 -144 27 -145 -167 0 -129 12 -180 49 -200 25 -13
21 -15 135 46 19 10 26 11 32 1 9 -14 11 -408 2 -431 -9 -23 -23 -20 -74 15
-62 42 -98 37 -125 -16 -28 -58 -28 -252 0 -310 27 -53 57 -57 131 -14 46 26
58 29 65 18 5 -8 9 -60 9 -116 l0 -103 -665 0 -665 0 0 4714 c0 3321 -3 4722
-11 4744 -6 17 -17 33 -24 36 -8 3 -44 -11 -81 -30 -58 -31 -68 -34 -81 -21
-22 22 -31 77 -28 179 4 153 23 174 112 118 87 -55 106 -38 111 101 l4 99 664
0 664 0 0 -460z m1210 -729 c0 -276 -4 -462 -10 -471 -8 -13 -14 -13 -42 4
-100 58 -122 59 -152 6 -18 -30 -21 -52 -21 -155 0 -100 3 -127 20 -160 26
-52 50 -55 125 -13 52 28 62 31 70 18 12 -18 9 -994 -3 -1006 -4 -4 -36 7 -71
25 -36 18 -73 31 -83 29 -10 -1 -27 -21 -38 -43 -28 -56 -29 -261 -2 -317 26
-51 50 -54 125 -12 35 20 67 33 70 29 9 -9 9 -1011 0 -1021 -4 -4 -26 5 -48
20 -84 55 -128 54 -150 -6 -19 -51 -21 -234 -4 -291 23 -73 49 -80 129 -37 35
19 67 31 72 26 10 -10 11 -432 1 -442 -4 -4 -37 8 -72 25 -35 18 -72 31 -82
29 -35 -6 -58 -74 -61 -178 -4 -149 20 -220 74 -220 13 0 48 14 79 31 30 17
58 28 62 24 9 -9 9 -441 0 -450 -4 -4 -31 7 -61 24 -89 51 -126 38 -146 -49
-21 -92 -6 -266 26 -302 23 -26 48 -22 114 14 32 18 62 29 66 24 4 -4 8 -56 8
-114 l0 -107 -585 0 -585 0 -5 2523 c-5 2484 -5 2524 -24 2538 -27 20 -36 18
-87 -15 -61 -41 -80 -42 -97 -8 -28 58 -19 274 12 305 15 15 8 18 109 -36 21
-12 44 -19 52 -16 24 9 35 55 35 143 l0 89 590 -1 590 0 0 -456z m10197 -916
l-1 -635 -5082 0 -5083 0 -3 393 c-3 420 -4 427 -52 427 -11 0 -41 -14 -66
-30 -57 -38 -74 -38 -91 3 -17 39 -17 238 -1 280 15 35 34 34 93 -4 88 -56
119 -28 119 114 l0 87 5083 0 5084 0 0 -635z m1383 -1305 l0 -638 -5771 1
c-3173 1 -5772 4 -5774 8 -3 3 -5 177 -5 385 -1 471 0 468 -123 400 -71 -40
-78 -38 -94 24 -9 31 -10 120 -5 216 1 18 10 42 20 54 l18 23 69 -37 69 -36
20 20 c18 17 22 36 24 119 l4 98 5774 0 5774 0 0 -637z m-10332 -669 c10 -1
12 -75 10 -352 l-3 -351 -610 2 c-335 0 -610 2 -611 3 -2 1 -4 47 -5 102 -3
163 -22 180 -130 112 -43 -26 -52 -29 -64 -16 -22 23 -33 92 -30 195 4 116 19
149 63 133 15 -6 34 -17 42 -24 21 -19 67 -35 84 -29 24 9 36 54 36 138 0 45
2 85 4 87 4 3 1173 3 1214 0z m-107 -750 c3 -51 4 -668 1 -678 -3 -10 -123
-13 -557 -13 l-553 0 -3 113 c-5 157 -22 174 -112 117 -87 -55 -107 -36 -113
110 -3 98 7 165 29 187 13 13 22 11 83 -21 l68 -36 20 20 c17 17 22 36 24 108
2 48 5 92 7 98 2 8 161 11 554 11 501 0 551 -1 552 -16z m-343 -1058 c0 -186
-2 -345 -4 -354 -4 -14 -44 -16 -384 -16 l-380 0 -1 81 c-1 110 -5 144 -19
161 -19 23 -50 18 -100 -15 -57 -38 -74 -38 -91 3 -17 39 -17 238 -1 280 15
35 30 34 102 -5 90 -50 107 -31 109 120 l1 82 383 0 384 0 1 -337z m-868 -402
c3 0 5 -158 5 -351 l0 -350 -557 0 -556 0 -4 116 c-3 101 -5 117 -22 130 -23
16 -46 11 -96 -22 -83 -54 -104 -25 -104 141 0 168 21 195 107 139 87 -57 117
-30 117 107 0 47 2 88 4 90 4 3 1091 4 1106 0z m3 -745 c2 -6 3 -164 3 -351
l-1 -340 -558 -3 -557 -2 0 102 c0 157 -23 184 -112 129 -92 -58 -110 -37
-111 129 0 102 14 180 34 180 6 0 39 -16 75 -35 98 -51 114 -34 114 125 l0 77
554 0 c399 0 556 -3 559 -11z m-345 -1078 l-3 -353 -370 -1 c-203 0 -376 2
-382 4 -9 3 -13 32 -13 97 0 92 -11 143 -32 156 -14 9 -51 -5 -87 -31 -15 -10
-39 -22 -53 -25 -23 -6 -27 -3 -39 32 -17 51 -17 230 0 271 17 40 36 41 99 1
86 -53 112 -27 112 114 l0 87 385 0 385 0 -2 -352z m-5 -387 c4 -1 7 -158 7
-351 l0 -350 -385 0 -385 0 -1 93 c-1 114 -5 139 -26 155 -21 15 -40 9 -104
-31 -45 -27 -51 -29 -65 -15 -30 29 -40 235 -15 300 15 41 29 42 81 10 64 -40
82 -45 106 -28 16 12 19 29 22 108 2 51 5 98 6 103 2 7 134 10 377 9 206 -1
377 -2 382 -3z m7 -1086 l0 -355 -385 0 -385 0 0 103 c0 156 -23 183 -112 128
-66 -41 -83 -40 -99 7 -17 48 -16 230 1 271 15 38 34 39 84 5 21 -15 52 -27
69 -28 44 -2 57 29 57 137 l0 87 385 0 385 0 0 -355z"/>
<path d="M1340 10707 c0 -19 10 -27 26 -20 21 8 17 33 -6 33 -11 0 -20 -6 -20
-13z"/>
<path d="M660 10674 c-16 -41 -12 -64 10 -64 16 0 19 6 17 45 -2 50 -13 58
-27 19z"/>
<path d="M726 10684 c-3 -9 -6 -29 -6 -45 0 -22 5 -29 20 -29 22 0 29 35 9 42
-9 3 -9 10 0 26 10 18 9 22 -3 22 -7 0 -17 -7 -20 -16z"/>
<path d="M1090 10560 c0 -133 1 -140 20 -140 18 0 20 7 20 55 l0 55 80 0 c64
0 80 3 80 15 0 12 -16 15 -80 15 l-80 0 0 55 0 54 82 3 c54 2 83 7 86 16 3 9
-22 12 -102 12 l-106 0 0 -140z"/>
<path d="M2385 10688 c-2 -7 -6 -41 -7 -75 -4 -60 -3 -63 18 -63 13 0 26 5 29
10 9 14 58 12 77 -2 17 -13 21 -28 19 -60 -3 -46 -79 -66 -103 -28 -15 23 -48
27 -48 6 0 -24 50 -56 87 -56 76 0 123 57 100 123 -14 42 -49 61 -100 54 l-43
-6 2 32 c1 18 3 35 3 40 1 4 30 7 66 7 51 0 65 3 65 15 0 12 -16 15 -80 15
-56 0 -82 -4 -85 -12z"/>
<path d="M1340 10530 c0 -103 1 -110 20 -110 19 0 20 6 19 110 -2 100 -3 110
-20 110 -17 0 -19 -9 -19 -110z"/>
<path d="M1451 10619 c-21 -22 -35 -88 -27 -124 3 -11 5 -23 5 -27 1 -5 10
-17 21 -28 24 -24 67 -26 98 -4 21 14 22 14 22 -6 0 -55 -51 -80 -91 -44 -12
11 -23 13 -34 7 -16 -9 -16 -11 0 -26 22 -23 58 -31 101 -23 51 10 64 47 64
186 0 103 -1 110 -20 110 -11 0 -20 -7 -20 -16 0 -14 -2 -14 -22 0 -32 22 -74
20 -97 -5z m103 -31 c9 -12 16 -38 16 -58 0 -49 -24 -80 -61 -80 -23 0 -32 6
-40 28 -13 34 -6 112 12 123 25 15 58 9 73 -13z"/>
<path d="M1662 10544 c2 -81 6 -98 22 -110 26 -18 66 -18 94 2 20 14 22 14 22
0 0 -9 9 -16 20 -16 20 0 21 5 19 110 -2 99 -4 110 -21 110 -16 0 -18 -9 -18
-78 0 -84 -14 -112 -56 -112 -36 0 -44 20 -44 107 0 78 -1 83 -21 83 -20 0
-21 -4 -17 -96z"/>
<path d="M1893 10530 c0 -101 1 -110 18 -110 17 0 19 8 19 68 0 68 16 116 38
118 7 1 17 2 22 3 18 2 11 31 -7 31 -23 0 -38 -11 -46 -30 -4 -10 -6 -8 -6 8
-1 15 -7 22 -20 22 -17 0 -18 -9 -18 -110z"/>
<path d="M2073 10630 c-48 -20 -66 -119 -30 -173 28 -43 114 -49 152 -11 24
24 2 43 -23 21 -27 -25 -77 -22 -96 5 -29 42 -22 48 58 48 41 0 77 4 80 8 10
16 -15 81 -37 97 -24 16 -70 19 -104 5z m91 -42 c9 -12 16 -26 16 -30 0 -5
-27 -8 -60 -8 -33 0 -60 3 -60 8 0 23 34 52 60 52 18 0 34 -8 44 -22z"/>
<path d="M2625 10462 c-14 -14 -3 -42 15 -42 14 0 20 7 20 23 0 21 -21 33 -35
19z"/>
<path d="M680 5199 c0 -112 1 -120 18 -115 10 4 68 26 128 50 92 37 109 48
109 66 0 18 -19 29 -120 71 -66 27 -123 49 -127 49 -5 0 -8 -54 -8 -121z m158
23 c23 -9 42 -19 42 -22 0 -3 -35 -19 -78 -36 -60 -25 -78 -29 -82 -18 -4 11
-4 76 -1 117 1 4 18 0 39 -9 20 -9 56 -23 80 -32z"/>
<path d="M1855 9893 l0 -78 -40 0 c-29 -1 -41 -5 -43 -18 -3 -16 18 -17 288
-17 272 0 291 1 288 18 -3 13 -12 17 -41 16 -21 -1 -38 3 -38 10 -1 6 -2 40
-3 76 -1 58 -3 65 -21 65 -17 0 -20 -7 -21 -55 -3 -99 -3 -98 -21 -95 -10 2
-21 4 -24 4 -3 1 -5 29 -4 64 2 75 -2 87 -26 87 -17 0 -19 -8 -19 -79 0 -70
-2 -79 -17 -76 -10 2 -22 4 -26 4 -5 1 -8 25 -7 54 3 90 2 97 -20 97 -17 0
-19 -8 -22 -77 -3 -70 -5 -78 -23 -78 -18 0 -20 8 -23 78 -3 68 -5 77 -22 77
-17 0 -19 -9 -22 -77 -3 -71 -5 -77 -25 -78 -22 -2 -23 2 -23 77 0 74 -1 78
-22 78 -22 0 -23 -4 -23 -77z"/>
<path d="M1824 6673 c-7 -2 -10 -13 -7 -23 7 -26 43 -27 43 -1 0 20 -17 31
-36 24z"/>
<path d="M1810 3535 c0 -178 1 -185 20 -185 19 0 20 7 20 170 l0 170 25 0 c16
0 25 6 25 15 0 11 -12 15 -45 15 l-45 0 0 -185z"/>
<path d="M1940 3437 l0 -37 125 0 125 0 0 36 c0 21 -4 33 -10 29 -5 -3 -10
-15 -10 -26 0 -18 -8 -19 -105 -19 -62 0 -106 4 -106 10 -1 6 -2 14 -3 19 -4
28 -16 19 -16 -12z"/>
<path d="M1780 2696 l0 -36 125 0 125 0 0 29 c0 17 -4 33 -10 36 -6 4 -10 -5
-10 -20 l0 -26 -107 3 c-95 3 -108 5 -105 20 1 9 -2 19 -8 23 -6 4 -10 -8 -10
-29z"/>
<path d="M1844 2149 c-4 -6 29 -46 75 -93 44 -45 81 -84 81 -87 0 -3 -12 -5
-27 -5 -19 1 -28 -4 -28 -14 0 -12 13 -15 60 -15 l60 0 3 63 c2 47 0 62 -10
60 -19 -4 -26 -18 -23 -45 2 -21 -13 -10 -84 61 -47 47 -89 86 -93 86 -4 0
-10 -5 -14 -11z"/>
<path d="M1810 1402 c0 -5 14 -21 30 -37 17 -16 30 -33 30 -38 0 -6 -14 -23
-32 -39 -25 -22 -29 -31 -20 -40 9 -9 20 -4 47 22 l35 34 34 -33 c49 -47 69
-30 22 18 l-36 37 35 34 c31 30 37 50 16 50 -4 0 -23 -14 -40 -31 l-33 -31
-32 31 c-31 30 -56 40 -56 23z"/>
<path d="M1883 653 c2 -38 2 -38 -40 -41 -29 -2 -43 -8 -43 -18 0 -10 12 -14
40 -14 42 0 42 0 42 -62 1 -17 6 -28 14 -28 14 0 15 3 18 55 1 28 4 30 44 33
28 2 42 8 42 18 0 10 -12 14 -44 14 -41 0 -43 2 -44 28 0 47 -2 52 -16 52 -10
0 -14 -11 -13 -37z"/>
<path d="M3146 9233 c-3 -4 -6 -78 -6 -165 l0 -158 125 0 125 0 0 163 0 163
-119 1 c-65 1 -122 -1 -125 -4z m224 -158 c0 -166 16 -147 -124 -147 -47 0
-81 4 -85 11 -8 12 -5 110 3 119 3 3 6 -4 6 -15 0 -59 81 -99 138 -69 37 19
52 44 52 86 0 17 -5 40 -10 51 -17 30 -68 52 -106 45 -34 -7 -74 -47 -74 -74
0 -8 -3 -12 -7 -9 -5 6 -7 82 -4 135 1 9 29 12 106 12 l105 0 0 -145z m-27 8
c21 -70 -54 -130 -118 -94 -62 36 -53 125 15 148 45 15 90 -9 103 -54z"/>
<path d="M3140 8146 c0 -2 18 -50 39 -107 34 -91 42 -104 62 -104 34 0 91 112
87 169 -2 30 -8 42 -21 44 -16 3 -18 -2 -14 -37 4 -46 -37 -152 -52 -135 -5 5
-21 46 -36 92 -21 65 -31 82 -46 82 -10 0 -19 -2 -19 -4z"/>
<path d="M3390 8040 c-35 -35 -22 -132 20 -145 54 -17 89 18 85 85 -3 47 -3
46 -21 64 -21 22 -60 20 -84 -4z m78 -44 c5 -61 -4 -86 -34 -86 -13 0 -27 6
-29 13 -11 31 -13 71 -4 93 7 20 15 25 37 22 24 -3 27 -8 30 -42z"/>
<path d="M3436 6870 c-14 -17 -26 -40 -26 -51 0 -14 -7 -19 -27 -20 -27 0 -27
-1 -7 -11 l21 -10 -22 -104 c-21 -98 -36 -134 -56 -134 -5 0 -6 7 -3 15 4 10
0 15 -11 15 -21 0 -16 -34 6 -38 42 -8 84 61 103 168 11 63 19 79 44 89 25 9
25 9 5 10 -27 1 -29 20 -8 61 17 32 35 40 35 15 0 -8 7 -15 16 -15 27 0 11 35
-17 38 -19 2 -33 -5 -53 -28z"/>
<path d="M3140 6838 c0 -2 18 -50 39 -108 34 -92 41 -105 62 -105 34 0 91 112
87 169 -2 29 -8 42 -20 44 -14 3 -17 -5 -16 -46 0 -52 -37 -142 -52 -126 -4 5
-20 46 -35 92 -21 65 -31 82 -46 82 -10 0 -19 -1 -19 -2z"/>
<path d="M3429 5812 c-31 -36 -33 -45 -10 -37 20 6 21 3 21 -65 0 -68 -1 -70
-20 -60 -27 14 -25 1 5 -33 l25 -28 25 28 c30 34 32 47 5 33 -19 -10 -20 -8
-20 67 0 60 3 74 12 65 24 -24 29 -11 8 18 -25 35 -30 36 -51 12z"/>
<path d="M3179 5713 c34 -96 40 -108 62 -108 34 0 91 111 87 169 -2 28 -8 42
-20 44 -13 3 -16 -6 -15 -45 0 -51 -38 -143 -53 -127 -4 5 -20 46 -35 92 -21
64 -31 82 -46 82 -17 0 -16 -9 20 -107z"/>
<path d="M3176 5082 c-3 -5 10 -24 29 -42 l35 -34 -36 -37 c-47 -48 -27 -65
22 -18 l34 33 35 -34 c27 -26 38 -31 47 -22 9 9 5 18 -20 40 -18 16 -32 33
-32 39 0 5 14 22 30 38 17 16 30 32 30 37 0 17 -25 7 -56 -23 l-33 -32 -31 32
c-32 32 -45 37 -54 23z"/>
<path d="M3247 4363 c-2 -5 -3 -23 -1 -40 2 -33 2 -33 -42 -33 -32 0 -44 -4
-44 -15 0 -11 11 -15 39 -15 43 0 49 -8 46 -57 -1 -25 2 -33 15 -33 13 0 17 9
16 43 l-1 42 43 3 c28 2 42 8 42 18 0 10 -12 14 -40 14 -37 0 -40 2 -41 28 -1
15 -1 33 0 40 2 13 -25 17 -32 5z"/>
<path d="M5909 8598 c-1 -2 -3 -52 -4 -111 -2 -60 -6 -112 -10 -115 -3 -4 -34
9 -69 27 -116 63 -141 31 -141 -174 0 -153 11 -188 62 -193 21 -2 47 7 83 29
37 23 54 29 62 21 7 -7 11 -99 11 -271 1 -174 4 -261 11 -264 6 -2 1026 -3
2266 -3 l2255 1 3 528 2 527 -2265 0 c-1246 0 -2266 -1 -2266 -2z m4501 -525
l0 -493 -2238 0 -2237 0 0 233 c1 232 -4 283 -27 299 -18 12 -54 1 -97 -28
-48 -32 -74 -31 -87 5 -14 36 -17 204 -5 255 15 62 24 65 94 28 34 -18 70 -32
79 -32 28 0 40 38 43 134 2 50 3 92 4 93 1 0 1007 1 2236 0 l2235 0 0 -494z"/>
<path d="M7819 8448 c0 -7 -1 -56 -2 -108 -2 -52 -6 -100 -10 -107 -6 -9 -21
-4 -58 18 -27 17 -64 32 -81 33 -26 1 -35 -5 -52 -34 -18 -31 -21 -51 -21
-165 0 -104 3 -136 17 -161 25 -46 50 -48 123 -9 47 25 66 31 72 22 4 -7 8
-64 9 -127 l1 -115 417 -3 417 -2 -3 382 -3 383 -412 3 c-327 2 -413 0 -414
-10z m792 -27 c1 -3 2 -162 3 -353 l1 -348 -382 -2 -383 -3 0 25 c-2 103 -9
198 -15 212 -13 32 -42 30 -112 -7 l-67 -36 -14 27 c-30 57 -24 286 8 318 8 8
33 -1 82 -28 l70 -38 20 20 c21 20 26 54 27 178 l1 41 380 0 c209 0 381 -3
381 -6z"/>
<path d="M8179 8179 c-37 -35 -27 -51 15 -23 l26 16 0 -106 0 -106 -34 0 c-21
0 -36 -6 -40 -15 -4 -13 9 -15 88 -15 76 0 93 3 93 15 0 10 -11 15 -34 15 -24
0 -33 5 -34 18 0 9 -2 64 -2 122 -2 98 -3 105 -23 108 -13 2 -34 -10 -55 -29z"/>
<path d="M8987 8453 c-4 -3 -7 -52 -7 -107 0 -56 -4 -107 -8 -113 -6 -10 -20
-5 -55 17 -85 54 -115 50 -144 -19 -18 -41 -20 -219 -3 -279 20 -75 56 -82
149 -29 25 14 48 24 53 21 4 -3 8 -61 8 -130 l0 -124 590 0 590 0 0 385 0 385
-583 0 c-321 0 -587 -3 -590 -7z m1141 -380 l2 -353 -558 0 -558 0 -1 99 c-2
153 -28 187 -104 136 -22 -14 -51 -30 -65 -35 -23 -9 -26 -7 -40 26 -20 47
-18 246 2 287 18 33 29 34 76 2 55 -37 83 -46 102 -32 18 14 31 84 31 168 l-1
56 556 -1 555 -1 3 -352z"/>
<path d="M9347 8199 c-41 -24 -61 -136 -36 -207 29 -84 147 -80 177 6 13 37 9
121 -7 159 -19 47 -89 68 -134 42z m80 -27 c43 -27 43 -177 0 -204 -24 -15
-57 -8 -72 16 -22 33 -22 139 -1 172 16 24 49 31 73 16z"/>
<path d="M9650 8195 c0 -12 15 -15 76 -15 l76 0 -22 -32 c-33 -51 -69 -134
-76 -178 -6 -36 -4 -40 15 -40 15 0 21 6 21 23 0 37 34 127 69 183 17 28 31
56 31 63 0 7 -31 11 -95 11 -78 0 -95 -3 -95 -15z"/>
<path d="M9556 7973 c-14 -15 -5 -43 14 -43 13 0 20 7 20 19 0 19 -23 35 -34
24z"/>
<path d="M6292 8322 c-12 -2 -41 -22 -64 -44 -32 -31 -38 -42 -27 -49 8 -5 9
-9 3 -9 -8 0 -11 -44 -11 -140 0 -77 5 -140 9 -140 5 0 6 -4 3 -10 -3 -5 8
-24 25 -41 16 -18 30 -28 30 -23 0 4 5 3 12 -4 18 -18 38 -15 38 6 0 14 -2 15
-10 2 -5 -8 -10 -10 -10 -4 0 7 -9 14 -19 17 -10 2 -27 17 -37 32 -15 24 -19
51 -19 164 -1 91 3 145 11 162 7 15 10 29 7 33 -4 3 3 6 15 6 12 0 22 5 22 10
0 6 9 10 20 10 11 0 20 6 20 13 0 7 3 8 8 2 11 -16 54 -18 63 -3 7 10 9 10 9
1 0 -18 27 -16 34 2 3 8 1 15 -4 15 -6 0 -10 -5 -10 -11 0 -8 -6 -7 -17 2 -13
11 -17 11 -20 2 -3 -7 -9 -13 -14 -13 -6 0 -8 4 -5 9 6 9 -14 9 -62 3z"/>
<path d="M6435 8321 c-15 -14 0 -22 35 -18 25 2 40 0 40 -7 0 -7 3 -7 8 -1 19
27 92 -7 116 -54 8 -14 13 -42 12 -61 -2 -19 2 -41 7 -47 5 -8 6 -13 0 -13
-11 0 -11 -50 0 -67 5 -7 5 -13 0 -13 -4 0 -9 -20 -9 -45 -1 -25 2 -45 7 -45
4 0 -3 -12 -16 -26 -14 -15 -25 -31 -25 -35 0 -5 -9 -9 -19 -9 -11 0 -22 -6
-24 -12 -4 -10 -8 -10 -15 0 -12 18 -13 18 -39 3 -15 -7 -23 -8 -23 -1 0 5 -5
10 -11 10 -6 0 -9 -6 -6 -12 2 -7 12 -12 21 -12 9 1 16 -2 16 -8 0 -5 6 -5 16
0 9 5 24 7 33 5 18 -4 88 38 83 50 -1 4 4 15 13 23 18 19 20 34 3 34 -9 0 -8
4 2 10 10 6 11 10 3 10 -7 0 -13 5 -13 11 0 5 4 8 9 5 9 -6 12 213 2 229 -3 6
-6 15 -6 20 -2 24 -18 43 -31 38 -10 -4 -12 0 -7 13 5 12 3 15 -6 9 -8 -4 -16
-2 -21 5 -7 12 -145 22 -155 11z"/>
<path d="M7009 8248 c-1 -2 -2 -85 -3 -185 l-1 -183 68 0 c43 0 66 4 62 10 -3
6 -15 10 -26 10 -11 0 -19 7 -20 18 -1 26 -1 253 0 285 1 20 6 27 20 27 11 0
23 5 26 10 4 6 -18 10 -59 10 -36 0 -67 -1 -67 -2z m55 -177 c-2 -186 0 -171
-21 -171 -16 0 -18 13 -17 153 2 188 0 176 22 174 17 -1 18 -13 16 -156z"/>
<path d="M7205 8239 c-3 -4 7 -9 22 -11 l28 -3 1 -162 2 -163 -25 0 c-15 0
-23 -5 -21 -12 3 -7 16 -12 31 -11 15 1 42 1 61 2 l33 1 -1 185 -1 185 -63 -1
c-34 -1 -65 -5 -67 -10z m106 -16 c1 -5 2 -79 3 -165 2 -147 1 -158 -16 -158
-16 0 -18 10 -19 85 -2 234 -1 245 16 245 8 0 15 -3 16 -7z"/>
<path d="M6402 8169 c-12 -5 -22 -13 -22 -19 0 -6 -4 -9 -8 -6 -12 7 -27 -25
-26 -54 3 -46 4 -50 20 -50 8 0 13 -4 9 -9 -7 -13 12 -23 52 -28 31 -3 44 9
23 22 -5 3 -10 1 -10 -5 0 -7 -6 -8 -19 -1 -10 6 -21 7 -25 4 -3 -3 -6 1 -6
10 0 8 -10 19 -21 22 -15 5 -18 10 -9 15 6 4 11 10 11 14 -4 30 2 46 20 51 16
5 18 9 9 15 -8 5 1 8 23 7 20 0 35 -3 33 -5 -2 -2 7 -14 21 -28 13 -13 22 -28
18 -33 -3 -5 1 -12 7 -14 10 -4 10 -6 1 -6 -7 -1 -13 -7 -13 -15 0 -8 -7 -17
-16 -20 -8 -3 -12 -11 -9 -17 5 -7 13 -5 26 7 10 9 16 21 13 25 -3 5 -1 9 5 9
5 0 9 13 9 30 -1 16 -5 27 -10 24 -4 -3 -8 1 -8 8 -1 35 -56 62 -98 47z"/>
<path d="M6326 7863 c-4 -11 -2 -13 9 -9 8 3 15 0 15 -7 0 -7 3 -8 8 -2 9 12
92 15 92 2 0 -4 5 -5 10 -2 15 9 4 22 -25 27 -14 3 -25 1 -25 -6 0 -6 -5 -4
-10 4 -6 9 -10 10 -10 3 0 -8 -9 -9 -29 -3 -23 6 -31 5 -35 -7z"/>
<path d="M11388 8351 c-1 -60 -7 -113 -11 -118 -5 -4 -36 7 -69 25 -111 62
-142 24 -142 -173 0 -95 4 -128 18 -157 10 -21 22 -39 27 -39 5 -1 15 -2 22
-3 6 -1 41 13 76 31 35 18 66 31 68 29 9 -8 11 -43 12 -148 l1 -108 415 0 415
0 -2 383 -3 382 -412 3 -411 2 -4 -109z m799 -278 l1 -353 -384 0 -384 0 -1
88 c-1 173 -21 198 -111 143 -89 -56 -108 -38 -113 110 -3 101 6 165 28 186
13 13 18 13 40 2 13 -8 43 -24 65 -36 39 -22 41 -22 63 -4 21 17 24 29 27 119
l4 100 382 -2 381 -1 2 -352z"/>
<path d="M11741 8193 c-31 -26 -36 -69 -11 -90 20 -17 20 -17 -2 -40 -30 -32
-27 -82 8 -112 23 -20 35 -22 78 -18 36 3 55 11 68 27 25 31 23 76 -4 103
l-23 22 21 21 c46 44 0 104 -79 104 -19 0 -44 -8 -56 -17z m108 -35 c13 -35
-4 -58 -42 -58 -36 0 -57 15 -57 40 0 25 21 40 57 40 26 0 36 -5 42 -22z m-5
-104 c19 -18 21 -65 4 -82 -18 -18 -73 -15 -90 6 -19 21 -14 62 9 80 23 17 58
15 77 -4z"/>
<path d="M13168 8458 c-1 -3 -4 -91 -7 -195 -1 -40 -17 -42 -69 -9 -84 55
-123 42 -143 -49 -15 -67 -8 -240 11 -279 24 -48 51 -50 124 -11 40 21 68 30
72 24 3 -6 6 -64 7 -130 l1 -119 415 0 416 0 -1 377 c-1 208 -2 381 -3 386 -1
6 -818 11 -823 5z m793 -47 c1 -21 1 -639 0 -669 l-1 -22 -382 2 -382 3 -1
108 c-3 152 -29 176 -124 111 -53 -36 -78 -32 -90 14 -22 76 -10 267 18 295
11 11 16 9 110 -43 64 -36 87 3 86 140 l-1 78 383 -1 c344 0 383 -2 384 -16z"/>
<path d="M13514 8186 c-40 -33 -40 -99 0 -132 32 -28 72 -31 105 -7 24 16 24
16 17 -13 -17 -68 -58 -93 -97 -58 -10 9 -25 14 -34 12 -15 -3 -14 -6 5 -30
29 -37 90 -39 125 -4 26 26 45 86 40 126 -1 14 -3 35 -4 48 0 13 -14 37 -30
53 -38 37 -88 39 -127 5z m93 -14 c6 -4 17 -20 22 -35 14 -36 0 -64 -36 -73
-32 -8 -55 5 -67 39 -18 49 38 96 81 69z"/>
<path d="M4402 8185 c-2 -45 0 -51 19 -51 17 0 18 2 5 11 -8 6 -16 29 -19 51
-3 36 -4 35 -5 -11z"/>
<path d="M4557 8206 c-2 -6 -3 -78 -3 -161 l1 -150 124 0 125 0 0 160 0 160
-121 1 c-80 0 -123 -3 -126 -10z m231 -151 l0 -145 -27 -1 c-32 -1 -138 -1
-168 0 -23 1 -23 3 -23 146 l0 145 109 0 108 0 1 -145z"/>
<path d="M4633 8160 c-13 -6 -23 -18 -23 -30 0 -26 16 -26 23 0 10 40 107 18
107 -25 0 -16 -23 -40 -51 -55 -20 -11 -27 -50 -9 -50 6 0 10 7 10 15 0 9 11
20 24 27 33 14 51 59 37 87 -21 38 -69 51 -118 31z"/>
<path d="M4655 7950 c-4 -7 -3 -16 3 -22 14 -14 47 -6 47 12 0 18 -40 26 -50
10z"/>
<path d="M12590 8131 c0 -40 0 -40 -42 -43 -59 -4 -63 -28 -4 -28 l46 0 0 -45
c0 -33 4 -45 15 -45 11 0 15 12 15 45 l0 45 45 0 c33 0 45 4 45 15 0 11 -12
15 -45 15 l-45 0 0 40 c0 29 -4 40 -15 40 -11 0 -15 -11 -15 -39z"/>
<path d="M5260 8148 c0 -2 18 -50 39 -108 34 -92 41 -105 62 -105 34 0 91 112
87 169 -2 28 -8 42 -20 44 -13 3 -16 -6 -15 -45 0 -51 -38 -143 -53 -127 -4 5
-20 46 -35 92 -21 65 -31 82 -46 82 -10 0 -19 -1 -19 -2z"/>
<path d="M10740 8142 c0 -5 14 -21 30 -37 17 -16 30 -33 30 -39 0 -6 -15 -23
-32 -38 -26 -22 -30 -30 -20 -40 9 -9 19 -5 47 22 l35 34 34 -33 c49 -47 69
-30 22 18 l-36 37 35 34 c48 46 29 65 -21 21 l-36 -33 -32 31 c-31 30 -56 40
-56 23z"/>
<path d="M4461 8078 c1 -29 4 -41 6 -26 2 15 12 29 21 31 15 4 15 5 0 6 -10 0
-18 7 -18 15 0 8 8 17 18 19 13 4 11 5 -5 6 -21 1 -23 -3 -22 -51z"/>
<path d="M4850 8040 c-14 -14 -20 -33 -20 -63 0 -54 22 -87 59 -87 41 0 64 31
64 85 0 76 -57 111 -103 65z m68 -12 c16 -16 16 -90 0 -106 -15 -15 -45 -16
-53 -1 -13 20 -16 66 -6 92 11 29 39 35 59 15z"/>
<path d="M5911 7290 c-4 -3 -8 -51 -8 -107 -1 -56 -4 -107 -8 -112 -3 -6 -34
5 -74 26 -38 20 -76 33 -85 30 -37 -15 -51 -58 -54 -177 -5 -136 7 -193 45
-217 25 -17 28 -16 95 20 57 32 69 35 74 22 4 -9 7 -132 8 -273 l1 -257 2268
-3 2267 -2 -2 527 -3 528 -2258 0 c-1243 0 -2262 -2 -2266 -5z m4494 -520 l0
-495 -2233 0 c-1977 0 -2232 2 -2233 15 -1 8 -3 105 -4 215 -3 277 -3 270 -23
295 -17 21 -19 21 -52 6 -19 -9 -50 -24 -69 -35 -42 -25 -58 -18 -71 27 -14
50 -12 219 3 262 14 41 38 43 96 5 90 -58 112 -38 115 97 0 51 4 95 8 98 3 3
1009 5 2235 5 l2228 0 0 -495z"/>
<path d="M7819 7120 c-2 -117 -6 -176 -12 -187 -6 -9 -26 -2 -76 24 -55 28
-72 33 -88 24 -36 -19 -48 -67 -48 -201 0 -108 3 -130 21 -160 11 -19 28 -36
37 -38 9 -2 46 11 82 29 35 18 67 30 71 26 4 -4 9 -59 10 -122 1 -63 5 -118 7
-122 4 -6 787 -10 818 -4 4 0 6 173 5 383 l-1 383 -412 0 -413 0 -1 -35z m796
-352 c0 -192 -2 -348 -5 -349 -3 -1 -175 -2 -382 -3 l-378 -1 0 25 c-1 144 -7
201 -25 220 -21 24 -36 21 -104 -21 -28 -18 -54 -27 -64 -24 -39 16 -50 264
-13 319 18 28 29 27 87 -11 20 -13 45 -25 57 -28 26 -5 51 18 54 48 0 12 2 27
3 32 2 6 3 40 4 78 l1 67 383 -2 382 -3 0 -347z"/>
<path d="M8190 6877 c-37 -23 -50 -47 -26 -47 7 0 19 7 26 15 25 30 30 13 30
-89 l0 -105 -35 -3 c-20 -2 -36 -7 -38 -13 -1 -6 36 -11 91 -13 73 -2 93 0 90
10 -3 7 -19 14 -36 16 -22 2 -32 9 -33 20 -1 9 -1 65 -2 125 -1 120 -4 125
-67 84z"/>
<path d="M8997 7152 c-15 -3 -17 -18 -17 -112 0 -60 -4 -111 -10 -115 -5 -3
-28 6 -50 20 -66 42 -89 48 -116 30 -30 -20 -45 -77 -46 -178 -1 -104 8 -160
34 -192 25 -32 40 -32 105 5 83 47 82 49 85 -97 l3 -128 585 0 585 0 0 385 0
385 -570 0 c-314 0 -579 -1 -588 -3z m1133 -381 c0 -270 -3 -350 -12 -353 -7
-2 -258 -4 -558 -3 l-545 1 -2 99 c-3 121 -7 141 -34 156 -17 9 -30 5 -80 -26
-33 -20 -66 -34 -74 -31 -22 8 -36 79 -36 174 1 95 4 120 20 151 13 23 25 20
110 -26 l52 -28 19 24 c20 23 23 51 22 169 l-1 42 559 0 560 0 0 -349z"/>
<path d="M9352 6890 c-49 -20 -69 -150 -34 -220 31 -64 118 -66 159 -3 22 33
24 132 5 179 -20 48 -74 66 -130 44z m82 -36 c22 -22 29 -57 24 -115 -8 -82
-68 -119 -104 -64 -21 32 -21 139 1 171 18 28 56 32 79 8z"/>
<path d="M9650 6885 c0 -12 15 -15 75 -15 l74 0 -35 -59 c-31 -52 -64 -143
-64 -178 0 -20 40 -15 41 5 2 50 25 114 65 183 19 32 34 62 34 68 0 7 -34 11
-95 11 -78 0 -95 -3 -95 -15z"/>
<path d="M9556 6663 c-14 -15 -5 -43 14 -43 13 0 20 7 20 19 0 19 -23 35 -34
24z"/>
<path d="M6421 7025 c-1 -6 -29 -9 -71 -7 -44 2 -70 0 -70 -7 0 -6 -6 -8 -14
-5 -13 5 -65 -47 -67 -69 -1 -7 -3 -69 -4 -139 -1 -88 1 -128 9 -128 7 0 7 -3
1 -8 -14 -10 -18 -35 -5 -27 7 4 10 1 9 -6 -5 -22 23 -58 39 -51 9 3 13 1 9
-5 -8 -12 31 -25 81 -28 36 -2 53 12 31 26 -8 5 -15 4 -17 -1 -2 -6 -8 -8 -13
-4 -5 3 -9 0 -9 -6 0 -6 -8 -4 -17 6 -12 11 -18 13 -21 5 -4 -13 -71 53 -73
72 -1 7 -2 71 -4 142 -2 122 0 132 23 167 24 37 47 52 63 42 5 -3 9 -1 9 3 0
12 53 10 62 -2 5 -7 8 -7 8 0 0 10 117 12 127 2 2 -3 18 -1 34 3 16 5 29 5 29
0 0 -4 10 -6 23 -3 18 4 19 3 7 -6 -13 -9 -13 -11 3 -11 9 0 17 -4 17 -9 0 -5
7 -17 16 -25 9 -9 11 -16 4 -16 -6 0 -8 -5 -5 -10 4 -6 12 -7 18 -3 7 4 6 -1
-2 -10 -12 -15 -12 -17 3 -11 23 9 20 25 -14 72 -33 46 -56 53 -153 49 -31 -1
-59 3 -61 8 -3 7 -5 7 -5 0z m-181 -59 c0 -2 -8 -10 -17 -17 -16 -13 -17 -12
-4 4 13 16 21 21 21 13z m-9 -363 c13 -16 12 -17 -3 -4 -10 7 -18 15 -18 17 0
8 8 3 21 -13z"/>
<path d="M7009 6938 c-1 -2 -2 -85 -3 -185 l-1 -181 58 -4 c33 -2 64 0 70 4
11 7 6 10 -32 20 -11 3 -14 30 -13 128 1 215 -1 200 28 200 14 0 23 4 19 10
-5 8 -122 15 -126 8z m56 -182 c1 -123 -2 -159 -13 -163 -7 -3 -16 -2 -20 1
-7 7 -11 305 -4 319 2 4 11 7 20 5 15 -3 17 -22 17 -162z"/>
<path d="M7205 6930 c-4 -6 5 -10 23 -10 l29 0 0 -165 0 -165 -23 0 c-13 0
-24 -4 -24 -10 0 -10 8 -12 60 -12 74 0 67 -18 66 185 l-1 182 -62 3 c-35 2
-64 -2 -68 -8z m110 -178 c1 -149 -1 -162 -17 -162 -18 0 -20 9 -20 160 0 163
1 172 20 168 15 -3 17 -19 17 -166z"/>
<path d="M6655 6882 c-6 -4 -10 -61 -10 -134 0 -120 -1 -128 -22 -144 -13 -9
-21 -20 -18 -24 2 -4 -7 -6 -20 -4 -14 1 -27 -2 -31 -7 -3 -5 -13 -5 -25 1
-15 9 -19 7 -19 -7 0 -14 -2 -15 -9 -4 -5 7 -17 11 -27 7 -11 -3 -25 -2 -33 3
-19 12 -51 1 -51 -18 0 -14 2 -14 10 -1 6 10 10 11 10 3 0 -7 5 -13 11 -13 6
0 8 7 5 16 -5 14 -4 15 9 4 19 -16 73 -21 81 -8 4 6 10 5 16 -3 7 -11 11 -11
15 -1 2 6 8 10 13 7 10 -6 73 15 66 22 -3 3 4 13 14 22 23 19 35 71 17 71 -9
0 -9 2 0 8 14 9 13 63 -2 74 -6 5 -6 8 2 8 7 0 11 22 10 65 0 36 -1 65 -1 65
-1 0 -5 -4 -11 -8z"/>
<path d="M6374 6847 c-31 -28 -38 -76 -14 -112 12 -19 19 -23 23 -13 4 9 6 7
6 -4 1 -14 10 -18 39 -18 43 0 87 32 78 57 -3 8 -1 11 4 8 6 -3 10 3 10 14 0
11 -9 25 -20 31 -16 9 -18 8 -14 -5 3 -8 10 -12 15 -9 5 3 9 0 9 -5 0 -6 -4
-11 -10 -11 -5 0 -10 -8 -10 -19 0 -21 -23 -45 -33 -34 -4 3 -7 2 -7 -4 0 -6
-11 -10 -24 -9 -13 0 -23 3 -20 5 2 2 -10 14 -27 27 -20 15 -26 24 -17 27 10
4 10 8 -2 16 -11 8 -12 11 -2 11 7 0 11 4 8 9 -8 12 61 44 79 37 8 -3 16 0 19
7 2 7 5 5 5 -4 1 -9 8 -20 17 -23 28 -11 29 3 3 22 -36 25 -85 24 -115 -1z"/>
<path d="M11394 7151 c-2 -2 -4 -44 -4 -92 0 -48 -5 -100 -10 -114 l-10 -27
-38 23 c-75 45 -89 50 -115 40 -38 -15 -52 -68 -51 -201 1 -192 29 -226 140
-169 55 29 66 31 74 19 5 -8 10 -66 10 -127 0 -109 1 -113 23 -117 12 -3 353
-4 757 -3 l735 2 0 385 0 384 -753 1 c-415 0 -756 -2 -758 -4z m1484 -377 c2
-329 1 -352 -15 -355 -27 -6 -1432 -3 -1438 2 -2 3 -6 54 -7 113 -3 99 -5 109
-26 126 -26 21 -33 19 -105 -24 -44 -26 -50 -27 -64 -13 -22 22 -32 88 -28
195 2 64 8 100 19 117 18 27 28 26 86 -10 19 -12 47 -25 62 -29 23 -5 29 -2
41 21 7 16 15 66 16 113 2 47 4 87 6 90 2 3 329 5 727 5 l723 0 3 -351z"/>
<path d="M11759 6802 c-36 -53 -64 -103 -62 -109 3 -9 26 -13 69 -13 l64 0 0
-31 c0 -24 4 -30 18 -27 10 2 17 13 17 27 0 15 8 27 23 32 27 10 29 29 2 29
-23 0 -22 -3 -22 108 0 78 -1 82 -21 82 -16 -1 -39 -26 -88 -98z m71 -22 l0
-70 -46 0 c-25 0 -44 4 -42 8 4 12 82 132 86 132 1 0 2 -31 2 -70z"/>
<path d="M11989 6893 c-41 -11 -68 -125 -47 -200 10 -38 51 -73 85 -73 39 0
80 27 92 61 25 73 5 185 -37 208 -20 11 -62 13 -93 4z m88 -49 c21 -33 21
-136 -2 -170 -18 -29 -55 -31 -78 -6 -33 37 -34 154 -1 187 24 23 61 19 81
-11z"/>
<path d="M12206 6879 c-53 -42 -53 -197 1 -239 39 -31 89 -27 124 11 17 18 30
43 30 60 1 16 2 39 2 52 1 12 -2 39 -6 59 -14 71 -95 101 -151 57z m100 -30
c26 -29 26 -149 -1 -179 -23 -25 -57 -26 -80 0 -26 29 -27 150 -1 179 24 27
58 27 82 0z"/>
<path d="M12437 6880 c-43 -34 -54 -153 -20 -213 37 -63 129 -60 161 5 16 34
21 114 9 153 -21 69 -97 97 -150 55z m91 -19 c34 -21 37 -158 5 -193 -22 -24
-56 -23 -79 3 -26 29 -25 150 1 179 19 21 51 26 73 11z"/>
<path d="M13870 7150 c-4 -3 -10 -51 -11 -107 -2 -56 -9 -107 -15 -113 -7 -7
-23 -2 -55 18 -85 54 -118 49 -141 -20 -21 -64 -23 -206 -3 -273 23 -80 45
-88 129 -45 36 19 69 31 73 26 4 -4 9 -57 10 -119 2 -62 5 -117 7 -123 3 -7
230 -10 758 -10 l753 1 3 383 c1 210 -1 382 -5 383 -29 4 -1497 3 -1503 -1z
m1473 -29 c4 0 7 -158 7 -351 0 -326 -1 -350 -17 -351 -117 -6 -1436 -2 -1440
5 -3 5 -7 55 -7 112 -2 85 -5 106 -21 124 -22 24 -38 21 -103 -21 -57 -36 -66
-36 -82 -1 -15 33 -22 190 -11 250 12 60 28 76 61 58 14 -7 43 -23 66 -35 71
-37 86 -19 89 110 1 48 5 90 8 95 4 7 1410 12 1450 5z"/>
<path d="M14228 6799 c-38 -56 -65 -105 -62 -110 3 -5 34 -9 70 -9 l64 0 0
-30 c0 -24 4 -30 21 -30 18 0 21 5 17 30 -4 26 -1 30 19 30 14 0 23 6 23 15 0
8 -9 15 -20 15 -22 0 -22 -1 -23 118 0 66 -2 72 -21 72 -15 0 -40 -28 -88
-101z m72 -19 l0 -70 -46 0 c-25 0 -44 4 -42 9 4 11 82 130 86 131 1 0 2 -31
2 -70z"/>
<path d="M14447 6880 c-33 -26 -47 -75 -41 -143 9 -89 51 -129 122 -111 28 7
41 18 54 44 34 67 16 194 -30 219 -32 17 -77 13 -105 -9z m99 -35 c22 -34 22
-136 0 -170 -20 -30 -56 -33 -81 -5 -19 21 -31 103 -21 144 14 57 73 75 102
31z"/>
<path d="M14669 6871 c-16 -16 -30 -38 -30 -48 -1 -10 -3 -34 -4 -53 -8 -84
35 -150 97 -150 42 0 68 17 84 55 29 71 10 190 -34 214 -38 20 -82 13 -113
-18z m107 -26 c22 -34 22 -136 0 -170 -32 -48 -86 -25 -101 43 -9 44 2 118 21
137 23 23 61 18 80 -10z"/>
<path d="M14907 6880 c-60 -48 -52 -215 12 -250 31 -16 76 -12 104 10 56 44
55 197 -1 240 -32 26 -82 25 -115 0z m99 -31 c27 -30 27 -148 0 -178 -51 -56
-105 -1 -101 100 4 90 54 129 101 78z"/>
<path d="M4403 6870 c0 -30 2 -43 4 -27 2 15 2 39 0 55 -2 15 -4 2 -4 -28z"/>
<path d="M4563 6902 c-5 -4 -9 -73 -9 -162 l1 -155 125 0 125 0 0 150 c0 83
-1 155 -3 161 -3 11 -222 17 -239 6z m225 -157 l1 -145 -109 0 -110 0 0 145 0
145 109 0 108 0 1 -145z"/>
<path d="M4633 6850 c-13 -6 -23 -18 -23 -30 0 -26 16 -26 23 0 4 15 14 20 40
20 70 0 90 -57 32 -91 -32 -19 -49 -59 -25 -59 6 0 10 6 10 13 0 6 16 25 35
40 43 34 46 67 9 96 -28 22 -64 26 -101 11z"/>
<path d="M4655 6640 c-4 -7 -3 -16 3 -22 14 -14 47 -6 47 12 0 18 -40 26 -50
10z"/>
<path d="M13283 6823 c2 -38 2 -38 -40 -41 -29 -2 -43 -8 -43 -18 0 -10 12
-14 40 -14 42 0 42 0 43 -68 0 -15 5 -22 15 -20 11 2 16 15 17 43 0 40 0 40
43 43 28 2 42 8 42 18 0 10 -12 14 -44 14 -41 0 -43 2 -44 28 0 47 -2 52 -17
52 -11 0 -14 -10 -12 -37z"/>
<path d="M4420 6829 c0 -5 5 -7 10 -4 6 3 10 8 10 11 0 2 -4 4 -10 4 -5 0 -10
-5 -10 -11z"/>
<path d="M5260 6838 c0 -2 18 -50 39 -108 34 -92 41 -105 62 -105 34 0 91 112
87 169 -2 29 -8 42 -20 44 -14 3 -17 -5 -16 -46 0 -52 -37 -142 -52 -126 -4 5
-20 46 -35 92 -21 65 -31 82 -46 82 -10 0 -19 -1 -19 -2z"/>
<path d="M10740 6832 c0 -5 14 -21 30 -37 17 -16 30 -33 30 -37 0 -5 -14 -22
-31 -39 -23 -23 -28 -34 -20 -42 8 -8 20 -2 46 23 l35 34 35 -34 c24 -23 38
-31 45 -24 7 7 0 21 -24 45 l-35 34 36 37 c28 29 33 39 21 43 -9 4 -28 -7 -48
-25 l-33 -31 -32 31 c-30 29 -55 39 -55 22z"/>
<path d="M4458 6792 c-2 -15 -1 -38 3 -52 l7 -25 1 27 c1 16 8 28 19 31 16 4
16 5 0 6 -10 0 -18 7 -18 15 0 8 8 17 18 19 13 4 13 5 -4 6 -16 1 -23 -6 -26
-27z"/>
<path d="M4850 6730 c-42 -42 -17 -150 34 -150 43 0 68 31 69 83 1 77 -56 114
-103 67z m68 -12 c16 -16 15 -80 -1 -102 -21 -28 -51 -16 -60 24 -16 64 24
115 61 78z"/>
<path d="M4409 5865 c-30 -16 -44 -44 -31 -57 6 -6 21 1 37 16 34 32 69 33 89
5 20 -30 12 -45 -66 -120 -42 -41 -68 -75 -68 -88 0 -20 5 -21 95 -21 78 0 95
3 95 15 0 12 -15 15 -75 15 -89 0 -89 4 -4 74 68 57 85 95 61 138 -23 40 -83
50 -133 23z"/>
<path d="M4629 5851 c-16 -16 -30 -38 -30 -48 -1 -10 -3 -36 -4 -57 -7 -112
62 -174 144 -131 69 35 69 218 2 255 -37 19 -81 12 -112 -19z m107 -26 c22
-34 22 -136 0 -170 -27 -41 -76 -32 -95 18 -21 55 -8 150 22 169 24 15 57 8
73 -17z"/>
<path d="M4865 5858 c-31 -27 -45 -99 -33 -168 21 -119 161 -122 186 -3 6 25
9 53 7 62 -1 9 -5 33 -9 53 -13 72 -97 102 -151 56z m101 -29 c14 -16 18 -36
18 -89 0 -53 -4 -73 -18 -89 -27 -29 -62 -27 -83 6 -25 37 -24 145 2 173 23
26 57 26 81 -1z"/>
<path d="M4405 5128 c-32 -28 -44 -70 -40 -137 5 -87 49 -130 120 -117 51 10
75 52 75 134 0 68 -18 115 -49 132 -32 17 -78 11 -106 -12z m101 -33 c11 -16
16 -46 16 -85 0 -70 -20 -110 -57 -110 -34 0 -53 23 -61 75 -8 54 1 109 22
130 24 23 61 19 80 -10z"/>
<path d="M4746 5129 c-14 -11 -26 -27 -26 -35 0 -21 33 -17 48 6 14 22 61 27
80 8 31 -31 3 -78 -47 -78 -12 0 -21 -7 -21 -15 0 -10 10 -15 28 -15 31 0 62
-26 62 -52 0 -22 -33 -48 -63 -48 -15 0 -33 10 -45 25 -11 14 -27 25 -36 25
-19 0 -19 -2 -5 -33 30 -67 166 -61 183 8 8 32 -10 76 -34 82 -19 5 -18 6 5
25 55 43 13 118 -65 118 -23 0 -48 -8 -64 -21z"/>
<path d="M4619 4918 c0 -2 -2 -13 -3 -26 -2 -18 2 -22 17 -20 28 4 32 24 8 38
-12 6 -21 9 -22 8z"/>
<path d="M4397 4381 c-25 -31 -38 -77 -33 -121 2 -14 4 -35 5 -48 2 -36 53
-82 91 -82 67 0 100 45 100 135 0 100 -32 145 -103 145 -27 0 -41 -7 -60 -29z
m109 -26 c23 -35 23 -135 1 -169 -20 -29 -57 -35 -81 -11 -32 33 -32 157 0
190 23 23 61 19 80 -10z"/>
<path d="M3202 3664 c-31 -22 -44 -58 -43 -126 0 -89 34 -138 96 -138 75 0
116 86 93 195 -16 75 -89 109 -146 69z m92 -32 c25 -29 30 -120 9 -162 -22
-43 -60 -51 -88 -20 -27 30 -27 150 0 180 23 25 57 26 79 2z"/>
<path d="M3553 3670 c-28 -11 -49 -48 -35 -62 7 -7 18 -2 33 16 39 45 99 30
99 -25 0 -21 -14 -39 -60 -79 -59 -51 -96 -101 -83 -114 4 -3 49 -6 101 -6 70
0 93 3 90 13 -3 7 -32 14 -77 17 l-73 5 24 25 c13 14 37 36 53 50 70 58 84
113 39 149 -28 22 -73 26 -111 11z"/>
<path d="M3419 3443 c-23 -6 -12 -43 12 -43 12 0 19 7 19 19 0 23 -8 29 -31
24z"/>
<path d="M3202 2924 c-31 -21 -42 -55 -43 -124 -2 -91 33 -140 99 -140 57 0
100 62 95 138 0 6 -1 28 -2 48 -2 74 -90 120 -149 78z m92 -29 c19 -19 30 -93
21 -137 -14 -65 -63 -89 -101 -47 -25 28 -25 151 1 179 22 24 58 26 79 5z"/>
<path d="M3553 2930 c-27 -11 -49 -48 -36 -61 6 -6 20 0 37 16 45 41 96 29 96
-24 0 -17 -19 -42 -64 -85 -64 -61 -91 -98 -79 -110 3 -3 48 -6 98 -6 75 0 92
3 92 15 0 12 -15 15 -74 15 -67 0 -73 2 -64 18 5 9 30 33 54 52 80 62 99 121
51 159 -28 22 -73 26 -111 11z"/>
<path d="M3413 2692 c-3 -9 -8 -20 -10 -24 -2 -5 7 -8 21 -8 19 0 26 5 26 19
0 25 -29 36 -37 13z"/>
<path d="M3213 2179 c-19 -12 -33 -29 -33 -41 0 -19 0 -19 26 1 15 12 29 21
33 21 3 0 6 -46 5 -102 l0 -103 -37 -3 c-24 -2 -37 -8 -37 -18 0 -11 18 -14
90 -14 73 0 90 3 90 15 0 10 -11 15 -35 15 l-35 0 0 125 c0 140 -3 145 -67
104z"/>
<path d="M3213 1449 c-19 -12 -33 -29 -33 -41 0 -19 1 -19 30 2 21 15 30 17
31 8 1 -19 1 -171 0 -185 -1 -8 -15 -13 -36 -13 -24 0 -35 -5 -35 -15 0 -12
17 -15 90 -15 73 0 90 3 90 15 0 10 -11 15 -35 15 l-35 0 0 125 c0 140 -3 145
-67 104z"/>
<path d="M3195 708 c-50 -44 -50 -191 0 -235 35 -31 88 -31 120 1 38 38 49
103 31 183 -16 68 -99 95 -151 51z m92 -16 c34 -22 40 -157 8 -192 -23 -26
-57 -26 -80 0 -26 29 -26 151 0 180 18 20 50 26 72 12z"/>
</g>
</svg>
