<?xml version="1.0" standalone="no"?>
<!DOCTYPE svg PUBLIC "-//W3C//DTD SVG 20010904//EN"
 "http://www.w3.org/TR/2001/REC-SVG-20010904/DTD/svg10.dtd">
<svg version="1.0" xmlns="http://www.w3.org/2000/svg"
 width="1515.000000pt" height="874.000000pt" viewBox="0 0 1515.000000 874.000000"
 preserveAspectRatio="xMidYMid meet">
<metadata>
Created by potrace 1.16, written by Peter Selinger 2001-2019
</metadata>
<g transform="translate(0.000000,874.000000) scale(0.100000,-0.100000)"
fill="#000000" stroke="none">
<path d="M14193 8415 c0 -8 4 -12 9 -9 4 3 8 9 8 15 0 5 -4 9 -8 9 -5 0 -9 -7
-9 -15z"/>
<path d="M613 8289 c-23 -4 -52 -13 -65 -20 -41 -21 -99 -83 -119 -128 -19
-43 -19 -99 -19 -3675 l1 -3631 24 -47 c13 -25 20 -50 17 -54 -4 -4 -2 -4 4
-1 6 4 22 -5 35 -20 46 -50 102 -66 237 -69 68 -1 126 -4 129 -8 3 -3 10 -3
16 1 14 8 1411 8 1424 0 7 -4 14 -4 16 0 3 5 85 7 184 6 98 -1 205 -2 238 -2
33 0 237 1 453 1 l392 1 0 389 c0 213 3 388 8 389 61 5 1032 2 1045 -4 9 -4
17 -4 17 0 0 4 123 7 272 5 150 -1 278 -2 283 -2 6 0 55 1 110 3 55 1 108 -1
118 -5 9 -5 17 -5 17 -1 0 10 373 9 388 -1 7 -4 12 -4 12 1 0 4 48 8 107 8
l108 0 0 382 c1 210 4 385 8 389 4 4 1854 7 4112 7 l4105 0 0 558 0 559 -50
-4 c-28 -1 -53 1 -56 6 -3 4 -10 5 -16 2 -15 -9 -219 -10 -225 -1 -2 4 -9 4
-15 1 -14 -9 -931 -10 -945 -1 -6 4 -13 4 -16 0 -9 -8 -930 -8 -944 0 -6 4
-13 4 -16 0 -9 -8 -930 -8 -944 0 -6 4 -13 4 -16 0 -9 -8 -930 -8 -944 0 -6 4
-13 4 -16 0 -9 -8 -930 -8 -944 0 -6 4 -13 4 -16 0 -9 -8 -930 -8 -944 0 -6 4
-13 4 -16 0 -9 -8 -930 -8 -944 0 -6 4 -13 4 -16 0 -9 -8 -930 -8 -944 0 -6 4
-13 4 -17 0 -5 -5 -71 -7 -161 -4 -19 1 -20 8 -19 144 0 78 3 147 7 153 3 6 3
14 0 18 -4 3 -7 100 -7 215 l-1 209 25 4 c14 2 1945 3 4293 2 3894 -1 4267 1
4268 15 0 21 0 746 0 942 l-1 156 -472 -1 c-260 -1 -481 2 -490 7 -10 4 -18 4
-18 0 0 -10 -212 -9 -228 1 -7 4 -12 4 -12 -1 0 -7 -244 -9 -260 -3 -3 1 -9 1
-15 0 -27 -7 -492 -4 -507 3 -10 4 -18 4 -18 0 0 -10 -292 -9 -308 1 -7 4 -12
4 -12 -1 0 -10 -292 -9 -308 1 -7 4 -12 4 -12 -1 0 -10 -533 -9 -549 1 -6 4
-11 4 -11 -1 0 -10 -212 -9 -228 1 -7 4 -12 4 -12 -1 0 -10 -692 -9 -708 1 -7
4 -12 4 -12 -1 0 -10 -212 -9 -228 1 -7 4 -12 4 -12 -1 0 -10 -692 -9 -708 1
-7 4 -12 4 -12 -1 0 -10 -212 -9 -228 1 -7 4 -12 4 -12 -1 0 -10 -452 -9 -468
1 -7 4 -12 4 -12 -1 0 -10 -292 -9 -308 1 -7 4 -12 4 -12 -1 0 -10 -292 -9
-308 1 -7 4 -12 4 -12 -1 0 -10 -292 -9 -308 1 -7 4 -12 4 -12 -1 0 -10 -532
-9 -549 1 -6 4 -11 4 -11 -1 0 -10 -212 -9 -228 1 -7 4 -12 4 -12 -1 0 -9
-241 -10 -256 0 -6 3 -15 3 -21 -1 -15 -9 -737 -7 -751 2 -7 4 -12 4 -12 -1 0
-10 -212 -9 -228 1 -7 4 -12 4 -12 -1 0 -6 -429 -9 -517 -4 -10 1 -13 86 -13
390 l0 389 -72 -2 c-40 -1 -81 2 -90 6 -10 5 -18 5 -18 1 0 -10 -377 -10 -386
0 -4 3 -14 2 -23 -2 -20 -11 -32 -11 -53 0 -10 5 -18 6 -18 2 0 -10 -452 -9
-468 1 -7 4 -12 3 -12 -1 0 -7 -29 -9 -60 -4 -3 1 -5 175 -5 387 0 297 -3 388
-12 396 -7 6 -13 7 -13 2 0 -5 -43 -9 -95 -9 -52 0 -95 4 -95 8 0 5 -6 5 -12
1 -17 -11 -148 -11 -148 -1 0 5 -6 5 -12 1 -17 -11 -148 -11 -148 -1 0 5 -6 5
-12 1 -17 -11 -148 -11 -148 -1 0 5 -5 5 -12 1 -18 -12 -559 -11 -566 1 -10
17 -10 179 0 199 6 10 6 16 1 13 -6 -4 -9 102 -9 259 l1 264 25 1 c14 1 123 1
243 1 l217 1 0 407 0 407 -951 0 -952 0 -87 -60 c-119 -81 -139 -81 -257 -2
l-88 59 -115 2 c-63 1 -134 -2 -157 -7z m348 -86 c126 -82 150 -82 280 1 l92
60 920 0 c505 1 923 -2 928 -5 5 -3 8 -158 7 -374 l-3 -369 -930 3 -930 3 -93
-61 c-125 -82 -145 -82 -267 -1 l-90 60 -218 0 -218 0 3 293 c3 321 3 321 69
387 55 54 97 65 248 64 l109 0 93 -61z m-5 -778 c77 -50 96 -59 139 -60 44 -1
59 5 145 59 l95 61 130 -1 c72 -1 135 -2 141 -3 14 -1 9 -190 -5 -204 -6 -6
-26 1 -58 21 -126 80 -165 37 -165 -179 0 -205 39 -245 166 -168 36 23 52 27
60 19 8 -8 11 -852 11 -3150 0 -3132 0 -3139 -20 -3142 -11 -2 -236 -3 -500
-3 l-480 1 -55 29 c-39 22 -63 43 -85 79 l-30 49 -3 3326 -2 3326 214 0 214
-1 88 -59z m1742 -418 c1 -327 -1 -484 -9 -498 -10 -20 -11 -20 -47 2 -100 60
-130 61 -159 6 -26 -47 -26 -297 0 -344 29 -55 64 -53 162 7 34 21 34 21 44 1
16 -29 15 -4943 -1 -4959 -8 -8 -27 -3 -75 24 -119 67 -148 32 -148 -181 0
-213 29 -248 149 -181 63 35 65 36 76 17 5 -11 10 -66 10 -123 l0 -103 -519 0
c-286 0 -522 3 -525 6 -3 3 -6 1412 -6 3131 0 2236 -3 3134 -11 3157 -17 48
-46 49 -120 6 -62 -36 -62 -36 -82 -17 -39 39 -33 339 6 343 24 3 38 -3 87
-33 89 -55 115 -28 119 122 1 46 4 87 6 90 2 3 236 5 522 5 l518 0 3 -478z
m1270 -306 c18 -2 18 -949 -1 -974 -11 -16 -16 -15 -58 12 -83 52 -117 52
-147 -2 -25 -47 -25 -297 1 -344 29 -55 59 -54 159 6 36 22 37 22 47 2 8 -14
10 -604 9 -1983 l-3 -1963 -195 2 c-107 0 -387 1 -621 2 l-425 1 0 2359 c-1
2238 -1 2361 -18 2386 -22 33 -52 30 -121 -14 -77 -49 -93 -28 -99 127 -4 94
8 180 28 200 12 12 22 9 75 -22 34 -20 71 -36 81 -36 36 0 50 41 54 146 2 55
4 99 5 99 234 0 1220 -3 1229 -4z m1220 -1248 c1 -298 -2 -481 -8 -498 l-10
-26 -65 36 c-35 20 -75 35 -87 33 -44 -6 -62 -60 -66 -193 -4 -143 9 -202 51
-225 26 -14 31 -13 98 23 l69 38 10 -26 c6 -16 10 -168 10 -370 0 -202 -4
-354 -10 -370 l-10 -26 -69 38 c-67 36 -71 37 -98 23 -37 -21 -50 -70 -52
-197 -3 -148 22 -223 74 -223 11 0 48 16 80 35 42 26 61 33 69 25 13 -13 16
-434 4 -463 -7 -17 -13 -15 -73 18 -35 20 -75 35 -87 33 -13 -2 -31 -18 -42
-38 -19 -31 -21 -52 -21 -175 0 -155 10 -193 57 -209 22 -8 36 -3 89 28 94 56
90 73 87 -371 -2 -204 -6 -374 -10 -378 -3 -4 -36 10 -73 30 -121 68 -150 34
-150 -180 0 -155 10 -193 57 -209 22 -8 36 -3 89 28 45 27 65 34 73 26 6 -6
12 -59 14 -123 l4 -112 -584 2 c-321 0 -586 2 -590 2 -5 1 -8 886 -8 1969 0
2068 1 2012 -43 2020 -10 2 -47 -13 -83 -33 -76 -43 -86 -39 -103 34 -15 68
-7 246 13 276 18 28 35 25 106 -20 81 -51 110 -20 110 122 0 87 1 92 23 95 12
2 276 3 587 3 l565 -1 3 -471z m9432 -829 c0 -409 -3 -523 -12 -526 -7 -2
-2121 -3 -4698 -3 l-4685 1 -5 270 c-6 338 -4 334 -127 269 -57 -30 -69 -33
-81 -22 -22 23 -32 86 -29 198 5 164 24 181 126 114 81 -54 111 -20 111 125
l0 95 4700 0 4700 0 0 -521z m-8586 -922 c-1 -196 -2 -363 -3 -369 -1 -10 -89
-13 -406 -13 l-405 0 0 108 c0 127 -11 158 -56 156 -16 -1 -53 -16 -82 -35
-47 -29 -54 -31 -68 -17 -22 22 -32 77 -32 173 0 96 10 151 32 173 14 14 21
12 76 -22 102 -63 130 -40 130 112 l0 92 408 0 407 0 -1 -358z m8224 -942 l2
-525 -4507 1 c-2480 1 -4514 2 -4520 3 -10 1 -13 60 -13 259 0 287 -4 308 -56
306 -17 -1 -52 -15 -78 -32 -61 -37 -82 -33 -95 22 -10 47 -8 252 4 279 16 38
39 38 98 1 99 -62 127 -37 127 116 l0 95 4518 0 4517 -1 3 -524z m-8224 -923
c0 -200 -3 -368 -6 -373 -5 -7 -752 -11 -800 -5 -5 1 -8 49 -8 109 0 127 -11
158 -56 156 -17 -1 -48 -13 -70 -26 -63 -39 -72 -40 -91 -11 -26 40 -26 276 0
316 20 30 36 27 106 -18 80 -54 111 -20 111 123 l0 92 408 0 407 0 -1 -363z
m-2488 -778 c0 -200 -1 -368 -3 -374 -2 -6 -142 -10 -396 -9 -215 1 -398 2
-404 3 -10 1 -13 30 -13 109 0 112 -12 154 -43 160 -10 2 -47 -13 -83 -33 -76
-43 -86 -39 -102 33 -12 53 -8 228 6 263 16 40 34 41 97 3 99 -60 125 -36 125
113 0 87 1 92 23 95 12 2 195 3 407 2 l385 -1 1 -364z"/>
<path d="M1470 8030 c0 -13 7 -20 20 -20 13 0 20 7 20 20 0 13 -7 20 -20 20
-13 0 -20 -7 -20 -20z"/>
<path d="M746 8018 c-3 -13 -6 -35 -6 -50 0 -23 4 -28 24 -28 19 0 22 4 18 25
-2 14 -8 25 -14 25 -5 0 -4 8 2 19 13 26 13 31 -4 31 -7 0 -16 -10 -20 -22z"/>
<path d="M820 8021 c-5 -11 -10 -34 -10 -51 0 -26 3 -31 22 -28 21 3 36 38 16
38 -6 0 -8 12 -4 30 6 34 -8 40 -24 11z"/>
<path d="M1209 8038 c-1 -2 -2 -72 -3 -155 -1 -152 -1 -153 21 -153 20 0 22 5
25 62 l3 62 75 2 c92 2 87 1 87 19 0 12 -16 15 -84 15 l-83 0 0 58 0 58 85 -1
c75 -1 85 1 85 17 0 16 -11 18 -105 18 -58 0 -106 -1 -106 -2z"/>
<path d="M2560 8026 c0 -19 15 -22 93 -21 37 1 67 0 67 -3 0 -2 -8 -16 -18
-30 -42 -63 -82 -166 -82 -213 0 -22 5 -29 20 -29 14 0 20 7 20 24 0 40 36
142 69 196 17 27 31 59 31 70 0 19 -7 20 -100 20 -79 0 -100 -3 -100 -14z"/>
<path d="M1470 7850 c0 -113 1 -120 20 -120 19 0 20 7 20 120 0 113 -1 120
-20 120 -19 0 -20 -7 -20 -120z"/>
<path d="M1585 7945 c-15 -14 -26 -37 -26 -55 -4 -90 0 -110 26 -135 27 -28
70 -32 101 -10 12 8 24 12 27 9 8 -9 -11 -67 -25 -76 -21 -13 -55 -9 -68 7
-18 21 -52 20 -48 -2 4 -24 45 -43 91 -43 46 0 87 35 88 77 0 15 2 79 2 140 2
111 2 113 -20 113 -13 0 -22 -3 -22 -7 3 -21 -3 -23 -23 -9 -33 23 -75 20
-103 -9z m109 -27 c23 -33 21 -113 -4 -138 -24 -24 -53 -26 -74 -4 -22 22 -22
121 1 146 22 25 59 23 77 -4z"/>
<path d="M1812 7864 c3 -91 6 -108 22 -120 29 -20 79 -17 104 6 l22 21 0 -21
c0 -13 7 -20 20 -20 18 0 19 8 19 120 1 113 -1 120 -19 120 -16 0 -20 -7 -20
-37 -2 -111 -7 -144 -26 -158 -25 -19 -49 -19 -68 1 -12 12 -16 37 -16 105 0
84 -1 89 -21 89 -20 0 -21 -4 -17 -106z"/>
<path d="M2059 7963 c-1 -10 -1 -215 0 -225 1 -5 10 -8 21 -8 18 0 20 7 20 81
0 92 10 119 45 119 18 0 25 5 25 20 0 24 -32 27 -54 4 -15 -14 -20 -11 -17 9
0 4 -8 7 -19 7 -11 0 -20 -3 -21 -7z"/>
<path d="M2242 7960 c-45 -19 -65 -109 -38 -174 24 -57 119 -74 167 -30 38 35
12 46 -38 17 -41 -23 -78 -12 -92 28 -6 18 -11 34 -11 35 0 2 38 4 85 4 96 0
100 5 70 75 -20 50 -82 69 -143 45z m84 -28 c11 -7 34 -45 34 -56 0 -3 -29 -6
-65 -6 l-65 0 11 27 c6 15 16 31 22 35 15 10 49 10 63 0z"/>
<path d="M2829 7778 c-1 -2 -3 -13 -4 -25 -2 -18 3 -23 22 -23 20 0 24 4 21
22 -2 18 -34 39 -39 26z"/>
<path d="M770 4059 c0 -152 -21 -143 160 -67 135 57 147 77 65 106 -16 6 -64
25 -105 42 -41 18 -85 36 -97 41 l-23 9 0 -131z m130 36 c36 -15 69 -30 73
-34 9 -9 -149 -74 -161 -67 -6 4 -7 48 -3 120 1 10 6 16 14 13 6 -3 41 -17 77
-32z"/>
<path d="M1975 7163 c2 -54 4 -104 4 -110 1 -7 8 -13 16 -13 12 0 15 13 16 58
0 31 1 81 3 110 2 48 0 52 -21 52 -22 0 -22 -2 -18 -97z"/>
<path d="M1983 6993 c-7 -2 -13 -13 -13 -24 0 -13 7 -19 24 -19 18 0 23 5 21
18 -2 9 -4 20 -4 25 -1 8 -10 8 -28 0z"/>
<path d="M1960 4231 c0 -5 11 -16 24 -24 13 -9 29 -31 35 -50 10 -31 8 -41
-27 -113 -54 -109 -58 -124 -34 -124 20 0 23 5 73 124 l16 40 18 -50 c39 -106
44 -114 64 -114 20 0 19 2 -6 68 -14 37 -37 100 -51 140 -14 40 -34 81 -44 92
-19 20 -68 28 -68 11z"/>
<path d="M2013 1153 c-4 -27 -14 -49 -21 -49 -6 -1 -21 -2 -33 -3 -28 -1 -13
-21 16 -21 15 0 23 -5 21 -12 -3 -7 -7 -25 -10 -40 -4 -17 -11 -25 -19 -22 -8
3 -20 -2 -27 -11 -11 -13 -9 -15 14 -15 15 0 25 -3 23 -7 -3 -5 -8 -25 -11
-45 -4 -29 -2 -38 8 -38 9 0 16 17 20 45 7 45 7 45 47 45 34 0 39 -3 35 -17
-17 -60 -18 -73 -3 -73 11 0 18 14 23 45 6 43 8 45 40 45 25 0 32 4 28 14 -3
8 -11 13 -17 10 -22 -7 -34 11 -30 44 5 28 9 32 36 32 25 0 29 3 19 13 -7 6
-18 12 -25 12 -13 1 -14 13 -2 64 11 52 -17 34 -30 -19 -10 -40 -13 -44 -43
-45 -18 -1 -35 1 -37 4 -2 4 0 25 5 49 5 31 4 42 -5 42 -7 0 -17 -21 -22 -47z
m82 -105 c-10 -45 -9 -44 -47 -43 -25 1 -33 5 -32 18 3 57 2 57 45 57 41 0 41
0 34 -32z"/>
<path d="M3050 6476 c0 -8 9 -17 19 -21 11 -3 26 -22 34 -42 13 -33 12 -39 -8
-82 -12 -25 -33 -68 -45 -96 -12 -27 -24 -53 -27 -57 -2 -5 5 -8 17 -8 20 0
49 51 84 145 6 16 14 2 38 -62 23 -64 34 -83 49 -83 10 0 19 2 19 5 0 15 -93
255 -110 283 -14 22 -27 32 -45 32 -15 0 -25 -6 -25 -14z"/>
<path d="M3140 3629 l-35 -29 30 -25 c37 -30 49 -32 35 -5 -10 19 -8 20 95 20
63 0 105 4 105 10 0 6 -42 10 -105 10 -104 0 -106 0 -95 21 17 31 9 30 -30 -2z"/>
<path d="M4396 5635 c-22 -17 -59 -118 -45 -123 19 -7 39 7 39 27 0 25 20 71
31 71 13 0 35 -49 48 -106 20 -83 67 -117 104 -76 26 28 49 104 37 116 -13 12
-40 -17 -40 -43 -1 -9 -7 -27 -14 -40 l-13 -24 -16 24 c-8 13 -23 52 -32 86
-17 61 -45 103 -68 103 -7 0 -21 -7 -31 -15z"/>
<path d="M4300 4693 c1 -5 18 -57 39 -118 47 -134 63 -144 111 -68 55 87 68
185 24 191 -18 3 -20 -1 -16 -33 5 -43 -12 -111 -36 -143 -17 -22 -18 -21 -50
78 -27 81 -37 100 -53 100 -10 0 -19 -3 -19 -7z"/>
<path d="M4400 3806 c0 -38 -3 -45 -25 -50 -36 -9 -58 -49 -58 -107 -1 -60 16
-94 54 -110 26 -10 29 -16 29 -55 0 -37 3 -44 20 -44 17 0 20 7 20 43 0 38 3
44 35 61 40 22 50 47 48 119 -1 53 -31 97 -65 97 -15 0 -18 8 -18 45 0 38 -3
45 -20 45 -17 0 -20 -7 -20 -44z m0 -163 l0 -87 -21 21 c-24 23 -29 96 -9 133
21 39 30 19 30 -67z m69 73 c27 -33 17 -138 -15 -150 -11 -4 -14 10 -14 79 0
84 6 99 29 71z"/>
<path d="M4470 2815 c-19 -19 -39 -35 -46 -35 -6 0 -23 14 -37 31 -18 22 -31
30 -43 25 -15 -6 -12 -13 21 -46 l39 -40 -39 -40 c-28 -28 -36 -43 -28 -51 7
-7 14 -6 25 3 7 7 26 24 41 37 l26 24 37 -37 c32 -32 54 -39 54 -17 0 4 -16
24 -35 44 l-35 36 35 36 c19 19 35 40 35 45 0 22 -19 17 -50 -15z"/>
<path d="M4410 1880 l0 -50 -45 0 c-33 0 -45 -4 -45 -15 0 -11 12 -15 45 -15
l45 0 0 -45 c0 -33 4 -45 15 -45 11 0 15 12 15 44 l0 45 45 3 c59 4 62 22 5
28 l-45 5 -3 48 c-2 33 -7 47 -18 47 -10 0 -14 -13 -14 -50z"/>
<path d="M6938 4910 c-2 -66 -7 -122 -10 -126 -4 -3 -35 10 -71 30 -35 20 -73
36 -84 36 -49 0 -73 -71 -73 -215 0 -145 24 -215 74 -215 12 0 48 16 80 36 43
26 62 32 70 24 7 -6 12 -64 14 -141 l4 -129 681 2 682 3 0 405 0 405 -681 3
-682 2 -4 -120z m1327 78 c8 -8 8 -728 0 -736 -3 -3 -295 -6 -648 -6 l-642 0
-5 121 c-7 163 -25 182 -119 125 -71 -44 -79 -45 -98 -15 -14 21 -18 52 -20
132 -2 114 7 175 30 199 14 13 22 10 75 -22 106 -64 125 -49 130 100 4 84 7
104 20 106 31 6 1271 2 1277 -4z"/>
<path d="M7323 4760 c-21 -9 -43 -38 -43 -59 0 -20 32 -11 52 14 20 25 40 28
81 10 17 -7 22 -31 11 -59 -4 -9 -23 -19 -45 -22 -23 -4 -39 -12 -39 -20 0 -8
5 -15 10 -15 13 -2 20 -3 52 -12 47 -12 49 -80 3 -97 -32 -12 -81 6 -88 31 -7
28 -43 21 -39 -6 11 -71 141 -89 189 -26 29 37 2 121 -38 121 -7 0 0 9 15 21
58 46 17 130 -63 128 -20 0 -46 -4 -58 -9z"/>
<path d="M7549 4741 c-16 -16 -29 -34 -29 -40 0 -19 37 -12 51 9 18 27 57 33
85 15 41 -26 11 -85 -43 -85 -16 0 -23 -6 -23 -18 0 -14 8 -19 32 -20 45 -1
63 -24 59 -74 -3 -42 -107 -41 -118 2 -6 22 -28 27 -39 9 -10 -17 16 -57 48
-70 37 -15 106 -6 128 18 10 10 20 33 24 51 5 28 1 38 -22 62 l-28 28 24 21
c18 16 22 28 18 53 -7 43 -41 68 -94 68 -35 0 -49 -6 -73 -29z"/>
<path d="M7813 4760 c-39 -16 -57 -70 -23 -70 11 0 20 6 20 14 0 23 52 39 83
25 52 -23 26 -88 -35 -89 -19 0 -26 -5 -24 -17 2 -10 11 -18 22 -18 37 -1 64
-17 70 -40 6 -26 -10 -65 -29 -66 -7 0 -21 -2 -31 -4 -11 -2 -31 8 -47 24 -49
49 -81 28 -36 -24 26 -31 92 -44 136 -26 50 21 68 94 31 131 -11 11 -25 20
-31 20 -7 0 0 9 15 21 58 46 17 130 -63 128 -20 0 -46 -4 -58 -9z"/>
<path d="M9227 5023 c-4 -3 -7 -57 -7 -119 0 -66 -4 -115 -10 -119 -6 -4 -33
7 -60 24 -71 44 -96 48 -125 21 -57 -53 -59 -330 -3 -390 26 -28 57 -22 128
21 28 17 54 28 58 24 4 -3 9 -66 12 -138 l5 -132 683 -3 682 -2 0 410 0 410
-678 0 c-373 0 -682 -3 -685 -7z m1325 -32 c3 -1 6 -167 6 -370 l0 -369 -21
-4 c-18 -3 -1217 -2 -1267 1 -13 1 -15 17 -15 94 2 179 -20 204 -128 144 -34
-20 -68 -33 -74 -29 -23 15 -35 70 -35 172 -2 149 20 205 69 177 82 -48 107
-58 129 -53 29 8 37 35 38 140 1 45 4 86 8 91 4 7 228 9 645 9 351 -1 641 -2
645 -3z"/>
<path d="M9576 4753 c-8 -29 -10 -128 -2 -141 5 -8 14 -8 34 -1 49 19 69 19
92 1 26 -21 30 -76 7 -99 -26 -26 -65 -25 -93 2 -26 26 -39 31 -48 16 -18 -28
39 -71 93 -71 68 0 110 45 106 114 -3 52 -41 86 -94 86 -20 0 -43 -6 -50 -12
-10 -11 -12 -3 -9 37 l3 50 60 1 c78 2 75 2 75 19 0 12 -16 15 -84 15 -72 0
-85 -3 -90 -17z"/>
<path d="M9819 4733 c-5 -120 -4 -128 11 -129 8 0 20 4 26 8 31 23 86 14 106
-16 15 -21 8 -65 -13 -85 -25 -23 -78 -20 -97 6 -6 9 -19 18 -27 19 -28 4 -26
-16 4 -46 24 -25 38 -30 76 -30 97 0 142 104 74 172 -28 28 -34 30 -79 25
l-50 -6 4 32 c3 18 5 37 5 43 1 7 22 11 59 10 69 -2 82 1 75 20 -4 10 -26 14
-89 14 l-84 0 -1 -37z"/>
<path d="M10061 4685 c-2 -79 -1 -84 18 -80 11 2 28 8 39 14 47 25 95 -6 95
-61 0 -62 -75 -87 -115 -37 -10 12 -24 19 -33 15 -39 -14 6 -65 64 -73 82 -11
136 41 125 119 -8 52 -48 80 -107 75 l-48 -4 3 41 3 41 65 0 c53 1 65 4 68 18
3 15 -7 17 -86 17 l-89 0 -2 -85z"/>
<path d="M11597 5023 c-4 -3 -7 -57 -7 -119 0 -65 -4 -115 -10 -119 -6 -4 -37
10 -69 29 -58 36 -85 43 -108 28 -60 -38 -67 -339 -10 -400 27 -29 56 -25 127
19 28 17 54 28 58 24 4 -3 9 -66 12 -138 l5 -132 438 -3 437 -2 0 410 0 410
-433 0 c-239 0 -437 -3 -440 -7z m841 -401 c2 -294 0 -372 -10 -373 -37 -3
-775 -4 -788 -1 -12 2 -15 24 -15 117 -1 97 -3 117 -19 134 -24 26 -42 26 -86
-1 -19 -11 -50 -27 -68 -35 -33 -14 -33 -14 -48 23 -11 26 -16 69 -15 143 0
109 11 169 33 182 7 4 38 -7 73 -27 34 -19 71 -34 82 -34 32 0 46 42 47 142 1
63 5 95 13 98 7 3 189 5 405 5 l393 -1 3 -372z"/>
<path d="M11982 4742 c-18 -15 -32 -33 -32 -39 0 -18 7 -16 41 8 l30 21 -3
-119 -3 -118 -30 -1 c-44 -3 -45 -3 -45 -19 0 -12 17 -15 94 -15 89 0 122 9
94 26 -6 4 -23 8 -37 9 l-26 1 -3 137 c-3 134 -3 137 -25 137 -12 0 -37 -13
-55 -28z"/>
<path d="M13477 5013 c-3 -10 -5 -63 -6 -117 0 -55 -5 -104 -10 -109 -6 -6
-28 2 -58 21 -121 77 -163 40 -166 -150 -2 -117 8 -179 34 -212 27 -35 53 -33
122 10 38 24 62 33 68 27 6 -6 11 -68 12 -139 l2 -129 438 -3 437 -2 0 42 c1
61 1 750 1 766 -1 9 -95 12 -435 12 -406 0 -435 -1 -439 -17z m843 -390 c0
-205 -3 -373 -7 -374 -33 -4 -796 -3 -798 2 -2 3 -5 50 -6 104 -3 170 -24 191
-131 131 -39 -22 -68 -32 -76 -27 -22 13 -32 79 -31 191 2 173 19 191 116 129
92 -57 114 -36 121 116 l4 100 404 0 404 0 0 -372z"/>
<path d="M13861 4754 c-32 -23 -51 -74 -51 -139 0 -97 39 -155 105 -155 66 0
105 58 105 155 0 97 -39 155 -105 155 -17 0 -41 -7 -54 -16z m89 -32 c27 -22
39 -120 20 -176 -26 -80 -103 -67 -116 19 -10 71 0 136 26 157 28 23 42 23 70
0z"/>
<path d="M6353 4793 c-10 -4 -13 -53 -13 -199 l0 -195 48 3 c51 3 64 21 20 26
l-28 3 0 179 c0 98 -3 181 -7 183 -5 2 -14 2 -20 0z"/>
<path d="M8658 4792 c-35 -4 -38 -32 -3 -32 l25 0 0 -180 c0 -173 1 -180 20
-180 19 0 20 7 20 194 0 213 2 206 -62 198z"/>
<path d="M5556 4735 c26 -17 68 -129 57 -149 -13 -23 -79 -92 -104 -109 -23
-17 -22 -17 31 -16 30 1 47 3 38 6 -10 2 -18 10 -18 16 0 12 63 87 73 87 3 0
12 -20 20 -45 14 -41 14 -46 -1 -55 -13 -7 -1 -9 43 -10 55 0 58 1 39 15 -28
19 -69 128 -57 150 5 9 34 41 63 71 l53 54 -48 0 c-42 0 -47 -2 -31 -13 16
-12 15 -16 -16 -54 -18 -23 -36 -42 -39 -42 -3 -1 -13 18 -22 41 -16 38 -15
42 1 54 15 12 9 13 -43 14 -55 0 -58 -1 -39 -15z"/>
<path d="M12869 4695 c-1 -14 -2 -35 -2 -47 -1 -19 -8 -24 -44 -28 -59 -7 -59
-24 -1 -28 43 -3 47 -5 46 -30 -1 -51 2 -62 17 -62 11 0 15 12 15 45 l0 45 45
0 c33 0 45 4 45 15 0 11 -12 15 -45 15 l-45 0 0 50 c0 38 -4 50 -15 50 -9 0
-15 -10 -16 -25z"/>
<path d="M10914 4696 c-5 -12 3 -27 25 -50 17 -17 31 -35 31 -39 0 -3 -15 -22
-34 -40 -25 -26 -31 -38 -23 -46 8 -8 21 -1 49 26 l38 37 38 -37 c30 -29 41
-34 50 -25 9 9 4 20 -25 50 l-37 38 37 38 c32 32 36 41 24 51 -12 9 -21 4 -50
-28 l-35 -39 -40 41 c-35 35 -42 38 -48 23z"/>
<path d="M5790 4560 l0 -100 100 0 100 0 0 100 0 100 -100 0 -100 0 0 -100z
m175 81 c7 0 10 -34 10 -83 l-1 -83 -74 0 c-41 -1 -80 0 -85 2 -8 3 -13 134
-6 163 1 5 122 5 156 1z"/>
<path d="M5827 4616 c-7 -16 1 -26 20 -26 7 0 13 9 13 20 0 23 -25 27 -33 6z"/>
<path d="M5916 4522 c-2 -4 -1 -14 4 -21 11 -19 41 -6 34 14 -6 16 -29 20 -38
7z"/>
<path d="M5568 3820 c-67 -53 -59 -242 13 -280 34 -19 77 -11 111 19 29 25 32
35 36 94 6 88 -3 129 -35 161 -32 32 -89 35 -125 6z m92 -20 c18 0 32 -63 28
-129 -4 -78 -25 -113 -62 -106 -11 2 -25 4 -29 4 -14 2 -37 69 -37 108 0 86
35 142 78 127 8 -2 17 -4 22 -4z"/>
<path d="M6820 3058 c0 -62 -4 -119 -9 -127 -8 -12 -18 -9 -62 18 -71 44 -101
49 -128 20 -28 -31 -36 -74 -36 -204 1 -205 38 -242 166 -163 42 25 53 28 60
17 5 -8 9 -71 9 -142 l0 -127 623 2 622 3 0 405 0 405 -622 3 -623 2 0 -112z
m1210 73 c4 -1 5 -722 1 -741 -1 -3 -265 -5 -588 -5 l-587 0 -1 106 c-1 119
-16 169 -48 169 -11 0 -49 -16 -84 -36 -35 -19 -67 -33 -72 -29 -37 22 -49
271 -17 333 9 18 19 32 22 32 3 0 34 -16 68 -35 35 -19 70 -35 79 -35 31 0 48
44 51 136 2 49 5 94 5 99 1 7 201 9 583 9 321 -1 585 -2 588 -3z"/>
<path d="M7213 2900 c-36 -15 -57 -67 -56 -145 0 -81 20 -131 59 -145 93 -36
155 34 148 167 -6 107 -67 157 -151 123z m89 -39 c11 -9 24 -89 22 -128 -2
-46 -23 -90 -45 -96 -54 -14 -82 23 -83 110 0 78 10 112 37 123 22 8 55 4 69
-9z"/>
<path d="M7585 2888 c-32 -23 -45 -38 -45 -50 0 -14 27 -9 40 7 28 34 35 16
35 -95 1 -117 4 -111 -50 -114 -11 -1 -21 -9 -23 -18 -3 -16 6 -18 93 -18 86
0 96 2 93 17 -2 12 -13 18 -38 18 l-35 1 0 134 c0 127 -1 135 -20 137 -11 2
-33 -7 -50 -19z"/>
<path d="M7420 2625 c0 -22 4 -26 23 -23 14 2 22 10 22 23 0 13 -8 21 -22 23
-19 3 -23 -1 -23 -23z"/>
<path d="M8987 3163 c-2 -5 -4 -57 -5 -117 0 -60 -5 -113 -10 -118 -8 -8 -27
-1 -61 22 -96 61 -142 39 -160 -75 -11 -72 -6 -211 9 -251 16 -40 39 -64 64
-64 11 0 47 16 79 36 36 22 62 33 68 27 5 -5 10 -67 12 -139 l2 -129 623 -3
622 -2 0 410 0 410 -619 0 c-341 0 -622 -3 -624 -7z m1189 -32 c21 -1 21 -2
21 -373 l0 -373 -589 0 -588 0 -1 85 c-1 197 -18 217 -130 156 -71 -39 -84
-37 -99 15 -13 45 -13 224 1 272 14 51 33 52 109 5 35 -22 56 -29 74 -24 35 9
44 40 45 161 l1 80 568 -1 c312 -1 576 -2 588 -3z"/>
<path d="M9372 2894 c-35 -24 -52 -68 -52 -134 0 -102 38 -160 106 -160 65 0
104 60 104 163 0 89 -42 147 -105 147 -17 0 -41 -7 -53 -16z m97 -40 c19 -18
26 -123 11 -168 -12 -39 -34 -55 -64 -50 -41 6 -51 30 -51 120 0 78 2 87 24
105 25 21 54 18 80 -7z"/>
<path d="M9735 2898 c-24 -14 -44 -39 -45 -55 0 -18 37 -16 44 2 9 25 48 38
79 26 21 -8 27 -17 27 -40 0 -34 -22 -51 -65 -51 -22 0 -24 -3 -16 -18 5 -10
22 -19 37 -20 37 -3 54 -19 54 -52 0 -32 -17 -49 -55 -56 -20 -4 -33 3 -55 26
-15 16 -33 30 -39 30 -21 0 -11 -41 15 -65 48 -45 145 -29 168 26 18 42 9 78
-25 98 l-29 18 25 13 c42 23 36 97 -11 119 -32 14 -83 14 -109 -1z"/>
<path d="M9587 2643 c-9 -20 0 -38 21 -41 18 -3 22 1 22 22 0 19 -5 26 -19 26
-11 0 -22 -3 -24 -7z"/>
<path d="M11237 3163 c-4 -3 -7 -57 -7 -119 0 -66 -4 -115 -10 -119 -6 -4 -25
3 -43 14 -101 65 -137 64 -164 -6 -14 -37 -18 -75 -18 -163 1 -128 14 -181 49
-200 29 -15 55 -8 119 33 40 25 50 28 58 16 5 -8 9 -71 9 -141 l0 -128 440 0
440 0 0 410 0 410 -433 0 c-239 0 -437 -3 -440 -7z m831 -32 c9 -1 12 -82 12
-371 0 -203 -3 -370 -7 -371 -5 -1 -187 -2 -405 -3 -260 -1 -398 2 -399 9 -1
5 -2 51 -3 100 -4 173 -21 191 -129 131 -76 -43 -91 -37 -104 39 -13 73 -7
216 11 258 17 42 22 41 106 -7 54 -31 71 -32 94 -7 14 15 18 40 19 118 1 66 6
100 14 103 10 4 746 5 791 1z"/>
<path d="M11627 2885 c-20 -14 -37 -32 -37 -40 0 -21 13 -19 44 6 l27 21 -3
-119 c-3 -128 2 -118 -60 -122 -10 -1 -18 -8 -18 -16 0 -12 18 -15 99 -15 91
0 99 2 94 18 -3 14 -13 18 -39 17 l-34 -2 0 138 c0 157 -2 161 -73 114z"/>
<path d="M13117 3163 c-2 -5 -5 -57 -5 -117 -1 -60 -6 -114 -11 -119 -6 -6
-27 1 -58 21 -93 58 -132 52 -154 -27 -16 -58 -17 -244 0 -292 26 -78 64 -85
154 -27 26 17 51 27 55 23 4 -3 9 -66 12 -138 l5 -132 438 -3 437 -2 0 410 0
410 -434 0 c-239 0 -437 -3 -439 -7z m838 -403 l0 -375 -393 0 c-217 0 -398 3
-404 6 -5 3 -11 55 -12 115 -3 115 -15 154 -49 154 -10 0 -47 -16 -81 -35 -33
-19 -67 -31 -73 -27 -23 15 -34 68 -34 169 0 101 13 177 30 188 5 3 40 -11 77
-31 74 -39 108 -39 120 -1 6 19 11 92 13 187 l1 25 403 0 402 0 0 -375z"/>
<path d="M13502 2900 c-32 -13 -54 -72 -53 -147 1 -104 36 -153 112 -153 79 0
124 140 81 251 -20 52 -81 72 -140 49z m88 -40 c11 -11 21 -26 21 -32 10 -108
0 -171 -29 -184 -62 -27 -86 1 -91 106 -3 74 -1 81 23 104 30 31 49 33 76 6z"/>
<path d="M8408 2933 c-28 -7 -22 -33 7 -33 l25 0 0 -180 c0 -173 1 -180 20
-180 18 0 20 7 21 73 1 136 -1 310 -4 313 -6 6 -53 10 -69 7z"/>
<path d="M6225 2735 l0 -195 48 0 c35 0 47 4 47 15 0 9 -9 15 -25 15 -28 0
-26 -16 -26 258 0 99 -1 102 -22 102 -22 0 -22 0 -22 -195z"/>
<path d="M5538 2913 c-3 -5 -4 -75 -4 -158 l1 -150 160 -3 160 -2 0 157 0 158
-157 3 c-86 1 -158 -1 -160 -5z m260 -32 c22 -1 22 -3 22 -121 0 -117 0 -120
-22 -121 -28 -1 -174 -1 -205 0 -23 1 -23 4 -23 120 l0 120 28 3 c23 3 117 2
200 -1z"/>
<path d="M5741 2847 c-17 -21 -3 -49 23 -45 15 2 21 10 21 28 0 28 -26 38 -44
17z"/>
<path d="M5601 2702 c-11 -20 2 -42 25 -42 18 0 35 26 28 44 -8 22 -41 20 -53
-2z"/>
<path d="M12509 2843 c-1 -10 -2 -33 -2 -50 -1 -32 -2 -33 -49 -33 -38 0 -46
-3 -42 -15 4 -10 20 -15 49 -15 42 0 43 -1 43 -32 0 -52 1 -58 17 -58 11 0 15
12 15 45 l0 45 45 0 c33 0 45 4 45 15 0 16 -7 18 -57 15 l-33 -2 0 51 c0 39
-4 51 -15 51 -8 0 -15 -8 -16 -17z"/>
<path d="M10554 2836 c-5 -12 3 -28 25 -50 17 -17 31 -35 31 -38 0 -4 -15 -22
-34 -41 -25 -26 -31 -38 -23 -46 8 -8 22 -1 49 26 l38 37 38 -37 c30 -29 41
-34 50 -25 9 9 4 20 -25 50 l-37 38 37 38 c29 30 34 41 25 50 -9 9 -20 4 -50
-25 l-38 -37 -40 39 c-34 33 -40 36 -46 21z"/>
<path d="M5567 1960 c-44 -35 -60 -131 -35 -212 29 -98 145 -106 184 -12 16
38 19 141 5 177 -25 65 -102 88 -154 47z m88 -20 c30 0 48 -136 25 -194 -12
-34 -42 -48 -74 -36 -38 14 -48 67 -37 188 2 21 42 54 58 48 8 -3 21 -6 28 -6z"/>
<path d="M3069 1171 c-34 -35 -36 -47 -9 -54 13 -3 21 1 26 15 13 42 95 43
106 1 9 -34 -14 -71 -73 -119 -39 -31 -79 -84 -79 -105 0 -17 8 -19 100 -19
90 0 100 2 100 18 0 16 -9 18 -75 16 -41 -1 -75 2 -75 7 0 4 31 39 69 76 85
83 96 119 51 164 -40 41 -100 41 -141 0z"/>
<path d="M3633 7465 c0 -8 4 -15 9 -15 4 0 8 4 8 9 0 6 -4 12 -8 15 -5 3 -9
-1 -9 -9z"/>
<path d="M6754 3620 c0 -13 4 -16 10 -10 7 7 7 13 0 20 -6 6 -10 3 -10 -10z"/>
<path d="M8674 3620 c0 -13 4 -16 10 -10 7 7 7 13 0 20 -6 6 -10 3 -10 -10z"/>
<path d="M10594 3620 c0 -13 4 -16 10 -10 7 7 7 13 0 20 -6 6 -10 3 -10 -10z"/>
<path d="M12514 3620 c0 -13 4 -16 10 -10 7 7 7 13 0 20 -6 6 -10 3 -10 -10z"/>
<path d="M7153 2015 c0 -8 4 -12 9 -9 4 3 8 9 8 15 0 5 -4 9 -8 9 -5 0 -9 -7
-9 -15z"/>
<path d="M13553 2015 c0 -8 4 -12 9 -9 4 3 8 9 8 15 0 5 -4 9 -8 9 -5 0 -9 -7
-9 -15z"/>
<path d="M8433 1375 c0 -8 4 -12 9 -9 4 3 8 9 8 15 0 5 -4 9 -8 9 -5 0 -9 -7
-9 -15z"/>
<path d="M10119 1078 c-5 -18 -6 -38 -1 -34 7 8 12 36 6 36 -2 0 -4 -1 -5 -2z"/>
<path d="M8900 1066 c0 -2 8 -10 18 -17 15 -13 16 -12 3 4 -13 16 -21 21 -21
13z"/>
</g>
</svg>
