<?xml version="1.0" standalone="no"?>
<!DOCTYPE svg PUBLIC "-//W3C//DTD SVG 20010904//EN"
 "http://www.w3.org/TR/2001/REC-SVG-20010904/DTD/svg10.dtd">
<svg version="1.0" xmlns="http://www.w3.org/2000/svg"
 width="1305.000000pt" height="224.000000pt" viewBox="0 0 1305.000000 224.000000"
 preserveAspectRatio="xMidYMid meet">
<metadata>
Created by potrace 1.16, written by Peter Selinger 2001-2019
</metadata>
<g transform="translate(0.000000,224.000000) scale(0.100000,-0.100000)"
fill="#000000" stroke="none">
<path d="M1135 1630 l-310 -5 -1 -85 c-4 -175 -3 -175 -72 -131 -28 18 -66 35
-85 38 -32 5 -37 2 -52 -28 -23 -44 -28 -78 -29 -189 0 -104 18 -186 43 -199
28 -15 65 -6 120 28 78 47 72 74 74 -314 l2 -230 3530 -1 c1942 -1 3537 0
3546 2 14 4 16 32 17 217 1 116 2 219 2 227 0 8 -1 161 -3 340 l-2 325 -3065
2 c-1686 1 -3141 4 -3235 5 -93 2 -309 1 -480 -2z m1101 -42 c7 -8 6 -186 -1
-199 -4 -5 -36 7 -72 26 -75 40 -93 42 -116 17 -25 -27 -36 -66 -42 -150 -11
-142 20 -252 73 -260 12 -2 50 13 86 33 39 22 67 32 71 26 8 -14 10 -520 1
-528 -7 -8 -1351 -10 -1369 -3 -9 4 -12 67 -12 245 -1 132 -4 257 -8 277 -11
54 -43 60 -108 19 -67 -42 -94 -41 -109 3 -15 46 -15 235 0 280 15 45 33 46
105 5 62 -35 99 -34 111 4 4 12 8 62 9 111 1 48 7 91 13 95 13 8 1360 7 1368
-1z m5640 -1 c12 -12 10 -1019 -2 -1031 -11 -12 -5578 -15 -5589 -4 -3 3 -6
118 -7 254 -1 137 -5 261 -11 277 -14 42 -47 44 -110 8 -30 -17 -64 -31 -75
-31 -30 0 -42 52 -42 175 0 55 5 117 11 138 8 32 14 37 39 37 16 0 32 -5 35
-10 10 -16 82 -50 104 -50 32 0 45 37 47 134 2 49 5 94 7 100 5 12 5581 16
5593 3z"/>
<path d="M1063 1314 c-45 -16 -79 -54 -86 -98 -2 -17 -4 -94 -3 -171 2 -158
11 -182 75 -214 33 -16 68 -18 391 -17 l355 1 33 23 c52 38 59 68 58 242 -2
169 -7 189 -64 226 -25 17 -59 18 -374 19 -259 1 -358 -2 -385 -11z m694 -23
c21 -1 44 -12 65 -29 l31 -29 2 -147 c2 -252 23 -239 -413 -240 -199 -1 -347
3 -365 9 -17 6 -39 22 -51 38 -18 25 -20 41 -20 176 0 164 8 191 63 214 23 10
466 15 688 8z"/>
<path d="M1184 1125 c-29 -29 -27 -65 6 -100 l20 -21 -30 -40 c-35 -46 -36
-54 -10 -54 13 0 31 18 52 50 26 39 39 50 61 50 26 0 27 -2 27 -50 0 -43 3
-50 20 -50 19 0 20 7 20 120 l0 120 -70 0 c-62 0 -74 -3 -96 -25z m126 -46 l0
-40 -47 3 c-45 3 -48 5 -51 32 -4 35 10 46 61 46 37 0 37 0 37 -41z"/>
<path d="M4270 1374 c0 -58 -5 -114 -10 -125 -11 -19 -13 -18 -76 17 -120 67
-149 32 -149 -181 0 -213 29 -248 149 -181 63 35 65 36 76 17 5 -11 10 -74 10
-140 l0 -121 440 0 440 0 0 410 0 410 -440 0 -440 0 0 -106z m837 62 c12 -12
10 -736 -2 -737 -13 -1 -776 -1 -792 0 -10 1 -13 30 -13 109 0 112 -12 154
-43 160 -10 2 -47 -13 -84 -33 -77 -42 -87 -39 -102 39 -13 69 -6 227 11 262
17 35 35 34 99 -7 91 -58 119 -32 121 114 1 96 1 96 27 99 56 6 772 1 778 -6z"/>
<path d="M4663 1194 c-18 -14 -33 -34 -33 -45 0 -20 0 -20 26 0 15 12 30 21
34 21 4 0 6 -51 6 -112 l-1 -113 -35 0 c-25 0 -36 -5 -38 -17 -3 -16 7 -18 93
-18 86 0 96 2 93 18 -2 12 -13 17 -36 17 l-32 -1 0 138 c0 136 0 138 -22 138
-13 0 -38 -12 -55 -26z"/>
<path d="M5507 1473 c-4 -3 -7 -57 -7 -119 0 -67 -4 -115 -10 -119 -6 -4 -33
8 -60 25 -93 60 -141 39 -160 -70 -13 -78 -5 -218 15 -267 26 -65 58 -67 148
-11 26 17 51 27 55 23 4 -3 9 -66 12 -138 l5 -132 438 -3 437 -2 0 410 0 410
-433 0 c-239 0 -437 -3 -440 -7z m831 -32 c9 -1 12 -82 12 -371 l0 -370 -27
-1 c-121 -4 -775 -1 -779 4 -3 3 -6 50 -7 104 -1 168 -21 188 -129 129 -37
-20 -69 -32 -76 -27 -7 4 -17 23 -22 42 -13 45 -13 224 1 272 8 32 14 37 39
37 16 0 32 -5 35 -10 13 -20 87 -52 110 -46 31 8 37 26 41 134 2 52 6 97 8
100 3 5 727 8 794 3z"/>
<path d="M5878 1200 c-14 -11 -28 -29 -31 -40 -8 -29 30 -26 54 4 22 28 65 29
86 0 25 -34 11 -62 -65 -129 -49 -44 -82 -90 -82 -115 0 -6 37 -10 100 -10 90
0 100 2 100 18 0 16 -9 18 -70 17 -39 -1 -73 1 -75 5 -3 4 24 34 59 66 34 33
68 70 75 83 18 33 6 86 -24 105 -34 22 -97 20 -127 -4z"/>
<path d="M6739 1361 c-2 -66 -7 -122 -11 -126 -3 -4 -35 9 -71 29 -35 20 -73
36 -84 36 -49 0 -73 -71 -73 -213 0 -115 14 -182 43 -202 31 -22 47 -19 112
20 42 26 61 33 69 25 6 -6 12 -66 14 -140 l4 -130 439 0 439 0 0 410 0 410
-439 0 -439 0 -3 -119z m837 76 c12 -11 10 -737 -1 -738 -13 -1 -753 -1 -782
0 -22 1 -23 4 -23 109 0 112 -12 154 -43 160 -9 2 -46 -12 -81 -31 -52 -28
-68 -33 -80 -24 -47 35 -45 321 3 346 12 7 31 0 71 -25 100 -62 130 -36 130
113 0 52 4 93 10 95 19 6 790 1 796 -5z"/>
<path d="M7108 1199 c-33 -24 -38 -59 -9 -59 11 0 23 9 26 20 3 11 12 21 18
21 7 1 22 3 34 4 31 3 57 -28 49 -60 -5 -20 -14 -26 -46 -31 -24 -4 -40 -12
-40 -20 0 -8 6 -15 13 -15 50 -5 77 -19 83 -44 7 -27 -11 -64 -31 -66 -8 -1
-21 -2 -27 -3 -23 -3 -56 16 -61 36 -4 12 -12 18 -23 16 -29 -5 -27 -26 4 -58
24 -24 39 -30 72 -30 23 0 55 8 71 17 50 30 50 122 -1 138 -20 6 -20 7 5 27
35 27 35 79 -1 107 -35 28 -100 27 -136 0z"/>
<path d="M2650 1329 c0 -6 -6 -9 -13 -6 -18 7 -44 -15 -44 -37 0 -18 2 -17 18
3 10 12 20 22 23 21 51 -4 86 2 80 13 -6 10 -4 10 7 0 7 -7 22 -13 34 -13 12
0 27 6 34 13 11 10 13 10 7 0 -5 -9 1 -13 19 -13 18 0 24 4 19 13 -6 9 -5 9 7
0 8 -6 35 -11 61 -10 58 1 122 -39 123 -75 0 -14 7 -24 18 -26 17 -3 17 -2 2
34 -19 46 -34 66 -46 58 -5 -3 -9 0 -9 6 0 16 -43 30 -52 16 -6 -8 -8 -8 -8 0
0 16 -102 17 -112 1 -5 -8 -8 -8 -8 -1 0 8 -28 12 -80 13 -54 1 -80 -2 -80
-10z"/>
<path d="M2569 1278 c-1 -7 -1 -16 0 -20 0 -5 -3 -8 -8 -8 -11 0 -15 -274 -5
-326 3 -19 10 -34 15 -34 5 0 6 8 3 18 -5 13 -4 14 4 3 6 -8 8 -20 5 -26 -2
-7 15 -22 40 -34 46 -22 82 -28 72 -11 -3 6 -1 10 4 10 6 0 11 -4 11 -9 0 -5
11 -8 25 -8 16 0 22 4 18 11 -5 7 -2 7 8 -1 19 -15 81 -14 72 1 -3 6 0 5 8 -1
16 -15 63 -18 54 -3 -3 6 -1 10 4 10 6 0 11 -4 11 -10 0 -12 33 -8 40 5 3 6
-50 11 -142 11 -109 2 -146 -1 -141 -10 6 -12 -19 10 -67 57 -19 18 -27 34
-23 44 5 11 3 14 -6 8 -10 -6 -11 -3 -2 14 9 16 9 21 -1 21 -8 0 -9 3 -3 8 14
10 14 53 1 45 -6 -3 -5 0 2 8 15 16 16 33 1 23 -8 -4 -8 0 0 15 8 14 8 21 1
21 -7 0 -8 6 0 19 7 14 6 21 -3 24 -6 3 -7 6 -2 6 6 1 9 18 9 38 -1 21 2 43 6
48 10 13 9 45 -2 45 -4 0 -9 -6 -9 -12z"/>
<path d="M3411 1230 c-3 -8 -6 -96 -6 -195 l1 -180 72 -3 c42 -2 72 1 72 7 0
5 -12 11 -27 13 l-28 3 -1 173 -1 172 29 0 c36 0 37 20 1 21 -16 0 -45 1 -66
2 -26 1 -41 -3 -46 -13z m59 -185 c0 -168 -1 -175 -20 -175 -19 0 -20 7 -20
175 0 168 1 175 20 175 19 0 20 -7 20 -175z"/>
<path d="M3637 1236 c-20 -9 -20 -10 11 -14 l32 -3 0 -175 c0 -96 -3 -173 -7
-173 -24 4 -53 -2 -53 -11 0 -12 140 -14 141 -2 5 45 2 375 -4 379 -14 9 -98
8 -120 -1z m103 -190 c0 -169 -1 -175 -20 -173 -19 1 -20 8 -20 174 0 166 1
173 20 173 19 0 20 -7 20 -174z"/>
<path d="M3036 1186 c21 -15 30 -14 19 3 -3 6 -14 11 -23 11 -13 0 -13 -2 4
-14z"/>
<path d="M2739 1151 c-21 -22 -29 -39 -29 -65 0 -20 5 -36 11 -36 5 0 7 -5 3
-12 -5 -8 -2 -9 11 -4 14 5 16 4 6 -7 -9 -11 -3 -17 31 -28 31 -10 43 -10 45
-2 3 7 10 10 17 7 17 -6 50 32 40 47 -4 7 -3 10 3 6 15 -10 25 21 13 42 -5 10
-7 20 -5 23 3 2 -9 18 -27 34 -25 23 -30 25 -25 9 7 -19 6 -19 -7 -2 -15 20
-31 23 -20 5 6 -10 4 -10 -7 0 -19 18 -27 15 -60 -17z m79 -3 c19 -1 32 -8 32
-16 0 -7 5 -10 12 -6 8 5 9 2 5 -9 -3 -9 1 -23 9 -32 14 -13 14 -15 0 -15 -9
0 -16 -7 -16 -15 0 -16 -52 -47 -72 -43 -29 7 -57 55 -54 92 2 20 7 40 11 44
5 4 5 1 1 -5 -4 -7 -2 -13 4 -13 7 0 14 9 17 21 3 12 9 16 12 10 4 -6 21 -11
39 -13z"/>
<path d="M3025 1169 c12 -18 5 -218 -8 -247 -14 -32 -32 -52 -46 -52 -14 0
-14 -17 -1 -25 6 -3 10 -1 10 6 0 7 3 10 6 6 7 -7 30 13 31 27 1 5 7 12 14 17
13 8 30 129 18 129 -3 0 -3 18 1 40 5 26 3 41 -4 44 -6 3 -5 5 3 5 11 1 11 4
1 16 -10 12 -10 15 0 15 10 0 10 3 0 15 -14 17 -35 21 -25 4z"/>
</g>
</svg>
