<?xml version="1.0" standalone="no"?>
<!DOCTYPE svg PUBLIC "-//W3C//DTD SVG 20010904//EN"
 "http://www.w3.org/TR/2001/REC-SVG-20010904/DTD/svg10.dtd">
<svg version="1.0" xmlns="http://www.w3.org/2000/svg"
 width="1229.000000pt" height="311.000000pt" viewBox="0 0 1229.000000 311.000000"
 preserveAspectRatio="xMidYMid meet">
<metadata>
Created by potrace 1.16, written by Peter Selinger 2001-2019
</metadata>
<g transform="translate(0.000000,311.000000) scale(0.100000,-0.100000)"
fill="#000000" stroke="none">
<path d="M716 2835 c-62 -30 -101 -67 -128 -124 -21 -43 -23 -60 -23 -271 -2
-240 3 -272 43 -336 29 -47 106 -104 140 -104 12 0 22 -3 22 -7 0 -5 57 -7
127 -6 l128 2 88 -60 c90 -61 134 -75 184 -57 23 7 163 96 173 109 3 3 284 6
626 6 342 0 626 3 632 6 12 8 11 315 -1 334 -22 35 -77 29 -128 -14 -8 -6 -26
-14 -42 -18 -24 -6 -29 -3 -42 29 -21 50 -22 241 -1 290 8 20 22 36 30 36 8 0
38 -13 65 -29 105 -62 123 -44 128 127 l3 112 -633 0 -632 0 -84 -56 c-60 -41
-97 -58 -128 -62 -40 -4 -51 0 -137 57 l-93 62 -135 -2 c-118 -1 -140 -4 -182
-24z m399 -65 l90 -60 -195 0 c-176 0 -198 -2 -227 -20 -64 -39 -68 -53 -68
-265 0 -212 4 -226 68 -265 30 -19 53 -20 372 -20 377 0 387 2 430 66 20 29
21 45 21 221 -1 163 -3 193 -19 216 -33 50 -63 62 -175 67 l-104 5 90 58 89
57 611 0 610 0 -3 -87 c-4 -124 -3 -123 -19 -123 -8 0 -40 14 -71 30 -31 17
-65 30 -74 30 -47 0 -71 -74 -71 -215 0 -107 11 -165 37 -190 21 -21 73 -12
122 21 45 30 67 31 73 0 3 -13 4 -79 4 -147 l-1 -124 -613 -2 -613 -1 -93 -61
c-125 -83 -146 -83 -265 0 l-88 60 -139 3 c-154 2 -175 9 -237 71 -58 58 -65
97 -63 350 2 238 3 244 63 315 47 57 91 70 238 70 l130 0 90 -60z m405 -105
c52 -27 58 -52 56 -245 -1 -192 -8 -220 -62 -240 -14 -6 -170 -10 -355 -10
-355 0 -373 2 -401 53 -15 27 -19 335 -6 385 6 21 21 40 41 52 30 19 53 20
365 20 278 0 338 -2 362 -15z"/>
<path d="M1787 2468 c-7 -24 5 -47 24 -45 27 2 27 57 0 57 -11 0 -21 -6 -24
-12z"/>
<path d="M1863 2452 c-1 -17 9 -18 135 -18 122 1 137 3 140 19 3 15 -9 17
-135 17 -127 0 -139 -2 -140 -18z"/>
<path d="M1788 2368 c11 -44 42 -45 42 -2 0 19 -5 24 -24 24 -20 0 -23 -4 -18
-22z"/>
<path d="M1968 2382 c-83 -2 -108 -6 -108 -16 0 -20 13 -22 150 -21 106 1 125
3 128 17 4 20 -28 24 -170 20z"/>
<path d="M929 2452 l40 -59 -40 -57 c-21 -31 -39 -58 -39 -61 0 -3 9 -5 20 -5
12 0 29 16 46 45 14 25 29 45 32 45 4 0 20 -20 35 -45 18 -28 36 -45 48 -45
10 0 19 2 19 5 0 2 -18 30 -40 61 l-39 56 40 59 c38 56 39 59 17 59 -16 -1
-31 -14 -51 -47 l-28 -46 -29 47 c-20 30 -37 46 -50 46 -19 0 -17 -6 19 -58z"/>
<path d="M803 1083 c0 -54 -2 -111 -6 -126 l-8 -28 -63 36 c-66 37 -106 44
-124 22 -24 -28 -40 -124 -37 -213 4 -105 11 -141 31 -171 21 -32 55 -29 130
13 l63 35 7 -27 c4 -15 7 -91 7 -170 l0 -144 597 0 596 0 1 435 0 435 -598 0
-597 0 1 -97z m1164 -338 l-1 -405 -566 0 -566 0 0 140 c-1 202 -14 220 -119
165 -36 -19 -72 -35 -79 -35 -25 0 -40 70 -40 185 0 115 14 167 45 173 8 1 41
-13 72 -32 96 -57 118 -37 120 115 l2 99 566 0 566 0 0 -405z"/>
<path d="M1023 1010 c-63 -38 -67 -54 -69 -258 -1 -206 5 -229 65 -269 34 -23
37 -23 375 -23 375 0 385 1 430 63 19 26 21 43 22 213 1 207 -4 231 -65 271
-34 23 -37 23 -380 23 -325 0 -348 -1 -378 -20z m737 -25 c52 -27 58 -52 56
-245 -2 -190 -6 -209 -56 -235 -44 -23 -677 -22 -721 1 -49 25 -57 59 -55 249
2 183 7 204 54 229 41 23 679 23 722 1z"/>
<path d="M1169 772 l40 -59 -40 -57 c-21 -31 -39 -58 -39 -61 0 -3 9 -5 19 -5
12 0 30 17 48 45 15 25 30 45 33 45 3 0 18 -20 33 -45 18 -28 36 -45 48 -45
10 0 19 2 19 5 0 2 -18 30 -40 61 l-39 56 40 59 c38 56 39 59 17 59 -16 -1
-31 -14 -51 -47 l-29 -47 -26 47 c-20 34 -33 47 -50 47 -22 0 -21 -2 17 -58z"/>
</g>
</svg>
