<?xml version="1.0" standalone="no"?>
<!DOCTYPE svg PUBLIC "-//W3C//DTD SVG 20010904//EN"
 "http://www.w3.org/TR/2001/REC-SVG-20010904/DTD/svg10.dtd">
<svg version="1.0" xmlns="http://www.w3.org/2000/svg"
 width="1361.000000pt" height="808.000000pt" viewBox="0 0 1361.000000 808.000000"
 preserveAspectRatio="xMidYMid meet">
<metadata>
Created by potrace 1.16, written by Peter Selinger 2001-2019
</metadata>
<g transform="translate(0.000000,808.000000) scale(0.100000,-0.100000)"
fill="#000000" stroke="none">
<path d="M214 7936 l-34 -34 -1 -3628 c0 -4333 -1 -4008 12 -4037 6 -13 23
-31 39 -40 26 -16 168 -17 1852 -17 l1825 0 -1 287 -1 288 -1072 3 -1073 2 0
160 0 160 -262 0 c-210 0 -260 3 -250 12 10 10 1197 14 5840 18 l5827 5 0 413
1 412 -311 0 c-170 0 -2788 0 -5816 0 l-5506 0 2 154 1 154 -101 -1 -100 -2 0
150 0 150 685 5 685 5 1 135 c1 74 2 145 3 158 l1 22 555 0 555 0 0 163 c1 89
1 233 1 320 l1 157 51 0 52 0 -3 160 -3 160 3039 0 3039 0 0 290 0 290 -1021
0 c-562 0 -1917 0 -3012 0 l-1992 0 -1 137 c0 75 1 144 4 153 4 13 240 15
2282 14 l2278 -1 0 226 0 226 -2530 5 -2530 5 -1 145 c-1 80 -2 151 -3 157 -1
10 -70 13 -293 15 l-293 3 -2 150 c0 83 -2 153 -2 158 -1 4 -118 7 -261 7
l-260 0 0 150 0 150 33 1 c17 1 113 1 212 1 99 0 185 4 190 9 6 4 10 53 10
118 0 70 3 111 10 111 6 0 7 3 0 8 -13 9 -13 72 0 73 5 0 2468 1 5473 1 l5462
1 1 31 c0 32 0 192 -1 421 l0 130 -5432 0 -5433 0 1 155 c0 85 -3 157 -7 160
-5 3 -123 5 -264 5 l-255 0 0 146 c0 109 3 148 13 151 6 3 165 4 352 4 l341
-1 0 168 -1 167 -1133 0 -1133 0 -37 -25 c-20 -14 -42 -25 -49 -25 -7 0 -29
11 -49 25 -30 20 -49 25 -101 25 -61 0 -67 -2 -99 -34z m194 -5 c38 -27 66
-27 111 2 l36 22 1123 1 1122 0 0 -153 0 -153 -1128 0 -1127 0 -35 -24 c-40
-27 -58 -26 -98 3 -23 16 -47 21 -123 23 l-94 3 -1 118 c0 104 2 122 19 144
11 13 29 28 41 33 37 14 122 4 154 -19z m1 -319 c38 -28 64 -28 110 1 35 21
45 22 284 23 136 1 248 -3 248 -7 1 -5 2 -16 2 -24 0 -55 -1 -55 -32 -37 -45
26 -61 6 -61 -78 0 -84 15 -103 61 -76 22 13 29 14 30 4 4 -37 5 -1265 1
-1275 -3 -10 -63 -13 -254 -13 l-249 0 -37 -25 c-46 -31 -54 -31 -100 0 -32
22 -47 25 -124 25 -49 0 -89 3 -89 8 -1 4 -3 343 -3 753 l-2 747 92 -2 c79 -1
98 -5 123 -24z m1241 -14 c0 -36 -2 -39 -22 -32 -52 17 -62 12 -72 -38 -12
-61 7 -133 32 -125 9 3 27 9 40 13 l22 6 0 -646 0 -646 -290 0 -290 0 0 648
c0 479 -3 651 -12 660 -8 8 -18 7 -39 -5 -16 -9 -32 -13 -36 -9 -10 10 -10
122 0 132 4 4 23 0 41 -9 40 -19 46 -12 46 52 l0 38 290 0 290 0 0 -39z m445
-143 c0 -99 -1 -190 -3 -202 -4 -21 -6 -21 -25 -8 -28 19 -53 19 -61 -1 -3 -9
-6 -44 -6 -79 0 -77 14 -94 59 -70 29 14 31 14 32 -2 3 -64 4 -720 1 -730 -3
-9 -12 -9 -35 3 -28 15 -31 15 -44 -2 -15 -21 -18 -131 -3 -154 8 -12 14 -13
41 -3 18 7 34 12 35 10 7 -7 11 -66 5 -76 -5 -8 -67 -11 -216 -9 l-209 3 0
645 c-1 355 -5 651 -9 658 -7 11 -14 10 -34 -3 -40 -26 -53 -13 -53 52 0 72 9
89 36 68 29 -22 54 -19 56 8 0 12 2 27 3 32 2 6 3 17 4 26 1 14 26 16 214 15
l212 -1 0 -180z m525 -335 c0 -120 -4 -200 -10 -200 -5 0 -21 5 -36 12 -23 11
-28 10 -40 -7 -27 -37 -11 -165 20 -165 7 0 21 7 32 15 12 8 24 11 28 8 3 -3
6 -80 6 -170 l0 -163 -255 0 -255 0 0 328 c0 180 -4 332 -8 339 -6 9 -15 8
-40 -4 -18 -9 -35 -13 -38 -11 -11 12 -15 95 -5 121 10 27 11 27 36 11 38 -25
55 -12 55 41 l0 45 255 0 255 0 0 -200z m10865 -392 l0 -273 -5425 0 -5424 0
-1 168 c-1 183 -6 200 -52 170 -33 -22 -44 -7 -44 61 0 72 5 81 42 59 36 -22
52 -9 55 44 1 21 2 39 3 41 1 1 2441 2 5424 2 l5423 0 -1 -272z m-10947 -305
c4 -6 6 -74 4 -152 l-3 -141 -215 0 -214 0 0 50 c0 58 -12 68 -56 46 -26 -14
-29 -14 -35 2 -9 23 -6 119 4 128 4 5 20 0 36 -9 35 -21 51 -7 51 44 0 21 5
39 10 41 6 2 100 3 211 3 136 -1 202 -4 207 -12z m-2124 -338 l54 -29 43 29
44 29 248 0 c158 1 247 -3 248 -9 0 -5 2 -18 4 -29 7 -37 -4 -46 -39 -31 -46
19 -56 5 -56 -74 0 -86 9 -100 51 -84 18 7 35 10 38 7 7 -7 8 -3324 1 -3325
-3 -1 -118 -2 -256 -3 -242 -2 -251 -2 -279 -24 -35 -28 -69 -28 -108 0 -27
19 -45 23 -122 23 l-90 0 0 1776 -1 1775 83 -1 c72 -1 90 -5 137 -30z m1232
22 c3 -3 4 -21 2 -41 l-3 -36 -29 15 c-25 13 -32 14 -44 2 -18 -19 -26 -84
-15 -127 8 -28 14 -35 34 -34 13 1 32 4 42 9 16 7 17 -74 15 -1661 l-3 -1669
-285 0 -285 0 -3 1673 c-2 1827 2 1706 -57 1668 -25 -16 -26 -16 -36 11 -10
26 -7 108 4 119 3 3 18 -1 35 -10 37 -19 52 -6 52 45 0 27 5 38 17 41 28 5
553 1 559 -5z m449 -182 c-2 -104 -3 -196 -4 -203 -1 -9 -9 -9 -33 4 -30 15
-32 15 -45 -2 -13 -18 -18 -119 -7 -148 8 -20 33 -20 62 0 20 14 22 14 23 -3
5 -63 3 -2767 -2 -2774 -3 -5 -19 -3 -37 3 -43 17 -52 3 -52 -79 0 -79 17
-100 61 -78 16 9 29 12 30 8 0 -5 2 -26 2 -48 l2 -40 -215 -1 -215 0 1 1668
c0 917 -3 1673 -7 1680 -6 9 -16 8 -42 -4 -19 -9 -38 -14 -41 -11 -10 10 -7
131 4 138 5 3 23 -1 39 -9 35 -19 47 -8 46 44 0 25 5 36 18 40 10 3 107 5 216
5 l198 0 -2 -190z m523 -320 c1 -104 0 -196 -3 -203 -4 -12 -9 -12 -30 2 -43
28 -65 3 -65 -76 0 -57 16 -91 40 -84 11 3 29 9 40 12 20 6 20 3 18 -1182 l-3
-1189 -250 0 -250 0 -3 1359 -2 1358 -23 -5 c-12 -3 -32 -8 -44 -12 -19 -6
-23 -2 -28 29 -9 45 2 106 18 106 7 0 21 -7 31 -15 27 -21 46 -2 46 45 0 21 5
40 10 42 6 2 119 3 253 3 l242 0 3 -190z m585 -134 c8 -1 10 -385 1 -393 -3
-3 -19 1 -35 9 -39 19 -50 9 -56 -50 -6 -49 12 -117 31 -117 6 0 21 7 32 15
12 8 24 11 28 8 7 -8 8 -313 1 -313 -4 0 -19 7 -34 15 -26 13 -30 13 -41 -1
-18 -20 -24 -103 -11 -136 11 -28 43 -38 56 -18 3 6 13 10 21 10 11 0 14 -19
14 -95 0 -52 -3 -95 -7 -95 -5 1 -19 7 -33 15 -35 20 -37 19 -49 -16 -14 -40
-14 -90 -1 -124 11 -28 26 -30 73 -10 16 7 17 -7 17 -210 0 -241 7 -219 -60
-199 -24 7 -40 -27 -40 -84 0 -79 23 -105 66 -77 13 8 26 15 29 15 3 0 5 -43
5 -96 0 -95 0 -96 -22 -89 -65 20 -84 -6 -74 -99 6 -58 20 -70 57 -50 16 8 30
14 34 14 3 0 5 -43 5 -96 0 -84 -2 -95 -16 -90 -52 20 -64 19 -75 -10 -14 -37
-6 -133 11 -144 8 -5 25 -3 41 6 16 8 30 14 34 14 3 0 5 -22 5 -48 l0 -48
-287 0 -288 1 -1 1180 c-1 649 -2 1188 -3 1198 -1 18 -36 24 -46 7 -3 -5 -15
-10 -26 -10 -20 0 -24 21 -19 95 2 42 13 49 49 31 30 -16 32 -16 40 6 4 13 7
34 6 48 -1 14 1 27 6 30 6 4 534 5 562 1z m5067 -528 l0 -213 -2522 2 -2522 3
-1 107 c0 59 -4 110 -8 114 -4 5 -22 3 -39 -4 -17 -6 -35 -9 -39 -6 -5 3 -9
32 -9 65 0 45 4 61 16 66 8 3 20 1 27 -6 17 -17 47 -13 49 7 1 15 3 37 7 68 1
8 703 11 2521 11 l2520 0 0 -214z m-4562 -380 l1 -153 -240 0 c-131 0 -239 3
-240 8 -1 8 -6 56 -8 85 -1 21 -29 22 -55 2 -16 -12 -22 -12 -28 -2 -11 17
-10 125 1 131 5 3 22 -1 37 -9 35 -18 46 -9 48 42 1 27 6 39 19 43 10 3 118 5
241 5 l223 0 1 -152z m6020 -444 l2 -276 -3242 2 c-1784 1 -3248 3 -3253 4 -6
0 -10 64 -10 170 0 93 -4 173 -8 178 -5 4 -20 1 -35 -8 -15 -8 -33 -14 -40
-11 -15 5 -17 128 -2 137 6 4 22 -1 37 -10 32 -21 45 -10 47 42 0 21 6 40 13
43 7 3 1469 5 3250 5 l3238 -1 3 -275z m-6072 -441 l-1 -153 -205 0 c-113 -1
-210 1 -216 2 -6 2 -10 20 -10 41 0 20 -3 45 -7 55 -6 16 -9 17 -37 2 -17 -9
-35 -13 -40 -10 -16 10 -12 132 4 138 8 3 20 -1 26 -9 15 -17 50 -19 51 -1 5
52 7 73 8 80 0 4 97 7 214 7 l213 0 0 -152z m-98 -320 l0 -153 -164 0 c-104 0
-164 3 -165 10 -1 5 -3 27 -4 48 -4 51 -14 60 -49 42 -15 -8 -32 -12 -37 -9
-10 6 -13 127 -3 137 3 3 21 -2 40 -10 19 -9 36 -14 39 -11 3 3 8 23 9 44 2
22 4 42 5 47 1 4 75 7 165 7 l164 0 0 -152z m-1 -320 l-2 -153 -162 -1 c-90 0
-163 2 -164 5 -1 3 -2 25 -3 48 -2 57 -16 70 -49 48 -15 -9 -31 -14 -37 -10
-5 3 -10 35 -10 71 0 69 6 75 55 52 32 -14 35 -11 40 43 2 24 4 45 4 47 1 1
75 2 165 2 l164 0 -1 -152z m-1115 -300 c4 -198 25 -176 -165 -175 l-162 2 -5
52 c-3 28 -8 55 -12 58 -4 4 -20 -1 -37 -11 -17 -10 -33 -15 -37 -12 -11 12
-13 123 -2 136 9 10 16 9 35 -4 37 -24 53 -12 53 41 l0 45 164 0 165 0 3 -132z
m-2036 -213 c20 -14 45 -25 56 -25 10 0 36 11 56 25 21 14 51 25 69 25 32 0
33 -1 33 -41 0 -35 -2 -40 -17 -34 -45 19 -63 18 -72 -6 -14 -36 -8 -127 9
-144 14 -13 19 -13 44 0 15 8 30 15 32 15 2 0 4 -43 4 -96 0 -88 -2 -95 -17
-89 -47 20 -62 18 -73 -10 -13 -33 -13 -86 0 -119 7 -18 17 -26 34 -26 14 0
28 5 31 10 3 6 10 10 16 10 5 0 9 -243 9 -630 l0 -630 -36 0 c-21 0 -50 -10
-72 -25 -46 -31 -54 -31 -100 0 -32 22 -47 25 -127 25 l-91 0 2 893 c0 490 2
893 3 895 0 1 39 2 86 2 73 0 89 -3 121 -25z m664 -125 l0 -150 -217 0 -218 0
0 50 c-1 27 -4 52 -8 57 -4 4 -21 -1 -38 -11 -39 -23 -49 -12 -49 56 0 73 5
80 46 60 31 -14 36 -14 45 -2 5 8 8 22 8 30 -1 8 -1 25 0 38 l1 22 215 0 215
0 0 -150z m200 -318 l0 -148 -39 -22 c-49 -28 -53 -28 -101 4 -35 23 -47 26
-106 22 -60 -4 -70 -7 -95 -36 l-29 -32 0 -354 c0 -226 4 -364 11 -384 19 -56
46 -65 209 -67 l145 -2 3 -28 c2 -14 1 -33 -2 -41 -5 -13 -9 -13 -34 0 -17 9
-34 11 -42 6 -18 -11 -26 -120 -11 -149 13 -23 40 -28 58 -10 19 19 33 0 33
-42 l0 -39 -317 2 -318 3 0 627 c0 457 -3 630 -11 638 -9 9 -18 8 -37 -5 -15
-9 -30 -14 -35 -11 -11 7 -15 117 -4 134 7 10 15 9 40 -5 17 -10 33 -15 37
-12 3 4 8 26 10 50 2 24 4 45 4 47 1 1 143 2 316 2 l315 0 0 -148z m-139 -187
c42 -27 60 -26 121 7 42 24 48 24 268 22 124 -1 233 -2 243 -3 17 -1 23 -33
11 -65 -5 -14 -9 -14 -34 -1 -26 13 -30 13 -45 -1 -23 -23 -17 -142 7 -158 13
-8 23 -7 39 2 18 12 23 12 30 0 14 -22 10 -568 -4 -569 -7 -1 -120 -2 -252 -3
-230 -1 -241 -2 -276 -23 -46 -29 -72 -29 -110 -1 -22 16 -45 23 -90 24 -68 2
-103 20 -116 61 -7 22 -10 573 -4 666 1 23 46 65 74 69 48 7 103 -4 138 -27z
m11767 -370 l-3 -399 -5550 0 -5550 0 -1 292 c-1 207 -5 297 -13 305 -8 8 -19
7 -41 -7 -30 -17 -30 -17 -38 5 -11 29 -7 108 6 121 7 7 18 5 34 -6 31 -20 51
-7 50 35 0 18 3 38 8 44 6 7 1763 10 5554 10 l5546 0 -2 -400z m-11858 -414
c30 -2 64 -8 75 -14 17 -10 7 -12 -58 -15 -66 -2 -82 0 -107 18 -43 31 -41 55
3 31 18 -10 56 -19 87 -20z m705 -199 l0 -152 -231 0 -231 0 0 46 c0 60 -14
74 -52 51 -37 -22 -44 -12 -43 60 0 67 9 78 48 59 35 -19 45 -10 46 42 0 30 5
42 17 44 9 2 113 3 231 3 l215 0 0 -153z m-1345 -192 c44 -31 79 -32 116 -3
31 23 50 27 122 24 31 -1 32 -3 32 -41 0 -22 -2 -40 -4 -40 -2 0 -17 7 -32 15
-25 13 -30 13 -43 0 -16 -16 -21 -114 -8 -147 7 -19 42 -24 52 -8 3 6 13 10
21 10 12 0 14 -28 14 -168 l0 -169 -210 1 -210 1 -27 28 -28 27 -1 243 c-1
133 2 244 7 247 4 3 44 4 88 3 65 -1 87 -6 111 -23z m3488 -250 l2 -276 -1600
0 -1600 0 0 166 c0 91 -4 172 -10 180 -8 12 -13 12 -44 -2 -30 -15 -35 -15
-40 -2 -10 25 -7 122 4 129 5 3 23 -1 39 -10 28 -14 31 -14 41 4 5 11 10 33
10 49 0 16 2 31 4 33 2 2 721 4 1598 4 l1593 0 3 -275z"/>
<path d="M317 7856 c-4 -10 -5 -21 -2 -24 9 -9 17 6 13 25 -3 17 -4 17 -11 -1z"/>
<path d="M347 7863 c-10 -10 -8 -33 2 -33 6 0 9 9 8 20 -1 23 -1 22 -10 13z"/>
<path d="M509 7808 c21 -73 41 -82 53 -24 12 55 15 55 29 2 6 -25 17 -46 24
-46 7 0 20 26 29 58 19 68 19 72 7 72 -5 0 -15 -24 -22 -52 l-12 -53 -15 53
c-15 52 -33 64 -41 26 -2 -10 -8 -30 -14 -44 -9 -24 -10 -23 -21 19 -6 25 -17
46 -23 48 -8 3 -6 -16 6 -59z"/>
<path d="M673 7805 c2 -66 17 -94 17 -31 0 38 23 66 36 44 4 -7 8 -27 7 -45 0
-18 4 -33 9 -33 5 0 8 21 6 48 -3 44 -5 47 -30 47 -20 -1 -28 4 -28 17 0 10
-4 18 -9 18 -6 0 -9 -29 -8 -65z"/>
<path d="M927 7863 c-4 -3 -7 -16 -7 -29 0 -17 9 -25 35 -34 44 -15 51 -26 24
-40 -15 -9 -24 -9 -32 -1 -6 6 -17 11 -25 11 -12 0 -12 -3 -2 -15 16 -20 64
-19 84 1 22 21 5 50 -34 59 -22 5 -30 12 -28 23 4 18 20 20 51 7 13 -6 16 -3
11 9 -6 16 -64 23 -77 9z"/>
<path d="M1406 7848 c-43 -61 11 -132 75 -98 10 6 19 16 19 22 0 9 -3 9 -12 0
-20 -20 -66 -15 -73 9 -17 53 23 91 64 62 18 -12 21 -12 21 0 0 33 -72 37 -94
5z"/>
<path d="M1620 7805 c0 -37 4 -65 10 -65 6 0 10 28 10 65 0 37 -4 65 -10 65
-6 0 -10 -28 -10 -65z"/>
<path d="M1661 7810 c0 -33 5 -62 10 -65 5 -4 9 22 9 59 0 36 -4 66 -9 66 -6
0 -10 -27 -10 -60z"/>
<path d="M1800 7855 c0 -9 -9 -15 -25 -15 -28 0 -42 -33 -31 -75 5 -21 12 -25
41 -25 l35 0 0 65 c0 37 -4 65 -10 65 -5 0 -10 -7 -10 -15z m-2 -54 c5 -32 -5
-52 -23 -45 -15 6 -21 55 -8 68 12 12 28 0 31 -23z"/>
<path d="M2010 7855 c-7 -9 -9 -19 -5 -23 4 -4 10 -1 12 6 6 15 39 16 48 1 4
-6 -2 -21 -14 -33 -12 -12 -18 -25 -15 -29 3 -3 17 7 31 23 20 24 22 33 13 50
-13 24 -52 27 -70 5z"/>
<path d="M2171 7851 c-25 -46 -12 -151 18 -151 5 0 3 12 -5 28 -18 35 -18 76
1 112 9 17 11 30 6 30 -6 0 -15 -9 -20 -19z"/>
<path d="M2248 7858 c17 -17 16 -98 -1 -98 -7 0 -19 6 -26 13 -10 10 -12 8 -9
-8 2 -11 11 -21 21 -23 32 -6 47 17 47 74 0 49 -2 54 -22 54 -17 0 -19 -3 -10
-12z"/>
<path d="M2639 7852 c18 -34 20 -74 7 -113 -15 -44 -1 -54 15 -11 15 37 13 96
-3 121 -16 26 -32 28 -19 3z"/>
<path d="M781 7789 c19 -49 19 -53 3 -70 -14 -16 -15 -19 -2 -19 16 0 31 24
53 89 18 51 18 51 6 51 -5 0 -12 -13 -16 -30 -4 -16 -10 -30 -15 -30 -4 0 -13
14 -19 30 -5 17 -14 30 -20 30 -5 0 0 -23 10 -51z"/>
<path d="M1035 7798 c1 -24 3 -46 4 -50 0 -4 17 -7 36 -6 35 1 35 1 35 50 0
59 -18 64 -22 6 -2 -30 -8 -43 -18 -43 -10 0 -16 13 -18 43 -2 23 -7 42 -11
42 -5 0 -8 -19 -6 -42z"/>
<path d="M1135 7825 c-7 -21 0 -125 7 -125 4 0 8 11 8 24 0 19 4 22 25 19 32
-7 51 30 36 70 -9 23 -16 27 -42 25 -17 -1 -33 -7 -34 -13z m53 -7 c16 -16 15
-43 -2 -57 -19 -16 -40 12 -32 44 7 28 16 31 34 13z"/>
<path d="M1242 7828 c-15 -15 -15 -61 0 -76 7 -7 22 -12 34 -12 24 0 41 16 29
28 -3 3 -10 1 -14 -6 -9 -15 -41 -5 -41 13 0 7 10 11 23 11 33 -3 49 12 36 35
-11 21 -49 25 -67 7z m39 -26 c-28 -4 -40 6 -21 18 9 6 20 4 29 -3 12 -10 11
-13 -8 -15z"/>
<path d="M1336 7830 c-8 -14 -5 -90 4 -90 6 0 10 14 10 32 0 17 7 39 16 49 15
17 15 18 -6 16 -12 -1 -23 -4 -24 -7z"/>
<path d="M1532 7828 c-15 -15 -16 -60 0 -76 36 -36 83 3 68 58 -7 28 -47 39
-68 18z m50 -52 c-15 -33 -42 -24 -42 14 0 33 18 44 39 24 12 -11 12 -18 3
-38z"/>
<path d="M1700 7790 c0 -27 5 -50 10 -50 6 0 10 23 10 50 0 28 -4 50 -10 50
-5 0 -10 -22 -10 -50z"/>
<path d="M1852 7828 c-17 -17 -15 -63 2 -78 18 -15 58 -10 64 8 3 11 0 12 -14
4 -11 -5 -25 -7 -31 -5 -20 7 -15 32 5 29 33 -6 50 7 41 32 -9 24 -47 30 -67
10z m39 -26 c-28 -4 -40 6 -21 18 9 6 20 4 29 -3 12 -10 11 -13 -8 -15z"/>
<path d="M1943 7789 c0 -27 4 -49 8 -49 5 0 9 14 9 32 0 17 7 39 15 48 15 16
14 18 -8 18 -22 0 -24 -4 -24 -49z"/>
<path d="M2302 7789 c1 -54 18 -69 18 -16 0 17 4 38 9 46 15 23 31 2 31 -40 0
-21 5 -39 10 -39 6 0 10 18 10 39 0 22 4 42 9 45 15 10 28 -17 26 -51 -2 -18
1 -33 7 -33 5 0 8 21 6 48 l-3 47 -62 1 -63 2 2 -49z"/>
<path d="M2462 7828 c-7 -7 -12 -24 -12 -38 0 -46 43 -67 70 -35 8 9 9 15 2
15 -6 0 -13 -4 -17 -10 -13 -21 -36 3 -33 34 3 31 7 33 43 20 18 -7 18 -6 6 9
-16 20 -42 22 -59 5z"/>
<path d="M2552 7828 c-17 -17 -15 -63 3 -78 16 -13 65 -6 65 10 0 13 -17 13
-25 0 -11 -18 -35 2 -35 30 0 28 24 48 35 30 10 -16 25 -11 19 5 -7 18 -45 20
-62 3z"/>
<path d="M260 6970 c-16 -16 -20 -33 -20 -88 0 -102 4 -104 186 -105 141 0
148 1 166 22 27 34 26 143 -2 171 -18 18 -33 20 -165 20 -132 0 -147 -2 -165
-20z m322 -8 c16 -16 14 -138 -2 -158 -12 -13 -36 -15 -161 -12 -81 2 -151 7
-156 11 -4 5 -8 40 -7 79 0 53 4 73 16 82 22 16 293 15 310 -2z"/>
<path d="M324 6905 c-7 -18 13 -45 33 -45 8 0 13 -6 10 -12 -5 -14 -10 -14
-42 -2 -19 6 -19 6 -3 -11 11 -12 24 -16 42 -11 35 9 35 43 1 52 -35 9 -33 32
3 27 21 -4 24 -2 12 6 -22 15 -50 13 -56 -4z"/>
<path d="M680 6896 c0 -9 5 -16 10 -16 6 0 10 4 10 9 0 6 -4 13 -10 16 -5 3
-10 -1 -10 -9z"/>
<path d="M713 6898 c-2 -5 2 -8 9 -9 61 -5 100 -4 104 3 3 4 -5 8 -18 9 -13 0
-38 1 -56 2 -19 1 -36 -1 -39 -5z"/>
<path d="M710 6859 c0 -5 27 -9 61 -9 33 0 58 4 55 9 -3 5 -30 9 -61 9 -30 0
-55 -4 -55 -9z"/>
<path d="M1142 6974 c-20 -13 -22 -24 -22 -94 0 -104 -1 -104 199 -103 185 2
183 1 187 103 4 107 -1 110 -191 110 -120 0 -155 -3 -173 -16z m336 -8 c8 -4
12 -36 12 -81 0 -63 -3 -76 -19 -85 -11 -5 -84 -10 -165 -10 -174 0 -176 1
-176 95 0 89 3 91 187 89 82 0 155 -4 161 -8z"/>
<path d="M1200 6944 c0 -3 9 -18 20 -34 18 -25 18 -29 4 -41 -8 -7 -20 -21
-25 -31 -9 -16 -5 -18 42 -18 53 0 62 11 12 16 -16 1 -30 2 -32 3 -3 1 5 11
17 24 20 21 20 25 7 43 -20 26 -19 34 5 29 11 -2 22 0 25 6 4 5 -12 9 -34 9
-23 0 -41 -3 -41 -6z"/>
<path d="M1800 7504 c0 -25 4 -43 9 -40 12 8 12 86 0 86 -5 0 -9 -21 -9 -46z"/>
<path d="M1803 6937 c22 -18 21 -29 -2 -77 -11 -22 -15 -40 -10 -40 5 0 15 11
21 25 6 14 15 25 19 25 4 0 10 -11 13 -25 4 -14 11 -25 16 -25 13 0 14 -4 -13
65 -16 42 -29 61 -43 63 -18 3 -18 2 -1 -11z"/>
<path d="M1815 6330 c-3 -11 -12 -20 -18 -20 -8 0 -8 -3 1 -9 11 -6 10 -11 -3
-25 -10 -10 -12 -16 -5 -16 7 0 10 -8 7 -20 -3 -11 -1 -18 4 -14 5 3 9 12 9
20 0 23 28 16 33 -8 l4 -23 2 23 c0 13 8 22 19 23 10 0 12 3 5 6 -15 5 -18 33
-4 33 4 0 6 12 3 27 -5 26 -5 26 -13 5 -11 -28 -39 -30 -32 -2 3 11 3 20 0 20
-3 0 -9 -9 -12 -20z m33 -42 c-3 -7 -12 -14 -21 -16 -12 -2 -15 1 -11 12 7 19
38 22 32 4z"/>
<path d="M2254 7218 c11 -15 12 -26 6 -39 -19 -35 -29 -69 -21 -69 5 0 15 14
22 32 l13 32 13 -32 c7 -18 17 -32 22 -32 5 0 -1 28 -15 62 -13 34 -24 63 -24
65 0 2 -7 3 -16 3 -14 0 -14 -2 0 -22z"/>
<path d="M2276 6701 c-13 -20 5 -27 54 -20 l45 6 -42 1 c-23 1 -43 7 -45 14
-3 9 -6 9 -12 -1z"/>
<path d="M3240 6900 l0 -51 -31 17 c-46 23 -63 3 -63 -76 1 -79 17 -99 62 -76
l31 16 3 -117 3 -118 1510 0 1510 0 1 228 1 227 -1514 0 -1513 0 0 -50z m3010
-177 l0 -213 -1495 0 -1495 0 0 108 c0 124 -7 141 -52 114 -25 -15 -30 -15
-38 -2 -12 19 -13 100 -1 119 8 12 14 12 39 2 41 -17 52 -8 52 43 l0 43 1495
0 1495 0 0 -214z"/>
<path d="M3990 6847 c0 -24 -3 -46 -6 -50 -4 -3 -20 1 -37 10 -28 14 -31 14
-44 -3 -17 -24 -17 -125 1 -149 12 -17 17 -18 40 -7 42 19 46 15 46 -37 0 -30
5 -50 13 -53 6 -2 120 -4 252 -4 l240 1 3 168 2 167 -255 0 -255 0 0 -43z
m495 -122 l0 -150 -240 0 -240 0 -2 30 c0 17 -2 40 -2 53 -1 23 -34 32 -46 12
-10 -17 -45 -11 -46 8 -2 33 1 116 5 120 3 2 20 -2 40 -9 20 -7 38 -10 41 -7
3 3 6 23 7 44 0 21 2 42 4 45 2 3 110 5 241 5 l238 -1 0 -150z"/>
<path d="M4140 6775 c-16 -19 -15 -82 1 -101 29 -35 72 -4 72 51 0 57 -43 86
-73 50z m55 -58 c-4 -33 -24 -52 -39 -37 -15 15 -11 81 5 91 20 13 39 -16 34
-54z"/>
<path d="M4291 6776 c-7 -9 -8 -17 -3 -20 6 -3 12 1 16 9 6 17 36 9 36 -10 0
-6 -13 -26 -30 -43 -40 -42 -38 -52 10 -52 22 0 40 4 40 9 0 5 -13 7 -30 6
-16 -1 -30 -2 -30 0 0 1 14 16 30 33 17 18 30 40 30 51 0 30 -48 42 -69 17z"/>
<path d="M4910 6847 c0 -24 -3 -46 -6 -50 -4 -3 -20 1 -37 10 -28 14 -31 14
-44 -3 -17 -24 -17 -125 1 -149 12 -17 17 -18 40 -7 41 19 45 16 48 -40 l3
-53 228 0 227 0 0 167 0 168 -230 0 -230 0 0 -43z m445 -122 l0 -150 -215 0
-215 0 -1 30 c-1 17 -2 40 -3 53 -1 23 -34 32 -46 12 -3 -5 -15 -10 -26 -10
-14 0 -19 7 -20 28 -2 37 2 106 6 110 2 2 19 -2 39 -9 20 -7 38 -11 40 -8 3 3
7 25 10 50 2 24 5 45 5 45 1 1 97 1 214 0 l212 -1 0 -150z"/>
<path d="M5050 6754 c0 -33 2 -36 24 -30 33 8 53 -16 30 -38 -13 -13 -19 -14
-30 -5 -8 7 -18 9 -21 5 -9 -9 16 -26 37 -26 28 0 42 17 38 46 -2 23 -9 30
-30 32 -16 2 -28 9 -28 17 0 14 27 28 40 20 5 -3 11 -1 15 5 4 6 -9 10 -34 10
-40 0 -41 -1 -41 -36z"/>
<path d="M5162 6777 c-16 -19 -18 -83 -3 -101 31 -37 74 -8 74 49 0 55 -43 86
-71 52z m52 -43 c4 -39 -2 -54 -24 -54 -31 0 -36 72 -6 92 15 10 27 -4 30 -38z"/>
<path d="M5780 6847 c0 -24 -3 -46 -6 -49 -3 -3 -19 1 -35 9 -42 21 -54 6 -56
-71 -2 -81 12 -106 51 -88 41 19 45 16 48 -40 l3 -53 178 0 177 0 0 167 0 168
-180 0 -180 0 0 -43z m346 -124 l2 -153 -164 0 c-102 0 -164 4 -165 10 -1 6
-3 19 -4 30 -1 11 -3 31 -4 45 -1 18 -7 25 -20 25 -11 0 -23 -4 -26 -10 -3 -5
-15 -10 -26 -10 -15 0 -19 7 -20 33 -3 100 7 119 51 93 30 -17 30 -17 38 5 5
12 8 34 7 48 -1 14 3 29 7 32 5 3 80 6 166 5 l157 -1 1 -152z"/>
<path d="M5931 6776 c-18 -21 -10 -97 12 -110 28 -18 52 4 55 53 3 46 -10 71
-38 71 -10 0 -23 -6 -29 -14z m50 -23 c5 -60 -6 -88 -29 -74 -14 8 -23 57 -15
79 8 19 43 15 44 -5z"/>
<path d="M3400 6784 c0 -9 5 -14 12 -12 18 6 21 28 4 28 -9 0 -16 -7 -16 -16z"/>
<path d="M3650 6710 l0 -70 70 0 70 0 0 70 0 70 -70 0 -70 0 0 -70z"/>
<path d="M5530 6750 c0 -14 -7 -20 -22 -21 l-23 0 23 -9 c12 -5 22 -17 23 -27
0 -15 2 -14 11 5 6 12 18 22 27 23 11 0 8 3 -6 9 -15 6 -21 15 -17 25 3 8 1
15 -5 15 -6 0 -11 -9 -11 -20z"/>
<path d="M4642 6740 c10 -15 10 -22 0 -32 -20 -20 -14 -33 7 -14 16 15 20 15
31 1 7 -8 16 -12 21 -9 5 3 2 12 -6 21 -14 14 -14 17 1 34 20 22 13 24 -17 7
-17 -10 -23 -10 -26 0 -3 6 -9 12 -14 12 -5 0 -4 -9 3 -20z"/>
<path d="M3400 6684 c0 -9 5 -14 12 -12 18 6 21 28 4 28 -9 0 -16 -7 -16 -16z"/>
<path d="M3452 6638 c6 -18 28 -21 28 -4 0 9 -7 16 -16 16 -9 0 -14 -5 -12
-12z"/>
<path d="M6660 6907 c0 -24 -3 -46 -6 -49 -3 -4 -19 1 -35 10 -29 16 -31 16
-44 -2 -20 -26 -20 -126 -1 -152 14 -18 16 -18 44 -2 39 23 42 16 42 -118 l0
-104 1965 0 1965 0 0 230 0 230 -1965 0 -1965 0 0 -43z m3911 24 c4 -17 5
-398 1 -408 -3 -10 -403 -13 -1952 -13 l-1947 0 0 111 c0 123 -7 138 -54 111
-15 -9 -30 -14 -33 -11 -6 5 -10 70 -7 117 1 23 34 32 46 12 3 -5 15 -10 26
-10 18 0 26 25 19 69 -1 8 4 17 10 21 13 8 3889 9 3891 1z"/>
<path d="M7329 6865 c-1 -24 -5 -60 -8 -70 0 -3 -15 2 -33 11 -30 15 -32 15
-45 -2 -18 -24 -17 -125 2 -150 13 -18 15 -18 44 -2 36 20 39 17 39 -41 1 -24
4 -46 7 -49 4 -4 130 -7 281 -7 l274 0 0 167 0 168 -280 0 -280 0 -1 -25z
m546 -130 c1 -77 -1 -146 -3 -152 -3 -10 -65 -13 -266 -13 l-262 0 -3 52 c-1
29 -4 55 -7 57 -2 3 -20 -1 -40 -8 -20 -7 -38 -11 -40 -8 -8 8 -13 81 -7 110
5 24 10 27 27 22 66 -21 66 -21 66 27 0 25 2 47 5 50 3 3 123 4 267 4 l263 -1
0 -140z"/>
<path d="M7480 6781 c-22 -15 -5 -24 19 -11 39 20 37 -16 -3 -60 -20 -22 -36
-42 -36 -45 0 -3 20 -5 45 -5 25 0 45 4 45 9 0 4 -10 7 -22 7 -39 -4 -41 5 -7
40 27 28 31 38 23 52 -13 20 -43 26 -64 13z"/>
<path d="M7575 6773 c-23 -53 -13 -101 22 -109 44 -12 70 55 43 107 -13 24
-55 25 -65 2z m56 -17 c3 -27 -4 -62 -14 -74 -9 -11 -13 -11 -24 4 -16 22 -17
66 -2 81 13 13 38 6 40 -11z"/>
<path d="M7670 6764 c-13 -33 -13 -47 2 -79 14 -30 53 -34 68 -6 25 47 4 111
-36 111 -17 0 -27 -8 -34 -26z m60 -33 c0 -47 -23 -72 -39 -42 -16 30 -13 69
6 80 25 14 33 5 33 -38z"/>
<path d="M8260 6840 c0 -27 -2 -50 -4 -50 -2 0 -17 7 -32 15 -25 13 -30 13
-44 0 -21 -22 -19 -130 3 -153 17 -16 19 -16 47 0 l30 17 0 -54 c0 -30 3 -56
8 -56 20 -4 639 -5 649 -1 8 2 11 52 11 168 l0 164 -334 0 -334 0 0 -50z m648
-117 l3 -153 -315 0 -315 0 -3 53 c-3 47 -5 52 -25 50 -13 -2 -33 -4 -45 -5
-21 -3 -23 2 -26 52 -1 30 2 62 7 70 9 13 14 13 39 -2 37 -22 52 -9 52 47 l0
42 313 -1 312 -1 3 -152z"/>
<path d="M8410 6770 c-7 -14 -7 -20 0 -20 5 0 10 4 10 9 0 5 9 11 19 14 28 7
34 -19 10 -37 l-21 -14 21 -7 c12 -3 21 -12 21 -20 0 -19 -27 -26 -44 -10 -17
17 -30 7 -15 -12 6 -7 22 -13 35 -13 28 0 51 35 35 53 -6 8 -6 18 -1 27 13 21
-7 50 -35 50 -14 0 -29 -8 -35 -20z"/>
<path d="M8511 6776 c-8 -10 -9 -16 -1 -21 5 -3 10 -2 10 3 0 17 28 21 40 7 9
-11 3 -22 -24 -53 -20 -22 -36 -42 -36 -46 0 -3 21 -6 47 -6 46 0 54 11 10 16
-12 1 -24 3 -26 3 -1 1 11 17 28 36 26 29 29 39 21 55 -12 23 -52 26 -69 6z"/>
<path d="M8611 6771 c-15 -27 -14 -73 2 -96 10 -13 21 -16 40 -11 32 8 44 43
30 89 -11 40 -55 51 -72 18z m57 -50 c-2 -28 -7 -36 -23 -36 -15 0 -21 8 -23
33 -2 18 2 40 9 48 19 23 41 -3 37 -45z"/>
<path d="M8710 6771 c-23 -44 -5 -111 30 -111 28 0 50 27 50 61 0 43 -17 69
-45 69 -14 0 -29 -8 -35 -19z m60 -40 c0 -44 -17 -66 -37 -50 -19 17 -17 76 4
88 25 14 33 5 33 -38z"/>
<path d="M9330 6840 l0 -51 -31 17 c-47 24 -63 3 -61 -77 1 -81 18 -102 62
-77 l30 17 0 -53 c0 -34 5 -55 13 -58 6 -2 89 -4 182 -4 l170 1 3 168 2 167
-185 0 -185 0 0 -50z m350 -117 l0 -153 -165 0 -165 0 0 49 c0 58 -10 68 -52
50 -23 -9 -32 -9 -37 0 -11 18 -12 104 -1 121 8 13 13 13 38 -2 37 -22 52 -9
52 47 l0 41 165 1 165 0 0 -154z"/>
<path d="M9492 6778 c-17 -17 -15 -33 3 -18 13 11 15 7 15 -30 0 -29 -6 -47
-17 -56 -16 -12 -13 -13 25 -14 23 0 42 4 42 10 0 5 -7 7 -15 4 -12 -5 -15 5
-15 55 0 62 -11 76 -38 49z"/>
<path d="M10102 6853 c1 -65 1 -65 -33 -47 -46 23 -61 5 -60 -76 0 -82 17
-103 61 -78 l30 17 1 -27 c1 -15 0 -35 -1 -45 -4 -39 12 -42 187 -41 92 1 171
2 176 3 4 0 7 75 7 166 l0 165 -185 0 -184 0 1 -37z m346 -130 l3 -153 -166 0
-165 0 0 49 c0 58 -10 68 -52 50 -24 -10 -31 -10 -38 1 -10 16 -7 117 4 127 4
4 20 0 36 -9 35 -20 50 -8 50 42 0 20 2 39 5 42 3 3 76 5 163 4 l157 -1 3
-152z"/>
<path d="M10250 6771 c-14 -27 -13 -74 3 -96 10 -13 21 -16 40 -11 53 13 46
126 -7 126 -15 0 -30 -8 -36 -19z m60 -41 c0 -28 -5 -42 -19 -49 -22 -12 -31
2 -31 48 0 32 7 41 32 41 14 0 18 -8 18 -40z"/>
<path d="M7080 6721 c0 -70 2 -79 20 -84 11 -3 20 -1 20 4 0 5 -4 9 -10 9 -6
0 -10 32 -10 75 0 43 -4 75 -10 75 -6 0 -10 -33 -10 -79z"/>
<path d="M8027 6792 c7 -5 13 -36 14 -80 2 -98 19 -92 19 8 0 76 -1 80 -22 80
-15 0 -19 -3 -11 -8z"/>
<path d="M6804 6725 l0 -65 68 0 67 0 -2 63 -2 62 -66 3 -66 3 1 -66z m84 37
c-2 -8 3 -17 11 -20 10 -3 12 0 8 11 -3 9 -2 19 3 22 6 4 10 -16 10 -47 0 -53
-1 -54 -27 -52 -42 2 -43 3 -43 19 0 8 -5 15 -11 15 -6 0 -8 -9 -4 -21 5 -15
4 -19 -4 -15 -10 7 -16 88 -7 97 3 2 18 5 35 5 23 1 31 -2 29 -14z"/>
<path d="M9860 6753 c0 -17 -6 -23 -22 -24 l-23 0 23 -9 c12 -5 22 -17 23 -27
0 -16 1 -16 8 1 4 11 16 23 27 27 17 7 17 8 -4 8 -13 1 -21 5 -18 9 2 4 1 14
-5 22 -7 12 -9 10 -9 -7z"/>
<path d="M9066 6739 c14 -16 15 -23 7 -26 -7 -3 -13 -12 -13 -20 0 -14 2 -14
19 1 16 15 19 15 31 1 7 -9 15 -13 18 -10 3 2 -1 12 -8 20 -10 12 -10 19 -2
27 19 19 14 30 -9 17 -15 -8 -24 -8 -32 0 -20 20 -30 11 -11 -10z"/>
<path d="M11123 6858 c-1 -73 0 -70 -34 -53 -46 24 -59 8 -59 -75 0 -84 16
-104 61 -78 33 19 32 21 32 -54 0 -25 4 -37 16 -40 9 -2 169 -4 356 -3 l340 0
3 168 2 167 -358 0 -358 0 -1 -32z m698 1 c0 -11 0 -62 0 -114 0 -52 0 -113 0
-135 l-1 -40 -340 0 -340 0 0 49 c0 58 -10 68 -52 50 -24 -10 -31 -10 -38 1
-10 16 -8 116 3 126 4 4 23 0 41 -9 40 -19 46 -12 46 52 l0 37 340 1 c324 0
340 -1 341 -18z"/>
<path d="M11275 6773 c-14 -34 -14 -68 1 -90 29 -45 74 -19 74 42 0 14 -5 35
-10 46 -13 24 -55 25 -65 2z m55 -48 c0 -50 -11 -62 -34 -39 -21 21 -21 70 1
83 26 14 33 5 33 -44z"/>
<path d="M11434 6782 c-16 -10 -25 -58 -18 -87 8 -33 52 -45 71 -20 16 23 17
87 1 103 -13 13 -37 15 -54 4z m46 -57 c0 -44 -17 -64 -39 -42 -25 25 -4 101
24 91 10 -4 15 -20 15 -49z"/>
<path d="M11522 6760 c-18 -50 1 -100 39 -100 22 0 39 29 39 65 0 66 -59 92
-78 35z m56 -34 c-4 -50 -33 -64 -44 -21 -9 35 10 77 31 69 12 -5 15 -17 13
-48z"/>
<path d="M11627 6783 c-4 -3 -7 -13 -7 -21 0 -13 2 -13 18 0 9 9 23 13 30 11
20 -7 14 -33 -10 -43 l-23 -9 23 -7 c29 -8 26 -41 -3 -36 -11 2 -24 9 -28 15
-5 8 -7 4 -5 -8 5 -30 64 -34 73 -5 4 12 2 27 -3 32 -7 7 -7 16 1 28 8 14 8
22 -2 34 -14 16 -52 22 -64 9z"/>
<path d="M12246 6860 c1 -17 0 -39 -3 -50 -5 -18 -7 -19 -36 -4 -28 15 -31 15
-44 -2 -17 -24 -17 -125 1 -149 12 -17 17 -18 40 -7 41 18 43 16 42 -37 -2
-37 2 -51 14 -53 8 -2 89 -4 180 -3 l165 0 3 168 2 167 -183 0 -183 0 2 -30z
m334 14 c13 -3 15 -27 13 -146 0 -79 -2 -146 -2 -150 -1 -5 -75 -8 -166 -8
l-165 0 0 55 c0 48 -3 55 -19 55 -11 0 -23 -4 -26 -10 -12 -20 -43 -10 -47 15
-6 32 -2 104 6 112 3 4 22 -1 40 -10 39 -18 46 -11 46 47 0 18 2 35 5 38 6 6
293 8 315 2z"/>
<path d="M12399 6773 c-12 -15 -12 -16 4 -10 15 6 17 0 17 -44 0 -28 -4 -48
-9 -44 -5 3 -12 1 -16 -5 -4 -6 10 -10 35 -10 25 0 39 4 35 10 -4 6 -11 8 -16
5 -5 -4 -9 20 -9 54 0 64 -13 79 -41 44z"/>
<path d="M13020 6856 c0 -60 -7 -68 -43 -50 -28 15 -31 15 -44 -2 -18 -24 -17
-125 2 -150 13 -18 15 -18 44 -2 30 17 31 16 36 -5 2 -12 6 -38 7 -57 l3 -35
175 0 175 0 3 168 2 167 -180 0 -180 0 0 -34z m335 12 c6 -3 10 -64 9 -150 l0
-143 -166 -3 -165 -2 -2 51 c0 29 -3 54 -6 57 -3 3 -21 0 -41 -7 -20 -7 -39
-10 -42 -6 -9 8 -7 124 2 132 3 4 22 -1 41 -10 34 -16 35 -16 40 6 3 12 7 36
9 52 2 17 4 30 5 31 9 4 309 -3 316 -8z"/>
<path d="M13173 6778 c-19 -25 -23 -52 -12 -85 20 -60 79 -37 79 32 0 54 -41
86 -67 53z m47 -47 c0 -51 -25 -74 -41 -38 -16 35 -4 77 21 77 17 0 20 -7 20
-39z"/>
<path d="M10725 6782 c15 -11 17 -32 4 -48 -9 -11 -6 -14 17 -13 16 0 23 3 17
6 -7 2 -13 18 -13 34 0 21 -5 29 -17 29 -10 0 -14 -4 -8 -8z"/>
<path d="M10787 6729 c-21 -34 -36 -63 -33 -66 2 -2 20 19 38 49 50 77 50 78
41 78 -4 0 -25 -27 -46 -61z"/>
<path d="M10843 6754 c-25 -25 -26 -34 -10 -104 5 -19 65 -26 81 -9 8 9 8 10
-1 5 -7 -4 -24 -4 -39 0 l-26 7 30 13 c17 7 38 26 46 42 13 26 13 31 0 51 -20
28 -49 27 -81 -5z m67 -12 c0 -35 -26 -72 -51 -72 -24 0 -26 45 -3 78 22 32
54 29 54 -6z"/>
<path d="M2804 6753 c-2 -10 -13 -35 -24 -55 -22 -44 -7 -52 18 -9 l16 29 18
-29 c10 -16 22 -29 28 -29 5 0 1 15 -10 33 -11 17 -20 40 -20 49 0 24 -19 33
-26 11z"/>
<path d="M12770 6753 c0 -17 -6 -23 -22 -24 l-23 0 23 -9 c12 -5 22 -16 22
-25 0 -8 4 -15 9 -15 5 0 7 10 3 22 -3 12 -1 19 4 15 6 -3 16 -2 24 4 12 7 10
9 -8 9 -13 0 -21 4 -18 8 2 4 1 14 -5 22 -7 12 -9 10 -9 -7z"/>
<path d="M6380 6757 c0 -21 35 -97 44 -94 16 5 45 67 39 83 -9 24 -18 16 -19
-17 -3 -50 -19 -55 -33 -9 -6 22 -16 40 -21 40 -6 0 -10 -1 -10 -3z"/>
<path d="M11970 6752 c0 -4 5 -13 12 -20 9 -9 9 -15 0 -24 -20 -20 -14 -33 7
-14 16 15 19 15 31 1 7 -9 15 -13 18 -10 3 2 -1 12 -8 20 -10 12 -10 19 -2 27
17 17 15 33 -2 19 -11 -9 -20 -10 -35 -1 -12 6 -21 7 -21 2z"/>
<path d="M2249 6333 c-12 -15 -12 -16 4 -10 16 6 18 2 15 -41 -2 -31 -7 -46
-15 -44 -7 1 -13 -2 -13 -8 0 -5 19 -10 42 -10 36 0 40 2 24 13 -12 9 -18 28
-19 65 -1 55 -13 66 -38 35z"/>
<path d="M2343 6328 c-21 -46 -2 -108 32 -108 27 0 45 26 45 65 0 61 -55 91
-77 43z m57 -43 c0 -48 -22 -68 -40 -35 -20 37 -3 94 25 84 10 -4 15 -20 15
-49z"/>
<path d="M278 4437 c-33 -12 -38 -25 -38 -98 0 -104 0 -104 184 -104 182 0
185 2 186 97 0 64 -15 107 -39 109 -76 5 -276 3 -293 -4z m303 -23 c18 -21 16
-143 -2 -155 -8 -5 -80 -9 -161 -9 -170 0 -165 -3 -163 98 1 43 6 66 16 73 7
5 78 9 155 9 117 0 144 -3 155 -16z"/>
<path d="M325 4356 c15 -23 15 -27 0 -50 -10 -15 -13 -26 -7 -26 6 0 17 10 23
22 l12 23 10 -23 c6 -12 14 -22 19 -22 11 0 10 4 -3 34 -9 20 -9 29 1 41 7 8
10 18 6 22 -3 4 -12 -1 -19 -11 -12 -16 -14 -16 -26 -2 -21 25 -33 19 -16 -8z"/>
<path d="M680 4355 c0 -8 5 -15 10 -15 6 0 10 7 10 15 0 8 -4 15 -10 15 -5 0
-10 -7 -10 -15z"/>
<path d="M714 4352 c6 -10 104 -7 114 2 3 3 -23 6 -57 6 -34 0 -60 -4 -57 -8z"/>
<path d="M717 4318 c-7 -4 16 -8 51 -8 37 0 61 4 57 9 -6 11 -90 10 -108 -1z"/>
<path d="M1138 4428 c-14 -14 -18 -35 -18 -92 0 -102 1 -102 182 -100 187 1
185 1 193 22 4 9 9 47 10 84 4 100 1 102 -193 103 -136 0 -159 -2 -174 -17z
m340 -11 c16 -19 18 -133 2 -152 -10 -12 -40 -15 -171 -15 -181 0 -179 -1
-179 90 0 91 -2 90 179 90 117 0 161 -3 169 -13z"/>
<path d="M1190 4407 c0 -2 11 -17 25 -33 24 -28 24 -29 6 -49 -37 -41 -35 -45
20 -45 48 0 63 13 18 16 -10 1 -24 2 -31 3 -6 0 -2 11 10 24 l22 24 -20 25
-20 26 25 -3 c14 -1 28 2 31 6 3 5 -15 9 -40 9 -25 0 -46 -2 -46 -3z"/>
<path d="M1800 5984 c0 -25 4 -43 8 -40 12 7 14 86 2 86 -6 0 -10 -21 -10 -46z"/>
<path d="M1804 4394 c20 -20 20 -27 -3 -74 -11 -22 -15 -40 -10 -40 5 0 15 11
21 25 6 14 15 25 19 25 4 0 10 -11 13 -25 4 -14 11 -25 17 -25 12 0 6 22 -22
88 -11 24 -25 42 -34 42 -15 0 -15 -1 -1 -16z"/>
<path d="M1815 2770 c-3 -11 -12 -20 -18 -20 -8 0 -8 -3 1 -9 11 -6 10 -11 -3
-25 -10 -10 -12 -16 -5 -16 7 0 10 -8 7 -20 -3 -11 -1 -20 4 -20 5 0 9 9 9 20
0 27 28 25 33 -2 l4 -23 2 23 c0 13 8 22 19 23 10 0 12 3 5 6 -15 5 -18 33 -4
33 4 0 6 12 3 27 -5 26 -5 26 -13 5 -11 -29 -43 -30 -34 -2 3 11 4 20 1 20 -2
0 -8 -9 -11 -20z m35 -45 c0 -8 -9 -15 -20 -15 -13 0 -18 5 -14 15 4 8 12 15
20 15 8 0 14 -7 14 -15z"/>
<path d="M2254 5689 c13 -20 13 -26 -5 -60 -21 -43 -23 -49 -10 -49 5 0 14 14
21 31 l13 31 13 -31 c26 -61 32 -29 6 34 -14 36 -31 65 -39 65 -12 0 -12 -4 1
-21z"/>
<path d="M2280 4160 c-25 -16 2 -26 50 -19 l45 6 -43 1 c-26 1 -41 6 -37 12 8
12 4 12 -15 0z"/>
<path d="M2788 5383 c-2 -5 -4 -20 -3 -35 1 -21 -4 -28 -17 -28 -10 0 -18 -4
-18 -8 0 -5 56 -9 125 -9 69 0 125 4 125 9 0 4 -9 8 -20 8 -16 0 -20 7 -20 36
0 21 -4 33 -10 29 -5 -3 -10 -19 -10 -36 0 -16 -4 -29 -10 -29 -5 0 -10 16
-10 35 0 19 -4 35 -10 35 -5 0 -10 -16 -10 -35 0 -19 -5 -35 -11 -35 -5 0 -9
8 -8 18 3 34 -1 53 -11 47 -5 -3 -10 -20 -10 -36 0 -19 -4 -28 -10 -24 -6 4
-10 14 -9 23 3 30 -1 43 -10 38 -5 -3 -8 -19 -7 -36 1 -18 -3 -30 -10 -30 -7
0 -11 12 -9 30 2 28 -9 50 -17 33z"/>
<path d="M2761 4566 c-1 -42 3 -77 9 -81 6 -4 10 20 10 70 0 48 4 74 10 70 6
-3 10 -1 10 4 0 6 -8 11 -19 11 -16 0 -18 -9 -20 -74z"/>
<path d="M2821 4518 c-1 -15 8 -18 54 -18 46 0 55 3 54 18 0 10 -3 12 -6 5 -3
-8 -23 -13 -48 -13 -25 0 -45 5 -48 13 -3 7 -6 5 -6 -5z"/>
<path d="M2751 4078 c-1 -15 8 -18 54 -18 46 0 55 3 54 18 0 10 -3 12 -6 5 -3
-8 -23 -13 -48 -13 -25 0 -45 5 -48 13 -3 7 -6 5 -6 -5z"/>
<path d="M2805 3683 c27 -27 33 -38 23 -44 -7 -5 -11 -9 -8 -10 3 0 15 -2 28
-5 25 -4 38 16 28 43 -5 13 -9 14 -15 5 -5 -9 -16 -3 -36 18 -16 16 -35 30
-43 30 -8 0 2 -16 23 -37z"/>
<path d="M2776 3379 c14 -16 15 -23 7 -26 -7 -3 -13 -12 -13 -20 0 -14 2 -14
19 1 16 15 19 15 31 1 18 -22 24 -11 8 14 -11 18 -11 23 2 31 8 5 11 12 7 17
-5 4 -12 1 -17 -7 -8 -12 -13 -13 -30 -2 -30 18 -35 15 -14 -9z"/>
<path d="M2800 3080 c-1 -8 -2 -18 -1 -22 0 -5 -9 -8 -21 -8 l-23 -1 23 -12
c12 -7 20 -16 17 -19 -4 -3 -2 -9 4 -13 7 -3 11 3 11 15 0 12 4 19 8 16 4 -2
14 -1 22 5 12 7 10 9 -7 9 -14 0 -23 7 -26 23 -2 12 -5 15 -7 7z"/>
<path d="M3810 5067 c0 -54 -5 -60 -41 -42 -37 19 -35 20 -48 -16 -23 -66 -7
-149 28 -149 11 0 23 5 26 10 3 6 13 10 21 10 10 0 14 -14 14 -55 l0 -55 245
0 245 0 1 33 c1 36 1 288 0 300 -1 4 -111 7 -246 7 l-245 0 0 -43z m468 24 c9
-1 12 -38 12 -151 l0 -150 -230 0 c-126 0 -230 3 -231 8 0 4 -1 26 -3 49 -2
54 -9 60 -50 40 -19 -8 -37 -13 -40 -10 -10 10 -7 131 4 138 5 3 23 -1 39 -10
34 -17 40 -12 47 42 2 20 8 40 13 43 7 4 387 5 439 1z"/>
<path d="M3903 5037 c-26 -12 -32 -35 -29 -111 4 -87 12 -91 172 -90 168 2
160 2 178 20 23 23 23 156 -1 175 -19 17 -286 21 -320 6z m315 -24 c15 -29 8
-143 -8 -153 -25 -16 -296 -12 -309 4 -13 15 -17 111 -7 144 7 21 12 22 161
22 137 0 155 -2 163 -17z"/>
<path d="M3957 4974 c-15 -15 -6 -34 24 -50 24 -12 28 -18 18 -24 -7 -5 -21
-4 -32 2 -15 8 -18 7 -15 -4 8 -23 55 -22 68 2 10 19 8 23 -19 33 -17 6 -31
17 -31 23 0 13 17 13 39 0 9 -6 12 -5 9 5 -5 15 -49 24 -61 13z"/>
<path d="M4783 5071 c5 -55 -4 -67 -36 -46 -15 9 -31 14 -36 11 -30 -19 -33
-136 -5 -165 11 -13 17 -13 39 -1 14 7 27 11 30 8 3 -3 7 -27 8 -54 l2 -49
355 0 355 0 3 168 2 167 -360 0 -361 0 4 -39z m695 -129 l3 -152 -341 0 -340
0 0 49 c0 58 -10 68 -52 50 -25 -10 -31 -10 -39 2 -11 15 -7 115 5 126 3 4 19
0 34 -9 39 -22 52 -13 52 37 0 33 4 44 17 47 9 2 161 3 337 2 l321 0 3 -152z"/>
<path d="M4930 4991 c-25 -47 -5 -111 35 -111 27 0 45 25 45 65 0 40 -18 65
-45 65 -14 0 -29 -8 -35 -19z m60 -45 c0 -36 -16 -57 -36 -49 -17 6 -19 74 -2
91 18 18 38 -5 38 -42z"/>
<path d="M5080 4991 c-26 -50 0 -115 44 -109 28 4 45 66 28 103 -14 31 -56 34
-72 6z m56 -15 c10 -41 1 -71 -21 -71 -15 0 -21 8 -23 33 -5 53 32 85 44 38z"/>
<path d="M5196 4964 c-23 -36 -26 -48 -16 -54 7 -5 19 -6 25 -4 7 3 15 -3 19
-12 6 -16 8 -16 20 2 8 10 11 23 8 29 -4 5 -8 19 -8 30 -3 49 -4 55 -11 55 -5
0 -21 -21 -37 -46z m32 -19 c-2 -17 -8 -25 -20 -25 -22 0 -23 8 -1 32 21 24
23 23 21 -7z"/>
<path d="M5284 4995 c-3 -8 -4 -20 -1 -27 2 -7 1 -23 -4 -34 -11 -30 11 -57
41 -52 32 4 48 32 33 57 -7 12 -8 22 -2 28 5 5 7 17 3 26 -8 21 -62 23 -70 2z
m51 -16 c0 -7 -8 -15 -17 -17 -18 -3 -25 18 -11 32 10 10 28 1 28 -15z m5 -59
c0 -22 -24 -32 -39 -17 -15 15 -14 34 2 40 20 7 37 -4 37 -23z"/>
<path d="M5910 5067 c0 -54 -5 -60 -39 -42 -41 21 -54 6 -59 -67 -5 -80 12
-109 52 -90 42 19 46 15 46 -43 l0 -55 355 0 355 0 0 170 0 170 -355 0 -355 0
0 -43z m665 24 l30 -1 1 -150 0 -150 -342 0 -341 0 0 46 c0 60 -14 74 -52 51
-36 -21 -42 -14 -43 58 -2 68 8 81 48 61 36 -19 47 -9 47 43 0 28 5 41 15 43
14 3 559 2 637 -1z"/>
<path d="M6061 4996 c-16 -19 -17 -82 -1 -101 31 -37 74 -6 72 52 -2 40 -17
63 -42 63 -10 0 -23 -6 -29 -14z m51 -30 c4 -60 -10 -86 -35 -62 -14 15 -15
46 -2 83 7 19 35 3 37 -21z"/>
<path d="M6211 4996 c-16 -19 -17 -82 -1 -101 30 -36 72 -8 72 50 0 56 -42 87
-71 51z m48 -18 c5 -13 7 -30 5 -38 -1 -8 -3 -21 -3 -27 -1 -7 -10 -13 -21
-13 -21 0 -24 7 -22 50 3 53 26 68 41 28z"/>
<path d="M6321 4964 c-33 -48 -33 -65 -1 -57 12 3 22 -1 26 -11 8 -20 24 -21
24 -2 0 8 6 17 13 19 10 4 10 6 0 6 -9 1 -13 17 -13 46 0 25 -4 45 -9 45 -5 0
-23 -21 -40 -46z m29 -19 c0 -18 -5 -25 -20 -25 -20 0 -20 1 -4 25 9 14 18 25
20 25 2 0 4 -11 4 -25z"/>
<path d="M6415 5002 c-6 -4 -11 -30 -12 -59 -2 -44 1 -53 17 -58 32 -10 60 4
60 30 0 13 -4 27 -10 30 -6 4 -5 13 3 26 10 16 9 21 -3 29 -18 12 -41 12 -55
2z m41 -13 c10 -17 -13 -36 -27 -22 -12 12 -4 33 11 33 5 0 12 -5 16 -11z m4
-68 c0 -23 -9 -31 -26 -24 -14 5 -19 34 -8 46 11 10 34 -5 34 -22z"/>
<path d="M7030 5067 c0 -54 -5 -60 -41 -42 -37 19 -35 20 -48 -16 -15 -44 -14
-111 3 -134 12 -17 17 -18 40 -7 42 19 46 15 46 -43 l0 -55 180 0 180 0 0 170
0 170 -180 0 -180 0 0 -43z m326 24 c20 -1 21 -5 21 -151 l0 -150 -166 0 -167
0 -1 50 c0 28 -3 54 -7 57 -3 4 -21 -1 -40 -10 -19 -8 -37 -13 -40 -10 -10 10
-7 131 3 137 5 3 22 -1 37 -9 26 -13 30 -13 40 0 7 9 10 31 8 50 -3 30 0 34
24 37 23 3 220 2 288 -1z"/>
<path d="M7193 5003 c-7 -2 -13 -9 -13 -14 0 -6 5 -7 10 -4 11 7 12 4 13 -52
1 -22 -3 -38 -10 -38 -6 0 -15 -3 -19 -7 -4 -5 11 -8 34 -8 23 0 42 5 42 10 0
6 -7 10 -15 10 -12 0 -15 13 -15 55 0 54 -3 58 -27 48z"/>
<path d="M7800 5067 c0 -54 -5 -60 -40 -42 -25 13 -30 13 -40 -1 -18 -20 -24
-103 -11 -136 11 -28 43 -38 56 -18 3 6 13 10 21 10 10 0 14 -14 14 -55 l0
-55 179 0 180 0 3 38 c2 20 2 97 0 170 l-3 132 -180 0 -179 0 0 -43z m347
-125 l2 -152 -165 0 c-149 0 -164 2 -165 18 -4 89 -13 101 -58 79 -17 -8 -33
-11 -36 -7 -10 16 -8 121 2 131 6 6 21 4 39 -5 35 -19 47 -9 49 41 2 47 6 48
188 47 l142 0 2 -152z"/>
<path d="M7952 4998 c-7 -7 -12 -30 -12 -53 0 -46 13 -65 46 -65 40 0 56 99
20 122 -17 11 -41 9 -54 -4z m54 -62 c-8 -39 -16 -48 -34 -37 -18 11 -18 81
-1 92 24 14 42 -14 35 -55z"/>
<path d="M4430 4940 c0 -47 4 -80 10 -80 6 0 10 29 10 68 0 40 5 73 12 80 9 9
7 12 -10 12 -21 0 -22 -4 -22 -80z"/>
<path d="M7550 4970 c0 -11 -7 -20 -16 -20 -8 0 -12 -5 -9 -10 4 -6 11 -8 16
-5 5 4 9 -3 9 -14 0 -12 5 -21 10 -21 6 0 10 9 10 21 0 11 4 18 9 14 5 -3 12
-1 16 5 3 5 -1 10 -9 10 -9 0 -16 9 -16 20 0 11 -4 20 -10 20 -5 0 -10 -9 -10
-20z"/>
<path d="M6750 4971 c0 -5 6 -11 13 -14 9 -3 9 -9 -1 -27 -16 -26 -10 -37 8
-15 12 14 15 14 31 -1 20 -18 25 -9 9 16 -6 10 -4 20 7 32 19 21 11 23 -18 6
-17 -10 -23 -10 -26 0 -5 14 -23 16 -23 3z"/>
<path d="M3341 4898 c-1 -15 8 -18 54 -18 46 0 55 3 54 18 0 10 -3 12 -6 5 -3
-8 -23 -13 -48 -13 -25 0 -45 5 -48 13 -3 7 -6 5 -6 -5z"/>
<path d="M5611 4898 c-1 -15 8 -18 54 -18 46 0 55 3 54 18 0 10 -3 12 -6 5 -3
-8 -23 -13 -48 -13 -25 0 -45 5 -48 13 -3 7 -6 5 -6 -5z"/>
<path d="M4487 4888 c2 -5 29 -8 59 -8 30 0 54 3 54 8 0 4 -27 7 -59 7 -33 0
-57 -3 -54 -7z"/>
<path d="M3362 4617 c-16 -19 -18 -83 -3 -101 31 -37 71 -11 73 47 2 56 -41
89 -70 54z m52 -60 c-4 -38 -15 -49 -34 -37 -19 11 -18 79 1 90 20 14 38 -15
33 -53z"/>
<path d="M3519 4613 c-12 -15 -12 -16 2 -11 14 5 16 -1 15 -40 -1 -32 -5 -46
-13 -44 -7 1 -13 -2 -13 -8 0 -5 16 -10 35 -10 19 0 35 5 35 11 0 5 -4 8 -9 5
-13 -8 -17 11 -16 67 1 50 -11 61 -36 30z"/>
<path d="M4000 4300 c0 -27 -2 -50 -5 -50 -4 0 -19 7 -34 15 -26 13 -30 13
-42 -2 -9 -10 -14 -41 -14 -78 0 -37 5 -68 14 -78 12 -15 16 -15 42 -2 15 8
30 15 34 15 3 0 5 -52 5 -115 l0 -115 1790 0 1790 0 1 68 c0 37 0 139 0 227
l0 160 -1791 3 -1790 2 0 -50z m3566 -182 l-1 -213 -1772 -1 -1773 0 -1 35 c0
20 -1 69 -1 109 -1 85 -14 104 -53 78 -14 -9 -30 -14 -35 -11 -13 8 -13 132 0
140 5 3 23 -1 39 -10 33 -16 45 -9 47 30 1 11 2 28 3 38 1 16 93 17 1775 17
l1773 0 -1 -212z"/>
<path d="M4670 4239 c0 -45 -2 -50 -17 -44 -47 20 -62 18 -73 -10 -13 -34 -13
-86 0 -120 11 -28 26 -30 73 -10 15 6 17 1 17 -49 l0 -56 180 0 c180 0 180 0
181 23 1 33 1 247 0 285 l-1 32 -180 0 -180 0 0 -51z m349 -119 c2 -116 -1
-150 -11 -151 -43 -3 -305 -4 -313 -2 -6 2 -10 21 -9 43 0 22 -4 47 -10 56
-10 13 -15 14 -41 0 -16 -8 -32 -13 -37 -10 -11 7 -10 115 1 133 7 11 13 10
35 -4 34 -22 48 -11 52 42 2 21 3 39 3 41 1 1 75 2 165 2 l164 0 1 -150z"/>
<path d="M4820 4171 c-14 -27 -13 -84 2 -99 7 -7 22 -12 34 -12 32 0 51 59 34
101 -15 34 -53 40 -70 10z m60 -44 c0 -30 -19 -57 -35 -51 -19 7 -20 75 -3 92
10 10 15 9 25 -5 7 -9 13 -25 13 -36z"/>
<path d="M5409 4278 c-1 -7 -2 -29 -3 -48 -1 -37 -4 -39 -50 -26 -20 6 -31 5
-37 -5 -10 -16 -12 -119 -3 -143 7 -19 45 -21 62 -4 18 18 32 -7 28 -46 -7
-58 -15 -56 260 -56 l254 0 0 170 0 170 -255 0 c-197 0 -255 -3 -256 -12z
m492 -35 c3 -108 1 -265 -5 -270 -3 -4 -112 -7 -241 -7 l-235 -1 0 45 c0 25
-5 52 -10 60 -8 13 -13 12 -40 -4 -17 -10 -34 -16 -36 -13 -11 10 -13 110 -4
128 10 18 13 18 41 4 39 -21 49 -13 49 41 l0 44 240 0 240 0 1 -27z"/>
<path d="M5550 4161 c-22 -54 18 -120 58 -95 20 13 28 74 12 104 -17 31 -55
26 -70 -9z m60 -38 c0 -40 -2 -44 -22 -41 -18 2 -24 11 -26 36 -4 37 12 64 34
55 9 -3 14 -20 14 -50z"/>
<path d="M5714 4174 c-16 -13 -16 -15 -1 -10 14 4 17 -1 17 -36 0 -27 -6 -45
-17 -54 -16 -12 -13 -13 25 -14 23 0 42 5 42 10 0 6 -6 9 -12 8 -9 -2 -14 15
-16 55 -3 61 -7 66 -38 41z"/>
<path d="M6329 4273 c-1 -10 -2 -31 -3 -48 -1 -32 -5 -34 -50 -21 -36 11 -46
-3 -46 -69 0 -72 8 -95 34 -95 12 0 27 5 33 11 18 18 31 2 31 -39 0 -20 0 -43
1 -49 1 -10 44 -13 181 -13 l180 0 0 170 0 170 -180 0 c-164 0 -180 -2 -181
-17z m342 -15 c5 -54 3 -266 -2 -278 -6 -12 -32 -15 -151 -14 -78 1 -151 2
-160 3 -15 1 -18 10 -18 50 0 58 -11 69 -47 46 -35 -23 -48 -7 -47 60 0 66 15
87 43 61 32 -29 51 -14 51 39 l0 45 165 0 c125 0 165 -3 166 -12z"/>
<path d="M6484 4174 c-16 -13 -16 -15 -1 -10 14 4 17 -1 17 -36 0 -27 -6 -45
-17 -54 -16 -12 -13 -13 25 -14 23 0 42 5 42 10 0 6 -6 9 -12 8 -9 -2 -14 15
-16 55 -3 61 -7 66 -38 41z"/>
<path d="M7099 4248 c-1 -24 -1 -46 0 -50 1 -11 -7 -10 -46 4 -29 10 -36 10
-43 -2 -11 -17 -13 -103 -3 -138 6 -24 18 -26 73 -11 12 3 16 -8 18 -48 l3
-53 180 0 179 0 0 170 0 170 -180 0 -180 0 -1 -42z m346 -123 c0 -77 -1 -144
-2 -150 -3 -8 -277 -13 -326 -6 -4 1 -6 21 -5 46 2 60 -11 73 -51 49 -17 -10
-33 -15 -37 -12 -8 9 -10 109 -1 131 6 16 9 17 37 2 39 -20 50 -13 50 34 0 21
3 41 7 45 4 3 79 5 167 4 l160 -3 1 -140z"/>
<path d="M7254 4182 c-16 -10 -24 -50 -17 -84 7 -36 49 -50 70 -23 16 22 17
69 3 96 -11 19 -36 25 -56 11z m47 -36 c2 -38 -3 -61 -15 -68 -27 -18 -50 64
-25 89 16 16 39 5 40 -21z"/>
<path d="M4428 4193 c-3 -6 -2 -107 1 -145 1 -5 8 -8 17 -8 10 0 12 4 7 13 -4
6 -8 40 -9 75 -1 59 -7 83 -16 65z"/>
<path d="M5170 4191 c0 -6 4 -11 8 -11 4 0 7 -32 7 -70 -1 -43 3 -69 9 -67 6
2 10 36 10 78 0 61 -3 75 -17 77 -9 2 -17 -1 -17 -7z"/>
<path d="M4145 4128 l1 -63 67 -3 67 -3 0 66 0 65 -67 0 -68 0 0 -62z m117 15
c8 -65 -4 -73 -94 -64 -12 1 -9 89 2 93 6 2 28 3 49 3 37 1 40 -1 43 -32z"/>
<path d="M4230 4156 c0 -9 5 -16 10 -16 6 0 10 4 10 9 0 6 -4 13 -10 16 -5 3
-10 -1 -10 -9z"/>
<path d="M4172 4101 c2 -7 7 -12 11 -12 12 1 9 15 -3 20 -7 2 -11 -2 -8 -8z"/>
<path d="M6850 4151 c0 -15 -7 -21 -22 -22 l-23 0 23 -9 c12 -5 22 -17 22 -25
0 -9 5 -13 10 -10 6 4 8 11 5 16 -4 5 4 13 16 17 l23 9 -23 6 c-13 3 -20 10
-17 16 4 5 2 12 -4 16 -5 3 -10 -3 -10 -14z"/>
<path d="M6050 4152 c0 -4 5 -13 12 -20 9 -9 9 -15 0 -24 -20 -20 -14 -33 7
-14 16 15 19 15 31 1 7 -9 15 -13 18 -10 3 2 -1 12 -8 20 -10 12 -10 19 -2 27
20 20 13 29 -9 16 -17 -10 -23 -10 -26 0 -5 13 -23 17 -23 4z"/>
<path d="M7990 4239 c0 -45 -2 -50 -17 -44 -48 20 -62 18 -74 -11 -14 -36 -6
-121 12 -140 12 -12 18 -11 43 1 15 8 30 15 32 15 2 0 4 -25 4 -55 l0 -55 304
0 c281 0 304 1 308 18 2 9 3 85 3 167 l-1 150 -307 3 -307 2 0 -51z m600 -119
c0 -136 -2 -150 -17 -151 -92 -6 -551 -3 -559 3 -6 5 -10 23 -8 41 2 18 -2 41
-9 51 -13 18 -15 18 -40 1 -14 -9 -31 -14 -37 -10 -13 8 -13 132 0 140 5 3 21
-2 35 -11 33 -22 49 -8 51 44 1 20 3 38 3 40 1 1 132 2 291 2 l290 0 0 -150z"/>
<path d="M8142 4178 c-15 -15 -16 -72 -2 -99 22 -40 70 -18 75 34 5 58 -39 99
-73 65z m58 -44 c0 -36 -17 -64 -35 -58 -15 6 -22 84 -9 97 13 13 44 -14 44
-39z"/>
<path d="M8292 4178 c-7 -7 -12 -30 -12 -53 0 -46 13 -65 46 -65 26 0 43 38
38 84 -4 42 -45 61 -72 34z m58 -49 c0 -31 -12 -49 -31 -49 -16 0 -19 7 -19
44 0 26 5 46 13 49 15 6 37 -20 37 -44z"/>
<path d="M8406 4150 c-33 -50 -34 -68 -1 -65 16 2 25 -2 25 -11 0 -8 5 -14 10
-14 6 0 10 6 10 14 0 8 6 17 13 19 10 4 10 6 0 6 -9 1 -13 17 -13 46 0 25 -4
45 -9 45 -4 0 -20 -18 -35 -40z m28 -12 c-1 -13 -3 -26 -3 -30 -1 -10 -31 -10
-31 0 0 8 29 52 34 52 1 0 2 -10 0 -22z"/>
<path d="M9017 4283 c-4 -3 -7 -26 -7 -51 0 -38 -2 -43 -17 -37 -32 14 -61 17
-66 8 -12 -19 -17 -112 -7 -137 7 -18 17 -26 34 -26 14 0 28 5 31 10 15 24 25
6 25 -45 l0 -55 308 2 307 3 0 165 0 165 -301 3 c-165 1 -303 -1 -307 -5z
m591 -165 l-3 -152 -286 -1 -287 0 -4 52 c-3 29 -8 56 -12 60 -3 4 -20 -1 -37
-11 -39 -23 -49 -12 -49 59 0 69 10 82 44 60 35 -23 56 -6 56 46 l0 39 290 0
291 0 -3 -152z"/>
<path d="M9160 4171 c-14 -27 -13 -84 2 -99 22 -22 55 -14 68 17 18 44 -2 101
-35 101 -14 0 -29 -9 -35 -19z m60 -38 c0 -35 -18 -63 -35 -57 -19 8 -21 90
-2 97 19 7 37 -13 37 -40z"/>
<path d="M9312 4178 c-17 -17 -15 -93 3 -108 35 -29 80 19 70 75 -8 43 -46 60
-73 33z m54 -62 c-5 -27 -12 -36 -26 -36 -15 0 -20 7 -21 28 -2 40 2 56 14 64
22 14 40 -18 33 -56z"/>
<path d="M9409 4188 c-1 -2 -2 -18 -4 -36 -2 -30 0 -33 20 -28 30 8 53 -18 35
-39 -9 -11 -17 -12 -32 -4 -23 12 -39 2 -18 -11 29 -19 60 -11 70 16 13 32 -2
54 -36 54 -15 0 -24 6 -24 15 0 14 14 19 48 18 6 -1 12 3 12 8 0 8 -68 14 -71
7z"/>
<path d="M3430 4110 l0 -70 55 0 55 0 0 70 0 70 -55 0 -55 0 0 -70z m100 0 l0
-60 -45 0 -45 0 0 60 0 60 45 0 45 0 0 -60z"/>
<path d="M3460 4152 c0 -5 11 -7 25 -4 30 5 34 -14 8 -35 -16 -13 -16 -13 5
-3 31 15 25 44 -11 48 -15 2 -27 -1 -27 -6z"/>
<path d="M8762 4153 c2 -11 -6 -19 -22 -24 -14 -4 -18 -7 -9 -8 9 -1 24 -11
32 -23 l16 -23 0 22 c1 14 9 23 24 26 l22 4 -22 2 c-16 1 -23 7 -23 21 0 11
-5 20 -10 20 -6 0 -10 -8 -8 -17z"/>
<path d="M3738 4110 c9 -27 21 -50 27 -50 25 0 51 89 29 97 -7 2 -10 -5 -7
-19 2 -13 -2 -31 -10 -42 -12 -17 -14 -15 -26 23 -6 23 -16 41 -20 41 -5 0 -2
-22 7 -50z"/>
<path d="M7723 4143 c15 -16 15 -18 0 -35 -21 -24 -9 -36 14 -13 11 11 18 14
21 6 2 -6 11 -11 19 -11 14 0 14 2 -1 19 -15 16 -15 19 -1 31 9 7 13 15 10 18
-2 3 -12 -1 -20 -8 -12 -10 -19 -10 -27 -2 -7 7 -17 12 -22 12 -6 0 -3 -8 7
-17z"/>
<path d="M3555 4110 c-3 -5 -1 -10 5 -10 13 0 9 -42 -5 -52 -5 -4 4 -7 20 -7
17 0 24 3 18 6 -7 2 -13 20 -13 39 0 33 -12 45 -25 24z"/>
<path d="M3370 3740 c-13 -9 -13 -11 -1 -19 22 -14 20 -74 -4 -88 -18 -11 -15
-12 25 -12 40 0 43 1 28 13 -13 10 -18 27 -18 65 0 52 -4 58 -30 41z"/>
<path d="M3459 3748 c0 -2 -2 -18 -5 -37 -4 -31 -2 -33 20 -27 15 4 28 0 37
-10 11 -14 10 -18 -6 -30 -13 -9 -22 -11 -29 -4 -15 15 -26 12 -20 -5 8 -20
48 -19 68 1 19 18 19 20 6 45 -6 11 -21 19 -35 19 -15 0 -25 6 -25 14 0 15 27
29 40 21 5 -3 11 -1 15 5 4 6 -8 10 -29 10 -20 0 -36 -1 -37 -2z"/>
<path d="M3373 3423 c-7 -2 -13 -9 -13 -14 0 -6 5 -7 10 -4 6 3 10 -2 11 -12
0 -10 2 -26 4 -36 2 -10 -5 -27 -16 -38 -19 -19 -18 -19 21 -19 22 0 40 5 40
10 0 6 -6 9 -12 8 -9 -2 -14 15 -16 55 -3 56 -5 60 -29 50z"/>
<path d="M3360 3095 c-6 -8 -12 -30 -12 -50 0 -58 42 -86 73 -49 16 19 15 79
-1 99 -16 19 -44 19 -60 0z m53 -42 c6 -36 -11 -67 -30 -55 -21 13 -25 69 -7
87 20 20 31 11 37 -32z"/>
<path d="M2241 2780 c9 -5 26 -8 37 -5 l22 4 -20 -39 c-21 -41 -27 -85 -10
-75 6 3 10 16 10 28 0 12 9 37 20 55 11 18 20 35 20 37 0 3 -21 5 -47 5 -35
-1 -44 -3 -32 -10z"/>
<path d="M341 2453 c0 -14 -8 -23 -18 -24 -11 0 -13 -3 -5 -6 13 -5 16 -30 4
-35 -5 -1 -5 -14 -1 -28 7 -24 7 -24 8 -2 1 12 7 22 16 22 9 0 15 -9 16 -22
l0 -23 9 23 c5 12 15 22 22 22 9 0 9 3 -2 10 -13 9 -12 12 4 25 12 9 15 15 7
15 -8 0 -11 8 -8 20 3 11 1 18 -4 14 -5 -3 -9 -12 -9 -20 0 -23 -28 -16 -33 9
l-4 22 -2 -22z m29 -48 c0 -8 -7 -15 -15 -15 -8 0 -15 7 -15 15 0 8 7 15 15
15 8 0 15 -7 15 -15z"/>
<path d="M334 1538 c11 -15 12 -26 6 -39 -19 -35 -29 -69 -21 -69 5 0 14 14
21 31 l13 31 13 -31 c25 -59 32 -31 8 31 -13 34 -24 63 -24 65 0 2 -7 3 -16 3
-14 0 -14 -2 0 -22z"/>
<path d="M780 2455 c-10 -12 -10 -15 4 -15 12 0 15 -9 13 -42 -2 -28 -7 -42
-15 -40 -6 1 -12 -2 -12 -8 0 -5 17 -10 38 -10 31 1 34 3 22 13 -11 8 -16 28
-15 65 2 54 -10 67 -35 37z"/>
<path d="M872 2458 c-17 -17 -15 -93 3 -108 8 -7 25 -10 39 -6 38 9 46 95 12
118 -16 11 -41 9 -54 -4z m58 -45 c0 -35 -18 -63 -35 -57 -19 8 -21 90 -2 97
19 7 37 -13 37 -40z"/>
<path d="M774 2134 c20 -19 20 -27 0 -65 -8 -17 -13 -36 -11 -42 2 -7 10 0 17
16 16 34 26 34 34 2 4 -14 11 -25 17 -25 12 0 6 22 -22 88 -11 24 -25 42 -34
42 -15 0 -15 -1 -1 -16z"/>
<path d="M801 886 c-9 -10 -8 -15 2 -19 22 -8 37 6 22 20 -10 10 -16 9 -24 -1z"/>
<path d="M980 1610 c-16 -16 -20 -33 -20 -85 0 -102 6 -105 188 -105 180 0
182 1 182 103 0 104 -6 107 -185 107 -132 0 -147 -2 -165 -20z m325 -13 c15
-21 14 -130 -3 -150 -10 -11 -42 -14 -158 -13 -172 2 -173 2 -169 98 2 43 7
65 18 73 11 8 63 12 158 11 122 -1 142 -3 154 -19z"/>
<path d="M1040 1566 c0 -4 5 -16 11 -27 8 -16 7 -26 -6 -45 -8 -13 -11 -24 -5
-24 5 0 15 9 22 19 12 20 12 20 26 0 20 -29 35 -23 15 7 -14 21 -14 29 -4 46
7 11 9 23 6 26 -4 4 -11 -1 -17 -11 -9 -18 -11 -18 -29 -1 -10 9 -19 14 -19
10z"/>
<path d="M1406 1551 c-4 -7 -5 -15 -2 -18 9 -9 19 4 14 18 -4 11 -6 11 -12 0z"/>
<path d="M1455 1549 c-16 -4 -28 -8 -25 -9 15 -6 100 -6 110 0 17 10 -48 17
-85 9z"/>
<path d="M1439 1509 c-9 -5 10 -9 49 -9 38 0 61 4 57 10 -7 11 -88 11 -106 -1z"/>
<path d="M4450 1837 c0 -24 -3 -46 -6 -49 -3 -3 -19 -1 -35 6 -27 9 -33 8 -45
-8 -17 -24 -18 -113 -1 -143 12 -21 14 -22 41 -8 15 8 32 12 37 9 5 -3 9 -111
9 -240 l0 -234 2993 2 2992 3 0 350 0 350 -2992 3 -2993 2 0 -43z m5970 -312
l0 -335 -2978 0 -2979 0 0 231 c-1 155 -5 235 -12 242 -8 8 -19 6 -41 -7 -29
-17 -30 -16 -37 1 -11 28 -8 112 5 125 8 8 18 7 38 -6 34 -23 47 -11 46 43
l-1 41 2980 0 2979 0 0 -335z"/>
<path d="M5030 1770 c0 -37 -4 -50 -14 -50 -8 0 -18 5 -21 10 -13 20 -45 10
-56 -17 -13 -34 -7 -117 11 -137 11 -14 15 -14 41 -1 15 8 30 15 34 15 3 0 5
-78 5 -174 0 -130 3 -175 13 -178 6 -2 1022 -4 2257 -4 l2245 1 3 293 2 292
-2260 0 -2260 0 0 -50z m4500 -245 l0 -275 -2242 2 -2242 3 0 167 c-1 184 -6
202 -49 173 -15 -9 -31 -14 -37 -10 -13 8 -13 132 0 140 5 3 21 -2 35 -11 34
-22 52 -6 50 46 l-1 40 2243 0 2243 0 0 -275z"/>
<path d="M5745 1751 c-3 -2 -5 -24 -5 -49 0 -38 -2 -43 -17 -37 -66 28 -77 17
-77 -77 0 -74 19 -99 55 -74 13 9 27 16 31 16 4 0 9 -53 10 -117 l3 -118 1840
0 1840 0 0 230 0 230 -1838 0 c-1011 1 -1840 -1 -1842 -4z m3665 -226 l0 -215
-1825 0 -1825 0 0 108 c0 123 -7 139 -52 116 -16 -8 -33 -12 -38 -9 -11 7 -14
104 -4 129 5 13 10 13 40 -2 42 -20 54 -9 54 51 l0 37 1825 0 1825 0 0 -215z"/>
<path d="M6410 1644 c0 -40 -3 -46 -17 -41 -63 20 -63 20 -71 -4 -14 -38 -7
-128 11 -146 14 -15 18 -15 41 0 14 10 28 17 31 17 3 0 5 -25 5 -55 l0 -55
182 2 183 3 1 150 c0 83 -2 156 -4 163 -3 9 -49 12 -183 12 l-179 0 0 -46z
m350 -117 l0 -154 -165 0 -165 0 0 33 c0 18 -4 44 -10 59 -10 25 -10 25 -41 9
-40 -20 -49 -9 -49 63 0 60 10 70 52 52 37 -15 48 -3 48 54 l0 37 165 0 165 0
0 -153z"/>
<path d="M6560 1581 c-22 -42 -5 -111 28 -111 29 0 44 16 47 51 4 51 -10 79
-39 79 -15 0 -30 -8 -36 -19z m60 -47 c0 -38 -33 -67 -44 -38 -11 27 -6 82 7
87 21 7 37 -14 37 -49z"/>
<path d="M7150 1645 c0 -48 -5 -52 -46 -33 -23 11 -28 10 -40 -7 -20 -27 -18
-129 2 -149 19 -19 24 -19 48 -1 28 21 36 10 36 -46 l0 -49 305 0 305 0 0 165
0 165 -305 0 -305 0 0 -45z m595 -113 c0 -86 -4 -147 -10 -151 -5 -5 -136 -8
-290 -7 l-280 1 -3 50 c-4 59 -16 70 -54 47 -33 -20 -38 -16 -40 34 -3 96 6
111 52 82 28 -18 44 2 42 52 l-2 40 293 -2 292 -3 0 -143z"/>
<path d="M7291 1573 c-26 -64 25 -133 67 -91 15 15 16 72 2 99 -16 29 -55 24
-69 -8z m60 -12 c3 -35 -4 -66 -15 -73 -27 -18 -50 64 -25 89 15 15 39 5 40
-16z"/>
<path d="M7450 1585 c-6 -8 -12 -30 -12 -50 0 -58 42 -86 72 -50 16 19 15 82
-1 101 -15 18 -43 18 -59 -1z m53 -58 c-6 -39 -14 -49 -32 -37 -19 11 -19 79
0 91 21 13 38 -16 32 -54z"/>
<path d="M7542 1565 c-3 -34 -1 -36 25 -33 24 3 28 -1 28 -22 0 -25 -5 -27
-37 -15 -11 4 -18 3 -18 -4 0 -17 48 -25 66 -10 8 7 14 24 12 38 -2 20 -9 27
-30 29 -20 2 -28 9 -28 23 0 11 4 18 9 15 5 -4 20 -2 33 3 20 9 18 10 -17 10
-40 1 -41 0 -43 -34z"/>
<path d="M8170 1647 c0 -24 -3 -46 -6 -49 -3 -4 -19 1 -35 10 -29 16 -31 16
-45 -3 -11 -14 -15 -37 -12 -82 5 -78 18 -94 58 -71 16 9 31 14 34 10 3 -3 6
-27 6 -54 l0 -48 180 0 180 0 0 165 0 165 -180 0 -180 0 0 -43z m345 -119 l0
-153 -166 -1 -166 0 0 49 c-1 26 -4 51 -7 55 -4 3 -22 0 -42 -7 -20 -7 -38
-11 -40 -8 -8 8 -8 122 0 135 6 9 12 9 29 -3 34 -24 57 -19 58 13 1 15 1 31 0
36 -6 33 8 36 171 36 l163 0 0 -152z"/>
<path d="M8333 1593 c-7 -2 -13 -9 -13 -15 0 -6 6 -8 13 -5 9 3 13 -7 12 -37
0 -30 -5 -44 -20 -53 -18 -11 -15 -12 23 -13 23 0 42 5 42 10 0 6 -6 9 -12 8
-9 -2 -14 15 -16 55 -3 56 -5 60 -29 50z"/>
<path d="M8940 1644 c0 -43 -1 -46 -22 -39 -51 16 -62 12 -72 -26 -12 -48 0
-125 21 -133 9 -4 26 0 38 8 30 20 35 12 35 -46 l0 -48 180 0 180 0 0 165 0
165 -180 0 -180 0 0 -46z m345 -119 l0 -150 -162 -1 c-171 0 -177 1 -168 46 2
12 0 32 -5 46 -10 24 -10 24 -41 8 -40 -20 -50 -10 -51 55 -2 61 13 82 42 63
44 -27 52 -17 53 61 l0 27 166 -2 166 -3 0 -150z"/>
<path d="M9090 1585 c-16 -19 -15 -82 1 -101 6 -8 19 -14 29 -14 25 0 40 23
42 63 2 58 -41 89 -72 52z m51 -15 c1 -5 2 -21 2 -35 0 -42 -2 -45 -23 -45
-21 0 -22 2 -23 35 0 45 4 55 23 55 11 0 21 -4 21 -10z"/>
<path d="M6169 1603 c-4 -32 -3 -146 1 -151 8 -11 30 -13 30 -2 0 6 -4 10 -8
10 -4 0 -7 32 -7 71 0 39 -3 73 -7 75 -4 3 -8 2 -9 -3z"/>
<path d="M6910 1599 c0 -5 5 -7 10 -4 6 4 10 -22 10 -69 0 -42 4 -76 9 -76 4
0 8 36 8 80 1 72 -1 80 -18 80 -11 0 -19 -5 -19 -11z"/>
<path d="M5890 1535 l0 -65 65 0 65 0 0 65 0 65 -65 0 -65 0 0 -65z m82 31
c-2 -9 2 -16 8 -16 5 0 10 10 10 22 0 38 12 10 14 -32 2 -46 -1 -50 -45 -55
-27 -4 -29 -2 -23 17 4 15 2 19 -7 15 -8 -2 -13 -10 -11 -16 1 -6 -2 -11 -7
-11 -15 0 -7 84 9 92 26 11 55 2 52 -16z"/>
<path d="M8690 1561 c0 -15 -6 -21 -21 -21 -11 0 -18 -4 -14 -10 3 -5 12 -7
20 -3 10 3 15 -1 15 -16 0 -20 0 -20 23 2 19 19 20 22 5 25 -9 2 -15 9 -12 17
3 7 1 16 -5 20 -7 3 -11 -2 -11 -14z"/>
<path d="M7896 1555 c4 -8 11 -15 17 -15 5 0 2 -9 -8 -20 -10 -11 -16 -22 -13
-25 3 -3 11 1 18 10 12 14 15 14 31 -1 20 -18 27 -6 7 14 -9 9 -7 16 7 32 19
21 8 29 -13 8 -9 -9 -15 -9 -24 0 -17 17 -29 15 -22 -3z"/>
<path d="M5184 1584 c20 -19 20 -27 0 -65 -8 -17 -13 -36 -11 -42 2 -7 10 0
17 16 16 34 26 34 34 2 4 -14 11 -25 17 -25 12 0 6 22 -22 88 -11 24 -25 42
-34 42 -15 0 -15 -1 -1 -16z"/>
<path d="M5426 1511 c-13 -20 5 -27 54 -20 l45 6 -42 1 c-23 1 -43 7 -45 14
-3 9 -6 9 -12 -1z"/>
<path d="M9950 1640 l0 -50 -35 17 c-46 22 -57 10 -63 -64 -3 -47 0 -63 16
-83 19 -23 20 -23 45 -7 15 9 29 17 32 17 3 0 5 -25 5 -55 l0 -55 180 0 c153
0 180 2 181 15 0 8 1 78 1 155 0 77 -1 145 -1 150 -1 6 -68 10 -181 10 l-180
0 0 -50z m350 -113 l0 -153 -157 2 c-87 0 -163 2 -169 2 -5 1 -9 19 -8 40 1
20 -3 45 -8 55 -8 16 -11 16 -39 2 -16 -9 -34 -13 -39 -10 -6 3 -10 33 -10 66
0 45 4 61 16 66 8 3 20 1 27 -6 12 -12 46 -15 48 -3 1 4 2 21 4 37 1 17 3 36
4 43 1 9 41 12 166 12 l165 0 0 -153z"/>
<path d="M10099 1584 c-13 -16 -12 -17 6 -10 34 13 39 12 43 -9 2 -13 -8 -31
-28 -48 -40 -36 -38 -47 11 -47 22 0 38 4 34 9 -3 5 -18 7 -33 5 l-27 -5 33
34 c41 42 41 80 1 85 -15 2 -31 -4 -40 -14z"/>
<path d="M4599 1595 c-1 -3 -1 -14 -1 -25 0 -45 2 -63 8 -57 9 9 11 87 2 87
-4 0 -8 -2 -9 -5z"/>
<path d="M4770 1592 c0 -4 5 -13 12 -20 9 -9 7 -21 -7 -52 -10 -22 -15 -43
-12 -46 3 -4 12 5 18 20 15 33 25 33 33 1 4 -14 11 -25 17 -25 12 0 6 22 -22
88 -16 37 -39 57 -39 34z"/>
<path d="M9695 1580 c-3 -11 -12 -20 -18 -20 -8 0 -8 -3 1 -9 11 -6 10 -11 -3
-25 -10 -10 -12 -16 -5 -16 7 0 10 -8 7 -20 -3 -11 -1 -18 4 -14 5 3 9 12 9
20 0 8 7 14 16 14 11 0 15 -6 11 -20 -3 -11 -1 -20 4 -20 5 0 9 9 9 20 0 12 7
20 18 21 10 0 12 3 5 6 -14 5 -17 30 -5 35 5 2 5 14 1 28 -7 24 -7 24 -8 3 -1
-16 -7 -23 -22 -23 -16 0 -19 4 -14 20 3 11 4 20 1 20 -2 0 -8 -9 -11 -20z
m33 -42 c-3 -7 -12 -14 -21 -16 -12 -2 -15 1 -11 12 7 19 38 22 32 4z"/>
<path d="M2450 1644 c0 -43 -1 -46 -22 -39 -51 16 -62 12 -72 -26 -12 -48 0
-125 21 -133 9 -4 26 0 39 9 13 8 26 15 29 15 3 0 5 -25 5 -55 l0 -55 245 0
245 0 0 165 0 165 -245 0 -245 0 0 -46z m477 -113 c0 -101 -3 -151 -11 -154
-6 -2 -110 -3 -230 -3 l-220 1 -1 46 c-2 64 -9 72 -46 54 -16 -9 -34 -13 -39
-10 -6 3 -10 35 -10 71 0 57 2 64 19 64 11 0 23 -4 26 -10 10 -16 45 -12 46 5
1 8 3 29 4 45 1 17 3 32 4 35 0 3 104 5 229 5 l229 0 0 -149z"/>
<path d="M2530 1610 c-16 -16 -20 -33 -20 -85 0 -102 6 -105 188 -105 181 0
182 1 182 107 0 102 -2 103 -183 103 -134 0 -149 -2 -167 -20z m322 -8 c19
-15 18 -136 -1 -155 -16 -16 -285 -18 -307 -3 -10 7 -16 32 -18 71 -3 72 0 84
27 94 35 13 282 8 299 -7z"/>
<path d="M2590 1566 c0 -3 5 -15 12 -25 9 -15 8 -24 -5 -45 -10 -14 -13 -26
-7 -26 5 0 15 9 22 19 12 20 12 20 26 0 20 -29 35 -23 15 7 -14 21 -14 29 -4
46 7 11 9 23 6 26 -4 4 -11 -1 -17 -11 -9 -18 -11 -18 -29 -1 -10 9 -19 14
-19 10z"/>
<path d="M3420 1640 l0 -50 -36 17 c-31 15 -36 15 -44 3 -19 -30 -15 -138 6
-160 12 -13 18 -12 44 3 l30 18 0 -55 0 -56 310 0 310 0 0 165 0 165 -310 0
-310 0 0 -50z m600 -113 l0 -153 -290 0 -290 0 0 46 c0 60 -14 75 -51 53 -16
-9 -32 -13 -36 -9 -4 4 -8 35 -8 69 0 56 2 62 20 60 76 -9 70 -12 73 40 l3 47
290 0 289 0 0 -153z"/>
<path d="M3570 1581 c-26 -50 -2 -115 41 -109 31 4 49 64 31 103 -14 31 -56
34 -72 6z m60 -41 c0 -43 -19 -67 -38 -48 -15 15 -16 70 -1 85 20 20 39 3 39
-37z"/>
<path d="M3718 1575 c-8 -17 -8 -37 -2 -63 8 -32 13 -37 39 -37 26 0 31 5 39
37 13 50 -4 88 -39 88 -17 0 -29 -8 -37 -25z m60 -44 c-2 -28 -7 -36 -23 -36
-15 0 -21 8 -23 33 -2 18 2 40 9 48 19 23 41 -3 37 -45z"/>
<path d="M3820 1581 c0 -11 -3 -26 -6 -35 -4 -11 2 -15 25 -14 39 1 49 -8 34
-30 -12 -18 -15 -18 -48 -6 -18 7 -19 6 -6 -10 18 -21 60 -18 75 7 15 24 -3
51 -38 55 -14 2 -26 7 -26 11 0 14 24 29 43 26 9 -2 17 1 17 6 0 5 -16 9 -35
9 -28 0 -35 -4 -35 -19z"/>
<path d="M10890 1644 c0 -43 -1 -46 -22 -39 -51 16 -62 12 -72 -26 -12 -48 0
-125 21 -133 9 -4 26 0 39 9 13 8 26 15 29 15 3 0 5 -25 5 -55 l0 -55 180 0
180 0 0 165 0 165 -180 0 -180 0 0 -46z m346 -116 l-1 -153 -164 0 -165 0 -1
46 c-3 64 -10 72 -46 54 -16 -9 -34 -13 -39 -10 -6 3 -10 36 -10 72 0 71 -3
70 66 48 24 -8 32 10 29 63 l-2 32 167 0 167 0 -1 -152z"/>
<path d="M11050 1590 c-12 -8 -13 -12 -2 -19 22 -14 20 -74 -3 -88 -18 -11
-15 -12 23 -13 23 0 42 5 42 10 0 6 -6 9 -12 8 -9 -2 -14 15 -16 55 -3 59 -6
64 -32 47z"/>
<path d="M11660 1644 c0 -40 -3 -46 -17 -41 -63 20 -62 20 -73 -8 -21 -54 -5
-155 24 -155 7 0 21 7 32 15 28 19 34 11 34 -47 l0 -48 180 0 180 0 0 165 0
165 -180 0 -180 0 0 -46z m346 -116 l-1 -153 -155 -1 c-85 0 -159 1 -165 3 -5
2 -10 20 -9 41 0 20 -3 45 -8 55 -8 16 -11 16 -40 1 -40 -21 -50 -9 -51 55 0
65 11 78 53 61 38 -16 42 -12 46 42 1 24 3 44 3 46 1 1 74 2 164 2 l163 0 0
-152z"/>
<path d="M11819 1583 c-12 -15 -12 -16 3 -10 14 5 17 -1 16 -36 0 -26 -6 -46
-17 -54 -13 -10 -9 -12 29 -12 40 0 43 1 24 12 -17 10 -20 21 -19 65 1 55 -11
66 -36 35z"/>
<path d="M12430 1644 c0 -43 -1 -46 -22 -39 -46 14 -62 11 -69 -15 -14 -49
-10 -107 10 -131 18 -22 19 -22 44 -6 15 9 29 17 32 17 3 0 5 -25 5 -55 l0
-55 180 0 c164 0 180 2 181 18 3 56 4 289 1 300 -3 9 -49 12 -183 12 l-179 0
0 -46z m350 -117 l0 -153 -165 0 -165 0 -1 25 c-1 15 -1 32 0 38 1 7 -3 22 -9
33 -10 19 -13 19 -41 5 -16 -9 -34 -13 -39 -10 -13 8 -13 122 1 130 5 4 24 1
40 -5 37 -16 41 -11 45 42 1 24 3 44 3 46 1 1 75 2 166 2 l165 0 0 -153z"/>
<path d="M12582 1588 c-15 -15 -16 -72 -2 -99 15 -26 46 -24 65 5 16 23 16 53
0 89 -8 20 -45 23 -63 5z m58 -44 c0 -14 -5 -34 -11 -45 -8 -16 -13 -18 -25
-8 -14 11 -20 80 -8 92 13 13 44 -14 44 -39z"/>
<path d="M3070 1530 c0 -47 4 -80 10 -80 6 0 10 32 10 76 0 47 4 73 10 69 6
-3 10 -1 10 4 0 6 -9 11 -20 11 -18 0 -20 -7 -20 -80z"/>
<path d="M1930 1535 l0 -65 65 0 65 0 0 65 0 65 -65 0 -65 0 0 -65z m120 0 l0
-55 -55 0 -55 0 0 55 0 55 55 0 55 0 0 -55z"/>
<path d="M12180 1561 c0 -15 -7 -21 -22 -21 -18 0 -20 -2 -8 -9 8 -6 18 -7 22
-5 7 5 12 -10 9 -28 0 -5 4 -8 9 -8 6 0 10 7 10 15 0 9 10 20 23 25 l22 9 -22
0 c-13 1 -23 7 -23 15 0 8 -4 18 -10 21 -5 3 -10 -3 -10 -14z"/>
<path d="M10580 1562 c0 -4 14 -20 31 -37 18 -16 27 -31 20 -33 -22 -7 -11
-19 17 -17 22 1 28 6 30 28 2 15 -1 27 -7 27 -6 0 -11 -5 -11 -12 0 -7 -15 2
-33 20 -33 32 -47 39 -47 24z"/>
<path d="M11394 1551 c15 -16 15 -19 1 -31 -23 -19 -18 -33 7 -16 20 14 24 14
40 -1 10 -9 18 -11 18 -6 0 6 -7 16 -15 23 -14 12 -14 15 1 31 19 21 6 27 -14
7 -9 -9 -15 -9 -24 0 -20 20 -33 14 -14 -7z"/>
<path d="M4151 1488 c-1 -15 8 -18 54 -18 46 0 55 3 54 18 0 10 -3 12 -6 5 -3
-8 -23 -13 -48 -13 -25 0 -45 5 -48 13 -3 7 -6 5 -6 -5z"/>
<path d="M3130 1478 c0 -5 25 -8 55 -8 30 0 55 3 55 8 0 4 -25 7 -55 7 -30 0
-55 -3 -55 -7z"/>
<path d="M1368 1012 c-27 -9 -38 -37 -38 -103 0 -48 5 -72 16 -83 19 -20 4
-18 168 -20 177 -2 186 3 186 103 0 105 0 105 -173 106 -80 0 -151 -1 -159 -3z
m301 -21 c21 -13 23 -138 4 -157 -11 -11 -48 -14 -157 -14 -171 0 -174 1 -171
98 0 43 5 66 15 72 19 12 291 13 309 1z"/>
<path d="M1410 945 c0 -3 5 -14 12 -24 9 -15 8 -24 -5 -45 -10 -14 -13 -26 -7
-26 5 0 15 9 22 19 12 20 12 20 26 0 20 -29 35 -23 15 7 -14 21 -14 29 -4 46
16 26 5 37 -13 12 -14 -18 -15 -18 -21 -1 -6 15 -25 25 -25 12z"/>
<path d="M327 512 c-3 -6 -2 -55 2 -89 1 -8 18 -4 53 11 56 25 69 40 41 49
-10 2 -35 12 -55 21 -20 9 -39 12 -41 8z m62 -36 l24 -13 -33 -12 c-42 -14
-40 -15 -40 14 0 28 13 31 49 11z"/>
<path d="M1910 650 c0 -27 -2 -50 -5 -50 -4 0 -19 7 -34 15 -26 13 -30 13 -41
-1 -18 -21 -24 -103 -11 -138 12 -29 26 -31 74 -11 16 7 17 -2 17 -109 l0
-116 937 2 938 3 0 210 c1 116 -1 218 -3 228 -4 16 -57 17 -938 17 l-934 0 0
-50z m1858 -182 l-3 -213 -913 -1 c-592 0 -915 3 -919 10 -4 5 -7 56 -7 112
-1 56 -5 106 -9 110 -4 4 -22 0 -41 -9 -19 -8 -37 -13 -40 -10 -10 11 -7 132
4 138 6 4 22 -1 37 -10 31 -21 44 -10 48 41 2 22 4 40 4 42 1 1 415 2 921 2
l920 0 -2 -212z"/>
<path d="M2110 603 c0 -49 -14 -73 -32 -55 -17 17 -55 15 -62 -4 -8 -20 -8
-118 0 -138 7 -18 41 -21 64 -6 20 12 30 -6 30 -57 l0 -43 245 0 245 0 0 170
0 170 -245 0 -245 0 0 -37z m474 -135 l0 -152 -220 1 c-120 1 -225 2 -231 2
-9 1 -13 18 -13 50 0 58 -11 69 -47 46 -35 -23 -46 -8 -47 59 0 68 12 84 47
61 35 -23 47 -12 47 41 l0 44 233 0 232 0 -1 -152z"/>
<path d="M2220 572 c-39 -5 -50 -29 -50 -109 0 -100 3 -102 192 -100 98 1 151
6 159 14 6 6 14 45 16 85 6 107 -1 112 -165 113 -70 0 -138 -1 -152 -3z m292
-31 c14 -20 16 -101 3 -140 -7 -24 -2 -23 -179 -23 -112 -1 -131 2 -142 17
-17 23 -15 133 3 151 11 11 49 14 158 14 130 0 145 -2 157 -19z"/>
<path d="M2255 486 c15 -23 15 -27 0 -50 -10 -15 -13 -26 -7 -26 6 0 16 8 21
18 10 16 12 16 26 -2 20 -26 31 -13 12 15 -14 19 -14 24 0 45 8 13 11 24 5 24
-5 0 -13 -7 -16 -16 -6 -16 -8 -16 -24 0 -27 24 -35 20 -17 -8z"/>
<path d="M3150 596 c0 -47 -14 -66 -33 -47 -19 19 -54 13 -61 -11 -11 -42 -6
-113 10 -136 14 -20 17 -21 43 -7 16 8 31 11 35 8 3 -4 6 -28 6 -55 l0 -48
255 0 255 0 0 170 0 170 -255 0 -255 0 0 -44z m496 -121 c0 -77 -3 -144 -7
-150 -8 -12 -455 -12 -467 -1 -4 4 -8 26 -8 48 -2 54 -16 66 -50 44 -35 -24
-45 -11 -46 58 -2 69 10 84 46 60 35 -22 49 -9 49 46 l0 40 241 -2 241 -3 1
-140z"/>
<path d="M3302 528 c-5 -7 -12 -27 -15 -45 -9 -56 41 -96 73 -58 16 19 15 82
-1 101 -14 17 -43 18 -57 2z m49 -15 c6 -46 4 -67 -9 -79 -24 -25 -39 4 -33
69 1 16 40 26 42 10z"/>
<path d="M3453 533 c-7 -2 -13 -12 -13 -20 0 -14 2 -15 18 -1 19 17 42 13 42
-6 0 -7 -13 -27 -30 -44 -16 -18 -30 -36 -30 -42 0 -5 18 -10 41 -10 25 0 38
4 34 10 -4 6 -15 8 -26 5 -26 -9 -24 9 6 39 47 47 18 94 -42 69z"/>
<path d="M2680 568 c-27 -10 -33 -25 -35 -97 -1 -55 2 -69 20 -87 21 -20 30
-22 179 -20 187 1 186 1 186 106 0 100 -6 103 -186 104 -80 1 -153 -2 -164 -6z
m322 -25 c18 -21 18 -137 0 -155 -16 -16 -306 -15 -327 2 -19 16 -21 140 -3
158 8 8 59 12 163 12 132 0 154 -2 167 -17z"/>
<path d="M2741 489 c8 -15 8 -24 0 -32 -19 -19 -12 -31 8 -13 17 16 20 16 35
1 14 -14 16 -14 16 -2 0 9 -6 17 -12 20 -9 3 -8 10 6 26 20 22 9 30 -12 9 -9
-9 -15 -9 -24 0 -19 19 -30 14 -17 -9z"/>
<path d="M870 590 c0 -37 -4 -50 -14 -50 -8 0 -18 5 -21 10 -10 17 -44 11 -55
-9 -15 -30 -12 -113 6 -139 14 -21 17 -21 44 -7 16 8 31 15 35 15 3 0 5 -25 5
-55 l0 -55 245 0 245 0 0 170 0 170 -245 0 -245 0 0 -50z m476 -122 l-1 -152
-218 0 c-120 -1 -223 1 -230 4 -7 3 -13 25 -14 49 -3 58 -15 69 -49 47 -36
-24 -47 -10 -45 60 1 70 10 82 45 58 34 -21 49 -9 52 43 1 21 2 39 3 41 1 1
104 2 229 2 l228 0 0 -152z"/>
<path d="M972 572 c-32 -5 -45 -44 -40 -121 3 -45 9 -67 21 -76 25 -18 308
-15 330 4 24 19 24 152 1 175 -8 9 -18 16 -22 17 -19 3 -270 4 -290 1z m297
-21 c10 -6 15 -31 16 -77 3 -98 1 -99 -173 -98 -90 1 -147 5 -154 12 -18 18
-15 151 2 162 19 12 290 13 309 1z"/>
<path d="M1014 496 c-8 -20 3 -35 34 -47 21 -8 23 -12 12 -19 -8 -5 -22 -4
-33 2 -15 8 -18 7 -15 -4 3 -7 18 -13 34 -13 22 0 30 5 32 22 3 17 -3 24 -22
29 -27 6 -33 18 -16 29 6 4 18 1 27 -7 14 -11 16 -11 11 2 -6 21 -57 26 -64 6z"/>
<path d="M1436 565 c-18 -9 -21 -21 -24 -92 -4 -111 -4 -111 196 -109 182 1
182 1 182 107 0 63 -13 96 -38 100 -44 7 -300 2 -316 -6z m326 -22 c19 -22 21
-124 4 -149 -11 -15 -33 -17 -164 -17 -105 0 -156 4 -166 12 -10 9 -15 32 -15
74 1 100 -4 97 173 97 133 0 155 -2 168 -17z"/>
<path d="M1520 501 c0 -12 -7 -21 -15 -21 -8 0 -15 -5 -15 -11 0 -6 7 -9 15
-5 10 4 15 -1 15 -14 0 -11 5 -20 10 -20 6 0 10 7 8 16 -2 10 5 18 15 20 28 4
34 14 9 14 -13 0 -22 6 -22 14 0 8 -4 18 -10 21 -5 3 -10 -3 -10 -14z"/>
</g>
</svg>
